<?xml version="1.0" encoding="UTF-8" standalone="no"?>
<!DOCTYPE svg PUBLIC "-//W3C//DTD SVG 1.1//EN"
 "http://www.w3.org/Graphics/SVG/1.1/DTD/svg11.dtd">
<!-- Generated by graphviz version 2.43.0 (0)
 -->
<!-- Title: oneDegreeRelationshipsDiagram Pages: 1 -->
<svg width="1097pt" height="1018pt"
 viewBox="0.00 0.00 1097.00 1018.29" xmlns="http://www.w3.org/2000/svg" xmlns:xlink="http://www.w3.org/1999/xlink">
<g id="graph0" class="graph" transform="scale(1 1) rotate(0) translate(4 1014.29)">
<title>oneDegreeRelationshipsDiagram</title>
<polygon fill="#ffffff" stroke="transparent" points="-4,4 -4,-1014.29 1093,-1014.29 1093,4 -4,4"/>
<text text-anchor="middle" x="71.5" y="-7.2" font-family="Helvetica,sans-Serif" font-size="11.00">Generated by SchemaSpy</text>
<!-- a_asset_change -->
<g id="node1" class="node">
<title>a_asset_change</title>
<g id="a_node1"><a xlink:href="../../tables/a_asset_change.html" xlink:title="a_asset_change" target="_top">
<polygon fill="#ffffff" stroke="transparent" points="847,-420.29 847,-1006.29 1081,-1006.29 1081,-420.29 847,-420.29"/>
<polygon fill="#f5f5f5" stroke="transparent" points="847,-984.29 847,-1006.29 1081,-1006.29 1081,-984.29 847,-984.29"/>
<polygon fill="none" stroke="black" points="847,-984.29 847,-1006.29 1081,-1006.29 1081,-984.29 847,-984.29"/>
<text text-anchor="start" x="852" y="-993.49" font-family="Helvetica,sans-Serif" font-weight="bold" font-size="11.00">a_asset_change</text>
<text text-anchor="start" x="1046" y="-992.49" font-family="Helvetica,sans-Serif" font-size="11.00">[table]</text>
<polygon fill="none" stroke="black" points="847,-962.29 847,-984.29 1081,-984.29 1081,-962.29 847,-962.29"/>
<image xlink:href="../../images/primaryKeys.png" width="11px" height="12px" preserveAspectRatio="xMinYMin meet" x="852" y="-979.286"/>
<text text-anchor="start" x="867" y="-970.49" font-family="Helvetica,sans-Serif" font-size="11.00">a_asset_change_id</text>
<polygon fill="none" stroke="black" points="847,-940.29 847,-962.29 1081,-962.29 1081,-940.29 847,-940.29"/>
<image xlink:href="../../images/foreignKeys.png" width="11px" height="12px" preserveAspectRatio="xMinYMin meet" x="852" y="-957.286"/>
<text text-anchor="start" x="867" y="-948.49" font-family="Helvetica,sans-Serif" font-size="11.00">a_asset_id</text>
<polygon fill="none" stroke="black" points="847,-918.29 847,-940.29 1081,-940.29 1081,-918.29 847,-918.29"/>
<image xlink:href="../../images/foreignKeys.png" width="11px" height="12px" preserveAspectRatio="xMinYMin meet" x="852" y="-935.286"/>
<text text-anchor="start" x="867" y="-926.49" font-family="Helvetica,sans-Serif" font-size="11.00">a_asset_retirement_id</text>
<polygon fill="none" stroke="black" points="847,-896.29 847,-918.29 1081,-918.29 1081,-896.29 847,-896.29"/>
<image xlink:href="../../images/foreignKeys.png" width="11px" height="12px" preserveAspectRatio="xMinYMin meet" x="852" y="-913.286"/>
<text text-anchor="start" x="867" y="-904.49" font-family="Helvetica,sans-Serif" font-size="11.00">a_asset_addition_id</text>
<polygon fill="none" stroke="black" points="847,-874.29 847,-896.29 1081,-896.29 1081,-874.29 847,-874.29"/>
<image xlink:href="../../images/foreignKeys.png" width="11px" height="12px" preserveAspectRatio="xMinYMin meet" x="852" y="-891.286"/>
<text text-anchor="start" x="867" y="-882.49" font-family="Helvetica,sans-Serif" font-size="11.00">a_accumdepreciation_acct</text>
<polygon fill="none" stroke="black" points="847,-852.29 847,-874.29 1081,-874.29 1081,-852.29 847,-852.29"/>
<image xlink:href="../../images/foreignKeys.png" width="11px" height="12px" preserveAspectRatio="xMinYMin meet" x="852" y="-869.286"/>
<text text-anchor="start" x="867" y="-860.49" font-family="Helvetica,sans-Serif" font-size="11.00">a_parent_asset_id</text>
<polygon fill="none" stroke="black" points="847,-830.29 847,-852.29 1081,-852.29 1081,-830.29 847,-830.29"/>
<image xlink:href="../../images/foreignKeys.png" width="11px" height="12px" preserveAspectRatio="xMinYMin meet" x="852" y="-847.286"/>
<text text-anchor="start" x="867" y="-838.49" font-family="Helvetica,sans-Serif" font-size="11.00">a_depreciation_table_header_id</text>
<polygon fill="none" stroke="black" points="847,-808.29 847,-830.29 1081,-830.29 1081,-808.29 847,-808.29"/>
<image xlink:href="../../images/foreignKeys.png" width="11px" height="12px" preserveAspectRatio="xMinYMin meet" x="852" y="-825.286"/>
<text text-anchor="start" x="867" y="-816.49" font-family="Helvetica,sans-Serif" font-size="11.00">c_acctschema_id</text>
<polygon fill="none" stroke="black" points="847,-786.29 847,-808.29 1081,-808.29 1081,-786.29 847,-786.29"/>
<image xlink:href="../../images/foreignKeys.png" width="11px" height="12px" preserveAspectRatio="xMinYMin meet" x="852" y="-803.286"/>
<text text-anchor="start" x="867" y="-794.49" font-family="Helvetica,sans-Serif" font-size="11.00">ad_user_id</text>
<polygon fill="none" stroke="black" points="847,-764.29 847,-786.29 1081,-786.29 1081,-764.29 847,-764.29"/>
<image xlink:href="../../images/foreignKeys.png" width="11px" height="12px" preserveAspectRatio="xMinYMin meet" x="852" y="-781.286"/>
<text text-anchor="start" x="867" y="-772.49" font-family="Helvetica,sans-Serif" font-size="11.00">c_validcombination_id</text>
<polygon fill="none" stroke="black" points="847,-742.29 847,-764.29 1081,-764.29 1081,-742.29 847,-742.29"/>
<image xlink:href="../../images/foreignKeys.png" width="11px" height="12px" preserveAspectRatio="xMinYMin meet" x="852" y="-759.286"/>
<text text-anchor="start" x="867" y="-750.49" font-family="Helvetica,sans-Serif" font-size="11.00">c_location_id</text>
<polygon fill="none" stroke="black" points="847,-720.29 847,-742.29 1081,-742.29 1081,-720.29 847,-720.29"/>
<image xlink:href="../../images/foreignKeys.png" width="11px" height="12px" preserveAspectRatio="xMinYMin meet" x="852" y="-737.286"/>
<text text-anchor="start" x="867" y="-728.49" font-family="Helvetica,sans-Serif" font-size="11.00">c_bpartner_location_id</text>
<polygon fill="none" stroke="black" points="847,-698.29 847,-720.29 1081,-720.29 1081,-698.29 847,-698.29"/>
<image xlink:href="../../images/foreignKeys.png" width="11px" height="12px" preserveAspectRatio="xMinYMin meet" x="852" y="-715.286"/>
<text text-anchor="start" x="867" y="-706.49" font-family="Helvetica,sans-Serif" font-size="11.00">c_bpartner_id</text>
<polygon fill="none" stroke="black" points="847,-676.29 847,-698.29 1081,-698.29 1081,-676.29 847,-676.29"/>
<image xlink:href="../../images/foreignKeys.png" width="11px" height="12px" preserveAspectRatio="xMinYMin meet" x="852" y="-693.286"/>
<text text-anchor="start" x="867" y="-684.49" font-family="Helvetica,sans-Serif" font-size="11.00">a_depreciation_acct</text>
<polygon fill="none" stroke="black" points="847,-654.29 847,-676.29 1081,-676.29 1081,-654.29 847,-654.29"/>
<image xlink:href="../../images/foreignKeys.png" width="11px" height="12px" preserveAspectRatio="xMinYMin meet" x="852" y="-671.286"/>
<text text-anchor="start" x="867" y="-662.49" font-family="Helvetica,sans-Serif" font-size="11.00">a_asset_acct</text>
<polygon fill="none" stroke="black" points="847,-632.29 847,-654.29 1081,-654.29 1081,-632.29 847,-632.29"/>
<image xlink:href="../../images/foreignKeys.png" width="11px" height="12px" preserveAspectRatio="xMinYMin meet" x="852" y="-649.286"/>
<text text-anchor="start" x="867" y="-640.49" font-family="Helvetica,sans-Serif" font-size="11.00">a_asset_acct_id</text>
<polygon fill="#ffffff" stroke="transparent" points="847,-610.29 847,-632.29 1081,-632.29 1081,-610.29 847,-610.29"/>
<polygon fill="none" stroke="black" points="847,-610.29 847,-632.29 1081,-632.29 1081,-610.29 847,-610.29"/>
<text text-anchor="start" x="867" y="-618.49" font-family="Helvetica,sans-Serif" font-size="11.00">a_asset_change_uu</text>
<polygon fill="none" stroke="black" points="847,-588.29 847,-610.29 1081,-610.29 1081,-588.29 847,-588.29"/>
<image xlink:href="../../images/foreignKeys.png" width="11px" height="12px" preserveAspectRatio="xMinYMin meet" x="852" y="-605.286"/>
<text text-anchor="start" x="867" y="-596.49" font-family="Helvetica,sans-Serif" font-size="11.00">a_disposal_revenue_acct</text>
<polygon fill="none" stroke="black" points="847,-566.29 847,-588.29 1081,-588.29 1081,-566.29 847,-566.29"/>
<image xlink:href="../../images/foreignKeys.png" width="11px" height="12px" preserveAspectRatio="xMinYMin meet" x="852" y="-583.286"/>
<text text-anchor="start" x="867" y="-574.49" font-family="Helvetica,sans-Serif" font-size="11.00">a_disposal_loss_acct</text>
<polygon fill="none" stroke="black" points="847,-544.29 847,-566.29 1081,-566.29 1081,-544.29 847,-544.29"/>
<image xlink:href="../../images/foreignKeys.png" width="11px" height="12px" preserveAspectRatio="xMinYMin meet" x="852" y="-561.286"/>
<text text-anchor="start" x="867" y="-552.49" font-family="Helvetica,sans-Serif" font-size="11.00">c_invoice_id</text>
<polygon fill="none" stroke="black" points="847,-522.29 847,-544.29 1081,-544.29 1081,-522.29 847,-522.29"/>
<image xlink:href="../../images/foreignKeys.png" width="11px" height="12px" preserveAspectRatio="xMinYMin meet" x="852" y="-539.286"/>
<text text-anchor="start" x="867" y="-530.49" font-family="Helvetica,sans-Serif" font-size="11.00">c_invoice_c_bpartner_id</text>
<polygon fill="none" stroke="black" points="847,-500.29 847,-522.29 1081,-522.29 1081,-500.29 847,-500.29"/>
<image xlink:href="../../images/foreignKeys.png" width="11px" height="12px" preserveAspectRatio="xMinYMin meet" x="852" y="-517.286"/>
<text text-anchor="start" x="867" y="-508.49" font-family="Helvetica,sans-Serif" font-size="11.00">c_invoice_ad_user_id</text>
<polygon fill="none" stroke="black" points="847,-478.29 847,-500.29 1081,-500.29 1081,-478.29 847,-478.29"/>
<image xlink:href="../../images/foreignKeys.png" width="11px" height="12px" preserveAspectRatio="xMinYMin meet" x="852" y="-495.286"/>
<text text-anchor="start" x="867" y="-486.49" font-family="Helvetica,sans-Serif" font-size="11.00">c_invoice_c_doctypetarget_id</text>
<polygon fill="none" stroke="black" points="847,-456.29 847,-478.29 1081,-478.29 1081,-456.29 847,-456.29"/>
<image xlink:href="../../images/foreignKeys.png" width="11px" height="12px" preserveAspectRatio="xMinYMin meet" x="852" y="-473.286"/>
<text text-anchor="start" x="867" y="-464.49" font-family="Helvetica,sans-Serif" font-size="11.00">c_invoice_c_bpartnerloc_id</text>
<polygon fill="none" stroke="black" points="847,-438.29 847,-456.29 1081,-456.29 1081,-438.29 847,-438.29"/>
<text text-anchor="start" x="850" y="-444.49" font-family="Helvetica,sans-Serif" font-size="11.00">...</text>
<polygon fill="#ffffff" stroke="transparent" points="847,-420.29 847,-438.29 947,-438.29 947,-420.29 847,-420.29"/>
<polygon fill="none" stroke="black" points="847,-420.29 847,-438.29 947,-438.29 947,-420.29 847,-420.29"/>
<text text-anchor="start" x="850" y="-426.49" font-family="Helvetica,sans-Serif" font-size="11.00">&lt; 21</text>
<polygon fill="#ffffff" stroke="transparent" points="947,-420.29 947,-438.29 1022,-438.29 1022,-420.29 947,-420.29"/>
<polygon fill="none" stroke="black" points="947,-420.29 947,-438.29 1022,-438.29 1022,-420.29 947,-420.29"/>
<text text-anchor="start" x="986" y="-426.49" font-family="Helvetica,sans-Serif" font-size="11.00">0 rows</text>
<polygon fill="#ffffff" stroke="transparent" points="1022,-420.29 1022,-438.29 1081,-438.29 1081,-420.29 1022,-420.29"/>
<polygon fill="none" stroke="black" points="1022,-420.29 1022,-438.29 1081,-438.29 1081,-420.29 1022,-420.29"/>
<text text-anchor="start" x="1062" y="-426.49" font-family="Helvetica,sans-Serif" font-size="11.00">1 &gt;</text>
</a>
</g>
</g>
<!-- a_asset -->
<g id="node2" class="node">
<title>a_asset</title>
<g id="a_node2"><a xlink:href="../../tables/a_asset.html" xlink:title="a_asset" target="_top">
<polygon fill="#ffffff" stroke="transparent" points="8,-297.29 8,-751.29 205,-751.29 205,-297.29 8,-297.29"/>
<polygon fill="#f5f5f5" stroke="transparent" points="8.5,-729.29 8.5,-751.29 205.5,-751.29 205.5,-729.29 8.5,-729.29"/>
<polygon fill="none" stroke="black" points="8.5,-729.29 8.5,-751.29 205.5,-751.29 205.5,-729.29 8.5,-729.29"/>
<text text-anchor="start" x="13.5" y="-738.49" font-family="Helvetica,sans-Serif" font-weight="bold" font-size="11.00">a_asset</text>
<text text-anchor="start" x="170.5" y="-737.49" font-family="Helvetica,sans-Serif" font-size="11.00">[table]</text>
<polygon fill="none" stroke="black" points="8.5,-707.29 8.5,-729.29 205.5,-729.29 205.5,-707.29 8.5,-707.29"/>
<image xlink:href="../../images/primaryKeys.png" width="11px" height="12px" preserveAspectRatio="xMinYMin meet" x="13.5" y="-724.286"/>
<text text-anchor="start" x="28.5" y="-715.49" font-family="Helvetica,sans-Serif" font-size="11.00">a_asset_id</text>
<polygon fill="none" stroke="black" points="8.5,-685.29 8.5,-707.29 205.5,-707.29 205.5,-685.29 8.5,-685.29"/>
<image xlink:href="../../images/foreignKeys.png" width="11px" height="12px" preserveAspectRatio="xMinYMin meet" x="13.5" y="-702.286"/>
<text text-anchor="start" x="28.5" y="-693.49" font-family="Helvetica,sans-Serif" font-size="11.00">a_asset_group_id</text>
<polygon fill="none" stroke="black" points="8.5,-663.29 8.5,-685.29 205.5,-685.29 205.5,-663.29 8.5,-663.29"/>
<image xlink:href="../../images/foreignKeys.png" width="11px" height="12px" preserveAspectRatio="xMinYMin meet" x="13.5" y="-680.286"/>
<text text-anchor="start" x="28.5" y="-671.49" font-family="Helvetica,sans-Serif" font-size="11.00">m_product_id</text>
<polygon fill="none" stroke="black" points="8.5,-641.29 8.5,-663.29 205.5,-663.29 205.5,-641.29 8.5,-641.29"/>
<image xlink:href="../../images/foreignKeys.png" width="11px" height="12px" preserveAspectRatio="xMinYMin meet" x="13.5" y="-658.286"/>
<text text-anchor="start" x="28.5" y="-649.49" font-family="Helvetica,sans-Serif" font-size="11.00">m_locator_id</text>
<polygon fill="none" stroke="black" points="8.5,-619.29 8.5,-641.29 205.5,-641.29 205.5,-619.29 8.5,-619.29"/>
<image xlink:href="../../images/foreignKeys.png" width="11px" height="12px" preserveAspectRatio="xMinYMin meet" x="13.5" y="-636.286"/>
<text text-anchor="start" x="28.5" y="-627.49" font-family="Helvetica,sans-Serif" font-size="11.00">c_bpartner_id</text>
<polygon fill="none" stroke="black" points="8.5,-597.29 8.5,-619.29 205.5,-619.29 205.5,-597.29 8.5,-597.29"/>
<image xlink:href="../../images/foreignKeys.png" width="11px" height="12px" preserveAspectRatio="xMinYMin meet" x="13.5" y="-614.286"/>
<text text-anchor="start" x="28.5" y="-605.49" font-family="Helvetica,sans-Serif" font-size="11.00">c_bpartner_location_id</text>
<polygon fill="none" stroke="black" points="8.5,-575.29 8.5,-597.29 205.5,-597.29 205.5,-575.29 8.5,-575.29"/>
<image xlink:href="../../images/foreignKeys.png" width="11px" height="12px" preserveAspectRatio="xMinYMin meet" x="13.5" y="-592.286"/>
<text text-anchor="start" x="28.5" y="-583.49" font-family="Helvetica,sans-Serif" font-size="11.00">c_location_id</text>
<polygon fill="none" stroke="black" points="8.5,-553.29 8.5,-575.29 205.5,-575.29 205.5,-553.29 8.5,-553.29"/>
<image xlink:href="../../images/foreignKeys.png" width="11px" height="12px" preserveAspectRatio="xMinYMin meet" x="13.5" y="-570.286"/>
<text text-anchor="start" x="28.5" y="-561.49" font-family="Helvetica,sans-Serif" font-size="11.00">ad_user_id</text>
<polygon fill="none" stroke="black" points="8.5,-531.29 8.5,-553.29 205.5,-553.29 205.5,-531.29 8.5,-531.29"/>
<image xlink:href="../../images/foreignKeys.png" width="11px" height="12px" preserveAspectRatio="xMinYMin meet" x="13.5" y="-548.286"/>
<text text-anchor="start" x="28.5" y="-539.49" font-family="Helvetica,sans-Serif" font-size="11.00">m_attributesetinstance_id</text>
<polygon fill="none" stroke="black" points="8.5,-509.29 8.5,-531.29 205.5,-531.29 205.5,-509.29 8.5,-509.29"/>
<image xlink:href="../../images/foreignKeys.png" width="11px" height="12px" preserveAspectRatio="xMinYMin meet" x="13.5" y="-526.286"/>
<text text-anchor="start" x="28.5" y="-517.49" font-family="Helvetica,sans-Serif" font-size="11.00">c_project_id</text>
<polygon fill="none" stroke="black" points="8.5,-487.29 8.5,-509.29 205.5,-509.29 205.5,-487.29 8.5,-487.29"/>
<image xlink:href="../../images/foreignKeys.png" width="11px" height="12px" preserveAspectRatio="xMinYMin meet" x="13.5" y="-504.286"/>
<text text-anchor="start" x="28.5" y="-495.49" font-family="Helvetica,sans-Serif" font-size="11.00">c_bpartnersr_id</text>
<polygon fill="none" stroke="black" points="8.5,-465.29 8.5,-487.29 205.5,-487.29 205.5,-465.29 8.5,-465.29"/>
<image xlink:href="../../images/foreignKeys.png" width="11px" height="12px" preserveAspectRatio="xMinYMin meet" x="13.5" y="-482.286"/>
<text text-anchor="start" x="28.5" y="-473.49" font-family="Helvetica,sans-Serif" font-size="11.00">m_inoutline_id</text>
<polygon fill="none" stroke="black" points="8.5,-443.29 8.5,-465.29 205.5,-465.29 205.5,-443.29 8.5,-443.29"/>
<image xlink:href="../../images/foreignKeys.png" width="11px" height="12px" preserveAspectRatio="xMinYMin meet" x="13.5" y="-460.286"/>
<text text-anchor="start" x="28.5" y="-451.49" font-family="Helvetica,sans-Serif" font-size="11.00">lease_bpartner_id</text>
<polygon fill="none" stroke="black" points="8.5,-421.29 8.5,-443.29 205.5,-443.29 205.5,-421.29 8.5,-421.29"/>
<image xlink:href="../../images/foreignKeys.png" width="11px" height="12px" preserveAspectRatio="xMinYMin meet" x="13.5" y="-438.286"/>
<text text-anchor="start" x="28.5" y="-429.49" font-family="Helvetica,sans-Serif" font-size="11.00">a_parent_asset_id</text>
<polygon fill="#ffffff" stroke="transparent" points="8.5,-399.29 8.5,-421.29 205.5,-421.29 205.5,-399.29 8.5,-399.29"/>
<polygon fill="none" stroke="black" points="8.5,-399.29 8.5,-421.29 205.5,-421.29 205.5,-399.29 8.5,-399.29"/>
<text text-anchor="start" x="28.5" y="-407.49" font-family="Helvetica,sans-Serif" font-size="11.00">a_asset_uu</text>
<polygon fill="none" stroke="black" points="8.5,-377.29 8.5,-399.29 205.5,-399.29 205.5,-377.29 8.5,-377.29"/>
<image xlink:href="../../images/foreignKeys.png" width="11px" height="12px" preserveAspectRatio="xMinYMin meet" x="13.5" y="-394.286"/>
<text text-anchor="start" x="28.5" y="-385.49" font-family="Helvetica,sans-Serif" font-size="11.00">a_asset_class_id</text>
<polygon fill="none" stroke="black" points="8.5,-355.29 8.5,-377.29 205.5,-377.29 205.5,-355.29 8.5,-355.29"/>
<image xlink:href="../../images/foreignKeys.png" width="11px" height="12px" preserveAspectRatio="xMinYMin meet" x="13.5" y="-372.286"/>
<text text-anchor="start" x="28.5" y="-363.49" font-family="Helvetica,sans-Serif" font-size="11.00">a_asset_type_id</text>
<polygon fill="none" stroke="black" points="8.5,-333.29 8.5,-355.29 205.5,-355.29 205.5,-333.29 8.5,-333.29"/>
<image xlink:href="../../images/foreignKeys.png" width="11px" height="12px" preserveAspectRatio="xMinYMin meet" x="13.5" y="-350.286"/>
<text text-anchor="start" x="28.5" y="-341.49" font-family="Helvetica,sans-Serif" font-size="11.00">c_activity_id</text>
<polygon fill="none" stroke="black" points="8.5,-315.29 8.5,-333.29 205.5,-333.29 205.5,-315.29 8.5,-315.29"/>
<text text-anchor="start" x="11.5" y="-321.49" font-family="Helvetica,sans-Serif" font-size="11.00">...</text>
<polygon fill="#ffffff" stroke="transparent" points="8.5,-297.29 8.5,-315.29 87.5,-315.29 87.5,-297.29 8.5,-297.29"/>
<polygon fill="none" stroke="black" points="8.5,-297.29 8.5,-315.29 87.5,-315.29 87.5,-297.29 8.5,-297.29"/>
<text text-anchor="start" x="11.5" y="-303.49" font-family="Helvetica,sans-Serif" font-size="11.00">&lt; 16</text>
<polygon fill="#ffffff" stroke="transparent" points="87.5,-297.29 87.5,-315.29 151.5,-315.29 151.5,-297.29 87.5,-297.29"/>
<polygon fill="none" stroke="black" points="87.5,-297.29 87.5,-315.29 151.5,-315.29 151.5,-297.29 87.5,-297.29"/>
<text text-anchor="start" x="115.5" y="-303.49" font-family="Helvetica,sans-Serif" font-size="11.00">0 rows</text>
<polygon fill="#ffffff" stroke="transparent" points="151.5,-297.29 151.5,-315.29 205.5,-315.29 205.5,-297.29 151.5,-297.29"/>
<polygon fill="none" stroke="black" points="151.5,-297.29 151.5,-315.29 205.5,-315.29 205.5,-297.29 151.5,-297.29"/>
<text text-anchor="start" x="180.5" y="-303.49" font-family="Helvetica,sans-Serif" font-size="11.00">48 &gt;</text>
</a>
</g>
</g>
<!-- a_asset_change&#45;&gt;a_asset -->
<g id="edge1" class="edge">
<title>a_asset_change:w&#45;&gt;a_asset:e</title>
<path fill="none" stroke="black" d="M832.1,-955.35C823.87,-961.11 820.05,-971.39 806,-975.29 687.78,-1008.03 650.98,-995.57 530,-975.29 398.31,-953.2 336.13,-975.8 246,-877.29 196.85,-823.56 279.31,-718.29 206.5,-718.29"/>
<polygon fill="black" stroke="black" points="838.32,-953.53 847.01,-954.74 842.16,-952.41 846,-951.29 846,-951.29 846,-951.29 842.16,-952.41 844.99,-947.83 838.32,-953.53 838.32,-953.53"/>
<ellipse fill="none" stroke="black" cx="835.25" cy="-954.43" rx="3.2" ry="3.2"/>
</g>
<!-- a_asset_change&#45;&gt;a_asset -->
<g id="edge3" class="edge">
<title>a_asset_change:w&#45;&gt;a_asset:e</title>
<path fill="none" stroke="black" d="M832.1,-857.8C798.12,-826.46 822.24,-669.86 806,-624.29 713.03,-363.46 736.48,-222.29 497,-83.29 400.52,-27.28 327.29,-6.89 246,-83.29 194.48,-131.7 277.19,-718.29 206.5,-718.29"/>
<polygon fill="black" stroke="black" points="838.56,-860.35 844.68,-866.63 842.28,-861.82 846,-863.29 846,-863.29 846,-863.29 842.28,-861.82 847.32,-859.94 838.56,-860.35 838.56,-860.35"/>
<ellipse fill="none" stroke="black" cx="835.58" cy="-859.17" rx="3.2" ry="3.2"/>
</g>
<!-- a_asset_retirement -->
<g id="node3" class="node">
<title>a_asset_retirement</title>
<g id="a_node3"><a xlink:href="../../tables/a_asset_retirement.html" xlink:title="a_asset_retirement" target="_top">
<polygon fill="#ffffff" stroke="transparent" points="538,-634.29 538,-964.29 798,-964.29 798,-634.29 538,-634.29"/>
<polygon fill="#f5f5f5" stroke="transparent" points="540,-940.29 540,-962.29 796,-962.29 796,-940.29 540,-940.29"/>
<polygon fill="none" stroke="black" points="540,-940.29 540,-962.29 796,-962.29 796,-940.29 540,-940.29"/>
<text text-anchor="start" x="545" y="-949.49" font-family="Helvetica,sans-Serif" font-weight="bold" font-size="11.00">a_asset_retirement</text>
<text text-anchor="start" x="761" y="-948.49" font-family="Helvetica,sans-Serif" font-size="11.00">[table]</text>
<polygon fill="none" stroke="black" points="540,-918.29 540,-940.29 713,-940.29 713,-918.29 540,-918.29"/>
<image xlink:href="../../images/primaryKeys.png" width="11px" height="12px" preserveAspectRatio="xMinYMin meet" x="545" y="-935.286"/>
<text text-anchor="start" x="560" y="-926.49" font-family="Helvetica,sans-Serif" font-size="11.00">a_asset_retirement_id</text>
<polygon fill="none" stroke="black" points="713,-918.29 713,-940.29 796,-940.29 796,-918.29 713,-918.29"/>
<text text-anchor="start" x="716" y="-926.49" font-family="Helvetica,sans-Serif" font-size="11.00">numeric[10]</text>
<polygon fill="none" stroke="black" points="540,-896.29 540,-918.29 713,-918.29 713,-896.29 540,-896.29"/>
<text text-anchor="start" x="560" y="-904.49" font-family="Helvetica,sans-Serif" font-size="11.00">ad_client_id</text>
<polygon fill="none" stroke="black" points="713,-896.29 713,-918.29 796,-918.29 796,-896.29 713,-896.29"/>
<text text-anchor="start" x="716" y="-904.49" font-family="Helvetica,sans-Serif" font-size="11.00">numeric[10]</text>
<polygon fill="none" stroke="black" points="540,-874.29 540,-896.29 713,-896.29 713,-874.29 540,-874.29"/>
<text text-anchor="start" x="560" y="-882.49" font-family="Helvetica,sans-Serif" font-size="11.00">ad_org_id</text>
<polygon fill="none" stroke="black" points="713,-874.29 713,-896.29 796,-896.29 796,-874.29 713,-874.29"/>
<text text-anchor="start" x="716" y="-882.49" font-family="Helvetica,sans-Serif" font-size="11.00">numeric[10]</text>
<polygon fill="none" stroke="black" points="540,-852.29 540,-874.29 713,-874.29 713,-852.29 540,-852.29"/>
<text text-anchor="start" x="560" y="-860.49" font-family="Helvetica,sans-Serif" font-size="11.00">isactive</text>
<polygon fill="none" stroke="black" points="713,-852.29 713,-874.29 796,-874.29 796,-852.29 713,-852.29"/>
<text text-anchor="start" x="716" y="-860.49" font-family="Helvetica,sans-Serif" font-size="11.00">bpchar[1]</text>
<polygon fill="none" stroke="black" points="540,-830.29 540,-852.29 713,-852.29 713,-830.29 540,-830.29"/>
<text text-anchor="start" x="560" y="-838.49" font-family="Helvetica,sans-Serif" font-size="11.00">created</text>
<polygon fill="none" stroke="black" points="713,-830.29 713,-852.29 796,-852.29 796,-830.29 713,-830.29"/>
<text text-anchor="start" x="716" y="-838.49" font-family="Helvetica,sans-Serif" font-size="11.00">timestamp[29,6]</text>
<polygon fill="none" stroke="black" points="540,-808.29 540,-830.29 713,-830.29 713,-808.29 540,-808.29"/>
<text text-anchor="start" x="560" y="-816.49" font-family="Helvetica,sans-Serif" font-size="11.00">createdby</text>
<polygon fill="none" stroke="black" points="713,-808.29 713,-830.29 796,-830.29 796,-808.29 713,-808.29"/>
<text text-anchor="start" x="716" y="-816.49" font-family="Helvetica,sans-Serif" font-size="11.00">numeric[10]</text>
<polygon fill="none" stroke="black" points="540,-786.29 540,-808.29 713,-808.29 713,-786.29 540,-786.29"/>
<text text-anchor="start" x="560" y="-794.49" font-family="Helvetica,sans-Serif" font-size="11.00">updated</text>
<polygon fill="none" stroke="black" points="713,-786.29 713,-808.29 796,-808.29 796,-786.29 713,-786.29"/>
<text text-anchor="start" x="716" y="-794.49" font-family="Helvetica,sans-Serif" font-size="11.00">timestamp[29,6]</text>
<polygon fill="none" stroke="black" points="540,-764.29 540,-786.29 713,-786.29 713,-764.29 540,-764.29"/>
<text text-anchor="start" x="560" y="-772.49" font-family="Helvetica,sans-Serif" font-size="11.00">updatedby</text>
<polygon fill="none" stroke="black" points="713,-764.29 713,-786.29 796,-786.29 796,-764.29 713,-764.29"/>
<text text-anchor="start" x="716" y="-772.49" font-family="Helvetica,sans-Serif" font-size="11.00">numeric[10]</text>
<polygon fill="none" stroke="black" points="540,-742.29 540,-764.29 713,-764.29 713,-742.29 540,-742.29"/>
<image xlink:href="../../images/foreignKeys.png" width="11px" height="12px" preserveAspectRatio="xMinYMin meet" x="545" y="-759.286"/>
<text text-anchor="start" x="560" y="-750.49" font-family="Helvetica,sans-Serif" font-size="11.00">a_asset_id</text>
<polygon fill="none" stroke="black" points="713,-742.29 713,-764.29 796,-764.29 796,-742.29 713,-742.29"/>
<text text-anchor="start" x="716" y="-750.49" font-family="Helvetica,sans-Serif" font-size="11.00">numeric[10]</text>
<polygon fill="none" stroke="black" points="540,-720.29 540,-742.29 713,-742.29 713,-720.29 540,-720.29"/>
<text text-anchor="start" x="560" y="-728.49" font-family="Helvetica,sans-Serif" font-size="11.00">assetvalueamt</text>
<polygon fill="none" stroke="black" points="713,-720.29 713,-742.29 796,-742.29 796,-720.29 713,-720.29"/>
<text text-anchor="start" x="716" y="-728.49" font-family="Helvetica,sans-Serif" font-size="11.00">numeric[0]</text>
<polygon fill="none" stroke="black" points="540,-698.29 540,-720.29 713,-720.29 713,-698.29 540,-698.29"/>
<text text-anchor="start" x="560" y="-706.49" font-family="Helvetica,sans-Serif" font-size="11.00">assetmarketvalueamt</text>
<polygon fill="none" stroke="black" points="713,-698.29 713,-720.29 796,-720.29 796,-698.29 713,-698.29"/>
<text text-anchor="start" x="716" y="-706.49" font-family="Helvetica,sans-Serif" font-size="11.00">numeric[0]</text>
<polygon fill="none" stroke="black" points="540,-676.29 540,-698.29 713,-698.29 713,-676.29 540,-676.29"/>
<image xlink:href="../../images/foreignKeys.png" width="11px" height="12px" preserveAspectRatio="xMinYMin meet" x="545" y="-693.286"/>
<text text-anchor="start" x="560" y="-684.49" font-family="Helvetica,sans-Serif" font-size="11.00">c_invoiceline_id</text>
<polygon fill="none" stroke="black" points="713,-676.29 713,-698.29 796,-698.29 796,-676.29 713,-676.29"/>
<text text-anchor="start" x="716" y="-684.49" font-family="Helvetica,sans-Serif" font-size="11.00">numeric[10]</text>
<polygon fill="#ffffff" stroke="transparent" points="540,-654.29 540,-676.29 713,-676.29 713,-654.29 540,-654.29"/>
<polygon fill="none" stroke="black" points="540,-654.29 540,-676.29 713,-676.29 713,-654.29 540,-654.29"/>
<text text-anchor="start" x="560" y="-662.49" font-family="Helvetica,sans-Serif" font-size="11.00">a_asset_retirement_uu</text>
<polygon fill="none" stroke="black" points="713,-654.29 713,-676.29 796,-676.29 796,-654.29 713,-654.29"/>
<text text-anchor="start" x="716" y="-662.49" font-family="Helvetica,sans-Serif" font-size="11.00">varchar[36]</text>
<polygon fill="#ffffff" stroke="transparent" points="540,-636.29 540,-654.29 618,-654.29 618,-636.29 540,-636.29"/>
<polygon fill="none" stroke="black" points="540,-636.29 540,-654.29 618,-654.29 618,-636.29 540,-636.29"/>
<text text-anchor="start" x="543" y="-642.49" font-family="Helvetica,sans-Serif" font-size="11.00">&lt; 2</text>
<polygon fill="#ffffff" stroke="transparent" points="618,-636.29 618,-654.29 713,-654.29 713,-636.29 618,-636.29"/>
<polygon fill="none" stroke="black" points="618,-636.29 618,-654.29 713,-654.29 713,-636.29 618,-636.29"/>
<text text-anchor="start" x="677" y="-642.49" font-family="Helvetica,sans-Serif" font-size="11.00">0 rows</text>
<polygon fill="#ffffff" stroke="transparent" points="713,-636.29 713,-654.29 796,-654.29 796,-636.29 713,-636.29"/>
<polygon fill="none" stroke="black" points="713,-636.29 713,-654.29 796,-654.29 796,-636.29 713,-636.29"/>
<text text-anchor="start" x="777" y="-642.49" font-family="Helvetica,sans-Serif" font-size="11.00">1 &gt;</text>
<polygon fill="none" stroke="black" stroke-width="2" points="539,-635.29 539,-963.29 797,-963.29 797,-635.29 539,-635.29"/>
</a>
</g>
</g>
<!-- a_asset_change&#45;&gt;a_asset_retirement -->
<g id="edge2" class="edge">
<title>a_asset_change:w&#45;&gt;a_asset_retirement:e</title>
<path fill="none" stroke="black" d="M831.49,-929.29C820.18,-929.29 812.99,-929.29 797,-929.29"/>
<polygon fill="black" stroke="black" points="838,-929.29 846,-932.89 842,-929.29 846,-929.29 846,-929.29 846,-929.29 842,-929.29 846,-925.69 838,-929.29 838,-929.29"/>
<ellipse fill="none" stroke="black" cx="834.8" cy="-929.29" rx="3.2" ry="3.2"/>
</g>
<!-- a_asset_retirement&#45;&gt;a_asset -->
<g id="edge4" class="edge">
<title>a_asset_retirement:w&#45;&gt;a_asset:e</title>
<path fill="none" stroke="black" d="M524.78,-756.95C504.19,-771.28 529.24,-823.65 497,-844.29 403.03,-904.41 335.91,-910.32 246,-844.29 198.7,-809.54 265.19,-718.29 206.5,-718.29"/>
<polygon fill="black" stroke="black" points="531.25,-755.28 539.9,-756.77 535.13,-754.28 539,-753.29 539,-753.29 539,-753.29 535.13,-754.28 538.1,-749.8 531.25,-755.28 531.25,-755.28"/>
<ellipse fill="none" stroke="black" cx="528.15" cy="-756.08" rx="3.2" ry="3.2"/>
</g>
<!-- c_invoiceline -->
<g id="node4" class="node">
<title>c_invoiceline</title>
<g id="a_node4"><a xlink:href="../../tables/c_invoiceline.html" xlink:title="c_invoiceline" target="_top">
<polygon fill="#ffffff" stroke="transparent" points="254,-93.29 254,-833.29 489,-833.29 489,-93.29 254,-93.29"/>
<polygon fill="#f5f5f5" stroke="transparent" points="254.5,-811.29 254.5,-833.29 489.5,-833.29 489.5,-811.29 254.5,-811.29"/>
<polygon fill="none" stroke="black" points="254.5,-811.29 254.5,-833.29 489.5,-833.29 489.5,-811.29 254.5,-811.29"/>
<text text-anchor="start" x="259.5" y="-820.49" font-family="Helvetica,sans-Serif" font-weight="bold" font-size="11.00">c_invoiceline</text>
<text text-anchor="start" x="454.5" y="-819.49" font-family="Helvetica,sans-Serif" font-size="11.00">[table]</text>
<polygon fill="none" stroke="black" points="254.5,-789.29 254.5,-811.29 489.5,-811.29 489.5,-789.29 254.5,-789.29"/>
<image xlink:href="../../images/primaryKeys.png" width="11px" height="12px" preserveAspectRatio="xMinYMin meet" x="259.5" y="-806.286"/>
<text text-anchor="start" x="274.5" y="-797.49" font-family="Helvetica,sans-Serif" font-size="11.00">c_invoiceline_id</text>
<polygon fill="none" stroke="black" points="254.5,-767.29 254.5,-789.29 489.5,-789.29 489.5,-767.29 254.5,-767.29"/>
<image xlink:href="../../images/foreignKeys.png" width="11px" height="12px" preserveAspectRatio="xMinYMin meet" x="259.5" y="-784.286"/>
<text text-anchor="start" x="274.5" y="-775.49" font-family="Helvetica,sans-Serif" font-size="11.00">ad_org_id</text>
<polygon fill="#ffffff" stroke="transparent" points="254.5,-745.29 254.5,-767.29 489.5,-767.29 489.5,-745.29 254.5,-745.29"/>
<polygon fill="none" stroke="black" points="254.5,-745.29 254.5,-767.29 489.5,-767.29 489.5,-745.29 254.5,-745.29"/>
<image xlink:href="../../images/foreignKeys.png" width="11px" height="12px" preserveAspectRatio="xMinYMin meet" x="259.5" y="-762.286"/>
<text text-anchor="start" x="274.5" y="-753.49" font-family="Helvetica,sans-Serif" font-size="11.00">c_invoice_id</text>
<polygon fill="#ffffff" stroke="transparent" points="254.5,-723.29 254.5,-745.29 489.5,-745.29 489.5,-723.29 254.5,-723.29"/>
<polygon fill="none" stroke="black" points="254.5,-723.29 254.5,-745.29 489.5,-745.29 489.5,-723.29 254.5,-723.29"/>
<image xlink:href="../../images/foreignKeys.png" width="11px" height="12px" preserveAspectRatio="xMinYMin meet" x="259.5" y="-740.286"/>
<text text-anchor="start" x="274.5" y="-731.49" font-family="Helvetica,sans-Serif" font-size="11.00">c_orderline_id</text>
<polygon fill="none" stroke="black" points="254.5,-701.29 254.5,-723.29 489.5,-723.29 489.5,-701.29 254.5,-701.29"/>
<image xlink:href="../../images/foreignKeys.png" width="11px" height="12px" preserveAspectRatio="xMinYMin meet" x="259.5" y="-718.286"/>
<text text-anchor="start" x="274.5" y="-709.49" font-family="Helvetica,sans-Serif" font-size="11.00">m_inoutline_id</text>
<polygon fill="#ffffff" stroke="transparent" points="254.5,-679.29 254.5,-701.29 489.5,-701.29 489.5,-679.29 254.5,-679.29"/>
<polygon fill="none" stroke="black" points="254.5,-679.29 254.5,-701.29 489.5,-701.29 489.5,-679.29 254.5,-679.29"/>
<image xlink:href="../../images/foreignKeys.png" width="11px" height="12px" preserveAspectRatio="xMinYMin meet" x="259.5" y="-696.286"/>
<text text-anchor="start" x="274.5" y="-687.49" font-family="Helvetica,sans-Serif" font-size="11.00">m_product_id</text>
<polygon fill="none" stroke="black" points="254.5,-657.29 254.5,-679.29 489.5,-679.29 489.5,-657.29 254.5,-657.29"/>
<image xlink:href="../../images/foreignKeys.png" width="11px" height="12px" preserveAspectRatio="xMinYMin meet" x="259.5" y="-674.286"/>
<text text-anchor="start" x="274.5" y="-665.49" font-family="Helvetica,sans-Serif" font-size="11.00">c_charge_id</text>
<polygon fill="none" stroke="black" points="254.5,-635.29 254.5,-657.29 489.5,-657.29 489.5,-635.29 254.5,-635.29"/>
<image xlink:href="../../images/foreignKeys.png" width="11px" height="12px" preserveAspectRatio="xMinYMin meet" x="259.5" y="-652.286"/>
<text text-anchor="start" x="274.5" y="-643.49" font-family="Helvetica,sans-Serif" font-size="11.00">c_uom_id</text>
<polygon fill="none" stroke="black" points="254.5,-613.29 254.5,-635.29 489.5,-635.29 489.5,-613.29 254.5,-613.29"/>
<image xlink:href="../../images/foreignKeys.png" width="11px" height="12px" preserveAspectRatio="xMinYMin meet" x="259.5" y="-630.286"/>
<text text-anchor="start" x="274.5" y="-621.49" font-family="Helvetica,sans-Serif" font-size="11.00">c_tax_id</text>
<polygon fill="none" stroke="black" points="254.5,-591.29 254.5,-613.29 489.5,-613.29 489.5,-591.29 254.5,-591.29"/>
<image xlink:href="../../images/foreignKeys.png" width="11px" height="12px" preserveAspectRatio="xMinYMin meet" x="259.5" y="-608.286"/>
<text text-anchor="start" x="274.5" y="-599.49" font-family="Helvetica,sans-Serif" font-size="11.00">s_resourceassignment_id</text>
<polygon fill="none" stroke="black" points="254.5,-569.29 254.5,-591.29 489.5,-591.29 489.5,-569.29 254.5,-569.29"/>
<image xlink:href="../../images/foreignKeys.png" width="11px" height="12px" preserveAspectRatio="xMinYMin meet" x="259.5" y="-586.286"/>
<text text-anchor="start" x="274.5" y="-577.49" font-family="Helvetica,sans-Serif" font-size="11.00">a_asset_id</text>
<polygon fill="none" stroke="black" points="254.5,-547.29 254.5,-569.29 489.5,-569.29 489.5,-547.29 254.5,-547.29"/>
<image xlink:href="../../images/foreignKeys.png" width="11px" height="12px" preserveAspectRatio="xMinYMin meet" x="259.5" y="-564.286"/>
<text text-anchor="start" x="274.5" y="-555.49" font-family="Helvetica,sans-Serif" font-size="11.00">m_attributesetinstance_id</text>
<polygon fill="none" stroke="black" points="254.5,-525.29 254.5,-547.29 489.5,-547.29 489.5,-525.29 254.5,-525.29"/>
<image xlink:href="../../images/foreignKeys.png" width="11px" height="12px" preserveAspectRatio="xMinYMin meet" x="259.5" y="-542.286"/>
<text text-anchor="start" x="274.5" y="-533.49" font-family="Helvetica,sans-Serif" font-size="11.00">ref_invoiceline_id</text>
<polygon fill="none" stroke="black" points="254.5,-503.29 254.5,-525.29 489.5,-525.29 489.5,-503.29 254.5,-503.29"/>
<image xlink:href="../../images/foreignKeys.png" width="11px" height="12px" preserveAspectRatio="xMinYMin meet" x="259.5" y="-520.286"/>
<text text-anchor="start" x="274.5" y="-511.49" font-family="Helvetica,sans-Serif" font-size="11.00">c_project_id</text>
<polygon fill="none" stroke="black" points="254.5,-481.29 254.5,-503.29 489.5,-503.29 489.5,-481.29 254.5,-481.29"/>
<image xlink:href="../../images/foreignKeys.png" width="11px" height="12px" preserveAspectRatio="xMinYMin meet" x="259.5" y="-498.286"/>
<text text-anchor="start" x="274.5" y="-489.49" font-family="Helvetica,sans-Serif" font-size="11.00">c_projectphase_id</text>
<polygon fill="none" stroke="black" points="254.5,-459.29 254.5,-481.29 489.5,-481.29 489.5,-459.29 254.5,-459.29"/>
<image xlink:href="../../images/foreignKeys.png" width="11px" height="12px" preserveAspectRatio="xMinYMin meet" x="259.5" y="-476.286"/>
<text text-anchor="start" x="274.5" y="-467.49" font-family="Helvetica,sans-Serif" font-size="11.00">c_projecttask_id</text>
<polygon fill="none" stroke="black" points="254.5,-437.29 254.5,-459.29 489.5,-459.29 489.5,-437.29 254.5,-437.29"/>
<image xlink:href="../../images/foreignKeys.png" width="11px" height="12px" preserveAspectRatio="xMinYMin meet" x="259.5" y="-454.286"/>
<text text-anchor="start" x="274.5" y="-445.49" font-family="Helvetica,sans-Serif" font-size="11.00">c_campaign_id</text>
<polygon fill="none" stroke="black" points="254.5,-415.29 254.5,-437.29 489.5,-437.29 489.5,-415.29 254.5,-415.29"/>
<image xlink:href="../../images/foreignKeys.png" width="11px" height="12px" preserveAspectRatio="xMinYMin meet" x="259.5" y="-432.286"/>
<text text-anchor="start" x="274.5" y="-423.49" font-family="Helvetica,sans-Serif" font-size="11.00">c_activity_id</text>
<polygon fill="none" stroke="black" points="254.5,-393.29 254.5,-415.29 489.5,-415.29 489.5,-393.29 254.5,-393.29"/>
<image xlink:href="../../images/foreignKeys.png" width="11px" height="12px" preserveAspectRatio="xMinYMin meet" x="259.5" y="-410.286"/>
<text text-anchor="start" x="274.5" y="-401.49" font-family="Helvetica,sans-Serif" font-size="11.00">user1_id</text>
<polygon fill="none" stroke="black" points="254.5,-371.29 254.5,-393.29 489.5,-393.29 489.5,-371.29 254.5,-371.29"/>
<image xlink:href="../../images/foreignKeys.png" width="11px" height="12px" preserveAspectRatio="xMinYMin meet" x="259.5" y="-388.286"/>
<text text-anchor="start" x="274.5" y="-379.49" font-family="Helvetica,sans-Serif" font-size="11.00">user2_id</text>
<polygon fill="none" stroke="black" points="254.5,-349.29 254.5,-371.29 489.5,-371.29 489.5,-349.29 254.5,-349.29"/>
<image xlink:href="../../images/foreignKeys.png" width="11px" height="12px" preserveAspectRatio="xMinYMin meet" x="259.5" y="-366.286"/>
<text text-anchor="start" x="274.5" y="-357.49" font-family="Helvetica,sans-Serif" font-size="11.00">ad_orgtrx_id</text>
<polygon fill="none" stroke="black" points="254.5,-327.29 254.5,-349.29 489.5,-349.29 489.5,-327.29 254.5,-327.29"/>
<image xlink:href="../../images/foreignKeys.png" width="11px" height="12px" preserveAspectRatio="xMinYMin meet" x="259.5" y="-344.286"/>
<text text-anchor="start" x="274.5" y="-335.49" font-family="Helvetica,sans-Serif" font-size="11.00">m_rmaline_id</text>
<polygon fill="none" stroke="black" points="254.5,-305.29 254.5,-327.29 489.5,-327.29 489.5,-305.29 254.5,-305.29"/>
<image xlink:href="../../images/foreignKeys.png" width="11px" height="12px" preserveAspectRatio="xMinYMin meet" x="259.5" y="-322.286"/>
<text text-anchor="start" x="274.5" y="-313.49" font-family="Helvetica,sans-Serif" font-size="11.00">a_asset_group_id</text>
<polygon fill="#ffffff" stroke="transparent" points="254.5,-283.29 254.5,-305.29 489.5,-305.29 489.5,-283.29 254.5,-283.29"/>
<polygon fill="none" stroke="black" points="254.5,-283.29 254.5,-305.29 489.5,-305.29 489.5,-283.29 254.5,-283.29"/>
<text text-anchor="start" x="274.5" y="-291.49" font-family="Helvetica,sans-Serif" font-size="11.00">c_invoiceline_uu</text>
<polygon fill="none" stroke="black" points="254.5,-261.29 254.5,-283.29 489.5,-283.29 489.5,-261.29 254.5,-261.29"/>
<image xlink:href="../../images/foreignKeys.png" width="11px" height="12px" preserveAspectRatio="xMinYMin meet" x="259.5" y="-278.286"/>
<text text-anchor="start" x="274.5" y="-269.49" font-family="Helvetica,sans-Serif" font-size="11.00">c_1099box_id</text>
<polygon fill="none" stroke="black" points="254.5,-239.29 254.5,-261.29 489.5,-261.29 489.5,-239.29 254.5,-239.29"/>
<image xlink:href="../../images/foreignKeys.png" width="11px" height="12px" preserveAspectRatio="xMinYMin meet" x="259.5" y="-256.286"/>
<text text-anchor="start" x="274.5" y="-247.49" font-family="Helvetica,sans-Serif" font-size="11.00">lbr_cfop_id</text>
<polygon fill="none" stroke="black" points="254.5,-217.29 254.5,-239.29 489.5,-239.29 489.5,-217.29 254.5,-217.29"/>
<image xlink:href="../../images/foreignKeys.png" width="11px" height="12px" preserveAspectRatio="xMinYMin meet" x="259.5" y="-234.286"/>
<text text-anchor="start" x="274.5" y="-225.49" font-family="Helvetica,sans-Serif" font-size="11.00">lbr_legalmessage_id</text>
<polygon fill="none" stroke="black" points="254.5,-195.29 254.5,-217.29 489.5,-217.29 489.5,-195.29 254.5,-195.29"/>
<image xlink:href="../../images/foreignKeys.png" width="11px" height="12px" preserveAspectRatio="xMinYMin meet" x="259.5" y="-212.286"/>
<text text-anchor="start" x="274.5" y="-203.49" font-family="Helvetica,sans-Serif" font-size="11.00">cof_invoiceline_id</text>
<polygon fill="none" stroke="black" points="254.5,-173.29 254.5,-195.29 489.5,-195.29 489.5,-173.29 254.5,-173.29"/>
<image xlink:href="../../images/foreignKeys.png" width="11px" height="12px" preserveAspectRatio="xMinYMin meet" x="259.5" y="-190.286"/>
<text text-anchor="start" x="274.5" y="-181.49" font-family="Helvetica,sans-Serif" font-size="11.00">cof_products_id</text>
<polygon fill="none" stroke="black" points="254.5,-151.29 254.5,-173.29 489.5,-173.29 489.5,-151.29 254.5,-151.29"/>
<image xlink:href="../../images/foreignKeys.png" width="11px" height="12px" preserveAspectRatio="xMinYMin meet" x="259.5" y="-168.286"/>
<text text-anchor="start" x="274.5" y="-159.49" font-family="Helvetica,sans-Serif" font-size="11.00">cof_linhaopindusprestador_id</text>
<polygon fill="none" stroke="black" points="254.5,-129.29 254.5,-151.29 489.5,-151.29 489.5,-129.29 254.5,-129.29"/>
<image xlink:href="../../images/foreignKeys.png" width="11px" height="12px" preserveAspectRatio="xMinYMin meet" x="259.5" y="-146.286"/>
<text text-anchor="start" x="274.5" y="-137.49" font-family="Helvetica,sans-Serif" font-size="11.00">cof_linhaopmataplicadoprest_id</text>
<polygon fill="none" stroke="black" points="254.5,-111.29 254.5,-129.29 489.5,-129.29 489.5,-111.29 254.5,-111.29"/>
<text text-anchor="start" x="257.5" y="-117.49" font-family="Helvetica,sans-Serif" font-size="11.00">...</text>
<polygon fill="#ffffff" stroke="transparent" points="254.5,-93.29 254.5,-111.29 352.5,-111.29 352.5,-93.29 254.5,-93.29"/>
<polygon fill="none" stroke="black" points="254.5,-93.29 254.5,-111.29 352.5,-111.29 352.5,-93.29 254.5,-93.29"/>
<text text-anchor="start" x="257.5" y="-99.49" font-family="Helvetica,sans-Serif" font-size="11.00">&lt; 28</text>
<polygon fill="#ffffff" stroke="transparent" points="352.5,-93.29 352.5,-111.29 426.5,-111.29 426.5,-93.29 352.5,-93.29"/>
<polygon fill="none" stroke="black" points="352.5,-93.29 352.5,-111.29 426.5,-111.29 426.5,-93.29 352.5,-93.29"/>
<text text-anchor="start" x="390.5" y="-99.49" font-family="Helvetica,sans-Serif" font-size="11.00">0 rows</text>
<polygon fill="#ffffff" stroke="transparent" points="426.5,-93.29 426.5,-111.29 489.5,-111.29 489.5,-93.29 426.5,-93.29"/>
<polygon fill="none" stroke="black" points="426.5,-93.29 426.5,-111.29 489.5,-111.29 489.5,-93.29 426.5,-93.29"/>
<text text-anchor="start" x="464.5" y="-99.49" font-family="Helvetica,sans-Serif" font-size="11.00">21 &gt;</text>
</a>
</g>
</g>
<!-- a_asset_retirement&#45;&gt;c_invoiceline -->
<g id="edge5" class="edge">
<title>a_asset_retirement:w&#45;&gt;c_invoiceline:e</title>
<path fill="none" stroke="black" d="M524.91,-691.05C496.27,-710.65 539.18,-800.29 490.5,-800.29"/>
<polygon fill="black" stroke="black" points="531.27,-689.35 539.93,-690.76 535.14,-688.32 539,-687.29 539,-687.29 539,-687.29 535.14,-688.32 538.07,-683.81 531.27,-689.35 531.27,-689.35"/>
<ellipse fill="none" stroke="black" cx="528.18" cy="-690.17" rx="3.2" ry="3.2"/>
</g>
<!-- c_invoiceline&#45;&gt;a_asset -->
<g id="edge6" class="edge">
<title>c_invoiceline:w&#45;&gt;a_asset:e</title>
<path fill="none" stroke="black" d="M239.39,-583.43C202.36,-603.97 265.47,-718.29 206.5,-718.29"/>
<polygon fill="black" stroke="black" points="245.69,-582.02 254.28,-583.8 249.6,-581.16 253.5,-580.29 253.5,-580.29 253.5,-580.29 249.6,-581.16 252.72,-576.77 245.69,-582.02 245.69,-582.02"/>
<ellipse fill="none" stroke="black" cx="242.57" cy="-582.72" rx="3.2" ry="3.2"/>
</g>
</g>
</svg>
