<?xml version="1.0" encoding="UTF-8" standalone="no"?>
<!DOCTYPE svg PUBLIC "-//W3C//DTD SVG 1.1//EN"
 "http://www.w3.org/Graphics/SVG/1.1/DTD/svg11.dtd">
<!-- Generated by graphviz version 2.43.0 (0)
 -->
<!-- Title: oneDegreeRelationshipsDiagram Pages: 1 -->
<svg width="481pt" height="681pt"
 viewBox="0.00 0.00 481.00 681.00" xmlns="http://www.w3.org/2000/svg" xmlns:xlink="http://www.w3.org/1999/xlink">
<g id="graph0" class="graph" transform="scale(1 1) rotate(0) translate(4 677)">
<title>oneDegreeRelationshipsDiagram</title>
<polygon fill="#ffffff" stroke="transparent" points="-4,4 -4,-677 477,-677 477,4 -4,4"/>
<text text-anchor="middle" x="71.5" y="-7.2" font-family="Helvetica,sans-Serif" font-size="11.00">Generated by SchemaSpy</text>
<!-- a_asset_use -->
<g id="node1" class="node">
<title>a_asset_use</title>
<g id="a_node1"><a xlink:href="../../tables/a_asset_use.html" xlink:title="a_asset_use" target="_top">
<polygon fill="#ffffff" stroke="transparent" points="254,-339 254,-669 465,-669 465,-339 254,-339"/>
<polygon fill="#f5f5f5" stroke="transparent" points="256.5,-645 256.5,-667 463.5,-667 463.5,-645 256.5,-645"/>
<polygon fill="none" stroke="black" points="256.5,-645 256.5,-667 463.5,-667 463.5,-645 256.5,-645"/>
<text text-anchor="start" x="261.5" y="-654.2" font-family="Helvetica,sans-Serif" font-weight="bold" font-size="11.00">a_asset_use</text>
<text text-anchor="start" x="428.5" y="-653.2" font-family="Helvetica,sans-Serif" font-size="11.00">[table]</text>
<polygon fill="none" stroke="black" points="256.5,-623 256.5,-645 380.5,-645 380.5,-623 256.5,-623"/>
<image xlink:href="../../images/primaryKeys.png" width="11px" height="12px" preserveAspectRatio="xMinYMin meet" x="261.5" y="-640"/>
<text text-anchor="start" x="276.5" y="-631.2" font-family="Helvetica,sans-Serif" font-size="11.00">a_asset_use_id</text>
<polygon fill="none" stroke="black" points="380.5,-623 380.5,-645 463.5,-645 463.5,-623 380.5,-623"/>
<text text-anchor="start" x="383.5" y="-631.2" font-family="Helvetica,sans-Serif" font-size="11.00">numeric[10]</text>
<polygon fill="none" stroke="black" points="256.5,-601 256.5,-623 380.5,-623 380.5,-601 256.5,-601"/>
<text text-anchor="start" x="276.5" y="-609.2" font-family="Helvetica,sans-Serif" font-size="11.00">ad_client_id</text>
<polygon fill="none" stroke="black" points="380.5,-601 380.5,-623 463.5,-623 463.5,-601 380.5,-601"/>
<text text-anchor="start" x="383.5" y="-609.2" font-family="Helvetica,sans-Serif" font-size="11.00">numeric[10]</text>
<polygon fill="none" stroke="black" points="256.5,-579 256.5,-601 380.5,-601 380.5,-579 256.5,-579"/>
<text text-anchor="start" x="276.5" y="-587.2" font-family="Helvetica,sans-Serif" font-size="11.00">ad_org_id</text>
<polygon fill="none" stroke="black" points="380.5,-579 380.5,-601 463.5,-601 463.5,-579 380.5,-579"/>
<text text-anchor="start" x="383.5" y="-587.2" font-family="Helvetica,sans-Serif" font-size="11.00">numeric[10]</text>
<polygon fill="none" stroke="black" points="256.5,-557 256.5,-579 380.5,-579 380.5,-557 256.5,-557"/>
<text text-anchor="start" x="276.5" y="-565.2" font-family="Helvetica,sans-Serif" font-size="11.00">isactive</text>
<polygon fill="none" stroke="black" points="380.5,-557 380.5,-579 463.5,-579 463.5,-557 380.5,-557"/>
<text text-anchor="start" x="383.5" y="-565.2" font-family="Helvetica,sans-Serif" font-size="11.00">bpchar[1]</text>
<polygon fill="none" stroke="black" points="256.5,-535 256.5,-557 380.5,-557 380.5,-535 256.5,-535"/>
<text text-anchor="start" x="276.5" y="-543.2" font-family="Helvetica,sans-Serif" font-size="11.00">created</text>
<polygon fill="none" stroke="black" points="380.5,-535 380.5,-557 463.5,-557 463.5,-535 380.5,-535"/>
<text text-anchor="start" x="383.5" y="-543.2" font-family="Helvetica,sans-Serif" font-size="11.00">timestamp[29,6]</text>
<polygon fill="none" stroke="black" points="256.5,-513 256.5,-535 380.5,-535 380.5,-513 256.5,-513"/>
<text text-anchor="start" x="276.5" y="-521.2" font-family="Helvetica,sans-Serif" font-size="11.00">createdby</text>
<polygon fill="none" stroke="black" points="380.5,-513 380.5,-535 463.5,-535 463.5,-513 380.5,-513"/>
<text text-anchor="start" x="383.5" y="-521.2" font-family="Helvetica,sans-Serif" font-size="11.00">numeric[10]</text>
<polygon fill="none" stroke="black" points="256.5,-491 256.5,-513 380.5,-513 380.5,-491 256.5,-491"/>
<text text-anchor="start" x="276.5" y="-499.2" font-family="Helvetica,sans-Serif" font-size="11.00">updated</text>
<polygon fill="none" stroke="black" points="380.5,-491 380.5,-513 463.5,-513 463.5,-491 380.5,-491"/>
<text text-anchor="start" x="383.5" y="-499.2" font-family="Helvetica,sans-Serif" font-size="11.00">timestamp[29,6]</text>
<polygon fill="none" stroke="black" points="256.5,-469 256.5,-491 380.5,-491 380.5,-469 256.5,-469"/>
<text text-anchor="start" x="276.5" y="-477.2" font-family="Helvetica,sans-Serif" font-size="11.00">updatedby</text>
<polygon fill="none" stroke="black" points="380.5,-469 380.5,-491 463.5,-491 463.5,-469 380.5,-469"/>
<text text-anchor="start" x="383.5" y="-477.2" font-family="Helvetica,sans-Serif" font-size="11.00">numeric[10]</text>
<polygon fill="none" stroke="black" points="256.5,-447 256.5,-469 380.5,-469 380.5,-447 256.5,-447"/>
<image xlink:href="../../images/foreignKeys.png" width="11px" height="12px" preserveAspectRatio="xMinYMin meet" x="261.5" y="-464"/>
<text text-anchor="start" x="276.5" y="-455.2" font-family="Helvetica,sans-Serif" font-size="11.00">a_asset_id</text>
<polygon fill="none" stroke="black" points="380.5,-447 380.5,-469 463.5,-469 463.5,-447 380.5,-447"/>
<text text-anchor="start" x="383.5" y="-455.2" font-family="Helvetica,sans-Serif" font-size="11.00">numeric[10]</text>
<polygon fill="none" stroke="black" points="256.5,-425 256.5,-447 380.5,-447 380.5,-425 256.5,-425"/>
<text text-anchor="start" x="276.5" y="-433.2" font-family="Helvetica,sans-Serif" font-size="11.00">usedate</text>
<polygon fill="none" stroke="black" points="380.5,-425 380.5,-447 463.5,-447 463.5,-425 380.5,-425"/>
<text text-anchor="start" x="383.5" y="-433.2" font-family="Helvetica,sans-Serif" font-size="11.00">timestamp[29,6]</text>
<polygon fill="none" stroke="black" points="256.5,-403 256.5,-425 380.5,-425 380.5,-403 256.5,-403"/>
<text text-anchor="start" x="276.5" y="-411.2" font-family="Helvetica,sans-Serif" font-size="11.00">useunits</text>
<polygon fill="none" stroke="black" points="380.5,-403 380.5,-425 463.5,-425 463.5,-403 380.5,-403"/>
<text text-anchor="start" x="383.5" y="-411.2" font-family="Helvetica,sans-Serif" font-size="11.00">numeric[10]</text>
<polygon fill="none" stroke="black" points="256.5,-381 256.5,-403 380.5,-403 380.5,-381 256.5,-381"/>
<text text-anchor="start" x="276.5" y="-389.2" font-family="Helvetica,sans-Serif" font-size="11.00">description</text>
<polygon fill="none" stroke="black" points="380.5,-381 380.5,-403 463.5,-403 463.5,-381 380.5,-381"/>
<text text-anchor="start" x="383.5" y="-389.2" font-family="Helvetica,sans-Serif" font-size="11.00">varchar[255]</text>
<polygon fill="#ffffff" stroke="transparent" points="256.5,-359 256.5,-381 380.5,-381 380.5,-359 256.5,-359"/>
<polygon fill="none" stroke="black" points="256.5,-359 256.5,-381 380.5,-381 380.5,-359 256.5,-359"/>
<text text-anchor="start" x="276.5" y="-367.2" font-family="Helvetica,sans-Serif" font-size="11.00">a_asset_use_uu</text>
<polygon fill="none" stroke="black" points="380.5,-359 380.5,-381 463.5,-381 463.5,-359 380.5,-359"/>
<text text-anchor="start" x="383.5" y="-367.2" font-family="Helvetica,sans-Serif" font-size="11.00">varchar[36]</text>
<polygon fill="#ffffff" stroke="transparent" points="256.5,-341 256.5,-359 309.5,-359 309.5,-341 256.5,-341"/>
<polygon fill="none" stroke="black" points="256.5,-341 256.5,-359 309.5,-359 309.5,-341 256.5,-341"/>
<text text-anchor="start" x="259.5" y="-347.2" font-family="Helvetica,sans-Serif" font-size="11.00">&lt; 1</text>
<polygon fill="#ffffff" stroke="transparent" points="309.5,-341 309.5,-359 380.5,-359 380.5,-341 309.5,-341"/>
<polygon fill="none" stroke="black" points="309.5,-341 309.5,-359 380.5,-359 380.5,-341 309.5,-341"/>
<text text-anchor="start" x="344.5" y="-347.2" font-family="Helvetica,sans-Serif" font-size="11.00">0 rows</text>
<polygon fill="#ffffff" stroke="transparent" points="380.5,-341 380.5,-359 463.5,-359 463.5,-341 380.5,-341"/>
<polygon fill="none" stroke="black" points="380.5,-341 380.5,-359 463.5,-359 463.5,-341 380.5,-341"/>
<text text-anchor="start" x="444.5" y="-347.2" font-family="Helvetica,sans-Serif" font-size="11.00">0 &gt;</text>
<polygon fill="none" stroke="black" stroke-width="2" points="255,-340 255,-668 464,-668 464,-340 255,-340"/>
</a>
</g>
</g>
<!-- a_asset -->
<g id="node2" class="node">
<title>a_asset</title>
<g id="a_node2"><a xlink:href="../../tables/a_asset.html" xlink:title="a_asset" target="_top">
<polygon fill="#ffffff" stroke="transparent" points="8,-37 8,-491 205,-491 205,-37 8,-37"/>
<polygon fill="#f5f5f5" stroke="transparent" points="8.5,-469 8.5,-491 205.5,-491 205.5,-469 8.5,-469"/>
<polygon fill="none" stroke="black" points="8.5,-469 8.5,-491 205.5,-491 205.5,-469 8.5,-469"/>
<text text-anchor="start" x="13.5" y="-478.2" font-family="Helvetica,sans-Serif" font-weight="bold" font-size="11.00">a_asset</text>
<text text-anchor="start" x="170.5" y="-477.2" font-family="Helvetica,sans-Serif" font-size="11.00">[table]</text>
<polygon fill="none" stroke="black" points="8.5,-447 8.5,-469 205.5,-469 205.5,-447 8.5,-447"/>
<image xlink:href="../../images/primaryKeys.png" width="11px" height="12px" preserveAspectRatio="xMinYMin meet" x="13.5" y="-464"/>
<text text-anchor="start" x="28.5" y="-455.2" font-family="Helvetica,sans-Serif" font-size="11.00">a_asset_id</text>
<polygon fill="none" stroke="black" points="8.5,-425 8.5,-447 205.5,-447 205.5,-425 8.5,-425"/>
<image xlink:href="../../images/foreignKeys.png" width="11px" height="12px" preserveAspectRatio="xMinYMin meet" x="13.5" y="-442"/>
<text text-anchor="start" x="28.5" y="-433.2" font-family="Helvetica,sans-Serif" font-size="11.00">a_asset_group_id</text>
<polygon fill="none" stroke="black" points="8.5,-403 8.5,-425 205.5,-425 205.5,-403 8.5,-403"/>
<image xlink:href="../../images/foreignKeys.png" width="11px" height="12px" preserveAspectRatio="xMinYMin meet" x="13.5" y="-420"/>
<text text-anchor="start" x="28.5" y="-411.2" font-family="Helvetica,sans-Serif" font-size="11.00">m_product_id</text>
<polygon fill="none" stroke="black" points="8.5,-381 8.5,-403 205.5,-403 205.5,-381 8.5,-381"/>
<image xlink:href="../../images/foreignKeys.png" width="11px" height="12px" preserveAspectRatio="xMinYMin meet" x="13.5" y="-398"/>
<text text-anchor="start" x="28.5" y="-389.2" font-family="Helvetica,sans-Serif" font-size="11.00">m_locator_id</text>
<polygon fill="none" stroke="black" points="8.5,-359 8.5,-381 205.5,-381 205.5,-359 8.5,-359"/>
<image xlink:href="../../images/foreignKeys.png" width="11px" height="12px" preserveAspectRatio="xMinYMin meet" x="13.5" y="-376"/>
<text text-anchor="start" x="28.5" y="-367.2" font-family="Helvetica,sans-Serif" font-size="11.00">c_bpartner_id</text>
<polygon fill="none" stroke="black" points="8.5,-337 8.5,-359 205.5,-359 205.5,-337 8.5,-337"/>
<image xlink:href="../../images/foreignKeys.png" width="11px" height="12px" preserveAspectRatio="xMinYMin meet" x="13.5" y="-354"/>
<text text-anchor="start" x="28.5" y="-345.2" font-family="Helvetica,sans-Serif" font-size="11.00">c_bpartner_location_id</text>
<polygon fill="none" stroke="black" points="8.5,-315 8.5,-337 205.5,-337 205.5,-315 8.5,-315"/>
<image xlink:href="../../images/foreignKeys.png" width="11px" height="12px" preserveAspectRatio="xMinYMin meet" x="13.5" y="-332"/>
<text text-anchor="start" x="28.5" y="-323.2" font-family="Helvetica,sans-Serif" font-size="11.00">c_location_id</text>
<polygon fill="none" stroke="black" points="8.5,-293 8.5,-315 205.5,-315 205.5,-293 8.5,-293"/>
<image xlink:href="../../images/foreignKeys.png" width="11px" height="12px" preserveAspectRatio="xMinYMin meet" x="13.5" y="-310"/>
<text text-anchor="start" x="28.5" y="-301.2" font-family="Helvetica,sans-Serif" font-size="11.00">ad_user_id</text>
<polygon fill="none" stroke="black" points="8.5,-271 8.5,-293 205.5,-293 205.5,-271 8.5,-271"/>
<image xlink:href="../../images/foreignKeys.png" width="11px" height="12px" preserveAspectRatio="xMinYMin meet" x="13.5" y="-288"/>
<text text-anchor="start" x="28.5" y="-279.2" font-family="Helvetica,sans-Serif" font-size="11.00">m_attributesetinstance_id</text>
<polygon fill="none" stroke="black" points="8.5,-249 8.5,-271 205.5,-271 205.5,-249 8.5,-249"/>
<image xlink:href="../../images/foreignKeys.png" width="11px" height="12px" preserveAspectRatio="xMinYMin meet" x="13.5" y="-266"/>
<text text-anchor="start" x="28.5" y="-257.2" font-family="Helvetica,sans-Serif" font-size="11.00">c_project_id</text>
<polygon fill="none" stroke="black" points="8.5,-227 8.5,-249 205.5,-249 205.5,-227 8.5,-227"/>
<image xlink:href="../../images/foreignKeys.png" width="11px" height="12px" preserveAspectRatio="xMinYMin meet" x="13.5" y="-244"/>
<text text-anchor="start" x="28.5" y="-235.2" font-family="Helvetica,sans-Serif" font-size="11.00">c_bpartnersr_id</text>
<polygon fill="none" stroke="black" points="8.5,-205 8.5,-227 205.5,-227 205.5,-205 8.5,-205"/>
<image xlink:href="../../images/foreignKeys.png" width="11px" height="12px" preserveAspectRatio="xMinYMin meet" x="13.5" y="-222"/>
<text text-anchor="start" x="28.5" y="-213.2" font-family="Helvetica,sans-Serif" font-size="11.00">m_inoutline_id</text>
<polygon fill="none" stroke="black" points="8.5,-183 8.5,-205 205.5,-205 205.5,-183 8.5,-183"/>
<image xlink:href="../../images/foreignKeys.png" width="11px" height="12px" preserveAspectRatio="xMinYMin meet" x="13.5" y="-200"/>
<text text-anchor="start" x="28.5" y="-191.2" font-family="Helvetica,sans-Serif" font-size="11.00">lease_bpartner_id</text>
<polygon fill="none" stroke="black" points="8.5,-161 8.5,-183 205.5,-183 205.5,-161 8.5,-161"/>
<image xlink:href="../../images/foreignKeys.png" width="11px" height="12px" preserveAspectRatio="xMinYMin meet" x="13.5" y="-178"/>
<text text-anchor="start" x="28.5" y="-169.2" font-family="Helvetica,sans-Serif" font-size="11.00">a_parent_asset_id</text>
<polygon fill="#ffffff" stroke="transparent" points="8.5,-139 8.5,-161 205.5,-161 205.5,-139 8.5,-139"/>
<polygon fill="none" stroke="black" points="8.5,-139 8.5,-161 205.5,-161 205.5,-139 8.5,-139"/>
<text text-anchor="start" x="28.5" y="-147.2" font-family="Helvetica,sans-Serif" font-size="11.00">a_asset_uu</text>
<polygon fill="none" stroke="black" points="8.5,-117 8.5,-139 205.5,-139 205.5,-117 8.5,-117"/>
<image xlink:href="../../images/foreignKeys.png" width="11px" height="12px" preserveAspectRatio="xMinYMin meet" x="13.5" y="-134"/>
<text text-anchor="start" x="28.5" y="-125.2" font-family="Helvetica,sans-Serif" font-size="11.00">a_asset_class_id</text>
<polygon fill="none" stroke="black" points="8.5,-95 8.5,-117 205.5,-117 205.5,-95 8.5,-95"/>
<image xlink:href="../../images/foreignKeys.png" width="11px" height="12px" preserveAspectRatio="xMinYMin meet" x="13.5" y="-112"/>
<text text-anchor="start" x="28.5" y="-103.2" font-family="Helvetica,sans-Serif" font-size="11.00">a_asset_type_id</text>
<polygon fill="none" stroke="black" points="8.5,-73 8.5,-95 205.5,-95 205.5,-73 8.5,-73"/>
<image xlink:href="../../images/foreignKeys.png" width="11px" height="12px" preserveAspectRatio="xMinYMin meet" x="13.5" y="-90"/>
<text text-anchor="start" x="28.5" y="-81.2" font-family="Helvetica,sans-Serif" font-size="11.00">c_activity_id</text>
<polygon fill="none" stroke="black" points="8.5,-55 8.5,-73 205.5,-73 205.5,-55 8.5,-55"/>
<text text-anchor="start" x="11.5" y="-61.2" font-family="Helvetica,sans-Serif" font-size="11.00">...</text>
<polygon fill="#ffffff" stroke="transparent" points="8.5,-37 8.5,-55 87.5,-55 87.5,-37 8.5,-37"/>
<polygon fill="none" stroke="black" points="8.5,-37 8.5,-55 87.5,-55 87.5,-37 8.5,-37"/>
<text text-anchor="start" x="11.5" y="-43.2" font-family="Helvetica,sans-Serif" font-size="11.00">&lt; 16</text>
<polygon fill="#ffffff" stroke="transparent" points="87.5,-37 87.5,-55 151.5,-55 151.5,-37 87.5,-37"/>
<polygon fill="none" stroke="black" points="87.5,-37 87.5,-55 151.5,-55 151.5,-37 87.5,-37"/>
<text text-anchor="start" x="115.5" y="-43.2" font-family="Helvetica,sans-Serif" font-size="11.00">0 rows</text>
<polygon fill="#ffffff" stroke="transparent" points="151.5,-37 151.5,-55 205.5,-55 205.5,-37 151.5,-37"/>
<polygon fill="none" stroke="black" points="151.5,-37 151.5,-55 205.5,-55 205.5,-37 151.5,-37"/>
<text text-anchor="start" x="180.5" y="-43.2" font-family="Helvetica,sans-Serif" font-size="11.00">48 &gt;</text>
</a>
</g>
</g>
<!-- a_asset_use&#45;&gt;a_asset -->
<g id="edge1" class="edge">
<title>a_asset_use:w&#45;&gt;a_asset:e</title>
<path fill="none" stroke="black" d="M240.99,-458C229.68,-458 222.49,-458 206.5,-458"/>
<polygon fill="black" stroke="black" points="247.5,-458 255.5,-461.6 251.5,-458 255.5,-458 255.5,-458 255.5,-458 251.5,-458 255.5,-454.4 247.5,-458 247.5,-458"/>
<ellipse fill="none" stroke="black" cx="244.3" cy="-458" rx="3.2" ry="3.2"/>
</g>
</g>
</svg>
