<?xml version="1.0" encoding="UTF-8" standalone="no"?>
<!DOCTYPE svg PUBLIC "-//W3C//DTD SVG 1.1//EN"
 "http://www.w3.org/Graphics/SVG/1.1/DTD/svg11.dtd">
<!-- Generated by graphviz version 2.43.0 (0)
 -->
<!-- Title: oneDegreeRelationshipsDiagramImplied Pages: 1 -->
<svg width="511pt" height="813pt"
 viewBox="0.00 0.00 511.00 813.00" xmlns="http://www.w3.org/2000/svg" xmlns:xlink="http://www.w3.org/1999/xlink">
<g id="graph0" class="graph" transform="scale(1 1) rotate(0) translate(4 809)">
<title>oneDegreeRelationshipsDiagramImplied</title>
<polygon fill="#ffffff" stroke="transparent" points="-4,4 -4,-809 507,-809 507,4 -4,4"/>
<text text-anchor="middle" x="71.5" y="-7.2" font-family="Helvetica,sans-Serif" font-size="11.00">Generated by SchemaSpy</text>
<!-- a_asset_info_tax -->
<g id="node1" class="node">
<title>a_asset_info_tax</title>
<g id="a_node1"><a xlink:href="../../tables/a_asset_info_tax.html" xlink:title="a_asset_info_tax" target="_top">
<polygon fill="#ffffff" stroke="transparent" points="254,-405 254,-801 495,-801 495,-405 254,-405"/>
<polygon fill="#f5f5f5" stroke="transparent" points="256.5,-777 256.5,-799 493.5,-799 493.5,-777 256.5,-777"/>
<polygon fill="none" stroke="black" points="256.5,-777 256.5,-799 493.5,-799 493.5,-777 256.5,-777"/>
<text text-anchor="start" x="261.5" y="-786.2" font-family="Helvetica,sans-Serif" font-weight="bold" font-size="11.00">a_asset_info_tax</text>
<text text-anchor="start" x="458.5" y="-785.2" font-family="Helvetica,sans-Serif" font-size="11.00">[table]</text>
<polygon fill="none" stroke="black" points="256.5,-755 256.5,-777 410.5,-777 410.5,-755 256.5,-755"/>
<image xlink:href="../../images/primaryKeys.png" width="11px" height="12px" preserveAspectRatio="xMinYMin meet" x="261.5" y="-772"/>
<text text-anchor="start" x="276.5" y="-763.2" font-family="Helvetica,sans-Serif" font-size="11.00">a_asset_info_tax_id</text>
<polygon fill="none" stroke="black" points="410.5,-755 410.5,-777 493.5,-777 493.5,-755 410.5,-755"/>
<text text-anchor="start" x="413.5" y="-763.2" font-family="Helvetica,sans-Serif" font-size="11.00">numeric[10]</text>
<polygon fill="none" stroke="black" points="256.5,-733 256.5,-755 410.5,-755 410.5,-733 256.5,-733"/>
<text text-anchor="start" x="276.5" y="-741.2" font-family="Helvetica,sans-Serif" font-size="11.00">ad_client_id</text>
<polygon fill="none" stroke="black" points="410.5,-733 410.5,-755 493.5,-755 493.5,-733 410.5,-733"/>
<text text-anchor="start" x="413.5" y="-741.2" font-family="Helvetica,sans-Serif" font-size="11.00">numeric[10]</text>
<polygon fill="none" stroke="black" points="256.5,-711 256.5,-733 410.5,-733 410.5,-711 256.5,-711"/>
<text text-anchor="start" x="276.5" y="-719.2" font-family="Helvetica,sans-Serif" font-size="11.00">ad_org_id</text>
<polygon fill="none" stroke="black" points="410.5,-711 410.5,-733 493.5,-733 493.5,-711 410.5,-711"/>
<text text-anchor="start" x="413.5" y="-719.2" font-family="Helvetica,sans-Serif" font-size="11.00">numeric[10]</text>
<polygon fill="none" stroke="black" points="256.5,-689 256.5,-711 410.5,-711 410.5,-689 256.5,-689"/>
<text text-anchor="start" x="276.5" y="-697.2" font-family="Helvetica,sans-Serif" font-size="11.00">a_investment_cr</text>
<polygon fill="none" stroke="black" points="410.5,-689 410.5,-711 493.5,-711 493.5,-689 410.5,-689"/>
<text text-anchor="start" x="413.5" y="-697.2" font-family="Helvetica,sans-Serif" font-size="11.00">numeric[10]</text>
<polygon fill="none" stroke="black" points="256.5,-667 256.5,-689 410.5,-689 410.5,-667 256.5,-667"/>
<text text-anchor="start" x="276.5" y="-675.2" font-family="Helvetica,sans-Serif" font-size="11.00">a_state</text>
<polygon fill="none" stroke="black" points="410.5,-667 410.5,-689 493.5,-689 493.5,-667 410.5,-667"/>
<text text-anchor="start" x="413.5" y="-675.2" font-family="Helvetica,sans-Serif" font-size="11.00">varchar[60]</text>
<polygon fill="none" stroke="black" points="256.5,-645 256.5,-667 410.5,-667 410.5,-645 256.5,-645"/>
<text text-anchor="start" x="276.5" y="-653.2" font-family="Helvetica,sans-Serif" font-size="11.00">created</text>
<polygon fill="none" stroke="black" points="410.5,-645 410.5,-667 493.5,-667 493.5,-645 410.5,-645"/>
<text text-anchor="start" x="413.5" y="-653.2" font-family="Helvetica,sans-Serif" font-size="11.00">timestamp[29,6]</text>
<polygon fill="none" stroke="black" points="256.5,-623 256.5,-645 410.5,-645 410.5,-623 256.5,-623"/>
<text text-anchor="start" x="276.5" y="-631.2" font-family="Helvetica,sans-Serif" font-size="11.00">isactive</text>
<polygon fill="none" stroke="black" points="410.5,-623 410.5,-645 493.5,-645 493.5,-623 410.5,-623"/>
<text text-anchor="start" x="413.5" y="-631.2" font-family="Helvetica,sans-Serif" font-size="11.00">bpchar[1]</text>
<polygon fill="none" stroke="black" points="256.5,-601 256.5,-623 410.5,-623 410.5,-601 256.5,-601"/>
<text text-anchor="start" x="276.5" y="-609.2" font-family="Helvetica,sans-Serif" font-size="11.00">updated</text>
<polygon fill="none" stroke="black" points="410.5,-601 410.5,-623 493.5,-623 493.5,-601 410.5,-601"/>
<text text-anchor="start" x="413.5" y="-609.2" font-family="Helvetica,sans-Serif" font-size="11.00">timestamp[29,6]</text>
<polygon fill="none" stroke="black" points="256.5,-579 256.5,-601 410.5,-601 410.5,-579 256.5,-579"/>
<text text-anchor="start" x="276.5" y="-587.2" font-family="Helvetica,sans-Serif" font-size="11.00">updatedby</text>
<polygon fill="none" stroke="black" points="410.5,-579 410.5,-601 493.5,-601 493.5,-579 410.5,-579"/>
<text text-anchor="start" x="413.5" y="-587.2" font-family="Helvetica,sans-Serif" font-size="11.00">numeric[10]</text>
<polygon fill="none" stroke="black" points="256.5,-557 256.5,-579 410.5,-579 410.5,-557 256.5,-557"/>
<text text-anchor="start" x="276.5" y="-565.2" font-family="Helvetica,sans-Serif" font-size="11.00">textmsg</text>
<polygon fill="none" stroke="black" points="410.5,-557 410.5,-579 493.5,-579 493.5,-557 410.5,-557"/>
<text text-anchor="start" x="413.5" y="-565.2" font-family="Helvetica,sans-Serif" font-size="11.00">varchar[510]</text>
<polygon fill="none" stroke="black" points="256.5,-535 256.5,-557 410.5,-557 410.5,-535 256.5,-535"/>
<text text-anchor="start" x="276.5" y="-543.2" font-family="Helvetica,sans-Serif" font-size="11.00">createdby</text>
<polygon fill="none" stroke="black" points="410.5,-535 410.5,-557 493.5,-557 493.5,-535 410.5,-535"/>
<text text-anchor="start" x="413.5" y="-543.2" font-family="Helvetica,sans-Serif" font-size="11.00">numeric[10]</text>
<polygon fill="none" stroke="black" points="256.5,-513 256.5,-535 410.5,-535 410.5,-513 256.5,-513"/>
<text text-anchor="start" x="276.5" y="-521.2" font-family="Helvetica,sans-Serif" font-size="11.00">a_tax_entity</text>
<polygon fill="none" stroke="black" points="410.5,-513 410.5,-535 493.5,-535 493.5,-513 410.5,-513"/>
<text text-anchor="start" x="413.5" y="-521.2" font-family="Helvetica,sans-Serif" font-size="11.00">varchar[22]</text>
<polygon fill="none" stroke="black" points="256.5,-491 256.5,-513 410.5,-513 410.5,-491 256.5,-491"/>
<text text-anchor="start" x="276.5" y="-499.2" font-family="Helvetica,sans-Serif" font-size="11.00">a_new_used</text>
<polygon fill="none" stroke="black" points="410.5,-491 410.5,-513 493.5,-513 493.5,-491 410.5,-491"/>
<text text-anchor="start" x="413.5" y="-499.2" font-family="Helvetica,sans-Serif" font-size="11.00">bpchar[1]</text>
<polygon fill="none" stroke="black" points="256.5,-469 256.5,-491 410.5,-491 410.5,-469 256.5,-469"/>
<text text-anchor="start" x="276.5" y="-477.2" font-family="Helvetica,sans-Serif" font-size="11.00">a_finance_meth</text>
<polygon fill="none" stroke="black" points="410.5,-469 410.5,-491 493.5,-491 493.5,-469 410.5,-469"/>
<text text-anchor="start" x="413.5" y="-477.2" font-family="Helvetica,sans-Serif" font-size="11.00">varchar[2]</text>
<polygon fill="none" stroke="black" points="256.5,-447 256.5,-469 410.5,-469 410.5,-447 256.5,-447"/>
<image xlink:href="../../images/foreignKeys.png" width="11px" height="12px" preserveAspectRatio="xMinYMin meet" x="261.5" y="-464"/>
<text text-anchor="start" x="276.5" y="-455.2" font-family="Helvetica,sans-Serif" font-size="11.00">a_asset_id</text>
<polygon fill="none" stroke="black" points="410.5,-447 410.5,-469 493.5,-469 493.5,-447 410.5,-447"/>
<text text-anchor="start" x="413.5" y="-455.2" font-family="Helvetica,sans-Serif" font-size="11.00">numeric[10]</text>
<polygon fill="#ffffff" stroke="transparent" points="256.5,-425 256.5,-447 410.5,-447 410.5,-425 256.5,-425"/>
<polygon fill="none" stroke="black" points="256.5,-425 256.5,-447 410.5,-447 410.5,-425 256.5,-425"/>
<text text-anchor="start" x="276.5" y="-433.2" font-family="Helvetica,sans-Serif" font-size="11.00">a_asset_info_tax_uu</text>
<polygon fill="none" stroke="black" points="410.5,-425 410.5,-447 493.5,-447 493.5,-425 410.5,-425"/>
<text text-anchor="start" x="413.5" y="-433.2" font-family="Helvetica,sans-Serif" font-size="11.00">varchar[36]</text>
<polygon fill="#ffffff" stroke="transparent" points="256.5,-407 256.5,-425 324.5,-425 324.5,-407 256.5,-407"/>
<polygon fill="none" stroke="black" points="256.5,-407 256.5,-425 324.5,-425 324.5,-407 256.5,-407"/>
<text text-anchor="start" x="259.5" y="-413.2" font-family="Helvetica,sans-Serif" font-size="11.00">&lt; 1</text>
<polygon fill="#ffffff" stroke="transparent" points="324.5,-407 324.5,-425 410.5,-425 410.5,-407 324.5,-407"/>
<polygon fill="none" stroke="black" points="324.5,-407 324.5,-425 410.5,-425 410.5,-407 324.5,-407"/>
<text text-anchor="start" x="374.5" y="-413.2" font-family="Helvetica,sans-Serif" font-size="11.00">0 rows</text>
<polygon fill="#ffffff" stroke="transparent" points="410.5,-407 410.5,-425 493.5,-425 493.5,-407 410.5,-407"/>
<polygon fill="none" stroke="black" points="410.5,-407 410.5,-425 493.5,-425 493.5,-407 410.5,-407"/>
<text text-anchor="start" x="474.5" y="-413.2" font-family="Helvetica,sans-Serif" font-size="11.00">0 &gt;</text>
<polygon fill="none" stroke="black" stroke-width="2" points="255,-406 255,-800 494,-800 494,-406 255,-406"/>
</a>
</g>
</g>
<!-- a_asset -->
<g id="node2" class="node">
<title>a_asset</title>
<g id="a_node2"><a xlink:href="../../tables/a_asset.html" xlink:title="a_asset" target="_top">
<polygon fill="#ffffff" stroke="transparent" points="8,-37 8,-491 205,-491 205,-37 8,-37"/>
<polygon fill="#f5f5f5" stroke="transparent" points="8.5,-469 8.5,-491 205.5,-491 205.5,-469 8.5,-469"/>
<polygon fill="none" stroke="black" points="8.5,-469 8.5,-491 205.5,-491 205.5,-469 8.5,-469"/>
<text text-anchor="start" x="13.5" y="-478.2" font-family="Helvetica,sans-Serif" font-weight="bold" font-size="11.00">a_asset</text>
<text text-anchor="start" x="170.5" y="-477.2" font-family="Helvetica,sans-Serif" font-size="11.00">[table]</text>
<polygon fill="none" stroke="black" points="8.5,-447 8.5,-469 205.5,-469 205.5,-447 8.5,-447"/>
<image xlink:href="../../images/primaryKeys.png" width="11px" height="12px" preserveAspectRatio="xMinYMin meet" x="13.5" y="-464"/>
<text text-anchor="start" x="28.5" y="-455.2" font-family="Helvetica,sans-Serif" font-size="11.00">a_asset_id</text>
<polygon fill="none" stroke="black" points="8.5,-425 8.5,-447 205.5,-447 205.5,-425 8.5,-425"/>
<image xlink:href="../../images/foreignKeys.png" width="11px" height="12px" preserveAspectRatio="xMinYMin meet" x="13.5" y="-442"/>
<text text-anchor="start" x="28.5" y="-433.2" font-family="Helvetica,sans-Serif" font-size="11.00">a_asset_group_id</text>
<polygon fill="none" stroke="black" points="8.5,-403 8.5,-425 205.5,-425 205.5,-403 8.5,-403"/>
<image xlink:href="../../images/foreignKeys.png" width="11px" height="12px" preserveAspectRatio="xMinYMin meet" x="13.5" y="-420"/>
<text text-anchor="start" x="28.5" y="-411.2" font-family="Helvetica,sans-Serif" font-size="11.00">m_product_id</text>
<polygon fill="none" stroke="black" points="8.5,-381 8.5,-403 205.5,-403 205.5,-381 8.5,-381"/>
<image xlink:href="../../images/foreignKeys.png" width="11px" height="12px" preserveAspectRatio="xMinYMin meet" x="13.5" y="-398"/>
<text text-anchor="start" x="28.5" y="-389.2" font-family="Helvetica,sans-Serif" font-size="11.00">m_locator_id</text>
<polygon fill="none" stroke="black" points="8.5,-359 8.5,-381 205.5,-381 205.5,-359 8.5,-359"/>
<image xlink:href="../../images/foreignKeys.png" width="11px" height="12px" preserveAspectRatio="xMinYMin meet" x="13.5" y="-376"/>
<text text-anchor="start" x="28.5" y="-367.2" font-family="Helvetica,sans-Serif" font-size="11.00">c_bpartner_id</text>
<polygon fill="none" stroke="black" points="8.5,-337 8.5,-359 205.5,-359 205.5,-337 8.5,-337"/>
<image xlink:href="../../images/foreignKeys.png" width="11px" height="12px" preserveAspectRatio="xMinYMin meet" x="13.5" y="-354"/>
<text text-anchor="start" x="28.5" y="-345.2" font-family="Helvetica,sans-Serif" font-size="11.00">c_bpartner_location_id</text>
<polygon fill="none" stroke="black" points="8.5,-315 8.5,-337 205.5,-337 205.5,-315 8.5,-315"/>
<image xlink:href="../../images/foreignKeys.png" width="11px" height="12px" preserveAspectRatio="xMinYMin meet" x="13.5" y="-332"/>
<text text-anchor="start" x="28.5" y="-323.2" font-family="Helvetica,sans-Serif" font-size="11.00">c_location_id</text>
<polygon fill="none" stroke="black" points="8.5,-293 8.5,-315 205.5,-315 205.5,-293 8.5,-293"/>
<image xlink:href="../../images/foreignKeys.png" width="11px" height="12px" preserveAspectRatio="xMinYMin meet" x="13.5" y="-310"/>
<text text-anchor="start" x="28.5" y="-301.2" font-family="Helvetica,sans-Serif" font-size="11.00">ad_user_id</text>
<polygon fill="none" stroke="black" points="8.5,-271 8.5,-293 205.5,-293 205.5,-271 8.5,-271"/>
<image xlink:href="../../images/foreignKeys.png" width="11px" height="12px" preserveAspectRatio="xMinYMin meet" x="13.5" y="-288"/>
<text text-anchor="start" x="28.5" y="-279.2" font-family="Helvetica,sans-Serif" font-size="11.00">m_attributesetinstance_id</text>
<polygon fill="none" stroke="black" points="8.5,-249 8.5,-271 205.5,-271 205.5,-249 8.5,-249"/>
<image xlink:href="../../images/foreignKeys.png" width="11px" height="12px" preserveAspectRatio="xMinYMin meet" x="13.5" y="-266"/>
<text text-anchor="start" x="28.5" y="-257.2" font-family="Helvetica,sans-Serif" font-size="11.00">c_project_id</text>
<polygon fill="none" stroke="black" points="8.5,-227 8.5,-249 205.5,-249 205.5,-227 8.5,-227"/>
<image xlink:href="../../images/foreignKeys.png" width="11px" height="12px" preserveAspectRatio="xMinYMin meet" x="13.5" y="-244"/>
<text text-anchor="start" x="28.5" y="-235.2" font-family="Helvetica,sans-Serif" font-size="11.00">c_bpartnersr_id</text>
<polygon fill="none" stroke="black" points="8.5,-205 8.5,-227 205.5,-227 205.5,-205 8.5,-205"/>
<image xlink:href="../../images/foreignKeys.png" width="11px" height="12px" preserveAspectRatio="xMinYMin meet" x="13.5" y="-222"/>
<text text-anchor="start" x="28.5" y="-213.2" font-family="Helvetica,sans-Serif" font-size="11.00">m_inoutline_id</text>
<polygon fill="none" stroke="black" points="8.5,-183 8.5,-205 205.5,-205 205.5,-183 8.5,-183"/>
<image xlink:href="../../images/foreignKeys.png" width="11px" height="12px" preserveAspectRatio="xMinYMin meet" x="13.5" y="-200"/>
<text text-anchor="start" x="28.5" y="-191.2" font-family="Helvetica,sans-Serif" font-size="11.00">lease_bpartner_id</text>
<polygon fill="none" stroke="black" points="8.5,-161 8.5,-183 205.5,-183 205.5,-161 8.5,-161"/>
<image xlink:href="../../images/foreignKeys.png" width="11px" height="12px" preserveAspectRatio="xMinYMin meet" x="13.5" y="-178"/>
<text text-anchor="start" x="28.5" y="-169.2" font-family="Helvetica,sans-Serif" font-size="11.00">a_parent_asset_id</text>
<polygon fill="#ffffff" stroke="transparent" points="8.5,-139 8.5,-161 205.5,-161 205.5,-139 8.5,-139"/>
<polygon fill="none" stroke="black" points="8.5,-139 8.5,-161 205.5,-161 205.5,-139 8.5,-139"/>
<text text-anchor="start" x="28.5" y="-147.2" font-family="Helvetica,sans-Serif" font-size="11.00">a_asset_uu</text>
<polygon fill="none" stroke="black" points="8.5,-117 8.5,-139 205.5,-139 205.5,-117 8.5,-117"/>
<image xlink:href="../../images/foreignKeys.png" width="11px" height="12px" preserveAspectRatio="xMinYMin meet" x="13.5" y="-134"/>
<text text-anchor="start" x="28.5" y="-125.2" font-family="Helvetica,sans-Serif" font-size="11.00">a_asset_class_id</text>
<polygon fill="none" stroke="black" points="8.5,-95 8.5,-117 205.5,-117 205.5,-95 8.5,-95"/>
<image xlink:href="../../images/foreignKeys.png" width="11px" height="12px" preserveAspectRatio="xMinYMin meet" x="13.5" y="-112"/>
<text text-anchor="start" x="28.5" y="-103.2" font-family="Helvetica,sans-Serif" font-size="11.00">a_asset_type_id</text>
<polygon fill="none" stroke="black" points="8.5,-73 8.5,-95 205.5,-95 205.5,-73 8.5,-73"/>
<image xlink:href="../../images/foreignKeys.png" width="11px" height="12px" preserveAspectRatio="xMinYMin meet" x="13.5" y="-90"/>
<text text-anchor="start" x="28.5" y="-81.2" font-family="Helvetica,sans-Serif" font-size="11.00">c_activity_id</text>
<polygon fill="none" stroke="black" points="8.5,-55 8.5,-73 205.5,-73 205.5,-55 8.5,-55"/>
<text text-anchor="start" x="11.5" y="-61.2" font-family="Helvetica,sans-Serif" font-size="11.00">...</text>
<polygon fill="#ffffff" stroke="transparent" points="8.5,-37 8.5,-55 87.5,-55 87.5,-37 8.5,-37"/>
<polygon fill="none" stroke="black" points="8.5,-37 8.5,-55 87.5,-55 87.5,-37 8.5,-37"/>
<text text-anchor="start" x="11.5" y="-43.2" font-family="Helvetica,sans-Serif" font-size="11.00">&lt; 16</text>
<polygon fill="#ffffff" stroke="transparent" points="87.5,-37 87.5,-55 151.5,-55 151.5,-37 87.5,-37"/>
<polygon fill="none" stroke="black" points="87.5,-37 87.5,-55 151.5,-55 151.5,-37 87.5,-37"/>
<text text-anchor="start" x="115.5" y="-43.2" font-family="Helvetica,sans-Serif" font-size="11.00">0 rows</text>
<polygon fill="#ffffff" stroke="transparent" points="151.5,-37 151.5,-55 205.5,-55 205.5,-37 151.5,-37"/>
<polygon fill="none" stroke="black" points="151.5,-37 151.5,-55 205.5,-55 205.5,-37 151.5,-37"/>
<text text-anchor="start" x="180.5" y="-43.2" font-family="Helvetica,sans-Serif" font-size="11.00">70 &gt;</text>
</a>
</g>
</g>
<!-- a_asset_info_tax&#45;&gt;a_asset -->
<g id="edge1" class="edge">
<title>a_asset_info_tax:w&#45;&gt;a_asset:e</title>
<path fill="none" stroke="black" stroke-dasharray="5,2" d="M240.99,-458C229.68,-458 222.49,-458 206.5,-458"/>
<polygon fill="black" stroke="black" points="247.5,-458 255.5,-461.6 251.5,-458 255.5,-458 255.5,-458 255.5,-458 251.5,-458 255.5,-454.4 247.5,-458 247.5,-458"/>
<ellipse fill="none" stroke="black" cx="244.3" cy="-458" rx="3.2" ry="3.2"/>
</g>
</g>
</svg>
