<?xml version="1.0" encoding="UTF-8" standalone="no"?>
<!DOCTYPE svg PUBLIC "-//W3C//DTD SVG 1.1//EN"
 "http://www.w3.org/Graphics/SVG/1.1/DTD/svg11.dtd">
<!-- Generated by graphviz version 2.43.0 (0)
 -->
<!-- Title: oneDegreeRelationshipsDiagram Pages: 1 -->
<svg width="816pt" height="923pt"
 viewBox="0.00 0.00 816.00 923.00" xmlns="http://www.w3.org/2000/svg" xmlns:xlink="http://www.w3.org/1999/xlink">
<g id="graph0" class="graph" transform="scale(1 1) rotate(0) translate(4 919)">
<title>oneDegreeRelationshipsDiagram</title>
<polygon fill="#ffffff" stroke="transparent" points="-4,4 -4,-919 812,-919 812,4 -4,4"/>
<text text-anchor="middle" x="71.5" y="-7.2" font-family="Helvetica,sans-Serif" font-size="11.00">Generated by SchemaSpy</text>
<!-- a_asset_reval_entry -->
<g id="node1" class="node">
<title>a_asset_reval_entry</title>
<g id="a_node1"><a xlink:href="../../tables/a_asset_reval_entry.html" xlink:title="a_asset_reval_entry" target="_top">
<polygon fill="#ffffff" stroke="transparent" points="537,-295 537,-911 800,-911 800,-295 537,-295"/>
<polygon fill="#f5f5f5" stroke="transparent" points="539.5,-887 539.5,-909 798.5,-909 798.5,-887 539.5,-887"/>
<polygon fill="none" stroke="black" points="539.5,-887 539.5,-909 798.5,-909 798.5,-887 539.5,-887"/>
<text text-anchor="start" x="544.5" y="-896.2" font-family="Helvetica,sans-Serif" font-weight="bold" font-size="11.00">a_asset_reval_entry</text>
<text text-anchor="start" x="763.5" y="-895.2" font-family="Helvetica,sans-Serif" font-size="11.00">[table]</text>
<polygon fill="none" stroke="black" points="539.5,-865 539.5,-887 715.5,-887 715.5,-865 539.5,-865"/>
<image xlink:href="../../images/primaryKeys.png" width="11px" height="12px" preserveAspectRatio="xMinYMin meet" x="544.5" y="-882"/>
<text text-anchor="start" x="559.5" y="-873.2" font-family="Helvetica,sans-Serif" font-size="11.00">a_asset_reval_entry_id</text>
<polygon fill="none" stroke="black" points="715.5,-865 715.5,-887 798.5,-887 798.5,-865 715.5,-865"/>
<text text-anchor="start" x="718.5" y="-873.2" font-family="Helvetica,sans-Serif" font-size="11.00">numeric[10]</text>
<polygon fill="none" stroke="black" points="539.5,-843 539.5,-865 715.5,-865 715.5,-843 539.5,-843"/>
<text text-anchor="start" x="559.5" y="-851.2" font-family="Helvetica,sans-Serif" font-size="11.00">ad_client_id</text>
<polygon fill="none" stroke="black" points="715.5,-843 715.5,-865 798.5,-865 798.5,-843 715.5,-843"/>
<text text-anchor="start" x="718.5" y="-851.2" font-family="Helvetica,sans-Serif" font-size="11.00">numeric[10]</text>
<polygon fill="none" stroke="black" points="539.5,-821 539.5,-843 715.5,-843 715.5,-821 539.5,-821"/>
<text text-anchor="start" x="559.5" y="-829.2" font-family="Helvetica,sans-Serif" font-size="11.00">a_effective_date</text>
<polygon fill="none" stroke="black" points="715.5,-821 715.5,-843 798.5,-843 798.5,-821 715.5,-821"/>
<text text-anchor="start" x="718.5" y="-829.2" font-family="Helvetica,sans-Serif" font-size="11.00">timestamp[29,6]</text>
<polygon fill="none" stroke="black" points="539.5,-799 539.5,-821 715.5,-821 715.5,-799 539.5,-799"/>
<text text-anchor="start" x="559.5" y="-807.2" font-family="Helvetica,sans-Serif" font-size="11.00">a_reval_cal_method</text>
<polygon fill="none" stroke="black" points="715.5,-799 715.5,-821 798.5,-821 798.5,-799 715.5,-799"/>
<text text-anchor="start" x="718.5" y="-807.2" font-family="Helvetica,sans-Serif" font-size="11.00">varchar[3]</text>
<polygon fill="none" stroke="black" points="539.5,-777 539.5,-799 715.5,-799 715.5,-777 539.5,-777"/>
<text text-anchor="start" x="559.5" y="-785.2" font-family="Helvetica,sans-Serif" font-size="11.00">a_reval_multiplier</text>
<polygon fill="none" stroke="black" points="715.5,-777 715.5,-799 798.5,-799 798.5,-777 715.5,-777"/>
<text text-anchor="start" x="718.5" y="-785.2" font-family="Helvetica,sans-Serif" font-size="11.00">varchar[3]</text>
<polygon fill="none" stroke="black" points="539.5,-755 539.5,-777 715.5,-777 715.5,-755 539.5,-755"/>
<image xlink:href="../../images/foreignKeys.png" width="11px" height="12px" preserveAspectRatio="xMinYMin meet" x="544.5" y="-772"/>
<text text-anchor="start" x="559.5" y="-763.2" font-family="Helvetica,sans-Serif" font-size="11.00">c_currency_id</text>
<polygon fill="none" stroke="black" points="715.5,-755 715.5,-777 798.5,-777 798.5,-755 715.5,-755"/>
<text text-anchor="start" x="718.5" y="-763.2" font-family="Helvetica,sans-Serif" font-size="11.00">numeric[10]</text>
<polygon fill="none" stroke="black" points="539.5,-733 539.5,-755 715.5,-755 715.5,-733 539.5,-733"/>
<image xlink:href="../../images/foreignKeys.png" width="11px" height="12px" preserveAspectRatio="xMinYMin meet" x="544.5" y="-750"/>
<text text-anchor="start" x="559.5" y="-741.2" font-family="Helvetica,sans-Serif" font-size="11.00">c_period_id</text>
<polygon fill="none" stroke="black" points="715.5,-733 715.5,-755 798.5,-755 798.5,-733 715.5,-733"/>
<text text-anchor="start" x="718.5" y="-741.2" font-family="Helvetica,sans-Serif" font-size="11.00">numeric[10]</text>
<polygon fill="none" stroke="black" points="539.5,-711 539.5,-733 715.5,-733 715.5,-711 539.5,-711"/>
<text text-anchor="start" x="559.5" y="-719.2" font-family="Helvetica,sans-Serif" font-size="11.00">createdby</text>
<polygon fill="none" stroke="black" points="715.5,-711 715.5,-733 798.5,-733 798.5,-711 715.5,-711"/>
<text text-anchor="start" x="718.5" y="-719.2" font-family="Helvetica,sans-Serif" font-size="11.00">numeric[10]</text>
<polygon fill="none" stroke="black" points="539.5,-689 539.5,-711 715.5,-711 715.5,-689 539.5,-689"/>
<text text-anchor="start" x="559.5" y="-697.2" font-family="Helvetica,sans-Serif" font-size="11.00">datedoc</text>
<polygon fill="none" stroke="black" points="715.5,-689 715.5,-711 798.5,-711 798.5,-689 715.5,-689"/>
<text text-anchor="start" x="718.5" y="-697.2" font-family="Helvetica,sans-Serif" font-size="11.00">timestamp[29,6]</text>
<polygon fill="none" stroke="black" points="539.5,-667 539.5,-689 715.5,-689 715.5,-667 539.5,-667"/>
<text text-anchor="start" x="559.5" y="-675.2" font-family="Helvetica,sans-Serif" font-size="11.00">updatedby</text>
<polygon fill="none" stroke="black" points="715.5,-667 715.5,-689 798.5,-689 798.5,-667 715.5,-667"/>
<text text-anchor="start" x="718.5" y="-675.2" font-family="Helvetica,sans-Serif" font-size="11.00">numeric[10]</text>
<polygon fill="none" stroke="black" points="539.5,-645 539.5,-667 715.5,-667 715.5,-645 539.5,-645"/>
<text text-anchor="start" x="559.5" y="-653.2" font-family="Helvetica,sans-Serif" font-size="11.00">updated</text>
<polygon fill="none" stroke="black" points="715.5,-645 715.5,-667 798.5,-667 798.5,-645 715.5,-645"/>
<text text-anchor="start" x="718.5" y="-653.2" font-family="Helvetica,sans-Serif" font-size="11.00">timestamp[29,6]</text>
<polygon fill="none" stroke="black" points="539.5,-623 539.5,-645 715.5,-645 715.5,-623 539.5,-623"/>
<text text-anchor="start" x="559.5" y="-631.2" font-family="Helvetica,sans-Serif" font-size="11.00">processing</text>
<polygon fill="none" stroke="black" points="715.5,-623 715.5,-645 798.5,-645 798.5,-623 715.5,-623"/>
<text text-anchor="start" x="718.5" y="-631.2" font-family="Helvetica,sans-Serif" font-size="11.00">bpchar[1]</text>
<polygon fill="none" stroke="black" points="539.5,-601 539.5,-623 715.5,-623 715.5,-601 539.5,-601"/>
<text text-anchor="start" x="559.5" y="-609.2" font-family="Helvetica,sans-Serif" font-size="11.00">processed</text>
<polygon fill="none" stroke="black" points="715.5,-601 715.5,-623 798.5,-623 798.5,-601 715.5,-601"/>
<text text-anchor="start" x="718.5" y="-609.2" font-family="Helvetica,sans-Serif" font-size="11.00">bpchar[1]</text>
<polygon fill="none" stroke="black" points="539.5,-579 539.5,-601 715.5,-601 715.5,-579 539.5,-579"/>
<text text-anchor="start" x="559.5" y="-587.2" font-family="Helvetica,sans-Serif" font-size="11.00">postingtype</text>
<polygon fill="none" stroke="black" points="715.5,-579 715.5,-601 798.5,-601 798.5,-579 715.5,-579"/>
<text text-anchor="start" x="718.5" y="-587.2" font-family="Helvetica,sans-Serif" font-size="11.00">bpchar[1]</text>
<polygon fill="none" stroke="black" points="539.5,-557 539.5,-579 715.5,-579 715.5,-557 539.5,-557"/>
<text text-anchor="start" x="559.5" y="-565.2" font-family="Helvetica,sans-Serif" font-size="11.00">isactive</text>
<polygon fill="none" stroke="black" points="715.5,-557 715.5,-579 798.5,-579 798.5,-557 715.5,-557"/>
<text text-anchor="start" x="718.5" y="-565.2" font-family="Helvetica,sans-Serif" font-size="11.00">bpchar[1]</text>
<polygon fill="none" stroke="black" points="539.5,-535 539.5,-557 715.5,-557 715.5,-535 539.5,-535"/>
<image xlink:href="../../images/foreignKeys.png" width="11px" height="12px" preserveAspectRatio="xMinYMin meet" x="544.5" y="-552"/>
<text text-anchor="start" x="559.5" y="-543.2" font-family="Helvetica,sans-Serif" font-size="11.00">gl_category_id</text>
<polygon fill="none" stroke="black" points="715.5,-535 715.5,-557 798.5,-557 798.5,-535 715.5,-535"/>
<text text-anchor="start" x="718.5" y="-543.2" font-family="Helvetica,sans-Serif" font-size="11.00">numeric[10]</text>
<polygon fill="none" stroke="black" points="539.5,-513 539.5,-535 715.5,-535 715.5,-513 539.5,-513"/>
<text text-anchor="start" x="559.5" y="-521.2" font-family="Helvetica,sans-Serif" font-size="11.00">documentno</text>
<polygon fill="none" stroke="black" points="715.5,-513 715.5,-535 798.5,-535 798.5,-513 715.5,-513"/>
<text text-anchor="start" x="718.5" y="-521.2" font-family="Helvetica,sans-Serif" font-size="11.00">varchar[60]</text>
<polygon fill="none" stroke="black" points="539.5,-491 539.5,-513 715.5,-513 715.5,-491 539.5,-491"/>
<text text-anchor="start" x="559.5" y="-499.2" font-family="Helvetica,sans-Serif" font-size="11.00">description</text>
<polygon fill="none" stroke="black" points="715.5,-491 715.5,-513 798.5,-513 798.5,-491 715.5,-491"/>
<text text-anchor="start" x="718.5" y="-499.2" font-family="Helvetica,sans-Serif" font-size="11.00">varchar[510]</text>
<polygon fill="none" stroke="black" points="539.5,-469 539.5,-491 715.5,-491 715.5,-469 539.5,-469"/>
<text text-anchor="start" x="559.5" y="-477.2" font-family="Helvetica,sans-Serif" font-size="11.00">dateacct</text>
<polygon fill="none" stroke="black" points="715.5,-469 715.5,-491 798.5,-491 798.5,-469 715.5,-469"/>
<text text-anchor="start" x="718.5" y="-477.2" font-family="Helvetica,sans-Serif" font-size="11.00">timestamp[29,6]</text>
<polygon fill="none" stroke="black" points="539.5,-447 539.5,-469 715.5,-469 715.5,-447 539.5,-447"/>
<text text-anchor="start" x="559.5" y="-455.2" font-family="Helvetica,sans-Serif" font-size="11.00">created</text>
<polygon fill="none" stroke="black" points="715.5,-447 715.5,-469 798.5,-469 798.5,-447 715.5,-447"/>
<text text-anchor="start" x="718.5" y="-455.2" font-family="Helvetica,sans-Serif" font-size="11.00">timestamp[29,6]</text>
<polygon fill="none" stroke="black" points="539.5,-425 539.5,-447 715.5,-447 715.5,-425 539.5,-425"/>
<image xlink:href="../../images/foreignKeys.png" width="11px" height="12px" preserveAspectRatio="xMinYMin meet" x="544.5" y="-442"/>
<text text-anchor="start" x="559.5" y="-433.2" font-family="Helvetica,sans-Serif" font-size="11.00">c_doctype_id</text>
<polygon fill="none" stroke="black" points="715.5,-425 715.5,-447 798.5,-447 798.5,-425 715.5,-425"/>
<text text-anchor="start" x="718.5" y="-433.2" font-family="Helvetica,sans-Serif" font-size="11.00">numeric[10]</text>
<polygon fill="none" stroke="black" points="539.5,-403 539.5,-425 715.5,-425 715.5,-403 539.5,-403"/>
<image xlink:href="../../images/foreignKeys.png" width="11px" height="12px" preserveAspectRatio="xMinYMin meet" x="544.5" y="-420"/>
<text text-anchor="start" x="559.5" y="-411.2" font-family="Helvetica,sans-Serif" font-size="11.00">c_acctschema_id</text>
<polygon fill="none" stroke="black" points="715.5,-403 715.5,-425 798.5,-425 798.5,-403 715.5,-403"/>
<text text-anchor="start" x="718.5" y="-411.2" font-family="Helvetica,sans-Serif" font-size="11.00">numeric[10]</text>
<polygon fill="none" stroke="black" points="539.5,-381 539.5,-403 715.5,-403 715.5,-381 539.5,-381"/>
<text text-anchor="start" x="559.5" y="-389.2" font-family="Helvetica,sans-Serif" font-size="11.00">a_reval_effective_date</text>
<polygon fill="none" stroke="black" points="715.5,-381 715.5,-403 798.5,-403 798.5,-381 715.5,-381"/>
<text text-anchor="start" x="718.5" y="-389.2" font-family="Helvetica,sans-Serif" font-size="11.00">varchar[2]</text>
<polygon fill="none" stroke="black" points="539.5,-359 539.5,-381 715.5,-381 715.5,-359 539.5,-359"/>
<text text-anchor="start" x="559.5" y="-367.2" font-family="Helvetica,sans-Serif" font-size="11.00">a_rev_code</text>
<polygon fill="none" stroke="black" points="715.5,-359 715.5,-381 798.5,-381 798.5,-359 715.5,-359"/>
<text text-anchor="start" x="718.5" y="-367.2" font-family="Helvetica,sans-Serif" font-size="11.00">varchar[3]</text>
<polygon fill="none" stroke="black" points="539.5,-337 539.5,-359 715.5,-359 715.5,-337 539.5,-337"/>
<text text-anchor="start" x="559.5" y="-345.2" font-family="Helvetica,sans-Serif" font-size="11.00">ad_org_id</text>
<polygon fill="none" stroke="black" points="715.5,-337 715.5,-359 798.5,-359 798.5,-337 715.5,-337"/>
<text text-anchor="start" x="718.5" y="-345.2" font-family="Helvetica,sans-Serif" font-size="11.00">numeric[10]</text>
<polygon fill="#ffffff" stroke="transparent" points="539.5,-315 539.5,-337 715.5,-337 715.5,-315 539.5,-315"/>
<polygon fill="none" stroke="black" points="539.5,-315 539.5,-337 715.5,-337 715.5,-315 539.5,-315"/>
<text text-anchor="start" x="559.5" y="-323.2" font-family="Helvetica,sans-Serif" font-size="11.00">a_asset_reval_entry_uu</text>
<polygon fill="none" stroke="black" points="715.5,-315 715.5,-337 798.5,-337 798.5,-315 715.5,-315"/>
<text text-anchor="start" x="718.5" y="-323.2" font-family="Helvetica,sans-Serif" font-size="11.00">varchar[36]</text>
<polygon fill="#ffffff" stroke="transparent" points="539.5,-297 539.5,-315 618.5,-315 618.5,-297 539.5,-297"/>
<polygon fill="none" stroke="black" points="539.5,-297 539.5,-315 618.5,-315 618.5,-297 539.5,-297"/>
<text text-anchor="start" x="542.5" y="-303.2" font-family="Helvetica,sans-Serif" font-size="11.00">&lt; 5</text>
<polygon fill="#ffffff" stroke="transparent" points="618.5,-297 618.5,-315 715.5,-315 715.5,-297 618.5,-297"/>
<polygon fill="none" stroke="black" points="618.5,-297 618.5,-315 715.5,-315 715.5,-297 618.5,-297"/>
<text text-anchor="start" x="679.5" y="-303.2" font-family="Helvetica,sans-Serif" font-size="11.00">0 rows</text>
<polygon fill="#ffffff" stroke="transparent" points="715.5,-297 715.5,-315 798.5,-315 798.5,-297 715.5,-297"/>
<polygon fill="none" stroke="black" points="715.5,-297 715.5,-315 798.5,-315 798.5,-297 715.5,-297"/>
<text text-anchor="start" x="779.5" y="-303.2" font-family="Helvetica,sans-Serif" font-size="11.00">0 &gt;</text>
<polygon fill="none" stroke="black" stroke-width="2" points="538,-296 538,-910 799,-910 799,-296 538,-296"/>
</a>
</g>
</g>
<!-- c_acctschema -->
<g id="node2" class="node">
<title>c_acctschema</title>
<g id="a_node2"><a xlink:href="../../tables/c_acctschema.html" xlink:title="c_acctschema" target="_top">
<polygon fill="#ffffff" stroke="transparent" points="250,-544 250,-800 437,-800 437,-544 250,-544"/>
<polygon fill="#f5f5f5" stroke="transparent" points="250.5,-778 250.5,-800 437.5,-800 437.5,-778 250.5,-778"/>
<polygon fill="none" stroke="black" points="250.5,-778 250.5,-800 437.5,-800 437.5,-778 250.5,-778"/>
<text text-anchor="start" x="255.5" y="-787.2" font-family="Helvetica,sans-Serif" font-weight="bold" font-size="11.00">c_acctschema</text>
<text text-anchor="start" x="402.5" y="-786.2" font-family="Helvetica,sans-Serif" font-size="11.00">[table]</text>
<polygon fill="none" stroke="black" points="250.5,-756 250.5,-778 437.5,-778 437.5,-756 250.5,-756"/>
<image xlink:href="../../images/primaryKeys.png" width="11px" height="12px" preserveAspectRatio="xMinYMin meet" x="255.5" y="-773"/>
<text text-anchor="start" x="270.5" y="-764.2" font-family="Helvetica,sans-Serif" font-size="11.00">c_acctschema_id</text>
<polygon fill="#ffffff" stroke="transparent" points="250.5,-734 250.5,-756 437.5,-756 437.5,-734 250.5,-734"/>
<polygon fill="none" stroke="black" points="250.5,-734 250.5,-756 437.5,-756 437.5,-734 250.5,-734"/>
<image xlink:href="../../images/foreignKeys.png" width="11px" height="12px" preserveAspectRatio="xMinYMin meet" x="255.5" y="-751"/>
<text text-anchor="start" x="270.5" y="-742.2" font-family="Helvetica,sans-Serif" font-size="11.00">ad_client_id</text>
<polygon fill="none" stroke="black" points="250.5,-712 250.5,-734 437.5,-734 437.5,-712 250.5,-712"/>
<image xlink:href="../../images/foreignKeys.png" width="11px" height="12px" preserveAspectRatio="xMinYMin meet" x="255.5" y="-729"/>
<text text-anchor="start" x="270.5" y="-720.2" font-family="Helvetica,sans-Serif" font-size="11.00">ad_org_id</text>
<polygon fill="#ffffff" stroke="transparent" points="250.5,-690 250.5,-712 437.5,-712 437.5,-690 250.5,-690"/>
<polygon fill="none" stroke="black" points="250.5,-690 250.5,-712 437.5,-712 437.5,-690 250.5,-690"/>
<text text-anchor="start" x="270.5" y="-698.2" font-family="Helvetica,sans-Serif" font-size="11.00">name</text>
<polygon fill="none" stroke="black" points="250.5,-668 250.5,-690 437.5,-690 437.5,-668 250.5,-668"/>
<image xlink:href="../../images/foreignKeys.png" width="11px" height="12px" preserveAspectRatio="xMinYMin meet" x="255.5" y="-685"/>
<text text-anchor="start" x="270.5" y="-676.2" font-family="Helvetica,sans-Serif" font-size="11.00">c_currency_id</text>
<polygon fill="none" stroke="black" points="250.5,-646 250.5,-668 437.5,-668 437.5,-646 250.5,-646"/>
<image xlink:href="../../images/foreignKeys.png" width="11px" height="12px" preserveAspectRatio="xMinYMin meet" x="255.5" y="-663"/>
<text text-anchor="start" x="270.5" y="-654.2" font-family="Helvetica,sans-Serif" font-size="11.00">c_period_id</text>
<polygon fill="none" stroke="black" points="250.5,-624 250.5,-646 437.5,-646 437.5,-624 250.5,-624"/>
<image xlink:href="../../images/foreignKeys.png" width="11px" height="12px" preserveAspectRatio="xMinYMin meet" x="255.5" y="-641"/>
<text text-anchor="start" x="270.5" y="-632.2" font-family="Helvetica,sans-Serif" font-size="11.00">m_costtype_id</text>
<polygon fill="none" stroke="black" points="250.5,-602 250.5,-624 437.5,-624 437.5,-602 250.5,-602"/>
<image xlink:href="../../images/foreignKeys.png" width="11px" height="12px" preserveAspectRatio="xMinYMin meet" x="255.5" y="-619"/>
<text text-anchor="start" x="270.5" y="-610.2" font-family="Helvetica,sans-Serif" font-size="11.00">ad_orgonly_id</text>
<polygon fill="#ffffff" stroke="transparent" points="250.5,-580 250.5,-602 437.5,-602 437.5,-580 250.5,-580"/>
<polygon fill="none" stroke="black" points="250.5,-580 250.5,-602 437.5,-602 437.5,-580 250.5,-580"/>
<text text-anchor="start" x="270.5" y="-588.2" font-family="Helvetica,sans-Serif" font-size="11.00">c_acctschema_uu</text>
<polygon fill="none" stroke="black" points="250.5,-562 250.5,-580 437.5,-580 437.5,-562 250.5,-562"/>
<text text-anchor="start" x="253.5" y="-568.2" font-family="Helvetica,sans-Serif" font-size="11.00">...</text>
<polygon fill="#ffffff" stroke="transparent" points="250.5,-544 250.5,-562 323.5,-562 323.5,-544 250.5,-544"/>
<polygon fill="none" stroke="black" points="250.5,-544 250.5,-562 323.5,-562 323.5,-544 250.5,-544"/>
<text text-anchor="start" x="253.5" y="-550.2" font-family="Helvetica,sans-Serif" font-size="11.00">&lt; 6</text>
<polygon fill="#ffffff" stroke="transparent" points="323.5,-544 323.5,-562 383.5,-562 383.5,-544 323.5,-544"/>
<polygon fill="none" stroke="black" points="323.5,-544 323.5,-562 383.5,-562 383.5,-544 323.5,-544"/>
<text text-anchor="start" x="352.5" y="-550.2" font-family="Helvetica,sans-Serif" font-size="11.00">1 row</text>
<polygon fill="#ffffff" stroke="transparent" points="383.5,-544 383.5,-562 437.5,-562 437.5,-544 383.5,-544"/>
<polygon fill="none" stroke="black" points="383.5,-544 383.5,-562 437.5,-562 437.5,-544 383.5,-544"/>
<text text-anchor="start" x="412.5" y="-550.2" font-family="Helvetica,sans-Serif" font-size="11.00">55 &gt;</text>
</a>
</g>
</g>
<!-- a_asset_reval_entry&#45;&gt;c_acctschema -->
<g id="edge1" class="edge">
<title>a_asset_reval_entry:w&#45;&gt;c_acctschema:e</title>
<path fill="none" stroke="black" d="M527.15,-423.44C493.91,-479.58 475.28,-767 438.5,-767"/>
<polygon fill="black" stroke="black" points="532.35,-419.12 540.8,-416.77 535.43,-416.56 538.5,-414 538.5,-414 538.5,-414 535.43,-416.56 536.2,-411.23 532.35,-419.12 532.35,-419.12"/>
<ellipse fill="none" stroke="black" cx="529.89" cy="-421.16" rx="3.2" ry="3.2"/>
</g>
<!-- c_currency -->
<g id="node3" class="node">
<title>c_currency</title>
<g id="a_node3"><a xlink:href="../../tables/c_currency.html" xlink:title="c_currency" target="_top">
<polygon fill="#ffffff" stroke="transparent" points="8,-660 8,-828 150,-828 150,-660 8,-660"/>
<polygon fill="#f5f5f5" stroke="transparent" points="8,-806 8,-828 150,-828 150,-806 8,-806"/>
<polygon fill="none" stroke="black" points="8,-806 8,-828 150,-828 150,-806 8,-806"/>
<text text-anchor="start" x="13" y="-815.2" font-family="Helvetica,sans-Serif" font-weight="bold" font-size="11.00">c_currency</text>
<text text-anchor="start" x="115" y="-814.2" font-family="Helvetica,sans-Serif" font-size="11.00">[table]</text>
<polygon fill="none" stroke="black" points="8,-784 8,-806 150,-806 150,-784 8,-784"/>
<image xlink:href="../../images/primaryKeys.png" width="11px" height="12px" preserveAspectRatio="xMinYMin meet" x="13" y="-801"/>
<text text-anchor="start" x="28" y="-792.2" font-family="Helvetica,sans-Serif" font-size="11.00">c_currency_id</text>
<polygon fill="none" stroke="black" points="8,-762 8,-784 150,-784 150,-762 8,-762"/>
<image xlink:href="../../images/foreignKeys.png" width="11px" height="12px" preserveAspectRatio="xMinYMin meet" x="13" y="-779"/>
<text text-anchor="start" x="28" y="-770.2" font-family="Helvetica,sans-Serif" font-size="11.00">ad_client_id</text>
<polygon fill="none" stroke="black" points="8,-740 8,-762 150,-762 150,-740 8,-740"/>
<image xlink:href="../../images/foreignKeys.png" width="11px" height="12px" preserveAspectRatio="xMinYMin meet" x="13" y="-757"/>
<text text-anchor="start" x="28" y="-748.2" font-family="Helvetica,sans-Serif" font-size="11.00">ad_org_id</text>
<polygon fill="#ffffff" stroke="transparent" points="8,-718 8,-740 150,-740 150,-718 8,-718"/>
<polygon fill="none" stroke="black" points="8,-718 8,-740 150,-740 150,-718 8,-718"/>
<text text-anchor="start" x="28" y="-726.2" font-family="Helvetica,sans-Serif" font-size="11.00">iso_code</text>
<polygon fill="#ffffff" stroke="transparent" points="8,-696 8,-718 150,-718 150,-696 8,-696"/>
<polygon fill="none" stroke="black" points="8,-696 8,-718 150,-718 150,-696 8,-696"/>
<text text-anchor="start" x="28" y="-704.2" font-family="Helvetica,sans-Serif" font-size="11.00">c_currency_uu</text>
<polygon fill="none" stroke="black" points="8,-678 8,-696 150,-696 150,-678 8,-678"/>
<text text-anchor="start" x="11" y="-684.2" font-family="Helvetica,sans-Serif" font-size="11.00">...</text>
<polygon fill="#ffffff" stroke="transparent" points="8,-660 8,-678 50,-678 50,-660 8,-660"/>
<polygon fill="none" stroke="black" points="8,-660 8,-678 50,-678 50,-660 8,-660"/>
<text text-anchor="start" x="11" y="-666.2" font-family="Helvetica,sans-Serif" font-size="11.00">&lt; 2</text>
<polygon fill="#ffffff" stroke="transparent" points="50,-660 50,-678 111,-678 111,-660 50,-660"/>
<polygon fill="none" stroke="black" points="50,-660 50,-678 111,-678 111,-660 50,-660"/>
<text text-anchor="start" x="63" y="-666.2" font-family="Helvetica,sans-Serif" font-size="11.00">175 rows</text>
<polygon fill="#ffffff" stroke="transparent" points="111,-660 111,-678 150,-678 150,-660 111,-660"/>
<polygon fill="none" stroke="black" points="111,-660 111,-678 150,-678 150,-660 111,-660"/>
<text text-anchor="start" x="125" y="-666.2" font-family="Helvetica,sans-Serif" font-size="11.00">67 &gt;</text>
</a>
</g>
</g>
<!-- a_asset_reval_entry&#45;&gt;c_currency -->
<g id="edge2" class="edge">
<title>a_asset_reval_entry:w&#45;&gt;c_currency:e</title>
<path fill="none" stroke="black" d="M524.77,-770.59C513.82,-780.26 515.54,-802.58 496,-811 371.52,-864.66 324.11,-836.63 191,-811 172.2,-807.38 170.15,-795 151,-795"/>
<polygon fill="black" stroke="black" points="530.91,-768.53 539.64,-769.41 534.71,-767.27 538.5,-766 538.5,-766 538.5,-766 534.71,-767.27 537.36,-762.59 530.91,-768.53 530.91,-768.53"/>
<ellipse fill="none" stroke="black" cx="527.88" cy="-769.55" rx="3.2" ry="3.2"/>
</g>
<!-- c_doctype -->
<g id="node4" class="node">
<title>c_doctype</title>
<g id="a_node4"><a xlink:href="../../tables/c_doctype.html" xlink:title="c_doctype" target="_top">
<polygon fill="#ffffff" stroke="transparent" points="199,-37 199,-469 488,-469 488,-37 199,-37"/>
<polygon fill="#f5f5f5" stroke="transparent" points="199.5,-447 199.5,-469 488.5,-469 488.5,-447 199.5,-447"/>
<polygon fill="none" stroke="black" points="199.5,-447 199.5,-469 488.5,-469 488.5,-447 199.5,-447"/>
<text text-anchor="start" x="204.5" y="-456.2" font-family="Helvetica,sans-Serif" font-weight="bold" font-size="11.00">c_doctype</text>
<text text-anchor="start" x="453.5" y="-455.2" font-family="Helvetica,sans-Serif" font-size="11.00">[table]</text>
<polygon fill="none" stroke="black" points="199.5,-425 199.5,-447 488.5,-447 488.5,-425 199.5,-425"/>
<image xlink:href="../../images/primaryKeys.png" width="11px" height="12px" preserveAspectRatio="xMinYMin meet" x="204.5" y="-442"/>
<text text-anchor="start" x="219.5" y="-433.2" font-family="Helvetica,sans-Serif" font-size="11.00">c_doctype_id</text>
<polygon fill="#ffffff" stroke="transparent" points="199.5,-403 199.5,-425 488.5,-425 488.5,-403 199.5,-403"/>
<polygon fill="none" stroke="black" points="199.5,-403 199.5,-425 488.5,-425 488.5,-403 199.5,-403"/>
<text text-anchor="start" x="219.5" y="-411.2" font-family="Helvetica,sans-Serif" font-size="11.00">ad_client_id</text>
<polygon fill="#ffffff" stroke="transparent" points="199.5,-381 199.5,-403 488.5,-403 488.5,-381 199.5,-381"/>
<polygon fill="none" stroke="black" points="199.5,-381 199.5,-403 488.5,-403 488.5,-381 199.5,-381"/>
<text text-anchor="start" x="219.5" y="-389.2" font-family="Helvetica,sans-Serif" font-size="11.00">name</text>
<polygon fill="none" stroke="black" points="199.5,-359 199.5,-381 488.5,-381 488.5,-359 199.5,-359"/>
<image xlink:href="../../images/foreignKeys.png" width="11px" height="12px" preserveAspectRatio="xMinYMin meet" x="204.5" y="-376"/>
<text text-anchor="start" x="219.5" y="-367.2" font-family="Helvetica,sans-Serif" font-size="11.00">c_doctypeproforma_id</text>
<polygon fill="none" stroke="black" points="199.5,-337 199.5,-359 488.5,-359 488.5,-337 199.5,-337"/>
<image xlink:href="../../images/foreignKeys.png" width="11px" height="12px" preserveAspectRatio="xMinYMin meet" x="204.5" y="-354"/>
<text text-anchor="start" x="219.5" y="-345.2" font-family="Helvetica,sans-Serif" font-size="11.00">c_doctypeshipment_id</text>
<polygon fill="none" stroke="black" points="199.5,-315 199.5,-337 488.5,-337 488.5,-315 199.5,-315"/>
<image xlink:href="../../images/foreignKeys.png" width="11px" height="12px" preserveAspectRatio="xMinYMin meet" x="204.5" y="-332"/>
<text text-anchor="start" x="219.5" y="-323.2" font-family="Helvetica,sans-Serif" font-size="11.00">c_doctypeinvoice_id</text>
<polygon fill="none" stroke="black" points="199.5,-293 199.5,-315 488.5,-315 488.5,-293 199.5,-293"/>
<image xlink:href="../../images/foreignKeys.png" width="11px" height="12px" preserveAspectRatio="xMinYMin meet" x="204.5" y="-310"/>
<text text-anchor="start" x="219.5" y="-301.2" font-family="Helvetica,sans-Serif" font-size="11.00">docnosequence_id</text>
<polygon fill="none" stroke="black" points="199.5,-271 199.5,-293 488.5,-293 488.5,-271 199.5,-271"/>
<image xlink:href="../../images/foreignKeys.png" width="11px" height="12px" preserveAspectRatio="xMinYMin meet" x="204.5" y="-288"/>
<text text-anchor="start" x="219.5" y="-279.2" font-family="Helvetica,sans-Serif" font-size="11.00">gl_category_id</text>
<polygon fill="none" stroke="black" points="199.5,-249 199.5,-271 488.5,-271 488.5,-249 199.5,-249"/>
<image xlink:href="../../images/foreignKeys.png" width="11px" height="12px" preserveAspectRatio="xMinYMin meet" x="204.5" y="-266"/>
<text text-anchor="start" x="219.5" y="-257.2" font-family="Helvetica,sans-Serif" font-size="11.00">ad_printformat_id</text>
<polygon fill="none" stroke="black" points="199.5,-227 199.5,-249 488.5,-249 488.5,-227 199.5,-227"/>
<image xlink:href="../../images/foreignKeys.png" width="11px" height="12px" preserveAspectRatio="xMinYMin meet" x="204.5" y="-244"/>
<text text-anchor="start" x="219.5" y="-235.2" font-family="Helvetica,sans-Serif" font-size="11.00">c_doctypedifference_id</text>
<polygon fill="none" stroke="black" points="199.5,-205 199.5,-227 488.5,-227 488.5,-205 199.5,-205"/>
<image xlink:href="../../images/foreignKeys.png" width="11px" height="12px" preserveAspectRatio="xMinYMin meet" x="204.5" y="-222"/>
<text text-anchor="start" x="219.5" y="-213.2" font-family="Helvetica,sans-Serif" font-size="11.00">definitesequence_id</text>
<polygon fill="#ffffff" stroke="transparent" points="199.5,-183 199.5,-205 488.5,-205 488.5,-183 199.5,-183"/>
<polygon fill="none" stroke="black" points="199.5,-183 199.5,-205 488.5,-205 488.5,-183 199.5,-183"/>
<text text-anchor="start" x="219.5" y="-191.2" font-family="Helvetica,sans-Serif" font-size="11.00">c_doctype_uu</text>
<polygon fill="none" stroke="black" points="199.5,-161 199.5,-183 488.5,-183 488.5,-161 199.5,-161"/>
<image xlink:href="../../images/foreignKeys.png" width="11px" height="12px" preserveAspectRatio="xMinYMin meet" x="204.5" y="-178"/>
<text text-anchor="start" x="219.5" y="-169.2" font-family="Helvetica,sans-Serif" font-size="11.00">m_warehouse_id</text>
<polygon fill="none" stroke="black" points="199.5,-139 199.5,-161 488.5,-161 488.5,-139 199.5,-139"/>
<image xlink:href="../../images/foreignKeys.png" width="11px" height="12px" preserveAspectRatio="xMinYMin meet" x="204.5" y="-156"/>
<text text-anchor="start" x="219.5" y="-147.2" font-family="Helvetica,sans-Serif" font-size="11.00">user1_id</text>
<polygon fill="none" stroke="black" points="199.5,-117 199.5,-139 488.5,-139 488.5,-117 199.5,-117"/>
<image xlink:href="../../images/foreignKeys.png" width="11px" height="12px" preserveAspectRatio="xMinYMin meet" x="204.5" y="-134"/>
<text text-anchor="start" x="219.5" y="-125.2" font-family="Helvetica,sans-Serif" font-size="11.00">c_activity_id</text>
<polygon fill="none" stroke="black" points="199.5,-95 199.5,-117 488.5,-117 488.5,-95 199.5,-95"/>
<image xlink:href="../../images/foreignKeys.png" width="11px" height="12px" preserveAspectRatio="xMinYMin meet" x="204.5" y="-112"/>
<text text-anchor="start" x="219.5" y="-103.2" font-family="Helvetica,sans-Serif" font-size="11.00">user2_id</text>
<polygon fill="none" stroke="black" points="199.5,-73 199.5,-95 488.5,-95 488.5,-73 199.5,-73"/>
<image xlink:href="../../images/foreignKeys.png" width="11px" height="12px" preserveAspectRatio="xMinYMin meet" x="204.5" y="-90"/>
<text text-anchor="start" x="219.5" y="-81.2" font-family="Helvetica,sans-Serif" font-size="11.00">cof_charge_id</text>
<polygon fill="none" stroke="black" points="199.5,-55 199.5,-73 488.5,-73 488.5,-55 199.5,-55"/>
<text text-anchor="start" x="202.5" y="-61.2" font-family="Helvetica,sans-Serif" font-size="11.00">...</text>
<polygon fill="#ffffff" stroke="transparent" points="199.5,-37 199.5,-55 318.5,-55 318.5,-37 199.5,-37"/>
<polygon fill="none" stroke="black" points="199.5,-37 199.5,-55 318.5,-55 318.5,-37 199.5,-37"/>
<text text-anchor="start" x="202.5" y="-43.2" font-family="Helvetica,sans-Serif" font-size="11.00">&lt; 13</text>
<polygon fill="#ffffff" stroke="transparent" points="318.5,-37 318.5,-55 414.5,-55 414.5,-37 318.5,-37"/>
<polygon fill="none" stroke="black" points="318.5,-37 318.5,-55 414.5,-55 414.5,-37 318.5,-37"/>
<text text-anchor="start" x="366.5" y="-43.2" font-family="Helvetica,sans-Serif" font-size="11.00">133 rows</text>
<polygon fill="#ffffff" stroke="transparent" points="414.5,-37 414.5,-55 488.5,-55 488.5,-37 414.5,-37"/>
<polygon fill="none" stroke="black" points="414.5,-37 414.5,-55 488.5,-55 488.5,-37 414.5,-37"/>
<text text-anchor="start" x="463.5" y="-43.2" font-family="Helvetica,sans-Serif" font-size="11.00">68 &gt;</text>
</a>
</g>
</g>
<!-- a_asset_reval_entry&#45;&gt;c_doctype -->
<g id="edge3" class="edge">
<title>a_asset_reval_entry:w&#45;&gt;c_doctype:e</title>
<path fill="none" stroke="black" d="M523.99,-436C512.68,-436 505.49,-436 489.5,-436"/>
<polygon fill="black" stroke="black" points="530.5,-436 538.5,-439.6 534.5,-436 538.5,-436 538.5,-436 538.5,-436 534.5,-436 538.5,-432.4 530.5,-436 530.5,-436"/>
<ellipse fill="none" stroke="black" cx="527.3" cy="-436" rx="3.2" ry="3.2"/>
</g>
<!-- c_period -->
<g id="node5" class="node">
<title>c_period</title>
<g id="a_node5"><a xlink:href="../../tables/c_period.html" xlink:title="c_period" target="_top">
<polygon fill="#ffffff" stroke="transparent" points="28.5,-420 28.5,-610 129.5,-610 129.5,-420 28.5,-420"/>
<polygon fill="#f5f5f5" stroke="transparent" points="29,-588 29,-610 130,-610 130,-588 29,-588"/>
<polygon fill="none" stroke="black" points="29,-588 29,-610 130,-610 130,-588 29,-588"/>
<text text-anchor="start" x="34" y="-597.2" font-family="Helvetica,sans-Serif" font-weight="bold" font-size="11.00">c_period</text>
<text text-anchor="start" x="95" y="-596.2" font-family="Helvetica,sans-Serif" font-size="11.00">[table]</text>
<polygon fill="none" stroke="black" points="29,-566 29,-588 130,-588 130,-566 29,-566"/>
<image xlink:href="../../images/primaryKeys.png" width="11px" height="12px" preserveAspectRatio="xMinYMin meet" x="34" y="-583"/>
<text text-anchor="start" x="50" y="-574.2" font-family="Helvetica,sans-Serif" font-size="11.00">c_period_id</text>
<polygon fill="none" stroke="black" points="29,-544 29,-566 130,-566 130,-544 29,-544"/>
<image xlink:href="../../images/foreignKeys.png" width="11px" height="12px" preserveAspectRatio="xMinYMin meet" x="34" y="-561"/>
<text text-anchor="start" x="50" y="-552.2" font-family="Helvetica,sans-Serif" font-size="11.00">ad_client_id</text>
<polygon fill="none" stroke="black" points="29,-522 29,-544 130,-544 130,-522 29,-522"/>
<image xlink:href="../../images/foreignKeys.png" width="11px" height="12px" preserveAspectRatio="xMinYMin meet" x="34" y="-539"/>
<text text-anchor="start" x="50" y="-530.2" font-family="Helvetica,sans-Serif" font-size="11.00">ad_org_id</text>
<polygon fill="#ffffff" stroke="transparent" points="29,-500 29,-522 130,-522 130,-500 29,-500"/>
<polygon fill="none" stroke="black" points="29,-500 29,-522 130,-522 130,-500 29,-500"/>
<text text-anchor="start" x="50" y="-508.2" font-family="Helvetica,sans-Serif" font-size="11.00">periodno</text>
<polygon fill="#ffffff" stroke="transparent" points="29,-478 29,-500 130,-500 130,-478 29,-478"/>
<polygon fill="none" stroke="black" points="29,-478 29,-500 130,-500 130,-478 29,-478"/>
<image xlink:href="../../images/foreignKeys.png" width="11px" height="12px" preserveAspectRatio="xMinYMin meet" x="34" y="-495"/>
<text text-anchor="start" x="50" y="-486.2" font-family="Helvetica,sans-Serif" font-size="11.00">c_year_id</text>
<polygon fill="#ffffff" stroke="transparent" points="29,-456 29,-478 130,-478 130,-456 29,-456"/>
<polygon fill="none" stroke="black" points="29,-456 29,-478 130,-478 130,-456 29,-456"/>
<text text-anchor="start" x="50" y="-464.2" font-family="Helvetica,sans-Serif" font-size="11.00">c_period_uu</text>
<polygon fill="none" stroke="black" points="29,-438 29,-456 130,-456 130,-438 29,-438"/>
<text text-anchor="start" x="32" y="-444.2" font-family="Helvetica,sans-Serif" font-size="11.00">...</text>
<polygon fill="#ffffff" stroke="transparent" points="29,-420 29,-438 51,-438 51,-420 29,-420"/>
<polygon fill="none" stroke="black" points="29,-420 29,-438 51,-438 51,-420 29,-420"/>
<text text-anchor="start" x="32" y="-426.2" font-family="Helvetica,sans-Serif" font-size="11.00">&lt; 3</text>
<polygon fill="#ffffff" stroke="transparent" points="51,-420 51,-438 102,-438 102,-420 51,-420"/>
<polygon fill="none" stroke="black" points="51,-420 51,-438 102,-438 102,-420 51,-420"/>
<text text-anchor="start" x="54" y="-426.2" font-family="Helvetica,sans-Serif" font-size="11.00">192 rows</text>
<polygon fill="#ffffff" stroke="transparent" points="102,-420 102,-438 130,-438 130,-420 102,-420"/>
<polygon fill="none" stroke="black" points="102,-420 102,-438 130,-438 130,-420 102,-420"/>
<text text-anchor="start" x="105" y="-426.2" font-family="Helvetica,sans-Serif" font-size="11.00">19 &gt;</text>
</a>
</g>
</g>
<!-- a_asset_reval_entry&#45;&gt;c_period -->
<g id="edge4" class="edge">
<title>a_asset_reval_entry:w&#45;&gt;c_period:e</title>
<path fill="none" stroke="black" d="M523.96,-742.51C457.4,-726.76 565.39,-590.76 496,-534 443.54,-491.09 255.53,-513.26 191,-534 159.77,-544.04 163.81,-577 131,-577"/>
<polygon fill="black" stroke="black" points="530.54,-743.18 538.13,-747.58 534.52,-743.59 538.5,-744 538.5,-744 538.5,-744 534.52,-743.59 538.87,-740.42 530.54,-743.18 530.54,-743.18"/>
<ellipse fill="none" stroke="black" cx="527.36" cy="-742.86" rx="3.2" ry="3.2"/>
</g>
<!-- gl_category -->
<g id="node6" class="node">
<title>gl_category</title>
<g id="a_node6"><a xlink:href="../../tables/gl_category.html" xlink:title="gl_category" target="_top">
<polygon fill="#ffffff" stroke="transparent" points="18,-218 18,-386 140,-386 140,-218 18,-218"/>
<polygon fill="#f5f5f5" stroke="transparent" points="18,-364 18,-386 140,-386 140,-364 18,-364"/>
<polygon fill="none" stroke="black" points="18,-364 18,-386 140,-386 140,-364 18,-364"/>
<text text-anchor="start" x="23" y="-373.2" font-family="Helvetica,sans-Serif" font-weight="bold" font-size="11.00">gl_category</text>
<text text-anchor="start" x="105" y="-372.2" font-family="Helvetica,sans-Serif" font-size="11.00">[table]</text>
<polygon fill="none" stroke="black" points="18,-342 18,-364 140,-364 140,-342 18,-342"/>
<image xlink:href="../../images/primaryKeys.png" width="11px" height="12px" preserveAspectRatio="xMinYMin meet" x="23" y="-359"/>
<text text-anchor="start" x="38" y="-350.2" font-family="Helvetica,sans-Serif" font-size="11.00">gl_category_id</text>
<polygon fill="#ffffff" stroke="transparent" points="18,-320 18,-342 140,-342 140,-320 18,-320"/>
<polygon fill="none" stroke="black" points="18,-320 18,-342 140,-342 140,-320 18,-320"/>
<text text-anchor="start" x="38" y="-328.2" font-family="Helvetica,sans-Serif" font-size="11.00">ad_client_id</text>
<polygon fill="#ffffff" stroke="transparent" points="18,-298 18,-320 140,-320 140,-298 18,-298"/>
<polygon fill="none" stroke="black" points="18,-298 18,-320 140,-320 140,-298 18,-298"/>
<text text-anchor="start" x="38" y="-306.2" font-family="Helvetica,sans-Serif" font-size="11.00">name</text>
<polygon fill="#ffffff" stroke="transparent" points="18,-276 18,-298 140,-298 140,-276 18,-276"/>
<polygon fill="none" stroke="black" points="18,-276 18,-298 140,-298 140,-276 18,-276"/>
<text text-anchor="start" x="38" y="-284.2" font-family="Helvetica,sans-Serif" font-size="11.00">gl_category_uu</text>
<polygon fill="#ffffff" stroke="transparent" points="18,-254 18,-276 140,-276 140,-254 18,-254"/>
<polygon fill="none" stroke="black" points="18,-254 18,-276 140,-276 140,-254 18,-254"/>
<text text-anchor="start" x="38" y="-262.2" font-family="Helvetica,sans-Serif" font-size="11.00">value</text>
<polygon fill="none" stroke="black" points="18,-236 18,-254 140,-254 140,-236 18,-236"/>
<text text-anchor="start" x="21" y="-242.2" font-family="Helvetica,sans-Serif" font-size="11.00">...</text>
<polygon fill="#ffffff" stroke="transparent" points="18,-218 18,-236 49,-236 49,-218 18,-218"/>
<polygon fill="none" stroke="black" points="18,-218 18,-236 49,-236 49,-218 18,-218"/>
<text text-anchor="start" x="21" y="-224.2" font-family="Helvetica,sans-Serif" font-size="11.00"> &#160;</text>
<polygon fill="#ffffff" stroke="transparent" points="49,-218 49,-236 103,-236 103,-218 49,-218"/>
<polygon fill="none" stroke="black" points="49,-218 49,-236 103,-236 103,-218 49,-218"/>
<text text-anchor="start" x="61" y="-224.2" font-family="Helvetica,sans-Serif" font-size="11.00">47 rows</text>
<polygon fill="#ffffff" stroke="transparent" points="103,-218 103,-236 140,-236 140,-218 103,-218"/>
<polygon fill="none" stroke="black" points="103,-218 103,-236 140,-236 140,-218 103,-218"/>
<text text-anchor="start" x="115" y="-224.2" font-family="Helvetica,sans-Serif" font-size="11.00">12 &gt;</text>
</a>
</g>
</g>
<!-- a_asset_reval_entry&#45;&gt;gl_category -->
<g id="edge5" class="edge">
<title>a_asset_reval_entry:w&#45;&gt;gl_category:e</title>
<path fill="none" stroke="black" d="M524.56,-541.51C514.2,-532.85 513.95,-514.02 496,-506 433.89,-478.26 245.55,-520.64 191,-480 142.36,-443.75 201.66,-353 141,-353"/>
<polygon fill="black" stroke="black" points="530.89,-543.55 537.4,-549.43 534.69,-544.77 538.5,-546 538.5,-546 538.5,-546 534.69,-544.77 539.6,-542.57 530.89,-543.55 530.89,-543.55"/>
<ellipse fill="none" stroke="black" cx="527.84" cy="-542.56" rx="3.2" ry="3.2"/>
</g>
<!-- c_acctschema&#45;&gt;c_currency -->
<g id="edge6" class="edge">
<title>c_acctschema:w&#45;&gt;c_currency:e</title>
<path fill="none" stroke="black" d="M235.15,-681.11C187.08,-696.83 213.22,-795 151,-795"/>
<polygon fill="black" stroke="black" points="241.59,-680.17 250.02,-682.56 245.54,-679.58 249.5,-679 249.5,-679 249.5,-679 245.54,-679.58 248.98,-675.44 241.59,-680.17 241.59,-680.17"/>
<ellipse fill="none" stroke="black" cx="238.42" cy="-680.63" rx="3.2" ry="3.2"/>
</g>
<!-- c_acctschema&#45;&gt;c_period -->
<g id="edge7" class="edge">
<title>c_acctschema:w&#45;&gt;c_period:e</title>
<path fill="none" stroke="black" d="M234.93,-655.4C186.89,-644.13 189.21,-577 131,-577"/>
<polygon fill="black" stroke="black" points="241.55,-656.13 249.11,-660.58 245.52,-656.56 249.5,-657 249.5,-657 249.5,-657 245.52,-656.56 249.89,-653.42 241.55,-656.13 241.55,-656.13"/>
<ellipse fill="none" stroke="black" cx="238.37" cy="-655.78" rx="3.2" ry="3.2"/>
</g>
<!-- c_doctype&#45;&gt;gl_category -->
<g id="edge8" class="edge">
<title>c_doctype:w&#45;&gt;gl_category:e</title>
<path fill="none" stroke="black" d="M184.54,-286.02C163.4,-301.04 175.74,-353 141,-353"/>
<polygon fill="black" stroke="black" points="190.81,-284.21 199.5,-285.46 194.66,-283.11 198.5,-282 198.5,-282 198.5,-282 194.66,-283.11 197.5,-278.54 190.81,-284.21 190.81,-284.21"/>
<ellipse fill="none" stroke="black" cx="187.74" cy="-285.1" rx="3.2" ry="3.2"/>
</g>
</g>
</svg>
