<?xml version="1.0" encoding="UTF-8" standalone="no"?>
<!DOCTYPE svg PUBLIC "-//W3C//DTD SVG 1.1//EN"
 "http://www.w3.org/Graphics/SVG/1.1/DTD/svg11.dtd">
<!-- Generated by graphviz version 2.43.0 (0)
 -->
<!-- Title: oneDegreeRelationshipsDiagram Pages: 1 -->
<svg width="631pt" height="2192pt"
 viewBox="0.00 0.00 631.00 2192.00" xmlns="http://www.w3.org/2000/svg" xmlns:xlink="http://www.w3.org/1999/xlink">
<g id="graph0" class="graph" transform="scale(1 1) rotate(0) translate(4 2188)">
<title>oneDegreeRelationshipsDiagram</title>
<polygon fill="#ffffff" stroke="transparent" points="-4,4 -4,-2188 627,-2188 627,4 -4,4"/>
<text text-anchor="middle" x="71.5" y="-7.2" font-family="Helvetica,sans-Serif" font-size="11.00">Generated by SchemaSpy</text>
<!-- a_asset_acct -->
<g id="node1" class="node">
<title>a_asset_acct</title>
<g id="a_node1"><a xlink:href="../../tables/a_asset_acct.html" xlink:title="a_asset_acct" target="_top">
<polygon fill="#ffffff" stroke="transparent" points="381,-1616 381,-2180 615,-2180 615,-1616 381,-1616"/>
<polygon fill="#f5f5f5" stroke="transparent" points="381,-2158 381,-2180 615,-2180 615,-2158 381,-2158"/>
<polygon fill="none" stroke="black" points="381,-2158 381,-2180 615,-2180 615,-2158 381,-2158"/>
<text text-anchor="start" x="386" y="-2167.2" font-family="Helvetica,sans-Serif" font-weight="bold" font-size="11.00">a_asset_acct</text>
<text text-anchor="start" x="580" y="-2166.2" font-family="Helvetica,sans-Serif" font-size="11.00">[table]</text>
<polygon fill="none" stroke="black" points="381,-2136 381,-2158 615,-2158 615,-2136 381,-2136"/>
<image xlink:href="../../images/foreignKeys.png" width="11px" height="12px" preserveAspectRatio="xMinYMin meet" x="386" y="-2153"/>
<text text-anchor="start" x="401" y="-2144.2" font-family="Helvetica,sans-Serif" font-size="11.00">a_asset_id</text>
<polygon fill="none" stroke="black" points="381,-2114 381,-2136 615,-2136 615,-2114 381,-2114"/>
<image xlink:href="../../images/foreignKeys.png" width="11px" height="12px" preserveAspectRatio="xMinYMin meet" x="386" y="-2131"/>
<text text-anchor="start" x="401" y="-2122.2" font-family="Helvetica,sans-Serif" font-size="11.00">c_acctschema_id</text>
<polygon fill="none" stroke="black" points="381,-2092 381,-2114 615,-2114 615,-2092 381,-2092"/>
<image xlink:href="../../images/foreignKeys.png" width="11px" height="12px" preserveAspectRatio="xMinYMin meet" x="386" y="-2109"/>
<text text-anchor="start" x="401" y="-2100.2" font-family="Helvetica,sans-Serif" font-size="11.00">a_depreciation_id</text>
<polygon fill="none" stroke="black" points="381,-2070 381,-2092 615,-2092 615,-2070 381,-2070"/>
<image xlink:href="../../images/foreignKeys.png" width="11px" height="12px" preserveAspectRatio="xMinYMin meet" x="386" y="-2087"/>
<text text-anchor="start" x="401" y="-2078.2" font-family="Helvetica,sans-Serif" font-size="11.00">a_depreciation_acct</text>
<polygon fill="none" stroke="black" points="381,-2048 381,-2070 615,-2070 615,-2048 381,-2048"/>
<image xlink:href="../../images/foreignKeys.png" width="11px" height="12px" preserveAspectRatio="xMinYMin meet" x="386" y="-2065"/>
<text text-anchor="start" x="401" y="-2056.2" font-family="Helvetica,sans-Serif" font-size="11.00">a_accumdepreciation_acct</text>
<polygon fill="none" stroke="black" points="381,-2026 381,-2048 615,-2048 615,-2026 381,-2026"/>
<image xlink:href="../../images/foreignKeys.png" width="11px" height="12px" preserveAspectRatio="xMinYMin meet" x="386" y="-2043"/>
<text text-anchor="start" x="401" y="-2034.2" font-family="Helvetica,sans-Serif" font-size="11.00">a_asset_acct</text>
<polygon fill="none" stroke="black" points="381,-2004 381,-2026 615,-2026 615,-2004 381,-2004"/>
<image xlink:href="../../images/primaryKeys.png" width="11px" height="12px" preserveAspectRatio="xMinYMin meet" x="386" y="-2021"/>
<text text-anchor="start" x="401" y="-2012.2" font-family="Helvetica,sans-Serif" font-size="11.00">a_asset_acct_id</text>
<polygon fill="none" stroke="black" points="381,-1982 381,-2004 615,-2004 615,-1982 381,-1982"/>
<image xlink:href="../../images/foreignKeys.png" width="11px" height="12px" preserveAspectRatio="xMinYMin meet" x="386" y="-1999"/>
<text text-anchor="start" x="401" y="-1990.2" font-family="Helvetica,sans-Serif" font-size="11.00">a_depreciation_table_header_id</text>
<polygon fill="none" stroke="black" points="381,-1960 381,-1982 615,-1982 615,-1960 381,-1960"/>
<image xlink:href="../../images/foreignKeys.png" width="11px" height="12px" preserveAspectRatio="xMinYMin meet" x="386" y="-1977"/>
<text text-anchor="start" x="401" y="-1968.2" font-family="Helvetica,sans-Serif" font-size="11.00">a_depreciation_method_id</text>
<polygon fill="none" stroke="black" points="381,-1938 381,-1960 615,-1960 615,-1938 381,-1938"/>
<image xlink:href="../../images/foreignKeys.png" width="11px" height="12px" preserveAspectRatio="xMinYMin meet" x="386" y="-1955"/>
<text text-anchor="start" x="401" y="-1946.2" font-family="Helvetica,sans-Serif" font-size="11.00">a_depreciation_conv_id</text>
<polygon fill="none" stroke="black" points="381,-1916 381,-1938 615,-1938 615,-1916 381,-1916"/>
<image xlink:href="../../images/foreignKeys.png" width="11px" height="12px" preserveAspectRatio="xMinYMin meet" x="386" y="-1933"/>
<text text-anchor="start" x="401" y="-1924.2" font-family="Helvetica,sans-Serif" font-size="11.00">a_asset_spread_id</text>
<polygon fill="none" stroke="black" points="381,-1894 381,-1916 615,-1916 615,-1894 381,-1894"/>
<image xlink:href="../../images/foreignKeys.png" width="11px" height="12px" preserveAspectRatio="xMinYMin meet" x="386" y="-1911"/>
<text text-anchor="start" x="401" y="-1902.2" font-family="Helvetica,sans-Serif" font-size="11.00">a_disposal_gain_acct</text>
<polygon fill="none" stroke="black" points="381,-1872 381,-1894 615,-1894 615,-1872 381,-1872"/>
<image xlink:href="../../images/foreignKeys.png" width="11px" height="12px" preserveAspectRatio="xMinYMin meet" x="386" y="-1889"/>
<text text-anchor="start" x="401" y="-1880.2" font-family="Helvetica,sans-Serif" font-size="11.00">a_reval_cost_offset_prior_acct</text>
<polygon fill="none" stroke="black" points="381,-1850 381,-1872 615,-1872 615,-1850 381,-1850"/>
<image xlink:href="../../images/foreignKeys.png" width="11px" height="12px" preserveAspectRatio="xMinYMin meet" x="386" y="-1867"/>
<text text-anchor="start" x="401" y="-1858.2" font-family="Helvetica,sans-Serif" font-size="11.00">a_reval_cost_offset_acct</text>
<polygon fill="none" stroke="black" points="381,-1828 381,-1850 615,-1850 615,-1828 381,-1828"/>
<image xlink:href="../../images/foreignKeys.png" width="11px" height="12px" preserveAspectRatio="xMinYMin meet" x="386" y="-1845"/>
<text text-anchor="start" x="401" y="-1836.2" font-family="Helvetica,sans-Serif" font-size="11.00">a_reval_adep_offset_prior_acct</text>
<polygon fill="none" stroke="black" points="381,-1806 381,-1828 615,-1828 615,-1806 381,-1806"/>
<image xlink:href="../../images/foreignKeys.png" width="11px" height="12px" preserveAspectRatio="xMinYMin meet" x="386" y="-1823"/>
<text text-anchor="start" x="401" y="-1814.2" font-family="Helvetica,sans-Serif" font-size="11.00">a_reval_adep_offset_cur_acct</text>
<polygon fill="none" stroke="black" points="381,-1784 381,-1806 615,-1806 615,-1784 381,-1784"/>
<image xlink:href="../../images/foreignKeys.png" width="11px" height="12px" preserveAspectRatio="xMinYMin meet" x="386" y="-1801"/>
<text text-anchor="start" x="401" y="-1792.2" font-family="Helvetica,sans-Serif" font-size="11.00">a_disposal_revenue_acct</text>
<polygon fill="none" stroke="black" points="381,-1762 381,-1784 615,-1784 615,-1762 381,-1762"/>
<image xlink:href="../../images/foreignKeys.png" width="11px" height="12px" preserveAspectRatio="xMinYMin meet" x="386" y="-1779"/>
<text text-anchor="start" x="401" y="-1770.2" font-family="Helvetica,sans-Serif" font-size="11.00">a_disposal_loss_acct</text>
<polygon fill="none" stroke="black" points="381,-1740 381,-1762 615,-1762 615,-1740 381,-1740"/>
<image xlink:href="../../images/foreignKeys.png" width="11px" height="12px" preserveAspectRatio="xMinYMin meet" x="386" y="-1757"/>
<text text-anchor="start" x="401" y="-1748.2" font-family="Helvetica,sans-Serif" font-size="11.00">a_reval_depexp_offset_acct</text>
<polygon fill="none" stroke="black" points="381,-1718 381,-1740 615,-1740 615,-1718 381,-1718"/>
<image xlink:href="../../images/foreignKeys.png" width="11px" height="12px" preserveAspectRatio="xMinYMin meet" x="386" y="-1735"/>
<text text-anchor="start" x="401" y="-1726.2" font-family="Helvetica,sans-Serif" font-size="11.00">a_depreciation_method_f_id</text>
<polygon fill="none" stroke="black" points="381,-1696 381,-1718 615,-1718 615,-1696 381,-1696"/>
<image xlink:href="../../images/foreignKeys.png" width="11px" height="12px" preserveAspectRatio="xMinYMin meet" x="386" y="-1713"/>
<text text-anchor="start" x="401" y="-1704.2" font-family="Helvetica,sans-Serif" font-size="11.00">a_depreciation_f_id</text>
<polygon fill="none" stroke="black" points="381,-1674 381,-1696 615,-1696 615,-1674 381,-1674"/>
<image xlink:href="../../images/foreignKeys.png" width="11px" height="12px" preserveAspectRatio="xMinYMin meet" x="386" y="-1691"/>
<text text-anchor="start" x="401" y="-1682.2" font-family="Helvetica,sans-Serif" font-size="11.00">a_depreciation_conv_f_id</text>
<polygon fill="#ffffff" stroke="transparent" points="381,-1652 381,-1674 615,-1674 615,-1652 381,-1652"/>
<polygon fill="none" stroke="black" points="381,-1652 381,-1674 615,-1674 615,-1652 381,-1652"/>
<text text-anchor="start" x="401" y="-1660.2" font-family="Helvetica,sans-Serif" font-size="11.00">a_asset_acct_uu</text>
<polygon fill="none" stroke="black" points="381,-1634 381,-1652 615,-1652 615,-1634 381,-1634"/>
<text text-anchor="start" x="384" y="-1640.2" font-family="Helvetica,sans-Serif" font-size="11.00">...</text>
<polygon fill="#ffffff" stroke="transparent" points="381,-1616 381,-1634 486,-1634 486,-1616 381,-1616"/>
<polygon fill="none" stroke="black" points="381,-1616 381,-1634 486,-1634 486,-1616 381,-1616"/>
<text text-anchor="start" x="384" y="-1622.2" font-family="Helvetica,sans-Serif" font-size="11.00">&lt; 21</text>
<polygon fill="#ffffff" stroke="transparent" points="486,-1616 486,-1634 563,-1634 563,-1616 486,-1616"/>
<polygon fill="none" stroke="black" points="486,-1616 486,-1634 563,-1634 563,-1616 486,-1616"/>
<text text-anchor="start" x="527" y="-1622.2" font-family="Helvetica,sans-Serif" font-size="11.00">0 rows</text>
<polygon fill="#ffffff" stroke="transparent" points="563,-1616 563,-1634 615,-1634 615,-1616 563,-1616"/>
<polygon fill="none" stroke="black" points="563,-1616 563,-1634 615,-1634 615,-1616 563,-1616"/>
<text text-anchor="start" x="605" y="-1622.2" font-family="Helvetica,sans-Serif" font-size="11.00"> &#160;</text>
</a>
</g>
</g>
<!-- a_depreciation_table_header -->
<g id="node2" class="node">
<title>a_depreciation_table_header</title>
<g id="a_node2"><a xlink:href="../../tables/a_depreciation_table_header.html" xlink:title="a_depreciation_table_header" target="_top">
<polygon fill="#ffffff" stroke="transparent" points="8,-798 8,-1150 332,-1150 332,-798 8,-798"/>
<polygon fill="#f5f5f5" stroke="transparent" points="10,-1126 10,-1148 330,-1148 330,-1126 10,-1126"/>
<polygon fill="none" stroke="black" points="10,-1126 10,-1148 330,-1148 330,-1126 10,-1126"/>
<text text-anchor="start" x="15" y="-1135.2" font-family="Helvetica,sans-Serif" font-weight="bold" font-size="11.00">a_depreciation_table_header</text>
<text text-anchor="start" x="295" y="-1134.2" font-family="Helvetica,sans-Serif" font-size="11.00">[table]</text>
<polygon fill="none" stroke="black" points="10,-1104 10,-1126 247,-1126 247,-1104 10,-1104"/>
<image xlink:href="../../images/primaryKeys.png" width="11px" height="12px" preserveAspectRatio="xMinYMin meet" x="15" y="-1121"/>
<text text-anchor="start" x="30" y="-1112.2" font-family="Helvetica,sans-Serif" font-size="11.00">a_depreciation_table_header_id</text>
<polygon fill="none" stroke="black" points="247,-1104 247,-1126 330,-1126 330,-1104 247,-1104"/>
<text text-anchor="start" x="250" y="-1112.2" font-family="Helvetica,sans-Serif" font-size="11.00">numeric[10]</text>
<polygon fill="none" stroke="black" points="10,-1082 10,-1104 247,-1104 247,-1082 10,-1082"/>
<text text-anchor="start" x="30" y="-1090.2" font-family="Helvetica,sans-Serif" font-size="11.00">ad_client_id</text>
<polygon fill="none" stroke="black" points="247,-1082 247,-1104 330,-1104 330,-1082 247,-1082"/>
<text text-anchor="start" x="250" y="-1090.2" font-family="Helvetica,sans-Serif" font-size="11.00">numeric[10]</text>
<polygon fill="none" stroke="black" points="10,-1060 10,-1082 247,-1082 247,-1060 10,-1060"/>
<text text-anchor="start" x="30" y="-1068.2" font-family="Helvetica,sans-Serif" font-size="11.00">ad_org_id</text>
<polygon fill="none" stroke="black" points="247,-1060 247,-1082 330,-1082 330,-1060 247,-1060"/>
<text text-anchor="start" x="250" y="-1068.2" font-family="Helvetica,sans-Serif" font-size="11.00">numeric[10]</text>
<polygon fill="none" stroke="black" points="10,-1038 10,-1060 247,-1060 247,-1038 10,-1038"/>
<text text-anchor="start" x="30" y="-1046.2" font-family="Helvetica,sans-Serif" font-size="11.00">a_term</text>
<polygon fill="none" stroke="black" points="247,-1038 247,-1060 330,-1060 330,-1038 247,-1038"/>
<text text-anchor="start" x="250" y="-1046.2" font-family="Helvetica,sans-Serif" font-size="11.00">varchar[2]</text>
<polygon fill="none" stroke="black" points="10,-1016 10,-1038 247,-1038 247,-1016 10,-1016"/>
<text text-anchor="start" x="30" y="-1024.2" font-family="Helvetica,sans-Serif" font-size="11.00">createdby</text>
<polygon fill="none" stroke="black" points="247,-1016 247,-1038 330,-1038 330,-1016 247,-1016"/>
<text text-anchor="start" x="250" y="-1024.2" font-family="Helvetica,sans-Serif" font-size="11.00">numeric[10]</text>
<polygon fill="none" stroke="black" points="10,-994 10,-1016 247,-1016 247,-994 10,-994"/>
<text text-anchor="start" x="30" y="-1002.2" font-family="Helvetica,sans-Serif" font-size="11.00">isactive</text>
<polygon fill="none" stroke="black" points="247,-994 247,-1016 330,-1016 330,-994 247,-994"/>
<text text-anchor="start" x="250" y="-1002.2" font-family="Helvetica,sans-Serif" font-size="11.00">bpchar[1]</text>
<polygon fill="none" stroke="black" points="10,-972 10,-994 247,-994 247,-972 10,-972"/>
<text text-anchor="start" x="30" y="-980.2" font-family="Helvetica,sans-Serif" font-size="11.00">updated</text>
<polygon fill="none" stroke="black" points="247,-972 247,-994 330,-994 330,-972 247,-972"/>
<text text-anchor="start" x="250" y="-980.2" font-family="Helvetica,sans-Serif" font-size="11.00">timestamp[29,6]</text>
<polygon fill="none" stroke="black" points="10,-950 10,-972 247,-972 247,-950 10,-950"/>
<text text-anchor="start" x="30" y="-958.2" font-family="Helvetica,sans-Serif" font-size="11.00">updatedby</text>
<polygon fill="none" stroke="black" points="247,-950 247,-972 330,-972 330,-950 247,-950"/>
<text text-anchor="start" x="250" y="-958.2" font-family="Helvetica,sans-Serif" font-size="11.00">numeric[10]</text>
<polygon fill="none" stroke="black" points="10,-928 10,-950 247,-950 247,-928 10,-928"/>
<text text-anchor="start" x="30" y="-936.2" font-family="Helvetica,sans-Serif" font-size="11.00">processed</text>
<polygon fill="none" stroke="black" points="247,-928 247,-950 330,-950 330,-928 247,-928"/>
<text text-anchor="start" x="250" y="-936.2" font-family="Helvetica,sans-Serif" font-size="11.00">bpchar[1]</text>
<polygon fill="none" stroke="black" points="10,-906 10,-928 247,-928 247,-906 10,-906"/>
<text text-anchor="start" x="30" y="-914.2" font-family="Helvetica,sans-Serif" font-size="11.00">description</text>
<polygon fill="none" stroke="black" points="247,-906 247,-928 330,-928 330,-906 247,-906"/>
<text text-anchor="start" x="250" y="-914.2" font-family="Helvetica,sans-Serif" font-size="11.00">varchar[510]</text>
<polygon fill="none" stroke="black" points="10,-884 10,-906 247,-906 247,-884 10,-884"/>
<text text-anchor="start" x="30" y="-892.2" font-family="Helvetica,sans-Serif" font-size="11.00">created</text>
<polygon fill="none" stroke="black" points="247,-884 247,-906 330,-906 330,-884 247,-884"/>
<text text-anchor="start" x="250" y="-892.2" font-family="Helvetica,sans-Serif" font-size="11.00">timestamp[29,6]</text>
<polygon fill="none" stroke="black" points="10,-862 10,-884 247,-884 247,-862 10,-862"/>
<text text-anchor="start" x="30" y="-870.2" font-family="Helvetica,sans-Serif" font-size="11.00">a_table_rate_type</text>
<polygon fill="none" stroke="black" points="247,-862 247,-884 330,-884 330,-862 247,-862"/>
<text text-anchor="start" x="250" y="-870.2" font-family="Helvetica,sans-Serif" font-size="11.00">varchar[2]</text>
<polygon fill="none" stroke="black" points="10,-840 10,-862 247,-862 247,-840 10,-840"/>
<text text-anchor="start" x="30" y="-848.2" font-family="Helvetica,sans-Serif" font-size="11.00">a_depreciation_table_code</text>
<polygon fill="none" stroke="black" points="247,-840 247,-862 330,-862 330,-840 247,-840"/>
<text text-anchor="start" x="250" y="-848.2" font-family="Helvetica,sans-Serif" font-size="11.00">varchar[20]</text>
<polygon fill="#ffffff" stroke="transparent" points="10,-818 10,-840 247,-840 247,-818 10,-818"/>
<polygon fill="none" stroke="black" points="10,-818 10,-840 247,-840 247,-818 10,-818"/>
<text text-anchor="start" x="30" y="-826.2" font-family="Helvetica,sans-Serif" font-size="11.00">a_depreciation_table_header_uu</text>
<polygon fill="none" stroke="black" points="247,-818 247,-840 330,-840 330,-818 247,-818"/>
<text text-anchor="start" x="250" y="-826.2" font-family="Helvetica,sans-Serif" font-size="11.00">varchar[36]</text>
<polygon fill="#ffffff" stroke="transparent" points="10,-800 10,-818 120,-818 120,-800 10,-800"/>
<polygon fill="none" stroke="black" points="10,-800 10,-818 120,-818 120,-800 10,-800"/>
<text text-anchor="start" x="13" y="-806.2" font-family="Helvetica,sans-Serif" font-size="11.00">&lt; 0</text>
<polygon fill="#ffffff" stroke="transparent" points="120,-800 120,-818 247,-818 247,-800 120,-800"/>
<polygon fill="none" stroke="black" points="120,-800 120,-818 247,-818 247,-800 120,-800"/>
<text text-anchor="start" x="211" y="-806.2" font-family="Helvetica,sans-Serif" font-size="11.00">0 rows</text>
<polygon fill="#ffffff" stroke="transparent" points="247,-800 247,-818 330,-818 330,-800 247,-800"/>
<polygon fill="none" stroke="black" points="247,-800 247,-818 330,-818 330,-800 247,-800"/>
<text text-anchor="start" x="311" y="-806.2" font-family="Helvetica,sans-Serif" font-size="11.00">4 &gt;</text>
<polygon fill="none" stroke="black" stroke-width="2" points="9,-799 9,-1149 331,-1149 331,-799 9,-799"/>
</a>
</g>
</g>
<!-- a_asset_acct&#45;&gt;a_depreciation_table_header -->
<g id="edge1" class="edge">
<title>a_asset_acct:w&#45;&gt;a_depreciation_table_header:e</title>
<path fill="none" stroke="black" d="M366.94,-1986.44C296.53,-1906.09 423.75,-1115 331,-1115"/>
<polygon fill="black" stroke="black" points="372.85,-1989.41 378.38,-1996.22 376.43,-1991.2 380,-1993 380,-1993 380,-1993 376.43,-1991.2 381.62,-1989.78 372.85,-1989.41 372.85,-1989.41"/>
<ellipse fill="none" stroke="black" cx="369.99" cy="-1987.97" rx="3.2" ry="3.2"/>
</g>
<!-- a_asset_change -->
<g id="node3" class="node">
<title>a_asset_change</title>
<g id="a_node3"><a xlink:href="../../tables/a_asset_change.html" xlink:title="a_asset_change" target="_top">
<polygon fill="#ffffff" stroke="transparent" points="381,-1009 381,-1595 615,-1595 615,-1009 381,-1009"/>
<polygon fill="#f5f5f5" stroke="transparent" points="381,-1573 381,-1595 615,-1595 615,-1573 381,-1573"/>
<polygon fill="none" stroke="black" points="381,-1573 381,-1595 615,-1595 615,-1573 381,-1573"/>
<text text-anchor="start" x="386" y="-1582.2" font-family="Helvetica,sans-Serif" font-weight="bold" font-size="11.00">a_asset_change</text>
<text text-anchor="start" x="580" y="-1581.2" font-family="Helvetica,sans-Serif" font-size="11.00">[table]</text>
<polygon fill="none" stroke="black" points="381,-1551 381,-1573 615,-1573 615,-1551 381,-1551"/>
<image xlink:href="../../images/primaryKeys.png" width="11px" height="12px" preserveAspectRatio="xMinYMin meet" x="386" y="-1568"/>
<text text-anchor="start" x="401" y="-1559.2" font-family="Helvetica,sans-Serif" font-size="11.00">a_asset_change_id</text>
<polygon fill="none" stroke="black" points="381,-1529 381,-1551 615,-1551 615,-1529 381,-1529"/>
<image xlink:href="../../images/foreignKeys.png" width="11px" height="12px" preserveAspectRatio="xMinYMin meet" x="386" y="-1546"/>
<text text-anchor="start" x="401" y="-1537.2" font-family="Helvetica,sans-Serif" font-size="11.00">a_asset_id</text>
<polygon fill="none" stroke="black" points="381,-1507 381,-1529 615,-1529 615,-1507 381,-1507"/>
<image xlink:href="../../images/foreignKeys.png" width="11px" height="12px" preserveAspectRatio="xMinYMin meet" x="386" y="-1524"/>
<text text-anchor="start" x="401" y="-1515.2" font-family="Helvetica,sans-Serif" font-size="11.00">a_asset_retirement_id</text>
<polygon fill="none" stroke="black" points="381,-1485 381,-1507 615,-1507 615,-1485 381,-1485"/>
<image xlink:href="../../images/foreignKeys.png" width="11px" height="12px" preserveAspectRatio="xMinYMin meet" x="386" y="-1502"/>
<text text-anchor="start" x="401" y="-1493.2" font-family="Helvetica,sans-Serif" font-size="11.00">a_asset_addition_id</text>
<polygon fill="none" stroke="black" points="381,-1463 381,-1485 615,-1485 615,-1463 381,-1463"/>
<image xlink:href="../../images/foreignKeys.png" width="11px" height="12px" preserveAspectRatio="xMinYMin meet" x="386" y="-1480"/>
<text text-anchor="start" x="401" y="-1471.2" font-family="Helvetica,sans-Serif" font-size="11.00">a_accumdepreciation_acct</text>
<polygon fill="none" stroke="black" points="381,-1441 381,-1463 615,-1463 615,-1441 381,-1441"/>
<image xlink:href="../../images/foreignKeys.png" width="11px" height="12px" preserveAspectRatio="xMinYMin meet" x="386" y="-1458"/>
<text text-anchor="start" x="401" y="-1449.2" font-family="Helvetica,sans-Serif" font-size="11.00">a_parent_asset_id</text>
<polygon fill="none" stroke="black" points="381,-1419 381,-1441 615,-1441 615,-1419 381,-1419"/>
<image xlink:href="../../images/foreignKeys.png" width="11px" height="12px" preserveAspectRatio="xMinYMin meet" x="386" y="-1436"/>
<text text-anchor="start" x="401" y="-1427.2" font-family="Helvetica,sans-Serif" font-size="11.00">a_depreciation_table_header_id</text>
<polygon fill="none" stroke="black" points="381,-1397 381,-1419 615,-1419 615,-1397 381,-1397"/>
<image xlink:href="../../images/foreignKeys.png" width="11px" height="12px" preserveAspectRatio="xMinYMin meet" x="386" y="-1414"/>
<text text-anchor="start" x="401" y="-1405.2" font-family="Helvetica,sans-Serif" font-size="11.00">c_acctschema_id</text>
<polygon fill="none" stroke="black" points="381,-1375 381,-1397 615,-1397 615,-1375 381,-1375"/>
<image xlink:href="../../images/foreignKeys.png" width="11px" height="12px" preserveAspectRatio="xMinYMin meet" x="386" y="-1392"/>
<text text-anchor="start" x="401" y="-1383.2" font-family="Helvetica,sans-Serif" font-size="11.00">ad_user_id</text>
<polygon fill="none" stroke="black" points="381,-1353 381,-1375 615,-1375 615,-1353 381,-1353"/>
<image xlink:href="../../images/foreignKeys.png" width="11px" height="12px" preserveAspectRatio="xMinYMin meet" x="386" y="-1370"/>
<text text-anchor="start" x="401" y="-1361.2" font-family="Helvetica,sans-Serif" font-size="11.00">c_validcombination_id</text>
<polygon fill="none" stroke="black" points="381,-1331 381,-1353 615,-1353 615,-1331 381,-1331"/>
<image xlink:href="../../images/foreignKeys.png" width="11px" height="12px" preserveAspectRatio="xMinYMin meet" x="386" y="-1348"/>
<text text-anchor="start" x="401" y="-1339.2" font-family="Helvetica,sans-Serif" font-size="11.00">c_location_id</text>
<polygon fill="none" stroke="black" points="381,-1309 381,-1331 615,-1331 615,-1309 381,-1309"/>
<image xlink:href="../../images/foreignKeys.png" width="11px" height="12px" preserveAspectRatio="xMinYMin meet" x="386" y="-1326"/>
<text text-anchor="start" x="401" y="-1317.2" font-family="Helvetica,sans-Serif" font-size="11.00">c_bpartner_location_id</text>
<polygon fill="none" stroke="black" points="381,-1287 381,-1309 615,-1309 615,-1287 381,-1287"/>
<image xlink:href="../../images/foreignKeys.png" width="11px" height="12px" preserveAspectRatio="xMinYMin meet" x="386" y="-1304"/>
<text text-anchor="start" x="401" y="-1295.2" font-family="Helvetica,sans-Serif" font-size="11.00">c_bpartner_id</text>
<polygon fill="none" stroke="black" points="381,-1265 381,-1287 615,-1287 615,-1265 381,-1265"/>
<image xlink:href="../../images/foreignKeys.png" width="11px" height="12px" preserveAspectRatio="xMinYMin meet" x="386" y="-1282"/>
<text text-anchor="start" x="401" y="-1273.2" font-family="Helvetica,sans-Serif" font-size="11.00">a_depreciation_acct</text>
<polygon fill="none" stroke="black" points="381,-1243 381,-1265 615,-1265 615,-1243 381,-1243"/>
<image xlink:href="../../images/foreignKeys.png" width="11px" height="12px" preserveAspectRatio="xMinYMin meet" x="386" y="-1260"/>
<text text-anchor="start" x="401" y="-1251.2" font-family="Helvetica,sans-Serif" font-size="11.00">a_asset_acct</text>
<polygon fill="none" stroke="black" points="381,-1221 381,-1243 615,-1243 615,-1221 381,-1221"/>
<image xlink:href="../../images/foreignKeys.png" width="11px" height="12px" preserveAspectRatio="xMinYMin meet" x="386" y="-1238"/>
<text text-anchor="start" x="401" y="-1229.2" font-family="Helvetica,sans-Serif" font-size="11.00">a_asset_acct_id</text>
<polygon fill="#ffffff" stroke="transparent" points="381,-1199 381,-1221 615,-1221 615,-1199 381,-1199"/>
<polygon fill="none" stroke="black" points="381,-1199 381,-1221 615,-1221 615,-1199 381,-1199"/>
<text text-anchor="start" x="401" y="-1207.2" font-family="Helvetica,sans-Serif" font-size="11.00">a_asset_change_uu</text>
<polygon fill="none" stroke="black" points="381,-1177 381,-1199 615,-1199 615,-1177 381,-1177"/>
<image xlink:href="../../images/foreignKeys.png" width="11px" height="12px" preserveAspectRatio="xMinYMin meet" x="386" y="-1194"/>
<text text-anchor="start" x="401" y="-1185.2" font-family="Helvetica,sans-Serif" font-size="11.00">a_disposal_revenue_acct</text>
<polygon fill="none" stroke="black" points="381,-1155 381,-1177 615,-1177 615,-1155 381,-1155"/>
<image xlink:href="../../images/foreignKeys.png" width="11px" height="12px" preserveAspectRatio="xMinYMin meet" x="386" y="-1172"/>
<text text-anchor="start" x="401" y="-1163.2" font-family="Helvetica,sans-Serif" font-size="11.00">a_disposal_loss_acct</text>
<polygon fill="none" stroke="black" points="381,-1133 381,-1155 615,-1155 615,-1133 381,-1133"/>
<image xlink:href="../../images/foreignKeys.png" width="11px" height="12px" preserveAspectRatio="xMinYMin meet" x="386" y="-1150"/>
<text text-anchor="start" x="401" y="-1141.2" font-family="Helvetica,sans-Serif" font-size="11.00">c_invoice_id</text>
<polygon fill="none" stroke="black" points="381,-1111 381,-1133 615,-1133 615,-1111 381,-1111"/>
<image xlink:href="../../images/foreignKeys.png" width="11px" height="12px" preserveAspectRatio="xMinYMin meet" x="386" y="-1128"/>
<text text-anchor="start" x="401" y="-1119.2" font-family="Helvetica,sans-Serif" font-size="11.00">c_invoice_c_bpartner_id</text>
<polygon fill="none" stroke="black" points="381,-1089 381,-1111 615,-1111 615,-1089 381,-1089"/>
<image xlink:href="../../images/foreignKeys.png" width="11px" height="12px" preserveAspectRatio="xMinYMin meet" x="386" y="-1106"/>
<text text-anchor="start" x="401" y="-1097.2" font-family="Helvetica,sans-Serif" font-size="11.00">c_invoice_ad_user_id</text>
<polygon fill="none" stroke="black" points="381,-1067 381,-1089 615,-1089 615,-1067 381,-1067"/>
<image xlink:href="../../images/foreignKeys.png" width="11px" height="12px" preserveAspectRatio="xMinYMin meet" x="386" y="-1084"/>
<text text-anchor="start" x="401" y="-1075.2" font-family="Helvetica,sans-Serif" font-size="11.00">c_invoice_c_doctypetarget_id</text>
<polygon fill="none" stroke="black" points="381,-1045 381,-1067 615,-1067 615,-1045 381,-1045"/>
<image xlink:href="../../images/foreignKeys.png" width="11px" height="12px" preserveAspectRatio="xMinYMin meet" x="386" y="-1062"/>
<text text-anchor="start" x="401" y="-1053.2" font-family="Helvetica,sans-Serif" font-size="11.00">c_invoice_c_bpartnerloc_id</text>
<polygon fill="none" stroke="black" points="381,-1027 381,-1045 615,-1045 615,-1027 381,-1027"/>
<text text-anchor="start" x="384" y="-1033.2" font-family="Helvetica,sans-Serif" font-size="11.00">...</text>
<polygon fill="#ffffff" stroke="transparent" points="381,-1009 381,-1027 481,-1027 481,-1009 381,-1009"/>
<polygon fill="none" stroke="black" points="381,-1009 381,-1027 481,-1027 481,-1009 381,-1009"/>
<text text-anchor="start" x="384" y="-1015.2" font-family="Helvetica,sans-Serif" font-size="11.00">&lt; 21</text>
<polygon fill="#ffffff" stroke="transparent" points="481,-1009 481,-1027 556,-1027 556,-1009 481,-1009"/>
<polygon fill="none" stroke="black" points="481,-1009 481,-1027 556,-1027 556,-1009 481,-1009"/>
<text text-anchor="start" x="520" y="-1015.2" font-family="Helvetica,sans-Serif" font-size="11.00">0 rows</text>
<polygon fill="#ffffff" stroke="transparent" points="556,-1009 556,-1027 615,-1027 615,-1009 556,-1009"/>
<polygon fill="none" stroke="black" points="556,-1009 556,-1027 615,-1027 615,-1009 556,-1009"/>
<text text-anchor="start" x="596" y="-1015.2" font-family="Helvetica,sans-Serif" font-size="11.00">1 &gt;</text>
</a>
</g>
</g>
<!-- a_asset_change&#45;&gt;a_depreciation_table_header -->
<g id="edge2" class="edge">
<title>a_asset_change:w&#45;&gt;a_depreciation_table_header:e</title>
<path fill="none" stroke="black" d="M365.41,-1428.66C255.62,-1406.46 467.29,-1115 331,-1115"/>
<polygon fill="black" stroke="black" points="372.03,-1429.27 379.67,-1433.59 376.02,-1429.64 380,-1430 380,-1430 380,-1430 376.02,-1429.64 380.33,-1426.41 372.03,-1429.27 372.03,-1429.27"/>
<ellipse fill="none" stroke="black" cx="368.85" cy="-1428.98" rx="3.2" ry="3.2"/>
</g>
<!-- a_asset_group_acct -->
<g id="node4" class="node">
<title>a_asset_group_acct</title>
<g id="a_node4"><a xlink:href="../../tables/a_asset_group_acct.html" xlink:title="a_asset_group_acct" target="_top">
<polygon fill="#ffffff" stroke="transparent" points="381,-446 381,-988 615,-988 615,-446 381,-446"/>
<polygon fill="#f5f5f5" stroke="transparent" points="381,-966 381,-988 615,-988 615,-966 381,-966"/>
<polygon fill="none" stroke="black" points="381,-966 381,-988 615,-988 615,-966 381,-966"/>
<text text-anchor="start" x="386" y="-975.2" font-family="Helvetica,sans-Serif" font-weight="bold" font-size="11.00">a_asset_group_acct</text>
<text text-anchor="start" x="580" y="-974.2" font-family="Helvetica,sans-Serif" font-size="11.00">[table]</text>
<polygon fill="none" stroke="black" points="381,-944 381,-966 615,-966 615,-944 381,-944"/>
<image xlink:href="../../images/foreignKeys.png" width="11px" height="12px" preserveAspectRatio="xMinYMin meet" x="386" y="-961"/>
<text text-anchor="start" x="401" y="-952.2" font-family="Helvetica,sans-Serif" font-size="11.00">a_asset_group_id</text>
<polygon fill="none" stroke="black" points="381,-922 381,-944 615,-944 615,-922 381,-922"/>
<image xlink:href="../../images/foreignKeys.png" width="11px" height="12px" preserveAspectRatio="xMinYMin meet" x="386" y="-939"/>
<text text-anchor="start" x="401" y="-930.2" font-family="Helvetica,sans-Serif" font-size="11.00">c_acctschema_id</text>
<polygon fill="none" stroke="black" points="381,-900 381,-922 615,-922 615,-900 381,-900"/>
<image xlink:href="../../images/foreignKeys.png" width="11px" height="12px" preserveAspectRatio="xMinYMin meet" x="386" y="-917"/>
<text text-anchor="start" x="401" y="-908.2" font-family="Helvetica,sans-Serif" font-size="11.00">a_asset_acct</text>
<polygon fill="none" stroke="black" points="381,-878 381,-900 615,-900 615,-878 381,-878"/>
<image xlink:href="../../images/foreignKeys.png" width="11px" height="12px" preserveAspectRatio="xMinYMin meet" x="386" y="-895"/>
<text text-anchor="start" x="401" y="-886.2" font-family="Helvetica,sans-Serif" font-size="11.00">a_depreciation_acct</text>
<polygon fill="none" stroke="black" points="381,-856 381,-878 615,-878 615,-856 381,-856"/>
<image xlink:href="../../images/foreignKeys.png" width="11px" height="12px" preserveAspectRatio="xMinYMin meet" x="386" y="-873"/>
<text text-anchor="start" x="401" y="-864.2" font-family="Helvetica,sans-Serif" font-size="11.00">a_accumdepreciation_acct</text>
<polygon fill="none" stroke="black" points="381,-834 381,-856 615,-856 615,-834 381,-834"/>
<image xlink:href="../../images/foreignKeys.png" width="11px" height="12px" preserveAspectRatio="xMinYMin meet" x="386" y="-851"/>
<text text-anchor="start" x="401" y="-842.2" font-family="Helvetica,sans-Serif" font-size="11.00">a_depreciation_id</text>
<polygon fill="none" stroke="black" points="381,-812 381,-834 615,-834 615,-812 381,-812"/>
<image xlink:href="../../images/primaryKeys.png" width="11px" height="12px" preserveAspectRatio="xMinYMin meet" x="386" y="-829"/>
<text text-anchor="start" x="401" y="-820.2" font-family="Helvetica,sans-Serif" font-size="11.00">a_asset_group_acct_id</text>
<polygon fill="none" stroke="black" points="381,-790 381,-812 615,-812 615,-790 381,-790"/>
<image xlink:href="../../images/foreignKeys.png" width="11px" height="12px" preserveAspectRatio="xMinYMin meet" x="386" y="-807"/>
<text text-anchor="start" x="401" y="-798.2" font-family="Helvetica,sans-Serif" font-size="11.00">a_depreciation_table_header_id</text>
<polygon fill="none" stroke="black" points="381,-768 381,-790 615,-790 615,-768 381,-768"/>
<image xlink:href="../../images/foreignKeys.png" width="11px" height="12px" preserveAspectRatio="xMinYMin meet" x="386" y="-785"/>
<text text-anchor="start" x="401" y="-776.2" font-family="Helvetica,sans-Serif" font-size="11.00">a_reval_depexp_offset_acct</text>
<polygon fill="none" stroke="black" points="381,-746 381,-768 615,-768 615,-746 381,-746"/>
<image xlink:href="../../images/foreignKeys.png" width="11px" height="12px" preserveAspectRatio="xMinYMin meet" x="386" y="-763"/>
<text text-anchor="start" x="401" y="-754.2" font-family="Helvetica,sans-Serif" font-size="11.00">a_reval_cost_offset_prior_acct</text>
<polygon fill="none" stroke="black" points="381,-724 381,-746 615,-746 615,-724 381,-724"/>
<image xlink:href="../../images/foreignKeys.png" width="11px" height="12px" preserveAspectRatio="xMinYMin meet" x="386" y="-741"/>
<text text-anchor="start" x="401" y="-732.2" font-family="Helvetica,sans-Serif" font-size="11.00">a_reval_cost_offset_acct</text>
<polygon fill="none" stroke="black" points="381,-702 381,-724 615,-724 615,-702 381,-702"/>
<image xlink:href="../../images/foreignKeys.png" width="11px" height="12px" preserveAspectRatio="xMinYMin meet" x="386" y="-719"/>
<text text-anchor="start" x="401" y="-710.2" font-family="Helvetica,sans-Serif" font-size="11.00">a_reval_adep_offset_prior_acct</text>
<polygon fill="none" stroke="black" points="381,-680 381,-702 615,-702 615,-680 381,-680"/>
<image xlink:href="../../images/foreignKeys.png" width="11px" height="12px" preserveAspectRatio="xMinYMin meet" x="386" y="-697"/>
<text text-anchor="start" x="401" y="-688.2" font-family="Helvetica,sans-Serif" font-size="11.00">a_reval_adep_offset_cur_acct</text>
<polygon fill="none" stroke="black" points="381,-658 381,-680 615,-680 615,-658 381,-658"/>
<image xlink:href="../../images/foreignKeys.png" width="11px" height="12px" preserveAspectRatio="xMinYMin meet" x="386" y="-675"/>
<text text-anchor="start" x="401" y="-666.2" font-family="Helvetica,sans-Serif" font-size="11.00">a_disposal_gain_acct</text>
<polygon fill="none" stroke="black" points="381,-636 381,-658 615,-658 615,-636 381,-636"/>
<image xlink:href="../../images/foreignKeys.png" width="11px" height="12px" preserveAspectRatio="xMinYMin meet" x="386" y="-653"/>
<text text-anchor="start" x="401" y="-644.2" font-family="Helvetica,sans-Serif" font-size="11.00">a_depreciation_method_id</text>
<polygon fill="none" stroke="black" points="381,-614 381,-636 615,-636 615,-614 381,-614"/>
<image xlink:href="../../images/foreignKeys.png" width="11px" height="12px" preserveAspectRatio="xMinYMin meet" x="386" y="-631"/>
<text text-anchor="start" x="401" y="-622.2" font-family="Helvetica,sans-Serif" font-size="11.00">a_depreciation_conv_f_id</text>
<polygon fill="none" stroke="black" points="381,-592 381,-614 615,-614 615,-592 381,-592"/>
<image xlink:href="../../images/foreignKeys.png" width="11px" height="12px" preserveAspectRatio="xMinYMin meet" x="386" y="-609"/>
<text text-anchor="start" x="401" y="-600.2" font-family="Helvetica,sans-Serif" font-size="11.00">a_depreciation_conv_id</text>
<polygon fill="none" stroke="black" points="381,-570 381,-592 615,-592 615,-570 381,-570"/>
<image xlink:href="../../images/foreignKeys.png" width="11px" height="12px" preserveAspectRatio="xMinYMin meet" x="386" y="-587"/>
<text text-anchor="start" x="401" y="-578.2" font-family="Helvetica,sans-Serif" font-size="11.00">a_depreciation_method_f_id</text>
<polygon fill="none" stroke="black" points="381,-548 381,-570 615,-570 615,-548 381,-548"/>
<image xlink:href="../../images/foreignKeys.png" width="11px" height="12px" preserveAspectRatio="xMinYMin meet" x="386" y="-565"/>
<text text-anchor="start" x="401" y="-556.2" font-family="Helvetica,sans-Serif" font-size="11.00">a_depreciation_f_id</text>
<polygon fill="none" stroke="black" points="381,-526 381,-548 615,-548 615,-526 381,-526"/>
<image xlink:href="../../images/foreignKeys.png" width="11px" height="12px" preserveAspectRatio="xMinYMin meet" x="386" y="-543"/>
<text text-anchor="start" x="401" y="-534.2" font-family="Helvetica,sans-Serif" font-size="11.00">a_disposal_revenue_acct</text>
<polygon fill="none" stroke="black" points="381,-504 381,-526 615,-526 615,-504 381,-504"/>
<image xlink:href="../../images/foreignKeys.png" width="11px" height="12px" preserveAspectRatio="xMinYMin meet" x="386" y="-521"/>
<text text-anchor="start" x="401" y="-512.2" font-family="Helvetica,sans-Serif" font-size="11.00">a_disposal_loss_acct</text>
<polygon fill="#ffffff" stroke="transparent" points="381,-482 381,-504 615,-504 615,-482 381,-482"/>
<polygon fill="none" stroke="black" points="381,-482 381,-504 615,-504 615,-482 381,-482"/>
<text text-anchor="start" x="401" y="-490.2" font-family="Helvetica,sans-Serif" font-size="11.00">a_asset_group_acct_uu</text>
<polygon fill="none" stroke="black" points="381,-464 381,-482 615,-482 615,-464 381,-464"/>
<text text-anchor="start" x="384" y="-470.2" font-family="Helvetica,sans-Serif" font-size="11.00">...</text>
<polygon fill="#ffffff" stroke="transparent" points="381,-446 381,-464 486,-464 486,-446 381,-446"/>
<polygon fill="none" stroke="black" points="381,-446 381,-464 486,-464 486,-446 381,-446"/>
<text text-anchor="start" x="384" y="-452.2" font-family="Helvetica,sans-Serif" font-size="11.00">&lt; 20</text>
<polygon fill="#ffffff" stroke="transparent" points="486,-446 486,-464 563,-464 563,-446 486,-446"/>
<polygon fill="none" stroke="black" points="486,-446 486,-464 563,-464 563,-446 486,-446"/>
<text text-anchor="start" x="527" y="-452.2" font-family="Helvetica,sans-Serif" font-size="11.00">0 rows</text>
<polygon fill="#ffffff" stroke="transparent" points="563,-446 563,-464 615,-464 615,-446 563,-446"/>
<polygon fill="none" stroke="black" points="563,-446 563,-464 615,-464 615,-446 563,-446"/>
<text text-anchor="start" x="605" y="-452.2" font-family="Helvetica,sans-Serif" font-size="11.00"> &#160;</text>
</a>
</g>
</g>
<!-- a_asset_group_acct&#45;&gt;a_depreciation_table_header -->
<g id="edge3" class="edge">
<title>a_asset_group_acct:w&#45;&gt;a_depreciation_table_header:e</title>
<path fill="none" stroke="black" d="M366.55,-806.19C322.49,-847.01 396.24,-1115 331,-1115"/>
<polygon fill="black" stroke="black" points="372.54,-803.88 381.3,-804.36 376.27,-802.44 380,-801 380,-801 380,-801 376.27,-802.44 378.7,-797.64 372.54,-803.88 372.54,-803.88"/>
<ellipse fill="none" stroke="black" cx="369.55" cy="-805.03" rx="3.2" ry="3.2"/>
</g>
<!-- i_asset -->
<g id="node5" class="node">
<title>i_asset</title>
<g id="a_node5"><a xlink:href="../../tables/i_asset.html" xlink:title="i_asset" target="_top">
<polygon fill="#ffffff" stroke="transparent" points="381,-37 381,-425 615,-425 615,-37 381,-37"/>
<polygon fill="#f5f5f5" stroke="transparent" points="381,-403 381,-425 615,-425 615,-403 381,-403"/>
<polygon fill="none" stroke="black" points="381,-403 381,-425 615,-425 615,-403 381,-403"/>
<text text-anchor="start" x="386" y="-412.2" font-family="Helvetica,sans-Serif" font-weight="bold" font-size="11.00">i_asset</text>
<text text-anchor="start" x="580" y="-411.2" font-family="Helvetica,sans-Serif" font-size="11.00">[table]</text>
<polygon fill="none" stroke="black" points="381,-381 381,-403 615,-403 615,-381 381,-381"/>
<image xlink:href="../../images/primaryKeys.png" width="11px" height="12px" preserveAspectRatio="xMinYMin meet" x="386" y="-398"/>
<text text-anchor="start" x="401" y="-389.2" font-family="Helvetica,sans-Serif" font-size="11.00">i_asset_id</text>
<polygon fill="none" stroke="black" points="381,-359 381,-381 615,-381 615,-359 381,-359"/>
<image xlink:href="../../images/foreignKeys.png" width="11px" height="12px" preserveAspectRatio="xMinYMin meet" x="386" y="-376"/>
<text text-anchor="start" x="401" y="-367.2" font-family="Helvetica,sans-Serif" font-size="11.00">a_accumdepreciation_acct</text>
<polygon fill="none" stroke="black" points="381,-337 381,-359 615,-359 615,-337 381,-337"/>
<image xlink:href="../../images/foreignKeys.png" width="11px" height="12px" preserveAspectRatio="xMinYMin meet" x="386" y="-354"/>
<text text-anchor="start" x="401" y="-345.2" font-family="Helvetica,sans-Serif" font-size="11.00">a_asset_acct</text>
<polygon fill="none" stroke="black" points="381,-315 381,-337 615,-337 615,-315 381,-315"/>
<image xlink:href="../../images/foreignKeys.png" width="11px" height="12px" preserveAspectRatio="xMinYMin meet" x="386" y="-332"/>
<text text-anchor="start" x="401" y="-323.2" font-family="Helvetica,sans-Serif" font-size="11.00">a_asset_group_id</text>
<polygon fill="none" stroke="black" points="381,-293 381,-315 615,-315 615,-293 381,-293"/>
<image xlink:href="../../images/foreignKeys.png" width="11px" height="12px" preserveAspectRatio="xMinYMin meet" x="386" y="-310"/>
<text text-anchor="start" x="401" y="-301.2" font-family="Helvetica,sans-Serif" font-size="11.00">a_asset_id</text>
<polygon fill="none" stroke="black" points="381,-271 381,-293 615,-293 615,-271 381,-271"/>
<image xlink:href="../../images/foreignKeys.png" width="11px" height="12px" preserveAspectRatio="xMinYMin meet" x="386" y="-288"/>
<text text-anchor="start" x="401" y="-279.2" font-family="Helvetica,sans-Serif" font-size="11.00">a_depreciation_acct</text>
<polygon fill="none" stroke="black" points="381,-249 381,-271 615,-271 615,-249 381,-249"/>
<image xlink:href="../../images/foreignKeys.png" width="11px" height="12px" preserveAspectRatio="xMinYMin meet" x="386" y="-266"/>
<text text-anchor="start" x="401" y="-257.2" font-family="Helvetica,sans-Serif" font-size="11.00">a_depreciation_table_header_id</text>
<polygon fill="none" stroke="black" points="381,-227 381,-249 615,-249 615,-227 381,-227"/>
<image xlink:href="../../images/foreignKeys.png" width="11px" height="12px" preserveAspectRatio="xMinYMin meet" x="386" y="-244"/>
<text text-anchor="start" x="401" y="-235.2" font-family="Helvetica,sans-Serif" font-size="11.00">m_product_id</text>
<polygon fill="none" stroke="black" points="381,-205 381,-227 615,-227 615,-205 381,-205"/>
<image xlink:href="../../images/foreignKeys.png" width="11px" height="12px" preserveAspectRatio="xMinYMin meet" x="386" y="-222"/>
<text text-anchor="start" x="401" y="-213.2" font-family="Helvetica,sans-Serif" font-size="11.00">m_locator_id</text>
<polygon fill="none" stroke="black" points="381,-183 381,-205 615,-205 615,-183 381,-183"/>
<image xlink:href="../../images/foreignKeys.png" width="11px" height="12px" preserveAspectRatio="xMinYMin meet" x="386" y="-200"/>
<text text-anchor="start" x="401" y="-191.2" font-family="Helvetica,sans-Serif" font-size="11.00">m_attributesetinstance_id</text>
<polygon fill="none" stroke="black" points="381,-161 381,-183 615,-183 615,-161 381,-161"/>
<image xlink:href="../../images/foreignKeys.png" width="11px" height="12px" preserveAspectRatio="xMinYMin meet" x="386" y="-178"/>
<text text-anchor="start" x="401" y="-169.2" font-family="Helvetica,sans-Serif" font-size="11.00">c_acctschema_id</text>
<polygon fill="none" stroke="black" points="381,-139 381,-161 615,-161 615,-139 381,-139"/>
<image xlink:href="../../images/foreignKeys.png" width="11px" height="12px" preserveAspectRatio="xMinYMin meet" x="386" y="-156"/>
<text text-anchor="start" x="401" y="-147.2" font-family="Helvetica,sans-Serif" font-size="11.00">c_bpartner_id</text>
<polygon fill="none" stroke="black" points="381,-117 381,-139 615,-139 615,-117 381,-117"/>
<image xlink:href="../../images/foreignKeys.png" width="11px" height="12px" preserveAspectRatio="xMinYMin meet" x="386" y="-134"/>
<text text-anchor="start" x="401" y="-125.2" font-family="Helvetica,sans-Serif" font-size="11.00">c_bpartner_location_id</text>
<polygon fill="none" stroke="black" points="381,-95 381,-117 615,-117 615,-95 381,-95"/>
<image xlink:href="../../images/foreignKeys.png" width="11px" height="12px" preserveAspectRatio="xMinYMin meet" x="386" y="-112"/>
<text text-anchor="start" x="401" y="-103.2" font-family="Helvetica,sans-Serif" font-size="11.00">c_location_id</text>
<polygon fill="#ffffff" stroke="transparent" points="381,-73 381,-95 615,-95 615,-73 381,-73"/>
<polygon fill="none" stroke="black" points="381,-73 381,-95 615,-95 615,-73 381,-73"/>
<text text-anchor="start" x="401" y="-81.2" font-family="Helvetica,sans-Serif" font-size="11.00">i_asset_uu</text>
<polygon fill="none" stroke="black" points="381,-55 381,-73 615,-73 615,-55 381,-55"/>
<text text-anchor="start" x="384" y="-61.2" font-family="Helvetica,sans-Serif" font-size="11.00">...</text>
<polygon fill="#ffffff" stroke="transparent" points="381,-37 381,-55 486,-55 486,-37 381,-37"/>
<polygon fill="none" stroke="black" points="381,-37 381,-55 486,-55 486,-37 381,-37"/>
<text text-anchor="start" x="384" y="-43.2" font-family="Helvetica,sans-Serif" font-size="11.00">&lt; 12</text>
<polygon fill="#ffffff" stroke="transparent" points="486,-37 486,-55 563,-55 563,-37 486,-37"/>
<polygon fill="none" stroke="black" points="486,-37 486,-55 563,-55 563,-37 486,-37"/>
<text text-anchor="start" x="527" y="-43.2" font-family="Helvetica,sans-Serif" font-size="11.00">0 rows</text>
<polygon fill="#ffffff" stroke="transparent" points="563,-37 563,-55 615,-55 615,-37 563,-37"/>
<polygon fill="none" stroke="black" points="563,-37 563,-55 615,-55 615,-37 563,-37"/>
<text text-anchor="start" x="605" y="-43.2" font-family="Helvetica,sans-Serif" font-size="11.00"> &#160;</text>
</a>
</g>
</g>
<!-- i_asset&#45;&gt;a_depreciation_table_header -->
<g id="edge4" class="edge">
<title>i_asset:w&#45;&gt;a_depreciation_table_header:e</title>
<path fill="none" stroke="black" d="M366.85,-266.88C299.09,-347.8 421.14,-1115 331,-1115"/>
<polygon fill="black" stroke="black" points="372.91,-263.71 381.67,-263.19 376.46,-261.85 380,-260 380,-260 380,-260 376.46,-261.85 378.33,-256.81 372.91,-263.71 372.91,-263.71"/>
<ellipse fill="none" stroke="black" cx="370.08" cy="-265.19" rx="3.2" ry="3.2"/>
</g>
</g>
</svg>
