<?xml version="1.0" encoding="UTF-8" standalone="no"?>
<!DOCTYPE svg PUBLIC "-//W3C//DTD SVG 1.1//EN"
 "http://www.w3.org/Graphics/SVG/1.1/DTD/svg11.dtd">
<!-- Generated by graphviz version 2.43.0 (0)
 -->
<!-- Title: oneDegreeRelationshipsDiagram Pages: 1 -->
<svg width="271pt" height="669pt"
 viewBox="0.00 0.00 271.00 669.00" xmlns="http://www.w3.org/2000/svg" xmlns:xlink="http://www.w3.org/1999/xlink">
<g id="graph0" class="graph" transform="scale(1 1) rotate(0) translate(4 665)">
<title>oneDegreeRelationshipsDiagram</title>
<polygon fill="#ffffff" stroke="transparent" points="-4,4 -4,-665 267,-665 267,4 -4,4"/>
<text text-anchor="middle" x="71.5" y="-7.2" font-family="Helvetica,sans-Serif" font-size="11.00">Generated by SchemaSpy</text>
<!-- ad_alluserroles_v -->
<g id="node1" class="node">
<title>ad_alluserroles_v</title>
<g id="a_node1"><a xlink:href="../../tables/ad_alluserroles_v.html" xlink:title="ad_alluserroles_v" target="_top">
<polygon fill="#ffffff" stroke="transparent" points="8,-37 8,-657 255,-657 255,-37 8,-37"/>
<polygon fill="#f5f5f5" stroke="transparent" points="10.5,-633 10.5,-655 253.5,-655 253.5,-633 10.5,-633"/>
<polygon fill="none" stroke="black" points="10.5,-633 10.5,-655 253.5,-655 253.5,-633 10.5,-633"/>
<text text-anchor="start" x="15.5" y="-642.2" font-family="Helvetica,sans-Serif" font-weight="bold" font-size="11.00">ad_alluserroles_v</text>
<text text-anchor="start" x="220.5" y="-641.2" font-family="Helvetica,sans-Serif" font-size="11.00">[view]</text>
<polygon fill="none" stroke="black" points="10.5,-611 10.5,-633 170.5,-633 170.5,-611 10.5,-611"/>
<text text-anchor="start" x="30.5" y="-619.2" font-family="Helvetica,sans-Serif" font-size="11.00">ad_client_id</text>
<polygon fill="none" stroke="black" points="170.5,-611 170.5,-633 253.5,-633 253.5,-611 170.5,-611"/>
<text text-anchor="start" x="173.5" y="-619.2" font-family="Helvetica,sans-Serif" font-size="11.00">int4[10]</text>
<polygon fill="none" stroke="black" points="10.5,-589 10.5,-611 170.5,-611 170.5,-589 10.5,-589"/>
<text text-anchor="start" x="30.5" y="-597.2" font-family="Helvetica,sans-Serif" font-size="11.00">ad_org_id</text>
<polygon fill="none" stroke="black" points="170.5,-589 170.5,-611 253.5,-611 253.5,-589 170.5,-589"/>
<text text-anchor="start" x="173.5" y="-597.2" font-family="Helvetica,sans-Serif" font-size="11.00">int4[10]</text>
<polygon fill="none" stroke="black" points="10.5,-567 10.5,-589 170.5,-589 170.5,-567 10.5,-567"/>
<text text-anchor="start" x="30.5" y="-575.2" font-family="Helvetica,sans-Serif" font-size="11.00">ad_allusers_v_id</text>
<polygon fill="none" stroke="black" points="170.5,-567 170.5,-589 253.5,-589 253.5,-567 170.5,-567"/>
<text text-anchor="start" x="173.5" y="-575.2" font-family="Helvetica,sans-Serif" font-size="11.00">numeric[10]</text>
<polygon fill="none" stroke="black" points="10.5,-545 10.5,-567 170.5,-567 170.5,-545 10.5,-545"/>
<text text-anchor="start" x="30.5" y="-553.2" font-family="Helvetica,sans-Serif" font-size="11.00">ad_allclients_v_id</text>
<polygon fill="none" stroke="black" points="170.5,-545 170.5,-567 253.5,-567 253.5,-545 170.5,-545"/>
<text text-anchor="start" x="173.5" y="-553.2" font-family="Helvetica,sans-Serif" font-size="11.00">numeric[10]</text>
<polygon fill="none" stroke="black" points="10.5,-523 10.5,-545 170.5,-545 170.5,-523 10.5,-523"/>
<text text-anchor="start" x="30.5" y="-531.2" font-family="Helvetica,sans-Serif" font-size="11.00">isactive</text>
<polygon fill="none" stroke="black" points="170.5,-523 170.5,-545 253.5,-545 253.5,-523 170.5,-523"/>
<text text-anchor="start" x="173.5" y="-531.2" font-family="Helvetica,sans-Serif" font-size="11.00">bpchar[1]</text>
<polygon fill="none" stroke="black" points="10.5,-501 10.5,-523 170.5,-523 170.5,-501 10.5,-501"/>
<text text-anchor="start" x="30.5" y="-509.2" font-family="Helvetica,sans-Serif" font-size="11.00">created</text>
<polygon fill="none" stroke="black" points="170.5,-501 170.5,-523 253.5,-523 253.5,-501 170.5,-501"/>
<text text-anchor="start" x="173.5" y="-509.2" font-family="Helvetica,sans-Serif" font-size="11.00">timestamp[29,6]</text>
<polygon fill="none" stroke="black" points="10.5,-479 10.5,-501 170.5,-501 170.5,-479 10.5,-479"/>
<text text-anchor="start" x="30.5" y="-487.2" font-family="Helvetica,sans-Serif" font-size="11.00">createdby</text>
<polygon fill="none" stroke="black" points="170.5,-479 170.5,-501 253.5,-501 253.5,-479 170.5,-479"/>
<text text-anchor="start" x="173.5" y="-487.2" font-family="Helvetica,sans-Serif" font-size="11.00">numeric[10]</text>
<polygon fill="none" stroke="black" points="10.5,-457 10.5,-479 170.5,-479 170.5,-457 10.5,-457"/>
<text text-anchor="start" x="30.5" y="-465.2" font-family="Helvetica,sans-Serif" font-size="11.00">updated</text>
<polygon fill="none" stroke="black" points="170.5,-457 170.5,-479 253.5,-479 253.5,-457 170.5,-457"/>
<text text-anchor="start" x="173.5" y="-465.2" font-family="Helvetica,sans-Serif" font-size="11.00">timestamp[29,6]</text>
<polygon fill="none" stroke="black" points="10.5,-435 10.5,-457 170.5,-457 170.5,-435 10.5,-435"/>
<text text-anchor="start" x="30.5" y="-443.2" font-family="Helvetica,sans-Serif" font-size="11.00">updatedby</text>
<polygon fill="none" stroke="black" points="170.5,-435 170.5,-457 253.5,-457 253.5,-435 170.5,-435"/>
<text text-anchor="start" x="173.5" y="-443.2" font-family="Helvetica,sans-Serif" font-size="11.00">numeric[10]</text>
<polygon fill="none" stroke="black" points="10.5,-413 10.5,-435 170.5,-435 170.5,-413 10.5,-413"/>
<text text-anchor="start" x="30.5" y="-421.2" font-family="Helvetica,sans-Serif" font-size="11.00">ad_alluserroles_v_uu</text>
<polygon fill="none" stroke="black" points="170.5,-413 170.5,-435 253.5,-435 253.5,-413 170.5,-413"/>
<text text-anchor="start" x="173.5" y="-421.2" font-family="Helvetica,sans-Serif" font-size="11.00">varchar[36]</text>
<polygon fill="none" stroke="black" points="10.5,-391 10.5,-413 170.5,-413 170.5,-391 10.5,-391"/>
<text text-anchor="start" x="30.5" y="-399.2" font-family="Helvetica,sans-Serif" font-size="11.00">name</text>
<polygon fill="none" stroke="black" points="170.5,-391 170.5,-413 253.5,-413 253.5,-391 170.5,-391"/>
<text text-anchor="start" x="173.5" y="-399.2" font-family="Helvetica,sans-Serif" font-size="11.00">varchar[60]</text>
<polygon fill="none" stroke="black" points="10.5,-369 10.5,-391 170.5,-391 170.5,-369 10.5,-369"/>
<text text-anchor="start" x="30.5" y="-377.2" font-family="Helvetica,sans-Serif" font-size="11.00">description</text>
<polygon fill="none" stroke="black" points="170.5,-369 170.5,-391 253.5,-391 253.5,-369 170.5,-369"/>
<text text-anchor="start" x="173.5" y="-377.2" font-family="Helvetica,sans-Serif" font-size="11.00">varchar[255]</text>
<polygon fill="none" stroke="black" points="10.5,-347 10.5,-369 170.5,-369 170.5,-347 10.5,-347"/>
<text text-anchor="start" x="30.5" y="-355.2" font-family="Helvetica,sans-Serif" font-size="11.00">userlevel</text>
<polygon fill="none" stroke="black" points="170.5,-347 170.5,-369 253.5,-369 253.5,-347 170.5,-347"/>
<text text-anchor="start" x="173.5" y="-355.2" font-family="Helvetica,sans-Serif" font-size="11.00">bpchar[3]</text>
<polygon fill="none" stroke="black" points="10.5,-325 10.5,-347 170.5,-347 170.5,-325 10.5,-325"/>
<text text-anchor="start" x="30.5" y="-333.2" font-family="Helvetica,sans-Serif" font-size="11.00">ismanual</text>
<polygon fill="none" stroke="black" points="170.5,-325 170.5,-347 253.5,-347 253.5,-325 170.5,-325"/>
<text text-anchor="start" x="173.5" y="-333.2" font-family="Helvetica,sans-Serif" font-size="11.00">bpchar[1]</text>
<polygon fill="none" stroke="black" points="10.5,-303 10.5,-325 170.5,-325 170.5,-303 10.5,-303"/>
<text text-anchor="start" x="30.5" y="-311.2" font-family="Helvetica,sans-Serif" font-size="11.00">isshowacct</text>
<polygon fill="none" stroke="black" points="170.5,-303 170.5,-325 253.5,-325 253.5,-303 170.5,-303"/>
<text text-anchor="start" x="173.5" y="-311.2" font-family="Helvetica,sans-Serif" font-size="11.00">bpchar[1]</text>
<polygon fill="none" stroke="black" points="10.5,-281 10.5,-303 170.5,-303 170.5,-281 10.5,-281"/>
<text text-anchor="start" x="30.5" y="-289.2" font-family="Helvetica,sans-Serif" font-size="11.00">ispersonallock</text>
<polygon fill="none" stroke="black" points="170.5,-281 170.5,-303 253.5,-303 253.5,-281 170.5,-281"/>
<text text-anchor="start" x="173.5" y="-289.2" font-family="Helvetica,sans-Serif" font-size="11.00">bpchar[1]</text>
<polygon fill="none" stroke="black" points="10.5,-259 10.5,-281 170.5,-281 170.5,-259 10.5,-259"/>
<text text-anchor="start" x="30.5" y="-267.2" font-family="Helvetica,sans-Serif" font-size="11.00">ispersonalaccess</text>
<polygon fill="none" stroke="black" points="170.5,-259 170.5,-281 253.5,-281 253.5,-259 170.5,-259"/>
<text text-anchor="start" x="173.5" y="-267.2" font-family="Helvetica,sans-Serif" font-size="11.00">bpchar[1]</text>
<polygon fill="none" stroke="black" points="10.5,-237 10.5,-259 170.5,-259 170.5,-237 10.5,-237"/>
<text text-anchor="start" x="30.5" y="-245.2" font-family="Helvetica,sans-Serif" font-size="11.00">iscanexport</text>
<polygon fill="none" stroke="black" points="170.5,-237 170.5,-259 253.5,-259 253.5,-237 170.5,-237"/>
<text text-anchor="start" x="173.5" y="-245.2" font-family="Helvetica,sans-Serif" font-size="11.00">bpchar[1]</text>
<polygon fill="none" stroke="black" points="10.5,-215 10.5,-237 170.5,-237 170.5,-215 10.5,-215"/>
<text text-anchor="start" x="30.5" y="-223.2" font-family="Helvetica,sans-Serif" font-size="11.00">iscanreport</text>
<polygon fill="none" stroke="black" points="170.5,-215 170.5,-237 253.5,-237 253.5,-215 170.5,-215"/>
<text text-anchor="start" x="173.5" y="-223.2" font-family="Helvetica,sans-Serif" font-size="11.00">bpchar[1]</text>
<polygon fill="none" stroke="black" points="10.5,-193 10.5,-215 170.5,-215 170.5,-193 10.5,-193"/>
<text text-anchor="start" x="30.5" y="-201.2" font-family="Helvetica,sans-Serif" font-size="11.00">isaccessallorgs</text>
<polygon fill="none" stroke="black" points="170.5,-193 170.5,-215 253.5,-215 253.5,-193 170.5,-193"/>
<text text-anchor="start" x="173.5" y="-201.2" font-family="Helvetica,sans-Serif" font-size="11.00">bpchar[1]</text>
<polygon fill="none" stroke="black" points="10.5,-171 10.5,-193 170.5,-193 170.5,-171 10.5,-171"/>
<text text-anchor="start" x="30.5" y="-179.2" font-family="Helvetica,sans-Serif" font-size="11.00">ischangelog</text>
<polygon fill="none" stroke="black" points="170.5,-171 170.5,-193 253.5,-193 253.5,-171 170.5,-171"/>
<text text-anchor="start" x="173.5" y="-179.2" font-family="Helvetica,sans-Serif" font-size="11.00">bpchar[1]</text>
<polygon fill="none" stroke="black" points="10.5,-149 10.5,-171 170.5,-171 170.5,-149 10.5,-149"/>
<text text-anchor="start" x="30.5" y="-157.2" font-family="Helvetica,sans-Serif" font-size="11.00">preferencetype</text>
<polygon fill="none" stroke="black" points="170.5,-149 170.5,-171 253.5,-171 253.5,-149 170.5,-149"/>
<text text-anchor="start" x="173.5" y="-157.2" font-family="Helvetica,sans-Serif" font-size="11.00">bpchar[1]</text>
<polygon fill="none" stroke="black" points="10.5,-127 10.5,-149 170.5,-149 170.5,-127 10.5,-127"/>
<text text-anchor="start" x="30.5" y="-135.2" font-family="Helvetica,sans-Serif" font-size="11.00">isuseuserorgaccess</text>
<polygon fill="none" stroke="black" points="170.5,-127 170.5,-149 253.5,-149 253.5,-127 170.5,-127"/>
<text text-anchor="start" x="173.5" y="-135.2" font-family="Helvetica,sans-Serif" font-size="11.00">bpchar[1]</text>
<polygon fill="none" stroke="black" points="10.5,-105 10.5,-127 170.5,-127 170.5,-105 10.5,-105"/>
<text text-anchor="start" x="30.5" y="-113.2" font-family="Helvetica,sans-Serif" font-size="11.00">ismasterrole</text>
<polygon fill="none" stroke="black" points="170.5,-105 170.5,-127 253.5,-127 253.5,-105 170.5,-105"/>
<text text-anchor="start" x="173.5" y="-113.2" font-family="Helvetica,sans-Serif" font-size="11.00">bpchar[1]</text>
<polygon fill="none" stroke="black" points="10.5,-83 10.5,-105 170.5,-105 170.5,-83 10.5,-83"/>
<text text-anchor="start" x="30.5" y="-91.2" font-family="Helvetica,sans-Serif" font-size="11.00">isaccessadvanced</text>
<polygon fill="none" stroke="black" points="170.5,-83 170.5,-105 253.5,-105 253.5,-83 170.5,-83"/>
<text text-anchor="start" x="173.5" y="-91.2" font-family="Helvetica,sans-Serif" font-size="11.00">bpchar[1]</text>
<polygon fill="none" stroke="black" points="10.5,-61 10.5,-83 170.5,-83 170.5,-61 10.5,-61"/>
<text text-anchor="start" x="30.5" y="-69.2" font-family="Helvetica,sans-Serif" font-size="11.00">roletype</text>
<polygon fill="none" stroke="black" points="170.5,-61 170.5,-83 253.5,-83 253.5,-61 170.5,-61"/>
<text text-anchor="start" x="173.5" y="-69.2" font-family="Helvetica,sans-Serif" font-size="11.00">varchar[2]</text>
<polygon fill="none" stroke="black" points="10.5,-39 10.5,-61 170.5,-61 170.5,-39 10.5,-39"/>
<text text-anchor="start" x="30.5" y="-47.2" font-family="Helvetica,sans-Serif" font-size="11.00">ad_allroles_v_id</text>
<polygon fill="none" stroke="black" points="170.5,-39 170.5,-61 253.5,-61 253.5,-39 170.5,-39"/>
<text text-anchor="start" x="173.5" y="-47.2" font-family="Helvetica,sans-Serif" font-size="11.00">numeric[10]</text>
<polygon fill="none" stroke="black" stroke-width="2" points="9,-38 9,-656 254,-656 254,-38 9,-38"/>
</a>
</g>
</g>
</g>
</svg>
