<?xml version="1.0" encoding="UTF-8" standalone="no"?>
<!DOCTYPE svg PUBLIC "-//W3C//DTD SVG 1.1//EN"
 "http://www.w3.org/Graphics/SVG/1.1/DTD/svg11.dtd">
<!-- Generated by graphviz version 2.43.0 (0)
 -->
<!-- Title: oneDegreeRelationshipsDiagram Pages: 1 -->
<svg width="500pt" height="241pt"
 viewBox="0.00 0.00 500.00 241.00" xmlns="http://www.w3.org/2000/svg" xmlns:xlink="http://www.w3.org/1999/xlink">
<g id="graph0" class="graph" transform="scale(1 1) rotate(0) translate(4 237)">
<title>oneDegreeRelationshipsDiagram</title>
<polygon fill="#ffffff" stroke="transparent" points="-4,4 -4,-237 496,-237 496,4 -4,4"/>
<text text-anchor="middle" x="71.5" y="-7.2" font-family="Helvetica,sans-Serif" font-size="11.00">Generated by SchemaSpy</text>
<!-- ad_attribute_value -->
<g id="node1" class="node">
<title>ad_attribute_value</title>
<g id="a_node1"><a xlink:href="../../tables/ad_attribute_value.html" xlink:title="ad_attribute_value" target="_top">
<polygon fill="#ffffff" stroke="transparent" points="227,-53 227,-229 484,-229 484,-53 227,-53"/>
<polygon fill="#f5f5f5" stroke="transparent" points="229.5,-205 229.5,-227 482.5,-227 482.5,-205 229.5,-205"/>
<polygon fill="none" stroke="black" points="229.5,-205 229.5,-227 482.5,-227 482.5,-205 229.5,-205"/>
<text text-anchor="start" x="234.5" y="-214.2" font-family="Helvetica,sans-Serif" font-weight="bold" font-size="11.00">ad_attribute_value</text>
<text text-anchor="start" x="447.5" y="-213.2" font-family="Helvetica,sans-Serif" font-size="11.00">[table]</text>
<polygon fill="none" stroke="black" points="229.5,-183 229.5,-205 399.5,-205 399.5,-183 229.5,-183"/>
<image xlink:href="../../images/primaryKeys.png" width="11px" height="12px" preserveAspectRatio="xMinYMin meet" x="234.5" y="-200"/>
<text text-anchor="start" x="249.5" y="-191.2" font-family="Helvetica,sans-Serif" font-size="11.00">ad_attribute_id</text>
<polygon fill="none" stroke="black" points="399.5,-183 399.5,-205 482.5,-205 482.5,-183 399.5,-183"/>
<text text-anchor="start" x="402.5" y="-191.2" font-family="Helvetica,sans-Serif" font-size="11.00">numeric[10]</text>
<polygon fill="none" stroke="black" points="229.5,-161 229.5,-183 399.5,-183 399.5,-161 229.5,-161"/>
<image xlink:href="../../images/primaryKeys.png" width="11px" height="12px" preserveAspectRatio="xMinYMin meet" x="234.5" y="-178"/>
<text text-anchor="start" x="249.5" y="-169.2" font-family="Helvetica,sans-Serif" font-size="11.00">record_id</text>
<polygon fill="none" stroke="black" points="399.5,-161 399.5,-183 482.5,-183 482.5,-161 399.5,-161"/>
<text text-anchor="start" x="402.5" y="-169.2" font-family="Helvetica,sans-Serif" font-size="11.00">numeric[10]</text>
<polygon fill="none" stroke="black" points="229.5,-139 229.5,-161 399.5,-161 399.5,-139 229.5,-139"/>
<text text-anchor="start" x="249.5" y="-147.2" font-family="Helvetica,sans-Serif" font-size="11.00">v_number</text>
<polygon fill="none" stroke="black" points="399.5,-139 399.5,-161 482.5,-161 482.5,-139 399.5,-139"/>
<text text-anchor="start" x="402.5" y="-147.2" font-family="Helvetica,sans-Serif" font-size="11.00">numeric[0]</text>
<polygon fill="none" stroke="black" points="229.5,-117 229.5,-139 399.5,-139 399.5,-117 229.5,-117"/>
<text text-anchor="start" x="249.5" y="-125.2" font-family="Helvetica,sans-Serif" font-size="11.00">v_date</text>
<polygon fill="none" stroke="black" points="399.5,-117 399.5,-139 482.5,-139 482.5,-117 399.5,-117"/>
<text text-anchor="start" x="402.5" y="-125.2" font-family="Helvetica,sans-Serif" font-size="11.00">timestamp[29,6]</text>
<polygon fill="none" stroke="black" points="229.5,-95 229.5,-117 399.5,-117 399.5,-95 229.5,-95"/>
<text text-anchor="start" x="249.5" y="-103.2" font-family="Helvetica,sans-Serif" font-size="11.00">v_string</text>
<polygon fill="none" stroke="black" points="399.5,-95 399.5,-117 482.5,-117 482.5,-95 399.5,-95"/>
<text text-anchor="start" x="402.5" y="-103.2" font-family="Helvetica,sans-Serif" font-size="11.00">varchar[2000]</text>
<polygon fill="#ffffff" stroke="transparent" points="229.5,-73 229.5,-95 399.5,-95 399.5,-73 229.5,-73"/>
<polygon fill="none" stroke="black" points="229.5,-73 229.5,-95 399.5,-95 399.5,-73 229.5,-73"/>
<text text-anchor="start" x="249.5" y="-81.2" font-family="Helvetica,sans-Serif" font-size="11.00">ad_attribute_value_uu</text>
<polygon fill="none" stroke="black" points="399.5,-73 399.5,-95 482.5,-95 482.5,-73 399.5,-73"/>
<text text-anchor="start" x="402.5" y="-81.2" font-family="Helvetica,sans-Serif" font-size="11.00">varchar[36]</text>
<polygon fill="#ffffff" stroke="transparent" points="229.5,-55 229.5,-73 305.5,-73 305.5,-55 229.5,-55"/>
<polygon fill="none" stroke="black" points="229.5,-55 229.5,-73 305.5,-73 305.5,-55 229.5,-55"/>
<text text-anchor="start" x="232.5" y="-61.2" font-family="Helvetica,sans-Serif" font-size="11.00">&lt; 1</text>
<polygon fill="#ffffff" stroke="transparent" points="305.5,-55 305.5,-73 399.5,-73 399.5,-55 305.5,-55"/>
<polygon fill="none" stroke="black" points="305.5,-55 305.5,-73 399.5,-73 399.5,-55 305.5,-55"/>
<text text-anchor="start" x="363.5" y="-61.2" font-family="Helvetica,sans-Serif" font-size="11.00">0 rows</text>
<polygon fill="#ffffff" stroke="transparent" points="399.5,-55 399.5,-73 482.5,-73 482.5,-55 399.5,-55"/>
<polygon fill="none" stroke="black" points="399.5,-55 399.5,-73 482.5,-73 482.5,-55 399.5,-55"/>
<text text-anchor="start" x="463.5" y="-61.2" font-family="Helvetica,sans-Serif" font-size="11.00">0 &gt;</text>
<polygon fill="none" stroke="black" stroke-width="2" points="228,-54 228,-228 483,-228 483,-54 228,-54"/>
</a>
</g>
</g>
<!-- ad_attribute -->
<g id="node2" class="node">
<title>ad_attribute</title>
<g id="a_node2"><a xlink:href="../../tables/ad_attribute.html" xlink:title="ad_attribute" target="_top">
<polygon fill="#ffffff" stroke="transparent" points="8,-37 8,-227 178,-227 178,-37 8,-37"/>
<polygon fill="#f5f5f5" stroke="transparent" points="8,-205 8,-227 178,-227 178,-205 8,-205"/>
<polygon fill="none" stroke="black" points="8,-205 8,-227 178,-227 178,-205 8,-205"/>
<text text-anchor="start" x="13" y="-214.2" font-family="Helvetica,sans-Serif" font-weight="bold" font-size="11.00">ad_attribute</text>
<text text-anchor="start" x="143" y="-213.2" font-family="Helvetica,sans-Serif" font-size="11.00">[table]</text>
<polygon fill="none" stroke="black" points="8,-183 8,-205 178,-205 178,-183 8,-183"/>
<image xlink:href="../../images/primaryKeys.png" width="11px" height="12px" preserveAspectRatio="xMinYMin meet" x="13" y="-200"/>
<text text-anchor="start" x="28" y="-191.2" font-family="Helvetica,sans-Serif" font-size="11.00">ad_attribute_id</text>
<polygon fill="none" stroke="black" points="8,-161 8,-183 178,-183 178,-161 8,-161"/>
<image xlink:href="../../images/foreignKeys.png" width="11px" height="12px" preserveAspectRatio="xMinYMin meet" x="13" y="-178"/>
<text text-anchor="start" x="28" y="-169.2" font-family="Helvetica,sans-Serif" font-size="11.00">ad_table_id</text>
<polygon fill="none" stroke="black" points="8,-139 8,-161 178,-161 178,-139 8,-139"/>
<image xlink:href="../../images/foreignKeys.png" width="11px" height="12px" preserveAspectRatio="xMinYMin meet" x="13" y="-156"/>
<text text-anchor="start" x="28" y="-147.2" font-family="Helvetica,sans-Serif" font-size="11.00">ad_reference_id</text>
<polygon fill="none" stroke="black" points="8,-117 8,-139 178,-139 178,-117 8,-117"/>
<image xlink:href="../../images/foreignKeys.png" width="11px" height="12px" preserveAspectRatio="xMinYMin meet" x="13" y="-134"/>
<text text-anchor="start" x="28" y="-125.2" font-family="Helvetica,sans-Serif" font-size="11.00">ad_reference_value_id</text>
<polygon fill="none" stroke="black" points="8,-95 8,-117 178,-117 178,-95 8,-95"/>
<image xlink:href="../../images/foreignKeys.png" width="11px" height="12px" preserveAspectRatio="xMinYMin meet" x="13" y="-112"/>
<text text-anchor="start" x="28" y="-103.2" font-family="Helvetica,sans-Serif" font-size="11.00">ad_val_rule_id</text>
<polygon fill="#ffffff" stroke="transparent" points="8,-73 8,-95 178,-95 178,-73 8,-73"/>
<polygon fill="none" stroke="black" points="8,-73 8,-95 178,-95 178,-73 8,-73"/>
<text text-anchor="start" x="28" y="-81.2" font-family="Helvetica,sans-Serif" font-size="11.00">ad_attribute_uu</text>
<polygon fill="none" stroke="black" points="8,-55 8,-73 178,-73 178,-55 8,-55"/>
<text text-anchor="start" x="11" y="-61.2" font-family="Helvetica,sans-Serif" font-size="11.00">...</text>
<polygon fill="#ffffff" stroke="transparent" points="8,-37 8,-55 73,-55 73,-37 8,-37"/>
<polygon fill="none" stroke="black" points="8,-37 8,-55 73,-55 73,-37 8,-37"/>
<text text-anchor="start" x="11" y="-43.2" font-family="Helvetica,sans-Serif" font-size="11.00">&lt; 4</text>
<polygon fill="#ffffff" stroke="transparent" points="73,-37 73,-55 134,-55 134,-37 73,-37"/>
<polygon fill="none" stroke="black" points="73,-37 73,-55 134,-55 134,-37 73,-37"/>
<text text-anchor="start" x="98" y="-43.2" font-family="Helvetica,sans-Serif" font-size="11.00">0 rows</text>
<polygon fill="#ffffff" stroke="transparent" points="134,-37 134,-55 178,-55 178,-37 134,-37"/>
<polygon fill="none" stroke="black" points="134,-37 134,-55 178,-55 178,-37 134,-37"/>
<text text-anchor="start" x="159" y="-43.2" font-family="Helvetica,sans-Serif" font-size="11.00">1 &gt;</text>
</a>
</g>
</g>
<!-- ad_attribute_value&#45;&gt;ad_attribute -->
<g id="edge1" class="edge">
<title>ad_attribute_value:w&#45;&gt;ad_attribute:e</title>
<path fill="none" stroke="black" d="M213.84,-194C202.41,-194 195.16,-194 179,-194"/>
<polygon fill="black" stroke="black" points="220.5,-194 228.5,-197.6 224.5,-194 228.5,-194 228.5,-194 228.5,-194 224.5,-194 228.5,-190.4 220.5,-194 220.5,-194"/>
<ellipse fill="none" stroke="black" cx="217.3" cy="-194" rx="3.2" ry="3.2"/>
</g>
</g>
</svg>
