<?xml version="1.0" encoding="UTF-8" standalone="no"?>
<!DOCTYPE svg PUBLIC "-//W3C//DTD SVG 1.1//EN"
 "http://www.w3.org/Graphics/SVG/1.1/DTD/svg11.dtd">
<!-- Generated by graphviz version 2.43.0 (0)
 -->
<!-- Title: oneDegreeRelationshipsDiagram Pages: 1 -->
<svg width="1375pt" height="808pt"
 viewBox="0.00 0.00 1375.00 807.93" xmlns="http://www.w3.org/2000/svg" xmlns:xlink="http://www.w3.org/1999/xlink">
<g id="graph0" class="graph" transform="scale(1 1) rotate(0) translate(4 803.93)">
<title>oneDegreeRelationshipsDiagram</title>
<polygon fill="#ffffff" stroke="transparent" points="-4,4 -4,-803.93 1371,-803.93 1371,4 -4,4"/>
<text text-anchor="middle" x="71.5" y="-7.2" font-family="Helvetica,sans-Serif" font-size="11.00">Generated by SchemaSpy</text>
<!-- ad_broadcastmessage -->
<g id="node1" class="node">
<title>ad_broadcastmessage</title>
<g id="a_node1"><a xlink:href="../../tables/ad_broadcastmessage.html" xlink:title="ad_broadcastmessage" target="_top">
<polygon fill="#ffffff" stroke="transparent" points="814,-160 814,-754 1095,-754 1095,-160 814,-160"/>
<polygon fill="#f5f5f5" stroke="transparent" points="816.5,-730 816.5,-752 1093.5,-752 1093.5,-730 816.5,-730"/>
<polygon fill="none" stroke="black" points="816.5,-730 816.5,-752 1093.5,-752 1093.5,-730 816.5,-730"/>
<text text-anchor="start" x="821.5" y="-739.2" font-family="Helvetica,sans-Serif" font-weight="bold" font-size="11.00">ad_broadcastmessage</text>
<text text-anchor="start" x="1058.5" y="-738.2" font-family="Helvetica,sans-Serif" font-size="11.00">[table]</text>
<polygon fill="none" stroke="black" points="816.5,-708 816.5,-730 1010.5,-730 1010.5,-708 816.5,-708"/>
<text text-anchor="start" x="836.5" y="-716.2" font-family="Helvetica,sans-Serif" font-size="11.00">ad_client_id</text>
<polygon fill="none" stroke="black" points="1010.5,-708 1010.5,-730 1093.5,-730 1093.5,-708 1010.5,-708"/>
<text text-anchor="start" x="1013.5" y="-716.2" font-family="Helvetica,sans-Serif" font-size="11.00">numeric[10]</text>
<polygon fill="none" stroke="black" points="816.5,-686 816.5,-708 1010.5,-708 1010.5,-686 816.5,-686"/>
<text text-anchor="start" x="836.5" y="-694.2" font-family="Helvetica,sans-Serif" font-size="11.00">ad_org_id</text>
<polygon fill="none" stroke="black" points="1010.5,-686 1010.5,-708 1093.5,-708 1093.5,-686 1010.5,-686"/>
<text text-anchor="start" x="1013.5" y="-694.2" font-family="Helvetica,sans-Serif" font-size="11.00">numeric[10]</text>
<polygon fill="none" stroke="black" points="816.5,-664 816.5,-686 1010.5,-686 1010.5,-664 816.5,-664"/>
<text text-anchor="start" x="836.5" y="-672.2" font-family="Helvetica,sans-Serif" font-size="11.00">isactive</text>
<polygon fill="none" stroke="black" points="1010.5,-664 1010.5,-686 1093.5,-686 1093.5,-664 1010.5,-664"/>
<text text-anchor="start" x="1013.5" y="-672.2" font-family="Helvetica,sans-Serif" font-size="11.00">bpchar[1]</text>
<polygon fill="none" stroke="black" points="816.5,-642 816.5,-664 1010.5,-664 1010.5,-642 816.5,-642"/>
<text text-anchor="start" x="836.5" y="-650.2" font-family="Helvetica,sans-Serif" font-size="11.00">created</text>
<polygon fill="none" stroke="black" points="1010.5,-642 1010.5,-664 1093.5,-664 1093.5,-642 1010.5,-642"/>
<text text-anchor="start" x="1013.5" y="-650.2" font-family="Helvetica,sans-Serif" font-size="11.00">timestamp[29,6]</text>
<polygon fill="none" stroke="black" points="816.5,-620 816.5,-642 1010.5,-642 1010.5,-620 816.5,-620"/>
<text text-anchor="start" x="836.5" y="-628.2" font-family="Helvetica,sans-Serif" font-size="11.00">createdby</text>
<polygon fill="none" stroke="black" points="1010.5,-620 1010.5,-642 1093.5,-642 1093.5,-620 1010.5,-620"/>
<text text-anchor="start" x="1013.5" y="-628.2" font-family="Helvetica,sans-Serif" font-size="11.00">numeric[10]</text>
<polygon fill="none" stroke="black" points="816.5,-598 816.5,-620 1010.5,-620 1010.5,-598 816.5,-598"/>
<text text-anchor="start" x="836.5" y="-606.2" font-family="Helvetica,sans-Serif" font-size="11.00">updated</text>
<polygon fill="none" stroke="black" points="1010.5,-598 1010.5,-620 1093.5,-620 1093.5,-598 1010.5,-598"/>
<text text-anchor="start" x="1013.5" y="-606.2" font-family="Helvetica,sans-Serif" font-size="11.00">timestamp[29,6]</text>
<polygon fill="none" stroke="black" points="816.5,-576 816.5,-598 1010.5,-598 1010.5,-576 816.5,-576"/>
<text text-anchor="start" x="836.5" y="-584.2" font-family="Helvetica,sans-Serif" font-size="11.00">updatedby</text>
<polygon fill="none" stroke="black" points="1010.5,-576 1010.5,-598 1093.5,-598 1093.5,-576 1010.5,-576"/>
<text text-anchor="start" x="1013.5" y="-584.2" font-family="Helvetica,sans-Serif" font-size="11.00">numeric[10]</text>
<polygon fill="none" stroke="black" points="816.5,-554 816.5,-576 1010.5,-576 1010.5,-554 816.5,-554"/>
<text text-anchor="start" x="836.5" y="-562.2" font-family="Helvetica,sans-Serif" font-size="11.00">broadcastfrequency</text>
<polygon fill="none" stroke="black" points="1010.5,-554 1010.5,-576 1093.5,-576 1093.5,-554 1010.5,-554"/>
<text text-anchor="start" x="1013.5" y="-562.2" font-family="Helvetica,sans-Serif" font-size="11.00">varchar[60]</text>
<polygon fill="none" stroke="black" points="816.5,-532 816.5,-554 1010.5,-554 1010.5,-532 816.5,-532"/>
<text text-anchor="start" x="836.5" y="-540.2" font-family="Helvetica,sans-Serif" font-size="11.00">broadcastmessage</text>
<polygon fill="none" stroke="black" points="1010.5,-532 1010.5,-554 1093.5,-554 1093.5,-532 1010.5,-532"/>
<text text-anchor="start" x="1013.5" y="-540.2" font-family="Helvetica,sans-Serif" font-size="11.00">varchar[2000]</text>
<polygon fill="none" stroke="black" points="816.5,-510 816.5,-532 1010.5,-532 1010.5,-510 816.5,-510"/>
<text text-anchor="start" x="836.5" y="-518.2" font-family="Helvetica,sans-Serif" font-size="11.00">broadcasttype</text>
<polygon fill="none" stroke="black" points="1010.5,-510 1010.5,-532 1093.5,-532 1093.5,-510 1010.5,-510"/>
<text text-anchor="start" x="1013.5" y="-518.2" font-family="Helvetica,sans-Serif" font-size="11.00">varchar[32]</text>
<polygon fill="none" stroke="black" points="816.5,-488 816.5,-510 1010.5,-510 1010.5,-488 816.5,-488"/>
<text text-anchor="start" x="836.5" y="-496.2" font-family="Helvetica,sans-Serif" font-size="11.00">expiration</text>
<polygon fill="none" stroke="black" points="1010.5,-488 1010.5,-510 1093.5,-510 1093.5,-488 1010.5,-488"/>
<text text-anchor="start" x="1013.5" y="-496.2" font-family="Helvetica,sans-Serif" font-size="11.00">timestamp[29,6]</text>
<polygon fill="none" stroke="black" points="816.5,-466 816.5,-488 1010.5,-488 1010.5,-466 816.5,-466"/>
<text text-anchor="start" x="836.5" y="-474.2" font-family="Helvetica,sans-Serif" font-size="11.00">logacknowledge</text>
<polygon fill="none" stroke="black" points="1010.5,-466 1010.5,-488 1093.5,-488 1093.5,-466 1010.5,-466"/>
<text text-anchor="start" x="1013.5" y="-474.2" font-family="Helvetica,sans-Serif" font-size="11.00">bpchar[1]</text>
<polygon fill="none" stroke="black" points="816.5,-444 816.5,-466 1010.5,-466 1010.5,-444 816.5,-444"/>
<text text-anchor="start" x="836.5" y="-452.2" font-family="Helvetica,sans-Serif" font-size="11.00">target</text>
<polygon fill="none" stroke="black" points="1010.5,-444 1010.5,-466 1093.5,-466 1093.5,-444 1010.5,-444"/>
<text text-anchor="start" x="1013.5" y="-452.2" font-family="Helvetica,sans-Serif" font-size="11.00">varchar[60]</text>
<polygon fill="none" stroke="black" points="816.5,-422 816.5,-444 1010.5,-444 1010.5,-422 816.5,-422"/>
<image xlink:href="../../images/foreignKeys.png" width="11px" height="12px" preserveAspectRatio="xMinYMin meet" x="821.5" y="-439"/>
<text text-anchor="start" x="836.5" y="-430.2" font-family="Helvetica,sans-Serif" font-size="11.00">ad_role_id</text>
<polygon fill="none" stroke="black" points="1010.5,-422 1010.5,-444 1093.5,-444 1093.5,-422 1010.5,-422"/>
<text text-anchor="start" x="1013.5" y="-430.2" font-family="Helvetica,sans-Serif" font-size="11.00">numeric[10]</text>
<polygon fill="none" stroke="black" points="816.5,-400 816.5,-422 1010.5,-422 1010.5,-400 816.5,-400"/>
<image xlink:href="../../images/foreignKeys.png" width="11px" height="12px" preserveAspectRatio="xMinYMin meet" x="821.5" y="-417"/>
<text text-anchor="start" x="836.5" y="-408.2" font-family="Helvetica,sans-Serif" font-size="11.00">ad_user_id</text>
<polygon fill="none" stroke="black" points="1010.5,-400 1010.5,-422 1093.5,-422 1093.5,-400 1010.5,-400"/>
<text text-anchor="start" x="1013.5" y="-408.2" font-family="Helvetica,sans-Serif" font-size="11.00">numeric[10]</text>
<polygon fill="none" stroke="black" points="816.5,-378 816.5,-400 1010.5,-400 1010.5,-378 816.5,-378"/>
<text text-anchor="start" x="836.5" y="-386.2" font-family="Helvetica,sans-Serif" font-size="11.00">testmessage</text>
<polygon fill="none" stroke="black" points="1010.5,-378 1010.5,-400 1093.5,-400 1093.5,-378 1010.5,-378"/>
<text text-anchor="start" x="1013.5" y="-386.2" font-family="Helvetica,sans-Serif" font-size="11.00">bpchar[1]</text>
<polygon fill="none" stroke="black" points="816.5,-356 816.5,-378 1010.5,-378 1010.5,-356 816.5,-356"/>
<text text-anchor="start" x="836.5" y="-364.2" font-family="Helvetica,sans-Serif" font-size="11.00">publish</text>
<polygon fill="none" stroke="black" points="1010.5,-356 1010.5,-378 1093.5,-378 1093.5,-356 1010.5,-356"/>
<text text-anchor="start" x="1013.5" y="-364.2" font-family="Helvetica,sans-Serif" font-size="11.00">bpchar[1]</text>
<polygon fill="none" stroke="black" points="816.5,-334 816.5,-356 1010.5,-356 1010.5,-334 816.5,-334"/>
<text text-anchor="start" x="836.5" y="-342.2" font-family="Helvetica,sans-Serif" font-size="11.00">expirenow</text>
<polygon fill="none" stroke="black" points="1010.5,-334 1010.5,-356 1093.5,-356 1093.5,-334 1010.5,-334"/>
<text text-anchor="start" x="1013.5" y="-342.2" font-family="Helvetica,sans-Serif" font-size="11.00">bpchar[1]</text>
<polygon fill="none" stroke="black" points="816.5,-312 816.5,-334 1010.5,-334 1010.5,-312 816.5,-312"/>
<image xlink:href="../../images/primaryKeys.png" width="11px" height="12px" preserveAspectRatio="xMinYMin meet" x="821.5" y="-329"/>
<text text-anchor="start" x="836.5" y="-320.2" font-family="Helvetica,sans-Serif" font-size="11.00">ad_broadcastmessage_id</text>
<polygon fill="none" stroke="black" points="1010.5,-312 1010.5,-334 1093.5,-334 1093.5,-312 1010.5,-312"/>
<text text-anchor="start" x="1013.5" y="-320.2" font-family="Helvetica,sans-Serif" font-size="11.00">numeric[10]</text>
<polygon fill="none" stroke="black" points="816.5,-290 816.5,-312 1010.5,-312 1010.5,-290 816.5,-290"/>
<text text-anchor="start" x="836.5" y="-298.2" font-family="Helvetica,sans-Serif" font-size="11.00">ispublished</text>
<polygon fill="none" stroke="black" points="1010.5,-290 1010.5,-312 1093.5,-312 1093.5,-290 1010.5,-290"/>
<text text-anchor="start" x="1013.5" y="-298.2" font-family="Helvetica,sans-Serif" font-size="11.00">bpchar[1]</text>
<polygon fill="none" stroke="black" points="816.5,-268 816.5,-290 1010.5,-290 1010.5,-268 816.5,-268"/>
<text text-anchor="start" x="836.5" y="-276.2" font-family="Helvetica,sans-Serif" font-size="11.00">processed</text>
<polygon fill="none" stroke="black" points="1010.5,-268 1010.5,-290 1093.5,-290 1093.5,-268 1010.5,-268"/>
<text text-anchor="start" x="1013.5" y="-276.2" font-family="Helvetica,sans-Serif" font-size="11.00">bpchar[1]</text>
<polygon fill="none" stroke="black" points="816.5,-246 816.5,-268 1010.5,-268 1010.5,-246 816.5,-246"/>
<text text-anchor="start" x="836.5" y="-254.2" font-family="Helvetica,sans-Serif" font-size="11.00">expired</text>
<polygon fill="none" stroke="black" points="1010.5,-246 1010.5,-268 1093.5,-268 1093.5,-246 1010.5,-246"/>
<text text-anchor="start" x="1013.5" y="-254.2" font-family="Helvetica,sans-Serif" font-size="11.00">bpchar[1]</text>
<polygon fill="#ffffff" stroke="transparent" points="816.5,-224 816.5,-246 1010.5,-246 1010.5,-224 816.5,-224"/>
<polygon fill="none" stroke="black" points="816.5,-224 816.5,-246 1010.5,-246 1010.5,-224 816.5,-224"/>
<text text-anchor="start" x="836.5" y="-232.2" font-family="Helvetica,sans-Serif" font-size="11.00">ad_broadcastmessage_uu</text>
<polygon fill="none" stroke="black" points="1010.5,-224 1010.5,-246 1093.5,-246 1093.5,-224 1010.5,-224"/>
<text text-anchor="start" x="1013.5" y="-232.2" font-family="Helvetica,sans-Serif" font-size="11.00">varchar[36]</text>
<polygon fill="none" stroke="black" points="816.5,-202 816.5,-224 1010.5,-224 1010.5,-202 816.5,-202"/>
<image xlink:href="../../images/foreignKeys.png" width="11px" height="12px" preserveAspectRatio="xMinYMin meet" x="821.5" y="-219"/>
<text text-anchor="start" x="836.5" y="-210.2" font-family="Helvetica,sans-Serif" font-size="11.00">notification_client_id</text>
<polygon fill="none" stroke="black" points="1010.5,-202 1010.5,-224 1093.5,-224 1093.5,-202 1010.5,-202"/>
<text text-anchor="start" x="1013.5" y="-210.2" font-family="Helvetica,sans-Serif" font-size="11.00">numeric[10]</text>
<polygon fill="none" stroke="black" points="816.5,-180 816.5,-202 1010.5,-202 1010.5,-180 816.5,-180"/>
<text text-anchor="start" x="836.5" y="-188.2" font-family="Helvetica,sans-Serif" font-size="11.00">title</text>
<polygon fill="none" stroke="black" points="1010.5,-180 1010.5,-202 1093.5,-202 1093.5,-180 1010.5,-180"/>
<text text-anchor="start" x="1013.5" y="-188.2" font-family="Helvetica,sans-Serif" font-size="11.00">varchar[60]</text>
<polygon fill="#ffffff" stroke="transparent" points="816.5,-162 816.5,-180 904.5,-180 904.5,-162 816.5,-162"/>
<polygon fill="none" stroke="black" points="816.5,-162 816.5,-180 904.5,-180 904.5,-162 816.5,-162"/>
<text text-anchor="start" x="819.5" y="-168.2" font-family="Helvetica,sans-Serif" font-size="11.00">&lt; 3</text>
<polygon fill="#ffffff" stroke="transparent" points="904.5,-162 904.5,-180 1010.5,-180 1010.5,-162 904.5,-162"/>
<polygon fill="none" stroke="black" points="904.5,-162 904.5,-180 1010.5,-180 1010.5,-162 904.5,-162"/>
<text text-anchor="start" x="974.5" y="-168.2" font-family="Helvetica,sans-Serif" font-size="11.00">0 rows</text>
<polygon fill="#ffffff" stroke="transparent" points="1010.5,-162 1010.5,-180 1093.5,-180 1093.5,-162 1010.5,-162"/>
<polygon fill="none" stroke="black" points="1010.5,-162 1010.5,-180 1093.5,-180 1093.5,-162 1010.5,-162"/>
<text text-anchor="start" x="1074.5" y="-168.2" font-family="Helvetica,sans-Serif" font-size="11.00">2 &gt;</text>
<polygon fill="none" stroke="black" stroke-width="2" points="815,-161 815,-753 1094,-753 1094,-161 815,-161"/>
</a>
</g>
</g>
<!-- ad_role -->
<g id="node2" class="node">
<title>ad_role</title>
<g id="a_node2"><a xlink:href="../../tables/ad_role.html" xlink:title="ad_role" target="_top">
<polygon fill="#ffffff" stroke="transparent" points="557,-495 557,-729 765,-729 765,-495 557,-495"/>
<polygon fill="#f5f5f5" stroke="transparent" points="557,-707 557,-729 765,-729 765,-707 557,-707"/>
<polygon fill="none" stroke="black" points="557,-707 557,-729 765,-729 765,-707 557,-707"/>
<text text-anchor="start" x="562" y="-716.2" font-family="Helvetica,sans-Serif" font-weight="bold" font-size="11.00">ad_role</text>
<text text-anchor="start" x="730" y="-715.2" font-family="Helvetica,sans-Serif" font-size="11.00">[table]</text>
<polygon fill="none" stroke="black" points="557,-685 557,-707 765,-707 765,-685 557,-685"/>
<image xlink:href="../../images/primaryKeys.png" width="11px" height="12px" preserveAspectRatio="xMinYMin meet" x="562" y="-702"/>
<text text-anchor="start" x="577" y="-693.2" font-family="Helvetica,sans-Serif" font-size="11.00">ad_role_id</text>
<polygon fill="none" stroke="black" points="557,-663 557,-685 765,-685 765,-663 557,-663"/>
<image xlink:href="../../images/foreignKeys.png" width="11px" height="12px" preserveAspectRatio="xMinYMin meet" x="562" y="-680"/>
<text text-anchor="start" x="577" y="-671.2" font-family="Helvetica,sans-Serif" font-size="11.00">ad_client_id</text>
<polygon fill="none" stroke="black" points="557,-641 557,-663 765,-663 765,-641 557,-641"/>
<image xlink:href="../../images/foreignKeys.png" width="11px" height="12px" preserveAspectRatio="xMinYMin meet" x="562" y="-658"/>
<text text-anchor="start" x="577" y="-649.2" font-family="Helvetica,sans-Serif" font-size="11.00">ad_org_id</text>
<polygon fill="none" stroke="black" points="557,-619 557,-641 765,-641 765,-619 557,-619"/>
<image xlink:href="../../images/foreignKeys.png" width="11px" height="12px" preserveAspectRatio="xMinYMin meet" x="562" y="-636"/>
<text text-anchor="start" x="577" y="-627.2" font-family="Helvetica,sans-Serif" font-size="11.00">c_currency_id</text>
<polygon fill="none" stroke="black" points="557,-597 557,-619 765,-619 765,-597 557,-597"/>
<image xlink:href="../../images/foreignKeys.png" width="11px" height="12px" preserveAspectRatio="xMinYMin meet" x="562" y="-614"/>
<text text-anchor="start" x="577" y="-605.2" font-family="Helvetica,sans-Serif" font-size="11.00">ad_tree_menu_id</text>
<polygon fill="none" stroke="black" points="557,-575 557,-597 765,-597 765,-575 557,-575"/>
<image xlink:href="../../images/foreignKeys.png" width="11px" height="12px" preserveAspectRatio="xMinYMin meet" x="562" y="-592"/>
<text text-anchor="start" x="577" y="-583.2" font-family="Helvetica,sans-Serif" font-size="11.00">supervisor_id</text>
<polygon fill="none" stroke="black" points="557,-553 557,-575 765,-575 765,-553 557,-553"/>
<image xlink:href="../../images/foreignKeys.png" width="11px" height="12px" preserveAspectRatio="xMinYMin meet" x="562" y="-570"/>
<text text-anchor="start" x="577" y="-561.2" font-family="Helvetica,sans-Serif" font-size="11.00">ad_tree_org_id</text>
<polygon fill="#ffffff" stroke="transparent" points="557,-531 557,-553 765,-553 765,-531 557,-531"/>
<polygon fill="none" stroke="black" points="557,-531 557,-553 765,-553 765,-531 557,-531"/>
<text text-anchor="start" x="577" y="-539.2" font-family="Helvetica,sans-Serif" font-size="11.00">ad_role_uu</text>
<polygon fill="none" stroke="black" points="557,-513 557,-531 765,-531 765,-513 557,-513"/>
<text text-anchor="start" x="560" y="-519.2" font-family="Helvetica,sans-Serif" font-size="11.00">...</text>
<polygon fill="#ffffff" stroke="transparent" points="557,-495 557,-513 635,-513 635,-495 557,-495"/>
<polygon fill="none" stroke="black" points="557,-495 557,-513 635,-513 635,-495 557,-495"/>
<text text-anchor="start" x="560" y="-501.2" font-family="Helvetica,sans-Serif" font-size="11.00">&lt; 6</text>
<polygon fill="#ffffff" stroke="transparent" points="635,-495 635,-513 708,-513 708,-495 635,-495"/>
<polygon fill="none" stroke="black" points="635,-495 635,-513 708,-513 708,-495 635,-495"/>
<text text-anchor="start" x="666" y="-501.2" font-family="Helvetica,sans-Serif" font-size="11.00">13 rows</text>
<polygon fill="#ffffff" stroke="transparent" points="708,-495 708,-513 765,-513 765,-495 708,-495"/>
<polygon fill="none" stroke="black" points="708,-495 708,-513 765,-513 765,-495 708,-495"/>
<text text-anchor="start" x="740" y="-501.2" font-family="Helvetica,sans-Serif" font-size="11.00">42 &gt;</text>
</a>
</g>
</g>
<!-- ad_broadcastmessage&#45;&gt;ad_role -->
<g id="edge1" class="edge">
<title>ad_broadcastmessage:w&#45;&gt;ad_role:e</title>
<path fill="none" stroke="black" d="M801.01,-434.61C713.2,-456.59 879.48,-696 766,-696"/>
<polygon fill="black" stroke="black" points="807.55,-433.88 815.9,-436.58 811.52,-433.44 815.5,-433 815.5,-433 815.5,-433 811.52,-433.44 815.1,-429.42 807.55,-433.88 807.55,-433.88"/>
<ellipse fill="none" stroke="black" cx="804.37" cy="-434.24" rx="3.2" ry="3.2"/>
</g>
<!-- ad_user -->
<g id="node3" class="node">
<title>ad_user</title>
<g id="a_node3"><a xlink:href="../../tables/ad_user.html" xlink:title="ad_user" target="_top">
<polygon fill="#ffffff" stroke="transparent" points="285,-130 285,-650 508,-650 508,-130 285,-130"/>
<polygon fill="#f5f5f5" stroke="transparent" points="285.5,-628 285.5,-650 508.5,-650 508.5,-628 285.5,-628"/>
<polygon fill="none" stroke="black" points="285.5,-628 285.5,-650 508.5,-650 508.5,-628 285.5,-628"/>
<text text-anchor="start" x="290.5" y="-637.2" font-family="Helvetica,sans-Serif" font-weight="bold" font-size="11.00">ad_user</text>
<text text-anchor="start" x="473.5" y="-636.2" font-family="Helvetica,sans-Serif" font-size="11.00">[table]</text>
<polygon fill="none" stroke="black" points="285.5,-606 285.5,-628 508.5,-628 508.5,-606 285.5,-606"/>
<image xlink:href="../../images/primaryKeys.png" width="11px" height="12px" preserveAspectRatio="xMinYMin meet" x="290.5" y="-623"/>
<text text-anchor="start" x="305.5" y="-614.2" font-family="Helvetica,sans-Serif" font-size="11.00">ad_user_id</text>
<polygon fill="none" stroke="black" points="285.5,-584 285.5,-606 508.5,-606 508.5,-584 285.5,-584"/>
<image xlink:href="../../images/foreignKeys.png" width="11px" height="12px" preserveAspectRatio="xMinYMin meet" x="290.5" y="-601"/>
<text text-anchor="start" x="305.5" y="-592.2" font-family="Helvetica,sans-Serif" font-size="11.00">ad_client_id</text>
<polygon fill="none" stroke="black" points="285.5,-562 285.5,-584 508.5,-584 508.5,-562 285.5,-562"/>
<image xlink:href="../../images/foreignKeys.png" width="11px" height="12px" preserveAspectRatio="xMinYMin meet" x="290.5" y="-579"/>
<text text-anchor="start" x="305.5" y="-570.2" font-family="Helvetica,sans-Serif" font-size="11.00">ad_org_id</text>
<polygon fill="#ffffff" stroke="transparent" points="285.5,-540 285.5,-562 508.5,-562 508.5,-540 285.5,-540"/>
<polygon fill="none" stroke="black" points="285.5,-540 285.5,-562 508.5,-562 508.5,-540 285.5,-540"/>
<text text-anchor="start" x="305.5" y="-548.2" font-family="Helvetica,sans-Serif" font-size="11.00">name</text>
<polygon fill="#ffffff" stroke="transparent" points="285.5,-518 285.5,-540 508.5,-540 508.5,-518 285.5,-518"/>
<polygon fill="none" stroke="black" points="285.5,-518 285.5,-540 508.5,-540 508.5,-518 285.5,-518"/>
<text text-anchor="start" x="305.5" y="-526.2" font-family="Helvetica,sans-Serif" font-size="11.00">email</text>
<polygon fill="none" stroke="black" points="285.5,-496 285.5,-518 508.5,-518 508.5,-496 285.5,-496"/>
<image xlink:href="../../images/foreignKeys.png" width="11px" height="12px" preserveAspectRatio="xMinYMin meet" x="290.5" y="-513"/>
<text text-anchor="start" x="305.5" y="-504.2" font-family="Helvetica,sans-Serif" font-size="11.00">supervisor_id</text>
<polygon fill="#ffffff" stroke="transparent" points="285.5,-474 285.5,-496 508.5,-496 508.5,-474 285.5,-474"/>
<polygon fill="none" stroke="black" points="285.5,-474 285.5,-496 508.5,-496 508.5,-474 285.5,-474"/>
<image xlink:href="../../images/foreignKeys.png" width="11px" height="12px" preserveAspectRatio="xMinYMin meet" x="290.5" y="-491"/>
<text text-anchor="start" x="305.5" y="-482.2" font-family="Helvetica,sans-Serif" font-size="11.00">c_bpartner_id</text>
<polygon fill="none" stroke="black" points="285.5,-452 285.5,-474 508.5,-474 508.5,-452 285.5,-452"/>
<image xlink:href="../../images/foreignKeys.png" width="11px" height="12px" preserveAspectRatio="xMinYMin meet" x="290.5" y="-469"/>
<text text-anchor="start" x="305.5" y="-460.2" font-family="Helvetica,sans-Serif" font-size="11.00">c_bpartner_location_id</text>
<polygon fill="none" stroke="black" points="285.5,-430 285.5,-452 508.5,-452 508.5,-430 285.5,-430"/>
<image xlink:href="../../images/foreignKeys.png" width="11px" height="12px" preserveAspectRatio="xMinYMin meet" x="290.5" y="-447"/>
<text text-anchor="start" x="305.5" y="-438.2" font-family="Helvetica,sans-Serif" font-size="11.00">c_greeting_id</text>
<polygon fill="none" stroke="black" points="285.5,-408 285.5,-430 508.5,-430 508.5,-408 285.5,-408"/>
<image xlink:href="../../images/foreignKeys.png" width="11px" height="12px" preserveAspectRatio="xMinYMin meet" x="290.5" y="-425"/>
<text text-anchor="start" x="305.5" y="-416.2" font-family="Helvetica,sans-Serif" font-size="11.00">ad_orgtrx_id</text>
<polygon fill="none" stroke="black" points="285.5,-386 285.5,-408 508.5,-408 508.5,-386 285.5,-386"/>
<image xlink:href="../../images/foreignKeys.png" width="11px" height="12px" preserveAspectRatio="xMinYMin meet" x="290.5" y="-403"/>
<text text-anchor="start" x="305.5" y="-394.2" font-family="Helvetica,sans-Serif" font-size="11.00">c_job_id</text>
<polygon fill="#ffffff" stroke="transparent" points="285.5,-364 285.5,-386 508.5,-386 508.5,-364 285.5,-364"/>
<polygon fill="none" stroke="black" points="285.5,-364 285.5,-386 508.5,-386 508.5,-364 285.5,-364"/>
<text text-anchor="start" x="305.5" y="-372.2" font-family="Helvetica,sans-Serif" font-size="11.00">ad_user_uu</text>
<polygon fill="none" stroke="black" points="285.5,-342 285.5,-364 508.5,-364 508.5,-342 285.5,-342"/>
<image xlink:href="../../images/foreignKeys.png" width="11px" height="12px" preserveAspectRatio="xMinYMin meet" x="290.5" y="-359"/>
<text text-anchor="start" x="305.5" y="-350.2" font-family="Helvetica,sans-Serif" font-size="11.00">c_location_id</text>
<polygon fill="none" stroke="black" points="285.5,-320 285.5,-342 508.5,-342 508.5,-320 285.5,-320"/>
<image xlink:href="../../images/foreignKeys.png" width="11px" height="12px" preserveAspectRatio="xMinYMin meet" x="290.5" y="-337"/>
<text text-anchor="start" x="305.5" y="-328.2" font-family="Helvetica,sans-Serif" font-size="11.00">c_campaign_id</text>
<polygon fill="none" stroke="black" points="285.5,-298 285.5,-320 508.5,-320 508.5,-298 285.5,-298"/>
<image xlink:href="../../images/foreignKeys.png" width="11px" height="12px" preserveAspectRatio="xMinYMin meet" x="290.5" y="-315"/>
<text text-anchor="start" x="305.5" y="-306.2" font-family="Helvetica,sans-Serif" font-size="11.00">salesrep_id</text>
<polygon fill="none" stroke="black" points="285.5,-276 285.5,-298 508.5,-298 508.5,-276 285.5,-276"/>
<image xlink:href="../../images/foreignKeys.png" width="11px" height="12px" preserveAspectRatio="xMinYMin meet" x="290.5" y="-293"/>
<text text-anchor="start" x="305.5" y="-284.2" font-family="Helvetica,sans-Serif" font-size="11.00">bp_location_id</text>
<polygon fill="none" stroke="black" points="285.5,-254 285.5,-276 508.5,-276 508.5,-254 285.5,-254"/>
<image xlink:href="../../images/foreignKeys.png" width="11px" height="12px" preserveAspectRatio="xMinYMin meet" x="290.5" y="-271"/>
<text text-anchor="start" x="305.5" y="-262.2" font-family="Helvetica,sans-Serif" font-size="11.00">r_defaultmailtext_id</text>
<polygon fill="none" stroke="black" points="285.5,-232 285.5,-254 508.5,-254 508.5,-232 285.5,-232"/>
<image xlink:href="../../images/foreignKeys.png" width="11px" height="12px" preserveAspectRatio="xMinYMin meet" x="290.5" y="-249"/>
<text text-anchor="start" x="305.5" y="-240.2" font-family="Helvetica,sans-Serif" font-size="11.00">cof_c_marketsegment_id</text>
<polygon fill="none" stroke="black" points="285.5,-210 285.5,-232 508.5,-232 508.5,-210 285.5,-210"/>
<image xlink:href="../../images/foreignKeys.png" width="11px" height="12px" preserveAspectRatio="xMinYMin meet" x="290.5" y="-227"/>
<text text-anchor="start" x="305.5" y="-218.2" font-family="Helvetica,sans-Serif" font-size="11.00">cof_c_leadexpirationreason_id</text>
<polygon fill="none" stroke="black" points="285.5,-188 285.5,-210 508.5,-210 508.5,-188 285.5,-188"/>
<image xlink:href="../../images/foreignKeys.png" width="11px" height="12px" preserveAspectRatio="xMinYMin meet" x="290.5" y="-205"/>
<text text-anchor="start" x="305.5" y="-196.2" font-family="Helvetica,sans-Serif" font-size="11.00">ad_image_id</text>
<polygon fill="none" stroke="black" points="285.5,-166 285.5,-188 508.5,-188 508.5,-166 285.5,-166"/>
<image xlink:href="../../images/foreignKeys.png" width="11px" height="12px" preserveAspectRatio="xMinYMin meet" x="290.5" y="-183"/>
<text text-anchor="start" x="305.5" y="-174.2" font-family="Helvetica,sans-Serif" font-size="11.00">c_subscription_id</text>
<polygon fill="none" stroke="black" points="285.5,-148 285.5,-166 508.5,-166 508.5,-148 285.5,-148"/>
<text text-anchor="start" x="288.5" y="-154.2" font-family="Helvetica,sans-Serif" font-size="11.00">...</text>
<polygon fill="#ffffff" stroke="transparent" points="285.5,-130 285.5,-148 374.5,-148 374.5,-130 285.5,-130"/>
<polygon fill="none" stroke="black" points="285.5,-130 285.5,-148 374.5,-148 374.5,-130 285.5,-130"/>
<text text-anchor="start" x="288.5" y="-136.2" font-family="Helvetica,sans-Serif" font-size="11.00">&lt; 17</text>
<polygon fill="#ffffff" stroke="transparent" points="374.5,-130 374.5,-148 443.5,-148 443.5,-130 374.5,-130"/>
<polygon fill="none" stroke="black" points="374.5,-130 374.5,-148 443.5,-148 443.5,-130 374.5,-130"/>
<text text-anchor="start" x="407.5" y="-136.2" font-family="Helvetica,sans-Serif" font-size="11.00">8 rows</text>
<polygon fill="#ffffff" stroke="transparent" points="443.5,-130 443.5,-148 508.5,-148 508.5,-130 443.5,-130"/>
<polygon fill="none" stroke="black" points="443.5,-130 443.5,-148 508.5,-148 508.5,-130 443.5,-130"/>
<text text-anchor="start" x="477.5" y="-136.2" font-family="Helvetica,sans-Serif" font-size="11.00">316 &gt;</text>
</a>
</g>
</g>
<!-- ad_broadcastmessage&#45;&gt;ad_user -->
<g id="edge2" class="edge">
<title>ad_broadcastmessage:w&#45;&gt;ad_user:e</title>
<path fill="none" stroke="black" d="M801.05,-410.95C688.06,-410.19 633.27,-402.39 549,-485 505.27,-527.87 570.74,-617 509.5,-617"/>
<polygon fill="black" stroke="black" points="807.5,-410.97 815.49,-414.6 811.5,-410.99 815.5,-411 815.5,-411 815.5,-411 811.5,-410.99 815.51,-407.4 807.5,-410.97 807.5,-410.97"/>
<ellipse fill="none" stroke="black" cx="804.3" cy="-410.96" rx="3.2" ry="3.2"/>
</g>
<!-- ad_client -->
<g id="node4" class="node">
<title>ad_client</title>
<g id="a_node4"><a xlink:href="../../tables/ad_client.html" xlink:title="ad_client" target="_top">
<polygon fill="#ffffff" stroke="transparent" points="8,-171 8,-383 236,-383 236,-171 8,-171"/>
<polygon fill="#f5f5f5" stroke="transparent" points="8,-361 8,-383 236,-383 236,-361 8,-361"/>
<polygon fill="none" stroke="black" points="8,-361 8,-383 236,-383 236,-361 8,-361"/>
<text text-anchor="start" x="13" y="-370.2" font-family="Helvetica,sans-Serif" font-weight="bold" font-size="11.00">ad_client</text>
<text text-anchor="start" x="201" y="-369.2" font-family="Helvetica,sans-Serif" font-size="11.00">[table]</text>
<polygon fill="none" stroke="black" points="8,-339 8,-361 236,-361 236,-339 8,-339"/>
<image xlink:href="../../images/primaryKeys.png" width="11px" height="12px" preserveAspectRatio="xMinYMin meet" x="13" y="-356"/>
<text text-anchor="start" x="28" y="-347.2" font-family="Helvetica,sans-Serif" font-size="11.00">ad_client_id</text>
<polygon fill="#ffffff" stroke="transparent" points="8,-317 8,-339 236,-339 236,-317 8,-317"/>
<polygon fill="none" stroke="black" points="8,-317 8,-339 236,-339 236,-317 8,-317"/>
<text text-anchor="start" x="28" y="-325.2" font-family="Helvetica,sans-Serif" font-size="11.00">value</text>
<polygon fill="none" stroke="black" points="8,-295 8,-317 236,-317 236,-295 8,-295"/>
<image xlink:href="../../images/foreignKeys.png" width="11px" height="12px" preserveAspectRatio="xMinYMin meet" x="13" y="-312"/>
<text text-anchor="start" x="28" y="-303.2" font-family="Helvetica,sans-Serif" font-size="11.00">ad_language</text>
<polygon fill="none" stroke="black" points="8,-273 8,-295 236,-295 236,-273 8,-273"/>
<image xlink:href="../../images/foreignKeys.png" width="11px" height="12px" preserveAspectRatio="xMinYMin meet" x="13" y="-290"/>
<text text-anchor="start" x="28" y="-281.2" font-family="Helvetica,sans-Serif" font-size="11.00">ad_replicationstrategy_id</text>
<polygon fill="#ffffff" stroke="transparent" points="8,-251 8,-273 236,-273 236,-251 8,-251"/>
<polygon fill="none" stroke="black" points="8,-251 8,-273 236,-273 236,-251 8,-251"/>
<text text-anchor="start" x="28" y="-259.2" font-family="Helvetica,sans-Serif" font-size="11.00">ad_client_uu</text>
<polygon fill="none" stroke="black" points="8,-229 8,-251 236,-251 236,-229 8,-229"/>
<image xlink:href="../../images/foreignKeys.png" width="11px" height="12px" preserveAspectRatio="xMinYMin meet" x="13" y="-246"/>
<text text-anchor="start" x="28" y="-237.2" font-family="Helvetica,sans-Serif" font-size="11.00">ad_passwordrule_id</text>
<polygon fill="#ffffff" stroke="transparent" points="8,-207 8,-229 236,-229 236,-207 8,-207"/>
<polygon fill="none" stroke="black" points="8,-207 8,-229 236,-229 236,-207 8,-207"/>
<text text-anchor="start" x="28" y="-215.2" font-family="Helvetica,sans-Serif" font-size="11.00">loginprefix</text>
<polygon fill="none" stroke="black" points="8,-189 8,-207 236,-207 236,-189 8,-189"/>
<text text-anchor="start" x="11" y="-195.2" font-family="Helvetica,sans-Serif" font-size="11.00">...</text>
<polygon fill="#ffffff" stroke="transparent" points="8,-171 8,-189 96,-189 96,-171 8,-171"/>
<polygon fill="none" stroke="black" points="8,-171 8,-189 96,-189 96,-171 8,-171"/>
<text text-anchor="start" x="11" y="-177.2" font-family="Helvetica,sans-Serif" font-size="11.00">&lt; 3</text>
<polygon fill="#ffffff" stroke="transparent" points="96,-171 96,-189 168,-189 168,-171 96,-171"/>
<polygon fill="none" stroke="black" points="96,-171 96,-189 168,-189 168,-171 96,-171"/>
<text text-anchor="start" x="132" y="-177.2" font-family="Helvetica,sans-Serif" font-size="11.00">2 rows</text>
<polygon fill="#ffffff" stroke="transparent" points="168,-171 168,-189 236,-189 236,-171 168,-171"/>
<polygon fill="none" stroke="black" points="168,-171 168,-189 236,-189 236,-171 168,-171"/>
<text text-anchor="start" x="205" y="-177.2" font-family="Helvetica,sans-Serif" font-size="11.00">145 &gt;</text>
</a>
</g>
</g>
<!-- ad_broadcastmessage&#45;&gt;ad_client -->
<g id="edge3" class="edge">
<title>ad_broadcastmessage:w&#45;&gt;ad_client:e</title>
<path fill="none" stroke="black" d="M801.07,-212.7C568.13,-203.14 459.15,34.32 277,-119 197.29,-186.1 341.19,-350 237,-350"/>
<polygon fill="black" stroke="black" points="807.5,-212.84 815.43,-216.6 811.5,-212.92 815.5,-213 815.5,-213 815.5,-213 811.5,-212.92 815.57,-209.4 807.5,-212.84 807.5,-212.84"/>
<ellipse fill="none" stroke="black" cx="804.3" cy="-212.77" rx="3.2" ry="3.2"/>
</g>
<!-- ad_role&#45;&gt;ad_user -->
<g id="edge11" class="edge">
<title>ad_role:w&#45;&gt;ad_user:e</title>
<path fill="none" stroke="black" d="M542.09,-590.57C531.06,-599.2 528.32,-617 509.5,-617"/>
<polygon fill="black" stroke="black" points="548.4,-588.5 557.12,-589.42 552.2,-587.25 556,-586 556,-586 556,-586 552.2,-587.25 554.88,-582.58 548.4,-588.5 548.4,-588.5"/>
<ellipse fill="none" stroke="black" cx="545.36" cy="-589.5" rx="3.2" ry="3.2"/>
</g>
<!-- ad_role&#45;&gt;ad_client -->
<g id="edge10" class="edge">
<title>ad_role:w&#45;&gt;ad_client:e</title>
<path fill="none" stroke="black" d="M541.37,-674.33C426.73,-679.45 364.62,-741.77 277,-661 225.77,-613.77 306.68,-350 237,-350"/>
<polygon fill="black" stroke="black" points="548,-674.18 556.08,-677.6 552,-674.09 556,-674 556,-674 556,-674 552,-674.09 555.92,-670.4 548,-674.18 548,-674.18"/>
<ellipse fill="none" stroke="black" cx="544.8" cy="-674.25" rx="3.2" ry="3.2"/>
</g>
<!-- ad_user&#45;&gt;ad_client -->
<g id="edge12" class="edge">
<title>ad_user:w&#45;&gt;ad_client:e</title>
<path fill="none" stroke="black" d="M269.73,-593.17C190.55,-570.75 342.28,-350 237,-350"/>
<polygon fill="black" stroke="black" points="276.56,-594.02 284.06,-598.57 280.53,-594.51 284.5,-595 284.5,-595 284.5,-595 280.53,-594.51 284.94,-591.43 276.56,-594.02 276.56,-594.02"/>
<ellipse fill="none" stroke="black" cx="273.39" cy="-593.62" rx="3.2" ry="3.2"/>
</g>
<!-- ad_broadcastmessage_trl -->
<g id="node5" class="node">
<title>ad_broadcastmessage_trl</title>
<g id="a_node5"><a xlink:href="../../tables/ad_broadcastmessage_trl.html" xlink:title="ad_broadcastmessage_trl" target="_top">
<polygon fill="#ffffff" stroke="transparent" points="1144,-37 1144,-249 1359,-249 1359,-37 1144,-37"/>
<polygon fill="#f5f5f5" stroke="transparent" points="1144.5,-227 1144.5,-249 1359.5,-249 1359.5,-227 1144.5,-227"/>
<polygon fill="none" stroke="black" points="1144.5,-227 1144.5,-249 1359.5,-249 1359.5,-227 1144.5,-227"/>
<text text-anchor="start" x="1149.5" y="-236.2" font-family="Helvetica,sans-Serif" font-weight="bold" font-size="11.00">ad_broadcastmessage_trl</text>
<text text-anchor="start" x="1324.5" y="-235.2" font-family="Helvetica,sans-Serif" font-size="11.00">[table]</text>
<polygon fill="none" stroke="black" points="1144.5,-205 1144.5,-227 1359.5,-227 1359.5,-205 1144.5,-205"/>
<image xlink:href="../../images/primaryKeys.png" width="11px" height="12px" preserveAspectRatio="xMinYMin meet" x="1149.5" y="-222"/>
<text text-anchor="start" x="1164.5" y="-213.2" font-family="Helvetica,sans-Serif" font-size="11.00">ad_broadcastmessage_id</text>
<polygon fill="#ffffff" stroke="transparent" points="1144.5,-183 1144.5,-205 1359.5,-205 1359.5,-183 1144.5,-183"/>
<polygon fill="none" stroke="black" points="1144.5,-183 1144.5,-205 1359.5,-205 1359.5,-183 1144.5,-183"/>
<text text-anchor="start" x="1164.5" y="-191.2" font-family="Helvetica,sans-Serif" font-size="11.00">ad_broadcastmessage_trl_uu</text>
<polygon fill="none" stroke="black" points="1144.5,-161 1144.5,-183 1359.5,-183 1359.5,-161 1144.5,-161"/>
<image xlink:href="../../images/foreignKeys.png" width="11px" height="12px" preserveAspectRatio="xMinYMin meet" x="1149.5" y="-178"/>
<text text-anchor="start" x="1164.5" y="-169.2" font-family="Helvetica,sans-Serif" font-size="11.00">ad_client_id</text>
<polygon fill="none" stroke="black" points="1144.5,-139 1144.5,-161 1359.5,-161 1359.5,-139 1144.5,-139"/>
<image xlink:href="../../images/primaryKeys.png" width="11px" height="12px" preserveAspectRatio="xMinYMin meet" x="1149.5" y="-156"/>
<text text-anchor="start" x="1164.5" y="-147.2" font-family="Helvetica,sans-Serif" font-size="11.00">ad_language</text>
<polygon fill="none" stroke="black" points="1144.5,-117 1144.5,-139 1359.5,-139 1359.5,-117 1144.5,-117"/>
<image xlink:href="../../images/foreignKeys.png" width="11px" height="12px" preserveAspectRatio="xMinYMin meet" x="1149.5" y="-134"/>
<text text-anchor="start" x="1164.5" y="-125.2" font-family="Helvetica,sans-Serif" font-size="11.00">ad_org_id</text>
<polygon fill="none" stroke="black" points="1144.5,-95 1144.5,-117 1359.5,-117 1359.5,-95 1144.5,-95"/>
<image xlink:href="../../images/foreignKeys.png" width="11px" height="12px" preserveAspectRatio="xMinYMin meet" x="1149.5" y="-112"/>
<text text-anchor="start" x="1164.5" y="-103.2" font-family="Helvetica,sans-Serif" font-size="11.00">createdby</text>
<polygon fill="none" stroke="black" points="1144.5,-73 1144.5,-95 1359.5,-95 1359.5,-73 1144.5,-73"/>
<image xlink:href="../../images/foreignKeys.png" width="11px" height="12px" preserveAspectRatio="xMinYMin meet" x="1149.5" y="-90"/>
<text text-anchor="start" x="1164.5" y="-81.2" font-family="Helvetica,sans-Serif" font-size="11.00">updatedby</text>
<polygon fill="none" stroke="black" points="1144.5,-55 1144.5,-73 1359.5,-73 1359.5,-55 1144.5,-55"/>
<text text-anchor="start" x="1147.5" y="-61.2" font-family="Helvetica,sans-Serif" font-size="11.00">...</text>
<polygon fill="#ffffff" stroke="transparent" points="1144.5,-37 1144.5,-55 1236.5,-55 1236.5,-37 1144.5,-37"/>
<polygon fill="none" stroke="black" points="1144.5,-37 1144.5,-55 1236.5,-55 1236.5,-37 1144.5,-37"/>
<text text-anchor="start" x="1147.5" y="-43.2" font-family="Helvetica,sans-Serif" font-size="11.00">&lt; 6</text>
<polygon fill="#ffffff" stroke="transparent" points="1236.5,-37 1236.5,-55 1310.5,-55 1310.5,-37 1236.5,-37"/>
<polygon fill="none" stroke="black" points="1236.5,-37 1236.5,-55 1310.5,-55 1310.5,-37 1236.5,-37"/>
<text text-anchor="start" x="1274.5" y="-43.2" font-family="Helvetica,sans-Serif" font-size="11.00">0 rows</text>
<polygon fill="#ffffff" stroke="transparent" points="1310.5,-37 1310.5,-55 1359.5,-55 1359.5,-37 1310.5,-37"/>
<polygon fill="none" stroke="black" points="1310.5,-37 1310.5,-55 1359.5,-55 1359.5,-37 1310.5,-37"/>
<text text-anchor="start" x="1349.5" y="-43.2" font-family="Helvetica,sans-Serif" font-size="11.00"> &#160;</text>
</a>
</g>
</g>
<!-- ad_broadcastmessage_trl&#45;&gt;ad_broadcastmessage -->
<g id="edge4" class="edge">
<title>ad_broadcastmessage_trl:w&#45;&gt;ad_broadcastmessage:e</title>
<path fill="none" stroke="black" d="M1129.57,-219.81C1102.41,-238.87 1140.88,-323 1094.5,-323"/>
<polygon fill="black" stroke="black" points="1135.78,-218.11 1144.45,-219.47 1139.64,-217.05 1143.5,-216 1143.5,-216 1143.5,-216 1139.64,-217.05 1142.55,-212.53 1135.78,-218.11 1135.78,-218.11"/>
<ellipse fill="none" stroke="black" cx="1132.7" cy="-218.95" rx="3.2" ry="3.2"/>
</g>
<!-- ad_broadcastmessage_trl&#45;&gt;ad_user -->
<g id="edge6" class="edge">
<title>ad_broadcastmessage_trl:w&#45;&gt;ad_user:e</title>
<path fill="none" stroke="black" d="M1128.76,-105.93C988.83,-104.52 937.19,-84.49 806,-149 660.76,-220.42 624.41,-263.79 549,-407 526.88,-449.02 556.99,-617 509.5,-617"/>
<polygon fill="black" stroke="black" points="1135.5,-105.96 1143.48,-109.6 1139.5,-105.98 1143.5,-106 1143.5,-106 1143.5,-106 1139.5,-105.98 1143.52,-102.4 1135.5,-105.96 1135.5,-105.96"/>
<ellipse fill="none" stroke="black" cx="1132.3" cy="-105.94" rx="3.2" ry="3.2"/>
</g>
<!-- ad_broadcastmessage_trl&#45;&gt;ad_user -->
<g id="edge7" class="edge">
<title>ad_broadcastmessage_trl:w&#45;&gt;ad_user:e</title>
<path fill="none" stroke="black" d="M1128.77,-83.88C871.13,-79.55 718.57,35.28 549,-164 516.26,-202.48 560.02,-617 509.5,-617"/>
<polygon fill="black" stroke="black" points="1135.5,-83.93 1143.47,-87.6 1139.5,-83.97 1143.5,-84 1143.5,-84 1143.5,-84 1139.5,-83.97 1143.53,-80.4 1135.5,-83.93 1135.5,-83.93"/>
<ellipse fill="none" stroke="black" cx="1132.3" cy="-83.91" rx="3.2" ry="3.2"/>
</g>
<!-- ad_broadcastmessage_trl&#45;&gt;ad_client -->
<g id="edge5" class="edge">
<title>ad_broadcastmessage_trl:w&#45;&gt;ad_client:e</title>
<path fill="none" stroke="black" d="M1129.44,-168.36C1120.97,-163.16 1116.78,-153.7 1103,-149 853.6,-64 778.83,-84.49 516,-66 410.04,-58.55 357.18,3.68 277,-66 228.89,-107.81 300.73,-350 237,-350"/>
<polygon fill="black" stroke="black" points="1135.75,-170 1142.6,-175.49 1139.63,-171 1143.5,-172 1143.5,-172 1143.5,-172 1139.63,-171 1144.4,-168.51 1135.75,-170 1135.75,-170"/>
<ellipse fill="none" stroke="black" cx="1132.66" cy="-169.2" rx="3.2" ry="3.2"/>
</g>
<!-- ad_note -->
<g id="node6" class="node">
<title>ad_note</title>
<g id="a_node6"><a xlink:href="../../tables/ad_note.html" xlink:title="ad_note" target="_top">
<polygon fill="#ffffff" stroke="transparent" points="1157,-426 1157,-704 1346,-704 1346,-426 1157,-426"/>
<polygon fill="#f5f5f5" stroke="transparent" points="1157.5,-682 1157.5,-704 1346.5,-704 1346.5,-682 1157.5,-682"/>
<polygon fill="none" stroke="black" points="1157.5,-682 1157.5,-704 1346.5,-704 1346.5,-682 1157.5,-682"/>
<text text-anchor="start" x="1162.5" y="-691.2" font-family="Helvetica,sans-Serif" font-weight="bold" font-size="11.00">ad_note</text>
<text text-anchor="start" x="1311.5" y="-690.2" font-family="Helvetica,sans-Serif" font-size="11.00">[table]</text>
<polygon fill="none" stroke="black" points="1157.5,-660 1157.5,-682 1346.5,-682 1346.5,-660 1157.5,-660"/>
<image xlink:href="../../images/primaryKeys.png" width="11px" height="12px" preserveAspectRatio="xMinYMin meet" x="1162.5" y="-677"/>
<text text-anchor="start" x="1177.5" y="-668.2" font-family="Helvetica,sans-Serif" font-size="11.00">ad_note_id</text>
<polygon fill="#ffffff" stroke="transparent" points="1157.5,-638 1157.5,-660 1346.5,-660 1346.5,-638 1157.5,-638"/>
<polygon fill="none" stroke="black" points="1157.5,-638 1157.5,-660 1346.5,-660 1346.5,-638 1157.5,-638"/>
<text text-anchor="start" x="1177.5" y="-646.2" font-family="Helvetica,sans-Serif" font-size="11.00">ad_client_id</text>
<polygon fill="#ffffff" stroke="transparent" points="1157.5,-616 1157.5,-638 1346.5,-638 1346.5,-616 1157.5,-616"/>
<polygon fill="none" stroke="black" points="1157.5,-616 1157.5,-638 1346.5,-638 1346.5,-616 1157.5,-616"/>
<image xlink:href="../../images/foreignKeys.png" width="11px" height="12px" preserveAspectRatio="xMinYMin meet" x="1162.5" y="-633"/>
<text text-anchor="start" x="1177.5" y="-624.2" font-family="Helvetica,sans-Serif" font-size="11.00">ad_user_id</text>
<polygon fill="none" stroke="black" points="1157.5,-594 1157.5,-616 1346.5,-616 1346.5,-594 1157.5,-594"/>
<image xlink:href="../../images/foreignKeys.png" width="11px" height="12px" preserveAspectRatio="xMinYMin meet" x="1162.5" y="-611"/>
<text text-anchor="start" x="1177.5" y="-602.2" font-family="Helvetica,sans-Serif" font-size="11.00">ad_message_id</text>
<polygon fill="#ffffff" stroke="transparent" points="1157.5,-572 1157.5,-594 1346.5,-594 1346.5,-572 1157.5,-572"/>
<polygon fill="none" stroke="black" points="1157.5,-572 1157.5,-594 1346.5,-594 1346.5,-572 1157.5,-572"/>
<image xlink:href="../../images/foreignKeys.png" width="11px" height="12px" preserveAspectRatio="xMinYMin meet" x="1162.5" y="-589"/>
<text text-anchor="start" x="1177.5" y="-580.2" font-family="Helvetica,sans-Serif" font-size="11.00">ad_table_id</text>
<polygon fill="#ffffff" stroke="transparent" points="1157.5,-550 1157.5,-572 1346.5,-572 1346.5,-550 1157.5,-550"/>
<polygon fill="none" stroke="black" points="1157.5,-550 1157.5,-572 1346.5,-572 1346.5,-550 1157.5,-550"/>
<text text-anchor="start" x="1177.5" y="-558.2" font-family="Helvetica,sans-Serif" font-size="11.00">record_id</text>
<polygon fill="#ffffff" stroke="transparent" points="1157.5,-528 1157.5,-550 1346.5,-550 1346.5,-528 1157.5,-528"/>
<polygon fill="none" stroke="black" points="1157.5,-528 1157.5,-550 1346.5,-550 1346.5,-528 1157.5,-528"/>
<text text-anchor="start" x="1177.5" y="-536.2" font-family="Helvetica,sans-Serif" font-size="11.00">processed</text>
<polygon fill="none" stroke="black" points="1157.5,-506 1157.5,-528 1346.5,-528 1346.5,-506 1157.5,-506"/>
<image xlink:href="../../images/foreignKeys.png" width="11px" height="12px" preserveAspectRatio="xMinYMin meet" x="1162.5" y="-523"/>
<text text-anchor="start" x="1177.5" y="-514.2" font-family="Helvetica,sans-Serif" font-size="11.00">ad_wf_activity_id</text>
<polygon fill="#ffffff" stroke="transparent" points="1157.5,-484 1157.5,-506 1346.5,-506 1346.5,-484 1157.5,-484"/>
<polygon fill="none" stroke="black" points="1157.5,-484 1157.5,-506 1346.5,-506 1346.5,-484 1157.5,-484"/>
<text text-anchor="start" x="1177.5" y="-492.2" font-family="Helvetica,sans-Serif" font-size="11.00">ad_note_uu</text>
<polygon fill="#ffffff" stroke="transparent" points="1157.5,-462 1157.5,-484 1346.5,-484 1346.5,-462 1157.5,-462"/>
<polygon fill="none" stroke="black" points="1157.5,-462 1157.5,-484 1346.5,-484 1346.5,-462 1157.5,-462"/>
<image xlink:href="../../images/foreignKeys.png" width="11px" height="12px" preserveAspectRatio="xMinYMin meet" x="1162.5" y="-479"/>
<text text-anchor="start" x="1177.5" y="-470.2" font-family="Helvetica,sans-Serif" font-size="11.00">ad_broadcastmessage_id</text>
<polygon fill="none" stroke="black" points="1157.5,-444 1157.5,-462 1346.5,-462 1346.5,-444 1157.5,-444"/>
<text text-anchor="start" x="1160.5" y="-450.2" font-family="Helvetica,sans-Serif" font-size="11.00">...</text>
<polygon fill="#ffffff" stroke="transparent" points="1157.5,-426 1157.5,-444 1236.5,-444 1236.5,-426 1157.5,-426"/>
<polygon fill="none" stroke="black" points="1157.5,-426 1157.5,-444 1236.5,-444 1236.5,-426 1157.5,-426"/>
<text text-anchor="start" x="1160.5" y="-432.2" font-family="Helvetica,sans-Serif" font-size="11.00">&lt; 5</text>
<polygon fill="#ffffff" stroke="transparent" points="1236.5,-426 1236.5,-444 1304.5,-444 1304.5,-426 1236.5,-426"/>
<polygon fill="none" stroke="black" points="1236.5,-426 1236.5,-444 1304.5,-444 1304.5,-426 1236.5,-426"/>
<text text-anchor="start" x="1268.5" y="-432.2" font-family="Helvetica,sans-Serif" font-size="11.00">0 rows</text>
<polygon fill="#ffffff" stroke="transparent" points="1304.5,-426 1304.5,-444 1346.5,-444 1346.5,-426 1304.5,-426"/>
<polygon fill="none" stroke="black" points="1304.5,-426 1304.5,-444 1346.5,-444 1346.5,-426 1304.5,-426"/>
<text text-anchor="start" x="1336.5" y="-432.2" font-family="Helvetica,sans-Serif" font-size="11.00"> &#160;</text>
</a>
</g>
</g>
<!-- ad_note&#45;&gt;ad_broadcastmessage -->
<g id="edge8" class="edge">
<title>ad_note:w&#45;&gt;ad_broadcastmessage:e</title>
<path fill="none" stroke="black" d="M1142.27,-470.4C1096.28,-450.48 1161,-323 1094.5,-323"/>
<polygon fill="black" stroke="black" points="1148.63,-471.56 1155.85,-476.54 1152.57,-472.28 1156.5,-473 1156.5,-473 1156.5,-473 1152.57,-472.28 1157.15,-469.46 1148.63,-471.56 1148.63,-471.56"/>
<ellipse fill="none" stroke="black" cx="1145.48" cy="-470.98" rx="3.2" ry="3.2"/>
</g>
<!-- ad_note&#45;&gt;ad_user -->
<g id="edge9" class="edge">
<title>ad_note:w&#45;&gt;ad_user:e</title>
<path fill="none" stroke="black" d="M1142.05,-629.23C1101.48,-644.23 1152.5,-731.1 1103,-765 994.09,-839.58 937.84,-771.4 806,-765 691.37,-759.44 638.34,-812.03 549,-740 504.3,-703.96 566.92,-617 509.5,-617"/>
<polygon fill="black" stroke="black" points="1148.59,-628.22 1157.05,-630.56 1152.55,-627.61 1156.5,-627 1156.5,-627 1156.5,-627 1152.55,-627.61 1155.95,-623.44 1148.59,-628.22 1148.59,-628.22"/>
<ellipse fill="none" stroke="black" cx="1145.43" cy="-628.7" rx="3.2" ry="3.2"/>
</g>
</g>
</svg>
