<?xml version="1.0" encoding="UTF-8" standalone="no"?>
<!DOCTYPE svg PUBLIC "-//W3C//DTD SVG 1.1//EN"
 "http://www.w3.org/Graphics/SVG/1.1/DTD/svg11.dtd">
<!-- Generated by graphviz version 2.43.0 (0)
 -->
<!-- Title: oneDegreeRelationshipsDiagram Pages: 1 -->
<svg width="711pt" height="559pt"
 viewBox="0.00 0.00 711.00 558.98" xmlns="http://www.w3.org/2000/svg" xmlns:xlink="http://www.w3.org/1999/xlink">
<g id="graph0" class="graph" transform="scale(1 1) rotate(0) translate(4 554.98)">
<title>oneDegreeRelationshipsDiagram</title>
<polygon fill="#ffffff" stroke="transparent" points="-4,4 -4,-554.98 707,-554.98 707,4 -4,4"/>
<text text-anchor="middle" x="71.5" y="-7.2" font-family="Helvetica,sans-Serif" font-size="11.00">Generated by SchemaSpy</text>
<!-- ad_ctxhelpmsg -->
<g id="node1" class="node">
<title>ad_ctxhelpmsg</title>
<g id="a_node1"><a xlink:href="../../tables/ad_ctxhelpmsg.html" xlink:title="ad_ctxhelpmsg" target="_top">
<polygon fill="#ffffff" stroke="transparent" points="197,-351 197,-519 341,-519 341,-351 197,-351"/>
<polygon fill="#f5f5f5" stroke="transparent" points="197,-497 197,-519 341,-519 341,-497 197,-497"/>
<polygon fill="none" stroke="black" points="197,-497 197,-519 341,-519 341,-497 197,-497"/>
<text text-anchor="start" x="202" y="-506.2" font-family="Helvetica,sans-Serif" font-weight="bold" font-size="11.00">ad_ctxhelpmsg</text>
<text text-anchor="start" x="306" y="-505.2" font-family="Helvetica,sans-Serif" font-size="11.00">[table]</text>
<polygon fill="#ffffff" stroke="transparent" points="197,-475 197,-497 341,-497 341,-475 197,-475"/>
<polygon fill="none" stroke="black" points="197,-475 197,-497 341,-497 341,-475 197,-475"/>
<text text-anchor="start" x="217" y="-483.2" font-family="Helvetica,sans-Serif" font-size="11.00">ad_client_id</text>
<polygon fill="#ffffff" stroke="transparent" points="197,-453 197,-475 341,-475 341,-453 197,-453"/>
<polygon fill="none" stroke="black" points="197,-453 197,-475 341,-475 341,-453 197,-453"/>
<image xlink:href="../../images/foreignKeys.png" width="11px" height="12px" preserveAspectRatio="xMinYMin meet" x="202" y="-470"/>
<text text-anchor="start" x="217" y="-461.2" font-family="Helvetica,sans-Serif" font-size="11.00">ad_ctxhelp_id</text>
<polygon fill="none" stroke="black" points="197,-431 197,-453 341,-453 341,-431 197,-431"/>
<image xlink:href="../../images/primaryKeys.png" width="11px" height="12px" preserveAspectRatio="xMinYMin meet" x="202" y="-448"/>
<text text-anchor="start" x="217" y="-439.2" font-family="Helvetica,sans-Serif" font-size="11.00">ad_ctxhelpmsg_id</text>
<polygon fill="#ffffff" stroke="transparent" points="197,-409 197,-431 341,-431 341,-409 197,-409"/>
<polygon fill="none" stroke="black" points="197,-409 197,-431 341,-431 341,-409 197,-409"/>
<text text-anchor="start" x="217" y="-417.2" font-family="Helvetica,sans-Serif" font-size="11.00">ad_ctxhelpmsg_uu</text>
<polygon fill="#ffffff" stroke="transparent" points="197,-387 197,-409 341,-409 341,-387 197,-387"/>
<polygon fill="none" stroke="black" points="197,-387 197,-409 341,-409 341,-387 197,-387"/>
<text text-anchor="start" x="217" y="-395.2" font-family="Helvetica,sans-Serif" font-size="11.00">ad_org_id</text>
<polygon fill="none" stroke="black" points="197,-369 197,-387 341,-387 341,-369 197,-369"/>
<text text-anchor="start" x="200" y="-375.2" font-family="Helvetica,sans-Serif" font-size="11.00">...</text>
<polygon fill="#ffffff" stroke="transparent" points="197,-351 197,-369 252,-369 252,-351 197,-351"/>
<polygon fill="none" stroke="black" points="197,-351 197,-369 252,-369 252,-351 197,-351"/>
<text text-anchor="start" x="200" y="-357.2" font-family="Helvetica,sans-Serif" font-size="11.00">&lt; 1</text>
<polygon fill="#ffffff" stroke="transparent" points="252,-351 252,-369 302,-369 302,-351 252,-351"/>
<polygon fill="none" stroke="black" points="252,-351 252,-369 302,-369 302,-351 252,-351"/>
<text text-anchor="start" x="271" y="-357.2" font-family="Helvetica,sans-Serif" font-size="11.00">1 row</text>
<polygon fill="#ffffff" stroke="transparent" points="302,-351 302,-369 341,-369 341,-351 302,-351"/>
<polygon fill="none" stroke="black" points="302,-351 302,-369 341,-369 341,-351 302,-351"/>
<text text-anchor="start" x="322" y="-357.2" font-family="Helvetica,sans-Serif" font-size="11.00">2 &gt;</text>
</a>
</g>
</g>
<!-- ad_ctxhelp -->
<g id="node2" class="node">
<title>ad_ctxhelp</title>
<g id="a_node2"><a xlink:href="../../tables/ad_ctxhelp.html" xlink:title="ad_ctxhelp" target="_top">
<polygon fill="#ffffff" stroke="transparent" points="8,-280 8,-536 148,-536 148,-280 8,-280"/>
<polygon fill="#f5f5f5" stroke="transparent" points="8,-514 8,-536 148,-536 148,-514 8,-514"/>
<polygon fill="none" stroke="black" points="8,-514 8,-536 148,-536 148,-514 8,-514"/>
<text text-anchor="start" x="13" y="-523.2" font-family="Helvetica,sans-Serif" font-weight="bold" font-size="11.00">ad_ctxhelp</text>
<text text-anchor="start" x="113" y="-522.2" font-family="Helvetica,sans-Serif" font-size="11.00">[table]</text>
<polygon fill="none" stroke="black" points="8,-492 8,-514 148,-514 148,-492 8,-492"/>
<image xlink:href="../../images/primaryKeys.png" width="11px" height="12px" preserveAspectRatio="xMinYMin meet" x="13" y="-509"/>
<text text-anchor="start" x="28" y="-500.2" font-family="Helvetica,sans-Serif" font-size="11.00">ad_ctxhelp_id</text>
<polygon fill="#ffffff" stroke="transparent" points="8,-470 8,-492 148,-492 148,-470 8,-470"/>
<polygon fill="none" stroke="black" points="8,-470 8,-492 148,-492 148,-470 8,-470"/>
<text text-anchor="start" x="28" y="-478.2" font-family="Helvetica,sans-Serif" font-size="11.00">ad_ctxhelp_uu</text>
<polygon fill="none" stroke="black" points="8,-448 8,-470 148,-470 148,-448 8,-448"/>
<image xlink:href="../../images/foreignKeys.png" width="11px" height="12px" preserveAspectRatio="xMinYMin meet" x="13" y="-465"/>
<text text-anchor="start" x="28" y="-456.2" font-family="Helvetica,sans-Serif" font-size="11.00">ad_form_id</text>
<polygon fill="none" stroke="black" points="8,-426 8,-448 148,-448 148,-426 8,-426"/>
<image xlink:href="../../images/foreignKeys.png" width="11px" height="12px" preserveAspectRatio="xMinYMin meet" x="13" y="-443"/>
<text text-anchor="start" x="28" y="-434.2" font-family="Helvetica,sans-Serif" font-size="11.00">ad_process_id</text>
<polygon fill="none" stroke="black" points="8,-404 8,-426 148,-426 148,-404 8,-404"/>
<image xlink:href="../../images/foreignKeys.png" width="11px" height="12px" preserveAspectRatio="xMinYMin meet" x="13" y="-421"/>
<text text-anchor="start" x="28" y="-412.2" font-family="Helvetica,sans-Serif" font-size="11.00">ad_tab_id</text>
<polygon fill="none" stroke="black" points="8,-382 8,-404 148,-404 148,-382 8,-382"/>
<image xlink:href="../../images/foreignKeys.png" width="11px" height="12px" preserveAspectRatio="xMinYMin meet" x="13" y="-399"/>
<text text-anchor="start" x="28" y="-390.2" font-family="Helvetica,sans-Serif" font-size="11.00">ad_infowindow_id</text>
<polygon fill="none" stroke="black" points="8,-360 8,-382 148,-382 148,-360 8,-360"/>
<image xlink:href="../../images/foreignKeys.png" width="11px" height="12px" preserveAspectRatio="xMinYMin meet" x="13" y="-377"/>
<text text-anchor="start" x="28" y="-368.2" font-family="Helvetica,sans-Serif" font-size="11.00">ad_workflow_id</text>
<polygon fill="none" stroke="black" points="8,-338 8,-360 148,-360 148,-338 8,-338"/>
<image xlink:href="../../images/foreignKeys.png" width="11px" height="12px" preserveAspectRatio="xMinYMin meet" x="13" y="-355"/>
<text text-anchor="start" x="28" y="-346.2" font-family="Helvetica,sans-Serif" font-size="11.00">ad_task_id</text>
<polygon fill="none" stroke="black" points="8,-316 8,-338 148,-338 148,-316 8,-316"/>
<image xlink:href="../../images/foreignKeys.png" width="11px" height="12px" preserveAspectRatio="xMinYMin meet" x="13" y="-333"/>
<text text-anchor="start" x="28" y="-324.2" font-family="Helvetica,sans-Serif" font-size="11.00">ad_table_id</text>
<polygon fill="none" stroke="black" points="8,-298 8,-316 148,-316 148,-298 8,-298"/>
<text text-anchor="start" x="11" y="-304.2" font-family="Helvetica,sans-Serif" font-size="11.00">...</text>
<polygon fill="#ffffff" stroke="transparent" points="8,-280 8,-298 56,-298 56,-280 8,-280"/>
<polygon fill="none" stroke="black" points="8,-280 8,-298 56,-298 56,-280 8,-280"/>
<text text-anchor="start" x="11" y="-286.2" font-family="Helvetica,sans-Serif" font-size="11.00"> &#160;</text>
<polygon fill="#ffffff" stroke="transparent" points="56,-280 56,-298 108,-298 108,-280 56,-280"/>
<polygon fill="none" stroke="black" points="56,-280 56,-298 108,-298 108,-280 56,-280"/>
<text text-anchor="start" x="77" y="-286.2" font-family="Helvetica,sans-Serif" font-size="11.00">1 row</text>
<polygon fill="#ffffff" stroke="transparent" points="108,-280 108,-298 148,-298 148,-280 108,-280"/>
<polygon fill="none" stroke="black" points="108,-280 108,-298 148,-298 148,-280 108,-280"/>
<text text-anchor="start" x="129" y="-286.2" font-family="Helvetica,sans-Serif" font-size="11.00">9 &gt;</text>
</a>
</g>
</g>
<!-- ad_ctxhelpmsg&#45;&gt;ad_ctxhelp -->
<g id="edge1" class="edge">
<title>ad_ctxhelpmsg:w&#45;&gt;ad_ctxhelp:e</title>
<path fill="none" stroke="black" d="M182.41,-468.78C170.4,-479.2 170.21,-503 149,-503"/>
<polygon fill="black" stroke="black" points="188.45,-466.66 197.19,-467.4 192.23,-465.33 196,-464 196,-464 196,-464 192.23,-465.33 194.81,-460.6 188.45,-466.66 188.45,-466.66"/>
<ellipse fill="none" stroke="black" cx="185.43" cy="-467.72" rx="3.2" ry="3.2"/>
</g>
<!-- ad_ctxhelpsuggestion -->
<g id="node3" class="node">
<title>ad_ctxhelpsuggestion</title>
<g id="a_node3"><a xlink:href="../../tables/ad_ctxhelpsuggestion.html" xlink:title="ad_ctxhelpsuggestion" target="_top">
<polygon fill="#ffffff" stroke="transparent" points="390,-37 390,-543 695,-543 695,-37 390,-37"/>
<polygon fill="#f5f5f5" stroke="transparent" points="392.5,-519 392.5,-541 693.5,-541 693.5,-519 392.5,-519"/>
<polygon fill="none" stroke="black" points="392.5,-519 392.5,-541 693.5,-541 693.5,-519 392.5,-519"/>
<text text-anchor="start" x="397.5" y="-528.2" font-family="Helvetica,sans-Serif" font-weight="bold" font-size="11.00">ad_ctxhelpsuggestion</text>
<text text-anchor="start" x="658.5" y="-527.2" font-family="Helvetica,sans-Serif" font-size="11.00">[table]</text>
<polygon fill="none" stroke="black" points="392.5,-497 392.5,-519 610.5,-519 610.5,-497 392.5,-497"/>
<image xlink:href="../../images/primaryKeys.png" width="11px" height="12px" preserveAspectRatio="xMinYMin meet" x="397.5" y="-514"/>
<text text-anchor="start" x="412.5" y="-505.2" font-family="Helvetica,sans-Serif" font-size="11.00">ad_ctxhelpsuggestion_id</text>
<polygon fill="none" stroke="black" points="610.5,-497 610.5,-519 693.5,-519 693.5,-497 610.5,-497"/>
<text text-anchor="start" x="613.5" y="-505.2" font-family="Helvetica,sans-Serif" font-size="11.00">numeric[10]</text>
<polygon fill="none" stroke="black" points="392.5,-475 392.5,-497 610.5,-497 610.5,-475 392.5,-475"/>
<text text-anchor="start" x="412.5" y="-483.2" font-family="Helvetica,sans-Serif" font-size="11.00">ad_client_id</text>
<polygon fill="none" stroke="black" points="610.5,-475 610.5,-497 693.5,-497 693.5,-475 610.5,-475"/>
<text text-anchor="start" x="613.5" y="-483.2" font-family="Helvetica,sans-Serif" font-size="11.00">numeric[10]</text>
<polygon fill="none" stroke="black" points="392.5,-453 392.5,-475 610.5,-475 610.5,-453 392.5,-453"/>
<image xlink:href="../../images/foreignKeys.png" width="11px" height="12px" preserveAspectRatio="xMinYMin meet" x="397.5" y="-470"/>
<text text-anchor="start" x="412.5" y="-461.2" font-family="Helvetica,sans-Serif" font-size="11.00">ad_ctxhelp_id</text>
<polygon fill="none" stroke="black" points="610.5,-453 610.5,-475 693.5,-475 693.5,-453 610.5,-453"/>
<text text-anchor="start" x="613.5" y="-461.2" font-family="Helvetica,sans-Serif" font-size="11.00">numeric[10]</text>
<polygon fill="none" stroke="black" points="392.5,-431 392.5,-453 610.5,-453 610.5,-431 392.5,-431"/>
<image xlink:href="../../images/foreignKeys.png" width="11px" height="12px" preserveAspectRatio="xMinYMin meet" x="397.5" y="-448"/>
<text text-anchor="start" x="412.5" y="-439.2" font-family="Helvetica,sans-Serif" font-size="11.00">ad_ctxhelpmsg_id</text>
<polygon fill="none" stroke="black" points="610.5,-431 610.5,-453 693.5,-453 693.5,-431 610.5,-431"/>
<text text-anchor="start" x="613.5" y="-439.2" font-family="Helvetica,sans-Serif" font-size="11.00">numeric[10]</text>
<polygon fill="#ffffff" stroke="transparent" points="392.5,-409 392.5,-431 610.5,-431 610.5,-409 392.5,-409"/>
<polygon fill="none" stroke="black" points="392.5,-409 392.5,-431 610.5,-431 610.5,-409 392.5,-409"/>
<text text-anchor="start" x="412.5" y="-417.2" font-family="Helvetica,sans-Serif" font-size="11.00">ad_ctxhelpsuggestion_uu</text>
<polygon fill="none" stroke="black" points="610.5,-409 610.5,-431 693.5,-431 693.5,-409 610.5,-409"/>
<text text-anchor="start" x="613.5" y="-417.2" font-family="Helvetica,sans-Serif" font-size="11.00">varchar[36]</text>
<polygon fill="none" stroke="black" points="392.5,-387 392.5,-409 610.5,-409 610.5,-387 392.5,-387"/>
<image xlink:href="../../images/foreignKeys.png" width="11px" height="12px" preserveAspectRatio="xMinYMin meet" x="397.5" y="-404"/>
<text text-anchor="start" x="412.5" y="-395.2" font-family="Helvetica,sans-Serif" font-size="11.00">ad_language</text>
<polygon fill="none" stroke="black" points="610.5,-387 610.5,-409 693.5,-409 693.5,-387 610.5,-387"/>
<text text-anchor="start" x="613.5" y="-395.2" font-family="Helvetica,sans-Serif" font-size="11.00">varchar[6]</text>
<polygon fill="none" stroke="black" points="392.5,-365 392.5,-387 610.5,-387 610.5,-365 392.5,-365"/>
<text text-anchor="start" x="412.5" y="-373.2" font-family="Helvetica,sans-Serif" font-size="11.00">ad_org_id</text>
<polygon fill="none" stroke="black" points="610.5,-365 610.5,-387 693.5,-387 693.5,-365 610.5,-365"/>
<text text-anchor="start" x="613.5" y="-373.2" font-family="Helvetica,sans-Serif" font-size="11.00">numeric[10]</text>
<polygon fill="none" stroke="black" points="392.5,-343 392.5,-365 610.5,-365 610.5,-343 392.5,-343"/>
<text text-anchor="start" x="412.5" y="-351.2" font-family="Helvetica,sans-Serif" font-size="11.00">ad_userclient_id</text>
<polygon fill="none" stroke="black" points="610.5,-343 610.5,-365 693.5,-365 693.5,-343 610.5,-343"/>
<text text-anchor="start" x="613.5" y="-351.2" font-family="Helvetica,sans-Serif" font-size="11.00">numeric[10]</text>
<polygon fill="none" stroke="black" points="392.5,-321 392.5,-343 610.5,-343 610.5,-321 392.5,-321"/>
<text text-anchor="start" x="412.5" y="-329.2" font-family="Helvetica,sans-Serif" font-size="11.00">ad_user_id</text>
<polygon fill="none" stroke="black" points="610.5,-321 610.5,-343 693.5,-343 693.5,-321 610.5,-321"/>
<text text-anchor="start" x="613.5" y="-329.2" font-family="Helvetica,sans-Serif" font-size="11.00">numeric[10]</text>
<polygon fill="none" stroke="black" points="392.5,-299 392.5,-321 610.5,-321 610.5,-299 392.5,-299"/>
<text text-anchor="start" x="412.5" y="-307.2" font-family="Helvetica,sans-Serif" font-size="11.00">created</text>
<polygon fill="none" stroke="black" points="610.5,-299 610.5,-321 693.5,-321 693.5,-299 610.5,-299"/>
<text text-anchor="start" x="613.5" y="-307.2" font-family="Helvetica,sans-Serif" font-size="11.00">timestamp[29,6]</text>
<polygon fill="none" stroke="black" points="392.5,-277 392.5,-299 610.5,-299 610.5,-277 392.5,-277"/>
<text text-anchor="start" x="412.5" y="-285.2" font-family="Helvetica,sans-Serif" font-size="11.00">createdby</text>
<polygon fill="none" stroke="black" points="610.5,-277 610.5,-299 693.5,-299 693.5,-277 610.5,-277"/>
<text text-anchor="start" x="613.5" y="-285.2" font-family="Helvetica,sans-Serif" font-size="11.00">numeric[10]</text>
<polygon fill="none" stroke="black" points="392.5,-255 392.5,-277 610.5,-277 610.5,-255 392.5,-255"/>
<text text-anchor="start" x="412.5" y="-263.2" font-family="Helvetica,sans-Serif" font-size="11.00">msgtext</text>
<polygon fill="none" stroke="black" points="610.5,-255 610.5,-277 693.5,-277 693.5,-255 610.5,-255"/>
<text text-anchor="start" x="613.5" y="-263.2" font-family="Helvetica,sans-Serif" font-size="11.00">varchar[2000]</text>
<polygon fill="none" stroke="black" points="392.5,-233 392.5,-255 610.5,-255 610.5,-233 392.5,-233"/>
<text text-anchor="start" x="412.5" y="-241.2" font-family="Helvetica,sans-Serif" font-size="11.00">isactive</text>
<polygon fill="none" stroke="black" points="610.5,-233 610.5,-255 693.5,-255 693.5,-233 610.5,-233"/>
<text text-anchor="start" x="613.5" y="-241.2" font-family="Helvetica,sans-Serif" font-size="11.00">bpchar[1]</text>
<polygon fill="none" stroke="black" points="392.5,-211 392.5,-233 610.5,-233 610.5,-211 392.5,-211"/>
<text text-anchor="start" x="412.5" y="-219.2" font-family="Helvetica,sans-Serif" font-size="11.00">isapproved</text>
<polygon fill="none" stroke="black" points="610.5,-211 610.5,-233 693.5,-233 693.5,-211 610.5,-211"/>
<text text-anchor="start" x="613.5" y="-219.2" font-family="Helvetica,sans-Serif" font-size="11.00">bpchar[1]</text>
<polygon fill="none" stroke="black" points="392.5,-189 392.5,-211 610.5,-211 610.5,-189 392.5,-189"/>
<text text-anchor="start" x="412.5" y="-197.2" font-family="Helvetica,sans-Serif" font-size="11.00">processed</text>
<polygon fill="none" stroke="black" points="610.5,-189 610.5,-211 693.5,-211 693.5,-189 610.5,-189"/>
<text text-anchor="start" x="613.5" y="-197.2" font-family="Helvetica,sans-Serif" font-size="11.00">bpchar[1]</text>
<polygon fill="none" stroke="black" points="392.5,-167 392.5,-189 610.5,-189 610.5,-167 392.5,-167"/>
<text text-anchor="start" x="412.5" y="-175.2" font-family="Helvetica,sans-Serif" font-size="11.00">updated</text>
<polygon fill="none" stroke="black" points="610.5,-167 610.5,-189 693.5,-189 693.5,-167 610.5,-167"/>
<text text-anchor="start" x="613.5" y="-175.2" font-family="Helvetica,sans-Serif" font-size="11.00">timestamp[29,6]</text>
<polygon fill="none" stroke="black" points="392.5,-145 392.5,-167 610.5,-167 610.5,-145 392.5,-145"/>
<text text-anchor="start" x="412.5" y="-153.2" font-family="Helvetica,sans-Serif" font-size="11.00">updatedby</text>
<polygon fill="none" stroke="black" points="610.5,-145 610.5,-167 693.5,-167 693.5,-145 610.5,-145"/>
<text text-anchor="start" x="613.5" y="-153.2" font-family="Helvetica,sans-Serif" font-size="11.00">numeric[10]</text>
<polygon fill="none" stroke="black" points="392.5,-123 392.5,-145 610.5,-145 610.5,-123 392.5,-123"/>
<text text-anchor="start" x="412.5" y="-131.2" font-family="Helvetica,sans-Serif" font-size="11.00">acceptsuggestion</text>
<polygon fill="none" stroke="black" points="610.5,-123 610.5,-145 693.5,-145 693.5,-123 610.5,-123"/>
<text text-anchor="start" x="613.5" y="-131.2" font-family="Helvetica,sans-Serif" font-size="11.00">bpchar[1]</text>
<polygon fill="none" stroke="black" points="392.5,-101 392.5,-123 610.5,-123 610.5,-101 392.5,-101"/>
<text text-anchor="start" x="412.5" y="-109.2" font-family="Helvetica,sans-Serif" font-size="11.00">rejectsuggestion</text>
<polygon fill="none" stroke="black" points="610.5,-101 610.5,-123 693.5,-123 693.5,-101 610.5,-101"/>
<text text-anchor="start" x="613.5" y="-109.2" font-family="Helvetica,sans-Serif" font-size="11.00">bpchar[1]</text>
<polygon fill="none" stroke="black" points="392.5,-79 392.5,-101 610.5,-101 610.5,-79 392.5,-79"/>
<text text-anchor="start" x="412.5" y="-87.2" font-family="Helvetica,sans-Serif" font-size="11.00">comparesuggestion</text>
<polygon fill="none" stroke="black" points="610.5,-79 610.5,-101 693.5,-101 693.5,-79 610.5,-79"/>
<text text-anchor="start" x="613.5" y="-87.2" font-family="Helvetica,sans-Serif" font-size="11.00">bpchar[1]</text>
<polygon fill="none" stroke="black" points="392.5,-57 392.5,-79 610.5,-79 610.5,-57 392.5,-57"/>
<text text-anchor="start" x="412.5" y="-65.2" font-family="Helvetica,sans-Serif" font-size="11.00">issaveastenantcustomization</text>
<polygon fill="none" stroke="black" points="610.5,-57 610.5,-79 693.5,-79 693.5,-57 610.5,-57"/>
<text text-anchor="start" x="613.5" y="-65.2" font-family="Helvetica,sans-Serif" font-size="11.00">bpchar[1]</text>
<polygon fill="#ffffff" stroke="transparent" points="392.5,-39 392.5,-57 492.5,-57 492.5,-39 392.5,-39"/>
<polygon fill="none" stroke="black" points="392.5,-39 392.5,-57 492.5,-57 492.5,-39 392.5,-39"/>
<text text-anchor="start" x="395.5" y="-45.2" font-family="Helvetica,sans-Serif" font-size="11.00">&lt; 3</text>
<polygon fill="#ffffff" stroke="transparent" points="492.5,-39 492.5,-57 610.5,-57 610.5,-39 492.5,-39"/>
<polygon fill="none" stroke="black" points="492.5,-39 492.5,-57 610.5,-57 610.5,-39 492.5,-39"/>
<text text-anchor="start" x="574.5" y="-45.2" font-family="Helvetica,sans-Serif" font-size="11.00">0 rows</text>
<polygon fill="#ffffff" stroke="transparent" points="610.5,-39 610.5,-57 693.5,-57 693.5,-39 610.5,-39"/>
<polygon fill="none" stroke="black" points="610.5,-39 610.5,-57 693.5,-57 693.5,-39 610.5,-39"/>
<text text-anchor="start" x="674.5" y="-45.2" font-family="Helvetica,sans-Serif" font-size="11.00">0 &gt;</text>
<polygon fill="none" stroke="black" stroke-width="2" points="391,-38 391,-542 694,-542 694,-38 391,-38"/>
</a>
</g>
</g>
<!-- ad_ctxhelpsuggestion&#45;&gt;ad_ctxhelpmsg -->
<g id="edge3" class="edge">
<title>ad_ctxhelpsuggestion:w&#45;&gt;ad_ctxhelpmsg:e</title>
<path fill="none" stroke="black" d="M376.84,-442C365.41,-442 358.16,-442 342,-442"/>
<polygon fill="black" stroke="black" points="383.5,-442 391.5,-445.6 387.5,-442 391.5,-442 391.5,-442 391.5,-442 387.5,-442 391.5,-438.4 383.5,-442 383.5,-442"/>
<ellipse fill="none" stroke="black" cx="380.3" cy="-442" rx="3.2" ry="3.2"/>
</g>
<!-- ad_ctxhelpsuggestion&#45;&gt;ad_ctxhelp -->
<g id="edge2" class="edge">
<title>ad_ctxhelpsuggestion:w&#45;&gt;ad_ctxhelp:e</title>
<path fill="none" stroke="black" d="M377.65,-468.3C363.15,-480.66 374.13,-516.3 349,-530 286.57,-564.05 257,-550.8 189,-530 168.49,-523.73 170.45,-503 149,-503"/>
<polygon fill="black" stroke="black" points="383.86,-466.37 392.57,-467.44 387.68,-465.19 391.5,-464 391.5,-464 391.5,-464 387.68,-465.19 390.43,-460.56 383.86,-466.37 383.86,-466.37"/>
<ellipse fill="none" stroke="black" cx="380.8" cy="-467.32" rx="3.2" ry="3.2"/>
</g>
<!-- ad_language -->
<g id="node4" class="node">
<title>ad_language</title>
<g id="a_node4"><a xlink:href="../../tables/ad_language.html" xlink:title="ad_language" target="_top">
<polygon fill="#ffffff" stroke="transparent" points="197.5,-140 197.5,-330 340.5,-330 340.5,-140 197.5,-140"/>
<polygon fill="#f5f5f5" stroke="transparent" points="198,-308 198,-330 341,-330 341,-308 198,-308"/>
<polygon fill="none" stroke="black" points="198,-308 198,-330 341,-330 341,-308 198,-308"/>
<text text-anchor="start" x="203" y="-317.2" font-family="Helvetica,sans-Serif" font-weight="bold" font-size="11.00">ad_language</text>
<text text-anchor="start" x="306" y="-316.2" font-family="Helvetica,sans-Serif" font-size="11.00">[table]</text>
<polygon fill="none" stroke="black" points="198,-286 198,-308 341,-308 341,-286 198,-286"/>
<image xlink:href="../../images/primaryKeys.png" width="11px" height="12px" preserveAspectRatio="xMinYMin meet" x="203" y="-303"/>
<text text-anchor="start" x="218" y="-294.2" font-family="Helvetica,sans-Serif" font-size="11.00">ad_language</text>
<polygon fill="none" stroke="black" points="198,-264 198,-286 341,-286 341,-264 198,-264"/>
<image xlink:href="../../images/foreignKeys.png" width="11px" height="12px" preserveAspectRatio="xMinYMin meet" x="203" y="-281"/>
<text text-anchor="start" x="218" y="-272.2" font-family="Helvetica,sans-Serif" font-size="11.00">ad_client_id</text>
<polygon fill="none" stroke="black" points="198,-242 198,-264 341,-264 341,-242 198,-242"/>
<image xlink:href="../../images/foreignKeys.png" width="11px" height="12px" preserveAspectRatio="xMinYMin meet" x="203" y="-259"/>
<text text-anchor="start" x="218" y="-250.2" font-family="Helvetica,sans-Serif" font-size="11.00">ad_org_id</text>
<polygon fill="#ffffff" stroke="transparent" points="198,-220 198,-242 341,-242 341,-220 198,-220"/>
<polygon fill="none" stroke="black" points="198,-220 198,-242 341,-242 341,-220 198,-220"/>
<text text-anchor="start" x="218" y="-228.2" font-family="Helvetica,sans-Serif" font-size="11.00">ad_language_id</text>
<polygon fill="#ffffff" stroke="transparent" points="198,-198 198,-220 341,-220 341,-198 198,-198"/>
<polygon fill="none" stroke="black" points="198,-198 198,-220 341,-220 341,-198 198,-198"/>
<text text-anchor="start" x="218" y="-206.2" font-family="Helvetica,sans-Serif" font-size="11.00">ad_language_uu</text>
<polygon fill="none" stroke="black" points="198,-176 198,-198 341,-198 341,-176 198,-176"/>
<image xlink:href="../../images/foreignKeys.png" width="11px" height="12px" preserveAspectRatio="xMinYMin meet" x="203" y="-193"/>
<text text-anchor="start" x="218" y="-184.2" font-family="Helvetica,sans-Serif" font-size="11.00">ad_printpaper_id</text>
<polygon fill="none" stroke="black" points="198,-158 198,-176 341,-176 341,-158 198,-158"/>
<text text-anchor="start" x="201" y="-164.2" font-family="Helvetica,sans-Serif" font-size="11.00">...</text>
<polygon fill="#ffffff" stroke="transparent" points="198,-140 198,-158 241,-158 241,-140 198,-140"/>
<polygon fill="none" stroke="black" points="198,-140 198,-158 241,-158 241,-140 198,-140"/>
<text text-anchor="start" x="201" y="-146.2" font-family="Helvetica,sans-Serif" font-size="11.00">&lt; 3</text>
<polygon fill="#ffffff" stroke="transparent" points="241,-140 241,-158 302,-158 302,-140 241,-140"/>
<polygon fill="none" stroke="black" points="241,-140 241,-158 302,-158 302,-140 241,-140"/>
<text text-anchor="start" x="254" y="-146.2" font-family="Helvetica,sans-Serif" font-size="11.00">109 rows</text>
<polygon fill="#ffffff" stroke="transparent" points="302,-140 302,-158 341,-158 341,-140 302,-140"/>
<polygon fill="none" stroke="black" points="302,-140 302,-158 341,-158 341,-140 302,-140"/>
<text text-anchor="start" x="316" y="-146.2" font-family="Helvetica,sans-Serif" font-size="11.00">86 &gt;</text>
</a>
</g>
</g>
<!-- ad_ctxhelpsuggestion&#45;&gt;ad_language -->
<g id="edge4" class="edge">
<title>ad_ctxhelpsuggestion:w&#45;&gt;ad_language:e</title>
<path fill="none" stroke="black" d="M377.4,-393.92C352.26,-375.02 385.94,-297 342,-297"/>
<polygon fill="black" stroke="black" points="383.82,-395.77 390.5,-401.46 387.66,-396.89 391.5,-398 391.5,-398 391.5,-398 387.66,-396.89 392.5,-394.54 383.82,-395.77 383.82,-395.77"/>
<ellipse fill="none" stroke="black" cx="380.74" cy="-394.88" rx="3.2" ry="3.2"/>
</g>
</g>
</svg>
