<?xml version="1.0" encoding="UTF-8" standalone="no"?>
<!DOCTYPE svg PUBLIC "-//W3C//DTD SVG 1.1//EN"
 "http://www.w3.org/Graphics/SVG/1.1/DTD/svg11.dtd">
<!-- Generated by graphviz version 2.43.0 (0)
 -->
<!-- Title: oneDegreeRelationshipsDiagram Pages: 1 -->
<svg width="711pt" height="436pt"
 viewBox="0.00 0.00 711.00 436.00" xmlns="http://www.w3.org/2000/svg" xmlns:xlink="http://www.w3.org/1999/xlink">
<g id="graph0" class="graph" transform="scale(1 1) rotate(0) translate(4 432)">
<title>oneDegreeRelationshipsDiagram</title>
<polygon fill="#ffffff" stroke="transparent" points="-4,4 -4,-432 707,-432 707,4 -4,4"/>
<text text-anchor="middle" x="71.5" y="-7.2" font-family="Helvetica,sans-Serif" font-size="11.00">Generated by SchemaSpy</text>
<!-- ad_ctxhelpmsg -->
<g id="node1" class="node">
<title>ad_ctxhelpmsg</title>
<g id="a_node1"><a xlink:href="../../tables/ad_ctxhelpmsg.html" xlink:title="ad_ctxhelpmsg" target="_top">
<polygon fill="#ffffff" stroke="transparent" points="197,-37 197,-345 428,-345 428,-37 197,-37"/>
<polygon fill="#f5f5f5" stroke="transparent" points="199.5,-321 199.5,-343 426.5,-343 426.5,-321 199.5,-321"/>
<polygon fill="none" stroke="black" points="199.5,-321 199.5,-343 426.5,-343 426.5,-321 199.5,-321"/>
<text text-anchor="start" x="204.5" y="-330.2" font-family="Helvetica,sans-Serif" font-weight="bold" font-size="11.00">ad_ctxhelpmsg</text>
<text text-anchor="start" x="391.5" y="-329.2" font-family="Helvetica,sans-Serif" font-size="11.00">[table]</text>
<polygon fill="#ffffff" stroke="transparent" points="199.5,-299 199.5,-321 343.5,-321 343.5,-299 199.5,-299"/>
<polygon fill="none" stroke="black" points="199.5,-299 199.5,-321 343.5,-321 343.5,-299 199.5,-299"/>
<text text-anchor="start" x="219.5" y="-307.2" font-family="Helvetica,sans-Serif" font-size="11.00">ad_client_id</text>
<polygon fill="none" stroke="black" points="343.5,-299 343.5,-321 426.5,-321 426.5,-299 343.5,-299"/>
<text text-anchor="start" x="346.5" y="-307.2" font-family="Helvetica,sans-Serif" font-size="11.00">numeric[10]</text>
<polygon fill="#ffffff" stroke="transparent" points="199.5,-277 199.5,-299 343.5,-299 343.5,-277 199.5,-277"/>
<polygon fill="none" stroke="black" points="199.5,-277 199.5,-299 343.5,-299 343.5,-277 199.5,-277"/>
<image xlink:href="../../images/foreignKeys.png" width="11px" height="12px" preserveAspectRatio="xMinYMin meet" x="204.5" y="-294"/>
<text text-anchor="start" x="219.5" y="-285.2" font-family="Helvetica,sans-Serif" font-size="11.00">ad_ctxhelp_id</text>
<polygon fill="none" stroke="black" points="343.5,-277 343.5,-299 426.5,-299 426.5,-277 343.5,-277"/>
<text text-anchor="start" x="346.5" y="-285.2" font-family="Helvetica,sans-Serif" font-size="11.00">numeric[10]</text>
<polygon fill="none" stroke="black" points="199.5,-255 199.5,-277 343.5,-277 343.5,-255 199.5,-255"/>
<image xlink:href="../../images/primaryKeys.png" width="11px" height="12px" preserveAspectRatio="xMinYMin meet" x="204.5" y="-272"/>
<text text-anchor="start" x="219.5" y="-263.2" font-family="Helvetica,sans-Serif" font-size="11.00">ad_ctxhelpmsg_id</text>
<polygon fill="none" stroke="black" points="343.5,-255 343.5,-277 426.5,-277 426.5,-255 343.5,-255"/>
<text text-anchor="start" x="346.5" y="-263.2" font-family="Helvetica,sans-Serif" font-size="11.00">numeric[10]</text>
<polygon fill="#ffffff" stroke="transparent" points="199.5,-233 199.5,-255 343.5,-255 343.5,-233 199.5,-233"/>
<polygon fill="none" stroke="black" points="199.5,-233 199.5,-255 343.5,-255 343.5,-233 199.5,-233"/>
<text text-anchor="start" x="219.5" y="-241.2" font-family="Helvetica,sans-Serif" font-size="11.00">ad_ctxhelpmsg_uu</text>
<polygon fill="none" stroke="black" points="343.5,-233 343.5,-255 426.5,-255 426.5,-233 343.5,-233"/>
<text text-anchor="start" x="346.5" y="-241.2" font-family="Helvetica,sans-Serif" font-size="11.00">varchar[36]</text>
<polygon fill="#ffffff" stroke="transparent" points="199.5,-211 199.5,-233 343.5,-233 343.5,-211 199.5,-211"/>
<polygon fill="none" stroke="black" points="199.5,-211 199.5,-233 343.5,-233 343.5,-211 199.5,-211"/>
<text text-anchor="start" x="219.5" y="-219.2" font-family="Helvetica,sans-Serif" font-size="11.00">ad_org_id</text>
<polygon fill="none" stroke="black" points="343.5,-211 343.5,-233 426.5,-233 426.5,-211 343.5,-211"/>
<text text-anchor="start" x="346.5" y="-219.2" font-family="Helvetica,sans-Serif" font-size="11.00">numeric[10]</text>
<polygon fill="none" stroke="black" points="199.5,-189 199.5,-211 343.5,-211 343.5,-189 199.5,-189"/>
<text text-anchor="start" x="219.5" y="-197.2" font-family="Helvetica,sans-Serif" font-size="11.00">created</text>
<polygon fill="none" stroke="black" points="343.5,-189 343.5,-211 426.5,-211 426.5,-189 343.5,-189"/>
<text text-anchor="start" x="346.5" y="-197.2" font-family="Helvetica,sans-Serif" font-size="11.00">timestamp[29,6]</text>
<polygon fill="none" stroke="black" points="199.5,-167 199.5,-189 343.5,-189 343.5,-167 199.5,-167"/>
<text text-anchor="start" x="219.5" y="-175.2" font-family="Helvetica,sans-Serif" font-size="11.00">createdby</text>
<polygon fill="none" stroke="black" points="343.5,-167 343.5,-189 426.5,-189 426.5,-167 343.5,-167"/>
<text text-anchor="start" x="346.5" y="-175.2" font-family="Helvetica,sans-Serif" font-size="11.00">numeric[10]</text>
<polygon fill="none" stroke="black" points="199.5,-145 199.5,-167 343.5,-167 343.5,-145 199.5,-145"/>
<text text-anchor="start" x="219.5" y="-153.2" font-family="Helvetica,sans-Serif" font-size="11.00">isactive</text>
<polygon fill="none" stroke="black" points="343.5,-145 343.5,-167 426.5,-167 426.5,-145 343.5,-145"/>
<text text-anchor="start" x="346.5" y="-153.2" font-family="Helvetica,sans-Serif" font-size="11.00">bpchar[1]</text>
<polygon fill="none" stroke="black" points="199.5,-123 199.5,-145 343.5,-145 343.5,-123 199.5,-123"/>
<text text-anchor="start" x="219.5" y="-131.2" font-family="Helvetica,sans-Serif" font-size="11.00">line</text>
<polygon fill="none" stroke="black" points="343.5,-123 343.5,-145 426.5,-145 426.5,-123 343.5,-123"/>
<text text-anchor="start" x="346.5" y="-131.2" font-family="Helvetica,sans-Serif" font-size="11.00">numeric[10]</text>
<polygon fill="none" stroke="black" points="199.5,-101 199.5,-123 343.5,-123 343.5,-101 199.5,-101"/>
<text text-anchor="start" x="219.5" y="-109.2" font-family="Helvetica,sans-Serif" font-size="11.00">msgtext</text>
<polygon fill="none" stroke="black" points="343.5,-101 343.5,-123 426.5,-123 426.5,-101 343.5,-101"/>
<text text-anchor="start" x="346.5" y="-109.2" font-family="Helvetica,sans-Serif" font-size="11.00">varchar[2000]</text>
<polygon fill="none" stroke="black" points="199.5,-79 199.5,-101 343.5,-101 343.5,-79 199.5,-79"/>
<text text-anchor="start" x="219.5" y="-87.2" font-family="Helvetica,sans-Serif" font-size="11.00">updated</text>
<polygon fill="none" stroke="black" points="343.5,-79 343.5,-101 426.5,-101 426.5,-79 343.5,-79"/>
<text text-anchor="start" x="346.5" y="-87.2" font-family="Helvetica,sans-Serif" font-size="11.00">timestamp[29,6]</text>
<polygon fill="none" stroke="black" points="199.5,-57 199.5,-79 343.5,-79 343.5,-57 199.5,-57"/>
<text text-anchor="start" x="219.5" y="-65.2" font-family="Helvetica,sans-Serif" font-size="11.00">updatedby</text>
<polygon fill="none" stroke="black" points="343.5,-57 343.5,-79 426.5,-79 426.5,-57 343.5,-57"/>
<text text-anchor="start" x="346.5" y="-65.2" font-family="Helvetica,sans-Serif" font-size="11.00">numeric[10]</text>
<polygon fill="#ffffff" stroke="transparent" points="199.5,-39 199.5,-57 265.5,-57 265.5,-39 199.5,-39"/>
<polygon fill="none" stroke="black" points="199.5,-39 199.5,-57 265.5,-57 265.5,-39 199.5,-39"/>
<text text-anchor="start" x="202.5" y="-45.2" font-family="Helvetica,sans-Serif" font-size="11.00">&lt; 1</text>
<polygon fill="#ffffff" stroke="transparent" points="265.5,-39 265.5,-57 343.5,-57 343.5,-39 265.5,-39"/>
<polygon fill="none" stroke="black" points="265.5,-39 265.5,-57 343.5,-57 343.5,-39 265.5,-39"/>
<text text-anchor="start" x="312.5" y="-45.2" font-family="Helvetica,sans-Serif" font-size="11.00">1 row</text>
<polygon fill="#ffffff" stroke="transparent" points="343.5,-39 343.5,-57 426.5,-57 426.5,-39 343.5,-39"/>
<polygon fill="none" stroke="black" points="343.5,-39 343.5,-57 426.5,-57 426.5,-39 343.5,-39"/>
<text text-anchor="start" x="407.5" y="-45.2" font-family="Helvetica,sans-Serif" font-size="11.00">2 &gt;</text>
<polygon fill="none" stroke="black" stroke-width="2" points="198,-38 198,-344 427,-344 427,-38 198,-38"/>
</a>
</g>
</g>
<!-- ad_ctxhelp -->
<g id="node2" class="node">
<title>ad_ctxhelp</title>
<g id="a_node2"><a xlink:href="../../tables/ad_ctxhelp.html" xlink:title="ad_ctxhelp" target="_top">
<polygon fill="#ffffff" stroke="transparent" points="8,-105 8,-361 148,-361 148,-105 8,-105"/>
<polygon fill="#f5f5f5" stroke="transparent" points="8,-339 8,-361 148,-361 148,-339 8,-339"/>
<polygon fill="none" stroke="black" points="8,-339 8,-361 148,-361 148,-339 8,-339"/>
<text text-anchor="start" x="13" y="-348.2" font-family="Helvetica,sans-Serif" font-weight="bold" font-size="11.00">ad_ctxhelp</text>
<text text-anchor="start" x="113" y="-347.2" font-family="Helvetica,sans-Serif" font-size="11.00">[table]</text>
<polygon fill="none" stroke="black" points="8,-317 8,-339 148,-339 148,-317 8,-317"/>
<image xlink:href="../../images/primaryKeys.png" width="11px" height="12px" preserveAspectRatio="xMinYMin meet" x="13" y="-334"/>
<text text-anchor="start" x="28" y="-325.2" font-family="Helvetica,sans-Serif" font-size="11.00">ad_ctxhelp_id</text>
<polygon fill="#ffffff" stroke="transparent" points="8,-295 8,-317 148,-317 148,-295 8,-295"/>
<polygon fill="none" stroke="black" points="8,-295 8,-317 148,-317 148,-295 8,-295"/>
<text text-anchor="start" x="28" y="-303.2" font-family="Helvetica,sans-Serif" font-size="11.00">ad_ctxhelp_uu</text>
<polygon fill="none" stroke="black" points="8,-273 8,-295 148,-295 148,-273 8,-273"/>
<image xlink:href="../../images/foreignKeys.png" width="11px" height="12px" preserveAspectRatio="xMinYMin meet" x="13" y="-290"/>
<text text-anchor="start" x="28" y="-281.2" font-family="Helvetica,sans-Serif" font-size="11.00">ad_form_id</text>
<polygon fill="none" stroke="black" points="8,-251 8,-273 148,-273 148,-251 8,-251"/>
<image xlink:href="../../images/foreignKeys.png" width="11px" height="12px" preserveAspectRatio="xMinYMin meet" x="13" y="-268"/>
<text text-anchor="start" x="28" y="-259.2" font-family="Helvetica,sans-Serif" font-size="11.00">ad_process_id</text>
<polygon fill="none" stroke="black" points="8,-229 8,-251 148,-251 148,-229 8,-229"/>
<image xlink:href="../../images/foreignKeys.png" width="11px" height="12px" preserveAspectRatio="xMinYMin meet" x="13" y="-246"/>
<text text-anchor="start" x="28" y="-237.2" font-family="Helvetica,sans-Serif" font-size="11.00">ad_tab_id</text>
<polygon fill="none" stroke="black" points="8,-207 8,-229 148,-229 148,-207 8,-207"/>
<image xlink:href="../../images/foreignKeys.png" width="11px" height="12px" preserveAspectRatio="xMinYMin meet" x="13" y="-224"/>
<text text-anchor="start" x="28" y="-215.2" font-family="Helvetica,sans-Serif" font-size="11.00">ad_infowindow_id</text>
<polygon fill="none" stroke="black" points="8,-185 8,-207 148,-207 148,-185 8,-185"/>
<image xlink:href="../../images/foreignKeys.png" width="11px" height="12px" preserveAspectRatio="xMinYMin meet" x="13" y="-202"/>
<text text-anchor="start" x="28" y="-193.2" font-family="Helvetica,sans-Serif" font-size="11.00">ad_workflow_id</text>
<polygon fill="none" stroke="black" points="8,-163 8,-185 148,-185 148,-163 8,-163"/>
<image xlink:href="../../images/foreignKeys.png" width="11px" height="12px" preserveAspectRatio="xMinYMin meet" x="13" y="-180"/>
<text text-anchor="start" x="28" y="-171.2" font-family="Helvetica,sans-Serif" font-size="11.00">ad_task_id</text>
<polygon fill="none" stroke="black" points="8,-141 8,-163 148,-163 148,-141 8,-141"/>
<image xlink:href="../../images/foreignKeys.png" width="11px" height="12px" preserveAspectRatio="xMinYMin meet" x="13" y="-158"/>
<text text-anchor="start" x="28" y="-149.2" font-family="Helvetica,sans-Serif" font-size="11.00">ad_table_id</text>
<polygon fill="none" stroke="black" points="8,-123 8,-141 148,-141 148,-123 8,-123"/>
<text text-anchor="start" x="11" y="-129.2" font-family="Helvetica,sans-Serif" font-size="11.00">...</text>
<polygon fill="#ffffff" stroke="transparent" points="8,-105 8,-123 56,-123 56,-105 8,-105"/>
<polygon fill="none" stroke="black" points="8,-105 8,-123 56,-123 56,-105 8,-105"/>
<text text-anchor="start" x="11" y="-111.2" font-family="Helvetica,sans-Serif" font-size="11.00"> &#160;</text>
<polygon fill="#ffffff" stroke="transparent" points="56,-105 56,-123 108,-123 108,-105 56,-105"/>
<polygon fill="none" stroke="black" points="56,-105 56,-123 108,-123 108,-105 56,-105"/>
<text text-anchor="start" x="77" y="-111.2" font-family="Helvetica,sans-Serif" font-size="11.00">1 row</text>
<polygon fill="#ffffff" stroke="transparent" points="108,-105 108,-123 148,-123 148,-105 108,-105"/>
<polygon fill="none" stroke="black" points="108,-105 108,-123 148,-123 148,-105 108,-105"/>
<text text-anchor="start" x="129" y="-111.2" font-family="Helvetica,sans-Serif" font-size="11.00">9 &gt;</text>
</a>
</g>
</g>
<!-- ad_ctxhelpmsg&#45;&gt;ad_ctxhelp -->
<g id="edge1" class="edge">
<title>ad_ctxhelpmsg:w&#45;&gt;ad_ctxhelp:e</title>
<path fill="none" stroke="black" d="M184.66,-292.59C171.62,-303.1 171.32,-328 149,-328"/>
<polygon fill="black" stroke="black" points="190.91,-290.52 199.63,-291.42 194.7,-289.26 198.5,-288 198.5,-288 198.5,-288 194.7,-289.26 197.37,-284.58 190.91,-290.52 190.91,-290.52"/>
<ellipse fill="none" stroke="black" cx="187.87" cy="-291.52" rx="3.2" ry="3.2"/>
</g>
<!-- ad_ctxhelpmsg_trl -->
<g id="node3" class="node">
<title>ad_ctxhelpmsg_trl</title>
<g id="a_node3"><a xlink:href="../../tables/ad_ctxhelpmsg_trl.html" xlink:title="ad_ctxhelpmsg_trl" target="_top">
<polygon fill="#ffffff" stroke="transparent" points="503,-111 503,-235 669,-235 669,-111 503,-111"/>
<polygon fill="#f5f5f5" stroke="transparent" points="503,-213 503,-235 669,-235 669,-213 503,-213"/>
<polygon fill="none" stroke="black" points="503,-213 503,-235 669,-235 669,-213 503,-213"/>
<text text-anchor="start" x="508" y="-222.2" font-family="Helvetica,sans-Serif" font-weight="bold" font-size="11.00">ad_ctxhelpmsg_trl</text>
<text text-anchor="start" x="634" y="-221.2" font-family="Helvetica,sans-Serif" font-size="11.00">[table]</text>
<polygon fill="none" stroke="black" points="503,-191 503,-213 669,-213 669,-191 503,-191"/>
<image xlink:href="../../images/primaryKeys.png" width="11px" height="12px" preserveAspectRatio="xMinYMin meet" x="508" y="-208"/>
<text text-anchor="start" x="523" y="-199.2" font-family="Helvetica,sans-Serif" font-size="11.00">ad_ctxhelpmsg_id</text>
<polygon fill="#ffffff" stroke="transparent" points="503,-169 503,-191 669,-191 669,-169 503,-169"/>
<polygon fill="none" stroke="black" points="503,-169 503,-191 669,-191 669,-169 503,-169"/>
<text text-anchor="start" x="523" y="-177.2" font-family="Helvetica,sans-Serif" font-size="11.00">ad_ctxhelpmsg_trl_uu</text>
<polygon fill="none" stroke="black" points="503,-147 503,-169 669,-169 669,-147 503,-147"/>
<image xlink:href="../../images/primaryKeys.png" width="11px" height="12px" preserveAspectRatio="xMinYMin meet" x="508" y="-164"/>
<text text-anchor="start" x="523" y="-155.2" font-family="Helvetica,sans-Serif" font-size="11.00">ad_language</text>
<polygon fill="none" stroke="black" points="503,-129 503,-147 669,-147 669,-129 503,-129"/>
<text text-anchor="start" x="506" y="-135.2" font-family="Helvetica,sans-Serif" font-size="11.00">...</text>
<polygon fill="#ffffff" stroke="transparent" points="503,-111 503,-129 571,-129 571,-111 503,-111"/>
<polygon fill="none" stroke="black" points="503,-111 503,-129 571,-129 571,-111 503,-111"/>
<text text-anchor="start" x="506" y="-117.2" font-family="Helvetica,sans-Serif" font-size="11.00">&lt; 2</text>
<polygon fill="#ffffff" stroke="transparent" points="571,-111 571,-129 633,-129 633,-111 571,-111"/>
<polygon fill="none" stroke="black" points="571,-111 571,-129 633,-129 633,-111 571,-111"/>
<text text-anchor="start" x="597" y="-117.2" font-family="Helvetica,sans-Serif" font-size="11.00">2 rows</text>
<polygon fill="#ffffff" stroke="transparent" points="633,-111 633,-129 669,-129 669,-111 633,-111"/>
<polygon fill="none" stroke="black" points="633,-111 633,-129 669,-129 669,-111 633,-111"/>
<text text-anchor="start" x="659" y="-117.2" font-family="Helvetica,sans-Serif" font-size="11.00"> &#160;</text>
</a>
</g>
</g>
<!-- ad_ctxhelpmsg_trl&#45;&gt;ad_ctxhelpmsg -->
<g id="edge2" class="edge">
<title>ad_ctxhelpmsg_trl:w&#45;&gt;ad_ctxhelpmsg:e</title>
<path fill="none" stroke="black" d="M487.69,-204.92C460.71,-217.44 465.52,-266 427.5,-266"/>
<polygon fill="black" stroke="black" points="494.16,-203.6 502.72,-205.53 498.08,-202.8 502,-202 502,-202 502,-202 498.08,-202.8 501.28,-198.47 494.16,-203.6 494.16,-203.6"/>
<ellipse fill="none" stroke="black" cx="491.03" cy="-204.24" rx="3.2" ry="3.2"/>
</g>
<!-- ad_ctxhelpsuggestion -->
<g id="node4" class="node">
<title>ad_ctxhelpsuggestion</title>
<g id="a_node4"><a xlink:href="../../tables/ad_ctxhelpsuggestion.html" xlink:title="ad_ctxhelpsuggestion" target="_top">
<polygon fill="#ffffff" stroke="transparent" points="477,-256 477,-424 695,-424 695,-256 477,-256"/>
<polygon fill="#f5f5f5" stroke="transparent" points="477,-402 477,-424 695,-424 695,-402 477,-402"/>
<polygon fill="none" stroke="black" points="477,-402 477,-424 695,-424 695,-402 477,-402"/>
<text text-anchor="start" x="482" y="-411.2" font-family="Helvetica,sans-Serif" font-weight="bold" font-size="11.00">ad_ctxhelpsuggestion</text>
<text text-anchor="start" x="660" y="-410.2" font-family="Helvetica,sans-Serif" font-size="11.00">[table]</text>
<polygon fill="none" stroke="black" points="477,-380 477,-402 695,-402 695,-380 477,-380"/>
<image xlink:href="../../images/primaryKeys.png" width="11px" height="12px" preserveAspectRatio="xMinYMin meet" x="482" y="-397"/>
<text text-anchor="start" x="497" y="-388.2" font-family="Helvetica,sans-Serif" font-size="11.00">ad_ctxhelpsuggestion_id</text>
<polygon fill="none" stroke="black" points="477,-358 477,-380 695,-380 695,-358 477,-358"/>
<image xlink:href="../../images/foreignKeys.png" width="11px" height="12px" preserveAspectRatio="xMinYMin meet" x="482" y="-375"/>
<text text-anchor="start" x="497" y="-366.2" font-family="Helvetica,sans-Serif" font-size="11.00">ad_ctxhelp_id</text>
<polygon fill="none" stroke="black" points="477,-336 477,-358 695,-358 695,-336 477,-336"/>
<image xlink:href="../../images/foreignKeys.png" width="11px" height="12px" preserveAspectRatio="xMinYMin meet" x="482" y="-353"/>
<text text-anchor="start" x="497" y="-344.2" font-family="Helvetica,sans-Serif" font-size="11.00">ad_ctxhelpmsg_id</text>
<polygon fill="#ffffff" stroke="transparent" points="477,-314 477,-336 695,-336 695,-314 477,-314"/>
<polygon fill="none" stroke="black" points="477,-314 477,-336 695,-336 695,-314 477,-314"/>
<text text-anchor="start" x="497" y="-322.2" font-family="Helvetica,sans-Serif" font-size="11.00">ad_ctxhelpsuggestion_uu</text>
<polygon fill="none" stroke="black" points="477,-292 477,-314 695,-314 695,-292 477,-292"/>
<image xlink:href="../../images/foreignKeys.png" width="11px" height="12px" preserveAspectRatio="xMinYMin meet" x="482" y="-309"/>
<text text-anchor="start" x="497" y="-300.2" font-family="Helvetica,sans-Serif" font-size="11.00">ad_language</text>
<polygon fill="none" stroke="black" points="477,-274 477,-292 695,-292 695,-274 477,-274"/>
<text text-anchor="start" x="480" y="-280.2" font-family="Helvetica,sans-Serif" font-size="11.00">...</text>
<polygon fill="#ffffff" stroke="transparent" points="477,-256 477,-274 571,-274 571,-256 477,-256"/>
<polygon fill="none" stroke="black" points="477,-256 477,-274 571,-274 571,-256 477,-256"/>
<text text-anchor="start" x="480" y="-262.2" font-family="Helvetica,sans-Serif" font-size="11.00">&lt; 3</text>
<polygon fill="#ffffff" stroke="transparent" points="571,-256 571,-274 646,-274 646,-256 571,-256"/>
<polygon fill="none" stroke="black" points="571,-256 571,-274 646,-274 646,-256 571,-256"/>
<text text-anchor="start" x="610" y="-262.2" font-family="Helvetica,sans-Serif" font-size="11.00">0 rows</text>
<polygon fill="#ffffff" stroke="transparent" points="646,-256 646,-274 695,-274 695,-256 646,-256"/>
<polygon fill="none" stroke="black" points="646,-256 646,-274 695,-274 695,-256 646,-256"/>
<text text-anchor="start" x="685" y="-262.2" font-family="Helvetica,sans-Serif" font-size="11.00"> &#160;</text>
</a>
</g>
</g>
<!-- ad_ctxhelpsuggestion&#45;&gt;ad_ctxhelpmsg -->
<g id="edge4" class="edge">
<title>ad_ctxhelpsuggestion:w&#45;&gt;ad_ctxhelpmsg:e</title>
<path fill="none" stroke="black" d="M462.19,-342.41C442.66,-325.28 463.4,-266 427.5,-266"/>
<polygon fill="black" stroke="black" points="468.41,-344.48 474.87,-350.42 472.2,-345.74 476,-347 476,-347 476,-347 472.2,-345.74 477.13,-343.58 468.41,-344.48 468.41,-344.48"/>
<ellipse fill="none" stroke="black" cx="465.37" cy="-343.47" rx="3.2" ry="3.2"/>
</g>
<!-- ad_ctxhelpsuggestion&#45;&gt;ad_ctxhelp -->
<g id="edge3" class="edge">
<title>ad_ctxhelpsuggestion:w&#45;&gt;ad_ctxhelp:e</title>
<path fill="none" stroke="black" d="M461.43,-369.11C345.19,-370.95 305.44,-393.75 189,-355 168.65,-348.23 170.45,-328 149,-328"/>
<polygon fill="black" stroke="black" points="468,-369.06 476.03,-372.6 472,-369.03 476,-369 476,-369 476,-369 472,-369.03 475.97,-365.4 468,-369.06 468,-369.06"/>
<ellipse fill="none" stroke="black" cx="464.8" cy="-369.09" rx="3.2" ry="3.2"/>
</g>
</g>
</svg>
