<?xml version="1.0" encoding="UTF-8" standalone="no"?>
<!DOCTYPE svg PUBLIC "-//W3C//DTD SVG 1.1//EN"
 "http://www.w3.org/Graphics/SVG/1.1/DTD/svg11.dtd">
<!-- Generated by graphviz version 2.43.0 (0)
 -->
<!-- Title: oneDegreeRelationshipsDiagram Pages: 1 -->
<svg width="1224pt" height="965pt"
 viewBox="0.00 0.00 1224.43 965.13" xmlns="http://www.w3.org/2000/svg" xmlns:xlink="http://www.w3.org/1999/xlink">
<g id="graph0" class="graph" transform="scale(1 1) rotate(0) translate(4 961.13)">
<title>oneDegreeRelationshipsDiagram</title>
<polygon fill="#ffffff" stroke="transparent" points="-4,4 -4,-961.13 1220.43,-961.13 1220.43,4 -4,4"/>
<text text-anchor="middle" x="71.5" y="-7.2" font-family="Helvetica,sans-Serif" font-size="11.00">Generated by SchemaSpy</text>
<!-- ad_client -->
<g id="node1" class="node">
<title>ad_client</title>
<g id="a_node1"><a xlink:href="../../tables/ad_client.html" xlink:title="ad_client" target="_top">
<polygon fill="#ffffff" stroke="transparent" points="450.43,-522 450.43,-734 678.43,-734 678.43,-522 450.43,-522"/>
<polygon fill="#f5f5f5" stroke="transparent" points="450.43,-712 450.43,-734 678.43,-734 678.43,-712 450.43,-712"/>
<polygon fill="none" stroke="black" points="450.43,-712 450.43,-734 678.43,-734 678.43,-712 450.43,-712"/>
<text text-anchor="start" x="455.43" y="-721.2" font-family="Helvetica,sans-Serif" font-weight="bold" font-size="11.00">ad_client</text>
<text text-anchor="start" x="643.43" y="-720.2" font-family="Helvetica,sans-Serif" font-size="11.00">[table]</text>
<polygon fill="none" stroke="black" points="450.43,-690 450.43,-712 678.43,-712 678.43,-690 450.43,-690"/>
<image xlink:href="../../images/primaryKeys.png" width="11px" height="12px" preserveAspectRatio="xMinYMin meet" x="455.433" y="-707"/>
<text text-anchor="start" x="470.43" y="-698.2" font-family="Helvetica,sans-Serif" font-size="11.00">ad_client_id</text>
<polygon fill="#ffffff" stroke="transparent" points="450.43,-668 450.43,-690 678.43,-690 678.43,-668 450.43,-668"/>
<polygon fill="none" stroke="black" points="450.43,-668 450.43,-690 678.43,-690 678.43,-668 450.43,-668"/>
<text text-anchor="start" x="470.43" y="-676.2" font-family="Helvetica,sans-Serif" font-size="11.00">value</text>
<polygon fill="none" stroke="black" points="450.43,-646 450.43,-668 678.43,-668 678.43,-646 450.43,-646"/>
<image xlink:href="../../images/foreignKeys.png" width="11px" height="12px" preserveAspectRatio="xMinYMin meet" x="455.433" y="-663"/>
<text text-anchor="start" x="470.43" y="-654.2" font-family="Helvetica,sans-Serif" font-size="11.00">ad_language</text>
<polygon fill="none" stroke="black" points="450.43,-624 450.43,-646 678.43,-646 678.43,-624 450.43,-624"/>
<image xlink:href="../../images/foreignKeys.png" width="11px" height="12px" preserveAspectRatio="xMinYMin meet" x="455.433" y="-641"/>
<text text-anchor="start" x="470.43" y="-632.2" font-family="Helvetica,sans-Serif" font-size="11.00">ad_replicationstrategy_id</text>
<polygon fill="#ffffff" stroke="transparent" points="450.43,-602 450.43,-624 678.43,-624 678.43,-602 450.43,-602"/>
<polygon fill="none" stroke="black" points="450.43,-602 450.43,-624 678.43,-624 678.43,-602 450.43,-602"/>
<text text-anchor="start" x="470.43" y="-610.2" font-family="Helvetica,sans-Serif" font-size="11.00">ad_client_uu</text>
<polygon fill="none" stroke="black" points="450.43,-580 450.43,-602 678.43,-602 678.43,-580 450.43,-580"/>
<image xlink:href="../../images/foreignKeys.png" width="11px" height="12px" preserveAspectRatio="xMinYMin meet" x="455.433" y="-597"/>
<text text-anchor="start" x="470.43" y="-588.2" font-family="Helvetica,sans-Serif" font-size="11.00">ad_passwordrule_id</text>
<polygon fill="#ffffff" stroke="transparent" points="450.43,-558 450.43,-580 678.43,-580 678.43,-558 450.43,-558"/>
<polygon fill="none" stroke="black" points="450.43,-558 450.43,-580 678.43,-580 678.43,-558 450.43,-558"/>
<text text-anchor="start" x="470.43" y="-566.2" font-family="Helvetica,sans-Serif" font-size="11.00">loginprefix</text>
<polygon fill="none" stroke="black" points="450.43,-540 450.43,-558 678.43,-558 678.43,-540 450.43,-540"/>
<text text-anchor="start" x="453.43" y="-546.2" font-family="Helvetica,sans-Serif" font-size="11.00">...</text>
<polygon fill="#ffffff" stroke="transparent" points="450.43,-522 450.43,-540 538.43,-540 538.43,-522 450.43,-522"/>
<polygon fill="none" stroke="black" points="450.43,-522 450.43,-540 538.43,-540 538.43,-522 450.43,-522"/>
<text text-anchor="start" x="453.43" y="-528.2" font-family="Helvetica,sans-Serif" font-size="11.00">&lt; 3</text>
<polygon fill="#ffffff" stroke="transparent" points="538.43,-522 538.43,-540 610.43,-540 610.43,-522 538.43,-522"/>
<polygon fill="none" stroke="black" points="538.43,-522 538.43,-540 610.43,-540 610.43,-522 538.43,-522"/>
<text text-anchor="start" x="574.43" y="-528.2" font-family="Helvetica,sans-Serif" font-size="11.00">2 rows</text>
<polygon fill="#ffffff" stroke="transparent" points="610.43,-522 610.43,-540 678.43,-540 678.43,-522 610.43,-522"/>
<polygon fill="none" stroke="black" points="610.43,-522 610.43,-540 678.43,-540 678.43,-522 610.43,-522"/>
<text text-anchor="start" x="647.43" y="-528.2" font-family="Helvetica,sans-Serif" font-size="11.00">145 &gt;</text>
</a>
</g>
</g>
<!-- ad_language -->
<g id="node2" class="node">
<title>ad_language</title>
<g id="a_node2"><a xlink:href="../../tables/ad_language.html" xlink:title="ad_language" target="_top">
<polygon fill="#ffffff" stroke="transparent" points="258.43,-544 258.43,-734 401.43,-734 401.43,-544 258.43,-544"/>
<polygon fill="#f5f5f5" stroke="transparent" points="258.93,-712 258.93,-734 401.93,-734 401.93,-712 258.93,-712"/>
<polygon fill="none" stroke="black" points="258.93,-712 258.93,-734 401.93,-734 401.93,-712 258.93,-712"/>
<text text-anchor="start" x="263.93" y="-721.2" font-family="Helvetica,sans-Serif" font-weight="bold" font-size="11.00">ad_language</text>
<text text-anchor="start" x="366.93" y="-720.2" font-family="Helvetica,sans-Serif" font-size="11.00">[table]</text>
<polygon fill="none" stroke="black" points="258.93,-690 258.93,-712 401.93,-712 401.93,-690 258.93,-690"/>
<image xlink:href="../../images/primaryKeys.png" width="11px" height="12px" preserveAspectRatio="xMinYMin meet" x="263.933" y="-707"/>
<text text-anchor="start" x="278.93" y="-698.2" font-family="Helvetica,sans-Serif" font-size="11.00">ad_language</text>
<polygon fill="none" stroke="black" points="258.93,-668 258.93,-690 401.93,-690 401.93,-668 258.93,-668"/>
<image xlink:href="../../images/foreignKeys.png" width="11px" height="12px" preserveAspectRatio="xMinYMin meet" x="263.933" y="-685"/>
<text text-anchor="start" x="278.93" y="-676.2" font-family="Helvetica,sans-Serif" font-size="11.00">ad_client_id</text>
<polygon fill="none" stroke="black" points="258.93,-646 258.93,-668 401.93,-668 401.93,-646 258.93,-646"/>
<image xlink:href="../../images/foreignKeys.png" width="11px" height="12px" preserveAspectRatio="xMinYMin meet" x="263.933" y="-663"/>
<text text-anchor="start" x="278.93" y="-654.2" font-family="Helvetica,sans-Serif" font-size="11.00">ad_org_id</text>
<polygon fill="#ffffff" stroke="transparent" points="258.93,-624 258.93,-646 401.93,-646 401.93,-624 258.93,-624"/>
<polygon fill="none" stroke="black" points="258.93,-624 258.93,-646 401.93,-646 401.93,-624 258.93,-624"/>
<text text-anchor="start" x="278.93" y="-632.2" font-family="Helvetica,sans-Serif" font-size="11.00">ad_language_id</text>
<polygon fill="#ffffff" stroke="transparent" points="258.93,-602 258.93,-624 401.93,-624 401.93,-602 258.93,-602"/>
<polygon fill="none" stroke="black" points="258.93,-602 258.93,-624 401.93,-624 401.93,-602 258.93,-602"/>
<text text-anchor="start" x="278.93" y="-610.2" font-family="Helvetica,sans-Serif" font-size="11.00">ad_language_uu</text>
<polygon fill="none" stroke="black" points="258.93,-580 258.93,-602 401.93,-602 401.93,-580 258.93,-580"/>
<image xlink:href="../../images/foreignKeys.png" width="11px" height="12px" preserveAspectRatio="xMinYMin meet" x="263.933" y="-597"/>
<text text-anchor="start" x="278.93" y="-588.2" font-family="Helvetica,sans-Serif" font-size="11.00">ad_printpaper_id</text>
<polygon fill="none" stroke="black" points="258.93,-562 258.93,-580 401.93,-580 401.93,-562 258.93,-562"/>
<text text-anchor="start" x="261.93" y="-568.2" font-family="Helvetica,sans-Serif" font-size="11.00">...</text>
<polygon fill="#ffffff" stroke="transparent" points="258.93,-544 258.93,-562 301.93,-562 301.93,-544 258.93,-544"/>
<polygon fill="none" stroke="black" points="258.93,-544 258.93,-562 301.93,-562 301.93,-544 258.93,-544"/>
<text text-anchor="start" x="261.93" y="-550.2" font-family="Helvetica,sans-Serif" font-size="11.00">&lt; 3</text>
<polygon fill="#ffffff" stroke="transparent" points="301.93,-544 301.93,-562 362.93,-562 362.93,-544 301.93,-544"/>
<polygon fill="none" stroke="black" points="301.93,-544 301.93,-562 362.93,-562 362.93,-544 301.93,-544"/>
<text text-anchor="start" x="314.93" y="-550.2" font-family="Helvetica,sans-Serif" font-size="11.00">109 rows</text>
<polygon fill="#ffffff" stroke="transparent" points="362.93,-544 362.93,-562 401.93,-562 401.93,-544 362.93,-544"/>
<polygon fill="none" stroke="black" points="362.93,-544 362.93,-562 401.93,-562 401.93,-544 362.93,-544"/>
<text text-anchor="start" x="376.93" y="-550.2" font-family="Helvetica,sans-Serif" font-size="11.00">86 &gt;</text>
</a>
</g>
</g>
<!-- ad_client&#45;&gt;ad_language -->
<g id="edge1" class="edge">
<title>ad_client:w&#45;&gt;ad_language:e</title>
<path fill="none" stroke="black" d="M435.89,-662.05C423.64,-673.6 425.38,-701 402.93,-701"/>
<polygon fill="black" stroke="black" points="441.94,-659.79 450.69,-660.37 445.69,-658.4 449.43,-657 449.43,-657 449.43,-657 445.69,-658.4 448.18,-653.63 441.94,-659.79 441.94,-659.79"/>
<ellipse fill="none" stroke="black" cx="438.94" cy="-660.91" rx="3.2" ry="3.2"/>
</g>
<!-- ad_language&#45;&gt;ad_client -->
<g id="edge8" class="edge">
<title>ad_language:w&#45;&gt;ad_client:e</title>
<path fill="none" stroke="black" d="M244.64,-685.25C236.43,-697.37 244.76,-724.07 258.93,-738 267.24,-746.17 670.08,-746.13 678.43,-738 690.22,-726.53 695.88,-701 679.43,-701"/>
<polygon fill="black" stroke="black" points="250.69,-682.41 259.47,-682.26 254.31,-680.7 257.93,-679 257.93,-679 257.93,-679 254.31,-680.7 256.4,-675.74 250.69,-682.41 250.69,-682.41"/>
<ellipse fill="none" stroke="black" cx="247.8" cy="-683.77" rx="3.2" ry="3.2"/>
</g>
<!-- ad_org -->
<g id="node5" class="node">
<title>ad_org</title>
<g id="a_node5"><a xlink:href="../../tables/ad_org.html" xlink:title="ad_org" target="_top">
<polygon fill="#ffffff" stroke="transparent" points="17.43,-314 17.43,-504 209.43,-504 209.43,-314 17.43,-314"/>
<polygon fill="#f5f5f5" stroke="transparent" points="17.43,-482 17.43,-504 209.43,-504 209.43,-482 17.43,-482"/>
<polygon fill="none" stroke="black" points="17.43,-482 17.43,-504 209.43,-504 209.43,-482 17.43,-482"/>
<text text-anchor="start" x="22.43" y="-491.2" font-family="Helvetica,sans-Serif" font-weight="bold" font-size="11.00">ad_org</text>
<text text-anchor="start" x="174.43" y="-490.2" font-family="Helvetica,sans-Serif" font-size="11.00">[table]</text>
<polygon fill="none" stroke="black" points="17.43,-460 17.43,-482 209.43,-482 209.43,-460 17.43,-460"/>
<image xlink:href="../../images/primaryKeys.png" width="11px" height="12px" preserveAspectRatio="xMinYMin meet" x="22.4333" y="-477"/>
<text text-anchor="start" x="37.43" y="-468.2" font-family="Helvetica,sans-Serif" font-size="11.00">ad_org_id</text>
<polygon fill="#ffffff" stroke="transparent" points="17.43,-438 17.43,-460 209.43,-460 209.43,-438 17.43,-438"/>
<polygon fill="none" stroke="black" points="17.43,-438 17.43,-460 209.43,-460 209.43,-438 17.43,-438"/>
<image xlink:href="../../images/foreignKeys.png" width="11px" height="12px" preserveAspectRatio="xMinYMin meet" x="22.4333" y="-455"/>
<text text-anchor="start" x="37.43" y="-446.2" font-family="Helvetica,sans-Serif" font-size="11.00">ad_client_id</text>
<polygon fill="#ffffff" stroke="transparent" points="17.43,-416 17.43,-438 209.43,-438 209.43,-416 17.43,-416"/>
<polygon fill="none" stroke="black" points="17.43,-416 17.43,-438 209.43,-438 209.43,-416 17.43,-416"/>
<text text-anchor="start" x="37.43" y="-424.2" font-family="Helvetica,sans-Serif" font-size="11.00">value</text>
<polygon fill="none" stroke="black" points="17.43,-394 17.43,-416 209.43,-416 209.43,-394 17.43,-394"/>
<image xlink:href="../../images/foreignKeys.png" width="11px" height="12px" preserveAspectRatio="xMinYMin meet" x="22.4333" y="-411"/>
<text text-anchor="start" x="37.43" y="-402.2" font-family="Helvetica,sans-Serif" font-size="11.00">ad_replicationstrategy_id</text>
<polygon fill="#ffffff" stroke="transparent" points="17.43,-372 17.43,-394 209.43,-394 209.43,-372 17.43,-372"/>
<polygon fill="none" stroke="black" points="17.43,-372 17.43,-394 209.43,-394 209.43,-372 17.43,-372"/>
<text text-anchor="start" x="37.43" y="-380.2" font-family="Helvetica,sans-Serif" font-size="11.00">ad_org_uu</text>
<polygon fill="none" stroke="black" points="17.43,-350 17.43,-372 209.43,-372 209.43,-350 17.43,-350"/>
<image xlink:href="../../images/foreignKeys.png" width="11px" height="12px" preserveAspectRatio="xMinYMin meet" x="22.4333" y="-367"/>
<text text-anchor="start" x="37.43" y="-358.2" font-family="Helvetica,sans-Serif" font-size="11.00">cof_c_snrange_id</text>
<polygon fill="none" stroke="black" points="17.43,-332 17.43,-350 209.43,-350 209.43,-332 17.43,-332"/>
<text text-anchor="start" x="20.43" y="-338.2" font-family="Helvetica,sans-Serif" font-size="11.00">...</text>
<polygon fill="#ffffff" stroke="transparent" points="17.43,-314 17.43,-332 87.43,-332 87.43,-314 17.43,-314"/>
<polygon fill="none" stroke="black" points="17.43,-314 17.43,-332 87.43,-332 87.43,-314 17.43,-314"/>
<text text-anchor="start" x="20.43" y="-320.2" font-family="Helvetica,sans-Serif" font-size="11.00">&lt; 3</text>
<polygon fill="#ffffff" stroke="transparent" points="87.43,-314 87.43,-332 150.43,-332 150.43,-314 87.43,-314"/>
<polygon fill="none" stroke="black" points="87.43,-314 87.43,-332 150.43,-332 150.43,-314 87.43,-314"/>
<text text-anchor="start" x="114.43" y="-320.2" font-family="Helvetica,sans-Serif" font-size="11.00">3 rows</text>
<polygon fill="#ffffff" stroke="transparent" points="150.43,-314 150.43,-332 209.43,-332 209.43,-314 150.43,-314"/>
<polygon fill="none" stroke="black" points="150.43,-314 150.43,-332 209.43,-332 209.43,-314 150.43,-314"/>
<text text-anchor="start" x="178.43" y="-320.2" font-family="Helvetica,sans-Serif" font-size="11.00">224 &gt;</text>
</a>
</g>
</g>
<!-- ad_language&#45;&gt;ad_org -->
<g id="edge9" class="edge">
<title>ad_language:w&#45;&gt;ad_org:e</title>
<path fill="none" stroke="black" d="M243.57,-654.65C188.05,-633.12 290.09,-471 210.43,-471"/>
<polygon fill="black" stroke="black" points="250.04,-655.71 257.35,-660.55 253.99,-656.35 257.93,-657 257.93,-657 257.93,-657 253.99,-656.35 258.52,-653.45 250.04,-655.71 250.04,-655.71"/>
<ellipse fill="none" stroke="black" cx="246.88" cy="-655.19" rx="3.2" ry="3.2"/>
</g>
<!-- ad_color_trl -->
<g id="node3" class="node">
<title>ad_color_trl</title>
<g id="a_node3"><a xlink:href="../../tables/ad_color_trl.html" xlink:title="ad_color_trl" target="_top">
<polygon fill="#ffffff" stroke="transparent" points="999.43,-526 999.43,-834 1208.43,-834 1208.43,-526 999.43,-526"/>
<polygon fill="#f5f5f5" stroke="transparent" points="1001.93,-810 1001.93,-832 1206.93,-832 1206.93,-810 1001.93,-810"/>
<polygon fill="none" stroke="black" points="1001.93,-810 1001.93,-832 1206.93,-832 1206.93,-810 1001.93,-810"/>
<text text-anchor="start" x="1006.93" y="-819.2" font-family="Helvetica,sans-Serif" font-weight="bold" font-size="11.00">ad_color_trl</text>
<text text-anchor="start" x="1171.93" y="-818.2" font-family="Helvetica,sans-Serif" font-size="11.00">[table]</text>
<polygon fill="none" stroke="black" points="1001.93,-788 1001.93,-810 1123.93,-810 1123.93,-788 1001.93,-788"/>
<image xlink:href="../../images/foreignKeys.png" width="11px" height="12px" preserveAspectRatio="xMinYMin meet" x="1006.93" y="-805"/>
<text text-anchor="start" x="1021.93" y="-796.2" font-family="Helvetica,sans-Serif" font-size="11.00">ad_client_id</text>
<polygon fill="none" stroke="black" points="1123.93,-788 1123.93,-810 1206.93,-810 1206.93,-788 1123.93,-788"/>
<text text-anchor="start" x="1126.93" y="-796.2" font-family="Helvetica,sans-Serif" font-size="11.00">numeric[10]</text>
<polygon fill="none" stroke="black" points="1001.93,-766 1001.93,-788 1123.93,-788 1123.93,-766 1001.93,-766"/>
<image xlink:href="../../images/primaryKeys.png" width="11px" height="12px" preserveAspectRatio="xMinYMin meet" x="1006.93" y="-783"/>
<text text-anchor="start" x="1021.93" y="-774.2" font-family="Helvetica,sans-Serif" font-size="11.00">ad_color_id</text>
<polygon fill="none" stroke="black" points="1123.93,-766 1123.93,-788 1206.93,-788 1206.93,-766 1123.93,-766"/>
<text text-anchor="start" x="1126.93" y="-774.2" font-family="Helvetica,sans-Serif" font-size="11.00">numeric[10]</text>
<polygon fill="#ffffff" stroke="transparent" points="1001.93,-744 1001.93,-766 1123.93,-766 1123.93,-744 1001.93,-744"/>
<polygon fill="none" stroke="black" points="1001.93,-744 1001.93,-766 1123.93,-766 1123.93,-744 1001.93,-744"/>
<text text-anchor="start" x="1021.93" y="-752.2" font-family="Helvetica,sans-Serif" font-size="11.00">ad_color_trl_uu</text>
<polygon fill="none" stroke="black" points="1123.93,-744 1123.93,-766 1206.93,-766 1206.93,-744 1123.93,-744"/>
<text text-anchor="start" x="1126.93" y="-752.2" font-family="Helvetica,sans-Serif" font-size="11.00">varchar[36]</text>
<polygon fill="none" stroke="black" points="1001.93,-722 1001.93,-744 1123.93,-744 1123.93,-722 1001.93,-722"/>
<image xlink:href="../../images/primaryKeys.png" width="11px" height="12px" preserveAspectRatio="xMinYMin meet" x="1006.93" y="-739"/>
<text text-anchor="start" x="1021.93" y="-730.2" font-family="Helvetica,sans-Serif" font-size="11.00">ad_language</text>
<polygon fill="none" stroke="black" points="1123.93,-722 1123.93,-744 1206.93,-744 1206.93,-722 1123.93,-722"/>
<text text-anchor="start" x="1126.93" y="-730.2" font-family="Helvetica,sans-Serif" font-size="11.00">varchar[6]</text>
<polygon fill="none" stroke="black" points="1001.93,-700 1001.93,-722 1123.93,-722 1123.93,-700 1001.93,-700"/>
<image xlink:href="../../images/foreignKeys.png" width="11px" height="12px" preserveAspectRatio="xMinYMin meet" x="1006.93" y="-717"/>
<text text-anchor="start" x="1021.93" y="-708.2" font-family="Helvetica,sans-Serif" font-size="11.00">ad_org_id</text>
<polygon fill="none" stroke="black" points="1123.93,-700 1123.93,-722 1206.93,-722 1206.93,-700 1123.93,-700"/>
<text text-anchor="start" x="1126.93" y="-708.2" font-family="Helvetica,sans-Serif" font-size="11.00">numeric[10]</text>
<polygon fill="none" stroke="black" points="1001.93,-678 1001.93,-700 1123.93,-700 1123.93,-678 1001.93,-678"/>
<text text-anchor="start" x="1021.93" y="-686.2" font-family="Helvetica,sans-Serif" font-size="11.00">created</text>
<polygon fill="none" stroke="black" points="1123.93,-678 1123.93,-700 1206.93,-700 1206.93,-678 1123.93,-678"/>
<text text-anchor="start" x="1126.93" y="-686.2" font-family="Helvetica,sans-Serif" font-size="11.00">timestamp[29,6]</text>
<polygon fill="none" stroke="black" points="1001.93,-656 1001.93,-678 1123.93,-678 1123.93,-656 1001.93,-656"/>
<image xlink:href="../../images/foreignKeys.png" width="11px" height="12px" preserveAspectRatio="xMinYMin meet" x="1006.93" y="-673"/>
<text text-anchor="start" x="1021.93" y="-664.2" font-family="Helvetica,sans-Serif" font-size="11.00">createdby</text>
<polygon fill="none" stroke="black" points="1123.93,-656 1123.93,-678 1206.93,-678 1206.93,-656 1123.93,-656"/>
<text text-anchor="start" x="1126.93" y="-664.2" font-family="Helvetica,sans-Serif" font-size="11.00">numeric[10]</text>
<polygon fill="none" stroke="black" points="1001.93,-634 1001.93,-656 1123.93,-656 1123.93,-634 1001.93,-634"/>
<text text-anchor="start" x="1021.93" y="-642.2" font-family="Helvetica,sans-Serif" font-size="11.00">isactive</text>
<polygon fill="none" stroke="black" points="1123.93,-634 1123.93,-656 1206.93,-656 1206.93,-634 1123.93,-634"/>
<text text-anchor="start" x="1126.93" y="-642.2" font-family="Helvetica,sans-Serif" font-size="11.00">bpchar[1]</text>
<polygon fill="none" stroke="black" points="1001.93,-612 1001.93,-634 1123.93,-634 1123.93,-612 1001.93,-612"/>
<text text-anchor="start" x="1021.93" y="-620.2" font-family="Helvetica,sans-Serif" font-size="11.00">istranslated</text>
<polygon fill="none" stroke="black" points="1123.93,-612 1123.93,-634 1206.93,-634 1206.93,-612 1123.93,-612"/>
<text text-anchor="start" x="1126.93" y="-620.2" font-family="Helvetica,sans-Serif" font-size="11.00">bpchar[1]</text>
<polygon fill="none" stroke="black" points="1001.93,-590 1001.93,-612 1123.93,-612 1123.93,-590 1001.93,-590"/>
<text text-anchor="start" x="1021.93" y="-598.2" font-family="Helvetica,sans-Serif" font-size="11.00">name</text>
<polygon fill="none" stroke="black" points="1123.93,-590 1123.93,-612 1206.93,-612 1206.93,-590 1123.93,-590"/>
<text text-anchor="start" x="1126.93" y="-598.2" font-family="Helvetica,sans-Serif" font-size="11.00">varchar[60]</text>
<polygon fill="none" stroke="black" points="1001.93,-568 1001.93,-590 1123.93,-590 1123.93,-568 1001.93,-568"/>
<text text-anchor="start" x="1021.93" y="-576.2" font-family="Helvetica,sans-Serif" font-size="11.00">updated</text>
<polygon fill="none" stroke="black" points="1123.93,-568 1123.93,-590 1206.93,-590 1206.93,-568 1123.93,-568"/>
<text text-anchor="start" x="1126.93" y="-576.2" font-family="Helvetica,sans-Serif" font-size="11.00">timestamp[29,6]</text>
<polygon fill="none" stroke="black" points="1001.93,-546 1001.93,-568 1123.93,-568 1123.93,-546 1001.93,-546"/>
<image xlink:href="../../images/foreignKeys.png" width="11px" height="12px" preserveAspectRatio="xMinYMin meet" x="1006.93" y="-563"/>
<text text-anchor="start" x="1021.93" y="-554.2" font-family="Helvetica,sans-Serif" font-size="11.00">updatedby</text>
<polygon fill="none" stroke="black" points="1123.93,-546 1123.93,-568 1206.93,-568 1206.93,-546 1123.93,-546"/>
<text text-anchor="start" x="1126.93" y="-554.2" font-family="Helvetica,sans-Serif" font-size="11.00">numeric[10]</text>
<polygon fill="#ffffff" stroke="transparent" points="1001.93,-528 1001.93,-546 1053.93,-546 1053.93,-528 1001.93,-528"/>
<polygon fill="none" stroke="black" points="1001.93,-528 1001.93,-546 1053.93,-546 1053.93,-528 1001.93,-528"/>
<text text-anchor="start" x="1004.93" y="-534.2" font-family="Helvetica,sans-Serif" font-size="11.00">&lt; 6</text>
<polygon fill="#ffffff" stroke="transparent" points="1053.93,-528 1053.93,-546 1123.93,-546 1123.93,-528 1053.93,-528"/>
<polygon fill="none" stroke="black" points="1053.93,-528 1053.93,-546 1123.93,-546 1123.93,-528 1053.93,-528"/>
<text text-anchor="start" x="1087.93" y="-534.2" font-family="Helvetica,sans-Serif" font-size="11.00">0 rows</text>
<polygon fill="#ffffff" stroke="transparent" points="1123.93,-528 1123.93,-546 1206.93,-546 1206.93,-528 1123.93,-528"/>
<polygon fill="none" stroke="black" points="1123.93,-528 1123.93,-546 1206.93,-546 1206.93,-528 1123.93,-528"/>
<text text-anchor="start" x="1187.93" y="-534.2" font-family="Helvetica,sans-Serif" font-size="11.00">0 &gt;</text>
<polygon fill="none" stroke="black" stroke-width="2" points="1000.43,-527 1000.43,-833 1207.43,-833 1207.43,-527 1000.43,-527"/>
</a>
</g>
</g>
<!-- ad_color_trl&#45;&gt;ad_client -->
<g id="edge2" class="edge">
<title>ad_color_trl:w&#45;&gt;ad_client:e</title>
<path fill="none" stroke="black" d="M986.53,-802.1C959.65,-817.14 996.59,-882.83 958.43,-909 870.83,-969.07 801.33,-976.65 719.43,-909 646.85,-849.05 773.57,-701 679.43,-701"/>
<polygon fill="black" stroke="black" points="993.11,-800.68 1001.69,-802.52 997.02,-799.84 1000.93,-799 1000.93,-799 1000.93,-799 997.02,-799.84 1000.18,-795.48 993.11,-800.68 993.11,-800.68"/>
<ellipse fill="none" stroke="black" cx="989.98" cy="-801.36" rx="3.2" ry="3.2"/>
</g>
<!-- ad_color_trl&#45;&gt;ad_language -->
<g id="edge4" class="edge">
<title>ad_color_trl:w&#45;&gt;ad_language:e</title>
<path fill="none" stroke="black" d="M986.32,-733.25C853.26,-737.49 551.6,-793.7 442.43,-745 418.43,-734.29 429.21,-701 402.93,-701"/>
<polygon fill="black" stroke="black" points="992.93,-733.14 1000.99,-736.6 996.93,-733.07 1000.93,-733 1000.93,-733 1000.93,-733 996.93,-733.07 1000.87,-729.4 992.93,-733.14 992.93,-733.14"/>
<ellipse fill="none" stroke="black" cx="989.73" cy="-733.19" rx="3.2" ry="3.2"/>
</g>
<!-- ad_color -->
<g id="node4" class="node">
<title>ad_color</title>
<g id="a_node4"><a xlink:href="../../tables/ad_color.html" xlink:title="ad_color" target="_top">
<polygon fill="#ffffff" stroke="transparent" points="777.43,-774 777.43,-898 900.43,-898 900.43,-774 777.43,-774"/>
<polygon fill="#f5f5f5" stroke="transparent" points="777.93,-876 777.93,-898 900.93,-898 900.93,-876 777.93,-876"/>
<polygon fill="none" stroke="black" points="777.93,-876 777.93,-898 900.93,-898 900.93,-876 777.93,-876"/>
<text text-anchor="start" x="782.93" y="-885.2" font-family="Helvetica,sans-Serif" font-weight="bold" font-size="11.00">ad_color</text>
<text text-anchor="start" x="865.93" y="-884.2" font-family="Helvetica,sans-Serif" font-size="11.00">[table]</text>
<polygon fill="none" stroke="black" points="777.93,-854 777.93,-876 900.93,-876 900.93,-854 777.93,-854"/>
<image xlink:href="../../images/primaryKeys.png" width="11px" height="12px" preserveAspectRatio="xMinYMin meet" x="782.933" y="-871"/>
<text text-anchor="start" x="797.93" y="-862.2" font-family="Helvetica,sans-Serif" font-size="11.00">ad_color_id</text>
<polygon fill="none" stroke="black" points="777.93,-832 777.93,-854 900.93,-854 900.93,-832 777.93,-832"/>
<image xlink:href="../../images/foreignKeys.png" width="11px" height="12px" preserveAspectRatio="xMinYMin meet" x="782.933" y="-849"/>
<text text-anchor="start" x="797.93" y="-840.2" font-family="Helvetica,sans-Serif" font-size="11.00">ad_image_id</text>
<polygon fill="#ffffff" stroke="transparent" points="777.93,-810 777.93,-832 900.93,-832 900.93,-810 777.93,-810"/>
<polygon fill="none" stroke="black" points="777.93,-810 777.93,-832 900.93,-832 900.93,-810 777.93,-810"/>
<text text-anchor="start" x="797.93" y="-818.2" font-family="Helvetica,sans-Serif" font-size="11.00">ad_color_uu</text>
<polygon fill="none" stroke="black" points="777.93,-792 777.93,-810 900.93,-810 900.93,-792 777.93,-792"/>
<text text-anchor="start" x="780.93" y="-798.2" font-family="Helvetica,sans-Serif" font-size="11.00">...</text>
<polygon fill="#ffffff" stroke="transparent" points="777.93,-774 777.93,-792 819.93,-792 819.93,-774 777.93,-774"/>
<polygon fill="none" stroke="black" points="777.93,-774 777.93,-792 819.93,-792 819.93,-774 777.93,-774"/>
<text text-anchor="start" x="780.93" y="-780.2" font-family="Helvetica,sans-Serif" font-size="11.00">&lt; 1</text>
<polygon fill="#ffffff" stroke="transparent" points="819.93,-774 819.93,-792 868.93,-792 868.93,-774 819.93,-774"/>
<polygon fill="none" stroke="black" points="819.93,-774 819.93,-792 868.93,-792 868.93,-774 819.93,-774"/>
<text text-anchor="start" x="832.93" y="-780.2" font-family="Helvetica,sans-Serif" font-size="11.00">0 rows</text>
<polygon fill="#ffffff" stroke="transparent" points="868.93,-774 868.93,-792 900.93,-792 900.93,-774 868.93,-774"/>
<polygon fill="none" stroke="black" points="868.93,-774 868.93,-792 900.93,-792 900.93,-774 868.93,-774"/>
<text text-anchor="start" x="881.93" y="-780.2" font-family="Helvetica,sans-Serif" font-size="11.00">4 &gt;</text>
</a>
</g>
</g>
<!-- ad_color_trl&#45;&gt;ad_color -->
<g id="edge3" class="edge">
<title>ad_color_trl:w&#45;&gt;ad_color:e</title>
<path fill="none" stroke="black" d="M986.56,-779.09C944.85,-792.41 955.4,-865 901.93,-865"/>
<polygon fill="black" stroke="black" points="993.02,-778.15 1001.45,-780.56 996.97,-777.58 1000.93,-777 1000.93,-777 1000.93,-777 996.97,-777.58 1000.42,-773.44 993.02,-778.15 993.02,-778.15"/>
<ellipse fill="none" stroke="black" cx="989.85" cy="-778.61" rx="3.2" ry="3.2"/>
</g>
<!-- ad_color_trl&#45;&gt;ad_org -->
<g id="edge5" class="edge">
<title>ad_color_trl:w&#45;&gt;ad_org:e</title>
<path fill="none" stroke="black" d="M986.5,-710.83C857.79,-707.64 818.12,-660.7 719.43,-568 698.38,-548.22 711.01,-527.19 686.43,-512 645.12,-486.47 298.3,-490.15 250.43,-482 232.26,-478.91 228.87,-471 210.43,-471"/>
<polygon fill="black" stroke="black" points="992.93,-710.9 1000.89,-714.6 996.93,-710.95 1000.93,-711 1000.93,-711 1000.93,-711 996.93,-710.95 1000.98,-707.4 992.93,-710.9 992.93,-710.9"/>
<ellipse fill="none" stroke="black" cx="989.73" cy="-710.86" rx="3.2" ry="3.2"/>
</g>
<!-- ad_user -->
<g id="node6" class="node">
<title>ad_user</title>
<g id="a_node6"><a xlink:href="../../tables/ad_user.html" xlink:title="ad_user" target="_top">
<polygon fill="#ffffff" stroke="transparent" points="727.43,-37 727.43,-557 950.43,-557 950.43,-37 727.43,-37"/>
<polygon fill="#f5f5f5" stroke="transparent" points="727.93,-535 727.93,-557 950.93,-557 950.93,-535 727.93,-535"/>
<polygon fill="none" stroke="black" points="727.93,-535 727.93,-557 950.93,-557 950.93,-535 727.93,-535"/>
<text text-anchor="start" x="732.93" y="-544.2" font-family="Helvetica,sans-Serif" font-weight="bold" font-size="11.00">ad_user</text>
<text text-anchor="start" x="915.93" y="-543.2" font-family="Helvetica,sans-Serif" font-size="11.00">[table]</text>
<polygon fill="none" stroke="black" points="727.93,-513 727.93,-535 950.93,-535 950.93,-513 727.93,-513"/>
<image xlink:href="../../images/primaryKeys.png" width="11px" height="12px" preserveAspectRatio="xMinYMin meet" x="732.933" y="-530"/>
<text text-anchor="start" x="747.93" y="-521.2" font-family="Helvetica,sans-Serif" font-size="11.00">ad_user_id</text>
<polygon fill="none" stroke="black" points="727.93,-491 727.93,-513 950.93,-513 950.93,-491 727.93,-491"/>
<image xlink:href="../../images/foreignKeys.png" width="11px" height="12px" preserveAspectRatio="xMinYMin meet" x="732.933" y="-508"/>
<text text-anchor="start" x="747.93" y="-499.2" font-family="Helvetica,sans-Serif" font-size="11.00">ad_client_id</text>
<polygon fill="none" stroke="black" points="727.93,-469 727.93,-491 950.93,-491 950.93,-469 727.93,-469"/>
<image xlink:href="../../images/foreignKeys.png" width="11px" height="12px" preserveAspectRatio="xMinYMin meet" x="732.933" y="-486"/>
<text text-anchor="start" x="747.93" y="-477.2" font-family="Helvetica,sans-Serif" font-size="11.00">ad_org_id</text>
<polygon fill="#ffffff" stroke="transparent" points="727.93,-447 727.93,-469 950.93,-469 950.93,-447 727.93,-447"/>
<polygon fill="none" stroke="black" points="727.93,-447 727.93,-469 950.93,-469 950.93,-447 727.93,-447"/>
<text text-anchor="start" x="747.93" y="-455.2" font-family="Helvetica,sans-Serif" font-size="11.00">name</text>
<polygon fill="#ffffff" stroke="transparent" points="727.93,-425 727.93,-447 950.93,-447 950.93,-425 727.93,-425"/>
<polygon fill="none" stroke="black" points="727.93,-425 727.93,-447 950.93,-447 950.93,-425 727.93,-425"/>
<text text-anchor="start" x="747.93" y="-433.2" font-family="Helvetica,sans-Serif" font-size="11.00">email</text>
<polygon fill="none" stroke="black" points="727.93,-403 727.93,-425 950.93,-425 950.93,-403 727.93,-403"/>
<image xlink:href="../../images/foreignKeys.png" width="11px" height="12px" preserveAspectRatio="xMinYMin meet" x="732.933" y="-420"/>
<text text-anchor="start" x="747.93" y="-411.2" font-family="Helvetica,sans-Serif" font-size="11.00">supervisor_id</text>
<polygon fill="#ffffff" stroke="transparent" points="727.93,-381 727.93,-403 950.93,-403 950.93,-381 727.93,-381"/>
<polygon fill="none" stroke="black" points="727.93,-381 727.93,-403 950.93,-403 950.93,-381 727.93,-381"/>
<image xlink:href="../../images/foreignKeys.png" width="11px" height="12px" preserveAspectRatio="xMinYMin meet" x="732.933" y="-398"/>
<text text-anchor="start" x="747.93" y="-389.2" font-family="Helvetica,sans-Serif" font-size="11.00">c_bpartner_id</text>
<polygon fill="none" stroke="black" points="727.93,-359 727.93,-381 950.93,-381 950.93,-359 727.93,-359"/>
<image xlink:href="../../images/foreignKeys.png" width="11px" height="12px" preserveAspectRatio="xMinYMin meet" x="732.933" y="-376"/>
<text text-anchor="start" x="747.93" y="-367.2" font-family="Helvetica,sans-Serif" font-size="11.00">c_bpartner_location_id</text>
<polygon fill="none" stroke="black" points="727.93,-337 727.93,-359 950.93,-359 950.93,-337 727.93,-337"/>
<image xlink:href="../../images/foreignKeys.png" width="11px" height="12px" preserveAspectRatio="xMinYMin meet" x="732.933" y="-354"/>
<text text-anchor="start" x="747.93" y="-345.2" font-family="Helvetica,sans-Serif" font-size="11.00">c_greeting_id</text>
<polygon fill="none" stroke="black" points="727.93,-315 727.93,-337 950.93,-337 950.93,-315 727.93,-315"/>
<image xlink:href="../../images/foreignKeys.png" width="11px" height="12px" preserveAspectRatio="xMinYMin meet" x="732.933" y="-332"/>
<text text-anchor="start" x="747.93" y="-323.2" font-family="Helvetica,sans-Serif" font-size="11.00">ad_orgtrx_id</text>
<polygon fill="none" stroke="black" points="727.93,-293 727.93,-315 950.93,-315 950.93,-293 727.93,-293"/>
<image xlink:href="../../images/foreignKeys.png" width="11px" height="12px" preserveAspectRatio="xMinYMin meet" x="732.933" y="-310"/>
<text text-anchor="start" x="747.93" y="-301.2" font-family="Helvetica,sans-Serif" font-size="11.00">c_job_id</text>
<polygon fill="#ffffff" stroke="transparent" points="727.93,-271 727.93,-293 950.93,-293 950.93,-271 727.93,-271"/>
<polygon fill="none" stroke="black" points="727.93,-271 727.93,-293 950.93,-293 950.93,-271 727.93,-271"/>
<text text-anchor="start" x="747.93" y="-279.2" font-family="Helvetica,sans-Serif" font-size="11.00">ad_user_uu</text>
<polygon fill="none" stroke="black" points="727.93,-249 727.93,-271 950.93,-271 950.93,-249 727.93,-249"/>
<image xlink:href="../../images/foreignKeys.png" width="11px" height="12px" preserveAspectRatio="xMinYMin meet" x="732.933" y="-266"/>
<text text-anchor="start" x="747.93" y="-257.2" font-family="Helvetica,sans-Serif" font-size="11.00">c_location_id</text>
<polygon fill="none" stroke="black" points="727.93,-227 727.93,-249 950.93,-249 950.93,-227 727.93,-227"/>
<image xlink:href="../../images/foreignKeys.png" width="11px" height="12px" preserveAspectRatio="xMinYMin meet" x="732.933" y="-244"/>
<text text-anchor="start" x="747.93" y="-235.2" font-family="Helvetica,sans-Serif" font-size="11.00">c_campaign_id</text>
<polygon fill="none" stroke="black" points="727.93,-205 727.93,-227 950.93,-227 950.93,-205 727.93,-205"/>
<image xlink:href="../../images/foreignKeys.png" width="11px" height="12px" preserveAspectRatio="xMinYMin meet" x="732.933" y="-222"/>
<text text-anchor="start" x="747.93" y="-213.2" font-family="Helvetica,sans-Serif" font-size="11.00">salesrep_id</text>
<polygon fill="none" stroke="black" points="727.93,-183 727.93,-205 950.93,-205 950.93,-183 727.93,-183"/>
<image xlink:href="../../images/foreignKeys.png" width="11px" height="12px" preserveAspectRatio="xMinYMin meet" x="732.933" y="-200"/>
<text text-anchor="start" x="747.93" y="-191.2" font-family="Helvetica,sans-Serif" font-size="11.00">bp_location_id</text>
<polygon fill="none" stroke="black" points="727.93,-161 727.93,-183 950.93,-183 950.93,-161 727.93,-161"/>
<image xlink:href="../../images/foreignKeys.png" width="11px" height="12px" preserveAspectRatio="xMinYMin meet" x="732.933" y="-178"/>
<text text-anchor="start" x="747.93" y="-169.2" font-family="Helvetica,sans-Serif" font-size="11.00">r_defaultmailtext_id</text>
<polygon fill="none" stroke="black" points="727.93,-139 727.93,-161 950.93,-161 950.93,-139 727.93,-139"/>
<image xlink:href="../../images/foreignKeys.png" width="11px" height="12px" preserveAspectRatio="xMinYMin meet" x="732.933" y="-156"/>
<text text-anchor="start" x="747.93" y="-147.2" font-family="Helvetica,sans-Serif" font-size="11.00">cof_c_marketsegment_id</text>
<polygon fill="none" stroke="black" points="727.93,-117 727.93,-139 950.93,-139 950.93,-117 727.93,-117"/>
<image xlink:href="../../images/foreignKeys.png" width="11px" height="12px" preserveAspectRatio="xMinYMin meet" x="732.933" y="-134"/>
<text text-anchor="start" x="747.93" y="-125.2" font-family="Helvetica,sans-Serif" font-size="11.00">cof_c_leadexpirationreason_id</text>
<polygon fill="none" stroke="black" points="727.93,-95 727.93,-117 950.93,-117 950.93,-95 727.93,-95"/>
<image xlink:href="../../images/foreignKeys.png" width="11px" height="12px" preserveAspectRatio="xMinYMin meet" x="732.933" y="-112"/>
<text text-anchor="start" x="747.93" y="-103.2" font-family="Helvetica,sans-Serif" font-size="11.00">ad_image_id</text>
<polygon fill="none" stroke="black" points="727.93,-73 727.93,-95 950.93,-95 950.93,-73 727.93,-73"/>
<image xlink:href="../../images/foreignKeys.png" width="11px" height="12px" preserveAspectRatio="xMinYMin meet" x="732.933" y="-90"/>
<text text-anchor="start" x="747.93" y="-81.2" font-family="Helvetica,sans-Serif" font-size="11.00">c_subscription_id</text>
<polygon fill="none" stroke="black" points="727.93,-55 727.93,-73 950.93,-73 950.93,-55 727.93,-55"/>
<text text-anchor="start" x="730.93" y="-61.2" font-family="Helvetica,sans-Serif" font-size="11.00">...</text>
<polygon fill="#ffffff" stroke="transparent" points="727.93,-37 727.93,-55 816.93,-55 816.93,-37 727.93,-37"/>
<polygon fill="none" stroke="black" points="727.93,-37 727.93,-55 816.93,-55 816.93,-37 727.93,-37"/>
<text text-anchor="start" x="730.93" y="-43.2" font-family="Helvetica,sans-Serif" font-size="11.00">&lt; 17</text>
<polygon fill="#ffffff" stroke="transparent" points="816.93,-37 816.93,-55 885.93,-55 885.93,-37 816.93,-37"/>
<polygon fill="none" stroke="black" points="816.93,-37 816.93,-55 885.93,-55 885.93,-37 816.93,-37"/>
<text text-anchor="start" x="849.93" y="-43.2" font-family="Helvetica,sans-Serif" font-size="11.00">8 rows</text>
<polygon fill="#ffffff" stroke="transparent" points="885.93,-37 885.93,-55 950.93,-55 950.93,-37 885.93,-37"/>
<polygon fill="none" stroke="black" points="885.93,-37 885.93,-55 950.93,-55 950.93,-37 885.93,-37"/>
<text text-anchor="start" x="919.93" y="-43.2" font-family="Helvetica,sans-Serif" font-size="11.00">316 &gt;</text>
</a>
</g>
</g>
<!-- ad_color_trl&#45;&gt;ad_user -->
<g id="edge6" class="edge">
<title>ad_color_trl:w&#45;&gt;ad_user:e</title>
<path fill="none" stroke="black" d="M986.8,-664.01C947.3,-643.48 1013.34,-524 951.93,-524"/>
<polygon fill="black" stroke="black" points="993.11,-665.35 1000.19,-670.52 997.02,-666.17 1000.93,-667 1000.93,-667 1000.93,-667 997.02,-666.17 1001.68,-663.48 993.11,-665.35 993.11,-665.35"/>
<ellipse fill="none" stroke="black" cx="989.98" cy="-664.68" rx="3.2" ry="3.2"/>
</g>
<!-- ad_color_trl&#45;&gt;ad_user -->
<g id="edge7" class="edge">
<title>ad_color_trl:w&#45;&gt;ad_user:e</title>
<path fill="none" stroke="black" d="M986.98,-552.69C974.74,-543.74 972.24,-524 951.93,-524"/>
<polygon fill="black" stroke="black" points="993.29,-554.64 999.87,-560.44 997.11,-555.82 1000.93,-557 1000.93,-557 1000.93,-557 997.11,-555.82 1002,-553.56 993.29,-554.64 993.29,-554.64"/>
<ellipse fill="none" stroke="black" cx="990.23" cy="-553.69" rx="3.2" ry="3.2"/>
</g>
<!-- ad_org&#45;&gt;ad_client -->
<g id="edge10" class="edge">
<title>ad_org:w&#45;&gt;ad_client:e</title>
<path fill="none" stroke="black" d="M3.23,-455.17C-4.84,-467.14 3.73,-493.6 17.43,-508 137.82,-634.47 280.3,-416.48 409.43,-534 477.36,-595.82 372.5,-678.47 442.43,-738 452.42,-746.5 669.04,-747.14 678.43,-738 690.22,-726.53 695.88,-701 679.43,-701"/>
<polygon fill="black" stroke="black" points="9.19,-452.39 17.96,-452.26 12.81,-450.69 16.43,-449 16.43,-449 16.43,-449 12.81,-450.69 14.91,-445.74 9.19,-452.39 9.19,-452.39"/>
<ellipse fill="none" stroke="black" cx="6.29" cy="-453.74" rx="3.2" ry="3.2"/>
</g>
<!-- ad_user&#45;&gt;ad_client -->
<g id="edge11" class="edge">
<title>ad_user:w&#45;&gt;ad_client:e</title>
<path fill="none" stroke="black" d="M712.41,-504.23C651.92,-526.1 764.68,-701 679.43,-701"/>
<polygon fill="black" stroke="black" points="719.03,-503.22 727.48,-505.56 722.98,-502.61 726.93,-502 726.93,-502 726.93,-502 722.98,-502.61 726.39,-498.44 719.03,-503.22 719.03,-503.22"/>
<ellipse fill="none" stroke="black" cx="715.86" cy="-503.7" rx="3.2" ry="3.2"/>
</g>
<!-- ad_user&#45;&gt;ad_org -->
<g id="edge12" class="edge">
<title>ad_user:w&#45;&gt;ad_org:e</title>
<path fill="none" stroke="black" d="M712.37,-479.99C494.8,-479.62 435.09,-471 210.43,-471"/>
<polygon fill="black" stroke="black" points="718.93,-479.99 726.93,-483.6 722.93,-480 726.93,-480 726.93,-480 726.93,-480 722.93,-480 726.94,-476.4 718.93,-479.99 718.93,-479.99"/>
<ellipse fill="none" stroke="black" cx="715.73" cy="-479.99" rx="3.2" ry="3.2"/>
</g>
<!-- ad_user&#45;&gt;ad_org -->
<g id="edge13" class="edge">
<title>ad_user:w&#45;&gt;ad_org:e</title>
<path fill="none" stroke="black" d="M712.51,-326.18C486.79,-331.89 443.97,-471 210.43,-471"/>
<polygon fill="black" stroke="black" points="718.93,-326.1 726.98,-329.6 722.93,-326.05 726.93,-326 726.93,-326 726.93,-326 722.93,-326.05 726.89,-322.4 718.93,-326.1 718.93,-326.1"/>
<ellipse fill="none" stroke="black" cx="715.73" cy="-326.14" rx="3.2" ry="3.2"/>
</g>
</g>
</svg>
