<?xml version="1.0" encoding="UTF-8" standalone="no"?>
<!DOCTYPE svg PUBLIC "-//W3C//DTD SVG 1.1//EN"
 "http://www.w3.org/Graphics/SVG/1.1/DTD/svg11.dtd">
<!-- Generated by graphviz version 2.43.0 (0)
 -->
<!-- Title: oneDegreeRelationshipsDiagram Pages: 1 -->
<svg width="755pt" height="509pt"
 viewBox="0.00 0.00 755.00 509.00" xmlns="http://www.w3.org/2000/svg" xmlns:xlink="http://www.w3.org/1999/xlink">
<g id="graph0" class="graph" transform="scale(1 1) rotate(0) translate(4 505)">
<title>oneDegreeRelationshipsDiagram</title>
<polygon fill="#ffffff" stroke="transparent" points="-4,4 -4,-505 751,-505 751,4 -4,4"/>
<text text-anchor="middle" x="71.5" y="-7.2" font-family="Helvetica,sans-Serif" font-size="11.00">Generated by SchemaSpy</text>
<!-- ad_labelprinterfunction -->
<g id="node1" class="node">
<title>ad_labelprinterfunction</title>
<g id="a_node1"><a xlink:href="../../tables/ad_labelprinterfunction.html" xlink:title="ad_labelprinterfunction" target="_top">
<polygon fill="#ffffff" stroke="transparent" points="203,-37 203,-433 492,-433 492,-37 203,-37"/>
<polygon fill="#f5f5f5" stroke="transparent" points="205.5,-409 205.5,-431 490.5,-431 490.5,-409 205.5,-409"/>
<polygon fill="none" stroke="black" points="205.5,-409 205.5,-431 490.5,-431 490.5,-409 205.5,-409"/>
<text text-anchor="start" x="210.5" y="-418.2" font-family="Helvetica,sans-Serif" font-weight="bold" font-size="11.00">ad_labelprinterfunction</text>
<text text-anchor="start" x="455.5" y="-417.2" font-family="Helvetica,sans-Serif" font-size="11.00">[table]</text>
<polygon fill="none" stroke="black" points="205.5,-387 205.5,-409 407.5,-409 407.5,-387 205.5,-387"/>
<image xlink:href="../../images/primaryKeys.png" width="11px" height="12px" preserveAspectRatio="xMinYMin meet" x="210.5" y="-404"/>
<text text-anchor="start" x="225.5" y="-395.2" font-family="Helvetica,sans-Serif" font-size="11.00">ad_labelprinterfunction_id</text>
<polygon fill="none" stroke="black" points="407.5,-387 407.5,-409 490.5,-409 490.5,-387 407.5,-387"/>
<text text-anchor="start" x="410.5" y="-395.2" font-family="Helvetica,sans-Serif" font-size="11.00">numeric[10]</text>
<polygon fill="none" stroke="black" points="205.5,-365 205.5,-387 407.5,-387 407.5,-365 205.5,-365"/>
<text text-anchor="start" x="225.5" y="-373.2" font-family="Helvetica,sans-Serif" font-size="11.00">ad_client_id</text>
<polygon fill="none" stroke="black" points="407.5,-365 407.5,-387 490.5,-387 490.5,-365 407.5,-365"/>
<text text-anchor="start" x="410.5" y="-373.2" font-family="Helvetica,sans-Serif" font-size="11.00">numeric[10]</text>
<polygon fill="none" stroke="black" points="205.5,-343 205.5,-365 407.5,-365 407.5,-343 205.5,-343"/>
<text text-anchor="start" x="225.5" y="-351.2" font-family="Helvetica,sans-Serif" font-size="11.00">ad_org_id</text>
<polygon fill="none" stroke="black" points="407.5,-343 407.5,-365 490.5,-365 490.5,-343 407.5,-343"/>
<text text-anchor="start" x="410.5" y="-351.2" font-family="Helvetica,sans-Serif" font-size="11.00">numeric[10]</text>
<polygon fill="none" stroke="black" points="205.5,-321 205.5,-343 407.5,-343 407.5,-321 205.5,-321"/>
<text text-anchor="start" x="225.5" y="-329.2" font-family="Helvetica,sans-Serif" font-size="11.00">isactive</text>
<polygon fill="none" stroke="black" points="407.5,-321 407.5,-343 490.5,-343 490.5,-321 407.5,-321"/>
<text text-anchor="start" x="410.5" y="-329.2" font-family="Helvetica,sans-Serif" font-size="11.00">bpchar[1]</text>
<polygon fill="none" stroke="black" points="205.5,-299 205.5,-321 407.5,-321 407.5,-299 205.5,-299"/>
<text text-anchor="start" x="225.5" y="-307.2" font-family="Helvetica,sans-Serif" font-size="11.00">created</text>
<polygon fill="none" stroke="black" points="407.5,-299 407.5,-321 490.5,-321 490.5,-299 407.5,-299"/>
<text text-anchor="start" x="410.5" y="-307.2" font-family="Helvetica,sans-Serif" font-size="11.00">timestamp[29,6]</text>
<polygon fill="none" stroke="black" points="205.5,-277 205.5,-299 407.5,-299 407.5,-277 205.5,-277"/>
<text text-anchor="start" x="225.5" y="-285.2" font-family="Helvetica,sans-Serif" font-size="11.00">createdby</text>
<polygon fill="none" stroke="black" points="407.5,-277 407.5,-299 490.5,-299 490.5,-277 407.5,-277"/>
<text text-anchor="start" x="410.5" y="-285.2" font-family="Helvetica,sans-Serif" font-size="11.00">numeric[10]</text>
<polygon fill="none" stroke="black" points="205.5,-255 205.5,-277 407.5,-277 407.5,-255 205.5,-255"/>
<text text-anchor="start" x="225.5" y="-263.2" font-family="Helvetica,sans-Serif" font-size="11.00">updated</text>
<polygon fill="none" stroke="black" points="407.5,-255 407.5,-277 490.5,-277 490.5,-255 407.5,-255"/>
<text text-anchor="start" x="410.5" y="-263.2" font-family="Helvetica,sans-Serif" font-size="11.00">timestamp[29,6]</text>
<polygon fill="none" stroke="black" points="205.5,-233 205.5,-255 407.5,-255 407.5,-233 205.5,-233"/>
<text text-anchor="start" x="225.5" y="-241.2" font-family="Helvetica,sans-Serif" font-size="11.00">updatedby</text>
<polygon fill="none" stroke="black" points="407.5,-233 407.5,-255 490.5,-255 490.5,-233 407.5,-233"/>
<text text-anchor="start" x="410.5" y="-241.2" font-family="Helvetica,sans-Serif" font-size="11.00">numeric[10]</text>
<polygon fill="none" stroke="black" points="205.5,-211 205.5,-233 407.5,-233 407.5,-211 205.5,-211"/>
<text text-anchor="start" x="225.5" y="-219.2" font-family="Helvetica,sans-Serif" font-size="11.00">name</text>
<polygon fill="none" stroke="black" points="407.5,-211 407.5,-233 490.5,-233 490.5,-211 407.5,-211"/>
<text text-anchor="start" x="410.5" y="-219.2" font-family="Helvetica,sans-Serif" font-size="11.00">varchar[60]</text>
<polygon fill="none" stroke="black" points="205.5,-189 205.5,-211 407.5,-211 407.5,-189 205.5,-189"/>
<text text-anchor="start" x="225.5" y="-197.2" font-family="Helvetica,sans-Serif" font-size="11.00">description</text>
<polygon fill="none" stroke="black" points="407.5,-189 407.5,-211 490.5,-211 490.5,-189 407.5,-189"/>
<text text-anchor="start" x="410.5" y="-197.2" font-family="Helvetica,sans-Serif" font-size="11.00">varchar[255]</text>
<polygon fill="none" stroke="black" points="205.5,-167 205.5,-189 407.5,-189 407.5,-167 205.5,-167"/>
<image xlink:href="../../images/foreignKeys.png" width="11px" height="12px" preserveAspectRatio="xMinYMin meet" x="210.5" y="-184"/>
<text text-anchor="start" x="225.5" y="-175.2" font-family="Helvetica,sans-Serif" font-size="11.00">ad_labelprinter_id</text>
<polygon fill="none" stroke="black" points="407.5,-167 407.5,-189 490.5,-189 490.5,-167 407.5,-167"/>
<text text-anchor="start" x="410.5" y="-175.2" font-family="Helvetica,sans-Serif" font-size="11.00">numeric[10]</text>
<polygon fill="none" stroke="black" points="205.5,-145 205.5,-167 407.5,-167 407.5,-145 205.5,-145"/>
<text text-anchor="start" x="225.5" y="-153.2" font-family="Helvetica,sans-Serif" font-size="11.00">functionprefix</text>
<polygon fill="none" stroke="black" points="407.5,-145 407.5,-167 490.5,-167 490.5,-145 407.5,-145"/>
<text text-anchor="start" x="410.5" y="-153.2" font-family="Helvetica,sans-Serif" font-size="11.00">varchar[40]</text>
<polygon fill="none" stroke="black" points="205.5,-123 205.5,-145 407.5,-145 407.5,-123 205.5,-123"/>
<text text-anchor="start" x="225.5" y="-131.2" font-family="Helvetica,sans-Serif" font-size="11.00">functionsuffix</text>
<polygon fill="none" stroke="black" points="407.5,-123 407.5,-145 490.5,-145 490.5,-123 407.5,-123"/>
<text text-anchor="start" x="410.5" y="-131.2" font-family="Helvetica,sans-Serif" font-size="11.00">varchar[40]</text>
<polygon fill="none" stroke="black" points="205.5,-101 205.5,-123 407.5,-123 407.5,-101 205.5,-101"/>
<text text-anchor="start" x="225.5" y="-109.2" font-family="Helvetica,sans-Serif" font-size="11.00">isxyposition</text>
<polygon fill="none" stroke="black" points="407.5,-101 407.5,-123 490.5,-123 490.5,-101 407.5,-101"/>
<text text-anchor="start" x="410.5" y="-109.2" font-family="Helvetica,sans-Serif" font-size="11.00">bpchar[1]</text>
<polygon fill="none" stroke="black" points="205.5,-79 205.5,-101 407.5,-101 407.5,-79 205.5,-79"/>
<text text-anchor="start" x="225.5" y="-87.2" font-family="Helvetica,sans-Serif" font-size="11.00">xyseparator</text>
<polygon fill="none" stroke="black" points="407.5,-79 407.5,-101 490.5,-101 490.5,-79 407.5,-79"/>
<text text-anchor="start" x="410.5" y="-87.2" font-family="Helvetica,sans-Serif" font-size="11.00">varchar[20]</text>
<polygon fill="#ffffff" stroke="transparent" points="205.5,-57 205.5,-79 407.5,-79 407.5,-57 205.5,-57"/>
<polygon fill="none" stroke="black" points="205.5,-57 205.5,-79 407.5,-79 407.5,-57 205.5,-57"/>
<text text-anchor="start" x="225.5" y="-65.2" font-family="Helvetica,sans-Serif" font-size="11.00">ad_labelprinterfunction_uu</text>
<polygon fill="none" stroke="black" points="407.5,-57 407.5,-79 490.5,-79 490.5,-57 407.5,-57"/>
<text text-anchor="start" x="410.5" y="-65.2" font-family="Helvetica,sans-Serif" font-size="11.00">varchar[36]</text>
<polygon fill="#ffffff" stroke="transparent" points="205.5,-39 205.5,-57 297.5,-57 297.5,-39 205.5,-39"/>
<polygon fill="none" stroke="black" points="205.5,-39 205.5,-57 297.5,-57 297.5,-39 205.5,-39"/>
<text text-anchor="start" x="208.5" y="-45.2" font-family="Helvetica,sans-Serif" font-size="11.00">&lt; 1</text>
<polygon fill="#ffffff" stroke="transparent" points="297.5,-39 297.5,-57 407.5,-57 407.5,-39 297.5,-39"/>
<polygon fill="none" stroke="black" points="297.5,-39 297.5,-57 407.5,-57 407.5,-39 297.5,-39"/>
<text text-anchor="start" x="371.5" y="-45.2" font-family="Helvetica,sans-Serif" font-size="11.00">0 rows</text>
<polygon fill="#ffffff" stroke="transparent" points="407.5,-39 407.5,-57 490.5,-57 490.5,-39 407.5,-39"/>
<polygon fill="none" stroke="black" points="407.5,-39 407.5,-57 490.5,-57 490.5,-39 407.5,-39"/>
<text text-anchor="start" x="471.5" y="-45.2" font-family="Helvetica,sans-Serif" font-size="11.00">1 &gt;</text>
<polygon fill="none" stroke="black" stroke-width="2" points="204,-38 204,-432 491,-432 491,-38 204,-38"/>
</a>
</g>
</g>
<!-- ad_labelprinter -->
<g id="node2" class="node">
<title>ad_labelprinter</title>
<g id="a_node2"><a xlink:href="../../tables/ad_labelprinter.html" xlink:title="ad_labelprinter" target="_top">
<polygon fill="#ffffff" stroke="transparent" points="8,-109 8,-211 154,-211 154,-109 8,-109"/>
<polygon fill="#f5f5f5" stroke="transparent" points="8,-189 8,-211 154,-211 154,-189 8,-189"/>
<polygon fill="none" stroke="black" points="8,-189 8,-211 154,-211 154,-189 8,-189"/>
<text text-anchor="start" x="13" y="-198.2" font-family="Helvetica,sans-Serif" font-weight="bold" font-size="11.00">ad_labelprinter</text>
<text text-anchor="start" x="119" y="-197.2" font-family="Helvetica,sans-Serif" font-size="11.00">[table]</text>
<polygon fill="none" stroke="black" points="8,-167 8,-189 154,-189 154,-167 8,-167"/>
<image xlink:href="../../images/primaryKeys.png" width="11px" height="12px" preserveAspectRatio="xMinYMin meet" x="13" y="-184"/>
<text text-anchor="start" x="28" y="-175.2" font-family="Helvetica,sans-Serif" font-size="11.00">ad_labelprinter_id</text>
<polygon fill="#ffffff" stroke="transparent" points="8,-145 8,-167 154,-167 154,-145 8,-145"/>
<polygon fill="none" stroke="black" points="8,-145 8,-167 154,-167 154,-145 8,-145"/>
<text text-anchor="start" x="28" y="-153.2" font-family="Helvetica,sans-Serif" font-size="11.00">ad_labelprinter_uu</text>
<polygon fill="none" stroke="black" points="8,-127 8,-145 154,-145 154,-127 8,-127"/>
<text text-anchor="start" x="11" y="-133.2" font-family="Helvetica,sans-Serif" font-size="11.00">...</text>
<polygon fill="#ffffff" stroke="transparent" points="8,-109 8,-127 57,-127 57,-109 8,-109"/>
<polygon fill="none" stroke="black" points="8,-109 8,-127 57,-127 57,-109 8,-109"/>
<text text-anchor="start" x="11" y="-115.2" font-family="Helvetica,sans-Serif" font-size="11.00"> &#160;</text>
<polygon fill="#ffffff" stroke="transparent" points="57,-109 57,-127 114,-127 114,-109 57,-109"/>
<polygon fill="none" stroke="black" points="57,-109 57,-127 114,-127 114,-109 57,-109"/>
<text text-anchor="start" x="78" y="-115.2" font-family="Helvetica,sans-Serif" font-size="11.00">0 rows</text>
<polygon fill="#ffffff" stroke="transparent" points="114,-109 114,-127 154,-127 154,-109 114,-109"/>
<polygon fill="none" stroke="black" points="114,-109 114,-127 154,-127 154,-109 114,-109"/>
<text text-anchor="start" x="135" y="-115.2" font-family="Helvetica,sans-Serif" font-size="11.00">2 &gt;</text>
</a>
</g>
</g>
<!-- ad_labelprinterfunction&#45;&gt;ad_labelprinter -->
<g id="edge1" class="edge">
<title>ad_labelprinterfunction:w&#45;&gt;ad_labelprinter:e</title>
<path fill="none" stroke="black" d="M189.84,-178C178.41,-178 171.16,-178 155,-178"/>
<polygon fill="black" stroke="black" points="196.5,-178 204.5,-181.6 200.5,-178 204.5,-178 204.5,-178 204.5,-178 200.5,-178 204.5,-174.4 196.5,-178 196.5,-178"/>
<ellipse fill="none" stroke="black" cx="193.3" cy="-178" rx="3.2" ry="3.2"/>
</g>
<!-- ad_printlabelline -->
<g id="node3" class="node">
<title>ad_printlabelline</title>
<g id="a_node3"><a xlink:href="../../tables/ad_printlabelline.html" xlink:title="ad_printlabelline" target="_top">
<polygon fill="#ffffff" stroke="transparent" points="541,-329 541,-497 739,-497 739,-329 541,-329"/>
<polygon fill="#f5f5f5" stroke="transparent" points="541,-475 541,-497 739,-497 739,-475 541,-475"/>
<polygon fill="none" stroke="black" points="541,-475 541,-497 739,-497 739,-475 541,-475"/>
<text text-anchor="start" x="546" y="-484.2" font-family="Helvetica,sans-Serif" font-weight="bold" font-size="11.00">ad_printlabelline</text>
<text text-anchor="start" x="704" y="-483.2" font-family="Helvetica,sans-Serif" font-size="11.00">[table]</text>
<polygon fill="none" stroke="black" points="541,-453 541,-475 739,-475 739,-453 541,-453"/>
<image xlink:href="../../images/primaryKeys.png" width="11px" height="12px" preserveAspectRatio="xMinYMin meet" x="546" y="-470"/>
<text text-anchor="start" x="561" y="-461.2" font-family="Helvetica,sans-Serif" font-size="11.00">ad_printlabelline_id</text>
<polygon fill="none" stroke="black" points="541,-431 541,-453 739,-453 739,-431 541,-431"/>
<image xlink:href="../../images/foreignKeys.png" width="11px" height="12px" preserveAspectRatio="xMinYMin meet" x="546" y="-448"/>
<text text-anchor="start" x="561" y="-439.2" font-family="Helvetica,sans-Serif" font-size="11.00">ad_printlabel_id</text>
<polygon fill="none" stroke="black" points="541,-409 541,-431 739,-431 739,-409 541,-409"/>
<image xlink:href="../../images/foreignKeys.png" width="11px" height="12px" preserveAspectRatio="xMinYMin meet" x="546" y="-426"/>
<text text-anchor="start" x="561" y="-417.2" font-family="Helvetica,sans-Serif" font-size="11.00">ad_column_id</text>
<polygon fill="none" stroke="black" points="541,-387 541,-409 739,-409 739,-387 541,-387"/>
<image xlink:href="../../images/foreignKeys.png" width="11px" height="12px" preserveAspectRatio="xMinYMin meet" x="546" y="-404"/>
<text text-anchor="start" x="561" y="-395.2" font-family="Helvetica,sans-Serif" font-size="11.00">ad_labelprinterfunction_id</text>
<polygon fill="#ffffff" stroke="transparent" points="541,-365 541,-387 739,-387 739,-365 541,-365"/>
<polygon fill="none" stroke="black" points="541,-365 541,-387 739,-387 739,-365 541,-365"/>
<text text-anchor="start" x="561" y="-373.2" font-family="Helvetica,sans-Serif" font-size="11.00">ad_printlabelline_uu</text>
<polygon fill="none" stroke="black" points="541,-347 541,-365 739,-365 739,-347 541,-347"/>
<text text-anchor="start" x="544" y="-353.2" font-family="Helvetica,sans-Serif" font-size="11.00">...</text>
<polygon fill="#ffffff" stroke="transparent" points="541,-329 541,-347 620,-347 620,-329 541,-329"/>
<polygon fill="none" stroke="black" points="541,-329 541,-347 620,-347 620,-329 541,-329"/>
<text text-anchor="start" x="544" y="-335.2" font-family="Helvetica,sans-Serif" font-size="11.00">&lt; 3</text>
<polygon fill="#ffffff" stroke="transparent" points="620,-329 620,-347 688,-347 688,-329 620,-329"/>
<polygon fill="none" stroke="black" points="620,-329 620,-347 688,-347 688,-329 620,-329"/>
<text text-anchor="start" x="652" y="-335.2" font-family="Helvetica,sans-Serif" font-size="11.00">0 rows</text>
<polygon fill="#ffffff" stroke="transparent" points="688,-329 688,-347 739,-347 739,-329 688,-329"/>
<polygon fill="none" stroke="black" points="688,-329 688,-347 739,-347 739,-329 688,-329"/>
<text text-anchor="start" x="720" y="-335.2" font-family="Helvetica,sans-Serif" font-size="11.00">1 &gt;</text>
</a>
</g>
</g>
<!-- ad_printlabelline&#45;&gt;ad_labelprinterfunction -->
<g id="edge2" class="edge">
<title>ad_printlabelline:w&#45;&gt;ad_labelprinterfunction:e</title>
<path fill="none" stroke="black" d="M525.28,-398C514.29,-398 507.16,-398 491.5,-398"/>
<polygon fill="black" stroke="black" points="532,-398 540,-401.6 536,-398 540,-398 540,-398 540,-398 536,-398 540,-394.4 532,-398 532,-398"/>
<ellipse fill="none" stroke="black" cx="528.8" cy="-398" rx="3.2" ry="3.2"/>
</g>
</g>
</svg>
