<?xml version="1.0" encoding="UTF-8" standalone="no"?>
<!DOCTYPE svg PUBLIC "-//W3C//DTD SVG 1.1//EN"
 "http://www.w3.org/Graphics/SVG/1.1/DTD/svg11.dtd">
<!-- Generated by graphviz version 2.43.0 (0)
 -->
<!-- Title: oneDegreeRelationshipsDiagram Pages: 1 -->
<svg width="1449pt" height="1061pt"
 viewBox="0.00 0.00 1449.00 1061.00" xmlns="http://www.w3.org/2000/svg" xmlns:xlink="http://www.w3.org/1999/xlink">
<g id="graph0" class="graph" transform="scale(1 1) rotate(0) translate(4 1057)">
<title>oneDegreeRelationshipsDiagram</title>
<polygon fill="#ffffff" stroke="transparent" points="-4,4 -4,-1057 1445,-1057 1445,4 -4,4"/>
<text text-anchor="middle" x="71.5" y="-7.2" font-family="Helvetica,sans-Serif" font-size="11.00">Generated by SchemaSpy</text>
<!-- ad_printformat -->
<g id="node1" class="node">
<title>ad_printformat</title>
<g id="a_node1"><a xlink:href="../../tables/ad_printformat.html" xlink:title="ad_printformat" target="_top">
<polygon fill="#ffffff" stroke="transparent" points="671,-336 671,-680 855,-680 855,-336 671,-336"/>
<polygon fill="#f5f5f5" stroke="transparent" points="671,-658 671,-680 855,-680 855,-658 671,-658"/>
<polygon fill="none" stroke="black" points="671,-658 671,-680 855,-680 855,-658 671,-658"/>
<text text-anchor="start" x="676" y="-667.2" font-family="Helvetica,sans-Serif" font-weight="bold" font-size="11.00">ad_printformat</text>
<text text-anchor="start" x="820" y="-666.2" font-family="Helvetica,sans-Serif" font-size="11.00">[table]</text>
<polygon fill="none" stroke="black" points="671,-636 671,-658 855,-658 855,-636 671,-636"/>
<image xlink:href="../../images/primaryKeys.png" width="11px" height="12px" preserveAspectRatio="xMinYMin meet" x="676" y="-653"/>
<text text-anchor="start" x="691" y="-644.2" font-family="Helvetica,sans-Serif" font-size="11.00">ad_printformat_id</text>
<polygon fill="#ffffff" stroke="transparent" points="671,-614 671,-636 855,-636 855,-614 671,-614"/>
<polygon fill="none" stroke="black" points="671,-614 671,-636 855,-636 855,-614 671,-614"/>
<text text-anchor="start" x="691" y="-622.2" font-family="Helvetica,sans-Serif" font-size="11.00">ad_client_id</text>
<polygon fill="#ffffff" stroke="transparent" points="671,-592 671,-614 855,-614 855,-592 671,-592"/>
<polygon fill="none" stroke="black" points="671,-592 671,-614 855,-614 855,-592 671,-592"/>
<text text-anchor="start" x="691" y="-600.2" font-family="Helvetica,sans-Serif" font-size="11.00">name</text>
<polygon fill="#ffffff" stroke="transparent" points="671,-570 671,-592 855,-592 855,-570 671,-570"/>
<polygon fill="none" stroke="black" points="671,-570 671,-592 855,-592 855,-570 671,-570"/>
<image xlink:href="../../images/foreignKeys.png" width="11px" height="12px" preserveAspectRatio="xMinYMin meet" x="676" y="-587"/>
<text text-anchor="start" x="691" y="-578.2" font-family="Helvetica,sans-Serif" font-size="11.00">ad_table_id</text>
<polygon fill="none" stroke="black" points="671,-548 671,-570 855,-570 855,-548 671,-548"/>
<image xlink:href="../../images/foreignKeys.png" width="11px" height="12px" preserveAspectRatio="xMinYMin meet" x="676" y="-565"/>
<text text-anchor="start" x="691" y="-556.2" font-family="Helvetica,sans-Serif" font-size="11.00">ad_printpaper_id</text>
<polygon fill="none" stroke="black" points="671,-526 671,-548 855,-548 855,-526 671,-526"/>
<image xlink:href="../../images/foreignKeys.png" width="11px" height="12px" preserveAspectRatio="xMinYMin meet" x="676" y="-543"/>
<text text-anchor="start" x="691" y="-534.2" font-family="Helvetica,sans-Serif" font-size="11.00">ad_printcolor_id</text>
<polygon fill="none" stroke="black" points="671,-504 671,-526 855,-526 855,-504 671,-504"/>
<image xlink:href="../../images/foreignKeys.png" width="11px" height="12px" preserveAspectRatio="xMinYMin meet" x="676" y="-521"/>
<text text-anchor="start" x="691" y="-512.2" font-family="Helvetica,sans-Serif" font-size="11.00">ad_printfont_id</text>
<polygon fill="none" stroke="black" points="671,-482 671,-504 855,-504 855,-482 671,-482"/>
<image xlink:href="../../images/foreignKeys.png" width="11px" height="12px" preserveAspectRatio="xMinYMin meet" x="676" y="-499"/>
<text text-anchor="start" x="691" y="-490.2" font-family="Helvetica,sans-Serif" font-size="11.00">ad_reportview_id</text>
<polygon fill="none" stroke="black" points="671,-460 671,-482 855,-482 855,-460 671,-460"/>
<image xlink:href="../../images/foreignKeys.png" width="11px" height="12px" preserveAspectRatio="xMinYMin meet" x="676" y="-477"/>
<text text-anchor="start" x="691" y="-468.2" font-family="Helvetica,sans-Serif" font-size="11.00">ad_printtableformat_id</text>
<polygon fill="none" stroke="black" points="671,-438 671,-460 855,-460 855,-438 671,-438"/>
<image xlink:href="../../images/foreignKeys.png" width="11px" height="12px" preserveAspectRatio="xMinYMin meet" x="676" y="-455"/>
<text text-anchor="start" x="691" y="-446.2" font-family="Helvetica,sans-Serif" font-size="11.00">jasperprocess_id</text>
<polygon fill="#ffffff" stroke="transparent" points="671,-416 671,-438 855,-438 855,-416 671,-416"/>
<polygon fill="none" stroke="black" points="671,-416 671,-438 855,-438 855,-416 671,-416"/>
<text text-anchor="start" x="691" y="-424.2" font-family="Helvetica,sans-Serif" font-size="11.00">ad_printformat_uu</text>
<polygon fill="none" stroke="black" points="671,-394 671,-416 855,-416 855,-394 671,-394"/>
<image xlink:href="../../images/foreignKeys.png" width="11px" height="12px" preserveAspectRatio="xMinYMin meet" x="676" y="-411"/>
<text text-anchor="start" x="691" y="-402.2" font-family="Helvetica,sans-Serif" font-size="11.00">ad_window_id</text>
<polygon fill="none" stroke="black" points="671,-372 671,-394 855,-394 855,-372 671,-372"/>
<image xlink:href="../../images/foreignKeys.png" width="11px" height="12px" preserveAspectRatio="xMinYMin meet" x="676" y="-389"/>
<text text-anchor="start" x="691" y="-380.2" font-family="Helvetica,sans-Serif" font-size="11.00">ad_printheaderfooter_id</text>
<polygon fill="none" stroke="black" points="671,-354 671,-372 855,-372 855,-354 671,-354"/>
<text text-anchor="start" x="674" y="-360.2" font-family="Helvetica,sans-Serif" font-size="11.00">...</text>
<polygon fill="#ffffff" stroke="transparent" points="671,-336 671,-354 734,-354 734,-336 671,-336"/>
<polygon fill="none" stroke="black" points="671,-336 671,-354 734,-354 734,-336 671,-336"/>
<text text-anchor="start" x="674" y="-342.2" font-family="Helvetica,sans-Serif" font-size="11.00">&lt; 9</text>
<polygon fill="#ffffff" stroke="transparent" points="734,-336 734,-354 806,-354 806,-336 734,-336"/>
<polygon fill="none" stroke="black" points="734,-336 734,-354 806,-354 806,-336 734,-336"/>
<text text-anchor="start" x="758" y="-342.2" font-family="Helvetica,sans-Serif" font-size="11.00">336 rows</text>
<polygon fill="#ffffff" stroke="transparent" points="806,-336 806,-354 855,-354 855,-336 806,-336"/>
<polygon fill="none" stroke="black" points="806,-336 806,-354 855,-354 855,-336 806,-336"/>
<text text-anchor="start" x="830" y="-342.2" font-family="Helvetica,sans-Serif" font-size="11.00">25 &gt;</text>
</a>
</g>
</g>
<!-- ad_reportview -->
<g id="node2" class="node">
<title>ad_reportview</title>
<g id="a_node2"><a xlink:href="../../tables/ad_reportview.html" xlink:title="ad_reportview" target="_top">
<polygon fill="#ffffff" stroke="transparent" points="255,-485 255,-631 395,-631 395,-485 255,-485"/>
<polygon fill="#f5f5f5" stroke="transparent" points="255,-609 255,-631 395,-631 395,-609 255,-609"/>
<polygon fill="none" stroke="black" points="255,-609 255,-631 395,-631 395,-609 255,-609"/>
<text text-anchor="start" x="260" y="-618.2" font-family="Helvetica,sans-Serif" font-weight="bold" font-size="11.00">ad_reportview</text>
<text text-anchor="start" x="360" y="-617.2" font-family="Helvetica,sans-Serif" font-size="11.00">[table]</text>
<polygon fill="none" stroke="black" points="255,-587 255,-609 395,-609 395,-587 255,-587"/>
<image xlink:href="../../images/primaryKeys.png" width="11px" height="12px" preserveAspectRatio="xMinYMin meet" x="260" y="-604"/>
<text text-anchor="start" x="275" y="-595.2" font-family="Helvetica,sans-Serif" font-size="11.00">ad_reportview_id</text>
<polygon fill="none" stroke="black" points="255,-565 255,-587 395,-587 395,-565 255,-565"/>
<image xlink:href="../../images/foreignKeys.png" width="11px" height="12px" preserveAspectRatio="xMinYMin meet" x="260" y="-582"/>
<text text-anchor="start" x="275" y="-573.2" font-family="Helvetica,sans-Serif" font-size="11.00">ad_table_id</text>
<polygon fill="none" stroke="black" points="255,-543 255,-565 395,-565 395,-543 255,-543"/>
<image xlink:href="../../images/foreignKeys.png" width="11px" height="12px" preserveAspectRatio="xMinYMin meet" x="260" y="-560"/>
<text text-anchor="start" x="275" y="-551.2" font-family="Helvetica,sans-Serif" font-size="11.00">entitytype</text>
<polygon fill="#ffffff" stroke="transparent" points="255,-521 255,-543 395,-543 395,-521 255,-521"/>
<polygon fill="none" stroke="black" points="255,-521 255,-543 395,-543 395,-521 255,-521"/>
<text text-anchor="start" x="275" y="-529.2" font-family="Helvetica,sans-Serif" font-size="11.00">ad_reportview_uu</text>
<polygon fill="none" stroke="black" points="255,-503 255,-521 395,-521 395,-503 255,-503"/>
<text text-anchor="start" x="258" y="-509.2" font-family="Helvetica,sans-Serif" font-size="11.00">...</text>
<polygon fill="#ffffff" stroke="transparent" points="255,-485 255,-503 299,-503 299,-485 255,-485"/>
<polygon fill="none" stroke="black" points="255,-485 255,-503 299,-503 299,-485 255,-485"/>
<text text-anchor="start" x="258" y="-491.2" font-family="Helvetica,sans-Serif" font-size="11.00">&lt; 2</text>
<polygon fill="#ffffff" stroke="transparent" points="299,-485 299,-503 361,-503 361,-485 299,-485"/>
<polygon fill="none" stroke="black" points="299,-485 299,-503 361,-503 361,-485 299,-485"/>
<text text-anchor="start" x="313" y="-491.2" font-family="Helvetica,sans-Serif" font-size="11.00">153 rows</text>
<polygon fill="#ffffff" stroke="transparent" points="361,-485 361,-503 395,-503 395,-485 361,-485"/>
<polygon fill="none" stroke="black" points="361,-485 361,-503 395,-503 395,-485 361,-485"/>
<text text-anchor="start" x="376" y="-491.2" font-family="Helvetica,sans-Serif" font-size="11.00">7 &gt;</text>
</a>
</g>
</g>
<!-- ad_printformat&#45;&gt;ad_reportview -->
<g id="edge1" class="edge">
<title>ad_printformat:w&#45;&gt;ad_reportview:e</title>
<path fill="none" stroke="black" d="M655.87,-489C637.85,-474.85 659.88,-426.96 630,-408 557.2,-361.8 502.95,-353.67 436,-408 368.99,-462.37 482.3,-598 396,-598"/>
<polygon fill="black" stroke="black" points="662.3,-490.82 669.02,-496.46 666.15,-491.91 670,-493 670,-493 670,-493 666.15,-491.91 670.98,-489.54 662.3,-490.82 662.3,-490.82"/>
<ellipse fill="none" stroke="black" cx="659.22" cy="-489.95" rx="3.2" ry="3.2"/>
</g>
<!-- ad_table -->
<g id="node3" class="node">
<title>ad_table</title>
<g id="a_node3"><a xlink:href="../../tables/ad_table.html" xlink:title="ad_table" target="_top">
<polygon fill="#ffffff" stroke="transparent" points="8,-476 8,-710 206,-710 206,-476 8,-476"/>
<polygon fill="#f5f5f5" stroke="transparent" points="8,-688 8,-710 206,-710 206,-688 8,-688"/>
<polygon fill="none" stroke="black" points="8,-688 8,-710 206,-710 206,-688 8,-688"/>
<text text-anchor="start" x="13" y="-697.2" font-family="Helvetica,sans-Serif" font-weight="bold" font-size="11.00">ad_table</text>
<text text-anchor="start" x="171" y="-696.2" font-family="Helvetica,sans-Serif" font-size="11.00">[table]</text>
<polygon fill="none" stroke="black" points="8,-666 8,-688 206,-688 206,-666 8,-666"/>
<image xlink:href="../../images/primaryKeys.png" width="11px" height="12px" preserveAspectRatio="xMinYMin meet" x="13" y="-683"/>
<text text-anchor="start" x="28" y="-674.2" font-family="Helvetica,sans-Serif" font-size="11.00">ad_table_id</text>
<polygon fill="none" stroke="black" points="8,-644 8,-666 206,-666 206,-644 8,-644"/>
<image xlink:href="../../images/foreignKeys.png" width="11px" height="12px" preserveAspectRatio="xMinYMin meet" x="13" y="-661"/>
<text text-anchor="start" x="28" y="-652.2" font-family="Helvetica,sans-Serif" font-size="11.00">ad_client_id</text>
<polygon fill="none" stroke="black" points="8,-622 8,-644 206,-644 206,-622 8,-622"/>
<image xlink:href="../../images/foreignKeys.png" width="11px" height="12px" preserveAspectRatio="xMinYMin meet" x="13" y="-639"/>
<text text-anchor="start" x="28" y="-630.2" font-family="Helvetica,sans-Serif" font-size="11.00">ad_org_id</text>
<polygon fill="none" stroke="black" points="8,-600 8,-622 206,-622 206,-600 8,-600"/>
<image xlink:href="../../images/foreignKeys.png" width="11px" height="12px" preserveAspectRatio="xMinYMin meet" x="13" y="-617"/>
<text text-anchor="start" x="28" y="-608.2" font-family="Helvetica,sans-Serif" font-size="11.00">entitytype</text>
<polygon fill="none" stroke="black" points="8,-578 8,-600 206,-600 206,-578 8,-578"/>
<image xlink:href="../../images/foreignKeys.png" width="11px" height="12px" preserveAspectRatio="xMinYMin meet" x="13" y="-595"/>
<text text-anchor="start" x="28" y="-586.2" font-family="Helvetica,sans-Serif" font-size="11.00">ad_window_id</text>
<polygon fill="none" stroke="black" points="8,-556 8,-578 206,-578 206,-556 8,-556"/>
<image xlink:href="../../images/foreignKeys.png" width="11px" height="12px" preserveAspectRatio="xMinYMin meet" x="13" y="-573"/>
<text text-anchor="start" x="28" y="-564.2" font-family="Helvetica,sans-Serif" font-size="11.00">ad_val_rule_id</text>
<polygon fill="none" stroke="black" points="8,-534 8,-556 206,-556 206,-534 8,-534"/>
<image xlink:href="../../images/foreignKeys.png" width="11px" height="12px" preserveAspectRatio="xMinYMin meet" x="13" y="-551"/>
<text text-anchor="start" x="28" y="-542.2" font-family="Helvetica,sans-Serif" font-size="11.00">po_window_id</text>
<polygon fill="#ffffff" stroke="transparent" points="8,-512 8,-534 206,-534 206,-512 8,-512"/>
<polygon fill="none" stroke="black" points="8,-512 8,-534 206,-534 206,-512 8,-512"/>
<text text-anchor="start" x="28" y="-520.2" font-family="Helvetica,sans-Serif" font-size="11.00">ad_table_uu</text>
<polygon fill="none" stroke="black" points="8,-494 8,-512 206,-512 206,-494 8,-494"/>
<text text-anchor="start" x="11" y="-500.2" font-family="Helvetica,sans-Serif" font-size="11.00">...</text>
<polygon fill="#ffffff" stroke="transparent" points="8,-476 8,-494 74,-494 74,-476 8,-476"/>
<polygon fill="none" stroke="black" points="8,-476 8,-494 74,-494 74,-476 8,-476"/>
<text text-anchor="start" x="11" y="-482.2" font-family="Helvetica,sans-Serif" font-size="11.00">&lt; 6</text>
<polygon fill="#ffffff" stroke="transparent" points="74,-476 74,-494 156,-494 156,-476 74,-476"/>
<polygon fill="none" stroke="black" points="74,-476 74,-494 156,-494 156,-476 74,-476"/>
<text text-anchor="start" x="99" y="-482.2" font-family="Helvetica,sans-Serif" font-size="11.00">1.363 rows</text>
<polygon fill="#ffffff" stroke="transparent" points="156,-476 156,-494 206,-494 206,-476 156,-476"/>
<polygon fill="none" stroke="black" points="156,-476 156,-494 206,-494 206,-476 156,-476"/>
<text text-anchor="start" x="181" y="-482.2" font-family="Helvetica,sans-Serif" font-size="11.00">77 &gt;</text>
</a>
</g>
</g>
<!-- ad_printformat&#45;&gt;ad_table -->
<g id="edge2" class="edge">
<title>ad_printformat:w&#45;&gt;ad_table:e</title>
<path fill="none" stroke="black" d="M655.95,-585.02C638.58,-598.81 658.71,-644.39 630,-663 472.15,-765.3 395.1,-677 207,-677"/>
<polygon fill="black" stroke="black" points="662.31,-583.2 670.99,-584.46 666.15,-582.1 670,-581 670,-581 670,-581 666.15,-582.1 669.01,-577.54 662.31,-583.2 662.31,-583.2"/>
<ellipse fill="none" stroke="black" cx="659.23" cy="-584.08" rx="3.2" ry="3.2"/>
</g>
<!-- ad_process -->
<g id="node4" class="node">
<title>ad_process</title>
<g id="a_node4"><a xlink:href="../../tables/ad_process.html" xlink:title="ad_process" target="_top">
<polygon fill="#ffffff" stroke="transparent" points="444,-419 444,-653 622,-653 622,-419 444,-419"/>
<polygon fill="#f5f5f5" stroke="transparent" points="444,-631 444,-653 622,-653 622,-631 444,-631"/>
<polygon fill="none" stroke="black" points="444,-631 444,-653 622,-653 622,-631 444,-631"/>
<text text-anchor="start" x="449" y="-640.2" font-family="Helvetica,sans-Serif" font-weight="bold" font-size="11.00">ad_process</text>
<text text-anchor="start" x="587" y="-639.2" font-family="Helvetica,sans-Serif" font-size="11.00">[table]</text>
<polygon fill="none" stroke="black" points="444,-609 444,-631 622,-631 622,-609 444,-609"/>
<image xlink:href="../../images/primaryKeys.png" width="11px" height="12px" preserveAspectRatio="xMinYMin meet" x="449" y="-626"/>
<text text-anchor="start" x="464" y="-617.2" font-family="Helvetica,sans-Serif" font-size="11.00">ad_process_id</text>
<polygon fill="none" stroke="black" points="444,-587 444,-609 622,-609 622,-587 444,-587"/>
<image xlink:href="../../images/foreignKeys.png" width="11px" height="12px" preserveAspectRatio="xMinYMin meet" x="449" y="-604"/>
<text text-anchor="start" x="464" y="-595.2" font-family="Helvetica,sans-Serif" font-size="11.00">entitytype</text>
<polygon fill="none" stroke="black" points="444,-565 444,-587 622,-587 622,-565 444,-565"/>
<image xlink:href="../../images/foreignKeys.png" width="11px" height="12px" preserveAspectRatio="xMinYMin meet" x="449" y="-582"/>
<text text-anchor="start" x="464" y="-573.2" font-family="Helvetica,sans-Serif" font-size="11.00">ad_reportview_id</text>
<polygon fill="none" stroke="black" points="444,-543 444,-565 622,-565 622,-543 444,-543"/>
<image xlink:href="../../images/foreignKeys.png" width="11px" height="12px" preserveAspectRatio="xMinYMin meet" x="449" y="-560"/>
<text text-anchor="start" x="464" y="-551.2" font-family="Helvetica,sans-Serif" font-size="11.00">ad_printformat_id</text>
<polygon fill="none" stroke="black" points="444,-521 444,-543 622,-543 622,-521 444,-521"/>
<image xlink:href="../../images/foreignKeys.png" width="11px" height="12px" preserveAspectRatio="xMinYMin meet" x="449" y="-538"/>
<text text-anchor="start" x="464" y="-529.2" font-family="Helvetica,sans-Serif" font-size="11.00">ad_workflow_id</text>
<polygon fill="none" stroke="black" points="444,-499 444,-521 622,-521 622,-499 444,-499"/>
<image xlink:href="../../images/foreignKeys.png" width="11px" height="12px" preserveAspectRatio="xMinYMin meet" x="449" y="-516"/>
<text text-anchor="start" x="464" y="-507.2" font-family="Helvetica,sans-Serif" font-size="11.00">ad_form_id</text>
<polygon fill="#ffffff" stroke="transparent" points="444,-477 444,-499 622,-499 622,-477 444,-477"/>
<polygon fill="none" stroke="black" points="444,-477 444,-499 622,-499 622,-477 444,-477"/>
<text text-anchor="start" x="464" y="-485.2" font-family="Helvetica,sans-Serif" font-size="11.00">ad_process_uu</text>
<polygon fill="none" stroke="black" points="444,-455 444,-477 622,-477 622,-455 444,-455"/>
<image xlink:href="../../images/foreignKeys.png" width="11px" height="12px" preserveAspectRatio="xMinYMin meet" x="449" y="-472"/>
<text text-anchor="start" x="464" y="-463.2" font-family="Helvetica,sans-Serif" font-size="11.00">ad_ctxhelp_id</text>
<polygon fill="none" stroke="black" points="444,-437 444,-455 622,-455 622,-437 444,-437"/>
<text text-anchor="start" x="447" y="-443.2" font-family="Helvetica,sans-Serif" font-size="11.00">...</text>
<polygon fill="#ffffff" stroke="transparent" points="444,-419 444,-437 504,-437 504,-419 444,-419"/>
<polygon fill="none" stroke="black" points="444,-419 444,-437 504,-437 504,-419 444,-419"/>
<text text-anchor="start" x="447" y="-425.2" font-family="Helvetica,sans-Serif" font-size="11.00">&lt; 6</text>
<polygon fill="#ffffff" stroke="transparent" points="504,-419 504,-437 574,-437 574,-419 504,-419"/>
<polygon fill="none" stroke="black" points="504,-419 504,-437 574,-437 574,-419 504,-419"/>
<text text-anchor="start" x="526" y="-425.2" font-family="Helvetica,sans-Serif" font-size="11.00">827 rows</text>
<polygon fill="#ffffff" stroke="transparent" points="574,-419 574,-437 622,-437 622,-419 574,-419"/>
<polygon fill="none" stroke="black" points="574,-419 574,-437 622,-437 622,-419 574,-419"/>
<text text-anchor="start" x="597" y="-425.2" font-family="Helvetica,sans-Serif" font-size="11.00">28 &gt;</text>
</a>
</g>
</g>
<!-- ad_printformat&#45;&gt;ad_process -->
<g id="edge3" class="edge">
<title>ad_printformat:w&#45;&gt;ad_process:e</title>
<path fill="none" stroke="black" d="M655.74,-451.55C606.18,-472.82 696.12,-620 623,-620"/>
<polygon fill="black" stroke="black" points="662.12,-450.41 670.63,-452.54 666.06,-449.7 670,-449 670,-449 670,-449 666.06,-449.7 669.37,-445.46 662.12,-450.41 662.12,-450.41"/>
<ellipse fill="none" stroke="black" cx="658.97" cy="-450.97" rx="3.2" ry="3.2"/>
</g>
<!-- ad_reportview&#45;&gt;ad_table -->
<g id="edge15" class="edge">
<title>ad_reportview:w&#45;&gt;ad_table:e</title>
<path fill="none" stroke="black" d="M240.12,-580.08C215.6,-598.98 250.52,-677 207,-677"/>
<polygon fill="black" stroke="black" points="246.33,-578.26 255.02,-579.45 250.16,-577.13 254,-576 254,-576 254,-576 250.16,-577.13 252.98,-572.55 246.33,-578.26 246.33,-578.26"/>
<ellipse fill="none" stroke="black" cx="243.26" cy="-579.16" rx="3.2" ry="3.2"/>
</g>
<!-- ad_process&#45;&gt;ad_printformat -->
<g id="edge4" class="edge">
<title>ad_process:w&#45;&gt;ad_printformat:e</title>
<path fill="none" stroke="black" d="M432.43,-564.07C423.87,-587.35 431.55,-643.92 444,-657 458.27,-672 609.97,-662.77 630,-668 645.77,-672.12 647.11,-680.35 663,-684 683.79,-688.77 839.71,-698.88 855,-684 866.79,-672.53 872.45,-647 856,-647"/>
<polygon fill="black" stroke="black" points="437.21,-559.52 445.48,-556.61 440.1,-556.76 443,-554 443,-554 443,-554 440.1,-556.76 440.52,-551.39 437.21,-559.52 437.21,-559.52"/>
<ellipse fill="none" stroke="black" cx="434.89" cy="-561.73" rx="3.2" ry="3.2"/>
</g>
<!-- ad_process&#45;&gt;ad_reportview -->
<g id="edge5" class="edge">
<title>ad_process:w&#45;&gt;ad_reportview:e</title>
<path fill="none" stroke="black" d="M428.83,-579.63C418.01,-585.88 413.12,-598 396,-598"/>
<polygon fill="black" stroke="black" points="435.25,-577.99 443.89,-579.49 439.13,-576.99 443,-576 443,-576 443,-576 439.13,-576.99 442.11,-572.51 435.25,-577.99 435.25,-577.99"/>
<ellipse fill="none" stroke="black" cx="432.15" cy="-578.78" rx="3.2" ry="3.2"/>
</g>
<!-- ad_process_drillrule -->
<g id="node5" class="node">
<title>ad_process_drillrule</title>
<g id="a_node5"><a xlink:href="../../tables/ad_process_drillrule.html" xlink:title="ad_process_drillrule" target="_top">
<polygon fill="#ffffff" stroke="transparent" points="904,-567 904,-1007 1169,-1007 1169,-567 904,-567"/>
<polygon fill="#f5f5f5" stroke="transparent" points="906.5,-983 906.5,-1005 1167.5,-1005 1167.5,-983 906.5,-983"/>
<polygon fill="none" stroke="black" points="906.5,-983 906.5,-1005 1167.5,-1005 1167.5,-983 906.5,-983"/>
<text text-anchor="start" x="911.5" y="-992.2" font-family="Helvetica,sans-Serif" font-weight="bold" font-size="11.00">ad_process_drillrule</text>
<text text-anchor="start" x="1132.5" y="-991.2" font-family="Helvetica,sans-Serif" font-size="11.00">[table]</text>
<polygon fill="none" stroke="black" points="906.5,-961 906.5,-983 1084.5,-983 1084.5,-961 906.5,-961"/>
<image xlink:href="../../images/primaryKeys.png" width="11px" height="12px" preserveAspectRatio="xMinYMin meet" x="911.5" y="-978"/>
<text text-anchor="start" x="926.5" y="-969.2" font-family="Helvetica,sans-Serif" font-size="11.00">ad_process_drillrule_id</text>
<polygon fill="none" stroke="black" points="1084.5,-961 1084.5,-983 1167.5,-983 1167.5,-961 1084.5,-961"/>
<text text-anchor="start" x="1087.5" y="-969.2" font-family="Helvetica,sans-Serif" font-size="11.00">numeric[10]</text>
<polygon fill="none" stroke="black" points="906.5,-939 906.5,-961 1084.5,-961 1084.5,-939 906.5,-939"/>
<text text-anchor="start" x="926.5" y="-947.2" font-family="Helvetica,sans-Serif" font-size="11.00">ad_client_id</text>
<polygon fill="none" stroke="black" points="1084.5,-939 1084.5,-961 1167.5,-961 1167.5,-939 1084.5,-939"/>
<text text-anchor="start" x="1087.5" y="-947.2" font-family="Helvetica,sans-Serif" font-size="11.00">numeric[10]</text>
<polygon fill="none" stroke="black" points="906.5,-917 906.5,-939 1084.5,-939 1084.5,-917 906.5,-917"/>
<text text-anchor="start" x="926.5" y="-925.2" font-family="Helvetica,sans-Serif" font-size="11.00">ad_org_id</text>
<polygon fill="none" stroke="black" points="1084.5,-917 1084.5,-939 1167.5,-939 1167.5,-917 1084.5,-917"/>
<text text-anchor="start" x="1087.5" y="-925.2" font-family="Helvetica,sans-Serif" font-size="11.00">numeric[10]</text>
<polygon fill="none" stroke="black" points="906.5,-895 906.5,-917 1084.5,-917 1084.5,-895 906.5,-895"/>
<text text-anchor="start" x="926.5" y="-903.2" font-family="Helvetica,sans-Serif" font-size="11.00">isactive</text>
<polygon fill="none" stroke="black" points="1084.5,-895 1084.5,-917 1167.5,-917 1167.5,-895 1084.5,-895"/>
<text text-anchor="start" x="1087.5" y="-903.2" font-family="Helvetica,sans-Serif" font-size="11.00">bpchar[1]</text>
<polygon fill="none" stroke="black" points="906.5,-873 906.5,-895 1084.5,-895 1084.5,-873 906.5,-873"/>
<text text-anchor="start" x="926.5" y="-881.2" font-family="Helvetica,sans-Serif" font-size="11.00">created</text>
<polygon fill="none" stroke="black" points="1084.5,-873 1084.5,-895 1167.5,-895 1167.5,-873 1084.5,-873"/>
<text text-anchor="start" x="1087.5" y="-881.2" font-family="Helvetica,sans-Serif" font-size="11.00">timestamp[29,6]</text>
<polygon fill="none" stroke="black" points="906.5,-851 906.5,-873 1084.5,-873 1084.5,-851 906.5,-851"/>
<text text-anchor="start" x="926.5" y="-859.2" font-family="Helvetica,sans-Serif" font-size="11.00">createdby</text>
<polygon fill="none" stroke="black" points="1084.5,-851 1084.5,-873 1167.5,-873 1167.5,-851 1084.5,-851"/>
<text text-anchor="start" x="1087.5" y="-859.2" font-family="Helvetica,sans-Serif" font-size="11.00">numeric[10]</text>
<polygon fill="none" stroke="black" points="906.5,-829 906.5,-851 1084.5,-851 1084.5,-829 906.5,-829"/>
<text text-anchor="start" x="926.5" y="-837.2" font-family="Helvetica,sans-Serif" font-size="11.00">updated</text>
<polygon fill="none" stroke="black" points="1084.5,-829 1084.5,-851 1167.5,-851 1167.5,-829 1084.5,-829"/>
<text text-anchor="start" x="1087.5" y="-837.2" font-family="Helvetica,sans-Serif" font-size="11.00">timestamp[29,6]</text>
<polygon fill="none" stroke="black" points="906.5,-807 906.5,-829 1084.5,-829 1084.5,-807 906.5,-807"/>
<text text-anchor="start" x="926.5" y="-815.2" font-family="Helvetica,sans-Serif" font-size="11.00">updatedby</text>
<polygon fill="none" stroke="black" points="1084.5,-807 1084.5,-829 1167.5,-829 1167.5,-807 1084.5,-807"/>
<text text-anchor="start" x="1087.5" y="-815.2" font-family="Helvetica,sans-Serif" font-size="11.00">numeric[10]</text>
<polygon fill="none" stroke="black" points="906.5,-785 906.5,-807 1084.5,-807 1084.5,-785 906.5,-785"/>
<text text-anchor="start" x="926.5" y="-793.2" font-family="Helvetica,sans-Serif" font-size="11.00">name</text>
<polygon fill="none" stroke="black" points="1084.5,-785 1084.5,-807 1167.5,-807 1167.5,-785 1084.5,-785"/>
<text text-anchor="start" x="1087.5" y="-793.2" font-family="Helvetica,sans-Serif" font-size="11.00">varchar[255]</text>
<polygon fill="none" stroke="black" points="906.5,-763 906.5,-785 1084.5,-785 1084.5,-763 906.5,-763"/>
<text text-anchor="start" x="926.5" y="-771.2" font-family="Helvetica,sans-Serif" font-size="11.00">description</text>
<polygon fill="none" stroke="black" points="1084.5,-763 1084.5,-785 1167.5,-785 1167.5,-763 1084.5,-763"/>
<text text-anchor="start" x="1087.5" y="-771.2" font-family="Helvetica,sans-Serif" font-size="11.00">varchar[255]</text>
<polygon fill="none" stroke="black" points="906.5,-741 906.5,-763 1084.5,-763 1084.5,-741 906.5,-741"/>
<text text-anchor="start" x="926.5" y="-749.2" font-family="Helvetica,sans-Serif" font-size="11.00">showhelp</text>
<polygon fill="none" stroke="black" points="1084.5,-741 1084.5,-763 1167.5,-763 1167.5,-741 1084.5,-741"/>
<text text-anchor="start" x="1087.5" y="-749.2" font-family="Helvetica,sans-Serif" font-size="11.00">bpchar[1]</text>
<polygon fill="none" stroke="black" points="906.5,-719 906.5,-741 1084.5,-741 1084.5,-719 906.5,-719"/>
<image xlink:href="../../images/foreignKeys.png" width="11px" height="12px" preserveAspectRatio="xMinYMin meet" x="911.5" y="-736"/>
<text text-anchor="start" x="926.5" y="-727.2" font-family="Helvetica,sans-Serif" font-size="11.00">ad_process_id</text>
<polygon fill="none" stroke="black" points="1084.5,-719 1084.5,-741 1167.5,-741 1167.5,-719 1084.5,-719"/>
<text text-anchor="start" x="1087.5" y="-727.2" font-family="Helvetica,sans-Serif" font-size="11.00">numeric[10]</text>
<polygon fill="none" stroke="black" points="906.5,-697 906.5,-719 1084.5,-719 1084.5,-697 906.5,-697"/>
<image xlink:href="../../images/foreignKeys.png" width="11px" height="12px" preserveAspectRatio="xMinYMin meet" x="911.5" y="-714"/>
<text text-anchor="start" x="926.5" y="-705.2" font-family="Helvetica,sans-Serif" font-size="11.00">ad_table_id</text>
<polygon fill="none" stroke="black" points="1084.5,-697 1084.5,-719 1167.5,-719 1167.5,-697 1084.5,-697"/>
<text text-anchor="start" x="1087.5" y="-705.2" font-family="Helvetica,sans-Serif" font-size="11.00">numeric[10]</text>
<polygon fill="none" stroke="black" points="906.5,-675 906.5,-697 1084.5,-697 1084.5,-675 906.5,-675"/>
<image xlink:href="../../images/foreignKeys.png" width="11px" height="12px" preserveAspectRatio="xMinYMin meet" x="911.5" y="-692"/>
<text text-anchor="start" x="926.5" y="-683.2" font-family="Helvetica,sans-Serif" font-size="11.00">ad_reportview_id</text>
<polygon fill="none" stroke="black" points="1084.5,-675 1084.5,-697 1167.5,-697 1167.5,-675 1084.5,-675"/>
<text text-anchor="start" x="1087.5" y="-683.2" font-family="Helvetica,sans-Serif" font-size="11.00">numeric[10]</text>
<polygon fill="none" stroke="black" points="906.5,-653 906.5,-675 1084.5,-675 1084.5,-653 906.5,-653"/>
<image xlink:href="../../images/foreignKeys.png" width="11px" height="12px" preserveAspectRatio="xMinYMin meet" x="911.5" y="-670"/>
<text text-anchor="start" x="926.5" y="-661.2" font-family="Helvetica,sans-Serif" font-size="11.00">ad_printformat_id</text>
<polygon fill="none" stroke="black" points="1084.5,-653 1084.5,-675 1167.5,-675 1167.5,-653 1084.5,-653"/>
<text text-anchor="start" x="1087.5" y="-661.2" font-family="Helvetica,sans-Serif" font-size="11.00">numeric[10]</text>
<polygon fill="#ffffff" stroke="transparent" points="906.5,-631 906.5,-653 1084.5,-653 1084.5,-631 906.5,-631"/>
<polygon fill="none" stroke="black" points="906.5,-631 906.5,-653 1084.5,-653 1084.5,-631 906.5,-631"/>
<text text-anchor="start" x="926.5" y="-639.2" font-family="Helvetica,sans-Serif" font-size="11.00">ad_process_drillrule_uu</text>
<polygon fill="none" stroke="black" points="1084.5,-631 1084.5,-653 1167.5,-653 1167.5,-631 1084.5,-631"/>
<text text-anchor="start" x="1087.5" y="-639.2" font-family="Helvetica,sans-Serif" font-size="11.00">varchar[36]</text>
<polygon fill="none" stroke="black" points="906.5,-609 906.5,-631 1084.5,-631 1084.5,-609 906.5,-609"/>
<image xlink:href="../../images/foreignKeys.png" width="11px" height="12px" preserveAspectRatio="xMinYMin meet" x="911.5" y="-626"/>
<text text-anchor="start" x="926.5" y="-617.2" font-family="Helvetica,sans-Serif" font-size="11.00">ad_process_para_id</text>
<polygon fill="none" stroke="black" points="1084.5,-609 1084.5,-631 1167.5,-631 1167.5,-609 1084.5,-609"/>
<text text-anchor="start" x="1087.5" y="-617.2" font-family="Helvetica,sans-Serif" font-size="11.00">numeric[10]</text>
<polygon fill="none" stroke="black" points="906.5,-587 906.5,-609 1084.5,-609 1084.5,-587 906.5,-587"/>
<text text-anchor="start" x="926.5" y="-595.2" font-family="Helvetica,sans-Serif" font-size="11.00">isvalid</text>
<polygon fill="none" stroke="black" points="1084.5,-587 1084.5,-609 1167.5,-609 1167.5,-587 1084.5,-587"/>
<text text-anchor="start" x="1087.5" y="-595.2" font-family="Helvetica,sans-Serif" font-size="11.00">bpchar[1]</text>
<polygon fill="#ffffff" stroke="transparent" points="906.5,-569 906.5,-587 986.5,-587 986.5,-569 906.5,-569"/>
<polygon fill="none" stroke="black" points="906.5,-569 906.5,-587 986.5,-587 986.5,-569 906.5,-569"/>
<text text-anchor="start" x="909.5" y="-575.2" font-family="Helvetica,sans-Serif" font-size="11.00">&lt; 5</text>
<polygon fill="#ffffff" stroke="transparent" points="986.5,-569 986.5,-587 1084.5,-587 1084.5,-569 986.5,-569"/>
<polygon fill="none" stroke="black" points="986.5,-569 986.5,-587 1084.5,-587 1084.5,-569 986.5,-569"/>
<text text-anchor="start" x="1048.5" y="-575.2" font-family="Helvetica,sans-Serif" font-size="11.00">0 rows</text>
<polygon fill="#ffffff" stroke="transparent" points="1084.5,-569 1084.5,-587 1167.5,-587 1167.5,-569 1084.5,-569"/>
<polygon fill="none" stroke="black" points="1084.5,-569 1084.5,-587 1167.5,-587 1167.5,-569 1084.5,-569"/>
<text text-anchor="start" x="1148.5" y="-575.2" font-family="Helvetica,sans-Serif" font-size="11.00">2 &gt;</text>
<polygon fill="none" stroke="black" stroke-width="2" points="905,-568 905,-1006 1168,-1006 1168,-568 905,-568"/>
</a>
</g>
</g>
<!-- ad_process_drillrule&#45;&gt;ad_printformat -->
<g id="edge6" class="edge">
<title>ad_process_drillrule:w&#45;&gt;ad_printformat:e</title>
<path fill="none" stroke="black" d="M891.22,-661.34C879.48,-656.56 873.45,-647 856,-647"/>
<polygon fill="black" stroke="black" points="897.63,-662.54 904.84,-667.54 901.57,-663.27 905.5,-664 905.5,-664 905.5,-664 901.57,-663.27 906.16,-660.46 897.63,-662.54 897.63,-662.54"/>
<ellipse fill="none" stroke="black" cx="894.49" cy="-661.95" rx="3.2" ry="3.2"/>
</g>
<!-- ad_process_drillrule&#45;&gt;ad_reportview -->
<g id="edge9" class="edge">
<title>ad_process_drillrule:w&#45;&gt;ad_reportview:e</title>
<path fill="none" stroke="black" d="M891.05,-686.75C882.26,-687.73 876.03,-689.39 863,-690 673.05,-698.92 596.22,-765.42 436,-663 407.42,-644.73 429.92,-598 396,-598"/>
<polygon fill="black" stroke="black" points="897.51,-686.41 905.69,-689.6 901.51,-686.21 905.5,-686 905.5,-686 905.5,-686 901.51,-686.21 905.31,-682.4 897.51,-686.41 897.51,-686.41"/>
<ellipse fill="none" stroke="black" cx="894.32" cy="-686.58" rx="3.2" ry="3.2"/>
</g>
<!-- ad_process_drillrule&#45;&gt;ad_table -->
<g id="edge10" class="edge">
<title>ad_process_drillrule:w&#45;&gt;ad_table:e</title>
<path fill="none" stroke="black" d="M891.04,-708.94C882.26,-710.16 876.05,-712.23 863,-713 774.26,-718.2 751.88,-714.17 663,-713 478.06,-710.56 424.1,-755.33 247,-702 226.93,-695.95 227.96,-677 207,-677"/>
<polygon fill="black" stroke="black" points="897.52,-708.52 905.73,-711.59 901.51,-708.26 905.5,-708 905.5,-708 905.5,-708 901.51,-708.26 905.27,-704.41 897.52,-708.52 897.52,-708.52"/>
<ellipse fill="none" stroke="black" cx="894.32" cy="-708.72" rx="3.2" ry="3.2"/>
</g>
<!-- ad_process_drillrule&#45;&gt;ad_process -->
<g id="edge7" class="edge">
<title>ad_process_drillrule:w&#45;&gt;ad_process:e</title>
<path fill="none" stroke="black" d="M890.86,-730.13C792.17,-731.87 748.57,-749.5 663,-690 633.58,-669.54 658.83,-620 623,-620"/>
<polygon fill="black" stroke="black" points="897.5,-730.07 905.53,-733.6 901.5,-730.04 905.5,-730 905.5,-730 905.5,-730 901.5,-730.04 905.47,-726.4 897.5,-730.07 897.5,-730.07"/>
<ellipse fill="none" stroke="black" cx="894.3" cy="-730.1" rx="3.2" ry="3.2"/>
</g>
<!-- ad_process_para -->
<g id="node6" class="node">
<title>ad_process_para</title>
<g id="a_node6"><a xlink:href="../../tables/ad_process_para.html" xlink:title="ad_process_para" target="_top">
<polygon fill="#ffffff" stroke="transparent" points="678,-37 678,-315 848,-315 848,-37 678,-37"/>
<polygon fill="#f5f5f5" stroke="transparent" points="678,-293 678,-315 848,-315 848,-293 678,-293"/>
<polygon fill="none" stroke="black" points="678,-293 678,-315 848,-315 848,-293 678,-293"/>
<text text-anchor="start" x="683" y="-302.2" font-family="Helvetica,sans-Serif" font-weight="bold" font-size="11.00">ad_process_para</text>
<text text-anchor="start" x="813" y="-301.2" font-family="Helvetica,sans-Serif" font-size="11.00">[table]</text>
<polygon fill="none" stroke="black" points="678,-271 678,-293 848,-293 848,-271 678,-271"/>
<image xlink:href="../../images/primaryKeys.png" width="11px" height="12px" preserveAspectRatio="xMinYMin meet" x="683" y="-288"/>
<text text-anchor="start" x="698" y="-279.2" font-family="Helvetica,sans-Serif" font-size="11.00">ad_process_para_id</text>
<polygon fill="#ffffff" stroke="transparent" points="678,-249 678,-271 848,-271 848,-249 678,-249"/>
<polygon fill="none" stroke="black" points="678,-249 678,-271 848,-271 848,-249 678,-249"/>
<image xlink:href="../../images/foreignKeys.png" width="11px" height="12px" preserveAspectRatio="xMinYMin meet" x="683" y="-266"/>
<text text-anchor="start" x="698" y="-257.2" font-family="Helvetica,sans-Serif" font-size="11.00">ad_process_id</text>
<polygon fill="#ffffff" stroke="transparent" points="678,-227 678,-249 848,-249 848,-227 678,-227"/>
<polygon fill="none" stroke="black" points="678,-227 678,-249 848,-249 848,-227 678,-227"/>
<text text-anchor="start" x="698" y="-235.2" font-family="Helvetica,sans-Serif" font-size="11.00">seqno</text>
<polygon fill="none" stroke="black" points="678,-205 678,-227 848,-227 848,-205 678,-205"/>
<image xlink:href="../../images/foreignKeys.png" width="11px" height="12px" preserveAspectRatio="xMinYMin meet" x="683" y="-222"/>
<text text-anchor="start" x="698" y="-213.2" font-family="Helvetica,sans-Serif" font-size="11.00">ad_reference_id</text>
<polygon fill="none" stroke="black" points="678,-183 678,-205 848,-205 848,-183 678,-183"/>
<image xlink:href="../../images/foreignKeys.png" width="11px" height="12px" preserveAspectRatio="xMinYMin meet" x="683" y="-200"/>
<text text-anchor="start" x="698" y="-191.2" font-family="Helvetica,sans-Serif" font-size="11.00">ad_reference_value_id</text>
<polygon fill="none" stroke="black" points="678,-161 678,-183 848,-183 848,-161 678,-161"/>
<image xlink:href="../../images/foreignKeys.png" width="11px" height="12px" preserveAspectRatio="xMinYMin meet" x="683" y="-178"/>
<text text-anchor="start" x="698" y="-169.2" font-family="Helvetica,sans-Serif" font-size="11.00">ad_val_rule_id</text>
<polygon fill="none" stroke="black" points="678,-139 678,-161 848,-161 848,-139 678,-139"/>
<image xlink:href="../../images/foreignKeys.png" width="11px" height="12px" preserveAspectRatio="xMinYMin meet" x="683" y="-156"/>
<text text-anchor="start" x="698" y="-147.2" font-family="Helvetica,sans-Serif" font-size="11.00">ad_element_id</text>
<polygon fill="none" stroke="black" points="678,-117 678,-139 848,-139 848,-117 678,-117"/>
<image xlink:href="../../images/foreignKeys.png" width="11px" height="12px" preserveAspectRatio="xMinYMin meet" x="683" y="-134"/>
<text text-anchor="start" x="698" y="-125.2" font-family="Helvetica,sans-Serif" font-size="11.00">entitytype</text>
<polygon fill="#ffffff" stroke="transparent" points="678,-95 678,-117 848,-117 848,-95 678,-95"/>
<polygon fill="none" stroke="black" points="678,-95 678,-117 848,-117 848,-95 678,-95"/>
<text text-anchor="start" x="698" y="-103.2" font-family="Helvetica,sans-Serif" font-size="11.00">ad_process_para_uu</text>
<polygon fill="none" stroke="black" points="678,-73 678,-95 848,-95 848,-73 678,-73"/>
<image xlink:href="../../images/foreignKeys.png" width="11px" height="12px" preserveAspectRatio="xMinYMin meet" x="683" y="-90"/>
<text text-anchor="start" x="698" y="-81.2" font-family="Helvetica,sans-Serif" font-size="11.00">ad_fieldgroup_id</text>
<polygon fill="none" stroke="black" points="678,-55 678,-73 848,-73 848,-55 678,-55"/>
<text text-anchor="start" x="681" y="-61.2" font-family="Helvetica,sans-Serif" font-size="11.00">...</text>
<polygon fill="#ffffff" stroke="transparent" points="678,-37 678,-55 733,-55 733,-37 678,-37"/>
<polygon fill="none" stroke="black" points="678,-37 678,-55 733,-55 733,-37 678,-37"/>
<text text-anchor="start" x="681" y="-43.2" font-family="Helvetica,sans-Serif" font-size="11.00">&lt; 7</text>
<polygon fill="#ffffff" stroke="transparent" points="733,-37 733,-55 809,-55 809,-37 733,-37"/>
<polygon fill="none" stroke="black" points="733,-37 733,-55 809,-55 809,-37 733,-37"/>
<text text-anchor="start" x="752" y="-43.2" font-family="Helvetica,sans-Serif" font-size="11.00">3.151 rows</text>
<polygon fill="#ffffff" stroke="transparent" points="809,-37 809,-55 848,-55 848,-37 809,-37"/>
<polygon fill="none" stroke="black" points="809,-37 809,-55 848,-55 848,-37 809,-37"/>
<text text-anchor="start" x="829" y="-43.2" font-family="Helvetica,sans-Serif" font-size="11.00">8 &gt;</text>
</a>
</g>
</g>
<!-- ad_process_drillrule&#45;&gt;ad_process_para -->
<g id="edge8" class="edge">
<title>ad_process_drillrule:w&#45;&gt;ad_process_para:e</title>
<path fill="none" stroke="black" d="M891.87,-615.22C841.97,-574.14 919.8,-282 849,-282"/>
<polygon fill="black" stroke="black" points="897.95,-617.35 904.31,-623.4 901.73,-618.68 905.5,-620 905.5,-620 905.5,-620 901.73,-618.68 906.69,-616.6 897.95,-617.35 897.95,-617.35"/>
<ellipse fill="none" stroke="black" cx="894.93" cy="-616.3" rx="3.2" ry="3.2"/>
</g>
<!-- ad_process_para&#45;&gt;ad_process -->
<g id="edge14" class="edge">
<title>ad_process_para:w&#45;&gt;ad_process:e</title>
<path fill="none" stroke="black" d="M663.27,-264.55C609.59,-306.22 698.52,-620 623,-620"/>
<polygon fill="black" stroke="black" points="669.41,-262.52 678.13,-263.42 673.2,-261.26 677,-260 677,-260 677,-260 673.2,-261.26 675.87,-256.58 669.41,-262.52 669.41,-262.52"/>
<ellipse fill="none" stroke="black" cx="666.37" cy="-263.52" rx="3.2" ry="3.2"/>
</g>
<!-- ad_process_drillrule_para -->
<g id="node7" class="node">
<title>ad_process_drillrule_para</title>
<g id="a_node7"><a xlink:href="../../tables/ad_process_drillrule_para.html" xlink:title="ad_process_drillrule_para" target="_top">
<polygon fill="#ffffff" stroke="transparent" points="1218,-577 1218,-701 1433,-701 1433,-577 1218,-577"/>
<polygon fill="#f5f5f5" stroke="transparent" points="1218.5,-679 1218.5,-701 1433.5,-701 1433.5,-679 1218.5,-679"/>
<polygon fill="none" stroke="black" points="1218.5,-679 1218.5,-701 1433.5,-701 1433.5,-679 1218.5,-679"/>
<text text-anchor="start" x="1223.5" y="-688.2" font-family="Helvetica,sans-Serif" font-weight="bold" font-size="11.00">ad_process_drillrule_para</text>
<text text-anchor="start" x="1398.5" y="-687.2" font-family="Helvetica,sans-Serif" font-size="11.00">[table]</text>
<polygon fill="none" stroke="black" points="1218.5,-657 1218.5,-679 1433.5,-679 1433.5,-657 1218.5,-657"/>
<image xlink:href="../../images/primaryKeys.png" width="11px" height="12px" preserveAspectRatio="xMinYMin meet" x="1223.5" y="-674"/>
<text text-anchor="start" x="1238.5" y="-665.2" font-family="Helvetica,sans-Serif" font-size="11.00">ad_process_drillrule_id</text>
<polygon fill="#ffffff" stroke="transparent" points="1218.5,-635 1218.5,-657 1433.5,-657 1433.5,-635 1218.5,-635"/>
<polygon fill="none" stroke="black" points="1218.5,-635 1218.5,-657 1433.5,-657 1433.5,-635 1218.5,-635"/>
<text text-anchor="start" x="1238.5" y="-643.2" font-family="Helvetica,sans-Serif" font-size="11.00">ad_process_drillrule_para_uu</text>
<polygon fill="none" stroke="black" points="1218.5,-613 1218.5,-635 1433.5,-635 1433.5,-613 1218.5,-613"/>
<image xlink:href="../../images/primaryKeys.png" width="11px" height="12px" preserveAspectRatio="xMinYMin meet" x="1223.5" y="-630"/>
<text text-anchor="start" x="1238.5" y="-621.2" font-family="Helvetica,sans-Serif" font-size="11.00">ad_process_para_id</text>
<polygon fill="none" stroke="black" points="1218.5,-595 1218.5,-613 1433.5,-613 1433.5,-595 1218.5,-595"/>
<text text-anchor="start" x="1221.5" y="-601.2" font-family="Helvetica,sans-Serif" font-size="11.00">...</text>
<polygon fill="#ffffff" stroke="transparent" points="1218.5,-577 1218.5,-595 1310.5,-595 1310.5,-577 1218.5,-577"/>
<polygon fill="none" stroke="black" points="1218.5,-577 1218.5,-595 1310.5,-595 1310.5,-577 1218.5,-577"/>
<text text-anchor="start" x="1221.5" y="-583.2" font-family="Helvetica,sans-Serif" font-size="11.00">&lt; 2</text>
<polygon fill="#ffffff" stroke="transparent" points="1310.5,-577 1310.5,-595 1384.5,-595 1384.5,-577 1310.5,-577"/>
<polygon fill="none" stroke="black" points="1310.5,-577 1310.5,-595 1384.5,-595 1384.5,-577 1310.5,-577"/>
<text text-anchor="start" x="1348.5" y="-583.2" font-family="Helvetica,sans-Serif" font-size="11.00">0 rows</text>
<polygon fill="#ffffff" stroke="transparent" points="1384.5,-577 1384.5,-595 1433.5,-595 1433.5,-577 1384.5,-577"/>
<polygon fill="none" stroke="black" points="1384.5,-577 1384.5,-595 1433.5,-595 1433.5,-577 1384.5,-577"/>
<text text-anchor="start" x="1423.5" y="-583.2" font-family="Helvetica,sans-Serif" font-size="11.00"> &#160;</text>
</a>
</g>
</g>
<!-- ad_process_drillrule_para&#45;&gt;ad_process_drillrule -->
<g id="edge11" class="edge">
<title>ad_process_drillrule_para:w&#45;&gt;ad_process_drillrule:e</title>
<path fill="none" stroke="black" d="M1203.91,-673.54C1162.14,-714.74 1231.45,-972 1168.5,-972"/>
<polygon fill="black" stroke="black" points="1210.09,-671.02 1218.86,-671.33 1213.8,-669.51 1217.5,-668 1217.5,-668 1217.5,-668 1213.8,-669.51 1216.14,-664.67 1210.09,-671.02 1210.09,-671.02"/>
<ellipse fill="none" stroke="black" cx="1207.13" cy="-672.22" rx="3.2" ry="3.2"/>
</g>
<!-- ad_process_drillrule_para&#45;&gt;ad_process_para -->
<g id="edge12" class="edge">
<title>ad_process_drillrule_para:w&#45;&gt;ad_process_para:e</title>
<path fill="none" stroke="black" d="M1203.1,-620.33C1187.31,-609.65 1195.72,-577.96 1177,-556 1053.76,-411.46 1038.95,-282 849,-282"/>
<polygon fill="black" stroke="black" points="1209.75,-622.02 1216.61,-627.49 1213.62,-623.01 1217.5,-624 1217.5,-624 1217.5,-624 1213.62,-623.01 1218.39,-620.51 1209.75,-622.02 1209.75,-622.02"/>
<ellipse fill="none" stroke="black" cx="1206.65" cy="-621.23" rx="3.2" ry="3.2"/>
</g>
<!-- ad_process_drillrule_trl -->
<g id="node8" class="node">
<title>ad_process_drillrule_trl</title>
<g id="a_node8"><a xlink:href="../../tables/ad_process_drillrule_trl.html" xlink:title="ad_process_drillrule_trl" target="_top">
<polygon fill="#ffffff" stroke="transparent" points="1225.5,-925 1225.5,-1049 1425.5,-1049 1425.5,-925 1225.5,-925"/>
<polygon fill="#f5f5f5" stroke="transparent" points="1225.5,-1027 1225.5,-1049 1425.5,-1049 1425.5,-1027 1225.5,-1027"/>
<polygon fill="none" stroke="black" points="1225.5,-1027 1225.5,-1049 1425.5,-1049 1425.5,-1027 1225.5,-1027"/>
<text text-anchor="start" x="1230.5" y="-1036.2" font-family="Helvetica,sans-Serif" font-weight="bold" font-size="11.00">ad_process_drillrule_trl</text>
<text text-anchor="start" x="1390.5" y="-1035.2" font-family="Helvetica,sans-Serif" font-size="11.00">[table]</text>
<polygon fill="none" stroke="black" points="1225.5,-1005 1225.5,-1027 1425.5,-1027 1425.5,-1005 1225.5,-1005"/>
<image xlink:href="../../images/primaryKeys.png" width="11px" height="12px" preserveAspectRatio="xMinYMin meet" x="1230.5" y="-1022"/>
<text text-anchor="start" x="1245.5" y="-1013.2" font-family="Helvetica,sans-Serif" font-size="11.00">ad_language</text>
<polygon fill="#ffffff" stroke="transparent" points="1225.5,-983 1225.5,-1005 1425.5,-1005 1425.5,-983 1225.5,-983"/>
<polygon fill="none" stroke="black" points="1225.5,-983 1225.5,-1005 1425.5,-1005 1425.5,-983 1225.5,-983"/>
<text text-anchor="start" x="1245.5" y="-991.2" font-family="Helvetica,sans-Serif" font-size="11.00">ad_process_drillrule_trl_uu</text>
<polygon fill="none" stroke="black" points="1225.5,-961 1225.5,-983 1425.5,-983 1425.5,-961 1225.5,-961"/>
<image xlink:href="../../images/primaryKeys.png" width="11px" height="12px" preserveAspectRatio="xMinYMin meet" x="1230.5" y="-978"/>
<text text-anchor="start" x="1245.5" y="-969.2" font-family="Helvetica,sans-Serif" font-size="11.00">ad_process_drillrule_id</text>
<polygon fill="none" stroke="black" points="1225.5,-943 1225.5,-961 1425.5,-961 1425.5,-943 1225.5,-943"/>
<text text-anchor="start" x="1228.5" y="-949.2" font-family="Helvetica,sans-Serif" font-size="11.00">...</text>
<polygon fill="#ffffff" stroke="transparent" points="1225.5,-925 1225.5,-943 1310.5,-943 1310.5,-925 1225.5,-925"/>
<polygon fill="none" stroke="black" points="1225.5,-925 1225.5,-943 1310.5,-943 1310.5,-925 1225.5,-925"/>
<text text-anchor="start" x="1228.5" y="-931.2" font-family="Helvetica,sans-Serif" font-size="11.00">&lt; 2</text>
<polygon fill="#ffffff" stroke="transparent" points="1310.5,-925 1310.5,-943 1380.5,-943 1380.5,-925 1310.5,-925"/>
<polygon fill="none" stroke="black" points="1310.5,-925 1310.5,-943 1380.5,-943 1380.5,-925 1310.5,-925"/>
<text text-anchor="start" x="1344.5" y="-931.2" font-family="Helvetica,sans-Serif" font-size="11.00">0 rows</text>
<polygon fill="#ffffff" stroke="transparent" points="1380.5,-925 1380.5,-943 1425.5,-943 1425.5,-925 1380.5,-925"/>
<polygon fill="none" stroke="black" points="1380.5,-925 1380.5,-943 1425.5,-943 1425.5,-925 1380.5,-925"/>
<text text-anchor="start" x="1415.5" y="-931.2" font-family="Helvetica,sans-Serif" font-size="11.00"> &#160;</text>
</a>
</g>
</g>
<!-- ad_process_drillrule_trl&#45;&gt;ad_process_drillrule -->
<g id="edge13" class="edge">
<title>ad_process_drillrule_trl:w&#45;&gt;ad_process_drillrule:e</title>
<path fill="none" stroke="black" d="M1210.02,-972C1195.83,-972 1187.75,-972 1168.5,-972"/>
<polygon fill="black" stroke="black" points="1216.5,-972 1224.5,-975.6 1220.5,-972 1224.5,-972 1224.5,-972 1224.5,-972 1220.5,-972 1224.5,-968.4 1216.5,-972 1216.5,-972"/>
<ellipse fill="none" stroke="black" cx="1213.3" cy="-972" rx="3.2" ry="3.2"/>
</g>
</g>
</svg>
