<?xml version="1.0" encoding="UTF-8" standalone="no"?>
<!DOCTYPE svg PUBLIC "-//W3C//DTD SVG 1.1//EN"
 "http://www.w3.org/Graphics/SVG/1.1/DTD/svg11.dtd">
<!-- Generated by graphviz version 2.43.0 (0)
 -->
<!-- Title: oneDegreeRelationshipsDiagram Pages: 1 -->
<svg width="532pt" height="553pt"
 viewBox="0.00 0.00 532.00 553.00" xmlns="http://www.w3.org/2000/svg" xmlns:xlink="http://www.w3.org/1999/xlink">
<g id="graph0" class="graph" transform="scale(1 1) rotate(0) translate(4 549)">
<title>oneDegreeRelationshipsDiagram</title>
<polygon fill="#ffffff" stroke="transparent" points="-4,4 -4,-549 528,-549 528,4 -4,4"/>
<text text-anchor="middle" x="71.5" y="-7.2" font-family="Helvetica,sans-Serif" font-size="11.00">Generated by SchemaSpy</text>
<!-- ad_printformat -->
<g id="node1" class="node">
<title>ad_printformat</title>
<g id="a_node1"><a xlink:href="../../tables/ad_printformat.html" xlink:title="ad_printformat" target="_top">
<polygon fill="#ffffff" stroke="transparent" points="332,-197 332,-541 516,-541 516,-197 332,-197"/>
<polygon fill="#f5f5f5" stroke="transparent" points="332,-519 332,-541 516,-541 516,-519 332,-519"/>
<polygon fill="none" stroke="black" points="332,-519 332,-541 516,-541 516,-519 332,-519"/>
<text text-anchor="start" x="337" y="-528.2" font-family="Helvetica,sans-Serif" font-weight="bold" font-size="11.00">ad_printformat</text>
<text text-anchor="start" x="481" y="-527.2" font-family="Helvetica,sans-Serif" font-size="11.00">[table]</text>
<polygon fill="none" stroke="black" points="332,-497 332,-519 516,-519 516,-497 332,-497"/>
<image xlink:href="../../images/primaryKeys.png" width="11px" height="12px" preserveAspectRatio="xMinYMin meet" x="337" y="-514"/>
<text text-anchor="start" x="352" y="-505.2" font-family="Helvetica,sans-Serif" font-size="11.00">ad_printformat_id</text>
<polygon fill="#ffffff" stroke="transparent" points="332,-475 332,-497 516,-497 516,-475 332,-475"/>
<polygon fill="none" stroke="black" points="332,-475 332,-497 516,-497 516,-475 332,-475"/>
<text text-anchor="start" x="352" y="-483.2" font-family="Helvetica,sans-Serif" font-size="11.00">ad_client_id</text>
<polygon fill="#ffffff" stroke="transparent" points="332,-453 332,-475 516,-475 516,-453 332,-453"/>
<polygon fill="none" stroke="black" points="332,-453 332,-475 516,-475 516,-453 332,-453"/>
<text text-anchor="start" x="352" y="-461.2" font-family="Helvetica,sans-Serif" font-size="11.00">name</text>
<polygon fill="#ffffff" stroke="transparent" points="332,-431 332,-453 516,-453 516,-431 332,-431"/>
<polygon fill="none" stroke="black" points="332,-431 332,-453 516,-453 516,-431 332,-431"/>
<image xlink:href="../../images/foreignKeys.png" width="11px" height="12px" preserveAspectRatio="xMinYMin meet" x="337" y="-448"/>
<text text-anchor="start" x="352" y="-439.2" font-family="Helvetica,sans-Serif" font-size="11.00">ad_table_id</text>
<polygon fill="none" stroke="black" points="332,-409 332,-431 516,-431 516,-409 332,-409"/>
<image xlink:href="../../images/foreignKeys.png" width="11px" height="12px" preserveAspectRatio="xMinYMin meet" x="337" y="-426"/>
<text text-anchor="start" x="352" y="-417.2" font-family="Helvetica,sans-Serif" font-size="11.00">ad_printpaper_id</text>
<polygon fill="none" stroke="black" points="332,-387 332,-409 516,-409 516,-387 332,-387"/>
<image xlink:href="../../images/foreignKeys.png" width="11px" height="12px" preserveAspectRatio="xMinYMin meet" x="337" y="-404"/>
<text text-anchor="start" x="352" y="-395.2" font-family="Helvetica,sans-Serif" font-size="11.00">ad_printcolor_id</text>
<polygon fill="none" stroke="black" points="332,-365 332,-387 516,-387 516,-365 332,-365"/>
<image xlink:href="../../images/foreignKeys.png" width="11px" height="12px" preserveAspectRatio="xMinYMin meet" x="337" y="-382"/>
<text text-anchor="start" x="352" y="-373.2" font-family="Helvetica,sans-Serif" font-size="11.00">ad_printfont_id</text>
<polygon fill="none" stroke="black" points="332,-343 332,-365 516,-365 516,-343 332,-343"/>
<image xlink:href="../../images/foreignKeys.png" width="11px" height="12px" preserveAspectRatio="xMinYMin meet" x="337" y="-360"/>
<text text-anchor="start" x="352" y="-351.2" font-family="Helvetica,sans-Serif" font-size="11.00">ad_reportview_id</text>
<polygon fill="none" stroke="black" points="332,-321 332,-343 516,-343 516,-321 332,-321"/>
<image xlink:href="../../images/foreignKeys.png" width="11px" height="12px" preserveAspectRatio="xMinYMin meet" x="337" y="-338"/>
<text text-anchor="start" x="352" y="-329.2" font-family="Helvetica,sans-Serif" font-size="11.00">ad_printtableformat_id</text>
<polygon fill="none" stroke="black" points="332,-299 332,-321 516,-321 516,-299 332,-299"/>
<image xlink:href="../../images/foreignKeys.png" width="11px" height="12px" preserveAspectRatio="xMinYMin meet" x="337" y="-316"/>
<text text-anchor="start" x="352" y="-307.2" font-family="Helvetica,sans-Serif" font-size="11.00">jasperprocess_id</text>
<polygon fill="#ffffff" stroke="transparent" points="332,-277 332,-299 516,-299 516,-277 332,-277"/>
<polygon fill="none" stroke="black" points="332,-277 332,-299 516,-299 516,-277 332,-277"/>
<text text-anchor="start" x="352" y="-285.2" font-family="Helvetica,sans-Serif" font-size="11.00">ad_printformat_uu</text>
<polygon fill="none" stroke="black" points="332,-255 332,-277 516,-277 516,-255 332,-255"/>
<image xlink:href="../../images/foreignKeys.png" width="11px" height="12px" preserveAspectRatio="xMinYMin meet" x="337" y="-272"/>
<text text-anchor="start" x="352" y="-263.2" font-family="Helvetica,sans-Serif" font-size="11.00">ad_window_id</text>
<polygon fill="none" stroke="black" points="332,-233 332,-255 516,-255 516,-233 332,-233"/>
<image xlink:href="../../images/foreignKeys.png" width="11px" height="12px" preserveAspectRatio="xMinYMin meet" x="337" y="-250"/>
<text text-anchor="start" x="352" y="-241.2" font-family="Helvetica,sans-Serif" font-size="11.00">ad_printheaderfooter_id</text>
<polygon fill="none" stroke="black" points="332,-215 332,-233 516,-233 516,-215 332,-215"/>
<text text-anchor="start" x="335" y="-221.2" font-family="Helvetica,sans-Serif" font-size="11.00">...</text>
<polygon fill="#ffffff" stroke="transparent" points="332,-197 332,-215 395,-215 395,-197 332,-197"/>
<polygon fill="none" stroke="black" points="332,-197 332,-215 395,-215 395,-197 332,-197"/>
<text text-anchor="start" x="335" y="-203.2" font-family="Helvetica,sans-Serif" font-size="11.00">&lt; 9</text>
<polygon fill="#ffffff" stroke="transparent" points="395,-197 395,-215 467,-215 467,-197 395,-197"/>
<polygon fill="none" stroke="black" points="395,-197 395,-215 467,-215 467,-197 395,-197"/>
<text text-anchor="start" x="419" y="-203.2" font-family="Helvetica,sans-Serif" font-size="11.00">336 rows</text>
<polygon fill="#ffffff" stroke="transparent" points="467,-197 467,-215 516,-215 516,-197 467,-197"/>
<polygon fill="none" stroke="black" points="467,-197 467,-215 516,-215 516,-197 467,-197"/>
<text text-anchor="start" x="491" y="-203.2" font-family="Helvetica,sans-Serif" font-size="11.00">25 &gt;</text>
</a>
</g>
</g>
<!-- ad_printheaderfooter -->
<g id="node2" class="node">
<title>ad_printheaderfooter</title>
<g id="a_node2"><a xlink:href="../../tables/ad_printheaderfooter.html" xlink:title="ad_printheaderfooter" target="_top">
<polygon fill="#ffffff" stroke="transparent" points="8,-37 8,-323 283,-323 283,-37 8,-37"/>
<polygon fill="#f5f5f5" stroke="transparent" points="10.5,-299 10.5,-321 281.5,-321 281.5,-299 10.5,-299"/>
<polygon fill="none" stroke="black" points="10.5,-299 10.5,-321 281.5,-321 281.5,-299 10.5,-299"/>
<text text-anchor="start" x="15.5" y="-308.2" font-family="Helvetica,sans-Serif" font-weight="bold" font-size="11.00">ad_printheaderfooter</text>
<text text-anchor="start" x="246.5" y="-307.2" font-family="Helvetica,sans-Serif" font-size="11.00">[table]</text>
<polygon fill="#ffffff" stroke="transparent" points="10.5,-277 10.5,-299 198.5,-299 198.5,-277 10.5,-277"/>
<polygon fill="none" stroke="black" points="10.5,-277 10.5,-299 198.5,-299 198.5,-277 10.5,-277"/>
<text text-anchor="start" x="30.5" y="-285.2" font-family="Helvetica,sans-Serif" font-size="11.00">ad_client_id</text>
<polygon fill="none" stroke="black" points="198.5,-277 198.5,-299 281.5,-299 281.5,-277 198.5,-277"/>
<text text-anchor="start" x="201.5" y="-285.2" font-family="Helvetica,sans-Serif" font-size="11.00">numeric[10]</text>
<polygon fill="none" stroke="black" points="10.5,-255 10.5,-277 198.5,-277 198.5,-255 10.5,-255"/>
<text text-anchor="start" x="30.5" y="-263.2" font-family="Helvetica,sans-Serif" font-size="11.00">ad_org_id</text>
<polygon fill="none" stroke="black" points="198.5,-255 198.5,-277 281.5,-277 281.5,-255 198.5,-255"/>
<text text-anchor="start" x="201.5" y="-263.2" font-family="Helvetica,sans-Serif" font-size="11.00">numeric[10]</text>
<polygon fill="none" stroke="black" points="10.5,-233 10.5,-255 198.5,-255 198.5,-233 10.5,-233"/>
<image xlink:href="../../images/primaryKeys.png" width="11px" height="12px" preserveAspectRatio="xMinYMin meet" x="15.5" y="-250"/>
<text text-anchor="start" x="30.5" y="-241.2" font-family="Helvetica,sans-Serif" font-size="11.00">ad_printheaderfooter_id</text>
<polygon fill="none" stroke="black" points="198.5,-233 198.5,-255 281.5,-255 281.5,-233 198.5,-233"/>
<text text-anchor="start" x="201.5" y="-241.2" font-family="Helvetica,sans-Serif" font-size="11.00">numeric[10]</text>
<polygon fill="#ffffff" stroke="transparent" points="10.5,-211 10.5,-233 198.5,-233 198.5,-211 10.5,-211"/>
<polygon fill="none" stroke="black" points="10.5,-211 10.5,-233 198.5,-233 198.5,-211 10.5,-211"/>
<text text-anchor="start" x="30.5" y="-219.2" font-family="Helvetica,sans-Serif" font-size="11.00">ad_printheaderfooter_uu</text>
<polygon fill="none" stroke="black" points="198.5,-211 198.5,-233 281.5,-233 281.5,-211 198.5,-211"/>
<text text-anchor="start" x="201.5" y="-219.2" font-family="Helvetica,sans-Serif" font-size="11.00">varchar[36]</text>
<polygon fill="none" stroke="black" points="10.5,-189 10.5,-211 198.5,-211 198.5,-189 10.5,-189"/>
<text text-anchor="start" x="30.5" y="-197.2" font-family="Helvetica,sans-Serif" font-size="11.00">created</text>
<polygon fill="none" stroke="black" points="198.5,-189 198.5,-211 281.5,-211 281.5,-189 198.5,-189"/>
<text text-anchor="start" x="201.5" y="-197.2" font-family="Helvetica,sans-Serif" font-size="11.00">timestamp[29,6]</text>
<polygon fill="none" stroke="black" points="10.5,-167 10.5,-189 198.5,-189 198.5,-167 10.5,-167"/>
<text text-anchor="start" x="30.5" y="-175.2" font-family="Helvetica,sans-Serif" font-size="11.00">createdby</text>
<polygon fill="none" stroke="black" points="198.5,-167 198.5,-189 281.5,-189 281.5,-167 198.5,-167"/>
<text text-anchor="start" x="201.5" y="-175.2" font-family="Helvetica,sans-Serif" font-size="11.00">numeric[10]</text>
<polygon fill="none" stroke="black" points="10.5,-145 10.5,-167 198.5,-167 198.5,-145 10.5,-145"/>
<text text-anchor="start" x="30.5" y="-153.2" font-family="Helvetica,sans-Serif" font-size="11.00">isactive</text>
<polygon fill="none" stroke="black" points="198.5,-145 198.5,-167 281.5,-167 281.5,-145 198.5,-145"/>
<text text-anchor="start" x="201.5" y="-153.2" font-family="Helvetica,sans-Serif" font-size="11.00">bpchar[1]</text>
<polygon fill="#ffffff" stroke="transparent" points="10.5,-123 10.5,-145 198.5,-145 198.5,-123 10.5,-123"/>
<polygon fill="none" stroke="black" points="10.5,-123 10.5,-145 198.5,-145 198.5,-123 10.5,-123"/>
<text text-anchor="start" x="30.5" y="-131.2" font-family="Helvetica,sans-Serif" font-size="11.00">name</text>
<polygon fill="none" stroke="black" points="198.5,-123 198.5,-145 281.5,-145 281.5,-123 198.5,-123"/>
<text text-anchor="start" x="201.5" y="-131.2" font-family="Helvetica,sans-Serif" font-size="11.00">varchar[60]</text>
<polygon fill="none" stroke="black" points="10.5,-101 10.5,-123 198.5,-123 198.5,-101 10.5,-101"/>
<text text-anchor="start" x="30.5" y="-109.2" font-family="Helvetica,sans-Serif" font-size="11.00">sourceclassname</text>
<polygon fill="none" stroke="black" points="198.5,-101 198.5,-123 281.5,-123 281.5,-101 198.5,-101"/>
<text text-anchor="start" x="201.5" y="-109.2" font-family="Helvetica,sans-Serif" font-size="11.00">varchar[255]</text>
<polygon fill="none" stroke="black" points="10.5,-79 10.5,-101 198.5,-101 198.5,-79 10.5,-79"/>
<text text-anchor="start" x="30.5" y="-87.2" font-family="Helvetica,sans-Serif" font-size="11.00">updated</text>
<polygon fill="none" stroke="black" points="198.5,-79 198.5,-101 281.5,-101 281.5,-79 198.5,-79"/>
<text text-anchor="start" x="201.5" y="-87.2" font-family="Helvetica,sans-Serif" font-size="11.00">timestamp[29,6]</text>
<polygon fill="none" stroke="black" points="10.5,-57 10.5,-79 198.5,-79 198.5,-57 10.5,-57"/>
<text text-anchor="start" x="30.5" y="-65.2" font-family="Helvetica,sans-Serif" font-size="11.00">updatedby</text>
<polygon fill="none" stroke="black" points="198.5,-57 198.5,-79 281.5,-79 281.5,-57 198.5,-57"/>
<text text-anchor="start" x="201.5" y="-65.2" font-family="Helvetica,sans-Serif" font-size="11.00">numeric[10]</text>
<polygon fill="#ffffff" stroke="transparent" points="10.5,-39 10.5,-57 95.5,-57 95.5,-39 10.5,-39"/>
<polygon fill="none" stroke="black" points="10.5,-39 10.5,-57 95.5,-57 95.5,-39 10.5,-39"/>
<text text-anchor="start" x="13.5" y="-45.2" font-family="Helvetica,sans-Serif" font-size="11.00">&lt; 0</text>
<polygon fill="#ffffff" stroke="transparent" points="95.5,-39 95.5,-57 198.5,-57 198.5,-39 95.5,-39"/>
<polygon fill="none" stroke="black" points="95.5,-39 95.5,-57 198.5,-57 198.5,-39 95.5,-39"/>
<text text-anchor="start" x="162.5" y="-45.2" font-family="Helvetica,sans-Serif" font-size="11.00">0 rows</text>
<polygon fill="#ffffff" stroke="transparent" points="198.5,-39 198.5,-57 281.5,-57 281.5,-39 198.5,-39"/>
<polygon fill="none" stroke="black" points="198.5,-39 198.5,-57 281.5,-57 281.5,-39 198.5,-39"/>
<text text-anchor="start" x="262.5" y="-45.2" font-family="Helvetica,sans-Serif" font-size="11.00">1 &gt;</text>
<polygon fill="none" stroke="black" stroke-width="2" points="9,-38 9,-322 282,-322 282,-38 9,-38"/>
</a>
</g>
</g>
<!-- ad_printformat&#45;&gt;ad_printheaderfooter -->
<g id="edge1" class="edge">
<title>ad_printformat:w&#45;&gt;ad_printheaderfooter:e</title>
<path fill="none" stroke="black" d="M316.28,-244C305.29,-244 298.16,-244 282.5,-244"/>
<polygon fill="black" stroke="black" points="323,-244 331,-247.6 327,-244 331,-244 331,-244 331,-244 327,-244 331,-240.4 323,-244 323,-244"/>
<ellipse fill="none" stroke="black" cx="319.8" cy="-244" rx="3.2" ry="3.2"/>
</g>
</g>
</svg>
