<?xml version="1.0" encoding="UTF-8" standalone="no"?>
<!DOCTYPE svg PUBLIC "-//W3C//DTD SVG 1.1//EN"
 "http://www.w3.org/Graphics/SVG/1.1/DTD/svg11.dtd">
<!-- Generated by graphviz version 2.43.0 (0)
 -->
<!-- Title: oneDegreeRelationshipsDiagram Pages: 1 -->
<svg width="954pt" height="576pt"
 viewBox="0.00 0.00 954.00 575.61" xmlns="http://www.w3.org/2000/svg" xmlns:xlink="http://www.w3.org/1999/xlink">
<g id="graph0" class="graph" transform="scale(1 1) rotate(0) translate(4 571.61)">
<title>oneDegreeRelationshipsDiagram</title>
<polygon fill="#ffffff" stroke="transparent" points="-4,4 -4,-571.61 950,-571.61 950,4 -4,4"/>
<text text-anchor="middle" x="71.5" y="-7.2" font-family="Helvetica,sans-Serif" font-size="11.00">Generated by SchemaSpy</text>
<!-- ad_replication_log -->
<g id="node1" class="node">
<title>ad_replication_log</title>
<g id="a_node1"><a xlink:href="../../tables/ad_replication_log.html" xlink:title="ad_replication_log" target="_top">
<polygon fill="#ffffff" stroke="transparent" points="769,-417.61 769,-563.61 938,-563.61 938,-417.61 769,-417.61"/>
<polygon fill="#f5f5f5" stroke="transparent" points="769.5,-541.61 769.5,-563.61 938.5,-563.61 938.5,-541.61 769.5,-541.61"/>
<polygon fill="none" stroke="black" points="769.5,-541.61 769.5,-563.61 938.5,-563.61 938.5,-541.61 769.5,-541.61"/>
<text text-anchor="start" x="774.5" y="-550.81" font-family="Helvetica,sans-Serif" font-weight="bold" font-size="11.00">ad_replication_log</text>
<text text-anchor="start" x="903.5" y="-549.81" font-family="Helvetica,sans-Serif" font-size="11.00">[table]</text>
<polygon fill="none" stroke="black" points="769.5,-519.61 769.5,-541.61 938.5,-541.61 938.5,-519.61 769.5,-519.61"/>
<image xlink:href="../../images/primaryKeys.png" width="11px" height="12px" preserveAspectRatio="xMinYMin meet" x="774.5" y="-536.608"/>
<text text-anchor="start" x="789.5" y="-527.81" font-family="Helvetica,sans-Serif" font-size="11.00">ad_replication_log_id</text>
<polygon fill="none" stroke="black" points="769.5,-497.61 769.5,-519.61 938.5,-519.61 938.5,-497.61 769.5,-497.61"/>
<image xlink:href="../../images/foreignKeys.png" width="11px" height="12px" preserveAspectRatio="xMinYMin meet" x="774.5" y="-514.608"/>
<text text-anchor="start" x="789.5" y="-505.81" font-family="Helvetica,sans-Serif" font-size="11.00">ad_replication_run_id</text>
<polygon fill="none" stroke="black" points="769.5,-475.61 769.5,-497.61 938.5,-497.61 938.5,-475.61 769.5,-475.61"/>
<image xlink:href="../../images/foreignKeys.png" width="11px" height="12px" preserveAspectRatio="xMinYMin meet" x="774.5" y="-492.608"/>
<text text-anchor="start" x="789.5" y="-483.81" font-family="Helvetica,sans-Serif" font-size="11.00">ad_replicationtable_id</text>
<polygon fill="#ffffff" stroke="transparent" points="769.5,-453.61 769.5,-475.61 938.5,-475.61 938.5,-453.61 769.5,-453.61"/>
<polygon fill="none" stroke="black" points="769.5,-453.61 769.5,-475.61 938.5,-475.61 938.5,-453.61 769.5,-453.61"/>
<text text-anchor="start" x="789.5" y="-461.81" font-family="Helvetica,sans-Serif" font-size="11.00">ad_replication_log_uu</text>
<polygon fill="none" stroke="black" points="769.5,-435.61 769.5,-453.61 938.5,-453.61 938.5,-435.61 769.5,-435.61"/>
<text text-anchor="start" x="772.5" y="-441.81" font-family="Helvetica,sans-Serif" font-size="11.00">...</text>
<polygon fill="#ffffff" stroke="transparent" points="769.5,-417.61 769.5,-435.61 838.5,-435.61 838.5,-417.61 769.5,-417.61"/>
<polygon fill="none" stroke="black" points="769.5,-417.61 769.5,-435.61 838.5,-435.61 838.5,-417.61 769.5,-417.61"/>
<text text-anchor="start" x="772.5" y="-423.81" font-family="Helvetica,sans-Serif" font-size="11.00">&lt; 2</text>
<polygon fill="#ffffff" stroke="transparent" points="838.5,-417.61 838.5,-435.61 901.5,-435.61 901.5,-417.61 838.5,-417.61"/>
<polygon fill="none" stroke="black" points="838.5,-417.61 838.5,-435.61 901.5,-435.61 901.5,-417.61 838.5,-417.61"/>
<text text-anchor="start" x="865.5" y="-423.81" font-family="Helvetica,sans-Serif" font-size="11.00">0 rows</text>
<polygon fill="#ffffff" stroke="transparent" points="901.5,-417.61 901.5,-435.61 938.5,-435.61 938.5,-417.61 901.5,-417.61"/>
<polygon fill="none" stroke="black" points="901.5,-417.61 901.5,-435.61 938.5,-435.61 938.5,-417.61 901.5,-417.61"/>
<text text-anchor="start" x="928.5" y="-423.81" font-family="Helvetica,sans-Serif" font-size="11.00"> &#160;</text>
</a>
</g>
</g>
<!-- ad_replicationtable -->
<g id="node2" class="node">
<title>ad_replicationtable</title>
<g id="a_node2"><a xlink:href="../../tables/ad_replicationtable.html" xlink:title="ad_replicationtable" target="_top">
<polygon fill="#ffffff" stroke="transparent" points="441,-169.61 441,-521.61 720,-521.61 720,-169.61 441,-169.61"/>
<polygon fill="#f5f5f5" stroke="transparent" points="443.5,-497.61 443.5,-519.61 718.5,-519.61 718.5,-497.61 443.5,-497.61"/>
<polygon fill="none" stroke="black" points="443.5,-497.61 443.5,-519.61 718.5,-519.61 718.5,-497.61 443.5,-497.61"/>
<text text-anchor="start" x="448.5" y="-506.81" font-family="Helvetica,sans-Serif" font-weight="bold" font-size="11.00">ad_replicationtable</text>
<text text-anchor="start" x="683.5" y="-505.81" font-family="Helvetica,sans-Serif" font-size="11.00">[table]</text>
<polygon fill="none" stroke="black" points="443.5,-475.61 443.5,-497.61 635.5,-497.61 635.5,-475.61 443.5,-475.61"/>
<image xlink:href="../../images/primaryKeys.png" width="11px" height="12px" preserveAspectRatio="xMinYMin meet" x="448.5" y="-492.608"/>
<text text-anchor="start" x="463.5" y="-483.81" font-family="Helvetica,sans-Serif" font-size="11.00">ad_replicationtable_id</text>
<polygon fill="none" stroke="black" points="635.5,-475.61 635.5,-497.61 718.5,-497.61 718.5,-475.61 635.5,-475.61"/>
<text text-anchor="start" x="638.5" y="-483.81" font-family="Helvetica,sans-Serif" font-size="11.00">numeric[10]</text>
<polygon fill="none" stroke="black" points="443.5,-453.61 443.5,-475.61 635.5,-475.61 635.5,-453.61 443.5,-453.61"/>
<text text-anchor="start" x="463.5" y="-461.81" font-family="Helvetica,sans-Serif" font-size="11.00">ad_client_id</text>
<polygon fill="none" stroke="black" points="635.5,-453.61 635.5,-475.61 718.5,-475.61 718.5,-453.61 635.5,-453.61"/>
<text text-anchor="start" x="638.5" y="-461.81" font-family="Helvetica,sans-Serif" font-size="11.00">numeric[10]</text>
<polygon fill="none" stroke="black" points="443.5,-431.61 443.5,-453.61 635.5,-453.61 635.5,-431.61 443.5,-431.61"/>
<text text-anchor="start" x="463.5" y="-439.81" font-family="Helvetica,sans-Serif" font-size="11.00">ad_org_id</text>
<polygon fill="none" stroke="black" points="635.5,-431.61 635.5,-453.61 718.5,-453.61 718.5,-431.61 635.5,-431.61"/>
<text text-anchor="start" x="638.5" y="-439.81" font-family="Helvetica,sans-Serif" font-size="11.00">numeric[10]</text>
<polygon fill="none" stroke="black" points="443.5,-409.61 443.5,-431.61 635.5,-431.61 635.5,-409.61 443.5,-409.61"/>
<text text-anchor="start" x="463.5" y="-417.81" font-family="Helvetica,sans-Serif" font-size="11.00">isactive</text>
<polygon fill="none" stroke="black" points="635.5,-409.61 635.5,-431.61 718.5,-431.61 718.5,-409.61 635.5,-409.61"/>
<text text-anchor="start" x="638.5" y="-417.81" font-family="Helvetica,sans-Serif" font-size="11.00">bpchar[1]</text>
<polygon fill="none" stroke="black" points="443.5,-387.61 443.5,-409.61 635.5,-409.61 635.5,-387.61 443.5,-387.61"/>
<text text-anchor="start" x="463.5" y="-395.81" font-family="Helvetica,sans-Serif" font-size="11.00">created</text>
<polygon fill="none" stroke="black" points="635.5,-387.61 635.5,-409.61 718.5,-409.61 718.5,-387.61 635.5,-387.61"/>
<text text-anchor="start" x="638.5" y="-395.81" font-family="Helvetica,sans-Serif" font-size="11.00">timestamp[29,6]</text>
<polygon fill="none" stroke="black" points="443.5,-365.61 443.5,-387.61 635.5,-387.61 635.5,-365.61 443.5,-365.61"/>
<text text-anchor="start" x="463.5" y="-373.81" font-family="Helvetica,sans-Serif" font-size="11.00">createdby</text>
<polygon fill="none" stroke="black" points="635.5,-365.61 635.5,-387.61 718.5,-387.61 718.5,-365.61 635.5,-365.61"/>
<text text-anchor="start" x="638.5" y="-373.81" font-family="Helvetica,sans-Serif" font-size="11.00">numeric[10]</text>
<polygon fill="none" stroke="black" points="443.5,-343.61 443.5,-365.61 635.5,-365.61 635.5,-343.61 443.5,-343.61"/>
<text text-anchor="start" x="463.5" y="-351.81" font-family="Helvetica,sans-Serif" font-size="11.00">updated</text>
<polygon fill="none" stroke="black" points="635.5,-343.61 635.5,-365.61 718.5,-365.61 718.5,-343.61 635.5,-343.61"/>
<text text-anchor="start" x="638.5" y="-351.81" font-family="Helvetica,sans-Serif" font-size="11.00">timestamp[29,6]</text>
<polygon fill="none" stroke="black" points="443.5,-321.61 443.5,-343.61 635.5,-343.61 635.5,-321.61 443.5,-321.61"/>
<text text-anchor="start" x="463.5" y="-329.81" font-family="Helvetica,sans-Serif" font-size="11.00">updatedby</text>
<polygon fill="none" stroke="black" points="635.5,-321.61 635.5,-343.61 718.5,-343.61 718.5,-321.61 635.5,-321.61"/>
<text text-anchor="start" x="638.5" y="-329.81" font-family="Helvetica,sans-Serif" font-size="11.00">numeric[10]</text>
<polygon fill="none" stroke="black" points="443.5,-299.61 443.5,-321.61 635.5,-321.61 635.5,-299.61 443.5,-299.61"/>
<image xlink:href="../../images/foreignKeys.png" width="11px" height="12px" preserveAspectRatio="xMinYMin meet" x="448.5" y="-316.608"/>
<text text-anchor="start" x="463.5" y="-307.81" font-family="Helvetica,sans-Serif" font-size="11.00">ad_replicationstrategy_id</text>
<polygon fill="none" stroke="black" points="635.5,-299.61 635.5,-321.61 718.5,-321.61 718.5,-299.61 635.5,-299.61"/>
<text text-anchor="start" x="638.5" y="-307.81" font-family="Helvetica,sans-Serif" font-size="11.00">numeric[10]</text>
<polygon fill="none" stroke="black" points="443.5,-277.61 443.5,-299.61 635.5,-299.61 635.5,-277.61 443.5,-277.61"/>
<image xlink:href="../../images/foreignKeys.png" width="11px" height="12px" preserveAspectRatio="xMinYMin meet" x="448.5" y="-294.608"/>
<text text-anchor="start" x="463.5" y="-285.81" font-family="Helvetica,sans-Serif" font-size="11.00">ad_table_id</text>
<polygon fill="none" stroke="black" points="635.5,-277.61 635.5,-299.61 718.5,-299.61 718.5,-277.61 635.5,-277.61"/>
<text text-anchor="start" x="638.5" y="-285.81" font-family="Helvetica,sans-Serif" font-size="11.00">numeric[10]</text>
<polygon fill="none" stroke="black" points="443.5,-255.61 443.5,-277.61 635.5,-277.61 635.5,-255.61 443.5,-255.61"/>
<text text-anchor="start" x="463.5" y="-263.81" font-family="Helvetica,sans-Serif" font-size="11.00">replicationtype</text>
<polygon fill="none" stroke="black" points="635.5,-255.61 635.5,-277.61 718.5,-277.61 718.5,-255.61 635.5,-255.61"/>
<text text-anchor="start" x="638.5" y="-263.81" font-family="Helvetica,sans-Serif" font-size="11.00">bpchar[1]</text>
<polygon fill="none" stroke="black" points="443.5,-233.61 443.5,-255.61 635.5,-255.61 635.5,-233.61 443.5,-233.61"/>
<image xlink:href="../../images/foreignKeys.png" width="11px" height="12px" preserveAspectRatio="xMinYMin meet" x="448.5" y="-250.608"/>
<text text-anchor="start" x="463.5" y="-241.81" font-family="Helvetica,sans-Serif" font-size="11.00">entitytype</text>
<polygon fill="none" stroke="black" points="635.5,-233.61 635.5,-255.61 718.5,-255.61 718.5,-233.61 635.5,-233.61"/>
<text text-anchor="start" x="638.5" y="-241.81" font-family="Helvetica,sans-Serif" font-size="11.00">varchar[40]</text>
<polygon fill="none" stroke="black" points="443.5,-211.61 443.5,-233.61 635.5,-233.61 635.5,-211.61 443.5,-211.61"/>
<text text-anchor="start" x="463.5" y="-219.81" font-family="Helvetica,sans-Serif" font-size="11.00">description</text>
<polygon fill="none" stroke="black" points="635.5,-211.61 635.5,-233.61 718.5,-233.61 718.5,-211.61 635.5,-211.61"/>
<text text-anchor="start" x="638.5" y="-219.81" font-family="Helvetica,sans-Serif" font-size="11.00">varchar[255]</text>
<polygon fill="#ffffff" stroke="transparent" points="443.5,-189.61 443.5,-211.61 635.5,-211.61 635.5,-189.61 443.5,-189.61"/>
<polygon fill="none" stroke="black" points="443.5,-189.61 443.5,-211.61 635.5,-211.61 635.5,-189.61 443.5,-189.61"/>
<text text-anchor="start" x="463.5" y="-197.81" font-family="Helvetica,sans-Serif" font-size="11.00">ad_replicationtable_uu</text>
<polygon fill="none" stroke="black" points="635.5,-189.61 635.5,-211.61 718.5,-211.61 718.5,-189.61 635.5,-189.61"/>
<text text-anchor="start" x="638.5" y="-197.81" font-family="Helvetica,sans-Serif" font-size="11.00">varchar[36]</text>
<polygon fill="#ffffff" stroke="transparent" points="443.5,-171.61 443.5,-189.61 524.5,-189.61 524.5,-171.61 443.5,-171.61"/>
<polygon fill="none" stroke="black" points="443.5,-171.61 443.5,-189.61 524.5,-189.61 524.5,-171.61 443.5,-171.61"/>
<text text-anchor="start" x="446.5" y="-177.81" font-family="Helvetica,sans-Serif" font-size="11.00">&lt; 3</text>
<polygon fill="#ffffff" stroke="transparent" points="524.5,-171.61 524.5,-189.61 635.5,-189.61 635.5,-171.61 524.5,-171.61"/>
<polygon fill="none" stroke="black" points="524.5,-171.61 524.5,-189.61 635.5,-189.61 635.5,-171.61 524.5,-171.61"/>
<text text-anchor="start" x="587.5" y="-177.81" font-family="Helvetica,sans-Serif" font-size="11.00">472 rows</text>
<polygon fill="#ffffff" stroke="transparent" points="635.5,-171.61 635.5,-189.61 718.5,-189.61 718.5,-171.61 635.5,-171.61"/>
<polygon fill="none" stroke="black" points="635.5,-171.61 635.5,-189.61 718.5,-189.61 718.5,-171.61 635.5,-171.61"/>
<text text-anchor="start" x="699.5" y="-177.81" font-family="Helvetica,sans-Serif" font-size="11.00">1 &gt;</text>
<polygon fill="none" stroke="black" stroke-width="2" points="442,-170.61 442,-520.61 719,-520.61 719,-170.61 442,-170.61"/>
</a>
</g>
</g>
<!-- ad_replication_log&#45;&gt;ad_replicationtable -->
<g id="edge1" class="edge">
<title>ad_replication_log:w&#45;&gt;ad_replicationtable:e</title>
<path fill="none" stroke="black" d="M753.99,-486.61C742.68,-486.61 735.49,-486.61 719.5,-486.61"/>
<polygon fill="black" stroke="black" points="760.5,-486.61 768.5,-490.21 764.5,-486.61 768.5,-486.61 768.5,-486.61 768.5,-486.61 764.5,-486.61 768.5,-483.01 760.5,-486.61 760.5,-486.61"/>
<ellipse fill="none" stroke="black" cx="757.3" cy="-486.61" rx="3.2" ry="3.2"/>
</g>
<!-- ad_replicationstrategy -->
<g id="node3" class="node">
<title>ad_replicationstrategy</title>
<g id="a_node3"><a xlink:href="../../tables/ad_replicationstrategy.html" xlink:title="ad_replicationstrategy" target="_top">
<polygon fill="#ffffff" stroke="transparent" points="195,-342.61 195,-532.61 391,-532.61 391,-342.61 195,-342.61"/>
<polygon fill="#f5f5f5" stroke="transparent" points="195,-510.61 195,-532.61 391,-532.61 391,-510.61 195,-510.61"/>
<polygon fill="none" stroke="black" points="195,-510.61 195,-532.61 391,-532.61 391,-510.61 195,-510.61"/>
<text text-anchor="start" x="200" y="-519.81" font-family="Helvetica,sans-Serif" font-weight="bold" font-size="11.00">ad_replicationstrategy</text>
<text text-anchor="start" x="356" y="-518.81" font-family="Helvetica,sans-Serif" font-size="11.00">[table]</text>
<polygon fill="none" stroke="black" points="195,-488.61 195,-510.61 391,-510.61 391,-488.61 195,-488.61"/>
<image xlink:href="../../images/primaryKeys.png" width="11px" height="12px" preserveAspectRatio="xMinYMin meet" x="200" y="-505.608"/>
<text text-anchor="start" x="215" y="-496.81" font-family="Helvetica,sans-Serif" font-size="11.00">ad_replicationstrategy_id</text>
<polygon fill="#ffffff" stroke="transparent" points="195,-466.61 195,-488.61 391,-488.61 391,-466.61 195,-466.61"/>
<polygon fill="none" stroke="black" points="195,-466.61 195,-488.61 391,-488.61 391,-466.61 195,-466.61"/>
<text text-anchor="start" x="215" y="-474.81" font-family="Helvetica,sans-Serif" font-size="11.00">ad_client_id</text>
<polygon fill="none" stroke="black" points="195,-444.61 195,-466.61 391,-466.61 391,-444.61 195,-444.61"/>
<image xlink:href="../../images/foreignKeys.png" width="11px" height="12px" preserveAspectRatio="xMinYMin meet" x="200" y="-461.608"/>
<text text-anchor="start" x="215" y="-452.81" font-family="Helvetica,sans-Serif" font-size="11.00">entitytype</text>
<polygon fill="none" stroke="black" points="195,-422.61 195,-444.61 391,-444.61 391,-422.61 195,-422.61"/>
<image xlink:href="../../images/foreignKeys.png" width="11px" height="12px" preserveAspectRatio="xMinYMin meet" x="200" y="-439.608"/>
<text text-anchor="start" x="215" y="-430.81" font-family="Helvetica,sans-Serif" font-size="11.00">exp_processor_id</text>
<polygon fill="#ffffff" stroke="transparent" points="195,-400.61 195,-422.61 391,-422.61 391,-400.61 195,-400.61"/>
<polygon fill="none" stroke="black" points="195,-400.61 195,-422.61 391,-422.61 391,-400.61 195,-400.61"/>
<text text-anchor="start" x="215" y="-408.81" font-family="Helvetica,sans-Serif" font-size="11.00">value</text>
<polygon fill="#ffffff" stroke="transparent" points="195,-378.61 195,-400.61 391,-400.61 391,-378.61 195,-378.61"/>
<polygon fill="none" stroke="black" points="195,-378.61 195,-400.61 391,-400.61 391,-378.61 195,-378.61"/>
<text text-anchor="start" x="215" y="-386.81" font-family="Helvetica,sans-Serif" font-size="11.00">ad_replicationstrategy_uu</text>
<polygon fill="none" stroke="black" points="195,-360.61 195,-378.61 391,-378.61 391,-360.61 195,-360.61"/>
<text text-anchor="start" x="198" y="-366.81" font-family="Helvetica,sans-Serif" font-size="11.00">...</text>
<polygon fill="#ffffff" stroke="transparent" points="195,-342.61 195,-360.61 276,-360.61 276,-342.61 195,-342.61"/>
<polygon fill="none" stroke="black" points="195,-342.61 195,-360.61 276,-360.61 276,-342.61 195,-342.61"/>
<text text-anchor="start" x="198" y="-348.81" font-family="Helvetica,sans-Serif" font-size="11.00">&lt; 2</text>
<polygon fill="#ffffff" stroke="transparent" points="276,-342.61 276,-360.61 339,-360.61 339,-342.61 276,-342.61"/>
<polygon fill="none" stroke="black" points="276,-342.61 276,-360.61 339,-360.61 339,-342.61 276,-342.61"/>
<text text-anchor="start" x="308" y="-348.81" font-family="Helvetica,sans-Serif" font-size="11.00">1 row</text>
<polygon fill="#ffffff" stroke="transparent" points="339,-342.61 339,-360.61 391,-360.61 391,-342.61 339,-342.61"/>
<polygon fill="none" stroke="black" points="339,-342.61 339,-360.61 391,-360.61 391,-342.61 339,-342.61"/>
<text text-anchor="start" x="372" y="-348.81" font-family="Helvetica,sans-Serif" font-size="11.00">4 &gt;</text>
</a>
</g>
</g>
<!-- ad_replicationtable&#45;&gt;ad_replicationstrategy -->
<g id="edge3" class="edge">
<title>ad_replicationtable:w&#45;&gt;ad_replicationstrategy:e</title>
<path fill="none" stroke="black" d="M428.2,-312.86C370.59,-334.19 473.34,-499.61 392,-499.61"/>
<polygon fill="black" stroke="black" points="434.6,-311.85 443.06,-314.16 438.55,-311.23 442.5,-310.61 442.5,-310.61 442.5,-310.61 438.55,-311.23 441.94,-307.05 434.6,-311.85 434.6,-311.85"/>
<ellipse fill="none" stroke="black" cx="431.44" cy="-312.35" rx="3.2" ry="3.2"/>
</g>
<!-- ad_entitytype -->
<g id="node4" class="node">
<title>ad_entitytype</title>
<g id="a_node4"><a xlink:href="../../tables/ad_entitytype.html" xlink:title="ad_entitytype" target="_top">
<polygon fill="#ffffff" stroke="transparent" points="8,-131.61 8,-255.61 145,-255.61 145,-131.61 8,-131.61"/>
<polygon fill="#f5f5f5" stroke="transparent" points="8.5,-233.61 8.5,-255.61 145.5,-255.61 145.5,-233.61 8.5,-233.61"/>
<polygon fill="none" stroke="black" points="8.5,-233.61 8.5,-255.61 145.5,-255.61 145.5,-233.61 8.5,-233.61"/>
<text text-anchor="start" x="13.5" y="-242.81" font-family="Helvetica,sans-Serif" font-weight="bold" font-size="11.00">ad_entitytype</text>
<text text-anchor="start" x="110.5" y="-241.81" font-family="Helvetica,sans-Serif" font-size="11.00">[table]</text>
<polygon fill="none" stroke="black" points="8.5,-211.61 8.5,-233.61 145.5,-233.61 145.5,-211.61 8.5,-211.61"/>
<image xlink:href="../../images/primaryKeys.png" width="11px" height="12px" preserveAspectRatio="xMinYMin meet" x="13.5" y="-228.608"/>
<text text-anchor="start" x="28.5" y="-219.81" font-family="Helvetica,sans-Serif" font-size="11.00">entitytype</text>
<polygon fill="#ffffff" stroke="transparent" points="8.5,-189.61 8.5,-211.61 145.5,-211.61 145.5,-189.61 8.5,-189.61"/>
<polygon fill="none" stroke="black" points="8.5,-189.61 8.5,-211.61 145.5,-211.61 145.5,-189.61 8.5,-189.61"/>
<text text-anchor="start" x="28.5" y="-197.81" font-family="Helvetica,sans-Serif" font-size="11.00">ad_entitytype_id</text>
<polygon fill="#ffffff" stroke="transparent" points="8.5,-167.61 8.5,-189.61 145.5,-189.61 145.5,-167.61 8.5,-167.61"/>
<polygon fill="none" stroke="black" points="8.5,-167.61 8.5,-189.61 145.5,-189.61 145.5,-167.61 8.5,-167.61"/>
<text text-anchor="start" x="28.5" y="-175.81" font-family="Helvetica,sans-Serif" font-size="11.00">ad_entitytype_uu</text>
<polygon fill="none" stroke="black" points="8.5,-149.61 8.5,-167.61 145.5,-167.61 145.5,-149.61 8.5,-149.61"/>
<text text-anchor="start" x="11.5" y="-155.81" font-family="Helvetica,sans-Serif" font-size="11.00">...</text>
<polygon fill="#ffffff" stroke="transparent" points="8.5,-131.61 8.5,-149.61 46.5,-149.61 46.5,-131.61 8.5,-131.61"/>
<polygon fill="none" stroke="black" points="8.5,-131.61 8.5,-149.61 46.5,-149.61 46.5,-131.61 8.5,-131.61"/>
<text text-anchor="start" x="11.5" y="-137.81" font-family="Helvetica,sans-Serif" font-size="11.00"> &#160;</text>
<polygon fill="#ffffff" stroke="transparent" points="46.5,-131.61 46.5,-149.61 104.5,-149.61 104.5,-131.61 46.5,-131.61"/>
<polygon fill="none" stroke="black" points="46.5,-131.61 46.5,-149.61 104.5,-149.61 104.5,-131.61 46.5,-131.61"/>
<text text-anchor="start" x="62.5" y="-137.81" font-family="Helvetica,sans-Serif" font-size="11.00">33 rows</text>
<polygon fill="#ffffff" stroke="transparent" points="104.5,-131.61 104.5,-149.61 145.5,-149.61 145.5,-131.61 104.5,-131.61"/>
<polygon fill="none" stroke="black" points="104.5,-131.61 104.5,-149.61 145.5,-149.61 145.5,-131.61 104.5,-131.61"/>
<text text-anchor="start" x="120.5" y="-137.81" font-family="Helvetica,sans-Serif" font-size="11.00">59 &gt;</text>
</a>
</g>
</g>
<!-- ad_replicationtable&#45;&gt;ad_entitytype -->
<g id="edge5" class="edge">
<title>ad_replicationtable:w&#45;&gt;ad_entitytype:e</title>
<path fill="none" stroke="black" d="M428.06,-242.69C378.77,-227.1 456.26,-120.41 400,-76.61 324.95,-18.18 261.53,-18.8 186,-76.61 132.62,-117.47 213.72,-222.61 146.5,-222.61"/>
<polygon fill="black" stroke="black" points="434.57,-243.56 442.03,-248.18 438.53,-244.08 442.5,-244.61 442.5,-244.61 442.5,-244.61 438.53,-244.08 442.97,-241.04 434.57,-243.56 434.57,-243.56"/>
<ellipse fill="none" stroke="black" cx="431.4" cy="-243.13" rx="3.2" ry="3.2"/>
</g>
<!-- ad_table -->
<g id="node5" class="node">
<title>ad_table</title>
<g id="a_node5"><a xlink:href="../../tables/ad_table.html" xlink:title="ad_table" target="_top">
<polygon fill="#ffffff" stroke="transparent" points="194,-87.61 194,-321.61 392,-321.61 392,-87.61 194,-87.61"/>
<polygon fill="#f5f5f5" stroke="transparent" points="194,-299.61 194,-321.61 392,-321.61 392,-299.61 194,-299.61"/>
<polygon fill="none" stroke="black" points="194,-299.61 194,-321.61 392,-321.61 392,-299.61 194,-299.61"/>
<text text-anchor="start" x="199" y="-308.81" font-family="Helvetica,sans-Serif" font-weight="bold" font-size="11.00">ad_table</text>
<text text-anchor="start" x="357" y="-307.81" font-family="Helvetica,sans-Serif" font-size="11.00">[table]</text>
<polygon fill="none" stroke="black" points="194,-277.61 194,-299.61 392,-299.61 392,-277.61 194,-277.61"/>
<image xlink:href="../../images/primaryKeys.png" width="11px" height="12px" preserveAspectRatio="xMinYMin meet" x="199" y="-294.608"/>
<text text-anchor="start" x="214" y="-285.81" font-family="Helvetica,sans-Serif" font-size="11.00">ad_table_id</text>
<polygon fill="none" stroke="black" points="194,-255.61 194,-277.61 392,-277.61 392,-255.61 194,-255.61"/>
<image xlink:href="../../images/foreignKeys.png" width="11px" height="12px" preserveAspectRatio="xMinYMin meet" x="199" y="-272.608"/>
<text text-anchor="start" x="214" y="-263.81" font-family="Helvetica,sans-Serif" font-size="11.00">ad_client_id</text>
<polygon fill="none" stroke="black" points="194,-233.61 194,-255.61 392,-255.61 392,-233.61 194,-233.61"/>
<image xlink:href="../../images/foreignKeys.png" width="11px" height="12px" preserveAspectRatio="xMinYMin meet" x="199" y="-250.608"/>
<text text-anchor="start" x="214" y="-241.81" font-family="Helvetica,sans-Serif" font-size="11.00">ad_org_id</text>
<polygon fill="none" stroke="black" points="194,-211.61 194,-233.61 392,-233.61 392,-211.61 194,-211.61"/>
<image xlink:href="../../images/foreignKeys.png" width="11px" height="12px" preserveAspectRatio="xMinYMin meet" x="199" y="-228.608"/>
<text text-anchor="start" x="214" y="-219.81" font-family="Helvetica,sans-Serif" font-size="11.00">entitytype</text>
<polygon fill="none" stroke="black" points="194,-189.61 194,-211.61 392,-211.61 392,-189.61 194,-189.61"/>
<image xlink:href="../../images/foreignKeys.png" width="11px" height="12px" preserveAspectRatio="xMinYMin meet" x="199" y="-206.608"/>
<text text-anchor="start" x="214" y="-197.81" font-family="Helvetica,sans-Serif" font-size="11.00">ad_window_id</text>
<polygon fill="none" stroke="black" points="194,-167.61 194,-189.61 392,-189.61 392,-167.61 194,-167.61"/>
<image xlink:href="../../images/foreignKeys.png" width="11px" height="12px" preserveAspectRatio="xMinYMin meet" x="199" y="-184.608"/>
<text text-anchor="start" x="214" y="-175.81" font-family="Helvetica,sans-Serif" font-size="11.00">ad_val_rule_id</text>
<polygon fill="none" stroke="black" points="194,-145.61 194,-167.61 392,-167.61 392,-145.61 194,-145.61"/>
<image xlink:href="../../images/foreignKeys.png" width="11px" height="12px" preserveAspectRatio="xMinYMin meet" x="199" y="-162.608"/>
<text text-anchor="start" x="214" y="-153.81" font-family="Helvetica,sans-Serif" font-size="11.00">po_window_id</text>
<polygon fill="#ffffff" stroke="transparent" points="194,-123.61 194,-145.61 392,-145.61 392,-123.61 194,-123.61"/>
<polygon fill="none" stroke="black" points="194,-123.61 194,-145.61 392,-145.61 392,-123.61 194,-123.61"/>
<text text-anchor="start" x="214" y="-131.81" font-family="Helvetica,sans-Serif" font-size="11.00">ad_table_uu</text>
<polygon fill="none" stroke="black" points="194,-105.61 194,-123.61 392,-123.61 392,-105.61 194,-105.61"/>
<text text-anchor="start" x="197" y="-111.81" font-family="Helvetica,sans-Serif" font-size="11.00">...</text>
<polygon fill="#ffffff" stroke="transparent" points="194,-87.61 194,-105.61 260,-105.61 260,-87.61 194,-87.61"/>
<polygon fill="none" stroke="black" points="194,-87.61 194,-105.61 260,-105.61 260,-87.61 194,-87.61"/>
<text text-anchor="start" x="197" y="-93.81" font-family="Helvetica,sans-Serif" font-size="11.00">&lt; 6</text>
<polygon fill="#ffffff" stroke="transparent" points="260,-87.61 260,-105.61 342,-105.61 342,-87.61 260,-87.61"/>
<polygon fill="none" stroke="black" points="260,-87.61 260,-105.61 342,-105.61 342,-87.61 260,-87.61"/>
<text text-anchor="start" x="285" y="-93.81" font-family="Helvetica,sans-Serif" font-size="11.00">1.363 rows</text>
<polygon fill="#ffffff" stroke="transparent" points="342,-87.61 342,-105.61 392,-105.61 392,-87.61 342,-87.61"/>
<polygon fill="none" stroke="black" points="342,-87.61 342,-105.61 392,-105.61 392,-87.61 342,-87.61"/>
<text text-anchor="start" x="367" y="-93.81" font-family="Helvetica,sans-Serif" font-size="11.00">77 &gt;</text>
</a>
</g>
</g>
<!-- ad_replicationtable&#45;&gt;ad_table -->
<g id="edge4" class="edge">
<title>ad_replicationtable:w&#45;&gt;ad_table:e</title>
<path fill="none" stroke="black" d="M427.84,-288.61C416.41,-288.61 409.16,-288.61 393,-288.61"/>
<polygon fill="black" stroke="black" points="434.5,-288.61 442.5,-292.21 438.5,-288.61 442.5,-288.61 442.5,-288.61 442.5,-288.61 438.5,-288.61 442.5,-285.01 434.5,-288.61 434.5,-288.61"/>
<ellipse fill="none" stroke="black" cx="431.3" cy="-288.61" rx="3.2" ry="3.2"/>
</g>
<!-- ad_replicationstrategy&#45;&gt;ad_entitytype -->
<g id="edge2" class="edge">
<title>ad_replicationstrategy:w&#45;&gt;ad_entitytype:e</title>
<path fill="none" stroke="black" d="M179.45,-453.73C104.85,-431.68 246.61,-222.61 146.5,-222.61"/>
<polygon fill="black" stroke="black" points="186.07,-454.59 193.54,-459.18 190.03,-455.1 194,-455.61 194,-455.61 194,-455.61 190.03,-455.1 194.46,-452.04 186.07,-454.59 186.07,-454.59"/>
<ellipse fill="none" stroke="black" cx="182.89" cy="-454.18" rx="3.2" ry="3.2"/>
</g>
<!-- ad_table&#45;&gt;ad_entitytype -->
<g id="edge6" class="edge">
<title>ad_table:w&#45;&gt;ad_entitytype:e</title>
<path fill="none" stroke="black" d="M178.55,-222.61C168.2,-222.61 161.35,-222.61 146.5,-222.61"/>
<polygon fill="black" stroke="black" points="185,-222.61 193,-226.21 189,-222.61 193,-222.61 193,-222.61 193,-222.61 189,-222.61 193,-219.01 185,-222.61 185,-222.61"/>
<ellipse fill="none" stroke="black" cx="181.8" cy="-222.61" rx="3.2" ry="3.2"/>
</g>
</g>
</svg>
