<?xml version="1.0" encoding="UTF-8" standalone="no"?>
<!DOCTYPE svg PUBLIC "-//W3C//DTD SVG 1.1//EN"
 "http://www.w3.org/Graphics/SVG/1.1/DTD/svg11.dtd">
<!-- Generated by graphviz version 2.43.0 (0)
 -->
<!-- Title: oneDegreeRelationshipsDiagram Pages: 1 -->
<svg width="714pt" height="716pt"
 viewBox="0.00 0.00 714.00 716.00" xmlns="http://www.w3.org/2000/svg" xmlns:xlink="http://www.w3.org/1999/xlink">
<g id="graph0" class="graph" transform="scale(1 1) rotate(0) translate(4 712)">
<title>oneDegreeRelationshipsDiagram</title>
<polygon fill="#ffffff" stroke="transparent" points="-4,4 -4,-712 710,-712 710,4 -4,4"/>
<text text-anchor="middle" x="71.5" y="-7.2" font-family="Helvetica,sans-Serif" font-size="11.00">Generated by SchemaSpy</text>
<!-- ad_column -->
<g id="node1" class="node">
<title>ad_column</title>
<g id="a_node1"><a xlink:href="../../tables/ad_column.html" xlink:title="ad_column" target="_top">
<polygon fill="#ffffff" stroke="transparent" points="194,-37 194,-425 380,-425 380,-37 194,-37"/>
<polygon fill="#f5f5f5" stroke="transparent" points="194,-403 194,-425 380,-425 380,-403 194,-403"/>
<polygon fill="none" stroke="black" points="194,-403 194,-425 380,-425 380,-403 194,-403"/>
<text text-anchor="start" x="199" y="-412.2" font-family="Helvetica,sans-Serif" font-weight="bold" font-size="11.00">ad_column</text>
<text text-anchor="start" x="345" y="-411.2" font-family="Helvetica,sans-Serif" font-size="11.00">[table]</text>
<polygon fill="none" stroke="black" points="194,-381 194,-403 380,-403 380,-381 194,-381"/>
<image xlink:href="../../images/primaryKeys.png" width="11px" height="12px" preserveAspectRatio="xMinYMin meet" x="199" y="-398"/>
<text text-anchor="start" x="214" y="-389.2" font-family="Helvetica,sans-Serif" font-size="11.00">ad_column_id</text>
<polygon fill="none" stroke="black" points="194,-359 194,-381 380,-381 380,-359 194,-359"/>
<image xlink:href="../../images/foreignKeys.png" width="11px" height="12px" preserveAspectRatio="xMinYMin meet" x="199" y="-376"/>
<text text-anchor="start" x="214" y="-367.2" font-family="Helvetica,sans-Serif" font-size="11.00">ad_client_id</text>
<polygon fill="none" stroke="black" points="194,-337 194,-359 380,-359 380,-337 194,-337"/>
<image xlink:href="../../images/foreignKeys.png" width="11px" height="12px" preserveAspectRatio="xMinYMin meet" x="199" y="-354"/>
<text text-anchor="start" x="214" y="-345.2" font-family="Helvetica,sans-Serif" font-size="11.00">ad_org_id</text>
<polygon fill="none" stroke="black" points="194,-315 194,-337 380,-337 380,-315 194,-315"/>
<image xlink:href="../../images/foreignKeys.png" width="11px" height="12px" preserveAspectRatio="xMinYMin meet" x="199" y="-332"/>
<text text-anchor="start" x="214" y="-323.2" font-family="Helvetica,sans-Serif" font-size="11.00">entitytype</text>
<polygon fill="#ffffff" stroke="transparent" points="194,-293 194,-315 380,-315 380,-293 194,-293"/>
<polygon fill="none" stroke="black" points="194,-293 194,-315 380,-315 380,-293 194,-293"/>
<image xlink:href="../../images/foreignKeys.png" width="11px" height="12px" preserveAspectRatio="xMinYMin meet" x="199" y="-310"/>
<text text-anchor="start" x="214" y="-301.2" font-family="Helvetica,sans-Serif" font-size="11.00">ad_table_id</text>
<polygon fill="none" stroke="black" points="194,-271 194,-293 380,-293 380,-271 194,-271"/>
<image xlink:href="../../images/foreignKeys.png" width="11px" height="12px" preserveAspectRatio="xMinYMin meet" x="199" y="-288"/>
<text text-anchor="start" x="214" y="-279.2" font-family="Helvetica,sans-Serif" font-size="11.00">ad_reference_id</text>
<polygon fill="none" stroke="black" points="194,-249 194,-271 380,-271 380,-249 194,-249"/>
<image xlink:href="../../images/foreignKeys.png" width="11px" height="12px" preserveAspectRatio="xMinYMin meet" x="199" y="-266"/>
<text text-anchor="start" x="214" y="-257.2" font-family="Helvetica,sans-Serif" font-size="11.00">ad_reference_value_id</text>
<polygon fill="none" stroke="black" points="194,-227 194,-249 380,-249 380,-227 194,-227"/>
<image xlink:href="../../images/foreignKeys.png" width="11px" height="12px" preserveAspectRatio="xMinYMin meet" x="199" y="-244"/>
<text text-anchor="start" x="214" y="-235.2" font-family="Helvetica,sans-Serif" font-size="11.00">ad_val_rule_id</text>
<polygon fill="none" stroke="black" points="194,-205 194,-227 380,-227 380,-205 194,-205"/>
<image xlink:href="../../images/foreignKeys.png" width="11px" height="12px" preserveAspectRatio="xMinYMin meet" x="199" y="-222"/>
<text text-anchor="start" x="214" y="-213.2" font-family="Helvetica,sans-Serif" font-size="11.00">ad_element_id</text>
<polygon fill="none" stroke="black" points="194,-183 194,-205 380,-205 380,-183 194,-183"/>
<image xlink:href="../../images/foreignKeys.png" width="11px" height="12px" preserveAspectRatio="xMinYMin meet" x="199" y="-200"/>
<text text-anchor="start" x="214" y="-191.2" font-family="Helvetica,sans-Serif" font-size="11.00">ad_process_id</text>
<polygon fill="#ffffff" stroke="transparent" points="194,-161 194,-183 380,-183 380,-161 194,-161"/>
<polygon fill="none" stroke="black" points="194,-161 194,-183 380,-183 380,-161 194,-161"/>
<text text-anchor="start" x="214" y="-169.2" font-family="Helvetica,sans-Serif" font-size="11.00">ad_column_uu</text>
<polygon fill="none" stroke="black" points="194,-139 194,-161 380,-161 380,-139 194,-139"/>
<image xlink:href="../../images/foreignKeys.png" width="11px" height="12px" preserveAspectRatio="xMinYMin meet" x="199" y="-156"/>
<text text-anchor="start" x="214" y="-147.2" font-family="Helvetica,sans-Serif" font-size="11.00">ad_chart_id</text>
<polygon fill="none" stroke="black" points="194,-117 194,-139 380,-139 380,-117 194,-117"/>
<image xlink:href="../../images/foreignKeys.png" width="11px" height="12px" preserveAspectRatio="xMinYMin meet" x="199" y="-134"/>
<text text-anchor="start" x="214" y="-125.2" font-family="Helvetica,sans-Serif" font-size="11.00">pa_dashboardcontent_id</text>
<polygon fill="none" stroke="black" points="194,-95 194,-117 380,-117 380,-95 194,-95"/>
<image xlink:href="../../images/foreignKeys.png" width="11px" height="12px" preserveAspectRatio="xMinYMin meet" x="199" y="-112"/>
<text text-anchor="start" x="214" y="-103.2" font-family="Helvetica,sans-Serif" font-size="11.00">ad_val_rule_lookup_id</text>
<polygon fill="none" stroke="black" points="194,-73 194,-95 380,-95 380,-73 194,-73"/>
<image xlink:href="../../images/foreignKeys.png" width="11px" height="12px" preserveAspectRatio="xMinYMin meet" x="199" y="-90"/>
<text text-anchor="start" x="214" y="-81.2" font-family="Helvetica,sans-Serif" font-size="11.00">ad_infowindow_id</text>
<polygon fill="none" stroke="black" points="194,-55 194,-73 380,-73 380,-55 194,-55"/>
<text text-anchor="start" x="197" y="-61.2" font-family="Helvetica,sans-Serif" font-size="11.00">...</text>
<polygon fill="#ffffff" stroke="transparent" points="194,-37 194,-55 254,-55 254,-37 194,-37"/>
<polygon fill="none" stroke="black" points="194,-37 194,-55 254,-55 254,-37 194,-37"/>
<text text-anchor="start" x="197" y="-43.2" font-family="Helvetica,sans-Serif" font-size="11.00">&lt; 13</text>
<polygon fill="#ffffff" stroke="transparent" points="254,-37 254,-55 336,-55 336,-37 254,-37"/>
<polygon fill="none" stroke="black" points="254,-37 254,-55 336,-55 336,-37 254,-37"/>
<text text-anchor="start" x="273" y="-43.2" font-family="Helvetica,sans-Serif" font-size="11.00">35.786 rows</text>
<polygon fill="#ffffff" stroke="transparent" points="336,-37 336,-55 380,-55 380,-37 336,-37"/>
<polygon fill="none" stroke="black" points="336,-37 336,-55 380,-55 380,-37 336,-37"/>
<text text-anchor="start" x="355" y="-43.2" font-family="Helvetica,sans-Serif" font-size="11.00">33 &gt;</text>
</a>
</g>
</g>
<!-- ad_entitytype -->
<g id="node2" class="node">
<title>ad_entitytype</title>
<g id="a_node2"><a xlink:href="../../tables/ad_entitytype.html" xlink:title="ad_entitytype" target="_top">
<polygon fill="#ffffff" stroke="transparent" points="8,-358 8,-482 145,-482 145,-358 8,-358"/>
<polygon fill="#f5f5f5" stroke="transparent" points="8.5,-460 8.5,-482 145.5,-482 145.5,-460 8.5,-460"/>
<polygon fill="none" stroke="black" points="8.5,-460 8.5,-482 145.5,-482 145.5,-460 8.5,-460"/>
<text text-anchor="start" x="13.5" y="-469.2" font-family="Helvetica,sans-Serif" font-weight="bold" font-size="11.00">ad_entitytype</text>
<text text-anchor="start" x="110.5" y="-468.2" font-family="Helvetica,sans-Serif" font-size="11.00">[table]</text>
<polygon fill="none" stroke="black" points="8.5,-438 8.5,-460 145.5,-460 145.5,-438 8.5,-438"/>
<image xlink:href="../../images/primaryKeys.png" width="11px" height="12px" preserveAspectRatio="xMinYMin meet" x="13.5" y="-455"/>
<text text-anchor="start" x="28.5" y="-446.2" font-family="Helvetica,sans-Serif" font-size="11.00">entitytype</text>
<polygon fill="#ffffff" stroke="transparent" points="8.5,-416 8.5,-438 145.5,-438 145.5,-416 8.5,-416"/>
<polygon fill="none" stroke="black" points="8.5,-416 8.5,-438 145.5,-438 145.5,-416 8.5,-416"/>
<text text-anchor="start" x="28.5" y="-424.2" font-family="Helvetica,sans-Serif" font-size="11.00">ad_entitytype_id</text>
<polygon fill="#ffffff" stroke="transparent" points="8.5,-394 8.5,-416 145.5,-416 145.5,-394 8.5,-394"/>
<polygon fill="none" stroke="black" points="8.5,-394 8.5,-416 145.5,-416 145.5,-394 8.5,-394"/>
<text text-anchor="start" x="28.5" y="-402.2" font-family="Helvetica,sans-Serif" font-size="11.00">ad_entitytype_uu</text>
<polygon fill="none" stroke="black" points="8.5,-376 8.5,-394 145.5,-394 145.5,-376 8.5,-376"/>
<text text-anchor="start" x="11.5" y="-382.2" font-family="Helvetica,sans-Serif" font-size="11.00">...</text>
<polygon fill="#ffffff" stroke="transparent" points="8.5,-358 8.5,-376 46.5,-376 46.5,-358 8.5,-358"/>
<polygon fill="none" stroke="black" points="8.5,-358 8.5,-376 46.5,-376 46.5,-358 8.5,-358"/>
<text text-anchor="start" x="11.5" y="-364.2" font-family="Helvetica,sans-Serif" font-size="11.00"> &#160;</text>
<polygon fill="#ffffff" stroke="transparent" points="46.5,-358 46.5,-376 104.5,-376 104.5,-358 46.5,-358"/>
<polygon fill="none" stroke="black" points="46.5,-358 46.5,-376 104.5,-376 104.5,-358 46.5,-358"/>
<text text-anchor="start" x="62.5" y="-364.2" font-family="Helvetica,sans-Serif" font-size="11.00">33 rows</text>
<polygon fill="#ffffff" stroke="transparent" points="104.5,-358 104.5,-376 145.5,-376 145.5,-358 104.5,-358"/>
<polygon fill="none" stroke="black" points="104.5,-358 104.5,-376 145.5,-376 145.5,-358 104.5,-358"/>
<text text-anchor="start" x="120.5" y="-364.2" font-family="Helvetica,sans-Serif" font-size="11.00">59 &gt;</text>
</a>
</g>
</g>
<!-- ad_column&#45;&gt;ad_entitytype -->
<g id="edge1" class="edge">
<title>ad_column:w&#45;&gt;ad_entitytype:e</title>
<path fill="none" stroke="black" d="M178.91,-329.55C147.53,-349.72 199.01,-449 146.5,-449"/>
<polygon fill="black" stroke="black" points="185.24,-327.95 193.88,-329.49 189.12,-326.98 193,-326 193,-326 193,-326 189.12,-326.98 192.12,-322.51 185.24,-327.95 185.24,-327.95"/>
<ellipse fill="none" stroke="black" cx="182.14" cy="-328.74" rx="3.2" ry="3.2"/>
</g>
<!-- ad_wf_nextcondition -->
<g id="node3" class="node">
<title>ad_wf_nextcondition</title>
<g id="a_node3"><a xlink:href="../../tables/ad_wf_nextcondition.html" xlink:title="ad_wf_nextcondition" target="_top">
<polygon fill="#ffffff" stroke="transparent" points="429,-264 429,-704 698,-704 698,-264 429,-264"/>
<polygon fill="#f5f5f5" stroke="transparent" points="431.5,-680 431.5,-702 696.5,-702 696.5,-680 431.5,-680"/>
<polygon fill="none" stroke="black" points="431.5,-680 431.5,-702 696.5,-702 696.5,-680 431.5,-680"/>
<text text-anchor="start" x="436.5" y="-689.2" font-family="Helvetica,sans-Serif" font-weight="bold" font-size="11.00">ad_wf_nextcondition</text>
<text text-anchor="start" x="661.5" y="-688.2" font-family="Helvetica,sans-Serif" font-size="11.00">[table]</text>
<polygon fill="none" stroke="black" points="431.5,-658 431.5,-680 613.5,-680 613.5,-658 431.5,-658"/>
<image xlink:href="../../images/primaryKeys.png" width="11px" height="12px" preserveAspectRatio="xMinYMin meet" x="436.5" y="-675"/>
<text text-anchor="start" x="451.5" y="-666.2" font-family="Helvetica,sans-Serif" font-size="11.00">ad_wf_nextcondition_id</text>
<polygon fill="none" stroke="black" points="613.5,-658 613.5,-680 696.5,-680 696.5,-658 613.5,-658"/>
<text text-anchor="start" x="616.5" y="-666.2" font-family="Helvetica,sans-Serif" font-size="11.00">numeric[10]</text>
<polygon fill="none" stroke="black" points="431.5,-636 431.5,-658 613.5,-658 613.5,-636 431.5,-636"/>
<text text-anchor="start" x="451.5" y="-644.2" font-family="Helvetica,sans-Serif" font-size="11.00">ad_client_id</text>
<polygon fill="none" stroke="black" points="613.5,-636 613.5,-658 696.5,-658 696.5,-636 613.5,-636"/>
<text text-anchor="start" x="616.5" y="-644.2" font-family="Helvetica,sans-Serif" font-size="11.00">numeric[10]</text>
<polygon fill="none" stroke="black" points="431.5,-614 431.5,-636 613.5,-636 613.5,-614 431.5,-614"/>
<text text-anchor="start" x="451.5" y="-622.2" font-family="Helvetica,sans-Serif" font-size="11.00">ad_org_id</text>
<polygon fill="none" stroke="black" points="613.5,-614 613.5,-636 696.5,-636 696.5,-614 613.5,-614"/>
<text text-anchor="start" x="616.5" y="-622.2" font-family="Helvetica,sans-Serif" font-size="11.00">numeric[10]</text>
<polygon fill="none" stroke="black" points="431.5,-592 431.5,-614 613.5,-614 613.5,-592 431.5,-592"/>
<text text-anchor="start" x="451.5" y="-600.2" font-family="Helvetica,sans-Serif" font-size="11.00">isactive</text>
<polygon fill="none" stroke="black" points="613.5,-592 613.5,-614 696.5,-614 696.5,-592 613.5,-592"/>
<text text-anchor="start" x="616.5" y="-600.2" font-family="Helvetica,sans-Serif" font-size="11.00">bpchar[1]</text>
<polygon fill="none" stroke="black" points="431.5,-570 431.5,-592 613.5,-592 613.5,-570 431.5,-570"/>
<text text-anchor="start" x="451.5" y="-578.2" font-family="Helvetica,sans-Serif" font-size="11.00">created</text>
<polygon fill="none" stroke="black" points="613.5,-570 613.5,-592 696.5,-592 696.5,-570 613.5,-570"/>
<text text-anchor="start" x="616.5" y="-578.2" font-family="Helvetica,sans-Serif" font-size="11.00">timestamp[29,6]</text>
<polygon fill="none" stroke="black" points="431.5,-548 431.5,-570 613.5,-570 613.5,-548 431.5,-548"/>
<text text-anchor="start" x="451.5" y="-556.2" font-family="Helvetica,sans-Serif" font-size="11.00">createdby</text>
<polygon fill="none" stroke="black" points="613.5,-548 613.5,-570 696.5,-570 696.5,-548 613.5,-548"/>
<text text-anchor="start" x="616.5" y="-556.2" font-family="Helvetica,sans-Serif" font-size="11.00">numeric[10]</text>
<polygon fill="none" stroke="black" points="431.5,-526 431.5,-548 613.5,-548 613.5,-526 431.5,-526"/>
<text text-anchor="start" x="451.5" y="-534.2" font-family="Helvetica,sans-Serif" font-size="11.00">updated</text>
<polygon fill="none" stroke="black" points="613.5,-526 613.5,-548 696.5,-548 696.5,-526 613.5,-526"/>
<text text-anchor="start" x="616.5" y="-534.2" font-family="Helvetica,sans-Serif" font-size="11.00">timestamp[29,6]</text>
<polygon fill="none" stroke="black" points="431.5,-504 431.5,-526 613.5,-526 613.5,-504 431.5,-504"/>
<text text-anchor="start" x="451.5" y="-512.2" font-family="Helvetica,sans-Serif" font-size="11.00">updatedby</text>
<polygon fill="none" stroke="black" points="613.5,-504 613.5,-526 696.5,-526 696.5,-504 613.5,-504"/>
<text text-anchor="start" x="616.5" y="-512.2" font-family="Helvetica,sans-Serif" font-size="11.00">numeric[10]</text>
<polygon fill="none" stroke="black" points="431.5,-482 431.5,-504 613.5,-504 613.5,-482 431.5,-482"/>
<image xlink:href="../../images/foreignKeys.png" width="11px" height="12px" preserveAspectRatio="xMinYMin meet" x="436.5" y="-499"/>
<text text-anchor="start" x="451.5" y="-490.2" font-family="Helvetica,sans-Serif" font-size="11.00">ad_wf_nodenext_id</text>
<polygon fill="none" stroke="black" points="613.5,-482 613.5,-504 696.5,-504 696.5,-482 613.5,-482"/>
<text text-anchor="start" x="616.5" y="-490.2" font-family="Helvetica,sans-Serif" font-size="11.00">numeric[10]</text>
<polygon fill="none" stroke="black" points="431.5,-460 431.5,-482 613.5,-482 613.5,-460 431.5,-460"/>
<text text-anchor="start" x="451.5" y="-468.2" font-family="Helvetica,sans-Serif" font-size="11.00">seqno</text>
<polygon fill="none" stroke="black" points="613.5,-460 613.5,-482 696.5,-482 696.5,-460 613.5,-460"/>
<text text-anchor="start" x="616.5" y="-468.2" font-family="Helvetica,sans-Serif" font-size="11.00">numeric[10]</text>
<polygon fill="none" stroke="black" points="431.5,-438 431.5,-460 613.5,-460 613.5,-438 431.5,-438"/>
<image xlink:href="../../images/foreignKeys.png" width="11px" height="12px" preserveAspectRatio="xMinYMin meet" x="436.5" y="-455"/>
<text text-anchor="start" x="451.5" y="-446.2" font-family="Helvetica,sans-Serif" font-size="11.00">entitytype</text>
<polygon fill="none" stroke="black" points="613.5,-438 613.5,-460 696.5,-460 696.5,-438 613.5,-438"/>
<text text-anchor="start" x="616.5" y="-446.2" font-family="Helvetica,sans-Serif" font-size="11.00">varchar[40]</text>
<polygon fill="none" stroke="black" points="431.5,-416 431.5,-438 613.5,-438 613.5,-416 431.5,-416"/>
<text text-anchor="start" x="451.5" y="-424.2" font-family="Helvetica,sans-Serif" font-size="11.00">andor</text>
<polygon fill="none" stroke="black" points="613.5,-416 613.5,-438 696.5,-438 696.5,-416 613.5,-416"/>
<text text-anchor="start" x="616.5" y="-424.2" font-family="Helvetica,sans-Serif" font-size="11.00">bpchar[1]</text>
<polygon fill="none" stroke="black" points="431.5,-394 431.5,-416 613.5,-416 613.5,-394 431.5,-394"/>
<image xlink:href="../../images/foreignKeys.png" width="11px" height="12px" preserveAspectRatio="xMinYMin meet" x="436.5" y="-411"/>
<text text-anchor="start" x="451.5" y="-402.2" font-family="Helvetica,sans-Serif" font-size="11.00">ad_column_id</text>
<polygon fill="none" stroke="black" points="613.5,-394 613.5,-416 696.5,-416 696.5,-394 613.5,-394"/>
<text text-anchor="start" x="616.5" y="-402.2" font-family="Helvetica,sans-Serif" font-size="11.00">numeric[10]</text>
<polygon fill="none" stroke="black" points="431.5,-372 431.5,-394 613.5,-394 613.5,-372 431.5,-372"/>
<text text-anchor="start" x="451.5" y="-380.2" font-family="Helvetica,sans-Serif" font-size="11.00">operation</text>
<polygon fill="none" stroke="black" points="613.5,-372 613.5,-394 696.5,-394 696.5,-372 613.5,-372"/>
<text text-anchor="start" x="616.5" y="-380.2" font-family="Helvetica,sans-Serif" font-size="11.00">bpchar[2]</text>
<polygon fill="none" stroke="black" points="431.5,-350 431.5,-372 613.5,-372 613.5,-350 431.5,-350"/>
<text text-anchor="start" x="451.5" y="-358.2" font-family="Helvetica,sans-Serif" font-size="11.00">value</text>
<polygon fill="none" stroke="black" points="613.5,-350 613.5,-372 696.5,-372 696.5,-350 613.5,-350"/>
<text text-anchor="start" x="616.5" y="-358.2" font-family="Helvetica,sans-Serif" font-size="11.00">varchar[2000]</text>
<polygon fill="none" stroke="black" points="431.5,-328 431.5,-350 613.5,-350 613.5,-328 431.5,-328"/>
<text text-anchor="start" x="451.5" y="-336.2" font-family="Helvetica,sans-Serif" font-size="11.00">value2</text>
<polygon fill="none" stroke="black" points="613.5,-328 613.5,-350 696.5,-350 696.5,-328 613.5,-328"/>
<text text-anchor="start" x="616.5" y="-336.2" font-family="Helvetica,sans-Serif" font-size="11.00">varchar[2000]</text>
<polygon fill="#ffffff" stroke="transparent" points="431.5,-306 431.5,-328 613.5,-328 613.5,-306 431.5,-306"/>
<polygon fill="none" stroke="black" points="431.5,-306 431.5,-328 613.5,-328 613.5,-306 431.5,-306"/>
<text text-anchor="start" x="451.5" y="-314.2" font-family="Helvetica,sans-Serif" font-size="11.00">ad_wf_nextcondition_uu</text>
<polygon fill="none" stroke="black" points="613.5,-306 613.5,-328 696.5,-328 696.5,-306 613.5,-306"/>
<text text-anchor="start" x="616.5" y="-314.2" font-family="Helvetica,sans-Serif" font-size="11.00">varchar[36]</text>
<polygon fill="none" stroke="black" points="431.5,-284 431.5,-306 613.5,-306 613.5,-284 431.5,-284"/>
<text text-anchor="start" x="451.5" y="-292.2" font-family="Helvetica,sans-Serif" font-size="11.00">sqlstatement</text>
<polygon fill="none" stroke="black" points="613.5,-284 613.5,-306 696.5,-306 696.5,-284 613.5,-284"/>
<text text-anchor="start" x="616.5" y="-292.2" font-family="Helvetica,sans-Serif" font-size="11.00">varchar[4000]</text>
<polygon fill="#ffffff" stroke="transparent" points="431.5,-266 431.5,-284 513.5,-284 513.5,-266 431.5,-266"/>
<polygon fill="none" stroke="black" points="431.5,-266 431.5,-284 513.5,-284 513.5,-266 431.5,-266"/>
<text text-anchor="start" x="434.5" y="-272.2" font-family="Helvetica,sans-Serif" font-size="11.00">&lt; 3</text>
<polygon fill="#ffffff" stroke="transparent" points="513.5,-266 513.5,-284 613.5,-284 613.5,-266 513.5,-266"/>
<polygon fill="none" stroke="black" points="513.5,-266 513.5,-284 613.5,-284 613.5,-266 513.5,-266"/>
<text text-anchor="start" x="577.5" y="-272.2" font-family="Helvetica,sans-Serif" font-size="11.00">0 rows</text>
<polygon fill="#ffffff" stroke="transparent" points="613.5,-266 613.5,-284 696.5,-284 696.5,-266 613.5,-266"/>
<polygon fill="none" stroke="black" points="613.5,-266 613.5,-284 696.5,-284 696.5,-266 613.5,-266"/>
<text text-anchor="start" x="677.5" y="-272.2" font-family="Helvetica,sans-Serif" font-size="11.00">0 &gt;</text>
<polygon fill="none" stroke="black" stroke-width="2" points="430,-265 430,-703 697,-703 697,-265 430,-265"/>
</a>
</g>
</g>
<!-- ad_wf_nextcondition&#45;&gt;ad_column -->
<g id="edge2" class="edge">
<title>ad_wf_nextcondition:w&#45;&gt;ad_column:e</title>
<path fill="none" stroke="black" d="M416,-402.85C404.44,-399.16 397.88,-392 381,-392"/>
<polygon fill="black" stroke="black" points="422.59,-403.83 429.97,-408.56 426.54,-404.41 430.5,-405 430.5,-405 430.5,-405 426.54,-404.41 431.03,-401.44 422.59,-403.83 422.59,-403.83"/>
<ellipse fill="none" stroke="black" cx="419.42" cy="-403.36" rx="3.2" ry="3.2"/>
</g>
<!-- ad_wf_nextcondition&#45;&gt;ad_entitytype -->
<g id="edge4" class="edge">
<title>ad_wf_nextcondition:w&#45;&gt;ad_entitytype:e</title>
<path fill="none" stroke="black" d="M415.78,-449C301.6,-449 267.67,-449 146.5,-449"/>
<polygon fill="black" stroke="black" points="422.5,-449 430.5,-452.6 426.5,-449 430.5,-449 430.5,-449 430.5,-449 426.5,-449 430.5,-445.4 422.5,-449 422.5,-449"/>
<ellipse fill="none" stroke="black" cx="419.3" cy="-449" rx="3.2" ry="3.2"/>
</g>
<!-- ad_wf_nodenext -->
<g id="node4" class="node">
<title>ad_wf_nodenext</title>
<g id="a_node4"><a xlink:href="../../tables/ad_wf_nodenext.html" xlink:title="ad_wf_nodenext" target="_top">
<polygon fill="#ffffff" stroke="transparent" points="211,-473 211,-685 363,-685 363,-473 211,-473"/>
<polygon fill="#f5f5f5" stroke="transparent" points="211,-663 211,-685 363,-685 363,-663 211,-663"/>
<polygon fill="none" stroke="black" points="211,-663 211,-685 363,-685 363,-663 211,-663"/>
<text text-anchor="start" x="216" y="-672.2" font-family="Helvetica,sans-Serif" font-weight="bold" font-size="11.00">ad_wf_nodenext</text>
<text text-anchor="start" x="328" y="-671.2" font-family="Helvetica,sans-Serif" font-size="11.00">[table]</text>
<polygon fill="none" stroke="black" points="211,-641 211,-663 363,-663 363,-641 211,-641"/>
<image xlink:href="../../images/primaryKeys.png" width="11px" height="12px" preserveAspectRatio="xMinYMin meet" x="216" y="-658"/>
<text text-anchor="start" x="231" y="-649.2" font-family="Helvetica,sans-Serif" font-size="11.00">ad_wf_nodenext_id</text>
<polygon fill="none" stroke="black" points="211,-619 211,-641 363,-641 363,-619 211,-619"/>
<image xlink:href="../../images/foreignKeys.png" width="11px" height="12px" preserveAspectRatio="xMinYMin meet" x="216" y="-636"/>
<text text-anchor="start" x="231" y="-627.2" font-family="Helvetica,sans-Serif" font-size="11.00">ad_client_id</text>
<polygon fill="none" stroke="black" points="211,-597 211,-619 363,-619 363,-597 211,-597"/>
<image xlink:href="../../images/foreignKeys.png" width="11px" height="12px" preserveAspectRatio="xMinYMin meet" x="216" y="-614"/>
<text text-anchor="start" x="231" y="-605.2" font-family="Helvetica,sans-Serif" font-size="11.00">ad_org_id</text>
<polygon fill="none" stroke="black" points="211,-575 211,-597 363,-597 363,-575 211,-575"/>
<image xlink:href="../../images/foreignKeys.png" width="11px" height="12px" preserveAspectRatio="xMinYMin meet" x="216" y="-592"/>
<text text-anchor="start" x="231" y="-583.2" font-family="Helvetica,sans-Serif" font-size="11.00">ad_wf_node_id</text>
<polygon fill="none" stroke="black" points="211,-553 211,-575 363,-575 363,-553 211,-553"/>
<image xlink:href="../../images/foreignKeys.png" width="11px" height="12px" preserveAspectRatio="xMinYMin meet" x="216" y="-570"/>
<text text-anchor="start" x="231" y="-561.2" font-family="Helvetica,sans-Serif" font-size="11.00">ad_wf_next_id</text>
<polygon fill="none" stroke="black" points="211,-531 211,-553 363,-553 363,-531 211,-531"/>
<image xlink:href="../../images/foreignKeys.png" width="11px" height="12px" preserveAspectRatio="xMinYMin meet" x="216" y="-548"/>
<text text-anchor="start" x="231" y="-539.2" font-family="Helvetica,sans-Serif" font-size="11.00">entitytype</text>
<polygon fill="#ffffff" stroke="transparent" points="211,-509 211,-531 363,-531 363,-509 211,-509"/>
<polygon fill="none" stroke="black" points="211,-509 211,-531 363,-531 363,-509 211,-509"/>
<text text-anchor="start" x="231" y="-517.2" font-family="Helvetica,sans-Serif" font-size="11.00">ad_wf_nodenext_uu</text>
<polygon fill="none" stroke="black" points="211,-491 211,-509 363,-509 363,-491 211,-491"/>
<text text-anchor="start" x="214" y="-497.2" font-family="Helvetica,sans-Serif" font-size="11.00">...</text>
<polygon fill="#ffffff" stroke="transparent" points="211,-473 211,-491 261,-491 261,-473 211,-473"/>
<polygon fill="none" stroke="black" points="211,-473 211,-491 261,-491 261,-473 211,-473"/>
<text text-anchor="start" x="214" y="-479.2" font-family="Helvetica,sans-Serif" font-size="11.00">&lt; 5</text>
<polygon fill="#ffffff" stroke="transparent" points="261,-473 261,-491 326,-491 326,-473 261,-473"/>
<polygon fill="none" stroke="black" points="261,-473 261,-491 326,-491 326,-473 261,-473"/>
<text text-anchor="start" x="278" y="-479.2" font-family="Helvetica,sans-Serif" font-size="11.00">212 rows</text>
<polygon fill="#ffffff" stroke="transparent" points="326,-473 326,-491 363,-491 363,-473 326,-473"/>
<polygon fill="none" stroke="black" points="326,-473 326,-491 363,-491 363,-473 326,-473"/>
<text text-anchor="start" x="344" y="-479.2" font-family="Helvetica,sans-Serif" font-size="11.00">1 &gt;</text>
</a>
</g>
</g>
<!-- ad_wf_nextcondition&#45;&gt;ad_wf_nodenext -->
<g id="edge3" class="edge">
<title>ad_wf_nextcondition:w&#45;&gt;ad_wf_nodenext:e</title>
<path fill="none" stroke="black" d="M416.01,-495.5C365.87,-515.73 434.91,-652 364,-652"/>
<polygon fill="black" stroke="black" points="422.62,-494.36 431.11,-496.55 426.56,-493.68 430.5,-493 430.5,-493 430.5,-493 426.56,-493.68 429.89,-489.45 422.62,-494.36 422.62,-494.36"/>
<ellipse fill="none" stroke="black" cx="419.46" cy="-494.9" rx="3.2" ry="3.2"/>
</g>
<!-- ad_wf_nodenext&#45;&gt;ad_entitytype -->
<g id="edge5" class="edge">
<title>ad_wf_nodenext:w&#45;&gt;ad_entitytype:e</title>
<path fill="none" stroke="black" d="M195.7,-538.47C167.34,-521.48 190.68,-449 146.5,-449"/>
<polygon fill="black" stroke="black" points="202.23,-540.08 209.14,-545.5 206.12,-541.04 210,-542 210,-542 210,-542 206.12,-541.04 210.86,-538.5 202.23,-540.08 202.23,-540.08"/>
<ellipse fill="none" stroke="black" cx="199.13" cy="-539.32" rx="3.2" ry="3.2"/>
</g>
</g>
</svg>
