<?xml version="1.0" encoding="UTF-8" standalone="no"?>
<!DOCTYPE svg PUBLIC "-//W3C//DTD SVG 1.1//EN"
 "http://www.w3.org/Graphics/SVG/1.1/DTD/svg11.dtd">
<!-- Generated by graphviz version 2.43.0 (0)
 -->
<!-- Title: oneDegreeRelationshipsDiagram Pages: 1 -->
<svg width="973pt" height="873pt"
 viewBox="0.00 0.00 973.00 873.48" xmlns="http://www.w3.org/2000/svg" xmlns:xlink="http://www.w3.org/1999/xlink">
<g id="graph0" class="graph" transform="scale(1 1) rotate(0) translate(4 869.48)">
<title>oneDegreeRelationshipsDiagram</title>
<polygon fill="#ffffff" stroke="transparent" points="-4,4 -4,-869.48 969,-869.48 969,4 -4,4"/>
<text text-anchor="middle" x="71.5" y="-7.2" font-family="Helvetica,sans-Serif" font-size="11.00">Generated by SchemaSpy</text>
<!-- ad_form -->
<g id="node1" class="node">
<title>ad_form</title>
<g id="a_node1"><a xlink:href="../../tables/ad_form.html" xlink:title="ad_form" target="_top">
<polygon fill="#ffffff" stroke="transparent" points="224,-341.48 224,-487.48 372,-487.48 372,-341.48 224,-341.48"/>
<polygon fill="#f5f5f5" stroke="transparent" points="224,-465.48 224,-487.48 372,-487.48 372,-465.48 224,-465.48"/>
<polygon fill="none" stroke="black" points="224,-465.48 224,-487.48 372,-487.48 372,-465.48 224,-465.48"/>
<text text-anchor="start" x="229" y="-474.68" font-family="Helvetica,sans-Serif" font-weight="bold" font-size="11.00">ad_form</text>
<text text-anchor="start" x="337" y="-473.68" font-family="Helvetica,sans-Serif" font-size="11.00">[table]</text>
<polygon fill="none" stroke="black" points="224,-443.48 224,-465.48 372,-465.48 372,-443.48 224,-443.48"/>
<image xlink:href="../../images/primaryKeys.png" width="11px" height="12px" preserveAspectRatio="xMinYMin meet" x="229" y="-460.484"/>
<text text-anchor="start" x="244" y="-451.68" font-family="Helvetica,sans-Serif" font-size="11.00">ad_form_id</text>
<polygon fill="none" stroke="black" points="224,-421.48 224,-443.48 372,-443.48 372,-421.48 224,-421.48"/>
<image xlink:href="../../images/foreignKeys.png" width="11px" height="12px" preserveAspectRatio="xMinYMin meet" x="229" y="-438.484"/>
<text text-anchor="start" x="244" y="-429.68" font-family="Helvetica,sans-Serif" font-size="11.00">entitytype</text>
<polygon fill="#ffffff" stroke="transparent" points="224,-399.48 224,-421.48 372,-421.48 372,-399.48 224,-399.48"/>
<polygon fill="none" stroke="black" points="224,-399.48 224,-421.48 372,-421.48 372,-399.48 224,-399.48"/>
<text text-anchor="start" x="244" y="-407.68" font-family="Helvetica,sans-Serif" font-size="11.00">ad_form_uu</text>
<polygon fill="none" stroke="black" points="224,-377.48 224,-399.48 372,-399.48 372,-377.48 224,-377.48"/>
<image xlink:href="../../images/foreignKeys.png" width="11px" height="12px" preserveAspectRatio="xMinYMin meet" x="229" y="-394.484"/>
<text text-anchor="start" x="244" y="-385.68" font-family="Helvetica,sans-Serif" font-size="11.00">ad_ctxhelp_id</text>
<polygon fill="none" stroke="black" points="224,-359.48 224,-377.48 372,-377.48 372,-359.48 224,-359.48"/>
<text text-anchor="start" x="227" y="-365.68" font-family="Helvetica,sans-Serif" font-size="11.00">...</text>
<polygon fill="#ffffff" stroke="transparent" points="224,-341.48 224,-359.48 272,-359.48 272,-341.48 224,-341.48"/>
<polygon fill="none" stroke="black" points="224,-341.48 224,-359.48 272,-359.48 272,-341.48 224,-341.48"/>
<text text-anchor="start" x="227" y="-347.68" font-family="Helvetica,sans-Serif" font-size="11.00">&lt; 2</text>
<polygon fill="#ffffff" stroke="transparent" points="272,-341.48 272,-359.48 330,-359.48 330,-341.48 272,-341.48"/>
<polygon fill="none" stroke="black" points="272,-341.48 272,-359.48 330,-359.48 330,-341.48 272,-341.48"/>
<text text-anchor="start" x="288" y="-347.68" font-family="Helvetica,sans-Serif" font-size="11.00">68 rows</text>
<polygon fill="#ffffff" stroke="transparent" points="330,-341.48 330,-359.48 372,-359.48 372,-341.48 330,-341.48"/>
<polygon fill="none" stroke="black" points="330,-341.48 330,-359.48 372,-359.48 372,-341.48 330,-341.48"/>
<text text-anchor="start" x="347" y="-347.68" font-family="Helvetica,sans-Serif" font-size="11.00">13 &gt;</text>
</a>
</g>
</g>
<!-- ad_entitytype -->
<g id="node2" class="node">
<title>ad_entitytype</title>
<g id="a_node2"><a xlink:href="../../tables/ad_entitytype.html" xlink:title="ad_entitytype" target="_top">
<polygon fill="#ffffff" stroke="transparent" points="8,-283.48 8,-407.48 145,-407.48 145,-283.48 8,-283.48"/>
<polygon fill="#f5f5f5" stroke="transparent" points="8.5,-385.48 8.5,-407.48 145.5,-407.48 145.5,-385.48 8.5,-385.48"/>
<polygon fill="none" stroke="black" points="8.5,-385.48 8.5,-407.48 145.5,-407.48 145.5,-385.48 8.5,-385.48"/>
<text text-anchor="start" x="13.5" y="-394.68" font-family="Helvetica,sans-Serif" font-weight="bold" font-size="11.00">ad_entitytype</text>
<text text-anchor="start" x="110.5" y="-393.68" font-family="Helvetica,sans-Serif" font-size="11.00">[table]</text>
<polygon fill="none" stroke="black" points="8.5,-363.48 8.5,-385.48 145.5,-385.48 145.5,-363.48 8.5,-363.48"/>
<image xlink:href="../../images/primaryKeys.png" width="11px" height="12px" preserveAspectRatio="xMinYMin meet" x="13.5" y="-380.484"/>
<text text-anchor="start" x="28.5" y="-371.68" font-family="Helvetica,sans-Serif" font-size="11.00">entitytype</text>
<polygon fill="#ffffff" stroke="transparent" points="8.5,-341.48 8.5,-363.48 145.5,-363.48 145.5,-341.48 8.5,-341.48"/>
<polygon fill="none" stroke="black" points="8.5,-341.48 8.5,-363.48 145.5,-363.48 145.5,-341.48 8.5,-341.48"/>
<text text-anchor="start" x="28.5" y="-349.68" font-family="Helvetica,sans-Serif" font-size="11.00">ad_entitytype_id</text>
<polygon fill="#ffffff" stroke="transparent" points="8.5,-319.48 8.5,-341.48 145.5,-341.48 145.5,-319.48 8.5,-319.48"/>
<polygon fill="none" stroke="black" points="8.5,-319.48 8.5,-341.48 145.5,-341.48 145.5,-319.48 8.5,-319.48"/>
<text text-anchor="start" x="28.5" y="-327.68" font-family="Helvetica,sans-Serif" font-size="11.00">ad_entitytype_uu</text>
<polygon fill="none" stroke="black" points="8.5,-301.48 8.5,-319.48 145.5,-319.48 145.5,-301.48 8.5,-301.48"/>
<text text-anchor="start" x="11.5" y="-307.68" font-family="Helvetica,sans-Serif" font-size="11.00">...</text>
<polygon fill="#ffffff" stroke="transparent" points="8.5,-283.48 8.5,-301.48 46.5,-301.48 46.5,-283.48 8.5,-283.48"/>
<polygon fill="none" stroke="black" points="8.5,-283.48 8.5,-301.48 46.5,-301.48 46.5,-283.48 8.5,-283.48"/>
<text text-anchor="start" x="11.5" y="-289.68" font-family="Helvetica,sans-Serif" font-size="11.00"> &#160;</text>
<polygon fill="#ffffff" stroke="transparent" points="46.5,-283.48 46.5,-301.48 104.5,-301.48 104.5,-283.48 46.5,-283.48"/>
<polygon fill="none" stroke="black" points="46.5,-283.48 46.5,-301.48 104.5,-301.48 104.5,-283.48 46.5,-283.48"/>
<text text-anchor="start" x="62.5" y="-289.68" font-family="Helvetica,sans-Serif" font-size="11.00">33 rows</text>
<polygon fill="#ffffff" stroke="transparent" points="104.5,-283.48 104.5,-301.48 145.5,-301.48 145.5,-283.48 104.5,-283.48"/>
<polygon fill="none" stroke="black" points="104.5,-283.48 104.5,-301.48 145.5,-301.48 145.5,-283.48 104.5,-283.48"/>
<text text-anchor="start" x="120.5" y="-289.68" font-family="Helvetica,sans-Serif" font-size="11.00">59 &gt;</text>
</a>
</g>
</g>
<!-- ad_form&#45;&gt;ad_entitytype -->
<g id="edge1" class="edge">
<title>ad_form:w&#45;&gt;ad_entitytype:e</title>
<path fill="none" stroke="black" d="M208.48,-429.69C181.77,-418.1 183.5,-374.48 146.5,-374.48"/>
<polygon fill="black" stroke="black" points="215.14,-430.97 222.32,-436.02 219.07,-431.73 223,-432.48 223,-432.48 223,-432.48 219.07,-431.73 223.68,-428.95 215.14,-430.97 215.14,-430.97"/>
<ellipse fill="none" stroke="black" cx="212" cy="-430.36" rx="3.2" ry="3.2"/>
</g>
<!-- ad_process -->
<g id="node3" class="node">
<title>ad_process</title>
<g id="a_node3"><a xlink:href="../../tables/ad_process.html" xlink:title="ad_process" target="_top">
<polygon fill="#ffffff" stroke="transparent" points="451,-284.48 451,-518.48 629,-518.48 629,-284.48 451,-284.48"/>
<polygon fill="#f5f5f5" stroke="transparent" points="451,-496.48 451,-518.48 629,-518.48 629,-496.48 451,-496.48"/>
<polygon fill="none" stroke="black" points="451,-496.48 451,-518.48 629,-518.48 629,-496.48 451,-496.48"/>
<text text-anchor="start" x="456" y="-505.68" font-family="Helvetica,sans-Serif" font-weight="bold" font-size="11.00">ad_process</text>
<text text-anchor="start" x="594" y="-504.68" font-family="Helvetica,sans-Serif" font-size="11.00">[table]</text>
<polygon fill="none" stroke="black" points="451,-474.48 451,-496.48 629,-496.48 629,-474.48 451,-474.48"/>
<image xlink:href="../../images/primaryKeys.png" width="11px" height="12px" preserveAspectRatio="xMinYMin meet" x="456" y="-491.484"/>
<text text-anchor="start" x="471" y="-482.68" font-family="Helvetica,sans-Serif" font-size="11.00">ad_process_id</text>
<polygon fill="none" stroke="black" points="451,-452.48 451,-474.48 629,-474.48 629,-452.48 451,-452.48"/>
<image xlink:href="../../images/foreignKeys.png" width="11px" height="12px" preserveAspectRatio="xMinYMin meet" x="456" y="-469.484"/>
<text text-anchor="start" x="471" y="-460.68" font-family="Helvetica,sans-Serif" font-size="11.00">entitytype</text>
<polygon fill="none" stroke="black" points="451,-430.48 451,-452.48 629,-452.48 629,-430.48 451,-430.48"/>
<image xlink:href="../../images/foreignKeys.png" width="11px" height="12px" preserveAspectRatio="xMinYMin meet" x="456" y="-447.484"/>
<text text-anchor="start" x="471" y="-438.68" font-family="Helvetica,sans-Serif" font-size="11.00">ad_reportview_id</text>
<polygon fill="none" stroke="black" points="451,-408.48 451,-430.48 629,-430.48 629,-408.48 451,-408.48"/>
<image xlink:href="../../images/foreignKeys.png" width="11px" height="12px" preserveAspectRatio="xMinYMin meet" x="456" y="-425.484"/>
<text text-anchor="start" x="471" y="-416.68" font-family="Helvetica,sans-Serif" font-size="11.00">ad_printformat_id</text>
<polygon fill="none" stroke="black" points="451,-386.48 451,-408.48 629,-408.48 629,-386.48 451,-386.48"/>
<image xlink:href="../../images/foreignKeys.png" width="11px" height="12px" preserveAspectRatio="xMinYMin meet" x="456" y="-403.484"/>
<text text-anchor="start" x="471" y="-394.68" font-family="Helvetica,sans-Serif" font-size="11.00">ad_workflow_id</text>
<polygon fill="none" stroke="black" points="451,-364.48 451,-386.48 629,-386.48 629,-364.48 451,-364.48"/>
<image xlink:href="../../images/foreignKeys.png" width="11px" height="12px" preserveAspectRatio="xMinYMin meet" x="456" y="-381.484"/>
<text text-anchor="start" x="471" y="-372.68" font-family="Helvetica,sans-Serif" font-size="11.00">ad_form_id</text>
<polygon fill="#ffffff" stroke="transparent" points="451,-342.48 451,-364.48 629,-364.48 629,-342.48 451,-342.48"/>
<polygon fill="none" stroke="black" points="451,-342.48 451,-364.48 629,-364.48 629,-342.48 451,-342.48"/>
<text text-anchor="start" x="471" y="-350.68" font-family="Helvetica,sans-Serif" font-size="11.00">ad_process_uu</text>
<polygon fill="none" stroke="black" points="451,-320.48 451,-342.48 629,-342.48 629,-320.48 451,-320.48"/>
<image xlink:href="../../images/foreignKeys.png" width="11px" height="12px" preserveAspectRatio="xMinYMin meet" x="456" y="-337.484"/>
<text text-anchor="start" x="471" y="-328.68" font-family="Helvetica,sans-Serif" font-size="11.00">ad_ctxhelp_id</text>
<polygon fill="none" stroke="black" points="451,-302.48 451,-320.48 629,-320.48 629,-302.48 451,-302.48"/>
<text text-anchor="start" x="454" y="-308.68" font-family="Helvetica,sans-Serif" font-size="11.00">...</text>
<polygon fill="#ffffff" stroke="transparent" points="451,-284.48 451,-302.48 511,-302.48 511,-284.48 451,-284.48"/>
<polygon fill="none" stroke="black" points="451,-284.48 451,-302.48 511,-302.48 511,-284.48 451,-284.48"/>
<text text-anchor="start" x="454" y="-290.68" font-family="Helvetica,sans-Serif" font-size="11.00">&lt; 6</text>
<polygon fill="#ffffff" stroke="transparent" points="511,-284.48 511,-302.48 581,-302.48 581,-284.48 511,-284.48"/>
<polygon fill="none" stroke="black" points="511,-284.48 511,-302.48 581,-302.48 581,-284.48 511,-284.48"/>
<text text-anchor="start" x="533" y="-290.68" font-family="Helvetica,sans-Serif" font-size="11.00">827 rows</text>
<polygon fill="#ffffff" stroke="transparent" points="581,-284.48 581,-302.48 629,-302.48 629,-284.48 581,-284.48"/>
<polygon fill="none" stroke="black" points="581,-284.48 581,-302.48 629,-302.48 629,-284.48 581,-284.48"/>
<text text-anchor="start" x="604" y="-290.68" font-family="Helvetica,sans-Serif" font-size="11.00">28 &gt;</text>
</a>
</g>
</g>
<!-- ad_process&#45;&gt;ad_form -->
<g id="edge2" class="edge">
<title>ad_process:w&#45;&gt;ad_form:e</title>
<path fill="none" stroke="black" d="M435.83,-378.3C404.84,-392.37 416.48,-454.48 373,-454.48"/>
<polygon fill="black" stroke="black" points="442.15,-377.04 450.7,-379.01 446.08,-376.26 450,-375.48 450,-375.48 450,-375.48 446.08,-376.26 449.3,-371.95 442.15,-377.04 442.15,-377.04"/>
<ellipse fill="none" stroke="black" cx="439.01" cy="-377.66" rx="3.2" ry="3.2"/>
</g>
<!-- ad_process&#45;&gt;ad_entitytype -->
<g id="edge3" class="edge">
<title>ad_process:w&#45;&gt;ad_entitytype:e</title>
<path fill="none" stroke="black" d="M435.48,-460.88C401.04,-445.27 454.7,-363.72 410,-330.48 370.05,-300.78 231.46,-310.2 186,-330.48 162,-341.19 172.78,-374.48 146.5,-374.48"/>
<polygon fill="black" stroke="black" points="442.13,-462.07 449.36,-467.03 446.06,-462.78 450,-463.48 450,-463.48 450,-463.48 446.06,-462.78 450.64,-459.94 442.13,-462.07 442.13,-462.07"/>
<ellipse fill="none" stroke="black" cx="438.98" cy="-461.5" rx="3.2" ry="3.2"/>
</g>
<!-- ad_task -->
<g id="node4" class="node">
<title>ad_task</title>
<g id="a_node4"><a xlink:href="../../tables/ad_task.html" xlink:title="ad_task" target="_top">
<polygon fill="#ffffff" stroke="transparent" points="234.5,-81.48 234.5,-293.48 361.5,-293.48 361.5,-81.48 234.5,-81.48"/>
<polygon fill="#f5f5f5" stroke="transparent" points="235,-271.48 235,-293.48 362,-293.48 362,-271.48 235,-271.48"/>
<polygon fill="none" stroke="black" points="235,-271.48 235,-293.48 362,-293.48 362,-271.48 235,-271.48"/>
<text text-anchor="start" x="240" y="-280.68" font-family="Helvetica,sans-Serif" font-weight="bold" font-size="11.00">ad_task</text>
<text text-anchor="start" x="327" y="-279.68" font-family="Helvetica,sans-Serif" font-size="11.00">[table]</text>
<polygon fill="none" stroke="black" points="235,-249.48 235,-271.48 362,-271.48 362,-249.48 235,-249.48"/>
<image xlink:href="../../images/primaryKeys.png" width="11px" height="12px" preserveAspectRatio="xMinYMin meet" x="240" y="-266.484"/>
<text text-anchor="start" x="255" y="-257.68" font-family="Helvetica,sans-Serif" font-size="11.00">ad_task_id</text>
<polygon fill="#ffffff" stroke="transparent" points="235,-227.48 235,-249.48 362,-249.48 362,-227.48 235,-227.48"/>
<polygon fill="none" stroke="black" points="235,-227.48 235,-249.48 362,-249.48 362,-227.48 235,-227.48"/>
<image xlink:href="../../images/foreignKeys.png" width="11px" height="12px" preserveAspectRatio="xMinYMin meet" x="240" y="-244.484"/>
<text text-anchor="start" x="255" y="-235.68" font-family="Helvetica,sans-Serif" font-size="11.00">ad_client_id</text>
<polygon fill="none" stroke="black" points="235,-205.48 235,-227.48 362,-227.48 362,-205.48 235,-205.48"/>
<image xlink:href="../../images/foreignKeys.png" width="11px" height="12px" preserveAspectRatio="xMinYMin meet" x="240" y="-222.484"/>
<text text-anchor="start" x="255" y="-213.68" font-family="Helvetica,sans-Serif" font-size="11.00">ad_org_id</text>
<polygon fill="#ffffff" stroke="transparent" points="235,-183.48 235,-205.48 362,-205.48 362,-183.48 235,-183.48"/>
<polygon fill="none" stroke="black" points="235,-183.48 235,-205.48 362,-205.48 362,-183.48 235,-183.48"/>
<text text-anchor="start" x="255" y="-191.68" font-family="Helvetica,sans-Serif" font-size="11.00">name</text>
<polygon fill="none" stroke="black" points="235,-161.48 235,-183.48 362,-183.48 362,-161.48 235,-161.48"/>
<image xlink:href="../../images/foreignKeys.png" width="11px" height="12px" preserveAspectRatio="xMinYMin meet" x="240" y="-178.484"/>
<text text-anchor="start" x="255" y="-169.68" font-family="Helvetica,sans-Serif" font-size="11.00">entitytype</text>
<polygon fill="#ffffff" stroke="transparent" points="235,-139.48 235,-161.48 362,-161.48 362,-139.48 235,-139.48"/>
<polygon fill="none" stroke="black" points="235,-139.48 235,-161.48 362,-161.48 362,-139.48 235,-139.48"/>
<text text-anchor="start" x="255" y="-147.68" font-family="Helvetica,sans-Serif" font-size="11.00">ad_task_uu</text>
<polygon fill="none" stroke="black" points="235,-117.48 235,-139.48 362,-139.48 362,-117.48 235,-117.48"/>
<image xlink:href="../../images/foreignKeys.png" width="11px" height="12px" preserveAspectRatio="xMinYMin meet" x="240" y="-134.484"/>
<text text-anchor="start" x="255" y="-125.68" font-family="Helvetica,sans-Serif" font-size="11.00">ad_ctxhelp_id</text>
<polygon fill="none" stroke="black" points="235,-99.48 235,-117.48 362,-117.48 362,-99.48 235,-99.48"/>
<text text-anchor="start" x="238" y="-105.68" font-family="Helvetica,sans-Serif" font-size="11.00">...</text>
<polygon fill="#ffffff" stroke="transparent" points="235,-81.48 235,-99.48 279,-99.48 279,-81.48 235,-81.48"/>
<polygon fill="none" stroke="black" points="235,-81.48 235,-99.48 279,-99.48 279,-81.48 235,-81.48"/>
<text text-anchor="start" x="238" y="-87.68" font-family="Helvetica,sans-Serif" font-size="11.00">&lt; 4</text>
<polygon fill="#ffffff" stroke="transparent" points="279,-81.48 279,-99.48 329,-99.48 329,-81.48 279,-81.48"/>
<polygon fill="none" stroke="black" points="279,-81.48 279,-99.48 329,-99.48 329,-81.48 279,-81.48"/>
<text text-anchor="start" x="293" y="-87.68" font-family="Helvetica,sans-Serif" font-size="11.00">3 rows</text>
<polygon fill="#ffffff" stroke="transparent" points="329,-81.48 329,-99.48 362,-99.48 362,-81.48 329,-81.48"/>
<polygon fill="none" stroke="black" points="329,-81.48 329,-99.48 362,-99.48 362,-81.48 329,-81.48"/>
<text text-anchor="start" x="343" y="-87.68" font-family="Helvetica,sans-Serif" font-size="11.00">9 &gt;</text>
</a>
</g>
</g>
<!-- ad_task&#45;&gt;ad_entitytype -->
<g id="edge4" class="edge">
<title>ad_task:w&#45;&gt;ad_entitytype:e</title>
<path fill="none" stroke="black" d="M220.8,-178.31C186.57,-211.43 190.45,-374.48 146.5,-374.48"/>
<polygon fill="black" stroke="black" points="226.68,-175.72 235.45,-175.78 230.34,-174.1 234,-172.48 234,-172.48 234,-172.48 230.34,-174.1 232.55,-169.19 226.68,-175.72 226.68,-175.72"/>
<ellipse fill="none" stroke="black" cx="223.75" cy="-177.01" rx="3.2" ry="3.2"/>
</g>
<!-- ad_window -->
<g id="node5" class="node">
<title>ad_window</title>
<g id="a_node5"><a xlink:href="../../tables/ad_window.html" xlink:title="ad_window" target="_top">
<polygon fill="#ffffff" stroke="transparent" points="194,-508.48 194,-742.48 402,-742.48 402,-508.48 194,-508.48"/>
<polygon fill="#f5f5f5" stroke="transparent" points="194,-720.48 194,-742.48 402,-742.48 402,-720.48 194,-720.48"/>
<polygon fill="none" stroke="black" points="194,-720.48 194,-742.48 402,-742.48 402,-720.48 194,-720.48"/>
<text text-anchor="start" x="199" y="-729.68" font-family="Helvetica,sans-Serif" font-weight="bold" font-size="11.00">ad_window</text>
<text text-anchor="start" x="367" y="-728.68" font-family="Helvetica,sans-Serif" font-size="11.00">[table]</text>
<polygon fill="none" stroke="black" points="194,-698.48 194,-720.48 402,-720.48 402,-698.48 194,-698.48"/>
<image xlink:href="../../images/primaryKeys.png" width="11px" height="12px" preserveAspectRatio="xMinYMin meet" x="199" y="-715.484"/>
<text text-anchor="start" x="214" y="-706.68" font-family="Helvetica,sans-Serif" font-size="11.00">ad_window_id</text>
<polygon fill="#ffffff" stroke="transparent" points="194,-676.48 194,-698.48 402,-698.48 402,-676.48 194,-676.48"/>
<polygon fill="none" stroke="black" points="194,-676.48 194,-698.48 402,-698.48 402,-676.48 194,-676.48"/>
<image xlink:href="../../images/foreignKeys.png" width="11px" height="12px" preserveAspectRatio="xMinYMin meet" x="199" y="-693.484"/>
<text text-anchor="start" x="214" y="-684.68" font-family="Helvetica,sans-Serif" font-size="11.00">ad_client_id</text>
<polygon fill="none" stroke="black" points="194,-654.48 194,-676.48 402,-676.48 402,-654.48 194,-654.48"/>
<image xlink:href="../../images/foreignKeys.png" width="11px" height="12px" preserveAspectRatio="xMinYMin meet" x="199" y="-671.484"/>
<text text-anchor="start" x="214" y="-662.68" font-family="Helvetica,sans-Serif" font-size="11.00">ad_org_id</text>
<polygon fill="#ffffff" stroke="transparent" points="194,-632.48 194,-654.48 402,-654.48 402,-632.48 194,-632.48"/>
<polygon fill="none" stroke="black" points="194,-632.48 194,-654.48 402,-654.48 402,-632.48 194,-632.48"/>
<text text-anchor="start" x="214" y="-640.68" font-family="Helvetica,sans-Serif" font-size="11.00">name</text>
<polygon fill="none" stroke="black" points="194,-610.48 194,-632.48 402,-632.48 402,-610.48 194,-610.48"/>
<image xlink:href="../../images/foreignKeys.png" width="11px" height="12px" preserveAspectRatio="xMinYMin meet" x="199" y="-627.484"/>
<text text-anchor="start" x="214" y="-618.68" font-family="Helvetica,sans-Serif" font-size="11.00">entitytype</text>
<polygon fill="none" stroke="black" points="194,-588.48 194,-610.48 402,-610.48 402,-588.48 194,-588.48"/>
<image xlink:href="../../images/foreignKeys.png" width="11px" height="12px" preserveAspectRatio="xMinYMin meet" x="199" y="-605.484"/>
<text text-anchor="start" x="214" y="-596.68" font-family="Helvetica,sans-Serif" font-size="11.00">ad_image_id</text>
<polygon fill="none" stroke="black" points="194,-566.48 194,-588.48 402,-588.48 402,-566.48 194,-566.48"/>
<image xlink:href="../../images/foreignKeys.png" width="11px" height="12px" preserveAspectRatio="xMinYMin meet" x="199" y="-583.484"/>
<text text-anchor="start" x="214" y="-574.68" font-family="Helvetica,sans-Serif" font-size="11.00">ad_color_id</text>
<polygon fill="#ffffff" stroke="transparent" points="194,-544.48 194,-566.48 402,-566.48 402,-544.48 194,-544.48"/>
<polygon fill="none" stroke="black" points="194,-544.48 194,-566.48 402,-566.48 402,-544.48 194,-544.48"/>
<text text-anchor="start" x="214" y="-552.68" font-family="Helvetica,sans-Serif" font-size="11.00">ad_window_uu</text>
<polygon fill="none" stroke="black" points="194,-526.48 194,-544.48 402,-544.48 402,-526.48 194,-526.48"/>
<text text-anchor="start" x="197" y="-532.68" font-family="Helvetica,sans-Serif" font-size="11.00">...</text>
<polygon fill="#ffffff" stroke="transparent" points="194,-508.48 194,-526.48 269,-526.48 269,-508.48 194,-508.48"/>
<polygon fill="none" stroke="black" points="194,-508.48 194,-526.48 269,-526.48 269,-508.48 194,-508.48"/>
<text text-anchor="start" x="197" y="-514.68" font-family="Helvetica,sans-Serif" font-size="11.00">&lt; 5</text>
<polygon fill="#ffffff" stroke="transparent" points="269,-508.48 269,-526.48 347,-526.48 347,-508.48 269,-508.48"/>
<polygon fill="none" stroke="black" points="269,-508.48 269,-526.48 347,-526.48 347,-508.48 269,-508.48"/>
<text text-anchor="start" x="299" y="-514.68" font-family="Helvetica,sans-Serif" font-size="11.00">582 rows</text>
<polygon fill="#ffffff" stroke="transparent" points="347,-508.48 347,-526.48 402,-526.48 402,-508.48 347,-508.48"/>
<polygon fill="none" stroke="black" points="347,-508.48 347,-526.48 402,-526.48 402,-508.48 347,-508.48"/>
<text text-anchor="start" x="377" y="-514.68" font-family="Helvetica,sans-Serif" font-size="11.00">32 &gt;</text>
</a>
</g>
</g>
<!-- ad_window&#45;&gt;ad_entitytype -->
<g id="edge5" class="edge">
<title>ad_window:w&#45;&gt;ad_entitytype:e</title>
<path fill="none" stroke="black" d="M178.63,-619.77C97.88,-597.95 252.75,-374.48 146.5,-374.48"/>
<polygon fill="black" stroke="black" points="185.06,-620.54 192.57,-625.06 189.03,-621.01 193,-621.48 193,-621.48 193,-621.48 189.03,-621.01 193.43,-617.91 185.06,-620.54 185.06,-620.54"/>
<ellipse fill="none" stroke="black" cx="181.88" cy="-620.16" rx="3.2" ry="3.2"/>
</g>
<!-- ad_workbench -->
<g id="node6" class="node">
<title>ad_workbench</title>
<g id="a_node6"><a xlink:href="../../tables/ad_workbench.html" xlink:title="ad_workbench" target="_top">
<polygon fill="#ffffff" stroke="transparent" points="470,-671.48 470,-861.48 610,-861.48 610,-671.48 470,-671.48"/>
<polygon fill="#f5f5f5" stroke="transparent" points="470,-839.48 470,-861.48 610,-861.48 610,-839.48 470,-839.48"/>
<polygon fill="none" stroke="black" points="470,-839.48 470,-861.48 610,-861.48 610,-839.48 470,-839.48"/>
<text text-anchor="start" x="475" y="-848.68" font-family="Helvetica,sans-Serif" font-weight="bold" font-size="11.00">ad_workbench</text>
<text text-anchor="start" x="575" y="-847.68" font-family="Helvetica,sans-Serif" font-size="11.00">[table]</text>
<polygon fill="none" stroke="black" points="470,-817.48 470,-839.48 610,-839.48 610,-817.48 470,-817.48"/>
<image xlink:href="../../images/primaryKeys.png" width="11px" height="12px" preserveAspectRatio="xMinYMin meet" x="475" y="-834.484"/>
<text text-anchor="start" x="490" y="-825.68" font-family="Helvetica,sans-Serif" font-size="11.00">ad_workbench_id</text>
<polygon fill="none" stroke="black" points="470,-795.48 470,-817.48 610,-817.48 610,-795.48 470,-795.48"/>
<image xlink:href="../../images/foreignKeys.png" width="11px" height="12px" preserveAspectRatio="xMinYMin meet" x="475" y="-812.484"/>
<text text-anchor="start" x="490" y="-803.68" font-family="Helvetica,sans-Serif" font-size="11.00">ad_column_id</text>
<polygon fill="none" stroke="black" points="470,-773.48 470,-795.48 610,-795.48 610,-773.48 470,-773.48"/>
<image xlink:href="../../images/foreignKeys.png" width="11px" height="12px" preserveAspectRatio="xMinYMin meet" x="475" y="-790.484"/>
<text text-anchor="start" x="490" y="-781.68" font-family="Helvetica,sans-Serif" font-size="11.00">ad_image_id</text>
<polygon fill="none" stroke="black" points="470,-751.48 470,-773.48 610,-773.48 610,-751.48 470,-751.48"/>
<image xlink:href="../../images/foreignKeys.png" width="11px" height="12px" preserveAspectRatio="xMinYMin meet" x="475" y="-768.484"/>
<text text-anchor="start" x="490" y="-759.68" font-family="Helvetica,sans-Serif" font-size="11.00">ad_color_id</text>
<polygon fill="none" stroke="black" points="470,-729.48 470,-751.48 610,-751.48 610,-729.48 470,-729.48"/>
<image xlink:href="../../images/foreignKeys.png" width="11px" height="12px" preserveAspectRatio="xMinYMin meet" x="475" y="-746.484"/>
<text text-anchor="start" x="490" y="-737.68" font-family="Helvetica,sans-Serif" font-size="11.00">entitytype</text>
<polygon fill="#ffffff" stroke="transparent" points="470,-707.48 470,-729.48 610,-729.48 610,-707.48 470,-707.48"/>
<polygon fill="none" stroke="black" points="470,-707.48 470,-729.48 610,-729.48 610,-707.48 470,-707.48"/>
<text text-anchor="start" x="490" y="-715.68" font-family="Helvetica,sans-Serif" font-size="11.00">ad_workbench_uu</text>
<polygon fill="none" stroke="black" points="470,-689.48 470,-707.48 610,-707.48 610,-689.48 470,-689.48"/>
<text text-anchor="start" x="473" y="-695.68" font-family="Helvetica,sans-Serif" font-size="11.00">...</text>
<polygon fill="#ffffff" stroke="transparent" points="470,-671.48 470,-689.48 523,-689.48 523,-671.48 470,-671.48"/>
<polygon fill="none" stroke="black" points="470,-671.48 470,-689.48 523,-689.48 523,-671.48 470,-671.48"/>
<text text-anchor="start" x="473" y="-677.68" font-family="Helvetica,sans-Serif" font-size="11.00">&lt; 4</text>
<polygon fill="#ffffff" stroke="transparent" points="523,-671.48 523,-689.48 572,-689.48 572,-671.48 523,-671.48"/>
<polygon fill="none" stroke="black" points="523,-671.48 523,-689.48 572,-689.48 572,-671.48 523,-671.48"/>
<text text-anchor="start" x="541" y="-677.68" font-family="Helvetica,sans-Serif" font-size="11.00">1 row</text>
<polygon fill="#ffffff" stroke="transparent" points="572,-671.48 572,-689.48 610,-689.48 610,-671.48 572,-671.48"/>
<polygon fill="none" stroke="black" points="572,-671.48 572,-689.48 610,-689.48 610,-671.48 572,-671.48"/>
<text text-anchor="start" x="591" y="-677.68" font-family="Helvetica,sans-Serif" font-size="11.00">6 &gt;</text>
</a>
</g>
</g>
<!-- ad_workbench&#45;&gt;ad_entitytype -->
<g id="edge6" class="edge">
<title>ad_workbench:w&#45;&gt;ad_entitytype:e</title>
<path fill="none" stroke="black" d="M454.46,-741.67C438.9,-744.42 431.06,-751.19 410,-753.48 311.03,-764.26 259.96,-820.13 186,-753.48 123.1,-696.8 231.18,-374.48 146.5,-374.48"/>
<polygon fill="black" stroke="black" points="461.03,-741.13 469.29,-744.07 465.01,-740.81 469,-740.48 469,-740.48 469,-740.48 465.01,-740.81 468.71,-736.9 461.03,-741.13 461.03,-741.13"/>
<ellipse fill="none" stroke="black" cx="457.84" cy="-741.39" rx="3.2" ry="3.2"/>
</g>
<!-- ad_workbenchwindow -->
<g id="node7" class="node">
<title>ad_workbenchwindow</title>
<g id="a_node7"><a xlink:href="../../tables/ad_workbenchwindow.html" xlink:title="ad_workbenchwindow" target="_top">
<polygon fill="#ffffff" stroke="transparent" points="678,-405.48 678,-823.48 957,-823.48 957,-405.48 678,-405.48"/>
<polygon fill="#f5f5f5" stroke="transparent" points="680.5,-799.48 680.5,-821.48 955.5,-821.48 955.5,-799.48 680.5,-799.48"/>
<polygon fill="none" stroke="black" points="680.5,-799.48 680.5,-821.48 955.5,-821.48 955.5,-799.48 680.5,-799.48"/>
<text text-anchor="start" x="685.5" y="-808.68" font-family="Helvetica,sans-Serif" font-weight="bold" font-size="11.00">ad_workbenchwindow</text>
<text text-anchor="start" x="920.5" y="-807.68" font-family="Helvetica,sans-Serif" font-size="11.00">[table]</text>
<polygon fill="none" stroke="black" points="680.5,-777.48 680.5,-799.48 872.5,-799.48 872.5,-777.48 680.5,-777.48"/>
<image xlink:href="../../images/primaryKeys.png" width="11px" height="12px" preserveAspectRatio="xMinYMin meet" x="685.5" y="-794.484"/>
<text text-anchor="start" x="700.5" y="-785.68" font-family="Helvetica,sans-Serif" font-size="11.00">ad_workbenchwindow_id</text>
<polygon fill="none" stroke="black" points="872.5,-777.48 872.5,-799.48 955.5,-799.48 955.5,-777.48 872.5,-777.48"/>
<text text-anchor="start" x="875.5" y="-785.68" font-family="Helvetica,sans-Serif" font-size="11.00">numeric[10]</text>
<polygon fill="none" stroke="black" points="680.5,-755.48 680.5,-777.48 872.5,-777.48 872.5,-755.48 680.5,-755.48"/>
<text text-anchor="start" x="700.5" y="-763.68" font-family="Helvetica,sans-Serif" font-size="11.00">ad_client_id</text>
<polygon fill="none" stroke="black" points="872.5,-755.48 872.5,-777.48 955.5,-777.48 955.5,-755.48 872.5,-755.48"/>
<text text-anchor="start" x="875.5" y="-763.68" font-family="Helvetica,sans-Serif" font-size="11.00">numeric[10]</text>
<polygon fill="none" stroke="black" points="680.5,-733.48 680.5,-755.48 872.5,-755.48 872.5,-733.48 680.5,-733.48"/>
<text text-anchor="start" x="700.5" y="-741.68" font-family="Helvetica,sans-Serif" font-size="11.00">ad_org_id</text>
<polygon fill="none" stroke="black" points="872.5,-733.48 872.5,-755.48 955.5,-755.48 955.5,-733.48 872.5,-733.48"/>
<text text-anchor="start" x="875.5" y="-741.68" font-family="Helvetica,sans-Serif" font-size="11.00">numeric[10]</text>
<polygon fill="none" stroke="black" points="680.5,-711.48 680.5,-733.48 872.5,-733.48 872.5,-711.48 680.5,-711.48"/>
<text text-anchor="start" x="700.5" y="-719.68" font-family="Helvetica,sans-Serif" font-size="11.00">isactive</text>
<polygon fill="none" stroke="black" points="872.5,-711.48 872.5,-733.48 955.5,-733.48 955.5,-711.48 872.5,-711.48"/>
<text text-anchor="start" x="875.5" y="-719.68" font-family="Helvetica,sans-Serif" font-size="11.00">bpchar[1]</text>
<polygon fill="none" stroke="black" points="680.5,-689.48 680.5,-711.48 872.5,-711.48 872.5,-689.48 680.5,-689.48"/>
<text text-anchor="start" x="700.5" y="-697.68" font-family="Helvetica,sans-Serif" font-size="11.00">created</text>
<polygon fill="none" stroke="black" points="872.5,-689.48 872.5,-711.48 955.5,-711.48 955.5,-689.48 872.5,-689.48"/>
<text text-anchor="start" x="875.5" y="-697.68" font-family="Helvetica,sans-Serif" font-size="11.00">timestamp[29,6]</text>
<polygon fill="none" stroke="black" points="680.5,-667.48 680.5,-689.48 872.5,-689.48 872.5,-667.48 680.5,-667.48"/>
<text text-anchor="start" x="700.5" y="-675.68" font-family="Helvetica,sans-Serif" font-size="11.00">createdby</text>
<polygon fill="none" stroke="black" points="872.5,-667.48 872.5,-689.48 955.5,-689.48 955.5,-667.48 872.5,-667.48"/>
<text text-anchor="start" x="875.5" y="-675.68" font-family="Helvetica,sans-Serif" font-size="11.00">numeric[10]</text>
<polygon fill="none" stroke="black" points="680.5,-645.48 680.5,-667.48 872.5,-667.48 872.5,-645.48 680.5,-645.48"/>
<text text-anchor="start" x="700.5" y="-653.68" font-family="Helvetica,sans-Serif" font-size="11.00">updated</text>
<polygon fill="none" stroke="black" points="872.5,-645.48 872.5,-667.48 955.5,-667.48 955.5,-645.48 872.5,-645.48"/>
<text text-anchor="start" x="875.5" y="-653.68" font-family="Helvetica,sans-Serif" font-size="11.00">timestamp[29,6]</text>
<polygon fill="none" stroke="black" points="680.5,-623.48 680.5,-645.48 872.5,-645.48 872.5,-623.48 680.5,-623.48"/>
<text text-anchor="start" x="700.5" y="-631.68" font-family="Helvetica,sans-Serif" font-size="11.00">updatedby</text>
<polygon fill="none" stroke="black" points="872.5,-623.48 872.5,-645.48 955.5,-645.48 955.5,-623.48 872.5,-623.48"/>
<text text-anchor="start" x="875.5" y="-631.68" font-family="Helvetica,sans-Serif" font-size="11.00">numeric[10]</text>
<polygon fill="none" stroke="black" points="680.5,-601.48 680.5,-623.48 872.5,-623.48 872.5,-601.48 680.5,-601.48"/>
<image xlink:href="../../images/foreignKeys.png" width="11px" height="12px" preserveAspectRatio="xMinYMin meet" x="685.5" y="-618.484"/>
<text text-anchor="start" x="700.5" y="-609.68" font-family="Helvetica,sans-Serif" font-size="11.00">ad_workbench_id</text>
<polygon fill="none" stroke="black" points="872.5,-601.48 872.5,-623.48 955.5,-623.48 955.5,-601.48 872.5,-601.48"/>
<text text-anchor="start" x="875.5" y="-609.68" font-family="Helvetica,sans-Serif" font-size="11.00">numeric[10]</text>
<polygon fill="none" stroke="black" points="680.5,-579.48 680.5,-601.48 872.5,-601.48 872.5,-579.48 680.5,-579.48"/>
<text text-anchor="start" x="700.5" y="-587.68" font-family="Helvetica,sans-Serif" font-size="11.00">seqno</text>
<polygon fill="none" stroke="black" points="872.5,-579.48 872.5,-601.48 955.5,-601.48 955.5,-579.48 872.5,-579.48"/>
<text text-anchor="start" x="875.5" y="-587.68" font-family="Helvetica,sans-Serif" font-size="11.00">numeric[10]</text>
<polygon fill="none" stroke="black" points="680.5,-557.48 680.5,-579.48 872.5,-579.48 872.5,-557.48 680.5,-557.48"/>
<text text-anchor="start" x="700.5" y="-565.68" font-family="Helvetica,sans-Serif" font-size="11.00">isprimary</text>
<polygon fill="none" stroke="black" points="872.5,-557.48 872.5,-579.48 955.5,-579.48 955.5,-557.48 872.5,-557.48"/>
<text text-anchor="start" x="875.5" y="-565.68" font-family="Helvetica,sans-Serif" font-size="11.00">bpchar[1]</text>
<polygon fill="none" stroke="black" points="680.5,-535.48 680.5,-557.48 872.5,-557.48 872.5,-535.48 680.5,-535.48"/>
<image xlink:href="../../images/foreignKeys.png" width="11px" height="12px" preserveAspectRatio="xMinYMin meet" x="685.5" y="-552.484"/>
<text text-anchor="start" x="700.5" y="-543.68" font-family="Helvetica,sans-Serif" font-size="11.00">ad_window_id</text>
<polygon fill="none" stroke="black" points="872.5,-535.48 872.5,-557.48 955.5,-557.48 955.5,-535.48 872.5,-535.48"/>
<text text-anchor="start" x="875.5" y="-543.68" font-family="Helvetica,sans-Serif" font-size="11.00">numeric[10]</text>
<polygon fill="none" stroke="black" points="680.5,-513.48 680.5,-535.48 872.5,-535.48 872.5,-513.48 680.5,-513.48"/>
<image xlink:href="../../images/foreignKeys.png" width="11px" height="12px" preserveAspectRatio="xMinYMin meet" x="685.5" y="-530.484"/>
<text text-anchor="start" x="700.5" y="-521.68" font-family="Helvetica,sans-Serif" font-size="11.00">ad_form_id</text>
<polygon fill="none" stroke="black" points="872.5,-513.48 872.5,-535.48 955.5,-535.48 955.5,-513.48 872.5,-513.48"/>
<text text-anchor="start" x="875.5" y="-521.68" font-family="Helvetica,sans-Serif" font-size="11.00">numeric[10]</text>
<polygon fill="none" stroke="black" points="680.5,-491.48 680.5,-513.48 872.5,-513.48 872.5,-491.48 680.5,-491.48"/>
<image xlink:href="../../images/foreignKeys.png" width="11px" height="12px" preserveAspectRatio="xMinYMin meet" x="685.5" y="-508.484"/>
<text text-anchor="start" x="700.5" y="-499.68" font-family="Helvetica,sans-Serif" font-size="11.00">ad_process_id</text>
<polygon fill="none" stroke="black" points="872.5,-491.48 872.5,-513.48 955.5,-513.48 955.5,-491.48 872.5,-491.48"/>
<text text-anchor="start" x="875.5" y="-499.68" font-family="Helvetica,sans-Serif" font-size="11.00">numeric[10]</text>
<polygon fill="none" stroke="black" points="680.5,-469.48 680.5,-491.48 872.5,-491.48 872.5,-469.48 680.5,-469.48"/>
<image xlink:href="../../images/foreignKeys.png" width="11px" height="12px" preserveAspectRatio="xMinYMin meet" x="685.5" y="-486.484"/>
<text text-anchor="start" x="700.5" y="-477.68" font-family="Helvetica,sans-Serif" font-size="11.00">ad_task_id</text>
<polygon fill="none" stroke="black" points="872.5,-469.48 872.5,-491.48 955.5,-491.48 955.5,-469.48 872.5,-469.48"/>
<text text-anchor="start" x="875.5" y="-477.68" font-family="Helvetica,sans-Serif" font-size="11.00">numeric[10]</text>
<polygon fill="none" stroke="black" points="680.5,-447.48 680.5,-469.48 872.5,-469.48 872.5,-447.48 680.5,-447.48"/>
<image xlink:href="../../images/foreignKeys.png" width="11px" height="12px" preserveAspectRatio="xMinYMin meet" x="685.5" y="-464.484"/>
<text text-anchor="start" x="700.5" y="-455.68" font-family="Helvetica,sans-Serif" font-size="11.00">entitytype</text>
<polygon fill="none" stroke="black" points="872.5,-447.48 872.5,-469.48 955.5,-469.48 955.5,-447.48 872.5,-447.48"/>
<text text-anchor="start" x="875.5" y="-455.68" font-family="Helvetica,sans-Serif" font-size="11.00">varchar[40]</text>
<polygon fill="#ffffff" stroke="transparent" points="680.5,-425.48 680.5,-447.48 872.5,-447.48 872.5,-425.48 680.5,-425.48"/>
<polygon fill="none" stroke="black" points="680.5,-425.48 680.5,-447.48 872.5,-447.48 872.5,-425.48 680.5,-425.48"/>
<text text-anchor="start" x="700.5" y="-433.68" font-family="Helvetica,sans-Serif" font-size="11.00">ad_workbenchwindow_uu</text>
<polygon fill="none" stroke="black" points="872.5,-425.48 872.5,-447.48 955.5,-447.48 955.5,-425.48 872.5,-425.48"/>
<text text-anchor="start" x="875.5" y="-433.68" font-family="Helvetica,sans-Serif" font-size="11.00">varchar[36]</text>
<polygon fill="#ffffff" stroke="transparent" points="680.5,-407.48 680.5,-425.48 767.5,-425.48 767.5,-407.48 680.5,-407.48"/>
<polygon fill="none" stroke="black" points="680.5,-407.48 680.5,-425.48 767.5,-425.48 767.5,-407.48 680.5,-407.48"/>
<text text-anchor="start" x="683.5" y="-413.68" font-family="Helvetica,sans-Serif" font-size="11.00">&lt; 6</text>
<polygon fill="#ffffff" stroke="transparent" points="767.5,-407.48 767.5,-425.48 872.5,-425.48 872.5,-407.48 767.5,-407.48"/>
<polygon fill="none" stroke="black" points="767.5,-407.48 767.5,-425.48 872.5,-425.48 872.5,-407.48 767.5,-407.48"/>
<text text-anchor="start" x="836.5" y="-413.68" font-family="Helvetica,sans-Serif" font-size="11.00">2 rows</text>
<polygon fill="#ffffff" stroke="transparent" points="872.5,-407.48 872.5,-425.48 955.5,-425.48 955.5,-407.48 872.5,-407.48"/>
<polygon fill="none" stroke="black" points="872.5,-407.48 872.5,-425.48 955.5,-425.48 955.5,-407.48 872.5,-407.48"/>
<text text-anchor="start" x="936.5" y="-413.68" font-family="Helvetica,sans-Serif" font-size="11.00">0 &gt;</text>
<polygon fill="none" stroke="black" stroke-width="2" points="679,-406.48 679,-822.48 956,-822.48 956,-406.48 679,-406.48"/>
</a>
</g>
</g>
<!-- ad_workbenchwindow&#45;&gt;ad_form -->
<g id="edge7" class="edge">
<title>ad_workbenchwindow:w&#45;&gt;ad_form:e</title>
<path fill="none" stroke="black" d="M665.04,-525.42C656.26,-526.64 650.05,-528.72 637,-529.48 550.93,-534.53 522.08,-563.85 443,-529.48 401.18,-511.31 418.6,-454.48 373,-454.48"/>
<polygon fill="black" stroke="black" points="671.52,-525 679.73,-528.08 675.51,-524.74 679.5,-524.48 679.5,-524.48 679.5,-524.48 675.51,-524.74 679.27,-520.89 671.52,-525 671.52,-525"/>
<ellipse fill="none" stroke="black" cx="668.32" cy="-525.21" rx="3.2" ry="3.2"/>
</g>
<!-- ad_workbenchwindow&#45;&gt;ad_entitytype -->
<g id="edge12" class="edge">
<title>ad_workbenchwindow:w&#45;&gt;ad_entitytype:e</title>
<path fill="none" stroke="black" d="M666.06,-452.76C635.31,-421.45 661.61,-271.01 637,-232.48 570.28,-128.03 528.04,-108.28 410,-70.48 315.19,-40.12 260.79,-4.78 186,-70.48 134.82,-115.44 214.62,-374.48 146.5,-374.48"/>
<polygon fill="black" stroke="black" points="672.14,-455.35 678.09,-461.8 675.82,-456.92 679.5,-458.48 679.5,-458.48 679.5,-458.48 675.82,-456.92 680.91,-455.17 672.14,-455.35 672.14,-455.35"/>
<ellipse fill="none" stroke="black" cx="669.2" cy="-454.09" rx="3.2" ry="3.2"/>
</g>
<!-- ad_workbenchwindow&#45;&gt;ad_process -->
<g id="edge8" class="edge">
<title>ad_workbenchwindow:w&#45;&gt;ad_process:e</title>
<path fill="none" stroke="black" d="M665.22,-499.83C653.48,-495.05 647.45,-485.48 630,-485.48"/>
<polygon fill="black" stroke="black" points="671.63,-501.02 678.84,-506.02 675.57,-501.75 679.5,-502.48 679.5,-502.48 679.5,-502.48 675.57,-501.75 680.16,-498.94 671.63,-501.02 671.63,-501.02"/>
<ellipse fill="none" stroke="black" cx="668.49" cy="-500.43" rx="3.2" ry="3.2"/>
</g>
<!-- ad_workbenchwindow&#45;&gt;ad_task -->
<g id="edge9" class="edge">
<title>ad_workbenchwindow:w&#45;&gt;ad_task:e</title>
<path fill="none" stroke="black" d="M664.8,-478.94C600.07,-463.22 703.65,-331.68 637,-274.48 544.46,-195.08 484.94,-260.48 363,-260.48"/>
<polygon fill="black" stroke="black" points="671.54,-479.65 679.12,-484.06 675.52,-480.07 679.5,-480.48 679.5,-480.48 679.5,-480.48 675.52,-480.07 679.88,-476.9 671.54,-479.65 671.54,-479.65"/>
<ellipse fill="none" stroke="black" cx="668.36" cy="-479.31" rx="3.2" ry="3.2"/>
</g>
<!-- ad_workbenchwindow&#45;&gt;ad_window -->
<g id="edge10" class="edge">
<title>ad_workbenchwindow:w&#45;&gt;ad_window:e</title>
<path fill="none" stroke="black" d="M664.93,-547.8C601.44,-558.27 485.51,-628.2 443,-661.48 421.14,-678.6 430.77,-709.48 403,-709.48"/>
<polygon fill="black" stroke="black" points="671.53,-547.21 679.83,-550.07 675.52,-546.84 679.5,-546.48 679.5,-546.48 679.5,-546.48 675.52,-546.84 679.17,-542.9 671.53,-547.21 671.53,-547.21"/>
<ellipse fill="none" stroke="black" cx="668.35" cy="-547.5" rx="3.2" ry="3.2"/>
</g>
<!-- ad_workbenchwindow&#45;&gt;ad_workbench -->
<g id="edge11" class="edge">
<title>ad_workbenchwindow:w&#45;&gt;ad_workbench:e</title>
<path fill="none" stroke="black" d="M665,-614.35C592.63,-635.46 706.2,-828.48 611,-828.48"/>
<polygon fill="black" stroke="black" points="671.57,-613.51 679.96,-616.05 675.53,-612.99 679.5,-612.48 679.5,-612.48 679.5,-612.48 675.53,-612.99 679.04,-608.91 671.57,-613.51 671.57,-613.51"/>
<ellipse fill="none" stroke="black" cx="668.39" cy="-613.91" rx="3.2" ry="3.2"/>
</g>
</g>
</svg>
