<?xml version="1.0" encoding="UTF-8" standalone="no"?>
<!DOCTYPE svg PUBLIC "-//W3C//DTD SVG 1.1//EN"
 "http://www.w3.org/Graphics/SVG/1.1/DTD/svg11.dtd">
<!-- Generated by graphviz version 2.43.0 (0)
 -->
<!-- Title: oneDegreeRelationshipsDiagram Pages: 1 -->
<svg width="616pt" height="604pt"
 viewBox="0.00 0.00 616.00 604.00" xmlns="http://www.w3.org/2000/svg" xmlns:xlink="http://www.w3.org/1999/xlink">
<g id="graph0" class="graph" transform="scale(1 1) rotate(0) translate(4 600)">
<title>oneDegreeRelationshipsDiagram</title>
<polygon fill="#ffffff" stroke="transparent" points="-4,4 -4,-600 612,-600 612,4 -4,4"/>
<text text-anchor="middle" x="71.5" y="-7.2" font-family="Helvetica,sans-Serif" font-size="11.00">Generated by SchemaSpy</text>
<!-- asp_field -->
<g id="node1" class="node">
<title>asp_field</title>
<g id="a_node1"><a xlink:href="../../tables/asp_field.html" xlink:title="asp_field" target="_top">
<polygon fill="#ffffff" stroke="transparent" points="496,-175 496,-321 600,-321 600,-175 496,-175"/>
<polygon fill="#f5f5f5" stroke="transparent" points="496,-299 496,-321 600,-321 600,-299 496,-299"/>
<polygon fill="none" stroke="black" points="496,-299 496,-321 600,-321 600,-299 496,-299"/>
<text text-anchor="start" x="501" y="-308.2" font-family="Helvetica,sans-Serif" font-weight="bold" font-size="11.00">asp_field</text>
<text text-anchor="start" x="565" y="-307.2" font-family="Helvetica,sans-Serif" font-size="11.00">[table]</text>
<polygon fill="#ffffff" stroke="transparent" points="496,-277 496,-299 600,-299 600,-277 496,-277"/>
<polygon fill="none" stroke="black" points="496,-277 496,-299 600,-299 600,-277 496,-277"/>
<image xlink:href="../../images/foreignKeys.png" width="11px" height="12px" preserveAspectRatio="xMinYMin meet" x="501" y="-294"/>
<text text-anchor="start" x="516" y="-285.2" font-family="Helvetica,sans-Serif" font-size="11.00">ad_field_id</text>
<polygon fill="none" stroke="black" points="496,-255 496,-277 600,-277 600,-255 496,-255"/>
<image xlink:href="../../images/primaryKeys.png" width="11px" height="12px" preserveAspectRatio="xMinYMin meet" x="501" y="-272"/>
<text text-anchor="start" x="516" y="-263.2" font-family="Helvetica,sans-Serif" font-size="11.00">asp_field_id</text>
<polygon fill="#ffffff" stroke="transparent" points="496,-233 496,-255 600,-255 600,-233 496,-233"/>
<polygon fill="none" stroke="black" points="496,-233 496,-255 600,-255 600,-233 496,-233"/>
<image xlink:href="../../images/foreignKeys.png" width="11px" height="12px" preserveAspectRatio="xMinYMin meet" x="501" y="-250"/>
<text text-anchor="start" x="516" y="-241.2" font-family="Helvetica,sans-Serif" font-size="11.00">asp_tab_id</text>
<polygon fill="#ffffff" stroke="transparent" points="496,-211 496,-233 600,-233 600,-211 496,-211"/>
<polygon fill="none" stroke="black" points="496,-211 496,-233 600,-233 600,-211 496,-211"/>
<text text-anchor="start" x="516" y="-219.2" font-family="Helvetica,sans-Serif" font-size="11.00">asp_field_uu</text>
<polygon fill="none" stroke="black" points="496,-193 496,-211 600,-211 600,-193 496,-193"/>
<text text-anchor="start" x="499" y="-199.2" font-family="Helvetica,sans-Serif" font-size="11.00">...</text>
<polygon fill="#ffffff" stroke="transparent" points="496,-175 496,-193 533,-193 533,-175 496,-175"/>
<polygon fill="none" stroke="black" points="496,-175 496,-193 533,-193 533,-175 496,-175"/>
<text text-anchor="start" x="499" y="-181.2" font-family="Helvetica,sans-Serif" font-size="11.00">&lt; 2</text>
<polygon fill="#ffffff" stroke="transparent" points="533,-175 533,-193 579,-193 579,-175 533,-175"/>
<polygon fill="none" stroke="black" points="533,-175 533,-193 579,-193 579,-175 533,-175"/>
<text text-anchor="start" x="543" y="-181.2" font-family="Helvetica,sans-Serif" font-size="11.00">0 rows</text>
<polygon fill="#ffffff" stroke="transparent" points="579,-175 579,-193 600,-193 600,-175 579,-175"/>
<polygon fill="none" stroke="black" points="579,-175 579,-193 600,-193 600,-175 579,-175"/>
<text text-anchor="start" x="590" y="-181.2" font-family="Helvetica,sans-Serif" font-size="11.00"> &#160;</text>
</a>
</g>
</g>
<!-- asp_tab -->
<g id="node2" class="node">
<title>asp_tab</title>
<g id="a_node2"><a xlink:href="../../tables/asp_tab.html" xlink:title="asp_tab" target="_top">
<polygon fill="#ffffff" stroke="transparent" points="239,-169 239,-521 447,-521 447,-169 239,-169"/>
<polygon fill="#f5f5f5" stroke="transparent" points="241,-497 241,-519 445,-519 445,-497 241,-497"/>
<polygon fill="none" stroke="black" points="241,-497 241,-519 445,-519 445,-497 241,-497"/>
<text text-anchor="start" x="246" y="-506.2" font-family="Helvetica,sans-Serif" font-weight="bold" font-size="11.00">asp_tab</text>
<text text-anchor="start" x="410" y="-505.2" font-family="Helvetica,sans-Serif" font-size="11.00">[table]</text>
<polygon fill="none" stroke="black" points="241,-475 241,-497 362,-497 362,-475 241,-475"/>
<text text-anchor="start" x="261" y="-483.2" font-family="Helvetica,sans-Serif" font-size="11.00">ad_client_id</text>
<polygon fill="none" stroke="black" points="362,-475 362,-497 445,-497 445,-475 362,-475"/>
<text text-anchor="start" x="365" y="-483.2" font-family="Helvetica,sans-Serif" font-size="11.00">numeric[10]</text>
<polygon fill="none" stroke="black" points="241,-453 241,-475 362,-475 362,-453 241,-453"/>
<text text-anchor="start" x="261" y="-461.2" font-family="Helvetica,sans-Serif" font-size="11.00">ad_org_id</text>
<polygon fill="none" stroke="black" points="362,-453 362,-475 445,-475 445,-453 362,-453"/>
<text text-anchor="start" x="365" y="-461.2" font-family="Helvetica,sans-Serif" font-size="11.00">numeric[10]</text>
<polygon fill="#ffffff" stroke="transparent" points="241,-431 241,-453 362,-453 362,-431 241,-431"/>
<polygon fill="none" stroke="black" points="241,-431 241,-453 362,-453 362,-431 241,-431"/>
<image xlink:href="../../images/foreignKeys.png" width="11px" height="12px" preserveAspectRatio="xMinYMin meet" x="246" y="-448"/>
<text text-anchor="start" x="261" y="-439.2" font-family="Helvetica,sans-Serif" font-size="11.00">ad_tab_id</text>
<polygon fill="none" stroke="black" points="362,-431 362,-453 445,-453 445,-431 362,-431"/>
<text text-anchor="start" x="365" y="-439.2" font-family="Helvetica,sans-Serif" font-size="11.00">numeric[10]</text>
<polygon fill="none" stroke="black" points="241,-409 241,-431 362,-431 362,-409 241,-409"/>
<text text-anchor="start" x="261" y="-417.2" font-family="Helvetica,sans-Serif" font-size="11.00">asp_status</text>
<polygon fill="none" stroke="black" points="362,-409 362,-431 445,-431 445,-409 362,-409"/>
<text text-anchor="start" x="365" y="-417.2" font-family="Helvetica,sans-Serif" font-size="11.00">bpchar[1]</text>
<polygon fill="none" stroke="black" points="241,-387 241,-409 362,-409 362,-387 241,-387"/>
<text text-anchor="start" x="261" y="-395.2" font-family="Helvetica,sans-Serif" font-size="11.00">allfields</text>
<polygon fill="none" stroke="black" points="362,-387 362,-409 445,-409 445,-387 362,-387"/>
<text text-anchor="start" x="365" y="-395.2" font-family="Helvetica,sans-Serif" font-size="11.00">bpchar[1]</text>
<polygon fill="none" stroke="black" points="241,-365 241,-387 362,-387 362,-365 241,-365"/>
<text text-anchor="start" x="261" y="-373.2" font-family="Helvetica,sans-Serif" font-size="11.00">created</text>
<polygon fill="none" stroke="black" points="362,-365 362,-387 445,-387 445,-365 362,-365"/>
<text text-anchor="start" x="365" y="-373.2" font-family="Helvetica,sans-Serif" font-size="11.00">timestamp[29,6]</text>
<polygon fill="none" stroke="black" points="241,-343 241,-365 362,-365 362,-343 241,-343"/>
<text text-anchor="start" x="261" y="-351.2" font-family="Helvetica,sans-Serif" font-size="11.00">createdby</text>
<polygon fill="none" stroke="black" points="362,-343 362,-365 445,-365 445,-343 362,-343"/>
<text text-anchor="start" x="365" y="-351.2" font-family="Helvetica,sans-Serif" font-size="11.00">numeric[10]</text>
<polygon fill="none" stroke="black" points="241,-321 241,-343 362,-343 362,-321 241,-321"/>
<text text-anchor="start" x="261" y="-329.2" font-family="Helvetica,sans-Serif" font-size="11.00">isactive</text>
<polygon fill="none" stroke="black" points="362,-321 362,-343 445,-343 445,-321 362,-321"/>
<text text-anchor="start" x="365" y="-329.2" font-family="Helvetica,sans-Serif" font-size="11.00">bpchar[1]</text>
<polygon fill="none" stroke="black" points="241,-299 241,-321 362,-321 362,-299 241,-299"/>
<text text-anchor="start" x="261" y="-307.2" font-family="Helvetica,sans-Serif" font-size="11.00">processing</text>
<polygon fill="none" stroke="black" points="362,-299 362,-321 445,-321 445,-299 362,-299"/>
<text text-anchor="start" x="365" y="-307.2" font-family="Helvetica,sans-Serif" font-size="11.00">bpchar[1]</text>
<polygon fill="none" stroke="black" points="241,-277 241,-299 362,-299 362,-277 241,-277"/>
<text text-anchor="start" x="261" y="-285.2" font-family="Helvetica,sans-Serif" font-size="11.00">updated</text>
<polygon fill="none" stroke="black" points="362,-277 362,-299 445,-299 445,-277 362,-277"/>
<text text-anchor="start" x="365" y="-285.2" font-family="Helvetica,sans-Serif" font-size="11.00">timestamp[29,6]</text>
<polygon fill="none" stroke="black" points="241,-255 241,-277 362,-277 362,-255 241,-255"/>
<text text-anchor="start" x="261" y="-263.2" font-family="Helvetica,sans-Serif" font-size="11.00">updatedby</text>
<polygon fill="none" stroke="black" points="362,-255 362,-277 445,-277 445,-255 362,-255"/>
<text text-anchor="start" x="365" y="-263.2" font-family="Helvetica,sans-Serif" font-size="11.00">numeric[10]</text>
<polygon fill="none" stroke="black" points="241,-233 241,-255 362,-255 362,-233 241,-233"/>
<image xlink:href="../../images/primaryKeys.png" width="11px" height="12px" preserveAspectRatio="xMinYMin meet" x="246" y="-250"/>
<text text-anchor="start" x="261" y="-241.2" font-family="Helvetica,sans-Serif" font-size="11.00">asp_tab_id</text>
<polygon fill="none" stroke="black" points="362,-233 362,-255 445,-255 445,-233 362,-233"/>
<text text-anchor="start" x="365" y="-241.2" font-family="Helvetica,sans-Serif" font-size="11.00">numeric[10]</text>
<polygon fill="#ffffff" stroke="transparent" points="241,-211 241,-233 362,-233 362,-211 241,-211"/>
<polygon fill="none" stroke="black" points="241,-211 241,-233 362,-233 362,-211 241,-211"/>
<image xlink:href="../../images/foreignKeys.png" width="11px" height="12px" preserveAspectRatio="xMinYMin meet" x="246" y="-228"/>
<text text-anchor="start" x="261" y="-219.2" font-family="Helvetica,sans-Serif" font-size="11.00">asp_window_id</text>
<polygon fill="none" stroke="black" points="362,-211 362,-233 445,-233 445,-211 362,-211"/>
<text text-anchor="start" x="365" y="-219.2" font-family="Helvetica,sans-Serif" font-size="11.00">numeric[10]</text>
<polygon fill="#ffffff" stroke="transparent" points="241,-189 241,-211 362,-211 362,-189 241,-189"/>
<polygon fill="none" stroke="black" points="241,-189 241,-211 362,-211 362,-189 241,-189"/>
<text text-anchor="start" x="261" y="-197.2" font-family="Helvetica,sans-Serif" font-size="11.00">asp_tab_uu</text>
<polygon fill="none" stroke="black" points="362,-189 362,-211 445,-211 445,-189 362,-189"/>
<text text-anchor="start" x="365" y="-197.2" font-family="Helvetica,sans-Serif" font-size="11.00">varchar[36]</text>
<polygon fill="#ffffff" stroke="transparent" points="241,-171 241,-189 293,-189 293,-171 241,-171"/>
<polygon fill="none" stroke="black" points="241,-171 241,-189 293,-189 293,-171 241,-171"/>
<text text-anchor="start" x="244" y="-177.2" font-family="Helvetica,sans-Serif" font-size="11.00">&lt; 2</text>
<polygon fill="#ffffff" stroke="transparent" points="293,-171 293,-189 362,-189 362,-171 293,-171"/>
<polygon fill="none" stroke="black" points="293,-171 293,-189 362,-189 362,-171 293,-171"/>
<text text-anchor="start" x="326" y="-177.2" font-family="Helvetica,sans-Serif" font-size="11.00">0 rows</text>
<polygon fill="#ffffff" stroke="transparent" points="362,-171 362,-189 445,-189 445,-171 362,-171"/>
<polygon fill="none" stroke="black" points="362,-171 362,-189 445,-189 445,-171 362,-171"/>
<text text-anchor="start" x="426" y="-177.2" font-family="Helvetica,sans-Serif" font-size="11.00">1 &gt;</text>
<polygon fill="none" stroke="black" stroke-width="2" points="240,-170 240,-520 446,-520 446,-170 240,-170"/>
</a>
</g>
</g>
<!-- asp_field&#45;&gt;asp_tab -->
<g id="edge1" class="edge">
<title>asp_field:w&#45;&gt;asp_tab:e</title>
<path fill="none" stroke="black" d="M480.49,-244C469.18,-244 461.99,-244 446,-244"/>
<polygon fill="black" stroke="black" points="487,-244 495,-247.6 491,-244 495,-244 495,-244 495,-244 491,-244 495,-240.4 487,-244 487,-244"/>
<ellipse fill="none" stroke="black" cx="483.8" cy="-244" rx="3.2" ry="3.2"/>
</g>
<!-- ad_tab -->
<g id="node3" class="node">
<title>ad_tab</title>
<g id="a_node3"><a xlink:href="../../tables/ad_tab.html" xlink:title="ad_tab" target="_top">
<polygon fill="#ffffff" stroke="transparent" points="8,-204 8,-592 190,-592 190,-204 8,-204"/>
<polygon fill="#f5f5f5" stroke="transparent" points="8,-570 8,-592 190,-592 190,-570 8,-570"/>
<polygon fill="none" stroke="black" points="8,-570 8,-592 190,-592 190,-570 8,-570"/>
<text text-anchor="start" x="13" y="-579.2" font-family="Helvetica,sans-Serif" font-weight="bold" font-size="11.00">ad_tab</text>
<text text-anchor="start" x="155" y="-578.2" font-family="Helvetica,sans-Serif" font-size="11.00">[table]</text>
<polygon fill="none" stroke="black" points="8,-548 8,-570 190,-570 190,-548 8,-548"/>
<image xlink:href="../../images/primaryKeys.png" width="11px" height="12px" preserveAspectRatio="xMinYMin meet" x="13" y="-565"/>
<text text-anchor="start" x="28" y="-556.2" font-family="Helvetica,sans-Serif" font-size="11.00">ad_tab_id</text>
<polygon fill="none" stroke="black" points="8,-526 8,-548 190,-548 190,-526 8,-526"/>
<image xlink:href="../../images/foreignKeys.png" width="11px" height="12px" preserveAspectRatio="xMinYMin meet" x="13" y="-543"/>
<text text-anchor="start" x="28" y="-534.2" font-family="Helvetica,sans-Serif" font-size="11.00">ad_client_id</text>
<polygon fill="none" stroke="black" points="8,-504 8,-526 190,-526 190,-504 8,-504"/>
<image xlink:href="../../images/foreignKeys.png" width="11px" height="12px" preserveAspectRatio="xMinYMin meet" x="13" y="-521"/>
<text text-anchor="start" x="28" y="-512.2" font-family="Helvetica,sans-Serif" font-size="11.00">ad_org_id</text>
<polygon fill="#ffffff" stroke="transparent" points="8,-482 8,-504 190,-504 190,-482 8,-482"/>
<polygon fill="none" stroke="black" points="8,-482 8,-504 190,-504 190,-482 8,-482"/>
<image xlink:href="../../images/foreignKeys.png" width="11px" height="12px" preserveAspectRatio="xMinYMin meet" x="13" y="-499"/>
<text text-anchor="start" x="28" y="-490.2" font-family="Helvetica,sans-Serif" font-size="11.00">ad_table_id</text>
<polygon fill="#ffffff" stroke="transparent" points="8,-460 8,-482 190,-482 190,-460 8,-460"/>
<polygon fill="none" stroke="black" points="8,-460 8,-482 190,-482 190,-460 8,-460"/>
<image xlink:href="../../images/foreignKeys.png" width="11px" height="12px" preserveAspectRatio="xMinYMin meet" x="13" y="-477"/>
<text text-anchor="start" x="28" y="-468.2" font-family="Helvetica,sans-Serif" font-size="11.00">ad_window_id</text>
<polygon fill="none" stroke="black" points="8,-438 8,-460 190,-460 190,-438 8,-438"/>
<image xlink:href="../../images/foreignKeys.png" width="11px" height="12px" preserveAspectRatio="xMinYMin meet" x="13" y="-455"/>
<text text-anchor="start" x="28" y="-446.2" font-family="Helvetica,sans-Serif" font-size="11.00">ad_column_id</text>
<polygon fill="none" stroke="black" points="8,-416 8,-438 190,-438 190,-416 8,-416"/>
<image xlink:href="../../images/foreignKeys.png" width="11px" height="12px" preserveAspectRatio="xMinYMin meet" x="13" y="-433"/>
<text text-anchor="start" x="28" y="-424.2" font-family="Helvetica,sans-Serif" font-size="11.00">ad_process_id</text>
<polygon fill="none" stroke="black" points="8,-394 8,-416 190,-416 190,-394 8,-394"/>
<image xlink:href="../../images/foreignKeys.png" width="11px" height="12px" preserveAspectRatio="xMinYMin meet" x="13" y="-411"/>
<text text-anchor="start" x="28" y="-402.2" font-family="Helvetica,sans-Serif" font-size="11.00">ad_image_id</text>
<polygon fill="none" stroke="black" points="8,-372 8,-394 190,-394 190,-372 8,-372"/>
<image xlink:href="../../images/foreignKeys.png" width="11px" height="12px" preserveAspectRatio="xMinYMin meet" x="13" y="-389"/>
<text text-anchor="start" x="28" y="-380.2" font-family="Helvetica,sans-Serif" font-size="11.00">ad_columnsortorder_id</text>
<polygon fill="none" stroke="black" points="8,-350 8,-372 190,-372 190,-350 8,-350"/>
<image xlink:href="../../images/foreignKeys.png" width="11px" height="12px" preserveAspectRatio="xMinYMin meet" x="13" y="-367"/>
<text text-anchor="start" x="28" y="-358.2" font-family="Helvetica,sans-Serif" font-size="11.00">ad_columnsortyesno_id</text>
<polygon fill="none" stroke="black" points="8,-328 8,-350 190,-350 190,-328 8,-328"/>
<image xlink:href="../../images/foreignKeys.png" width="11px" height="12px" preserveAspectRatio="xMinYMin meet" x="13" y="-345"/>
<text text-anchor="start" x="28" y="-336.2" font-family="Helvetica,sans-Serif" font-size="11.00">entitytype</text>
<polygon fill="none" stroke="black" points="8,-306 8,-328 190,-328 190,-306 8,-306"/>
<image xlink:href="../../images/foreignKeys.png" width="11px" height="12px" preserveAspectRatio="xMinYMin meet" x="13" y="-323"/>
<text text-anchor="start" x="28" y="-314.2" font-family="Helvetica,sans-Serif" font-size="11.00">included_tab_id</text>
<polygon fill="none" stroke="black" points="8,-284 8,-306 190,-306 190,-284 8,-284"/>
<image xlink:href="../../images/foreignKeys.png" width="11px" height="12px" preserveAspectRatio="xMinYMin meet" x="13" y="-301"/>
<text text-anchor="start" x="28" y="-292.2" font-family="Helvetica,sans-Serif" font-size="11.00">parent_column_id</text>
<polygon fill="#ffffff" stroke="transparent" points="8,-262 8,-284 190,-284 190,-262 8,-262"/>
<polygon fill="none" stroke="black" points="8,-262 8,-284 190,-284 190,-262 8,-262"/>
<text text-anchor="start" x="28" y="-270.2" font-family="Helvetica,sans-Serif" font-size="11.00">ad_tab_uu</text>
<polygon fill="none" stroke="black" points="8,-240 8,-262 190,-262 190,-240 8,-240"/>
<image xlink:href="../../images/foreignKeys.png" width="11px" height="12px" preserveAspectRatio="xMinYMin meet" x="13" y="-257"/>
<text text-anchor="start" x="28" y="-248.2" font-family="Helvetica,sans-Serif" font-size="11.00">ad_ctxhelp_id</text>
<polygon fill="none" stroke="black" points="8,-222 8,-240 190,-240 190,-222 8,-222"/>
<text text-anchor="start" x="11" y="-228.2" font-family="Helvetica,sans-Serif" font-size="11.00">...</text>
<polygon fill="#ffffff" stroke="transparent" points="8,-204 8,-222 69,-222 69,-204 8,-204"/>
<polygon fill="none" stroke="black" points="8,-204 8,-222 69,-222 69,-204 8,-204"/>
<text text-anchor="start" x="11" y="-210.2" font-family="Helvetica,sans-Serif" font-size="11.00">&lt; 13</text>
<polygon fill="#ffffff" stroke="transparent" points="69,-204 69,-222 145,-222 145,-204 69,-204"/>
<polygon fill="none" stroke="black" points="69,-204 69,-222 145,-222 145,-204 69,-204"/>
<text text-anchor="start" x="88" y="-210.2" font-family="Helvetica,sans-Serif" font-size="11.00">1.462 rows</text>
<polygon fill="#ffffff" stroke="transparent" points="145,-204 145,-222 190,-222 190,-204 145,-204"/>
<polygon fill="none" stroke="black" points="145,-204 145,-222 190,-222 190,-204 145,-204"/>
<text text-anchor="start" x="165" y="-210.2" font-family="Helvetica,sans-Serif" font-size="11.00">14 &gt;</text>
</a>
</g>
</g>
<!-- asp_tab&#45;&gt;ad_tab -->
<g id="edge2" class="edge">
<title>asp_tab:w&#45;&gt;ad_tab:e</title>
<path fill="none" stroke="black" d="M225.89,-445.63C195.74,-465.38 241.43,-559 191,-559"/>
<polygon fill="black" stroke="black" points="232.25,-443.99 240.9,-445.49 236.13,-443 240,-442 240,-442 240,-442 236.13,-443 239.1,-438.51 232.25,-443.99 232.25,-443.99"/>
<ellipse fill="none" stroke="black" cx="229.15" cy="-444.79" rx="3.2" ry="3.2"/>
</g>
<!-- asp_window -->
<g id="node4" class="node">
<title>asp_window</title>
<g id="a_node4"><a xlink:href="../../tables/asp_window.html" xlink:title="asp_window" target="_top">
<polygon fill="#ffffff" stroke="transparent" points="36.5,-37 36.5,-183 161.5,-183 161.5,-37 36.5,-37"/>
<polygon fill="#f5f5f5" stroke="transparent" points="37,-161 37,-183 162,-183 162,-161 37,-161"/>
<polygon fill="none" stroke="black" points="37,-161 37,-183 162,-183 162,-161 37,-161"/>
<text text-anchor="start" x="42" y="-170.2" font-family="Helvetica,sans-Serif" font-weight="bold" font-size="11.00">asp_window</text>
<text text-anchor="start" x="127" y="-169.2" font-family="Helvetica,sans-Serif" font-size="11.00">[table]</text>
<polygon fill="#ffffff" stroke="transparent" points="37,-139 37,-161 162,-161 162,-139 37,-139"/>
<polygon fill="none" stroke="black" points="37,-139 37,-161 162,-161 162,-139 37,-139"/>
<image xlink:href="../../images/foreignKeys.png" width="11px" height="12px" preserveAspectRatio="xMinYMin meet" x="42" y="-156"/>
<text text-anchor="start" x="57" y="-147.2" font-family="Helvetica,sans-Serif" font-size="11.00">ad_window_id</text>
<polygon fill="#ffffff" stroke="transparent" points="37,-117 37,-139 162,-139 162,-117 37,-117"/>
<polygon fill="none" stroke="black" points="37,-117 37,-139 162,-139 162,-117 37,-117"/>
<image xlink:href="../../images/foreignKeys.png" width="11px" height="12px" preserveAspectRatio="xMinYMin meet" x="42" y="-134"/>
<text text-anchor="start" x="57" y="-125.2" font-family="Helvetica,sans-Serif" font-size="11.00">asp_level_id</text>
<polygon fill="none" stroke="black" points="37,-95 37,-117 162,-117 162,-95 37,-95"/>
<image xlink:href="../../images/primaryKeys.png" width="11px" height="12px" preserveAspectRatio="xMinYMin meet" x="42" y="-112"/>
<text text-anchor="start" x="57" y="-103.2" font-family="Helvetica,sans-Serif" font-size="11.00">asp_window_id</text>
<polygon fill="#ffffff" stroke="transparent" points="37,-73 37,-95 162,-95 162,-73 37,-73"/>
<polygon fill="none" stroke="black" points="37,-73 37,-95 162,-95 162,-73 37,-73"/>
<text text-anchor="start" x="57" y="-81.2" font-family="Helvetica,sans-Serif" font-size="11.00">asp_window_uu</text>
<polygon fill="none" stroke="black" points="37,-55 37,-73 162,-73 162,-55 37,-55"/>
<text text-anchor="start" x="40" y="-61.2" font-family="Helvetica,sans-Serif" font-size="11.00">...</text>
<polygon fill="#ffffff" stroke="transparent" points="37,-37 37,-55 80,-55 80,-37 37,-37"/>
<polygon fill="none" stroke="black" points="37,-37 37,-55 80,-55 80,-37 37,-37"/>
<text text-anchor="start" x="40" y="-43.2" font-family="Helvetica,sans-Serif" font-size="11.00">&lt; 2</text>
<polygon fill="#ffffff" stroke="transparent" points="80,-37 80,-55 129,-55 129,-37 80,-37"/>
<polygon fill="none" stroke="black" points="80,-37 80,-55 129,-55 129,-37 80,-37"/>
<text text-anchor="start" x="93" y="-43.2" font-family="Helvetica,sans-Serif" font-size="11.00">0 rows</text>
<polygon fill="#ffffff" stroke="transparent" points="129,-37 129,-55 162,-55 162,-37 129,-37"/>
<polygon fill="none" stroke="black" points="129,-37 129,-55 162,-55 162,-37 129,-37"/>
<text text-anchor="start" x="143" y="-43.2" font-family="Helvetica,sans-Serif" font-size="11.00">1 &gt;</text>
</a>
</g>
</g>
<!-- asp_tab&#45;&gt;asp_window -->
<g id="edge3" class="edge">
<title>asp_tab:w&#45;&gt;asp_window:e</title>
<path fill="none" stroke="black" d="M225.79,-219.36C185.65,-202.09 219.32,-106 163,-106"/>
<polygon fill="black" stroke="black" points="232.13,-220.54 239.34,-225.54 236.07,-221.27 240,-222 240,-222 240,-222 236.07,-221.27 240.66,-218.46 232.13,-220.54 232.13,-220.54"/>
<ellipse fill="none" stroke="black" cx="228.99" cy="-219.95" rx="3.2" ry="3.2"/>
</g>
</g>
</svg>
