<?xml version="1.0" encoding="UTF-8" standalone="no"?>
<!DOCTYPE svg PUBLIC "-//W3C//DTD SVG 1.1//EN"
 "http://www.w3.org/Graphics/SVG/1.1/DTD/svg11.dtd">
<!-- Generated by graphviz version 2.43.0 (0)
 -->
<!-- Title: oneDegreeRelationshipsDiagram Pages: 1 -->
<svg width="595pt" height="496pt"
 viewBox="0.00 0.00 595.00 496.00" xmlns="http://www.w3.org/2000/svg" xmlns:xlink="http://www.w3.org/1999/xlink">
<g id="graph0" class="graph" transform="scale(1 1) rotate(0) translate(4 492)">
<title>oneDegreeRelationshipsDiagram</title>
<polygon fill="#ffffff" stroke="transparent" points="-4,4 -4,-492 591,-492 591,4 -4,4"/>
<text text-anchor="middle" x="71.5" y="-7.2" font-family="Helvetica,sans-Serif" font-size="11.00">Generated by SchemaSpy</text>
<!-- ad_ref_list -->
<g id="node1" class="node">
<title>ad_ref_list</title>
<g id="a_node1"><a xlink:href="../../tables/ad_ref_list.html" xlink:title="ad_ref_list" target="_top">
<polygon fill="#ffffff" stroke="transparent" points="189,-182 189,-416 316,-416 316,-182 189,-182"/>
<polygon fill="#f5f5f5" stroke="transparent" points="189.5,-394 189.5,-416 316.5,-416 316.5,-394 189.5,-394"/>
<polygon fill="none" stroke="black" points="189.5,-394 189.5,-416 316.5,-416 316.5,-394 189.5,-394"/>
<text text-anchor="start" x="194.5" y="-403.2" font-family="Helvetica,sans-Serif" font-weight="bold" font-size="11.00">ad_ref_list</text>
<text text-anchor="start" x="281.5" y="-402.2" font-family="Helvetica,sans-Serif" font-size="11.00">[table]</text>
<polygon fill="none" stroke="black" points="189.5,-372 189.5,-394 316.5,-394 316.5,-372 189.5,-372"/>
<image xlink:href="../../images/primaryKeys.png" width="11px" height="12px" preserveAspectRatio="xMinYMin meet" x="194.5" y="-389"/>
<text text-anchor="start" x="209.5" y="-380.2" font-family="Helvetica,sans-Serif" font-size="11.00">ad_ref_list_id</text>
<polygon fill="none" stroke="black" points="189.5,-350 189.5,-372 316.5,-372 316.5,-350 189.5,-350"/>
<image xlink:href="../../images/foreignKeys.png" width="11px" height="12px" preserveAspectRatio="xMinYMin meet" x="194.5" y="-367"/>
<text text-anchor="start" x="209.5" y="-358.2" font-family="Helvetica,sans-Serif" font-size="11.00">ad_client_id</text>
<polygon fill="none" stroke="black" points="189.5,-328 189.5,-350 316.5,-350 316.5,-328 189.5,-328"/>
<image xlink:href="../../images/foreignKeys.png" width="11px" height="12px" preserveAspectRatio="xMinYMin meet" x="194.5" y="-345"/>
<text text-anchor="start" x="209.5" y="-336.2" font-family="Helvetica,sans-Serif" font-size="11.00">ad_org_id</text>
<polygon fill="#ffffff" stroke="transparent" points="189.5,-306 189.5,-328 316.5,-328 316.5,-306 189.5,-306"/>
<polygon fill="none" stroke="black" points="189.5,-306 189.5,-328 316.5,-328 316.5,-306 189.5,-306"/>
<text text-anchor="start" x="209.5" y="-314.2" font-family="Helvetica,sans-Serif" font-size="11.00">value</text>
<polygon fill="#ffffff" stroke="transparent" points="189.5,-284 189.5,-306 316.5,-306 316.5,-284 189.5,-284"/>
<polygon fill="none" stroke="black" points="189.5,-284 189.5,-306 316.5,-306 316.5,-284 189.5,-284"/>
<text text-anchor="start" x="209.5" y="-292.2" font-family="Helvetica,sans-Serif" font-size="11.00">name</text>
<polygon fill="#ffffff" stroke="transparent" points="189.5,-262 189.5,-284 316.5,-284 316.5,-262 189.5,-262"/>
<polygon fill="none" stroke="black" points="189.5,-262 189.5,-284 316.5,-284 316.5,-262 189.5,-262"/>
<image xlink:href="../../images/foreignKeys.png" width="11px" height="12px" preserveAspectRatio="xMinYMin meet" x="194.5" y="-279"/>
<text text-anchor="start" x="209.5" y="-270.2" font-family="Helvetica,sans-Serif" font-size="11.00">ad_reference_id</text>
<polygon fill="none" stroke="black" points="189.5,-240 189.5,-262 316.5,-262 316.5,-240 189.5,-240"/>
<image xlink:href="../../images/foreignKeys.png" width="11px" height="12px" preserveAspectRatio="xMinYMin meet" x="194.5" y="-257"/>
<text text-anchor="start" x="209.5" y="-248.2" font-family="Helvetica,sans-Serif" font-size="11.00">entitytype</text>
<polygon fill="#ffffff" stroke="transparent" points="189.5,-218 189.5,-240 316.5,-240 316.5,-218 189.5,-218"/>
<polygon fill="none" stroke="black" points="189.5,-218 189.5,-240 316.5,-240 316.5,-218 189.5,-218"/>
<text text-anchor="start" x="209.5" y="-226.2" font-family="Helvetica,sans-Serif" font-size="11.00">ad_ref_list_uu</text>
<polygon fill="none" stroke="black" points="189.5,-200 189.5,-218 316.5,-218 316.5,-200 189.5,-200"/>
<text text-anchor="start" x="192.5" y="-206.2" font-family="Helvetica,sans-Serif" font-size="11.00">...</text>
<polygon fill="#ffffff" stroke="transparent" points="189.5,-182 189.5,-200 222.5,-200 222.5,-182 189.5,-182"/>
<polygon fill="none" stroke="black" points="189.5,-182 189.5,-200 222.5,-200 222.5,-182 189.5,-182"/>
<text text-anchor="start" x="192.5" y="-188.2" font-family="Helvetica,sans-Serif" font-size="11.00">&lt; 4</text>
<polygon fill="#ffffff" stroke="transparent" points="222.5,-182 222.5,-200 288.5,-200 288.5,-182 222.5,-182"/>
<polygon fill="none" stroke="black" points="222.5,-182 222.5,-200 288.5,-200 288.5,-182 222.5,-182"/>
<text text-anchor="start" x="231.5" y="-188.2" font-family="Helvetica,sans-Serif" font-size="11.00">3.746 rows</text>
<polygon fill="#ffffff" stroke="transparent" points="288.5,-182 288.5,-200 316.5,-200 316.5,-182 288.5,-182"/>
<polygon fill="none" stroke="black" points="288.5,-182 288.5,-200 316.5,-200 316.5,-182 288.5,-182"/>
<text text-anchor="start" x="297.5" y="-188.2" font-family="Helvetica,sans-Serif" font-size="11.00">3 &gt;</text>
</a>
</g>
</g>
<!-- ad_reference -->
<g id="node2" class="node">
<title>ad_reference</title>
<g id="a_node2"><a xlink:href="../../tables/ad_reference.html" xlink:title="ad_reference" target="_top">
<polygon fill="#ffffff" stroke="transparent" points="8,-177 8,-389 140,-389 140,-177 8,-177"/>
<polygon fill="#f5f5f5" stroke="transparent" points="8,-367 8,-389 140,-389 140,-367 8,-367"/>
<polygon fill="none" stroke="black" points="8,-367 8,-389 140,-389 140,-367 8,-367"/>
<text text-anchor="start" x="13" y="-376.2" font-family="Helvetica,sans-Serif" font-weight="bold" font-size="11.00">ad_reference</text>
<text text-anchor="start" x="105" y="-375.2" font-family="Helvetica,sans-Serif" font-size="11.00">[table]</text>
<polygon fill="none" stroke="black" points="8,-345 8,-367 140,-367 140,-345 8,-345"/>
<image xlink:href="../../images/primaryKeys.png" width="11px" height="12px" preserveAspectRatio="xMinYMin meet" x="13" y="-362"/>
<text text-anchor="start" x="28" y="-353.2" font-family="Helvetica,sans-Serif" font-size="11.00">ad_reference_id</text>
<polygon fill="none" stroke="black" points="8,-323 8,-345 140,-345 140,-323 8,-323"/>
<image xlink:href="../../images/foreignKeys.png" width="11px" height="12px" preserveAspectRatio="xMinYMin meet" x="13" y="-340"/>
<text text-anchor="start" x="28" y="-331.2" font-family="Helvetica,sans-Serif" font-size="11.00">ad_client_id</text>
<polygon fill="none" stroke="black" points="8,-301 8,-323 140,-323 140,-301 8,-301"/>
<image xlink:href="../../images/foreignKeys.png" width="11px" height="12px" preserveAspectRatio="xMinYMin meet" x="13" y="-318"/>
<text text-anchor="start" x="28" y="-309.2" font-family="Helvetica,sans-Serif" font-size="11.00">ad_org_id</text>
<polygon fill="#ffffff" stroke="transparent" points="8,-279 8,-301 140,-301 140,-279 8,-279"/>
<polygon fill="none" stroke="black" points="8,-279 8,-301 140,-301 140,-279 8,-279"/>
<text text-anchor="start" x="28" y="-287.2" font-family="Helvetica,sans-Serif" font-size="11.00">name</text>
<polygon fill="none" stroke="black" points="8,-257 8,-279 140,-279 140,-257 8,-257"/>
<image xlink:href="../../images/foreignKeys.png" width="11px" height="12px" preserveAspectRatio="xMinYMin meet" x="13" y="-274"/>
<text text-anchor="start" x="28" y="-265.2" font-family="Helvetica,sans-Serif" font-size="11.00">entitytype</text>
<polygon fill="#ffffff" stroke="transparent" points="8,-235 8,-257 140,-257 140,-235 8,-235"/>
<polygon fill="none" stroke="black" points="8,-235 8,-257 140,-257 140,-235 8,-235"/>
<text text-anchor="start" x="28" y="-243.2" font-family="Helvetica,sans-Serif" font-size="11.00">ad_reference_uu</text>
<polygon fill="none" stroke="black" points="8,-213 8,-235 140,-235 140,-213 8,-213"/>
<image xlink:href="../../images/foreignKeys.png" width="11px" height="12px" preserveAspectRatio="xMinYMin meet" x="13" y="-230"/>
<text text-anchor="start" x="28" y="-221.2" font-family="Helvetica,sans-Serif" font-size="11.00">ad_element_id</text>
<polygon fill="none" stroke="black" points="8,-195 8,-213 140,-213 140,-195 8,-195"/>
<text text-anchor="start" x="11" y="-201.2" font-family="Helvetica,sans-Serif" font-size="11.00">...</text>
<polygon fill="#ffffff" stroke="transparent" points="8,-177 8,-195 41,-195 41,-177 8,-177"/>
<polygon fill="none" stroke="black" points="8,-177 8,-195 41,-195 41,-177 8,-177"/>
<text text-anchor="start" x="11" y="-183.2" font-family="Helvetica,sans-Serif" font-size="11.00">&lt; 4</text>
<polygon fill="#ffffff" stroke="transparent" points="41,-177 41,-195 106,-195 106,-177 41,-177"/>
<polygon fill="none" stroke="black" points="41,-177 41,-195 106,-195 106,-177 41,-177"/>
<text text-anchor="start" x="49" y="-183.2" font-family="Helvetica,sans-Serif" font-size="11.00">1.022 rows</text>
<polygon fill="#ffffff" stroke="transparent" points="106,-177 106,-195 140,-195 140,-177 106,-177"/>
<polygon fill="none" stroke="black" points="106,-177 106,-195 140,-195 140,-177 106,-177"/>
<text text-anchor="start" x="115" y="-183.2" font-family="Helvetica,sans-Serif" font-size="11.00">31 &gt;</text>
</a>
</g>
</g>
<!-- ad_ref_list&#45;&gt;ad_reference -->
<g id="edge1" class="edge">
<title>ad_ref_list:w&#45;&gt;ad_reference:e</title>
<path fill="none" stroke="black" d="M174.6,-277.7C155.17,-295.26 177.36,-356 141,-356"/>
<polygon fill="black" stroke="black" points="180.92,-275.56 189.65,-276.41 184.71,-274.28 188.5,-273 188.5,-273 188.5,-273 184.71,-274.28 187.35,-269.59 180.92,-275.56 180.92,-275.56"/>
<ellipse fill="none" stroke="black" cx="177.89" cy="-276.59" rx="3.2" ry="3.2"/>
</g>
<!-- asp_ref_list -->
<g id="node3" class="node">
<title>asp_ref_list</title>
<g id="a_node3"><a xlink:href="../../tables/asp_ref_list.html" xlink:title="asp_ref_list" target="_top">
<polygon fill="#ffffff" stroke="transparent" points="365,-154 365,-484 579,-484 579,-154 365,-154"/>
<polygon fill="#f5f5f5" stroke="transparent" points="367,-460 367,-482 577,-482 577,-460 367,-460"/>
<polygon fill="none" stroke="black" points="367,-460 367,-482 577,-482 577,-460 367,-460"/>
<text text-anchor="start" x="372" y="-469.2" font-family="Helvetica,sans-Serif" font-weight="bold" font-size="11.00">asp_ref_list</text>
<text text-anchor="start" x="542" y="-468.2" font-family="Helvetica,sans-Serif" font-size="11.00">[table]</text>
<polygon fill="none" stroke="black" points="367,-438 367,-460 494,-460 494,-438 367,-438"/>
<text text-anchor="start" x="387" y="-446.2" font-family="Helvetica,sans-Serif" font-size="11.00">ad_client_id</text>
<polygon fill="none" stroke="black" points="494,-438 494,-460 577,-460 577,-438 494,-438"/>
<text text-anchor="start" x="497" y="-446.2" font-family="Helvetica,sans-Serif" font-size="11.00">numeric[10]</text>
<polygon fill="none" stroke="black" points="367,-416 367,-438 494,-438 494,-416 367,-416"/>
<text text-anchor="start" x="387" y="-424.2" font-family="Helvetica,sans-Serif" font-size="11.00">ad_org_id</text>
<polygon fill="none" stroke="black" points="494,-416 494,-438 577,-438 577,-416 494,-416"/>
<text text-anchor="start" x="497" y="-424.2" font-family="Helvetica,sans-Serif" font-size="11.00">numeric[10]</text>
<polygon fill="none" stroke="black" points="367,-394 367,-416 494,-416 494,-394 367,-394"/>
<image xlink:href="../../images/foreignKeys.png" width="11px" height="12px" preserveAspectRatio="xMinYMin meet" x="372" y="-411"/>
<text text-anchor="start" x="387" y="-402.2" font-family="Helvetica,sans-Serif" font-size="11.00">ad_reference_id</text>
<polygon fill="none" stroke="black" points="494,-394 494,-416 577,-416 577,-394 494,-394"/>
<text text-anchor="start" x="497" y="-402.2" font-family="Helvetica,sans-Serif" font-size="11.00">numeric[10]</text>
<polygon fill="#ffffff" stroke="transparent" points="367,-372 367,-394 494,-394 494,-372 367,-372"/>
<polygon fill="none" stroke="black" points="367,-372 367,-394 494,-394 494,-372 367,-372"/>
<image xlink:href="../../images/foreignKeys.png" width="11px" height="12px" preserveAspectRatio="xMinYMin meet" x="372" y="-389"/>
<text text-anchor="start" x="387" y="-380.2" font-family="Helvetica,sans-Serif" font-size="11.00">ad_ref_list_id</text>
<polygon fill="none" stroke="black" points="494,-372 494,-394 577,-394 577,-372 494,-372"/>
<text text-anchor="start" x="497" y="-380.2" font-family="Helvetica,sans-Serif" font-size="11.00">numeric[10]</text>
<polygon fill="#ffffff" stroke="transparent" points="367,-350 367,-372 494,-372 494,-350 367,-350"/>
<polygon fill="none" stroke="black" points="367,-350 367,-372 494,-372 494,-350 367,-350"/>
<image xlink:href="../../images/foreignKeys.png" width="11px" height="12px" preserveAspectRatio="xMinYMin meet" x="372" y="-367"/>
<text text-anchor="start" x="387" y="-358.2" font-family="Helvetica,sans-Serif" font-size="11.00">asp_level_id</text>
<polygon fill="none" stroke="black" points="494,-350 494,-372 577,-372 577,-350 494,-350"/>
<text text-anchor="start" x="497" y="-358.2" font-family="Helvetica,sans-Serif" font-size="11.00">numeric[10]</text>
<polygon fill="none" stroke="black" points="367,-328 367,-350 494,-350 494,-328 367,-328"/>
<image xlink:href="../../images/primaryKeys.png" width="11px" height="12px" preserveAspectRatio="xMinYMin meet" x="372" y="-345"/>
<text text-anchor="start" x="387" y="-336.2" font-family="Helvetica,sans-Serif" font-size="11.00">asp_ref_list_id</text>
<polygon fill="none" stroke="black" points="494,-328 494,-350 577,-350 577,-328 494,-328"/>
<text text-anchor="start" x="497" y="-336.2" font-family="Helvetica,sans-Serif" font-size="11.00">numeric[10]</text>
<polygon fill="#ffffff" stroke="transparent" points="367,-306 367,-328 494,-328 494,-306 367,-306"/>
<polygon fill="none" stroke="black" points="367,-306 367,-328 494,-328 494,-306 367,-306"/>
<text text-anchor="start" x="387" y="-314.2" font-family="Helvetica,sans-Serif" font-size="11.00">asp_ref_list_uu</text>
<polygon fill="none" stroke="black" points="494,-306 494,-328 577,-328 577,-306 494,-306"/>
<text text-anchor="start" x="497" y="-314.2" font-family="Helvetica,sans-Serif" font-size="11.00">varchar[36]</text>
<polygon fill="none" stroke="black" points="367,-284 367,-306 494,-306 494,-284 367,-284"/>
<text text-anchor="start" x="387" y="-292.2" font-family="Helvetica,sans-Serif" font-size="11.00">asp_status</text>
<polygon fill="none" stroke="black" points="494,-284 494,-306 577,-306 577,-284 494,-284"/>
<text text-anchor="start" x="497" y="-292.2" font-family="Helvetica,sans-Serif" font-size="11.00">bpchar[1]</text>
<polygon fill="none" stroke="black" points="367,-262 367,-284 494,-284 494,-262 367,-262"/>
<text text-anchor="start" x="387" y="-270.2" font-family="Helvetica,sans-Serif" font-size="11.00">created</text>
<polygon fill="none" stroke="black" points="494,-262 494,-284 577,-284 577,-262 494,-262"/>
<text text-anchor="start" x="497" y="-270.2" font-family="Helvetica,sans-Serif" font-size="11.00">timestamp[29,6]</text>
<polygon fill="none" stroke="black" points="367,-240 367,-262 494,-262 494,-240 367,-240"/>
<text text-anchor="start" x="387" y="-248.2" font-family="Helvetica,sans-Serif" font-size="11.00">createdby</text>
<polygon fill="none" stroke="black" points="494,-240 494,-262 577,-262 577,-240 494,-240"/>
<text text-anchor="start" x="497" y="-248.2" font-family="Helvetica,sans-Serif" font-size="11.00">numeric[10]</text>
<polygon fill="none" stroke="black" points="367,-218 367,-240 494,-240 494,-218 367,-218"/>
<text text-anchor="start" x="387" y="-226.2" font-family="Helvetica,sans-Serif" font-size="11.00">isactive</text>
<polygon fill="none" stroke="black" points="494,-218 494,-240 577,-240 577,-218 494,-218"/>
<text text-anchor="start" x="497" y="-226.2" font-family="Helvetica,sans-Serif" font-size="11.00">bpchar[1]</text>
<polygon fill="none" stroke="black" points="367,-196 367,-218 494,-218 494,-196 367,-196"/>
<text text-anchor="start" x="387" y="-204.2" font-family="Helvetica,sans-Serif" font-size="11.00">updated</text>
<polygon fill="none" stroke="black" points="494,-196 494,-218 577,-218 577,-196 494,-196"/>
<text text-anchor="start" x="497" y="-204.2" font-family="Helvetica,sans-Serif" font-size="11.00">timestamp[29,6]</text>
<polygon fill="none" stroke="black" points="367,-174 367,-196 494,-196 494,-174 367,-174"/>
<text text-anchor="start" x="387" y="-182.2" font-family="Helvetica,sans-Serif" font-size="11.00">updatedby</text>
<polygon fill="none" stroke="black" points="494,-174 494,-196 577,-196 577,-174 494,-174"/>
<text text-anchor="start" x="497" y="-182.2" font-family="Helvetica,sans-Serif" font-size="11.00">numeric[10]</text>
<polygon fill="#ffffff" stroke="transparent" points="367,-156 367,-174 422,-174 422,-156 367,-156"/>
<polygon fill="none" stroke="black" points="367,-156 367,-174 422,-174 422,-156 367,-156"/>
<text text-anchor="start" x="370" y="-162.2" font-family="Helvetica,sans-Serif" font-size="11.00">&lt; 3</text>
<polygon fill="#ffffff" stroke="transparent" points="422,-156 422,-174 494,-174 494,-156 422,-156"/>
<polygon fill="none" stroke="black" points="422,-156 422,-174 494,-174 494,-156 422,-156"/>
<text text-anchor="start" x="458" y="-162.2" font-family="Helvetica,sans-Serif" font-size="11.00">0 rows</text>
<polygon fill="#ffffff" stroke="transparent" points="494,-156 494,-174 577,-174 577,-156 494,-156"/>
<polygon fill="none" stroke="black" points="494,-156 494,-174 577,-174 577,-156 494,-156"/>
<text text-anchor="start" x="558" y="-162.2" font-family="Helvetica,sans-Serif" font-size="11.00">0 &gt;</text>
<polygon fill="none" stroke="black" stroke-width="2" points="366,-155 366,-483 578,-483 578,-155 366,-155"/>
</a>
</g>
</g>
<!-- asp_ref_list&#45;&gt;ad_ref_list -->
<g id="edge2" class="edge">
<title>asp_ref_list:w&#45;&gt;ad_ref_list:e</title>
<path fill="none" stroke="black" d="M351.28,-383C340.29,-383 333.16,-383 317.5,-383"/>
<polygon fill="black" stroke="black" points="358,-383 366,-386.6 362,-383 366,-383 366,-383 366,-383 362,-383 366,-379.4 358,-383 358,-383"/>
<ellipse fill="none" stroke="black" cx="354.8" cy="-383" rx="3.2" ry="3.2"/>
</g>
<!-- asp_ref_list&#45;&gt;ad_reference -->
<g id="edge3" class="edge">
<title>asp_ref_list:w&#45;&gt;ad_reference:e</title>
<path fill="none" stroke="black" d="M351.91,-408.55C342.99,-413.81 338.55,-423.42 324,-427 262.29,-442.18 235.87,-459.07 181,-427 149.73,-408.73 177.22,-356 141,-356"/>
<polygon fill="black" stroke="black" points="358.24,-406.96 366.88,-408.49 362.12,-405.98 366,-405 366,-405 366,-405 362.12,-405.98 365.12,-401.51 358.24,-406.96 358.24,-406.96"/>
<ellipse fill="none" stroke="black" cx="355.14" cy="-407.74" rx="3.2" ry="3.2"/>
</g>
<!-- asp_level -->
<g id="node4" class="node">
<title>asp_level</title>
<g id="a_node4"><a xlink:href="../../tables/asp_level.html" xlink:title="asp_level" target="_top">
<polygon fill="#ffffff" stroke="transparent" points="193,-37 193,-161 312,-161 312,-37 193,-37"/>
<polygon fill="#f5f5f5" stroke="transparent" points="193.5,-139 193.5,-161 312.5,-161 312.5,-139 193.5,-139"/>
<polygon fill="none" stroke="black" points="193.5,-139 193.5,-161 312.5,-161 312.5,-139 193.5,-139"/>
<text text-anchor="start" x="198.5" y="-148.2" font-family="Helvetica,sans-Serif" font-weight="bold" font-size="11.00">asp_level</text>
<text text-anchor="start" x="277.5" y="-147.2" font-family="Helvetica,sans-Serif" font-size="11.00">[table]</text>
<polygon fill="none" stroke="black" points="193.5,-117 193.5,-139 312.5,-139 312.5,-117 193.5,-117"/>
<image xlink:href="../../images/primaryKeys.png" width="11px" height="12px" preserveAspectRatio="xMinYMin meet" x="198.5" y="-134"/>
<text text-anchor="start" x="213.5" y="-125.2" font-family="Helvetica,sans-Serif" font-size="11.00">asp_level_id</text>
<polygon fill="none" stroke="black" points="193.5,-95 193.5,-117 312.5,-117 312.5,-95 193.5,-95"/>
<image xlink:href="../../images/foreignKeys.png" width="11px" height="12px" preserveAspectRatio="xMinYMin meet" x="198.5" y="-112"/>
<text text-anchor="start" x="213.5" y="-103.2" font-family="Helvetica,sans-Serif" font-size="11.00">asp_module_id</text>
<polygon fill="#ffffff" stroke="transparent" points="193.5,-73 193.5,-95 312.5,-95 312.5,-73 193.5,-73"/>
<polygon fill="none" stroke="black" points="193.5,-73 193.5,-95 312.5,-95 312.5,-73 193.5,-73"/>
<text text-anchor="start" x="213.5" y="-81.2" font-family="Helvetica,sans-Serif" font-size="11.00">asp_level_uu</text>
<polygon fill="none" stroke="black" points="193.5,-55 193.5,-73 312.5,-73 312.5,-55 193.5,-55"/>
<text text-anchor="start" x="196.5" y="-61.2" font-family="Helvetica,sans-Serif" font-size="11.00">...</text>
<polygon fill="#ffffff" stroke="transparent" points="193.5,-37 193.5,-55 233.5,-55 233.5,-37 193.5,-37"/>
<polygon fill="none" stroke="black" points="193.5,-37 193.5,-55 233.5,-55 233.5,-37 193.5,-37"/>
<text text-anchor="start" x="196.5" y="-43.2" font-family="Helvetica,sans-Serif" font-size="11.00">&lt; 1</text>
<polygon fill="#ffffff" stroke="transparent" points="233.5,-37 233.5,-55 281.5,-55 281.5,-37 233.5,-37"/>
<polygon fill="none" stroke="black" points="233.5,-37 233.5,-55 281.5,-55 281.5,-37 233.5,-37"/>
<text text-anchor="start" x="245.5" y="-43.2" font-family="Helvetica,sans-Serif" font-size="11.00">0 rows</text>
<polygon fill="#ffffff" stroke="transparent" points="281.5,-37 281.5,-55 312.5,-55 312.5,-37 281.5,-37"/>
<polygon fill="none" stroke="black" points="281.5,-37 281.5,-55 312.5,-55 312.5,-37 281.5,-37"/>
<text text-anchor="start" x="293.5" y="-43.2" font-family="Helvetica,sans-Serif" font-size="11.00">7 &gt;</text>
</a>
</g>
</g>
<!-- asp_ref_list&#45;&gt;asp_level -->
<g id="edge4" class="edge">
<title>asp_ref_list:w&#45;&gt;asp_level:e</title>
<path fill="none" stroke="black" d="M351.35,-359.12C275.96,-337.07 414.05,-128 313.5,-128"/>
<polygon fill="black" stroke="black" points="358.06,-359.98 365.54,-364.57 362.03,-360.49 366,-361 366,-361 366,-361 362.03,-360.49 366.46,-357.43 358.06,-359.98 358.06,-359.98"/>
<ellipse fill="none" stroke="black" cx="354.89" cy="-359.58" rx="3.2" ry="3.2"/>
</g>
</g>
</svg>
