<?xml version="1.0" encoding="UTF-8" standalone="no"?>
<!DOCTYPE svg PUBLIC "-//W3C//DTD SVG 1.1//EN"
 "http://www.w3.org/Graphics/SVG/1.1/DTD/svg11.dtd">
<!-- Generated by graphviz version 2.43.0 (0)
 -->
<!-- Title: oneDegreeRelationshipsDiagram Pages: 1 -->
<svg width="567pt" height="709pt"
 viewBox="0.00 0.00 567.00 709.00" xmlns="http://www.w3.org/2000/svg" xmlns:xlink="http://www.w3.org/1999/xlink">
<g id="graph0" class="graph" transform="scale(1 1) rotate(0) translate(4 705)">
<title>oneDegreeRelationshipsDiagram</title>
<polygon fill="#ffffff" stroke="transparent" points="-4,4 -4,-705 563,-705 563,4 -4,4"/>
<text text-anchor="middle" x="71.5" y="-7.2" font-family="Helvetica,sans-Serif" font-size="11.00">Generated by SchemaSpy</text>
<!-- c_bankstatementloader -->
<g id="node1" class="node">
<title>c_bankstatementloader</title>
<g id="a_node1"><a xlink:href="../../tables/c_bankstatementloader.html" xlink:title="c_bankstatementloader" target="_top">
<polygon fill="#ffffff" stroke="transparent" points="261,-37 261,-697 551,-697 551,-37 261,-37"/>
<polygon fill="#f5f5f5" stroke="transparent" points="263,-673 263,-695 549,-695 549,-673 263,-673"/>
<polygon fill="none" stroke="black" points="263,-673 263,-695 549,-695 549,-673 263,-673"/>
<text text-anchor="start" x="268" y="-682.2" font-family="Helvetica,sans-Serif" font-weight="bold" font-size="11.00">c_bankstatementloader</text>
<text text-anchor="start" x="514" y="-681.2" font-family="Helvetica,sans-Serif" font-size="11.00">[table]</text>
<polygon fill="none" stroke="black" points="263,-651 263,-673 466,-673 466,-651 263,-651"/>
<image xlink:href="../../images/primaryKeys.png" width="11px" height="12px" preserveAspectRatio="xMinYMin meet" x="268" y="-668"/>
<text text-anchor="start" x="283" y="-659.2" font-family="Helvetica,sans-Serif" font-size="11.00">c_bankstatementloader_id</text>
<polygon fill="none" stroke="black" points="466,-651 466,-673 549,-673 549,-651 466,-651"/>
<text text-anchor="start" x="469" y="-659.2" font-family="Helvetica,sans-Serif" font-size="11.00">numeric[10]</text>
<polygon fill="none" stroke="black" points="263,-629 263,-651 466,-651 466,-629 263,-629"/>
<text text-anchor="start" x="283" y="-637.2" font-family="Helvetica,sans-Serif" font-size="11.00">ad_client_id</text>
<polygon fill="none" stroke="black" points="466,-629 466,-651 549,-651 549,-629 466,-629"/>
<text text-anchor="start" x="469" y="-637.2" font-family="Helvetica,sans-Serif" font-size="11.00">numeric[10]</text>
<polygon fill="none" stroke="black" points="263,-607 263,-629 466,-629 466,-607 263,-607"/>
<text text-anchor="start" x="283" y="-615.2" font-family="Helvetica,sans-Serif" font-size="11.00">ad_org_id</text>
<polygon fill="none" stroke="black" points="466,-607 466,-629 549,-629 549,-607 466,-607"/>
<text text-anchor="start" x="469" y="-615.2" font-family="Helvetica,sans-Serif" font-size="11.00">numeric[10]</text>
<polygon fill="none" stroke="black" points="263,-585 263,-607 466,-607 466,-585 263,-585"/>
<text text-anchor="start" x="283" y="-593.2" font-family="Helvetica,sans-Serif" font-size="11.00">isactive</text>
<polygon fill="none" stroke="black" points="466,-585 466,-607 549,-607 549,-585 466,-585"/>
<text text-anchor="start" x="469" y="-593.2" font-family="Helvetica,sans-Serif" font-size="11.00">bpchar[1]</text>
<polygon fill="none" stroke="black" points="263,-563 263,-585 466,-585 466,-563 263,-563"/>
<text text-anchor="start" x="283" y="-571.2" font-family="Helvetica,sans-Serif" font-size="11.00">created</text>
<polygon fill="none" stroke="black" points="466,-563 466,-585 549,-585 549,-563 466,-563"/>
<text text-anchor="start" x="469" y="-571.2" font-family="Helvetica,sans-Serif" font-size="11.00">timestamp[29,6]</text>
<polygon fill="none" stroke="black" points="263,-541 263,-563 466,-563 466,-541 263,-541"/>
<text text-anchor="start" x="283" y="-549.2" font-family="Helvetica,sans-Serif" font-size="11.00">createdby</text>
<polygon fill="none" stroke="black" points="466,-541 466,-563 549,-563 549,-541 466,-541"/>
<text text-anchor="start" x="469" y="-549.2" font-family="Helvetica,sans-Serif" font-size="11.00">numeric[10]</text>
<polygon fill="none" stroke="black" points="263,-519 263,-541 466,-541 466,-519 263,-519"/>
<text text-anchor="start" x="283" y="-527.2" font-family="Helvetica,sans-Serif" font-size="11.00">updated</text>
<polygon fill="none" stroke="black" points="466,-519 466,-541 549,-541 549,-519 466,-519"/>
<text text-anchor="start" x="469" y="-527.2" font-family="Helvetica,sans-Serif" font-size="11.00">timestamp[29,6]</text>
<polygon fill="none" stroke="black" points="263,-497 263,-519 466,-519 466,-497 263,-497"/>
<text text-anchor="start" x="283" y="-505.2" font-family="Helvetica,sans-Serif" font-size="11.00">updatedby</text>
<polygon fill="none" stroke="black" points="466,-497 466,-519 549,-519 549,-497 466,-497"/>
<text text-anchor="start" x="469" y="-505.2" font-family="Helvetica,sans-Serif" font-size="11.00">numeric[10]</text>
<polygon fill="none" stroke="black" points="263,-475 263,-497 466,-497 466,-475 263,-475"/>
<text text-anchor="start" x="283" y="-483.2" font-family="Helvetica,sans-Serif" font-size="11.00">name</text>
<polygon fill="none" stroke="black" points="466,-475 466,-497 549,-497 549,-475 466,-475"/>
<text text-anchor="start" x="469" y="-483.2" font-family="Helvetica,sans-Serif" font-size="11.00">varchar[60]</text>
<polygon fill="none" stroke="black" points="263,-453 263,-475 466,-475 466,-453 263,-453"/>
<text text-anchor="start" x="283" y="-461.2" font-family="Helvetica,sans-Serif" font-size="11.00">description</text>
<polygon fill="none" stroke="black" points="466,-453 466,-475 549,-475 549,-453 466,-453"/>
<text text-anchor="start" x="469" y="-461.2" font-family="Helvetica,sans-Serif" font-size="11.00">varchar[255]</text>
<polygon fill="none" stroke="black" points="263,-431 263,-453 466,-453 466,-431 263,-431"/>
<image xlink:href="../../images/foreignKeys.png" width="11px" height="12px" preserveAspectRatio="xMinYMin meet" x="268" y="-448"/>
<text text-anchor="start" x="283" y="-439.2" font-family="Helvetica,sans-Serif" font-size="11.00">c_bankaccount_id</text>
<polygon fill="none" stroke="black" points="466,-431 466,-453 549,-453 549,-431 466,-431"/>
<text text-anchor="start" x="469" y="-439.2" font-family="Helvetica,sans-Serif" font-size="11.00">numeric[10]</text>
<polygon fill="none" stroke="black" points="263,-409 263,-431 466,-431 466,-409 263,-409"/>
<text text-anchor="start" x="283" y="-417.2" font-family="Helvetica,sans-Serif" font-size="11.00">stmtloaderclass</text>
<polygon fill="none" stroke="black" points="466,-409 466,-431 549,-431 549,-409 466,-409"/>
<text text-anchor="start" x="469" y="-417.2" font-family="Helvetica,sans-Serif" font-size="11.00">varchar[60]</text>
<polygon fill="none" stroke="black" points="263,-387 263,-409 466,-409 466,-387 263,-387"/>
<text text-anchor="start" x="283" y="-395.2" font-family="Helvetica,sans-Serif" font-size="11.00">financialinstitutionid</text>
<polygon fill="none" stroke="black" points="466,-387 466,-409 549,-409 549,-387 466,-387"/>
<text text-anchor="start" x="469" y="-395.2" font-family="Helvetica,sans-Serif" font-size="11.00">varchar[20]</text>
<polygon fill="none" stroke="black" points="263,-365 263,-387 466,-387 466,-365 263,-365"/>
<text text-anchor="start" x="283" y="-373.2" font-family="Helvetica,sans-Serif" font-size="11.00">branchid</text>
<polygon fill="none" stroke="black" points="466,-365 466,-387 549,-387 549,-365 466,-365"/>
<text text-anchor="start" x="469" y="-373.2" font-family="Helvetica,sans-Serif" font-size="11.00">varchar[20]</text>
<polygon fill="none" stroke="black" points="263,-343 263,-365 466,-365 466,-343 263,-343"/>
<text text-anchor="start" x="283" y="-351.2" font-family="Helvetica,sans-Serif" font-size="11.00">userid</text>
<polygon fill="none" stroke="black" points="466,-343 466,-365 549,-365 549,-343 466,-343"/>
<text text-anchor="start" x="469" y="-351.2" font-family="Helvetica,sans-Serif" font-size="11.00">varchar[60]</text>
<polygon fill="none" stroke="black" points="263,-321 263,-343 466,-343 466,-321 263,-321"/>
<text text-anchor="start" x="283" y="-329.2" font-family="Helvetica,sans-Serif" font-size="11.00">password</text>
<polygon fill="none" stroke="black" points="466,-321 466,-343 549,-343 549,-321 466,-321"/>
<text text-anchor="start" x="469" y="-329.2" font-family="Helvetica,sans-Serif" font-size="11.00">varchar[60]</text>
<polygon fill="none" stroke="black" points="263,-299 263,-321 466,-321 466,-299 263,-299"/>
<text text-anchor="start" x="283" y="-307.2" font-family="Helvetica,sans-Serif" font-size="11.00">pin</text>
<polygon fill="none" stroke="black" points="466,-299 466,-321 549,-321 549,-299 466,-299"/>
<text text-anchor="start" x="469" y="-307.2" font-family="Helvetica,sans-Serif" font-size="11.00">varchar[20]</text>
<polygon fill="none" stroke="black" points="263,-277 263,-299 466,-299 466,-277 263,-277"/>
<text text-anchor="start" x="283" y="-285.2" font-family="Helvetica,sans-Serif" font-size="11.00">accountno</text>
<polygon fill="none" stroke="black" points="466,-277 466,-299 549,-299 549,-277 466,-277"/>
<text text-anchor="start" x="469" y="-285.2" font-family="Helvetica,sans-Serif" font-size="11.00">varchar[20]</text>
<polygon fill="none" stroke="black" points="263,-255 263,-277 466,-277 466,-255 263,-255"/>
<text text-anchor="start" x="283" y="-263.2" font-family="Helvetica,sans-Serif" font-size="11.00">hostaddress</text>
<polygon fill="none" stroke="black" points="466,-255 466,-277 549,-277 549,-255 466,-255"/>
<text text-anchor="start" x="469" y="-263.2" font-family="Helvetica,sans-Serif" font-size="11.00">varchar[60]</text>
<polygon fill="none" stroke="black" points="263,-233 263,-255 466,-255 466,-233 263,-233"/>
<text text-anchor="start" x="283" y="-241.2" font-family="Helvetica,sans-Serif" font-size="11.00">hostport</text>
<polygon fill="none" stroke="black" points="466,-233 466,-255 549,-255 549,-233 466,-233"/>
<text text-anchor="start" x="469" y="-241.2" font-family="Helvetica,sans-Serif" font-size="11.00">numeric[10]</text>
<polygon fill="none" stroke="black" points="263,-211 263,-233 466,-233 466,-211 263,-211"/>
<text text-anchor="start" x="283" y="-219.2" font-family="Helvetica,sans-Serif" font-size="11.00">proxyaddress</text>
<polygon fill="none" stroke="black" points="466,-211 466,-233 549,-233 549,-211 466,-211"/>
<text text-anchor="start" x="469" y="-219.2" font-family="Helvetica,sans-Serif" font-size="11.00">varchar[60]</text>
<polygon fill="none" stroke="black" points="263,-189 263,-211 466,-211 466,-189 263,-189"/>
<text text-anchor="start" x="283" y="-197.2" font-family="Helvetica,sans-Serif" font-size="11.00">proxyport</text>
<polygon fill="none" stroke="black" points="466,-189 466,-211 549,-211 549,-189 466,-189"/>
<text text-anchor="start" x="469" y="-197.2" font-family="Helvetica,sans-Serif" font-size="11.00">numeric[10]</text>
<polygon fill="none" stroke="black" points="263,-167 263,-189 466,-189 466,-167 263,-167"/>
<text text-anchor="start" x="283" y="-175.2" font-family="Helvetica,sans-Serif" font-size="11.00">proxylogon</text>
<polygon fill="none" stroke="black" points="466,-167 466,-189 549,-189 549,-167 466,-167"/>
<text text-anchor="start" x="469" y="-175.2" font-family="Helvetica,sans-Serif" font-size="11.00">varchar[60]</text>
<polygon fill="none" stroke="black" points="263,-145 263,-167 466,-167 466,-145 263,-145"/>
<text text-anchor="start" x="283" y="-153.2" font-family="Helvetica,sans-Serif" font-size="11.00">proxypassword</text>
<polygon fill="none" stroke="black" points="466,-145 466,-167 549,-167 549,-145 466,-145"/>
<text text-anchor="start" x="469" y="-153.2" font-family="Helvetica,sans-Serif" font-size="11.00">varchar[60]</text>
<polygon fill="none" stroke="black" points="263,-123 263,-145 466,-145 466,-123 263,-123"/>
<text text-anchor="start" x="283" y="-131.2" font-family="Helvetica,sans-Serif" font-size="11.00">filename</text>
<polygon fill="none" stroke="black" points="466,-123 466,-145 549,-145 549,-123 466,-123"/>
<text text-anchor="start" x="469" y="-131.2" font-family="Helvetica,sans-Serif" font-size="11.00">varchar[120]</text>
<polygon fill="none" stroke="black" points="263,-101 263,-123 466,-123 466,-101 263,-101"/>
<text text-anchor="start" x="283" y="-109.2" font-family="Helvetica,sans-Serif" font-size="11.00">datelastrun</text>
<polygon fill="none" stroke="black" points="466,-101 466,-123 549,-123 549,-101 466,-101"/>
<text text-anchor="start" x="469" y="-109.2" font-family="Helvetica,sans-Serif" font-size="11.00">timestamp[29,6]</text>
<polygon fill="none" stroke="black" points="263,-79 263,-101 466,-101 466,-79 263,-79"/>
<text text-anchor="start" x="283" y="-87.2" font-family="Helvetica,sans-Serif" font-size="11.00">dateformat</text>
<polygon fill="none" stroke="black" points="466,-79 466,-101 549,-101 549,-79 466,-79"/>
<text text-anchor="start" x="469" y="-87.2" font-family="Helvetica,sans-Serif" font-size="11.00">varchar[20]</text>
<polygon fill="#ffffff" stroke="transparent" points="263,-57 263,-79 466,-79 466,-57 263,-57"/>
<polygon fill="none" stroke="black" points="263,-57 263,-79 466,-79 466,-57 263,-57"/>
<text text-anchor="start" x="283" y="-65.2" font-family="Helvetica,sans-Serif" font-size="11.00">c_bankstatementloader_uu</text>
<polygon fill="none" stroke="black" points="466,-57 466,-79 549,-79 549,-57 466,-57"/>
<text text-anchor="start" x="469" y="-65.2" font-family="Helvetica,sans-Serif" font-size="11.00">varchar[36]</text>
<polygon fill="#ffffff" stroke="transparent" points="263,-39 263,-57 356,-57 356,-39 263,-39"/>
<polygon fill="none" stroke="black" points="263,-39 263,-57 356,-57 356,-39 263,-39"/>
<text text-anchor="start" x="266" y="-45.2" font-family="Helvetica,sans-Serif" font-size="11.00">&lt; 1</text>
<polygon fill="#ffffff" stroke="transparent" points="356,-39 356,-57 466,-57 466,-39 356,-39"/>
<polygon fill="none" stroke="black" points="356,-39 356,-57 466,-57 466,-39 356,-39"/>
<text text-anchor="start" x="430" y="-45.2" font-family="Helvetica,sans-Serif" font-size="11.00">0 rows</text>
<polygon fill="#ffffff" stroke="transparent" points="466,-39 466,-57 549,-57 549,-39 466,-39"/>
<polygon fill="none" stroke="black" points="466,-39 466,-57 549,-57 549,-39 466,-39"/>
<text text-anchor="start" x="530" y="-45.2" font-family="Helvetica,sans-Serif" font-size="11.00">0 &gt;</text>
<polygon fill="none" stroke="black" stroke-width="2" points="262,-38 262,-696 550,-696 550,-38 262,-38"/>
</a>
</g>
</g>
<!-- c_bankaccount -->
<g id="node2" class="node">
<title>c_bankaccount</title>
<g id="a_node2"><a xlink:href="../../tables/c_bankaccount.html" xlink:title="c_bankaccount" target="_top">
<polygon fill="#ffffff" stroke="transparent" points="8,-285 8,-475 212,-475 212,-285 8,-285"/>
<polygon fill="#f5f5f5" stroke="transparent" points="8,-453 8,-475 212,-475 212,-453 8,-453"/>
<polygon fill="none" stroke="black" points="8,-453 8,-475 212,-475 212,-453 8,-453"/>
<text text-anchor="start" x="13" y="-462.2" font-family="Helvetica,sans-Serif" font-weight="bold" font-size="11.00">c_bankaccount</text>
<text text-anchor="start" x="177" y="-461.2" font-family="Helvetica,sans-Serif" font-size="11.00">[table]</text>
<polygon fill="none" stroke="black" points="8,-431 8,-453 212,-453 212,-431 8,-431"/>
<image xlink:href="../../images/primaryKeys.png" width="11px" height="12px" preserveAspectRatio="xMinYMin meet" x="13" y="-448"/>
<text text-anchor="start" x="28" y="-439.2" font-family="Helvetica,sans-Serif" font-size="11.00">c_bankaccount_id</text>
<polygon fill="#ffffff" stroke="transparent" points="8,-409 8,-431 212,-431 212,-409 8,-409"/>
<polygon fill="none" stroke="black" points="8,-409 8,-431 212,-431 212,-409 8,-409"/>
<image xlink:href="../../images/foreignKeys.png" width="11px" height="12px" preserveAspectRatio="xMinYMin meet" x="13" y="-426"/>
<text text-anchor="start" x="28" y="-417.2" font-family="Helvetica,sans-Serif" font-size="11.00">c_bank_id</text>
<polygon fill="none" stroke="black" points="8,-387 8,-409 212,-409 212,-387 8,-387"/>
<image xlink:href="../../images/foreignKeys.png" width="11px" height="12px" preserveAspectRatio="xMinYMin meet" x="13" y="-404"/>
<text text-anchor="start" x="28" y="-395.2" font-family="Helvetica,sans-Serif" font-size="11.00">c_currency_id</text>
<polygon fill="#ffffff" stroke="transparent" points="8,-365 8,-387 212,-387 212,-365 8,-365"/>
<polygon fill="none" stroke="black" points="8,-365 8,-387 212,-387 212,-365 8,-365"/>
<text text-anchor="start" x="28" y="-373.2" font-family="Helvetica,sans-Serif" font-size="11.00">c_bankaccount_uu</text>
<polygon fill="none" stroke="black" points="8,-343 8,-365 212,-365 212,-343 8,-343"/>
<image xlink:href="../../images/foreignKeys.png" width="11px" height="12px" preserveAspectRatio="xMinYMin meet" x="13" y="-360"/>
<text text-anchor="start" x="28" y="-351.2" font-family="Helvetica,sans-Serif" font-size="11.00">user2_id</text>
<polygon fill="none" stroke="black" points="8,-321 8,-343 212,-343 212,-321 8,-321"/>
<image xlink:href="../../images/foreignKeys.png" width="11px" height="12px" preserveAspectRatio="xMinYMin meet" x="13" y="-338"/>
<text text-anchor="start" x="28" y="-329.2" font-family="Helvetica,sans-Serif" font-size="11.00">cof_user2_id</text>
<polygon fill="none" stroke="black" points="8,-303 8,-321 212,-321 212,-303 8,-303"/>
<text text-anchor="start" x="11" y="-309.2" font-family="Helvetica,sans-Serif" font-size="11.00">...</text>
<polygon fill="#ffffff" stroke="transparent" points="8,-285 8,-303 87,-303 87,-285 8,-285"/>
<polygon fill="none" stroke="black" points="8,-285 8,-303 87,-303 87,-285 8,-285"/>
<text text-anchor="start" x="11" y="-291.2" font-family="Helvetica,sans-Serif" font-size="11.00">&lt; 4</text>
<polygon fill="#ffffff" stroke="transparent" points="87,-285 87,-303 155,-303 155,-285 87,-285"/>
<polygon fill="none" stroke="black" points="87,-285 87,-303 155,-303 155,-285 87,-285"/>
<text text-anchor="start" x="119" y="-291.2" font-family="Helvetica,sans-Serif" font-size="11.00">6 rows</text>
<polygon fill="#ffffff" stroke="transparent" points="155,-285 155,-303 212,-303 212,-285 155,-285"/>
<polygon fill="none" stroke="black" points="155,-285 155,-303 212,-303 212,-285 155,-285"/>
<text text-anchor="start" x="187" y="-291.2" font-family="Helvetica,sans-Serif" font-size="11.00">27 &gt;</text>
</a>
</g>
</g>
<!-- c_bankstatementloader&#45;&gt;c_bankaccount -->
<g id="edge1" class="edge">
<title>c_bankstatementloader:w&#45;&gt;c_bankaccount:e</title>
<path fill="none" stroke="black" d="M247.49,-442C236.18,-442 228.99,-442 213,-442"/>
<polygon fill="black" stroke="black" points="254,-442 262,-445.6 258,-442 262,-442 262,-442 262,-442 258,-442 262,-438.4 254,-442 254,-442"/>
<ellipse fill="none" stroke="black" cx="250.8" cy="-442" rx="3.2" ry="3.2"/>
</g>
</g>
</svg>
