<?xml version="1.0" encoding="UTF-8" standalone="no"?>
<!DOCTYPE svg PUBLIC "-//W3C//DTD SVG 1.1//EN"
 "http://www.w3.org/Graphics/SVG/1.1/DTD/svg11.dtd">
<!-- Generated by graphviz version 2.43.0 (0)
 -->
<!-- Title: oneDegreeRelationshipsDiagram Pages: 1 -->
<svg width="820pt" height="1537pt"
 viewBox="0.00 0.00 820.00 1537.00" xmlns="http://www.w3.org/2000/svg" xmlns:xlink="http://www.w3.org/1999/xlink">
<g id="graph0" class="graph" transform="scale(1 1) rotate(0) translate(4 1533)">
<title>oneDegreeRelationshipsDiagram</title>
<polygon fill="#ffffff" stroke="transparent" points="-4,4 -4,-1533 816,-1533 816,4 -4,4"/>
<text text-anchor="middle" x="71.5" y="-7.2" font-family="Helvetica,sans-Serif" font-size="11.00">Generated by SchemaSpy</text>
<!-- c_commissionamt -->
<g id="node1" class="node">
<title>c_commissionamt</title>
<g id="a_node1"><a xlink:href="../../tables/c_commissionamt.html" xlink:title="c_commissionamt" target="_top">
<polygon fill="#ffffff" stroke="transparent" points="641,-1379 641,-1525 804,-1525 804,-1379 641,-1379"/>
<polygon fill="#f5f5f5" stroke="transparent" points="641.5,-1503 641.5,-1525 804.5,-1525 804.5,-1503 641.5,-1503"/>
<polygon fill="none" stroke="black" points="641.5,-1503 641.5,-1525 804.5,-1525 804.5,-1503 641.5,-1503"/>
<text text-anchor="start" x="646.5" y="-1512.2" font-family="Helvetica,sans-Serif" font-weight="bold" font-size="11.00">c_commissionamt</text>
<text text-anchor="start" x="769.5" y="-1511.2" font-family="Helvetica,sans-Serif" font-size="11.00">[table]</text>
<polygon fill="none" stroke="black" points="641.5,-1481 641.5,-1503 804.5,-1503 804.5,-1481 641.5,-1481"/>
<image xlink:href="../../images/primaryKeys.png" width="11px" height="12px" preserveAspectRatio="xMinYMin meet" x="646.5" y="-1498"/>
<text text-anchor="start" x="661.5" y="-1489.2" font-family="Helvetica,sans-Serif" font-size="11.00">c_commissionamt_id</text>
<polygon fill="#ffffff" stroke="transparent" points="641.5,-1459 641.5,-1481 804.5,-1481 804.5,-1459 641.5,-1459"/>
<polygon fill="none" stroke="black" points="641.5,-1459 641.5,-1481 804.5,-1481 804.5,-1459 641.5,-1459"/>
<image xlink:href="../../images/foreignKeys.png" width="11px" height="12px" preserveAspectRatio="xMinYMin meet" x="646.5" y="-1476"/>
<text text-anchor="start" x="661.5" y="-1467.2" font-family="Helvetica,sans-Serif" font-size="11.00">c_commissionrun_id</text>
<polygon fill="#ffffff" stroke="transparent" points="641.5,-1437 641.5,-1459 804.5,-1459 804.5,-1437 641.5,-1437"/>
<polygon fill="none" stroke="black" points="641.5,-1437 641.5,-1459 804.5,-1459 804.5,-1437 641.5,-1437"/>
<image xlink:href="../../images/foreignKeys.png" width="11px" height="12px" preserveAspectRatio="xMinYMin meet" x="646.5" y="-1454"/>
<text text-anchor="start" x="661.5" y="-1445.2" font-family="Helvetica,sans-Serif" font-size="11.00">c_commissionline_id</text>
<polygon fill="#ffffff" stroke="transparent" points="641.5,-1415 641.5,-1437 804.5,-1437 804.5,-1415 641.5,-1415"/>
<polygon fill="none" stroke="black" points="641.5,-1415 641.5,-1437 804.5,-1437 804.5,-1415 641.5,-1415"/>
<text text-anchor="start" x="661.5" y="-1423.2" font-family="Helvetica,sans-Serif" font-size="11.00">c_commissionamt_uu</text>
<polygon fill="none" stroke="black" points="641.5,-1397 641.5,-1415 804.5,-1415 804.5,-1397 641.5,-1397"/>
<text text-anchor="start" x="644.5" y="-1403.2" font-family="Helvetica,sans-Serif" font-size="11.00">...</text>
<polygon fill="#ffffff" stroke="transparent" points="641.5,-1379 641.5,-1397 703.5,-1397 703.5,-1379 641.5,-1379"/>
<polygon fill="none" stroke="black" points="641.5,-1379 641.5,-1397 703.5,-1397 703.5,-1379 641.5,-1379"/>
<text text-anchor="start" x="644.5" y="-1385.2" font-family="Helvetica,sans-Serif" font-size="11.00">&lt; 2</text>
<polygon fill="#ffffff" stroke="transparent" points="703.5,-1379 703.5,-1397 762.5,-1397 762.5,-1379 703.5,-1379"/>
<polygon fill="none" stroke="black" points="703.5,-1379 703.5,-1397 762.5,-1397 762.5,-1379 703.5,-1379"/>
<text text-anchor="start" x="726.5" y="-1385.2" font-family="Helvetica,sans-Serif" font-size="11.00">0 rows</text>
<polygon fill="#ffffff" stroke="transparent" points="762.5,-1379 762.5,-1397 804.5,-1397 804.5,-1379 762.5,-1379"/>
<polygon fill="none" stroke="black" points="762.5,-1379 762.5,-1397 804.5,-1397 804.5,-1379 762.5,-1379"/>
<text text-anchor="start" x="785.5" y="-1385.2" font-family="Helvetica,sans-Serif" font-size="11.00">1 &gt;</text>
</a>
</g>
</g>
<!-- c_commissionrun -->
<g id="node2" class="node">
<title>c_commissionrun</title>
<g id="a_node2"><a xlink:href="../../tables/c_commissionrun.html" xlink:title="c_commissionrun" target="_top">
<polygon fill="#ffffff" stroke="transparent" points="346,-1065 346,-1505 592,-1505 592,-1065 346,-1065"/>
<polygon fill="#f5f5f5" stroke="transparent" points="348,-1481 348,-1503 590,-1503 590,-1481 348,-1481"/>
<polygon fill="none" stroke="black" points="348,-1481 348,-1503 590,-1503 590,-1481 348,-1481"/>
<text text-anchor="start" x="353" y="-1490.2" font-family="Helvetica,sans-Serif" font-weight="bold" font-size="11.00">c_commissionrun</text>
<text text-anchor="start" x="555" y="-1489.2" font-family="Helvetica,sans-Serif" font-size="11.00">[table]</text>
<polygon fill="none" stroke="black" points="348,-1459 348,-1481 507,-1481 507,-1459 348,-1459"/>
<image xlink:href="../../images/primaryKeys.png" width="11px" height="12px" preserveAspectRatio="xMinYMin meet" x="353" y="-1476"/>
<text text-anchor="start" x="368" y="-1467.2" font-family="Helvetica,sans-Serif" font-size="11.00">c_commissionrun_id</text>
<polygon fill="none" stroke="black" points="507,-1459 507,-1481 590,-1481 590,-1459 507,-1459"/>
<text text-anchor="start" x="510" y="-1467.2" font-family="Helvetica,sans-Serif" font-size="11.00">numeric[10]</text>
<polygon fill="none" stroke="black" points="348,-1437 348,-1459 507,-1459 507,-1437 348,-1437"/>
<text text-anchor="start" x="368" y="-1445.2" font-family="Helvetica,sans-Serif" font-size="11.00">ad_client_id</text>
<polygon fill="none" stroke="black" points="507,-1437 507,-1459 590,-1459 590,-1437 507,-1437"/>
<text text-anchor="start" x="510" y="-1445.2" font-family="Helvetica,sans-Serif" font-size="11.00">numeric[10]</text>
<polygon fill="none" stroke="black" points="348,-1415 348,-1437 507,-1437 507,-1415 348,-1415"/>
<text text-anchor="start" x="368" y="-1423.2" font-family="Helvetica,sans-Serif" font-size="11.00">ad_org_id</text>
<polygon fill="none" stroke="black" points="507,-1415 507,-1437 590,-1437 590,-1415 507,-1415"/>
<text text-anchor="start" x="510" y="-1423.2" font-family="Helvetica,sans-Serif" font-size="11.00">numeric[10]</text>
<polygon fill="none" stroke="black" points="348,-1393 348,-1415 507,-1415 507,-1393 348,-1393"/>
<text text-anchor="start" x="368" y="-1401.2" font-family="Helvetica,sans-Serif" font-size="11.00">isactive</text>
<polygon fill="none" stroke="black" points="507,-1393 507,-1415 590,-1415 590,-1393 507,-1393"/>
<text text-anchor="start" x="510" y="-1401.2" font-family="Helvetica,sans-Serif" font-size="11.00">bpchar[1]</text>
<polygon fill="none" stroke="black" points="348,-1371 348,-1393 507,-1393 507,-1371 348,-1371"/>
<text text-anchor="start" x="368" y="-1379.2" font-family="Helvetica,sans-Serif" font-size="11.00">created</text>
<polygon fill="none" stroke="black" points="507,-1371 507,-1393 590,-1393 590,-1371 507,-1371"/>
<text text-anchor="start" x="510" y="-1379.2" font-family="Helvetica,sans-Serif" font-size="11.00">timestamp[29,6]</text>
<polygon fill="none" stroke="black" points="348,-1349 348,-1371 507,-1371 507,-1349 348,-1349"/>
<text text-anchor="start" x="368" y="-1357.2" font-family="Helvetica,sans-Serif" font-size="11.00">createdby</text>
<polygon fill="none" stroke="black" points="507,-1349 507,-1371 590,-1371 590,-1349 507,-1349"/>
<text text-anchor="start" x="510" y="-1357.2" font-family="Helvetica,sans-Serif" font-size="11.00">numeric[10]</text>
<polygon fill="none" stroke="black" points="348,-1327 348,-1349 507,-1349 507,-1327 348,-1327"/>
<text text-anchor="start" x="368" y="-1335.2" font-family="Helvetica,sans-Serif" font-size="11.00">updated</text>
<polygon fill="none" stroke="black" points="507,-1327 507,-1349 590,-1349 590,-1327 507,-1327"/>
<text text-anchor="start" x="510" y="-1335.2" font-family="Helvetica,sans-Serif" font-size="11.00">timestamp[29,6]</text>
<polygon fill="none" stroke="black" points="348,-1305 348,-1327 507,-1327 507,-1305 348,-1305"/>
<text text-anchor="start" x="368" y="-1313.2" font-family="Helvetica,sans-Serif" font-size="11.00">updatedby</text>
<polygon fill="none" stroke="black" points="507,-1305 507,-1327 590,-1327 590,-1305 507,-1305"/>
<text text-anchor="start" x="510" y="-1313.2" font-family="Helvetica,sans-Serif" font-size="11.00">numeric[10]</text>
<polygon fill="none" stroke="black" points="348,-1283 348,-1305 507,-1305 507,-1283 348,-1283"/>
<text text-anchor="start" x="368" y="-1291.2" font-family="Helvetica,sans-Serif" font-size="11.00">documentno</text>
<polygon fill="none" stroke="black" points="507,-1283 507,-1305 590,-1305 590,-1283 507,-1283"/>
<text text-anchor="start" x="510" y="-1291.2" font-family="Helvetica,sans-Serif" font-size="11.00">varchar[30]</text>
<polygon fill="none" stroke="black" points="348,-1261 348,-1283 507,-1283 507,-1261 348,-1261"/>
<text text-anchor="start" x="368" y="-1269.2" font-family="Helvetica,sans-Serif" font-size="11.00">description</text>
<polygon fill="none" stroke="black" points="507,-1261 507,-1283 590,-1283 590,-1261 507,-1261"/>
<text text-anchor="start" x="510" y="-1269.2" font-family="Helvetica,sans-Serif" font-size="11.00">varchar[255]</text>
<polygon fill="none" stroke="black" points="348,-1239 348,-1261 507,-1261 507,-1239 348,-1239"/>
<image xlink:href="../../images/foreignKeys.png" width="11px" height="12px" preserveAspectRatio="xMinYMin meet" x="353" y="-1256"/>
<text text-anchor="start" x="368" y="-1247.2" font-family="Helvetica,sans-Serif" font-size="11.00">c_commission_id</text>
<polygon fill="none" stroke="black" points="507,-1239 507,-1261 590,-1261 590,-1239 507,-1239"/>
<text text-anchor="start" x="510" y="-1247.2" font-family="Helvetica,sans-Serif" font-size="11.00">numeric[10]</text>
<polygon fill="none" stroke="black" points="348,-1217 348,-1239 507,-1239 507,-1217 348,-1217"/>
<text text-anchor="start" x="368" y="-1225.2" font-family="Helvetica,sans-Serif" font-size="11.00">startdate</text>
<polygon fill="none" stroke="black" points="507,-1217 507,-1239 590,-1239 590,-1217 507,-1217"/>
<text text-anchor="start" x="510" y="-1225.2" font-family="Helvetica,sans-Serif" font-size="11.00">timestamp[29,6]</text>
<polygon fill="none" stroke="black" points="348,-1195 348,-1217 507,-1217 507,-1195 348,-1195"/>
<text text-anchor="start" x="368" y="-1203.2" font-family="Helvetica,sans-Serif" font-size="11.00">grandtotal</text>
<polygon fill="none" stroke="black" points="507,-1195 507,-1217 590,-1217 590,-1195 507,-1195"/>
<text text-anchor="start" x="510" y="-1203.2" font-family="Helvetica,sans-Serif" font-size="11.00">numeric[0]</text>
<polygon fill="none" stroke="black" points="348,-1173 348,-1195 507,-1195 507,-1173 348,-1173"/>
<text text-anchor="start" x="368" y="-1181.2" font-family="Helvetica,sans-Serif" font-size="11.00">processing</text>
<polygon fill="none" stroke="black" points="507,-1173 507,-1195 590,-1195 590,-1173 507,-1173"/>
<text text-anchor="start" x="510" y="-1181.2" font-family="Helvetica,sans-Serif" font-size="11.00">bpchar[1]</text>
<polygon fill="none" stroke="black" points="348,-1151 348,-1173 507,-1173 507,-1151 348,-1151"/>
<text text-anchor="start" x="368" y="-1159.2" font-family="Helvetica,sans-Serif" font-size="11.00">processed</text>
<polygon fill="none" stroke="black" points="507,-1151 507,-1173 590,-1173 590,-1151 507,-1151"/>
<text text-anchor="start" x="510" y="-1159.2" font-family="Helvetica,sans-Serif" font-size="11.00">bpchar[1]</text>
<polygon fill="#ffffff" stroke="transparent" points="348,-1129 348,-1151 507,-1151 507,-1129 348,-1129"/>
<polygon fill="none" stroke="black" points="348,-1129 348,-1151 507,-1151 507,-1129 348,-1129"/>
<text text-anchor="start" x="368" y="-1137.2" font-family="Helvetica,sans-Serif" font-size="11.00">c_commissionrun_uu</text>
<polygon fill="none" stroke="black" points="507,-1129 507,-1151 590,-1151 590,-1129 507,-1129"/>
<text text-anchor="start" x="510" y="-1137.2" font-family="Helvetica,sans-Serif" font-size="11.00">varchar[36]</text>
<polygon fill="none" stroke="black" points="348,-1107 348,-1129 507,-1129 507,-1107 348,-1107"/>
<image xlink:href="../../images/foreignKeys.png" width="11px" height="12px" preserveAspectRatio="xMinYMin meet" x="353" y="-1124"/>
<text text-anchor="start" x="368" y="-1115.2" font-family="Helvetica,sans-Serif" font-size="11.00">cof_invoice_id</text>
<polygon fill="none" stroke="black" points="507,-1107 507,-1129 590,-1129 590,-1107 507,-1107"/>
<text text-anchor="start" x="510" y="-1115.2" font-family="Helvetica,sans-Serif" font-size="11.00">numeric[10]</text>
<polygon fill="none" stroke="black" points="348,-1085 348,-1107 507,-1107 507,-1085 348,-1085"/>
<image xlink:href="../../images/foreignKeys.png" width="11px" height="12px" preserveAspectRatio="xMinYMin meet" x="353" y="-1102"/>
<text text-anchor="start" x="368" y="-1093.2" font-family="Helvetica,sans-Serif" font-size="11.00">c_invoice_id</text>
<polygon fill="none" stroke="black" points="507,-1085 507,-1107 590,-1107 590,-1085 507,-1085"/>
<text text-anchor="start" x="510" y="-1093.2" font-family="Helvetica,sans-Serif" font-size="11.00">numeric[10]</text>
<polygon fill="#ffffff" stroke="transparent" points="348,-1067 348,-1085 419,-1085 419,-1067 348,-1067"/>
<polygon fill="none" stroke="black" points="348,-1067 348,-1085 419,-1085 419,-1067 348,-1067"/>
<text text-anchor="start" x="351" y="-1073.2" font-family="Helvetica,sans-Serif" font-size="11.00">&lt; 3</text>
<polygon fill="#ffffff" stroke="transparent" points="419,-1067 419,-1085 507,-1085 507,-1067 419,-1067"/>
<polygon fill="none" stroke="black" points="419,-1067 419,-1085 507,-1085 507,-1067 419,-1067"/>
<text text-anchor="start" x="471" y="-1073.2" font-family="Helvetica,sans-Serif" font-size="11.00">0 rows</text>
<polygon fill="#ffffff" stroke="transparent" points="507,-1067 507,-1085 590,-1085 590,-1067 507,-1067"/>
<polygon fill="none" stroke="black" points="507,-1067 507,-1085 590,-1085 590,-1067 507,-1067"/>
<text text-anchor="start" x="571" y="-1073.2" font-family="Helvetica,sans-Serif" font-size="11.00">1 &gt;</text>
<polygon fill="none" stroke="black" stroke-width="2" points="347,-1066 347,-1504 591,-1504 591,-1066 347,-1066"/>
</a>
</g>
</g>
<!-- c_commissionamt&#45;&gt;c_commissionrun -->
<g id="edge1" class="edge">
<title>c_commissionamt:w&#45;&gt;c_commissionrun:e</title>
<path fill="none" stroke="black" d="M625.84,-1470C614.41,-1470 607.16,-1470 591,-1470"/>
<polygon fill="black" stroke="black" points="632.5,-1470 640.5,-1473.6 636.5,-1470 640.5,-1470 640.5,-1470 640.5,-1470 636.5,-1470 640.5,-1466.4 632.5,-1470 632.5,-1470"/>
<ellipse fill="none" stroke="black" cx="629.3" cy="-1470" rx="3.2" ry="3.2"/>
</g>
<!-- c_commission -->
<g id="node3" class="node">
<title>c_commission</title>
<g id="a_node3"><a xlink:href="../../tables/c_commission.html" xlink:title="c_commission" target="_top">
<polygon fill="#ffffff" stroke="transparent" points="84.5,-1150 84.5,-1340 220.5,-1340 220.5,-1150 84.5,-1150"/>
<polygon fill="#f5f5f5" stroke="transparent" points="84.5,-1318 84.5,-1340 220.5,-1340 220.5,-1318 84.5,-1318"/>
<polygon fill="none" stroke="black" points="84.5,-1318 84.5,-1340 220.5,-1340 220.5,-1318 84.5,-1318"/>
<text text-anchor="start" x="89.5" y="-1327.2" font-family="Helvetica,sans-Serif" font-weight="bold" font-size="11.00">c_commission</text>
<text text-anchor="start" x="185.5" y="-1326.2" font-family="Helvetica,sans-Serif" font-size="11.00">[table]</text>
<polygon fill="none" stroke="black" points="84.5,-1296 84.5,-1318 220.5,-1318 220.5,-1296 84.5,-1296"/>
<image xlink:href="../../images/primaryKeys.png" width="11px" height="12px" preserveAspectRatio="xMinYMin meet" x="89.5" y="-1313"/>
<text text-anchor="start" x="104.5" y="-1304.2" font-family="Helvetica,sans-Serif" font-size="11.00">c_commission_id</text>
<polygon fill="none" stroke="black" points="84.5,-1274 84.5,-1296 220.5,-1296 220.5,-1274 84.5,-1274"/>
<image xlink:href="../../images/foreignKeys.png" width="11px" height="12px" preserveAspectRatio="xMinYMin meet" x="89.5" y="-1291"/>
<text text-anchor="start" x="104.5" y="-1282.2" font-family="Helvetica,sans-Serif" font-size="11.00">c_bpartner_id</text>
<polygon fill="none" stroke="black" points="84.5,-1252 84.5,-1274 220.5,-1274 220.5,-1252 84.5,-1252"/>
<image xlink:href="../../images/foreignKeys.png" width="11px" height="12px" preserveAspectRatio="xMinYMin meet" x="89.5" y="-1269"/>
<text text-anchor="start" x="104.5" y="-1260.2" font-family="Helvetica,sans-Serif" font-size="11.00">c_currency_id</text>
<polygon fill="none" stroke="black" points="84.5,-1230 84.5,-1252 220.5,-1252 220.5,-1230 84.5,-1230"/>
<image xlink:href="../../images/foreignKeys.png" width="11px" height="12px" preserveAspectRatio="xMinYMin meet" x="89.5" y="-1247"/>
<text text-anchor="start" x="104.5" y="-1238.2" font-family="Helvetica,sans-Serif" font-size="11.00">c_charge_id</text>
<polygon fill="#ffffff" stroke="transparent" points="84.5,-1208 84.5,-1230 220.5,-1230 220.5,-1208 84.5,-1208"/>
<polygon fill="none" stroke="black" points="84.5,-1208 84.5,-1230 220.5,-1230 220.5,-1208 84.5,-1208"/>
<text text-anchor="start" x="104.5" y="-1216.2" font-family="Helvetica,sans-Serif" font-size="11.00">c_commission_uu</text>
<polygon fill="none" stroke="black" points="84.5,-1186 84.5,-1208 220.5,-1208 220.5,-1186 84.5,-1186"/>
<image xlink:href="../../images/foreignKeys.png" width="11px" height="12px" preserveAspectRatio="xMinYMin meet" x="89.5" y="-1203"/>
<text text-anchor="start" x="104.5" y="-1194.2" font-family="Helvetica,sans-Serif" font-size="11.00">m_product_id</text>
<polygon fill="none" stroke="black" points="84.5,-1168 84.5,-1186 220.5,-1186 220.5,-1168 84.5,-1168"/>
<text text-anchor="start" x="87.5" y="-1174.2" font-family="Helvetica,sans-Serif" font-size="11.00">...</text>
<polygon fill="#ffffff" stroke="transparent" points="84.5,-1150 84.5,-1168 132.5,-1168 132.5,-1150 84.5,-1150"/>
<polygon fill="none" stroke="black" points="84.5,-1150 84.5,-1168 132.5,-1168 132.5,-1150 84.5,-1150"/>
<text text-anchor="start" x="87.5" y="-1156.2" font-family="Helvetica,sans-Serif" font-size="11.00">&lt; 4</text>
<polygon fill="#ffffff" stroke="transparent" points="132.5,-1150 132.5,-1168 184.5,-1168 184.5,-1150 132.5,-1150"/>
<polygon fill="none" stroke="black" points="132.5,-1150 132.5,-1168 184.5,-1168 184.5,-1150 132.5,-1150"/>
<text text-anchor="start" x="148.5" y="-1156.2" font-family="Helvetica,sans-Serif" font-size="11.00">0 rows</text>
<polygon fill="#ffffff" stroke="transparent" points="184.5,-1150 184.5,-1168 220.5,-1168 220.5,-1150 184.5,-1150"/>
<polygon fill="none" stroke="black" points="184.5,-1150 184.5,-1168 220.5,-1168 220.5,-1150 184.5,-1150"/>
<text text-anchor="start" x="201.5" y="-1156.2" font-family="Helvetica,sans-Serif" font-size="11.00">2 &gt;</text>
</a>
</g>
</g>
<!-- c_commissionrun&#45;&gt;c_commission -->
<g id="edge2" class="edge">
<title>c_commissionrun:w&#45;&gt;c_commission:e</title>
<path fill="none" stroke="black" d="M332.42,-1251.19C284.8,-1259.38 277.5,-1307 221.5,-1307"/>
<polygon fill="black" stroke="black" points="339.03,-1250.65 347.29,-1253.59 343.01,-1250.33 347,-1250 347,-1250 347,-1250 343.01,-1250.33 346.71,-1246.41 339.03,-1250.65 339.03,-1250.65"/>
<ellipse fill="none" stroke="black" cx="335.84" cy="-1250.91" rx="3.2" ry="3.2"/>
</g>
<!-- c_invoice -->
<g id="node4" class="node">
<title>c_invoice</title>
<g id="a_node4"><a xlink:href="../../tables/c_invoice.html" xlink:title="c_invoice" target="_top">
<polygon fill="#ffffff" stroke="transparent" points="8,-37 8,-1129 297,-1129 297,-37 8,-37"/>
<polygon fill="#f5f5f5" stroke="transparent" points="8.5,-1107 8.5,-1129 297.5,-1129 297.5,-1107 8.5,-1107"/>
<polygon fill="none" stroke="black" points="8.5,-1107 8.5,-1129 297.5,-1129 297.5,-1107 8.5,-1107"/>
<text text-anchor="start" x="13.5" y="-1116.2" font-family="Helvetica,sans-Serif" font-weight="bold" font-size="11.00">c_invoice</text>
<text text-anchor="start" x="262.5" y="-1115.2" font-family="Helvetica,sans-Serif" font-size="11.00">[table]</text>
<polygon fill="none" stroke="black" points="8.5,-1085 8.5,-1107 297.5,-1107 297.5,-1085 8.5,-1085"/>
<image xlink:href="../../images/primaryKeys.png" width="11px" height="12px" preserveAspectRatio="xMinYMin meet" x="13.5" y="-1102"/>
<text text-anchor="start" x="28.5" y="-1093.2" font-family="Helvetica,sans-Serif" font-size="11.00">c_invoice_id</text>
<polygon fill="#ffffff" stroke="transparent" points="8.5,-1063 8.5,-1085 297.5,-1085 297.5,-1063 8.5,-1063"/>
<polygon fill="none" stroke="black" points="8.5,-1063 8.5,-1085 297.5,-1085 297.5,-1063 8.5,-1063"/>
<text text-anchor="start" x="28.5" y="-1071.2" font-family="Helvetica,sans-Serif" font-size="11.00">ad_client_id</text>
<polygon fill="none" stroke="black" points="8.5,-1041 8.5,-1063 297.5,-1063 297.5,-1041 8.5,-1041"/>
<image xlink:href="../../images/foreignKeys.png" width="11px" height="12px" preserveAspectRatio="xMinYMin meet" x="13.5" y="-1058"/>
<text text-anchor="start" x="28.5" y="-1049.2" font-family="Helvetica,sans-Serif" font-size="11.00">ad_org_id</text>
<polygon fill="#ffffff" stroke="transparent" points="8.5,-1019 8.5,-1041 297.5,-1041 297.5,-1019 8.5,-1019"/>
<polygon fill="none" stroke="black" points="8.5,-1019 8.5,-1041 297.5,-1041 297.5,-1019 8.5,-1019"/>
<text text-anchor="start" x="28.5" y="-1027.2" font-family="Helvetica,sans-Serif" font-size="11.00">documentno</text>
<polygon fill="#ffffff" stroke="transparent" points="8.5,-997 8.5,-1019 297.5,-1019 297.5,-997 8.5,-997"/>
<polygon fill="none" stroke="black" points="8.5,-997 8.5,-1019 297.5,-1019 297.5,-997 8.5,-997"/>
<text text-anchor="start" x="28.5" y="-1005.2" font-family="Helvetica,sans-Serif" font-size="11.00">processed</text>
<polygon fill="#ffffff" stroke="transparent" points="8.5,-975 8.5,-997 297.5,-997 297.5,-975 8.5,-975"/>
<polygon fill="none" stroke="black" points="8.5,-975 8.5,-997 297.5,-997 297.5,-975 8.5,-975"/>
<text text-anchor="start" x="28.5" y="-983.2" font-family="Helvetica,sans-Serif" font-size="11.00">posted</text>
<polygon fill="#ffffff" stroke="transparent" points="8.5,-953 8.5,-975 297.5,-975 297.5,-953 8.5,-953"/>
<polygon fill="none" stroke="black" points="8.5,-953 8.5,-975 297.5,-975 297.5,-953 8.5,-953"/>
<image xlink:href="../../images/foreignKeys.png" width="11px" height="12px" preserveAspectRatio="xMinYMin meet" x="13.5" y="-970"/>
<text text-anchor="start" x="28.5" y="-961.2" font-family="Helvetica,sans-Serif" font-size="11.00">c_doctype_id</text>
<polygon fill="#ffffff" stroke="transparent" points="8.5,-931 8.5,-953 297.5,-953 297.5,-931 8.5,-931"/>
<polygon fill="none" stroke="black" points="8.5,-931 8.5,-953 297.5,-953 297.5,-931 8.5,-931"/>
<image xlink:href="../../images/foreignKeys.png" width="11px" height="12px" preserveAspectRatio="xMinYMin meet" x="13.5" y="-948"/>
<text text-anchor="start" x="28.5" y="-939.2" font-family="Helvetica,sans-Serif" font-size="11.00">c_doctypetarget_id</text>
<polygon fill="#ffffff" stroke="transparent" points="8.5,-909 8.5,-931 297.5,-931 297.5,-909 8.5,-909"/>
<polygon fill="none" stroke="black" points="8.5,-909 8.5,-931 297.5,-931 297.5,-909 8.5,-909"/>
<image xlink:href="../../images/foreignKeys.png" width="11px" height="12px" preserveAspectRatio="xMinYMin meet" x="13.5" y="-926"/>
<text text-anchor="start" x="28.5" y="-917.2" font-family="Helvetica,sans-Serif" font-size="11.00">c_order_id</text>
<polygon fill="none" stroke="black" points="8.5,-887 8.5,-909 297.5,-909 297.5,-887 8.5,-887"/>
<image xlink:href="../../images/foreignKeys.png" width="11px" height="12px" preserveAspectRatio="xMinYMin meet" x="13.5" y="-904"/>
<text text-anchor="start" x="28.5" y="-895.2" font-family="Helvetica,sans-Serif" font-size="11.00">salesrep_id</text>
<polygon fill="#ffffff" stroke="transparent" points="8.5,-865 8.5,-887 297.5,-887 297.5,-865 8.5,-865"/>
<polygon fill="none" stroke="black" points="8.5,-865 8.5,-887 297.5,-887 297.5,-865 8.5,-865"/>
<image xlink:href="../../images/foreignKeys.png" width="11px" height="12px" preserveAspectRatio="xMinYMin meet" x="13.5" y="-882"/>
<text text-anchor="start" x="28.5" y="-873.2" font-family="Helvetica,sans-Serif" font-size="11.00">c_bpartner_id</text>
<polygon fill="none" stroke="black" points="8.5,-843 8.5,-865 297.5,-865 297.5,-843 8.5,-843"/>
<image xlink:href="../../images/foreignKeys.png" width="11px" height="12px" preserveAspectRatio="xMinYMin meet" x="13.5" y="-860"/>
<text text-anchor="start" x="28.5" y="-851.2" font-family="Helvetica,sans-Serif" font-size="11.00">c_bpartner_location_id</text>
<polygon fill="none" stroke="black" points="8.5,-821 8.5,-843 297.5,-843 297.5,-821 8.5,-821"/>
<image xlink:href="../../images/foreignKeys.png" width="11px" height="12px" preserveAspectRatio="xMinYMin meet" x="13.5" y="-838"/>
<text text-anchor="start" x="28.5" y="-829.2" font-family="Helvetica,sans-Serif" font-size="11.00">c_currency_id</text>
<polygon fill="none" stroke="black" points="8.5,-799 8.5,-821 297.5,-821 297.5,-799 8.5,-799"/>
<image xlink:href="../../images/foreignKeys.png" width="11px" height="12px" preserveAspectRatio="xMinYMin meet" x="13.5" y="-816"/>
<text text-anchor="start" x="28.5" y="-807.2" font-family="Helvetica,sans-Serif" font-size="11.00">c_paymentterm_id</text>
<polygon fill="none" stroke="black" points="8.5,-777 8.5,-799 297.5,-799 297.5,-777 8.5,-777"/>
<image xlink:href="../../images/foreignKeys.png" width="11px" height="12px" preserveAspectRatio="xMinYMin meet" x="13.5" y="-794"/>
<text text-anchor="start" x="28.5" y="-785.2" font-family="Helvetica,sans-Serif" font-size="11.00">c_charge_id</text>
<polygon fill="none" stroke="black" points="8.5,-755 8.5,-777 297.5,-777 297.5,-755 8.5,-755"/>
<image xlink:href="../../images/foreignKeys.png" width="11px" height="12px" preserveAspectRatio="xMinYMin meet" x="13.5" y="-772"/>
<text text-anchor="start" x="28.5" y="-763.2" font-family="Helvetica,sans-Serif" font-size="11.00">m_pricelist_id</text>
<polygon fill="none" stroke="black" points="8.5,-733 8.5,-755 297.5,-755 297.5,-733 8.5,-733"/>
<image xlink:href="../../images/foreignKeys.png" width="11px" height="12px" preserveAspectRatio="xMinYMin meet" x="13.5" y="-750"/>
<text text-anchor="start" x="28.5" y="-741.2" font-family="Helvetica,sans-Serif" font-size="11.00">c_campaign_id</text>
<polygon fill="none" stroke="black" points="8.5,-711 8.5,-733 297.5,-733 297.5,-711 8.5,-711"/>
<image xlink:href="../../images/foreignKeys.png" width="11px" height="12px" preserveAspectRatio="xMinYMin meet" x="13.5" y="-728"/>
<text text-anchor="start" x="28.5" y="-719.2" font-family="Helvetica,sans-Serif" font-size="11.00">c_project_id</text>
<polygon fill="none" stroke="black" points="8.5,-689 8.5,-711 297.5,-711 297.5,-689 8.5,-689"/>
<image xlink:href="../../images/foreignKeys.png" width="11px" height="12px" preserveAspectRatio="xMinYMin meet" x="13.5" y="-706"/>
<text text-anchor="start" x="28.5" y="-697.2" font-family="Helvetica,sans-Serif" font-size="11.00">c_activity_id</text>
<polygon fill="#ffffff" stroke="transparent" points="8.5,-667 8.5,-689 297.5,-689 297.5,-667 8.5,-667"/>
<polygon fill="none" stroke="black" points="8.5,-667 8.5,-689 297.5,-689 297.5,-667 8.5,-667"/>
<text text-anchor="start" x="28.5" y="-675.2" font-family="Helvetica,sans-Serif" font-size="11.00">ispaid</text>
<polygon fill="none" stroke="black" points="8.5,-645 8.5,-667 297.5,-667 297.5,-645 8.5,-645"/>
<image xlink:href="../../images/foreignKeys.png" width="11px" height="12px" preserveAspectRatio="xMinYMin meet" x="13.5" y="-662"/>
<text text-anchor="start" x="28.5" y="-653.2" font-family="Helvetica,sans-Serif" font-size="11.00">c_payment_id</text>
<polygon fill="none" stroke="black" points="8.5,-623 8.5,-645 297.5,-645 297.5,-623 8.5,-623"/>
<image xlink:href="../../images/foreignKeys.png" width="11px" height="12px" preserveAspectRatio="xMinYMin meet" x="13.5" y="-640"/>
<text text-anchor="start" x="28.5" y="-631.2" font-family="Helvetica,sans-Serif" font-size="11.00">c_cashline_id</text>
<polygon fill="none" stroke="black" points="8.5,-601 8.5,-623 297.5,-623 297.5,-601 8.5,-601"/>
<image xlink:href="../../images/foreignKeys.png" width="11px" height="12px" preserveAspectRatio="xMinYMin meet" x="13.5" y="-618"/>
<text text-anchor="start" x="28.5" y="-609.2" font-family="Helvetica,sans-Serif" font-size="11.00">ad_user_id</text>
<polygon fill="none" stroke="black" points="8.5,-579 8.5,-601 297.5,-601 297.5,-579 8.5,-579"/>
<image xlink:href="../../images/foreignKeys.png" width="11px" height="12px" preserveAspectRatio="xMinYMin meet" x="13.5" y="-596"/>
<text text-anchor="start" x="28.5" y="-587.2" font-family="Helvetica,sans-Serif" font-size="11.00">ad_orgtrx_id</text>
<polygon fill="none" stroke="black" points="8.5,-557 8.5,-579 297.5,-579 297.5,-557 8.5,-557"/>
<image xlink:href="../../images/foreignKeys.png" width="11px" height="12px" preserveAspectRatio="xMinYMin meet" x="13.5" y="-574"/>
<text text-anchor="start" x="28.5" y="-565.2" font-family="Helvetica,sans-Serif" font-size="11.00">user1_id</text>
<polygon fill="none" stroke="black" points="8.5,-535 8.5,-557 297.5,-557 297.5,-535 8.5,-535"/>
<image xlink:href="../../images/foreignKeys.png" width="11px" height="12px" preserveAspectRatio="xMinYMin meet" x="13.5" y="-552"/>
<text text-anchor="start" x="28.5" y="-543.2" font-family="Helvetica,sans-Serif" font-size="11.00">user2_id</text>
<polygon fill="none" stroke="black" points="8.5,-513 8.5,-535 297.5,-535 297.5,-513 8.5,-513"/>
<image xlink:href="../../images/foreignKeys.png" width="11px" height="12px" preserveAspectRatio="xMinYMin meet" x="13.5" y="-530"/>
<text text-anchor="start" x="28.5" y="-521.2" font-family="Helvetica,sans-Serif" font-size="11.00">c_conversiontype_id</text>
<polygon fill="none" stroke="black" points="8.5,-491 8.5,-513 297.5,-513 297.5,-491 8.5,-491"/>
<image xlink:href="../../images/foreignKeys.png" width="11px" height="12px" preserveAspectRatio="xMinYMin meet" x="13.5" y="-508"/>
<text text-anchor="start" x="28.5" y="-499.2" font-family="Helvetica,sans-Serif" font-size="11.00">ref_invoice_id</text>
<polygon fill="none" stroke="black" points="8.5,-469 8.5,-491 297.5,-491 297.5,-469 8.5,-469"/>
<image xlink:href="../../images/foreignKeys.png" width="11px" height="12px" preserveAspectRatio="xMinYMin meet" x="13.5" y="-486"/>
<text text-anchor="start" x="28.5" y="-477.2" font-family="Helvetica,sans-Serif" font-size="11.00">m_rma_id</text>
<polygon fill="none" stroke="black" points="8.5,-447 8.5,-469 297.5,-469 297.5,-447 8.5,-447"/>
<image xlink:href="../../images/foreignKeys.png" width="11px" height="12px" preserveAspectRatio="xMinYMin meet" x="13.5" y="-464"/>
<text text-anchor="start" x="28.5" y="-455.2" font-family="Helvetica,sans-Serif" font-size="11.00">c_dunninglevel_id</text>
<polygon fill="none" stroke="black" points="8.5,-425 8.5,-447 297.5,-447 297.5,-425 8.5,-425"/>
<image xlink:href="../../images/foreignKeys.png" width="11px" height="12px" preserveAspectRatio="xMinYMin meet" x="13.5" y="-442"/>
<text text-anchor="start" x="28.5" y="-433.2" font-family="Helvetica,sans-Serif" font-size="11.00">reversal_id</text>
<polygon fill="#ffffff" stroke="transparent" points="8.5,-403 8.5,-425 297.5,-425 297.5,-403 8.5,-403"/>
<polygon fill="none" stroke="black" points="8.5,-403 8.5,-425 297.5,-425 297.5,-403 8.5,-403"/>
<text text-anchor="start" x="28.5" y="-411.2" font-family="Helvetica,sans-Serif" font-size="11.00">processedon</text>
<polygon fill="none" stroke="black" points="8.5,-381 8.5,-403 297.5,-403 297.5,-381 8.5,-381"/>
<image xlink:href="../../images/foreignKeys.png" width="11px" height="12px" preserveAspectRatio="xMinYMin meet" x="13.5" y="-398"/>
<text text-anchor="start" x="28.5" y="-389.2" font-family="Helvetica,sans-Serif" font-size="11.00">c_cashplanline_id</text>
<polygon fill="#ffffff" stroke="transparent" points="8.5,-359 8.5,-381 297.5,-381 297.5,-359 8.5,-359"/>
<polygon fill="none" stroke="black" points="8.5,-359 8.5,-381 297.5,-381 297.5,-359 8.5,-359"/>
<text text-anchor="start" x="28.5" y="-367.2" font-family="Helvetica,sans-Serif" font-size="11.00">c_invoice_uu</text>
<polygon fill="none" stroke="black" points="8.5,-337 8.5,-359 297.5,-359 297.5,-337 8.5,-337"/>
<image xlink:href="../../images/foreignKeys.png" width="11px" height="12px" preserveAspectRatio="xMinYMin meet" x="13.5" y="-354"/>
<text text-anchor="start" x="28.5" y="-345.2" font-family="Helvetica,sans-Serif" font-size="11.00">lbr_docfiscal_id</text>
<polygon fill="none" stroke="black" points="8.5,-315 8.5,-337 297.5,-337 297.5,-315 8.5,-315"/>
<image xlink:href="../../images/foreignKeys.png" width="11px" height="12px" preserveAspectRatio="xMinYMin meet" x="13.5" y="-332"/>
<text text-anchor="start" x="28.5" y="-323.2" font-family="Helvetica,sans-Serif" font-size="11.00">cof_sourceinvoice_id</text>
<polygon fill="none" stroke="black" points="8.5,-293 8.5,-315 297.5,-315 297.5,-293 8.5,-293"/>
<image xlink:href="../../images/foreignKeys.png" width="11px" height="12px" preserveAspectRatio="xMinYMin meet" x="13.5" y="-310"/>
<text text-anchor="start" x="28.5" y="-301.2" font-family="Helvetica,sans-Serif" font-size="11.00">cof_c_custody_id</text>
<polygon fill="none" stroke="black" points="8.5,-271 8.5,-293 297.5,-293 297.5,-271 8.5,-271"/>
<image xlink:href="../../images/foreignKeys.png" width="11px" height="12px" preserveAspectRatio="xMinYMin meet" x="13.5" y="-288"/>
<text text-anchor="start" x="28.5" y="-279.2" font-family="Helvetica,sans-Serif" font-size="11.00">cof_payfrom_location_id</text>
<polygon fill="none" stroke="black" points="8.5,-249 8.5,-271 297.5,-271 297.5,-249 8.5,-249"/>
<image xlink:href="../../images/foreignKeys.png" width="11px" height="12px" preserveAspectRatio="xMinYMin meet" x="13.5" y="-266"/>
<text text-anchor="start" x="28.5" y="-257.2" font-family="Helvetica,sans-Serif" font-size="11.00">cof_orgst_id</text>
<polygon fill="none" stroke="black" points="8.5,-227 8.5,-249 297.5,-249 297.5,-227 8.5,-227"/>
<image xlink:href="../../images/foreignKeys.png" width="11px" height="12px" preserveAspectRatio="xMinYMin meet" x="13.5" y="-244"/>
<text text-anchor="start" x="28.5" y="-235.2" font-family="Helvetica,sans-Serif" font-size="11.00">cof_c_planofinanceiro_id</text>
<polygon fill="none" stroke="black" points="8.5,-205 8.5,-227 297.5,-227 297.5,-205 8.5,-205"/>
<image xlink:href="../../images/foreignKeys.png" width="11px" height="12px" preserveAspectRatio="xMinYMin meet" x="13.5" y="-222"/>
<text text-anchor="start" x="28.5" y="-213.2" font-family="Helvetica,sans-Serif" font-size="11.00">c_elementvalue_id</text>
<polygon fill="none" stroke="black" points="8.5,-183 8.5,-205 297.5,-205 297.5,-183 8.5,-183"/>
<image xlink:href="../../images/foreignKeys.png" width="11px" height="12px" preserveAspectRatio="xMinYMin meet" x="13.5" y="-200"/>
<text text-anchor="start" x="28.5" y="-191.2" font-family="Helvetica,sans-Serif" font-size="11.00">cof_invoice_id</text>
<polygon fill="none" stroke="black" points="8.5,-161 8.5,-183 297.5,-183 297.5,-161 8.5,-161"/>
<image xlink:href="../../images/foreignKeys.png" width="11px" height="12px" preserveAspectRatio="xMinYMin meet" x="13.5" y="-178"/>
<text text-anchor="start" x="28.5" y="-169.2" font-family="Helvetica,sans-Serif" font-size="11.00">cof_ref_order_id</text>
<polygon fill="none" stroke="black" points="8.5,-139 8.5,-161 297.5,-161 297.5,-139 8.5,-139"/>
<image xlink:href="../../images/foreignKeys.png" width="11px" height="12px" preserveAspectRatio="xMinYMin meet" x="13.5" y="-156"/>
<text text-anchor="start" x="28.5" y="-147.2" font-family="Helvetica,sans-Serif" font-size="11.00">cof_contract_id</text>
<polygon fill="none" stroke="black" points="8.5,-117 8.5,-139 297.5,-139 297.5,-117 8.5,-117"/>
<image xlink:href="../../images/foreignKeys.png" width="11px" height="12px" preserveAspectRatio="xMinYMin meet" x="13.5" y="-134"/>
<text text-anchor="start" x="28.5" y="-125.2" font-family="Helvetica,sans-Serif" font-size="11.00">cof_digitador_id</text>
<polygon fill="none" stroke="black" points="8.5,-95 8.5,-117 297.5,-117 297.5,-95 8.5,-95"/>
<image xlink:href="../../images/foreignKeys.png" width="11px" height="12px" preserveAspectRatio="xMinYMin meet" x="13.5" y="-112"/>
<text text-anchor="start" x="28.5" y="-103.2" font-family="Helvetica,sans-Serif" font-size="11.00">cof_bpespecialista_id</text>
<polygon fill="none" stroke="black" points="8.5,-73 8.5,-95 297.5,-95 297.5,-73 8.5,-73"/>
<image xlink:href="../../images/foreignKeys.png" width="11px" height="12px" preserveAspectRatio="xMinYMin meet" x="13.5" y="-90"/>
<text text-anchor="start" x="28.5" y="-81.2" font-family="Helvetica,sans-Serif" font-size="11.00">relatedinvoice_id</text>
<polygon fill="none" stroke="black" points="8.5,-55 8.5,-73 297.5,-73 297.5,-55 8.5,-55"/>
<text text-anchor="start" x="11.5" y="-61.2" font-family="Helvetica,sans-Serif" font-size="11.00">...</text>
<polygon fill="#ffffff" stroke="transparent" points="8.5,-37 8.5,-55 133.5,-55 133.5,-37 8.5,-37"/>
<polygon fill="none" stroke="black" points="8.5,-37 8.5,-55 133.5,-55 133.5,-37 8.5,-37"/>
<text text-anchor="start" x="11.5" y="-43.2" font-family="Helvetica,sans-Serif" font-size="11.00">&lt; 39</text>
<polygon fill="#ffffff" stroke="transparent" points="133.5,-37 133.5,-55 220.5,-55 220.5,-37 133.5,-37"/>
<polygon fill="none" stroke="black" points="133.5,-37 133.5,-55 220.5,-55 220.5,-37 133.5,-37"/>
<text text-anchor="start" x="184.5" y="-43.2" font-family="Helvetica,sans-Serif" font-size="11.00">0 rows</text>
<polygon fill="#ffffff" stroke="transparent" points="220.5,-37 220.5,-55 297.5,-55 297.5,-37 220.5,-37"/>
<polygon fill="none" stroke="black" points="220.5,-37 220.5,-55 297.5,-55 297.5,-37 220.5,-37"/>
<text text-anchor="start" x="272.5" y="-43.2" font-family="Helvetica,sans-Serif" font-size="11.00">43 &gt;</text>
</a>
</g>
</g>
<!-- c_commissionrun&#45;&gt;c_invoice -->
<g id="edge3" class="edge">
<title>c_commissionrun:w&#45;&gt;c_invoice:e</title>
<path fill="none" stroke="black" d="M332.28,-1096C321.29,-1096 314.16,-1096 298.5,-1096"/>
<polygon fill="black" stroke="black" points="339,-1096 347,-1099.6 343,-1096 347,-1096 347,-1096 347,-1096 343,-1096 347,-1092.4 339,-1096 339,-1096"/>
<ellipse fill="none" stroke="black" cx="335.8" cy="-1096" rx="3.2" ry="3.2"/>
</g>
<!-- c_commissionrun&#45;&gt;c_invoice -->
<g id="edge4" class="edge">
<title>c_commissionrun:w&#45;&gt;c_invoice:e</title>
<path fill="none" stroke="black" d="M332.76,-1114.56C321.34,-1108.38 316.25,-1096 298.5,-1096"/>
<polygon fill="black" stroke="black" points="339.22,-1116.12 346.15,-1121.5 343.11,-1117.06 347,-1118 347,-1118 347,-1118 343.11,-1117.06 347.85,-1114.5 339.22,-1116.12 339.22,-1116.12"/>
<ellipse fill="none" stroke="black" cx="336.11" cy="-1115.37" rx="3.2" ry="3.2"/>
</g>
</g>
</svg>
