<?xml version="1.0" encoding="UTF-8" standalone="no"?>
<!DOCTYPE svg PUBLIC "-//W3C//DTD SVG 1.1//EN"
 "http://www.w3.org/Graphics/SVG/1.1/DTD/svg11.dtd">
<!-- Generated by graphviz version 2.43.0 (0)
 -->
<!-- Title: oneDegreeRelationshipsDiagram Pages: 1 -->
<svg width="1015pt" height="769pt"
 viewBox="0.00 0.00 1015.00 769.00" xmlns="http://www.w3.org/2000/svg" xmlns:xlink="http://www.w3.org/1999/xlink">
<g id="graph0" class="graph" transform="scale(1 1) rotate(0) translate(4 765)">
<title>oneDegreeRelationshipsDiagram</title>
<polygon fill="#ffffff" stroke="transparent" points="-4,4 -4,-765 1011,-765 1011,4 -4,4"/>
<text text-anchor="middle" x="71.5" y="-7.2" font-family="Helvetica,sans-Serif" font-size="11.00">Generated by SchemaSpy</text>
<!-- c_acctschema -->
<g id="node1" class="node">
<title>c_acctschema</title>
<g id="a_node1"><a xlink:href="../../tables/c_acctschema.html" xlink:title="c_acctschema" target="_top">
<polygon fill="#ffffff" stroke="transparent" points="249,-364 249,-620 436,-620 436,-364 249,-364"/>
<polygon fill="#f5f5f5" stroke="transparent" points="249.5,-598 249.5,-620 436.5,-620 436.5,-598 249.5,-598"/>
<polygon fill="none" stroke="black" points="249.5,-598 249.5,-620 436.5,-620 436.5,-598 249.5,-598"/>
<text text-anchor="start" x="254.5" y="-607.2" font-family="Helvetica,sans-Serif" font-weight="bold" font-size="11.00">c_acctschema</text>
<text text-anchor="start" x="401.5" y="-606.2" font-family="Helvetica,sans-Serif" font-size="11.00">[table]</text>
<polygon fill="none" stroke="black" points="249.5,-576 249.5,-598 436.5,-598 436.5,-576 249.5,-576"/>
<image xlink:href="../../images/primaryKeys.png" width="11px" height="12px" preserveAspectRatio="xMinYMin meet" x="254.5" y="-593"/>
<text text-anchor="start" x="269.5" y="-584.2" font-family="Helvetica,sans-Serif" font-size="11.00">c_acctschema_id</text>
<polygon fill="#ffffff" stroke="transparent" points="249.5,-554 249.5,-576 436.5,-576 436.5,-554 249.5,-554"/>
<polygon fill="none" stroke="black" points="249.5,-554 249.5,-576 436.5,-576 436.5,-554 249.5,-554"/>
<image xlink:href="../../images/foreignKeys.png" width="11px" height="12px" preserveAspectRatio="xMinYMin meet" x="254.5" y="-571"/>
<text text-anchor="start" x="269.5" y="-562.2" font-family="Helvetica,sans-Serif" font-size="11.00">ad_client_id</text>
<polygon fill="none" stroke="black" points="249.5,-532 249.5,-554 436.5,-554 436.5,-532 249.5,-532"/>
<image xlink:href="../../images/foreignKeys.png" width="11px" height="12px" preserveAspectRatio="xMinYMin meet" x="254.5" y="-549"/>
<text text-anchor="start" x="269.5" y="-540.2" font-family="Helvetica,sans-Serif" font-size="11.00">ad_org_id</text>
<polygon fill="#ffffff" stroke="transparent" points="249.5,-510 249.5,-532 436.5,-532 436.5,-510 249.5,-510"/>
<polygon fill="none" stroke="black" points="249.5,-510 249.5,-532 436.5,-532 436.5,-510 249.5,-510"/>
<text text-anchor="start" x="269.5" y="-518.2" font-family="Helvetica,sans-Serif" font-size="11.00">name</text>
<polygon fill="none" stroke="black" points="249.5,-488 249.5,-510 436.5,-510 436.5,-488 249.5,-488"/>
<image xlink:href="../../images/foreignKeys.png" width="11px" height="12px" preserveAspectRatio="xMinYMin meet" x="254.5" y="-505"/>
<text text-anchor="start" x="269.5" y="-496.2" font-family="Helvetica,sans-Serif" font-size="11.00">c_currency_id</text>
<polygon fill="none" stroke="black" points="249.5,-466 249.5,-488 436.5,-488 436.5,-466 249.5,-466"/>
<image xlink:href="../../images/foreignKeys.png" width="11px" height="12px" preserveAspectRatio="xMinYMin meet" x="254.5" y="-483"/>
<text text-anchor="start" x="269.5" y="-474.2" font-family="Helvetica,sans-Serif" font-size="11.00">c_period_id</text>
<polygon fill="none" stroke="black" points="249.5,-444 249.5,-466 436.5,-466 436.5,-444 249.5,-444"/>
<image xlink:href="../../images/foreignKeys.png" width="11px" height="12px" preserveAspectRatio="xMinYMin meet" x="254.5" y="-461"/>
<text text-anchor="start" x="269.5" y="-452.2" font-family="Helvetica,sans-Serif" font-size="11.00">m_costtype_id</text>
<polygon fill="none" stroke="black" points="249.5,-422 249.5,-444 436.5,-444 436.5,-422 249.5,-422"/>
<image xlink:href="../../images/foreignKeys.png" width="11px" height="12px" preserveAspectRatio="xMinYMin meet" x="254.5" y="-439"/>
<text text-anchor="start" x="269.5" y="-430.2" font-family="Helvetica,sans-Serif" font-size="11.00">ad_orgonly_id</text>
<polygon fill="#ffffff" stroke="transparent" points="249.5,-400 249.5,-422 436.5,-422 436.5,-400 249.5,-400"/>
<polygon fill="none" stroke="black" points="249.5,-400 249.5,-422 436.5,-422 436.5,-400 249.5,-400"/>
<text text-anchor="start" x="269.5" y="-408.2" font-family="Helvetica,sans-Serif" font-size="11.00">c_acctschema_uu</text>
<polygon fill="none" stroke="black" points="249.5,-382 249.5,-400 436.5,-400 436.5,-382 249.5,-382"/>
<text text-anchor="start" x="252.5" y="-388.2" font-family="Helvetica,sans-Serif" font-size="11.00">...</text>
<polygon fill="#ffffff" stroke="transparent" points="249.5,-364 249.5,-382 322.5,-382 322.5,-364 249.5,-364"/>
<polygon fill="none" stroke="black" points="249.5,-364 249.5,-382 322.5,-382 322.5,-364 249.5,-364"/>
<text text-anchor="start" x="252.5" y="-370.2" font-family="Helvetica,sans-Serif" font-size="11.00">&lt; 6</text>
<polygon fill="#ffffff" stroke="transparent" points="322.5,-364 322.5,-382 382.5,-382 382.5,-364 322.5,-364"/>
<polygon fill="none" stroke="black" points="322.5,-364 322.5,-382 382.5,-382 382.5,-364 322.5,-364"/>
<text text-anchor="start" x="351.5" y="-370.2" font-family="Helvetica,sans-Serif" font-size="11.00">1 row</text>
<polygon fill="#ffffff" stroke="transparent" points="382.5,-364 382.5,-382 436.5,-382 436.5,-364 382.5,-364"/>
<polygon fill="none" stroke="black" points="382.5,-364 382.5,-382 436.5,-382 436.5,-364 382.5,-364"/>
<text text-anchor="start" x="411.5" y="-370.2" font-family="Helvetica,sans-Serif" font-size="11.00">55 &gt;</text>
</a>
</g>
</g>
<!-- ad_org -->
<g id="node2" class="node">
<title>ad_org</title>
<g id="a_node2"><a xlink:href="../../tables/ad_org.html" xlink:title="ad_org" target="_top">
<polygon fill="#ffffff" stroke="transparent" points="8,-436 8,-626 200,-626 200,-436 8,-436"/>
<polygon fill="#f5f5f5" stroke="transparent" points="8,-604 8,-626 200,-626 200,-604 8,-604"/>
<polygon fill="none" stroke="black" points="8,-604 8,-626 200,-626 200,-604 8,-604"/>
<text text-anchor="start" x="13" y="-613.2" font-family="Helvetica,sans-Serif" font-weight="bold" font-size="11.00">ad_org</text>
<text text-anchor="start" x="165" y="-612.2" font-family="Helvetica,sans-Serif" font-size="11.00">[table]</text>
<polygon fill="none" stroke="black" points="8,-582 8,-604 200,-604 200,-582 8,-582"/>
<image xlink:href="../../images/primaryKeys.png" width="11px" height="12px" preserveAspectRatio="xMinYMin meet" x="13" y="-599"/>
<text text-anchor="start" x="28" y="-590.2" font-family="Helvetica,sans-Serif" font-size="11.00">ad_org_id</text>
<polygon fill="#ffffff" stroke="transparent" points="8,-560 8,-582 200,-582 200,-560 8,-560"/>
<polygon fill="none" stroke="black" points="8,-560 8,-582 200,-582 200,-560 8,-560"/>
<image xlink:href="../../images/foreignKeys.png" width="11px" height="12px" preserveAspectRatio="xMinYMin meet" x="13" y="-577"/>
<text text-anchor="start" x="28" y="-568.2" font-family="Helvetica,sans-Serif" font-size="11.00">ad_client_id</text>
<polygon fill="#ffffff" stroke="transparent" points="8,-538 8,-560 200,-560 200,-538 8,-538"/>
<polygon fill="none" stroke="black" points="8,-538 8,-560 200,-560 200,-538 8,-538"/>
<text text-anchor="start" x="28" y="-546.2" font-family="Helvetica,sans-Serif" font-size="11.00">value</text>
<polygon fill="none" stroke="black" points="8,-516 8,-538 200,-538 200,-516 8,-516"/>
<image xlink:href="../../images/foreignKeys.png" width="11px" height="12px" preserveAspectRatio="xMinYMin meet" x="13" y="-533"/>
<text text-anchor="start" x="28" y="-524.2" font-family="Helvetica,sans-Serif" font-size="11.00">ad_replicationstrategy_id</text>
<polygon fill="#ffffff" stroke="transparent" points="8,-494 8,-516 200,-516 200,-494 8,-494"/>
<polygon fill="none" stroke="black" points="8,-494 8,-516 200,-516 200,-494 8,-494"/>
<text text-anchor="start" x="28" y="-502.2" font-family="Helvetica,sans-Serif" font-size="11.00">ad_org_uu</text>
<polygon fill="none" stroke="black" points="8,-472 8,-494 200,-494 200,-472 8,-472"/>
<image xlink:href="../../images/foreignKeys.png" width="11px" height="12px" preserveAspectRatio="xMinYMin meet" x="13" y="-489"/>
<text text-anchor="start" x="28" y="-480.2" font-family="Helvetica,sans-Serif" font-size="11.00">cof_c_snrange_id</text>
<polygon fill="none" stroke="black" points="8,-454 8,-472 200,-472 200,-454 8,-454"/>
<text text-anchor="start" x="11" y="-460.2" font-family="Helvetica,sans-Serif" font-size="11.00">...</text>
<polygon fill="#ffffff" stroke="transparent" points="8,-436 8,-454 78,-454 78,-436 8,-436"/>
<polygon fill="none" stroke="black" points="8,-436 8,-454 78,-454 78,-436 8,-436"/>
<text text-anchor="start" x="11" y="-442.2" font-family="Helvetica,sans-Serif" font-size="11.00">&lt; 3</text>
<polygon fill="#ffffff" stroke="transparent" points="78,-436 78,-454 141,-454 141,-436 78,-436"/>
<polygon fill="none" stroke="black" points="78,-436 78,-454 141,-454 141,-436 78,-436"/>
<text text-anchor="start" x="105" y="-442.2" font-family="Helvetica,sans-Serif" font-size="11.00">3 rows</text>
<polygon fill="#ffffff" stroke="transparent" points="141,-436 141,-454 200,-454 200,-436 141,-436"/>
<polygon fill="none" stroke="black" points="141,-436 141,-454 200,-454 200,-436 141,-436"/>
<text text-anchor="start" x="169" y="-442.2" font-family="Helvetica,sans-Serif" font-size="11.00">224 &gt;</text>
</a>
</g>
</g>
<!-- c_acctschema&#45;&gt;ad_org -->
<g id="edge1" class="edge">
<title>c_acctschema:w&#45;&gt;ad_org:e</title>
<path fill="none" stroke="black" d="M234.97,-547.98C221.54,-560.62 225.66,-593 201,-593"/>
<polygon fill="black" stroke="black" points="240.99,-545.76 249.74,-546.38 244.75,-544.38 248.5,-543 248.5,-543 248.5,-543 244.75,-544.38 247.26,-539.62 240.99,-545.76 240.99,-545.76"/>
<ellipse fill="none" stroke="black" cx="237.99" cy="-546.87" rx="3.2" ry="3.2"/>
</g>
<!-- c_acctschema&#45;&gt;ad_org -->
<g id="edge2" class="edge">
<title>c_acctschema:w&#45;&gt;ad_org:e</title>
<path fill="none" stroke="black" d="M234.15,-435.78C189.01,-457.02 269.38,-593 201,-593"/>
<polygon fill="black" stroke="black" points="240.65,-434.52 249.18,-436.53 244.57,-433.76 248.5,-433 248.5,-433 248.5,-433 244.57,-433.76 247.82,-429.47 240.65,-434.52 240.65,-434.52"/>
<ellipse fill="none" stroke="black" cx="237.5" cy="-435.13" rx="3.2" ry="3.2"/>
</g>
<!-- c_interorg_acct -->
<g id="node3" class="node">
<title>c_interorg_acct</title>
<g id="a_node3"><a xlink:href="../../tables/c_interorg_acct.html" xlink:title="c_interorg_acct" target="_top">
<polygon fill="#ffffff" stroke="transparent" points="707,-449 707,-757 999,-757 999,-449 707,-449"/>
<polygon fill="#f5f5f5" stroke="transparent" points="709,-733 709,-755 997,-755 997,-733 709,-733"/>
<polygon fill="none" stroke="black" points="709,-733 709,-755 997,-755 997,-733 709,-733"/>
<text text-anchor="start" x="714" y="-742.2" font-family="Helvetica,sans-Serif" font-weight="bold" font-size="11.00">c_interorg_acct</text>
<text text-anchor="start" x="962" y="-741.2" font-family="Helvetica,sans-Serif" font-size="11.00">[table]</text>
<polygon fill="none" stroke="black" points="709,-711 709,-733 914,-733 914,-711 709,-711"/>
<image xlink:href="../../images/primaryKeys.png" width="11px" height="12px" preserveAspectRatio="xMinYMin meet" x="714" y="-728"/>
<text text-anchor="start" x="729" y="-719.2" font-family="Helvetica,sans-Serif" font-size="11.00">c_acctschema_id</text>
<polygon fill="none" stroke="black" points="914,-711 914,-733 997,-733 997,-711 914,-711"/>
<text text-anchor="start" x="917" y="-719.2" font-family="Helvetica,sans-Serif" font-size="11.00">numeric[10]</text>
<polygon fill="none" stroke="black" points="709,-689 709,-711 914,-711 914,-689 709,-689"/>
<image xlink:href="../../images/primaryKeys.png" width="11px" height="12px" preserveAspectRatio="xMinYMin meet" x="714" y="-706"/>
<text text-anchor="start" x="729" y="-697.2" font-family="Helvetica,sans-Serif" font-size="11.00">ad_org_id</text>
<polygon fill="none" stroke="black" points="914,-689 914,-711 997,-711 997,-689 914,-689"/>
<text text-anchor="start" x="917" y="-697.2" font-family="Helvetica,sans-Serif" font-size="11.00">numeric[10]</text>
<polygon fill="none" stroke="black" points="709,-667 709,-689 914,-689 914,-667 709,-667"/>
<image xlink:href="../../images/primaryKeys.png" width="11px" height="12px" preserveAspectRatio="xMinYMin meet" x="714" y="-684"/>
<text text-anchor="start" x="729" y="-675.2" font-family="Helvetica,sans-Serif" font-size="11.00">ad_orgto_id</text>
<polygon fill="none" stroke="black" points="914,-667 914,-689 997,-689 997,-667 914,-667"/>
<text text-anchor="start" x="917" y="-675.2" font-family="Helvetica,sans-Serif" font-size="11.00">numeric[10]</text>
<polygon fill="none" stroke="black" points="709,-645 709,-667 914,-667 914,-645 709,-645"/>
<text text-anchor="start" x="729" y="-653.2" font-family="Helvetica,sans-Serif" font-size="11.00">ad_client_id</text>
<polygon fill="none" stroke="black" points="914,-645 914,-667 997,-667 997,-645 914,-645"/>
<text text-anchor="start" x="917" y="-653.2" font-family="Helvetica,sans-Serif" font-size="11.00">numeric[10]</text>
<polygon fill="none" stroke="black" points="709,-623 709,-645 914,-645 914,-623 709,-623"/>
<text text-anchor="start" x="729" y="-631.2" font-family="Helvetica,sans-Serif" font-size="11.00">isactive</text>
<polygon fill="none" stroke="black" points="914,-623 914,-645 997,-645 997,-623 914,-623"/>
<text text-anchor="start" x="917" y="-631.2" font-family="Helvetica,sans-Serif" font-size="11.00">bpchar[1]</text>
<polygon fill="none" stroke="black" points="709,-601 709,-623 914,-623 914,-601 709,-601"/>
<text text-anchor="start" x="729" y="-609.2" font-family="Helvetica,sans-Serif" font-size="11.00">created</text>
<polygon fill="none" stroke="black" points="914,-601 914,-623 997,-623 997,-601 914,-601"/>
<text text-anchor="start" x="917" y="-609.2" font-family="Helvetica,sans-Serif" font-size="11.00">timestamp[29,6]</text>
<polygon fill="none" stroke="black" points="709,-579 709,-601 914,-601 914,-579 709,-579"/>
<text text-anchor="start" x="729" y="-587.2" font-family="Helvetica,sans-Serif" font-size="11.00">createdby</text>
<polygon fill="none" stroke="black" points="914,-579 914,-601 997,-601 997,-579 914,-579"/>
<text text-anchor="start" x="917" y="-587.2" font-family="Helvetica,sans-Serif" font-size="11.00">numeric[10]</text>
<polygon fill="none" stroke="black" points="709,-557 709,-579 914,-579 914,-557 709,-557"/>
<text text-anchor="start" x="729" y="-565.2" font-family="Helvetica,sans-Serif" font-size="11.00">updated</text>
<polygon fill="none" stroke="black" points="914,-557 914,-579 997,-579 997,-557 914,-557"/>
<text text-anchor="start" x="917" y="-565.2" font-family="Helvetica,sans-Serif" font-size="11.00">timestamp[29,6]</text>
<polygon fill="none" stroke="black" points="709,-535 709,-557 914,-557 914,-535 709,-535"/>
<text text-anchor="start" x="729" y="-543.2" font-family="Helvetica,sans-Serif" font-size="11.00">updatedby</text>
<polygon fill="none" stroke="black" points="914,-535 914,-557 997,-557 997,-535 914,-535"/>
<text text-anchor="start" x="917" y="-543.2" font-family="Helvetica,sans-Serif" font-size="11.00">numeric[10]</text>
<polygon fill="none" stroke="black" points="709,-513 709,-535 914,-535 914,-513 709,-513"/>
<image xlink:href="../../images/foreignKeys.png" width="11px" height="12px" preserveAspectRatio="xMinYMin meet" x="714" y="-530"/>
<text text-anchor="start" x="729" y="-521.2" font-family="Helvetica,sans-Serif" font-size="11.00">intercompanydueto_acct</text>
<polygon fill="none" stroke="black" points="914,-513 914,-535 997,-535 997,-513 914,-513"/>
<text text-anchor="start" x="917" y="-521.2" font-family="Helvetica,sans-Serif" font-size="11.00">numeric[10]</text>
<polygon fill="none" stroke="black" points="709,-491 709,-513 914,-513 914,-491 709,-491"/>
<image xlink:href="../../images/foreignKeys.png" width="11px" height="12px" preserveAspectRatio="xMinYMin meet" x="714" y="-508"/>
<text text-anchor="start" x="729" y="-499.2" font-family="Helvetica,sans-Serif" font-size="11.00">intercompanyduefrom_acct</text>
<polygon fill="none" stroke="black" points="914,-491 914,-513 997,-513 997,-491 914,-491"/>
<text text-anchor="start" x="917" y="-499.2" font-family="Helvetica,sans-Serif" font-size="11.00">numeric[10]</text>
<polygon fill="#ffffff" stroke="transparent" points="709,-469 709,-491 914,-491 914,-469 709,-469"/>
<polygon fill="none" stroke="black" points="709,-469 709,-491 914,-491 914,-469 709,-469"/>
<text text-anchor="start" x="729" y="-477.2" font-family="Helvetica,sans-Serif" font-size="11.00">c_interorg_acct_uu</text>
<polygon fill="none" stroke="black" points="914,-469 914,-491 997,-491 997,-469 914,-469"/>
<text text-anchor="start" x="917" y="-477.2" font-family="Helvetica,sans-Serif" font-size="11.00">varchar[36]</text>
<polygon fill="#ffffff" stroke="transparent" points="709,-451 709,-469 803,-469 803,-451 709,-451"/>
<polygon fill="none" stroke="black" points="709,-451 709,-469 803,-469 803,-451 709,-451"/>
<text text-anchor="start" x="712" y="-457.2" font-family="Helvetica,sans-Serif" font-size="11.00">&lt; 5</text>
<polygon fill="#ffffff" stroke="transparent" points="803,-451 803,-469 914,-469 914,-451 803,-451"/>
<polygon fill="none" stroke="black" points="803,-451 803,-469 914,-469 914,-451 803,-451"/>
<text text-anchor="start" x="878" y="-457.2" font-family="Helvetica,sans-Serif" font-size="11.00">0 rows</text>
<polygon fill="#ffffff" stroke="transparent" points="914,-451 914,-469 997,-469 997,-451 914,-451"/>
<polygon fill="none" stroke="black" points="914,-451 914,-469 997,-469 997,-451 914,-451"/>
<text text-anchor="start" x="978" y="-457.2" font-family="Helvetica,sans-Serif" font-size="11.00">0 &gt;</text>
<polygon fill="none" stroke="black" stroke-width="2" points="708,-450 708,-756 998,-756 998,-450 708,-450"/>
</a>
</g>
</g>
<!-- c_interorg_acct&#45;&gt;c_acctschema -->
<g id="edge5" class="edge">
<title>c_interorg_acct:w&#45;&gt;c_acctschema:e</title>
<path fill="none" stroke="black" d="M693.58,-721.46C573.32,-712.17 566.88,-587 437.5,-587"/>
<polygon fill="black" stroke="black" points="700.01,-721.7 707.86,-725.6 704,-721.85 708,-722 708,-722 708,-722 704,-721.85 708.14,-718.4 700.01,-721.7 700.01,-721.7"/>
<ellipse fill="none" stroke="black" cx="696.81" cy="-721.58" rx="3.2" ry="3.2"/>
</g>
<!-- c_interorg_acct&#45;&gt;ad_org -->
<g id="edge3" class="edge">
<title>c_interorg_acct:w&#45;&gt;ad_org:e</title>
<path fill="none" stroke="black" d="M693.59,-700.16C496.15,-704.43 409.29,-794.27 241,-681 205.36,-657.01 243.96,-593 201,-593"/>
<polygon fill="black" stroke="black" points="700,-700.09 708.04,-703.6 704,-700.04 708,-700 708,-700 708,-700 704,-700.04 707.96,-696.4 700,-700.09 700,-700.09"/>
<ellipse fill="none" stroke="black" cx="696.8" cy="-700.12" rx="3.2" ry="3.2"/>
</g>
<!-- c_interorg_acct&#45;&gt;ad_org -->
<g id="edge4" class="edge">
<title>c_interorg_acct:w&#45;&gt;ad_org:e</title>
<path fill="none" stroke="black" d="M693.35,-678.12C580.46,-679.74 327.94,-697.21 241,-649 214.25,-634.17 231.59,-593 201,-593"/>
<polygon fill="black" stroke="black" points="700,-678.06 708.03,-681.6 704,-678.03 708,-678 708,-678 708,-678 704,-678.03 707.97,-674.4 700,-678.06 700,-678.06"/>
<ellipse fill="none" stroke="black" cx="696.8" cy="-678.09" rx="3.2" ry="3.2"/>
</g>
<!-- c_validcombination -->
<g id="node4" class="node">
<title>c_validcombination</title>
<g id="a_node4"><a xlink:href="../../tables/c_validcombination.html" xlink:title="c_validcombination" target="_top">
<polygon fill="#ffffff" stroke="transparent" points="485,-37 485,-557 658,-557 658,-37 485,-37"/>
<polygon fill="#f5f5f5" stroke="transparent" points="485.5,-535 485.5,-557 658.5,-557 658.5,-535 485.5,-535"/>
<polygon fill="none" stroke="black" points="485.5,-535 485.5,-557 658.5,-557 658.5,-535 485.5,-535"/>
<text text-anchor="start" x="490.5" y="-544.2" font-family="Helvetica,sans-Serif" font-weight="bold" font-size="11.00">c_validcombination</text>
<text text-anchor="start" x="623.5" y="-543.2" font-family="Helvetica,sans-Serif" font-size="11.00">[table]</text>
<polygon fill="none" stroke="black" points="485.5,-513 485.5,-535 658.5,-535 658.5,-513 485.5,-513"/>
<image xlink:href="../../images/primaryKeys.png" width="11px" height="12px" preserveAspectRatio="xMinYMin meet" x="490.5" y="-530"/>
<text text-anchor="start" x="505.5" y="-521.2" font-family="Helvetica,sans-Serif" font-size="11.00">c_validcombination_id</text>
<polygon fill="#ffffff" stroke="transparent" points="485.5,-491 485.5,-513 658.5,-513 658.5,-491 485.5,-491"/>
<polygon fill="none" stroke="black" points="485.5,-491 485.5,-513 658.5,-513 658.5,-491 485.5,-491"/>
<image xlink:href="../../images/foreignKeys.png" width="11px" height="12px" preserveAspectRatio="xMinYMin meet" x="490.5" y="-508"/>
<text text-anchor="start" x="505.5" y="-499.2" font-family="Helvetica,sans-Serif" font-size="11.00">ad_client_id</text>
<polygon fill="#ffffff" stroke="transparent" points="485.5,-469 485.5,-491 658.5,-491 658.5,-469 485.5,-469"/>
<polygon fill="none" stroke="black" points="485.5,-469 485.5,-491 658.5,-491 658.5,-469 485.5,-469"/>
<image xlink:href="../../images/foreignKeys.png" width="11px" height="12px" preserveAspectRatio="xMinYMin meet" x="490.5" y="-486"/>
<text text-anchor="start" x="505.5" y="-477.2" font-family="Helvetica,sans-Serif" font-size="11.00">ad_org_id</text>
<polygon fill="#ffffff" stroke="transparent" points="485.5,-447 485.5,-469 658.5,-469 658.5,-447 485.5,-447"/>
<polygon fill="none" stroke="black" points="485.5,-447 485.5,-469 658.5,-469 658.5,-447 485.5,-447"/>
<text text-anchor="start" x="505.5" y="-455.2" font-family="Helvetica,sans-Serif" font-size="11.00">alias</text>
<polygon fill="#ffffff" stroke="transparent" points="485.5,-425 485.5,-447 658.5,-447 658.5,-425 485.5,-425"/>
<polygon fill="none" stroke="black" points="485.5,-425 485.5,-447 658.5,-447 658.5,-425 485.5,-425"/>
<image xlink:href="../../images/foreignKeys.png" width="11px" height="12px" preserveAspectRatio="xMinYMin meet" x="490.5" y="-442"/>
<text text-anchor="start" x="505.5" y="-433.2" font-family="Helvetica,sans-Serif" font-size="11.00">c_acctschema_id</text>
<polygon fill="#ffffff" stroke="transparent" points="485.5,-403 485.5,-425 658.5,-425 658.5,-403 485.5,-403"/>
<polygon fill="none" stroke="black" points="485.5,-403 485.5,-425 658.5,-425 658.5,-403 485.5,-403"/>
<image xlink:href="../../images/foreignKeys.png" width="11px" height="12px" preserveAspectRatio="xMinYMin meet" x="490.5" y="-420"/>
<text text-anchor="start" x="505.5" y="-411.2" font-family="Helvetica,sans-Serif" font-size="11.00">account_id</text>
<polygon fill="#ffffff" stroke="transparent" points="485.5,-381 485.5,-403 658.5,-403 658.5,-381 485.5,-381"/>
<polygon fill="none" stroke="black" points="485.5,-381 485.5,-403 658.5,-403 658.5,-381 485.5,-381"/>
<image xlink:href="../../images/foreignKeys.png" width="11px" height="12px" preserveAspectRatio="xMinYMin meet" x="490.5" y="-398"/>
<text text-anchor="start" x="505.5" y="-389.2" font-family="Helvetica,sans-Serif" font-size="11.00">m_product_id</text>
<polygon fill="#ffffff" stroke="transparent" points="485.5,-359 485.5,-381 658.5,-381 658.5,-359 485.5,-359"/>
<polygon fill="none" stroke="black" points="485.5,-359 485.5,-381 658.5,-381 658.5,-359 485.5,-359"/>
<image xlink:href="../../images/foreignKeys.png" width="11px" height="12px" preserveAspectRatio="xMinYMin meet" x="490.5" y="-376"/>
<text text-anchor="start" x="505.5" y="-367.2" font-family="Helvetica,sans-Serif" font-size="11.00">c_bpartner_id</text>
<polygon fill="#ffffff" stroke="transparent" points="485.5,-337 485.5,-359 658.5,-359 658.5,-337 485.5,-337"/>
<polygon fill="none" stroke="black" points="485.5,-337 485.5,-359 658.5,-359 658.5,-337 485.5,-337"/>
<image xlink:href="../../images/foreignKeys.png" width="11px" height="12px" preserveAspectRatio="xMinYMin meet" x="490.5" y="-354"/>
<text text-anchor="start" x="505.5" y="-345.2" font-family="Helvetica,sans-Serif" font-size="11.00">ad_orgtrx_id</text>
<polygon fill="#ffffff" stroke="transparent" points="485.5,-315 485.5,-337 658.5,-337 658.5,-315 485.5,-315"/>
<polygon fill="none" stroke="black" points="485.5,-315 485.5,-337 658.5,-337 658.5,-315 485.5,-315"/>
<image xlink:href="../../images/foreignKeys.png" width="11px" height="12px" preserveAspectRatio="xMinYMin meet" x="490.5" y="-332"/>
<text text-anchor="start" x="505.5" y="-323.2" font-family="Helvetica,sans-Serif" font-size="11.00">c_locfrom_id</text>
<polygon fill="#ffffff" stroke="transparent" points="485.5,-293 485.5,-315 658.5,-315 658.5,-293 485.5,-293"/>
<polygon fill="none" stroke="black" points="485.5,-293 485.5,-315 658.5,-315 658.5,-293 485.5,-293"/>
<image xlink:href="../../images/foreignKeys.png" width="11px" height="12px" preserveAspectRatio="xMinYMin meet" x="490.5" y="-310"/>
<text text-anchor="start" x="505.5" y="-301.2" font-family="Helvetica,sans-Serif" font-size="11.00">c_locto_id</text>
<polygon fill="#ffffff" stroke="transparent" points="485.5,-271 485.5,-293 658.5,-293 658.5,-271 485.5,-271"/>
<polygon fill="none" stroke="black" points="485.5,-271 485.5,-293 658.5,-293 658.5,-271 485.5,-271"/>
<image xlink:href="../../images/foreignKeys.png" width="11px" height="12px" preserveAspectRatio="xMinYMin meet" x="490.5" y="-288"/>
<text text-anchor="start" x="505.5" y="-279.2" font-family="Helvetica,sans-Serif" font-size="11.00">c_salesregion_id</text>
<polygon fill="#ffffff" stroke="transparent" points="485.5,-249 485.5,-271 658.5,-271 658.5,-249 485.5,-249"/>
<polygon fill="none" stroke="black" points="485.5,-249 485.5,-271 658.5,-271 658.5,-249 485.5,-249"/>
<image xlink:href="../../images/foreignKeys.png" width="11px" height="12px" preserveAspectRatio="xMinYMin meet" x="490.5" y="-266"/>
<text text-anchor="start" x="505.5" y="-257.2" font-family="Helvetica,sans-Serif" font-size="11.00">c_project_id</text>
<polygon fill="#ffffff" stroke="transparent" points="485.5,-227 485.5,-249 658.5,-249 658.5,-227 485.5,-227"/>
<polygon fill="none" stroke="black" points="485.5,-227 485.5,-249 658.5,-249 658.5,-227 485.5,-227"/>
<image xlink:href="../../images/foreignKeys.png" width="11px" height="12px" preserveAspectRatio="xMinYMin meet" x="490.5" y="-244"/>
<text text-anchor="start" x="505.5" y="-235.2" font-family="Helvetica,sans-Serif" font-size="11.00">c_campaign_id</text>
<polygon fill="#ffffff" stroke="transparent" points="485.5,-205 485.5,-227 658.5,-227 658.5,-205 485.5,-205"/>
<polygon fill="none" stroke="black" points="485.5,-205 485.5,-227 658.5,-227 658.5,-205 485.5,-205"/>
<image xlink:href="../../images/foreignKeys.png" width="11px" height="12px" preserveAspectRatio="xMinYMin meet" x="490.5" y="-222"/>
<text text-anchor="start" x="505.5" y="-213.2" font-family="Helvetica,sans-Serif" font-size="11.00">c_activity_id</text>
<polygon fill="#ffffff" stroke="transparent" points="485.5,-183 485.5,-205 658.5,-205 658.5,-183 485.5,-183"/>
<polygon fill="none" stroke="black" points="485.5,-183 485.5,-205 658.5,-205 658.5,-183 485.5,-183"/>
<image xlink:href="../../images/foreignKeys.png" width="11px" height="12px" preserveAspectRatio="xMinYMin meet" x="490.5" y="-200"/>
<text text-anchor="start" x="505.5" y="-191.2" font-family="Helvetica,sans-Serif" font-size="11.00">user1_id</text>
<polygon fill="#ffffff" stroke="transparent" points="485.5,-161 485.5,-183 658.5,-183 658.5,-161 485.5,-161"/>
<polygon fill="none" stroke="black" points="485.5,-161 485.5,-183 658.5,-183 658.5,-161 485.5,-161"/>
<image xlink:href="../../images/foreignKeys.png" width="11px" height="12px" preserveAspectRatio="xMinYMin meet" x="490.5" y="-178"/>
<text text-anchor="start" x="505.5" y="-169.2" font-family="Helvetica,sans-Serif" font-size="11.00">user2_id</text>
<polygon fill="#ffffff" stroke="transparent" points="485.5,-139 485.5,-161 658.5,-161 658.5,-139 485.5,-139"/>
<polygon fill="none" stroke="black" points="485.5,-139 485.5,-161 658.5,-161 658.5,-139 485.5,-139"/>
<image xlink:href="../../images/foreignKeys.png" width="11px" height="12px" preserveAspectRatio="xMinYMin meet" x="490.5" y="-156"/>
<text text-anchor="start" x="505.5" y="-147.2" font-family="Helvetica,sans-Serif" font-size="11.00">c_subacct_id</text>
<polygon fill="#ffffff" stroke="transparent" points="485.5,-117 485.5,-139 658.5,-139 658.5,-117 485.5,-117"/>
<polygon fill="none" stroke="black" points="485.5,-117 485.5,-139 658.5,-139 658.5,-117 485.5,-117"/>
<text text-anchor="start" x="505.5" y="-125.2" font-family="Helvetica,sans-Serif" font-size="11.00">userelement1_id</text>
<polygon fill="#ffffff" stroke="transparent" points="485.5,-95 485.5,-117 658.5,-117 658.5,-95 485.5,-95"/>
<polygon fill="none" stroke="black" points="485.5,-95 485.5,-117 658.5,-117 658.5,-95 485.5,-95"/>
<text text-anchor="start" x="505.5" y="-103.2" font-family="Helvetica,sans-Serif" font-size="11.00">userelement2_id</text>
<polygon fill="#ffffff" stroke="transparent" points="485.5,-73 485.5,-95 658.5,-95 658.5,-73 485.5,-73"/>
<polygon fill="none" stroke="black" points="485.5,-73 485.5,-95 658.5,-95 658.5,-73 485.5,-73"/>
<text text-anchor="start" x="505.5" y="-81.2" font-family="Helvetica,sans-Serif" font-size="11.00">c_validcombination_uu</text>
<polygon fill="none" stroke="black" points="485.5,-55 485.5,-73 658.5,-73 658.5,-55 485.5,-55"/>
<text text-anchor="start" x="488.5" y="-61.2" font-family="Helvetica,sans-Serif" font-size="11.00">...</text>
<polygon fill="#ffffff" stroke="transparent" points="485.5,-37 485.5,-55 543.5,-55 543.5,-37 485.5,-37"/>
<polygon fill="none" stroke="black" points="485.5,-37 485.5,-55 543.5,-55 543.5,-37 485.5,-37"/>
<text text-anchor="start" x="488.5" y="-43.2" font-family="Helvetica,sans-Serif" font-size="11.00">&lt; 16</text>
<polygon fill="#ffffff" stroke="transparent" points="543.5,-37 543.5,-55 609.5,-55 609.5,-37 543.5,-37"/>
<polygon fill="none" stroke="black" points="543.5,-37 543.5,-55 609.5,-55 609.5,-37 543.5,-37"/>
<text text-anchor="start" x="561.5" y="-43.2" font-family="Helvetica,sans-Serif" font-size="11.00">784 rows</text>
<polygon fill="#ffffff" stroke="transparent" points="609.5,-37 609.5,-55 658.5,-55 658.5,-37 609.5,-37"/>
<polygon fill="none" stroke="black" points="609.5,-37 609.5,-55 658.5,-55 658.5,-37 609.5,-37"/>
<text text-anchor="start" x="627.5" y="-43.2" font-family="Helvetica,sans-Serif" font-size="11.00">262 &gt;</text>
</a>
</g>
</g>
<!-- c_interorg_acct&#45;&gt;c_validcombination -->
<g id="edge6" class="edge">
<title>c_interorg_acct:w&#45;&gt;c_validcombination:e</title>
<path fill="none" stroke="black" d="M693.76,-505.44C682.34,-511.62 677.25,-524 659.5,-524"/>
<polygon fill="black" stroke="black" points="700.22,-503.88 708.85,-505.5 704.11,-502.94 708,-502 708,-502 708,-502 704.11,-502.94 707.15,-498.5 700.22,-503.88 700.22,-503.88"/>
<ellipse fill="none" stroke="black" cx="697.11" cy="-504.63" rx="3.2" ry="3.2"/>
</g>
<!-- c_interorg_acct&#45;&gt;c_validcombination -->
<g id="edge7" class="edge">
<title>c_interorg_acct:w&#45;&gt;c_validcombination:e</title>
<path fill="none" stroke="black" d="M693.28,-524C682.29,-524 675.16,-524 659.5,-524"/>
<polygon fill="black" stroke="black" points="700,-524 708,-527.6 704,-524 708,-524 708,-524 708,-524 704,-524 708,-520.4 700,-524 700,-524"/>
<ellipse fill="none" stroke="black" cx="696.8" cy="-524" rx="3.2" ry="3.2"/>
</g>
<!-- c_validcombination&#45;&gt;c_acctschema -->
<g id="edge10" class="edge">
<title>c_validcombination:w&#45;&gt;c_acctschema:e</title>
<path fill="none" stroke="black" d="M470.33,-438.88C428.46,-459.76 502.02,-587 437.5,-587"/>
<polygon fill="black" stroke="black" points="476.66,-437.59 485.22,-439.53 480.58,-436.8 484.5,-436 484.5,-436 484.5,-436 480.58,-436.8 483.78,-432.47 476.66,-437.59 476.66,-437.59"/>
<ellipse fill="none" stroke="black" cx="473.52" cy="-438.23" rx="3.2" ry="3.2"/>
</g>
<!-- c_validcombination&#45;&gt;ad_org -->
<g id="edge8" class="edge">
<title>c_validcombination:w&#45;&gt;ad_org:e</title>
<path fill="none" stroke="black" d="M470.07,-482.2C428.16,-497.79 494.5,-592.26 444,-631 408.21,-658.46 282.9,-647.73 241,-631 218.23,-621.91 225.52,-593 201,-593"/>
<polygon fill="black" stroke="black" points="476.59,-481.2 485.04,-483.56 480.55,-480.6 484.5,-480 484.5,-480 484.5,-480 480.55,-480.6 483.96,-476.44 476.59,-481.2 476.59,-481.2"/>
<ellipse fill="none" stroke="black" cx="473.43" cy="-481.69" rx="3.2" ry="3.2"/>
</g>
<!-- c_validcombination&#45;&gt;ad_org -->
<g id="edge9" class="edge">
<title>c_validcombination:w&#45;&gt;ad_org:e</title>
<path fill="none" stroke="black" d="M469.93,-347.6C371.29,-342.25 319.11,-285.44 241,-353 200.11,-388.37 255.07,-593 201,-593"/>
<polygon fill="black" stroke="black" points="476.5,-347.78 484.4,-351.6 480.5,-347.89 484.5,-348 484.5,-348 484.5,-348 480.5,-347.89 484.6,-344.4 476.5,-347.78 476.5,-347.78"/>
<ellipse fill="none" stroke="black" cx="473.3" cy="-347.7" rx="3.2" ry="3.2"/>
</g>
</g>
</svg>
