<?xml version="1.0" encoding="UTF-8" standalone="no"?>
<!DOCTYPE svg PUBLIC "-//W3C//DTD SVG 1.1//EN"
 "http://www.w3.org/Graphics/SVG/1.1/DTD/svg11.dtd">
<!-- Generated by graphviz version 2.43.0 (0)
 -->
<!-- Title: oneDegreeRelationshipsDiagram Pages: 1 -->
<svg width="721pt" height="624pt"
 viewBox="0.00 0.00 721.00 624.38" xmlns="http://www.w3.org/2000/svg" xmlns:xlink="http://www.w3.org/1999/xlink">
<g id="graph0" class="graph" transform="scale(1 1) rotate(0) translate(4 620.38)">
<title>oneDegreeRelationshipsDiagram</title>
<polygon fill="#ffffff" stroke="transparent" points="-4,4 -4,-620.38 717,-620.38 717,4 -4,4"/>
<text text-anchor="middle" x="71.5" y="-7.2" font-family="Helvetica,sans-Serif" font-size="11.00">Generated by SchemaSpy</text>
<!-- ad_user -->
<g id="node1" class="node">
<title>ad_user</title>
<g id="a_node1"><a xlink:href="../../tables/ad_user.html" xlink:title="ad_user" target="_top">
<polygon fill="#ffffff" stroke="transparent" points="190,-92.38 190,-612.38 413,-612.38 413,-92.38 190,-92.38"/>
<polygon fill="#f5f5f5" stroke="transparent" points="190.5,-590.38 190.5,-612.38 413.5,-612.38 413.5,-590.38 190.5,-590.38"/>
<polygon fill="none" stroke="black" points="190.5,-590.38 190.5,-612.38 413.5,-612.38 413.5,-590.38 190.5,-590.38"/>
<text text-anchor="start" x="195.5" y="-599.58" font-family="Helvetica,sans-Serif" font-weight="bold" font-size="11.00">ad_user</text>
<text text-anchor="start" x="378.5" y="-598.58" font-family="Helvetica,sans-Serif" font-size="11.00">[table]</text>
<polygon fill="none" stroke="black" points="190.5,-568.38 190.5,-590.38 413.5,-590.38 413.5,-568.38 190.5,-568.38"/>
<image xlink:href="../../images/primaryKeys.png" width="11px" height="12px" preserveAspectRatio="xMinYMin meet" x="195.5" y="-585.378"/>
<text text-anchor="start" x="210.5" y="-576.58" font-family="Helvetica,sans-Serif" font-size="11.00">ad_user_id</text>
<polygon fill="none" stroke="black" points="190.5,-546.38 190.5,-568.38 413.5,-568.38 413.5,-546.38 190.5,-546.38"/>
<image xlink:href="../../images/foreignKeys.png" width="11px" height="12px" preserveAspectRatio="xMinYMin meet" x="195.5" y="-563.378"/>
<text text-anchor="start" x="210.5" y="-554.58" font-family="Helvetica,sans-Serif" font-size="11.00">ad_client_id</text>
<polygon fill="none" stroke="black" points="190.5,-524.38 190.5,-546.38 413.5,-546.38 413.5,-524.38 190.5,-524.38"/>
<image xlink:href="../../images/foreignKeys.png" width="11px" height="12px" preserveAspectRatio="xMinYMin meet" x="195.5" y="-541.378"/>
<text text-anchor="start" x="210.5" y="-532.58" font-family="Helvetica,sans-Serif" font-size="11.00">ad_org_id</text>
<polygon fill="#ffffff" stroke="transparent" points="190.5,-502.38 190.5,-524.38 413.5,-524.38 413.5,-502.38 190.5,-502.38"/>
<polygon fill="none" stroke="black" points="190.5,-502.38 190.5,-524.38 413.5,-524.38 413.5,-502.38 190.5,-502.38"/>
<text text-anchor="start" x="210.5" y="-510.58" font-family="Helvetica,sans-Serif" font-size="11.00">name</text>
<polygon fill="#ffffff" stroke="transparent" points="190.5,-480.38 190.5,-502.38 413.5,-502.38 413.5,-480.38 190.5,-480.38"/>
<polygon fill="none" stroke="black" points="190.5,-480.38 190.5,-502.38 413.5,-502.38 413.5,-480.38 190.5,-480.38"/>
<text text-anchor="start" x="210.5" y="-488.58" font-family="Helvetica,sans-Serif" font-size="11.00">email</text>
<polygon fill="none" stroke="black" points="190.5,-458.38 190.5,-480.38 413.5,-480.38 413.5,-458.38 190.5,-458.38"/>
<image xlink:href="../../images/foreignKeys.png" width="11px" height="12px" preserveAspectRatio="xMinYMin meet" x="195.5" y="-475.378"/>
<text text-anchor="start" x="210.5" y="-466.58" font-family="Helvetica,sans-Serif" font-size="11.00">supervisor_id</text>
<polygon fill="#ffffff" stroke="transparent" points="190.5,-436.38 190.5,-458.38 413.5,-458.38 413.5,-436.38 190.5,-436.38"/>
<polygon fill="none" stroke="black" points="190.5,-436.38 190.5,-458.38 413.5,-458.38 413.5,-436.38 190.5,-436.38"/>
<image xlink:href="../../images/foreignKeys.png" width="11px" height="12px" preserveAspectRatio="xMinYMin meet" x="195.5" y="-453.378"/>
<text text-anchor="start" x="210.5" y="-444.58" font-family="Helvetica,sans-Serif" font-size="11.00">c_bpartner_id</text>
<polygon fill="none" stroke="black" points="190.5,-414.38 190.5,-436.38 413.5,-436.38 413.5,-414.38 190.5,-414.38"/>
<image xlink:href="../../images/foreignKeys.png" width="11px" height="12px" preserveAspectRatio="xMinYMin meet" x="195.5" y="-431.378"/>
<text text-anchor="start" x="210.5" y="-422.58" font-family="Helvetica,sans-Serif" font-size="11.00">c_bpartner_location_id</text>
<polygon fill="none" stroke="black" points="190.5,-392.38 190.5,-414.38 413.5,-414.38 413.5,-392.38 190.5,-392.38"/>
<image xlink:href="../../images/foreignKeys.png" width="11px" height="12px" preserveAspectRatio="xMinYMin meet" x="195.5" y="-409.378"/>
<text text-anchor="start" x="210.5" y="-400.58" font-family="Helvetica,sans-Serif" font-size="11.00">c_greeting_id</text>
<polygon fill="none" stroke="black" points="190.5,-370.38 190.5,-392.38 413.5,-392.38 413.5,-370.38 190.5,-370.38"/>
<image xlink:href="../../images/foreignKeys.png" width="11px" height="12px" preserveAspectRatio="xMinYMin meet" x="195.5" y="-387.378"/>
<text text-anchor="start" x="210.5" y="-378.58" font-family="Helvetica,sans-Serif" font-size="11.00">ad_orgtrx_id</text>
<polygon fill="none" stroke="black" points="190.5,-348.38 190.5,-370.38 413.5,-370.38 413.5,-348.38 190.5,-348.38"/>
<image xlink:href="../../images/foreignKeys.png" width="11px" height="12px" preserveAspectRatio="xMinYMin meet" x="195.5" y="-365.378"/>
<text text-anchor="start" x="210.5" y="-356.58" font-family="Helvetica,sans-Serif" font-size="11.00">c_job_id</text>
<polygon fill="#ffffff" stroke="transparent" points="190.5,-326.38 190.5,-348.38 413.5,-348.38 413.5,-326.38 190.5,-326.38"/>
<polygon fill="none" stroke="black" points="190.5,-326.38 190.5,-348.38 413.5,-348.38 413.5,-326.38 190.5,-326.38"/>
<text text-anchor="start" x="210.5" y="-334.58" font-family="Helvetica,sans-Serif" font-size="11.00">ad_user_uu</text>
<polygon fill="none" stroke="black" points="190.5,-304.38 190.5,-326.38 413.5,-326.38 413.5,-304.38 190.5,-304.38"/>
<image xlink:href="../../images/foreignKeys.png" width="11px" height="12px" preserveAspectRatio="xMinYMin meet" x="195.5" y="-321.378"/>
<text text-anchor="start" x="210.5" y="-312.58" font-family="Helvetica,sans-Serif" font-size="11.00">c_location_id</text>
<polygon fill="none" stroke="black" points="190.5,-282.38 190.5,-304.38 413.5,-304.38 413.5,-282.38 190.5,-282.38"/>
<image xlink:href="../../images/foreignKeys.png" width="11px" height="12px" preserveAspectRatio="xMinYMin meet" x="195.5" y="-299.378"/>
<text text-anchor="start" x="210.5" y="-290.58" font-family="Helvetica,sans-Serif" font-size="11.00">c_campaign_id</text>
<polygon fill="none" stroke="black" points="190.5,-260.38 190.5,-282.38 413.5,-282.38 413.5,-260.38 190.5,-260.38"/>
<image xlink:href="../../images/foreignKeys.png" width="11px" height="12px" preserveAspectRatio="xMinYMin meet" x="195.5" y="-277.378"/>
<text text-anchor="start" x="210.5" y="-268.58" font-family="Helvetica,sans-Serif" font-size="11.00">salesrep_id</text>
<polygon fill="none" stroke="black" points="190.5,-238.38 190.5,-260.38 413.5,-260.38 413.5,-238.38 190.5,-238.38"/>
<image xlink:href="../../images/foreignKeys.png" width="11px" height="12px" preserveAspectRatio="xMinYMin meet" x="195.5" y="-255.378"/>
<text text-anchor="start" x="210.5" y="-246.58" font-family="Helvetica,sans-Serif" font-size="11.00">bp_location_id</text>
<polygon fill="none" stroke="black" points="190.5,-216.38 190.5,-238.38 413.5,-238.38 413.5,-216.38 190.5,-216.38"/>
<image xlink:href="../../images/foreignKeys.png" width="11px" height="12px" preserveAspectRatio="xMinYMin meet" x="195.5" y="-233.378"/>
<text text-anchor="start" x="210.5" y="-224.58" font-family="Helvetica,sans-Serif" font-size="11.00">r_defaultmailtext_id</text>
<polygon fill="none" stroke="black" points="190.5,-194.38 190.5,-216.38 413.5,-216.38 413.5,-194.38 190.5,-194.38"/>
<image xlink:href="../../images/foreignKeys.png" width="11px" height="12px" preserveAspectRatio="xMinYMin meet" x="195.5" y="-211.378"/>
<text text-anchor="start" x="210.5" y="-202.58" font-family="Helvetica,sans-Serif" font-size="11.00">cof_c_marketsegment_id</text>
<polygon fill="none" stroke="black" points="190.5,-172.38 190.5,-194.38 413.5,-194.38 413.5,-172.38 190.5,-172.38"/>
<image xlink:href="../../images/foreignKeys.png" width="11px" height="12px" preserveAspectRatio="xMinYMin meet" x="195.5" y="-189.378"/>
<text text-anchor="start" x="210.5" y="-180.58" font-family="Helvetica,sans-Serif" font-size="11.00">cof_c_leadexpirationreason_id</text>
<polygon fill="none" stroke="black" points="190.5,-150.38 190.5,-172.38 413.5,-172.38 413.5,-150.38 190.5,-150.38"/>
<image xlink:href="../../images/foreignKeys.png" width="11px" height="12px" preserveAspectRatio="xMinYMin meet" x="195.5" y="-167.378"/>
<text text-anchor="start" x="210.5" y="-158.58" font-family="Helvetica,sans-Serif" font-size="11.00">ad_image_id</text>
<polygon fill="none" stroke="black" points="190.5,-128.38 190.5,-150.38 413.5,-150.38 413.5,-128.38 190.5,-128.38"/>
<image xlink:href="../../images/foreignKeys.png" width="11px" height="12px" preserveAspectRatio="xMinYMin meet" x="195.5" y="-145.378"/>
<text text-anchor="start" x="210.5" y="-136.58" font-family="Helvetica,sans-Serif" font-size="11.00">c_subscription_id</text>
<polygon fill="none" stroke="black" points="190.5,-110.38 190.5,-128.38 413.5,-128.38 413.5,-110.38 190.5,-110.38"/>
<text text-anchor="start" x="193.5" y="-116.58" font-family="Helvetica,sans-Serif" font-size="11.00">...</text>
<polygon fill="#ffffff" stroke="transparent" points="190.5,-92.38 190.5,-110.38 279.5,-110.38 279.5,-92.38 190.5,-92.38"/>
<polygon fill="none" stroke="black" points="190.5,-92.38 190.5,-110.38 279.5,-110.38 279.5,-92.38 190.5,-92.38"/>
<text text-anchor="start" x="193.5" y="-98.58" font-family="Helvetica,sans-Serif" font-size="11.00">&lt; 17</text>
<polygon fill="#ffffff" stroke="transparent" points="279.5,-92.38 279.5,-110.38 348.5,-110.38 348.5,-92.38 279.5,-92.38"/>
<polygon fill="none" stroke="black" points="279.5,-92.38 279.5,-110.38 348.5,-110.38 348.5,-92.38 279.5,-92.38"/>
<text text-anchor="start" x="312.5" y="-98.58" font-family="Helvetica,sans-Serif" font-size="11.00">8 rows</text>
<polygon fill="#ffffff" stroke="transparent" points="348.5,-92.38 348.5,-110.38 413.5,-110.38 413.5,-92.38 348.5,-92.38"/>
<polygon fill="none" stroke="black" points="348.5,-92.38 348.5,-110.38 413.5,-110.38 413.5,-92.38 348.5,-92.38"/>
<text text-anchor="start" x="382.5" y="-98.58" font-family="Helvetica,sans-Serif" font-size="11.00">316 &gt;</text>
</a>
</g>
</g>
<!-- c_job -->
<g id="node2" class="node">
<title>c_job</title>
<g id="a_node2"><a xlink:href="../../tables/c_job.html" xlink:title="c_job" target="_top">
<polygon fill="#ffffff" stroke="transparent" points="8,-122.38 8,-246.38 141,-246.38 141,-122.38 8,-122.38"/>
<polygon fill="#f5f5f5" stroke="transparent" points="8.5,-224.38 8.5,-246.38 141.5,-246.38 141.5,-224.38 8.5,-224.38"/>
<polygon fill="none" stroke="black" points="8.5,-224.38 8.5,-246.38 141.5,-246.38 141.5,-224.38 8.5,-224.38"/>
<text text-anchor="start" x="13.5" y="-233.58" font-family="Helvetica,sans-Serif" font-weight="bold" font-size="11.00">c_job</text>
<text text-anchor="start" x="106.5" y="-232.58" font-family="Helvetica,sans-Serif" font-size="11.00">[table]</text>
<polygon fill="none" stroke="black" points="8.5,-202.38 8.5,-224.38 141.5,-224.38 141.5,-202.38 8.5,-202.38"/>
<image xlink:href="../../images/primaryKeys.png" width="11px" height="12px" preserveAspectRatio="xMinYMin meet" x="13.5" y="-219.378"/>
<text text-anchor="start" x="28.5" y="-210.58" font-family="Helvetica,sans-Serif" font-size="11.00">c_job_id</text>
<polygon fill="none" stroke="black" points="8.5,-180.38 8.5,-202.38 141.5,-202.38 141.5,-180.38 8.5,-180.38"/>
<image xlink:href="../../images/foreignKeys.png" width="11px" height="12px" preserveAspectRatio="xMinYMin meet" x="13.5" y="-197.378"/>
<text text-anchor="start" x="28.5" y="-188.58" font-family="Helvetica,sans-Serif" font-size="11.00">c_jobcategory_id</text>
<polygon fill="#ffffff" stroke="transparent" points="8.5,-158.38 8.5,-180.38 141.5,-180.38 141.5,-158.38 8.5,-158.38"/>
<polygon fill="none" stroke="black" points="8.5,-158.38 8.5,-180.38 141.5,-180.38 141.5,-158.38 8.5,-158.38"/>
<text text-anchor="start" x="28.5" y="-166.58" font-family="Helvetica,sans-Serif" font-size="11.00">c_job_uu</text>
<polygon fill="none" stroke="black" points="8.5,-140.38 8.5,-158.38 141.5,-158.38 141.5,-140.38 8.5,-140.38"/>
<text text-anchor="start" x="11.5" y="-146.58" font-family="Helvetica,sans-Serif" font-size="11.00">...</text>
<polygon fill="#ffffff" stroke="transparent" points="8.5,-122.38 8.5,-140.38 55.5,-140.38 55.5,-122.38 8.5,-122.38"/>
<polygon fill="none" stroke="black" points="8.5,-122.38 8.5,-140.38 55.5,-140.38 55.5,-122.38 8.5,-122.38"/>
<text text-anchor="start" x="11.5" y="-128.58" font-family="Helvetica,sans-Serif" font-size="11.00">&lt; 1</text>
<polygon fill="#ffffff" stroke="transparent" points="55.5,-122.38 55.5,-140.38 106.5,-140.38 106.5,-122.38 55.5,-122.38"/>
<polygon fill="none" stroke="black" points="55.5,-122.38 55.5,-140.38 106.5,-140.38 106.5,-122.38 55.5,-122.38"/>
<text text-anchor="start" x="70.5" y="-128.58" font-family="Helvetica,sans-Serif" font-size="11.00">0 rows</text>
<polygon fill="#ffffff" stroke="transparent" points="106.5,-122.38 106.5,-140.38 141.5,-140.38 141.5,-122.38 106.5,-122.38"/>
<polygon fill="none" stroke="black" points="106.5,-122.38 106.5,-140.38 141.5,-140.38 141.5,-122.38 106.5,-122.38"/>
<text text-anchor="start" x="122.5" y="-128.58" font-family="Helvetica,sans-Serif" font-size="11.00">4 &gt;</text>
</a>
</g>
</g>
<!-- ad_user&#45;&gt;c_job -->
<g id="edge1" class="edge">
<title>ad_user:w&#45;&gt;c_job:e</title>
<path fill="none" stroke="black" d="M175.22,-356.33C135.52,-335.36 204.81,-213.38 142.5,-213.38"/>
<polygon fill="black" stroke="black" points="181.68,-357.71 188.75,-362.9 185.59,-358.54 189.5,-359.38 189.5,-359.38 189.5,-359.38 185.59,-358.54 190.25,-355.86 181.68,-357.71 181.68,-357.71"/>
<ellipse fill="none" stroke="black" cx="178.55" cy="-357.04" rx="3.2" ry="3.2"/>
</g>
<!-- c_jobassignment -->
<g id="node3" class="node">
<title>c_jobassignment</title>
<g id="a_node3"><a xlink:href="../../tables/c_jobassignment.html" xlink:title="c_jobassignment" target="_top">
<polygon fill="#ffffff" stroke="transparent" points="462,-193.38 462,-545.38 705,-545.38 705,-193.38 462,-193.38"/>
<polygon fill="#f5f5f5" stroke="transparent" points="464.5,-521.38 464.5,-543.38 703.5,-543.38 703.5,-521.38 464.5,-521.38"/>
<polygon fill="none" stroke="black" points="464.5,-521.38 464.5,-543.38 703.5,-543.38 703.5,-521.38 464.5,-521.38"/>
<text text-anchor="start" x="469.5" y="-530.58" font-family="Helvetica,sans-Serif" font-weight="bold" font-size="11.00">c_jobassignment</text>
<text text-anchor="start" x="668.5" y="-529.58" font-family="Helvetica,sans-Serif" font-size="11.00">[table]</text>
<polygon fill="none" stroke="black" points="464.5,-499.38 464.5,-521.38 620.5,-521.38 620.5,-499.38 464.5,-499.38"/>
<image xlink:href="../../images/primaryKeys.png" width="11px" height="12px" preserveAspectRatio="xMinYMin meet" x="469.5" y="-516.378"/>
<text text-anchor="start" x="484.5" y="-507.58" font-family="Helvetica,sans-Serif" font-size="11.00">c_jobassignment_id</text>
<polygon fill="none" stroke="black" points="620.5,-499.38 620.5,-521.38 703.5,-521.38 703.5,-499.38 620.5,-499.38"/>
<text text-anchor="start" x="623.5" y="-507.58" font-family="Helvetica,sans-Serif" font-size="11.00">numeric[10]</text>
<polygon fill="none" stroke="black" points="464.5,-477.38 464.5,-499.38 620.5,-499.38 620.5,-477.38 464.5,-477.38"/>
<text text-anchor="start" x="484.5" y="-485.58" font-family="Helvetica,sans-Serif" font-size="11.00">ad_client_id</text>
<polygon fill="none" stroke="black" points="620.5,-477.38 620.5,-499.38 703.5,-499.38 703.5,-477.38 620.5,-477.38"/>
<text text-anchor="start" x="623.5" y="-485.58" font-family="Helvetica,sans-Serif" font-size="11.00">numeric[10]</text>
<polygon fill="none" stroke="black" points="464.5,-455.38 464.5,-477.38 620.5,-477.38 620.5,-455.38 464.5,-455.38"/>
<text text-anchor="start" x="484.5" y="-463.58" font-family="Helvetica,sans-Serif" font-size="11.00">ad_org_id</text>
<polygon fill="none" stroke="black" points="620.5,-455.38 620.5,-477.38 703.5,-477.38 703.5,-455.38 620.5,-455.38"/>
<text text-anchor="start" x="623.5" y="-463.58" font-family="Helvetica,sans-Serif" font-size="11.00">numeric[10]</text>
<polygon fill="none" stroke="black" points="464.5,-433.38 464.5,-455.38 620.5,-455.38 620.5,-433.38 464.5,-433.38"/>
<text text-anchor="start" x="484.5" y="-441.58" font-family="Helvetica,sans-Serif" font-size="11.00">isactive</text>
<polygon fill="none" stroke="black" points="620.5,-433.38 620.5,-455.38 703.5,-455.38 703.5,-433.38 620.5,-433.38"/>
<text text-anchor="start" x="623.5" y="-441.58" font-family="Helvetica,sans-Serif" font-size="11.00">bpchar[1]</text>
<polygon fill="none" stroke="black" points="464.5,-411.38 464.5,-433.38 620.5,-433.38 620.5,-411.38 464.5,-411.38"/>
<text text-anchor="start" x="484.5" y="-419.58" font-family="Helvetica,sans-Serif" font-size="11.00">created</text>
<polygon fill="none" stroke="black" points="620.5,-411.38 620.5,-433.38 703.5,-433.38 703.5,-411.38 620.5,-411.38"/>
<text text-anchor="start" x="623.5" y="-419.58" font-family="Helvetica,sans-Serif" font-size="11.00">timestamp[29,6]</text>
<polygon fill="none" stroke="black" points="464.5,-389.38 464.5,-411.38 620.5,-411.38 620.5,-389.38 464.5,-389.38"/>
<text text-anchor="start" x="484.5" y="-397.58" font-family="Helvetica,sans-Serif" font-size="11.00">createdby</text>
<polygon fill="none" stroke="black" points="620.5,-389.38 620.5,-411.38 703.5,-411.38 703.5,-389.38 620.5,-389.38"/>
<text text-anchor="start" x="623.5" y="-397.58" font-family="Helvetica,sans-Serif" font-size="11.00">numeric[10]</text>
<polygon fill="none" stroke="black" points="464.5,-367.38 464.5,-389.38 620.5,-389.38 620.5,-367.38 464.5,-367.38"/>
<text text-anchor="start" x="484.5" y="-375.58" font-family="Helvetica,sans-Serif" font-size="11.00">updated</text>
<polygon fill="none" stroke="black" points="620.5,-367.38 620.5,-389.38 703.5,-389.38 703.5,-367.38 620.5,-367.38"/>
<text text-anchor="start" x="623.5" y="-375.58" font-family="Helvetica,sans-Serif" font-size="11.00">timestamp[29,6]</text>
<polygon fill="none" stroke="black" points="464.5,-345.38 464.5,-367.38 620.5,-367.38 620.5,-345.38 464.5,-345.38"/>
<text text-anchor="start" x="484.5" y="-353.58" font-family="Helvetica,sans-Serif" font-size="11.00">updatedby</text>
<polygon fill="none" stroke="black" points="620.5,-345.38 620.5,-367.38 703.5,-367.38 703.5,-345.38 620.5,-345.38"/>
<text text-anchor="start" x="623.5" y="-353.58" font-family="Helvetica,sans-Serif" font-size="11.00">numeric[10]</text>
<polygon fill="none" stroke="black" points="464.5,-323.38 464.5,-345.38 620.5,-345.38 620.5,-323.38 464.5,-323.38"/>
<image xlink:href="../../images/foreignKeys.png" width="11px" height="12px" preserveAspectRatio="xMinYMin meet" x="469.5" y="-340.378"/>
<text text-anchor="start" x="484.5" y="-331.58" font-family="Helvetica,sans-Serif" font-size="11.00">ad_user_id</text>
<polygon fill="none" stroke="black" points="620.5,-323.38 620.5,-345.38 703.5,-345.38 703.5,-323.38 620.5,-323.38"/>
<text text-anchor="start" x="623.5" y="-331.58" font-family="Helvetica,sans-Serif" font-size="11.00">numeric[10]</text>
<polygon fill="none" stroke="black" points="464.5,-301.38 464.5,-323.38 620.5,-323.38 620.5,-301.38 464.5,-301.38"/>
<image xlink:href="../../images/foreignKeys.png" width="11px" height="12px" preserveAspectRatio="xMinYMin meet" x="469.5" y="-318.378"/>
<text text-anchor="start" x="484.5" y="-309.58" font-family="Helvetica,sans-Serif" font-size="11.00">c_job_id</text>
<polygon fill="none" stroke="black" points="620.5,-301.38 620.5,-323.38 703.5,-323.38 703.5,-301.38 620.5,-301.38"/>
<text text-anchor="start" x="623.5" y="-309.58" font-family="Helvetica,sans-Serif" font-size="11.00">numeric[10]</text>
<polygon fill="none" stroke="black" points="464.5,-279.38 464.5,-301.38 620.5,-301.38 620.5,-279.38 464.5,-279.38"/>
<text text-anchor="start" x="484.5" y="-287.58" font-family="Helvetica,sans-Serif" font-size="11.00">validfrom</text>
<polygon fill="none" stroke="black" points="620.5,-279.38 620.5,-301.38 703.5,-301.38 703.5,-279.38 620.5,-279.38"/>
<text text-anchor="start" x="623.5" y="-287.58" font-family="Helvetica,sans-Serif" font-size="11.00">timestamp[29,6]</text>
<polygon fill="none" stroke="black" points="464.5,-257.38 464.5,-279.38 620.5,-279.38 620.5,-257.38 464.5,-257.38"/>
<text text-anchor="start" x="484.5" y="-265.58" font-family="Helvetica,sans-Serif" font-size="11.00">validto</text>
<polygon fill="none" stroke="black" points="620.5,-257.38 620.5,-279.38 703.5,-279.38 703.5,-257.38 620.5,-257.38"/>
<text text-anchor="start" x="623.5" y="-265.58" font-family="Helvetica,sans-Serif" font-size="11.00">timestamp[29,6]</text>
<polygon fill="none" stroke="black" points="464.5,-235.38 464.5,-257.38 620.5,-257.38 620.5,-235.38 464.5,-235.38"/>
<text text-anchor="start" x="484.5" y="-243.58" font-family="Helvetica,sans-Serif" font-size="11.00">description</text>
<polygon fill="none" stroke="black" points="620.5,-235.38 620.5,-257.38 703.5,-257.38 703.5,-235.38 620.5,-235.38"/>
<text text-anchor="start" x="623.5" y="-243.58" font-family="Helvetica,sans-Serif" font-size="11.00">varchar[255]</text>
<polygon fill="#ffffff" stroke="transparent" points="464.5,-213.38 464.5,-235.38 620.5,-235.38 620.5,-213.38 464.5,-213.38"/>
<polygon fill="none" stroke="black" points="464.5,-213.38 464.5,-235.38 620.5,-235.38 620.5,-213.38 464.5,-213.38"/>
<text text-anchor="start" x="484.5" y="-221.58" font-family="Helvetica,sans-Serif" font-size="11.00">c_jobassignment_uu</text>
<polygon fill="none" stroke="black" points="620.5,-213.38 620.5,-235.38 703.5,-235.38 703.5,-213.38 620.5,-213.38"/>
<text text-anchor="start" x="623.5" y="-221.58" font-family="Helvetica,sans-Serif" font-size="11.00">varchar[36]</text>
<polygon fill="#ffffff" stroke="transparent" points="464.5,-195.38 464.5,-213.38 533.5,-213.38 533.5,-195.38 464.5,-195.38"/>
<polygon fill="none" stroke="black" points="464.5,-195.38 464.5,-213.38 533.5,-213.38 533.5,-195.38 464.5,-195.38"/>
<text text-anchor="start" x="467.5" y="-201.58" font-family="Helvetica,sans-Serif" font-size="11.00">&lt; 2</text>
<polygon fill="#ffffff" stroke="transparent" points="533.5,-195.38 533.5,-213.38 620.5,-213.38 620.5,-195.38 533.5,-195.38"/>
<polygon fill="none" stroke="black" points="533.5,-195.38 533.5,-213.38 620.5,-213.38 620.5,-195.38 533.5,-195.38"/>
<text text-anchor="start" x="584.5" y="-201.58" font-family="Helvetica,sans-Serif" font-size="11.00">0 rows</text>
<polygon fill="#ffffff" stroke="transparent" points="620.5,-195.38 620.5,-213.38 703.5,-213.38 703.5,-195.38 620.5,-195.38"/>
<polygon fill="none" stroke="black" points="620.5,-195.38 620.5,-213.38 703.5,-213.38 703.5,-195.38 620.5,-195.38"/>
<text text-anchor="start" x="684.5" y="-201.58" font-family="Helvetica,sans-Serif" font-size="11.00">0 &gt;</text>
<polygon fill="none" stroke="black" stroke-width="2" points="463,-194.38 463,-544.38 704,-544.38 704,-194.38 463,-194.38"/>
</a>
</g>
</g>
<!-- c_jobassignment&#45;&gt;ad_user -->
<g id="edge2" class="edge">
<title>c_jobassignment:w&#45;&gt;ad_user:e</title>
<path fill="none" stroke="black" d="M449.2,-336.07C368.68,-357.72 520.12,-579.38 414.5,-579.38"/>
<polygon fill="black" stroke="black" points="455.56,-335.32 463.92,-337.95 459.53,-334.85 463.5,-334.38 463.5,-334.38 463.5,-334.38 459.53,-334.85 463.08,-330.8 455.56,-335.32 455.56,-335.32"/>
<ellipse fill="none" stroke="black" cx="452.38" cy="-335.7" rx="3.2" ry="3.2"/>
</g>
<!-- c_jobassignment&#45;&gt;c_job -->
<g id="edge3" class="edge">
<title>c_jobassignment:w&#45;&gt;c_job:e</title>
<path fill="none" stroke="black" d="M449.03,-311.05C373.84,-295.4 496.69,-145.36 421,-82.38 339.35,-14.43 267.27,-19.03 182,-82.38 133.19,-118.64 203.31,-213.38 142.5,-213.38"/>
<polygon fill="black" stroke="black" points="455.53,-311.65 463.17,-315.96 459.52,-312.01 463.5,-312.38 463.5,-312.38 463.5,-312.38 459.52,-312.01 463.83,-308.79 455.53,-311.65 455.53,-311.65"/>
<ellipse fill="none" stroke="black" cx="452.35" cy="-311.36" rx="3.2" ry="3.2"/>
</g>
</g>
</svg>
