<?xml version="1.0" encoding="UTF-8" standalone="no"?>
<!DOCTYPE svg PUBLIC "-//W3C//DTD SVG 1.1//EN"
 "http://www.w3.org/Graphics/SVG/1.1/DTD/svg11.dtd">
<!-- Generated by graphviz version 2.43.0 (0)
 -->
<!-- Title: oneDegreeRelationshipsDiagram Pages: 1 -->
<svg width="430pt" height="377pt"
 viewBox="0.00 0.00 430.00 377.00" xmlns="http://www.w3.org/2000/svg" xmlns:xlink="http://www.w3.org/1999/xlink">
<g id="graph0" class="graph" transform="scale(1 1) rotate(0) translate(4 373)">
<title>oneDegreeRelationshipsDiagram</title>
<polygon fill="#ffffff" stroke="transparent" points="-4,4 -4,-373 426,-373 426,4 -4,4"/>
<text text-anchor="middle" x="71.5" y="-7.2" font-family="Helvetica,sans-Serif" font-size="11.00">Generated by SchemaSpy</text>
<!-- c_job -->
<g id="node1" class="node">
<title>c_job</title>
<g id="a_node1"><a xlink:href="../../tables/c_job.html" xlink:title="c_job" target="_top">
<polygon fill="#ffffff" stroke="transparent" points="281,-241 281,-365 414,-365 414,-241 281,-241"/>
<polygon fill="#f5f5f5" stroke="transparent" points="281.5,-343 281.5,-365 414.5,-365 414.5,-343 281.5,-343"/>
<polygon fill="none" stroke="black" points="281.5,-343 281.5,-365 414.5,-365 414.5,-343 281.5,-343"/>
<text text-anchor="start" x="286.5" y="-352.2" font-family="Helvetica,sans-Serif" font-weight="bold" font-size="11.00">c_job</text>
<text text-anchor="start" x="379.5" y="-351.2" font-family="Helvetica,sans-Serif" font-size="11.00">[table]</text>
<polygon fill="none" stroke="black" points="281.5,-321 281.5,-343 414.5,-343 414.5,-321 281.5,-321"/>
<image xlink:href="../../images/primaryKeys.png" width="11px" height="12px" preserveAspectRatio="xMinYMin meet" x="286.5" y="-338"/>
<text text-anchor="start" x="301.5" y="-329.2" font-family="Helvetica,sans-Serif" font-size="11.00">c_job_id</text>
<polygon fill="none" stroke="black" points="281.5,-299 281.5,-321 414.5,-321 414.5,-299 281.5,-299"/>
<image xlink:href="../../images/foreignKeys.png" width="11px" height="12px" preserveAspectRatio="xMinYMin meet" x="286.5" y="-316"/>
<text text-anchor="start" x="301.5" y="-307.2" font-family="Helvetica,sans-Serif" font-size="11.00">c_jobcategory_id</text>
<polygon fill="#ffffff" stroke="transparent" points="281.5,-277 281.5,-299 414.5,-299 414.5,-277 281.5,-277"/>
<polygon fill="none" stroke="black" points="281.5,-277 281.5,-299 414.5,-299 414.5,-277 281.5,-277"/>
<text text-anchor="start" x="301.5" y="-285.2" font-family="Helvetica,sans-Serif" font-size="11.00">c_job_uu</text>
<polygon fill="none" stroke="black" points="281.5,-259 281.5,-277 414.5,-277 414.5,-259 281.5,-259"/>
<text text-anchor="start" x="284.5" y="-265.2" font-family="Helvetica,sans-Serif" font-size="11.00">...</text>
<polygon fill="#ffffff" stroke="transparent" points="281.5,-241 281.5,-259 328.5,-259 328.5,-241 281.5,-241"/>
<polygon fill="none" stroke="black" points="281.5,-241 281.5,-259 328.5,-259 328.5,-241 281.5,-241"/>
<text text-anchor="start" x="284.5" y="-247.2" font-family="Helvetica,sans-Serif" font-size="11.00">&lt; 1</text>
<polygon fill="#ffffff" stroke="transparent" points="328.5,-241 328.5,-259 379.5,-259 379.5,-241 328.5,-241"/>
<polygon fill="none" stroke="black" points="328.5,-241 328.5,-259 379.5,-259 379.5,-241 328.5,-241"/>
<text text-anchor="start" x="343.5" y="-247.2" font-family="Helvetica,sans-Serif" font-size="11.00">0 rows</text>
<polygon fill="#ffffff" stroke="transparent" points="379.5,-241 379.5,-259 414.5,-259 414.5,-241 379.5,-241"/>
<polygon fill="none" stroke="black" points="379.5,-241 379.5,-259 414.5,-259 414.5,-241 379.5,-241"/>
<text text-anchor="start" x="395.5" y="-247.2" font-family="Helvetica,sans-Serif" font-size="11.00">4 &gt;</text>
</a>
</g>
</g>
<!-- c_jobcategory -->
<g id="node2" class="node">
<title>c_jobcategory</title>
<g id="a_node2"><a xlink:href="../../tables/c_jobcategory.html" xlink:title="c_jobcategory" target="_top">
<polygon fill="#ffffff" stroke="transparent" points="8,-37 8,-345 232,-345 232,-37 8,-37"/>
<polygon fill="#f5f5f5" stroke="transparent" points="10,-321 10,-343 230,-343 230,-321 10,-321"/>
<polygon fill="none" stroke="black" points="10,-321 10,-343 230,-343 230,-321 10,-321"/>
<text text-anchor="start" x="15" y="-330.2" font-family="Helvetica,sans-Serif" font-weight="bold" font-size="11.00">c_jobcategory</text>
<text text-anchor="start" x="195" y="-329.2" font-family="Helvetica,sans-Serif" font-size="11.00">[table]</text>
<polygon fill="none" stroke="black" points="10,-299 10,-321 147,-321 147,-299 10,-299"/>
<image xlink:href="../../images/primaryKeys.png" width="11px" height="12px" preserveAspectRatio="xMinYMin meet" x="15" y="-316"/>
<text text-anchor="start" x="30" y="-307.2" font-family="Helvetica,sans-Serif" font-size="11.00">c_jobcategory_id</text>
<polygon fill="none" stroke="black" points="147,-299 147,-321 230,-321 230,-299 147,-299"/>
<text text-anchor="start" x="150" y="-307.2" font-family="Helvetica,sans-Serif" font-size="11.00">numeric[10]</text>
<polygon fill="none" stroke="black" points="10,-277 10,-299 147,-299 147,-277 10,-277"/>
<text text-anchor="start" x="30" y="-285.2" font-family="Helvetica,sans-Serif" font-size="11.00">ad_client_id</text>
<polygon fill="none" stroke="black" points="147,-277 147,-299 230,-299 230,-277 147,-277"/>
<text text-anchor="start" x="150" y="-285.2" font-family="Helvetica,sans-Serif" font-size="11.00">numeric[10]</text>
<polygon fill="none" stroke="black" points="10,-255 10,-277 147,-277 147,-255 10,-255"/>
<text text-anchor="start" x="30" y="-263.2" font-family="Helvetica,sans-Serif" font-size="11.00">ad_org_id</text>
<polygon fill="none" stroke="black" points="147,-255 147,-277 230,-277 230,-255 147,-255"/>
<text text-anchor="start" x="150" y="-263.2" font-family="Helvetica,sans-Serif" font-size="11.00">numeric[10]</text>
<polygon fill="none" stroke="black" points="10,-233 10,-255 147,-255 147,-233 10,-233"/>
<text text-anchor="start" x="30" y="-241.2" font-family="Helvetica,sans-Serif" font-size="11.00">isactive</text>
<polygon fill="none" stroke="black" points="147,-233 147,-255 230,-255 230,-233 147,-233"/>
<text text-anchor="start" x="150" y="-241.2" font-family="Helvetica,sans-Serif" font-size="11.00">bpchar[1]</text>
<polygon fill="none" stroke="black" points="10,-211 10,-233 147,-233 147,-211 10,-211"/>
<text text-anchor="start" x="30" y="-219.2" font-family="Helvetica,sans-Serif" font-size="11.00">created</text>
<polygon fill="none" stroke="black" points="147,-211 147,-233 230,-233 230,-211 147,-211"/>
<text text-anchor="start" x="150" y="-219.2" font-family="Helvetica,sans-Serif" font-size="11.00">timestamp[29,6]</text>
<polygon fill="none" stroke="black" points="10,-189 10,-211 147,-211 147,-189 10,-189"/>
<text text-anchor="start" x="30" y="-197.2" font-family="Helvetica,sans-Serif" font-size="11.00">createdby</text>
<polygon fill="none" stroke="black" points="147,-189 147,-211 230,-211 230,-189 147,-189"/>
<text text-anchor="start" x="150" y="-197.2" font-family="Helvetica,sans-Serif" font-size="11.00">numeric[10]</text>
<polygon fill="none" stroke="black" points="10,-167 10,-189 147,-189 147,-167 10,-167"/>
<text text-anchor="start" x="30" y="-175.2" font-family="Helvetica,sans-Serif" font-size="11.00">updated</text>
<polygon fill="none" stroke="black" points="147,-167 147,-189 230,-189 230,-167 147,-167"/>
<text text-anchor="start" x="150" y="-175.2" font-family="Helvetica,sans-Serif" font-size="11.00">timestamp[29,6]</text>
<polygon fill="none" stroke="black" points="10,-145 10,-167 147,-167 147,-145 10,-145"/>
<text text-anchor="start" x="30" y="-153.2" font-family="Helvetica,sans-Serif" font-size="11.00">updatedby</text>
<polygon fill="none" stroke="black" points="147,-145 147,-167 230,-167 230,-145 147,-145"/>
<text text-anchor="start" x="150" y="-153.2" font-family="Helvetica,sans-Serif" font-size="11.00">numeric[10]</text>
<polygon fill="none" stroke="black" points="10,-123 10,-145 147,-145 147,-123 10,-123"/>
<text text-anchor="start" x="30" y="-131.2" font-family="Helvetica,sans-Serif" font-size="11.00">name</text>
<polygon fill="none" stroke="black" points="147,-123 147,-145 230,-145 230,-123 147,-123"/>
<text text-anchor="start" x="150" y="-131.2" font-family="Helvetica,sans-Serif" font-size="11.00">varchar[60]</text>
<polygon fill="none" stroke="black" points="10,-101 10,-123 147,-123 147,-101 10,-101"/>
<text text-anchor="start" x="30" y="-109.2" font-family="Helvetica,sans-Serif" font-size="11.00">description</text>
<polygon fill="none" stroke="black" points="147,-101 147,-123 230,-123 230,-101 147,-101"/>
<text text-anchor="start" x="150" y="-109.2" font-family="Helvetica,sans-Serif" font-size="11.00">varchar[255]</text>
<polygon fill="none" stroke="black" points="10,-79 10,-101 147,-101 147,-79 10,-79"/>
<text text-anchor="start" x="30" y="-87.2" font-family="Helvetica,sans-Serif" font-size="11.00">help</text>
<polygon fill="none" stroke="black" points="147,-79 147,-101 230,-101 230,-79 147,-79"/>
<text text-anchor="start" x="150" y="-87.2" font-family="Helvetica,sans-Serif" font-size="11.00">varchar[2000]</text>
<polygon fill="#ffffff" stroke="transparent" points="10,-57 10,-79 147,-79 147,-57 10,-57"/>
<polygon fill="none" stroke="black" points="10,-57 10,-79 147,-79 147,-57 10,-57"/>
<text text-anchor="start" x="30" y="-65.2" font-family="Helvetica,sans-Serif" font-size="11.00">c_jobcategory_uu</text>
<polygon fill="none" stroke="black" points="147,-57 147,-79 230,-79 230,-57 147,-57"/>
<text text-anchor="start" x="150" y="-65.2" font-family="Helvetica,sans-Serif" font-size="11.00">varchar[36]</text>
<polygon fill="#ffffff" stroke="transparent" points="10,-39 10,-57 70,-57 70,-39 10,-39"/>
<polygon fill="none" stroke="black" points="10,-39 10,-57 70,-57 70,-39 10,-39"/>
<text text-anchor="start" x="13" y="-45.2" font-family="Helvetica,sans-Serif" font-size="11.00">&lt; 0</text>
<polygon fill="#ffffff" stroke="transparent" points="70,-39 70,-57 147,-57 147,-39 70,-39"/>
<polygon fill="none" stroke="black" points="70,-39 70,-57 147,-57 147,-39 70,-39"/>
<text text-anchor="start" x="111" y="-45.2" font-family="Helvetica,sans-Serif" font-size="11.00">0 rows</text>
<polygon fill="#ffffff" stroke="transparent" points="147,-39 147,-57 230,-57 230,-39 147,-39"/>
<polygon fill="none" stroke="black" points="147,-39 147,-57 230,-57 230,-39 147,-39"/>
<text text-anchor="start" x="211" y="-45.2" font-family="Helvetica,sans-Serif" font-size="11.00">1 &gt;</text>
<polygon fill="none" stroke="black" stroke-width="2" points="9,-38 9,-344 231,-344 231,-38 9,-38"/>
</a>
</g>
</g>
<!-- c_job&#45;&gt;c_jobcategory -->
<g id="edge1" class="edge">
<title>c_job:w&#45;&gt;c_jobcategory:e</title>
<path fill="none" stroke="black" d="M265.84,-310C254.41,-310 247.16,-310 231,-310"/>
<polygon fill="black" stroke="black" points="272.5,-310 280.5,-313.6 276.5,-310 280.5,-310 280.5,-310 280.5,-310 276.5,-310 280.5,-306.4 272.5,-310 272.5,-310"/>
<ellipse fill="none" stroke="black" cx="269.3" cy="-310" rx="3.2" ry="3.2"/>
</g>
</g>
</svg>
