<?xml version="1.0" encoding="UTF-8" standalone="no"?>
<!DOCTYPE svg PUBLIC "-//W3C//DTD SVG 1.1//EN"
 "http://www.w3.org/Graphics/SVG/1.1/DTD/svg11.dtd">
<!-- Generated by graphviz version 2.43.0 (0)
 -->
<!-- Title: oneDegreeRelationshipsDiagram Pages: 1 -->
<svg width="364pt" height="1813pt"
 viewBox="0.00 0.00 364.00 1813.00" xmlns="http://www.w3.org/2000/svg" xmlns:xlink="http://www.w3.org/1999/xlink">
<g id="graph0" class="graph" transform="scale(1 1) rotate(0) translate(4 1809)">
<title>oneDegreeRelationshipsDiagram</title>
<polygon fill="#ffffff" stroke="transparent" points="-4,4 -4,-1809 360,-1809 360,4 -4,4"/>
<text text-anchor="middle" x="71.5" y="-7.2" font-family="Helvetica,sans-Serif" font-size="11.00">Generated by SchemaSpy</text>
<!-- c_payselection_remittance_v -->
<g id="node1" class="node">
<title>c_payselection_remittance_v</title>
<g id="a_node1"><a xlink:href="../../tables/c_payselection_remittance_v.html" xlink:title="c_payselection_remittance_v" target="_top">
<polygon fill="#ffffff" stroke="transparent" points="8,-37 8,-1801 348,-1801 348,-37 8,-37"/>
<polygon fill="#f5f5f5" stroke="transparent" points="10,-1777 10,-1799 346,-1799 346,-1777 10,-1777"/>
<polygon fill="none" stroke="black" points="10,-1777 10,-1799 346,-1799 346,-1777 10,-1777"/>
<text text-anchor="start" x="15" y="-1786.2" font-family="Helvetica,sans-Serif" font-weight="bold" font-size="11.00">c_payselection_remittance_v</text>
<text text-anchor="start" x="313" y="-1785.2" font-family="Helvetica,sans-Serif" font-size="11.00">[view]</text>
<polygon fill="none" stroke="black" points="10,-1755 10,-1777 237,-1777 237,-1755 10,-1755"/>
<text text-anchor="start" x="30" y="-1763.2" font-family="Helvetica,sans-Serif" font-size="11.00">ad_client_id</text>
<polygon fill="none" stroke="black" points="237,-1755 237,-1777 346,-1777 346,-1755 237,-1755"/>
<text text-anchor="start" x="240" y="-1763.2" font-family="Helvetica,sans-Serif" font-size="11.00">numeric[10]</text>
<polygon fill="none" stroke="black" points="10,-1733 10,-1755 237,-1755 237,-1733 10,-1733"/>
<text text-anchor="start" x="30" y="-1741.2" font-family="Helvetica,sans-Serif" font-size="11.00">ad_org_id</text>
<polygon fill="none" stroke="black" points="237,-1733 237,-1755 346,-1755 346,-1733 237,-1733"/>
<text text-anchor="start" x="240" y="-1741.2" font-family="Helvetica,sans-Serif" font-size="11.00">numeric[10]</text>
<polygon fill="none" stroke="black" points="10,-1711 10,-1733 237,-1733 237,-1711 10,-1711"/>
<text text-anchor="start" x="30" y="-1719.2" font-family="Helvetica,sans-Serif" font-size="11.00">ad_language</text>
<polygon fill="none" stroke="black" points="237,-1711 237,-1733 346,-1733 346,-1711 237,-1711"/>
<text text-anchor="start" x="240" y="-1719.2" font-family="Helvetica,sans-Serif" font-size="11.00">varchar[2147483647]</text>
<polygon fill="none" stroke="black" points="10,-1689 10,-1711 237,-1711 237,-1689 10,-1689"/>
<image xlink:href="../../images/foreignKeys.png" width="11px" height="12px" preserveAspectRatio="xMinYMin meet" x="15" y="-1706"/>
<text text-anchor="start" x="30" y="-1697.2" font-family="Helvetica,sans-Serif" font-size="11.00">c_payselection_id</text>
<polygon fill="none" stroke="black" points="237,-1689 237,-1711 346,-1711 346,-1689 237,-1689"/>
<text text-anchor="start" x="240" y="-1697.2" font-family="Helvetica,sans-Serif" font-size="11.00">numeric[10]</text>
<polygon fill="none" stroke="black" points="10,-1667 10,-1689 237,-1689 237,-1667 10,-1667"/>
<image xlink:href="../../images/foreignKeys.png" width="11px" height="12px" preserveAspectRatio="xMinYMin meet" x="15" y="-1684"/>
<text text-anchor="start" x="30" y="-1675.2" font-family="Helvetica,sans-Serif" font-size="11.00">c_payselectionline_id</text>
<polygon fill="none" stroke="black" points="237,-1667 237,-1689 346,-1689 346,-1667 237,-1667"/>
<text text-anchor="start" x="240" y="-1675.2" font-family="Helvetica,sans-Serif" font-size="11.00">numeric[10]</text>
<polygon fill="none" stroke="black" points="10,-1645 10,-1667 237,-1667 237,-1645 10,-1645"/>
<image xlink:href="../../images/foreignKeys.png" width="11px" height="12px" preserveAspectRatio="xMinYMin meet" x="15" y="-1662"/>
<text text-anchor="start" x="30" y="-1653.2" font-family="Helvetica,sans-Serif" font-size="11.00">c_payselectioncheck_id</text>
<polygon fill="none" stroke="black" points="237,-1645 237,-1667 346,-1667 346,-1645 237,-1645"/>
<text text-anchor="start" x="240" y="-1653.2" font-family="Helvetica,sans-Serif" font-size="11.00">numeric[10]</text>
<polygon fill="none" stroke="black" points="10,-1623 10,-1645 237,-1645 237,-1623 10,-1623"/>
<text text-anchor="start" x="30" y="-1631.2" font-family="Helvetica,sans-Serif" font-size="11.00">paymentrule</text>
<polygon fill="none" stroke="black" points="237,-1623 237,-1645 346,-1645 346,-1623 237,-1623"/>
<text text-anchor="start" x="240" y="-1631.2" font-family="Helvetica,sans-Serif" font-size="11.00">bpchar[1]</text>
<polygon fill="none" stroke="black" points="10,-1601 10,-1623 237,-1623 237,-1601 10,-1601"/>
<text text-anchor="start" x="30" y="-1609.2" font-family="Helvetica,sans-Serif" font-size="11.00">line</text>
<polygon fill="none" stroke="black" points="237,-1601 237,-1623 346,-1623 346,-1601 237,-1601"/>
<text text-anchor="start" x="240" y="-1609.2" font-family="Helvetica,sans-Serif" font-size="11.00">numeric[10]</text>
<polygon fill="none" stroke="black" points="10,-1579 10,-1601 237,-1601 237,-1579 10,-1579"/>
<text text-anchor="start" x="30" y="-1587.2" font-family="Helvetica,sans-Serif" font-size="11.00">openamt</text>
<polygon fill="none" stroke="black" points="237,-1579 237,-1601 346,-1601 346,-1579 237,-1579"/>
<text text-anchor="start" x="240" y="-1587.2" font-family="Helvetica,sans-Serif" font-size="11.00">numeric[0]</text>
<polygon fill="none" stroke="black" points="10,-1557 10,-1579 237,-1579 237,-1557 10,-1557"/>
<text text-anchor="start" x="30" y="-1565.2" font-family="Helvetica,sans-Serif" font-size="11.00">payamt</text>
<polygon fill="none" stroke="black" points="237,-1557 237,-1579 346,-1579 346,-1557 237,-1557"/>
<text text-anchor="start" x="240" y="-1565.2" font-family="Helvetica,sans-Serif" font-size="11.00">numeric[0]</text>
<polygon fill="none" stroke="black" points="10,-1535 10,-1557 237,-1557 237,-1535 10,-1535"/>
<text text-anchor="start" x="30" y="-1543.2" font-family="Helvetica,sans-Serif" font-size="11.00">discountamt</text>
<polygon fill="none" stroke="black" points="237,-1535 237,-1557 346,-1557 346,-1535 237,-1535"/>
<text text-anchor="start" x="240" y="-1543.2" font-family="Helvetica,sans-Serif" font-size="11.00">numeric[0]</text>
<polygon fill="none" stroke="black" points="10,-1513 10,-1535 237,-1535 237,-1513 10,-1513"/>
<text text-anchor="start" x="30" y="-1521.2" font-family="Helvetica,sans-Serif" font-size="11.00">differenceamt</text>
<polygon fill="none" stroke="black" points="237,-1513 237,-1535 346,-1535 346,-1513 237,-1513"/>
<text text-anchor="start" x="240" y="-1521.2" font-family="Helvetica,sans-Serif" font-size="11.00">numeric[0]</text>
<polygon fill="none" stroke="black" points="10,-1491 10,-1513 237,-1513 237,-1491 10,-1491"/>
<image xlink:href="../../images/foreignKeys.png" width="11px" height="12px" preserveAspectRatio="xMinYMin meet" x="15" y="-1508"/>
<text text-anchor="start" x="30" y="-1499.2" font-family="Helvetica,sans-Serif" font-size="11.00">c_bpartner_id</text>
<polygon fill="none" stroke="black" points="237,-1491 237,-1513 346,-1513 346,-1491 237,-1491"/>
<text text-anchor="start" x="240" y="-1499.2" font-family="Helvetica,sans-Serif" font-size="11.00">numeric[10]</text>
<polygon fill="none" stroke="black" points="10,-1469 10,-1491 237,-1491 237,-1469 10,-1469"/>
<text text-anchor="start" x="30" y="-1477.2" font-family="Helvetica,sans-Serif" font-size="11.00">documentno</text>
<polygon fill="none" stroke="black" points="237,-1469 237,-1491 346,-1491 346,-1469 237,-1469"/>
<text text-anchor="start" x="240" y="-1477.2" font-family="Helvetica,sans-Serif" font-size="11.00">varchar[30]</text>
<polygon fill="none" stroke="black" points="10,-1447 10,-1469 237,-1469 237,-1447 10,-1447"/>
<text text-anchor="start" x="30" y="-1455.2" font-family="Helvetica,sans-Serif" font-size="11.00">dateinvoiced</text>
<polygon fill="none" stroke="black" points="237,-1447 237,-1469 346,-1469 346,-1447 237,-1447"/>
<text text-anchor="start" x="240" y="-1455.2" font-family="Helvetica,sans-Serif" font-size="11.00">timestamp[29,6]</text>
<polygon fill="none" stroke="black" points="10,-1425 10,-1447 237,-1447 237,-1425 10,-1425"/>
<text text-anchor="start" x="30" y="-1433.2" font-family="Helvetica,sans-Serif" font-size="11.00">grandtotal</text>
<polygon fill="none" stroke="black" points="237,-1425 237,-1447 346,-1447 346,-1425 237,-1425"/>
<text text-anchor="start" x="240" y="-1433.2" font-family="Helvetica,sans-Serif" font-size="11.00">numeric[0]</text>
<polygon fill="none" stroke="black" points="10,-1403 10,-1425 237,-1425 237,-1403 10,-1403"/>
<text text-anchor="start" x="30" y="-1411.2" font-family="Helvetica,sans-Serif" font-size="11.00">amtinwords</text>
<polygon fill="none" stroke="black" points="237,-1403 237,-1425 346,-1425 346,-1403 237,-1403"/>
<text text-anchor="start" x="240" y="-1411.2" font-family="Helvetica,sans-Serif" font-size="11.00">numeric[0]</text>
<polygon fill="none" stroke="black" points="10,-1381 10,-1403 237,-1403 237,-1381 10,-1381"/>
<image xlink:href="../../images/foreignKeys.png" width="11px" height="12px" preserveAspectRatio="xMinYMin meet" x="15" y="-1398"/>
<text text-anchor="start" x="30" y="-1389.2" font-family="Helvetica,sans-Serif" font-size="11.00">c_invoice_id</text>
<polygon fill="none" stroke="black" points="237,-1381 237,-1403 346,-1403 346,-1381 237,-1381"/>
<text text-anchor="start" x="240" y="-1389.2" font-family="Helvetica,sans-Serif" font-size="11.00">numeric[10]</text>
<polygon fill="none" stroke="black" points="10,-1359 10,-1381 237,-1381 237,-1359 10,-1359"/>
<text text-anchor="start" x="30" y="-1367.2" font-family="Helvetica,sans-Serif" font-size="11.00">c_payselectionline_created</text>
<polygon fill="none" stroke="black" points="237,-1359 237,-1381 346,-1381 346,-1359 237,-1359"/>
<text text-anchor="start" x="240" y="-1367.2" font-family="Helvetica,sans-Serif" font-size="11.00">timestamp[29,6]</text>
<polygon fill="none" stroke="black" points="10,-1337 10,-1359 237,-1359 237,-1337 10,-1337"/>
<text text-anchor="start" x="30" y="-1345.2" font-family="Helvetica,sans-Serif" font-size="11.00">c_payselectionline_createdby</text>
<polygon fill="none" stroke="black" points="237,-1337 237,-1359 346,-1359 346,-1337 237,-1337"/>
<text text-anchor="start" x="240" y="-1345.2" font-family="Helvetica,sans-Serif" font-size="11.00">numeric[10]</text>
<polygon fill="none" stroke="black" points="10,-1315 10,-1337 237,-1337 237,-1315 10,-1315"/>
<text text-anchor="start" x="30" y="-1323.2" font-family="Helvetica,sans-Serif" font-size="11.00">c_payselectionline_description</text>
<polygon fill="none" stroke="black" points="237,-1315 237,-1337 346,-1337 346,-1315 237,-1315"/>
<text text-anchor="start" x="240" y="-1323.2" font-family="Helvetica,sans-Serif" font-size="11.00">varchar[255]</text>
<polygon fill="none" stroke="black" points="10,-1293 10,-1315 237,-1315 237,-1293 10,-1293"/>
<text text-anchor="start" x="30" y="-1301.2" font-family="Helvetica,sans-Serif" font-size="11.00">c_payselectionline_isactive</text>
<polygon fill="none" stroke="black" points="237,-1293 237,-1315 346,-1315 346,-1293 237,-1293"/>
<text text-anchor="start" x="240" y="-1301.2" font-family="Helvetica,sans-Serif" font-size="11.00">bpchar[1]</text>
<polygon fill="none" stroke="black" points="10,-1271 10,-1293 237,-1293 237,-1271 10,-1271"/>
<text text-anchor="start" x="30" y="-1279.2" font-family="Helvetica,sans-Serif" font-size="11.00">ismanual</text>
<polygon fill="none" stroke="black" points="237,-1271 237,-1293 346,-1293 346,-1271 237,-1271"/>
<text text-anchor="start" x="240" y="-1279.2" font-family="Helvetica,sans-Serif" font-size="11.00">bpchar[1]</text>
<polygon fill="none" stroke="black" points="10,-1249 10,-1271 237,-1271 237,-1249 10,-1249"/>
<text text-anchor="start" x="30" y="-1257.2" font-family="Helvetica,sans-Serif" font-size="11.00">c_payselectionline_issotrx</text>
<polygon fill="none" stroke="black" points="237,-1249 237,-1271 346,-1271 346,-1249 237,-1249"/>
<text text-anchor="start" x="240" y="-1257.2" font-family="Helvetica,sans-Serif" font-size="11.00">bpchar[1]</text>
<polygon fill="none" stroke="black" points="10,-1227 10,-1249 237,-1249 237,-1227 10,-1227"/>
<text text-anchor="start" x="30" y="-1235.2" font-family="Helvetica,sans-Serif" font-size="11.00">processed</text>
<polygon fill="none" stroke="black" points="237,-1227 237,-1249 346,-1249 346,-1227 237,-1227"/>
<text text-anchor="start" x="240" y="-1235.2" font-family="Helvetica,sans-Serif" font-size="11.00">bpchar[1]</text>
<polygon fill="none" stroke="black" points="10,-1205 10,-1227 237,-1227 237,-1205 10,-1205"/>
<text text-anchor="start" x="30" y="-1213.2" font-family="Helvetica,sans-Serif" font-size="11.00">c_payselectionline_updated</text>
<polygon fill="none" stroke="black" points="237,-1205 237,-1227 346,-1227 346,-1205 237,-1205"/>
<text text-anchor="start" x="240" y="-1213.2" font-family="Helvetica,sans-Serif" font-size="11.00">timestamp[29,6]</text>
<polygon fill="none" stroke="black" points="10,-1183 10,-1205 237,-1205 237,-1183 10,-1183"/>
<text text-anchor="start" x="30" y="-1191.2" font-family="Helvetica,sans-Serif" font-size="11.00">c_payselectionline_updatedby</text>
<polygon fill="none" stroke="black" points="237,-1183 237,-1205 346,-1205 346,-1183 237,-1183"/>
<text text-anchor="start" x="240" y="-1191.2" font-family="Helvetica,sans-Serif" font-size="11.00">numeric[10]</text>
<polygon fill="none" stroke="black" points="10,-1161 10,-1183 237,-1183 237,-1161 10,-1161"/>
<text text-anchor="start" x="30" y="-1169.2" font-family="Helvetica,sans-Serif" font-size="11.00">c_invoice_ad_org_id</text>
<polygon fill="none" stroke="black" points="237,-1161 237,-1183 346,-1183 346,-1161 237,-1161"/>
<text text-anchor="start" x="240" y="-1169.2" font-family="Helvetica,sans-Serif" font-size="11.00">numeric[10]</text>
<polygon fill="none" stroke="black" points="10,-1139 10,-1161 237,-1161 237,-1139 10,-1139"/>
<text text-anchor="start" x="30" y="-1147.2" font-family="Helvetica,sans-Serif" font-size="11.00">ad_orgtrx_id</text>
<polygon fill="none" stroke="black" points="237,-1139 237,-1161 346,-1161 346,-1139 237,-1139"/>
<text text-anchor="start" x="240" y="-1147.2" font-family="Helvetica,sans-Serif" font-size="11.00">numeric[10]</text>
<polygon fill="none" stroke="black" points="10,-1117 10,-1139 237,-1139 237,-1117 10,-1117"/>
<text text-anchor="start" x="30" y="-1125.2" font-family="Helvetica,sans-Serif" font-size="11.00">ad_user_id</text>
<polygon fill="none" stroke="black" points="237,-1117 237,-1139 346,-1139 346,-1117 237,-1117"/>
<text text-anchor="start" x="240" y="-1125.2" font-family="Helvetica,sans-Serif" font-size="11.00">numeric[10]</text>
<polygon fill="none" stroke="black" points="10,-1095 10,-1117 237,-1117 237,-1095 10,-1095"/>
<image xlink:href="../../images/foreignKeys.png" width="11px" height="12px" preserveAspectRatio="xMinYMin meet" x="15" y="-1112"/>
<text text-anchor="start" x="30" y="-1103.2" font-family="Helvetica,sans-Serif" font-size="11.00">c_activity_id</text>
<polygon fill="none" stroke="black" points="237,-1095 237,-1117 346,-1117 346,-1095 237,-1095"/>
<text text-anchor="start" x="240" y="-1103.2" font-family="Helvetica,sans-Serif" font-size="11.00">numeric[10]</text>
<polygon fill="none" stroke="black" points="10,-1073 10,-1095 237,-1095 237,-1073 10,-1073"/>
<image xlink:href="../../images/foreignKeys.png" width="11px" height="12px" preserveAspectRatio="xMinYMin meet" x="15" y="-1090"/>
<text text-anchor="start" x="30" y="-1081.2" font-family="Helvetica,sans-Serif" font-size="11.00">c_bpartner_location_id</text>
<polygon fill="none" stroke="black" points="237,-1073 237,-1095 346,-1095 346,-1073 237,-1073"/>
<text text-anchor="start" x="240" y="-1081.2" font-family="Helvetica,sans-Serif" font-size="11.00">numeric[10]</text>
<polygon fill="none" stroke="black" points="10,-1051 10,-1073 237,-1073 237,-1051 10,-1051"/>
<image xlink:href="../../images/foreignKeys.png" width="11px" height="12px" preserveAspectRatio="xMinYMin meet" x="15" y="-1068"/>
<text text-anchor="start" x="30" y="-1059.2" font-family="Helvetica,sans-Serif" font-size="11.00">c_campaign_id</text>
<polygon fill="none" stroke="black" points="237,-1051 237,-1073 346,-1073 346,-1051 237,-1051"/>
<text text-anchor="start" x="240" y="-1059.2" font-family="Helvetica,sans-Serif" font-size="11.00">numeric[10]</text>
<polygon fill="none" stroke="black" points="10,-1029 10,-1051 237,-1051 237,-1029 10,-1029"/>
<image xlink:href="../../images/foreignKeys.png" width="11px" height="12px" preserveAspectRatio="xMinYMin meet" x="15" y="-1046"/>
<text text-anchor="start" x="30" y="-1037.2" font-family="Helvetica,sans-Serif" font-size="11.00">c_charge_id</text>
<polygon fill="none" stroke="black" points="237,-1029 237,-1051 346,-1051 346,-1029 237,-1029"/>
<text text-anchor="start" x="240" y="-1037.2" font-family="Helvetica,sans-Serif" font-size="11.00">numeric[10]</text>
<polygon fill="none" stroke="black" points="10,-1007 10,-1029 237,-1029 237,-1007 10,-1007"/>
<image xlink:href="../../images/foreignKeys.png" width="11px" height="12px" preserveAspectRatio="xMinYMin meet" x="15" y="-1024"/>
<text text-anchor="start" x="30" y="-1015.2" font-family="Helvetica,sans-Serif" font-size="11.00">c_conversiontype_id</text>
<polygon fill="none" stroke="black" points="237,-1007 237,-1029 346,-1029 346,-1007 237,-1007"/>
<text text-anchor="start" x="240" y="-1015.2" font-family="Helvetica,sans-Serif" font-size="11.00">numeric[10]</text>
<polygon fill="none" stroke="black" points="10,-985 10,-1007 237,-1007 237,-985 10,-985"/>
<image xlink:href="../../images/foreignKeys.png" width="11px" height="12px" preserveAspectRatio="xMinYMin meet" x="15" y="-1002"/>
<text text-anchor="start" x="30" y="-993.2" font-family="Helvetica,sans-Serif" font-size="11.00">c_currency_id</text>
<polygon fill="none" stroke="black" points="237,-985 237,-1007 346,-1007 346,-985 237,-985"/>
<text text-anchor="start" x="240" y="-993.2" font-family="Helvetica,sans-Serif" font-size="11.00">numeric[10]</text>
<polygon fill="none" stroke="black" points="10,-963 10,-985 237,-985 237,-963 10,-963"/>
<image xlink:href="../../images/foreignKeys.png" width="11px" height="12px" preserveAspectRatio="xMinYMin meet" x="15" y="-980"/>
<text text-anchor="start" x="30" y="-971.2" font-family="Helvetica,sans-Serif" font-size="11.00">c_doctype_id</text>
<polygon fill="none" stroke="black" points="237,-963 237,-985 346,-985 346,-963 237,-963"/>
<text text-anchor="start" x="240" y="-971.2" font-family="Helvetica,sans-Serif" font-size="11.00">numeric[10]</text>
<polygon fill="none" stroke="black" points="10,-941 10,-963 237,-963 237,-941 10,-941"/>
<text text-anchor="start" x="30" y="-949.2" font-family="Helvetica,sans-Serif" font-size="11.00">c_doctypetarget_id</text>
<polygon fill="none" stroke="black" points="237,-941 237,-963 346,-963 346,-941 237,-941"/>
<text text-anchor="start" x="240" y="-949.2" font-family="Helvetica,sans-Serif" font-size="11.00">numeric[10]</text>
<polygon fill="none" stroke="black" points="10,-919 10,-941 237,-941 237,-919 10,-919"/>
<image xlink:href="../../images/foreignKeys.png" width="11px" height="12px" preserveAspectRatio="xMinYMin meet" x="15" y="-936"/>
<text text-anchor="start" x="30" y="-927.2" font-family="Helvetica,sans-Serif" font-size="11.00">c_dunninglevel_id</text>
<polygon fill="none" stroke="black" points="237,-919 237,-941 346,-941 346,-919 237,-919"/>
<text text-anchor="start" x="240" y="-927.2" font-family="Helvetica,sans-Serif" font-size="11.00">numeric[10]</text>
<polygon fill="none" stroke="black" points="10,-897 10,-919 237,-919 237,-897 10,-897"/>
<text text-anchor="start" x="30" y="-905.2" font-family="Helvetica,sans-Serif" font-size="11.00">chargeamt</text>
<polygon fill="none" stroke="black" points="237,-897 237,-919 346,-919 346,-897 237,-897"/>
<text text-anchor="start" x="240" y="-905.2" font-family="Helvetica,sans-Serif" font-size="11.00">numeric[0]</text>
<polygon fill="none" stroke="black" points="10,-875 10,-897 237,-897 237,-875 10,-875"/>
<image xlink:href="../../images/foreignKeys.png" width="11px" height="12px" preserveAspectRatio="xMinYMin meet" x="15" y="-892"/>
<text text-anchor="start" x="30" y="-883.2" font-family="Helvetica,sans-Serif" font-size="11.00">c_payment_id</text>
<polygon fill="none" stroke="black" points="237,-875 237,-897 346,-897 346,-875 237,-875"/>
<text text-anchor="start" x="240" y="-883.2" font-family="Helvetica,sans-Serif" font-size="11.00">numeric[10]</text>
<polygon fill="none" stroke="black" points="10,-853 10,-875 237,-875 237,-853 10,-853"/>
<image xlink:href="../../images/foreignKeys.png" width="11px" height="12px" preserveAspectRatio="xMinYMin meet" x="15" y="-870"/>
<text text-anchor="start" x="30" y="-861.2" font-family="Helvetica,sans-Serif" font-size="11.00">c_paymentterm_id</text>
<polygon fill="none" stroke="black" points="237,-853 237,-875 346,-875 346,-853 237,-853"/>
<text text-anchor="start" x="240" y="-861.2" font-family="Helvetica,sans-Serif" font-size="11.00">numeric[10]</text>
<polygon fill="none" stroke="black" points="10,-831 10,-853 237,-853 237,-831 10,-831"/>
<image xlink:href="../../images/foreignKeys.png" width="11px" height="12px" preserveAspectRatio="xMinYMin meet" x="15" y="-848"/>
<text text-anchor="start" x="30" y="-839.2" font-family="Helvetica,sans-Serif" font-size="11.00">c_project_id</text>
<polygon fill="none" stroke="black" points="237,-831 237,-853 346,-853 346,-831 237,-831"/>
<text text-anchor="start" x="240" y="-839.2" font-family="Helvetica,sans-Serif" font-size="11.00">numeric[10]</text>
<polygon fill="none" stroke="black" points="10,-809 10,-831 237,-831 237,-809 10,-809"/>
<text text-anchor="start" x="30" y="-817.2" font-family="Helvetica,sans-Serif" font-size="11.00">c_invoice_created</text>
<polygon fill="none" stroke="black" points="237,-809 237,-831 346,-831 346,-809 237,-809"/>
<text text-anchor="start" x="240" y="-817.2" font-family="Helvetica,sans-Serif" font-size="11.00">timestamp[29,6]</text>
<polygon fill="none" stroke="black" points="10,-787 10,-809 237,-809 237,-787 10,-787"/>
<text text-anchor="start" x="30" y="-795.2" font-family="Helvetica,sans-Serif" font-size="11.00">c_invoice_createdby</text>
<polygon fill="none" stroke="black" points="237,-787 237,-809 346,-809 346,-787 237,-787"/>
<text text-anchor="start" x="240" y="-795.2" font-family="Helvetica,sans-Serif" font-size="11.00">numeric[10]</text>
<polygon fill="none" stroke="black" points="10,-765 10,-787 237,-787 237,-765 10,-765"/>
<text text-anchor="start" x="30" y="-773.2" font-family="Helvetica,sans-Serif" font-size="11.00">dateacct</text>
<polygon fill="none" stroke="black" points="237,-765 237,-787 346,-787 346,-765 237,-765"/>
<text text-anchor="start" x="240" y="-773.2" font-family="Helvetica,sans-Serif" font-size="11.00">timestamp[29,6]</text>
<polygon fill="none" stroke="black" points="10,-743 10,-765 237,-765 237,-743 10,-743"/>
<text text-anchor="start" x="30" y="-751.2" font-family="Helvetica,sans-Serif" font-size="11.00">dateordered</text>
<polygon fill="none" stroke="black" points="237,-743 237,-765 346,-765 346,-743 237,-743"/>
<text text-anchor="start" x="240" y="-751.2" font-family="Helvetica,sans-Serif" font-size="11.00">timestamp[29,6]</text>
<polygon fill="none" stroke="black" points="10,-721 10,-743 237,-743 237,-721 10,-721"/>
<text text-anchor="start" x="30" y="-729.2" font-family="Helvetica,sans-Serif" font-size="11.00">dateprinted</text>
<polygon fill="none" stroke="black" points="237,-721 237,-743 346,-743 346,-721 237,-721"/>
<text text-anchor="start" x="240" y="-729.2" font-family="Helvetica,sans-Serif" font-size="11.00">timestamp[29,6]</text>
<polygon fill="none" stroke="black" points="10,-699 10,-721 237,-721 237,-699 10,-699"/>
<text text-anchor="start" x="30" y="-707.2" font-family="Helvetica,sans-Serif" font-size="11.00">c_invoice_description</text>
<polygon fill="none" stroke="black" points="237,-699 237,-721 346,-721 346,-699 237,-699"/>
<text text-anchor="start" x="240" y="-707.2" font-family="Helvetica,sans-Serif" font-size="11.00">varchar[500]</text>
<polygon fill="none" stroke="black" points="10,-677 10,-699 237,-699 237,-677 10,-677"/>
<text text-anchor="start" x="30" y="-685.2" font-family="Helvetica,sans-Serif" font-size="11.00">docaction</text>
<polygon fill="none" stroke="black" points="237,-677 237,-699 346,-699 346,-677 237,-677"/>
<text text-anchor="start" x="240" y="-685.2" font-family="Helvetica,sans-Serif" font-size="11.00">bpchar[2]</text>
<polygon fill="none" stroke="black" points="10,-655 10,-677 237,-677 237,-655 10,-655"/>
<text text-anchor="start" x="30" y="-663.2" font-family="Helvetica,sans-Serif" font-size="11.00">docstatus</text>
<polygon fill="none" stroke="black" points="237,-655 237,-677 346,-677 346,-655 237,-655"/>
<text text-anchor="start" x="240" y="-663.2" font-family="Helvetica,sans-Serif" font-size="11.00">bpchar[2]</text>
<polygon fill="none" stroke="black" points="10,-633 10,-655 237,-655 237,-633 10,-633"/>
<text text-anchor="start" x="30" y="-641.2" font-family="Helvetica,sans-Serif" font-size="11.00">dunninggrace</text>
<polygon fill="none" stroke="black" points="237,-633 237,-655 346,-655 346,-633 237,-633"/>
<text text-anchor="start" x="240" y="-641.2" font-family="Helvetica,sans-Serif" font-size="11.00">timestamp[29,6]</text>
<polygon fill="none" stroke="black" points="10,-611 10,-633 237,-633 237,-611 10,-611"/>
<text text-anchor="start" x="30" y="-619.2" font-family="Helvetica,sans-Serif" font-size="11.00">generateto</text>
<polygon fill="none" stroke="black" points="237,-611 237,-633 346,-633 346,-611 237,-611"/>
<text text-anchor="start" x="240" y="-619.2" font-family="Helvetica,sans-Serif" font-size="11.00">bpchar[1]</text>
<polygon fill="none" stroke="black" points="10,-589 10,-611 237,-611 237,-589 10,-589"/>
<text text-anchor="start" x="30" y="-597.2" font-family="Helvetica,sans-Serif" font-size="11.00">invoicecollectiontype</text>
<polygon fill="none" stroke="black" points="237,-589 237,-611 346,-611 346,-589 237,-589"/>
<text text-anchor="start" x="240" y="-597.2" font-family="Helvetica,sans-Serif" font-size="11.00">bpchar[1]</text>
<polygon fill="none" stroke="black" points="10,-567 10,-589 237,-589 237,-567 10,-567"/>
<text text-anchor="start" x="30" y="-575.2" font-family="Helvetica,sans-Serif" font-size="11.00">c_invoice_isactive</text>
<polygon fill="none" stroke="black" points="237,-567 237,-589 346,-589 346,-567 237,-567"/>
<text text-anchor="start" x="240" y="-575.2" font-family="Helvetica,sans-Serif" font-size="11.00">bpchar[1]</text>
<polygon fill="none" stroke="black" points="10,-545 10,-567 237,-567 237,-545 10,-545"/>
<text text-anchor="start" x="30" y="-553.2" font-family="Helvetica,sans-Serif" font-size="11.00">isapproved</text>
<polygon fill="none" stroke="black" points="237,-545 237,-567 346,-567 346,-545 237,-545"/>
<text text-anchor="start" x="240" y="-553.2" font-family="Helvetica,sans-Serif" font-size="11.00">bpchar[1]</text>
<polygon fill="none" stroke="black" points="10,-523 10,-545 237,-545 237,-523 10,-523"/>
<text text-anchor="start" x="30" y="-531.2" font-family="Helvetica,sans-Serif" font-size="11.00">isdiscountprinted</text>
<polygon fill="none" stroke="black" points="237,-523 237,-545 346,-545 346,-523 237,-523"/>
<text text-anchor="start" x="240" y="-531.2" font-family="Helvetica,sans-Serif" font-size="11.00">bpchar[1]</text>
<polygon fill="none" stroke="black" points="10,-501 10,-523 237,-523 237,-501 10,-501"/>
<text text-anchor="start" x="30" y="-509.2" font-family="Helvetica,sans-Serif" font-size="11.00">isindispute</text>
<polygon fill="none" stroke="black" points="237,-501 237,-523 346,-523 346,-501 237,-501"/>
<text text-anchor="start" x="240" y="-509.2" font-family="Helvetica,sans-Serif" font-size="11.00">bpchar[1]</text>
<polygon fill="none" stroke="black" points="10,-479 10,-501 237,-501 237,-479 10,-479"/>
<text text-anchor="start" x="30" y="-487.2" font-family="Helvetica,sans-Serif" font-size="11.00">ispayschedulevalid</text>
<polygon fill="none" stroke="black" points="237,-479 237,-501 346,-501 346,-479 237,-479"/>
<text text-anchor="start" x="240" y="-487.2" font-family="Helvetica,sans-Serif" font-size="11.00">bpchar[1]</text>
<polygon fill="none" stroke="black" points="10,-457 10,-479 237,-479 237,-457 10,-457"/>
<text text-anchor="start" x="30" y="-465.2" font-family="Helvetica,sans-Serif" font-size="11.00">isprinted</text>
<polygon fill="none" stroke="black" points="237,-457 237,-479 346,-479 346,-457 237,-457"/>
<text text-anchor="start" x="240" y="-465.2" font-family="Helvetica,sans-Serif" font-size="11.00">bpchar[1]</text>
<polygon fill="none" stroke="black" points="10,-435 10,-457 237,-457 237,-435 10,-435"/>
<text text-anchor="start" x="30" y="-443.2" font-family="Helvetica,sans-Serif" font-size="11.00">c_invoice_isselfservice</text>
<polygon fill="none" stroke="black" points="237,-435 237,-457 346,-457 346,-435 237,-435"/>
<text text-anchor="start" x="240" y="-443.2" font-family="Helvetica,sans-Serif" font-size="11.00">bpchar[1]</text>
<polygon fill="none" stroke="black" points="10,-413 10,-435 237,-435 237,-413 10,-413"/>
<text text-anchor="start" x="30" y="-421.2" font-family="Helvetica,sans-Serif" font-size="11.00">c_invoice_issotrx</text>
<polygon fill="none" stroke="black" points="237,-413 237,-435 346,-435 346,-413 237,-413"/>
<text text-anchor="start" x="240" y="-421.2" font-family="Helvetica,sans-Serif" font-size="11.00">bpchar[1]</text>
<polygon fill="none" stroke="black" points="10,-391 10,-413 237,-413 237,-391 10,-391"/>
<text text-anchor="start" x="30" y="-399.2" font-family="Helvetica,sans-Serif" font-size="11.00">istaxincluded</text>
<polygon fill="none" stroke="black" points="237,-391 237,-413 346,-413 346,-391 237,-391"/>
<text text-anchor="start" x="240" y="-399.2" font-family="Helvetica,sans-Serif" font-size="11.00">bpchar[1]</text>
<polygon fill="none" stroke="black" points="10,-369 10,-391 237,-391 237,-369 10,-369"/>
<text text-anchor="start" x="30" y="-377.2" font-family="Helvetica,sans-Serif" font-size="11.00">istransferred</text>
<polygon fill="none" stroke="black" points="237,-369 237,-391 346,-391 346,-369 237,-369"/>
<text text-anchor="start" x="240" y="-377.2" font-family="Helvetica,sans-Serif" font-size="11.00">bpchar[1]</text>
<polygon fill="none" stroke="black" points="10,-347 10,-369 237,-369 237,-347 10,-347"/>
<image xlink:href="../../images/foreignKeys.png" width="11px" height="12px" preserveAspectRatio="xMinYMin meet" x="15" y="-364"/>
<text text-anchor="start" x="30" y="-355.2" font-family="Helvetica,sans-Serif" font-size="11.00">m_pricelist_id</text>
<polygon fill="none" stroke="black" points="237,-347 237,-369 346,-369 346,-347 237,-347"/>
<text text-anchor="start" x="240" y="-355.2" font-family="Helvetica,sans-Serif" font-size="11.00">numeric[10]</text>
<polygon fill="none" stroke="black" points="10,-325 10,-347 237,-347 237,-325 10,-325"/>
<image xlink:href="../../images/foreignKeys.png" width="11px" height="12px" preserveAspectRatio="xMinYMin meet" x="15" y="-342"/>
<text text-anchor="start" x="30" y="-333.2" font-family="Helvetica,sans-Serif" font-size="11.00">m_rma_id</text>
<polygon fill="none" stroke="black" points="237,-325 237,-347 346,-347 346,-325 237,-325"/>
<text text-anchor="start" x="240" y="-333.2" font-family="Helvetica,sans-Serif" font-size="11.00">numeric[10]</text>
<polygon fill="none" stroke="black" points="10,-303 10,-325 237,-325 237,-303 10,-303"/>
<text text-anchor="start" x="30" y="-311.2" font-family="Helvetica,sans-Serif" font-size="11.00">c_invoice_paymentrule</text>
<polygon fill="none" stroke="black" points="237,-303 237,-325 346,-325 346,-303 237,-303"/>
<text text-anchor="start" x="240" y="-311.2" font-family="Helvetica,sans-Serif" font-size="11.00">bpchar[1]</text>
<polygon fill="none" stroke="black" points="10,-281 10,-303 237,-303 237,-281 10,-281"/>
<text text-anchor="start" x="30" y="-289.2" font-family="Helvetica,sans-Serif" font-size="11.00">poreference</text>
<polygon fill="none" stroke="black" points="237,-281 237,-303 346,-303 346,-281 237,-281"/>
<text text-anchor="start" x="240" y="-289.2" font-family="Helvetica,sans-Serif" font-size="11.00">varchar[20]</text>
<polygon fill="none" stroke="black" points="10,-259 10,-281 237,-281 237,-259 10,-259"/>
<text text-anchor="start" x="30" y="-267.2" font-family="Helvetica,sans-Serif" font-size="11.00">posted</text>
<polygon fill="none" stroke="black" points="237,-259 237,-281 346,-281 346,-259 237,-259"/>
<text text-anchor="start" x="240" y="-267.2" font-family="Helvetica,sans-Serif" font-size="11.00">bpchar[1]</text>
<polygon fill="none" stroke="black" points="10,-237 10,-259 237,-259 237,-237 10,-237"/>
<text text-anchor="start" x="30" y="-245.2" font-family="Helvetica,sans-Serif" font-size="11.00">processedon</text>
<polygon fill="none" stroke="black" points="237,-237 237,-259 346,-259 346,-237 237,-237"/>
<text text-anchor="start" x="240" y="-245.2" font-family="Helvetica,sans-Serif" font-size="11.00">numeric[0]</text>
<polygon fill="none" stroke="black" points="10,-215 10,-237 237,-237 237,-215 10,-215"/>
<text text-anchor="start" x="30" y="-223.2" font-family="Helvetica,sans-Serif" font-size="11.00">processing</text>
<polygon fill="none" stroke="black" points="237,-215 237,-237 346,-237 346,-215 237,-215"/>
<text text-anchor="start" x="240" y="-223.2" font-family="Helvetica,sans-Serif" font-size="11.00">bpchar[1]</text>
<polygon fill="none" stroke="black" points="10,-193 10,-215 237,-215 237,-193 10,-193"/>
<text text-anchor="start" x="30" y="-201.2" font-family="Helvetica,sans-Serif" font-size="11.00">ref_invoice_id</text>
<polygon fill="none" stroke="black" points="237,-193 237,-215 346,-215 346,-193 237,-193"/>
<text text-anchor="start" x="240" y="-201.2" font-family="Helvetica,sans-Serif" font-size="11.00">numeric[10]</text>
<polygon fill="none" stroke="black" points="10,-171 10,-193 237,-193 237,-171 10,-171"/>
<text text-anchor="start" x="30" y="-179.2" font-family="Helvetica,sans-Serif" font-size="11.00">reversal_id</text>
<polygon fill="none" stroke="black" points="237,-171 237,-193 346,-193 346,-171 237,-171"/>
<text text-anchor="start" x="240" y="-179.2" font-family="Helvetica,sans-Serif" font-size="11.00">numeric[10]</text>
<polygon fill="none" stroke="black" points="10,-149 10,-171 237,-171 237,-149 10,-149"/>
<text text-anchor="start" x="30" y="-157.2" font-family="Helvetica,sans-Serif" font-size="11.00">sendemail</text>
<polygon fill="none" stroke="black" points="237,-149 237,-171 346,-171 346,-149 237,-149"/>
<text text-anchor="start" x="240" y="-157.2" font-family="Helvetica,sans-Serif" font-size="11.00">bpchar[1]</text>
<polygon fill="none" stroke="black" points="10,-127 10,-149 237,-149 237,-127 10,-127"/>
<text text-anchor="start" x="30" y="-135.2" font-family="Helvetica,sans-Serif" font-size="11.00">totallines</text>
<polygon fill="none" stroke="black" points="237,-127 237,-149 346,-149 346,-127 237,-127"/>
<text text-anchor="start" x="240" y="-135.2" font-family="Helvetica,sans-Serif" font-size="11.00">numeric[0]</text>
<polygon fill="none" stroke="black" points="10,-105 10,-127 237,-127 237,-105 10,-105"/>
<text text-anchor="start" x="30" y="-113.2" font-family="Helvetica,sans-Serif" font-size="11.00">c_invoice_updated</text>
<polygon fill="none" stroke="black" points="237,-105 237,-127 346,-127 346,-105 237,-105"/>
<text text-anchor="start" x="240" y="-113.2" font-family="Helvetica,sans-Serif" font-size="11.00">timestamp[29,6]</text>
<polygon fill="none" stroke="black" points="10,-83 10,-105 237,-105 237,-83 10,-83"/>
<text text-anchor="start" x="30" y="-91.2" font-family="Helvetica,sans-Serif" font-size="11.00">c_invoice_updatedby</text>
<polygon fill="none" stroke="black" points="237,-83 237,-105 346,-105 346,-83 237,-83"/>
<text text-anchor="start" x="240" y="-91.2" font-family="Helvetica,sans-Serif" font-size="11.00">numeric[10]</text>
<polygon fill="none" stroke="black" points="10,-61 10,-83 237,-83 237,-61 10,-61"/>
<text text-anchor="start" x="30" y="-69.2" font-family="Helvetica,sans-Serif" font-size="11.00">user1_id</text>
<polygon fill="none" stroke="black" points="237,-61 237,-83 346,-83 346,-61 237,-61"/>
<text text-anchor="start" x="240" y="-69.2" font-family="Helvetica,sans-Serif" font-size="11.00">numeric[10]</text>
<polygon fill="none" stroke="black" points="10,-39 10,-61 237,-61 237,-39 10,-39"/>
<text text-anchor="start" x="30" y="-47.2" font-family="Helvetica,sans-Serif" font-size="11.00">user2_id</text>
<polygon fill="none" stroke="black" points="237,-39 237,-61 346,-61 346,-39 237,-39"/>
<text text-anchor="start" x="240" y="-47.2" font-family="Helvetica,sans-Serif" font-size="11.00">numeric[10]</text>
<polygon fill="none" stroke="black" stroke-width="2" points="9,-38 9,-1800 347,-1800 347,-38 9,-38"/>
</a>
</g>
</g>
</g>
</svg>
