<?xml version="1.0" encoding="UTF-8" standalone="no"?>
<!DOCTYPE svg PUBLIC "-//W3C//DTD SVG 1.1//EN"
 "http://www.w3.org/Graphics/SVG/1.1/DTD/svg11.dtd">
<!-- Generated by graphviz version 2.43.0 (0)
 -->
<!-- Title: oneDegreeRelationshipsDiagram Pages: 1 -->
<svg width="804pt" height="490pt"
 viewBox="0.00 0.00 804.00 490.00" xmlns="http://www.w3.org/2000/svg" xmlns:xlink="http://www.w3.org/1999/xlink">
<g id="graph0" class="graph" transform="scale(1 1) rotate(0) translate(4 486)">
<title>oneDegreeRelationshipsDiagram</title>
<polygon fill="#ffffff" stroke="transparent" points="-4,4 -4,-486 800,-486 800,4 -4,4"/>
<text text-anchor="middle" x="71.5" y="-7.2" font-family="Helvetica,sans-Serif" font-size="11.00">Generated by SchemaSpy</text>
<!-- c_projectissue -->
<g id="node1" class="node">
<title>c_projectissue</title>
<g id="a_node1"><a xlink:href="../../tables/c_projectissue.html" xlink:title="c_projectissue" target="_top">
<polygon fill="#ffffff" stroke="transparent" points="258,-134 258,-478 455,-478 455,-134 258,-134"/>
<polygon fill="#f5f5f5" stroke="transparent" points="258.5,-456 258.5,-478 455.5,-478 455.5,-456 258.5,-456"/>
<polygon fill="none" stroke="black" points="258.5,-456 258.5,-478 455.5,-478 455.5,-456 258.5,-456"/>
<text text-anchor="start" x="263.5" y="-465.2" font-family="Helvetica,sans-Serif" font-weight="bold" font-size="11.00">c_projectissue</text>
<text text-anchor="start" x="420.5" y="-464.2" font-family="Helvetica,sans-Serif" font-size="11.00">[table]</text>
<polygon fill="none" stroke="black" points="258.5,-434 258.5,-456 455.5,-456 455.5,-434 258.5,-434"/>
<image xlink:href="../../images/primaryKeys.png" width="11px" height="12px" preserveAspectRatio="xMinYMin meet" x="263.5" y="-451"/>
<text text-anchor="start" x="278.5" y="-442.2" font-family="Helvetica,sans-Serif" font-size="11.00">c_projectissue_id</text>
<polygon fill="#ffffff" stroke="transparent" points="258.5,-412 258.5,-434 455.5,-434 455.5,-412 258.5,-412"/>
<polygon fill="none" stroke="black" points="258.5,-412 258.5,-434 455.5,-434 455.5,-412 258.5,-412"/>
<text text-anchor="start" x="278.5" y="-420.2" font-family="Helvetica,sans-Serif" font-size="11.00">ad_client_id</text>
<polygon fill="none" stroke="black" points="258.5,-390 258.5,-412 455.5,-412 455.5,-390 258.5,-390"/>
<image xlink:href="../../images/foreignKeys.png" width="11px" height="12px" preserveAspectRatio="xMinYMin meet" x="263.5" y="-407"/>
<text text-anchor="start" x="278.5" y="-398.2" font-family="Helvetica,sans-Serif" font-size="11.00">c_project_id</text>
<polygon fill="none" stroke="black" points="258.5,-368 258.5,-390 455.5,-390 455.5,-368 258.5,-368"/>
<image xlink:href="../../images/foreignKeys.png" width="11px" height="12px" preserveAspectRatio="xMinYMin meet" x="263.5" y="-385"/>
<text text-anchor="start" x="278.5" y="-376.2" font-family="Helvetica,sans-Serif" font-size="11.00">m_product_id</text>
<polygon fill="none" stroke="black" points="258.5,-346 258.5,-368 455.5,-368 455.5,-346 258.5,-346"/>
<image xlink:href="../../images/foreignKeys.png" width="11px" height="12px" preserveAspectRatio="xMinYMin meet" x="263.5" y="-363"/>
<text text-anchor="start" x="278.5" y="-354.2" font-family="Helvetica,sans-Serif" font-size="11.00">m_attributesetinstance_id</text>
<polygon fill="none" stroke="black" points="258.5,-324 258.5,-346 455.5,-346 455.5,-324 258.5,-324"/>
<image xlink:href="../../images/foreignKeys.png" width="11px" height="12px" preserveAspectRatio="xMinYMin meet" x="263.5" y="-341"/>
<text text-anchor="start" x="278.5" y="-332.2" font-family="Helvetica,sans-Serif" font-size="11.00">m_locator_id</text>
<polygon fill="#ffffff" stroke="transparent" points="258.5,-302 258.5,-324 455.5,-324 455.5,-302 258.5,-302"/>
<polygon fill="none" stroke="black" points="258.5,-302 258.5,-324 455.5,-324 455.5,-302 258.5,-302"/>
<text text-anchor="start" x="278.5" y="-310.2" font-family="Helvetica,sans-Serif" font-size="11.00">processed</text>
<polygon fill="#ffffff" stroke="transparent" points="258.5,-280 258.5,-302 455.5,-302 455.5,-280 258.5,-280"/>
<polygon fill="none" stroke="black" points="258.5,-280 258.5,-302 455.5,-302 455.5,-280 258.5,-280"/>
<text text-anchor="start" x="278.5" y="-288.2" font-family="Helvetica,sans-Serif" font-size="11.00">posted</text>
<polygon fill="none" stroke="black" points="258.5,-258 258.5,-280 455.5,-280 455.5,-258 258.5,-258"/>
<image xlink:href="../../images/foreignKeys.png" width="11px" height="12px" preserveAspectRatio="xMinYMin meet" x="263.5" y="-275"/>
<text text-anchor="start" x="278.5" y="-266.2" font-family="Helvetica,sans-Serif" font-size="11.00">s_timeexpenseline_id</text>
<polygon fill="none" stroke="black" points="258.5,-236 258.5,-258 455.5,-258 455.5,-236 258.5,-236"/>
<image xlink:href="../../images/foreignKeys.png" width="11px" height="12px" preserveAspectRatio="xMinYMin meet" x="263.5" y="-253"/>
<text text-anchor="start" x="278.5" y="-244.2" font-family="Helvetica,sans-Serif" font-size="11.00">m_inoutline_id</text>
<polygon fill="#ffffff" stroke="transparent" points="258.5,-214 258.5,-236 455.5,-236 455.5,-214 258.5,-214"/>
<polygon fill="none" stroke="black" points="258.5,-214 258.5,-236 455.5,-236 455.5,-214 258.5,-214"/>
<text text-anchor="start" x="278.5" y="-222.2" font-family="Helvetica,sans-Serif" font-size="11.00">processedon</text>
<polygon fill="#ffffff" stroke="transparent" points="258.5,-192 258.5,-214 455.5,-214 455.5,-192 258.5,-192"/>
<polygon fill="none" stroke="black" points="258.5,-192 258.5,-214 455.5,-214 455.5,-192 258.5,-192"/>
<text text-anchor="start" x="278.5" y="-200.2" font-family="Helvetica,sans-Serif" font-size="11.00">c_projectissue_uu</text>
<polygon fill="none" stroke="black" points="258.5,-170 258.5,-192 455.5,-192 455.5,-170 258.5,-170"/>
<image xlink:href="../../images/foreignKeys.png" width="11px" height="12px" preserveAspectRatio="xMinYMin meet" x="263.5" y="-187"/>
<text text-anchor="start" x="278.5" y="-178.2" font-family="Helvetica,sans-Serif" font-size="11.00">reversal_id</text>
<polygon fill="none" stroke="black" points="258.5,-152 258.5,-170 455.5,-170 455.5,-152 258.5,-152"/>
<text text-anchor="start" x="261.5" y="-158.2" font-family="Helvetica,sans-Serif" font-size="11.00">...</text>
<polygon fill="#ffffff" stroke="transparent" points="258.5,-134 258.5,-152 337.5,-152 337.5,-134 258.5,-134"/>
<polygon fill="none" stroke="black" points="258.5,-134 258.5,-152 337.5,-152 337.5,-134 258.5,-134"/>
<text text-anchor="start" x="261.5" y="-140.2" font-family="Helvetica,sans-Serif" font-size="11.00">&lt; 7</text>
<polygon fill="#ffffff" stroke="transparent" points="337.5,-134 337.5,-152 404.5,-152 404.5,-134 337.5,-134"/>
<polygon fill="none" stroke="black" points="337.5,-134 337.5,-152 404.5,-152 404.5,-134 337.5,-134"/>
<text text-anchor="start" x="368.5" y="-140.2" font-family="Helvetica,sans-Serif" font-size="11.00">0 rows</text>
<polygon fill="#ffffff" stroke="transparent" points="404.5,-134 404.5,-152 455.5,-152 455.5,-134 404.5,-134"/>
<polygon fill="none" stroke="black" points="404.5,-134 404.5,-152 455.5,-152 455.5,-134 404.5,-134"/>
<text text-anchor="start" x="436.5" y="-140.2" font-family="Helvetica,sans-Serif" font-size="11.00">6 &gt;</text>
</a>
</g>
</g>
<!-- m_attributesetinstance -->
<g id="node2" class="node">
<title>m_attributesetinstance</title>
<g id="a_node2"><a xlink:href="../../tables/m_attributesetinstance.html" xlink:title="m_attributesetinstance" target="_top">
<polygon fill="#ffffff" stroke="transparent" points="8,-120 8,-266 209,-266 209,-120 8,-120"/>
<polygon fill="#f5f5f5" stroke="transparent" points="8.5,-244 8.5,-266 209.5,-266 209.5,-244 8.5,-244"/>
<polygon fill="none" stroke="black" points="8.5,-244 8.5,-266 209.5,-266 209.5,-244 8.5,-244"/>
<text text-anchor="start" x="13.5" y="-253.2" font-family="Helvetica,sans-Serif" font-weight="bold" font-size="11.00">m_attributesetinstance</text>
<text text-anchor="start" x="174.5" y="-252.2" font-family="Helvetica,sans-Serif" font-size="11.00">[table]</text>
<polygon fill="none" stroke="black" points="8.5,-222 8.5,-244 209.5,-244 209.5,-222 8.5,-222"/>
<image xlink:href="../../images/primaryKeys.png" width="11px" height="12px" preserveAspectRatio="xMinYMin meet" x="13.5" y="-239"/>
<text text-anchor="start" x="28.5" y="-230.2" font-family="Helvetica,sans-Serif" font-size="11.00">m_attributesetinstance_id</text>
<polygon fill="none" stroke="black" points="8.5,-200 8.5,-222 209.5,-222 209.5,-200 8.5,-200"/>
<image xlink:href="../../images/foreignKeys.png" width="11px" height="12px" preserveAspectRatio="xMinYMin meet" x="13.5" y="-217"/>
<text text-anchor="start" x="28.5" y="-208.2" font-family="Helvetica,sans-Serif" font-size="11.00">m_attributeset_id</text>
<polygon fill="none" stroke="black" points="8.5,-178 8.5,-200 209.5,-200 209.5,-178 8.5,-178"/>
<image xlink:href="../../images/foreignKeys.png" width="11px" height="12px" preserveAspectRatio="xMinYMin meet" x="13.5" y="-195"/>
<text text-anchor="start" x="28.5" y="-186.2" font-family="Helvetica,sans-Serif" font-size="11.00">m_lot_id</text>
<polygon fill="#ffffff" stroke="transparent" points="8.5,-156 8.5,-178 209.5,-178 209.5,-156 8.5,-156"/>
<polygon fill="none" stroke="black" points="8.5,-156 8.5,-178 209.5,-178 209.5,-156 8.5,-156"/>
<text text-anchor="start" x="28.5" y="-164.2" font-family="Helvetica,sans-Serif" font-size="11.00">m_attributesetinstance_uu</text>
<polygon fill="none" stroke="black" points="8.5,-138 8.5,-156 209.5,-156 209.5,-138 8.5,-138"/>
<text text-anchor="start" x="11.5" y="-144.2" font-family="Helvetica,sans-Serif" font-size="11.00">...</text>
<polygon fill="#ffffff" stroke="transparent" points="8.5,-120 8.5,-138 88.5,-138 88.5,-120 8.5,-120"/>
<polygon fill="none" stroke="black" points="8.5,-120 8.5,-138 88.5,-138 88.5,-120 8.5,-120"/>
<text text-anchor="start" x="11.5" y="-126.2" font-family="Helvetica,sans-Serif" font-size="11.00">&lt; 2</text>
<polygon fill="#ffffff" stroke="transparent" points="88.5,-120 88.5,-138 151.5,-138 151.5,-120 88.5,-120"/>
<polygon fill="none" stroke="black" points="88.5,-120 88.5,-138 151.5,-138 151.5,-120 88.5,-120"/>
<text text-anchor="start" x="120.5" y="-126.2" font-family="Helvetica,sans-Serif" font-size="11.00">1 row</text>
<polygon fill="#ffffff" stroke="transparent" points="151.5,-120 151.5,-138 209.5,-138 209.5,-120 151.5,-120"/>
<polygon fill="none" stroke="black" points="151.5,-120 151.5,-138 209.5,-138 209.5,-120 151.5,-120"/>
<text text-anchor="start" x="184.5" y="-126.2" font-family="Helvetica,sans-Serif" font-size="11.00">49 &gt;</text>
</a>
</g>
</g>
<!-- c_projectissue&#45;&gt;m_attributesetinstance -->
<g id="edge1" class="edge">
<title>c_projectissue:w&#45;&gt;m_attributesetinstance:e</title>
<path fill="none" stroke="black" d="M243.29,-353.42C211.62,-333.09 263.45,-233 210.5,-233"/>
<polygon fill="black" stroke="black" points="249.74,-355.05 256.62,-360.49 253.62,-356.02 257.5,-357 257.5,-357 257.5,-357 253.62,-356.02 258.38,-353.51 249.74,-355.05 249.74,-355.05"/>
<ellipse fill="none" stroke="black" cx="246.64" cy="-354.27" rx="3.2" ry="3.2"/>
</g>
<!-- c_projectissuema -->
<g id="node3" class="node">
<title>c_projectissuema</title>
<g id="a_node3"><a xlink:href="../../tables/c_projectissuema.html" xlink:title="c_projectissuema" target="_top">
<polygon fill="#ffffff" stroke="transparent" points="504,-37 504,-323 788,-323 788,-37 504,-37"/>
<polygon fill="#f5f5f5" stroke="transparent" points="506,-299 506,-321 786,-321 786,-299 506,-299"/>
<polygon fill="none" stroke="black" points="506,-299 506,-321 786,-321 786,-299 506,-299"/>
<text text-anchor="start" x="511" y="-308.2" font-family="Helvetica,sans-Serif" font-weight="bold" font-size="11.00">c_projectissuema</text>
<text text-anchor="start" x="751" y="-307.2" font-family="Helvetica,sans-Serif" font-size="11.00">[table]</text>
<polygon fill="none" stroke="black" points="506,-277 506,-299 703,-299 703,-277 506,-277"/>
<image xlink:href="../../images/primaryKeys.png" width="11px" height="12px" preserveAspectRatio="xMinYMin meet" x="511" y="-294"/>
<text text-anchor="start" x="526" y="-285.2" font-family="Helvetica,sans-Serif" font-size="11.00">c_projectissue_id</text>
<polygon fill="none" stroke="black" points="703,-277 703,-299 786,-299 786,-277 703,-277"/>
<text text-anchor="start" x="706" y="-285.2" font-family="Helvetica,sans-Serif" font-size="11.00">numeric[10]</text>
<polygon fill="none" stroke="black" points="506,-255 506,-277 703,-277 703,-255 506,-255"/>
<image xlink:href="../../images/primaryKeys.png" width="11px" height="12px" preserveAspectRatio="xMinYMin meet" x="511" y="-272"/>
<text text-anchor="start" x="526" y="-263.2" font-family="Helvetica,sans-Serif" font-size="11.00">m_attributesetinstance_id</text>
<polygon fill="none" stroke="black" points="703,-255 703,-277 786,-277 786,-255 703,-255"/>
<text text-anchor="start" x="706" y="-263.2" font-family="Helvetica,sans-Serif" font-size="11.00">numeric[10]</text>
<polygon fill="none" stroke="black" points="506,-233 506,-255 703,-255 703,-233 506,-233"/>
<text text-anchor="start" x="526" y="-241.2" font-family="Helvetica,sans-Serif" font-size="11.00">ad_client_id</text>
<polygon fill="none" stroke="black" points="703,-233 703,-255 786,-255 786,-233 703,-233"/>
<text text-anchor="start" x="706" y="-241.2" font-family="Helvetica,sans-Serif" font-size="11.00">numeric[10]</text>
<polygon fill="none" stroke="black" points="506,-211 506,-233 703,-233 703,-211 506,-211"/>
<text text-anchor="start" x="526" y="-219.2" font-family="Helvetica,sans-Serif" font-size="11.00">ad_org_id</text>
<polygon fill="none" stroke="black" points="703,-211 703,-233 786,-233 786,-211 703,-211"/>
<text text-anchor="start" x="706" y="-219.2" font-family="Helvetica,sans-Serif" font-size="11.00">numeric[10]</text>
<polygon fill="none" stroke="black" points="506,-189 506,-211 703,-211 703,-189 506,-189"/>
<text text-anchor="start" x="526" y="-197.2" font-family="Helvetica,sans-Serif" font-size="11.00">isactive</text>
<polygon fill="none" stroke="black" points="703,-189 703,-211 786,-211 786,-189 703,-189"/>
<text text-anchor="start" x="706" y="-197.2" font-family="Helvetica,sans-Serif" font-size="11.00">bpchar[1]</text>
<polygon fill="none" stroke="black" points="506,-167 506,-189 703,-189 703,-167 506,-167"/>
<text text-anchor="start" x="526" y="-175.2" font-family="Helvetica,sans-Serif" font-size="11.00">created</text>
<polygon fill="none" stroke="black" points="703,-167 703,-189 786,-189 786,-167 703,-167"/>
<text text-anchor="start" x="706" y="-175.2" font-family="Helvetica,sans-Serif" font-size="11.00">timestamp[29,6]</text>
<polygon fill="none" stroke="black" points="506,-145 506,-167 703,-167 703,-145 506,-145"/>
<text text-anchor="start" x="526" y="-153.2" font-family="Helvetica,sans-Serif" font-size="11.00">createdby</text>
<polygon fill="none" stroke="black" points="703,-145 703,-167 786,-167 786,-145 703,-145"/>
<text text-anchor="start" x="706" y="-153.2" font-family="Helvetica,sans-Serif" font-size="11.00">numeric[10]</text>
<polygon fill="none" stroke="black" points="506,-123 506,-145 703,-145 703,-123 506,-123"/>
<text text-anchor="start" x="526" y="-131.2" font-family="Helvetica,sans-Serif" font-size="11.00">updated</text>
<polygon fill="none" stroke="black" points="703,-123 703,-145 786,-145 786,-123 703,-123"/>
<text text-anchor="start" x="706" y="-131.2" font-family="Helvetica,sans-Serif" font-size="11.00">timestamp[29,6]</text>
<polygon fill="none" stroke="black" points="506,-101 506,-123 703,-123 703,-101 506,-101"/>
<text text-anchor="start" x="526" y="-109.2" font-family="Helvetica,sans-Serif" font-size="11.00">updatedby</text>
<polygon fill="none" stroke="black" points="703,-101 703,-123 786,-123 786,-101 703,-101"/>
<text text-anchor="start" x="706" y="-109.2" font-family="Helvetica,sans-Serif" font-size="11.00">numeric[10]</text>
<polygon fill="none" stroke="black" points="506,-79 506,-101 703,-101 703,-79 506,-79"/>
<text text-anchor="start" x="526" y="-87.2" font-family="Helvetica,sans-Serif" font-size="11.00">movementqty</text>
<polygon fill="none" stroke="black" points="703,-79 703,-101 786,-101 786,-79 703,-79"/>
<text text-anchor="start" x="706" y="-87.2" font-family="Helvetica,sans-Serif" font-size="11.00">numeric[0]</text>
<polygon fill="#ffffff" stroke="transparent" points="506,-57 506,-79 703,-79 703,-57 506,-57"/>
<polygon fill="none" stroke="black" points="506,-57 506,-79 703,-79 703,-57 506,-57"/>
<text text-anchor="start" x="526" y="-65.2" font-family="Helvetica,sans-Serif" font-size="11.00">c_projectissuema_uu</text>
<polygon fill="none" stroke="black" points="703,-57 703,-79 786,-79 786,-57 703,-57"/>
<text text-anchor="start" x="706" y="-65.2" font-family="Helvetica,sans-Serif" font-size="11.00">varchar[36]</text>
<polygon fill="#ffffff" stroke="transparent" points="506,-39 506,-57 596,-57 596,-39 506,-39"/>
<polygon fill="none" stroke="black" points="506,-39 506,-57 596,-57 596,-39 506,-39"/>
<text text-anchor="start" x="509" y="-45.2" font-family="Helvetica,sans-Serif" font-size="11.00">&lt; 2</text>
<polygon fill="#ffffff" stroke="transparent" points="596,-39 596,-57 703,-57 703,-39 596,-39"/>
<polygon fill="none" stroke="black" points="596,-39 596,-57 703,-57 703,-39 596,-39"/>
<text text-anchor="start" x="667" y="-45.2" font-family="Helvetica,sans-Serif" font-size="11.00">0 rows</text>
<polygon fill="#ffffff" stroke="transparent" points="703,-39 703,-57 786,-57 786,-39 703,-39"/>
<polygon fill="none" stroke="black" points="703,-39 703,-57 786,-57 786,-39 703,-39"/>
<text text-anchor="start" x="767" y="-45.2" font-family="Helvetica,sans-Serif" font-size="11.00">0 &gt;</text>
<polygon fill="none" stroke="black" stroke-width="2" points="505,-38 505,-322 787,-322 787,-38 505,-38"/>
</a>
</g>
</g>
<!-- c_projectissuema&#45;&gt;c_projectissue -->
<g id="edge2" class="edge">
<title>c_projectissuema:w&#45;&gt;c_projectissue:e</title>
<path fill="none" stroke="black" d="M490.84,-290.73C446.17,-311.57 523.83,-445 456.5,-445"/>
<polygon fill="black" stroke="black" points="497.14,-289.51 505.68,-291.54 501.07,-288.76 505,-288 505,-288 505,-288 501.07,-288.76 504.32,-284.46 497.14,-289.51 497.14,-289.51"/>
<ellipse fill="none" stroke="black" cx="494" cy="-290.12" rx="3.2" ry="3.2"/>
</g>
<!-- c_projectissuema&#45;&gt;m_attributesetinstance -->
<g id="edge3" class="edge">
<title>c_projectissuema:w&#45;&gt;m_attributesetinstance:e</title>
<path fill="none" stroke="black" d="M490.76,-263.73C451.64,-248.45 511.09,-159.93 463,-124 387.16,-67.34 327.51,-69.65 250,-124 207.81,-153.58 262.03,-233 210.5,-233"/>
<polygon fill="black" stroke="black" points="497.1,-264.74 504.43,-269.56 501.05,-265.37 505,-266 505,-266 505,-266 501.05,-265.37 505.57,-262.44 497.1,-264.74 497.1,-264.74"/>
<ellipse fill="none" stroke="black" cx="493.94" cy="-264.24" rx="3.2" ry="3.2"/>
</g>
</g>
</svg>
