<?xml version="1.0" encoding="UTF-8" standalone="no"?>
<!DOCTYPE svg PUBLIC "-//W3C//DTD SVG 1.1//EN"
 "http://www.w3.org/Graphics/SVG/1.1/DTD/svg11.dtd">
<!-- Generated by graphviz version 2.43.0 (0)
 -->
<!-- Title: oneDegreeRelationshipsDiagram Pages: 1 -->
<svg width="1225pt" height="876pt"
 viewBox="0.00 0.00 1224.67 876.00" xmlns="http://www.w3.org/2000/svg" xmlns:xlink="http://www.w3.org/1999/xlink">
<g id="graph0" class="graph" transform="scale(1 1) rotate(0) translate(4 872)">
<title>oneDegreeRelationshipsDiagram</title>
<polygon fill="#ffffff" stroke="transparent" points="-4,4 -4,-872 1220.67,-872 1220.67,4 -4,4"/>
<text text-anchor="middle" x="71.5" y="-7.2" font-family="Helvetica,sans-Serif" font-size="11.00">Generated by SchemaSpy</text>
<!-- ad_client -->
<g id="node1" class="node">
<title>ad_client</title>
<g id="a_node1"><a xlink:href="../../tables/ad_client.html" xlink:title="ad_client" target="_top">
<polygon fill="#ffffff" stroke="transparent" points="450.67,-550 450.67,-762 678.67,-762 678.67,-550 450.67,-550"/>
<polygon fill="#f5f5f5" stroke="transparent" points="450.67,-740 450.67,-762 678.67,-762 678.67,-740 450.67,-740"/>
<polygon fill="none" stroke="black" points="450.67,-740 450.67,-762 678.67,-762 678.67,-740 450.67,-740"/>
<text text-anchor="start" x="455.67" y="-749.2" font-family="Helvetica,sans-Serif" font-weight="bold" font-size="11.00">ad_client</text>
<text text-anchor="start" x="643.67" y="-748.2" font-family="Helvetica,sans-Serif" font-size="11.00">[table]</text>
<polygon fill="none" stroke="black" points="450.67,-718 450.67,-740 678.67,-740 678.67,-718 450.67,-718"/>
<image xlink:href="../../images/primaryKeys.png" width="11px" height="12px" preserveAspectRatio="xMinYMin meet" x="455.666" y="-735"/>
<text text-anchor="start" x="470.67" y="-726.2" font-family="Helvetica,sans-Serif" font-size="11.00">ad_client_id</text>
<polygon fill="#ffffff" stroke="transparent" points="450.67,-696 450.67,-718 678.67,-718 678.67,-696 450.67,-696"/>
<polygon fill="none" stroke="black" points="450.67,-696 450.67,-718 678.67,-718 678.67,-696 450.67,-696"/>
<text text-anchor="start" x="470.67" y="-704.2" font-family="Helvetica,sans-Serif" font-size="11.00">value</text>
<polygon fill="none" stroke="black" points="450.67,-674 450.67,-696 678.67,-696 678.67,-674 450.67,-674"/>
<image xlink:href="../../images/foreignKeys.png" width="11px" height="12px" preserveAspectRatio="xMinYMin meet" x="455.666" y="-691"/>
<text text-anchor="start" x="470.67" y="-682.2" font-family="Helvetica,sans-Serif" font-size="11.00">ad_language</text>
<polygon fill="none" stroke="black" points="450.67,-652 450.67,-674 678.67,-674 678.67,-652 450.67,-652"/>
<image xlink:href="../../images/foreignKeys.png" width="11px" height="12px" preserveAspectRatio="xMinYMin meet" x="455.666" y="-669"/>
<text text-anchor="start" x="470.67" y="-660.2" font-family="Helvetica,sans-Serif" font-size="11.00">ad_replicationstrategy_id</text>
<polygon fill="#ffffff" stroke="transparent" points="450.67,-630 450.67,-652 678.67,-652 678.67,-630 450.67,-630"/>
<polygon fill="none" stroke="black" points="450.67,-630 450.67,-652 678.67,-652 678.67,-630 450.67,-630"/>
<text text-anchor="start" x="470.67" y="-638.2" font-family="Helvetica,sans-Serif" font-size="11.00">ad_client_uu</text>
<polygon fill="none" stroke="black" points="450.67,-608 450.67,-630 678.67,-630 678.67,-608 450.67,-608"/>
<image xlink:href="../../images/foreignKeys.png" width="11px" height="12px" preserveAspectRatio="xMinYMin meet" x="455.666" y="-625"/>
<text text-anchor="start" x="470.67" y="-616.2" font-family="Helvetica,sans-Serif" font-size="11.00">ad_passwordrule_id</text>
<polygon fill="#ffffff" stroke="transparent" points="450.67,-586 450.67,-608 678.67,-608 678.67,-586 450.67,-586"/>
<polygon fill="none" stroke="black" points="450.67,-586 450.67,-608 678.67,-608 678.67,-586 450.67,-586"/>
<text text-anchor="start" x="470.67" y="-594.2" font-family="Helvetica,sans-Serif" font-size="11.00">loginprefix</text>
<polygon fill="none" stroke="black" points="450.67,-568 450.67,-586 678.67,-586 678.67,-568 450.67,-568"/>
<text text-anchor="start" x="453.67" y="-574.2" font-family="Helvetica,sans-Serif" font-size="11.00">...</text>
<polygon fill="#ffffff" stroke="transparent" points="450.67,-550 450.67,-568 538.67,-568 538.67,-550 450.67,-550"/>
<polygon fill="none" stroke="black" points="450.67,-550 450.67,-568 538.67,-568 538.67,-550 450.67,-550"/>
<text text-anchor="start" x="453.67" y="-556.2" font-family="Helvetica,sans-Serif" font-size="11.00">&lt; 3</text>
<polygon fill="#ffffff" stroke="transparent" points="538.67,-550 538.67,-568 610.67,-568 610.67,-550 538.67,-550"/>
<polygon fill="none" stroke="black" points="538.67,-550 538.67,-568 610.67,-568 610.67,-550 538.67,-550"/>
<text text-anchor="start" x="574.67" y="-556.2" font-family="Helvetica,sans-Serif" font-size="11.00">2 rows</text>
<polygon fill="#ffffff" stroke="transparent" points="610.67,-550 610.67,-568 678.67,-568 678.67,-550 610.67,-550"/>
<polygon fill="none" stroke="black" points="610.67,-550 610.67,-568 678.67,-568 678.67,-550 610.67,-550"/>
<text text-anchor="start" x="647.67" y="-556.2" font-family="Helvetica,sans-Serif" font-size="11.00">145 &gt;</text>
</a>
</g>
</g>
<!-- ad_language -->
<g id="node2" class="node">
<title>ad_language</title>
<g id="a_node2"><a xlink:href="../../tables/ad_language.html" xlink:title="ad_language" target="_top">
<polygon fill="#ffffff" stroke="transparent" points="258.67,-586 258.67,-776 401.67,-776 401.67,-586 258.67,-586"/>
<polygon fill="#f5f5f5" stroke="transparent" points="259.17,-754 259.17,-776 402.17,-776 402.17,-754 259.17,-754"/>
<polygon fill="none" stroke="black" points="259.17,-754 259.17,-776 402.17,-776 402.17,-754 259.17,-754"/>
<text text-anchor="start" x="264.17" y="-763.2" font-family="Helvetica,sans-Serif" font-weight="bold" font-size="11.00">ad_language</text>
<text text-anchor="start" x="367.17" y="-762.2" font-family="Helvetica,sans-Serif" font-size="11.00">[table]</text>
<polygon fill="none" stroke="black" points="259.17,-732 259.17,-754 402.17,-754 402.17,-732 259.17,-732"/>
<image xlink:href="../../images/primaryKeys.png" width="11px" height="12px" preserveAspectRatio="xMinYMin meet" x="264.166" y="-749"/>
<text text-anchor="start" x="279.17" y="-740.2" font-family="Helvetica,sans-Serif" font-size="11.00">ad_language</text>
<polygon fill="none" stroke="black" points="259.17,-710 259.17,-732 402.17,-732 402.17,-710 259.17,-710"/>
<image xlink:href="../../images/foreignKeys.png" width="11px" height="12px" preserveAspectRatio="xMinYMin meet" x="264.166" y="-727"/>
<text text-anchor="start" x="279.17" y="-718.2" font-family="Helvetica,sans-Serif" font-size="11.00">ad_client_id</text>
<polygon fill="none" stroke="black" points="259.17,-688 259.17,-710 402.17,-710 402.17,-688 259.17,-688"/>
<image xlink:href="../../images/foreignKeys.png" width="11px" height="12px" preserveAspectRatio="xMinYMin meet" x="264.166" y="-705"/>
<text text-anchor="start" x="279.17" y="-696.2" font-family="Helvetica,sans-Serif" font-size="11.00">ad_org_id</text>
<polygon fill="#ffffff" stroke="transparent" points="259.17,-666 259.17,-688 402.17,-688 402.17,-666 259.17,-666"/>
<polygon fill="none" stroke="black" points="259.17,-666 259.17,-688 402.17,-688 402.17,-666 259.17,-666"/>
<text text-anchor="start" x="279.17" y="-674.2" font-family="Helvetica,sans-Serif" font-size="11.00">ad_language_id</text>
<polygon fill="#ffffff" stroke="transparent" points="259.17,-644 259.17,-666 402.17,-666 402.17,-644 259.17,-644"/>
<polygon fill="none" stroke="black" points="259.17,-644 259.17,-666 402.17,-666 402.17,-644 259.17,-644"/>
<text text-anchor="start" x="279.17" y="-652.2" font-family="Helvetica,sans-Serif" font-size="11.00">ad_language_uu</text>
<polygon fill="none" stroke="black" points="259.17,-622 259.17,-644 402.17,-644 402.17,-622 259.17,-622"/>
<image xlink:href="../../images/foreignKeys.png" width="11px" height="12px" preserveAspectRatio="xMinYMin meet" x="264.166" y="-639"/>
<text text-anchor="start" x="279.17" y="-630.2" font-family="Helvetica,sans-Serif" font-size="11.00">ad_printpaper_id</text>
<polygon fill="none" stroke="black" points="259.17,-604 259.17,-622 402.17,-622 402.17,-604 259.17,-604"/>
<text text-anchor="start" x="262.17" y="-610.2" font-family="Helvetica,sans-Serif" font-size="11.00">...</text>
<polygon fill="#ffffff" stroke="transparent" points="259.17,-586 259.17,-604 302.17,-604 302.17,-586 259.17,-586"/>
<polygon fill="none" stroke="black" points="259.17,-586 259.17,-604 302.17,-604 302.17,-586 259.17,-586"/>
<text text-anchor="start" x="262.17" y="-592.2" font-family="Helvetica,sans-Serif" font-size="11.00">&lt; 3</text>
<polygon fill="#ffffff" stroke="transparent" points="302.17,-586 302.17,-604 363.17,-604 363.17,-586 302.17,-586"/>
<polygon fill="none" stroke="black" points="302.17,-586 302.17,-604 363.17,-604 363.17,-586 302.17,-586"/>
<text text-anchor="start" x="315.17" y="-592.2" font-family="Helvetica,sans-Serif" font-size="11.00">109 rows</text>
<polygon fill="#ffffff" stroke="transparent" points="363.17,-586 363.17,-604 402.17,-604 402.17,-586 363.17,-586"/>
<polygon fill="none" stroke="black" points="363.17,-586 363.17,-604 402.17,-604 402.17,-586 363.17,-586"/>
<text text-anchor="start" x="377.17" y="-592.2" font-family="Helvetica,sans-Serif" font-size="11.00">86 &gt;</text>
</a>
</g>
</g>
<!-- ad_client&#45;&gt;ad_language -->
<g id="edge1" class="edge">
<title>ad_client:w&#45;&gt;ad_language:e</title>
<path fill="none" stroke="black" d="M435.94,-690.35C422.12,-704.71 430.01,-743 403.17,-743"/>
<polygon fill="black" stroke="black" points="442.21,-687.91 450.97,-688.35 445.94,-686.45 449.67,-685 449.67,-685 449.67,-685 445.94,-686.45 448.36,-681.65 442.21,-687.91 442.21,-687.91"/>
<ellipse fill="none" stroke="black" cx="439.23" cy="-689.07" rx="3.2" ry="3.2"/>
</g>
<!-- ad_language&#45;&gt;ad_client -->
<g id="edge2" class="edge">
<title>ad_language:w&#45;&gt;ad_client:e</title>
<path fill="none" stroke="black" d="M244.88,-727.25C236.67,-739.37 244.99,-766.07 259.17,-780 267.48,-788.17 670.52,-774.35 678.67,-766 690.15,-754.22 696.12,-729 679.67,-729"/>
<polygon fill="black" stroke="black" points="250.93,-724.41 259.7,-724.26 254.55,-722.7 258.17,-721 258.17,-721 258.17,-721 254.55,-722.7 256.63,-717.74 250.93,-724.41 250.93,-724.41"/>
<ellipse fill="none" stroke="black" cx="248.03" cy="-725.77" rx="3.2" ry="3.2"/>
</g>
<!-- ad_org -->
<g id="node3" class="node">
<title>ad_org</title>
<g id="a_node3"><a xlink:href="../../tables/ad_org.html" xlink:title="ad_org" target="_top">
<polygon fill="#ffffff" stroke="transparent" points="17.67,-396 17.67,-586 209.67,-586 209.67,-396 17.67,-396"/>
<polygon fill="#f5f5f5" stroke="transparent" points="17.67,-564 17.67,-586 209.67,-586 209.67,-564 17.67,-564"/>
<polygon fill="none" stroke="black" points="17.67,-564 17.67,-586 209.67,-586 209.67,-564 17.67,-564"/>
<text text-anchor="start" x="22.67" y="-573.2" font-family="Helvetica,sans-Serif" font-weight="bold" font-size="11.00">ad_org</text>
<text text-anchor="start" x="174.67" y="-572.2" font-family="Helvetica,sans-Serif" font-size="11.00">[table]</text>
<polygon fill="none" stroke="black" points="17.67,-542 17.67,-564 209.67,-564 209.67,-542 17.67,-542"/>
<image xlink:href="../../images/primaryKeys.png" width="11px" height="12px" preserveAspectRatio="xMinYMin meet" x="22.6657" y="-559"/>
<text text-anchor="start" x="37.67" y="-550.2" font-family="Helvetica,sans-Serif" font-size="11.00">ad_org_id</text>
<polygon fill="#ffffff" stroke="transparent" points="17.67,-520 17.67,-542 209.67,-542 209.67,-520 17.67,-520"/>
<polygon fill="none" stroke="black" points="17.67,-520 17.67,-542 209.67,-542 209.67,-520 17.67,-520"/>
<image xlink:href="../../images/foreignKeys.png" width="11px" height="12px" preserveAspectRatio="xMinYMin meet" x="22.6657" y="-537"/>
<text text-anchor="start" x="37.67" y="-528.2" font-family="Helvetica,sans-Serif" font-size="11.00">ad_client_id</text>
<polygon fill="#ffffff" stroke="transparent" points="17.67,-498 17.67,-520 209.67,-520 209.67,-498 17.67,-498"/>
<polygon fill="none" stroke="black" points="17.67,-498 17.67,-520 209.67,-520 209.67,-498 17.67,-498"/>
<text text-anchor="start" x="37.67" y="-506.2" font-family="Helvetica,sans-Serif" font-size="11.00">value</text>
<polygon fill="none" stroke="black" points="17.67,-476 17.67,-498 209.67,-498 209.67,-476 17.67,-476"/>
<image xlink:href="../../images/foreignKeys.png" width="11px" height="12px" preserveAspectRatio="xMinYMin meet" x="22.6657" y="-493"/>
<text text-anchor="start" x="37.67" y="-484.2" font-family="Helvetica,sans-Serif" font-size="11.00">ad_replicationstrategy_id</text>
<polygon fill="#ffffff" stroke="transparent" points="17.67,-454 17.67,-476 209.67,-476 209.67,-454 17.67,-454"/>
<polygon fill="none" stroke="black" points="17.67,-454 17.67,-476 209.67,-476 209.67,-454 17.67,-454"/>
<text text-anchor="start" x="37.67" y="-462.2" font-family="Helvetica,sans-Serif" font-size="11.00">ad_org_uu</text>
<polygon fill="none" stroke="black" points="17.67,-432 17.67,-454 209.67,-454 209.67,-432 17.67,-432"/>
<image xlink:href="../../images/foreignKeys.png" width="11px" height="12px" preserveAspectRatio="xMinYMin meet" x="22.6657" y="-449"/>
<text text-anchor="start" x="37.67" y="-440.2" font-family="Helvetica,sans-Serif" font-size="11.00">cof_c_snrange_id</text>
<polygon fill="none" stroke="black" points="17.67,-414 17.67,-432 209.67,-432 209.67,-414 17.67,-414"/>
<text text-anchor="start" x="20.67" y="-420.2" font-family="Helvetica,sans-Serif" font-size="11.00">...</text>
<polygon fill="#ffffff" stroke="transparent" points="17.67,-396 17.67,-414 87.67,-414 87.67,-396 17.67,-396"/>
<polygon fill="none" stroke="black" points="17.67,-396 17.67,-414 87.67,-414 87.67,-396 17.67,-396"/>
<text text-anchor="start" x="20.67" y="-402.2" font-family="Helvetica,sans-Serif" font-size="11.00">&lt; 3</text>
<polygon fill="#ffffff" stroke="transparent" points="87.67,-396 87.67,-414 150.67,-414 150.67,-396 87.67,-396"/>
<polygon fill="none" stroke="black" points="87.67,-396 87.67,-414 150.67,-414 150.67,-396 87.67,-396"/>
<text text-anchor="start" x="114.67" y="-402.2" font-family="Helvetica,sans-Serif" font-size="11.00">3 rows</text>
<polygon fill="#ffffff" stroke="transparent" points="150.67,-396 150.67,-414 209.67,-414 209.67,-396 150.67,-396"/>
<polygon fill="none" stroke="black" points="150.67,-396 150.67,-414 209.67,-414 209.67,-396 150.67,-396"/>
<text text-anchor="start" x="178.67" y="-402.2" font-family="Helvetica,sans-Serif" font-size="11.00">224 &gt;</text>
</a>
</g>
</g>
<!-- ad_language&#45;&gt;ad_org -->
<g id="edge3" class="edge">
<title>ad_language:w&#45;&gt;ad_org:e</title>
<path fill="none" stroke="black" d="M243.86,-695.95C204.06,-674.98 273.04,-553 210.67,-553"/>
<polygon fill="black" stroke="black" points="250.34,-697.33 257.42,-702.52 254.25,-698.17 258.17,-699 258.17,-699 258.17,-699 254.25,-698.17 258.92,-695.48 250.34,-697.33 250.34,-697.33"/>
<ellipse fill="none" stroke="black" cx="247.21" cy="-696.67" rx="3.2" ry="3.2"/>
</g>
<!-- ad_org&#45;&gt;ad_client -->
<g id="edge4" class="edge">
<title>ad_org:w&#45;&gt;ad_client:e</title>
<path fill="none" stroke="black" d="M3.38,-537.25C-4.83,-549.37 3.49,-576.07 17.67,-590 81.05,-652.32 130.56,-607.71 217.67,-590 233.28,-586.83 235.05,-579.17 250.67,-576 319.92,-561.92 355.59,-530.51 409.67,-576 475.25,-631.18 377.08,-710.82 442.67,-766 462.73,-782.88 659.87,-784.29 678.67,-766 690.45,-754.53 696.12,-729 679.67,-729"/>
<polygon fill="black" stroke="black" points="9.43,-534.41 18.2,-534.26 13.05,-532.7 16.67,-531 16.67,-531 16.67,-531 13.05,-532.7 15.13,-527.74 9.43,-534.41 9.43,-534.41"/>
<ellipse fill="none" stroke="black" cx="6.53" cy="-535.77" rx="3.2" ry="3.2"/>
</g>
<!-- ad_user -->
<g id="node4" class="node">
<title>ad_user</title>
<g id="a_node4"><a xlink:href="../../tables/ad_user.html" xlink:title="ad_user" target="_top">
<polygon fill="#ffffff" stroke="transparent" points="727.67,-37 727.67,-557 950.67,-557 950.67,-37 727.67,-37"/>
<polygon fill="#f5f5f5" stroke="transparent" points="728.17,-535 728.17,-557 951.17,-557 951.17,-535 728.17,-535"/>
<polygon fill="none" stroke="black" points="728.17,-535 728.17,-557 951.17,-557 951.17,-535 728.17,-535"/>
<text text-anchor="start" x="733.17" y="-544.2" font-family="Helvetica,sans-Serif" font-weight="bold" font-size="11.00">ad_user</text>
<text text-anchor="start" x="916.17" y="-543.2" font-family="Helvetica,sans-Serif" font-size="11.00">[table]</text>
<polygon fill="none" stroke="black" points="728.17,-513 728.17,-535 951.17,-535 951.17,-513 728.17,-513"/>
<image xlink:href="../../images/primaryKeys.png" width="11px" height="12px" preserveAspectRatio="xMinYMin meet" x="733.166" y="-530"/>
<text text-anchor="start" x="748.17" y="-521.2" font-family="Helvetica,sans-Serif" font-size="11.00">ad_user_id</text>
<polygon fill="none" stroke="black" points="728.17,-491 728.17,-513 951.17,-513 951.17,-491 728.17,-491"/>
<image xlink:href="../../images/foreignKeys.png" width="11px" height="12px" preserveAspectRatio="xMinYMin meet" x="733.166" y="-508"/>
<text text-anchor="start" x="748.17" y="-499.2" font-family="Helvetica,sans-Serif" font-size="11.00">ad_client_id</text>
<polygon fill="none" stroke="black" points="728.17,-469 728.17,-491 951.17,-491 951.17,-469 728.17,-469"/>
<image xlink:href="../../images/foreignKeys.png" width="11px" height="12px" preserveAspectRatio="xMinYMin meet" x="733.166" y="-486"/>
<text text-anchor="start" x="748.17" y="-477.2" font-family="Helvetica,sans-Serif" font-size="11.00">ad_org_id</text>
<polygon fill="#ffffff" stroke="transparent" points="728.17,-447 728.17,-469 951.17,-469 951.17,-447 728.17,-447"/>
<polygon fill="none" stroke="black" points="728.17,-447 728.17,-469 951.17,-469 951.17,-447 728.17,-447"/>
<text text-anchor="start" x="748.17" y="-455.2" font-family="Helvetica,sans-Serif" font-size="11.00">name</text>
<polygon fill="#ffffff" stroke="transparent" points="728.17,-425 728.17,-447 951.17,-447 951.17,-425 728.17,-425"/>
<polygon fill="none" stroke="black" points="728.17,-425 728.17,-447 951.17,-447 951.17,-425 728.17,-425"/>
<text text-anchor="start" x="748.17" y="-433.2" font-family="Helvetica,sans-Serif" font-size="11.00">email</text>
<polygon fill="none" stroke="black" points="728.17,-403 728.17,-425 951.17,-425 951.17,-403 728.17,-403"/>
<image xlink:href="../../images/foreignKeys.png" width="11px" height="12px" preserveAspectRatio="xMinYMin meet" x="733.166" y="-420"/>
<text text-anchor="start" x="748.17" y="-411.2" font-family="Helvetica,sans-Serif" font-size="11.00">supervisor_id</text>
<polygon fill="#ffffff" stroke="transparent" points="728.17,-381 728.17,-403 951.17,-403 951.17,-381 728.17,-381"/>
<polygon fill="none" stroke="black" points="728.17,-381 728.17,-403 951.17,-403 951.17,-381 728.17,-381"/>
<image xlink:href="../../images/foreignKeys.png" width="11px" height="12px" preserveAspectRatio="xMinYMin meet" x="733.166" y="-398"/>
<text text-anchor="start" x="748.17" y="-389.2" font-family="Helvetica,sans-Serif" font-size="11.00">c_bpartner_id</text>
<polygon fill="none" stroke="black" points="728.17,-359 728.17,-381 951.17,-381 951.17,-359 728.17,-359"/>
<image xlink:href="../../images/foreignKeys.png" width="11px" height="12px" preserveAspectRatio="xMinYMin meet" x="733.166" y="-376"/>
<text text-anchor="start" x="748.17" y="-367.2" font-family="Helvetica,sans-Serif" font-size="11.00">c_bpartner_location_id</text>
<polygon fill="none" stroke="black" points="728.17,-337 728.17,-359 951.17,-359 951.17,-337 728.17,-337"/>
<image xlink:href="../../images/foreignKeys.png" width="11px" height="12px" preserveAspectRatio="xMinYMin meet" x="733.166" y="-354"/>
<text text-anchor="start" x="748.17" y="-345.2" font-family="Helvetica,sans-Serif" font-size="11.00">c_greeting_id</text>
<polygon fill="none" stroke="black" points="728.17,-315 728.17,-337 951.17,-337 951.17,-315 728.17,-315"/>
<image xlink:href="../../images/foreignKeys.png" width="11px" height="12px" preserveAspectRatio="xMinYMin meet" x="733.166" y="-332"/>
<text text-anchor="start" x="748.17" y="-323.2" font-family="Helvetica,sans-Serif" font-size="11.00">ad_orgtrx_id</text>
<polygon fill="none" stroke="black" points="728.17,-293 728.17,-315 951.17,-315 951.17,-293 728.17,-293"/>
<image xlink:href="../../images/foreignKeys.png" width="11px" height="12px" preserveAspectRatio="xMinYMin meet" x="733.166" y="-310"/>
<text text-anchor="start" x="748.17" y="-301.2" font-family="Helvetica,sans-Serif" font-size="11.00">c_job_id</text>
<polygon fill="#ffffff" stroke="transparent" points="728.17,-271 728.17,-293 951.17,-293 951.17,-271 728.17,-271"/>
<polygon fill="none" stroke="black" points="728.17,-271 728.17,-293 951.17,-293 951.17,-271 728.17,-271"/>
<text text-anchor="start" x="748.17" y="-279.2" font-family="Helvetica,sans-Serif" font-size="11.00">ad_user_uu</text>
<polygon fill="none" stroke="black" points="728.17,-249 728.17,-271 951.17,-271 951.17,-249 728.17,-249"/>
<image xlink:href="../../images/foreignKeys.png" width="11px" height="12px" preserveAspectRatio="xMinYMin meet" x="733.166" y="-266"/>
<text text-anchor="start" x="748.17" y="-257.2" font-family="Helvetica,sans-Serif" font-size="11.00">c_location_id</text>
<polygon fill="none" stroke="black" points="728.17,-227 728.17,-249 951.17,-249 951.17,-227 728.17,-227"/>
<image xlink:href="../../images/foreignKeys.png" width="11px" height="12px" preserveAspectRatio="xMinYMin meet" x="733.166" y="-244"/>
<text text-anchor="start" x="748.17" y="-235.2" font-family="Helvetica,sans-Serif" font-size="11.00">c_campaign_id</text>
<polygon fill="none" stroke="black" points="728.17,-205 728.17,-227 951.17,-227 951.17,-205 728.17,-205"/>
<image xlink:href="../../images/foreignKeys.png" width="11px" height="12px" preserveAspectRatio="xMinYMin meet" x="733.166" y="-222"/>
<text text-anchor="start" x="748.17" y="-213.2" font-family="Helvetica,sans-Serif" font-size="11.00">salesrep_id</text>
<polygon fill="none" stroke="black" points="728.17,-183 728.17,-205 951.17,-205 951.17,-183 728.17,-183"/>
<image xlink:href="../../images/foreignKeys.png" width="11px" height="12px" preserveAspectRatio="xMinYMin meet" x="733.166" y="-200"/>
<text text-anchor="start" x="748.17" y="-191.2" font-family="Helvetica,sans-Serif" font-size="11.00">bp_location_id</text>
<polygon fill="none" stroke="black" points="728.17,-161 728.17,-183 951.17,-183 951.17,-161 728.17,-161"/>
<image xlink:href="../../images/foreignKeys.png" width="11px" height="12px" preserveAspectRatio="xMinYMin meet" x="733.166" y="-178"/>
<text text-anchor="start" x="748.17" y="-169.2" font-family="Helvetica,sans-Serif" font-size="11.00">r_defaultmailtext_id</text>
<polygon fill="none" stroke="black" points="728.17,-139 728.17,-161 951.17,-161 951.17,-139 728.17,-139"/>
<image xlink:href="../../images/foreignKeys.png" width="11px" height="12px" preserveAspectRatio="xMinYMin meet" x="733.166" y="-156"/>
<text text-anchor="start" x="748.17" y="-147.2" font-family="Helvetica,sans-Serif" font-size="11.00">cof_c_marketsegment_id</text>
<polygon fill="none" stroke="black" points="728.17,-117 728.17,-139 951.17,-139 951.17,-117 728.17,-117"/>
<image xlink:href="../../images/foreignKeys.png" width="11px" height="12px" preserveAspectRatio="xMinYMin meet" x="733.166" y="-134"/>
<text text-anchor="start" x="748.17" y="-125.2" font-family="Helvetica,sans-Serif" font-size="11.00">cof_c_leadexpirationreason_id</text>
<polygon fill="none" stroke="black" points="728.17,-95 728.17,-117 951.17,-117 951.17,-95 728.17,-95"/>
<image xlink:href="../../images/foreignKeys.png" width="11px" height="12px" preserveAspectRatio="xMinYMin meet" x="733.166" y="-112"/>
<text text-anchor="start" x="748.17" y="-103.2" font-family="Helvetica,sans-Serif" font-size="11.00">ad_image_id</text>
<polygon fill="none" stroke="black" points="728.17,-73 728.17,-95 951.17,-95 951.17,-73 728.17,-73"/>
<image xlink:href="../../images/foreignKeys.png" width="11px" height="12px" preserveAspectRatio="xMinYMin meet" x="733.166" y="-90"/>
<text text-anchor="start" x="748.17" y="-81.2" font-family="Helvetica,sans-Serif" font-size="11.00">c_subscription_id</text>
<polygon fill="none" stroke="black" points="728.17,-55 728.17,-73 951.17,-73 951.17,-55 728.17,-55"/>
<text text-anchor="start" x="731.17" y="-61.2" font-family="Helvetica,sans-Serif" font-size="11.00">...</text>
<polygon fill="#ffffff" stroke="transparent" points="728.17,-37 728.17,-55 817.17,-55 817.17,-37 728.17,-37"/>
<polygon fill="none" stroke="black" points="728.17,-37 728.17,-55 817.17,-55 817.17,-37 728.17,-37"/>
<text text-anchor="start" x="731.17" y="-43.2" font-family="Helvetica,sans-Serif" font-size="11.00">&lt; 17</text>
<polygon fill="#ffffff" stroke="transparent" points="817.17,-37 817.17,-55 886.17,-55 886.17,-37 817.17,-37"/>
<polygon fill="none" stroke="black" points="817.17,-37 817.17,-55 886.17,-55 886.17,-37 817.17,-37"/>
<text text-anchor="start" x="850.17" y="-43.2" font-family="Helvetica,sans-Serif" font-size="11.00">8 rows</text>
<polygon fill="#ffffff" stroke="transparent" points="886.17,-37 886.17,-55 951.17,-55 951.17,-37 886.17,-37"/>
<polygon fill="none" stroke="black" points="886.17,-37 886.17,-55 951.17,-55 951.17,-37 886.17,-37"/>
<text text-anchor="start" x="920.17" y="-43.2" font-family="Helvetica,sans-Serif" font-size="11.00">316 &gt;</text>
</a>
</g>
</g>
<!-- ad_user&#45;&gt;ad_client -->
<g id="edge5" class="edge">
<title>ad_user:w&#45;&gt;ad_client:e</title>
<path fill="none" stroke="black" d="M712.52,-503.96C640.66,-526.15 777.1,-729 679.67,-729"/>
<polygon fill="black" stroke="black" points="719.24,-503.06 727.64,-505.57 723.2,-502.53 727.17,-502 727.17,-502 727.17,-502 723.2,-502.53 726.69,-498.43 719.24,-503.06 719.24,-503.06"/>
<ellipse fill="none" stroke="black" cx="716.06" cy="-503.49" rx="3.2" ry="3.2"/>
</g>
<!-- ad_user&#45;&gt;ad_org -->
<g id="edge6" class="edge">
<title>ad_user:w&#45;&gt;ad_org:e</title>
<path fill="none" stroke="black" d="M712.75,-479.96C511.4,-478.97 446.87,-458.18 250.67,-527 230.66,-534.02 231.87,-553 210.67,-553"/>
<polygon fill="black" stroke="black" points="719.17,-479.98 727.16,-483.6 723.17,-479.99 727.17,-480 727.17,-480 727.17,-480 723.17,-479.99 727.17,-476.4 719.17,-479.98 719.17,-479.98"/>
<ellipse fill="none" stroke="black" cx="715.97" cy="-479.97" rx="3.2" ry="3.2"/>
</g>
<!-- ad_user&#45;&gt;ad_org -->
<g id="edge7" class="edge">
<title>ad_user:w&#45;&gt;ad_org:e</title>
<path fill="none" stroke="black" d="M712.69,-326.02C500.82,-326.65 418.77,-342.51 250.67,-481 222.41,-504.28 247.27,-553 210.67,-553"/>
<polygon fill="black" stroke="black" points="719.17,-326.01 727.17,-329.6 723.17,-326.01 727.17,-326 727.17,-326 727.17,-326 723.17,-326.01 727.16,-322.4 719.17,-326.01 719.17,-326.01"/>
<ellipse fill="none" stroke="black" cx="715.97" cy="-326.02" rx="3.2" ry="3.2"/>
</g>
<!-- c_region -->
<g id="node5" class="node">
<title>c_region</title>
<g id="a_node5"><a xlink:href="../../tables/c_region.html" xlink:title="c_region" target="_top">
<polygon fill="#ffffff" stroke="transparent" points="778.67,-578 778.67,-768 899.67,-768 899.67,-578 778.67,-578"/>
<polygon fill="#f5f5f5" stroke="transparent" points="779.17,-746 779.17,-768 900.17,-768 900.17,-746 779.17,-746"/>
<polygon fill="none" stroke="black" points="779.17,-746 779.17,-768 900.17,-768 900.17,-746 779.17,-746"/>
<text text-anchor="start" x="784.17" y="-755.2" font-family="Helvetica,sans-Serif" font-weight="bold" font-size="11.00">c_region</text>
<text text-anchor="start" x="865.17" y="-754.2" font-family="Helvetica,sans-Serif" font-size="11.00">[table]</text>
<polygon fill="none" stroke="black" points="779.17,-724 779.17,-746 900.17,-746 900.17,-724 779.17,-724"/>
<image xlink:href="../../images/primaryKeys.png" width="11px" height="12px" preserveAspectRatio="xMinYMin meet" x="784.166" y="-741"/>
<text text-anchor="start" x="799.17" y="-732.2" font-family="Helvetica,sans-Serif" font-size="11.00">c_region_id</text>
<polygon fill="none" stroke="black" points="779.17,-702 779.17,-724 900.17,-724 900.17,-702 779.17,-702"/>
<image xlink:href="../../images/foreignKeys.png" width="11px" height="12px" preserveAspectRatio="xMinYMin meet" x="784.166" y="-719"/>
<text text-anchor="start" x="799.17" y="-710.2" font-family="Helvetica,sans-Serif" font-size="11.00">ad_client_id</text>
<polygon fill="none" stroke="black" points="779.17,-680 779.17,-702 900.17,-702 900.17,-680 779.17,-680"/>
<image xlink:href="../../images/foreignKeys.png" width="11px" height="12px" preserveAspectRatio="xMinYMin meet" x="784.166" y="-697"/>
<text text-anchor="start" x="799.17" y="-688.2" font-family="Helvetica,sans-Serif" font-size="11.00">ad_org_id</text>
<polygon fill="#ffffff" stroke="transparent" points="779.17,-658 779.17,-680 900.17,-680 900.17,-658 779.17,-658"/>
<polygon fill="none" stroke="black" points="779.17,-658 779.17,-680 900.17,-680 900.17,-658 779.17,-658"/>
<text text-anchor="start" x="799.17" y="-666.2" font-family="Helvetica,sans-Serif" font-size="11.00">name</text>
<polygon fill="#ffffff" stroke="transparent" points="779.17,-636 779.17,-658 900.17,-658 900.17,-636 779.17,-636"/>
<polygon fill="none" stroke="black" points="779.17,-636 779.17,-658 900.17,-658 900.17,-636 779.17,-636"/>
<image xlink:href="../../images/foreignKeys.png" width="11px" height="12px" preserveAspectRatio="xMinYMin meet" x="784.166" y="-653"/>
<text text-anchor="start" x="799.17" y="-644.2" font-family="Helvetica,sans-Serif" font-size="11.00">c_country_id</text>
<polygon fill="#ffffff" stroke="transparent" points="779.17,-614 779.17,-636 900.17,-636 900.17,-614 779.17,-614"/>
<polygon fill="none" stroke="black" points="779.17,-614 779.17,-636 900.17,-636 900.17,-614 779.17,-614"/>
<text text-anchor="start" x="799.17" y="-622.2" font-family="Helvetica,sans-Serif" font-size="11.00">c_region_uu</text>
<polygon fill="none" stroke="black" points="779.17,-596 779.17,-614 900.17,-614 900.17,-596 779.17,-596"/>
<text text-anchor="start" x="782.17" y="-602.2" font-family="Helvetica,sans-Serif" font-size="11.00">...</text>
<polygon fill="#ffffff" stroke="transparent" points="779.17,-578 779.17,-596 811.17,-596 811.17,-578 779.17,-578"/>
<polygon fill="none" stroke="black" points="779.17,-578 779.17,-596 811.17,-596 811.17,-578 779.17,-578"/>
<text text-anchor="start" x="782.17" y="-584.2" font-family="Helvetica,sans-Serif" font-size="11.00">&lt; 3</text>
<polygon fill="#ffffff" stroke="transparent" points="811.17,-578 811.17,-596 867.17,-596 867.17,-578 811.17,-578"/>
<polygon fill="none" stroke="black" points="811.17,-578 811.17,-596 867.17,-596 867.17,-578 811.17,-578"/>
<text text-anchor="start" x="819.17" y="-584.2" font-family="Helvetica,sans-Serif" font-size="11.00">399 rows</text>
<polygon fill="#ffffff" stroke="transparent" points="867.17,-578 867.17,-596 900.17,-596 900.17,-578 867.17,-578"/>
<polygon fill="none" stroke="black" points="867.17,-578 867.17,-596 900.17,-596 900.17,-578 867.17,-578"/>
<text text-anchor="start" x="875.17" y="-584.2" font-family="Helvetica,sans-Serif" font-size="11.00">24 &gt;</text>
</a>
</g>
</g>
<!-- c_region&#45;&gt;ad_client -->
<g id="edge8" class="edge">
<title>c_region:w&#45;&gt;ad_client:e</title>
<path fill="none" stroke="black" d="M763.45,-713.65C730.93,-716.64 718.65,-729 679.67,-729"/>
<polygon fill="black" stroke="black" points="770.17,-713.35 778.32,-716.6 774.17,-713.18 778.17,-713 778.17,-713 778.17,-713 774.17,-713.18 778.01,-709.4 770.17,-713.35 770.17,-713.35"/>
<ellipse fill="none" stroke="black" cx="766.98" cy="-713.49" rx="3.2" ry="3.2"/>
</g>
<!-- c_region&#45;&gt;ad_org -->
<g id="edge9" class="edge">
<title>c_region:w&#45;&gt;ad_org:e</title>
<path fill="none" stroke="black" d="M763.51,-689.4C706.87,-675.55 750.23,-575.81 686.67,-540 602.23,-492.44 347.32,-541.91 250.67,-549 232.85,-550.31 228.53,-553 210.67,-553"/>
<polygon fill="black" stroke="black" points="770.21,-690.13 777.77,-694.58 774.19,-690.56 778.17,-691 778.17,-691 778.17,-691 774.19,-690.56 778.56,-687.42 770.21,-690.13 770.21,-690.13"/>
<ellipse fill="none" stroke="black" cx="767.03" cy="-689.78" rx="3.2" ry="3.2"/>
</g>
<!-- c_region_trl -->
<g id="node6" class="node">
<title>c_region_trl</title>
<g id="a_node6"><a xlink:href="../../tables/c_region_trl.html" xlink:title="c_region_trl" target="_top">
<polygon fill="#ffffff" stroke="transparent" points="999.67,-556 999.67,-864 1208.67,-864 1208.67,-556 999.67,-556"/>
<polygon fill="#f5f5f5" stroke="transparent" points="1002.17,-840 1002.17,-862 1207.17,-862 1207.17,-840 1002.17,-840"/>
<polygon fill="none" stroke="black" points="1002.17,-840 1002.17,-862 1207.17,-862 1207.17,-840 1002.17,-840"/>
<text text-anchor="start" x="1007.17" y="-849.2" font-family="Helvetica,sans-Serif" font-weight="bold" font-size="11.00">c_region_trl</text>
<text text-anchor="start" x="1172.17" y="-848.2" font-family="Helvetica,sans-Serif" font-size="11.00">[table]</text>
<polygon fill="none" stroke="black" points="1002.17,-818 1002.17,-840 1124.17,-840 1124.17,-818 1002.17,-818"/>
<image xlink:href="../../images/foreignKeys.png" width="11px" height="12px" preserveAspectRatio="xMinYMin meet" x="1007.17" y="-835"/>
<text text-anchor="start" x="1022.17" y="-826.2" font-family="Helvetica,sans-Serif" font-size="11.00">ad_client_id</text>
<polygon fill="none" stroke="black" points="1124.17,-818 1124.17,-840 1207.17,-840 1207.17,-818 1124.17,-818"/>
<text text-anchor="start" x="1127.17" y="-826.2" font-family="Helvetica,sans-Serif" font-size="11.00">numeric[10]</text>
<polygon fill="none" stroke="black" points="1002.17,-796 1002.17,-818 1124.17,-818 1124.17,-796 1002.17,-796"/>
<image xlink:href="../../images/primaryKeys.png" width="11px" height="12px" preserveAspectRatio="xMinYMin meet" x="1007.17" y="-813"/>
<text text-anchor="start" x="1022.17" y="-804.2" font-family="Helvetica,sans-Serif" font-size="11.00">ad_language</text>
<polygon fill="none" stroke="black" points="1124.17,-796 1124.17,-818 1207.17,-818 1207.17,-796 1124.17,-796"/>
<text text-anchor="start" x="1127.17" y="-804.2" font-family="Helvetica,sans-Serif" font-size="11.00">varchar[6]</text>
<polygon fill="none" stroke="black" points="1002.17,-774 1002.17,-796 1124.17,-796 1124.17,-774 1002.17,-774"/>
<image xlink:href="../../images/foreignKeys.png" width="11px" height="12px" preserveAspectRatio="xMinYMin meet" x="1007.17" y="-791"/>
<text text-anchor="start" x="1022.17" y="-782.2" font-family="Helvetica,sans-Serif" font-size="11.00">ad_org_id</text>
<polygon fill="none" stroke="black" points="1124.17,-774 1124.17,-796 1207.17,-796 1207.17,-774 1124.17,-774"/>
<text text-anchor="start" x="1127.17" y="-782.2" font-family="Helvetica,sans-Serif" font-size="11.00">numeric[10]</text>
<polygon fill="none" stroke="black" points="1002.17,-752 1002.17,-774 1124.17,-774 1124.17,-752 1002.17,-752"/>
<text text-anchor="start" x="1022.17" y="-760.2" font-family="Helvetica,sans-Serif" font-size="11.00">created</text>
<polygon fill="none" stroke="black" points="1124.17,-752 1124.17,-774 1207.17,-774 1207.17,-752 1124.17,-752"/>
<text text-anchor="start" x="1127.17" y="-760.2" font-family="Helvetica,sans-Serif" font-size="11.00">timestamp[29,6]</text>
<polygon fill="none" stroke="black" points="1002.17,-730 1002.17,-752 1124.17,-752 1124.17,-730 1002.17,-730"/>
<image xlink:href="../../images/foreignKeys.png" width="11px" height="12px" preserveAspectRatio="xMinYMin meet" x="1007.17" y="-747"/>
<text text-anchor="start" x="1022.17" y="-738.2" font-family="Helvetica,sans-Serif" font-size="11.00">createdby</text>
<polygon fill="none" stroke="black" points="1124.17,-730 1124.17,-752 1207.17,-752 1207.17,-730 1124.17,-730"/>
<text text-anchor="start" x="1127.17" y="-738.2" font-family="Helvetica,sans-Serif" font-size="11.00">numeric[10]</text>
<polygon fill="none" stroke="black" points="1002.17,-708 1002.17,-730 1124.17,-730 1124.17,-708 1002.17,-708"/>
<image xlink:href="../../images/primaryKeys.png" width="11px" height="12px" preserveAspectRatio="xMinYMin meet" x="1007.17" y="-725"/>
<text text-anchor="start" x="1022.17" y="-716.2" font-family="Helvetica,sans-Serif" font-size="11.00">c_region_id</text>
<polygon fill="none" stroke="black" points="1124.17,-708 1124.17,-730 1207.17,-730 1207.17,-708 1124.17,-708"/>
<text text-anchor="start" x="1127.17" y="-716.2" font-family="Helvetica,sans-Serif" font-size="11.00">numeric[10]</text>
<polygon fill="#ffffff" stroke="transparent" points="1002.17,-686 1002.17,-708 1124.17,-708 1124.17,-686 1002.17,-686"/>
<polygon fill="none" stroke="black" points="1002.17,-686 1002.17,-708 1124.17,-708 1124.17,-686 1002.17,-686"/>
<text text-anchor="start" x="1022.17" y="-694.2" font-family="Helvetica,sans-Serif" font-size="11.00">c_region_trl_uu</text>
<polygon fill="none" stroke="black" points="1124.17,-686 1124.17,-708 1207.17,-708 1207.17,-686 1124.17,-686"/>
<text text-anchor="start" x="1127.17" y="-694.2" font-family="Helvetica,sans-Serif" font-size="11.00">varchar[36]</text>
<polygon fill="none" stroke="black" points="1002.17,-664 1002.17,-686 1124.17,-686 1124.17,-664 1002.17,-664"/>
<text text-anchor="start" x="1022.17" y="-672.2" font-family="Helvetica,sans-Serif" font-size="11.00">isactive</text>
<polygon fill="none" stroke="black" points="1124.17,-664 1124.17,-686 1207.17,-686 1207.17,-664 1124.17,-664"/>
<text text-anchor="start" x="1127.17" y="-672.2" font-family="Helvetica,sans-Serif" font-size="11.00">bpchar[1]</text>
<polygon fill="none" stroke="black" points="1002.17,-642 1002.17,-664 1124.17,-664 1124.17,-642 1002.17,-642"/>
<text text-anchor="start" x="1022.17" y="-650.2" font-family="Helvetica,sans-Serif" font-size="11.00">istranslated</text>
<polygon fill="none" stroke="black" points="1124.17,-642 1124.17,-664 1207.17,-664 1207.17,-642 1124.17,-642"/>
<text text-anchor="start" x="1127.17" y="-650.2" font-family="Helvetica,sans-Serif" font-size="11.00">bpchar[1]</text>
<polygon fill="none" stroke="black" points="1002.17,-620 1002.17,-642 1124.17,-642 1124.17,-620 1002.17,-620"/>
<text text-anchor="start" x="1022.17" y="-628.2" font-family="Helvetica,sans-Serif" font-size="11.00">name</text>
<polygon fill="none" stroke="black" points="1124.17,-620 1124.17,-642 1207.17,-642 1207.17,-620 1124.17,-620"/>
<text text-anchor="start" x="1127.17" y="-628.2" font-family="Helvetica,sans-Serif" font-size="11.00">varchar[60]</text>
<polygon fill="none" stroke="black" points="1002.17,-598 1002.17,-620 1124.17,-620 1124.17,-598 1002.17,-598"/>
<text text-anchor="start" x="1022.17" y="-606.2" font-family="Helvetica,sans-Serif" font-size="11.00">updated</text>
<polygon fill="none" stroke="black" points="1124.17,-598 1124.17,-620 1207.17,-620 1207.17,-598 1124.17,-598"/>
<text text-anchor="start" x="1127.17" y="-606.2" font-family="Helvetica,sans-Serif" font-size="11.00">timestamp[29,6]</text>
<polygon fill="none" stroke="black" points="1002.17,-576 1002.17,-598 1124.17,-598 1124.17,-576 1002.17,-576"/>
<image xlink:href="../../images/foreignKeys.png" width="11px" height="12px" preserveAspectRatio="xMinYMin meet" x="1007.17" y="-593"/>
<text text-anchor="start" x="1022.17" y="-584.2" font-family="Helvetica,sans-Serif" font-size="11.00">updatedby</text>
<polygon fill="none" stroke="black" points="1124.17,-576 1124.17,-598 1207.17,-598 1207.17,-576 1124.17,-576"/>
<text text-anchor="start" x="1127.17" y="-584.2" font-family="Helvetica,sans-Serif" font-size="11.00">numeric[10]</text>
<polygon fill="#ffffff" stroke="transparent" points="1002.17,-558 1002.17,-576 1048.17,-576 1048.17,-558 1002.17,-558"/>
<polygon fill="none" stroke="black" points="1002.17,-558 1002.17,-576 1048.17,-576 1048.17,-558 1002.17,-558"/>
<text text-anchor="start" x="1005.17" y="-564.2" font-family="Helvetica,sans-Serif" font-size="11.00">&lt; 6</text>
<polygon fill="#ffffff" stroke="transparent" points="1048.17,-558 1048.17,-576 1124.17,-576 1124.17,-558 1048.17,-558"/>
<polygon fill="none" stroke="black" points="1048.17,-558 1048.17,-576 1124.17,-576 1124.17,-558 1048.17,-558"/>
<text text-anchor="start" x="1076.17" y="-564.2" font-family="Helvetica,sans-Serif" font-size="11.00">756 rows</text>
<polygon fill="#ffffff" stroke="transparent" points="1124.17,-558 1124.17,-576 1207.17,-576 1207.17,-558 1124.17,-558"/>
<polygon fill="none" stroke="black" points="1124.17,-558 1124.17,-576 1207.17,-576 1207.17,-558 1124.17,-558"/>
<text text-anchor="start" x="1188.17" y="-564.2" font-family="Helvetica,sans-Serif" font-size="11.00">0 &gt;</text>
<polygon fill="none" stroke="black" stroke-width="2" points="1000.67,-557 1000.67,-863 1207.67,-863 1207.67,-557 1000.67,-557"/>
</a>
</g>
</g>
<!-- c_region_trl&#45;&gt;ad_client -->
<g id="edge10" class="edge">
<title>c_region_trl:w&#45;&gt;ad_client:e</title>
<path fill="none" stroke="black" d="M986.64,-829.06C870.47,-830.04 824.65,-841.35 719.67,-779 695.2,-764.47 708.12,-729 679.67,-729"/>
<polygon fill="black" stroke="black" points="993.17,-829.03 1001.18,-832.6 997.17,-829.02 1001.17,-829 1001.17,-829 1001.17,-829 997.17,-829.02 1001.15,-825.4 993.17,-829.03 993.17,-829.03"/>
<ellipse fill="none" stroke="black" cx="989.97" cy="-829.05" rx="3.2" ry="3.2"/>
</g>
<!-- c_region_trl&#45;&gt;ad_language -->
<g id="edge11" class="edge">
<title>c_region_trl:w&#45;&gt;ad_language:e</title>
<path fill="none" stroke="black" d="M986.54,-807.04C853.53,-807.61 554.92,-814.64 442.67,-773 422,-765.33 425.21,-743 403.17,-743"/>
<polygon fill="black" stroke="black" points="993.17,-807.02 1001.17,-810.6 997.17,-807.01 1001.17,-807 1001.17,-807 1001.17,-807 997.17,-807.01 1001.16,-803.4 993.17,-807.02 993.17,-807.02"/>
<ellipse fill="none" stroke="black" cx="989.97" cy="-807.03" rx="3.2" ry="3.2"/>
</g>
<!-- c_region_trl&#45;&gt;ad_org -->
<g id="edge12" class="edge">
<title>c_region_trl:w&#45;&gt;ad_org:e</title>
<path fill="none" stroke="black" d="M987.16,-788.54C977.94,-793.99 973.63,-804.21 958.67,-808 736.31,-864.31 671.79,-808.7 442.67,-798 357.29,-794.01 314.39,-843.96 250.67,-787 211.33,-751.84 263.42,-553 210.67,-553"/>
<polygon fill="black" stroke="black" points="993.41,-786.96 1002.05,-788.49 997.29,-785.98 1001.17,-785 1001.17,-785 1001.17,-785 997.29,-785.98 1000.28,-781.51 993.41,-786.96 993.41,-786.96"/>
<ellipse fill="none" stroke="black" cx="990.31" cy="-787.74" rx="3.2" ry="3.2"/>
</g>
<!-- c_region_trl&#45;&gt;ad_user -->
<g id="edge14" class="edge">
<title>c_region_trl:w&#45;&gt;ad_user:e</title>
<path fill="none" stroke="black" d="M986.66,-738.99C918.35,-717.11 1045.44,-524 952.17,-524"/>
<polygon fill="black" stroke="black" points="993.24,-739.9 1000.67,-744.57 997.2,-740.45 1001.17,-741 1001.17,-741 1001.17,-741 997.2,-740.45 1001.66,-737.43 993.24,-739.9 993.24,-739.9"/>
<ellipse fill="none" stroke="black" cx="990.07" cy="-739.46" rx="3.2" ry="3.2"/>
</g>
<!-- c_region_trl&#45;&gt;ad_user -->
<g id="edge15" class="edge">
<title>c_region_trl:w&#45;&gt;ad_user:e</title>
<path fill="none" stroke="black" d="M987.38,-582.06C971.54,-567.2 981.54,-524 952.17,-524"/>
<polygon fill="black" stroke="black" points="993.64,-584.3 999.95,-590.39 997.4,-585.65 1001.17,-587 1001.17,-587 1001.17,-587 997.4,-585.65 1002.38,-583.61 993.64,-584.3 993.64,-584.3"/>
<ellipse fill="none" stroke="black" cx="990.62" cy="-583.22" rx="3.2" ry="3.2"/>
</g>
<!-- c_region_trl&#45;&gt;c_region -->
<g id="edge13" class="edge">
<title>c_region_trl:w&#45;&gt;c_region:e</title>
<path fill="none" stroke="black" d="M986.67,-719.61C953.34,-722.53 940.9,-735 901.17,-735"/>
<polygon fill="black" stroke="black" points="993.17,-719.34 1001.32,-722.6 997.17,-719.17 1001.17,-719 1001.17,-719 1001.17,-719 997.17,-719.17 1001.01,-715.4 993.17,-719.34 993.17,-719.34"/>
<ellipse fill="none" stroke="black" cx="989.98" cy="-719.47" rx="3.2" ry="3.2"/>
</g>
</g>
</svg>
