<?xml version="1.0" encoding="UTF-8" standalone="no"?>
<!DOCTYPE svg PUBLIC "-//W3C//DTD SVG 1.1//EN"
 "http://www.w3.org/Graphics/SVG/1.1/DTD/svg11.dtd">
<!-- Generated by graphviz version 2.43.0 (0)
 -->
<!-- Title: oneDegreeRelationshipsDiagram Pages: 1 -->
<svg width="524pt" height="450pt"
 viewBox="0.00 0.00 524.00 450.00" xmlns="http://www.w3.org/2000/svg" xmlns:xlink="http://www.w3.org/1999/xlink">
<g id="graph0" class="graph" transform="scale(1 1) rotate(0) translate(4 446)">
<title>oneDegreeRelationshipsDiagram</title>
<polygon fill="#ffffff" stroke="transparent" points="-4,4 -4,-446 520,-446 520,4 -4,4"/>
<text text-anchor="middle" x="71.5" y="-7.2" font-family="Helvetica,sans-Serif" font-size="11.00">Generated by SchemaSpy</text>
<!-- cm_accesslistbpgroup -->
<g id="node1" class="node">
<title>cm_accesslistbpgroup</title>
<g id="a_node1"><a xlink:href="../../tables/cm_accesslistbpgroup.html" xlink:title="cm_accesslistbpgroup" target="_top">
<polygon fill="#ffffff" stroke="transparent" points="229,-125 229,-389 508,-389 508,-125 229,-125"/>
<polygon fill="#f5f5f5" stroke="transparent" points="231.5,-365 231.5,-387 506.5,-387 506.5,-365 231.5,-365"/>
<polygon fill="none" stroke="black" points="231.5,-365 231.5,-387 506.5,-387 506.5,-365 231.5,-365"/>
<text text-anchor="start" x="236.5" y="-374.2" font-family="Helvetica,sans-Serif" font-weight="bold" font-size="11.00">cm_accesslistbpgroup</text>
<text text-anchor="start" x="471.5" y="-373.2" font-family="Helvetica,sans-Serif" font-size="11.00">[table]</text>
<polygon fill="none" stroke="black" points="231.5,-343 231.5,-365 423.5,-365 423.5,-343 231.5,-343"/>
<image xlink:href="../../images/primaryKeys.png" width="11px" height="12px" preserveAspectRatio="xMinYMin meet" x="236.5" y="-360"/>
<text text-anchor="start" x="251.5" y="-351.2" font-family="Helvetica,sans-Serif" font-size="11.00">cm_accessprofile_id</text>
<polygon fill="none" stroke="black" points="423.5,-343 423.5,-365 506.5,-365 506.5,-343 423.5,-343"/>
<text text-anchor="start" x="426.5" y="-351.2" font-family="Helvetica,sans-Serif" font-size="11.00">numeric[10]</text>
<polygon fill="none" stroke="black" points="231.5,-321 231.5,-343 423.5,-343 423.5,-321 231.5,-321"/>
<image xlink:href="../../images/primaryKeys.png" width="11px" height="12px" preserveAspectRatio="xMinYMin meet" x="236.5" y="-338"/>
<text text-anchor="start" x="251.5" y="-329.2" font-family="Helvetica,sans-Serif" font-size="11.00">c_bp_group_id</text>
<polygon fill="none" stroke="black" points="423.5,-321 423.5,-343 506.5,-343 506.5,-321 423.5,-321"/>
<text text-anchor="start" x="426.5" y="-329.2" font-family="Helvetica,sans-Serif" font-size="11.00">numeric[10]</text>
<polygon fill="none" stroke="black" points="231.5,-299 231.5,-321 423.5,-321 423.5,-299 231.5,-299"/>
<text text-anchor="start" x="251.5" y="-307.2" font-family="Helvetica,sans-Serif" font-size="11.00">ad_client_id</text>
<polygon fill="none" stroke="black" points="423.5,-299 423.5,-321 506.5,-321 506.5,-299 423.5,-299"/>
<text text-anchor="start" x="426.5" y="-307.2" font-family="Helvetica,sans-Serif" font-size="11.00">numeric[10]</text>
<polygon fill="none" stroke="black" points="231.5,-277 231.5,-299 423.5,-299 423.5,-277 231.5,-277"/>
<text text-anchor="start" x="251.5" y="-285.2" font-family="Helvetica,sans-Serif" font-size="11.00">ad_org_id</text>
<polygon fill="none" stroke="black" points="423.5,-277 423.5,-299 506.5,-299 506.5,-277 423.5,-277"/>
<text text-anchor="start" x="426.5" y="-285.2" font-family="Helvetica,sans-Serif" font-size="11.00">numeric[10]</text>
<polygon fill="none" stroke="black" points="231.5,-255 231.5,-277 423.5,-277 423.5,-255 231.5,-255"/>
<text text-anchor="start" x="251.5" y="-263.2" font-family="Helvetica,sans-Serif" font-size="11.00">isactive</text>
<polygon fill="none" stroke="black" points="423.5,-255 423.5,-277 506.5,-277 506.5,-255 423.5,-255"/>
<text text-anchor="start" x="426.5" y="-263.2" font-family="Helvetica,sans-Serif" font-size="11.00">bpchar[1]</text>
<polygon fill="none" stroke="black" points="231.5,-233 231.5,-255 423.5,-255 423.5,-233 231.5,-233"/>
<text text-anchor="start" x="251.5" y="-241.2" font-family="Helvetica,sans-Serif" font-size="11.00">created</text>
<polygon fill="none" stroke="black" points="423.5,-233 423.5,-255 506.5,-255 506.5,-233 423.5,-233"/>
<text text-anchor="start" x="426.5" y="-241.2" font-family="Helvetica,sans-Serif" font-size="11.00">timestamp[29,6]</text>
<polygon fill="none" stroke="black" points="231.5,-211 231.5,-233 423.5,-233 423.5,-211 231.5,-211"/>
<text text-anchor="start" x="251.5" y="-219.2" font-family="Helvetica,sans-Serif" font-size="11.00">createdby</text>
<polygon fill="none" stroke="black" points="423.5,-211 423.5,-233 506.5,-233 506.5,-211 423.5,-211"/>
<text text-anchor="start" x="426.5" y="-219.2" font-family="Helvetica,sans-Serif" font-size="11.00">numeric[10]</text>
<polygon fill="none" stroke="black" points="231.5,-189 231.5,-211 423.5,-211 423.5,-189 231.5,-189"/>
<text text-anchor="start" x="251.5" y="-197.2" font-family="Helvetica,sans-Serif" font-size="11.00">updated</text>
<polygon fill="none" stroke="black" points="423.5,-189 423.5,-211 506.5,-211 506.5,-189 423.5,-189"/>
<text text-anchor="start" x="426.5" y="-197.2" font-family="Helvetica,sans-Serif" font-size="11.00">timestamp[29,6]</text>
<polygon fill="none" stroke="black" points="231.5,-167 231.5,-189 423.5,-189 423.5,-167 231.5,-167"/>
<text text-anchor="start" x="251.5" y="-175.2" font-family="Helvetica,sans-Serif" font-size="11.00">updatedby</text>
<polygon fill="none" stroke="black" points="423.5,-167 423.5,-189 506.5,-189 506.5,-167 423.5,-167"/>
<text text-anchor="start" x="426.5" y="-175.2" font-family="Helvetica,sans-Serif" font-size="11.00">numeric[10]</text>
<polygon fill="#ffffff" stroke="transparent" points="231.5,-145 231.5,-167 423.5,-167 423.5,-145 231.5,-145"/>
<polygon fill="none" stroke="black" points="231.5,-145 231.5,-167 423.5,-167 423.5,-145 231.5,-145"/>
<text text-anchor="start" x="251.5" y="-153.2" font-family="Helvetica,sans-Serif" font-size="11.00">cm_accesslistbpgroup_uu</text>
<polygon fill="none" stroke="black" points="423.5,-145 423.5,-167 506.5,-167 506.5,-145 423.5,-145"/>
<text text-anchor="start" x="426.5" y="-153.2" font-family="Helvetica,sans-Serif" font-size="11.00">varchar[36]</text>
<polygon fill="#ffffff" stroke="transparent" points="231.5,-127 231.5,-145 318.5,-145 318.5,-127 231.5,-127"/>
<polygon fill="none" stroke="black" points="231.5,-127 231.5,-145 318.5,-145 318.5,-127 231.5,-127"/>
<text text-anchor="start" x="234.5" y="-133.2" font-family="Helvetica,sans-Serif" font-size="11.00">&lt; 2</text>
<polygon fill="#ffffff" stroke="transparent" points="318.5,-127 318.5,-145 423.5,-145 423.5,-127 318.5,-127"/>
<polygon fill="none" stroke="black" points="318.5,-127 318.5,-145 423.5,-145 423.5,-127 318.5,-127"/>
<text text-anchor="start" x="387.5" y="-133.2" font-family="Helvetica,sans-Serif" font-size="11.00">0 rows</text>
<polygon fill="#ffffff" stroke="transparent" points="423.5,-127 423.5,-145 506.5,-145 506.5,-127 423.5,-127"/>
<polygon fill="none" stroke="black" points="423.5,-127 423.5,-145 506.5,-145 506.5,-127 423.5,-127"/>
<text text-anchor="start" x="487.5" y="-133.2" font-family="Helvetica,sans-Serif" font-size="11.00">0 &gt;</text>
<polygon fill="none" stroke="black" stroke-width="2" points="230,-126 230,-388 507,-388 507,-126 230,-126"/>
</a>
</g>
</g>
<!-- c_bp_group -->
<g id="node2" class="node">
<title>c_bp_group</title>
<g id="a_node2"><a xlink:href="../../tables/c_bp_group.html" xlink:title="c_bp_group" target="_top">
<polygon fill="#ffffff" stroke="transparent" points="8,-37 8,-315 180,-315 180,-37 8,-37"/>
<polygon fill="#f5f5f5" stroke="transparent" points="8,-293 8,-315 180,-315 180,-293 8,-293"/>
<polygon fill="none" stroke="black" points="8,-293 8,-315 180,-315 180,-293 8,-293"/>
<text text-anchor="start" x="13" y="-302.2" font-family="Helvetica,sans-Serif" font-weight="bold" font-size="11.00">c_bp_group</text>
<text text-anchor="start" x="145" y="-301.2" font-family="Helvetica,sans-Serif" font-size="11.00">[table]</text>
<polygon fill="none" stroke="black" points="8,-271 8,-293 180,-293 180,-271 8,-271"/>
<image xlink:href="../../images/primaryKeys.png" width="11px" height="12px" preserveAspectRatio="xMinYMin meet" x="13" y="-288"/>
<text text-anchor="start" x="28" y="-279.2" font-family="Helvetica,sans-Serif" font-size="11.00">c_bp_group_id</text>
<polygon fill="#ffffff" stroke="transparent" points="8,-249 8,-271 180,-271 180,-249 8,-249"/>
<polygon fill="none" stroke="black" points="8,-249 8,-271 180,-271 180,-249 8,-249"/>
<text text-anchor="start" x="28" y="-257.2" font-family="Helvetica,sans-Serif" font-size="11.00">ad_client_id</text>
<polygon fill="#ffffff" stroke="transparent" points="8,-227 8,-249 180,-249 180,-227 8,-227"/>
<polygon fill="none" stroke="black" points="8,-227 8,-249 180,-249 180,-227 8,-227"/>
<text text-anchor="start" x="28" y="-235.2" font-family="Helvetica,sans-Serif" font-size="11.00">value</text>
<polygon fill="none" stroke="black" points="8,-205 8,-227 180,-227 180,-205 8,-205"/>
<image xlink:href="../../images/foreignKeys.png" width="11px" height="12px" preserveAspectRatio="xMinYMin meet" x="13" y="-222"/>
<text text-anchor="start" x="28" y="-213.2" font-family="Helvetica,sans-Serif" font-size="11.00">ad_printcolor_id</text>
<polygon fill="none" stroke="black" points="8,-183 8,-205 180,-205 180,-183 8,-183"/>
<image xlink:href="../../images/foreignKeys.png" width="11px" height="12px" preserveAspectRatio="xMinYMin meet" x="13" y="-200"/>
<text text-anchor="start" x="28" y="-191.2" font-family="Helvetica,sans-Serif" font-size="11.00">m_pricelist_id</text>
<polygon fill="none" stroke="black" points="8,-161 8,-183 180,-183 180,-161 8,-161"/>
<image xlink:href="../../images/foreignKeys.png" width="11px" height="12px" preserveAspectRatio="xMinYMin meet" x="13" y="-178"/>
<text text-anchor="start" x="28" y="-169.2" font-family="Helvetica,sans-Serif" font-size="11.00">po_pricelist_id</text>
<polygon fill="none" stroke="black" points="8,-139 8,-161 180,-161 180,-139 8,-139"/>
<image xlink:href="../../images/foreignKeys.png" width="11px" height="12px" preserveAspectRatio="xMinYMin meet" x="13" y="-156"/>
<text text-anchor="start" x="28" y="-147.2" font-family="Helvetica,sans-Serif" font-size="11.00">m_discountschema_id</text>
<polygon fill="none" stroke="black" points="8,-117 8,-139 180,-139 180,-117 8,-117"/>
<image xlink:href="../../images/foreignKeys.png" width="11px" height="12px" preserveAspectRatio="xMinYMin meet" x="13" y="-134"/>
<text text-anchor="start" x="28" y="-125.2" font-family="Helvetica,sans-Serif" font-size="11.00">po_discountschema_id</text>
<polygon fill="none" stroke="black" points="8,-95 8,-117 180,-117 180,-95 8,-95"/>
<image xlink:href="../../images/foreignKeys.png" width="11px" height="12px" preserveAspectRatio="xMinYMin meet" x="13" y="-112"/>
<text text-anchor="start" x="28" y="-103.2" font-family="Helvetica,sans-Serif" font-size="11.00">c_dunning_id</text>
<polygon fill="#ffffff" stroke="transparent" points="8,-73 8,-95 180,-95 180,-73 8,-73"/>
<polygon fill="none" stroke="black" points="8,-73 8,-95 180,-95 180,-73 8,-73"/>
<text text-anchor="start" x="28" y="-81.2" font-family="Helvetica,sans-Serif" font-size="11.00">c_bp_group_uu</text>
<polygon fill="none" stroke="black" points="8,-55 8,-73 180,-73 180,-55 8,-55"/>
<text text-anchor="start" x="11" y="-61.2" font-family="Helvetica,sans-Serif" font-size="11.00">...</text>
<polygon fill="#ffffff" stroke="transparent" points="8,-37 8,-55 71,-55 71,-37 8,-37"/>
<polygon fill="none" stroke="black" points="8,-37 8,-55 71,-55 71,-37 8,-37"/>
<text text-anchor="start" x="11" y="-43.2" font-family="Helvetica,sans-Serif" font-size="11.00">&lt; 6</text>
<polygon fill="#ffffff" stroke="transparent" points="71,-37 71,-55 131,-55 131,-37 71,-37"/>
<polygon fill="none" stroke="black" points="71,-37 71,-55 131,-55 131,-37 71,-37"/>
<text text-anchor="start" x="95" y="-43.2" font-family="Helvetica,sans-Serif" font-size="11.00">5 rows</text>
<polygon fill="#ffffff" stroke="transparent" points="131,-37 131,-55 180,-55 180,-37 131,-37"/>
<polygon fill="none" stroke="black" points="131,-37 131,-55 180,-55 180,-37 131,-37"/>
<text text-anchor="start" x="155" y="-43.2" font-family="Helvetica,sans-Serif" font-size="11.00">14 &gt;</text>
</a>
</g>
</g>
<!-- cm_accesslistbpgroup&#45;&gt;c_bp_group -->
<g id="edge1" class="edge">
<title>cm_accesslistbpgroup:w&#45;&gt;c_bp_group:e</title>
<path fill="none" stroke="black" d="M216.59,-327.02C202.63,-314.38 206.16,-282 181,-282"/>
<polygon fill="black" stroke="black" points="222.97,-329.31 229.29,-335.39 226.73,-330.65 230.5,-332 230.5,-332 230.5,-332 226.73,-330.65 231.71,-328.61 222.97,-329.31 222.97,-329.31"/>
<ellipse fill="none" stroke="black" cx="219.95" cy="-328.23" rx="3.2" ry="3.2"/>
</g>
<!-- cm_accessprofile -->
<g id="node3" class="node">
<title>cm_accessprofile</title>
<g id="a_node3"><a xlink:href="../../tables/cm_accessprofile.html" xlink:title="cm_accessprofile" target="_top">
<polygon fill="#ffffff" stroke="transparent" points="15,-336 15,-438 173,-438 173,-336 15,-336"/>
<polygon fill="#f5f5f5" stroke="transparent" points="15,-416 15,-438 173,-438 173,-416 15,-416"/>
<polygon fill="none" stroke="black" points="15,-416 15,-438 173,-438 173,-416 15,-416"/>
<text text-anchor="start" x="20" y="-425.2" font-family="Helvetica,sans-Serif" font-weight="bold" font-size="11.00">cm_accessprofile</text>
<text text-anchor="start" x="138" y="-424.2" font-family="Helvetica,sans-Serif" font-size="11.00">[table]</text>
<polygon fill="none" stroke="black" points="15,-394 15,-416 173,-416 173,-394 15,-394"/>
<image xlink:href="../../images/primaryKeys.png" width="11px" height="12px" preserveAspectRatio="xMinYMin meet" x="20" y="-411"/>
<text text-anchor="start" x="35" y="-402.2" font-family="Helvetica,sans-Serif" font-size="11.00">cm_accessprofile_id</text>
<polygon fill="#ffffff" stroke="transparent" points="15,-372 15,-394 173,-394 173,-372 15,-372"/>
<polygon fill="none" stroke="black" points="15,-372 15,-394 173,-394 173,-372 15,-372"/>
<text text-anchor="start" x="35" y="-380.2" font-family="Helvetica,sans-Serif" font-size="11.00">cm_accessprofile_uu</text>
<polygon fill="none" stroke="black" points="15,-354 15,-372 173,-372 173,-354 15,-354"/>
<text text-anchor="start" x="18" y="-360.2" font-family="Helvetica,sans-Serif" font-size="11.00">...</text>
<polygon fill="#ffffff" stroke="transparent" points="15,-336 15,-354 70,-354 70,-336 15,-336"/>
<polygon fill="none" stroke="black" points="15,-336 15,-354 70,-354 70,-336 15,-336"/>
<text text-anchor="start" x="18" y="-342.2" font-family="Helvetica,sans-Serif" font-size="11.00"> &#160;</text>
<polygon fill="#ffffff" stroke="transparent" points="70,-336 70,-354 130,-354 130,-336 70,-336"/>
<polygon fill="none" stroke="black" points="70,-336 70,-354 130,-354 130,-336 70,-336"/>
<text text-anchor="start" x="94" y="-342.2" font-family="Helvetica,sans-Serif" font-size="11.00">0 rows</text>
<polygon fill="#ffffff" stroke="transparent" points="130,-336 130,-354 173,-354 173,-336 130,-336"/>
<polygon fill="none" stroke="black" points="130,-336 130,-354 173,-354 173,-336 130,-336"/>
<text text-anchor="start" x="154" y="-342.2" font-family="Helvetica,sans-Serif" font-size="11.00">6 &gt;</text>
</a>
</g>
</g>
<!-- cm_accesslistbpgroup&#45;&gt;cm_accessprofile -->
<g id="edge2" class="edge">
<title>cm_accesslistbpgroup:w&#45;&gt;cm_accessprofile:e</title>
<path fill="none" stroke="black" d="M216.59,-358C199.18,-370.02 202.01,-405 174,-405"/>
<polygon fill="black" stroke="black" points="222.81,-356.21 231.5,-357.46 226.66,-355.11 230.5,-354 230.5,-354 230.5,-354 226.66,-355.11 229.5,-350.54 222.81,-356.21 222.81,-356.21"/>
<ellipse fill="none" stroke="black" cx="219.74" cy="-357.1" rx="3.2" ry="3.2"/>
</g>
</g>
</svg>
