<?xml version="1.0" encoding="UTF-8" standalone="no"?>
<!DOCTYPE svg PUBLIC "-//W3C//DTD SVG 1.1//EN"
 "http://www.w3.org/Graphics/SVG/1.1/DTD/svg11.dtd">
<!-- Generated by graphviz version 2.43.0 (0)
 -->
<!-- Title: oneDegreeRelationshipsDiagram Pages: 1 -->
<svg width="499pt" height="522pt"
 viewBox="0.00 0.00 499.00 522.00" xmlns="http://www.w3.org/2000/svg" xmlns:xlink="http://www.w3.org/1999/xlink">
<g id="graph0" class="graph" transform="scale(1 1) rotate(0) translate(4 518)">
<title>oneDegreeRelationshipsDiagram</title>
<polygon fill="#ffffff" stroke="transparent" points="-4,4 -4,-518 495,-518 495,4 -4,4"/>
<text text-anchor="middle" x="71.5" y="-7.2" font-family="Helvetica,sans-Serif" font-size="11.00">Generated by SchemaSpy</text>
<!-- cm_containerttable -->
<g id="node1" class="node">
<title>cm_containerttable</title>
<g id="a_node1"><a xlink:href="../../tables/cm_containerttable.html" xlink:title="cm_containerttable" target="_top">
<polygon fill="#ffffff" stroke="transparent" points="222,-114 222,-510 483,-510 483,-114 222,-114"/>
<polygon fill="#f5f5f5" stroke="transparent" points="224.5,-486 224.5,-508 481.5,-508 481.5,-486 224.5,-486"/>
<polygon fill="none" stroke="black" points="224.5,-486 224.5,-508 481.5,-508 481.5,-486 224.5,-486"/>
<text text-anchor="start" x="229.5" y="-495.2" font-family="Helvetica,sans-Serif" font-weight="bold" font-size="11.00">cm_containerttable</text>
<text text-anchor="start" x="446.5" y="-494.2" font-family="Helvetica,sans-Serif" font-size="11.00">[table]</text>
<polygon fill="none" stroke="black" points="224.5,-464 224.5,-486 398.5,-486 398.5,-464 224.5,-464"/>
<image xlink:href="../../images/primaryKeys.png" width="11px" height="12px" preserveAspectRatio="xMinYMin meet" x="229.5" y="-481"/>
<text text-anchor="start" x="244.5" y="-472.2" font-family="Helvetica,sans-Serif" font-size="11.00">cm_containerttable_id</text>
<polygon fill="none" stroke="black" points="398.5,-464 398.5,-486 481.5,-486 481.5,-464 398.5,-464"/>
<text text-anchor="start" x="401.5" y="-472.2" font-family="Helvetica,sans-Serif" font-size="11.00">numeric[10]</text>
<polygon fill="none" stroke="black" points="224.5,-442 224.5,-464 398.5,-464 398.5,-442 224.5,-442"/>
<text text-anchor="start" x="244.5" y="-450.2" font-family="Helvetica,sans-Serif" font-size="11.00">ad_client_id</text>
<polygon fill="none" stroke="black" points="398.5,-442 398.5,-464 481.5,-464 481.5,-442 398.5,-442"/>
<text text-anchor="start" x="401.5" y="-450.2" font-family="Helvetica,sans-Serif" font-size="11.00">numeric[10]</text>
<polygon fill="none" stroke="black" points="224.5,-420 224.5,-442 398.5,-442 398.5,-420 224.5,-420"/>
<text text-anchor="start" x="244.5" y="-428.2" font-family="Helvetica,sans-Serif" font-size="11.00">ad_org_id</text>
<polygon fill="none" stroke="black" points="398.5,-420 398.5,-442 481.5,-442 481.5,-420 398.5,-420"/>
<text text-anchor="start" x="401.5" y="-428.2" font-family="Helvetica,sans-Serif" font-size="11.00">numeric[10]</text>
<polygon fill="none" stroke="black" points="224.5,-398 224.5,-420 398.5,-420 398.5,-398 224.5,-398"/>
<text text-anchor="start" x="244.5" y="-406.2" font-family="Helvetica,sans-Serif" font-size="11.00">isactive</text>
<polygon fill="none" stroke="black" points="398.5,-398 398.5,-420 481.5,-420 481.5,-398 398.5,-398"/>
<text text-anchor="start" x="401.5" y="-406.2" font-family="Helvetica,sans-Serif" font-size="11.00">bpchar[1]</text>
<polygon fill="none" stroke="black" points="224.5,-376 224.5,-398 398.5,-398 398.5,-376 224.5,-376"/>
<text text-anchor="start" x="244.5" y="-384.2" font-family="Helvetica,sans-Serif" font-size="11.00">created</text>
<polygon fill="none" stroke="black" points="398.5,-376 398.5,-398 481.5,-398 481.5,-376 398.5,-376"/>
<text text-anchor="start" x="401.5" y="-384.2" font-family="Helvetica,sans-Serif" font-size="11.00">timestamp[29,6]</text>
<polygon fill="none" stroke="black" points="224.5,-354 224.5,-376 398.5,-376 398.5,-354 224.5,-354"/>
<text text-anchor="start" x="244.5" y="-362.2" font-family="Helvetica,sans-Serif" font-size="11.00">createdby</text>
<polygon fill="none" stroke="black" points="398.5,-354 398.5,-376 481.5,-376 481.5,-354 398.5,-354"/>
<text text-anchor="start" x="401.5" y="-362.2" font-family="Helvetica,sans-Serif" font-size="11.00">numeric[10]</text>
<polygon fill="none" stroke="black" points="224.5,-332 224.5,-354 398.5,-354 398.5,-332 224.5,-332"/>
<text text-anchor="start" x="244.5" y="-340.2" font-family="Helvetica,sans-Serif" font-size="11.00">updated</text>
<polygon fill="none" stroke="black" points="398.5,-332 398.5,-354 481.5,-354 481.5,-332 398.5,-332"/>
<text text-anchor="start" x="401.5" y="-340.2" font-family="Helvetica,sans-Serif" font-size="11.00">timestamp[29,6]</text>
<polygon fill="none" stroke="black" points="224.5,-310 224.5,-332 398.5,-332 398.5,-310 224.5,-310"/>
<text text-anchor="start" x="244.5" y="-318.2" font-family="Helvetica,sans-Serif" font-size="11.00">updatedby</text>
<polygon fill="none" stroke="black" points="398.5,-310 398.5,-332 481.5,-332 481.5,-310 398.5,-310"/>
<text text-anchor="start" x="401.5" y="-318.2" font-family="Helvetica,sans-Serif" font-size="11.00">numeric[10]</text>
<polygon fill="none" stroke="black" points="224.5,-288 224.5,-310 398.5,-310 398.5,-288 224.5,-288"/>
<text text-anchor="start" x="244.5" y="-296.2" font-family="Helvetica,sans-Serif" font-size="11.00">name</text>
<polygon fill="none" stroke="black" points="398.5,-288 398.5,-310 481.5,-310 481.5,-288 398.5,-288"/>
<text text-anchor="start" x="401.5" y="-296.2" font-family="Helvetica,sans-Serif" font-size="11.00">varchar[60]</text>
<polygon fill="none" stroke="black" points="224.5,-266 224.5,-288 398.5,-288 398.5,-266 224.5,-266"/>
<text text-anchor="start" x="244.5" y="-274.2" font-family="Helvetica,sans-Serif" font-size="11.00">description</text>
<polygon fill="none" stroke="black" points="398.5,-266 398.5,-288 481.5,-288 481.5,-266 398.5,-266"/>
<text text-anchor="start" x="401.5" y="-274.2" font-family="Helvetica,sans-Serif" font-size="11.00">varchar[255]</text>
<polygon fill="none" stroke="black" points="224.5,-244 224.5,-266 398.5,-266 398.5,-244 224.5,-244"/>
<image xlink:href="../../images/foreignKeys.png" width="11px" height="12px" preserveAspectRatio="xMinYMin meet" x="229.5" y="-261"/>
<text text-anchor="start" x="244.5" y="-252.2" font-family="Helvetica,sans-Serif" font-size="11.00">cm_container_id</text>
<polygon fill="none" stroke="black" points="398.5,-244 398.5,-266 481.5,-266 481.5,-244 398.5,-244"/>
<text text-anchor="start" x="401.5" y="-252.2" font-family="Helvetica,sans-Serif" font-size="11.00">numeric[10]</text>
<polygon fill="none" stroke="black" points="224.5,-222 224.5,-244 398.5,-244 398.5,-222 224.5,-222"/>
<image xlink:href="../../images/foreignKeys.png" width="11px" height="12px" preserveAspectRatio="xMinYMin meet" x="229.5" y="-239"/>
<text text-anchor="start" x="244.5" y="-230.2" font-family="Helvetica,sans-Serif" font-size="11.00">cm_templatetable_id</text>
<polygon fill="none" stroke="black" points="398.5,-222 398.5,-244 481.5,-244 481.5,-222 398.5,-222"/>
<text text-anchor="start" x="401.5" y="-230.2" font-family="Helvetica,sans-Serif" font-size="11.00">numeric[10]</text>
<polygon fill="none" stroke="black" points="224.5,-200 224.5,-222 398.5,-222 398.5,-200 224.5,-200"/>
<text text-anchor="start" x="244.5" y="-208.2" font-family="Helvetica,sans-Serif" font-size="11.00">record_id</text>
<polygon fill="none" stroke="black" points="398.5,-200 398.5,-222 481.5,-222 481.5,-200 398.5,-200"/>
<text text-anchor="start" x="401.5" y="-208.2" font-family="Helvetica,sans-Serif" font-size="11.00">numeric[10]</text>
<polygon fill="none" stroke="black" points="224.5,-178 224.5,-200 398.5,-200 398.5,-178 224.5,-178"/>
<text text-anchor="start" x="244.5" y="-186.2" font-family="Helvetica,sans-Serif" font-size="11.00">whereclause</text>
<polygon fill="none" stroke="black" points="398.5,-178 398.5,-200 481.5,-200 481.5,-178 398.5,-178"/>
<text text-anchor="start" x="401.5" y="-186.2" font-family="Helvetica,sans-Serif" font-size="11.00">varchar[2000]</text>
<polygon fill="none" stroke="black" points="224.5,-156 224.5,-178 398.5,-178 398.5,-156 224.5,-156"/>
<text text-anchor="start" x="244.5" y="-164.2" font-family="Helvetica,sans-Serif" font-size="11.00">otherclause</text>
<polygon fill="none" stroke="black" points="398.5,-156 398.5,-178 481.5,-178 481.5,-156 398.5,-156"/>
<text text-anchor="start" x="401.5" y="-164.2" font-family="Helvetica,sans-Serif" font-size="11.00">varchar[2000]</text>
<polygon fill="#ffffff" stroke="transparent" points="224.5,-134 224.5,-156 398.5,-156 398.5,-134 224.5,-134"/>
<polygon fill="none" stroke="black" points="224.5,-134 224.5,-156 398.5,-156 398.5,-134 224.5,-134"/>
<text text-anchor="start" x="244.5" y="-142.2" font-family="Helvetica,sans-Serif" font-size="11.00">cm_containerttable_uu</text>
<polygon fill="none" stroke="black" points="398.5,-134 398.5,-156 481.5,-156 481.5,-134 398.5,-134"/>
<text text-anchor="start" x="401.5" y="-142.2" font-family="Helvetica,sans-Serif" font-size="11.00">varchar[36]</text>
<polygon fill="#ffffff" stroke="transparent" points="224.5,-116 224.5,-134 302.5,-134 302.5,-116 224.5,-116"/>
<polygon fill="none" stroke="black" points="224.5,-116 224.5,-134 302.5,-134 302.5,-116 224.5,-116"/>
<text text-anchor="start" x="227.5" y="-122.2" font-family="Helvetica,sans-Serif" font-size="11.00">&lt; 2</text>
<polygon fill="#ffffff" stroke="transparent" points="302.5,-116 302.5,-134 398.5,-134 398.5,-116 302.5,-116"/>
<polygon fill="none" stroke="black" points="302.5,-116 302.5,-134 398.5,-134 398.5,-116 302.5,-116"/>
<text text-anchor="start" x="362.5" y="-122.2" font-family="Helvetica,sans-Serif" font-size="11.00">0 rows</text>
<polygon fill="#ffffff" stroke="transparent" points="398.5,-116 398.5,-134 481.5,-134 481.5,-116 398.5,-116"/>
<polygon fill="none" stroke="black" points="398.5,-116 398.5,-134 481.5,-134 481.5,-116 398.5,-116"/>
<text text-anchor="start" x="462.5" y="-122.2" font-family="Helvetica,sans-Serif" font-size="11.00">0 &gt;</text>
<polygon fill="none" stroke="black" stroke-width="2" points="223,-115 223,-509 482,-509 482,-115 223,-115"/>
</a>
</g>
</g>
<!-- cm_container -->
<g id="node2" class="node">
<title>cm_container</title>
<g id="a_node2"><a xlink:href="../../tables/cm_container.html" xlink:title="cm_container" target="_top">
<polygon fill="#ffffff" stroke="transparent" points="13.5,-204 13.5,-372 167.5,-372 167.5,-204 13.5,-204"/>
<polygon fill="#f5f5f5" stroke="transparent" points="13.5,-350 13.5,-372 167.5,-372 167.5,-350 13.5,-350"/>
<polygon fill="none" stroke="black" points="13.5,-350 13.5,-372 167.5,-372 167.5,-350 13.5,-350"/>
<text text-anchor="start" x="18.5" y="-359.2" font-family="Helvetica,sans-Serif" font-weight="bold" font-size="11.00">cm_container</text>
<text text-anchor="start" x="132.5" y="-358.2" font-family="Helvetica,sans-Serif" font-size="11.00">[table]</text>
<polygon fill="none" stroke="black" points="13.5,-328 13.5,-350 167.5,-350 167.5,-328 13.5,-328"/>
<image xlink:href="../../images/primaryKeys.png" width="11px" height="12px" preserveAspectRatio="xMinYMin meet" x="18.5" y="-345"/>
<text text-anchor="start" x="33.5" y="-336.2" font-family="Helvetica,sans-Serif" font-size="11.00">cm_container_id</text>
<polygon fill="none" stroke="black" points="13.5,-306 13.5,-328 167.5,-328 167.5,-306 13.5,-306"/>
<image xlink:href="../../images/foreignKeys.png" width="11px" height="12px" preserveAspectRatio="xMinYMin meet" x="18.5" y="-323"/>
<text text-anchor="start" x="33.5" y="-314.2" font-family="Helvetica,sans-Serif" font-size="11.00">cm_webproject_id</text>
<polygon fill="none" stroke="black" points="13.5,-284 13.5,-306 167.5,-306 167.5,-284 13.5,-284"/>
<image xlink:href="../../images/foreignKeys.png" width="11px" height="12px" preserveAspectRatio="xMinYMin meet" x="18.5" y="-301"/>
<text text-anchor="start" x="33.5" y="-292.2" font-family="Helvetica,sans-Serif" font-size="11.00">cm_template_id</text>
<polygon fill="none" stroke="black" points="13.5,-262 13.5,-284 167.5,-284 167.5,-262 13.5,-262"/>
<image xlink:href="../../images/foreignKeys.png" width="11px" height="12px" preserveAspectRatio="xMinYMin meet" x="18.5" y="-279"/>
<text text-anchor="start" x="33.5" y="-270.2" font-family="Helvetica,sans-Serif" font-size="11.00">cm_containerlink_id</text>
<polygon fill="#ffffff" stroke="transparent" points="13.5,-240 13.5,-262 167.5,-262 167.5,-240 13.5,-240"/>
<polygon fill="none" stroke="black" points="13.5,-240 13.5,-262 167.5,-262 167.5,-240 13.5,-240"/>
<text text-anchor="start" x="33.5" y="-248.2" font-family="Helvetica,sans-Serif" font-size="11.00">cm_container_uu</text>
<polygon fill="none" stroke="black" points="13.5,-222 13.5,-240 167.5,-240 167.5,-222 13.5,-222"/>
<text text-anchor="start" x="16.5" y="-228.2" font-family="Helvetica,sans-Serif" font-size="11.00">...</text>
<polygon fill="#ffffff" stroke="transparent" points="13.5,-204 13.5,-222 70.5,-222 70.5,-204 13.5,-204"/>
<polygon fill="none" stroke="black" points="13.5,-204 13.5,-222 70.5,-222 70.5,-204 13.5,-204"/>
<text text-anchor="start" x="16.5" y="-210.2" font-family="Helvetica,sans-Serif" font-size="11.00">&lt; 3</text>
<polygon fill="#ffffff" stroke="transparent" points="70.5,-204 70.5,-222 127.5,-222 127.5,-204 70.5,-204"/>
<polygon fill="none" stroke="black" points="70.5,-204 70.5,-222 127.5,-222 127.5,-204 70.5,-204"/>
<text text-anchor="start" x="91.5" y="-210.2" font-family="Helvetica,sans-Serif" font-size="11.00">0 rows</text>
<polygon fill="#ffffff" stroke="transparent" points="127.5,-204 127.5,-222 167.5,-222 167.5,-204 127.5,-204"/>
<polygon fill="none" stroke="black" points="127.5,-204 127.5,-222 167.5,-222 167.5,-204 127.5,-204"/>
<text text-anchor="start" x="148.5" y="-210.2" font-family="Helvetica,sans-Serif" font-size="11.00">7 &gt;</text>
</a>
</g>
</g>
<!-- cm_containerttable&#45;&gt;cm_container -->
<g id="edge1" class="edge">
<title>cm_containerttable:w&#45;&gt;cm_container:e</title>
<path fill="none" stroke="black" d="M209.52,-259.05C186.58,-275.83 207.2,-339 168.5,-339"/>
<polygon fill="black" stroke="black" points="215.82,-257.23 224.5,-258.46 219.66,-256.11 223.5,-255 223.5,-255 223.5,-255 219.66,-256.11 222.5,-251.54 215.82,-257.23 215.82,-257.23"/>
<ellipse fill="none" stroke="black" cx="212.74" cy="-258.12" rx="3.2" ry="3.2"/>
</g>
<!-- cm_templatetable -->
<g id="node3" class="node">
<title>cm_templatetable</title>
<g id="a_node3"><a xlink:href="../../tables/cm_templatetable.html" xlink:title="cm_templatetable" target="_top">
<polygon fill="#ffffff" stroke="transparent" points="8,-37 8,-183 173,-183 173,-37 8,-37"/>
<polygon fill="#f5f5f5" stroke="transparent" points="8.5,-161 8.5,-183 173.5,-183 173.5,-161 8.5,-161"/>
<polygon fill="none" stroke="black" points="8.5,-161 8.5,-183 173.5,-183 173.5,-161 8.5,-161"/>
<text text-anchor="start" x="13.5" y="-170.2" font-family="Helvetica,sans-Serif" font-weight="bold" font-size="11.00">cm_templatetable</text>
<text text-anchor="start" x="138.5" y="-169.2" font-family="Helvetica,sans-Serif" font-size="11.00">[table]</text>
<polygon fill="none" stroke="black" points="8.5,-139 8.5,-161 173.5,-161 173.5,-139 8.5,-139"/>
<image xlink:href="../../images/primaryKeys.png" width="11px" height="12px" preserveAspectRatio="xMinYMin meet" x="13.5" y="-156"/>
<text text-anchor="start" x="28.5" y="-147.2" font-family="Helvetica,sans-Serif" font-size="11.00">cm_templatetable_id</text>
<polygon fill="none" stroke="black" points="8.5,-117 8.5,-139 173.5,-139 173.5,-117 8.5,-117"/>
<image xlink:href="../../images/foreignKeys.png" width="11px" height="12px" preserveAspectRatio="xMinYMin meet" x="13.5" y="-134"/>
<text text-anchor="start" x="28.5" y="-125.2" font-family="Helvetica,sans-Serif" font-size="11.00">cm_template_id</text>
<polygon fill="none" stroke="black" points="8.5,-95 8.5,-117 173.5,-117 173.5,-95 8.5,-95"/>
<image xlink:href="../../images/foreignKeys.png" width="11px" height="12px" preserveAspectRatio="xMinYMin meet" x="13.5" y="-112"/>
<text text-anchor="start" x="28.5" y="-103.2" font-family="Helvetica,sans-Serif" font-size="11.00">ad_table_id</text>
<polygon fill="#ffffff" stroke="transparent" points="8.5,-73 8.5,-95 173.5,-95 173.5,-73 8.5,-73"/>
<polygon fill="none" stroke="black" points="8.5,-73 8.5,-95 173.5,-95 173.5,-73 8.5,-73"/>
<text text-anchor="start" x="28.5" y="-81.2" font-family="Helvetica,sans-Serif" font-size="11.00">cm_templatetable_uu</text>
<polygon fill="none" stroke="black" points="8.5,-55 8.5,-73 173.5,-73 173.5,-55 8.5,-55"/>
<text text-anchor="start" x="11.5" y="-61.2" font-family="Helvetica,sans-Serif" font-size="11.00">...</text>
<polygon fill="#ffffff" stroke="transparent" points="8.5,-37 8.5,-55 71.5,-55 71.5,-37 8.5,-37"/>
<polygon fill="none" stroke="black" points="8.5,-37 8.5,-55 71.5,-55 71.5,-37 8.5,-37"/>
<text text-anchor="start" x="11.5" y="-43.2" font-family="Helvetica,sans-Serif" font-size="11.00">&lt; 2</text>
<polygon fill="#ffffff" stroke="transparent" points="71.5,-37 71.5,-55 130.5,-55 130.5,-37 71.5,-37"/>
<polygon fill="none" stroke="black" points="71.5,-37 71.5,-55 130.5,-55 130.5,-37 71.5,-37"/>
<text text-anchor="start" x="94.5" y="-43.2" font-family="Helvetica,sans-Serif" font-size="11.00">0 rows</text>
<polygon fill="#ffffff" stroke="transparent" points="130.5,-37 130.5,-55 173.5,-55 173.5,-37 130.5,-37"/>
<polygon fill="none" stroke="black" points="130.5,-37 130.5,-55 173.5,-55 173.5,-37 130.5,-37"/>
<text text-anchor="start" x="154.5" y="-43.2" font-family="Helvetica,sans-Serif" font-size="11.00">2 &gt;</text>
</a>
</g>
</g>
<!-- cm_containerttable&#45;&gt;cm_templatetable -->
<g id="edge2" class="edge">
<title>cm_containerttable:w&#45;&gt;cm_templatetable:e</title>
<path fill="none" stroke="black" d="M209.7,-228.54C189.4,-211.3 211.31,-150 174.5,-150"/>
<polygon fill="black" stroke="black" points="215.89,-230.54 222.39,-236.43 219.69,-231.77 223.5,-233 223.5,-233 223.5,-233 219.69,-231.77 224.61,-229.57 215.89,-230.54 215.89,-230.54"/>
<ellipse fill="none" stroke="black" cx="212.84" cy="-229.55" rx="3.2" ry="3.2"/>
</g>
</g>
</svg>
