<?xml version="1.0" encoding="UTF-8" standalone="no"?>
<!DOCTYPE svg PUBLIC "-//W3C//DTD SVG 1.1//EN"
 "http://www.w3.org/Graphics/SVG/1.1/DTD/svg11.dtd">
<!-- Generated by graphviz version 2.43.0 (0)
 -->
<!-- Title: oneDegreeRelationshipsDiagram Pages: 1 -->
<svg width="782pt" height="461pt"
 viewBox="0.00 0.00 782.00 461.00" xmlns="http://www.w3.org/2000/svg" xmlns:xlink="http://www.w3.org/1999/xlink">
<g id="graph0" class="graph" transform="scale(1 1) rotate(0) translate(4 457)">
<title>oneDegreeRelationshipsDiagram</title>
<polygon fill="#ffffff" stroke="transparent" points="-4,4 -4,-457 778,-457 778,4 -4,4"/>
<text text-anchor="middle" x="71.5" y="-7.2" font-family="Helvetica,sans-Serif" font-size="11.00">Generated by SchemaSpy</text>
<!-- cm_container_element -->
<g id="node1" class="node">
<title>cm_container_element</title>
<g id="a_node1"><a xlink:href="../../tables/cm_container_element.html" xlink:title="cm_container_element" target="_top">
<polygon fill="#ffffff" stroke="transparent" points="211,-75 211,-449 500,-449 500,-75 211,-75"/>
<polygon fill="#f5f5f5" stroke="transparent" points="213.5,-425 213.5,-447 498.5,-447 498.5,-425 213.5,-425"/>
<polygon fill="none" stroke="black" points="213.5,-425 213.5,-447 498.5,-447 498.5,-425 213.5,-425"/>
<text text-anchor="start" x="218.5" y="-434.2" font-family="Helvetica,sans-Serif" font-weight="bold" font-size="11.00">cm_container_element</text>
<text text-anchor="start" x="463.5" y="-433.2" font-family="Helvetica,sans-Serif" font-size="11.00">[table]</text>
<polygon fill="none" stroke="black" points="213.5,-403 213.5,-425 408.5,-425 408.5,-403 213.5,-403"/>
<image xlink:href="../../images/primaryKeys.png" width="11px" height="12px" preserveAspectRatio="xMinYMin meet" x="218.5" y="-420"/>
<text text-anchor="start" x="233.5" y="-411.2" font-family="Helvetica,sans-Serif" font-size="11.00">cm_container_element_id</text>
<polygon fill="none" stroke="black" points="408.5,-403 408.5,-425 498.5,-425 498.5,-403 408.5,-403"/>
<text text-anchor="start" x="411.5" y="-411.2" font-family="Helvetica,sans-Serif" font-size="11.00">numeric[10]</text>
<polygon fill="none" stroke="black" points="213.5,-381 213.5,-403 408.5,-403 408.5,-381 213.5,-381"/>
<text text-anchor="start" x="233.5" y="-389.2" font-family="Helvetica,sans-Serif" font-size="11.00">ad_client_id</text>
<polygon fill="none" stroke="black" points="408.5,-381 408.5,-403 498.5,-403 498.5,-381 408.5,-381"/>
<text text-anchor="start" x="411.5" y="-389.2" font-family="Helvetica,sans-Serif" font-size="11.00">numeric[10]</text>
<polygon fill="none" stroke="black" points="213.5,-359 213.5,-381 408.5,-381 408.5,-359 213.5,-359"/>
<text text-anchor="start" x="233.5" y="-367.2" font-family="Helvetica,sans-Serif" font-size="11.00">ad_org_id</text>
<polygon fill="none" stroke="black" points="408.5,-359 408.5,-381 498.5,-381 498.5,-359 408.5,-359"/>
<text text-anchor="start" x="411.5" y="-367.2" font-family="Helvetica,sans-Serif" font-size="11.00">numeric[10]</text>
<polygon fill="none" stroke="black" points="213.5,-337 213.5,-359 408.5,-359 408.5,-337 213.5,-337"/>
<text text-anchor="start" x="233.5" y="-345.2" font-family="Helvetica,sans-Serif" font-size="11.00">isactive</text>
<polygon fill="none" stroke="black" points="408.5,-337 408.5,-359 498.5,-359 498.5,-337 408.5,-337"/>
<text text-anchor="start" x="411.5" y="-345.2" font-family="Helvetica,sans-Serif" font-size="11.00">bpchar[1]</text>
<polygon fill="none" stroke="black" points="213.5,-315 213.5,-337 408.5,-337 408.5,-315 213.5,-315"/>
<text text-anchor="start" x="233.5" y="-323.2" font-family="Helvetica,sans-Serif" font-size="11.00">created</text>
<polygon fill="none" stroke="black" points="408.5,-315 408.5,-337 498.5,-337 498.5,-315 408.5,-315"/>
<text text-anchor="start" x="411.5" y="-323.2" font-family="Helvetica,sans-Serif" font-size="11.00">timestamp[29,6]</text>
<polygon fill="none" stroke="black" points="213.5,-293 213.5,-315 408.5,-315 408.5,-293 213.5,-293"/>
<text text-anchor="start" x="233.5" y="-301.2" font-family="Helvetica,sans-Serif" font-size="11.00">createdby</text>
<polygon fill="none" stroke="black" points="408.5,-293 408.5,-315 498.5,-315 498.5,-293 408.5,-293"/>
<text text-anchor="start" x="411.5" y="-301.2" font-family="Helvetica,sans-Serif" font-size="11.00">numeric[10]</text>
<polygon fill="none" stroke="black" points="213.5,-271 213.5,-293 408.5,-293 408.5,-271 213.5,-271"/>
<text text-anchor="start" x="233.5" y="-279.2" font-family="Helvetica,sans-Serif" font-size="11.00">updated</text>
<polygon fill="none" stroke="black" points="408.5,-271 408.5,-293 498.5,-293 498.5,-271 408.5,-271"/>
<text text-anchor="start" x="411.5" y="-279.2" font-family="Helvetica,sans-Serif" font-size="11.00">timestamp[29,6]</text>
<polygon fill="none" stroke="black" points="213.5,-249 213.5,-271 408.5,-271 408.5,-249 213.5,-249"/>
<text text-anchor="start" x="233.5" y="-257.2" font-family="Helvetica,sans-Serif" font-size="11.00">updatedby</text>
<polygon fill="none" stroke="black" points="408.5,-249 408.5,-271 498.5,-271 498.5,-249 408.5,-249"/>
<text text-anchor="start" x="411.5" y="-257.2" font-family="Helvetica,sans-Serif" font-size="11.00">numeric[10]</text>
<polygon fill="none" stroke="black" points="213.5,-227 213.5,-249 408.5,-249 408.5,-227 213.5,-227"/>
<text text-anchor="start" x="233.5" y="-235.2" font-family="Helvetica,sans-Serif" font-size="11.00">name</text>
<polygon fill="none" stroke="black" points="408.5,-227 408.5,-249 498.5,-249 498.5,-227 408.5,-227"/>
<text text-anchor="start" x="411.5" y="-235.2" font-family="Helvetica,sans-Serif" font-size="11.00">varchar[60]</text>
<polygon fill="none" stroke="black" points="213.5,-205 213.5,-227 408.5,-227 408.5,-205 213.5,-205"/>
<text text-anchor="start" x="233.5" y="-213.2" font-family="Helvetica,sans-Serif" font-size="11.00">description</text>
<polygon fill="none" stroke="black" points="408.5,-205 408.5,-227 498.5,-227 498.5,-205 408.5,-205"/>
<text text-anchor="start" x="411.5" y="-213.2" font-family="Helvetica,sans-Serif" font-size="11.00">varchar[255]</text>
<polygon fill="none" stroke="black" points="213.5,-183 213.5,-205 408.5,-205 408.5,-183 213.5,-183"/>
<text text-anchor="start" x="233.5" y="-191.2" font-family="Helvetica,sans-Serif" font-size="11.00">help</text>
<polygon fill="none" stroke="black" points="408.5,-183 408.5,-205 498.5,-205 498.5,-183 408.5,-183"/>
<text text-anchor="start" x="411.5" y="-191.2" font-family="Helvetica,sans-Serif" font-size="11.00">varchar[2000]</text>
<polygon fill="none" stroke="black" points="213.5,-161 213.5,-183 408.5,-183 408.5,-161 213.5,-161"/>
<image xlink:href="../../images/foreignKeys.png" width="11px" height="12px" preserveAspectRatio="xMinYMin meet" x="218.5" y="-178"/>
<text text-anchor="start" x="233.5" y="-169.2" font-family="Helvetica,sans-Serif" font-size="11.00">cm_container_id</text>
<polygon fill="none" stroke="black" points="408.5,-161 408.5,-183 498.5,-183 498.5,-161 408.5,-161"/>
<text text-anchor="start" x="411.5" y="-169.2" font-family="Helvetica,sans-Serif" font-size="11.00">numeric[10]</text>
<polygon fill="none" stroke="black" points="213.5,-139 213.5,-161 408.5,-161 408.5,-139 213.5,-139"/>
<text text-anchor="start" x="233.5" y="-147.2" font-family="Helvetica,sans-Serif" font-size="11.00">contenthtml</text>
<polygon fill="none" stroke="black" points="408.5,-139 408.5,-161 498.5,-161 498.5,-139 408.5,-139"/>
<text text-anchor="start" x="411.5" y="-147.2" font-family="Helvetica,sans-Serif" font-size="11.00">text[2147483647]</text>
<polygon fill="none" stroke="black" points="213.5,-117 213.5,-139 408.5,-139 408.5,-117 213.5,-117"/>
<text text-anchor="start" x="233.5" y="-125.2" font-family="Helvetica,sans-Serif" font-size="11.00">isvalid</text>
<polygon fill="none" stroke="black" points="408.5,-117 408.5,-139 498.5,-139 498.5,-117 408.5,-117"/>
<text text-anchor="start" x="411.5" y="-125.2" font-family="Helvetica,sans-Serif" font-size="11.00">bpchar[1]</text>
<polygon fill="#ffffff" stroke="transparent" points="213.5,-95 213.5,-117 408.5,-117 408.5,-95 213.5,-95"/>
<polygon fill="none" stroke="black" points="213.5,-95 213.5,-117 408.5,-117 408.5,-95 213.5,-95"/>
<text text-anchor="start" x="233.5" y="-103.2" font-family="Helvetica,sans-Serif" font-size="11.00">cm_container_element_uu</text>
<polygon fill="none" stroke="black" points="408.5,-95 408.5,-117 498.5,-117 498.5,-95 408.5,-95"/>
<text text-anchor="start" x="411.5" y="-103.2" font-family="Helvetica,sans-Serif" font-size="11.00">varchar[36]</text>
<polygon fill="#ffffff" stroke="transparent" points="213.5,-77 213.5,-95 302.5,-95 302.5,-77 213.5,-77"/>
<polygon fill="none" stroke="black" points="213.5,-77 213.5,-95 302.5,-95 302.5,-77 213.5,-77"/>
<text text-anchor="start" x="216.5" y="-83.2" font-family="Helvetica,sans-Serif" font-size="11.00">&lt; 1</text>
<polygon fill="#ffffff" stroke="transparent" points="302.5,-77 302.5,-95 408.5,-95 408.5,-77 302.5,-77"/>
<polygon fill="none" stroke="black" points="302.5,-77 302.5,-95 408.5,-95 408.5,-77 302.5,-77"/>
<text text-anchor="start" x="372.5" y="-83.2" font-family="Helvetica,sans-Serif" font-size="11.00">0 rows</text>
<polygon fill="#ffffff" stroke="transparent" points="408.5,-77 408.5,-95 498.5,-95 498.5,-77 408.5,-77"/>
<polygon fill="none" stroke="black" points="408.5,-77 408.5,-95 498.5,-95 498.5,-77 408.5,-77"/>
<text text-anchor="start" x="479.5" y="-83.2" font-family="Helvetica,sans-Serif" font-size="11.00">1 &gt;</text>
<polygon fill="none" stroke="black" stroke-width="2" points="212,-76 212,-448 499,-448 499,-76 212,-76"/>
</a>
</g>
</g>
<!-- cm_container -->
<g id="node2" class="node">
<title>cm_container</title>
<g id="a_node2"><a xlink:href="../../tables/cm_container.html" xlink:title="cm_container" target="_top">
<polygon fill="#ffffff" stroke="transparent" points="8,-37 8,-205 162,-205 162,-37 8,-37"/>
<polygon fill="#f5f5f5" stroke="transparent" points="8,-183 8,-205 162,-205 162,-183 8,-183"/>
<polygon fill="none" stroke="black" points="8,-183 8,-205 162,-205 162,-183 8,-183"/>
<text text-anchor="start" x="13" y="-192.2" font-family="Helvetica,sans-Serif" font-weight="bold" font-size="11.00">cm_container</text>
<text text-anchor="start" x="127" y="-191.2" font-family="Helvetica,sans-Serif" font-size="11.00">[table]</text>
<polygon fill="none" stroke="black" points="8,-161 8,-183 162,-183 162,-161 8,-161"/>
<image xlink:href="../../images/primaryKeys.png" width="11px" height="12px" preserveAspectRatio="xMinYMin meet" x="13" y="-178"/>
<text text-anchor="start" x="28" y="-169.2" font-family="Helvetica,sans-Serif" font-size="11.00">cm_container_id</text>
<polygon fill="none" stroke="black" points="8,-139 8,-161 162,-161 162,-139 8,-139"/>
<image xlink:href="../../images/foreignKeys.png" width="11px" height="12px" preserveAspectRatio="xMinYMin meet" x="13" y="-156"/>
<text text-anchor="start" x="28" y="-147.2" font-family="Helvetica,sans-Serif" font-size="11.00">cm_webproject_id</text>
<polygon fill="none" stroke="black" points="8,-117 8,-139 162,-139 162,-117 8,-117"/>
<image xlink:href="../../images/foreignKeys.png" width="11px" height="12px" preserveAspectRatio="xMinYMin meet" x="13" y="-134"/>
<text text-anchor="start" x="28" y="-125.2" font-family="Helvetica,sans-Serif" font-size="11.00">cm_template_id</text>
<polygon fill="none" stroke="black" points="8,-95 8,-117 162,-117 162,-95 8,-95"/>
<image xlink:href="../../images/foreignKeys.png" width="11px" height="12px" preserveAspectRatio="xMinYMin meet" x="13" y="-112"/>
<text text-anchor="start" x="28" y="-103.2" font-family="Helvetica,sans-Serif" font-size="11.00">cm_containerlink_id</text>
<polygon fill="#ffffff" stroke="transparent" points="8,-73 8,-95 162,-95 162,-73 8,-73"/>
<polygon fill="none" stroke="black" points="8,-73 8,-95 162,-95 162,-73 8,-73"/>
<text text-anchor="start" x="28" y="-81.2" font-family="Helvetica,sans-Serif" font-size="11.00">cm_container_uu</text>
<polygon fill="none" stroke="black" points="8,-55 8,-73 162,-73 162,-55 8,-55"/>
<text text-anchor="start" x="11" y="-61.2" font-family="Helvetica,sans-Serif" font-size="11.00">...</text>
<polygon fill="#ffffff" stroke="transparent" points="8,-37 8,-55 65,-55 65,-37 8,-37"/>
<polygon fill="none" stroke="black" points="8,-37 8,-55 65,-55 65,-37 8,-37"/>
<text text-anchor="start" x="11" y="-43.2" font-family="Helvetica,sans-Serif" font-size="11.00">&lt; 3</text>
<polygon fill="#ffffff" stroke="transparent" points="65,-37 65,-55 122,-55 122,-37 65,-37"/>
<polygon fill="none" stroke="black" points="65,-37 65,-55 122,-55 122,-37 65,-37"/>
<text text-anchor="start" x="86" y="-43.2" font-family="Helvetica,sans-Serif" font-size="11.00">0 rows</text>
<polygon fill="#ffffff" stroke="transparent" points="122,-37 122,-55 162,-55 162,-37 122,-37"/>
<polygon fill="none" stroke="black" points="122,-37 122,-55 162,-55 162,-37 122,-37"/>
<text text-anchor="start" x="143" y="-43.2" font-family="Helvetica,sans-Serif" font-size="11.00">7 &gt;</text>
</a>
</g>
</g>
<!-- cm_container_element&#45;&gt;cm_container -->
<g id="edge1" class="edge">
<title>cm_container_element:w&#45;&gt;cm_container:e</title>
<path fill="none" stroke="black" d="M197.84,-172C186.41,-172 179.16,-172 163,-172"/>
<polygon fill="black" stroke="black" points="204.5,-172 212.5,-175.6 208.5,-172 212.5,-172 212.5,-172 212.5,-172 208.5,-172 212.5,-168.4 204.5,-172 204.5,-172"/>
<ellipse fill="none" stroke="black" cx="201.3" cy="-172" rx="3.2" ry="3.2"/>
</g>
<!-- cm_container_element_trl -->
<g id="node3" class="node">
<title>cm_container_element_trl</title>
<g id="a_node3"><a xlink:href="../../tables/cm_container_element_trl.html" xlink:title="cm_container_element_trl" target="_top">
<polygon fill="#ffffff" stroke="transparent" points="549,-323 549,-447 766,-447 766,-323 549,-323"/>
<polygon fill="#f5f5f5" stroke="transparent" points="549.5,-425 549.5,-447 766.5,-447 766.5,-425 549.5,-425"/>
<polygon fill="none" stroke="black" points="549.5,-425 549.5,-447 766.5,-447 766.5,-425 549.5,-425"/>
<text text-anchor="start" x="554.5" y="-434.2" font-family="Helvetica,sans-Serif" font-weight="bold" font-size="11.00">cm_container_element_trl</text>
<text text-anchor="start" x="731.5" y="-433.2" font-family="Helvetica,sans-Serif" font-size="11.00">[table]</text>
<polygon fill="none" stroke="black" points="549.5,-403 549.5,-425 766.5,-425 766.5,-403 549.5,-403"/>
<image xlink:href="../../images/primaryKeys.png" width="11px" height="12px" preserveAspectRatio="xMinYMin meet" x="554.5" y="-420"/>
<text text-anchor="start" x="569.5" y="-411.2" font-family="Helvetica,sans-Serif" font-size="11.00">cm_container_element_id</text>
<polygon fill="none" stroke="black" points="549.5,-381 549.5,-403 766.5,-403 766.5,-381 549.5,-381"/>
<image xlink:href="../../images/primaryKeys.png" width="11px" height="12px" preserveAspectRatio="xMinYMin meet" x="554.5" y="-398"/>
<text text-anchor="start" x="569.5" y="-389.2" font-family="Helvetica,sans-Serif" font-size="11.00">ad_language</text>
<polygon fill="#ffffff" stroke="transparent" points="549.5,-359 549.5,-381 766.5,-381 766.5,-359 549.5,-359"/>
<polygon fill="none" stroke="black" points="549.5,-359 549.5,-381 766.5,-381 766.5,-359 549.5,-359"/>
<text text-anchor="start" x="569.5" y="-367.2" font-family="Helvetica,sans-Serif" font-size="11.00">cm_container_element_trl_uu</text>
<polygon fill="none" stroke="black" points="549.5,-341 549.5,-359 766.5,-359 766.5,-341 549.5,-341"/>
<text text-anchor="start" x="552.5" y="-347.2" font-family="Helvetica,sans-Serif" font-size="11.00">...</text>
<polygon fill="#ffffff" stroke="transparent" points="549.5,-323 549.5,-341 642.5,-341 642.5,-323 549.5,-323"/>
<polygon fill="none" stroke="black" points="549.5,-323 549.5,-341 642.5,-341 642.5,-323 549.5,-323"/>
<text text-anchor="start" x="552.5" y="-329.2" font-family="Helvetica,sans-Serif" font-size="11.00">&lt; 2</text>
<polygon fill="#ffffff" stroke="transparent" points="642.5,-323 642.5,-341 717.5,-341 717.5,-323 642.5,-323"/>
<polygon fill="none" stroke="black" points="642.5,-323 642.5,-341 717.5,-341 717.5,-323 642.5,-323"/>
<text text-anchor="start" x="681.5" y="-329.2" font-family="Helvetica,sans-Serif" font-size="11.00">0 rows</text>
<polygon fill="#ffffff" stroke="transparent" points="717.5,-323 717.5,-341 766.5,-341 766.5,-323 717.5,-323"/>
<polygon fill="none" stroke="black" points="717.5,-323 717.5,-341 766.5,-341 766.5,-323 717.5,-323"/>
<text text-anchor="start" x="756.5" y="-329.2" font-family="Helvetica,sans-Serif" font-size="11.00"> &#160;</text>
</a>
</g>
</g>
<!-- cm_container_element_trl&#45;&gt;cm_container_element -->
<g id="edge2" class="edge">
<title>cm_container_element_trl:w&#45;&gt;cm_container_element:e</title>
<path fill="none" stroke="black" d="M533.99,-414C522.68,-414 515.49,-414 499.5,-414"/>
<polygon fill="black" stroke="black" points="540.5,-414 548.5,-417.6 544.5,-414 548.5,-414 548.5,-414 548.5,-414 544.5,-414 548.5,-410.4 540.5,-414 540.5,-414"/>
<ellipse fill="none" stroke="black" cx="537.3" cy="-414" rx="3.2" ry="3.2"/>
</g>
</g>
</svg>
