<?xml version="1.0" encoding="UTF-8" standalone="no"?>
<!DOCTYPE svg PUBLIC "-//W3C//DTD SVG 1.1//EN"
 "http://www.w3.org/Graphics/SVG/1.1/DTD/svg11.dtd">
<!-- Generated by graphviz version 2.43.0 (0)
 -->
<!-- Title: oneDegreeRelationshipsDiagramImplied Pages: 1 -->
<svg width="848pt" height="668pt"
 viewBox="0.00 0.00 848.37 668.00" xmlns="http://www.w3.org/2000/svg" xmlns:xlink="http://www.w3.org/1999/xlink">
<g id="graph0" class="graph" transform="scale(1 1) rotate(0) translate(4 664)">
<title>oneDegreeRelationshipsDiagramImplied</title>
<polygon fill="#ffffff" stroke="transparent" points="-4,4 -4,-664 844.37,-664 844.37,4 -4,4"/>
<text text-anchor="middle" x="71.5" y="-7.2" font-family="Helvetica,sans-Serif" font-size="11.00">Generated by SchemaSpy</text>
<!-- cof_orcamento -->
<g id="node1" class="node">
<title>cof_orcamento</title>
<g id="a_node1"><a xlink:href="../../tables/cof_orcamento.html" xlink:title="cof_orcamento" target="_top">
<polygon fill="#ffffff" stroke="transparent" points="41.37,-37 41.37,-521 324.37,-521 324.37,-37 41.37,-37"/>
<polygon fill="#f5f5f5" stroke="transparent" points="43.87,-497 43.87,-519 322.87,-519 322.87,-497 43.87,-497"/>
<polygon fill="none" stroke="black" points="43.87,-497 43.87,-519 322.87,-519 322.87,-497 43.87,-497"/>
<text text-anchor="start" x="48.87" y="-506.2" font-family="Helvetica,sans-Serif" font-weight="bold" font-size="11.00">cof_orcamento</text>
<text text-anchor="start" x="287.87" y="-505.2" font-family="Helvetica,sans-Serif" font-size="11.00">[table]</text>
<polygon fill="none" stroke="black" points="43.87,-475 43.87,-497 239.87,-497 239.87,-475 43.87,-475"/>
<image xlink:href="../../images/primaryKeys.png" width="11px" height="12px" preserveAspectRatio="xMinYMin meet" x="48.8684" y="-492"/>
<text text-anchor="start" x="63.87" y="-483.2" font-family="Helvetica,sans-Serif" font-size="11.00">cof_orcamento_id</text>
<polygon fill="none" stroke="black" points="239.87,-475 239.87,-497 322.87,-497 322.87,-475 239.87,-475"/>
<text text-anchor="start" x="242.87" y="-483.2" font-family="Helvetica,sans-Serif" font-size="11.00">numeric[10]</text>
<polygon fill="#ffffff" stroke="transparent" points="43.87,-453 43.87,-475 239.87,-475 239.87,-453 43.87,-453"/>
<polygon fill="none" stroke="black" points="43.87,-453 43.87,-475 239.87,-475 239.87,-453 43.87,-453"/>
<text text-anchor="start" x="63.87" y="-461.2" font-family="Helvetica,sans-Serif" font-size="11.00">cof_orcamento_uu</text>
<polygon fill="none" stroke="black" points="239.87,-453 239.87,-475 322.87,-475 322.87,-453 239.87,-453"/>
<text text-anchor="start" x="242.87" y="-461.2" font-family="Helvetica,sans-Serif" font-size="11.00">varchar[36]</text>
<polygon fill="none" stroke="black" points="43.87,-431 43.87,-453 239.87,-453 239.87,-431 43.87,-431"/>
<text text-anchor="start" x="63.87" y="-439.2" font-family="Helvetica,sans-Serif" font-size="11.00">ad_client_id</text>
<polygon fill="none" stroke="black" points="239.87,-431 239.87,-453 322.87,-453 322.87,-431 239.87,-431"/>
<text text-anchor="start" x="242.87" y="-439.2" font-family="Helvetica,sans-Serif" font-size="11.00">numeric[10]</text>
<polygon fill="none" stroke="black" points="43.87,-409 43.87,-431 239.87,-431 239.87,-409 43.87,-409"/>
<text text-anchor="start" x="63.87" y="-417.2" font-family="Helvetica,sans-Serif" font-size="11.00">ad_org_id</text>
<polygon fill="none" stroke="black" points="239.87,-409 239.87,-431 322.87,-431 322.87,-409 239.87,-409"/>
<text text-anchor="start" x="242.87" y="-417.2" font-family="Helvetica,sans-Serif" font-size="11.00">numeric[10]</text>
<polygon fill="none" stroke="black" points="43.87,-387 43.87,-409 239.87,-409 239.87,-387 43.87,-387"/>
<text text-anchor="start" x="63.87" y="-395.2" font-family="Helvetica,sans-Serif" font-size="11.00">isactive</text>
<polygon fill="none" stroke="black" points="239.87,-387 239.87,-409 322.87,-409 322.87,-387 239.87,-387"/>
<text text-anchor="start" x="242.87" y="-395.2" font-family="Helvetica,sans-Serif" font-size="11.00">bpchar[1]</text>
<polygon fill="none" stroke="black" points="43.87,-365 43.87,-387 239.87,-387 239.87,-365 43.87,-365"/>
<text text-anchor="start" x="63.87" y="-373.2" font-family="Helvetica,sans-Serif" font-size="11.00">created</text>
<polygon fill="none" stroke="black" points="239.87,-365 239.87,-387 322.87,-387 322.87,-365 239.87,-365"/>
<text text-anchor="start" x="242.87" y="-373.2" font-family="Helvetica,sans-Serif" font-size="11.00">timestamp[29,6]</text>
<polygon fill="none" stroke="black" points="43.87,-343 43.87,-365 239.87,-365 239.87,-343 43.87,-343"/>
<text text-anchor="start" x="63.87" y="-351.2" font-family="Helvetica,sans-Serif" font-size="11.00">createdby</text>
<polygon fill="none" stroke="black" points="239.87,-343 239.87,-365 322.87,-365 322.87,-343 239.87,-343"/>
<text text-anchor="start" x="242.87" y="-351.2" font-family="Helvetica,sans-Serif" font-size="11.00">numeric[10]</text>
<polygon fill="none" stroke="black" points="43.87,-321 43.87,-343 239.87,-343 239.87,-321 43.87,-321"/>
<text text-anchor="start" x="63.87" y="-329.2" font-family="Helvetica,sans-Serif" font-size="11.00">updated</text>
<polygon fill="none" stroke="black" points="239.87,-321 239.87,-343 322.87,-343 322.87,-321 239.87,-321"/>
<text text-anchor="start" x="242.87" y="-329.2" font-family="Helvetica,sans-Serif" font-size="11.00">timestamp[29,6]</text>
<polygon fill="none" stroke="black" points="43.87,-299 43.87,-321 239.87,-321 239.87,-299 43.87,-299"/>
<text text-anchor="start" x="63.87" y="-307.2" font-family="Helvetica,sans-Serif" font-size="11.00">updatedby</text>
<polygon fill="none" stroke="black" points="239.87,-299 239.87,-321 322.87,-321 322.87,-299 239.87,-299"/>
<text text-anchor="start" x="242.87" y="-307.2" font-family="Helvetica,sans-Serif" font-size="11.00">numeric[10]</text>
<polygon fill="none" stroke="black" points="43.87,-277 43.87,-299 239.87,-299 239.87,-277 43.87,-277"/>
<text text-anchor="start" x="63.87" y="-285.2" font-family="Helvetica,sans-Serif" font-size="11.00">value</text>
<polygon fill="none" stroke="black" points="239.87,-277 239.87,-299 322.87,-299 322.87,-277 239.87,-277"/>
<text text-anchor="start" x="242.87" y="-285.2" font-family="Helvetica,sans-Serif" font-size="11.00">varchar[40]</text>
<polygon fill="none" stroke="black" points="43.87,-255 43.87,-277 239.87,-277 239.87,-255 43.87,-255"/>
<text text-anchor="start" x="63.87" y="-263.2" font-family="Helvetica,sans-Serif" font-size="11.00">description</text>
<polygon fill="none" stroke="black" points="239.87,-255 239.87,-277 322.87,-277 322.87,-255 239.87,-255"/>
<text text-anchor="start" x="242.87" y="-263.2" font-family="Helvetica,sans-Serif" font-size="11.00">varchar[255]</text>
<polygon fill="none" stroke="black" points="43.87,-233 43.87,-255 239.87,-255 239.87,-233 43.87,-233"/>
<text text-anchor="start" x="63.87" y="-241.2" font-family="Helvetica,sans-Serif" font-size="11.00">datefrom</text>
<polygon fill="none" stroke="black" points="239.87,-233 239.87,-255 322.87,-255 322.87,-233 239.87,-233"/>
<text text-anchor="start" x="242.87" y="-241.2" font-family="Helvetica,sans-Serif" font-size="11.00">timestamp[29,6]</text>
<polygon fill="none" stroke="black" points="43.87,-211 43.87,-233 239.87,-233 239.87,-211 43.87,-211"/>
<text text-anchor="start" x="63.87" y="-219.2" font-family="Helvetica,sans-Serif" font-size="11.00">dateto</text>
<polygon fill="none" stroke="black" points="239.87,-211 239.87,-233 322.87,-233 322.87,-211 239.87,-211"/>
<text text-anchor="start" x="242.87" y="-219.2" font-family="Helvetica,sans-Serif" font-size="11.00">timestamp[29,6]</text>
<polygon fill="none" stroke="black" points="43.87,-189 43.87,-211 239.87,-211 239.87,-189 43.87,-189"/>
<text text-anchor="start" x="63.87" y="-197.2" font-family="Helvetica,sans-Serif" font-size="11.00">cof_tipoorcamento</text>
<polygon fill="none" stroke="black" points="239.87,-189 239.87,-211 322.87,-211 322.87,-189 239.87,-189"/>
<text text-anchor="start" x="242.87" y="-197.2" font-family="Helvetica,sans-Serif" font-size="11.00">varchar[2]</text>
<polygon fill="none" stroke="black" points="43.87,-167 43.87,-189 239.87,-189 239.87,-167 43.87,-167"/>
<image xlink:href="../../images/foreignKeys.png" width="11px" height="12px" preserveAspectRatio="xMinYMin meet" x="48.8684" y="-184"/>
<text text-anchor="start" x="63.87" y="-175.2" font-family="Helvetica,sans-Serif" font-size="11.00">cof_orcamentorevisado_id</text>
<polygon fill="none" stroke="black" points="239.87,-167 239.87,-189 322.87,-189 322.87,-167 239.87,-167"/>
<text text-anchor="start" x="242.87" y="-175.2" font-family="Helvetica,sans-Serif" font-size="11.00">numeric[10]</text>
<polygon fill="none" stroke="black" points="43.87,-145 43.87,-167 239.87,-167 239.87,-145 43.87,-145"/>
<text text-anchor="start" x="63.87" y="-153.2" font-family="Helvetica,sans-Serif" font-size="11.00">cof_emvigor</text>
<polygon fill="none" stroke="black" points="239.87,-145 239.87,-167 322.87,-167 322.87,-145 239.87,-145"/>
<text text-anchor="start" x="242.87" y="-153.2" font-family="Helvetica,sans-Serif" font-size="11.00">bpchar[1]</text>
<polygon fill="none" stroke="black" points="43.87,-123 43.87,-145 239.87,-145 239.87,-123 43.87,-123"/>
<text text-anchor="start" x="63.87" y="-131.2" font-family="Helvetica,sans-Serif" font-size="11.00">processing</text>
<polygon fill="none" stroke="black" points="239.87,-123 239.87,-145 322.87,-145 322.87,-123 239.87,-123"/>
<text text-anchor="start" x="242.87" y="-131.2" font-family="Helvetica,sans-Serif" font-size="11.00">bpchar[1]</text>
<polygon fill="none" stroke="black" points="43.87,-101 43.87,-123 239.87,-123 239.87,-101 43.87,-101"/>
<text text-anchor="start" x="63.87" y="-109.2" font-family="Helvetica,sans-Serif" font-size="11.00">processing2</text>
<polygon fill="none" stroke="black" points="239.87,-101 239.87,-123 322.87,-123 322.87,-101 239.87,-101"/>
<text text-anchor="start" x="242.87" y="-109.2" font-family="Helvetica,sans-Serif" font-size="11.00">bpchar[1]</text>
<polygon fill="none" stroke="black" points="43.87,-79 43.87,-101 239.87,-101 239.87,-79 43.87,-79"/>
<text text-anchor="start" x="63.87" y="-87.2" font-family="Helvetica,sans-Serif" font-size="11.00">cof_processing</text>
<polygon fill="none" stroke="black" points="239.87,-79 239.87,-101 322.87,-101 322.87,-79 239.87,-79"/>
<text text-anchor="start" x="242.87" y="-87.2" font-family="Helvetica,sans-Serif" font-size="11.00">bpchar[1]</text>
<polygon fill="none" stroke="black" points="43.87,-57 43.87,-79 239.87,-79 239.87,-57 43.87,-57"/>
<text text-anchor="start" x="63.87" y="-65.2" font-family="Helvetica,sans-Serif" font-size="11.00">cof_ultimaatualizacao</text>
<polygon fill="none" stroke="black" points="239.87,-57 239.87,-79 322.87,-79 322.87,-57 239.87,-57"/>
<text text-anchor="start" x="242.87" y="-65.2" font-family="Helvetica,sans-Serif" font-size="11.00">timestamp[29,6]</text>
<polygon fill="#ffffff" stroke="transparent" points="43.87,-39 43.87,-57 132.87,-57 132.87,-39 43.87,-39"/>
<polygon fill="none" stroke="black" points="43.87,-39 43.87,-57 132.87,-57 132.87,-39 43.87,-39"/>
<text text-anchor="start" x="46.87" y="-45.2" font-family="Helvetica,sans-Serif" font-size="11.00">&lt; 1</text>
<polygon fill="#ffffff" stroke="transparent" points="132.87,-39 132.87,-57 239.87,-57 239.87,-39 132.87,-39"/>
<polygon fill="none" stroke="black" points="132.87,-39 132.87,-57 239.87,-57 239.87,-39 132.87,-39"/>
<text text-anchor="start" x="203.87" y="-45.2" font-family="Helvetica,sans-Serif" font-size="11.00">0 rows</text>
<polygon fill="#ffffff" stroke="transparent" points="239.87,-39 239.87,-57 322.87,-57 322.87,-39 239.87,-39"/>
<polygon fill="none" stroke="black" points="239.87,-39 239.87,-57 322.87,-57 322.87,-39 239.87,-39"/>
<text text-anchor="start" x="303.87" y="-45.2" font-family="Helvetica,sans-Serif" font-size="11.00">4 &gt;</text>
<polygon fill="none" stroke="black" stroke-width="2" points="42.37,-38 42.37,-520 323.37,-520 323.37,-38 42.37,-38"/>
</a>
</g>
</g>
<!-- cof_orcamento&#45;&gt;cof_orcamento -->
<g id="edge1" class="edge">
<title>cof_orcamento:w&#45;&gt;cof_orcamento:e</title>
<path fill="none" stroke="black" d="M35.19,-189.83C-27.76,-286.83 -19.25,-538 183.37,-538 394.87,-538 394.87,-529.33 322.87,-486"/>
<polygon fill="black" stroke="black" points="39.14,-184.45 46.77,-180.13 41.5,-181.23 43.87,-178 43.87,-178 43.87,-178 41.5,-181.23 40.97,-175.87 39.14,-184.45 39.14,-184.45"/>
<ellipse fill="none" stroke="black" cx="37.24" cy="-187.03" rx="3.2" ry="3.2"/>
</g>
<!-- cof_orcamentoorgs -->
<g id="node2" class="node">
<title>cof_orcamentoorgs</title>
<g id="a_node2"><a xlink:href="../../tables/cof_orcamentoorgs.html" xlink:title="cof_orcamentoorgs" target="_top">
<polygon fill="#ffffff" stroke="transparent" points="384.37,-510 384.37,-656 557.37,-656 557.37,-510 384.37,-510"/>
<polygon fill="#f5f5f5" stroke="transparent" points="384.87,-634 384.87,-656 557.87,-656 557.87,-634 384.87,-634"/>
<polygon fill="none" stroke="black" points="384.87,-634 384.87,-656 557.87,-656 557.87,-634 384.87,-634"/>
<text text-anchor="start" x="389.87" y="-643.2" font-family="Helvetica,sans-Serif" font-weight="bold" font-size="11.00">cof_orcamentoorgs</text>
<text text-anchor="start" x="522.87" y="-642.2" font-family="Helvetica,sans-Serif" font-size="11.00">[table]</text>
<polygon fill="none" stroke="black" points="384.87,-612 384.87,-634 557.87,-634 557.87,-612 384.87,-612"/>
<image xlink:href="../../images/primaryKeys.png" width="11px" height="12px" preserveAspectRatio="xMinYMin meet" x="389.868" y="-629"/>
<text text-anchor="start" x="404.87" y="-620.2" font-family="Helvetica,sans-Serif" font-size="11.00">cof_orcamentoorgs_id</text>
<polygon fill="#ffffff" stroke="transparent" points="384.87,-590 384.87,-612 557.87,-612 557.87,-590 384.87,-590"/>
<polygon fill="none" stroke="black" points="384.87,-590 384.87,-612 557.87,-612 557.87,-590 384.87,-590"/>
<text text-anchor="start" x="404.87" y="-598.2" font-family="Helvetica,sans-Serif" font-size="11.00">cof_orcamentoorgs_uu</text>
<polygon fill="none" stroke="black" points="384.87,-568 384.87,-590 557.87,-590 557.87,-568 384.87,-568"/>
<image xlink:href="../../images/foreignKeys.png" width="11px" height="12px" preserveAspectRatio="xMinYMin meet" x="389.868" y="-585"/>
<text text-anchor="start" x="404.87" y="-576.2" font-family="Helvetica,sans-Serif" font-size="11.00">cof_orcamento_id</text>
<polygon fill="#ffffff" stroke="transparent" points="384.87,-546 384.87,-568 557.87,-568 557.87,-546 384.87,-546"/>
<polygon fill="none" stroke="black" points="384.87,-546 384.87,-568 557.87,-568 557.87,-546 384.87,-546"/>
<image xlink:href="../../images/foreignKeys.png" width="11px" height="12px" preserveAspectRatio="xMinYMin meet" x="389.868" y="-563"/>
<text text-anchor="start" x="404.87" y="-554.2" font-family="Helvetica,sans-Serif" font-size="11.00">cof_orgorcamento_id</text>
<polygon fill="none" stroke="black" points="384.87,-528 384.87,-546 557.87,-546 557.87,-528 384.87,-528"/>
<text text-anchor="start" x="387.87" y="-534.2" font-family="Helvetica,sans-Serif" font-size="11.00">...</text>
<polygon fill="#ffffff" stroke="transparent" points="384.87,-510 384.87,-528 455.87,-528 455.87,-510 384.87,-510"/>
<polygon fill="none" stroke="black" points="384.87,-510 384.87,-528 455.87,-528 455.87,-510 384.87,-510"/>
<text text-anchor="start" x="387.87" y="-516.2" font-family="Helvetica,sans-Serif" font-size="11.00">&lt; 2</text>
<polygon fill="#ffffff" stroke="transparent" points="455.87,-510 455.87,-528 519.87,-528 519.87,-510 455.87,-510"/>
<polygon fill="none" stroke="black" points="455.87,-510 455.87,-528 519.87,-528 519.87,-510 455.87,-510"/>
<text text-anchor="start" x="483.87" y="-516.2" font-family="Helvetica,sans-Serif" font-size="11.00">0 rows</text>
<polygon fill="#ffffff" stroke="transparent" points="519.87,-510 519.87,-528 557.87,-528 557.87,-510 519.87,-510"/>
<polygon fill="none" stroke="black" points="519.87,-510 519.87,-528 557.87,-528 557.87,-510 519.87,-510"/>
<text text-anchor="start" x="547.87" y="-516.2" font-family="Helvetica,sans-Serif" font-size="11.00"> &#160;</text>
</a>
</g>
</g>
<!-- cof_orcamentoorgs&#45;&gt;cof_orcamento -->
<g id="edge2" class="edge">
<title>cof_orcamentoorgs:w&#45;&gt;cof_orcamento:e</title>
<path fill="none" stroke="black" d="M369.9,-575.47C342.47,-558.48 367.29,-486 323.87,-486"/>
<polygon fill="black" stroke="black" points="376.11,-577.04 382.99,-582.49 379.99,-578.02 383.87,-579 383.87,-579 383.87,-579 379.99,-578.02 384.75,-575.51 376.11,-577.04 376.11,-577.04"/>
<ellipse fill="none" stroke="black" cx="373.01" cy="-576.25" rx="3.2" ry="3.2"/>
</g>
<!-- cof_orcamentoperiodo -->
<g id="node3" class="node">
<title>cof_orcamentoperiodo</title>
<g id="a_node3"><a xlink:href="../../tables/cof_orcamentoperiodo.html" xlink:title="cof_orcamentoperiodo" target="_top">
<polygon fill="#ffffff" stroke="transparent" points="373.37,-338 373.37,-462 568.37,-462 568.37,-338 373.37,-338"/>
<polygon fill="#f5f5f5" stroke="transparent" points="373.87,-440 373.87,-462 568.87,-462 568.87,-440 373.87,-440"/>
<polygon fill="none" stroke="black" points="373.87,-440 373.87,-462 568.87,-462 568.87,-440 373.87,-440"/>
<text text-anchor="start" x="378.87" y="-449.2" font-family="Helvetica,sans-Serif" font-weight="bold" font-size="11.00">cof_orcamentoperiodo</text>
<text text-anchor="start" x="533.87" y="-448.2" font-family="Helvetica,sans-Serif" font-size="11.00">[table]</text>
<polygon fill="none" stroke="black" points="373.87,-418 373.87,-440 568.87,-440 568.87,-418 373.87,-418"/>
<image xlink:href="../../images/primaryKeys.png" width="11px" height="12px" preserveAspectRatio="xMinYMin meet" x="378.868" y="-435"/>
<text text-anchor="start" x="393.87" y="-426.2" font-family="Helvetica,sans-Serif" font-size="11.00">cof_orcamentoperiodo_id</text>
<polygon fill="#ffffff" stroke="transparent" points="373.87,-396 373.87,-418 568.87,-418 568.87,-396 373.87,-396"/>
<polygon fill="none" stroke="black" points="373.87,-396 373.87,-418 568.87,-418 568.87,-396 373.87,-396"/>
<text text-anchor="start" x="393.87" y="-404.2" font-family="Helvetica,sans-Serif" font-size="11.00">cof_orcamentoperiodo_uu</text>
<polygon fill="none" stroke="black" points="373.87,-374 373.87,-396 568.87,-396 568.87,-374 373.87,-374"/>
<image xlink:href="../../images/foreignKeys.png" width="11px" height="12px" preserveAspectRatio="xMinYMin meet" x="378.868" y="-391"/>
<text text-anchor="start" x="393.87" y="-382.2" font-family="Helvetica,sans-Serif" font-size="11.00">cof_orcamento_id</text>
<polygon fill="none" stroke="black" points="373.87,-356 373.87,-374 568.87,-374 568.87,-356 373.87,-356"/>
<text text-anchor="start" x="376.87" y="-362.2" font-family="Helvetica,sans-Serif" font-size="11.00">...</text>
<polygon fill="#ffffff" stroke="transparent" points="373.87,-338 373.87,-356 451.87,-356 451.87,-338 373.87,-338"/>
<polygon fill="none" stroke="black" points="373.87,-338 373.87,-356 451.87,-356 451.87,-338 373.87,-338"/>
<text text-anchor="start" x="376.87" y="-344.2" font-family="Helvetica,sans-Serif" font-size="11.00">&lt; 1</text>
<polygon fill="#ffffff" stroke="transparent" points="451.87,-338 451.87,-356 518.87,-356 518.87,-338 451.87,-338"/>
<polygon fill="none" stroke="black" points="451.87,-338 451.87,-356 518.87,-356 518.87,-338 451.87,-338"/>
<text text-anchor="start" x="482.87" y="-344.2" font-family="Helvetica,sans-Serif" font-size="11.00">0 rows</text>
<polygon fill="#ffffff" stroke="transparent" points="518.87,-338 518.87,-356 568.87,-356 568.87,-338 518.87,-338"/>
<polygon fill="none" stroke="black" points="518.87,-338 518.87,-356 568.87,-356 568.87,-338 518.87,-338"/>
<text text-anchor="start" x="549.87" y="-344.2" font-family="Helvetica,sans-Serif" font-size="11.00">2 &gt;</text>
</a>
</g>
</g>
<!-- cof_orcamentoperiodo&#45;&gt;cof_orcamento -->
<g id="edge3" class="edge">
<title>cof_orcamentoperiodo:w&#45;&gt;cof_orcamento:e</title>
<path fill="none" stroke="black" d="M358.81,-389.08C333.8,-407.98 367.72,-486 323.87,-486"/>
<polygon fill="black" stroke="black" points="365.19,-387.23 373.87,-388.46 369.03,-386.12 372.87,-385 372.87,-385 372.87,-385 369.03,-386.12 371.86,-381.54 365.19,-387.23 365.19,-387.23"/>
<ellipse fill="none" stroke="black" cx="362.11" cy="-388.13" rx="3.2" ry="3.2"/>
</g>
<!-- cof_rv_detalhesorcamento -->
<g id="node4" class="node">
<title>cof_rv_detalhesorcamento</title>
<g id="a_node4"><a xlink:href="../../tables/cof_rv_detalhesorcamento.html" xlink:title="cof_rv_detalhesorcamento" target="_top">
<polygon fill="#ffffff" stroke="transparent" points="617.37,-395 617.37,-501 832.37,-501 832.37,-395 617.37,-395"/>
<polygon fill="#f5f5f5" stroke="transparent" points="617.87,-479 617.87,-501 832.87,-501 832.87,-479 617.87,-479"/>
<polygon fill="none" stroke="black" points="617.87,-479 617.87,-501 832.87,-501 832.87,-479 617.87,-479"/>
<text text-anchor="start" x="622.87" y="-488.2" font-family="Helvetica,sans-Serif" font-weight="bold" font-size="11.00">cof_rv_detalhesorcamento</text>
<text text-anchor="start" x="799.87" y="-487.2" font-family="Helvetica,sans-Serif" font-size="11.00">[view]</text>
<polygon fill="none" stroke="black" points="617.87,-457 617.87,-479 832.87,-479 832.87,-457 617.87,-457"/>
<image xlink:href="../../images/foreignKeys.png" width="11px" height="12px" preserveAspectRatio="xMinYMin meet" x="622.868" y="-474"/>
<text text-anchor="start" x="646.87" y="-465.2" font-family="Helvetica,sans-Serif" font-size="11.00">cof_orcamento_id</text>
<polygon fill="none" stroke="black" points="617.87,-435 617.87,-457 832.87,-457 832.87,-435 617.87,-435"/>
<image xlink:href="../../images/foreignKeys.png" width="11px" height="12px" preserveAspectRatio="xMinYMin meet" x="622.868" y="-452"/>
<text text-anchor="start" x="646.87" y="-443.2" font-family="Helvetica,sans-Serif" font-size="11.00">cof_orcamentoperiodo_id</text>
<polygon fill="none" stroke="black" points="617.87,-413 617.87,-435 832.87,-435 832.87,-413 617.87,-413"/>
<image xlink:href="../../images/foreignKeys.png" width="11px" height="12px" preserveAspectRatio="xMinYMin meet" x="622.868" y="-430"/>
<text text-anchor="start" x="646.87" y="-421.2" font-family="Helvetica,sans-Serif" font-size="11.00">cof_orcamentogrupo_id</text>
<polygon fill="none" stroke="black" points="617.87,-395 617.87,-413 832.87,-413 832.87,-395 617.87,-395"/>
<text text-anchor="start" x="620.87" y="-401.2" font-family="Helvetica,sans-Serif" font-size="11.00">...</text>
</a>
</g>
</g>
<!-- cof_rv_detalhesorcamento&#45;&gt;cof_orcamento -->
<g id="edge4" class="edge">
<title>cof_rv_detalhesorcamento:w&#45;&gt;cof_orcamento:e</title>
<path fill="none" stroke="black" stroke-dasharray="5,2" d="M602.23,-468.96C594.29,-470.09 588.37,-471.95 576.37,-473 464.42,-482.78 436.24,-486 323.87,-486"/>
<polygon fill="black" stroke="black" points="608.89,-468.52 617.1,-471.59 612.88,-468.26 616.87,-468 616.87,-468 616.87,-468 612.88,-468.26 616.63,-464.41 608.89,-468.52 608.89,-468.52"/>
<ellipse fill="none" stroke="black" cx="605.69" cy="-468.73" rx="3.2" ry="3.2"/>
</g>
<!-- cof_rv_detalhesorcamento&#45;&gt;cof_orcamentoperiodo -->
<g id="edge5" class="edge">
<title>cof_rv_detalhesorcamento:w&#45;&gt;cof_orcamentoperiodo:e</title>
<path fill="none" stroke="black" stroke-dasharray="5,2" d="M602.59,-443.04C591.9,-438.17 586.18,-429 569.87,-429"/>
<polygon fill="black" stroke="black" points="609.04,-444.38 616.14,-449.53 612.95,-445.19 616.87,-446 616.87,-446 616.87,-446 612.95,-445.19 617.6,-442.47 609.04,-444.38 609.04,-444.38"/>
<ellipse fill="none" stroke="black" cx="605.9" cy="-443.73" rx="3.2" ry="3.2"/>
</g>
</g>
</svg>
