<?xml version="1.0" encoding="UTF-8" standalone="no"?>
<!DOCTYPE svg PUBLIC "-//W3C//DTD SVG 1.1//EN"
 "http://www.w3.org/Graphics/SVG/1.1/DTD/svg11.dtd">
<!-- Generated by graphviz version 2.43.0 (0)
 -->
<!-- Title: oneDegreeRelationshipsDiagramImplied Pages: 1 -->
<svg width="542pt" height="516pt"
 viewBox="0.00 0.00 542.00 516.00" xmlns="http://www.w3.org/2000/svg" xmlns:xlink="http://www.w3.org/1999/xlink">
<g id="graph0" class="graph" transform="scale(1 1) rotate(0) translate(4 512)">
<title>oneDegreeRelationshipsDiagramImplied</title>
<polygon fill="#ffffff" stroke="transparent" points="-4,4 -4,-512 538,-512 538,4 -4,4"/>
<text text-anchor="middle" x="71.5" y="-7.2" font-family="Helvetica,sans-Serif" font-size="11.00">Generated by SchemaSpy</text>
<!-- cof_selection -->
<g id="node1" class="node">
<title>cof_selection</title>
<g id="a_node1"><a xlink:href="../../tables/cof_selection.html" xlink:title="cof_selection" target="_top">
<polygon fill="#ffffff" stroke="transparent" points="258,-191 258,-367 526,-367 526,-191 258,-191"/>
<polygon fill="#f5f5f5" stroke="transparent" points="260,-343 260,-365 524,-365 524,-343 260,-343"/>
<polygon fill="none" stroke="black" points="260,-343 260,-365 524,-365 524,-343 260,-343"/>
<text text-anchor="start" x="265" y="-352.2" font-family="Helvetica,sans-Serif" font-weight="bold" font-size="11.00">cof_selection</text>
<text text-anchor="start" x="489" y="-351.2" font-family="Helvetica,sans-Serif" font-size="11.00">[table]</text>
<polygon fill="none" stroke="black" points="260,-321 260,-343 457,-343 457,-321 260,-321"/>
<image xlink:href="../../images/foreignKeys.png" width="11px" height="12px" preserveAspectRatio="xMinYMin meet" x="265" y="-338"/>
<text text-anchor="start" x="280" y="-329.2" font-family="Helvetica,sans-Serif" font-size="11.00">ad_pinstance_id</text>
<polygon fill="none" stroke="black" points="457,-321 457,-343 524,-343 524,-321 457,-321"/>
<text text-anchor="start" x="460" y="-329.2" font-family="Helvetica,sans-Serif" font-size="11.00">numeric[10]</text>
<polygon fill="none" stroke="black" points="260,-299 260,-321 457,-321 457,-299 260,-299"/>
<text text-anchor="start" x="280" y="-307.2" font-family="Helvetica,sans-Serif" font-size="11.00">cof_selection_id</text>
<polygon fill="none" stroke="black" points="457,-299 457,-321 524,-321 524,-299 457,-299"/>
<text text-anchor="start" x="460" y="-307.2" font-family="Helvetica,sans-Serif" font-size="11.00">numeric[10]</text>
<polygon fill="none" stroke="black" points="260,-277 260,-299 457,-299 457,-277 260,-277"/>
<image xlink:href="../../images/foreignKeys.png" width="11px" height="12px" preserveAspectRatio="xMinYMin meet" x="265" y="-294"/>
<text text-anchor="start" x="280" y="-285.2" font-family="Helvetica,sans-Serif" font-size="11.00">m_attributesetinstance_id</text>
<polygon fill="none" stroke="black" points="457,-277 457,-299 524,-299 524,-277 457,-277"/>
<text text-anchor="start" x="460" y="-285.2" font-family="Helvetica,sans-Serif" font-size="11.00">numeric[10]</text>
<polygon fill="none" stroke="black" points="260,-255 260,-277 457,-277 457,-255 260,-255"/>
<text text-anchor="start" x="280" y="-263.2" font-family="Helvetica,sans-Serif" font-size="11.00">cof_qty</text>
<polygon fill="none" stroke="black" points="457,-255 457,-277 524,-277 524,-255 457,-255"/>
<text text-anchor="start" x="460" y="-263.2" font-family="Helvetica,sans-Serif" font-size="11.00">numeric[10]</text>
<polygon fill="none" stroke="black" points="260,-233 260,-255 457,-255 457,-233 260,-233"/>
<text text-anchor="start" x="280" y="-241.2" font-family="Helvetica,sans-Serif" font-size="11.00">lot</text>
<polygon fill="none" stroke="black" points="457,-233 457,-255 524,-255 524,-233 457,-233"/>
<text text-anchor="start" x="460" y="-241.2" font-family="Helvetica,sans-Serif" font-size="11.00">varchar[100]</text>
<polygon fill="none" stroke="black" points="260,-211 260,-233 457,-233 457,-211 260,-211"/>
<text text-anchor="start" x="280" y="-219.2" font-family="Helvetica,sans-Serif" font-size="11.00">serno</text>
<polygon fill="none" stroke="black" points="457,-211 457,-233 524,-233 524,-211 457,-211"/>
<text text-anchor="start" x="460" y="-219.2" font-family="Helvetica,sans-Serif" font-size="11.00">varchar[100]</text>
<polygon fill="#ffffff" stroke="transparent" points="260,-193 260,-211 350,-211 350,-193 260,-193"/>
<polygon fill="none" stroke="black" points="260,-193 260,-211 350,-211 350,-193 260,-193"/>
<text text-anchor="start" x="263" y="-199.2" font-family="Helvetica,sans-Serif" font-size="11.00">&lt; 2</text>
<polygon fill="#ffffff" stroke="transparent" points="350,-193 350,-211 457,-211 457,-193 350,-193"/>
<polygon fill="none" stroke="black" points="350,-193 350,-211 457,-211 457,-193 350,-193"/>
<text text-anchor="start" x="421" y="-199.2" font-family="Helvetica,sans-Serif" font-size="11.00">0 rows</text>
<polygon fill="#ffffff" stroke="transparent" points="457,-193 457,-211 524,-211 524,-193 457,-193"/>
<polygon fill="none" stroke="black" points="457,-193 457,-211 524,-211 524,-193 457,-193"/>
<text text-anchor="start" x="505" y="-199.2" font-family="Helvetica,sans-Serif" font-size="11.00">0 &gt;</text>
<polygon fill="none" stroke="black" stroke-width="2" points="259,-192 259,-366 525,-366 525,-192 259,-192"/>
</a>
</g>
</g>
<!-- ad_pinstance -->
<g id="node2" class="node">
<title>ad_pinstance</title>
<g id="a_node2"><a xlink:href="../../tables/ad_pinstance.html" xlink:title="ad_pinstance" target="_top">
<polygon fill="#ffffff" stroke="transparent" points="38,-204 38,-504 179,-504 179,-204 38,-204"/>
<polygon fill="#f5f5f5" stroke="transparent" points="38.5,-482 38.5,-504 179.5,-504 179.5,-482 38.5,-482"/>
<polygon fill="none" stroke="black" points="38.5,-482 38.5,-504 179.5,-504 179.5,-482 38.5,-482"/>
<text text-anchor="start" x="43.5" y="-491.2" font-family="Helvetica,sans-Serif" font-weight="bold" font-size="11.00">ad_pinstance</text>
<text text-anchor="start" x="144.5" y="-490.2" font-family="Helvetica,sans-Serif" font-size="11.00">[table]</text>
<polygon fill="none" stroke="black" points="38.5,-460 38.5,-482 179.5,-482 179.5,-460 38.5,-460"/>
<image xlink:href="../../images/primaryKeys.png" width="11px" height="12px" preserveAspectRatio="xMinYMin meet" x="43.5" y="-477"/>
<text text-anchor="start" x="58.5" y="-468.2" font-family="Helvetica,sans-Serif" font-size="11.00">ad_pinstance_id</text>
<polygon fill="#ffffff" stroke="transparent" points="38.5,-438 38.5,-460 179.5,-460 179.5,-438 38.5,-438"/>
<polygon fill="none" stroke="black" points="38.5,-438 38.5,-460 179.5,-460 179.5,-438 38.5,-438"/>
<image xlink:href="../../images/foreignKeys.png" width="11px" height="12px" preserveAspectRatio="xMinYMin meet" x="43.5" y="-455"/>
<text text-anchor="start" x="58.5" y="-446.2" font-family="Helvetica,sans-Serif" font-size="11.00">ad_process_id</text>
<polygon fill="#ffffff" stroke="transparent" points="38.5,-416 38.5,-438 179.5,-438 179.5,-416 38.5,-416"/>
<polygon fill="none" stroke="black" points="38.5,-416 38.5,-438 179.5,-438 179.5,-416 38.5,-416"/>
<text text-anchor="start" x="58.5" y="-424.2" font-family="Helvetica,sans-Serif" font-size="11.00">record_id</text>
<polygon fill="#ffffff" stroke="transparent" points="38.5,-394 38.5,-416 179.5,-416 179.5,-394 38.5,-394"/>
<polygon fill="none" stroke="black" points="38.5,-394 38.5,-416 179.5,-416 179.5,-394 38.5,-394"/>
<image xlink:href="../../images/foreignKeys.png" width="11px" height="12px" preserveAspectRatio="xMinYMin meet" x="43.5" y="-411"/>
<text text-anchor="start" x="58.5" y="-402.2" font-family="Helvetica,sans-Serif" font-size="11.00">ad_user_id</text>
<polygon fill="#ffffff" stroke="transparent" points="38.5,-372 38.5,-394 179.5,-394 179.5,-372 38.5,-372"/>
<polygon fill="none" stroke="black" points="38.5,-372 38.5,-394 179.5,-394 179.5,-372 38.5,-372"/>
<text text-anchor="start" x="58.5" y="-380.2" font-family="Helvetica,sans-Serif" font-size="11.00">ad_client_id</text>
<polygon fill="#ffffff" stroke="transparent" points="38.5,-350 38.5,-372 179.5,-372 179.5,-350 38.5,-350"/>
<polygon fill="none" stroke="black" points="38.5,-350 38.5,-372 179.5,-372 179.5,-350 38.5,-350"/>
<text text-anchor="start" x="58.5" y="-358.2" font-family="Helvetica,sans-Serif" font-size="11.00">isactive</text>
<polygon fill="#ffffff" stroke="transparent" points="38.5,-328 38.5,-350 179.5,-350 179.5,-328 38.5,-328"/>
<polygon fill="none" stroke="black" points="38.5,-328 38.5,-350 179.5,-350 179.5,-328 38.5,-328"/>
<text text-anchor="start" x="58.5" y="-336.2" font-family="Helvetica,sans-Serif" font-size="11.00">ad_pinstance_uu</text>
<polygon fill="#ffffff" stroke="transparent" points="38.5,-306 38.5,-328 179.5,-328 179.5,-306 38.5,-306"/>
<polygon fill="none" stroke="black" points="38.5,-306 38.5,-328 179.5,-328 179.5,-306 38.5,-306"/>
<text text-anchor="start" x="58.5" y="-314.2" font-family="Helvetica,sans-Serif" font-size="11.00">name</text>
<polygon fill="none" stroke="black" points="38.5,-284 38.5,-306 179.5,-306 179.5,-284 38.5,-284"/>
<image xlink:href="../../images/foreignKeys.png" width="11px" height="12px" preserveAspectRatio="xMinYMin meet" x="43.5" y="-301"/>
<text text-anchor="start" x="58.5" y="-292.2" font-family="Helvetica,sans-Serif" font-size="11.00">ad_printformat_id</text>
<polygon fill="none" stroke="black" points="38.5,-262 38.5,-284 179.5,-284 179.5,-262 38.5,-262"/>
<image xlink:href="../../images/foreignKeys.png" width="11px" height="12px" preserveAspectRatio="xMinYMin meet" x="43.5" y="-279"/>
<text text-anchor="start" x="58.5" y="-270.2" font-family="Helvetica,sans-Serif" font-size="11.00">ad_language_id</text>
<polygon fill="none" stroke="black" points="38.5,-240 38.5,-262 179.5,-262 179.5,-240 38.5,-240"/>
<image xlink:href="../../images/foreignKeys.png" width="11px" height="12px" preserveAspectRatio="xMinYMin meet" x="43.5" y="-257"/>
<text text-anchor="start" x="58.5" y="-248.2" font-family="Helvetica,sans-Serif" font-size="11.00">ad_session_id</text>
<polygon fill="none" stroke="black" points="38.5,-222 38.5,-240 179.5,-240 179.5,-222 38.5,-222"/>
<text text-anchor="start" x="41.5" y="-228.2" font-family="Helvetica,sans-Serif" font-size="11.00">...</text>
<polygon fill="#ffffff" stroke="transparent" points="38.5,-204 38.5,-222 80.5,-222 80.5,-204 38.5,-204"/>
<polygon fill="none" stroke="black" points="38.5,-204 38.5,-222 80.5,-222 80.5,-204 38.5,-204"/>
<text text-anchor="start" x="41.5" y="-210.2" font-family="Helvetica,sans-Serif" font-size="11.00">&lt; 5</text>
<polygon fill="#ffffff" stroke="transparent" points="80.5,-204 80.5,-222 141.5,-222 141.5,-204 80.5,-204"/>
<polygon fill="none" stroke="black" points="80.5,-204 80.5,-222 141.5,-222 141.5,-204 80.5,-204"/>
<text text-anchor="start" x="93.5" y="-210.2" font-family="Helvetica,sans-Serif" font-size="11.00">150 rows</text>
<polygon fill="#ffffff" stroke="transparent" points="141.5,-204 141.5,-222 179.5,-222 179.5,-204 141.5,-204"/>
<polygon fill="none" stroke="black" points="141.5,-204 141.5,-222 179.5,-222 179.5,-204 141.5,-204"/>
<text text-anchor="start" x="154.5" y="-210.2" font-family="Helvetica,sans-Serif" font-size="11.00">33 &gt;</text>
</a>
</g>
</g>
<!-- cof_selection&#45;&gt;ad_pinstance -->
<g id="edge1" class="edge">
<title>cof_selection:w&#45;&gt;ad_pinstance:e</title>
<path fill="none" stroke="black" stroke-dasharray="5,2" d="M244.7,-334.41C197.14,-352.87 245.91,-471 180.5,-471"/>
<polygon fill="black" stroke="black" points="251.11,-333.33 259.6,-335.55 255.06,-332.67 259,-332 259,-332 259,-332 255.06,-332.67 258.4,-328.45 251.11,-333.33 251.11,-333.33"/>
<ellipse fill="none" stroke="black" cx="247.96" cy="-333.86" rx="3.2" ry="3.2"/>
</g>
<!-- m_attributesetinstance -->
<g id="node3" class="node">
<title>m_attributesetinstance</title>
<g id="a_node3"><a xlink:href="../../tables/m_attributesetinstance.html" xlink:title="m_attributesetinstance" target="_top">
<polygon fill="#ffffff" stroke="transparent" points="8,-37 8,-183 209,-183 209,-37 8,-37"/>
<polygon fill="#f5f5f5" stroke="transparent" points="8.5,-161 8.5,-183 209.5,-183 209.5,-161 8.5,-161"/>
<polygon fill="none" stroke="black" points="8.5,-161 8.5,-183 209.5,-183 209.5,-161 8.5,-161"/>
<text text-anchor="start" x="13.5" y="-170.2" font-family="Helvetica,sans-Serif" font-weight="bold" font-size="11.00">m_attributesetinstance</text>
<text text-anchor="start" x="174.5" y="-169.2" font-family="Helvetica,sans-Serif" font-size="11.00">[table]</text>
<polygon fill="none" stroke="black" points="8.5,-139 8.5,-161 209.5,-161 209.5,-139 8.5,-139"/>
<image xlink:href="../../images/primaryKeys.png" width="11px" height="12px" preserveAspectRatio="xMinYMin meet" x="13.5" y="-156"/>
<text text-anchor="start" x="28.5" y="-147.2" font-family="Helvetica,sans-Serif" font-size="11.00">m_attributesetinstance_id</text>
<polygon fill="none" stroke="black" points="8.5,-117 8.5,-139 209.5,-139 209.5,-117 8.5,-117"/>
<image xlink:href="../../images/foreignKeys.png" width="11px" height="12px" preserveAspectRatio="xMinYMin meet" x="13.5" y="-134"/>
<text text-anchor="start" x="28.5" y="-125.2" font-family="Helvetica,sans-Serif" font-size="11.00">m_attributeset_id</text>
<polygon fill="none" stroke="black" points="8.5,-95 8.5,-117 209.5,-117 209.5,-95 8.5,-95"/>
<image xlink:href="../../images/foreignKeys.png" width="11px" height="12px" preserveAspectRatio="xMinYMin meet" x="13.5" y="-112"/>
<text text-anchor="start" x="28.5" y="-103.2" font-family="Helvetica,sans-Serif" font-size="11.00">m_lot_id</text>
<polygon fill="#ffffff" stroke="transparent" points="8.5,-73 8.5,-95 209.5,-95 209.5,-73 8.5,-73"/>
<polygon fill="none" stroke="black" points="8.5,-73 8.5,-95 209.5,-95 209.5,-73 8.5,-73"/>
<text text-anchor="start" x="28.5" y="-81.2" font-family="Helvetica,sans-Serif" font-size="11.00">m_attributesetinstance_uu</text>
<polygon fill="none" stroke="black" points="8.5,-55 8.5,-73 209.5,-73 209.5,-55 8.5,-55"/>
<text text-anchor="start" x="11.5" y="-61.2" font-family="Helvetica,sans-Serif" font-size="11.00">...</text>
<polygon fill="#ffffff" stroke="transparent" points="8.5,-37 8.5,-55 85.5,-55 85.5,-37 8.5,-37"/>
<polygon fill="none" stroke="black" points="8.5,-37 8.5,-55 85.5,-55 85.5,-37 8.5,-37"/>
<text text-anchor="start" x="11.5" y="-43.2" font-family="Helvetica,sans-Serif" font-size="11.00">&lt; 2</text>
<polygon fill="#ffffff" stroke="transparent" points="85.5,-37 85.5,-55 147.5,-55 147.5,-37 85.5,-37"/>
<polygon fill="none" stroke="black" points="85.5,-37 85.5,-55 147.5,-55 147.5,-37 85.5,-37"/>
<text text-anchor="start" x="116.5" y="-43.2" font-family="Helvetica,sans-Serif" font-size="11.00">1 row</text>
<polygon fill="#ffffff" stroke="transparent" points="147.5,-37 147.5,-55 209.5,-55 209.5,-37 147.5,-37"/>
<polygon fill="none" stroke="black" points="147.5,-37 147.5,-55 209.5,-55 209.5,-37 147.5,-37"/>
<text text-anchor="start" x="178.5" y="-43.2" font-family="Helvetica,sans-Serif" font-size="11.00">102 &gt;</text>
</a>
</g>
</g>
<!-- cof_selection&#45;&gt;m_attributesetinstance -->
<g id="edge2" class="edge">
<title>cof_selection:w&#45;&gt;m_attributesetinstance:e</title>
<path fill="none" stroke="black" stroke-dasharray="5,2" d="M244.81,-284.86C207.45,-264.32 269.67,-150 210.5,-150"/>
<polygon fill="black" stroke="black" points="251.19,-286.27 258.22,-291.51 255.09,-287.14 259,-288 259,-288 259,-288 255.09,-287.14 259.78,-284.49 251.19,-286.27 251.19,-286.27"/>
<ellipse fill="none" stroke="black" cx="248.06" cy="-285.58" rx="3.2" ry="3.2"/>
</g>
</g>
</svg>
