<?xml version="1.0" encoding="UTF-8" standalone="no"?>
<!DOCTYPE svg PUBLIC "-//W3C//DTD SVG 1.1//EN"
 "http://www.w3.org/Graphics/SVG/1.1/DTD/svg11.dtd">
<!-- Generated by graphviz version 2.43.0 (0)
 -->
<!-- Title: oneDegreeRelationshipsDiagram Pages: 1 -->
<svg width="854pt" height="478pt"
 viewBox="0.00 0.00 854.00 478.00" xmlns="http://www.w3.org/2000/svg" xmlns:xlink="http://www.w3.org/1999/xlink">
<g id="graph0" class="graph" transform="scale(1 1) rotate(0) translate(4 474)">
<title>oneDegreeRelationshipsDiagram</title>
<polygon fill="#ffffff" stroke="transparent" points="-4,4 -4,-474 850,-474 850,4 -4,4"/>
<text text-anchor="middle" x="71.5" y="-7.2" font-family="Helvetica,sans-Serif" font-size="11.00">Generated by SchemaSpy</text>
<!-- cof_mdfe_infcte -->
<g id="node1" class="node">
<title>cof_mdfe_infcte</title>
<g id="a_node1"><a xlink:href="../../tables/cof_mdfe_infcte.html" xlink:title="cof_mdfe_infcte" target="_top">
<polygon fill="#ffffff" stroke="transparent" points="623,-342 623,-466 838,-466 838,-342 623,-342"/>
<polygon fill="#f5f5f5" stroke="transparent" points="623.5,-444 623.5,-466 838.5,-466 838.5,-444 623.5,-444"/>
<polygon fill="none" stroke="black" points="623.5,-444 623.5,-466 838.5,-466 838.5,-444 623.5,-444"/>
<text text-anchor="start" x="628.5" y="-453.2" font-family="Helvetica,sans-Serif" font-weight="bold" font-size="11.00">cof_mdfe_infcte</text>
<text text-anchor="start" x="803.5" y="-452.2" font-family="Helvetica,sans-Serif" font-size="11.00">[table]</text>
<polygon fill="none" stroke="black" points="623.5,-422 623.5,-444 838.5,-444 838.5,-422 623.5,-422"/>
<image xlink:href="../../images/foreignKeys.png" width="11px" height="12px" preserveAspectRatio="xMinYMin meet" x="628.5" y="-439"/>
<text text-anchor="start" x="643.5" y="-430.2" font-family="Helvetica,sans-Serif" font-size="11.00">cof_mdfe_infmundescarga_id</text>
<polygon fill="none" stroke="black" points="623.5,-400 623.5,-422 838.5,-422 838.5,-400 623.5,-400"/>
<image xlink:href="../../images/primaryKeys.png" width="11px" height="12px" preserveAspectRatio="xMinYMin meet" x="628.5" y="-417"/>
<text text-anchor="start" x="643.5" y="-408.2" font-family="Helvetica,sans-Serif" font-size="11.00">cof_mdfe_infcte_id</text>
<polygon fill="#ffffff" stroke="transparent" points="623.5,-378 623.5,-400 838.5,-400 838.5,-378 623.5,-378"/>
<polygon fill="none" stroke="black" points="623.5,-378 623.5,-400 838.5,-400 838.5,-378 623.5,-378"/>
<text text-anchor="start" x="643.5" y="-386.2" font-family="Helvetica,sans-Serif" font-size="11.00">cof_mdfe_infcte_uu</text>
<polygon fill="none" stroke="black" points="623.5,-360 623.5,-378 838.5,-378 838.5,-360 623.5,-360"/>
<text text-anchor="start" x="626.5" y="-366.2" font-family="Helvetica,sans-Serif" font-size="11.00">...</text>
<polygon fill="#ffffff" stroke="transparent" points="623.5,-342 623.5,-360 711.5,-360 711.5,-342 623.5,-342"/>
<polygon fill="none" stroke="black" points="623.5,-342 623.5,-360 711.5,-360 711.5,-342 623.5,-342"/>
<text text-anchor="start" x="626.5" y="-348.2" font-family="Helvetica,sans-Serif" font-size="11.00">&lt; 1</text>
<polygon fill="#ffffff" stroke="transparent" points="711.5,-342 711.5,-360 783.5,-360 783.5,-342 711.5,-342"/>
<polygon fill="none" stroke="black" points="711.5,-342 711.5,-360 783.5,-360 783.5,-342 711.5,-342"/>
<text text-anchor="start" x="747.5" y="-348.2" font-family="Helvetica,sans-Serif" font-size="11.00">0 rows</text>
<polygon fill="#ffffff" stroke="transparent" points="783.5,-342 783.5,-360 838.5,-360 838.5,-342 783.5,-342"/>
<polygon fill="none" stroke="black" points="783.5,-342 783.5,-360 838.5,-360 838.5,-342 783.5,-342"/>
<text text-anchor="start" x="819.5" y="-348.2" font-family="Helvetica,sans-Serif" font-size="11.00">1 &gt;</text>
</a>
</g>
</g>
<!-- cof_mdfe_infmundescarga -->
<g id="node2" class="node">
<title>cof_mdfe_infmundescarga</title>
<g id="a_node2"><a xlink:href="../../tables/cof_mdfe_infmundescarga.html" xlink:title="cof_mdfe_infmundescarga" target="_top">
<polygon fill="#ffffff" stroke="transparent" points="252,-37 252,-345 574,-345 574,-37 252,-37"/>
<polygon fill="#f5f5f5" stroke="transparent" points="254,-321 254,-343 572,-343 572,-321 254,-321"/>
<polygon fill="none" stroke="black" points="254,-321 254,-343 572,-343 572,-321 254,-321"/>
<text text-anchor="start" x="259" y="-330.2" font-family="Helvetica,sans-Serif" font-weight="bold" font-size="11.00">cof_mdfe_infmundescarga</text>
<text text-anchor="start" x="537" y="-329.2" font-family="Helvetica,sans-Serif" font-size="11.00">[table]</text>
<polygon fill="none" stroke="black" points="254,-299 254,-321 489,-321 489,-299 254,-299"/>
<image xlink:href="../../images/foreignKeys.png" width="11px" height="12px" preserveAspectRatio="xMinYMin meet" x="259" y="-316"/>
<text text-anchor="start" x="274" y="-307.2" font-family="Helvetica,sans-Serif" font-size="11.00">cof_mdfe_id</text>
<polygon fill="none" stroke="black" points="489,-299 489,-321 572,-321 572,-299 489,-299"/>
<text text-anchor="start" x="492" y="-307.2" font-family="Helvetica,sans-Serif" font-size="11.00">numeric[10]</text>
<polygon fill="none" stroke="black" points="254,-277 254,-299 489,-299 489,-277 254,-277"/>
<image xlink:href="../../images/primaryKeys.png" width="11px" height="12px" preserveAspectRatio="xMinYMin meet" x="259" y="-294"/>
<text text-anchor="start" x="274" y="-285.2" font-family="Helvetica,sans-Serif" font-size="11.00">cof_mdfe_infmundescarga_id</text>
<polygon fill="none" stroke="black" points="489,-277 489,-299 572,-299 572,-277 489,-277"/>
<text text-anchor="start" x="492" y="-285.2" font-family="Helvetica,sans-Serif" font-size="11.00">numeric[10]</text>
<polygon fill="none" stroke="black" points="254,-255 254,-277 489,-277 489,-255 254,-255"/>
<text text-anchor="start" x="274" y="-263.2" font-family="Helvetica,sans-Serif" font-size="11.00">infmundescarga_cmundescarga</text>
<polygon fill="none" stroke="black" points="489,-255 489,-277 572,-277 572,-255 489,-255"/>
<text text-anchor="start" x="492" y="-263.2" font-family="Helvetica,sans-Serif" font-size="11.00">varchar[7]</text>
<polygon fill="none" stroke="black" points="254,-233 254,-255 489,-255 489,-233 254,-233"/>
<text text-anchor="start" x="274" y="-241.2" font-family="Helvetica,sans-Serif" font-size="11.00">infmundescarga_xmundescarga</text>
<polygon fill="none" stroke="black" points="489,-233 489,-255 572,-255 572,-233 489,-233"/>
<text text-anchor="start" x="492" y="-241.2" font-family="Helvetica,sans-Serif" font-size="11.00">varchar[60]</text>
<polygon fill="#ffffff" stroke="transparent" points="254,-211 254,-233 489,-233 489,-211 254,-211"/>
<polygon fill="none" stroke="black" points="254,-211 254,-233 489,-233 489,-211 254,-211"/>
<text text-anchor="start" x="274" y="-219.2" font-family="Helvetica,sans-Serif" font-size="11.00">cof_mdfe_infmundescarga_uu</text>
<polygon fill="none" stroke="black" points="489,-211 489,-233 572,-233 572,-211 489,-211"/>
<text text-anchor="start" x="492" y="-219.2" font-family="Helvetica,sans-Serif" font-size="11.00">varchar[36]</text>
<polygon fill="none" stroke="black" points="254,-189 254,-211 489,-211 489,-189 254,-189"/>
<text text-anchor="start" x="274" y="-197.2" font-family="Helvetica,sans-Serif" font-size="11.00">ad_client_id</text>
<polygon fill="none" stroke="black" points="489,-189 489,-211 572,-211 572,-189 489,-189"/>
<text text-anchor="start" x="492" y="-197.2" font-family="Helvetica,sans-Serif" font-size="11.00">numeric[10]</text>
<polygon fill="none" stroke="black" points="254,-167 254,-189 489,-189 489,-167 254,-167"/>
<text text-anchor="start" x="274" y="-175.2" font-family="Helvetica,sans-Serif" font-size="11.00">ad_org_id</text>
<polygon fill="none" stroke="black" points="489,-167 489,-189 572,-189 572,-167 489,-167"/>
<text text-anchor="start" x="492" y="-175.2" font-family="Helvetica,sans-Serif" font-size="11.00">numeric[10]</text>
<polygon fill="none" stroke="black" points="254,-145 254,-167 489,-167 489,-145 254,-145"/>
<text text-anchor="start" x="274" y="-153.2" font-family="Helvetica,sans-Serif" font-size="11.00">isactive</text>
<polygon fill="none" stroke="black" points="489,-145 489,-167 572,-167 572,-145 489,-145"/>
<text text-anchor="start" x="492" y="-153.2" font-family="Helvetica,sans-Serif" font-size="11.00">bpchar[1]</text>
<polygon fill="none" stroke="black" points="254,-123 254,-145 489,-145 489,-123 254,-123"/>
<text text-anchor="start" x="274" y="-131.2" font-family="Helvetica,sans-Serif" font-size="11.00">created</text>
<polygon fill="none" stroke="black" points="489,-123 489,-145 572,-145 572,-123 489,-123"/>
<text text-anchor="start" x="492" y="-131.2" font-family="Helvetica,sans-Serif" font-size="11.00">timestamp[29,6]</text>
<polygon fill="none" stroke="black" points="254,-101 254,-123 489,-123 489,-101 254,-101"/>
<text text-anchor="start" x="274" y="-109.2" font-family="Helvetica,sans-Serif" font-size="11.00">createdby</text>
<polygon fill="none" stroke="black" points="489,-101 489,-123 572,-123 572,-101 489,-101"/>
<text text-anchor="start" x="492" y="-109.2" font-family="Helvetica,sans-Serif" font-size="11.00">numeric[10]</text>
<polygon fill="none" stroke="black" points="254,-79 254,-101 489,-101 489,-79 254,-79"/>
<text text-anchor="start" x="274" y="-87.2" font-family="Helvetica,sans-Serif" font-size="11.00">updated</text>
<polygon fill="none" stroke="black" points="489,-79 489,-101 572,-101 572,-79 489,-79"/>
<text text-anchor="start" x="492" y="-87.2" font-family="Helvetica,sans-Serif" font-size="11.00">timestamp[29,6]</text>
<polygon fill="none" stroke="black" points="254,-57 254,-79 489,-79 489,-57 254,-57"/>
<text text-anchor="start" x="274" y="-65.2" font-family="Helvetica,sans-Serif" font-size="11.00">updatedby</text>
<polygon fill="none" stroke="black" points="489,-57 489,-79 572,-79 572,-57 489,-57"/>
<text text-anchor="start" x="492" y="-65.2" font-family="Helvetica,sans-Serif" font-size="11.00">numeric[10]</text>
<polygon fill="#ffffff" stroke="transparent" points="254,-39 254,-57 363,-57 363,-39 254,-39"/>
<polygon fill="none" stroke="black" points="254,-39 254,-57 363,-57 363,-39 254,-39"/>
<text text-anchor="start" x="257" y="-45.2" font-family="Helvetica,sans-Serif" font-size="11.00">&lt; 1</text>
<polygon fill="#ffffff" stroke="transparent" points="363,-39 363,-57 489,-57 489,-39 363,-39"/>
<polygon fill="none" stroke="black" points="363,-39 363,-57 489,-57 489,-39 363,-39"/>
<text text-anchor="start" x="453" y="-45.2" font-family="Helvetica,sans-Serif" font-size="11.00">0 rows</text>
<polygon fill="#ffffff" stroke="transparent" points="489,-39 489,-57 572,-57 572,-39 489,-39"/>
<polygon fill="none" stroke="black" points="489,-39 489,-57 572,-57 572,-39 489,-39"/>
<text text-anchor="start" x="553" y="-45.2" font-family="Helvetica,sans-Serif" font-size="11.00">3 &gt;</text>
<polygon fill="none" stroke="black" stroke-width="2" points="253,-38 253,-344 573,-344 573,-38 253,-38"/>
</a>
</g>
</g>
<!-- cof_mdfe_infcte&#45;&gt;cof_mdfe_infmundescarga -->
<g id="edge1" class="edge">
<title>cof_mdfe_infcte:w&#45;&gt;cof_mdfe_infmundescarga:e</title>
<path fill="none" stroke="black" d="M608.18,-429.97C568.16,-409.15 635.24,-288 573,-288"/>
<polygon fill="black" stroke="black" points="614.67,-431.34 621.76,-436.52 618.59,-432.17 622.5,-433 622.5,-433 622.5,-433 618.59,-432.17 623.24,-429.48 614.67,-431.34 614.67,-431.34"/>
<ellipse fill="none" stroke="black" cx="611.54" cy="-430.68" rx="3.2" ry="3.2"/>
</g>
<!-- cof_mdfe -->
<g id="node4" class="node">
<title>cof_mdfe</title>
<g id="a_node4"><a xlink:href="../../tables/cof_mdfe.html" xlink:title="cof_mdfe" target="_top">
<polygon fill="#ffffff" stroke="transparent" points="8,-197 8,-343 203,-343 203,-197 8,-197"/>
<polygon fill="#f5f5f5" stroke="transparent" points="8.5,-321 8.5,-343 203.5,-343 203.5,-321 8.5,-321"/>
<polygon fill="none" stroke="black" points="8.5,-321 8.5,-343 203.5,-343 203.5,-321 8.5,-321"/>
<text text-anchor="start" x="13.5" y="-330.2" font-family="Helvetica,sans-Serif" font-weight="bold" font-size="11.00">cof_mdfe</text>
<text text-anchor="start" x="168.5" y="-329.2" font-family="Helvetica,sans-Serif" font-size="11.00">[table]</text>
<polygon fill="none" stroke="black" points="8.5,-299 8.5,-321 203.5,-321 203.5,-299 8.5,-299"/>
<image xlink:href="../../images/primaryKeys.png" width="11px" height="12px" preserveAspectRatio="xMinYMin meet" x="13.5" y="-316"/>
<text text-anchor="start" x="28.5" y="-307.2" font-family="Helvetica,sans-Serif" font-size="11.00">cof_mdfe_id</text>
<polygon fill="#ffffff" stroke="transparent" points="8.5,-277 8.5,-299 203.5,-299 203.5,-277 8.5,-277"/>
<polygon fill="none" stroke="black" points="8.5,-277 8.5,-299 203.5,-299 203.5,-277 8.5,-277"/>
<text text-anchor="start" x="28.5" y="-285.2" font-family="Helvetica,sans-Serif" font-size="11.00">cof_mdfe_uu</text>
<polygon fill="none" stroke="black" points="8.5,-255 8.5,-277 203.5,-277 203.5,-255 8.5,-255"/>
<image xlink:href="../../images/foreignKeys.png" width="11px" height="12px" preserveAspectRatio="xMinYMin meet" x="13.5" y="-272"/>
<text text-anchor="start" x="28.5" y="-263.2" font-family="Helvetica,sans-Serif" font-size="11.00">emit_bpartner_location_id</text>
<polygon fill="none" stroke="black" points="8.5,-233 8.5,-255 203.5,-255 203.5,-233 8.5,-233"/>
<image xlink:href="../../images/foreignKeys.png" width="11px" height="12px" preserveAspectRatio="xMinYMin meet" x="13.5" y="-250"/>
<text text-anchor="start" x="28.5" y="-241.2" font-family="Helvetica,sans-Serif" font-size="11.00">emit_bpartner_id</text>
<polygon fill="none" stroke="black" points="8.5,-215 8.5,-233 203.5,-233 203.5,-215 8.5,-215"/>
<text text-anchor="start" x="11.5" y="-221.2" font-family="Helvetica,sans-Serif" font-size="11.00">...</text>
<polygon fill="#ffffff" stroke="transparent" points="8.5,-197 8.5,-215 83.5,-215 83.5,-197 8.5,-197"/>
<polygon fill="none" stroke="black" points="8.5,-197 8.5,-215 83.5,-215 83.5,-197 8.5,-197"/>
<text text-anchor="start" x="11.5" y="-203.2" font-family="Helvetica,sans-Serif" font-size="11.00">&lt; 2</text>
<polygon fill="#ffffff" stroke="transparent" points="83.5,-197 83.5,-215 148.5,-215 148.5,-197 83.5,-197"/>
<polygon fill="none" stroke="black" points="83.5,-197 83.5,-215 148.5,-215 148.5,-197 83.5,-197"/>
<text text-anchor="start" x="112.5" y="-203.2" font-family="Helvetica,sans-Serif" font-size="11.00">0 rows</text>
<polygon fill="#ffffff" stroke="transparent" points="148.5,-197 148.5,-215 203.5,-215 203.5,-197 148.5,-197"/>
<polygon fill="none" stroke="black" points="148.5,-197 148.5,-215 203.5,-215 203.5,-197 148.5,-197"/>
<text text-anchor="start" x="178.5" y="-203.2" font-family="Helvetica,sans-Serif" font-size="11.00">13 &gt;</text>
</a>
</g>
</g>
<!-- cof_mdfe_infmundescarga&#45;&gt;cof_mdfe -->
<g id="edge3" class="edge">
<title>cof_mdfe_infmundescarga:w&#45;&gt;cof_mdfe:e</title>
<path fill="none" stroke="black" d="M238.28,-310C227.29,-310 220.16,-310 204.5,-310"/>
<polygon fill="black" stroke="black" points="245,-310 253,-313.6 249,-310 253,-310 253,-310 253,-310 249,-310 253,-306.4 245,-310 245,-310"/>
<ellipse fill="none" stroke="black" cx="241.8" cy="-310" rx="3.2" ry="3.2"/>
</g>
<!-- cof_mdfe_infmdfetransp -->
<g id="node3" class="node">
<title>cof_mdfe_infmdfetransp</title>
<g id="a_node3"><a xlink:href="../../tables/cof_mdfe_infmdfetransp.html" xlink:title="cof_mdfe_infmdfetransp" target="_top">
<polygon fill="#ffffff" stroke="transparent" points="623,-197 623,-321 838,-321 838,-197 623,-197"/>
<polygon fill="#f5f5f5" stroke="transparent" points="623.5,-299 623.5,-321 838.5,-321 838.5,-299 623.5,-299"/>
<polygon fill="none" stroke="black" points="623.5,-299 623.5,-321 838.5,-321 838.5,-299 623.5,-299"/>
<text text-anchor="start" x="628.5" y="-308.2" font-family="Helvetica,sans-Serif" font-weight="bold" font-size="11.00">cof_mdfe_infmdfetransp</text>
<text text-anchor="start" x="803.5" y="-307.2" font-family="Helvetica,sans-Serif" font-size="11.00">[table]</text>
<polygon fill="none" stroke="black" points="623.5,-277 623.5,-299 838.5,-299 838.5,-277 623.5,-277"/>
<image xlink:href="../../images/foreignKeys.png" width="11px" height="12px" preserveAspectRatio="xMinYMin meet" x="628.5" y="-294"/>
<text text-anchor="start" x="643.5" y="-285.2" font-family="Helvetica,sans-Serif" font-size="11.00">cof_mdfe_infmundescarga_id</text>
<polygon fill="none" stroke="black" points="623.5,-255 623.5,-277 838.5,-277 838.5,-255 623.5,-255"/>
<image xlink:href="../../images/primaryKeys.png" width="11px" height="12px" preserveAspectRatio="xMinYMin meet" x="628.5" y="-272"/>
<text text-anchor="start" x="643.5" y="-263.2" font-family="Helvetica,sans-Serif" font-size="11.00">cof_mdfe_infmdfetransp_id</text>
<polygon fill="#ffffff" stroke="transparent" points="623.5,-233 623.5,-255 838.5,-255 838.5,-233 623.5,-233"/>
<polygon fill="none" stroke="black" points="623.5,-233 623.5,-255 838.5,-255 838.5,-233 623.5,-233"/>
<text text-anchor="start" x="643.5" y="-241.2" font-family="Helvetica,sans-Serif" font-size="11.00">cof_mdfe_infmdfetransp_uu</text>
<polygon fill="none" stroke="black" points="623.5,-215 623.5,-233 838.5,-233 838.5,-215 623.5,-215"/>
<text text-anchor="start" x="626.5" y="-221.2" font-family="Helvetica,sans-Serif" font-size="11.00">...</text>
<polygon fill="#ffffff" stroke="transparent" points="623.5,-197 623.5,-215 711.5,-215 711.5,-197 623.5,-197"/>
<polygon fill="none" stroke="black" points="623.5,-197 623.5,-215 711.5,-215 711.5,-197 623.5,-197"/>
<text text-anchor="start" x="626.5" y="-203.2" font-family="Helvetica,sans-Serif" font-size="11.00">&lt; 1</text>
<polygon fill="#ffffff" stroke="transparent" points="711.5,-197 711.5,-215 783.5,-215 783.5,-197 711.5,-197"/>
<polygon fill="none" stroke="black" points="711.5,-197 711.5,-215 783.5,-215 783.5,-197 711.5,-197"/>
<text text-anchor="start" x="747.5" y="-203.2" font-family="Helvetica,sans-Serif" font-size="11.00">0 rows</text>
<polygon fill="#ffffff" stroke="transparent" points="783.5,-197 783.5,-215 838.5,-215 838.5,-197 783.5,-197"/>
<polygon fill="none" stroke="black" points="783.5,-197 783.5,-215 838.5,-215 838.5,-197 783.5,-197"/>
<text text-anchor="start" x="819.5" y="-203.2" font-family="Helvetica,sans-Serif" font-size="11.00">1 &gt;</text>
</a>
</g>
</g>
<!-- cof_mdfe_infmdfetransp&#45;&gt;cof_mdfe_infmundescarga -->
<g id="edge2" class="edge">
<title>cof_mdfe_infmdfetransp:w&#45;&gt;cof_mdfe_infmundescarga:e</title>
<path fill="none" stroke="black" d="M607.84,-288C596.41,-288 589.16,-288 573,-288"/>
<polygon fill="black" stroke="black" points="614.5,-288 622.5,-291.6 618.5,-288 622.5,-288 622.5,-288 622.5,-288 618.5,-288 622.5,-284.4 614.5,-288 614.5,-288"/>
<ellipse fill="none" stroke="black" cx="611.3" cy="-288" rx="3.2" ry="3.2"/>
</g>
<!-- cof_mdfe_infnfe -->
<g id="node5" class="node">
<title>cof_mdfe_infnfe</title>
<g id="a_node5"><a xlink:href="../../tables/cof_mdfe_infnfe.html" xlink:title="cof_mdfe_infnfe" target="_top">
<polygon fill="#ffffff" stroke="transparent" points="623,-52 623,-176 838,-176 838,-52 623,-52"/>
<polygon fill="#f5f5f5" stroke="transparent" points="623.5,-154 623.5,-176 838.5,-176 838.5,-154 623.5,-154"/>
<polygon fill="none" stroke="black" points="623.5,-154 623.5,-176 838.5,-176 838.5,-154 623.5,-154"/>
<text text-anchor="start" x="628.5" y="-163.2" font-family="Helvetica,sans-Serif" font-weight="bold" font-size="11.00">cof_mdfe_infnfe</text>
<text text-anchor="start" x="803.5" y="-162.2" font-family="Helvetica,sans-Serif" font-size="11.00">[table]</text>
<polygon fill="none" stroke="black" points="623.5,-132 623.5,-154 838.5,-154 838.5,-132 623.5,-132"/>
<image xlink:href="../../images/foreignKeys.png" width="11px" height="12px" preserveAspectRatio="xMinYMin meet" x="628.5" y="-149"/>
<text text-anchor="start" x="643.5" y="-140.2" font-family="Helvetica,sans-Serif" font-size="11.00">cof_mdfe_infmundescarga_id</text>
<polygon fill="none" stroke="black" points="623.5,-110 623.5,-132 838.5,-132 838.5,-110 623.5,-110"/>
<image xlink:href="../../images/primaryKeys.png" width="11px" height="12px" preserveAspectRatio="xMinYMin meet" x="628.5" y="-127"/>
<text text-anchor="start" x="643.5" y="-118.2" font-family="Helvetica,sans-Serif" font-size="11.00">cof_mdfe_infnfe_id</text>
<polygon fill="#ffffff" stroke="transparent" points="623.5,-88 623.5,-110 838.5,-110 838.5,-88 623.5,-88"/>
<polygon fill="none" stroke="black" points="623.5,-88 623.5,-110 838.5,-110 838.5,-88 623.5,-88"/>
<text text-anchor="start" x="643.5" y="-96.2" font-family="Helvetica,sans-Serif" font-size="11.00">cof_mdfe_infnfe_uu</text>
<polygon fill="none" stroke="black" points="623.5,-70 623.5,-88 838.5,-88 838.5,-70 623.5,-70"/>
<text text-anchor="start" x="626.5" y="-76.2" font-family="Helvetica,sans-Serif" font-size="11.00">...</text>
<polygon fill="#ffffff" stroke="transparent" points="623.5,-52 623.5,-70 711.5,-70 711.5,-52 623.5,-52"/>
<polygon fill="none" stroke="black" points="623.5,-52 623.5,-70 711.5,-70 711.5,-52 623.5,-52"/>
<text text-anchor="start" x="626.5" y="-58.2" font-family="Helvetica,sans-Serif" font-size="11.00">&lt; 1</text>
<polygon fill="#ffffff" stroke="transparent" points="711.5,-52 711.5,-70 783.5,-70 783.5,-52 711.5,-52"/>
<polygon fill="none" stroke="black" points="711.5,-52 711.5,-70 783.5,-70 783.5,-52 711.5,-52"/>
<text text-anchor="start" x="747.5" y="-58.2" font-family="Helvetica,sans-Serif" font-size="11.00">0 rows</text>
<polygon fill="#ffffff" stroke="transparent" points="783.5,-52 783.5,-70 838.5,-70 838.5,-52 783.5,-52"/>
<polygon fill="none" stroke="black" points="783.5,-52 783.5,-70 838.5,-70 838.5,-52 783.5,-52"/>
<text text-anchor="start" x="819.5" y="-58.2" font-family="Helvetica,sans-Serif" font-size="11.00">1 &gt;</text>
</a>
</g>
</g>
<!-- cof_mdfe_infnfe&#45;&gt;cof_mdfe_infmundescarga -->
<g id="edge4" class="edge">
<title>cof_mdfe_infnfe:w&#45;&gt;cof_mdfe_infmundescarga:e</title>
<path fill="none" stroke="black" d="M608.18,-146.03C568.16,-166.85 635.24,-288 573,-288"/>
<polygon fill="black" stroke="black" points="614.67,-144.66 623.24,-146.52 618.59,-143.83 622.5,-143 622.5,-143 622.5,-143 618.59,-143.83 621.76,-139.48 614.67,-144.66 614.67,-144.66"/>
<ellipse fill="none" stroke="black" cx="611.54" cy="-145.32" rx="3.2" ry="3.2"/>
</g>
</g>
</svg>
