<?xml version="1.0" encoding="UTF-8" standalone="no"?>
<!DOCTYPE svg PUBLIC "-//W3C//DTD SVG 1.1//EN"
 "http://www.w3.org/Graphics/SVG/1.1/DTD/svg11.dtd">
<!-- Generated by graphviz version 2.43.0 (0)
 -->
<!-- Title: oneDegreeRelationshipsDiagram Pages: 1 -->
<svg width="768pt" height="1185pt"
 viewBox="0.00 0.00 768.00 1185.00" xmlns="http://www.w3.org/2000/svg" xmlns:xlink="http://www.w3.org/1999/xlink">
<g id="graph0" class="graph" transform="scale(1 1) rotate(0) translate(4 1181)">
<title>oneDegreeRelationshipsDiagram</title>
<polygon fill="#ffffff" stroke="transparent" points="-4,4 -4,-1181 764,-1181 764,4 -4,4"/>
<text text-anchor="middle" x="71.5" y="-7.2" font-family="Helvetica,sans-Serif" font-size="11.00">Generated by SchemaSpy</text>
<!-- cof_pneu -->
<g id="node1" class="node">
<title>cof_pneu</title>
<g id="a_node1"><a xlink:href="../../tables/cof_pneu.html" xlink:title="cof_pneu" target="_top">
<polygon fill="#ffffff" stroke="transparent" points="581,-917 581,-1173 752,-1173 752,-917 581,-917"/>
<polygon fill="#f5f5f5" stroke="transparent" points="581.5,-1151 581.5,-1173 752.5,-1173 752.5,-1151 581.5,-1151"/>
<polygon fill="none" stroke="black" points="581.5,-1151 581.5,-1173 752.5,-1173 752.5,-1151 581.5,-1151"/>
<text text-anchor="start" x="586.5" y="-1160.2" font-family="Helvetica,sans-Serif" font-weight="bold" font-size="11.00">cof_pneu</text>
<text text-anchor="start" x="717.5" y="-1159.2" font-family="Helvetica,sans-Serif" font-size="11.00">[table]</text>
<polygon fill="none" stroke="black" points="581.5,-1129 581.5,-1151 752.5,-1151 752.5,-1129 581.5,-1129"/>
<image xlink:href="../../images/primaryKeys.png" width="11px" height="12px" preserveAspectRatio="xMinYMin meet" x="586.5" y="-1146"/>
<text text-anchor="start" x="601.5" y="-1137.2" font-family="Helvetica,sans-Serif" font-size="11.00">cof_pneu_id</text>
<polygon fill="#ffffff" stroke="transparent" points="581.5,-1107 581.5,-1129 752.5,-1129 752.5,-1107 581.5,-1107"/>
<polygon fill="none" stroke="black" points="581.5,-1107 581.5,-1129 752.5,-1129 752.5,-1107 581.5,-1107"/>
<text text-anchor="start" x="601.5" y="-1115.2" font-family="Helvetica,sans-Serif" font-size="11.00">cof_pneu_uu</text>
<polygon fill="none" stroke="black" points="581.5,-1085 581.5,-1107 752.5,-1107 752.5,-1085 581.5,-1085"/>
<image xlink:href="../../images/foreignKeys.png" width="11px" height="12px" preserveAspectRatio="xMinYMin meet" x="586.5" y="-1102"/>
<text text-anchor="start" x="601.5" y="-1093.2" font-family="Helvetica,sans-Serif" font-size="11.00">lbr_docfiscal_id</text>
<polygon fill="none" stroke="black" points="581.5,-1063 581.5,-1085 752.5,-1085 752.5,-1063 581.5,-1063"/>
<image xlink:href="../../images/foreignKeys.png" width="11px" height="12px" preserveAspectRatio="xMinYMin meet" x="586.5" y="-1080"/>
<text text-anchor="start" x="601.5" y="-1071.2" font-family="Helvetica,sans-Serif" font-size="11.00">mp_meter_id</text>
<polygon fill="none" stroke="black" points="581.5,-1041 581.5,-1063 752.5,-1063 752.5,-1041 581.5,-1041"/>
<image xlink:href="../../images/foreignKeys.png" width="11px" height="12px" preserveAspectRatio="xMinYMin meet" x="586.5" y="-1058"/>
<text text-anchor="start" x="601.5" y="-1049.2" font-family="Helvetica,sans-Serif" font-size="11.00">cof_equipments_id</text>
<polygon fill="none" stroke="black" points="581.5,-1019 581.5,-1041 752.5,-1041 752.5,-1019 581.5,-1019"/>
<image xlink:href="../../images/foreignKeys.png" width="11px" height="12px" preserveAspectRatio="xMinYMin meet" x="586.5" y="-1036"/>
<text text-anchor="start" x="601.5" y="-1027.2" font-family="Helvetica,sans-Serif" font-size="11.00">cof_pneu_dimensao_id</text>
<polygon fill="none" stroke="black" points="581.5,-997 581.5,-1019 752.5,-1019 752.5,-997 581.5,-997"/>
<image xlink:href="../../images/foreignKeys.png" width="11px" height="12px" preserveAspectRatio="xMinYMin meet" x="586.5" y="-1014"/>
<text text-anchor="start" x="601.5" y="-1005.2" font-family="Helvetica,sans-Serif" font-size="11.00">cof_pneu_marca_id</text>
<polygon fill="none" stroke="black" points="581.5,-975 581.5,-997 752.5,-997 752.5,-975 581.5,-975"/>
<image xlink:href="../../images/foreignKeys.png" width="11px" height="12px" preserveAspectRatio="xMinYMin meet" x="586.5" y="-992"/>
<text text-anchor="start" x="601.5" y="-983.2" font-family="Helvetica,sans-Serif" font-size="11.00">cof_pneu_tipo_id</text>
<polygon fill="none" stroke="black" points="581.5,-953 581.5,-975 752.5,-975 752.5,-953 581.5,-953"/>
<image xlink:href="../../images/foreignKeys.png" width="11px" height="12px" preserveAspectRatio="xMinYMin meet" x="586.5" y="-970"/>
<text text-anchor="start" x="601.5" y="-961.2" font-family="Helvetica,sans-Serif" font-size="11.00">cof_pneu_status_id</text>
<polygon fill="none" stroke="black" points="581.5,-935 581.5,-953 752.5,-953 752.5,-935 581.5,-935"/>
<text text-anchor="start" x="584.5" y="-941.2" font-family="Helvetica,sans-Serif" font-size="11.00">...</text>
<polygon fill="#ffffff" stroke="transparent" points="581.5,-917 581.5,-935 647.5,-935 647.5,-917 581.5,-917"/>
<polygon fill="none" stroke="black" points="581.5,-917 581.5,-935 647.5,-935 647.5,-917 581.5,-917"/>
<text text-anchor="start" x="584.5" y="-923.2" font-family="Helvetica,sans-Serif" font-size="11.00">&lt; 7</text>
<polygon fill="#ffffff" stroke="transparent" points="647.5,-917 647.5,-935 708.5,-935 708.5,-917 647.5,-917"/>
<polygon fill="none" stroke="black" points="647.5,-917 647.5,-935 708.5,-935 708.5,-917 647.5,-917"/>
<text text-anchor="start" x="672.5" y="-923.2" font-family="Helvetica,sans-Serif" font-size="11.00">0 rows</text>
<polygon fill="#ffffff" stroke="transparent" points="708.5,-917 708.5,-935 752.5,-935 752.5,-917 708.5,-917"/>
<polygon fill="none" stroke="black" points="708.5,-917 708.5,-935 752.5,-935 752.5,-917 708.5,-917"/>
<text text-anchor="start" x="733.5" y="-923.2" font-family="Helvetica,sans-Serif" font-size="11.00">2 &gt;</text>
</a>
</g>
</g>
<!-- cof_pneu_marca -->
<g id="node2" class="node">
<title>cof_pneu_marca</title>
<g id="a_node2"><a xlink:href="../../tables/cof_pneu_marca.html" xlink:title="cof_pneu_marca" target="_top">
<polygon fill="#ffffff" stroke="transparent" points="293,-713 293,-1043 532,-1043 532,-713 293,-713"/>
<polygon fill="#f5f5f5" stroke="transparent" points="295.5,-1019 295.5,-1041 530.5,-1041 530.5,-1019 295.5,-1019"/>
<polygon fill="none" stroke="black" points="295.5,-1019 295.5,-1041 530.5,-1041 530.5,-1019 295.5,-1019"/>
<text text-anchor="start" x="300.5" y="-1028.2" font-family="Helvetica,sans-Serif" font-weight="bold" font-size="11.00">cof_pneu_marca</text>
<text text-anchor="start" x="495.5" y="-1027.2" font-family="Helvetica,sans-Serif" font-size="11.00">[table]</text>
<polygon fill="none" stroke="black" points="295.5,-997 295.5,-1019 447.5,-1019 447.5,-997 295.5,-997"/>
<image xlink:href="../../images/primaryKeys.png" width="11px" height="12px" preserveAspectRatio="xMinYMin meet" x="300.5" y="-1014"/>
<text text-anchor="start" x="315.5" y="-1005.2" font-family="Helvetica,sans-Serif" font-size="11.00">cof_pneu_marca_id</text>
<polygon fill="none" stroke="black" points="447.5,-997 447.5,-1019 530.5,-1019 530.5,-997 447.5,-997"/>
<text text-anchor="start" x="450.5" y="-1005.2" font-family="Helvetica,sans-Serif" font-size="11.00">numeric[10]</text>
<polygon fill="#ffffff" stroke="transparent" points="295.5,-975 295.5,-997 447.5,-997 447.5,-975 295.5,-975"/>
<polygon fill="none" stroke="black" points="295.5,-975 295.5,-997 447.5,-997 447.5,-975 295.5,-975"/>
<text text-anchor="start" x="315.5" y="-983.2" font-family="Helvetica,sans-Serif" font-size="11.00">cof_pneu_marca_uu</text>
<polygon fill="none" stroke="black" points="447.5,-975 447.5,-997 530.5,-997 530.5,-975 447.5,-975"/>
<text text-anchor="start" x="450.5" y="-983.2" font-family="Helvetica,sans-Serif" font-size="11.00">varchar[36]</text>
<polygon fill="none" stroke="black" points="295.5,-953 295.5,-975 447.5,-975 447.5,-953 295.5,-953"/>
<text text-anchor="start" x="315.5" y="-961.2" font-family="Helvetica,sans-Serif" font-size="11.00">ad_client_id</text>
<polygon fill="none" stroke="black" points="447.5,-953 447.5,-975 530.5,-975 530.5,-953 447.5,-953"/>
<text text-anchor="start" x="450.5" y="-961.2" font-family="Helvetica,sans-Serif" font-size="11.00">numeric[10]</text>
<polygon fill="none" stroke="black" points="295.5,-931 295.5,-953 447.5,-953 447.5,-931 295.5,-931"/>
<text text-anchor="start" x="315.5" y="-939.2" font-family="Helvetica,sans-Serif" font-size="11.00">ad_org_id</text>
<polygon fill="none" stroke="black" points="447.5,-931 447.5,-953 530.5,-953 530.5,-931 447.5,-931"/>
<text text-anchor="start" x="450.5" y="-939.2" font-family="Helvetica,sans-Serif" font-size="11.00">numeric[10]</text>
<polygon fill="none" stroke="black" points="295.5,-909 295.5,-931 447.5,-931 447.5,-909 295.5,-909"/>
<text text-anchor="start" x="315.5" y="-917.2" font-family="Helvetica,sans-Serif" font-size="11.00">isactive</text>
<polygon fill="none" stroke="black" points="447.5,-909 447.5,-931 530.5,-931 530.5,-909 447.5,-909"/>
<text text-anchor="start" x="450.5" y="-917.2" font-family="Helvetica,sans-Serif" font-size="11.00">bpchar[1]</text>
<polygon fill="none" stroke="black" points="295.5,-887 295.5,-909 447.5,-909 447.5,-887 295.5,-887"/>
<text text-anchor="start" x="315.5" y="-895.2" font-family="Helvetica,sans-Serif" font-size="11.00">created</text>
<polygon fill="none" stroke="black" points="447.5,-887 447.5,-909 530.5,-909 530.5,-887 447.5,-887"/>
<text text-anchor="start" x="450.5" y="-895.2" font-family="Helvetica,sans-Serif" font-size="11.00">timestamp[29,6]</text>
<polygon fill="none" stroke="black" points="295.5,-865 295.5,-887 447.5,-887 447.5,-865 295.5,-865"/>
<text text-anchor="start" x="315.5" y="-873.2" font-family="Helvetica,sans-Serif" font-size="11.00">createdby</text>
<polygon fill="none" stroke="black" points="447.5,-865 447.5,-887 530.5,-887 530.5,-865 447.5,-865"/>
<text text-anchor="start" x="450.5" y="-873.2" font-family="Helvetica,sans-Serif" font-size="11.00">numeric[10]</text>
<polygon fill="none" stroke="black" points="295.5,-843 295.5,-865 447.5,-865 447.5,-843 295.5,-843"/>
<text text-anchor="start" x="315.5" y="-851.2" font-family="Helvetica,sans-Serif" font-size="11.00">updated</text>
<polygon fill="none" stroke="black" points="447.5,-843 447.5,-865 530.5,-865 530.5,-843 447.5,-843"/>
<text text-anchor="start" x="450.5" y="-851.2" font-family="Helvetica,sans-Serif" font-size="11.00">timestamp[29,6]</text>
<polygon fill="none" stroke="black" points="295.5,-821 295.5,-843 447.5,-843 447.5,-821 295.5,-821"/>
<text text-anchor="start" x="315.5" y="-829.2" font-family="Helvetica,sans-Serif" font-size="11.00">updatedby</text>
<polygon fill="none" stroke="black" points="447.5,-821 447.5,-843 530.5,-843 530.5,-821 447.5,-821"/>
<text text-anchor="start" x="450.5" y="-829.2" font-family="Helvetica,sans-Serif" font-size="11.00">numeric[10]</text>
<polygon fill="none" stroke="black" points="295.5,-799 295.5,-821 447.5,-821 447.5,-799 295.5,-799"/>
<text text-anchor="start" x="315.5" y="-807.2" font-family="Helvetica,sans-Serif" font-size="11.00">value</text>
<polygon fill="none" stroke="black" points="447.5,-799 447.5,-821 530.5,-821 530.5,-799 447.5,-799"/>
<text text-anchor="start" x="450.5" y="-807.2" font-family="Helvetica,sans-Serif" font-size="11.00">varchar[40]</text>
<polygon fill="none" stroke="black" points="295.5,-777 295.5,-799 447.5,-799 447.5,-777 295.5,-777"/>
<text text-anchor="start" x="315.5" y="-785.2" font-family="Helvetica,sans-Serif" font-size="11.00">name</text>
<polygon fill="none" stroke="black" points="447.5,-777 447.5,-799 530.5,-799 530.5,-777 447.5,-777"/>
<text text-anchor="start" x="450.5" y="-785.2" font-family="Helvetica,sans-Serif" font-size="11.00">varchar[60]</text>
<polygon fill="none" stroke="black" points="295.5,-755 295.5,-777 447.5,-777 447.5,-755 295.5,-755"/>
<text text-anchor="start" x="315.5" y="-763.2" font-family="Helvetica,sans-Serif" font-size="11.00">description</text>
<polygon fill="none" stroke="black" points="447.5,-755 447.5,-777 530.5,-777 530.5,-755 447.5,-755"/>
<text text-anchor="start" x="450.5" y="-763.2" font-family="Helvetica,sans-Serif" font-size="11.00">varchar[255]</text>
<polygon fill="none" stroke="black" points="295.5,-733 295.5,-755 447.5,-755 447.5,-733 295.5,-733"/>
<image xlink:href="../../images/foreignKeys.png" width="11px" height="12px" preserveAspectRatio="xMinYMin meet" x="300.5" y="-750"/>
<text text-anchor="start" x="315.5" y="-741.2" font-family="Helvetica,sans-Serif" font-size="11.00">c_bpartner_id</text>
<polygon fill="none" stroke="black" points="447.5,-733 447.5,-755 530.5,-755 530.5,-733 447.5,-733"/>
<text text-anchor="start" x="450.5" y="-741.2" font-family="Helvetica,sans-Serif" font-size="11.00">numeric[10]</text>
<polygon fill="#ffffff" stroke="transparent" points="295.5,-715 295.5,-733 362.5,-733 362.5,-715 295.5,-715"/>
<polygon fill="none" stroke="black" points="295.5,-715 295.5,-733 362.5,-733 362.5,-715 295.5,-715"/>
<text text-anchor="start" x="298.5" y="-721.2" font-family="Helvetica,sans-Serif" font-size="11.00">&lt; 1</text>
<polygon fill="#ffffff" stroke="transparent" points="362.5,-715 362.5,-733 447.5,-733 447.5,-715 362.5,-715"/>
<polygon fill="none" stroke="black" points="362.5,-715 362.5,-733 447.5,-733 447.5,-715 362.5,-715"/>
<text text-anchor="start" x="411.5" y="-721.2" font-family="Helvetica,sans-Serif" font-size="11.00">0 rows</text>
<polygon fill="#ffffff" stroke="transparent" points="447.5,-715 447.5,-733 530.5,-733 530.5,-715 447.5,-715"/>
<polygon fill="none" stroke="black" points="447.5,-715 447.5,-733 530.5,-733 530.5,-715 447.5,-715"/>
<text text-anchor="start" x="511.5" y="-721.2" font-family="Helvetica,sans-Serif" font-size="11.00">1 &gt;</text>
<polygon fill="none" stroke="black" stroke-width="2" points="294,-714 294,-1042 531,-1042 531,-714 294,-714"/>
</a>
</g>
</g>
<!-- cof_pneu&#45;&gt;cof_pneu_marca -->
<g id="edge1" class="edge">
<title>cof_pneu:w&#45;&gt;cof_pneu_marca:e</title>
<path fill="none" stroke="black" d="M565.99,-1008C554.68,-1008 547.49,-1008 531.5,-1008"/>
<polygon fill="black" stroke="black" points="572.5,-1008 580.5,-1011.6 576.5,-1008 580.5,-1008 580.5,-1008 580.5,-1008 576.5,-1008 580.5,-1004.4 572.5,-1008 572.5,-1008"/>
<ellipse fill="none" stroke="black" cx="569.3" cy="-1008" rx="3.2" ry="3.2"/>
</g>
<!-- c_bpartner -->
<g id="node3" class="node">
<title>c_bpartner</title>
<g id="a_node3"><a xlink:href="../../tables/c_bpartner.html" xlink:title="c_bpartner" target="_top">
<polygon fill="#ffffff" stroke="transparent" points="8,-37 8,-777 244,-777 244,-37 8,-37"/>
<polygon fill="#f5f5f5" stroke="transparent" points="8,-755 8,-777 244,-777 244,-755 8,-755"/>
<polygon fill="none" stroke="black" points="8,-755 8,-777 244,-777 244,-755 8,-755"/>
<text text-anchor="start" x="13" y="-764.2" font-family="Helvetica,sans-Serif" font-weight="bold" font-size="11.00">c_bpartner</text>
<text text-anchor="start" x="209" y="-763.2" font-family="Helvetica,sans-Serif" font-size="11.00">[table]</text>
<polygon fill="none" stroke="black" points="8,-733 8,-755 244,-755 244,-733 8,-733"/>
<image xlink:href="../../images/primaryKeys.png" width="11px" height="12px" preserveAspectRatio="xMinYMin meet" x="13" y="-750"/>
<text text-anchor="start" x="28" y="-741.2" font-family="Helvetica,sans-Serif" font-size="11.00">c_bpartner_id</text>
<polygon fill="#ffffff" stroke="transparent" points="8,-711 8,-733 244,-733 244,-711 8,-711"/>
<polygon fill="none" stroke="black" points="8,-711 8,-733 244,-733 244,-711 8,-711"/>
<image xlink:href="../../images/foreignKeys.png" width="11px" height="12px" preserveAspectRatio="xMinYMin meet" x="13" y="-728"/>
<text text-anchor="start" x="28" y="-719.2" font-family="Helvetica,sans-Serif" font-size="11.00">ad_client_id</text>
<polygon fill="none" stroke="black" points="8,-689 8,-711 244,-711 244,-689 8,-689"/>
<image xlink:href="../../images/foreignKeys.png" width="11px" height="12px" preserveAspectRatio="xMinYMin meet" x="13" y="-706"/>
<text text-anchor="start" x="28" y="-697.2" font-family="Helvetica,sans-Serif" font-size="11.00">ad_org_id</text>
<polygon fill="#ffffff" stroke="transparent" points="8,-667 8,-689 244,-689 244,-667 8,-667"/>
<polygon fill="none" stroke="black" points="8,-667 8,-689 244,-689 244,-667 8,-667"/>
<text text-anchor="start" x="28" y="-675.2" font-family="Helvetica,sans-Serif" font-size="11.00">value</text>
<polygon fill="#ffffff" stroke="transparent" points="8,-645 8,-667 244,-667 244,-645 8,-645"/>
<polygon fill="none" stroke="black" points="8,-645 8,-667 244,-667 244,-645 8,-645"/>
<text text-anchor="start" x="28" y="-653.2" font-family="Helvetica,sans-Serif" font-size="11.00">name</text>
<polygon fill="none" stroke="black" points="8,-623 8,-645 244,-645 244,-623 8,-623"/>
<image xlink:href="../../images/foreignKeys.png" width="11px" height="12px" preserveAspectRatio="xMinYMin meet" x="13" y="-640"/>
<text text-anchor="start" x="28" y="-631.2" font-family="Helvetica,sans-Serif" font-size="11.00">c_bp_group_id</text>
<polygon fill="none" stroke="black" points="8,-601 8,-623 244,-623 244,-601 8,-601"/>
<image xlink:href="../../images/foreignKeys.png" width="11px" height="12px" preserveAspectRatio="xMinYMin meet" x="13" y="-618"/>
<text text-anchor="start" x="28" y="-609.2" font-family="Helvetica,sans-Serif" font-size="11.00">ad_language</text>
<polygon fill="none" stroke="black" points="8,-579 8,-601 244,-601 244,-579 8,-579"/>
<image xlink:href="../../images/foreignKeys.png" width="11px" height="12px" preserveAspectRatio="xMinYMin meet" x="13" y="-596"/>
<text text-anchor="start" x="28" y="-587.2" font-family="Helvetica,sans-Serif" font-size="11.00">c_invoiceschedule_id</text>
<polygon fill="none" stroke="black" points="8,-557 8,-579 244,-579 244,-557 8,-557"/>
<image xlink:href="../../images/foreignKeys.png" width="11px" height="12px" preserveAspectRatio="xMinYMin meet" x="13" y="-574"/>
<text text-anchor="start" x="28" y="-565.2" font-family="Helvetica,sans-Serif" font-size="11.00">c_paymentterm_id</text>
<polygon fill="none" stroke="black" points="8,-535 8,-557 244,-557 244,-535 8,-535"/>
<image xlink:href="../../images/foreignKeys.png" width="11px" height="12px" preserveAspectRatio="xMinYMin meet" x="13" y="-552"/>
<text text-anchor="start" x="28" y="-543.2" font-family="Helvetica,sans-Serif" font-size="11.00">m_pricelist_id</text>
<polygon fill="none" stroke="black" points="8,-513 8,-535 244,-535 244,-513 8,-513"/>
<image xlink:href="../../images/foreignKeys.png" width="11px" height="12px" preserveAspectRatio="xMinYMin meet" x="13" y="-530"/>
<text text-anchor="start" x="28" y="-521.2" font-family="Helvetica,sans-Serif" font-size="11.00">m_discountschema_id</text>
<polygon fill="none" stroke="black" points="8,-491 8,-513 244,-513 244,-491 8,-491"/>
<image xlink:href="../../images/foreignKeys.png" width="11px" height="12px" preserveAspectRatio="xMinYMin meet" x="13" y="-508"/>
<text text-anchor="start" x="28" y="-499.2" font-family="Helvetica,sans-Serif" font-size="11.00">c_dunning_id</text>
<polygon fill="none" stroke="black" points="8,-469 8,-491 244,-491 244,-469 8,-469"/>
<image xlink:href="../../images/foreignKeys.png" width="11px" height="12px" preserveAspectRatio="xMinYMin meet" x="13" y="-486"/>
<text text-anchor="start" x="28" y="-477.2" font-family="Helvetica,sans-Serif" font-size="11.00">po_pricelist_id</text>
<polygon fill="none" stroke="black" points="8,-447 8,-469 244,-469 244,-447 8,-447"/>
<image xlink:href="../../images/foreignKeys.png" width="11px" height="12px" preserveAspectRatio="xMinYMin meet" x="13" y="-464"/>
<text text-anchor="start" x="28" y="-455.2" font-family="Helvetica,sans-Serif" font-size="11.00">po_discountschema_id</text>
<polygon fill="none" stroke="black" points="8,-425 8,-447 244,-447 244,-425 8,-425"/>
<image xlink:href="../../images/foreignKeys.png" width="11px" height="12px" preserveAspectRatio="xMinYMin meet" x="13" y="-442"/>
<text text-anchor="start" x="28" y="-433.2" font-family="Helvetica,sans-Serif" font-size="11.00">po_paymentterm_id</text>
<polygon fill="none" stroke="black" points="8,-403 8,-425 244,-425 244,-403 8,-403"/>
<image xlink:href="../../images/foreignKeys.png" width="11px" height="12px" preserveAspectRatio="xMinYMin meet" x="13" y="-420"/>
<text text-anchor="start" x="28" y="-411.2" font-family="Helvetica,sans-Serif" font-size="11.00">c_greeting_id</text>
<polygon fill="none" stroke="black" points="8,-381 8,-403 244,-403 244,-381 8,-381"/>
<image xlink:href="../../images/foreignKeys.png" width="11px" height="12px" preserveAspectRatio="xMinYMin meet" x="13" y="-398"/>
<text text-anchor="start" x="28" y="-389.2" font-family="Helvetica,sans-Serif" font-size="11.00">salesrep_id</text>
<polygon fill="none" stroke="black" points="8,-359 8,-381 244,-381 244,-359 8,-359"/>
<image xlink:href="../../images/foreignKeys.png" width="11px" height="12px" preserveAspectRatio="xMinYMin meet" x="13" y="-376"/>
<text text-anchor="start" x="28" y="-367.2" font-family="Helvetica,sans-Serif" font-size="11.00">bpartner_parent_id</text>
<polygon fill="none" stroke="black" points="8,-337 8,-359 244,-359 244,-337 8,-337"/>
<image xlink:href="../../images/foreignKeys.png" width="11px" height="12px" preserveAspectRatio="xMinYMin meet" x="13" y="-354"/>
<text text-anchor="start" x="28" y="-345.2" font-family="Helvetica,sans-Serif" font-size="11.00">invoice_printformat_id</text>
<polygon fill="#ffffff" stroke="transparent" points="8,-315 8,-337 244,-337 244,-315 8,-315"/>
<polygon fill="none" stroke="black" points="8,-315 8,-337 244,-337 244,-315 8,-315"/>
<image xlink:href="../../images/foreignKeys.png" width="11px" height="12px" preserveAspectRatio="xMinYMin meet" x="13" y="-332"/>
<text text-anchor="start" x="28" y="-323.2" font-family="Helvetica,sans-Serif" font-size="11.00">ad_orgbp_id</text>
<polygon fill="none" stroke="black" points="8,-293 8,-315 244,-315 244,-293 8,-293"/>
<image xlink:href="../../images/foreignKeys.png" width="11px" height="12px" preserveAspectRatio="xMinYMin meet" x="13" y="-310"/>
<text text-anchor="start" x="28" y="-301.2" font-family="Helvetica,sans-Serif" font-size="11.00">c_taxgroup_id</text>
<polygon fill="none" stroke="black" points="8,-271 8,-293 244,-293 244,-271 8,-271"/>
<image xlink:href="../../images/foreignKeys.png" width="11px" height="12px" preserveAspectRatio="xMinYMin meet" x="13" y="-288"/>
<text text-anchor="start" x="28" y="-279.2" font-family="Helvetica,sans-Serif" font-size="11.00">logo_id</text>
<polygon fill="#ffffff" stroke="transparent" points="8,-249 8,-271 244,-271 244,-249 8,-249"/>
<polygon fill="none" stroke="black" points="8,-249 8,-271 244,-271 244,-249 8,-249"/>
<text text-anchor="start" x="28" y="-257.2" font-family="Helvetica,sans-Serif" font-size="11.00">c_bpartner_uu</text>
<polygon fill="none" stroke="black" points="8,-227 8,-249 244,-249 244,-227 8,-227"/>
<image xlink:href="../../images/foreignKeys.png" width="11px" height="12px" preserveAspectRatio="xMinYMin meet" x="13" y="-244"/>
<text text-anchor="start" x="28" y="-235.2" font-family="Helvetica,sans-Serif" font-size="11.00">default1099box_id</text>
<polygon fill="none" stroke="black" points="8,-205 8,-227 244,-227 244,-205 8,-205"/>
<image xlink:href="../../images/foreignKeys.png" width="11px" height="12px" preserveAspectRatio="xMinYMin meet" x="13" y="-222"/>
<text text-anchor="start" x="28" y="-213.2" font-family="Helvetica,sans-Serif" font-size="11.00">cof_c_custody_id</text>
<polygon fill="none" stroke="black" points="8,-183 8,-205 244,-205 244,-183 8,-183"/>
<image xlink:href="../../images/foreignKeys.png" width="11px" height="12px" preserveAspectRatio="xMinYMin meet" x="13" y="-200"/>
<text text-anchor="start" x="28" y="-191.2" font-family="Helvetica,sans-Serif" font-size="11.00">cof_doctypepurchase_id</text>
<polygon fill="none" stroke="black" points="8,-161 8,-183 244,-183 244,-161 8,-161"/>
<image xlink:href="../../images/foreignKeys.png" width="11px" height="12px" preserveAspectRatio="xMinYMin meet" x="13" y="-178"/>
<text text-anchor="start" x="28" y="-169.2" font-family="Helvetica,sans-Serif" font-size="11.00">cof_doctypesale_id</text>
<polygon fill="none" stroke="black" points="8,-139 8,-161 244,-161 244,-139 8,-139"/>
<image xlink:href="../../images/foreignKeys.png" width="11px" height="12px" preserveAspectRatio="xMinYMin meet" x="13" y="-156"/>
<text text-anchor="start" x="28" y="-147.2" font-family="Helvetica,sans-Serif" font-size="11.00">cof_grupofornecedor_id</text>
<polygon fill="none" stroke="black" points="8,-117 8,-139 244,-139 244,-117 8,-117"/>
<image xlink:href="../../images/foreignKeys.png" width="11px" height="12px" preserveAspectRatio="xMinYMin meet" x="13" y="-134"/>
<text text-anchor="start" x="28" y="-125.2" font-family="Helvetica,sans-Serif" font-size="11.00">cof_vendedorinterno_id</text>
<polygon fill="none" stroke="black" points="8,-95 8,-117 244,-117 244,-95 8,-95"/>
<image xlink:href="../../images/foreignKeys.png" width="11px" height="12px" preserveAspectRatio="xMinYMin meet" x="13" y="-112"/>
<text text-anchor="start" x="28" y="-103.2" font-family="Helvetica,sans-Serif" font-size="11.00">cof_tipoparceiro_id</text>
<polygon fill="none" stroke="black" points="8,-73 8,-95 244,-95 244,-73 8,-73"/>
<image xlink:href="../../images/foreignKeys.png" width="11px" height="12px" preserveAspectRatio="xMinYMin meet" x="13" y="-90"/>
<text text-anchor="start" x="28" y="-81.2" font-family="Helvetica,sans-Serif" font-size="11.00">cof_classeparceiro_id</text>
<polygon fill="none" stroke="black" points="8,-55 8,-73 244,-73 244,-55 8,-55"/>
<text text-anchor="start" x="11" y="-61.2" font-family="Helvetica,sans-Serif" font-size="11.00">...</text>
<polygon fill="#ffffff" stroke="transparent" points="8,-37 8,-55 103,-55 103,-37 8,-37"/>
<polygon fill="none" stroke="black" points="8,-37 8,-55 103,-55 103,-37 8,-37"/>
<text text-anchor="start" x="11" y="-43.2" font-family="Helvetica,sans-Serif" font-size="11.00">&lt; 27</text>
<polygon fill="#ffffff" stroke="transparent" points="103,-37 103,-55 176,-55 176,-37 103,-37"/>
<polygon fill="none" stroke="black" points="103,-37 103,-55 176,-55 176,-37 103,-37"/>
<text text-anchor="start" x="140" y="-43.2" font-family="Helvetica,sans-Serif" font-size="11.00">4 rows</text>
<polygon fill="#ffffff" stroke="transparent" points="176,-37 176,-55 244,-55 244,-37 176,-37"/>
<polygon fill="none" stroke="black" points="176,-37 176,-55 244,-55 244,-37 176,-37"/>
<text text-anchor="start" x="213" y="-43.2" font-family="Helvetica,sans-Serif" font-size="11.00">164 &gt;</text>
</a>
</g>
</g>
<!-- cof_pneu_marca&#45;&gt;c_bpartner -->
<g id="edge2" class="edge">
<title>cof_pneu_marca:w&#45;&gt;c_bpartner:e</title>
<path fill="none" stroke="black" d="M279.84,-744C268.41,-744 261.16,-744 245,-744"/>
<polygon fill="black" stroke="black" points="286.5,-744 294.5,-747.6 290.5,-744 294.5,-744 294.5,-744 294.5,-744 290.5,-744 294.5,-740.4 286.5,-744 286.5,-744"/>
<ellipse fill="none" stroke="black" cx="283.3" cy="-744" rx="3.2" ry="3.2"/>
</g>
</g>
</svg>
