<?xml version="1.0" encoding="UTF-8" standalone="no"?>
<!DOCTYPE svg PUBLIC "-//W3C//DTD SVG 1.1//EN"
 "http://www.w3.org/Graphics/SVG/1.1/DTD/svg11.dtd">
<!-- Generated by graphviz version 2.43.0 (0)
 -->
<!-- Title: oneDegreeRelationshipsDiagram Pages: 1 -->
<svg width="570pt" height="989pt"
 viewBox="0.00 0.00 570.00 989.00" xmlns="http://www.w3.org/2000/svg" xmlns:xlink="http://www.w3.org/1999/xlink">
<g id="graph0" class="graph" transform="scale(1 1) rotate(0) translate(4 985)">
<title>oneDegreeRelationshipsDiagram</title>
<polygon fill="#ffffff" stroke="transparent" points="-4,4 -4,-985 566,-985 566,4 -4,4"/>
<text text-anchor="middle" x="71.5" y="-7.2" font-family="Helvetica,sans-Serif" font-size="11.00">Generated by SchemaSpy</text>
<!-- cof_autorizadosxml -->
<g id="node1" class="node">
<title>cof_autorizadosxml</title>
<g id="a_node1"><a xlink:href="../../tables/cof_autorizadosxml.html" xlink:title="cof_autorizadosxml" target="_top">
<polygon fill="#ffffff" stroke="transparent" points="293,-713 293,-977 554,-977 554,-713 293,-713"/>
<polygon fill="#f5f5f5" stroke="transparent" points="295.5,-953 295.5,-975 552.5,-975 552.5,-953 295.5,-953"/>
<polygon fill="none" stroke="black" points="295.5,-953 295.5,-975 552.5,-975 552.5,-953 295.5,-953"/>
<text text-anchor="start" x="300.5" y="-962.2" font-family="Helvetica,sans-Serif" font-weight="bold" font-size="11.00">cof_autorizadosxml</text>
<text text-anchor="start" x="517.5" y="-961.2" font-family="Helvetica,sans-Serif" font-size="11.00">[table]</text>
<polygon fill="none" stroke="black" points="295.5,-931 295.5,-953 469.5,-953 469.5,-931 295.5,-931"/>
<image xlink:href="../../images/primaryKeys.png" width="11px" height="12px" preserveAspectRatio="xMinYMin meet" x="300.5" y="-948"/>
<text text-anchor="start" x="315.5" y="-939.2" font-family="Helvetica,sans-Serif" font-size="11.00">cof_autorizadosxml_id</text>
<polygon fill="none" stroke="black" points="469.5,-931 469.5,-953 552.5,-953 552.5,-931 469.5,-931"/>
<text text-anchor="start" x="472.5" y="-939.2" font-family="Helvetica,sans-Serif" font-size="11.00">numeric[10]</text>
<polygon fill="#ffffff" stroke="transparent" points="295.5,-909 295.5,-931 469.5,-931 469.5,-909 295.5,-909"/>
<polygon fill="none" stroke="black" points="295.5,-909 295.5,-931 469.5,-931 469.5,-909 295.5,-909"/>
<text text-anchor="start" x="315.5" y="-917.2" font-family="Helvetica,sans-Serif" font-size="11.00">cof_autorizadosxml_uu</text>
<polygon fill="none" stroke="black" points="469.5,-909 469.5,-931 552.5,-931 552.5,-909 469.5,-909"/>
<text text-anchor="start" x="472.5" y="-917.2" font-family="Helvetica,sans-Serif" font-size="11.00">varchar[36]</text>
<polygon fill="none" stroke="black" points="295.5,-887 295.5,-909 469.5,-909 469.5,-887 295.5,-887"/>
<text text-anchor="start" x="315.5" y="-895.2" font-family="Helvetica,sans-Serif" font-size="11.00">ad_client_id</text>
<polygon fill="none" stroke="black" points="469.5,-887 469.5,-909 552.5,-909 552.5,-887 469.5,-887"/>
<text text-anchor="start" x="472.5" y="-895.2" font-family="Helvetica,sans-Serif" font-size="11.00">numeric[10]</text>
<polygon fill="none" stroke="black" points="295.5,-865 295.5,-887 469.5,-887 469.5,-865 295.5,-865"/>
<text text-anchor="start" x="315.5" y="-873.2" font-family="Helvetica,sans-Serif" font-size="11.00">ad_org_id</text>
<polygon fill="none" stroke="black" points="469.5,-865 469.5,-887 552.5,-887 552.5,-865 469.5,-865"/>
<text text-anchor="start" x="472.5" y="-873.2" font-family="Helvetica,sans-Serif" font-size="11.00">numeric[10]</text>
<polygon fill="none" stroke="black" points="295.5,-843 295.5,-865 469.5,-865 469.5,-843 295.5,-843"/>
<text text-anchor="start" x="315.5" y="-851.2" font-family="Helvetica,sans-Serif" font-size="11.00">isactive</text>
<polygon fill="none" stroke="black" points="469.5,-843 469.5,-865 552.5,-865 552.5,-843 469.5,-843"/>
<text text-anchor="start" x="472.5" y="-851.2" font-family="Helvetica,sans-Serif" font-size="11.00">bpchar[1]</text>
<polygon fill="none" stroke="black" points="295.5,-821 295.5,-843 469.5,-843 469.5,-821 295.5,-821"/>
<text text-anchor="start" x="315.5" y="-829.2" font-family="Helvetica,sans-Serif" font-size="11.00">created</text>
<polygon fill="none" stroke="black" points="469.5,-821 469.5,-843 552.5,-843 552.5,-821 469.5,-821"/>
<text text-anchor="start" x="472.5" y="-829.2" font-family="Helvetica,sans-Serif" font-size="11.00">timestamp[29,6]</text>
<polygon fill="none" stroke="black" points="295.5,-799 295.5,-821 469.5,-821 469.5,-799 295.5,-799"/>
<text text-anchor="start" x="315.5" y="-807.2" font-family="Helvetica,sans-Serif" font-size="11.00">createdby</text>
<polygon fill="none" stroke="black" points="469.5,-799 469.5,-821 552.5,-821 552.5,-799 469.5,-799"/>
<text text-anchor="start" x="472.5" y="-807.2" font-family="Helvetica,sans-Serif" font-size="11.00">numeric[10]</text>
<polygon fill="none" stroke="black" points="295.5,-777 295.5,-799 469.5,-799 469.5,-777 295.5,-777"/>
<text text-anchor="start" x="315.5" y="-785.2" font-family="Helvetica,sans-Serif" font-size="11.00">updated</text>
<polygon fill="none" stroke="black" points="469.5,-777 469.5,-799 552.5,-799 552.5,-777 469.5,-777"/>
<text text-anchor="start" x="472.5" y="-785.2" font-family="Helvetica,sans-Serif" font-size="11.00">timestamp[29,6]</text>
<polygon fill="none" stroke="black" points="295.5,-755 295.5,-777 469.5,-777 469.5,-755 295.5,-755"/>
<text text-anchor="start" x="315.5" y="-763.2" font-family="Helvetica,sans-Serif" font-size="11.00">updatedby</text>
<polygon fill="none" stroke="black" points="469.5,-755 469.5,-777 552.5,-777 552.5,-755 469.5,-755"/>
<text text-anchor="start" x="472.5" y="-763.2" font-family="Helvetica,sans-Serif" font-size="11.00">numeric[10]</text>
<polygon fill="none" stroke="black" points="295.5,-733 295.5,-755 469.5,-755 469.5,-733 295.5,-733"/>
<image xlink:href="../../images/foreignKeys.png" width="11px" height="12px" preserveAspectRatio="xMinYMin meet" x="300.5" y="-750"/>
<text text-anchor="start" x="315.5" y="-741.2" font-family="Helvetica,sans-Serif" font-size="11.00">c_bpartner_id</text>
<polygon fill="none" stroke="black" points="469.5,-733 469.5,-755 552.5,-755 552.5,-733 469.5,-733"/>
<text text-anchor="start" x="472.5" y="-741.2" font-family="Helvetica,sans-Serif" font-size="11.00">numeric[10]</text>
<polygon fill="#ffffff" stroke="transparent" points="295.5,-715 295.5,-733 373.5,-733 373.5,-715 295.5,-715"/>
<polygon fill="none" stroke="black" points="295.5,-715 295.5,-733 373.5,-733 373.5,-715 295.5,-715"/>
<text text-anchor="start" x="298.5" y="-721.2" font-family="Helvetica,sans-Serif" font-size="11.00">&lt; 1</text>
<polygon fill="#ffffff" stroke="transparent" points="373.5,-715 373.5,-733 469.5,-733 469.5,-715 373.5,-715"/>
<polygon fill="none" stroke="black" points="373.5,-715 373.5,-733 469.5,-733 469.5,-715 373.5,-715"/>
<text text-anchor="start" x="433.5" y="-721.2" font-family="Helvetica,sans-Serif" font-size="11.00">0 rows</text>
<polygon fill="#ffffff" stroke="transparent" points="469.5,-715 469.5,-733 552.5,-733 552.5,-715 469.5,-715"/>
<polygon fill="none" stroke="black" points="469.5,-715 469.5,-733 552.5,-733 552.5,-715 469.5,-715"/>
<text text-anchor="start" x="533.5" y="-721.2" font-family="Helvetica,sans-Serif" font-size="11.00">0 &gt;</text>
<polygon fill="none" stroke="black" stroke-width="2" points="294,-714 294,-976 553,-976 553,-714 294,-714"/>
</a>
</g>
</g>
<!-- c_bpartner -->
<g id="node2" class="node">
<title>c_bpartner</title>
<g id="a_node2"><a xlink:href="../../tables/c_bpartner.html" xlink:title="c_bpartner" target="_top">
<polygon fill="#ffffff" stroke="transparent" points="8,-37 8,-777 244,-777 244,-37 8,-37"/>
<polygon fill="#f5f5f5" stroke="transparent" points="8,-755 8,-777 244,-777 244,-755 8,-755"/>
<polygon fill="none" stroke="black" points="8,-755 8,-777 244,-777 244,-755 8,-755"/>
<text text-anchor="start" x="13" y="-764.2" font-family="Helvetica,sans-Serif" font-weight="bold" font-size="11.00">c_bpartner</text>
<text text-anchor="start" x="209" y="-763.2" font-family="Helvetica,sans-Serif" font-size="11.00">[table]</text>
<polygon fill="none" stroke="black" points="8,-733 8,-755 244,-755 244,-733 8,-733"/>
<image xlink:href="../../images/primaryKeys.png" width="11px" height="12px" preserveAspectRatio="xMinYMin meet" x="13" y="-750"/>
<text text-anchor="start" x="28" y="-741.2" font-family="Helvetica,sans-Serif" font-size="11.00">c_bpartner_id</text>
<polygon fill="#ffffff" stroke="transparent" points="8,-711 8,-733 244,-733 244,-711 8,-711"/>
<polygon fill="none" stroke="black" points="8,-711 8,-733 244,-733 244,-711 8,-711"/>
<image xlink:href="../../images/foreignKeys.png" width="11px" height="12px" preserveAspectRatio="xMinYMin meet" x="13" y="-728"/>
<text text-anchor="start" x="28" y="-719.2" font-family="Helvetica,sans-Serif" font-size="11.00">ad_client_id</text>
<polygon fill="none" stroke="black" points="8,-689 8,-711 244,-711 244,-689 8,-689"/>
<image xlink:href="../../images/foreignKeys.png" width="11px" height="12px" preserveAspectRatio="xMinYMin meet" x="13" y="-706"/>
<text text-anchor="start" x="28" y="-697.2" font-family="Helvetica,sans-Serif" font-size="11.00">ad_org_id</text>
<polygon fill="#ffffff" stroke="transparent" points="8,-667 8,-689 244,-689 244,-667 8,-667"/>
<polygon fill="none" stroke="black" points="8,-667 8,-689 244,-689 244,-667 8,-667"/>
<text text-anchor="start" x="28" y="-675.2" font-family="Helvetica,sans-Serif" font-size="11.00">value</text>
<polygon fill="#ffffff" stroke="transparent" points="8,-645 8,-667 244,-667 244,-645 8,-645"/>
<polygon fill="none" stroke="black" points="8,-645 8,-667 244,-667 244,-645 8,-645"/>
<text text-anchor="start" x="28" y="-653.2" font-family="Helvetica,sans-Serif" font-size="11.00">name</text>
<polygon fill="none" stroke="black" points="8,-623 8,-645 244,-645 244,-623 8,-623"/>
<image xlink:href="../../images/foreignKeys.png" width="11px" height="12px" preserveAspectRatio="xMinYMin meet" x="13" y="-640"/>
<text text-anchor="start" x="28" y="-631.2" font-family="Helvetica,sans-Serif" font-size="11.00">c_bp_group_id</text>
<polygon fill="none" stroke="black" points="8,-601 8,-623 244,-623 244,-601 8,-601"/>
<image xlink:href="../../images/foreignKeys.png" width="11px" height="12px" preserveAspectRatio="xMinYMin meet" x="13" y="-618"/>
<text text-anchor="start" x="28" y="-609.2" font-family="Helvetica,sans-Serif" font-size="11.00">ad_language</text>
<polygon fill="none" stroke="black" points="8,-579 8,-601 244,-601 244,-579 8,-579"/>
<image xlink:href="../../images/foreignKeys.png" width="11px" height="12px" preserveAspectRatio="xMinYMin meet" x="13" y="-596"/>
<text text-anchor="start" x="28" y="-587.2" font-family="Helvetica,sans-Serif" font-size="11.00">c_invoiceschedule_id</text>
<polygon fill="none" stroke="black" points="8,-557 8,-579 244,-579 244,-557 8,-557"/>
<image xlink:href="../../images/foreignKeys.png" width="11px" height="12px" preserveAspectRatio="xMinYMin meet" x="13" y="-574"/>
<text text-anchor="start" x="28" y="-565.2" font-family="Helvetica,sans-Serif" font-size="11.00">c_paymentterm_id</text>
<polygon fill="none" stroke="black" points="8,-535 8,-557 244,-557 244,-535 8,-535"/>
<image xlink:href="../../images/foreignKeys.png" width="11px" height="12px" preserveAspectRatio="xMinYMin meet" x="13" y="-552"/>
<text text-anchor="start" x="28" y="-543.2" font-family="Helvetica,sans-Serif" font-size="11.00">m_pricelist_id</text>
<polygon fill="none" stroke="black" points="8,-513 8,-535 244,-535 244,-513 8,-513"/>
<image xlink:href="../../images/foreignKeys.png" width="11px" height="12px" preserveAspectRatio="xMinYMin meet" x="13" y="-530"/>
<text text-anchor="start" x="28" y="-521.2" font-family="Helvetica,sans-Serif" font-size="11.00">m_discountschema_id</text>
<polygon fill="none" stroke="black" points="8,-491 8,-513 244,-513 244,-491 8,-491"/>
<image xlink:href="../../images/foreignKeys.png" width="11px" height="12px" preserveAspectRatio="xMinYMin meet" x="13" y="-508"/>
<text text-anchor="start" x="28" y="-499.2" font-family="Helvetica,sans-Serif" font-size="11.00">c_dunning_id</text>
<polygon fill="none" stroke="black" points="8,-469 8,-491 244,-491 244,-469 8,-469"/>
<image xlink:href="../../images/foreignKeys.png" width="11px" height="12px" preserveAspectRatio="xMinYMin meet" x="13" y="-486"/>
<text text-anchor="start" x="28" y="-477.2" font-family="Helvetica,sans-Serif" font-size="11.00">po_pricelist_id</text>
<polygon fill="none" stroke="black" points="8,-447 8,-469 244,-469 244,-447 8,-447"/>
<image xlink:href="../../images/foreignKeys.png" width="11px" height="12px" preserveAspectRatio="xMinYMin meet" x="13" y="-464"/>
<text text-anchor="start" x="28" y="-455.2" font-family="Helvetica,sans-Serif" font-size="11.00">po_discountschema_id</text>
<polygon fill="none" stroke="black" points="8,-425 8,-447 244,-447 244,-425 8,-425"/>
<image xlink:href="../../images/foreignKeys.png" width="11px" height="12px" preserveAspectRatio="xMinYMin meet" x="13" y="-442"/>
<text text-anchor="start" x="28" y="-433.2" font-family="Helvetica,sans-Serif" font-size="11.00">po_paymentterm_id</text>
<polygon fill="none" stroke="black" points="8,-403 8,-425 244,-425 244,-403 8,-403"/>
<image xlink:href="../../images/foreignKeys.png" width="11px" height="12px" preserveAspectRatio="xMinYMin meet" x="13" y="-420"/>
<text text-anchor="start" x="28" y="-411.2" font-family="Helvetica,sans-Serif" font-size="11.00">c_greeting_id</text>
<polygon fill="none" stroke="black" points="8,-381 8,-403 244,-403 244,-381 8,-381"/>
<image xlink:href="../../images/foreignKeys.png" width="11px" height="12px" preserveAspectRatio="xMinYMin meet" x="13" y="-398"/>
<text text-anchor="start" x="28" y="-389.2" font-family="Helvetica,sans-Serif" font-size="11.00">salesrep_id</text>
<polygon fill="none" stroke="black" points="8,-359 8,-381 244,-381 244,-359 8,-359"/>
<image xlink:href="../../images/foreignKeys.png" width="11px" height="12px" preserveAspectRatio="xMinYMin meet" x="13" y="-376"/>
<text text-anchor="start" x="28" y="-367.2" font-family="Helvetica,sans-Serif" font-size="11.00">bpartner_parent_id</text>
<polygon fill="none" stroke="black" points="8,-337 8,-359 244,-359 244,-337 8,-337"/>
<image xlink:href="../../images/foreignKeys.png" width="11px" height="12px" preserveAspectRatio="xMinYMin meet" x="13" y="-354"/>
<text text-anchor="start" x="28" y="-345.2" font-family="Helvetica,sans-Serif" font-size="11.00">invoice_printformat_id</text>
<polygon fill="#ffffff" stroke="transparent" points="8,-315 8,-337 244,-337 244,-315 8,-315"/>
<polygon fill="none" stroke="black" points="8,-315 8,-337 244,-337 244,-315 8,-315"/>
<image xlink:href="../../images/foreignKeys.png" width="11px" height="12px" preserveAspectRatio="xMinYMin meet" x="13" y="-332"/>
<text text-anchor="start" x="28" y="-323.2" font-family="Helvetica,sans-Serif" font-size="11.00">ad_orgbp_id</text>
<polygon fill="none" stroke="black" points="8,-293 8,-315 244,-315 244,-293 8,-293"/>
<image xlink:href="../../images/foreignKeys.png" width="11px" height="12px" preserveAspectRatio="xMinYMin meet" x="13" y="-310"/>
<text text-anchor="start" x="28" y="-301.2" font-family="Helvetica,sans-Serif" font-size="11.00">c_taxgroup_id</text>
<polygon fill="none" stroke="black" points="8,-271 8,-293 244,-293 244,-271 8,-271"/>
<image xlink:href="../../images/foreignKeys.png" width="11px" height="12px" preserveAspectRatio="xMinYMin meet" x="13" y="-288"/>
<text text-anchor="start" x="28" y="-279.2" font-family="Helvetica,sans-Serif" font-size="11.00">logo_id</text>
<polygon fill="#ffffff" stroke="transparent" points="8,-249 8,-271 244,-271 244,-249 8,-249"/>
<polygon fill="none" stroke="black" points="8,-249 8,-271 244,-271 244,-249 8,-249"/>
<text text-anchor="start" x="28" y="-257.2" font-family="Helvetica,sans-Serif" font-size="11.00">c_bpartner_uu</text>
<polygon fill="none" stroke="black" points="8,-227 8,-249 244,-249 244,-227 8,-227"/>
<image xlink:href="../../images/foreignKeys.png" width="11px" height="12px" preserveAspectRatio="xMinYMin meet" x="13" y="-244"/>
<text text-anchor="start" x="28" y="-235.2" font-family="Helvetica,sans-Serif" font-size="11.00">default1099box_id</text>
<polygon fill="none" stroke="black" points="8,-205 8,-227 244,-227 244,-205 8,-205"/>
<image xlink:href="../../images/foreignKeys.png" width="11px" height="12px" preserveAspectRatio="xMinYMin meet" x="13" y="-222"/>
<text text-anchor="start" x="28" y="-213.2" font-family="Helvetica,sans-Serif" font-size="11.00">cof_c_custody_id</text>
<polygon fill="none" stroke="black" points="8,-183 8,-205 244,-205 244,-183 8,-183"/>
<image xlink:href="../../images/foreignKeys.png" width="11px" height="12px" preserveAspectRatio="xMinYMin meet" x="13" y="-200"/>
<text text-anchor="start" x="28" y="-191.2" font-family="Helvetica,sans-Serif" font-size="11.00">cof_doctypepurchase_id</text>
<polygon fill="none" stroke="black" points="8,-161 8,-183 244,-183 244,-161 8,-161"/>
<image xlink:href="../../images/foreignKeys.png" width="11px" height="12px" preserveAspectRatio="xMinYMin meet" x="13" y="-178"/>
<text text-anchor="start" x="28" y="-169.2" font-family="Helvetica,sans-Serif" font-size="11.00">cof_doctypesale_id</text>
<polygon fill="none" stroke="black" points="8,-139 8,-161 244,-161 244,-139 8,-139"/>
<image xlink:href="../../images/foreignKeys.png" width="11px" height="12px" preserveAspectRatio="xMinYMin meet" x="13" y="-156"/>
<text text-anchor="start" x="28" y="-147.2" font-family="Helvetica,sans-Serif" font-size="11.00">cof_grupofornecedor_id</text>
<polygon fill="none" stroke="black" points="8,-117 8,-139 244,-139 244,-117 8,-117"/>
<image xlink:href="../../images/foreignKeys.png" width="11px" height="12px" preserveAspectRatio="xMinYMin meet" x="13" y="-134"/>
<text text-anchor="start" x="28" y="-125.2" font-family="Helvetica,sans-Serif" font-size="11.00">cof_vendedorinterno_id</text>
<polygon fill="none" stroke="black" points="8,-95 8,-117 244,-117 244,-95 8,-95"/>
<image xlink:href="../../images/foreignKeys.png" width="11px" height="12px" preserveAspectRatio="xMinYMin meet" x="13" y="-112"/>
<text text-anchor="start" x="28" y="-103.2" font-family="Helvetica,sans-Serif" font-size="11.00">cof_tipoparceiro_id</text>
<polygon fill="none" stroke="black" points="8,-73 8,-95 244,-95 244,-73 8,-73"/>
<image xlink:href="../../images/foreignKeys.png" width="11px" height="12px" preserveAspectRatio="xMinYMin meet" x="13" y="-90"/>
<text text-anchor="start" x="28" y="-81.2" font-family="Helvetica,sans-Serif" font-size="11.00">cof_classeparceiro_id</text>
<polygon fill="none" stroke="black" points="8,-55 8,-73 244,-73 244,-55 8,-55"/>
<text text-anchor="start" x="11" y="-61.2" font-family="Helvetica,sans-Serif" font-size="11.00">...</text>
<polygon fill="#ffffff" stroke="transparent" points="8,-37 8,-55 103,-55 103,-37 8,-37"/>
<polygon fill="none" stroke="black" points="8,-37 8,-55 103,-55 103,-37 8,-37"/>
<text text-anchor="start" x="11" y="-43.2" font-family="Helvetica,sans-Serif" font-size="11.00">&lt; 27</text>
<polygon fill="#ffffff" stroke="transparent" points="103,-37 103,-55 176,-55 176,-37 103,-37"/>
<polygon fill="none" stroke="black" points="103,-37 103,-55 176,-55 176,-37 103,-37"/>
<text text-anchor="start" x="140" y="-43.2" font-family="Helvetica,sans-Serif" font-size="11.00">4 rows</text>
<polygon fill="#ffffff" stroke="transparent" points="176,-37 176,-55 244,-55 244,-37 176,-37"/>
<polygon fill="none" stroke="black" points="176,-37 176,-55 244,-55 244,-37 176,-37"/>
<text text-anchor="start" x="213" y="-43.2" font-family="Helvetica,sans-Serif" font-size="11.00">164 &gt;</text>
</a>
</g>
</g>
<!-- cof_autorizadosxml&#45;&gt;c_bpartner -->
<g id="edge1" class="edge">
<title>cof_autorizadosxml:w&#45;&gt;c_bpartner:e</title>
<path fill="none" stroke="black" d="M279.84,-744C268.41,-744 261.16,-744 245,-744"/>
<polygon fill="black" stroke="black" points="286.5,-744 294.5,-747.6 290.5,-744 294.5,-744 294.5,-744 294.5,-744 290.5,-744 294.5,-740.4 286.5,-744 286.5,-744"/>
<ellipse fill="none" stroke="black" cx="283.3" cy="-744" rx="3.2" ry="3.2"/>
</g>
</g>
</svg>
