<?xml version="1.0" encoding="UTF-8" standalone="no"?>
<!DOCTYPE svg PUBLIC "-//W3C//DTD SVG 1.1//EN"
 "http://www.w3.org/Graphics/SVG/1.1/DTD/svg11.dtd">
<!-- Generated by graphviz version 2.43.0 (0)
 -->
<!-- Title: oneDegreeRelationshipsDiagram Pages: 1 -->
<svg width="501pt" height="465pt"
 viewBox="0.00 0.00 501.00 465.00" xmlns="http://www.w3.org/2000/svg" xmlns:xlink="http://www.w3.org/1999/xlink">
<g id="graph0" class="graph" transform="scale(1 1) rotate(0) translate(4 461)">
<title>oneDegreeRelationshipsDiagram</title>
<polygon fill="#ffffff" stroke="transparent" points="-4,4 -4,-461 497,-461 497,4 -4,4"/>
<text text-anchor="middle" x="71.5" y="-7.2" font-family="Helvetica,sans-Serif" font-size="11.00">Generated by SchemaSpy</text>
<!-- cof_activity -->
<g id="node1" class="node">
<title>cof_activity</title>
<g id="a_node1"><a xlink:href="../../tables/cof_activity.html" xlink:title="cof_activity" target="_top">
<polygon fill="#ffffff" stroke="transparent" points="313,-153 313,-453 485,-453 485,-153 313,-153"/>
<polygon fill="#f5f5f5" stroke="transparent" points="313,-431 313,-453 485,-453 485,-431 313,-431"/>
<polygon fill="none" stroke="black" points="313,-431 313,-453 485,-453 485,-431 313,-431"/>
<text text-anchor="start" x="318" y="-440.2" font-family="Helvetica,sans-Serif" font-weight="bold" font-size="11.00">cof_activity</text>
<text text-anchor="start" x="450" y="-439.2" font-family="Helvetica,sans-Serif" font-size="11.00">[table]</text>
<polygon fill="none" stroke="black" points="313,-409 313,-431 485,-431 485,-409 313,-409"/>
<image xlink:href="../../images/primaryKeys.png" width="11px" height="12px" preserveAspectRatio="xMinYMin meet" x="318" y="-426"/>
<text text-anchor="start" x="333" y="-417.2" font-family="Helvetica,sans-Serif" font-size="11.00">cof_activity_id</text>
<polygon fill="#ffffff" stroke="transparent" points="313,-387 313,-409 485,-409 485,-387 313,-387"/>
<polygon fill="none" stroke="black" points="313,-387 313,-409 485,-409 485,-387 313,-387"/>
<text text-anchor="start" x="333" y="-395.2" font-family="Helvetica,sans-Serif" font-size="11.00">cof_activity_uu</text>
<polygon fill="none" stroke="black" points="313,-365 313,-387 485,-387 485,-365 313,-365"/>
<image xlink:href="../../images/foreignKeys.png" width="11px" height="12px" preserveAspectRatio="xMinYMin meet" x="318" y="-382"/>
<text text-anchor="start" x="333" y="-373.2" font-family="Helvetica,sans-Serif" font-size="11.00">ad_user_id</text>
<polygon fill="none" stroke="black" points="313,-343 313,-365 485,-365 485,-343 313,-343"/>
<image xlink:href="../../images/foreignKeys.png" width="11px" height="12px" preserveAspectRatio="xMinYMin meet" x="318" y="-360"/>
<text text-anchor="start" x="333" y="-351.2" font-family="Helvetica,sans-Serif" font-size="11.00">cof_activity_type_id</text>
<polygon fill="none" stroke="black" points="313,-321 313,-343 485,-343 485,-321 313,-321"/>
<image xlink:href="../../images/foreignKeys.png" width="11px" height="12px" preserveAspectRatio="xMinYMin meet" x="318" y="-338"/>
<text text-anchor="start" x="333" y="-329.2" font-family="Helvetica,sans-Serif" font-size="11.00">cof_activity_status_id</text>
<polygon fill="none" stroke="black" points="313,-299 313,-321 485,-321 485,-299 313,-299"/>
<image xlink:href="../../images/foreignKeys.png" width="11px" height="12px" preserveAspectRatio="xMinYMin meet" x="318" y="-316"/>
<text text-anchor="start" x="333" y="-307.2" font-family="Helvetica,sans-Serif" font-size="11.00">cof_activity_action_id</text>
<polygon fill="none" stroke="black" points="313,-277 313,-299 485,-299 485,-277 313,-277"/>
<image xlink:href="../../images/foreignKeys.png" width="11px" height="12px" preserveAspectRatio="xMinYMin meet" x="318" y="-294"/>
<text text-anchor="start" x="333" y="-285.2" font-family="Helvetica,sans-Serif" font-size="11.00">c_bpartner_id</text>
<polygon fill="none" stroke="black" points="313,-255 313,-277 485,-277 485,-255 313,-255"/>
<image xlink:href="../../images/foreignKeys.png" width="11px" height="12px" preserveAspectRatio="xMinYMin meet" x="318" y="-272"/>
<text text-anchor="start" x="333" y="-263.2" font-family="Helvetica,sans-Serif" font-size="11.00">salesrep_id</text>
<polygon fill="none" stroke="black" points="313,-233 313,-255 485,-255 485,-233 313,-233"/>
<image xlink:href="../../images/foreignKeys.png" width="11px" height="12px" preserveAspectRatio="xMinYMin meet" x="318" y="-250"/>
<text text-anchor="start" x="333" y="-241.2" font-family="Helvetica,sans-Serif" font-size="11.00">cof_lead_id</text>
<polygon fill="none" stroke="black" points="313,-211 313,-233 485,-233 485,-211 313,-211"/>
<image xlink:href="../../images/foreignKeys.png" width="11px" height="12px" preserveAspectRatio="xMinYMin meet" x="318" y="-228"/>
<text text-anchor="start" x="333" y="-219.2" font-family="Helvetica,sans-Serif" font-size="11.00">c_bpartner_location_id</text>
<polygon fill="none" stroke="black" points="313,-189 313,-211 485,-211 485,-189 313,-189"/>
<image xlink:href="../../images/foreignKeys.png" width="11px" height="12px" preserveAspectRatio="xMinYMin meet" x="318" y="-206"/>
<text text-anchor="start" x="333" y="-197.2" font-family="Helvetica,sans-Serif" font-size="11.00">c_opportunity_id</text>
<polygon fill="none" stroke="black" points="313,-171 313,-189 485,-189 485,-171 313,-171"/>
<text text-anchor="start" x="316" y="-177.2" font-family="Helvetica,sans-Serif" font-size="11.00">...</text>
<polygon fill="#ffffff" stroke="transparent" points="313,-153 313,-171 384,-171 384,-153 313,-153"/>
<polygon fill="none" stroke="black" points="313,-153 313,-171 384,-171 384,-153 313,-153"/>
<text text-anchor="start" x="316" y="-159.2" font-family="Helvetica,sans-Serif" font-size="11.00">&lt; 9</text>
<polygon fill="#ffffff" stroke="transparent" points="384,-153 384,-171 447,-171 447,-153 384,-153"/>
<polygon fill="none" stroke="black" points="384,-153 384,-171 447,-171 447,-153 384,-153"/>
<text text-anchor="start" x="411" y="-159.2" font-family="Helvetica,sans-Serif" font-size="11.00">0 rows</text>
<polygon fill="#ffffff" stroke="transparent" points="447,-153 447,-171 485,-171 485,-153 447,-153"/>
<polygon fill="none" stroke="black" points="447,-153 447,-171 485,-171 485,-153 447,-153"/>
<text text-anchor="start" x="475" y="-159.2" font-family="Helvetica,sans-Serif" font-size="11.00"> &#160;</text>
</a>
</g>
</g>
<!-- cof_activity_action -->
<g id="node2" class="node">
<title>cof_activity_action</title>
<g id="a_node2"><a xlink:href="../../tables/cof_activity_action.html" xlink:title="cof_activity_action" target="_top">
<polygon fill="#ffffff" stroke="transparent" points="8,-37 8,-345 264,-345 264,-37 8,-37"/>
<polygon fill="#f5f5f5" stroke="transparent" points="10,-321 10,-343 262,-343 262,-321 10,-321"/>
<polygon fill="none" stroke="black" points="10,-321 10,-343 262,-343 262,-321 10,-321"/>
<text text-anchor="start" x="15" y="-330.2" font-family="Helvetica,sans-Serif" font-weight="bold" font-size="11.00">cof_activity_action</text>
<text text-anchor="start" x="227" y="-329.2" font-family="Helvetica,sans-Serif" font-size="11.00">[table]</text>
<polygon fill="none" stroke="black" points="10,-299 10,-321 179,-321 179,-299 10,-299"/>
<image xlink:href="../../images/primaryKeys.png" width="11px" height="12px" preserveAspectRatio="xMinYMin meet" x="15" y="-316"/>
<text text-anchor="start" x="30" y="-307.2" font-family="Helvetica,sans-Serif" font-size="11.00">cof_activity_action_id</text>
<polygon fill="none" stroke="black" points="179,-299 179,-321 262,-321 262,-299 179,-299"/>
<text text-anchor="start" x="182" y="-307.2" font-family="Helvetica,sans-Serif" font-size="11.00">numeric[10]</text>
<polygon fill="#ffffff" stroke="transparent" points="10,-277 10,-299 179,-299 179,-277 10,-277"/>
<polygon fill="none" stroke="black" points="10,-277 10,-299 179,-299 179,-277 10,-277"/>
<text text-anchor="start" x="30" y="-285.2" font-family="Helvetica,sans-Serif" font-size="11.00">cof_activity_action_uu</text>
<polygon fill="none" stroke="black" points="179,-277 179,-299 262,-299 262,-277 179,-277"/>
<text text-anchor="start" x="182" y="-285.2" font-family="Helvetica,sans-Serif" font-size="11.00">varchar[36]</text>
<polygon fill="none" stroke="black" points="10,-255 10,-277 179,-277 179,-255 10,-255"/>
<text text-anchor="start" x="30" y="-263.2" font-family="Helvetica,sans-Serif" font-size="11.00">ad_client_id</text>
<polygon fill="none" stroke="black" points="179,-255 179,-277 262,-277 262,-255 179,-255"/>
<text text-anchor="start" x="182" y="-263.2" font-family="Helvetica,sans-Serif" font-size="11.00">numeric[10]</text>
<polygon fill="none" stroke="black" points="10,-233 10,-255 179,-255 179,-233 10,-233"/>
<text text-anchor="start" x="30" y="-241.2" font-family="Helvetica,sans-Serif" font-size="11.00">ad_org_id</text>
<polygon fill="none" stroke="black" points="179,-233 179,-255 262,-255 262,-233 179,-233"/>
<text text-anchor="start" x="182" y="-241.2" font-family="Helvetica,sans-Serif" font-size="11.00">numeric[10]</text>
<polygon fill="none" stroke="black" points="10,-211 10,-233 179,-233 179,-211 10,-211"/>
<text text-anchor="start" x="30" y="-219.2" font-family="Helvetica,sans-Serif" font-size="11.00">isactive</text>
<polygon fill="none" stroke="black" points="179,-211 179,-233 262,-233 262,-211 179,-211"/>
<text text-anchor="start" x="182" y="-219.2" font-family="Helvetica,sans-Serif" font-size="11.00">bpchar[1]</text>
<polygon fill="none" stroke="black" points="10,-189 10,-211 179,-211 179,-189 10,-189"/>
<text text-anchor="start" x="30" y="-197.2" font-family="Helvetica,sans-Serif" font-size="11.00">created</text>
<polygon fill="none" stroke="black" points="179,-189 179,-211 262,-211 262,-189 179,-189"/>
<text text-anchor="start" x="182" y="-197.2" font-family="Helvetica,sans-Serif" font-size="11.00">timestamp[29,6]</text>
<polygon fill="none" stroke="black" points="10,-167 10,-189 179,-189 179,-167 10,-167"/>
<text text-anchor="start" x="30" y="-175.2" font-family="Helvetica,sans-Serif" font-size="11.00">createdby</text>
<polygon fill="none" stroke="black" points="179,-167 179,-189 262,-189 262,-167 179,-167"/>
<text text-anchor="start" x="182" y="-175.2" font-family="Helvetica,sans-Serif" font-size="11.00">numeric[10]</text>
<polygon fill="none" stroke="black" points="10,-145 10,-167 179,-167 179,-145 10,-145"/>
<text text-anchor="start" x="30" y="-153.2" font-family="Helvetica,sans-Serif" font-size="11.00">updated</text>
<polygon fill="none" stroke="black" points="179,-145 179,-167 262,-167 262,-145 179,-145"/>
<text text-anchor="start" x="182" y="-153.2" font-family="Helvetica,sans-Serif" font-size="11.00">timestamp[29,6]</text>
<polygon fill="none" stroke="black" points="10,-123 10,-145 179,-145 179,-123 10,-123"/>
<text text-anchor="start" x="30" y="-131.2" font-family="Helvetica,sans-Serif" font-size="11.00">updatedby</text>
<polygon fill="none" stroke="black" points="179,-123 179,-145 262,-145 262,-123 179,-123"/>
<text text-anchor="start" x="182" y="-131.2" font-family="Helvetica,sans-Serif" font-size="11.00">numeric[10]</text>
<polygon fill="none" stroke="black" points="10,-101 10,-123 179,-123 179,-101 10,-101"/>
<text text-anchor="start" x="30" y="-109.2" font-family="Helvetica,sans-Serif" font-size="11.00">value</text>
<polygon fill="none" stroke="black" points="179,-101 179,-123 262,-123 262,-101 179,-101"/>
<text text-anchor="start" x="182" y="-109.2" font-family="Helvetica,sans-Serif" font-size="11.00">varchar[40]</text>
<polygon fill="none" stroke="black" points="10,-79 10,-101 179,-101 179,-79 10,-79"/>
<text text-anchor="start" x="30" y="-87.2" font-family="Helvetica,sans-Serif" font-size="11.00">name</text>
<polygon fill="none" stroke="black" points="179,-79 179,-101 262,-101 262,-79 179,-79"/>
<text text-anchor="start" x="182" y="-87.2" font-family="Helvetica,sans-Serif" font-size="11.00">varchar[60]</text>
<polygon fill="none" stroke="black" points="10,-57 10,-79 179,-79 179,-57 10,-57"/>
<text text-anchor="start" x="30" y="-65.2" font-family="Helvetica,sans-Serif" font-size="11.00">description</text>
<polygon fill="none" stroke="black" points="179,-57 179,-79 262,-79 262,-57 179,-57"/>
<text text-anchor="start" x="182" y="-65.2" font-family="Helvetica,sans-Serif" font-size="11.00">varchar[255]</text>
<polygon fill="#ffffff" stroke="transparent" points="10,-39 10,-57 86,-57 86,-39 10,-39"/>
<polygon fill="none" stroke="black" points="10,-39 10,-57 86,-57 86,-39 10,-39"/>
<text text-anchor="start" x="13" y="-45.2" font-family="Helvetica,sans-Serif" font-size="11.00">&lt; 0</text>
<polygon fill="#ffffff" stroke="transparent" points="86,-39 86,-57 179,-57 179,-39 86,-39"/>
<polygon fill="none" stroke="black" points="86,-39 86,-57 179,-57 179,-39 86,-39"/>
<text text-anchor="start" x="143" y="-45.2" font-family="Helvetica,sans-Serif" font-size="11.00">6 rows</text>
<polygon fill="#ffffff" stroke="transparent" points="179,-39 179,-57 262,-57 262,-39 179,-39"/>
<polygon fill="none" stroke="black" points="179,-39 179,-57 262,-57 262,-39 179,-39"/>
<text text-anchor="start" x="243" y="-45.2" font-family="Helvetica,sans-Serif" font-size="11.00">1 &gt;</text>
<polygon fill="none" stroke="black" stroke-width="2" points="9,-38 9,-344 263,-344 263,-38 9,-38"/>
</a>
</g>
</g>
<!-- cof_activity&#45;&gt;cof_activity_action -->
<g id="edge1" class="edge">
<title>cof_activity:w&#45;&gt;cof_activity_action:e</title>
<path fill="none" stroke="black" d="M297.49,-310C286.18,-310 278.99,-310 263,-310"/>
<polygon fill="black" stroke="black" points="304,-310 312,-313.6 308,-310 312,-310 312,-310 312,-310 308,-310 312,-306.4 304,-310 304,-310"/>
<ellipse fill="none" stroke="black" cx="300.8" cy="-310" rx="3.2" ry="3.2"/>
</g>
</g>
</svg>
