<?xml version="1.0" encoding="UTF-8" standalone="no"?>
<!DOCTYPE svg PUBLIC "-//W3C//DTD SVG 1.1//EN"
 "http://www.w3.org/Graphics/SVG/1.1/DTD/svg11.dtd">
<!-- Generated by graphviz version 2.43.0 (0)
 -->
<!-- Title: oneDegreeRelationshipsDiagram Pages: 1 -->
<svg width="551pt" height="663pt"
 viewBox="0.00 0.00 551.00 663.00" xmlns="http://www.w3.org/2000/svg" xmlns:xlink="http://www.w3.org/1999/xlink">
<g id="graph0" class="graph" transform="scale(1 1) rotate(0) translate(4 659)">
<title>oneDegreeRelationshipsDiagram</title>
<polygon fill="#ffffff" stroke="transparent" points="-4,4 -4,-659 547,-659 547,4 -4,4"/>
<text text-anchor="middle" x="71.5" y="-7.2" font-family="Helvetica,sans-Serif" font-size="11.00">Generated by SchemaSpy</text>
<!-- cof_ordemservico -->
<g id="node1" class="node">
<title>cof_ordemservico</title>
<g id="a_node1"><a xlink:href="../../tables/cof_ordemservico.html" xlink:title="cof_ordemservico" target="_top">
<polygon fill="#ffffff" stroke="transparent" points="338,-43 338,-651 535,-651 535,-43 338,-43"/>
<polygon fill="#f5f5f5" stroke="transparent" points="338.5,-629 338.5,-651 535.5,-651 535.5,-629 338.5,-629"/>
<polygon fill="none" stroke="black" points="338.5,-629 338.5,-651 535.5,-651 535.5,-629 338.5,-629"/>
<text text-anchor="start" x="343.5" y="-638.2" font-family="Helvetica,sans-Serif" font-weight="bold" font-size="11.00">cof_ordemservico</text>
<text text-anchor="start" x="500.5" y="-637.2" font-family="Helvetica,sans-Serif" font-size="11.00">[table]</text>
<polygon fill="none" stroke="black" points="338.5,-607 338.5,-629 535.5,-629 535.5,-607 338.5,-607"/>
<image xlink:href="../../images/primaryKeys.png" width="11px" height="12px" preserveAspectRatio="xMinYMin meet" x="343.5" y="-624"/>
<text text-anchor="start" x="358.5" y="-615.2" font-family="Helvetica,sans-Serif" font-size="11.00">cof_ordemservico_id</text>
<polygon fill="#ffffff" stroke="transparent" points="338.5,-585 338.5,-607 535.5,-607 535.5,-585 338.5,-585"/>
<polygon fill="none" stroke="black" points="338.5,-585 338.5,-607 535.5,-607 535.5,-585 338.5,-585"/>
<text text-anchor="start" x="358.5" y="-593.2" font-family="Helvetica,sans-Serif" font-size="11.00">cof_ordemservico_uu</text>
<polygon fill="none" stroke="black" points="338.5,-563 338.5,-585 535.5,-585 535.5,-563 338.5,-563"/>
<image xlink:href="../../images/foreignKeys.png" width="11px" height="12px" preserveAspectRatio="xMinYMin meet" x="343.5" y="-580"/>
<text text-anchor="start" x="358.5" y="-571.2" font-family="Helvetica,sans-Serif" font-size="11.00">cof_equipments_id</text>
<polygon fill="none" stroke="black" points="338.5,-541 338.5,-563 535.5,-563 535.5,-541 338.5,-541"/>
<image xlink:href="../../images/foreignKeys.png" width="11px" height="12px" preserveAspectRatio="xMinYMin meet" x="343.5" y="-558"/>
<text text-anchor="start" x="358.5" y="-549.2" font-family="Helvetica,sans-Serif" font-size="11.00">a_asset_id</text>
<polygon fill="none" stroke="black" points="338.5,-519 338.5,-541 535.5,-541 535.5,-519 338.5,-519"/>
<image xlink:href="../../images/foreignKeys.png" width="11px" height="12px" preserveAspectRatio="xMinYMin meet" x="343.5" y="-536"/>
<text text-anchor="start" x="358.5" y="-527.2" font-family="Helvetica,sans-Serif" font-size="11.00">m_product_id</text>
<polygon fill="none" stroke="black" points="338.5,-497 338.5,-519 535.5,-519 535.5,-497 338.5,-497"/>
<image xlink:href="../../images/foreignKeys.png" width="11px" height="12px" preserveAspectRatio="xMinYMin meet" x="343.5" y="-514"/>
<text text-anchor="start" x="358.5" y="-505.2" font-family="Helvetica,sans-Serif" font-size="11.00">m_attributesetinstance_id</text>
<polygon fill="none" stroke="black" points="338.5,-475 338.5,-497 535.5,-497 535.5,-475 338.5,-475"/>
<image xlink:href="../../images/foreignKeys.png" width="11px" height="12px" preserveAspectRatio="xMinYMin meet" x="343.5" y="-492"/>
<text text-anchor="start" x="358.5" y="-483.2" font-family="Helvetica,sans-Serif" font-size="11.00">c_bpartner_id</text>
<polygon fill="none" stroke="black" points="338.5,-453 338.5,-475 535.5,-475 535.5,-453 338.5,-453"/>
<image xlink:href="../../images/foreignKeys.png" width="11px" height="12px" preserveAspectRatio="xMinYMin meet" x="343.5" y="-470"/>
<text text-anchor="start" x="358.5" y="-461.2" font-family="Helvetica,sans-Serif" font-size="11.00">cof_bpinternal_id</text>
<polygon fill="none" stroke="black" points="338.5,-431 338.5,-453 535.5,-453 535.5,-431 338.5,-431"/>
<image xlink:href="../../images/foreignKeys.png" width="11px" height="12px" preserveAspectRatio="xMinYMin meet" x="343.5" y="-448"/>
<text text-anchor="start" x="358.5" y="-439.2" font-family="Helvetica,sans-Serif" font-size="11.00">user1_id</text>
<polygon fill="none" stroke="black" points="338.5,-409 338.5,-431 535.5,-431 535.5,-409 338.5,-409"/>
<image xlink:href="../../images/foreignKeys.png" width="11px" height="12px" preserveAspectRatio="xMinYMin meet" x="343.5" y="-426"/>
<text text-anchor="start" x="358.5" y="-417.2" font-family="Helvetica,sans-Serif" font-size="11.00">user2_id</text>
<polygon fill="none" stroke="black" points="338.5,-387 338.5,-409 535.5,-409 535.5,-387 338.5,-387"/>
<image xlink:href="../../images/foreignKeys.png" width="11px" height="12px" preserveAspectRatio="xMinYMin meet" x="343.5" y="-404"/>
<text text-anchor="start" x="358.5" y="-395.2" font-family="Helvetica,sans-Serif" font-size="11.00">c_activity_id</text>
<polygon fill="none" stroke="black" points="338.5,-365 338.5,-387 535.5,-387 535.5,-365 338.5,-365"/>
<image xlink:href="../../images/foreignKeys.png" width="11px" height="12px" preserveAspectRatio="xMinYMin meet" x="343.5" y="-382"/>
<text text-anchor="start" x="358.5" y="-373.2" font-family="Helvetica,sans-Serif" font-size="11.00">c_campaign_id</text>
<polygon fill="none" stroke="black" points="338.5,-343 338.5,-365 535.5,-365 535.5,-343 338.5,-343"/>
<image xlink:href="../../images/foreignKeys.png" width="11px" height="12px" preserveAspectRatio="xMinYMin meet" x="343.5" y="-360"/>
<text text-anchor="start" x="358.5" y="-351.2" font-family="Helvetica,sans-Serif" font-size="11.00">c_salesregion_id</text>
<polygon fill="none" stroke="black" points="338.5,-321 338.5,-343 535.5,-343 535.5,-321 338.5,-321"/>
<image xlink:href="../../images/foreignKeys.png" width="11px" height="12px" preserveAspectRatio="xMinYMin meet" x="343.5" y="-338"/>
<text text-anchor="start" x="358.5" y="-329.2" font-family="Helvetica,sans-Serif" font-size="11.00">cof_precoproduto_id</text>
<polygon fill="none" stroke="black" points="338.5,-299 338.5,-321 535.5,-321 535.5,-299 338.5,-299"/>
<image xlink:href="../../images/foreignKeys.png" width="11px" height="12px" preserveAspectRatio="xMinYMin meet" x="343.5" y="-316"/>
<text text-anchor="start" x="358.5" y="-307.2" font-family="Helvetica,sans-Serif" font-size="11.00">cof_precoservico_id</text>
<polygon fill="none" stroke="black" points="338.5,-277 338.5,-299 535.5,-299 535.5,-277 338.5,-277"/>
<image xlink:href="../../images/foreignKeys.png" width="11px" height="12px" preserveAspectRatio="xMinYMin meet" x="343.5" y="-294"/>
<text text-anchor="start" x="358.5" y="-285.2" font-family="Helvetica,sans-Serif" font-size="11.00">cof_motivoparalisacao_id</text>
<polygon fill="none" stroke="black" points="338.5,-255 338.5,-277 535.5,-277 535.5,-255 338.5,-255"/>
<image xlink:href="../../images/foreignKeys.png" width="11px" height="12px" preserveAspectRatio="xMinYMin meet" x="343.5" y="-272"/>
<text text-anchor="start" x="358.5" y="-263.2" font-family="Helvetica,sans-Serif" font-size="11.00">c_project_id</text>
<polygon fill="none" stroke="black" points="338.5,-233 338.5,-255 535.5,-255 535.5,-233 338.5,-233"/>
<image xlink:href="../../images/foreignKeys.png" width="11px" height="12px" preserveAspectRatio="xMinYMin meet" x="343.5" y="-250"/>
<text text-anchor="start" x="358.5" y="-241.2" font-family="Helvetica,sans-Serif" font-size="11.00">c_doctypetarget_id</text>
<polygon fill="none" stroke="black" points="338.5,-211 338.5,-233 535.5,-233 535.5,-211 338.5,-211"/>
<image xlink:href="../../images/foreignKeys.png" width="11px" height="12px" preserveAspectRatio="xMinYMin meet" x="343.5" y="-228"/>
<text text-anchor="start" x="358.5" y="-219.2" font-family="Helvetica,sans-Serif" font-size="11.00">cof_orderproduto_id</text>
<polygon fill="none" stroke="black" points="338.5,-189 338.5,-211 535.5,-211 535.5,-189 338.5,-189"/>
<image xlink:href="../../images/foreignKeys.png" width="11px" height="12px" preserveAspectRatio="xMinYMin meet" x="343.5" y="-206"/>
<text text-anchor="start" x="358.5" y="-197.2" font-family="Helvetica,sans-Serif" font-size="11.00">cof_orderservico_id</text>
<polygon fill="none" stroke="black" points="338.5,-167 338.5,-189 535.5,-189 535.5,-167 338.5,-167"/>
<image xlink:href="../../images/foreignKeys.png" width="11px" height="12px" preserveAspectRatio="xMinYMin meet" x="343.5" y="-184"/>
<text text-anchor="start" x="358.5" y="-175.2" font-family="Helvetica,sans-Serif" font-size="11.00">cof_movementos_id</text>
<polygon fill="none" stroke="black" points="338.5,-145 338.5,-167 535.5,-167 535.5,-145 338.5,-145"/>
<image xlink:href="../../images/foreignKeys.png" width="11px" height="12px" preserveAspectRatio="xMinYMin meet" x="343.5" y="-162"/>
<text text-anchor="start" x="358.5" y="-153.2" font-family="Helvetica,sans-Serif" font-size="11.00">c_bpartner_location_id</text>
<polygon fill="none" stroke="black" points="338.5,-123 338.5,-145 535.5,-145 535.5,-123 338.5,-123"/>
<image xlink:href="../../images/foreignKeys.png" width="11px" height="12px" preserveAspectRatio="xMinYMin meet" x="343.5" y="-140"/>
<text text-anchor="start" x="358.5" y="-131.2" font-family="Helvetica,sans-Serif" font-size="11.00">c_location_id</text>
<polygon fill="none" stroke="black" points="338.5,-101 338.5,-123 535.5,-123 535.5,-101 338.5,-101"/>
<image xlink:href="../../images/foreignKeys.png" width="11px" height="12px" preserveAspectRatio="xMinYMin meet" x="343.5" y="-118"/>
<text text-anchor="start" x="358.5" y="-109.2" font-family="Helvetica,sans-Serif" font-size="11.00">cof_statusinternoos_id</text>
<polygon fill="none" stroke="black" points="338.5,-79 338.5,-101 535.5,-101 535.5,-79 338.5,-79"/>
<image xlink:href="../../images/foreignKeys.png" width="11px" height="12px" preserveAspectRatio="xMinYMin meet" x="343.5" y="-96"/>
<text text-anchor="start" x="358.5" y="-87.2" font-family="Helvetica,sans-Serif" font-size="11.00">m_warehouse_id</text>
<polygon fill="none" stroke="black" points="338.5,-61 338.5,-79 535.5,-79 535.5,-61 338.5,-61"/>
<text text-anchor="start" x="341.5" y="-67.2" font-family="Helvetica,sans-Serif" font-size="11.00">...</text>
<polygon fill="#ffffff" stroke="transparent" points="338.5,-43 338.5,-61 420.5,-61 420.5,-43 338.5,-43"/>
<polygon fill="none" stroke="black" points="338.5,-43 338.5,-61 420.5,-61 420.5,-43 338.5,-43"/>
<text text-anchor="start" x="341.5" y="-49.2" font-family="Helvetica,sans-Serif" font-size="11.00">&lt; 23</text>
<polygon fill="#ffffff" stroke="transparent" points="420.5,-43 420.5,-61 486.5,-61 486.5,-43 420.5,-43"/>
<polygon fill="none" stroke="black" points="420.5,-43 420.5,-61 486.5,-61 486.5,-43 420.5,-43"/>
<text text-anchor="start" x="450.5" y="-49.2" font-family="Helvetica,sans-Serif" font-size="11.00">0 rows</text>
<polygon fill="#ffffff" stroke="transparent" points="486.5,-43 486.5,-61 535.5,-61 535.5,-43 486.5,-43"/>
<polygon fill="none" stroke="black" points="486.5,-43 486.5,-61 535.5,-61 535.5,-43 486.5,-43"/>
<text text-anchor="start" x="516.5" y="-49.2" font-family="Helvetica,sans-Serif" font-size="11.00">3 &gt;</text>
</a>
</g>
</g>
<!-- cof_motivoparalisacao -->
<g id="node2" class="node">
<title>cof_motivoparalisacao</title>
<g id="a_node2"><a xlink:href="../../tables/cof_motivoparalisacao.html" xlink:title="cof_motivoparalisacao" target="_top">
<polygon fill="#ffffff" stroke="transparent" points="8,-37 8,-323 289,-323 289,-37 8,-37"/>
<polygon fill="#f5f5f5" stroke="transparent" points="10.5,-299 10.5,-321 287.5,-321 287.5,-299 10.5,-299"/>
<polygon fill="none" stroke="black" points="10.5,-299 10.5,-321 287.5,-321 287.5,-299 10.5,-299"/>
<text text-anchor="start" x="15.5" y="-308.2" font-family="Helvetica,sans-Serif" font-weight="bold" font-size="11.00">cof_motivoparalisacao</text>
<text text-anchor="start" x="252.5" y="-307.2" font-family="Helvetica,sans-Serif" font-size="11.00">[table]</text>
<polygon fill="none" stroke="black" points="10.5,-277 10.5,-299 204.5,-299 204.5,-277 10.5,-277"/>
<image xlink:href="../../images/primaryKeys.png" width="11px" height="12px" preserveAspectRatio="xMinYMin meet" x="15.5" y="-294"/>
<text text-anchor="start" x="30.5" y="-285.2" font-family="Helvetica,sans-Serif" font-size="11.00">cof_motivoparalisacao_id</text>
<polygon fill="none" stroke="black" points="204.5,-277 204.5,-299 287.5,-299 287.5,-277 204.5,-277"/>
<text text-anchor="start" x="207.5" y="-285.2" font-family="Helvetica,sans-Serif" font-size="11.00">numeric[10]</text>
<polygon fill="#ffffff" stroke="transparent" points="10.5,-255 10.5,-277 204.5,-277 204.5,-255 10.5,-255"/>
<polygon fill="none" stroke="black" points="10.5,-255 10.5,-277 204.5,-277 204.5,-255 10.5,-255"/>
<text text-anchor="start" x="30.5" y="-263.2" font-family="Helvetica,sans-Serif" font-size="11.00">cof_motivoparalisacao_uu</text>
<polygon fill="none" stroke="black" points="204.5,-255 204.5,-277 287.5,-277 287.5,-255 204.5,-255"/>
<text text-anchor="start" x="207.5" y="-263.2" font-family="Helvetica,sans-Serif" font-size="11.00">varchar[36]</text>
<polygon fill="none" stroke="black" points="10.5,-233 10.5,-255 204.5,-255 204.5,-233 10.5,-233"/>
<text text-anchor="start" x="30.5" y="-241.2" font-family="Helvetica,sans-Serif" font-size="11.00">ad_client_id</text>
<polygon fill="none" stroke="black" points="204.5,-233 204.5,-255 287.5,-255 287.5,-233 204.5,-233"/>
<text text-anchor="start" x="207.5" y="-241.2" font-family="Helvetica,sans-Serif" font-size="11.00">numeric[10]</text>
<polygon fill="none" stroke="black" points="10.5,-211 10.5,-233 204.5,-233 204.5,-211 10.5,-211"/>
<text text-anchor="start" x="30.5" y="-219.2" font-family="Helvetica,sans-Serif" font-size="11.00">ad_org_id</text>
<polygon fill="none" stroke="black" points="204.5,-211 204.5,-233 287.5,-233 287.5,-211 204.5,-211"/>
<text text-anchor="start" x="207.5" y="-219.2" font-family="Helvetica,sans-Serif" font-size="11.00">numeric[10]</text>
<polygon fill="none" stroke="black" points="10.5,-189 10.5,-211 204.5,-211 204.5,-189 10.5,-189"/>
<text text-anchor="start" x="30.5" y="-197.2" font-family="Helvetica,sans-Serif" font-size="11.00">isactive</text>
<polygon fill="none" stroke="black" points="204.5,-189 204.5,-211 287.5,-211 287.5,-189 204.5,-189"/>
<text text-anchor="start" x="207.5" y="-197.2" font-family="Helvetica,sans-Serif" font-size="11.00">bpchar[1]</text>
<polygon fill="none" stroke="black" points="10.5,-167 10.5,-189 204.5,-189 204.5,-167 10.5,-167"/>
<text text-anchor="start" x="30.5" y="-175.2" font-family="Helvetica,sans-Serif" font-size="11.00">created</text>
<polygon fill="none" stroke="black" points="204.5,-167 204.5,-189 287.5,-189 287.5,-167 204.5,-167"/>
<text text-anchor="start" x="207.5" y="-175.2" font-family="Helvetica,sans-Serif" font-size="11.00">timestamp[29,6]</text>
<polygon fill="none" stroke="black" points="10.5,-145 10.5,-167 204.5,-167 204.5,-145 10.5,-145"/>
<text text-anchor="start" x="30.5" y="-153.2" font-family="Helvetica,sans-Serif" font-size="11.00">createdby</text>
<polygon fill="none" stroke="black" points="204.5,-145 204.5,-167 287.5,-167 287.5,-145 204.5,-145"/>
<text text-anchor="start" x="207.5" y="-153.2" font-family="Helvetica,sans-Serif" font-size="11.00">numeric[10]</text>
<polygon fill="none" stroke="black" points="10.5,-123 10.5,-145 204.5,-145 204.5,-123 10.5,-123"/>
<text text-anchor="start" x="30.5" y="-131.2" font-family="Helvetica,sans-Serif" font-size="11.00">updated</text>
<polygon fill="none" stroke="black" points="204.5,-123 204.5,-145 287.5,-145 287.5,-123 204.5,-123"/>
<text text-anchor="start" x="207.5" y="-131.2" font-family="Helvetica,sans-Serif" font-size="11.00">timestamp[29,6]</text>
<polygon fill="none" stroke="black" points="10.5,-101 10.5,-123 204.5,-123 204.5,-101 10.5,-101"/>
<text text-anchor="start" x="30.5" y="-109.2" font-family="Helvetica,sans-Serif" font-size="11.00">updatedby</text>
<polygon fill="none" stroke="black" points="204.5,-101 204.5,-123 287.5,-123 287.5,-101 204.5,-101"/>
<text text-anchor="start" x="207.5" y="-109.2" font-family="Helvetica,sans-Serif" font-size="11.00">numeric[10]</text>
<polygon fill="none" stroke="black" points="10.5,-79 10.5,-101 204.5,-101 204.5,-79 10.5,-79"/>
<text text-anchor="start" x="30.5" y="-87.2" font-family="Helvetica,sans-Serif" font-size="11.00">value</text>
<polygon fill="none" stroke="black" points="204.5,-79 204.5,-101 287.5,-101 287.5,-79 204.5,-79"/>
<text text-anchor="start" x="207.5" y="-87.2" font-family="Helvetica,sans-Serif" font-size="11.00">varchar[40]</text>
<polygon fill="none" stroke="black" points="10.5,-57 10.5,-79 204.5,-79 204.5,-57 10.5,-57"/>
<text text-anchor="start" x="30.5" y="-65.2" font-family="Helvetica,sans-Serif" font-size="11.00">description</text>
<polygon fill="none" stroke="black" points="204.5,-57 204.5,-79 287.5,-79 287.5,-57 204.5,-57"/>
<text text-anchor="start" x="207.5" y="-65.2" font-family="Helvetica,sans-Serif" font-size="11.00">varchar[255]</text>
<polygon fill="#ffffff" stroke="transparent" points="10.5,-39 10.5,-57 98.5,-57 98.5,-39 10.5,-39"/>
<polygon fill="none" stroke="black" points="10.5,-39 10.5,-57 98.5,-57 98.5,-39 10.5,-39"/>
<text text-anchor="start" x="13.5" y="-45.2" font-family="Helvetica,sans-Serif" font-size="11.00">&lt; 0</text>
<polygon fill="#ffffff" stroke="transparent" points="98.5,-39 98.5,-57 204.5,-57 204.5,-39 98.5,-39"/>
<polygon fill="none" stroke="black" points="98.5,-39 98.5,-57 204.5,-57 204.5,-39 98.5,-39"/>
<text text-anchor="start" x="168.5" y="-45.2" font-family="Helvetica,sans-Serif" font-size="11.00">0 rows</text>
<polygon fill="#ffffff" stroke="transparent" points="204.5,-39 204.5,-57 287.5,-57 287.5,-39 204.5,-39"/>
<polygon fill="none" stroke="black" points="204.5,-39 204.5,-57 287.5,-57 287.5,-39 204.5,-39"/>
<text text-anchor="start" x="268.5" y="-45.2" font-family="Helvetica,sans-Serif" font-size="11.00">1 &gt;</text>
<polygon fill="none" stroke="black" stroke-width="2" points="9,-38 9,-322 288,-322 288,-38 9,-38"/>
</a>
</g>
</g>
<!-- cof_ordemservico&#45;&gt;cof_motivoparalisacao -->
<g id="edge1" class="edge">
<title>cof_ordemservico:w&#45;&gt;cof_motivoparalisacao:e</title>
<path fill="none" stroke="black" d="M322.99,-288C311.68,-288 304.49,-288 288.5,-288"/>
<polygon fill="black" stroke="black" points="329.5,-288 337.5,-291.6 333.5,-288 337.5,-288 337.5,-288 337.5,-288 333.5,-288 337.5,-284.4 329.5,-288 329.5,-288"/>
<ellipse fill="none" stroke="black" cx="326.3" cy="-288" rx="3.2" ry="3.2"/>
</g>
</g>
</svg>
