<?xml version="1.0" encoding="UTF-8" standalone="no"?>
<!DOCTYPE svg PUBLIC "-//W3C//DTD SVG 1.1//EN"
 "http://www.w3.org/Graphics/SVG/1.1/DTD/svg11.dtd">
<!-- Generated by graphviz version 2.43.0 (0)
 -->
<!-- Title: oneDegreeRelationshipsDiagram Pages: 1 -->
<svg width="616pt" height="912pt"
 viewBox="0.00 0.00 616.00 912.00" xmlns="http://www.w3.org/2000/svg" xmlns:xlink="http://www.w3.org/1999/xlink">
<g id="graph0" class="graph" transform="scale(1 1) rotate(0) translate(4 908)">
<title>oneDegreeRelationshipsDiagram</title>
<polygon fill="#ffffff" stroke="transparent" points="-4,4 -4,-908 612,-908 612,4 -4,4"/>
<text text-anchor="middle" x="71.5" y="-7.2" font-family="Helvetica,sans-Serif" font-size="11.00">Generated by SchemaSpy</text>
<!-- cof_infofechamentoblocoh -->
<g id="node1" class="node">
<title>cof_infofechamentoblocoh</title>
<g id="a_node1"><a xlink:href="../../tables/cof_infofechamentoblocoh.html" xlink:title="cof_infofechamentoblocoh" target="_top">
<polygon fill="#ffffff" stroke="transparent" points="292,-202 292,-730 600,-730 600,-202 292,-202"/>
<polygon fill="#f5f5f5" stroke="transparent" points="294,-706 294,-728 598,-728 598,-706 294,-706"/>
<polygon fill="none" stroke="black" points="294,-706 294,-728 598,-728 598,-706 294,-706"/>
<text text-anchor="start" x="299" y="-715.2" font-family="Helvetica,sans-Serif" font-weight="bold" font-size="11.00">cof_infofechamentoblocoh</text>
<text text-anchor="start" x="563" y="-714.2" font-family="Helvetica,sans-Serif" font-size="11.00">[table]</text>
<polygon fill="none" stroke="black" points="294,-684 294,-706 515,-706 515,-684 294,-684"/>
<image xlink:href="../../images/primaryKeys.png" width="11px" height="12px" preserveAspectRatio="xMinYMin meet" x="299" y="-701"/>
<text text-anchor="start" x="314" y="-692.2" font-family="Helvetica,sans-Serif" font-size="11.00">cof_infofechamentoblocoh_id</text>
<polygon fill="none" stroke="black" points="515,-684 515,-706 598,-706 598,-684 515,-684"/>
<text text-anchor="start" x="518" y="-692.2" font-family="Helvetica,sans-Serif" font-size="11.00">numeric[10]</text>
<polygon fill="#ffffff" stroke="transparent" points="294,-662 294,-684 515,-684 515,-662 294,-662"/>
<polygon fill="none" stroke="black" points="294,-662 294,-684 515,-684 515,-662 294,-662"/>
<text text-anchor="start" x="314" y="-670.2" font-family="Helvetica,sans-Serif" font-size="11.00">cof_infofechamentoblocoh_uu</text>
<polygon fill="none" stroke="black" points="515,-662 515,-684 598,-684 598,-662 515,-662"/>
<text text-anchor="start" x="518" y="-670.2" font-family="Helvetica,sans-Serif" font-size="11.00">varchar[36]</text>
<polygon fill="none" stroke="black" points="294,-640 294,-662 515,-662 515,-640 294,-640"/>
<text text-anchor="start" x="314" y="-648.2" font-family="Helvetica,sans-Serif" font-size="11.00">ad_client_id</text>
<polygon fill="none" stroke="black" points="515,-640 515,-662 598,-662 598,-640 515,-640"/>
<text text-anchor="start" x="518" y="-648.2" font-family="Helvetica,sans-Serif" font-size="11.00">numeric[10]</text>
<polygon fill="none" stroke="black" points="294,-618 294,-640 515,-640 515,-618 294,-618"/>
<text text-anchor="start" x="314" y="-626.2" font-family="Helvetica,sans-Serif" font-size="11.00">ad_org_id</text>
<polygon fill="none" stroke="black" points="515,-618 515,-640 598,-640 598,-618 515,-618"/>
<text text-anchor="start" x="518" y="-626.2" font-family="Helvetica,sans-Serif" font-size="11.00">numeric[10]</text>
<polygon fill="none" stroke="black" points="294,-596 294,-618 515,-618 515,-596 294,-596"/>
<text text-anchor="start" x="314" y="-604.2" font-family="Helvetica,sans-Serif" font-size="11.00">isactive</text>
<polygon fill="none" stroke="black" points="515,-596 515,-618 598,-618 598,-596 515,-596"/>
<text text-anchor="start" x="518" y="-604.2" font-family="Helvetica,sans-Serif" font-size="11.00">bpchar[1]</text>
<polygon fill="none" stroke="black" points="294,-574 294,-596 515,-596 515,-574 294,-574"/>
<text text-anchor="start" x="314" y="-582.2" font-family="Helvetica,sans-Serif" font-size="11.00">created</text>
<polygon fill="none" stroke="black" points="515,-574 515,-596 598,-596 598,-574 515,-574"/>
<text text-anchor="start" x="518" y="-582.2" font-family="Helvetica,sans-Serif" font-size="11.00">timestamp[29,6]</text>
<polygon fill="none" stroke="black" points="294,-552 294,-574 515,-574 515,-552 294,-552"/>
<text text-anchor="start" x="314" y="-560.2" font-family="Helvetica,sans-Serif" font-size="11.00">createdby</text>
<polygon fill="none" stroke="black" points="515,-552 515,-574 598,-574 598,-552 515,-552"/>
<text text-anchor="start" x="518" y="-560.2" font-family="Helvetica,sans-Serif" font-size="11.00">numeric[10]</text>
<polygon fill="none" stroke="black" points="294,-530 294,-552 515,-552 515,-530 294,-530"/>
<text text-anchor="start" x="314" y="-538.2" font-family="Helvetica,sans-Serif" font-size="11.00">updated</text>
<polygon fill="none" stroke="black" points="515,-530 515,-552 598,-552 598,-530 515,-530"/>
<text text-anchor="start" x="518" y="-538.2" font-family="Helvetica,sans-Serif" font-size="11.00">timestamp[29,6]</text>
<polygon fill="none" stroke="black" points="294,-508 294,-530 515,-530 515,-508 294,-508"/>
<text text-anchor="start" x="314" y="-516.2" font-family="Helvetica,sans-Serif" font-size="11.00">updatedby</text>
<polygon fill="none" stroke="black" points="515,-508 515,-530 598,-530 598,-508 515,-508"/>
<text text-anchor="start" x="518" y="-516.2" font-family="Helvetica,sans-Serif" font-size="11.00">numeric[10]</text>
<polygon fill="none" stroke="black" points="294,-486 294,-508 515,-508 515,-486 294,-486"/>
<image xlink:href="../../images/foreignKeys.png" width="11px" height="12px" preserveAspectRatio="xMinYMin meet" x="299" y="-503"/>
<text text-anchor="start" x="314" y="-494.2" font-family="Helvetica,sans-Serif" font-size="11.00">m_product_id</text>
<polygon fill="none" stroke="black" points="515,-486 515,-508 598,-508 598,-486 515,-486"/>
<text text-anchor="start" x="518" y="-494.2" font-family="Helvetica,sans-Serif" font-size="11.00">numeric[10]</text>
<polygon fill="none" stroke="black" points="294,-464 294,-486 515,-486 515,-464 294,-464"/>
<image xlink:href="../../images/foreignKeys.png" width="11px" height="12px" preserveAspectRatio="xMinYMin meet" x="299" y="-481"/>
<text text-anchor="start" x="314" y="-472.2" font-family="Helvetica,sans-Serif" font-size="11.00">cof_encerramentoblocoh_id</text>
<polygon fill="none" stroke="black" points="515,-464 515,-486 598,-486 598,-464 515,-464"/>
<text text-anchor="start" x="518" y="-472.2" font-family="Helvetica,sans-Serif" font-size="11.00">numeric[10]</text>
<polygon fill="none" stroke="black" points="294,-442 294,-464 515,-464 515,-442 294,-442"/>
<text text-anchor="start" x="314" y="-450.2" font-family="Helvetica,sans-Serif" font-size="11.00">h010_cod_item</text>
<polygon fill="none" stroke="black" points="515,-442 515,-464 598,-464 598,-442 515,-442"/>
<text text-anchor="start" x="518" y="-450.2" font-family="Helvetica,sans-Serif" font-size="11.00">varchar[60]</text>
<polygon fill="none" stroke="black" points="294,-420 294,-442 515,-442 515,-420 294,-420"/>
<text text-anchor="start" x="314" y="-428.2" font-family="Helvetica,sans-Serif" font-size="11.00">h010_unid</text>
<polygon fill="none" stroke="black" points="515,-420 515,-442 598,-442 598,-420 515,-420"/>
<text text-anchor="start" x="518" y="-428.2" font-family="Helvetica,sans-Serif" font-size="11.00">varchar[6]</text>
<polygon fill="none" stroke="black" points="294,-398 294,-420 515,-420 515,-398 294,-398"/>
<text text-anchor="start" x="314" y="-406.2" font-family="Helvetica,sans-Serif" font-size="11.00">h010_qtd</text>
<polygon fill="none" stroke="black" points="515,-398 515,-420 598,-420 598,-398 515,-398"/>
<text text-anchor="start" x="518" y="-406.2" font-family="Helvetica,sans-Serif" font-size="11.00">numeric[0]</text>
<polygon fill="none" stroke="black" points="294,-376 294,-398 515,-398 515,-376 294,-376"/>
<text text-anchor="start" x="314" y="-384.2" font-family="Helvetica,sans-Serif" font-size="11.00">h010_vl_unit</text>
<polygon fill="none" stroke="black" points="515,-376 515,-398 598,-398 598,-376 515,-376"/>
<text text-anchor="start" x="518" y="-384.2" font-family="Helvetica,sans-Serif" font-size="11.00">numeric[0]</text>
<polygon fill="none" stroke="black" points="294,-354 294,-376 515,-376 515,-354 294,-354"/>
<text text-anchor="start" x="314" y="-362.2" font-family="Helvetica,sans-Serif" font-size="11.00">h010_vl_item</text>
<polygon fill="none" stroke="black" points="515,-354 515,-376 598,-376 598,-354 515,-354"/>
<text text-anchor="start" x="518" y="-362.2" font-family="Helvetica,sans-Serif" font-size="11.00">numeric[0]</text>
<polygon fill="none" stroke="black" points="294,-332 294,-354 515,-354 515,-332 294,-332"/>
<text text-anchor="start" x="314" y="-340.2" font-family="Helvetica,sans-Serif" font-size="11.00">h010_ind_prop</text>
<polygon fill="none" stroke="black" points="515,-332 515,-354 598,-354 598,-332 515,-332"/>
<text text-anchor="start" x="518" y="-340.2" font-family="Helvetica,sans-Serif" font-size="11.00">bpchar[1]</text>
<polygon fill="none" stroke="black" points="294,-310 294,-332 515,-332 515,-310 294,-310"/>
<text text-anchor="start" x="314" y="-318.2" font-family="Helvetica,sans-Serif" font-size="11.00">h010_cod_part</text>
<polygon fill="none" stroke="black" points="515,-310 515,-332 598,-332 598,-310 515,-310"/>
<text text-anchor="start" x="518" y="-318.2" font-family="Helvetica,sans-Serif" font-size="11.00">varchar[60]</text>
<polygon fill="none" stroke="black" points="294,-288 294,-310 515,-310 515,-288 294,-288"/>
<text text-anchor="start" x="314" y="-296.2" font-family="Helvetica,sans-Serif" font-size="11.00">h010_txt_compl</text>
<polygon fill="none" stroke="black" points="515,-288 515,-310 598,-310 598,-288 515,-288"/>
<text text-anchor="start" x="518" y="-296.2" font-family="Helvetica,sans-Serif" font-size="11.00">varchar[2000]</text>
<polygon fill="none" stroke="black" points="294,-266 294,-288 515,-288 515,-266 294,-266"/>
<text text-anchor="start" x="314" y="-274.2" font-family="Helvetica,sans-Serif" font-size="11.00">h010_cod_cta</text>
<polygon fill="none" stroke="black" points="515,-266 515,-288 598,-288 598,-266 515,-266"/>
<text text-anchor="start" x="518" y="-274.2" font-family="Helvetica,sans-Serif" font-size="11.00">varchar[60]</text>
<polygon fill="none" stroke="black" points="294,-244 294,-266 515,-266 515,-244 294,-244"/>
<text text-anchor="start" x="314" y="-252.2" font-family="Helvetica,sans-Serif" font-size="11.00">h010_vl_item_ir</text>
<polygon fill="none" stroke="black" points="515,-244 515,-266 598,-266 598,-244 515,-244"/>
<text text-anchor="start" x="518" y="-252.2" font-family="Helvetica,sans-Serif" font-size="11.00">numeric[0]</text>
<polygon fill="none" stroke="black" points="294,-222 294,-244 515,-244 515,-222 294,-222"/>
<text text-anchor="start" x="314" y="-230.2" font-family="Helvetica,sans-Serif" font-size="11.00">cof_estoqueprevisto</text>
<polygon fill="none" stroke="black" points="515,-222 515,-244 598,-244 598,-222 515,-222"/>
<text text-anchor="start" x="518" y="-230.2" font-family="Helvetica,sans-Serif" font-size="11.00">bpchar[1]</text>
<polygon fill="#ffffff" stroke="transparent" points="294,-204 294,-222 396,-222 396,-204 294,-204"/>
<polygon fill="none" stroke="black" points="294,-204 294,-222 396,-222 396,-204 294,-204"/>
<text text-anchor="start" x="297" y="-210.2" font-family="Helvetica,sans-Serif" font-size="11.00">&lt; 2</text>
<polygon fill="#ffffff" stroke="transparent" points="396,-204 396,-222 515,-222 515,-204 396,-204"/>
<polygon fill="none" stroke="black" points="396,-204 396,-222 515,-222 515,-204 396,-204"/>
<text text-anchor="start" x="479" y="-210.2" font-family="Helvetica,sans-Serif" font-size="11.00">0 rows</text>
<polygon fill="#ffffff" stroke="transparent" points="515,-204 515,-222 598,-222 598,-204 515,-204"/>
<polygon fill="none" stroke="black" points="515,-204 515,-222 598,-222 598,-204 515,-204"/>
<text text-anchor="start" x="579" y="-210.2" font-family="Helvetica,sans-Serif" font-size="11.00">0 &gt;</text>
<polygon fill="none" stroke="black" stroke-width="2" points="293,-203 293,-729 599,-729 599,-203 293,-203"/>
</a>
</g>
</g>
<!-- cof_encerramentoblocoh -->
<g id="node2" class="node">
<title>cof_encerramentoblocoh</title>
<g id="a_node2"><a xlink:href="../../tables/cof_encerramentoblocoh.html" xlink:title="cof_encerramentoblocoh" target="_top">
<polygon fill="#ffffff" stroke="transparent" points="20.5,-37 20.5,-139 230.5,-139 230.5,-37 20.5,-37"/>
<polygon fill="#f5f5f5" stroke="transparent" points="20.5,-117 20.5,-139 230.5,-139 230.5,-117 20.5,-117"/>
<polygon fill="none" stroke="black" points="20.5,-117 20.5,-139 230.5,-139 230.5,-117 20.5,-117"/>
<text text-anchor="start" x="25.5" y="-126.2" font-family="Helvetica,sans-Serif" font-weight="bold" font-size="11.00">cof_encerramentoblocoh</text>
<text text-anchor="start" x="195.5" y="-125.2" font-family="Helvetica,sans-Serif" font-size="11.00">[table]</text>
<polygon fill="none" stroke="black" points="20.5,-95 20.5,-117 230.5,-117 230.5,-95 20.5,-95"/>
<image xlink:href="../../images/primaryKeys.png" width="11px" height="12px" preserveAspectRatio="xMinYMin meet" x="25.5" y="-112"/>
<text text-anchor="start" x="40.5" y="-103.2" font-family="Helvetica,sans-Serif" font-size="11.00">cof_encerramentoblocoh_id</text>
<polygon fill="#ffffff" stroke="transparent" points="20.5,-73 20.5,-95 230.5,-95 230.5,-73 20.5,-73"/>
<polygon fill="none" stroke="black" points="20.5,-73 20.5,-95 230.5,-95 230.5,-73 20.5,-73"/>
<text text-anchor="start" x="40.5" y="-81.2" font-family="Helvetica,sans-Serif" font-size="11.00">cof_encerramentoblocoh_uu</text>
<polygon fill="none" stroke="black" points="20.5,-55 20.5,-73 230.5,-73 230.5,-55 20.5,-55"/>
<text text-anchor="start" x="23.5" y="-61.2" font-family="Helvetica,sans-Serif" font-size="11.00">...</text>
<polygon fill="#ffffff" stroke="transparent" points="20.5,-37 20.5,-55 101.5,-55 101.5,-37 20.5,-37"/>
<polygon fill="none" stroke="black" points="20.5,-37 20.5,-55 101.5,-55 101.5,-37 20.5,-37"/>
<text text-anchor="start" x="23.5" y="-43.2" font-family="Helvetica,sans-Serif" font-size="11.00"> &#160;</text>
<polygon fill="#ffffff" stroke="transparent" points="101.5,-37 101.5,-55 174.5,-55 174.5,-37 101.5,-37"/>
<polygon fill="none" stroke="black" points="101.5,-37 101.5,-55 174.5,-55 174.5,-37 101.5,-37"/>
<text text-anchor="start" x="138.5" y="-43.2" font-family="Helvetica,sans-Serif" font-size="11.00">0 rows</text>
<polygon fill="#ffffff" stroke="transparent" points="174.5,-37 174.5,-55 230.5,-55 230.5,-37 174.5,-37"/>
<polygon fill="none" stroke="black" points="174.5,-37 174.5,-55 230.5,-55 230.5,-37 174.5,-37"/>
<text text-anchor="start" x="211.5" y="-43.2" font-family="Helvetica,sans-Serif" font-size="11.00">2 &gt;</text>
</a>
</g>
</g>
<!-- cof_infofechamentoblocoh&#45;&gt;cof_encerramentoblocoh -->
<g id="edge1" class="edge">
<title>cof_infofechamentoblocoh:w&#45;&gt;cof_encerramentoblocoh:e</title>
<path fill="none" stroke="black" d="M279.17,-470.6C222.59,-428.97 309.27,-106 231.5,-106"/>
<polygon fill="black" stroke="black" points="285.38,-472.57 291.91,-478.43 289.19,-473.79 293,-475 293,-475 293,-475 289.19,-473.79 294.09,-471.57 285.38,-472.57 285.38,-472.57"/>
<ellipse fill="none" stroke="black" cx="282.33" cy="-471.6" rx="3.2" ry="3.2"/>
</g>
<!-- m_product -->
<g id="node3" class="node">
<title>m_product</title>
<g id="a_node3"><a xlink:href="../../tables/m_product.html" xlink:title="m_product" target="_top">
<polygon fill="#ffffff" stroke="transparent" points="8,-160 8,-900 243,-900 243,-160 8,-160"/>
<polygon fill="#f5f5f5" stroke="transparent" points="8.5,-878 8.5,-900 243.5,-900 243.5,-878 8.5,-878"/>
<polygon fill="none" stroke="black" points="8.5,-878 8.5,-900 243.5,-900 243.5,-878 8.5,-878"/>
<text text-anchor="start" x="13.5" y="-887.2" font-family="Helvetica,sans-Serif" font-weight="bold" font-size="11.00">m_product</text>
<text text-anchor="start" x="208.5" y="-886.2" font-family="Helvetica,sans-Serif" font-size="11.00">[table]</text>
<polygon fill="none" stroke="black" points="8.5,-856 8.5,-878 243.5,-878 243.5,-856 8.5,-856"/>
<image xlink:href="../../images/primaryKeys.png" width="11px" height="12px" preserveAspectRatio="xMinYMin meet" x="13.5" y="-873"/>
<text text-anchor="start" x="28.5" y="-864.2" font-family="Helvetica,sans-Serif" font-size="11.00">m_product_id</text>
<polygon fill="#ffffff" stroke="transparent" points="8.5,-834 8.5,-856 243.5,-856 243.5,-834 8.5,-834"/>
<polygon fill="none" stroke="black" points="8.5,-834 8.5,-856 243.5,-856 243.5,-834 8.5,-834"/>
<image xlink:href="../../images/foreignKeys.png" width="11px" height="12px" preserveAspectRatio="xMinYMin meet" x="13.5" y="-851"/>
<text text-anchor="start" x="28.5" y="-842.2" font-family="Helvetica,sans-Serif" font-size="11.00">ad_client_id</text>
<polygon fill="none" stroke="black" points="8.5,-812 8.5,-834 243.5,-834 243.5,-812 8.5,-812"/>
<image xlink:href="../../images/foreignKeys.png" width="11px" height="12px" preserveAspectRatio="xMinYMin meet" x="13.5" y="-829"/>
<text text-anchor="start" x="28.5" y="-820.2" font-family="Helvetica,sans-Serif" font-size="11.00">ad_org_id</text>
<polygon fill="#ffffff" stroke="transparent" points="8.5,-790 8.5,-812 243.5,-812 243.5,-790 8.5,-790"/>
<polygon fill="none" stroke="black" points="8.5,-790 8.5,-812 243.5,-812 243.5,-790 8.5,-790"/>
<text text-anchor="start" x="28.5" y="-798.2" font-family="Helvetica,sans-Serif" font-size="11.00">value</text>
<polygon fill="#ffffff" stroke="transparent" points="8.5,-768 8.5,-790 243.5,-790 243.5,-768 8.5,-768"/>
<polygon fill="none" stroke="black" points="8.5,-768 8.5,-790 243.5,-790 243.5,-768 8.5,-768"/>
<text text-anchor="start" x="28.5" y="-776.2" font-family="Helvetica,sans-Serif" font-size="11.00">name</text>
<polygon fill="#ffffff" stroke="transparent" points="8.5,-746 8.5,-768 243.5,-768 243.5,-746 8.5,-746"/>
<polygon fill="none" stroke="black" points="8.5,-746 8.5,-768 243.5,-768 243.5,-746 8.5,-746"/>
<text text-anchor="start" x="28.5" y="-754.2" font-family="Helvetica,sans-Serif" font-size="11.00">upc</text>
<polygon fill="none" stroke="black" points="8.5,-724 8.5,-746 243.5,-746 243.5,-724 8.5,-724"/>
<image xlink:href="../../images/foreignKeys.png" width="11px" height="12px" preserveAspectRatio="xMinYMin meet" x="13.5" y="-741"/>
<text text-anchor="start" x="28.5" y="-732.2" font-family="Helvetica,sans-Serif" font-size="11.00">c_uom_id</text>
<polygon fill="none" stroke="black" points="8.5,-702 8.5,-724 243.5,-724 243.5,-702 8.5,-702"/>
<image xlink:href="../../images/foreignKeys.png" width="11px" height="12px" preserveAspectRatio="xMinYMin meet" x="13.5" y="-719"/>
<text text-anchor="start" x="28.5" y="-710.2" font-family="Helvetica,sans-Serif" font-size="11.00">salesrep_id</text>
<polygon fill="none" stroke="black" points="8.5,-680 8.5,-702 243.5,-702 243.5,-680 8.5,-680"/>
<image xlink:href="../../images/foreignKeys.png" width="11px" height="12px" preserveAspectRatio="xMinYMin meet" x="13.5" y="-697"/>
<text text-anchor="start" x="28.5" y="-688.2" font-family="Helvetica,sans-Serif" font-size="11.00">c_revenuerecognition_id</text>
<polygon fill="#ffffff" stroke="transparent" points="8.5,-658 8.5,-680 243.5,-680 243.5,-658 8.5,-658"/>
<polygon fill="none" stroke="black" points="8.5,-658 8.5,-680 243.5,-680 243.5,-658 8.5,-658"/>
<image xlink:href="../../images/foreignKeys.png" width="11px" height="12px" preserveAspectRatio="xMinYMin meet" x="13.5" y="-675"/>
<text text-anchor="start" x="28.5" y="-666.2" font-family="Helvetica,sans-Serif" font-size="11.00">m_product_category_id</text>
<polygon fill="none" stroke="black" points="8.5,-636 8.5,-658 243.5,-658 243.5,-636 8.5,-636"/>
<image xlink:href="../../images/foreignKeys.png" width="11px" height="12px" preserveAspectRatio="xMinYMin meet" x="13.5" y="-653"/>
<text text-anchor="start" x="28.5" y="-644.2" font-family="Helvetica,sans-Serif" font-size="11.00">c_taxcategory_id</text>
<polygon fill="#ffffff" stroke="transparent" points="8.5,-614 8.5,-636 243.5,-636 243.5,-614 8.5,-614"/>
<polygon fill="none" stroke="black" points="8.5,-614 8.5,-636 243.5,-636 243.5,-614 8.5,-614"/>
<image xlink:href="../../images/foreignKeys.png" width="11px" height="12px" preserveAspectRatio="xMinYMin meet" x="13.5" y="-631"/>
<text text-anchor="start" x="28.5" y="-622.2" font-family="Helvetica,sans-Serif" font-size="11.00">s_resource_id</text>
<polygon fill="#ffffff" stroke="transparent" points="8.5,-592 8.5,-614 243.5,-614 243.5,-592 8.5,-592"/>
<polygon fill="none" stroke="black" points="8.5,-592 8.5,-614 243.5,-614 243.5,-592 8.5,-592"/>
<image xlink:href="../../images/foreignKeys.png" width="11px" height="12px" preserveAspectRatio="xMinYMin meet" x="13.5" y="-609"/>
<text text-anchor="start" x="28.5" y="-600.2" font-family="Helvetica,sans-Serif" font-size="11.00">s_expensetype_id</text>
<polygon fill="none" stroke="black" points="8.5,-570 8.5,-592 243.5,-592 243.5,-570 8.5,-570"/>
<image xlink:href="../../images/foreignKeys.png" width="11px" height="12px" preserveAspectRatio="xMinYMin meet" x="13.5" y="-587"/>
<text text-anchor="start" x="28.5" y="-578.2" font-family="Helvetica,sans-Serif" font-size="11.00">r_mailtext_id</text>
<polygon fill="none" stroke="black" points="8.5,-548 8.5,-570 243.5,-570 243.5,-548 8.5,-548"/>
<image xlink:href="../../images/foreignKeys.png" width="11px" height="12px" preserveAspectRatio="xMinYMin meet" x="13.5" y="-565"/>
<text text-anchor="start" x="28.5" y="-556.2" font-family="Helvetica,sans-Serif" font-size="11.00">m_attributeset_id</text>
<polygon fill="none" stroke="black" points="8.5,-526 8.5,-548 243.5,-548 243.5,-526 8.5,-526"/>
<image xlink:href="../../images/foreignKeys.png" width="11px" height="12px" preserveAspectRatio="xMinYMin meet" x="13.5" y="-543"/>
<text text-anchor="start" x="28.5" y="-534.2" font-family="Helvetica,sans-Serif" font-size="11.00">m_attributesetinstance_id</text>
<polygon fill="none" stroke="black" points="8.5,-504 8.5,-526 243.5,-526 243.5,-504 8.5,-504"/>
<image xlink:href="../../images/foreignKeys.png" width="11px" height="12px" preserveAspectRatio="xMinYMin meet" x="13.5" y="-521"/>
<text text-anchor="start" x="28.5" y="-512.2" font-family="Helvetica,sans-Serif" font-size="11.00">m_freightcategory_id</text>
<polygon fill="none" stroke="black" points="8.5,-482 8.5,-504 243.5,-504 243.5,-482 8.5,-482"/>
<image xlink:href="../../images/foreignKeys.png" width="11px" height="12px" preserveAspectRatio="xMinYMin meet" x="13.5" y="-499"/>
<text text-anchor="start" x="28.5" y="-490.2" font-family="Helvetica,sans-Serif" font-size="11.00">m_locator_id</text>
<polygon fill="none" stroke="black" points="8.5,-460 8.5,-482 243.5,-482 243.5,-460 8.5,-460"/>
<image xlink:href="../../images/foreignKeys.png" width="11px" height="12px" preserveAspectRatio="xMinYMin meet" x="13.5" y="-477"/>
<text text-anchor="start" x="28.5" y="-468.2" font-family="Helvetica,sans-Serif" font-size="11.00">c_subscriptiontype_id</text>
<polygon fill="#ffffff" stroke="transparent" points="8.5,-438 8.5,-460 243.5,-460 243.5,-438 8.5,-438"/>
<polygon fill="none" stroke="black" points="8.5,-438 8.5,-460 243.5,-460 243.5,-438 8.5,-438"/>
<text text-anchor="start" x="28.5" y="-446.2" font-family="Helvetica,sans-Serif" font-size="11.00">m_product_uu</text>
<polygon fill="none" stroke="black" points="8.5,-416 8.5,-438 243.5,-438 243.5,-416 8.5,-416"/>
<image xlink:href="../../images/foreignKeys.png" width="11px" height="12px" preserveAspectRatio="xMinYMin meet" x="13.5" y="-433"/>
<text text-anchor="start" x="28.5" y="-424.2" font-family="Helvetica,sans-Serif" font-size="11.00">m_parttype_id</text>
<polygon fill="none" stroke="black" points="8.5,-394 8.5,-416 243.5,-416 243.5,-394 8.5,-394"/>
<image xlink:href="../../images/foreignKeys.png" width="11px" height="12px" preserveAspectRatio="xMinYMin meet" x="13.5" y="-411"/>
<text text-anchor="start" x="28.5" y="-402.2" font-family="Helvetica,sans-Serif" font-size="11.00">lbr_productcategory_id</text>
<polygon fill="none" stroke="black" points="8.5,-372 8.5,-394 243.5,-394 243.5,-372 8.5,-372"/>
<image xlink:href="../../images/foreignKeys.png" width="11px" height="12px" preserveAspectRatio="xMinYMin meet" x="13.5" y="-389"/>
<text text-anchor="start" x="28.5" y="-380.2" font-family="Helvetica,sans-Serif" font-size="11.00">lbr_ncm_id</text>
<polygon fill="none" stroke="black" points="8.5,-350 8.5,-372 243.5,-372 243.5,-350 8.5,-350"/>
<image xlink:href="../../images/foreignKeys.png" width="11px" height="12px" preserveAspectRatio="xMinYMin meet" x="13.5" y="-367"/>
<text text-anchor="start" x="28.5" y="-358.2" font-family="Helvetica,sans-Serif" font-size="11.00">lbr_fiscalgroup_product_id</text>
<polygon fill="none" stroke="black" points="8.5,-328 8.5,-350 243.5,-350 243.5,-328 8.5,-328"/>
<image xlink:href="../../images/foreignKeys.png" width="11px" height="12px" preserveAspectRatio="xMinYMin meet" x="13.5" y="-345"/>
<text text-anchor="start" x="28.5" y="-336.2" font-family="Helvetica,sans-Serif" font-size="11.00">cof_cest_id</text>
<polygon fill="none" stroke="black" points="8.5,-306 8.5,-328 243.5,-328 243.5,-306 8.5,-306"/>
<image xlink:href="../../images/foreignKeys.png" width="11px" height="12px" preserveAspectRatio="xMinYMin meet" x="13.5" y="-323"/>
<text text-anchor="start" x="28.5" y="-314.2" font-family="Helvetica,sans-Serif" font-size="11.00">cof_c_generoitem_sped_id</text>
<polygon fill="none" stroke="black" points="8.5,-284 8.5,-306 243.5,-306 243.5,-284 8.5,-284"/>
<image xlink:href="../../images/foreignKeys.png" width="11px" height="12px" preserveAspectRatio="xMinYMin meet" x="13.5" y="-301"/>
<text text-anchor="start" x="28.5" y="-292.2" font-family="Helvetica,sans-Serif" font-size="11.00">cof_producttype_id</text>
<polygon fill="none" stroke="black" points="8.5,-262 8.5,-284 243.5,-284 243.5,-262 8.5,-262"/>
<image xlink:href="../../images/foreignKeys.png" width="11px" height="12px" preserveAspectRatio="xMinYMin meet" x="13.5" y="-279"/>
<text text-anchor="start" x="28.5" y="-270.2" font-family="Helvetica,sans-Serif" font-size="11.00">cof_productclass_id</text>
<polygon fill="none" stroke="black" points="8.5,-240 8.5,-262 243.5,-262 243.5,-240 8.5,-240"/>
<image xlink:href="../../images/foreignKeys.png" width="11px" height="12px" preserveAspectRatio="xMinYMin meet" x="13.5" y="-257"/>
<text text-anchor="start" x="28.5" y="-248.2" font-family="Helvetica,sans-Serif" font-size="11.00">cof_productgroup_id</text>
<polygon fill="none" stroke="black" points="8.5,-218 8.5,-240 243.5,-240 243.5,-218 8.5,-218"/>
<image xlink:href="../../images/foreignKeys.png" width="11px" height="12px" preserveAspectRatio="xMinYMin meet" x="13.5" y="-235"/>
<text text-anchor="start" x="28.5" y="-226.2" font-family="Helvetica,sans-Serif" font-size="11.00">cof_nbs_id</text>
<polygon fill="none" stroke="black" points="8.5,-196 8.5,-218 243.5,-218 243.5,-196 8.5,-196"/>
<image xlink:href="../../images/foreignKeys.png" width="11px" height="12px" preserveAspectRatio="xMinYMin meet" x="13.5" y="-213"/>
<text text-anchor="start" x="28.5" y="-204.2" font-family="Helvetica,sans-Serif" font-size="11.00">cof_grupofornecedor_id</text>
<polygon fill="none" stroke="black" points="8.5,-178 8.5,-196 243.5,-196 243.5,-178 8.5,-178"/>
<text text-anchor="start" x="11.5" y="-184.2" font-family="Helvetica,sans-Serif" font-size="11.00">...</text>
<polygon fill="#ffffff" stroke="transparent" points="8.5,-160 8.5,-178 105.5,-178 105.5,-160 8.5,-160"/>
<polygon fill="none" stroke="black" points="8.5,-160 8.5,-178 105.5,-178 105.5,-160 8.5,-160"/>
<text text-anchor="start" x="11.5" y="-166.2" font-family="Helvetica,sans-Serif" font-size="11.00">&lt; 22</text>
<polygon fill="#ffffff" stroke="transparent" points="105.5,-160 105.5,-178 174.5,-178 174.5,-160 105.5,-160"/>
<polygon fill="none" stroke="black" points="105.5,-160 105.5,-178 174.5,-178 174.5,-160 105.5,-160"/>
<text text-anchor="start" x="143.5" y="-166.2" font-family="Helvetica,sans-Serif" font-size="11.00">1 row</text>
<polygon fill="#ffffff" stroke="transparent" points="174.5,-160 174.5,-178 243.5,-178 243.5,-160 174.5,-160"/>
<polygon fill="none" stroke="black" points="174.5,-160 174.5,-178 243.5,-178 243.5,-160 174.5,-160"/>
<text text-anchor="start" x="212.5" y="-166.2" font-family="Helvetica,sans-Serif" font-size="11.00">172 &gt;</text>
</a>
</g>
</g>
<!-- cof_infofechamentoblocoh&#45;&gt;m_product -->
<g id="edge2" class="edge">
<title>cof_infofechamentoblocoh:w&#45;&gt;m_product:e</title>
<path fill="none" stroke="black" d="M278.33,-498.13C144.94,-520.46 405.01,-867 244.5,-867"/>
<polygon fill="black" stroke="black" points="285.02,-497.61 293.28,-500.59 289.01,-497.31 293,-497 293,-497 293,-497 289.01,-497.31 292.72,-493.41 285.02,-497.61 285.02,-497.61"/>
<ellipse fill="none" stroke="black" cx="281.83" cy="-497.86" rx="3.2" ry="3.2"/>
</g>
</g>
</svg>
