<?xml version="1.0" encoding="UTF-8" standalone="no"?>
<!DOCTYPE svg PUBLIC "-//W3C//DTD SVG 1.1//EN"
 "http://www.w3.org/Graphics/SVG/1.1/DTD/svg11.dtd">
<!-- Generated by graphviz version 2.43.0 (0)
 -->
<!-- Title: oneDegreeRelationshipsDiagram Pages: 1 -->
<svg width="1082pt" height="929pt"
 viewBox="0.00 0.00 1082.00 929.00" xmlns="http://www.w3.org/2000/svg" xmlns:xlink="http://www.w3.org/1999/xlink">
<g id="graph0" class="graph" transform="scale(1 1) rotate(0) translate(4 925)">
<title>oneDegreeRelationshipsDiagram</title>
<polygon fill="#ffffff" stroke="transparent" points="-4,4 -4,-925 1078,-925 1078,4 -4,4"/>
<text text-anchor="middle" x="71.5" y="-7.2" font-family="Helvetica,sans-Serif" font-size="11.00">Generated by SchemaSpy</text>
<!-- ad_role -->
<g id="node1" class="node">
<title>ad_role</title>
<g id="a_node1"><a xlink:href="../../tables/ad_role.html" xlink:title="ad_role" target="_top">
<polygon fill="#ffffff" stroke="transparent" points="521,-444 521,-678 729,-678 729,-444 521,-444"/>
<polygon fill="#f5f5f5" stroke="transparent" points="521,-656 521,-678 729,-678 729,-656 521,-656"/>
<polygon fill="none" stroke="black" points="521,-656 521,-678 729,-678 729,-656 521,-656"/>
<text text-anchor="start" x="526" y="-665.2" font-family="Helvetica,sans-Serif" font-weight="bold" font-size="11.00">ad_role</text>
<text text-anchor="start" x="694" y="-664.2" font-family="Helvetica,sans-Serif" font-size="11.00">[table]</text>
<polygon fill="none" stroke="black" points="521,-634 521,-656 729,-656 729,-634 521,-634"/>
<image xlink:href="../../images/primaryKeys.png" width="11px" height="12px" preserveAspectRatio="xMinYMin meet" x="526" y="-651"/>
<text text-anchor="start" x="541" y="-642.2" font-family="Helvetica,sans-Serif" font-size="11.00">ad_role_id</text>
<polygon fill="none" stroke="black" points="521,-612 521,-634 729,-634 729,-612 521,-612"/>
<image xlink:href="../../images/foreignKeys.png" width="11px" height="12px" preserveAspectRatio="xMinYMin meet" x="526" y="-629"/>
<text text-anchor="start" x="541" y="-620.2" font-family="Helvetica,sans-Serif" font-size="11.00">ad_client_id</text>
<polygon fill="none" stroke="black" points="521,-590 521,-612 729,-612 729,-590 521,-590"/>
<image xlink:href="../../images/foreignKeys.png" width="11px" height="12px" preserveAspectRatio="xMinYMin meet" x="526" y="-607"/>
<text text-anchor="start" x="541" y="-598.2" font-family="Helvetica,sans-Serif" font-size="11.00">ad_org_id</text>
<polygon fill="none" stroke="black" points="521,-568 521,-590 729,-590 729,-568 521,-568"/>
<image xlink:href="../../images/foreignKeys.png" width="11px" height="12px" preserveAspectRatio="xMinYMin meet" x="526" y="-585"/>
<text text-anchor="start" x="541" y="-576.2" font-family="Helvetica,sans-Serif" font-size="11.00">c_currency_id</text>
<polygon fill="none" stroke="black" points="521,-546 521,-568 729,-568 729,-546 521,-546"/>
<image xlink:href="../../images/foreignKeys.png" width="11px" height="12px" preserveAspectRatio="xMinYMin meet" x="526" y="-563"/>
<text text-anchor="start" x="541" y="-554.2" font-family="Helvetica,sans-Serif" font-size="11.00">ad_tree_menu_id</text>
<polygon fill="none" stroke="black" points="521,-524 521,-546 729,-546 729,-524 521,-524"/>
<image xlink:href="../../images/foreignKeys.png" width="11px" height="12px" preserveAspectRatio="xMinYMin meet" x="526" y="-541"/>
<text text-anchor="start" x="541" y="-532.2" font-family="Helvetica,sans-Serif" font-size="11.00">supervisor_id</text>
<polygon fill="none" stroke="black" points="521,-502 521,-524 729,-524 729,-502 521,-502"/>
<image xlink:href="../../images/foreignKeys.png" width="11px" height="12px" preserveAspectRatio="xMinYMin meet" x="526" y="-519"/>
<text text-anchor="start" x="541" y="-510.2" font-family="Helvetica,sans-Serif" font-size="11.00">ad_tree_org_id</text>
<polygon fill="#ffffff" stroke="transparent" points="521,-480 521,-502 729,-502 729,-480 521,-480"/>
<polygon fill="none" stroke="black" points="521,-480 521,-502 729,-502 729,-480 521,-480"/>
<text text-anchor="start" x="541" y="-488.2" font-family="Helvetica,sans-Serif" font-size="11.00">ad_role_uu</text>
<polygon fill="none" stroke="black" points="521,-462 521,-480 729,-480 729,-462 521,-462"/>
<text text-anchor="start" x="524" y="-468.2" font-family="Helvetica,sans-Serif" font-size="11.00">...</text>
<polygon fill="#ffffff" stroke="transparent" points="521,-444 521,-462 599,-462 599,-444 521,-444"/>
<polygon fill="none" stroke="black" points="521,-444 521,-462 599,-462 599,-444 521,-444"/>
<text text-anchor="start" x="524" y="-450.2" font-family="Helvetica,sans-Serif" font-size="11.00">&lt; 6</text>
<polygon fill="#ffffff" stroke="transparent" points="599,-444 599,-462 672,-462 672,-444 599,-444"/>
<polygon fill="none" stroke="black" points="599,-444 599,-462 672,-462 672,-444 599,-444"/>
<text text-anchor="start" x="630" y="-450.2" font-family="Helvetica,sans-Serif" font-size="11.00">13 rows</text>
<polygon fill="#ffffff" stroke="transparent" points="672,-444 672,-462 729,-462 729,-444 672,-444"/>
<polygon fill="none" stroke="black" points="672,-444 672,-462 729,-462 729,-444 672,-444"/>
<text text-anchor="start" x="704" y="-450.2" font-family="Helvetica,sans-Serif" font-size="11.00">42 &gt;</text>
</a>
</g>
</g>
<!-- ad_org -->
<g id="node2" class="node">
<title>ad_org</title>
<g id="a_node2"><a xlink:href="../../tables/ad_org.html" xlink:title="ad_org" target="_top">
<polygon fill="#ffffff" stroke="transparent" points="8,-347 8,-537 200,-537 200,-347 8,-347"/>
<polygon fill="#f5f5f5" stroke="transparent" points="8,-515 8,-537 200,-537 200,-515 8,-515"/>
<polygon fill="none" stroke="black" points="8,-515 8,-537 200,-537 200,-515 8,-515"/>
<text text-anchor="start" x="13" y="-524.2" font-family="Helvetica,sans-Serif" font-weight="bold" font-size="11.00">ad_org</text>
<text text-anchor="start" x="165" y="-523.2" font-family="Helvetica,sans-Serif" font-size="11.00">[table]</text>
<polygon fill="none" stroke="black" points="8,-493 8,-515 200,-515 200,-493 8,-493"/>
<image xlink:href="../../images/primaryKeys.png" width="11px" height="12px" preserveAspectRatio="xMinYMin meet" x="13" y="-510"/>
<text text-anchor="start" x="28" y="-501.2" font-family="Helvetica,sans-Serif" font-size="11.00">ad_org_id</text>
<polygon fill="#ffffff" stroke="transparent" points="8,-471 8,-493 200,-493 200,-471 8,-471"/>
<polygon fill="none" stroke="black" points="8,-471 8,-493 200,-493 200,-471 8,-471"/>
<image xlink:href="../../images/foreignKeys.png" width="11px" height="12px" preserveAspectRatio="xMinYMin meet" x="13" y="-488"/>
<text text-anchor="start" x="28" y="-479.2" font-family="Helvetica,sans-Serif" font-size="11.00">ad_client_id</text>
<polygon fill="#ffffff" stroke="transparent" points="8,-449 8,-471 200,-471 200,-449 8,-449"/>
<polygon fill="none" stroke="black" points="8,-449 8,-471 200,-471 200,-449 8,-449"/>
<text text-anchor="start" x="28" y="-457.2" font-family="Helvetica,sans-Serif" font-size="11.00">value</text>
<polygon fill="none" stroke="black" points="8,-427 8,-449 200,-449 200,-427 8,-427"/>
<image xlink:href="../../images/foreignKeys.png" width="11px" height="12px" preserveAspectRatio="xMinYMin meet" x="13" y="-444"/>
<text text-anchor="start" x="28" y="-435.2" font-family="Helvetica,sans-Serif" font-size="11.00">ad_replicationstrategy_id</text>
<polygon fill="#ffffff" stroke="transparent" points="8,-405 8,-427 200,-427 200,-405 8,-405"/>
<polygon fill="none" stroke="black" points="8,-405 8,-427 200,-427 200,-405 8,-405"/>
<text text-anchor="start" x="28" y="-413.2" font-family="Helvetica,sans-Serif" font-size="11.00">ad_org_uu</text>
<polygon fill="none" stroke="black" points="8,-383 8,-405 200,-405 200,-383 8,-383"/>
<image xlink:href="../../images/foreignKeys.png" width="11px" height="12px" preserveAspectRatio="xMinYMin meet" x="13" y="-400"/>
<text text-anchor="start" x="28" y="-391.2" font-family="Helvetica,sans-Serif" font-size="11.00">cof_c_snrange_id</text>
<polygon fill="none" stroke="black" points="8,-365 8,-383 200,-383 200,-365 8,-365"/>
<text text-anchor="start" x="11" y="-371.2" font-family="Helvetica,sans-Serif" font-size="11.00">...</text>
<polygon fill="#ffffff" stroke="transparent" points="8,-347 8,-365 78,-365 78,-347 8,-347"/>
<polygon fill="none" stroke="black" points="8,-347 8,-365 78,-365 78,-347 8,-347"/>
<text text-anchor="start" x="11" y="-353.2" font-family="Helvetica,sans-Serif" font-size="11.00">&lt; 3</text>
<polygon fill="#ffffff" stroke="transparent" points="78,-347 78,-365 141,-365 141,-347 78,-347"/>
<polygon fill="none" stroke="black" points="78,-347 78,-365 141,-365 141,-347 78,-347"/>
<text text-anchor="start" x="105" y="-353.2" font-family="Helvetica,sans-Serif" font-size="11.00">3 rows</text>
<polygon fill="#ffffff" stroke="transparent" points="141,-347 141,-365 200,-365 200,-347 141,-347"/>
<polygon fill="none" stroke="black" points="141,-347 141,-365 200,-365 200,-347 141,-347"/>
<text text-anchor="start" x="169" y="-353.2" font-family="Helvetica,sans-Serif" font-size="11.00">224 &gt;</text>
</a>
</g>
</g>
<!-- ad_role&#45;&gt;ad_org -->
<g id="edge1" class="edge">
<title>ad_role:w&#45;&gt;ad_org:e</title>
<path fill="none" stroke="black" d="M505.7,-597.2C445.11,-560 541.51,-260.61 480,-205 401.21,-133.76 320.94,-135.05 241,-205 190.55,-249.15 268.04,-504 201,-504"/>
<polygon fill="black" stroke="black" points="512.27,-598.95 519.08,-604.48 516.13,-599.97 520,-601 520,-601 520,-601 516.13,-599.97 520.92,-597.52 512.27,-598.95 512.27,-598.95"/>
<ellipse fill="none" stroke="black" cx="509.17" cy="-598.13" rx="3.2" ry="3.2"/>
</g>
<!-- ad_user -->
<g id="node3" class="node">
<title>ad_user</title>
<g id="a_node3"><a xlink:href="../../tables/ad_user.html" xlink:title="ad_user" target="_top">
<polygon fill="#ffffff" stroke="transparent" points="249,-215 249,-735 472,-735 472,-215 249,-215"/>
<polygon fill="#f5f5f5" stroke="transparent" points="249.5,-713 249.5,-735 472.5,-735 472.5,-713 249.5,-713"/>
<polygon fill="none" stroke="black" points="249.5,-713 249.5,-735 472.5,-735 472.5,-713 249.5,-713"/>
<text text-anchor="start" x="254.5" y="-722.2" font-family="Helvetica,sans-Serif" font-weight="bold" font-size="11.00">ad_user</text>
<text text-anchor="start" x="437.5" y="-721.2" font-family="Helvetica,sans-Serif" font-size="11.00">[table]</text>
<polygon fill="none" stroke="black" points="249.5,-691 249.5,-713 472.5,-713 472.5,-691 249.5,-691"/>
<image xlink:href="../../images/primaryKeys.png" width="11px" height="12px" preserveAspectRatio="xMinYMin meet" x="254.5" y="-708"/>
<text text-anchor="start" x="269.5" y="-699.2" font-family="Helvetica,sans-Serif" font-size="11.00">ad_user_id</text>
<polygon fill="none" stroke="black" points="249.5,-669 249.5,-691 472.5,-691 472.5,-669 249.5,-669"/>
<image xlink:href="../../images/foreignKeys.png" width="11px" height="12px" preserveAspectRatio="xMinYMin meet" x="254.5" y="-686"/>
<text text-anchor="start" x="269.5" y="-677.2" font-family="Helvetica,sans-Serif" font-size="11.00">ad_client_id</text>
<polygon fill="none" stroke="black" points="249.5,-647 249.5,-669 472.5,-669 472.5,-647 249.5,-647"/>
<image xlink:href="../../images/foreignKeys.png" width="11px" height="12px" preserveAspectRatio="xMinYMin meet" x="254.5" y="-664"/>
<text text-anchor="start" x="269.5" y="-655.2" font-family="Helvetica,sans-Serif" font-size="11.00">ad_org_id</text>
<polygon fill="#ffffff" stroke="transparent" points="249.5,-625 249.5,-647 472.5,-647 472.5,-625 249.5,-625"/>
<polygon fill="none" stroke="black" points="249.5,-625 249.5,-647 472.5,-647 472.5,-625 249.5,-625"/>
<text text-anchor="start" x="269.5" y="-633.2" font-family="Helvetica,sans-Serif" font-size="11.00">name</text>
<polygon fill="#ffffff" stroke="transparent" points="249.5,-603 249.5,-625 472.5,-625 472.5,-603 249.5,-603"/>
<polygon fill="none" stroke="black" points="249.5,-603 249.5,-625 472.5,-625 472.5,-603 249.5,-603"/>
<text text-anchor="start" x="269.5" y="-611.2" font-family="Helvetica,sans-Serif" font-size="11.00">email</text>
<polygon fill="none" stroke="black" points="249.5,-581 249.5,-603 472.5,-603 472.5,-581 249.5,-581"/>
<image xlink:href="../../images/foreignKeys.png" width="11px" height="12px" preserveAspectRatio="xMinYMin meet" x="254.5" y="-598"/>
<text text-anchor="start" x="269.5" y="-589.2" font-family="Helvetica,sans-Serif" font-size="11.00">supervisor_id</text>
<polygon fill="#ffffff" stroke="transparent" points="249.5,-559 249.5,-581 472.5,-581 472.5,-559 249.5,-559"/>
<polygon fill="none" stroke="black" points="249.5,-559 249.5,-581 472.5,-581 472.5,-559 249.5,-559"/>
<image xlink:href="../../images/foreignKeys.png" width="11px" height="12px" preserveAspectRatio="xMinYMin meet" x="254.5" y="-576"/>
<text text-anchor="start" x="269.5" y="-567.2" font-family="Helvetica,sans-Serif" font-size="11.00">c_bpartner_id</text>
<polygon fill="none" stroke="black" points="249.5,-537 249.5,-559 472.5,-559 472.5,-537 249.5,-537"/>
<image xlink:href="../../images/foreignKeys.png" width="11px" height="12px" preserveAspectRatio="xMinYMin meet" x="254.5" y="-554"/>
<text text-anchor="start" x="269.5" y="-545.2" font-family="Helvetica,sans-Serif" font-size="11.00">c_bpartner_location_id</text>
<polygon fill="none" stroke="black" points="249.5,-515 249.5,-537 472.5,-537 472.5,-515 249.5,-515"/>
<image xlink:href="../../images/foreignKeys.png" width="11px" height="12px" preserveAspectRatio="xMinYMin meet" x="254.5" y="-532"/>
<text text-anchor="start" x="269.5" y="-523.2" font-family="Helvetica,sans-Serif" font-size="11.00">c_greeting_id</text>
<polygon fill="none" stroke="black" points="249.5,-493 249.5,-515 472.5,-515 472.5,-493 249.5,-493"/>
<image xlink:href="../../images/foreignKeys.png" width="11px" height="12px" preserveAspectRatio="xMinYMin meet" x="254.5" y="-510"/>
<text text-anchor="start" x="269.5" y="-501.2" font-family="Helvetica,sans-Serif" font-size="11.00">ad_orgtrx_id</text>
<polygon fill="none" stroke="black" points="249.5,-471 249.5,-493 472.5,-493 472.5,-471 249.5,-471"/>
<image xlink:href="../../images/foreignKeys.png" width="11px" height="12px" preserveAspectRatio="xMinYMin meet" x="254.5" y="-488"/>
<text text-anchor="start" x="269.5" y="-479.2" font-family="Helvetica,sans-Serif" font-size="11.00">c_job_id</text>
<polygon fill="#ffffff" stroke="transparent" points="249.5,-449 249.5,-471 472.5,-471 472.5,-449 249.5,-449"/>
<polygon fill="none" stroke="black" points="249.5,-449 249.5,-471 472.5,-471 472.5,-449 249.5,-449"/>
<text text-anchor="start" x="269.5" y="-457.2" font-family="Helvetica,sans-Serif" font-size="11.00">ad_user_uu</text>
<polygon fill="none" stroke="black" points="249.5,-427 249.5,-449 472.5,-449 472.5,-427 249.5,-427"/>
<image xlink:href="../../images/foreignKeys.png" width="11px" height="12px" preserveAspectRatio="xMinYMin meet" x="254.5" y="-444"/>
<text text-anchor="start" x="269.5" y="-435.2" font-family="Helvetica,sans-Serif" font-size="11.00">c_location_id</text>
<polygon fill="none" stroke="black" points="249.5,-405 249.5,-427 472.5,-427 472.5,-405 249.5,-405"/>
<image xlink:href="../../images/foreignKeys.png" width="11px" height="12px" preserveAspectRatio="xMinYMin meet" x="254.5" y="-422"/>
<text text-anchor="start" x="269.5" y="-413.2" font-family="Helvetica,sans-Serif" font-size="11.00">c_campaign_id</text>
<polygon fill="none" stroke="black" points="249.5,-383 249.5,-405 472.5,-405 472.5,-383 249.5,-383"/>
<image xlink:href="../../images/foreignKeys.png" width="11px" height="12px" preserveAspectRatio="xMinYMin meet" x="254.5" y="-400"/>
<text text-anchor="start" x="269.5" y="-391.2" font-family="Helvetica,sans-Serif" font-size="11.00">salesrep_id</text>
<polygon fill="none" stroke="black" points="249.5,-361 249.5,-383 472.5,-383 472.5,-361 249.5,-361"/>
<image xlink:href="../../images/foreignKeys.png" width="11px" height="12px" preserveAspectRatio="xMinYMin meet" x="254.5" y="-378"/>
<text text-anchor="start" x="269.5" y="-369.2" font-family="Helvetica,sans-Serif" font-size="11.00">bp_location_id</text>
<polygon fill="none" stroke="black" points="249.5,-339 249.5,-361 472.5,-361 472.5,-339 249.5,-339"/>
<image xlink:href="../../images/foreignKeys.png" width="11px" height="12px" preserveAspectRatio="xMinYMin meet" x="254.5" y="-356"/>
<text text-anchor="start" x="269.5" y="-347.2" font-family="Helvetica,sans-Serif" font-size="11.00">r_defaultmailtext_id</text>
<polygon fill="none" stroke="black" points="249.5,-317 249.5,-339 472.5,-339 472.5,-317 249.5,-317"/>
<image xlink:href="../../images/foreignKeys.png" width="11px" height="12px" preserveAspectRatio="xMinYMin meet" x="254.5" y="-334"/>
<text text-anchor="start" x="269.5" y="-325.2" font-family="Helvetica,sans-Serif" font-size="11.00">cof_c_marketsegment_id</text>
<polygon fill="none" stroke="black" points="249.5,-295 249.5,-317 472.5,-317 472.5,-295 249.5,-295"/>
<image xlink:href="../../images/foreignKeys.png" width="11px" height="12px" preserveAspectRatio="xMinYMin meet" x="254.5" y="-312"/>
<text text-anchor="start" x="269.5" y="-303.2" font-family="Helvetica,sans-Serif" font-size="11.00">cof_c_leadexpirationreason_id</text>
<polygon fill="none" stroke="black" points="249.5,-273 249.5,-295 472.5,-295 472.5,-273 249.5,-273"/>
<image xlink:href="../../images/foreignKeys.png" width="11px" height="12px" preserveAspectRatio="xMinYMin meet" x="254.5" y="-290"/>
<text text-anchor="start" x="269.5" y="-281.2" font-family="Helvetica,sans-Serif" font-size="11.00">ad_image_id</text>
<polygon fill="none" stroke="black" points="249.5,-251 249.5,-273 472.5,-273 472.5,-251 249.5,-251"/>
<image xlink:href="../../images/foreignKeys.png" width="11px" height="12px" preserveAspectRatio="xMinYMin meet" x="254.5" y="-268"/>
<text text-anchor="start" x="269.5" y="-259.2" font-family="Helvetica,sans-Serif" font-size="11.00">c_subscription_id</text>
<polygon fill="none" stroke="black" points="249.5,-233 249.5,-251 472.5,-251 472.5,-233 249.5,-233"/>
<text text-anchor="start" x="252.5" y="-239.2" font-family="Helvetica,sans-Serif" font-size="11.00">...</text>
<polygon fill="#ffffff" stroke="transparent" points="249.5,-215 249.5,-233 338.5,-233 338.5,-215 249.5,-215"/>
<polygon fill="none" stroke="black" points="249.5,-215 249.5,-233 338.5,-233 338.5,-215 249.5,-215"/>
<text text-anchor="start" x="252.5" y="-221.2" font-family="Helvetica,sans-Serif" font-size="11.00">&lt; 17</text>
<polygon fill="#ffffff" stroke="transparent" points="338.5,-215 338.5,-233 407.5,-233 407.5,-215 338.5,-215"/>
<polygon fill="none" stroke="black" points="338.5,-215 338.5,-233 407.5,-233 407.5,-215 338.5,-215"/>
<text text-anchor="start" x="371.5" y="-221.2" font-family="Helvetica,sans-Serif" font-size="11.00">8 rows</text>
<polygon fill="#ffffff" stroke="transparent" points="407.5,-215 407.5,-233 472.5,-233 472.5,-215 407.5,-215"/>
<polygon fill="none" stroke="black" points="407.5,-215 407.5,-233 472.5,-233 472.5,-215 407.5,-215"/>
<text text-anchor="start" x="441.5" y="-221.2" font-family="Helvetica,sans-Serif" font-size="11.00">316 &gt;</text>
</a>
</g>
</g>
<!-- ad_role&#45;&gt;ad_user -->
<g id="edge2" class="edge">
<title>ad_role:w&#45;&gt;ad_user:e</title>
<path fill="none" stroke="black" d="M505.75,-537.62C457.91,-558.87 544.83,-702 473.5,-702"/>
<polygon fill="black" stroke="black" points="512.13,-536.45 520.65,-538.54 516.07,-535.72 520,-535 520,-535 520,-535 516.07,-535.72 519.35,-531.46 512.13,-536.45 512.13,-536.45"/>
<ellipse fill="none" stroke="black" cx="508.98" cy="-537.03" rx="3.2" ry="3.2"/>
</g>
<!-- ad_user&#45;&gt;ad_org -->
<g id="edge3" class="edge">
<title>ad_user:w&#45;&gt;ad_org:e</title>
<path fill="none" stroke="black" d="M234.34,-655.2C191.14,-634.32 266.89,-504 201,-504"/>
<polygon fill="black" stroke="black" points="240.65,-656.45 247.8,-661.53 244.58,-657.22 248.5,-658 248.5,-658 248.5,-658 244.58,-657.22 249.2,-654.47 240.65,-656.45 240.65,-656.45"/>
<ellipse fill="none" stroke="black" cx="237.51" cy="-655.82" rx="3.2" ry="3.2"/>
</g>
<!-- ad_user&#45;&gt;ad_org -->
<g id="edge4" class="edge">
<title>ad_user:w&#45;&gt;ad_org:e</title>
<path fill="none" stroke="black" d="M234.09,-504C223.32,-504 216.34,-504 201,-504"/>
<polygon fill="black" stroke="black" points="240.5,-504 248.5,-507.6 244.5,-504 248.5,-504 248.5,-504 248.5,-504 244.5,-504 248.5,-500.4 240.5,-504 240.5,-504"/>
<ellipse fill="none" stroke="black" cx="237.3" cy="-504" rx="3.2" ry="3.2"/>
</g>
<!-- cof_restricaoacesso -->
<g id="node4" class="node">
<title>cof_restricaoacesso</title>
<g id="a_node4"><a xlink:href="../../tables/cof_restricaoacesso.html" xlink:title="cof_restricaoacesso" target="_top">
<polygon fill="#ffffff" stroke="transparent" points="778,-37 778,-917 1066,-917 1066,-37 778,-37"/>
<polygon fill="#f5f5f5" stroke="transparent" points="780,-893 780,-915 1064,-915 1064,-893 780,-893"/>
<polygon fill="none" stroke="black" points="780,-893 780,-915 1064,-915 1064,-893 780,-893"/>
<text text-anchor="start" x="785" y="-902.2" font-family="Helvetica,sans-Serif" font-weight="bold" font-size="11.00">cof_restricaoacesso</text>
<text text-anchor="start" x="1029" y="-901.2" font-family="Helvetica,sans-Serif" font-size="11.00">[table]</text>
<polygon fill="none" stroke="black" points="780,-871 780,-893 981,-893 981,-871 780,-871"/>
<image xlink:href="../../images/primaryKeys.png" width="11px" height="12px" preserveAspectRatio="xMinYMin meet" x="785" y="-888"/>
<text text-anchor="start" x="800" y="-879.2" font-family="Helvetica,sans-Serif" font-size="11.00">cof_restricaoacesso_id</text>
<polygon fill="none" stroke="black" points="981,-871 981,-893 1064,-893 1064,-871 981,-871"/>
<text text-anchor="start" x="984" y="-879.2" font-family="Helvetica,sans-Serif" font-size="11.00">numeric[10]</text>
<polygon fill="#ffffff" stroke="transparent" points="780,-849 780,-871 981,-871 981,-849 780,-849"/>
<polygon fill="none" stroke="black" points="780,-849 780,-871 981,-871 981,-849 780,-849"/>
<text text-anchor="start" x="800" y="-857.2" font-family="Helvetica,sans-Serif" font-size="11.00">cof_restricaoacesso_uu</text>
<polygon fill="none" stroke="black" points="981,-849 981,-871 1064,-871 1064,-849 981,-849"/>
<text text-anchor="start" x="984" y="-857.2" font-family="Helvetica,sans-Serif" font-size="11.00">varchar[36]</text>
<polygon fill="none" stroke="black" points="780,-827 780,-849 981,-849 981,-827 780,-827"/>
<text text-anchor="start" x="800" y="-835.2" font-family="Helvetica,sans-Serif" font-size="11.00">ad_client_id</text>
<polygon fill="none" stroke="black" points="981,-827 981,-849 1064,-849 1064,-827 981,-827"/>
<text text-anchor="start" x="984" y="-835.2" font-family="Helvetica,sans-Serif" font-size="11.00">numeric[10]</text>
<polygon fill="none" stroke="black" points="780,-805 780,-827 981,-827 981,-805 780,-805"/>
<image xlink:href="../../images/foreignKeys.png" width="11px" height="12px" preserveAspectRatio="xMinYMin meet" x="785" y="-822"/>
<text text-anchor="start" x="800" y="-813.2" font-family="Helvetica,sans-Serif" font-size="11.00">ad_org_id</text>
<polygon fill="none" stroke="black" points="981,-805 981,-827 1064,-827 1064,-805 981,-805"/>
<text text-anchor="start" x="984" y="-813.2" font-family="Helvetica,sans-Serif" font-size="11.00">numeric[10]</text>
<polygon fill="none" stroke="black" points="780,-783 780,-805 981,-805 981,-783 780,-783"/>
<text text-anchor="start" x="800" y="-791.2" font-family="Helvetica,sans-Serif" font-size="11.00">isactive</text>
<polygon fill="none" stroke="black" points="981,-783 981,-805 1064,-805 1064,-783 981,-783"/>
<text text-anchor="start" x="984" y="-791.2" font-family="Helvetica,sans-Serif" font-size="11.00">bpchar[1]</text>
<polygon fill="none" stroke="black" points="780,-761 780,-783 981,-783 981,-761 780,-761"/>
<text text-anchor="start" x="800" y="-769.2" font-family="Helvetica,sans-Serif" font-size="11.00">created</text>
<polygon fill="none" stroke="black" points="981,-761 981,-783 1064,-783 1064,-761 981,-761"/>
<text text-anchor="start" x="984" y="-769.2" font-family="Helvetica,sans-Serif" font-size="11.00">timestamp[29,6]</text>
<polygon fill="none" stroke="black" points="780,-739 780,-761 981,-761 981,-739 780,-739"/>
<text text-anchor="start" x="800" y="-747.2" font-family="Helvetica,sans-Serif" font-size="11.00">createdby</text>
<polygon fill="none" stroke="black" points="981,-739 981,-761 1064,-761 1064,-739 981,-739"/>
<text text-anchor="start" x="984" y="-747.2" font-family="Helvetica,sans-Serif" font-size="11.00">numeric[10]</text>
<polygon fill="none" stroke="black" points="780,-717 780,-739 981,-739 981,-717 780,-717"/>
<text text-anchor="start" x="800" y="-725.2" font-family="Helvetica,sans-Serif" font-size="11.00">updated</text>
<polygon fill="none" stroke="black" points="981,-717 981,-739 1064,-739 1064,-717 981,-717"/>
<text text-anchor="start" x="984" y="-725.2" font-family="Helvetica,sans-Serif" font-size="11.00">timestamp[29,6]</text>
<polygon fill="none" stroke="black" points="780,-695 780,-717 981,-717 981,-695 780,-695"/>
<text text-anchor="start" x="800" y="-703.2" font-family="Helvetica,sans-Serif" font-size="11.00">updatedby</text>
<polygon fill="none" stroke="black" points="981,-695 981,-717 1064,-717 1064,-695 981,-695"/>
<text text-anchor="start" x="984" y="-703.2" font-family="Helvetica,sans-Serif" font-size="11.00">numeric[10]</text>
<polygon fill="none" stroke="black" points="780,-673 780,-695 981,-695 981,-673 780,-673"/>
<image xlink:href="../../images/foreignKeys.png" width="11px" height="12px" preserveAspectRatio="xMinYMin meet" x="785" y="-690"/>
<text text-anchor="start" x="800" y="-681.2" font-family="Helvetica,sans-Serif" font-size="11.00">cof_user_id</text>
<polygon fill="none" stroke="black" points="981,-673 981,-695 1064,-695 1064,-673 981,-673"/>
<text text-anchor="start" x="984" y="-681.2" font-family="Helvetica,sans-Serif" font-size="11.00">numeric[10]</text>
<polygon fill="none" stroke="black" points="780,-651 780,-673 981,-673 981,-651 780,-651"/>
<image xlink:href="../../images/foreignKeys.png" width="11px" height="12px" preserveAspectRatio="xMinYMin meet" x="785" y="-668"/>
<text text-anchor="start" x="800" y="-659.2" font-family="Helvetica,sans-Serif" font-size="11.00">cof_role_id</text>
<polygon fill="none" stroke="black" points="981,-651 981,-673 1064,-673 1064,-651 981,-651"/>
<text text-anchor="start" x="984" y="-659.2" font-family="Helvetica,sans-Serif" font-size="11.00">numeric[10]</text>
<polygon fill="none" stroke="black" points="780,-629 780,-651 981,-651 981,-629 780,-629"/>
<text text-anchor="start" x="800" y="-637.2" font-family="Helvetica,sans-Serif" font-size="11.00">cof_todososdiashorainicio</text>
<polygon fill="none" stroke="black" points="981,-629 981,-651 1064,-651 1064,-629 981,-629"/>
<text text-anchor="start" x="984" y="-637.2" font-family="Helvetica,sans-Serif" font-size="11.00">timestamp[29,6]</text>
<polygon fill="none" stroke="black" points="780,-607 780,-629 981,-629 981,-607 780,-607"/>
<text text-anchor="start" x="800" y="-615.2" font-family="Helvetica,sans-Serif" font-size="11.00">cof_todososdiashorafim</text>
<polygon fill="none" stroke="black" points="981,-607 981,-629 1064,-629 1064,-607 981,-607"/>
<text text-anchor="start" x="984" y="-615.2" font-family="Helvetica,sans-Serif" font-size="11.00">timestamp[29,6]</text>
<polygon fill="none" stroke="black" points="780,-585 780,-607 981,-607 981,-585 780,-585"/>
<text text-anchor="start" x="800" y="-593.2" font-family="Helvetica,sans-Serif" font-size="11.00">cof_segunda</text>
<polygon fill="none" stroke="black" points="981,-585 981,-607 1064,-607 1064,-585 981,-585"/>
<text text-anchor="start" x="984" y="-593.2" font-family="Helvetica,sans-Serif" font-size="11.00">bpchar[1]</text>
<polygon fill="none" stroke="black" points="780,-563 780,-585 981,-585 981,-563 780,-563"/>
<text text-anchor="start" x="800" y="-571.2" font-family="Helvetica,sans-Serif" font-size="11.00">cof_segundahorainicio</text>
<polygon fill="none" stroke="black" points="981,-563 981,-585 1064,-585 1064,-563 981,-563"/>
<text text-anchor="start" x="984" y="-571.2" font-family="Helvetica,sans-Serif" font-size="11.00">timestamp[29,6]</text>
<polygon fill="none" stroke="black" points="780,-541 780,-563 981,-563 981,-541 780,-541"/>
<text text-anchor="start" x="800" y="-549.2" font-family="Helvetica,sans-Serif" font-size="11.00">cof_segundahorafim</text>
<polygon fill="none" stroke="black" points="981,-541 981,-563 1064,-563 1064,-541 981,-541"/>
<text text-anchor="start" x="984" y="-549.2" font-family="Helvetica,sans-Serif" font-size="11.00">timestamp[29,6]</text>
<polygon fill="none" stroke="black" points="780,-519 780,-541 981,-541 981,-519 780,-519"/>
<text text-anchor="start" x="800" y="-527.2" font-family="Helvetica,sans-Serif" font-size="11.00">cof_terca</text>
<polygon fill="none" stroke="black" points="981,-519 981,-541 1064,-541 1064,-519 981,-519"/>
<text text-anchor="start" x="984" y="-527.2" font-family="Helvetica,sans-Serif" font-size="11.00">bpchar[1]</text>
<polygon fill="none" stroke="black" points="780,-497 780,-519 981,-519 981,-497 780,-497"/>
<text text-anchor="start" x="800" y="-505.2" font-family="Helvetica,sans-Serif" font-size="11.00">cof_tercahorainicio</text>
<polygon fill="none" stroke="black" points="981,-497 981,-519 1064,-519 1064,-497 981,-497"/>
<text text-anchor="start" x="984" y="-505.2" font-family="Helvetica,sans-Serif" font-size="11.00">timestamp[29,6]</text>
<polygon fill="none" stroke="black" points="780,-475 780,-497 981,-497 981,-475 780,-475"/>
<text text-anchor="start" x="800" y="-483.2" font-family="Helvetica,sans-Serif" font-size="11.00">cof_tercahorafim</text>
<polygon fill="none" stroke="black" points="981,-475 981,-497 1064,-497 1064,-475 981,-475"/>
<text text-anchor="start" x="984" y="-483.2" font-family="Helvetica,sans-Serif" font-size="11.00">timestamp[29,6]</text>
<polygon fill="none" stroke="black" points="780,-453 780,-475 981,-475 981,-453 780,-453"/>
<text text-anchor="start" x="800" y="-461.2" font-family="Helvetica,sans-Serif" font-size="11.00">cof_quarta</text>
<polygon fill="none" stroke="black" points="981,-453 981,-475 1064,-475 1064,-453 981,-453"/>
<text text-anchor="start" x="984" y="-461.2" font-family="Helvetica,sans-Serif" font-size="11.00">bpchar[1]</text>
<polygon fill="none" stroke="black" points="780,-431 780,-453 981,-453 981,-431 780,-431"/>
<text text-anchor="start" x="800" y="-439.2" font-family="Helvetica,sans-Serif" font-size="11.00">cof_quartahorainicio</text>
<polygon fill="none" stroke="black" points="981,-431 981,-453 1064,-453 1064,-431 981,-431"/>
<text text-anchor="start" x="984" y="-439.2" font-family="Helvetica,sans-Serif" font-size="11.00">timestamp[29,6]</text>
<polygon fill="none" stroke="black" points="780,-409 780,-431 981,-431 981,-409 780,-409"/>
<text text-anchor="start" x="800" y="-417.2" font-family="Helvetica,sans-Serif" font-size="11.00">cof_quartahorafim</text>
<polygon fill="none" stroke="black" points="981,-409 981,-431 1064,-431 1064,-409 981,-409"/>
<text text-anchor="start" x="984" y="-417.2" font-family="Helvetica,sans-Serif" font-size="11.00">timestamp[29,6]</text>
<polygon fill="none" stroke="black" points="780,-387 780,-409 981,-409 981,-387 780,-387"/>
<text text-anchor="start" x="800" y="-395.2" font-family="Helvetica,sans-Serif" font-size="11.00">cof_quinta</text>
<polygon fill="none" stroke="black" points="981,-387 981,-409 1064,-409 1064,-387 981,-387"/>
<text text-anchor="start" x="984" y="-395.2" font-family="Helvetica,sans-Serif" font-size="11.00">bpchar[1]</text>
<polygon fill="none" stroke="black" points="780,-365 780,-387 981,-387 981,-365 780,-365"/>
<text text-anchor="start" x="800" y="-373.2" font-family="Helvetica,sans-Serif" font-size="11.00">cof_quintahorainicio</text>
<polygon fill="none" stroke="black" points="981,-365 981,-387 1064,-387 1064,-365 981,-365"/>
<text text-anchor="start" x="984" y="-373.2" font-family="Helvetica,sans-Serif" font-size="11.00">timestamp[29,6]</text>
<polygon fill="none" stroke="black" points="780,-343 780,-365 981,-365 981,-343 780,-343"/>
<text text-anchor="start" x="800" y="-351.2" font-family="Helvetica,sans-Serif" font-size="11.00">cof_quintahorafim</text>
<polygon fill="none" stroke="black" points="981,-343 981,-365 1064,-365 1064,-343 981,-343"/>
<text text-anchor="start" x="984" y="-351.2" font-family="Helvetica,sans-Serif" font-size="11.00">timestamp[29,6]</text>
<polygon fill="none" stroke="black" points="780,-321 780,-343 981,-343 981,-321 780,-321"/>
<text text-anchor="start" x="800" y="-329.2" font-family="Helvetica,sans-Serif" font-size="11.00">cof_sexta</text>
<polygon fill="none" stroke="black" points="981,-321 981,-343 1064,-343 1064,-321 981,-321"/>
<text text-anchor="start" x="984" y="-329.2" font-family="Helvetica,sans-Serif" font-size="11.00">bpchar[1]</text>
<polygon fill="none" stroke="black" points="780,-299 780,-321 981,-321 981,-299 780,-299"/>
<text text-anchor="start" x="800" y="-307.2" font-family="Helvetica,sans-Serif" font-size="11.00">cof_sextahorainicio</text>
<polygon fill="none" stroke="black" points="981,-299 981,-321 1064,-321 1064,-299 981,-299"/>
<text text-anchor="start" x="984" y="-307.2" font-family="Helvetica,sans-Serif" font-size="11.00">timestamp[29,6]</text>
<polygon fill="none" stroke="black" points="780,-277 780,-299 981,-299 981,-277 780,-277"/>
<text text-anchor="start" x="800" y="-285.2" font-family="Helvetica,sans-Serif" font-size="11.00">cof_sextahorafim</text>
<polygon fill="none" stroke="black" points="981,-277 981,-299 1064,-299 1064,-277 981,-277"/>
<text text-anchor="start" x="984" y="-285.2" font-family="Helvetica,sans-Serif" font-size="11.00">timestamp[29,6]</text>
<polygon fill="none" stroke="black" points="780,-255 780,-277 981,-277 981,-255 780,-255"/>
<text text-anchor="start" x="800" y="-263.2" font-family="Helvetica,sans-Serif" font-size="11.00">cof_sabado</text>
<polygon fill="none" stroke="black" points="981,-255 981,-277 1064,-277 1064,-255 981,-255"/>
<text text-anchor="start" x="984" y="-263.2" font-family="Helvetica,sans-Serif" font-size="11.00">bpchar[1]</text>
<polygon fill="none" stroke="black" points="780,-233 780,-255 981,-255 981,-233 780,-233"/>
<text text-anchor="start" x="800" y="-241.2" font-family="Helvetica,sans-Serif" font-size="11.00">cof_sabadohorainicial</text>
<polygon fill="none" stroke="black" points="981,-233 981,-255 1064,-255 1064,-233 981,-233"/>
<text text-anchor="start" x="984" y="-241.2" font-family="Helvetica,sans-Serif" font-size="11.00">timestamp[29,6]</text>
<polygon fill="none" stroke="black" points="780,-211 780,-233 981,-233 981,-211 780,-211"/>
<text text-anchor="start" x="800" y="-219.2" font-family="Helvetica,sans-Serif" font-size="11.00">cof_sabadohorafim</text>
<polygon fill="none" stroke="black" points="981,-211 981,-233 1064,-233 1064,-211 981,-211"/>
<text text-anchor="start" x="984" y="-219.2" font-family="Helvetica,sans-Serif" font-size="11.00">timestamp[29,6]</text>
<polygon fill="none" stroke="black" points="780,-189 780,-211 981,-211 981,-189 780,-189"/>
<text text-anchor="start" x="800" y="-197.2" font-family="Helvetica,sans-Serif" font-size="11.00">cof_domingo</text>
<polygon fill="none" stroke="black" points="981,-189 981,-211 1064,-211 1064,-189 981,-189"/>
<text text-anchor="start" x="984" y="-197.2" font-family="Helvetica,sans-Serif" font-size="11.00">bpchar[1]</text>
<polygon fill="none" stroke="black" points="780,-167 780,-189 981,-189 981,-167 780,-167"/>
<text text-anchor="start" x="800" y="-175.2" font-family="Helvetica,sans-Serif" font-size="11.00">cof_domingohorainicio</text>
<polygon fill="none" stroke="black" points="981,-167 981,-189 1064,-189 1064,-167 981,-167"/>
<text text-anchor="start" x="984" y="-175.2" font-family="Helvetica,sans-Serif" font-size="11.00">timestamp[29,6]</text>
<polygon fill="none" stroke="black" points="780,-145 780,-167 981,-167 981,-145 780,-145"/>
<text text-anchor="start" x="800" y="-153.2" font-family="Helvetica,sans-Serif" font-size="11.00">cof_domingohorafim</text>
<polygon fill="none" stroke="black" points="981,-145 981,-167 1064,-167 1064,-145 981,-145"/>
<text text-anchor="start" x="984" y="-153.2" font-family="Helvetica,sans-Serif" font-size="11.00">timestamp[29,6]</text>
<polygon fill="none" stroke="black" points="780,-123 780,-145 981,-145 981,-123 780,-123"/>
<text text-anchor="start" x="800" y="-131.2" font-family="Helvetica,sans-Serif" font-size="11.00">cof_todososdias</text>
<polygon fill="none" stroke="black" points="981,-123 981,-145 1064,-145 1064,-123 981,-123"/>
<text text-anchor="start" x="984" y="-131.2" font-family="Helvetica,sans-Serif" font-size="11.00">bpchar[1]</text>
<polygon fill="none" stroke="black" points="780,-101 780,-123 981,-123 981,-101 780,-101"/>
<image xlink:href="../../images/foreignKeys.png" width="11px" height="12px" preserveAspectRatio="xMinYMin meet" x="785" y="-118"/>
<text text-anchor="start" x="800" y="-109.2" font-family="Helvetica,sans-Serif" font-size="11.00">cof_restricaoacesso_org_id</text>
<polygon fill="none" stroke="black" points="981,-101 981,-123 1064,-123 1064,-101 981,-101"/>
<text text-anchor="start" x="984" y="-109.2" font-family="Helvetica,sans-Serif" font-size="11.00">numeric[10]</text>
<polygon fill="none" stroke="black" points="780,-79 780,-101 981,-101 981,-79 780,-79"/>
<text text-anchor="start" x="800" y="-87.2" font-family="Helvetica,sans-Serif" font-size="11.00">priorityno</text>
<polygon fill="none" stroke="black" points="981,-79 981,-101 1064,-101 1064,-79 981,-79"/>
<text text-anchor="start" x="984" y="-87.2" font-family="Helvetica,sans-Serif" font-size="11.00">numeric[10]</text>
<polygon fill="none" stroke="black" points="780,-57 780,-79 981,-79 981,-57 780,-57"/>
<text text-anchor="start" x="800" y="-65.2" font-family="Helvetica,sans-Serif" font-size="11.00">cof_bloquearoutrosdias</text>
<polygon fill="none" stroke="black" points="981,-57 981,-79 1064,-79 1064,-57 981,-57"/>
<text text-anchor="start" x="984" y="-65.2" font-family="Helvetica,sans-Serif" font-size="11.00">bpchar[1]</text>
<polygon fill="#ffffff" stroke="transparent" points="780,-39 780,-57 872,-57 872,-39 780,-39"/>
<polygon fill="none" stroke="black" points="780,-39 780,-57 872,-57 872,-39 780,-39"/>
<text text-anchor="start" x="783" y="-45.2" font-family="Helvetica,sans-Serif" font-size="11.00">&lt; 4</text>
<polygon fill="#ffffff" stroke="transparent" points="872,-39 872,-57 981,-57 981,-39 872,-39"/>
<polygon fill="none" stroke="black" points="872,-39 872,-57 981,-57 981,-39 872,-39"/>
<text text-anchor="start" x="945" y="-45.2" font-family="Helvetica,sans-Serif" font-size="11.00">0 rows</text>
<polygon fill="#ffffff" stroke="transparent" points="981,-39 981,-57 1064,-57 1064,-39 981,-39"/>
<polygon fill="none" stroke="black" points="981,-39 981,-57 1064,-57 1064,-39 981,-39"/>
<text text-anchor="start" x="1045" y="-45.2" font-family="Helvetica,sans-Serif" font-size="11.00">0 &gt;</text>
<polygon fill="none" stroke="black" stroke-width="2" points="779,-38 779,-916 1065,-916 1065,-38 779,-38"/>
</a>
</g>
</g>
<!-- cof_restricaoacesso&#45;&gt;ad_role -->
<g id="edge7" class="edge">
<title>cof_restricaoacesso:w&#45;&gt;ad_role:e</title>
<path fill="none" stroke="black" d="M764.5,-659.19C753.12,-654.36 747.11,-645 730,-645"/>
<polygon fill="black" stroke="black" points="771.15,-660.48 778.32,-665.53 775.07,-661.24 779,-662 779,-662 779,-662 775.07,-661.24 779.68,-658.47 771.15,-660.48 771.15,-660.48"/>
<ellipse fill="none" stroke="black" cx="768" cy="-659.87" rx="3.2" ry="3.2"/>
</g>
<!-- cof_restricaoacesso&#45;&gt;ad_org -->
<g id="edge5" class="edge">
<title>cof_restricaoacesso:w&#45;&gt;ad_org:e</title>
<path fill="none" stroke="black" d="M764.31,-816.12C532.79,-819.89 410.86,-910.11 241,-746 201.8,-708.13 255.51,-504 201,-504"/>
<polygon fill="black" stroke="black" points="771,-816.07 779.03,-819.6 775,-816.03 779,-816 779,-816 779,-816 775,-816.03 778.97,-812.4 771,-816.07 771,-816.07"/>
<ellipse fill="none" stroke="black" cx="767.8" cy="-816.09" rx="3.2" ry="3.2"/>
</g>
<!-- cof_restricaoacesso&#45;&gt;ad_org -->
<g id="edge6" class="edge">
<title>cof_restricaoacesso:w&#45;&gt;ad_org:e</title>
<path fill="none" stroke="black" d="M764.4,-111.84C534.17,-106.84 410.57,13.35 241,-149 183.66,-203.9 280.39,-504 201,-504"/>
<polygon fill="black" stroke="black" points="771,-111.91 778.96,-115.6 775,-111.96 779,-112 779,-112 779,-112 775,-111.96 779.04,-108.4 771,-111.91 771,-111.91"/>
<ellipse fill="none" stroke="black" cx="767.8" cy="-111.88" rx="3.2" ry="3.2"/>
</g>
<!-- cof_restricaoacesso&#45;&gt;ad_user -->
<g id="edge8" class="edge">
<title>cof_restricaoacesso:w&#45;&gt;ad_user:e</title>
<path fill="none" stroke="black" d="M764.41,-684.88C755.88,-686 749.73,-687.93 737,-689 620.16,-698.83 590.75,-702 473.5,-702"/>
<polygon fill="black" stroke="black" points="771.01,-684.48 779.22,-687.59 775.01,-684.24 779,-684 779,-684 779,-684 775.01,-684.24 778.78,-680.41 771.01,-684.48 771.01,-684.48"/>
<ellipse fill="none" stroke="black" cx="767.82" cy="-684.67" rx="3.2" ry="3.2"/>
</g>
</g>
</svg>
