<?xml version="1.0" encoding="UTF-8" standalone="no"?>
<!DOCTYPE svg PUBLIC "-//W3C//DTD SVG 1.1//EN"
 "http://www.w3.org/Graphics/SVG/1.1/DTD/svg11.dtd">
<!-- Generated by graphviz version 2.43.0 (0)
 -->
<!-- Title: oneDegreeRelationshipsDiagram Pages: 1 -->
<svg width="603pt" height="593pt"
 viewBox="0.00 0.00 603.00 593.00" xmlns="http://www.w3.org/2000/svg" xmlns:xlink="http://www.w3.org/1999/xlink">
<g id="graph0" class="graph" transform="scale(1 1) rotate(0) translate(4 589)">
<title>oneDegreeRelationshipsDiagram</title>
<polygon fill="#ffffff" stroke="transparent" points="-4,4 -4,-589 599,-589 599,4 -4,4"/>
<text text-anchor="middle" x="71.5" y="-7.2" font-family="Helvetica,sans-Serif" font-size="11.00">Generated by SchemaSpy</text>
<!-- cof_c_sped_fiscal_cst -->
<g id="node1" class="node">
<title>cof_c_sped_fiscal_cst</title>
<g id="a_node1"><a xlink:href="../../tables/cof_c_sped_fiscal_cst.html" xlink:title="cof_c_sped_fiscal_cst" target="_top">
<polygon fill="#ffffff" stroke="transparent" points="316,-251 316,-581 587,-581 587,-251 316,-251"/>
<polygon fill="#f5f5f5" stroke="transparent" points="318.5,-557 318.5,-579 585.5,-579 585.5,-557 318.5,-557"/>
<polygon fill="none" stroke="black" points="318.5,-557 318.5,-579 585.5,-579 585.5,-557 318.5,-557"/>
<text text-anchor="start" x="323.5" y="-566.2" font-family="Helvetica,sans-Serif" font-weight="bold" font-size="11.00">cof_c_sped_fiscal_cst</text>
<text text-anchor="start" x="550.5" y="-565.2" font-family="Helvetica,sans-Serif" font-size="11.00">[table]</text>
<polygon fill="none" stroke="black" points="318.5,-535 318.5,-557 502.5,-557 502.5,-535 318.5,-535"/>
<image xlink:href="../../images/primaryKeys.png" width="11px" height="12px" preserveAspectRatio="xMinYMin meet" x="323.5" y="-552"/>
<text text-anchor="start" x="338.5" y="-543.2" font-family="Helvetica,sans-Serif" font-size="11.00">cof_c_sped_fiscal_cst_id</text>
<polygon fill="none" stroke="black" points="502.5,-535 502.5,-557 585.5,-557 585.5,-535 502.5,-535"/>
<text text-anchor="start" x="505.5" y="-543.2" font-family="Helvetica,sans-Serif" font-size="11.00">numeric[10]</text>
<polygon fill="#ffffff" stroke="transparent" points="318.5,-513 318.5,-535 502.5,-535 502.5,-513 318.5,-513"/>
<polygon fill="none" stroke="black" points="318.5,-513 318.5,-535 502.5,-535 502.5,-513 318.5,-513"/>
<text text-anchor="start" x="338.5" y="-521.2" font-family="Helvetica,sans-Serif" font-size="11.00">cof_c_sped_fiscal_cst_uu</text>
<polygon fill="none" stroke="black" points="502.5,-513 502.5,-535 585.5,-535 585.5,-513 502.5,-513"/>
<text text-anchor="start" x="505.5" y="-521.2" font-family="Helvetica,sans-Serif" font-size="11.00">varchar[36]</text>
<polygon fill="none" stroke="black" points="318.5,-491 318.5,-513 502.5,-513 502.5,-491 318.5,-491"/>
<text text-anchor="start" x="338.5" y="-499.2" font-family="Helvetica,sans-Serif" font-size="11.00">ad_client_id</text>
<polygon fill="none" stroke="black" points="502.5,-491 502.5,-513 585.5,-513 585.5,-491 502.5,-491"/>
<text text-anchor="start" x="505.5" y="-499.2" font-family="Helvetica,sans-Serif" font-size="11.00">numeric[10]</text>
<polygon fill="none" stroke="black" points="318.5,-469 318.5,-491 502.5,-491 502.5,-469 318.5,-469"/>
<text text-anchor="start" x="338.5" y="-477.2" font-family="Helvetica,sans-Serif" font-size="11.00">ad_org_id</text>
<polygon fill="none" stroke="black" points="502.5,-469 502.5,-491 585.5,-491 585.5,-469 502.5,-469"/>
<text text-anchor="start" x="505.5" y="-477.2" font-family="Helvetica,sans-Serif" font-size="11.00">numeric[10]</text>
<polygon fill="none" stroke="black" points="318.5,-447 318.5,-469 502.5,-469 502.5,-447 318.5,-447"/>
<text text-anchor="start" x="338.5" y="-455.2" font-family="Helvetica,sans-Serif" font-size="11.00">isactive</text>
<polygon fill="none" stroke="black" points="502.5,-447 502.5,-469 585.5,-469 585.5,-447 502.5,-447"/>
<text text-anchor="start" x="505.5" y="-455.2" font-family="Helvetica,sans-Serif" font-size="11.00">bpchar[1]</text>
<polygon fill="none" stroke="black" points="318.5,-425 318.5,-447 502.5,-447 502.5,-425 318.5,-425"/>
<text text-anchor="start" x="338.5" y="-433.2" font-family="Helvetica,sans-Serif" font-size="11.00">created</text>
<polygon fill="none" stroke="black" points="502.5,-425 502.5,-447 585.5,-447 585.5,-425 502.5,-425"/>
<text text-anchor="start" x="505.5" y="-433.2" font-family="Helvetica,sans-Serif" font-size="11.00">timestamp[29,6]</text>
<polygon fill="none" stroke="black" points="318.5,-403 318.5,-425 502.5,-425 502.5,-403 318.5,-403"/>
<text text-anchor="start" x="338.5" y="-411.2" font-family="Helvetica,sans-Serif" font-size="11.00">createdby</text>
<polygon fill="none" stroke="black" points="502.5,-403 502.5,-425 585.5,-425 585.5,-403 502.5,-403"/>
<text text-anchor="start" x="505.5" y="-411.2" font-family="Helvetica,sans-Serif" font-size="11.00">numeric[10]</text>
<polygon fill="none" stroke="black" points="318.5,-381 318.5,-403 502.5,-403 502.5,-381 318.5,-381"/>
<text text-anchor="start" x="338.5" y="-389.2" font-family="Helvetica,sans-Serif" font-size="11.00">updated</text>
<polygon fill="none" stroke="black" points="502.5,-381 502.5,-403 585.5,-403 585.5,-381 502.5,-381"/>
<text text-anchor="start" x="505.5" y="-389.2" font-family="Helvetica,sans-Serif" font-size="11.00">timestamp[29,6]</text>
<polygon fill="none" stroke="black" points="318.5,-359 318.5,-381 502.5,-381 502.5,-359 318.5,-359"/>
<text text-anchor="start" x="338.5" y="-367.2" font-family="Helvetica,sans-Serif" font-size="11.00">updatedby</text>
<polygon fill="none" stroke="black" points="502.5,-359 502.5,-381 585.5,-381 585.5,-359 502.5,-359"/>
<text text-anchor="start" x="505.5" y="-367.2" font-family="Helvetica,sans-Serif" font-size="11.00">numeric[10]</text>
<polygon fill="none" stroke="black" points="318.5,-337 318.5,-359 502.5,-359 502.5,-337 318.5,-337"/>
<text text-anchor="start" x="338.5" y="-345.2" font-family="Helvetica,sans-Serif" font-size="11.00">cof_codcst</text>
<polygon fill="none" stroke="black" points="502.5,-337 502.5,-359 585.5,-359 585.5,-337 502.5,-337"/>
<text text-anchor="start" x="505.5" y="-345.2" font-family="Helvetica,sans-Serif" font-size="11.00">varchar[2]</text>
<polygon fill="none" stroke="black" points="318.5,-315 318.5,-337 502.5,-337 502.5,-315 318.5,-315"/>
<text text-anchor="start" x="338.5" y="-323.2" font-family="Helvetica,sans-Serif" font-size="11.00">cof_descajuste</text>
<polygon fill="none" stroke="black" points="502.5,-315 502.5,-337 585.5,-337 585.5,-315 502.5,-315"/>
<text text-anchor="start" x="505.5" y="-323.2" font-family="Helvetica,sans-Serif" font-size="11.00">varchar[100]</text>
<polygon fill="none" stroke="black" points="318.5,-293 318.5,-315 502.5,-315 502.5,-293 318.5,-293"/>
<text text-anchor="start" x="338.5" y="-301.2" font-family="Helvetica,sans-Serif" font-size="11.00">cof_operacao</text>
<polygon fill="none" stroke="black" points="502.5,-293 502.5,-315 585.5,-315 585.5,-293 502.5,-293"/>
<text text-anchor="start" x="505.5" y="-301.2" font-family="Helvetica,sans-Serif" font-size="11.00">bpchar[1]</text>
<polygon fill="none" stroke="black" points="318.5,-271 318.5,-293 502.5,-293 502.5,-271 318.5,-271"/>
<image xlink:href="../../images/foreignKeys.png" width="11px" height="12px" preserveAspectRatio="xMinYMin meet" x="323.5" y="-288"/>
<text text-anchor="start" x="338.5" y="-279.2" font-family="Helvetica,sans-Serif" font-size="11.00">cof_c_sped_fiscal_id</text>
<polygon fill="none" stroke="black" points="502.5,-271 502.5,-293 585.5,-293 585.5,-271 502.5,-271"/>
<text text-anchor="start" x="505.5" y="-279.2" font-family="Helvetica,sans-Serif" font-size="11.00">numeric[10]</text>
<polygon fill="#ffffff" stroke="transparent" points="318.5,-253 318.5,-271 401.5,-271 401.5,-253 318.5,-253"/>
<polygon fill="none" stroke="black" points="318.5,-253 318.5,-271 401.5,-271 401.5,-253 318.5,-253"/>
<text text-anchor="start" x="321.5" y="-259.2" font-family="Helvetica,sans-Serif" font-size="11.00">&lt; 1</text>
<polygon fill="#ffffff" stroke="transparent" points="401.5,-253 401.5,-271 502.5,-271 502.5,-253 401.5,-253"/>
<polygon fill="none" stroke="black" points="401.5,-253 401.5,-271 502.5,-271 502.5,-253 401.5,-253"/>
<text text-anchor="start" x="466.5" y="-259.2" font-family="Helvetica,sans-Serif" font-size="11.00">0 rows</text>
<polygon fill="#ffffff" stroke="transparent" points="502.5,-253 502.5,-271 585.5,-271 585.5,-253 502.5,-253"/>
<polygon fill="none" stroke="black" points="502.5,-253 502.5,-271 585.5,-271 585.5,-253 502.5,-253"/>
<text text-anchor="start" x="566.5" y="-259.2" font-family="Helvetica,sans-Serif" font-size="11.00">0 &gt;</text>
<polygon fill="none" stroke="black" stroke-width="2" points="317,-252 317,-580 586,-580 586,-252 317,-252"/>
</a>
</g>
</g>
<!-- cof_c_sped_fiscal -->
<g id="node2" class="node">
<title>cof_c_sped_fiscal</title>
<g id="a_node2"><a xlink:href="../../tables/cof_c_sped_fiscal.html" xlink:title="cof_c_sped_fiscal" target="_top">
<polygon fill="#ffffff" stroke="transparent" points="8,-37 8,-315 267,-315 267,-37 8,-37"/>
<polygon fill="#f5f5f5" stroke="transparent" points="8.5,-293 8.5,-315 267.5,-315 267.5,-293 8.5,-293"/>
<polygon fill="none" stroke="black" points="8.5,-293 8.5,-315 267.5,-315 267.5,-293 8.5,-293"/>
<text text-anchor="start" x="13.5" y="-302.2" font-family="Helvetica,sans-Serif" font-weight="bold" font-size="11.00">cof_c_sped_fiscal</text>
<text text-anchor="start" x="232.5" y="-301.2" font-family="Helvetica,sans-Serif" font-size="11.00">[table]</text>
<polygon fill="none" stroke="black" points="8.5,-271 8.5,-293 267.5,-293 267.5,-271 8.5,-271"/>
<image xlink:href="../../images/primaryKeys.png" width="11px" height="12px" preserveAspectRatio="xMinYMin meet" x="13.5" y="-288"/>
<text text-anchor="start" x="28.5" y="-279.2" font-family="Helvetica,sans-Serif" font-size="11.00">cof_c_sped_fiscal_id</text>
<polygon fill="#ffffff" stroke="transparent" points="8.5,-249 8.5,-271 267.5,-271 267.5,-249 8.5,-249"/>
<polygon fill="none" stroke="black" points="8.5,-249 8.5,-271 267.5,-271 267.5,-249 8.5,-249"/>
<text text-anchor="start" x="28.5" y="-257.2" font-family="Helvetica,sans-Serif" font-size="11.00">cof_c_sped_fiscal_uu</text>
<polygon fill="none" stroke="black" points="8.5,-227 8.5,-249 267.5,-249 267.5,-227 8.5,-227"/>
<image xlink:href="../../images/foreignKeys.png" width="11px" height="12px" preserveAspectRatio="xMinYMin meet" x="13.5" y="-244"/>
<text text-anchor="start" x="28.5" y="-235.2" font-family="Helvetica,sans-Serif" font-size="11.00">c_acctschema_id</text>
<polygon fill="none" stroke="black" points="8.5,-205 8.5,-227 267.5,-227 267.5,-205 8.5,-205"/>
<image xlink:href="../../images/foreignKeys.png" width="11px" height="12px" preserveAspectRatio="xMinYMin meet" x="13.5" y="-222"/>
<text text-anchor="start" x="28.5" y="-213.2" font-family="Helvetica,sans-Serif" font-size="11.00">user2_id</text>
<polygon fill="none" stroke="black" points="8.5,-183 8.5,-205 267.5,-205 267.5,-183 8.5,-183"/>
<image xlink:href="../../images/foreignKeys.png" width="11px" height="12px" preserveAspectRatio="xMinYMin meet" x="13.5" y="-200"/>
<text text-anchor="start" x="28.5" y="-191.2" font-family="Helvetica,sans-Serif" font-size="11.00">m_costtype_id</text>
<polygon fill="none" stroke="black" points="8.5,-161 8.5,-183 267.5,-183 267.5,-161 8.5,-161"/>
<image xlink:href="../../images/foreignKeys.png" width="11px" height="12px" preserveAspectRatio="xMinYMin meet" x="13.5" y="-178"/>
<text text-anchor="start" x="28.5" y="-169.2" font-family="Helvetica,sans-Serif" font-size="11.00">m_costelement_id</text>
<polygon fill="none" stroke="black" points="8.5,-139 8.5,-161 267.5,-161 267.5,-139 8.5,-139"/>
<image xlink:href="../../images/foreignKeys.png" width="11px" height="12px" preserveAspectRatio="xMinYMin meet" x="13.5" y="-156"/>
<text text-anchor="start" x="28.5" y="-147.2" font-family="Helvetica,sans-Serif" font-size="11.00">cof_excludeuser2_id</text>
<polygon fill="none" stroke="black" points="8.5,-117 8.5,-139 267.5,-139 267.5,-117 8.5,-117"/>
<image xlink:href="../../images/foreignKeys.png" width="11px" height="12px" preserveAspectRatio="xMinYMin meet" x="13.5" y="-134"/>
<text text-anchor="start" x="28.5" y="-125.2" font-family="Helvetica,sans-Serif" font-size="11.00">cof_fechamentoestoqueblocok_id</text>
<polygon fill="none" stroke="black" points="8.5,-95 8.5,-117 267.5,-117 267.5,-95 8.5,-95"/>
<image xlink:href="../../images/foreignKeys.png" width="11px" height="12px" preserveAspectRatio="xMinYMin meet" x="13.5" y="-112"/>
<text text-anchor="start" x="28.5" y="-103.2" font-family="Helvetica,sans-Serif" font-size="11.00">cof_correcaoapontamentoblocok_id</text>
<polygon fill="none" stroke="black" points="8.5,-73 8.5,-95 267.5,-95 267.5,-73 8.5,-73"/>
<image xlink:href="../../images/foreignKeys.png" width="11px" height="12px" preserveAspectRatio="xMinYMin meet" x="13.5" y="-90"/>
<text text-anchor="start" x="28.5" y="-81.2" font-family="Helvetica,sans-Serif" font-size="11.00">cof_encerramentoblocoh_id</text>
<polygon fill="none" stroke="black" points="8.5,-55 8.5,-73 267.5,-73 267.5,-55 8.5,-55"/>
<text text-anchor="start" x="11.5" y="-61.2" font-family="Helvetica,sans-Serif" font-size="11.00">...</text>
<polygon fill="#ffffff" stroke="transparent" points="8.5,-37 8.5,-55 120.5,-55 120.5,-37 8.5,-37"/>
<polygon fill="none" stroke="black" points="8.5,-37 8.5,-55 120.5,-55 120.5,-37 8.5,-37"/>
<text text-anchor="start" x="11.5" y="-43.2" font-family="Helvetica,sans-Serif" font-size="11.00">&lt; 8</text>
<polygon fill="#ffffff" stroke="transparent" points="120.5,-37 120.5,-55 199.5,-55 199.5,-37 120.5,-37"/>
<polygon fill="none" stroke="black" points="120.5,-37 120.5,-55 199.5,-55 199.5,-37 120.5,-37"/>
<text text-anchor="start" x="168.5" y="-43.2" font-family="Helvetica,sans-Serif" font-size="11.00">1 row</text>
<polygon fill="#ffffff" stroke="transparent" points="199.5,-37 199.5,-55 267.5,-55 267.5,-37 199.5,-37"/>
<polygon fill="none" stroke="black" points="199.5,-37 199.5,-55 267.5,-55 267.5,-37 199.5,-37"/>
<text text-anchor="start" x="248.5" y="-43.2" font-family="Helvetica,sans-Serif" font-size="11.00">1 &gt;</text>
</a>
</g>
</g>
<!-- cof_c_sped_fiscal_cst&#45;&gt;cof_c_sped_fiscal -->
<g id="edge1" class="edge">
<title>cof_c_sped_fiscal_cst:w&#45;&gt;cof_c_sped_fiscal:e</title>
<path fill="none" stroke="black" d="M302.99,-282C291.68,-282 284.49,-282 268.5,-282"/>
<polygon fill="black" stroke="black" points="309.5,-282 317.5,-285.6 313.5,-282 317.5,-282 317.5,-282 317.5,-282 313.5,-282 317.5,-278.4 309.5,-282 309.5,-282"/>
<ellipse fill="none" stroke="black" cx="306.3" cy="-282" rx="3.2" ry="3.2"/>
</g>
</g>
</svg>
