<?xml version="1.0" encoding="UTF-8" standalone="no"?>
<!DOCTYPE svg PUBLIC "-//W3C//DTD SVG 1.1//EN"
 "http://www.w3.org/Graphics/SVG/1.1/DTD/svg11.dtd">
<!-- Generated by graphviz version 2.43.0 (0)
 -->
<!-- Title: oneDegreeRelationshipsDiagram Pages: 1 -->
<svg width="591pt" height="421pt"
 viewBox="0.00 0.00 591.00 421.00" xmlns="http://www.w3.org/2000/svg" xmlns:xlink="http://www.w3.org/1999/xlink">
<g id="graph0" class="graph" transform="scale(1 1) rotate(0) translate(4 417)">
<title>oneDegreeRelationshipsDiagram</title>
<polygon fill="#ffffff" stroke="transparent" points="-4,4 -4,-417 587,-417 587,4 -4,4"/>
<text text-anchor="middle" x="71.5" y="-7.2" font-family="Helvetica,sans-Serif" font-size="11.00">Generated by SchemaSpy</text>
<!-- cof_pp_planomestreprodline -->
<g id="node1" class="node">
<title>cof_pp_planomestreprodline</title>
<g id="a_node1"><a xlink:href="../../tables/cof_pp_planomestreprodline.html" xlink:title="cof_pp_planomestreprodline" target="_top">
<polygon fill="#ffffff" stroke="transparent" points="340,-241 340,-409 575,-409 575,-241 340,-241"/>
<polygon fill="#f5f5f5" stroke="transparent" points="340.5,-387 340.5,-409 575.5,-409 575.5,-387 340.5,-387"/>
<polygon fill="none" stroke="black" points="340.5,-387 340.5,-409 575.5,-409 575.5,-387 340.5,-387"/>
<text text-anchor="start" x="345.5" y="-396.2" font-family="Helvetica,sans-Serif" font-weight="bold" font-size="11.00">cof_pp_planomestreprodline</text>
<text text-anchor="start" x="540.5" y="-395.2" font-family="Helvetica,sans-Serif" font-size="11.00">[table]</text>
<polygon fill="none" stroke="black" points="340.5,-365 340.5,-387 575.5,-387 575.5,-365 340.5,-365"/>
<image xlink:href="../../images/primaryKeys.png" width="11px" height="12px" preserveAspectRatio="xMinYMin meet" x="345.5" y="-382"/>
<text text-anchor="start" x="360.5" y="-373.2" font-family="Helvetica,sans-Serif" font-size="11.00">cof_pp_planomestreprodline_id</text>
<polygon fill="#ffffff" stroke="transparent" points="340.5,-343 340.5,-365 575.5,-365 575.5,-343 340.5,-343"/>
<polygon fill="none" stroke="black" points="340.5,-343 340.5,-365 575.5,-365 575.5,-343 340.5,-343"/>
<text text-anchor="start" x="360.5" y="-351.2" font-family="Helvetica,sans-Serif" font-size="11.00">cof_pp_planomestreprodline_uu</text>
<polygon fill="none" stroke="black" points="340.5,-321 340.5,-343 575.5,-343 575.5,-321 340.5,-321"/>
<image xlink:href="../../images/foreignKeys.png" width="11px" height="12px" preserveAspectRatio="xMinYMin meet" x="345.5" y="-338"/>
<text text-anchor="start" x="360.5" y="-329.2" font-family="Helvetica,sans-Serif" font-size="11.00">cof_pp_ocorrenciaprod_id</text>
<polygon fill="none" stroke="black" points="340.5,-299 340.5,-321 575.5,-321 575.5,-299 340.5,-299"/>
<image xlink:href="../../images/foreignKeys.png" width="11px" height="12px" preserveAspectRatio="xMinYMin meet" x="345.5" y="-316"/>
<text text-anchor="start" x="360.5" y="-307.2" font-family="Helvetica,sans-Serif" font-size="11.00">cof_pp_planomestreprod_id</text>
<polygon fill="none" stroke="black" points="340.5,-277 340.5,-299 575.5,-299 575.5,-277 340.5,-277"/>
<image xlink:href="../../images/foreignKeys.png" width="11px" height="12px" preserveAspectRatio="xMinYMin meet" x="345.5" y="-294"/>
<text text-anchor="start" x="360.5" y="-285.2" font-family="Helvetica,sans-Serif" font-size="11.00">c_bpartner_id</text>
<polygon fill="none" stroke="black" points="340.5,-259 340.5,-277 575.5,-277 575.5,-259 340.5,-259"/>
<text text-anchor="start" x="343.5" y="-265.2" font-family="Helvetica,sans-Serif" font-size="11.00">...</text>
<polygon fill="#ffffff" stroke="transparent" points="340.5,-241 340.5,-259 442.5,-259 442.5,-241 340.5,-241"/>
<polygon fill="none" stroke="black" points="340.5,-241 340.5,-259 442.5,-259 442.5,-241 340.5,-241"/>
<text text-anchor="start" x="343.5" y="-247.2" font-family="Helvetica,sans-Serif" font-size="11.00">&lt; 3</text>
<polygon fill="#ffffff" stroke="transparent" points="442.5,-241 442.5,-259 521.5,-259 521.5,-241 442.5,-241"/>
<polygon fill="none" stroke="black" points="442.5,-241 442.5,-259 521.5,-259 521.5,-241 442.5,-241"/>
<text text-anchor="start" x="485.5" y="-247.2" font-family="Helvetica,sans-Serif" font-size="11.00">0 rows</text>
<polygon fill="#ffffff" stroke="transparent" points="521.5,-241 521.5,-259 575.5,-259 575.5,-241 521.5,-241"/>
<polygon fill="none" stroke="black" points="521.5,-241 521.5,-259 575.5,-259 575.5,-241 521.5,-241"/>
<text text-anchor="start" x="565.5" y="-247.2" font-family="Helvetica,sans-Serif" font-size="11.00"> &#160;</text>
</a>
</g>
</g>
<!-- cof_pp_ocorrenciaprod -->
<g id="node2" class="node">
<title>cof_pp_ocorrenciaprod</title>
<g id="a_node2"><a xlink:href="../../tables/cof_pp_ocorrenciaprod.html" xlink:title="cof_pp_ocorrenciaprod" target="_top">
<polygon fill="#ffffff" stroke="transparent" points="8,-37 8,-367 291,-367 291,-37 8,-37"/>
<polygon fill="#f5f5f5" stroke="transparent" points="10.5,-343 10.5,-365 289.5,-365 289.5,-343 10.5,-343"/>
<polygon fill="none" stroke="black" points="10.5,-343 10.5,-365 289.5,-365 289.5,-343 10.5,-343"/>
<text text-anchor="start" x="15.5" y="-352.2" font-family="Helvetica,sans-Serif" font-weight="bold" font-size="11.00">cof_pp_ocorrenciaprod</text>
<text text-anchor="start" x="254.5" y="-351.2" font-family="Helvetica,sans-Serif" font-size="11.00">[table]</text>
<polygon fill="none" stroke="black" points="10.5,-321 10.5,-343 206.5,-343 206.5,-321 10.5,-321"/>
<image xlink:href="../../images/primaryKeys.png" width="11px" height="12px" preserveAspectRatio="xMinYMin meet" x="15.5" y="-338"/>
<text text-anchor="start" x="30.5" y="-329.2" font-family="Helvetica,sans-Serif" font-size="11.00">cof_pp_ocorrenciaprod_id</text>
<polygon fill="none" stroke="black" points="206.5,-321 206.5,-343 289.5,-343 289.5,-321 206.5,-321"/>
<text text-anchor="start" x="209.5" y="-329.2" font-family="Helvetica,sans-Serif" font-size="11.00">numeric[10]</text>
<polygon fill="#ffffff" stroke="transparent" points="10.5,-299 10.5,-321 206.5,-321 206.5,-299 10.5,-299"/>
<polygon fill="none" stroke="black" points="10.5,-299 10.5,-321 206.5,-321 206.5,-299 10.5,-299"/>
<text text-anchor="start" x="30.5" y="-307.2" font-family="Helvetica,sans-Serif" font-size="11.00">cof_pp_ocorrenciaprod_uu</text>
<polygon fill="none" stroke="black" points="206.5,-299 206.5,-321 289.5,-321 289.5,-299 206.5,-299"/>
<text text-anchor="start" x="209.5" y="-307.2" font-family="Helvetica,sans-Serif" font-size="11.00">varchar[36]</text>
<polygon fill="none" stroke="black" points="10.5,-277 10.5,-299 206.5,-299 206.5,-277 10.5,-277"/>
<text text-anchor="start" x="30.5" y="-285.2" font-family="Helvetica,sans-Serif" font-size="11.00">ad_client_id</text>
<polygon fill="none" stroke="black" points="206.5,-277 206.5,-299 289.5,-299 289.5,-277 206.5,-277"/>
<text text-anchor="start" x="209.5" y="-285.2" font-family="Helvetica,sans-Serif" font-size="11.00">numeric[10]</text>
<polygon fill="none" stroke="black" points="10.5,-255 10.5,-277 206.5,-277 206.5,-255 10.5,-255"/>
<text text-anchor="start" x="30.5" y="-263.2" font-family="Helvetica,sans-Serif" font-size="11.00">ad_org_id</text>
<polygon fill="none" stroke="black" points="206.5,-255 206.5,-277 289.5,-277 289.5,-255 206.5,-255"/>
<text text-anchor="start" x="209.5" y="-263.2" font-family="Helvetica,sans-Serif" font-size="11.00">numeric[10]</text>
<polygon fill="none" stroke="black" points="10.5,-233 10.5,-255 206.5,-255 206.5,-233 10.5,-233"/>
<text text-anchor="start" x="30.5" y="-241.2" font-family="Helvetica,sans-Serif" font-size="11.00">isactive</text>
<polygon fill="none" stroke="black" points="206.5,-233 206.5,-255 289.5,-255 289.5,-233 206.5,-233"/>
<text text-anchor="start" x="209.5" y="-241.2" font-family="Helvetica,sans-Serif" font-size="11.00">bpchar[1]</text>
<polygon fill="none" stroke="black" points="10.5,-211 10.5,-233 206.5,-233 206.5,-211 10.5,-211"/>
<text text-anchor="start" x="30.5" y="-219.2" font-family="Helvetica,sans-Serif" font-size="11.00">created</text>
<polygon fill="none" stroke="black" points="206.5,-211 206.5,-233 289.5,-233 289.5,-211 206.5,-211"/>
<text text-anchor="start" x="209.5" y="-219.2" font-family="Helvetica,sans-Serif" font-size="11.00">timestamp[29,6]</text>
<polygon fill="none" stroke="black" points="10.5,-189 10.5,-211 206.5,-211 206.5,-189 10.5,-189"/>
<text text-anchor="start" x="30.5" y="-197.2" font-family="Helvetica,sans-Serif" font-size="11.00">createdby</text>
<polygon fill="none" stroke="black" points="206.5,-189 206.5,-211 289.5,-211 289.5,-189 206.5,-189"/>
<text text-anchor="start" x="209.5" y="-197.2" font-family="Helvetica,sans-Serif" font-size="11.00">numeric[10]</text>
<polygon fill="none" stroke="black" points="10.5,-167 10.5,-189 206.5,-189 206.5,-167 10.5,-167"/>
<text text-anchor="start" x="30.5" y="-175.2" font-family="Helvetica,sans-Serif" font-size="11.00">updated</text>
<polygon fill="none" stroke="black" points="206.5,-167 206.5,-189 289.5,-189 289.5,-167 206.5,-167"/>
<text text-anchor="start" x="209.5" y="-175.2" font-family="Helvetica,sans-Serif" font-size="11.00">timestamp[29,6]</text>
<polygon fill="none" stroke="black" points="10.5,-145 10.5,-167 206.5,-167 206.5,-145 10.5,-145"/>
<text text-anchor="start" x="30.5" y="-153.2" font-family="Helvetica,sans-Serif" font-size="11.00">updatedby</text>
<polygon fill="none" stroke="black" points="206.5,-145 206.5,-167 289.5,-167 289.5,-145 206.5,-145"/>
<text text-anchor="start" x="209.5" y="-153.2" font-family="Helvetica,sans-Serif" font-size="11.00">numeric[10]</text>
<polygon fill="none" stroke="black" points="10.5,-123 10.5,-145 206.5,-145 206.5,-123 10.5,-123"/>
<text text-anchor="start" x="30.5" y="-131.2" font-family="Helvetica,sans-Serif" font-size="11.00">value</text>
<polygon fill="none" stroke="black" points="206.5,-123 206.5,-145 289.5,-145 289.5,-123 206.5,-123"/>
<text text-anchor="start" x="209.5" y="-131.2" font-family="Helvetica,sans-Serif" font-size="11.00">varchar[40]</text>
<polygon fill="none" stroke="black" points="10.5,-101 10.5,-123 206.5,-123 206.5,-101 10.5,-101"/>
<text text-anchor="start" x="30.5" y="-109.2" font-family="Helvetica,sans-Serif" font-size="11.00">description</text>
<polygon fill="none" stroke="black" points="206.5,-101 206.5,-123 289.5,-123 289.5,-101 206.5,-101"/>
<text text-anchor="start" x="209.5" y="-109.2" font-family="Helvetica,sans-Serif" font-size="11.00">varchar[255]</text>
<polygon fill="none" stroke="black" points="10.5,-79 10.5,-101 206.5,-101 206.5,-79 10.5,-79"/>
<text text-anchor="start" x="30.5" y="-87.2" font-family="Helvetica,sans-Serif" font-size="11.00">cof_pp_tipoocorrencia</text>
<polygon fill="none" stroke="black" points="206.5,-79 206.5,-101 289.5,-101 289.5,-79 206.5,-79"/>
<text text-anchor="start" x="209.5" y="-87.2" font-family="Helvetica,sans-Serif" font-size="11.00">varchar[2]</text>
<polygon fill="none" stroke="black" points="10.5,-57 10.5,-79 206.5,-79 206.5,-57 10.5,-57"/>
<text text-anchor="start" x="30.5" y="-65.2" font-family="Helvetica,sans-Serif" font-size="11.00">cof_pp_acrescerhoras</text>
<polygon fill="none" stroke="black" points="206.5,-57 206.5,-79 289.5,-79 289.5,-57 206.5,-57"/>
<text text-anchor="start" x="209.5" y="-65.2" font-family="Helvetica,sans-Serif" font-size="11.00">bpchar[1]</text>
<polygon fill="#ffffff" stroke="transparent" points="10.5,-39 10.5,-57 99.5,-57 99.5,-39 10.5,-39"/>
<polygon fill="none" stroke="black" points="10.5,-39 10.5,-57 99.5,-57 99.5,-39 10.5,-39"/>
<text text-anchor="start" x="13.5" y="-45.2" font-family="Helvetica,sans-Serif" font-size="11.00">&lt; 0</text>
<polygon fill="#ffffff" stroke="transparent" points="99.5,-39 99.5,-57 206.5,-57 206.5,-39 99.5,-39"/>
<polygon fill="none" stroke="black" points="99.5,-39 99.5,-57 206.5,-57 206.5,-39 99.5,-39"/>
<text text-anchor="start" x="170.5" y="-45.2" font-family="Helvetica,sans-Serif" font-size="11.00">0 rows</text>
<polygon fill="#ffffff" stroke="transparent" points="206.5,-39 206.5,-57 289.5,-57 289.5,-39 206.5,-39"/>
<polygon fill="none" stroke="black" points="206.5,-39 206.5,-57 289.5,-57 289.5,-39 206.5,-39"/>
<text text-anchor="start" x="270.5" y="-45.2" font-family="Helvetica,sans-Serif" font-size="11.00">1 &gt;</text>
<polygon fill="none" stroke="black" stroke-width="2" points="9,-38 9,-366 290,-366 290,-38 9,-38"/>
</a>
</g>
</g>
<!-- cof_pp_planomestreprodline&#45;&gt;cof_pp_ocorrenciaprod -->
<g id="edge1" class="edge">
<title>cof_pp_planomestreprodline:w&#45;&gt;cof_pp_ocorrenciaprod:e</title>
<path fill="none" stroke="black" d="M324.99,-332C313.68,-332 306.49,-332 290.5,-332"/>
<polygon fill="black" stroke="black" points="331.5,-332 339.5,-335.6 335.5,-332 339.5,-332 339.5,-332 339.5,-332 335.5,-332 339.5,-328.4 331.5,-332 331.5,-332"/>
<ellipse fill="none" stroke="black" cx="328.3" cy="-332" rx="3.2" ry="3.2"/>
</g>
</g>
</svg>
