<?xml version="1.0" encoding="UTF-8" standalone="no"?>
<!DOCTYPE svg PUBLIC "-//W3C//DTD SVG 1.1//EN"
 "http://www.w3.org/Graphics/SVG/1.1/DTD/svg11.dtd">
<!-- Generated by graphviz version 2.43.0 (0)
 -->
<!-- Title: oneDegreeRelationshipsDiagram Pages: 1 -->
<svg width="319pt" height="1263pt"
 viewBox="0.00 0.00 319.00 1263.00" xmlns="http://www.w3.org/2000/svg" xmlns:xlink="http://www.w3.org/1999/xlink">
<g id="graph0" class="graph" transform="scale(1 1) rotate(0) translate(4 1259)">
<title>oneDegreeRelationshipsDiagram</title>
<polygon fill="#ffffff" stroke="transparent" points="-4,4 -4,-1259 315,-1259 315,4 -4,4"/>
<text text-anchor="middle" x="71.5" y="-7.2" font-family="Helvetica,sans-Serif" font-size="11.00">Generated by SchemaSpy</text>
<!-- cof_rv_detalhespneu -->
<g id="node1" class="node">
<title>cof_rv_detalhespneu</title>
<g id="a_node1"><a xlink:href="../../tables/cof_rv_detalhespneu.html" xlink:title="cof_rv_detalhespneu" target="_top">
<polygon fill="#ffffff" stroke="transparent" points="8,-37 8,-1251 303,-1251 303,-37 8,-37"/>
<polygon fill="#f5f5f5" stroke="transparent" points="10.5,-1227 10.5,-1249 301.5,-1249 301.5,-1227 10.5,-1227"/>
<polygon fill="none" stroke="black" points="10.5,-1227 10.5,-1249 301.5,-1249 301.5,-1227 10.5,-1227"/>
<text text-anchor="start" x="15.5" y="-1236.2" font-family="Helvetica,sans-Serif" font-weight="bold" font-size="11.00">cof_rv_detalhespneu</text>
<text text-anchor="start" x="268.5" y="-1235.2" font-family="Helvetica,sans-Serif" font-size="11.00">[view]</text>
<polygon fill="none" stroke="black" points="10.5,-1205 10.5,-1227 218.5,-1227 218.5,-1205 10.5,-1205"/>
<image xlink:href="../../images/foreignKeys.png" width="11px" height="12px" preserveAspectRatio="xMinYMin meet" x="15.5" y="-1222"/>
<text text-anchor="start" x="30.5" y="-1213.2" font-family="Helvetica,sans-Serif" font-size="11.00">cof_pneu_id</text>
<polygon fill="none" stroke="black" points="218.5,-1205 218.5,-1227 301.5,-1227 301.5,-1205 218.5,-1205"/>
<text text-anchor="start" x="221.5" y="-1213.2" font-family="Helvetica,sans-Serif" font-size="11.00">numeric[10]</text>
<polygon fill="none" stroke="black" points="10.5,-1183 10.5,-1205 218.5,-1205 218.5,-1183 10.5,-1183"/>
<text text-anchor="start" x="30.5" y="-1191.2" font-family="Helvetica,sans-Serif" font-size="11.00">ad_client_id</text>
<polygon fill="none" stroke="black" points="218.5,-1183 218.5,-1205 301.5,-1205 301.5,-1183 218.5,-1183"/>
<text text-anchor="start" x="221.5" y="-1191.2" font-family="Helvetica,sans-Serif" font-size="11.00">numeric[10]</text>
<polygon fill="none" stroke="black" points="10.5,-1161 10.5,-1183 218.5,-1183 218.5,-1161 10.5,-1161"/>
<text text-anchor="start" x="30.5" y="-1169.2" font-family="Helvetica,sans-Serif" font-size="11.00">ad_org_id</text>
<polygon fill="none" stroke="black" points="218.5,-1161 218.5,-1183 301.5,-1183 301.5,-1161 218.5,-1161"/>
<text text-anchor="start" x="221.5" y="-1169.2" font-family="Helvetica,sans-Serif" font-size="11.00">numeric[10]</text>
<polygon fill="none" stroke="black" points="10.5,-1139 10.5,-1161 218.5,-1161 218.5,-1139 10.5,-1139"/>
<text text-anchor="start" x="30.5" y="-1147.2" font-family="Helvetica,sans-Serif" font-size="11.00">isactive</text>
<polygon fill="none" stroke="black" points="218.5,-1139 218.5,-1161 301.5,-1161 301.5,-1139 218.5,-1139"/>
<text text-anchor="start" x="221.5" y="-1147.2" font-family="Helvetica,sans-Serif" font-size="11.00">bpchar[1]</text>
<polygon fill="none" stroke="black" points="10.5,-1117 10.5,-1139 218.5,-1139 218.5,-1117 10.5,-1117"/>
<text text-anchor="start" x="30.5" y="-1125.2" font-family="Helvetica,sans-Serif" font-size="11.00">created</text>
<polygon fill="none" stroke="black" points="218.5,-1117 218.5,-1139 301.5,-1139 301.5,-1117 218.5,-1117"/>
<text text-anchor="start" x="221.5" y="-1125.2" font-family="Helvetica,sans-Serif" font-size="11.00">timestamp[29,6]</text>
<polygon fill="none" stroke="black" points="10.5,-1095 10.5,-1117 218.5,-1117 218.5,-1095 10.5,-1095"/>
<text text-anchor="start" x="30.5" y="-1103.2" font-family="Helvetica,sans-Serif" font-size="11.00">createdby</text>
<polygon fill="none" stroke="black" points="218.5,-1095 218.5,-1117 301.5,-1117 301.5,-1095 218.5,-1095"/>
<text text-anchor="start" x="221.5" y="-1103.2" font-family="Helvetica,sans-Serif" font-size="11.00">numeric[10]</text>
<polygon fill="none" stroke="black" points="10.5,-1073 10.5,-1095 218.5,-1095 218.5,-1073 10.5,-1073"/>
<text text-anchor="start" x="30.5" y="-1081.2" font-family="Helvetica,sans-Serif" font-size="11.00">updated</text>
<polygon fill="none" stroke="black" points="218.5,-1073 218.5,-1095 301.5,-1095 301.5,-1073 218.5,-1073"/>
<text text-anchor="start" x="221.5" y="-1081.2" font-family="Helvetica,sans-Serif" font-size="11.00">timestamp[29,6]</text>
<polygon fill="none" stroke="black" points="10.5,-1051 10.5,-1073 218.5,-1073 218.5,-1051 10.5,-1051"/>
<text text-anchor="start" x="30.5" y="-1059.2" font-family="Helvetica,sans-Serif" font-size="11.00">updatedby</text>
<polygon fill="none" stroke="black" points="218.5,-1051 218.5,-1073 301.5,-1073 301.5,-1051 218.5,-1051"/>
<text text-anchor="start" x="221.5" y="-1059.2" font-family="Helvetica,sans-Serif" font-size="11.00">numeric[10]</text>
<polygon fill="none" stroke="black" points="10.5,-1029 10.5,-1051 218.5,-1051 218.5,-1029 10.5,-1029"/>
<text text-anchor="start" x="30.5" y="-1037.2" font-family="Helvetica,sans-Serif" font-size="11.00">datereceived</text>
<polygon fill="none" stroke="black" points="218.5,-1029 218.5,-1051 301.5,-1051 301.5,-1029 218.5,-1029"/>
<text text-anchor="start" x="221.5" y="-1037.2" font-family="Helvetica,sans-Serif" font-size="11.00">timestamp[29,6]</text>
<polygon fill="none" stroke="black" points="10.5,-1007 10.5,-1029 218.5,-1029 218.5,-1007 10.5,-1007"/>
<text text-anchor="start" x="30.5" y="-1015.2" font-family="Helvetica,sans-Serif" font-size="11.00">datestart</text>
<polygon fill="none" stroke="black" points="218.5,-1007 218.5,-1029 301.5,-1029 301.5,-1007 218.5,-1007"/>
<text text-anchor="start" x="221.5" y="-1015.2" font-family="Helvetica,sans-Serif" font-size="11.00">timestamp[29,6]</text>
<polygon fill="none" stroke="black" points="10.5,-985 10.5,-1007 218.5,-1007 218.5,-985 10.5,-985"/>
<text text-anchor="start" x="30.5" y="-993.2" font-family="Helvetica,sans-Serif" font-size="11.00">cof_origempneu</text>
<polygon fill="none" stroke="black" points="218.5,-985 218.5,-1007 301.5,-1007 301.5,-985 218.5,-985"/>
<text text-anchor="start" x="221.5" y="-993.2" font-family="Helvetica,sans-Serif" font-size="11.00">bpchar[1]</text>
<polygon fill="none" stroke="black" points="10.5,-963 10.5,-985 218.5,-985 218.5,-963 10.5,-963"/>
<text text-anchor="start" x="30.5" y="-971.2" font-family="Helvetica,sans-Serif" font-size="11.00">ide_nnf</text>
<polygon fill="none" stroke="black" points="218.5,-963 218.5,-985 301.5,-985 301.5,-963 218.5,-963"/>
<text text-anchor="start" x="221.5" y="-971.2" font-family="Helvetica,sans-Serif" font-size="11.00">numeric[10]</text>
<polygon fill="none" stroke="black" points="10.5,-941 10.5,-963 218.5,-963 218.5,-941 10.5,-941"/>
<image xlink:href="../../images/foreignKeys.png" width="11px" height="12px" preserveAspectRatio="xMinYMin meet" x="15.5" y="-958"/>
<text text-anchor="start" x="30.5" y="-949.2" font-family="Helvetica,sans-Serif" font-size="11.00">lbr_docfiscal_id</text>
<polygon fill="none" stroke="black" points="218.5,-941 218.5,-963 301.5,-963 301.5,-941 218.5,-941"/>
<text text-anchor="start" x="221.5" y="-949.2" font-family="Helvetica,sans-Serif" font-size="11.00">numeric[10]</text>
<polygon fill="none" stroke="black" points="10.5,-919 10.5,-941 218.5,-941 218.5,-919 10.5,-919"/>
<text text-anchor="start" x="30.5" y="-927.2" font-family="Helvetica,sans-Serif" font-size="11.00">costamt</text>
<polygon fill="none" stroke="black" points="218.5,-919 218.5,-941 301.5,-941 301.5,-919 218.5,-919"/>
<text text-anchor="start" x="221.5" y="-927.2" font-family="Helvetica,sans-Serif" font-size="11.00">numeric[0]</text>
<polygon fill="none" stroke="black" points="10.5,-897 10.5,-919 218.5,-919 218.5,-897 10.5,-897"/>
<text text-anchor="start" x="30.5" y="-905.2" font-family="Helvetica,sans-Serif" font-size="11.00">cof_numerofogo</text>
<polygon fill="none" stroke="black" points="218.5,-897 218.5,-919 301.5,-919 301.5,-897 218.5,-897"/>
<text text-anchor="start" x="221.5" y="-905.2" font-family="Helvetica,sans-Serif" font-size="11.00">varchar[20]</text>
<polygon fill="none" stroke="black" points="10.5,-875 10.5,-897 218.5,-897 218.5,-875 10.5,-875"/>
<text text-anchor="start" x="30.5" y="-883.2" font-family="Helvetica,sans-Serif" font-size="11.00">cof_dot</text>
<polygon fill="none" stroke="black" points="218.5,-875 218.5,-897 301.5,-897 301.5,-875 218.5,-875"/>
<text text-anchor="start" x="221.5" y="-883.2" font-family="Helvetica,sans-Serif" font-size="11.00">varchar[60]</text>
<polygon fill="none" stroke="black" points="10.5,-853 10.5,-875 218.5,-875 218.5,-853 10.5,-853"/>
<text text-anchor="start" x="30.5" y="-861.2" font-family="Helvetica,sans-Serif" font-size="11.00">cof_totalrodado</text>
<polygon fill="none" stroke="black" points="218.5,-853 218.5,-875 301.5,-875 301.5,-853 218.5,-853"/>
<text text-anchor="start" x="221.5" y="-861.2" font-family="Helvetica,sans-Serif" font-size="11.00">numeric[0]</text>
<polygon fill="none" stroke="black" points="10.5,-831 10.5,-853 218.5,-853 218.5,-831 10.5,-831"/>
<image xlink:href="../../images/foreignKeys.png" width="11px" height="12px" preserveAspectRatio="xMinYMin meet" x="15.5" y="-848"/>
<text text-anchor="start" x="30.5" y="-839.2" font-family="Helvetica,sans-Serif" font-size="11.00">mp_meter_id</text>
<polygon fill="none" stroke="black" points="218.5,-831 218.5,-853 301.5,-853 301.5,-831 218.5,-831"/>
<text text-anchor="start" x="221.5" y="-839.2" font-family="Helvetica,sans-Serif" font-size="11.00">numeric[10]</text>
<polygon fill="none" stroke="black" points="10.5,-809 10.5,-831 218.5,-831 218.5,-809 10.5,-809"/>
<text text-anchor="start" x="30.5" y="-817.2" font-family="Helvetica,sans-Serif" font-size="11.00">cof_qtdrecapagem</text>
<polygon fill="none" stroke="black" points="218.5,-809 218.5,-831 301.5,-831 301.5,-809 218.5,-809"/>
<text text-anchor="start" x="221.5" y="-817.2" font-family="Helvetica,sans-Serif" font-size="11.00">numeric[10]</text>
<polygon fill="none" stroke="black" points="10.5,-787 10.5,-809 218.5,-809 218.5,-787 10.5,-787"/>
<image xlink:href="../../images/foreignKeys.png" width="11px" height="12px" preserveAspectRatio="xMinYMin meet" x="15.5" y="-804"/>
<text text-anchor="start" x="30.5" y="-795.2" font-family="Helvetica,sans-Serif" font-size="11.00">cof_equipments_id</text>
<polygon fill="none" stroke="black" points="218.5,-787 218.5,-809 301.5,-809 301.5,-787 218.5,-787"/>
<text text-anchor="start" x="221.5" y="-795.2" font-family="Helvetica,sans-Serif" font-size="11.00">numeric[10]</text>
<polygon fill="none" stroke="black" points="10.5,-765 10.5,-787 218.5,-787 218.5,-765 10.5,-765"/>
<image xlink:href="../../images/foreignKeys.png" width="11px" height="12px" preserveAspectRatio="xMinYMin meet" x="15.5" y="-782"/>
<text text-anchor="start" x="30.5" y="-773.2" font-family="Helvetica,sans-Serif" font-size="11.00">cof_pneu_dimensao_id</text>
<polygon fill="none" stroke="black" points="218.5,-765 218.5,-787 301.5,-787 301.5,-765 218.5,-765"/>
<text text-anchor="start" x="221.5" y="-773.2" font-family="Helvetica,sans-Serif" font-size="11.00">numeric[10]</text>
<polygon fill="none" stroke="black" points="10.5,-743 10.5,-765 218.5,-765 218.5,-743 10.5,-743"/>
<image xlink:href="../../images/foreignKeys.png" width="11px" height="12px" preserveAspectRatio="xMinYMin meet" x="15.5" y="-760"/>
<text text-anchor="start" x="30.5" y="-751.2" font-family="Helvetica,sans-Serif" font-size="11.00">cof_pneu_marca_id</text>
<polygon fill="none" stroke="black" points="218.5,-743 218.5,-765 301.5,-765 301.5,-743 218.5,-743"/>
<text text-anchor="start" x="221.5" y="-751.2" font-family="Helvetica,sans-Serif" font-size="11.00">numeric[10]</text>
<polygon fill="none" stroke="black" points="10.5,-721 10.5,-743 218.5,-743 218.5,-721 10.5,-721"/>
<image xlink:href="../../images/foreignKeys.png" width="11px" height="12px" preserveAspectRatio="xMinYMin meet" x="15.5" y="-738"/>
<text text-anchor="start" x="30.5" y="-729.2" font-family="Helvetica,sans-Serif" font-size="11.00">cof_pneu_tipo_id</text>
<polygon fill="none" stroke="black" points="218.5,-721 218.5,-743 301.5,-743 301.5,-721 218.5,-721"/>
<text text-anchor="start" x="221.5" y="-729.2" font-family="Helvetica,sans-Serif" font-size="11.00">numeric[10]</text>
<polygon fill="none" stroke="black" points="10.5,-699 10.5,-721 218.5,-721 218.5,-699 10.5,-699"/>
<image xlink:href="../../images/foreignKeys.png" width="11px" height="12px" preserveAspectRatio="xMinYMin meet" x="15.5" y="-716"/>
<text text-anchor="start" x="30.5" y="-707.2" font-family="Helvetica,sans-Serif" font-size="11.00">cof_pneu_status_id</text>
<polygon fill="none" stroke="black" points="218.5,-699 218.5,-721 301.5,-721 301.5,-699 218.5,-699"/>
<text text-anchor="start" x="221.5" y="-707.2" font-family="Helvetica,sans-Serif" font-size="11.00">numeric[10]</text>
<polygon fill="none" stroke="black" points="10.5,-677 10.5,-699 218.5,-699 218.5,-677 10.5,-677"/>
<text text-anchor="start" x="30.5" y="-685.2" font-family="Helvetica,sans-Serif" font-size="11.00">value</text>
<polygon fill="none" stroke="black" points="218.5,-677 218.5,-699 301.5,-699 301.5,-677 218.5,-677"/>
<text text-anchor="start" x="221.5" y="-685.2" font-family="Helvetica,sans-Serif" font-size="11.00">varchar[40]</text>
<polygon fill="none" stroke="black" points="10.5,-655 10.5,-677 218.5,-677 218.5,-655 10.5,-655"/>
<text text-anchor="start" x="30.5" y="-663.2" font-family="Helvetica,sans-Serif" font-size="11.00">pneu_marca_value</text>
<polygon fill="none" stroke="black" points="218.5,-655 218.5,-677 301.5,-677 301.5,-655 218.5,-655"/>
<text text-anchor="start" x="221.5" y="-663.2" font-family="Helvetica,sans-Serif" font-size="11.00">varchar[40]</text>
<polygon fill="none" stroke="black" points="10.5,-633 10.5,-655 218.5,-655 218.5,-633 10.5,-633"/>
<text text-anchor="start" x="30.5" y="-641.2" font-family="Helvetica,sans-Serif" font-size="11.00">pneu_marca_name</text>
<polygon fill="none" stroke="black" points="218.5,-633 218.5,-655 301.5,-655 301.5,-633 218.5,-633"/>
<text text-anchor="start" x="221.5" y="-641.2" font-family="Helvetica,sans-Serif" font-size="11.00">varchar[60]</text>
<polygon fill="none" stroke="black" points="10.5,-611 10.5,-633 218.5,-633 218.5,-611 10.5,-611"/>
<text text-anchor="start" x="30.5" y="-619.2" font-family="Helvetica,sans-Serif" font-size="11.00">pneu_marca_description</text>
<polygon fill="none" stroke="black" points="218.5,-611 218.5,-633 301.5,-633 301.5,-611 218.5,-611"/>
<text text-anchor="start" x="221.5" y="-619.2" font-family="Helvetica,sans-Serif" font-size="11.00">varchar[255]</text>
<polygon fill="none" stroke="black" points="10.5,-589 10.5,-611 218.5,-611 218.5,-589 10.5,-589"/>
<text text-anchor="start" x="30.5" y="-597.2" font-family="Helvetica,sans-Serif" font-size="11.00">pneu_marca_bpartner_id</text>
<polygon fill="none" stroke="black" points="218.5,-589 218.5,-611 301.5,-611 301.5,-589 218.5,-589"/>
<text text-anchor="start" x="221.5" y="-597.2" font-family="Helvetica,sans-Serif" font-size="11.00">numeric[10]</text>
<polygon fill="none" stroke="black" points="10.5,-567 10.5,-589 218.5,-589 218.5,-567 10.5,-567"/>
<text text-anchor="start" x="30.5" y="-575.2" font-family="Helvetica,sans-Serif" font-size="11.00">pneu_dimensao_value</text>
<polygon fill="none" stroke="black" points="218.5,-567 218.5,-589 301.5,-589 301.5,-567 218.5,-567"/>
<text text-anchor="start" x="221.5" y="-575.2" font-family="Helvetica,sans-Serif" font-size="11.00">varchar[40]</text>
<polygon fill="none" stroke="black" points="10.5,-545 10.5,-567 218.5,-567 218.5,-545 10.5,-545"/>
<text text-anchor="start" x="30.5" y="-553.2" font-family="Helvetica,sans-Serif" font-size="11.00">pneu_dimensao_description</text>
<polygon fill="none" stroke="black" points="218.5,-545 218.5,-567 301.5,-567 301.5,-545 218.5,-545"/>
<text text-anchor="start" x="221.5" y="-553.2" font-family="Helvetica,sans-Serif" font-size="11.00">varchar[255]</text>
<polygon fill="none" stroke="black" points="10.5,-523 10.5,-545 218.5,-545 218.5,-523 10.5,-523"/>
<text text-anchor="start" x="30.5" y="-531.2" font-family="Helvetica,sans-Serif" font-size="11.00">width</text>
<polygon fill="none" stroke="black" points="218.5,-523 218.5,-545 301.5,-545 301.5,-523 218.5,-523"/>
<text text-anchor="start" x="221.5" y="-531.2" font-family="Helvetica,sans-Serif" font-size="11.00">numeric[0]</text>
<polygon fill="none" stroke="black" points="10.5,-501 10.5,-523 218.5,-523 218.5,-501 10.5,-501"/>
<text text-anchor="start" x="30.5" y="-509.2" font-family="Helvetica,sans-Serif" font-size="11.00">cof_diametro</text>
<polygon fill="none" stroke="black" points="218.5,-501 218.5,-523 301.5,-523 301.5,-501 218.5,-501"/>
<text text-anchor="start" x="221.5" y="-509.2" font-family="Helvetica,sans-Serif" font-size="11.00">numeric[0]</text>
<polygon fill="none" stroke="black" points="10.5,-479 10.5,-501 218.5,-501 218.5,-479 10.5,-479"/>
<text text-anchor="start" x="30.5" y="-487.2" font-family="Helvetica,sans-Serif" font-size="11.00">cof_perfil</text>
<polygon fill="none" stroke="black" points="218.5,-479 218.5,-501 301.5,-501 301.5,-479 218.5,-479"/>
<text text-anchor="start" x="221.5" y="-487.2" font-family="Helvetica,sans-Serif" font-size="11.00">varchar[60]</text>
<polygon fill="none" stroke="black" points="10.5,-457 10.5,-479 218.5,-479 218.5,-457 10.5,-457"/>
<text text-anchor="start" x="30.5" y="-465.2" font-family="Helvetica,sans-Serif" font-size="11.00">pneu_status_value</text>
<polygon fill="none" stroke="black" points="218.5,-457 218.5,-479 301.5,-479 301.5,-457 218.5,-457"/>
<text text-anchor="start" x="221.5" y="-465.2" font-family="Helvetica,sans-Serif" font-size="11.00">varchar[40]</text>
<polygon fill="none" stroke="black" points="10.5,-435 10.5,-457 218.5,-457 218.5,-435 10.5,-435"/>
<text text-anchor="start" x="30.5" y="-443.2" font-family="Helvetica,sans-Serif" font-size="11.00">pneu_status_name</text>
<polygon fill="none" stroke="black" points="218.5,-435 218.5,-457 301.5,-457 301.5,-435 218.5,-435"/>
<text text-anchor="start" x="221.5" y="-443.2" font-family="Helvetica,sans-Serif" font-size="11.00">varchar[60]</text>
<polygon fill="none" stroke="black" points="10.5,-413 10.5,-435 218.5,-435 218.5,-413 10.5,-413"/>
<text text-anchor="start" x="30.5" y="-421.2" font-family="Helvetica,sans-Serif" font-size="11.00">seqno</text>
<polygon fill="none" stroke="black" points="218.5,-413 218.5,-435 301.5,-435 301.5,-413 218.5,-413"/>
<text text-anchor="start" x="221.5" y="-421.2" font-family="Helvetica,sans-Serif" font-size="11.00">numeric[10]</text>
<polygon fill="none" stroke="black" points="10.5,-391 10.5,-413 218.5,-413 218.5,-391 10.5,-391"/>
<text text-anchor="start" x="30.5" y="-399.2" font-family="Helvetica,sans-Serif" font-size="11.00">pneu_status_description</text>
<polygon fill="none" stroke="black" points="218.5,-391 218.5,-413 301.5,-413 301.5,-391 218.5,-391"/>
<text text-anchor="start" x="221.5" y="-399.2" font-family="Helvetica,sans-Serif" font-size="11.00">varchar[255]</text>
<polygon fill="none" stroke="black" points="10.5,-369 10.5,-391 218.5,-391 218.5,-369 10.5,-369"/>
<text text-anchor="start" x="30.5" y="-377.2" font-family="Helvetica,sans-Serif" font-size="11.00">cof_fimvidautil</text>
<polygon fill="none" stroke="black" points="218.5,-369 218.5,-391 301.5,-391 301.5,-369 218.5,-369"/>
<text text-anchor="start" x="221.5" y="-377.2" font-family="Helvetica,sans-Serif" font-size="11.00">bpchar[1]</text>
<polygon fill="none" stroke="black" points="10.5,-347 10.5,-369 218.5,-369 218.5,-347 10.5,-347"/>
<text text-anchor="start" x="30.5" y="-355.2" font-family="Helvetica,sans-Serif" font-size="11.00">pneu_tipo_value</text>
<polygon fill="none" stroke="black" points="218.5,-347 218.5,-369 301.5,-369 301.5,-347 218.5,-347"/>
<text text-anchor="start" x="221.5" y="-355.2" font-family="Helvetica,sans-Serif" font-size="11.00">varchar[40]</text>
<polygon fill="none" stroke="black" points="10.5,-325 10.5,-347 218.5,-347 218.5,-325 10.5,-325"/>
<text text-anchor="start" x="30.5" y="-333.2" font-family="Helvetica,sans-Serif" font-size="11.00">pneu_tipo_name</text>
<polygon fill="none" stroke="black" points="218.5,-325 218.5,-347 301.5,-347 301.5,-325 218.5,-325"/>
<text text-anchor="start" x="221.5" y="-333.2" font-family="Helvetica,sans-Serif" font-size="11.00">varchar[60]</text>
<polygon fill="none" stroke="black" points="10.5,-303 10.5,-325 218.5,-325 218.5,-303 10.5,-303"/>
<text text-anchor="start" x="30.5" y="-311.2" font-family="Helvetica,sans-Serif" font-size="11.00">pneu_tipo_description</text>
<polygon fill="none" stroke="black" points="218.5,-303 218.5,-325 301.5,-325 301.5,-303 218.5,-303"/>
<text text-anchor="start" x="221.5" y="-311.2" font-family="Helvetica,sans-Serif" font-size="11.00">varchar[255]</text>
<polygon fill="none" stroke="black" points="10.5,-281 10.5,-303 218.5,-303 218.5,-281 10.5,-281"/>
<text text-anchor="start" x="30.5" y="-289.2" font-family="Helvetica,sans-Serif" font-size="11.00">startdate</text>
<polygon fill="none" stroke="black" points="218.5,-281 218.5,-303 301.5,-303 301.5,-281 218.5,-281"/>
<text text-anchor="start" x="221.5" y="-289.2" font-family="Helvetica,sans-Serif" font-size="11.00">timestamp[29,6]</text>
<polygon fill="none" stroke="black" points="10.5,-259 10.5,-281 218.5,-281 218.5,-259 10.5,-259"/>
<text text-anchor="start" x="30.5" y="-267.2" font-family="Helvetica,sans-Serif" font-size="11.00">enddate</text>
<polygon fill="none" stroke="black" points="218.5,-259 218.5,-281 301.5,-281 301.5,-259 218.5,-259"/>
<text text-anchor="start" x="221.5" y="-267.2" font-family="Helvetica,sans-Serif" font-size="11.00">timestamp[29,6]</text>
<polygon fill="none" stroke="black" points="10.5,-237 10.5,-259 218.5,-259 218.5,-237 10.5,-237"/>
<text text-anchor="start" x="30.5" y="-245.2" font-family="Helvetica,sans-Serif" font-size="11.00">pmo_equipments_id</text>
<polygon fill="none" stroke="black" points="218.5,-237 218.5,-259 301.5,-259 301.5,-237 218.5,-237"/>
<text text-anchor="start" x="221.5" y="-245.2" font-family="Helvetica,sans-Serif" font-size="11.00">numeric[10]</text>
<polygon fill="none" stroke="black" points="10.5,-215 10.5,-237 218.5,-237 218.5,-215 10.5,-215"/>
<text text-anchor="start" x="30.5" y="-223.2" font-family="Helvetica,sans-Serif" font-size="11.00">cof_isstep</text>
<polygon fill="none" stroke="black" points="218.5,-215 218.5,-237 301.5,-237 301.5,-215 218.5,-215"/>
<text text-anchor="start" x="221.5" y="-223.2" font-family="Helvetica,sans-Serif" font-size="11.00">bpchar[1]</text>
<polygon fill="none" stroke="black" points="10.5,-193 10.5,-215 218.5,-215 218.5,-193 10.5,-193"/>
<text text-anchor="start" x="30.5" y="-201.2" font-family="Helvetica,sans-Serif" font-size="11.00">cof_eixo</text>
<polygon fill="none" stroke="black" points="218.5,-193 218.5,-215 301.5,-215 301.5,-193 218.5,-193"/>
<text text-anchor="start" x="221.5" y="-201.2" font-family="Helvetica,sans-Serif" font-size="11.00">numeric[10]</text>
<polygon fill="none" stroke="black" points="10.5,-171 10.5,-193 218.5,-193 218.5,-171 10.5,-171"/>
<text text-anchor="start" x="30.5" y="-179.2" font-family="Helvetica,sans-Serif" font-size="11.00">cof_direcaoeixo</text>
<polygon fill="none" stroke="black" points="218.5,-171 218.5,-193 301.5,-193 301.5,-171 218.5,-171"/>
<text text-anchor="start" x="221.5" y="-179.2" font-family="Helvetica,sans-Serif" font-size="11.00">bpchar[1]</text>
<polygon fill="none" stroke="black" points="10.5,-149 10.5,-171 218.5,-171 218.5,-149 10.5,-149"/>
<text text-anchor="start" x="30.5" y="-157.2" font-family="Helvetica,sans-Serif" font-size="11.00">cof_localeixo</text>
<polygon fill="none" stroke="black" points="218.5,-149 218.5,-171 301.5,-171 301.5,-149 218.5,-149"/>
<text text-anchor="start" x="221.5" y="-157.2" font-family="Helvetica,sans-Serif" font-size="11.00">bpchar[1]</text>
<polygon fill="none" stroke="black" points="10.5,-127 10.5,-149 218.5,-149 218.5,-127 10.5,-127"/>
<text text-anchor="start" x="30.5" y="-135.2" font-family="Helvetica,sans-Serif" font-size="11.00">datetrx</text>
<polygon fill="none" stroke="black" points="218.5,-127 218.5,-149 301.5,-149 301.5,-127 218.5,-127"/>
<text text-anchor="start" x="221.5" y="-135.2" font-family="Helvetica,sans-Serif" font-size="11.00">timestamp[29,6]</text>
<polygon fill="none" stroke="black" points="10.5,-105 10.5,-127 218.5,-127 218.5,-105 10.5,-105"/>
<text text-anchor="start" x="30.5" y="-113.2" font-family="Helvetica,sans-Serif" font-size="11.00">cof_kminitial</text>
<polygon fill="none" stroke="black" points="218.5,-105 218.5,-127 301.5,-127 301.5,-105 218.5,-105"/>
<text text-anchor="start" x="221.5" y="-113.2" font-family="Helvetica,sans-Serif" font-size="11.00">numeric[0]</text>
<polygon fill="none" stroke="black" points="10.5,-83 10.5,-105 218.5,-105 218.5,-83 10.5,-83"/>
<text text-anchor="start" x="30.5" y="-91.2" font-family="Helvetica,sans-Serif" font-size="11.00">cof_kmfinal</text>
<polygon fill="none" stroke="black" points="218.5,-83 218.5,-105 301.5,-105 301.5,-83 218.5,-83"/>
<text text-anchor="start" x="221.5" y="-91.2" font-family="Helvetica,sans-Serif" font-size="11.00">numeric[0]</text>
<polygon fill="none" stroke="black" points="10.5,-61 10.5,-83 218.5,-83 218.5,-61 10.5,-61"/>
<text text-anchor="start" x="30.5" y="-69.2" font-family="Helvetica,sans-Serif" font-size="11.00">cof_kmrodado</text>
<polygon fill="none" stroke="black" points="218.5,-61 218.5,-83 301.5,-83 301.5,-61 218.5,-61"/>
<text text-anchor="start" x="221.5" y="-69.2" font-family="Helvetica,sans-Serif" font-size="11.00">numeric[0]</text>
<polygon fill="none" stroke="black" points="10.5,-39 10.5,-61 218.5,-61 218.5,-39 10.5,-39"/>
<text text-anchor="start" x="30.5" y="-47.2" font-family="Helvetica,sans-Serif" font-size="11.00">cof_tipolancamento</text>
<polygon fill="none" stroke="black" points="218.5,-39 218.5,-61 301.5,-61 301.5,-39 218.5,-39"/>
<text text-anchor="start" x="221.5" y="-47.2" font-family="Helvetica,sans-Serif" font-size="11.00">bpchar[1]</text>
<polygon fill="none" stroke="black" stroke-width="2" points="9,-38 9,-1250 302,-1250 302,-38 9,-38"/>
</a>
</g>
</g>
</g>
</svg>
