<?xml version="1.0" encoding="UTF-8" standalone="no"?>
<!DOCTYPE svg PUBLIC "-//W3C//DTD SVG 1.1//EN"
 "http://www.w3.org/Graphics/SVG/1.1/DTD/svg11.dtd">
<!-- Generated by graphviz version 2.43.0 (0)
 -->
<!-- Title: oneDegreeRelationshipsDiagramImplied Pages: 1 -->
<svg width="573pt" height="911pt"
 viewBox="0.00 0.00 573.00 911.00" xmlns="http://www.w3.org/2000/svg" xmlns:xlink="http://www.w3.org/1999/xlink">
<g id="graph0" class="graph" transform="scale(1 1) rotate(0) translate(4 907)">
<title>oneDegreeRelationshipsDiagramImplied</title>
<polygon fill="#ffffff" stroke="transparent" points="-4,4 -4,-907 569,-907 569,4 -4,4"/>
<text text-anchor="middle" x="71.5" y="-7.2" font-family="Helvetica,sans-Serif" font-size="11.00">Generated by SchemaSpy</text>
<!-- ad_user -->
<g id="node1" class="node">
<title>ad_user</title>
<g id="a_node1"><a xlink:href="../../tables/ad_user.html" xlink:title="ad_user" target="_top">
<polygon fill="#ffffff" stroke="transparent" points="334,-379 334,-899 557,-899 557,-379 334,-379"/>
<polygon fill="#f5f5f5" stroke="transparent" points="334.5,-877 334.5,-899 557.5,-899 557.5,-877 334.5,-877"/>
<polygon fill="none" stroke="black" points="334.5,-877 334.5,-899 557.5,-899 557.5,-877 334.5,-877"/>
<text text-anchor="start" x="339.5" y="-886.2" font-family="Helvetica,sans-Serif" font-weight="bold" font-size="11.00">ad_user</text>
<text text-anchor="start" x="522.5" y="-885.2" font-family="Helvetica,sans-Serif" font-size="11.00">[table]</text>
<polygon fill="none" stroke="black" points="334.5,-855 334.5,-877 557.5,-877 557.5,-855 334.5,-855"/>
<image xlink:href="../../images/primaryKeys.png" width="11px" height="12px" preserveAspectRatio="xMinYMin meet" x="339.5" y="-872"/>
<text text-anchor="start" x="354.5" y="-863.2" font-family="Helvetica,sans-Serif" font-size="11.00">ad_user_id</text>
<polygon fill="none" stroke="black" points="334.5,-833 334.5,-855 557.5,-855 557.5,-833 334.5,-833"/>
<image xlink:href="../../images/foreignKeys.png" width="11px" height="12px" preserveAspectRatio="xMinYMin meet" x="339.5" y="-850"/>
<text text-anchor="start" x="354.5" y="-841.2" font-family="Helvetica,sans-Serif" font-size="11.00">ad_client_id</text>
<polygon fill="none" stroke="black" points="334.5,-811 334.5,-833 557.5,-833 557.5,-811 334.5,-811"/>
<image xlink:href="../../images/foreignKeys.png" width="11px" height="12px" preserveAspectRatio="xMinYMin meet" x="339.5" y="-828"/>
<text text-anchor="start" x="354.5" y="-819.2" font-family="Helvetica,sans-Serif" font-size="11.00">ad_org_id</text>
<polygon fill="#ffffff" stroke="transparent" points="334.5,-789 334.5,-811 557.5,-811 557.5,-789 334.5,-789"/>
<polygon fill="none" stroke="black" points="334.5,-789 334.5,-811 557.5,-811 557.5,-789 334.5,-789"/>
<text text-anchor="start" x="354.5" y="-797.2" font-family="Helvetica,sans-Serif" font-size="11.00">name</text>
<polygon fill="#ffffff" stroke="transparent" points="334.5,-767 334.5,-789 557.5,-789 557.5,-767 334.5,-767"/>
<polygon fill="none" stroke="black" points="334.5,-767 334.5,-789 557.5,-789 557.5,-767 334.5,-767"/>
<text text-anchor="start" x="354.5" y="-775.2" font-family="Helvetica,sans-Serif" font-size="11.00">email</text>
<polygon fill="none" stroke="black" points="334.5,-745 334.5,-767 557.5,-767 557.5,-745 334.5,-745"/>
<image xlink:href="../../images/foreignKeys.png" width="11px" height="12px" preserveAspectRatio="xMinYMin meet" x="339.5" y="-762"/>
<text text-anchor="start" x="354.5" y="-753.2" font-family="Helvetica,sans-Serif" font-size="11.00">supervisor_id</text>
<polygon fill="#ffffff" stroke="transparent" points="334.5,-723 334.5,-745 557.5,-745 557.5,-723 334.5,-723"/>
<polygon fill="none" stroke="black" points="334.5,-723 334.5,-745 557.5,-745 557.5,-723 334.5,-723"/>
<image xlink:href="../../images/foreignKeys.png" width="11px" height="12px" preserveAspectRatio="xMinYMin meet" x="339.5" y="-740"/>
<text text-anchor="start" x="354.5" y="-731.2" font-family="Helvetica,sans-Serif" font-size="11.00">c_bpartner_id</text>
<polygon fill="none" stroke="black" points="334.5,-701 334.5,-723 557.5,-723 557.5,-701 334.5,-701"/>
<image xlink:href="../../images/foreignKeys.png" width="11px" height="12px" preserveAspectRatio="xMinYMin meet" x="339.5" y="-718"/>
<text text-anchor="start" x="354.5" y="-709.2" font-family="Helvetica,sans-Serif" font-size="11.00">c_bpartner_location_id</text>
<polygon fill="none" stroke="black" points="334.5,-679 334.5,-701 557.5,-701 557.5,-679 334.5,-679"/>
<image xlink:href="../../images/foreignKeys.png" width="11px" height="12px" preserveAspectRatio="xMinYMin meet" x="339.5" y="-696"/>
<text text-anchor="start" x="354.5" y="-687.2" font-family="Helvetica,sans-Serif" font-size="11.00">c_greeting_id</text>
<polygon fill="none" stroke="black" points="334.5,-657 334.5,-679 557.5,-679 557.5,-657 334.5,-657"/>
<image xlink:href="../../images/foreignKeys.png" width="11px" height="12px" preserveAspectRatio="xMinYMin meet" x="339.5" y="-674"/>
<text text-anchor="start" x="354.5" y="-665.2" font-family="Helvetica,sans-Serif" font-size="11.00">ad_orgtrx_id</text>
<polygon fill="none" stroke="black" points="334.5,-635 334.5,-657 557.5,-657 557.5,-635 334.5,-635"/>
<image xlink:href="../../images/foreignKeys.png" width="11px" height="12px" preserveAspectRatio="xMinYMin meet" x="339.5" y="-652"/>
<text text-anchor="start" x="354.5" y="-643.2" font-family="Helvetica,sans-Serif" font-size="11.00">c_job_id</text>
<polygon fill="#ffffff" stroke="transparent" points="334.5,-613 334.5,-635 557.5,-635 557.5,-613 334.5,-613"/>
<polygon fill="none" stroke="black" points="334.5,-613 334.5,-635 557.5,-635 557.5,-613 334.5,-613"/>
<text text-anchor="start" x="354.5" y="-621.2" font-family="Helvetica,sans-Serif" font-size="11.00">ad_user_uu</text>
<polygon fill="none" stroke="black" points="334.5,-591 334.5,-613 557.5,-613 557.5,-591 334.5,-591"/>
<image xlink:href="../../images/foreignKeys.png" width="11px" height="12px" preserveAspectRatio="xMinYMin meet" x="339.5" y="-608"/>
<text text-anchor="start" x="354.5" y="-599.2" font-family="Helvetica,sans-Serif" font-size="11.00">c_location_id</text>
<polygon fill="none" stroke="black" points="334.5,-569 334.5,-591 557.5,-591 557.5,-569 334.5,-569"/>
<image xlink:href="../../images/foreignKeys.png" width="11px" height="12px" preserveAspectRatio="xMinYMin meet" x="339.5" y="-586"/>
<text text-anchor="start" x="354.5" y="-577.2" font-family="Helvetica,sans-Serif" font-size="11.00">c_campaign_id</text>
<polygon fill="none" stroke="black" points="334.5,-547 334.5,-569 557.5,-569 557.5,-547 334.5,-547"/>
<image xlink:href="../../images/foreignKeys.png" width="11px" height="12px" preserveAspectRatio="xMinYMin meet" x="339.5" y="-564"/>
<text text-anchor="start" x="354.5" y="-555.2" font-family="Helvetica,sans-Serif" font-size="11.00">salesrep_id</text>
<polygon fill="none" stroke="black" points="334.5,-525 334.5,-547 557.5,-547 557.5,-525 334.5,-525"/>
<image xlink:href="../../images/foreignKeys.png" width="11px" height="12px" preserveAspectRatio="xMinYMin meet" x="339.5" y="-542"/>
<text text-anchor="start" x="354.5" y="-533.2" font-family="Helvetica,sans-Serif" font-size="11.00">bp_location_id</text>
<polygon fill="none" stroke="black" points="334.5,-503 334.5,-525 557.5,-525 557.5,-503 334.5,-503"/>
<image xlink:href="../../images/foreignKeys.png" width="11px" height="12px" preserveAspectRatio="xMinYMin meet" x="339.5" y="-520"/>
<text text-anchor="start" x="354.5" y="-511.2" font-family="Helvetica,sans-Serif" font-size="11.00">r_defaultmailtext_id</text>
<polygon fill="none" stroke="black" points="334.5,-481 334.5,-503 557.5,-503 557.5,-481 334.5,-481"/>
<image xlink:href="../../images/foreignKeys.png" width="11px" height="12px" preserveAspectRatio="xMinYMin meet" x="339.5" y="-498"/>
<text text-anchor="start" x="354.5" y="-489.2" font-family="Helvetica,sans-Serif" font-size="11.00">cof_c_marketsegment_id</text>
<polygon fill="none" stroke="black" points="334.5,-459 334.5,-481 557.5,-481 557.5,-459 334.5,-459"/>
<image xlink:href="../../images/foreignKeys.png" width="11px" height="12px" preserveAspectRatio="xMinYMin meet" x="339.5" y="-476"/>
<text text-anchor="start" x="354.5" y="-467.2" font-family="Helvetica,sans-Serif" font-size="11.00">cof_c_leadexpirationreason_id</text>
<polygon fill="none" stroke="black" points="334.5,-437 334.5,-459 557.5,-459 557.5,-437 334.5,-437"/>
<image xlink:href="../../images/foreignKeys.png" width="11px" height="12px" preserveAspectRatio="xMinYMin meet" x="339.5" y="-454"/>
<text text-anchor="start" x="354.5" y="-445.2" font-family="Helvetica,sans-Serif" font-size="11.00">ad_image_id</text>
<polygon fill="none" stroke="black" points="334.5,-415 334.5,-437 557.5,-437 557.5,-415 334.5,-415"/>
<image xlink:href="../../images/foreignKeys.png" width="11px" height="12px" preserveAspectRatio="xMinYMin meet" x="339.5" y="-432"/>
<text text-anchor="start" x="354.5" y="-423.2" font-family="Helvetica,sans-Serif" font-size="11.00">c_subscription_id</text>
<polygon fill="none" stroke="black" points="334.5,-397 334.5,-415 557.5,-415 557.5,-397 334.5,-397"/>
<text text-anchor="start" x="337.5" y="-403.2" font-family="Helvetica,sans-Serif" font-size="11.00">...</text>
<polygon fill="#ffffff" stroke="transparent" points="334.5,-379 334.5,-397 423.5,-397 423.5,-379 334.5,-379"/>
<polygon fill="none" stroke="black" points="334.5,-379 334.5,-397 423.5,-397 423.5,-379 334.5,-379"/>
<text text-anchor="start" x="337.5" y="-385.2" font-family="Helvetica,sans-Serif" font-size="11.00">&lt; 17</text>
<polygon fill="#ffffff" stroke="transparent" points="423.5,-379 423.5,-397 492.5,-397 492.5,-379 423.5,-379"/>
<polygon fill="none" stroke="black" points="423.5,-379 423.5,-397 492.5,-397 492.5,-379 423.5,-379"/>
<text text-anchor="start" x="456.5" y="-385.2" font-family="Helvetica,sans-Serif" font-size="11.00">8 rows</text>
<polygon fill="#ffffff" stroke="transparent" points="492.5,-379 492.5,-397 557.5,-397 557.5,-379 492.5,-379"/>
<polygon fill="none" stroke="black" points="492.5,-379 492.5,-397 557.5,-397 557.5,-379 492.5,-379"/>
<text text-anchor="start" x="526.5" y="-385.2" font-family="Helvetica,sans-Serif" font-size="11.00">316 &gt;</text>
</a>
</g>
</g>
<!-- cof_c_marketsegment -->
<g id="node2" class="node">
<title>cof_c_marketsegment</title>
<g id="a_node2"><a xlink:href="../../tables/cof_c_marketsegment.html" xlink:title="cof_c_marketsegment" target="_top">
<polygon fill="#ffffff" stroke="transparent" points="8,-37 8,-345 285,-345 285,-37 8,-37"/>
<polygon fill="#f5f5f5" stroke="transparent" points="10.5,-321 10.5,-343 283.5,-343 283.5,-321 10.5,-321"/>
<polygon fill="none" stroke="black" points="10.5,-321 10.5,-343 283.5,-343 283.5,-321 10.5,-321"/>
<text text-anchor="start" x="15.5" y="-330.2" font-family="Helvetica,sans-Serif" font-weight="bold" font-size="11.00">cof_c_marketsegment</text>
<text text-anchor="start" x="248.5" y="-329.2" font-family="Helvetica,sans-Serif" font-size="11.00">[table]</text>
<polygon fill="none" stroke="black" points="10.5,-299 10.5,-321 200.5,-321 200.5,-299 10.5,-299"/>
<image xlink:href="../../images/primaryKeys.png" width="11px" height="12px" preserveAspectRatio="xMinYMin meet" x="15.5" y="-316"/>
<text text-anchor="start" x="30.5" y="-307.2" font-family="Helvetica,sans-Serif" font-size="11.00">cof_c_marketsegment_id</text>
<polygon fill="none" stroke="black" points="200.5,-299 200.5,-321 283.5,-321 283.5,-299 200.5,-299"/>
<text text-anchor="start" x="203.5" y="-307.2" font-family="Helvetica,sans-Serif" font-size="11.00">numeric[10]</text>
<polygon fill="#ffffff" stroke="transparent" points="10.5,-277 10.5,-299 200.5,-299 200.5,-277 10.5,-277"/>
<polygon fill="none" stroke="black" points="10.5,-277 10.5,-299 200.5,-299 200.5,-277 10.5,-277"/>
<text text-anchor="start" x="30.5" y="-285.2" font-family="Helvetica,sans-Serif" font-size="11.00">cof_c_marketsegment_uu</text>
<polygon fill="none" stroke="black" points="200.5,-277 200.5,-299 283.5,-299 283.5,-277 200.5,-277"/>
<text text-anchor="start" x="203.5" y="-285.2" font-family="Helvetica,sans-Serif" font-size="11.00">varchar[36]</text>
<polygon fill="none" stroke="black" points="10.5,-255 10.5,-277 200.5,-277 200.5,-255 10.5,-255"/>
<text text-anchor="start" x="30.5" y="-263.2" font-family="Helvetica,sans-Serif" font-size="11.00">ad_client_id</text>
<polygon fill="none" stroke="black" points="200.5,-255 200.5,-277 283.5,-277 283.5,-255 200.5,-255"/>
<text text-anchor="start" x="203.5" y="-263.2" font-family="Helvetica,sans-Serif" font-size="11.00">numeric[10]</text>
<polygon fill="none" stroke="black" points="10.5,-233 10.5,-255 200.5,-255 200.5,-233 10.5,-233"/>
<text text-anchor="start" x="30.5" y="-241.2" font-family="Helvetica,sans-Serif" font-size="11.00">ad_org_id</text>
<polygon fill="none" stroke="black" points="200.5,-233 200.5,-255 283.5,-255 283.5,-233 200.5,-233"/>
<text text-anchor="start" x="203.5" y="-241.2" font-family="Helvetica,sans-Serif" font-size="11.00">numeric[10]</text>
<polygon fill="none" stroke="black" points="10.5,-211 10.5,-233 200.5,-233 200.5,-211 10.5,-211"/>
<text text-anchor="start" x="30.5" y="-219.2" font-family="Helvetica,sans-Serif" font-size="11.00">isactive</text>
<polygon fill="none" stroke="black" points="200.5,-211 200.5,-233 283.5,-233 283.5,-211 200.5,-211"/>
<text text-anchor="start" x="203.5" y="-219.2" font-family="Helvetica,sans-Serif" font-size="11.00">bpchar[1]</text>
<polygon fill="none" stroke="black" points="10.5,-189 10.5,-211 200.5,-211 200.5,-189 10.5,-189"/>
<text text-anchor="start" x="30.5" y="-197.2" font-family="Helvetica,sans-Serif" font-size="11.00">created</text>
<polygon fill="none" stroke="black" points="200.5,-189 200.5,-211 283.5,-211 283.5,-189 200.5,-189"/>
<text text-anchor="start" x="203.5" y="-197.2" font-family="Helvetica,sans-Serif" font-size="11.00">timestamp[29,6]</text>
<polygon fill="none" stroke="black" points="10.5,-167 10.5,-189 200.5,-189 200.5,-167 10.5,-167"/>
<text text-anchor="start" x="30.5" y="-175.2" font-family="Helvetica,sans-Serif" font-size="11.00">createdby</text>
<polygon fill="none" stroke="black" points="200.5,-167 200.5,-189 283.5,-189 283.5,-167 200.5,-167"/>
<text text-anchor="start" x="203.5" y="-175.2" font-family="Helvetica,sans-Serif" font-size="11.00">numeric[10]</text>
<polygon fill="none" stroke="black" points="10.5,-145 10.5,-167 200.5,-167 200.5,-145 10.5,-145"/>
<text text-anchor="start" x="30.5" y="-153.2" font-family="Helvetica,sans-Serif" font-size="11.00">updated</text>
<polygon fill="none" stroke="black" points="200.5,-145 200.5,-167 283.5,-167 283.5,-145 200.5,-145"/>
<text text-anchor="start" x="203.5" y="-153.2" font-family="Helvetica,sans-Serif" font-size="11.00">timestamp[29,6]</text>
<polygon fill="none" stroke="black" points="10.5,-123 10.5,-145 200.5,-145 200.5,-123 10.5,-123"/>
<text text-anchor="start" x="30.5" y="-131.2" font-family="Helvetica,sans-Serif" font-size="11.00">updatedby</text>
<polygon fill="none" stroke="black" points="200.5,-123 200.5,-145 283.5,-145 283.5,-123 200.5,-123"/>
<text text-anchor="start" x="203.5" y="-131.2" font-family="Helvetica,sans-Serif" font-size="11.00">numeric[10]</text>
<polygon fill="none" stroke="black" points="10.5,-101 10.5,-123 200.5,-123 200.5,-101 10.5,-101"/>
<text text-anchor="start" x="30.5" y="-109.2" font-family="Helvetica,sans-Serif" font-size="11.00">value</text>
<polygon fill="none" stroke="black" points="200.5,-101 200.5,-123 283.5,-123 283.5,-101 200.5,-101"/>
<text text-anchor="start" x="203.5" y="-109.2" font-family="Helvetica,sans-Serif" font-size="11.00">varchar[40]</text>
<polygon fill="none" stroke="black" points="10.5,-79 10.5,-101 200.5,-101 200.5,-79 10.5,-79"/>
<text text-anchor="start" x="30.5" y="-87.2" font-family="Helvetica,sans-Serif" font-size="11.00">name</text>
<polygon fill="none" stroke="black" points="200.5,-79 200.5,-101 283.5,-101 283.5,-79 200.5,-79"/>
<text text-anchor="start" x="203.5" y="-87.2" font-family="Helvetica,sans-Serif" font-size="11.00">varchar[60]</text>
<polygon fill="none" stroke="black" points="10.5,-57 10.5,-79 200.5,-79 200.5,-57 10.5,-57"/>
<text text-anchor="start" x="30.5" y="-65.2" font-family="Helvetica,sans-Serif" font-size="11.00">description</text>
<polygon fill="none" stroke="black" points="200.5,-57 200.5,-79 283.5,-79 283.5,-57 200.5,-57"/>
<text text-anchor="start" x="203.5" y="-65.2" font-family="Helvetica,sans-Serif" font-size="11.00">varchar[255]</text>
<polygon fill="#ffffff" stroke="transparent" points="10.5,-39 10.5,-57 96.5,-57 96.5,-39 10.5,-39"/>
<polygon fill="none" stroke="black" points="10.5,-39 10.5,-57 96.5,-57 96.5,-39 10.5,-39"/>
<text text-anchor="start" x="13.5" y="-45.2" font-family="Helvetica,sans-Serif" font-size="11.00">&lt; 0</text>
<polygon fill="#ffffff" stroke="transparent" points="96.5,-39 96.5,-57 200.5,-57 200.5,-39 96.5,-39"/>
<polygon fill="none" stroke="black" points="96.5,-39 96.5,-57 200.5,-57 200.5,-39 96.5,-39"/>
<text text-anchor="start" x="164.5" y="-45.2" font-family="Helvetica,sans-Serif" font-size="11.00">8 rows</text>
<polygon fill="#ffffff" stroke="transparent" points="200.5,-39 200.5,-57 283.5,-57 283.5,-39 200.5,-39"/>
<polygon fill="none" stroke="black" points="200.5,-39 200.5,-57 283.5,-57 283.5,-39 200.5,-39"/>
<text text-anchor="start" x="264.5" y="-45.2" font-family="Helvetica,sans-Serif" font-size="11.00">2 &gt;</text>
<polygon fill="none" stroke="black" stroke-width="2" points="9,-38 9,-344 284,-344 284,-38 9,-38"/>
</a>
</g>
</g>
<!-- ad_user&#45;&gt;cof_c_marketsegment -->
<g id="edge1" class="edge">
<title>ad_user:w&#45;&gt;cof_c_marketsegment:e</title>
<path fill="none" stroke="black" d="M319.03,-489.56C264.99,-467.97 362.54,-310 284.5,-310"/>
<polygon fill="black" stroke="black" points="325.61,-490.67 332.9,-495.55 329.56,-491.34 333.5,-492 333.5,-492 333.5,-492 329.56,-491.34 334.1,-488.45 325.61,-490.67 325.61,-490.67"/>
<ellipse fill="none" stroke="black" cx="322.46" cy="-490.14" rx="3.2" ry="3.2"/>
</g>
<!-- cof_rv_lead -->
<g id="node3" class="node">
<title>cof_rv_lead</title>
<g id="a_node3"><a xlink:href="../../tables/cof_rv_lead.html" xlink:title="cof_rv_lead" target="_top">
<polygon fill="#ffffff" stroke="transparent" points="334,-76 334,-358 557,-358 557,-76 334,-76"/>
<polygon fill="#f5f5f5" stroke="transparent" points="334.5,-336 334.5,-358 557.5,-358 557.5,-336 334.5,-336"/>
<polygon fill="none" stroke="black" points="334.5,-336 334.5,-358 557.5,-358 557.5,-336 334.5,-336"/>
<text text-anchor="start" x="339.5" y="-345.2" font-family="Helvetica,sans-Serif" font-weight="bold" font-size="11.00">cof_rv_lead</text>
<text text-anchor="start" x="524.5" y="-344.2" font-family="Helvetica,sans-Serif" font-size="11.00">[view]</text>
<polygon fill="none" stroke="black" points="334.5,-314 334.5,-336 557.5,-336 557.5,-314 334.5,-314"/>
<image xlink:href="../../images/foreignKeys.png" width="11px" height="12px" preserveAspectRatio="xMinYMin meet" x="339.5" y="-331"/>
<text text-anchor="start" x="354.5" y="-322.2" font-family="Helvetica,sans-Serif" font-size="11.00">c_bpartner_id</text>
<polygon fill="none" stroke="black" points="334.5,-292 334.5,-314 557.5,-314 557.5,-292 334.5,-292"/>
<image xlink:href="../../images/foreignKeys.png" width="11px" height="12px" preserveAspectRatio="xMinYMin meet" x="339.5" y="-309"/>
<text text-anchor="start" x="354.5" y="-300.2" font-family="Helvetica,sans-Serif" font-size="11.00">c_bpartner_location_id</text>
<polygon fill="none" stroke="black" points="334.5,-270 334.5,-292 557.5,-292 557.5,-270 334.5,-270"/>
<image xlink:href="../../images/foreignKeys.png" width="11px" height="12px" preserveAspectRatio="xMinYMin meet" x="339.5" y="-287"/>
<text text-anchor="start" x="354.5" y="-278.2" font-family="Helvetica,sans-Serif" font-size="11.00">c_campaign_id</text>
<polygon fill="none" stroke="black" points="334.5,-248 334.5,-270 557.5,-270 557.5,-248 334.5,-248"/>
<image xlink:href="../../images/foreignKeys.png" width="11px" height="12px" preserveAspectRatio="xMinYMin meet" x="339.5" y="-265"/>
<text text-anchor="start" x="354.5" y="-256.2" font-family="Helvetica,sans-Serif" font-size="11.00">c_city_id</text>
<polygon fill="none" stroke="black" points="334.5,-226 334.5,-248 557.5,-248 557.5,-226 334.5,-226"/>
<image xlink:href="../../images/foreignKeys.png" width="11px" height="12px" preserveAspectRatio="xMinYMin meet" x="339.5" y="-243"/>
<text text-anchor="start" x="354.5" y="-234.2" font-family="Helvetica,sans-Serif" font-size="11.00">c_country_id</text>
<polygon fill="none" stroke="black" points="334.5,-204 334.5,-226 557.5,-226 557.5,-204 334.5,-204"/>
<image xlink:href="../../images/foreignKeys.png" width="11px" height="12px" preserveAspectRatio="xMinYMin meet" x="339.5" y="-221"/>
<text text-anchor="start" x="354.5" y="-212.2" font-family="Helvetica,sans-Serif" font-size="11.00">c_greeting_id</text>
<polygon fill="none" stroke="black" points="334.5,-182 334.5,-204 557.5,-204 557.5,-182 334.5,-182"/>
<image xlink:href="../../images/foreignKeys.png" width="11px" height="12px" preserveAspectRatio="xMinYMin meet" x="339.5" y="-199"/>
<text text-anchor="start" x="354.5" y="-190.2" font-family="Helvetica,sans-Serif" font-size="11.00">c_job_id</text>
<polygon fill="none" stroke="black" points="334.5,-160 334.5,-182 557.5,-182 557.5,-160 334.5,-160"/>
<image xlink:href="../../images/foreignKeys.png" width="11px" height="12px" preserveAspectRatio="xMinYMin meet" x="339.5" y="-177"/>
<text text-anchor="start" x="354.5" y="-168.2" font-family="Helvetica,sans-Serif" font-size="11.00">c_location_id</text>
<polygon fill="none" stroke="black" points="334.5,-138 334.5,-160 557.5,-160 557.5,-138 334.5,-138"/>
<image xlink:href="../../images/foreignKeys.png" width="11px" height="12px" preserveAspectRatio="xMinYMin meet" x="339.5" y="-155"/>
<text text-anchor="start" x="354.5" y="-146.2" font-family="Helvetica,sans-Serif" font-size="11.00">cof_c_leadexpirationreason_id</text>
<polygon fill="none" stroke="black" points="334.5,-116 334.5,-138 557.5,-138 557.5,-116 334.5,-116"/>
<image xlink:href="../../images/foreignKeys.png" width="11px" height="12px" preserveAspectRatio="xMinYMin meet" x="339.5" y="-133"/>
<text text-anchor="start" x="354.5" y="-124.2" font-family="Helvetica,sans-Serif" font-size="11.00">cof_c_marketsegment_id</text>
<polygon fill="none" stroke="black" points="334.5,-94 334.5,-116 557.5,-116 557.5,-94 334.5,-94"/>
<image xlink:href="../../images/foreignKeys.png" width="11px" height="12px" preserveAspectRatio="xMinYMin meet" x="339.5" y="-111"/>
<text text-anchor="start" x="354.5" y="-102.2" font-family="Helvetica,sans-Serif" font-size="11.00">c_region_id</text>
<polygon fill="none" stroke="black" points="334.5,-76 334.5,-94 557.5,-94 557.5,-76 334.5,-76"/>
<text text-anchor="start" x="337.5" y="-82.2" font-family="Helvetica,sans-Serif" font-size="11.00">...</text>
</a>
</g>
</g>
<!-- cof_rv_lead&#45;&gt;cof_c_marketsegment -->
<g id="edge2" class="edge">
<title>cof_rv_lead:w&#45;&gt;cof_c_marketsegment:e</title>
<path fill="none" stroke="black" stroke-dasharray="5,2" d="M318.96,-129.45C264.67,-151.16 362.94,-310 284.5,-310"/>
<polygon fill="black" stroke="black" points="325.61,-128.33 334.1,-130.55 329.56,-127.66 333.5,-127 333.5,-127 333.5,-127 329.56,-127.66 332.9,-123.45 325.61,-128.33 325.61,-128.33"/>
<ellipse fill="none" stroke="black" cx="322.46" cy="-128.86" rx="3.2" ry="3.2"/>
</g>
</g>
</svg>
