<?xml version="1.0" encoding="UTF-8" standalone="no"?>
<!DOCTYPE svg PUBLIC "-//W3C//DTD SVG 1.1//EN"
 "http://www.w3.org/Graphics/SVG/1.1/DTD/svg11.dtd">
<!-- Generated by graphviz version 2.43.0 (0)
 -->
<!-- Title: oneDegreeRelationshipsDiagram Pages: 1 -->
<svg width="322pt" height="335pt"
 viewBox="0.00 0.00 322.00 335.00" xmlns="http://www.w3.org/2000/svg" xmlns:xlink="http://www.w3.org/1999/xlink">
<g id="graph0" class="graph" transform="scale(1 1) rotate(0) translate(4 331)">
<title>oneDegreeRelationshipsDiagram</title>
<polygon fill="#ffffff" stroke="transparent" points="-4,4 -4,-331 318,-331 318,4 -4,4"/>
<text text-anchor="middle" x="71.5" y="-7.2" font-family="Helvetica,sans-Serif" font-size="11.00">Generated by SchemaSpy</text>
<!-- cof_cte_iddocantele -->
<g id="node1" class="node">
<title>cof_cte_iddocantele</title>
<g id="a_node1"><a xlink:href="../../tables/cof_cte_iddocantele.html" xlink:title="cof_cte_iddocantele" target="_top">
<polygon fill="#ffffff" stroke="transparent" points="8,-37 8,-323 306,-323 306,-37 8,-37"/>
<polygon fill="#f5f5f5" stroke="transparent" points="10,-299 10,-321 304,-321 304,-299 10,-299"/>
<polygon fill="none" stroke="black" points="10,-299 10,-321 304,-321 304,-299 10,-299"/>
<text text-anchor="start" x="15" y="-308.2" font-family="Helvetica,sans-Serif" font-weight="bold" font-size="11.00">cof_cte_iddocantele</text>
<text text-anchor="start" x="269" y="-307.2" font-family="Helvetica,sans-Serif" font-size="11.00">[table]</text>
<polygon fill="none" stroke="black" points="10,-277 10,-299 221,-299 221,-277 10,-277"/>
<image xlink:href="../../images/primaryKeys.png" width="11px" height="12px" preserveAspectRatio="xMinYMin meet" x="15" y="-294"/>
<text text-anchor="start" x="30" y="-285.2" font-family="Helvetica,sans-Serif" font-size="11.00">cof_cte_iddocantele_id</text>
<polygon fill="none" stroke="black" points="221,-277 221,-299 304,-299 304,-277 221,-277"/>
<text text-anchor="start" x="224" y="-285.2" font-family="Helvetica,sans-Serif" font-size="11.00">numeric[10]</text>
<polygon fill="none" stroke="black" points="10,-255 10,-277 221,-277 221,-255 10,-255"/>
<text text-anchor="start" x="30" y="-263.2" font-family="Helvetica,sans-Serif" font-size="11.00">ad_client_id</text>
<polygon fill="none" stroke="black" points="221,-255 221,-277 304,-277 304,-255 221,-255"/>
<text text-anchor="start" x="224" y="-263.2" font-family="Helvetica,sans-Serif" font-size="11.00">numeric[10]</text>
<polygon fill="none" stroke="black" points="10,-233 10,-255 221,-255 221,-233 10,-233"/>
<text text-anchor="start" x="30" y="-241.2" font-family="Helvetica,sans-Serif" font-size="11.00">ad_org_id</text>
<polygon fill="none" stroke="black" points="221,-233 221,-255 304,-255 304,-233 221,-233"/>
<text text-anchor="start" x="224" y="-241.2" font-family="Helvetica,sans-Serif" font-size="11.00">numeric[10]</text>
<polygon fill="none" stroke="black" points="10,-211 10,-233 221,-233 221,-211 10,-211"/>
<text text-anchor="start" x="30" y="-219.2" font-family="Helvetica,sans-Serif" font-size="11.00">isactive</text>
<polygon fill="none" stroke="black" points="221,-211 221,-233 304,-233 304,-211 221,-211"/>
<text text-anchor="start" x="224" y="-219.2" font-family="Helvetica,sans-Serif" font-size="11.00">bpchar[1]</text>
<polygon fill="none" stroke="black" points="10,-189 10,-211 221,-211 221,-189 10,-189"/>
<text text-anchor="start" x="30" y="-197.2" font-family="Helvetica,sans-Serif" font-size="11.00">created</text>
<polygon fill="none" stroke="black" points="221,-189 221,-211 304,-211 304,-189 221,-189"/>
<text text-anchor="start" x="224" y="-197.2" font-family="Helvetica,sans-Serif" font-size="11.00">timestamp[29,6]</text>
<polygon fill="none" stroke="black" points="10,-167 10,-189 221,-189 221,-167 10,-167"/>
<text text-anchor="start" x="30" y="-175.2" font-family="Helvetica,sans-Serif" font-size="11.00">createdby</text>
<polygon fill="none" stroke="black" points="221,-167 221,-189 304,-189 304,-167 221,-167"/>
<text text-anchor="start" x="224" y="-175.2" font-family="Helvetica,sans-Serif" font-size="11.00">numeric[10]</text>
<polygon fill="none" stroke="black" points="10,-145 10,-167 221,-167 221,-145 10,-145"/>
<text text-anchor="start" x="30" y="-153.2" font-family="Helvetica,sans-Serif" font-size="11.00">updated</text>
<polygon fill="none" stroke="black" points="221,-145 221,-167 304,-167 304,-145 221,-145"/>
<text text-anchor="start" x="224" y="-153.2" font-family="Helvetica,sans-Serif" font-size="11.00">timestamp[29,6]</text>
<polygon fill="none" stroke="black" points="10,-123 10,-145 221,-145 221,-123 10,-123"/>
<text text-anchor="start" x="30" y="-131.2" font-family="Helvetica,sans-Serif" font-size="11.00">updatedby</text>
<polygon fill="none" stroke="black" points="221,-123 221,-145 304,-145 304,-123 221,-123"/>
<text text-anchor="start" x="224" y="-131.2" font-family="Helvetica,sans-Serif" font-size="11.00">numeric[10]</text>
<polygon fill="none" stroke="black" points="10,-101 10,-123 221,-123 221,-101 10,-101"/>
<image xlink:href="../../images/foreignKeys.png" width="11px" height="12px" preserveAspectRatio="xMinYMin meet" x="15" y="-118"/>
<text text-anchor="start" x="30" y="-109.2" font-family="Helvetica,sans-Serif" font-size="11.00">cof_cte_emitdocant_id</text>
<polygon fill="none" stroke="black" points="221,-101 221,-123 304,-123 304,-101 221,-101"/>
<text text-anchor="start" x="224" y="-109.2" font-family="Helvetica,sans-Serif" font-size="11.00">numeric[10]</text>
<polygon fill="none" stroke="black" points="10,-79 10,-101 221,-101 221,-79 10,-79"/>
<text text-anchor="start" x="30" y="-87.2" font-family="Helvetica,sans-Serif" font-size="11.00">iddocant_iddocantele_chave</text>
<polygon fill="none" stroke="black" points="221,-79 221,-101 304,-101 304,-79 221,-79"/>
<text text-anchor="start" x="224" y="-87.2" font-family="Helvetica,sans-Serif" font-size="11.00">numeric[0]</text>
<polygon fill="#ffffff" stroke="transparent" points="10,-57 10,-79 221,-79 221,-57 10,-57"/>
<polygon fill="none" stroke="black" points="10,-57 10,-79 221,-79 221,-57 10,-57"/>
<text text-anchor="start" x="30" y="-65.2" font-family="Helvetica,sans-Serif" font-size="11.00">cof_cte_iddocantele_uu</text>
<polygon fill="none" stroke="black" points="221,-57 221,-79 304,-79 304,-57 221,-57"/>
<text text-anchor="start" x="224" y="-65.2" font-family="Helvetica,sans-Serif" font-size="11.00">varchar[36]</text>
<polygon fill="#ffffff" stroke="transparent" points="10,-39 10,-57 107,-57 107,-39 10,-39"/>
<polygon fill="none" stroke="black" points="10,-39 10,-57 107,-57 107,-39 10,-39"/>
<text text-anchor="start" x="13" y="-45.2" font-family="Helvetica,sans-Serif" font-size="11.00">&lt; 0</text>
<polygon fill="#ffffff" stroke="transparent" points="107,-39 107,-57 221,-57 221,-39 107,-39"/>
<polygon fill="none" stroke="black" points="107,-39 107,-57 221,-57 221,-39 107,-39"/>
<text text-anchor="start" x="185" y="-45.2" font-family="Helvetica,sans-Serif" font-size="11.00">0 rows</text>
<polygon fill="#ffffff" stroke="transparent" points="221,-39 221,-57 304,-57 304,-39 221,-39"/>
<polygon fill="none" stroke="black" points="221,-39 221,-57 304,-57 304,-39 221,-39"/>
<text text-anchor="start" x="285" y="-45.2" font-family="Helvetica,sans-Serif" font-size="11.00">0 &gt;</text>
<polygon fill="none" stroke="black" stroke-width="2" points="9,-38 9,-322 305,-322 305,-38 9,-38"/>
</a>
</g>
</g>
</g>
</svg>
