<?xml version="1.0" encoding="UTF-8" standalone="no"?>
<!DOCTYPE svg PUBLIC "-//W3C//DTD SVG 1.1//EN"
 "http://www.w3.org/Graphics/SVG/1.1/DTD/svg11.dtd">
<!-- Generated by graphviz version 2.43.0 (0)
 -->
<!-- Title: oneDegreeRelationshipsDiagram Pages: 1 -->
<svg width="579pt" height="823pt"
 viewBox="0.00 0.00 579.00 823.00" xmlns="http://www.w3.org/2000/svg" xmlns:xlink="http://www.w3.org/1999/xlink">
<g id="graph0" class="graph" transform="scale(1 1) rotate(0) translate(4 819)">
<title>oneDegreeRelationshipsDiagram</title>
<polygon fill="#ffffff" stroke="transparent" points="-4,4 -4,-819 575,-819 575,4 -4,4"/>
<text text-anchor="middle" x="71.5" y="-7.2" font-family="Helvetica,sans-Serif" font-size="11.00">Generated by SchemaSpy</text>
<!-- ad_org -->
<g id="node1" class="node">
<title>ad_org</title>
<g id="a_node1"><a xlink:href="../../tables/ad_org.html" xlink:title="ad_org" target="_top">
<polygon fill="#ffffff" stroke="transparent" points="340,-621 340,-811 532,-811 532,-621 340,-621"/>
<polygon fill="#f5f5f5" stroke="transparent" points="340,-789 340,-811 532,-811 532,-789 340,-789"/>
<polygon fill="none" stroke="black" points="340,-789 340,-811 532,-811 532,-789 340,-789"/>
<text text-anchor="start" x="345" y="-798.2" font-family="Helvetica,sans-Serif" font-weight="bold" font-size="11.00">ad_org</text>
<text text-anchor="start" x="497" y="-797.2" font-family="Helvetica,sans-Serif" font-size="11.00">[table]</text>
<polygon fill="none" stroke="black" points="340,-767 340,-789 532,-789 532,-767 340,-767"/>
<image xlink:href="../../images/primaryKeys.png" width="11px" height="12px" preserveAspectRatio="xMinYMin meet" x="345" y="-784"/>
<text text-anchor="start" x="360" y="-775.2" font-family="Helvetica,sans-Serif" font-size="11.00">ad_org_id</text>
<polygon fill="#ffffff" stroke="transparent" points="340,-745 340,-767 532,-767 532,-745 340,-745"/>
<polygon fill="none" stroke="black" points="340,-745 340,-767 532,-767 532,-745 340,-745"/>
<image xlink:href="../../images/foreignKeys.png" width="11px" height="12px" preserveAspectRatio="xMinYMin meet" x="345" y="-762"/>
<text text-anchor="start" x="360" y="-753.2" font-family="Helvetica,sans-Serif" font-size="11.00">ad_client_id</text>
<polygon fill="#ffffff" stroke="transparent" points="340,-723 340,-745 532,-745 532,-723 340,-723"/>
<polygon fill="none" stroke="black" points="340,-723 340,-745 532,-745 532,-723 340,-723"/>
<text text-anchor="start" x="360" y="-731.2" font-family="Helvetica,sans-Serif" font-size="11.00">value</text>
<polygon fill="none" stroke="black" points="340,-701 340,-723 532,-723 532,-701 340,-701"/>
<image xlink:href="../../images/foreignKeys.png" width="11px" height="12px" preserveAspectRatio="xMinYMin meet" x="345" y="-718"/>
<text text-anchor="start" x="360" y="-709.2" font-family="Helvetica,sans-Serif" font-size="11.00">ad_replicationstrategy_id</text>
<polygon fill="#ffffff" stroke="transparent" points="340,-679 340,-701 532,-701 532,-679 340,-679"/>
<polygon fill="none" stroke="black" points="340,-679 340,-701 532,-701 532,-679 340,-679"/>
<text text-anchor="start" x="360" y="-687.2" font-family="Helvetica,sans-Serif" font-size="11.00">ad_org_uu</text>
<polygon fill="none" stroke="black" points="340,-657 340,-679 532,-679 532,-657 340,-657"/>
<image xlink:href="../../images/foreignKeys.png" width="11px" height="12px" preserveAspectRatio="xMinYMin meet" x="345" y="-674"/>
<text text-anchor="start" x="360" y="-665.2" font-family="Helvetica,sans-Serif" font-size="11.00">cof_c_snrange_id</text>
<polygon fill="none" stroke="black" points="340,-639 340,-657 532,-657 532,-639 340,-639"/>
<text text-anchor="start" x="343" y="-645.2" font-family="Helvetica,sans-Serif" font-size="11.00">...</text>
<polygon fill="#ffffff" stroke="transparent" points="340,-621 340,-639 410,-639 410,-621 340,-621"/>
<polygon fill="none" stroke="black" points="340,-621 340,-639 410,-639 410,-621 340,-621"/>
<text text-anchor="start" x="343" y="-627.2" font-family="Helvetica,sans-Serif" font-size="11.00">&lt; 3</text>
<polygon fill="#ffffff" stroke="transparent" points="410,-621 410,-639 473,-639 473,-621 410,-621"/>
<polygon fill="none" stroke="black" points="410,-621 410,-639 473,-639 473,-621 410,-621"/>
<text text-anchor="start" x="437" y="-627.2" font-family="Helvetica,sans-Serif" font-size="11.00">3 rows</text>
<polygon fill="#ffffff" stroke="transparent" points="473,-621 473,-639 532,-639 532,-621 473,-621"/>
<polygon fill="none" stroke="black" points="473,-621 473,-639 532,-639 532,-621 473,-621"/>
<text text-anchor="start" x="501" y="-627.2" font-family="Helvetica,sans-Serif" font-size="11.00">224 &gt;</text>
</a>
</g>
</g>
<!-- cof_c_snrange -->
<g id="node2" class="node">
<title>cof_c_snrange</title>
<g id="a_node2"><a xlink:href="../../tables/cof_c_snrange.html" xlink:title="cof_c_snrange" target="_top">
<polygon fill="#ffffff" stroke="transparent" points="8,-37 8,-609 260,-609 260,-37 8,-37"/>
<polygon fill="#f5f5f5" stroke="transparent" points="10,-585 10,-607 258,-607 258,-585 10,-585"/>
<polygon fill="none" stroke="black" points="10,-585 10,-607 258,-607 258,-585 10,-585"/>
<text text-anchor="start" x="15" y="-594.2" font-family="Helvetica,sans-Serif" font-weight="bold" font-size="11.00">cof_c_snrange</text>
<text text-anchor="start" x="223" y="-593.2" font-family="Helvetica,sans-Serif" font-size="11.00">[table]</text>
<polygon fill="none" stroke="black" points="10,-563 10,-585 175,-585 175,-563 10,-563"/>
<image xlink:href="../../images/primaryKeys.png" width="11px" height="12px" preserveAspectRatio="xMinYMin meet" x="15" y="-580"/>
<text text-anchor="start" x="30" y="-571.2" font-family="Helvetica,sans-Serif" font-size="11.00">cof_c_snrange_id</text>
<polygon fill="none" stroke="black" points="175,-563 175,-585 258,-585 258,-563 175,-563"/>
<text text-anchor="start" x="178" y="-571.2" font-family="Helvetica,sans-Serif" font-size="11.00">numeric[10]</text>
<polygon fill="#ffffff" stroke="transparent" points="10,-541 10,-563 175,-563 175,-541 10,-541"/>
<polygon fill="none" stroke="black" points="10,-541 10,-563 175,-563 175,-541 10,-541"/>
<text text-anchor="start" x="30" y="-549.2" font-family="Helvetica,sans-Serif" font-size="11.00">cof_c_snrange_uu</text>
<polygon fill="none" stroke="black" points="175,-541 175,-563 258,-563 258,-541 175,-541"/>
<text text-anchor="start" x="178" y="-549.2" font-family="Helvetica,sans-Serif" font-size="11.00">varchar[36]</text>
<polygon fill="none" stroke="black" points="10,-519 10,-541 175,-541 175,-519 10,-519"/>
<text text-anchor="start" x="30" y="-527.2" font-family="Helvetica,sans-Serif" font-size="11.00">ad_client_id</text>
<polygon fill="none" stroke="black" points="175,-519 175,-541 258,-541 258,-519 175,-519"/>
<text text-anchor="start" x="178" y="-527.2" font-family="Helvetica,sans-Serif" font-size="11.00">numeric[10]</text>
<polygon fill="none" stroke="black" points="10,-497 10,-519 175,-519 175,-497 10,-497"/>
<text text-anchor="start" x="30" y="-505.2" font-family="Helvetica,sans-Serif" font-size="11.00">ad_org_id</text>
<polygon fill="none" stroke="black" points="175,-497 175,-519 258,-519 258,-497 175,-497"/>
<text text-anchor="start" x="178" y="-505.2" font-family="Helvetica,sans-Serif" font-size="11.00">numeric[10]</text>
<polygon fill="none" stroke="black" points="10,-475 10,-497 175,-497 175,-475 10,-475"/>
<text text-anchor="start" x="30" y="-483.2" font-family="Helvetica,sans-Serif" font-size="11.00">isactive</text>
<polygon fill="none" stroke="black" points="175,-475 175,-497 258,-497 258,-475 175,-475"/>
<text text-anchor="start" x="178" y="-483.2" font-family="Helvetica,sans-Serif" font-size="11.00">bpchar[1]</text>
<polygon fill="none" stroke="black" points="10,-453 10,-475 175,-475 175,-453 10,-453"/>
<text text-anchor="start" x="30" y="-461.2" font-family="Helvetica,sans-Serif" font-size="11.00">created</text>
<polygon fill="none" stroke="black" points="175,-453 175,-475 258,-475 258,-453 175,-453"/>
<text text-anchor="start" x="178" y="-461.2" font-family="Helvetica,sans-Serif" font-size="11.00">timestamp[29,6]</text>
<polygon fill="none" stroke="black" points="10,-431 10,-453 175,-453 175,-431 10,-431"/>
<text text-anchor="start" x="30" y="-439.2" font-family="Helvetica,sans-Serif" font-size="11.00">createdby</text>
<polygon fill="none" stroke="black" points="175,-431 175,-453 258,-453 258,-431 175,-431"/>
<text text-anchor="start" x="178" y="-439.2" font-family="Helvetica,sans-Serif" font-size="11.00">numeric[10]</text>
<polygon fill="none" stroke="black" points="10,-409 10,-431 175,-431 175,-409 10,-409"/>
<text text-anchor="start" x="30" y="-417.2" font-family="Helvetica,sans-Serif" font-size="11.00">updated</text>
<polygon fill="none" stroke="black" points="175,-409 175,-431 258,-431 258,-409 175,-409"/>
<text text-anchor="start" x="178" y="-417.2" font-family="Helvetica,sans-Serif" font-size="11.00">timestamp[29,6]</text>
<polygon fill="none" stroke="black" points="10,-387 10,-409 175,-409 175,-387 10,-387"/>
<text text-anchor="start" x="30" y="-395.2" font-family="Helvetica,sans-Serif" font-size="11.00">updatedby</text>
<polygon fill="none" stroke="black" points="175,-387 175,-409 258,-409 258,-387 175,-387"/>
<text text-anchor="start" x="178" y="-395.2" font-family="Helvetica,sans-Serif" font-size="11.00">numeric[10]</text>
<polygon fill="none" stroke="black" points="10,-365 10,-387 175,-387 175,-365 10,-365"/>
<text text-anchor="start" x="30" y="-373.2" font-family="Helvetica,sans-Serif" font-size="11.00">cof_revenuefrom</text>
<polygon fill="none" stroke="black" points="175,-365 175,-387 258,-387 258,-365 175,-365"/>
<text text-anchor="start" x="178" y="-373.2" font-family="Helvetica,sans-Serif" font-size="11.00">numeric[0]</text>
<polygon fill="none" stroke="black" points="10,-343 10,-365 175,-365 175,-343 10,-343"/>
<text text-anchor="start" x="30" y="-351.2" font-family="Helvetica,sans-Serif" font-size="11.00">cof_revenueto</text>
<polygon fill="none" stroke="black" points="175,-343 175,-365 258,-365 258,-343 175,-343"/>
<text text-anchor="start" x="178" y="-351.2" font-family="Helvetica,sans-Serif" font-size="11.00">numeric[0]</text>
<polygon fill="none" stroke="black" points="10,-321 10,-343 175,-343 175,-321 10,-321"/>
<text text-anchor="start" x="30" y="-329.2" font-family="Helvetica,sans-Serif" font-size="11.00">cof_perctaxamt</text>
<polygon fill="none" stroke="black" points="175,-321 175,-343 258,-343 258,-321 175,-321"/>
<text text-anchor="start" x="178" y="-329.2" font-family="Helvetica,sans-Serif" font-size="11.00">numeric[0]</text>
<polygon fill="none" stroke="black" points="10,-299 10,-321 175,-321 175,-299 10,-299"/>
<text text-anchor="start" x="30" y="-307.2" font-family="Helvetica,sans-Serif" font-size="11.00">cof_percirpj</text>
<polygon fill="none" stroke="black" points="175,-299 175,-321 258,-321 258,-299 175,-299"/>
<text text-anchor="start" x="178" y="-307.2" font-family="Helvetica,sans-Serif" font-size="11.00">numeric[0]</text>
<polygon fill="none" stroke="black" points="10,-277 10,-299 175,-299 175,-277 10,-277"/>
<text text-anchor="start" x="30" y="-285.2" font-family="Helvetica,sans-Serif" font-size="11.00">cof_perccsll</text>
<polygon fill="none" stroke="black" points="175,-277 175,-299 258,-299 258,-277 175,-277"/>
<text text-anchor="start" x="178" y="-285.2" font-family="Helvetica,sans-Serif" font-size="11.00">numeric[0]</text>
<polygon fill="none" stroke="black" points="10,-255 10,-277 175,-277 175,-255 10,-255"/>
<text text-anchor="start" x="30" y="-263.2" font-family="Helvetica,sans-Serif" font-size="11.00">cof_perccofins</text>
<polygon fill="none" stroke="black" points="175,-255 175,-277 258,-277 258,-255 175,-255"/>
<text text-anchor="start" x="178" y="-263.2" font-family="Helvetica,sans-Serif" font-size="11.00">numeric[0]</text>
<polygon fill="none" stroke="black" points="10,-233 10,-255 175,-255 175,-233 10,-233"/>
<text text-anchor="start" x="30" y="-241.2" font-family="Helvetica,sans-Serif" font-size="11.00">cof_percpis</text>
<polygon fill="none" stroke="black" points="175,-233 175,-255 258,-255 258,-233 175,-233"/>
<text text-anchor="start" x="178" y="-241.2" font-family="Helvetica,sans-Serif" font-size="11.00">numeric[0]</text>
<polygon fill="none" stroke="black" points="10,-211 10,-233 175,-233 175,-211 10,-211"/>
<text text-anchor="start" x="30" y="-219.2" font-family="Helvetica,sans-Serif" font-size="11.00">cof_perccpp</text>
<polygon fill="none" stroke="black" points="175,-211 175,-233 258,-233 258,-211 175,-211"/>
<text text-anchor="start" x="178" y="-219.2" font-family="Helvetica,sans-Serif" font-size="11.00">numeric[0]</text>
<polygon fill="none" stroke="black" points="10,-189 10,-211 175,-211 175,-189 10,-189"/>
<text text-anchor="start" x="30" y="-197.2" font-family="Helvetica,sans-Serif" font-size="11.00">cof_percpispasep</text>
<polygon fill="none" stroke="black" points="175,-189 175,-211 258,-211 258,-189 175,-189"/>
<text text-anchor="start" x="178" y="-197.2" font-family="Helvetica,sans-Serif" font-size="11.00">numeric[0]</text>
<polygon fill="none" stroke="black" points="10,-167 10,-189 175,-189 175,-167 10,-167"/>
<text text-anchor="start" x="30" y="-175.2" font-family="Helvetica,sans-Serif" font-size="11.00">cof_percicms</text>
<polygon fill="none" stroke="black" points="175,-167 175,-189 258,-189 258,-167 175,-167"/>
<text text-anchor="start" x="178" y="-175.2" font-family="Helvetica,sans-Serif" font-size="11.00">numeric[0]</text>
<polygon fill="none" stroke="black" points="10,-145 10,-167 175,-167 175,-145 10,-145"/>
<text text-anchor="start" x="30" y="-153.2" font-family="Helvetica,sans-Serif" font-size="11.00">cof_percipi</text>
<polygon fill="none" stroke="black" points="175,-145 175,-167 258,-167 258,-145 175,-145"/>
<text text-anchor="start" x="178" y="-153.2" font-family="Helvetica,sans-Serif" font-size="11.00">numeric[0]</text>
<polygon fill="none" stroke="black" points="10,-123 10,-145 175,-145 175,-123 10,-123"/>
<text text-anchor="start" x="30" y="-131.2" font-family="Helvetica,sans-Serif" font-size="11.00">cof_perciss</text>
<polygon fill="none" stroke="black" points="175,-123 175,-145 258,-145 258,-123 175,-123"/>
<text text-anchor="start" x="178" y="-131.2" font-family="Helvetica,sans-Serif" font-size="11.00">numeric[0]</text>
<polygon fill="none" stroke="black" points="10,-101 10,-123 175,-123 175,-101 10,-101"/>
<text text-anchor="start" x="30" y="-109.2" font-family="Helvetica,sans-Serif" font-size="11.00">value</text>
<polygon fill="none" stroke="black" points="175,-101 175,-123 258,-123 258,-101 175,-101"/>
<text text-anchor="start" x="178" y="-109.2" font-family="Helvetica,sans-Serif" font-size="11.00">varchar[40]</text>
<polygon fill="none" stroke="black" points="10,-79 10,-101 175,-101 175,-79 10,-79"/>
<text text-anchor="start" x="30" y="-87.2" font-family="Helvetica,sans-Serif" font-size="11.00">cof_parceladescontar</text>
<polygon fill="none" stroke="black" points="175,-79 175,-101 258,-101 258,-79 175,-79"/>
<text text-anchor="start" x="178" y="-87.2" font-family="Helvetica,sans-Serif" font-size="11.00">numeric[0]</text>
<polygon fill="none" stroke="black" points="10,-57 10,-79 175,-79 175,-57 10,-57"/>
<text text-anchor="start" x="30" y="-65.2" font-family="Helvetica,sans-Serif" font-size="11.00">cof_tabelaanexos</text>
<polygon fill="none" stroke="black" points="175,-57 175,-79 258,-79 258,-57 175,-57"/>
<text text-anchor="start" x="178" y="-65.2" font-family="Helvetica,sans-Serif" font-size="11.00">varchar[20]</text>
<polygon fill="#ffffff" stroke="transparent" points="10,-39 10,-57 84,-57 84,-39 10,-39"/>
<polygon fill="none" stroke="black" points="10,-39 10,-57 84,-57 84,-39 10,-39"/>
<text text-anchor="start" x="13" y="-45.2" font-family="Helvetica,sans-Serif" font-size="11.00">&lt; 0</text>
<polygon fill="#ffffff" stroke="transparent" points="84,-39 84,-57 175,-57 175,-39 84,-39"/>
<polygon fill="none" stroke="black" points="84,-39 84,-57 175,-57 175,-39 84,-39"/>
<text text-anchor="start" x="139" y="-45.2" font-family="Helvetica,sans-Serif" font-size="11.00">0 rows</text>
<polygon fill="#ffffff" stroke="transparent" points="175,-39 175,-57 258,-57 258,-39 175,-39"/>
<polygon fill="none" stroke="black" points="175,-39 175,-57 258,-57 258,-39 175,-39"/>
<text text-anchor="start" x="239" y="-45.2" font-family="Helvetica,sans-Serif" font-size="11.00">2 &gt;</text>
<polygon fill="none" stroke="black" stroke-width="2" points="9,-38 9,-608 259,-608 259,-38 9,-38"/>
</a>
</g>
</g>
<!-- ad_org&#45;&gt;cof_c_snrange -->
<g id="edge1" class="edge">
<title>ad_org:w&#45;&gt;cof_c_snrange:e</title>
<path fill="none" stroke="black" d="M324.73,-665.29C289.3,-649.88 308.29,-574 259,-574"/>
<polygon fill="black" stroke="black" points="331.14,-666.51 338.33,-671.54 335.07,-667.25 339,-668 339,-668 339,-668 335.07,-667.25 339.67,-664.46 331.14,-666.51 331.14,-666.51"/>
<ellipse fill="none" stroke="black" cx="328" cy="-665.91" rx="3.2" ry="3.2"/>
</g>
<!-- cof_c_taxdetermination_hdr -->
<g id="node3" class="node">
<title>cof_c_taxdetermination_hdr</title>
<g id="a_node3"><a xlink:href="../../tables/cof_c_taxdetermination_hdr.html" xlink:title="cof_c_taxdetermination_hdr" target="_top">
<polygon fill="#ffffff" stroke="transparent" points="309,-366 309,-600 563,-600 563,-366 309,-366"/>
<polygon fill="#f5f5f5" stroke="transparent" points="309,-578 309,-600 563,-600 563,-578 309,-578"/>
<polygon fill="none" stroke="black" points="309,-578 309,-600 563,-600 563,-578 309,-578"/>
<text text-anchor="start" x="314" y="-587.2" font-family="Helvetica,sans-Serif" font-weight="bold" font-size="11.00">cof_c_taxdetermination_hdr</text>
<text text-anchor="start" x="528" y="-586.2" font-family="Helvetica,sans-Serif" font-size="11.00">[table]</text>
<polygon fill="none" stroke="black" points="309,-556 309,-578 563,-578 563,-556 309,-556"/>
<image xlink:href="../../images/primaryKeys.png" width="11px" height="12px" preserveAspectRatio="xMinYMin meet" x="314" y="-573"/>
<text text-anchor="start" x="329" y="-564.2" font-family="Helvetica,sans-Serif" font-size="11.00">cof_c_taxdetermination_hdr_id</text>
<polygon fill="#ffffff" stroke="transparent" points="309,-534 309,-556 563,-556 563,-534 309,-534"/>
<polygon fill="none" stroke="black" points="309,-534 309,-556 563,-556 563,-534 309,-534"/>
<text text-anchor="start" x="329" y="-542.2" font-family="Helvetica,sans-Serif" font-size="11.00">cof_c_taxdetermination_hdr_uu</text>
<polygon fill="none" stroke="black" points="309,-512 309,-534 563,-534 563,-512 309,-512"/>
<image xlink:href="../../images/foreignKeys.png" width="11px" height="12px" preserveAspectRatio="xMinYMin meet" x="314" y="-529"/>
<text text-anchor="start" x="329" y="-520.2" font-family="Helvetica,sans-Serif" font-size="11.00">lbr_taxname_id</text>
<polygon fill="none" stroke="black" points="309,-490 309,-512 563,-512 563,-490 309,-490"/>
<image xlink:href="../../images/foreignKeys.png" width="11px" height="12px" preserveAspectRatio="xMinYMin meet" x="314" y="-507"/>
<text text-anchor="start" x="329" y="-498.2" font-family="Helvetica,sans-Serif" font-size="11.00">cof_orgst_id</text>
<polygon fill="none" stroke="black" points="309,-468 309,-490 563,-490 563,-468 309,-468"/>
<image xlink:href="../../images/foreignKeys.png" width="11px" height="12px" preserveAspectRatio="xMinYMin meet" x="314" y="-485"/>
<text text-anchor="start" x="329" y="-476.2" font-family="Helvetica,sans-Serif" font-size="11.00">cof_c_snrange_id</text>
<polygon fill="none" stroke="black" points="309,-446 309,-468 563,-468 563,-446 309,-446"/>
<image xlink:href="../../images/foreignKeys.png" width="11px" height="12px" preserveAspectRatio="xMinYMin meet" x="314" y="-463"/>
<text text-anchor="start" x="329" y="-454.2" font-family="Helvetica,sans-Serif" font-size="11.00">cof_estadodestino_id</text>
<polygon fill="none" stroke="black" points="309,-424 309,-446 563,-446 563,-424 309,-424"/>
<image xlink:href="../../images/foreignKeys.png" width="11px" height="12px" preserveAspectRatio="xMinYMin meet" x="314" y="-441"/>
<text text-anchor="start" x="329" y="-432.2" font-family="Helvetica,sans-Serif" font-size="11.00">parent_id</text>
<polygon fill="none" stroke="black" points="309,-402 309,-424 563,-424 563,-402 309,-402"/>
<image xlink:href="../../images/foreignKeys.png" width="11px" height="12px" preserveAspectRatio="xMinYMin meet" x="314" y="-419"/>
<text text-anchor="start" x="329" y="-410.2" font-family="Helvetica,sans-Serif" font-size="11.00">cof_c_taxdetermination_hdr_ant_id</text>
<polygon fill="none" stroke="black" points="309,-384 309,-402 563,-402 563,-384 309,-384"/>
<text text-anchor="start" x="312" y="-390.2" font-family="Helvetica,sans-Serif" font-size="11.00">...</text>
<polygon fill="#ffffff" stroke="transparent" points="309,-366 309,-384 419,-384 419,-366 309,-366"/>
<polygon fill="none" stroke="black" points="309,-366 309,-384 419,-384 419,-366 309,-366"/>
<text text-anchor="start" x="312" y="-372.2" font-family="Helvetica,sans-Serif" font-size="11.00">&lt; 6</text>
<polygon fill="#ffffff" stroke="transparent" points="419,-366 419,-384 497,-384 497,-366 419,-366"/>
<polygon fill="none" stroke="black" points="419,-366 419,-384 497,-384 497,-366 419,-366"/>
<text text-anchor="start" x="466" y="-372.2" font-family="Helvetica,sans-Serif" font-size="11.00">1 row</text>
<polygon fill="#ffffff" stroke="transparent" points="497,-366 497,-384 563,-384 563,-366 497,-366"/>
<polygon fill="none" stroke="black" points="497,-366 497,-384 563,-384 563,-366 497,-366"/>
<text text-anchor="start" x="544" y="-372.2" font-family="Helvetica,sans-Serif" font-size="11.00">5 &gt;</text>
</a>
</g>
</g>
<!-- cof_c_taxdetermination_hdr&#45;&gt;cof_c_snrange -->
<g id="edge2" class="edge">
<title>cof_c_taxdetermination_hdr:w&#45;&gt;cof_c_snrange:e</title>
<path fill="none" stroke="black" d="M293.89,-483.33C270.8,-501.91 300.38,-574 259,-574"/>
<polygon fill="black" stroke="black" points="300.35,-481.35 309.06,-482.44 304.18,-480.17 308,-479 308,-479 308,-479 304.18,-480.17 306.94,-475.56 300.35,-481.35 300.35,-481.35"/>
<ellipse fill="none" stroke="black" cx="297.29" cy="-482.28" rx="3.2" ry="3.2"/>
</g>
</g>
</svg>
