<?xml version="1.0" encoding="UTF-8" standalone="no"?>
<!DOCTYPE svg PUBLIC "-//W3C//DTD SVG 1.1//EN"
 "http://www.w3.org/Graphics/SVG/1.1/DTD/svg11.dtd">
<!-- Generated by graphviz version 2.43.0 (0)
 -->
<!-- Title: oneDegreeRelationshipsDiagram Pages: 1 -->
<svg width="324pt" height="1395pt"
 viewBox="0.00 0.00 324.00 1395.00" xmlns="http://www.w3.org/2000/svg" xmlns:xlink="http://www.w3.org/1999/xlink">
<g id="graph0" class="graph" transform="scale(1 1) rotate(0) translate(4 1391)">
<title>oneDegreeRelationshipsDiagram</title>
<polygon fill="#ffffff" stroke="transparent" points="-4,4 -4,-1391 320,-1391 320,4 -4,4"/>
<text text-anchor="middle" x="71.5" y="-7.2" font-family="Helvetica,sans-Serif" font-size="11.00">Generated by SchemaSpy</text>
<!-- cof_rv_contract -->
<g id="node1" class="node">
<title>cof_rv_contract</title>
<g id="a_node1"><a xlink:href="../../tables/cof_rv_contract.html" xlink:title="cof_rv_contract" target="_top">
<polygon fill="#ffffff" stroke="transparent" points="8,-37 8,-1383 308,-1383 308,-37 8,-37"/>
<polygon fill="#f5f5f5" stroke="transparent" points="10,-1359 10,-1381 306,-1381 306,-1359 10,-1359"/>
<polygon fill="none" stroke="black" points="10,-1359 10,-1381 306,-1381 306,-1359 10,-1359"/>
<text text-anchor="start" x="15" y="-1368.2" font-family="Helvetica,sans-Serif" font-weight="bold" font-size="11.00">cof_rv_contract</text>
<text text-anchor="start" x="273" y="-1367.2" font-family="Helvetica,sans-Serif" font-size="11.00">[view]</text>
<polygon fill="none" stroke="black" points="10,-1337 10,-1359 223,-1359 223,-1337 10,-1337"/>
<image xlink:href="../../images/foreignKeys.png" width="11px" height="12px" preserveAspectRatio="xMinYMin meet" x="15" y="-1354"/>
<text text-anchor="start" x="30" y="-1345.2" font-family="Helvetica,sans-Serif" font-size="11.00">cof_contract_id</text>
<polygon fill="none" stroke="black" points="223,-1337 223,-1359 306,-1359 306,-1337 223,-1337"/>
<text text-anchor="start" x="226" y="-1345.2" font-family="Helvetica,sans-Serif" font-size="11.00">numeric[10]</text>
<polygon fill="none" stroke="black" points="10,-1315 10,-1337 223,-1337 223,-1315 10,-1315"/>
<text text-anchor="start" x="30" y="-1323.2" font-family="Helvetica,sans-Serif" font-size="11.00">ad_client_id</text>
<polygon fill="none" stroke="black" points="223,-1315 223,-1337 306,-1337 306,-1315 223,-1315"/>
<text text-anchor="start" x="226" y="-1323.2" font-family="Helvetica,sans-Serif" font-size="11.00">numeric[10]</text>
<polygon fill="none" stroke="black" points="10,-1293 10,-1315 223,-1315 223,-1293 10,-1293"/>
<text text-anchor="start" x="30" y="-1301.2" font-family="Helvetica,sans-Serif" font-size="11.00">ad_org_id</text>
<polygon fill="none" stroke="black" points="223,-1293 223,-1315 306,-1315 306,-1293 223,-1293"/>
<text text-anchor="start" x="226" y="-1301.2" font-family="Helvetica,sans-Serif" font-size="11.00">numeric[10]</text>
<polygon fill="none" stroke="black" points="10,-1271 10,-1293 223,-1293 223,-1271 10,-1271"/>
<text text-anchor="start" x="30" y="-1279.2" font-family="Helvetica,sans-Serif" font-size="11.00">isactive</text>
<polygon fill="none" stroke="black" points="223,-1271 223,-1293 306,-1293 306,-1271 223,-1271"/>
<text text-anchor="start" x="226" y="-1279.2" font-family="Helvetica,sans-Serif" font-size="11.00">bpchar[1]</text>
<polygon fill="none" stroke="black" points="10,-1249 10,-1271 223,-1271 223,-1249 10,-1249"/>
<text text-anchor="start" x="30" y="-1257.2" font-family="Helvetica,sans-Serif" font-size="11.00">created</text>
<polygon fill="none" stroke="black" points="223,-1249 223,-1271 306,-1271 306,-1249 223,-1249"/>
<text text-anchor="start" x="226" y="-1257.2" font-family="Helvetica,sans-Serif" font-size="11.00">timestamp[29,6]</text>
<polygon fill="none" stroke="black" points="10,-1227 10,-1249 223,-1249 223,-1227 10,-1227"/>
<text text-anchor="start" x="30" y="-1235.2" font-family="Helvetica,sans-Serif" font-size="11.00">createdby</text>
<polygon fill="none" stroke="black" points="223,-1227 223,-1249 306,-1249 306,-1227 223,-1227"/>
<text text-anchor="start" x="226" y="-1235.2" font-family="Helvetica,sans-Serif" font-size="11.00">numeric[10]</text>
<polygon fill="none" stroke="black" points="10,-1205 10,-1227 223,-1227 223,-1205 10,-1205"/>
<text text-anchor="start" x="30" y="-1213.2" font-family="Helvetica,sans-Serif" font-size="11.00">updated</text>
<polygon fill="none" stroke="black" points="223,-1205 223,-1227 306,-1227 306,-1205 223,-1205"/>
<text text-anchor="start" x="226" y="-1213.2" font-family="Helvetica,sans-Serif" font-size="11.00">timestamp[29,6]</text>
<polygon fill="none" stroke="black" points="10,-1183 10,-1205 223,-1205 223,-1183 10,-1183"/>
<text text-anchor="start" x="30" y="-1191.2" font-family="Helvetica,sans-Serif" font-size="11.00">updatedby</text>
<polygon fill="none" stroke="black" points="223,-1183 223,-1205 306,-1205 306,-1183 223,-1183"/>
<text text-anchor="start" x="226" y="-1191.2" font-family="Helvetica,sans-Serif" font-size="11.00">numeric[10]</text>
<polygon fill="none" stroke="black" points="10,-1161 10,-1183 223,-1183 223,-1161 10,-1161"/>
<text text-anchor="start" x="30" y="-1169.2" font-family="Helvetica,sans-Serif" font-size="11.00">value</text>
<polygon fill="none" stroke="black" points="223,-1161 223,-1183 306,-1183 306,-1161 223,-1161"/>
<text text-anchor="start" x="226" y="-1169.2" font-family="Helvetica,sans-Serif" font-size="11.00">varchar[40]</text>
<polygon fill="none" stroke="black" points="10,-1139 10,-1161 223,-1161 223,-1139 10,-1139"/>
<text text-anchor="start" x="30" y="-1147.2" font-family="Helvetica,sans-Serif" font-size="11.00">name</text>
<polygon fill="none" stroke="black" points="223,-1139 223,-1161 306,-1161 306,-1139 223,-1139"/>
<text text-anchor="start" x="226" y="-1147.2" font-family="Helvetica,sans-Serif" font-size="11.00">varchar[60]</text>
<polygon fill="none" stroke="black" points="10,-1117 10,-1139 223,-1139 223,-1117 10,-1117"/>
<text text-anchor="start" x="30" y="-1125.2" font-family="Helvetica,sans-Serif" font-size="11.00">description</text>
<polygon fill="none" stroke="black" points="223,-1117 223,-1139 306,-1139 306,-1117 223,-1117"/>
<text text-anchor="start" x="226" y="-1125.2" font-family="Helvetica,sans-Serif" font-size="11.00">varchar[255]</text>
<polygon fill="none" stroke="black" points="10,-1095 10,-1117 223,-1117 223,-1095 10,-1095"/>
<text text-anchor="start" x="30" y="-1103.2" font-family="Helvetica,sans-Serif" font-size="11.00">datefrom</text>
<polygon fill="none" stroke="black" points="223,-1095 223,-1117 306,-1117 306,-1095 223,-1095"/>
<text text-anchor="start" x="226" y="-1103.2" font-family="Helvetica,sans-Serif" font-size="11.00">timestamp[29,6]</text>
<polygon fill="none" stroke="black" points="10,-1073 10,-1095 223,-1095 223,-1073 10,-1073"/>
<text text-anchor="start" x="30" y="-1081.2" font-family="Helvetica,sans-Serif" font-size="11.00">dateto</text>
<polygon fill="none" stroke="black" points="223,-1073 223,-1095 306,-1095 306,-1073 223,-1073"/>
<text text-anchor="start" x="226" y="-1081.2" font-family="Helvetica,sans-Serif" font-size="11.00">timestamp[29,6]</text>
<polygon fill="none" stroke="black" points="10,-1051 10,-1073 223,-1073 223,-1051 10,-1051"/>
<text text-anchor="start" x="30" y="-1059.2" font-family="Helvetica,sans-Serif" font-size="11.00">revision</text>
<polygon fill="none" stroke="black" points="223,-1051 223,-1073 306,-1073 306,-1051 223,-1051"/>
<text text-anchor="start" x="226" y="-1059.2" font-family="Helvetica,sans-Serif" font-size="11.00">varchar[10]</text>
<polygon fill="none" stroke="black" points="10,-1029 10,-1051 223,-1051 223,-1029 10,-1029"/>
<image xlink:href="../../images/foreignKeys.png" width="11px" height="12px" preserveAspectRatio="xMinYMin meet" x="15" y="-1046"/>
<text text-anchor="start" x="30" y="-1037.2" font-family="Helvetica,sans-Serif" font-size="11.00">c_paymentterm_id</text>
<polygon fill="none" stroke="black" points="223,-1029 223,-1051 306,-1051 306,-1029 223,-1029"/>
<text text-anchor="start" x="226" y="-1037.2" font-family="Helvetica,sans-Serif" font-size="11.00">numeric[10]</text>
<polygon fill="none" stroke="black" points="10,-1007 10,-1029 223,-1029 223,-1007 10,-1007"/>
<text text-anchor="start" x="30" y="-1015.2" font-family="Helvetica,sans-Serif" font-size="11.00">amount</text>
<polygon fill="none" stroke="black" points="223,-1007 223,-1029 306,-1029 306,-1007 223,-1007"/>
<text text-anchor="start" x="226" y="-1015.2" font-family="Helvetica,sans-Serif" font-size="11.00">numeric[0]</text>
<polygon fill="none" stroke="black" points="10,-985 10,-1007 223,-1007 223,-985 10,-985"/>
<text text-anchor="start" x="30" y="-993.2" font-family="Helvetica,sans-Serif" font-size="11.00">cof_contractstatus</text>
<polygon fill="none" stroke="black" points="223,-985 223,-1007 306,-1007 306,-985 223,-985"/>
<text text-anchor="start" x="226" y="-993.2" font-family="Helvetica,sans-Serif" font-size="11.00">varchar[2]</text>
<polygon fill="none" stroke="black" points="10,-963 10,-985 223,-985 223,-963 10,-963"/>
<image xlink:href="../../images/foreignKeys.png" width="11px" height="12px" preserveAspectRatio="xMinYMin meet" x="15" y="-980"/>
<text text-anchor="start" x="30" y="-971.2" font-family="Helvetica,sans-Serif" font-size="11.00">c_location_id</text>
<polygon fill="none" stroke="black" points="223,-963 223,-985 306,-985 306,-963 223,-963"/>
<text text-anchor="start" x="226" y="-971.2" font-family="Helvetica,sans-Serif" font-size="11.00">numeric[10]</text>
<polygon fill="none" stroke="black" points="10,-941 10,-963 223,-963 223,-941 10,-941"/>
<text text-anchor="start" x="30" y="-949.2" font-family="Helvetica,sans-Serif" font-size="11.00">percent</text>
<polygon fill="none" stroke="black" points="223,-941 223,-963 306,-963 306,-941 223,-941"/>
<text text-anchor="start" x="226" y="-949.2" font-family="Helvetica,sans-Serif" font-size="11.00">numeric[0]</text>
<polygon fill="none" stroke="black" points="10,-919 10,-941 223,-941 223,-919 10,-919"/>
<image xlink:href="../../images/foreignKeys.png" width="11px" height="12px" preserveAspectRatio="xMinYMin meet" x="15" y="-936"/>
<text text-anchor="start" x="30" y="-927.2" font-family="Helvetica,sans-Serif" font-size="11.00">c_bpartner_id</text>
<polygon fill="none" stroke="black" points="223,-919 223,-941 306,-941 306,-919 223,-919"/>
<text text-anchor="start" x="226" y="-927.2" font-family="Helvetica,sans-Serif" font-size="11.00">numeric[10]</text>
<polygon fill="none" stroke="black" points="10,-897 10,-919 223,-919 223,-897 10,-897"/>
<text text-anchor="start" x="30" y="-905.2" font-family="Helvetica,sans-Serif" font-size="11.00">salesrep_id</text>
<polygon fill="none" stroke="black" points="223,-897 223,-919 306,-919 306,-897 223,-897"/>
<text text-anchor="start" x="226" y="-905.2" font-family="Helvetica,sans-Serif" font-size="11.00">numeric[10]</text>
<polygon fill="none" stroke="black" points="10,-875 10,-897 223,-897 223,-875 10,-875"/>
<image xlink:href="../../images/foreignKeys.png" width="11px" height="12px" preserveAspectRatio="xMinYMin meet" x="15" y="-892"/>
<text text-anchor="start" x="30" y="-883.2" font-family="Helvetica,sans-Serif" font-size="11.00">cof_contractcategory_id</text>
<polygon fill="none" stroke="black" points="223,-875 223,-897 306,-897 306,-875 223,-875"/>
<text text-anchor="start" x="226" y="-883.2" font-family="Helvetica,sans-Serif" font-size="11.00">numeric[10]</text>
<polygon fill="none" stroke="black" points="10,-853 10,-875 223,-875 223,-853 10,-853"/>
<text text-anchor="start" x="30" y="-861.2" font-family="Helvetica,sans-Serif" font-size="11.00">cof_contractclassification</text>
<polygon fill="none" stroke="black" points="223,-853 223,-875 306,-875 306,-853 223,-853"/>
<text text-anchor="start" x="226" y="-861.2" font-family="Helvetica,sans-Serif" font-size="11.00">varchar[2]</text>
<polygon fill="none" stroke="black" points="10,-831 10,-853 223,-853 223,-831 10,-831"/>
<image xlink:href="../../images/foreignKeys.png" width="11px" height="12px" preserveAspectRatio="xMinYMin meet" x="15" y="-848"/>
<text text-anchor="start" x="30" y="-839.2" font-family="Helvetica,sans-Serif" font-size="11.00">cof_contractgroup_id</text>
<polygon fill="none" stroke="black" points="223,-831 223,-853 306,-853 306,-831 223,-831"/>
<text text-anchor="start" x="226" y="-839.2" font-family="Helvetica,sans-Serif" font-size="11.00">numeric[10]</text>
<polygon fill="none" stroke="black" points="10,-809 10,-831 223,-831 223,-809 10,-809"/>
<text text-anchor="start" x="30" y="-817.2" font-family="Helvetica,sans-Serif" font-size="11.00">ad_user_id</text>
<polygon fill="none" stroke="black" points="223,-809 223,-831 306,-831 306,-809 223,-809"/>
<text text-anchor="start" x="226" y="-817.2" font-family="Helvetica,sans-Serif" font-size="11.00">numeric[10]</text>
<polygon fill="none" stroke="black" points="10,-787 10,-809 223,-809 223,-787 10,-787"/>
<image xlink:href="../../images/foreignKeys.png" width="11px" height="12px" preserveAspectRatio="xMinYMin meet" x="15" y="-804"/>
<text text-anchor="start" x="30" y="-795.2" font-family="Helvetica,sans-Serif" font-size="11.00">m_pricelist_id</text>
<polygon fill="none" stroke="black" points="223,-787 223,-809 306,-809 306,-787 223,-787"/>
<text text-anchor="start" x="226" y="-795.2" font-family="Helvetica,sans-Serif" font-size="11.00">numeric[10]</text>
<polygon fill="none" stroke="black" points="10,-765 10,-787 223,-787 223,-765 10,-765"/>
<image xlink:href="../../images/foreignKeys.png" width="11px" height="12px" preserveAspectRatio="xMinYMin meet" x="15" y="-782"/>
<text text-anchor="start" x="30" y="-773.2" font-family="Helvetica,sans-Serif" font-size="11.00">c_recurring_id</text>
<polygon fill="none" stroke="black" points="223,-765 223,-787 306,-787 306,-765 223,-765"/>
<text text-anchor="start" x="226" y="-773.2" font-family="Helvetica,sans-Serif" font-size="11.00">numeric[10]</text>
<polygon fill="none" stroke="black" points="10,-743 10,-765 223,-765 223,-743 10,-743"/>
<text text-anchor="start" x="30" y="-751.2" font-family="Helvetica,sans-Serif" font-size="11.00">cof_isblocked</text>
<polygon fill="none" stroke="black" points="223,-743 223,-765 306,-765 306,-743 223,-743"/>
<text text-anchor="start" x="226" y="-751.2" font-family="Helvetica,sans-Serif" font-size="11.00">bpchar[1]</text>
<polygon fill="none" stroke="black" points="10,-721 10,-743 223,-743 223,-721 10,-721"/>
<text text-anchor="start" x="30" y="-729.2" font-family="Helvetica,sans-Serif" font-size="11.00">cof_processing</text>
<polygon fill="none" stroke="black" points="223,-721 223,-743 306,-743 306,-721 223,-721"/>
<text text-anchor="start" x="226" y="-729.2" font-family="Helvetica,sans-Serif" font-size="11.00">bpchar[1]</text>
<polygon fill="none" stroke="black" points="10,-699 10,-721 223,-721 223,-699 10,-699"/>
<text text-anchor="start" x="30" y="-707.2" font-family="Helvetica,sans-Serif" font-size="11.00">cof_contractnumber</text>
<polygon fill="none" stroke="black" points="223,-699 223,-721 306,-721 306,-699 223,-699"/>
<text text-anchor="start" x="226" y="-707.2" font-family="Helvetica,sans-Serif" font-size="11.00">varchar[20]</text>
<polygon fill="none" stroke="black" points="10,-677 10,-699 223,-699 223,-677 10,-677"/>
<text text-anchor="start" x="30" y="-685.2" font-family="Helvetica,sans-Serif" font-size="11.00">cof_fatorreajuste</text>
<polygon fill="none" stroke="black" points="223,-677 223,-699 306,-699 306,-677 223,-677"/>
<text text-anchor="start" x="226" y="-685.2" font-family="Helvetica,sans-Serif" font-size="11.00">numeric[0]</text>
<polygon fill="none" stroke="black" points="10,-655 10,-677 223,-677 223,-655 10,-655"/>
<text text-anchor="start" x="30" y="-663.2" font-family="Helvetica,sans-Serif" font-size="11.00">paymentrule</text>
<polygon fill="none" stroke="black" points="223,-655 223,-677 306,-677 306,-655 223,-655"/>
<text text-anchor="start" x="226" y="-663.2" font-family="Helvetica,sans-Serif" font-size="11.00">bpchar[1]</text>
<polygon fill="none" stroke="black" points="10,-633 10,-655 223,-655 223,-633 10,-633"/>
<text text-anchor="start" x="30" y="-641.2" font-family="Helvetica,sans-Serif" font-size="11.00">invoicerule</text>
<polygon fill="none" stroke="black" points="223,-633 223,-655 306,-655 306,-633 223,-633"/>
<text text-anchor="start" x="226" y="-641.2" font-family="Helvetica,sans-Serif" font-size="11.00">bpchar[1]</text>
<polygon fill="none" stroke="black" points="10,-611 10,-633 223,-633 223,-611 10,-611"/>
<text text-anchor="start" x="30" y="-619.2" font-family="Helvetica,sans-Serif" font-size="11.00">deliveryrule</text>
<polygon fill="none" stroke="black" points="223,-611 223,-633 306,-633 306,-611 223,-611"/>
<text text-anchor="start" x="226" y="-619.2" font-family="Helvetica,sans-Serif" font-size="11.00">bpchar[1]</text>
<polygon fill="none" stroke="black" points="10,-589 10,-611 223,-611 223,-589 10,-589"/>
<text text-anchor="start" x="30" y="-597.2" font-family="Helvetica,sans-Serif" font-size="11.00">cof_dataemissao</text>
<polygon fill="none" stroke="black" points="223,-589 223,-611 306,-611 306,-589 223,-589"/>
<text text-anchor="start" x="226" y="-597.2" font-family="Helvetica,sans-Serif" font-size="11.00">timestamp[29,6]</text>
<polygon fill="none" stroke="black" points="10,-567 10,-589 223,-589 223,-567 10,-567"/>
<text text-anchor="start" x="30" y="-575.2" font-family="Helvetica,sans-Serif" font-size="11.00">cof_aditivocontrato</text>
<polygon fill="none" stroke="black" points="223,-567 223,-589 306,-589 306,-567 223,-567"/>
<text text-anchor="start" x="226" y="-575.2" font-family="Helvetica,sans-Serif" font-size="11.00">bpchar[1]</text>
<polygon fill="none" stroke="black" points="10,-545 10,-567 223,-567 223,-545 10,-545"/>
<text text-anchor="start" x="30" y="-553.2" font-family="Helvetica,sans-Serif" font-size="11.00">cof_contractoriginal_id</text>
<polygon fill="none" stroke="black" points="223,-545 223,-567 306,-567 306,-545 223,-545"/>
<text text-anchor="start" x="226" y="-553.2" font-family="Helvetica,sans-Serif" font-size="11.00">numeric[10]</text>
<polygon fill="none" stroke="black" points="10,-523 10,-545 223,-545 223,-523 10,-523"/>
<text text-anchor="start" x="30" y="-531.2" font-family="Helvetica,sans-Serif" font-size="11.00">cof_testemunha1</text>
<polygon fill="none" stroke="black" points="223,-523 223,-545 306,-545 306,-523 223,-523"/>
<text text-anchor="start" x="226" y="-531.2" font-family="Helvetica,sans-Serif" font-size="11.00">varchar[255]</text>
<polygon fill="none" stroke="black" points="10,-501 10,-523 223,-523 223,-501 10,-501"/>
<text text-anchor="start" x="30" y="-509.2" font-family="Helvetica,sans-Serif" font-size="11.00">cof_testemunha2</text>
<polygon fill="none" stroke="black" points="223,-501 223,-523 306,-523 306,-501 223,-501"/>
<text text-anchor="start" x="226" y="-509.2" font-family="Helvetica,sans-Serif" font-size="11.00">varchar[255]</text>
<polygon fill="none" stroke="black" points="10,-479 10,-501 223,-501 223,-479 10,-479"/>
<text text-anchor="start" x="30" y="-487.2" font-family="Helvetica,sans-Serif" font-size="11.00">cof_documentotestemunha1</text>
<polygon fill="none" stroke="black" points="223,-479 223,-501 306,-501 306,-479 223,-479"/>
<text text-anchor="start" x="226" y="-487.2" font-family="Helvetica,sans-Serif" font-size="11.00">varchar[255]</text>
<polygon fill="none" stroke="black" points="10,-457 10,-479 223,-479 223,-457 10,-457"/>
<text text-anchor="start" x="30" y="-465.2" font-family="Helvetica,sans-Serif" font-size="11.00">cof_documentotestemunha2</text>
<polygon fill="none" stroke="black" points="223,-457 223,-479 306,-479 306,-457 223,-457"/>
<text text-anchor="start" x="226" y="-465.2" font-family="Helvetica,sans-Serif" font-size="11.00">varchar[255]</text>
<polygon fill="none" stroke="black" points="10,-435 10,-457 223,-457 223,-435 10,-435"/>
<text text-anchor="start" x="30" y="-443.2" font-family="Helvetica,sans-Serif" font-size="11.00">cof_documentoresponsavel1</text>
<polygon fill="none" stroke="black" points="223,-435 223,-457 306,-457 306,-435 223,-435"/>
<text text-anchor="start" x="226" y="-443.2" font-family="Helvetica,sans-Serif" font-size="11.00">varchar[255]</text>
<polygon fill="none" stroke="black" points="10,-413 10,-435 223,-435 223,-413 10,-413"/>
<text text-anchor="start" x="30" y="-421.2" font-family="Helvetica,sans-Serif" font-size="11.00">cof_documentoresponsavel2</text>
<polygon fill="none" stroke="black" points="223,-413 223,-435 306,-435 306,-413 223,-413"/>
<text text-anchor="start" x="226" y="-421.2" font-family="Helvetica,sans-Serif" font-size="11.00">varchar[255]</text>
<polygon fill="none" stroke="black" points="10,-391 10,-413 223,-413 223,-391 10,-391"/>
<text text-anchor="start" x="30" y="-399.2" font-family="Helvetica,sans-Serif" font-size="11.00">cof_responsavel2</text>
<polygon fill="none" stroke="black" points="223,-391 223,-413 306,-413 306,-391 223,-391"/>
<text text-anchor="start" x="226" y="-399.2" font-family="Helvetica,sans-Serif" font-size="11.00">varchar[255]</text>
<polygon fill="none" stroke="black" points="10,-369 10,-391 223,-391 223,-369 10,-369"/>
<text text-anchor="start" x="30" y="-377.2" font-family="Helvetica,sans-Serif" font-size="11.00">cof_responsavel1</text>
<polygon fill="none" stroke="black" points="223,-369 223,-391 306,-391 306,-369 223,-369"/>
<text text-anchor="start" x="226" y="-377.2" font-family="Helvetica,sans-Serif" font-size="11.00">varchar[255]</text>
<polygon fill="none" stroke="black" points="10,-347 10,-369 223,-369 223,-347 10,-347"/>
<image xlink:href="../../images/foreignKeys.png" width="11px" height="12px" preserveAspectRatio="xMinYMin meet" x="15" y="-364"/>
<text text-anchor="start" x="30" y="-355.2" font-family="Helvetica,sans-Serif" font-size="11.00">c_doctype_id</text>
<polygon fill="none" stroke="black" points="223,-347 223,-369 306,-369 306,-347 223,-347"/>
<text text-anchor="start" x="226" y="-355.2" font-family="Helvetica,sans-Serif" font-size="11.00">numeric[10]</text>
<polygon fill="none" stroke="black" points="10,-325 10,-347 223,-347 223,-325 10,-325"/>
<text text-anchor="start" x="30" y="-333.2" font-family="Helvetica,sans-Serif" font-size="11.00">cof_numerorevisao</text>
<polygon fill="none" stroke="black" points="223,-325 223,-347 306,-347 306,-325 223,-325"/>
<text text-anchor="start" x="226" y="-333.2" font-family="Helvetica,sans-Serif" font-size="11.00">numeric[10]</text>
<polygon fill="none" stroke="black" points="10,-303 10,-325 223,-325 223,-303 10,-303"/>
<image xlink:href="../../images/foreignKeys.png" width="11px" height="12px" preserveAspectRatio="xMinYMin meet" x="15" y="-320"/>
<text text-anchor="start" x="30" y="-311.2" font-family="Helvetica,sans-Serif" font-size="11.00">cof_products_id</text>
<polygon fill="none" stroke="black" points="223,-303 223,-325 306,-325 306,-303 223,-303"/>
<text text-anchor="start" x="226" y="-311.2" font-family="Helvetica,sans-Serif" font-size="11.00">numeric[10]</text>
<polygon fill="none" stroke="black" points="10,-281 10,-303 223,-303 223,-281 10,-281"/>
<text text-anchor="start" x="30" y="-289.2" font-family="Helvetica,sans-Serif" font-size="11.00">isactiveline</text>
<polygon fill="none" stroke="black" points="223,-281 223,-303 306,-303 306,-281 223,-281"/>
<text text-anchor="start" x="226" y="-289.2" font-family="Helvetica,sans-Serif" font-size="11.00">bpchar[1]</text>
<polygon fill="none" stroke="black" points="10,-259 10,-281 223,-281 223,-259 10,-259"/>
<image xlink:href="../../images/foreignKeys.png" width="11px" height="12px" preserveAspectRatio="xMinYMin meet" x="15" y="-276"/>
<text text-anchor="start" x="30" y="-267.2" font-family="Helvetica,sans-Serif" font-size="11.00">m_product_id</text>
<polygon fill="none" stroke="black" points="223,-259 223,-281 306,-281 306,-259 223,-259"/>
<text text-anchor="start" x="226" y="-267.2" font-family="Helvetica,sans-Serif" font-size="11.00">numeric[10]</text>
<polygon fill="none" stroke="black" points="10,-237 10,-259 223,-259 223,-237 10,-237"/>
<text text-anchor="start" x="30" y="-245.2" font-family="Helvetica,sans-Serif" font-size="11.00">qty</text>
<polygon fill="none" stroke="black" points="223,-237 223,-259 306,-259 306,-237 223,-237"/>
<text text-anchor="start" x="226" y="-245.2" font-family="Helvetica,sans-Serif" font-size="11.00">numeric[0]</text>
<polygon fill="none" stroke="black" points="10,-215 10,-237 223,-237 223,-215 10,-215"/>
<image xlink:href="../../images/foreignKeys.png" width="11px" height="12px" preserveAspectRatio="xMinYMin meet" x="15" y="-232"/>
<text text-anchor="start" x="30" y="-223.2" font-family="Helvetica,sans-Serif" font-size="11.00">m_productprice_id</text>
<polygon fill="none" stroke="black" points="223,-215 223,-237 306,-237 306,-215 223,-215"/>
<text text-anchor="start" x="226" y="-223.2" font-family="Helvetica,sans-Serif" font-size="11.00">numeric[10]</text>
<polygon fill="none" stroke="black" points="10,-193 10,-215 223,-215 223,-193 10,-193"/>
<text text-anchor="start" x="30" y="-201.2" font-family="Helvetica,sans-Serif" font-size="11.00">totalprice</text>
<polygon fill="none" stroke="black" points="223,-193 223,-215 306,-215 306,-193 223,-193"/>
<text text-anchor="start" x="226" y="-201.2" font-family="Helvetica,sans-Serif" font-size="11.00">numeric[0]</text>
<polygon fill="none" stroke="black" points="10,-171 10,-193 223,-193 223,-171 10,-171"/>
<text text-anchor="start" x="30" y="-179.2" font-family="Helvetica,sans-Serif" font-size="11.00">discount</text>
<polygon fill="none" stroke="black" points="223,-171 223,-193 306,-193 306,-171 223,-171"/>
<text text-anchor="start" x="226" y="-179.2" font-family="Helvetica,sans-Serif" font-size="11.00">numeric[0]</text>
<polygon fill="none" stroke="black" points="10,-149 10,-171 223,-171 223,-149 10,-149"/>
<text text-anchor="start" x="30" y="-157.2" font-family="Helvetica,sans-Serif" font-size="11.00">balance</text>
<polygon fill="none" stroke="black" points="223,-149 223,-171 306,-171 306,-149 223,-149"/>
<text text-anchor="start" x="226" y="-157.2" font-family="Helvetica,sans-Serif" font-size="11.00">numeric[0]</text>
<polygon fill="none" stroke="black" points="10,-127 10,-149 223,-149 223,-127 10,-127"/>
<text text-anchor="start" x="30" y="-135.2" font-family="Helvetica,sans-Serif" font-size="11.00">priceactual</text>
<polygon fill="none" stroke="black" points="223,-127 223,-149 306,-149 306,-127 223,-127"/>
<text text-anchor="start" x="226" y="-135.2" font-family="Helvetica,sans-Serif" font-size="11.00">numeric[0]</text>
<polygon fill="none" stroke="black" points="10,-105 10,-127 223,-127 223,-105 10,-105"/>
<image xlink:href="../../images/foreignKeys.png" width="11px" height="12px" preserveAspectRatio="xMinYMin meet" x="15" y="-122"/>
<text text-anchor="start" x="30" y="-113.2" font-family="Helvetica,sans-Serif" font-size="11.00">m_pricelist_version_id</text>
<polygon fill="none" stroke="black" points="223,-105 223,-127 306,-127 306,-105 223,-105"/>
<text text-anchor="start" x="226" y="-113.2" font-family="Helvetica,sans-Serif" font-size="11.00">numeric[10]</text>
<polygon fill="none" stroke="black" points="10,-83 10,-105 223,-105 223,-83 10,-83"/>
<text text-anchor="start" x="30" y="-91.2" font-family="Helvetica,sans-Serif" font-size="11.00">cof_guarantee</text>
<polygon fill="none" stroke="black" points="223,-83 223,-105 306,-105 306,-83 223,-83"/>
<text text-anchor="start" x="226" y="-91.2" font-family="Helvetica,sans-Serif" font-size="11.00">varchar[40]</text>
<polygon fill="none" stroke="black" points="10,-61 10,-83 223,-83 223,-61 10,-61"/>
<text text-anchor="start" x="30" y="-69.2" font-family="Helvetica,sans-Serif" font-size="11.00">cof_saldofaturar</text>
<polygon fill="none" stroke="black" points="223,-61 223,-83 306,-83 306,-61 223,-61"/>
<text text-anchor="start" x="226" y="-69.2" font-family="Helvetica,sans-Serif" font-size="11.00">numeric[0]</text>
<polygon fill="none" stroke="black" points="10,-39 10,-61 223,-61 223,-39 10,-39"/>
<image xlink:href="../../images/foreignKeys.png" width="11px" height="12px" preserveAspectRatio="xMinYMin meet" x="15" y="-56"/>
<text text-anchor="start" x="30" y="-47.2" font-family="Helvetica,sans-Serif" font-size="11.00">a_asset_id</text>
<polygon fill="none" stroke="black" points="223,-39 223,-61 306,-61 306,-39 223,-39"/>
<text text-anchor="start" x="226" y="-47.2" font-family="Helvetica,sans-Serif" font-size="11.00">numeric[10]</text>
<polygon fill="none" stroke="black" stroke-width="2" points="9,-38 9,-1382 307,-1382 307,-38 9,-38"/>
</a>
</g>
</g>
</g>
</svg>
