<?xml version="1.0" encoding="UTF-8" standalone="no"?>
<!DOCTYPE svg PUBLIC "-//W3C//DTD SVG 1.1//EN"
 "http://www.w3.org/Graphics/SVG/1.1/DTD/svg11.dtd">
<!-- Generated by graphviz version 2.43.0 (0)
 -->
<!-- Title: oneDegreeRelationshipsDiagram Pages: 1 -->
<svg width="544pt" height="423pt"
 viewBox="0.00 0.00 544.00 423.00" xmlns="http://www.w3.org/2000/svg" xmlns:xlink="http://www.w3.org/1999/xlink">
<g id="graph0" class="graph" transform="scale(1 1) rotate(0) translate(4 419)">
<title>oneDegreeRelationshipsDiagram</title>
<polygon fill="#ffffff" stroke="transparent" points="-4,4 -4,-419 540,-419 540,4 -4,4"/>
<text text-anchor="middle" x="71.5" y="-7.2" font-family="Helvetica,sans-Serif" font-size="11.00">Generated by SchemaSpy</text>
<!-- exp_processorparameter -->
<g id="node1" class="node">
<title>exp_processorparameter</title>
<g id="a_node1"><a xlink:href="../../tables/exp_processorparameter.html" xlink:title="exp_processorparameter" target="_top">
<polygon fill="#ffffff" stroke="transparent" points="229,-37 229,-411 528,-411 528,-37 229,-37"/>
<polygon fill="#f5f5f5" stroke="transparent" points="231.5,-387 231.5,-409 526.5,-409 526.5,-387 231.5,-387"/>
<polygon fill="none" stroke="black" points="231.5,-387 231.5,-409 526.5,-409 526.5,-387 231.5,-387"/>
<text text-anchor="start" x="236.5" y="-396.2" font-family="Helvetica,sans-Serif" font-weight="bold" font-size="11.00">exp_processorparameter</text>
<text text-anchor="start" x="491.5" y="-395.2" font-family="Helvetica,sans-Serif" font-size="11.00">[table]</text>
<polygon fill="none" stroke="black" points="231.5,-365 231.5,-387 443.5,-387 443.5,-365 231.5,-365"/>
<image xlink:href="../../images/primaryKeys.png" width="11px" height="12px" preserveAspectRatio="xMinYMin meet" x="236.5" y="-382"/>
<text text-anchor="start" x="251.5" y="-373.2" font-family="Helvetica,sans-Serif" font-size="11.00">exp_processorparameter_id</text>
<polygon fill="none" stroke="black" points="443.5,-365 443.5,-387 526.5,-387 526.5,-365 443.5,-365"/>
<text text-anchor="start" x="446.5" y="-373.2" font-family="Helvetica,sans-Serif" font-size="11.00">numeric[10]</text>
<polygon fill="none" stroke="black" points="231.5,-343 231.5,-365 443.5,-365 443.5,-343 231.5,-343"/>
<image xlink:href="../../images/foreignKeys.png" width="11px" height="12px" preserveAspectRatio="xMinYMin meet" x="236.5" y="-360"/>
<text text-anchor="start" x="251.5" y="-351.2" font-family="Helvetica,sans-Serif" font-size="11.00">exp_processor_id</text>
<polygon fill="none" stroke="black" points="443.5,-343 443.5,-365 526.5,-365 526.5,-343 443.5,-343"/>
<text text-anchor="start" x="446.5" y="-351.2" font-family="Helvetica,sans-Serif" font-size="11.00">numeric[10]</text>
<polygon fill="none" stroke="black" points="231.5,-321 231.5,-343 443.5,-343 443.5,-321 231.5,-321"/>
<text text-anchor="start" x="251.5" y="-329.2" font-family="Helvetica,sans-Serif" font-size="11.00">ad_client_id</text>
<polygon fill="none" stroke="black" points="443.5,-321 443.5,-343 526.5,-343 526.5,-321 443.5,-321"/>
<text text-anchor="start" x="446.5" y="-329.2" font-family="Helvetica,sans-Serif" font-size="11.00">numeric[10]</text>
<polygon fill="none" stroke="black" points="231.5,-299 231.5,-321 443.5,-321 443.5,-299 231.5,-299"/>
<text text-anchor="start" x="251.5" y="-307.2" font-family="Helvetica,sans-Serif" font-size="11.00">ad_org_id</text>
<polygon fill="none" stroke="black" points="443.5,-299 443.5,-321 526.5,-321 526.5,-299 443.5,-299"/>
<text text-anchor="start" x="446.5" y="-307.2" font-family="Helvetica,sans-Serif" font-size="11.00">numeric[10]</text>
<polygon fill="none" stroke="black" points="231.5,-277 231.5,-299 443.5,-299 443.5,-277 231.5,-277"/>
<text text-anchor="start" x="251.5" y="-285.2" font-family="Helvetica,sans-Serif" font-size="11.00">isactive</text>
<polygon fill="none" stroke="black" points="443.5,-277 443.5,-299 526.5,-299 526.5,-277 443.5,-277"/>
<text text-anchor="start" x="446.5" y="-285.2" font-family="Helvetica,sans-Serif" font-size="11.00">bpchar[1]</text>
<polygon fill="none" stroke="black" points="231.5,-255 231.5,-277 443.5,-277 443.5,-255 231.5,-255"/>
<text text-anchor="start" x="251.5" y="-263.2" font-family="Helvetica,sans-Serif" font-size="11.00">created</text>
<polygon fill="none" stroke="black" points="443.5,-255 443.5,-277 526.5,-277 526.5,-255 443.5,-255"/>
<text text-anchor="start" x="446.5" y="-263.2" font-family="Helvetica,sans-Serif" font-size="11.00">timestamp[29,6]</text>
<polygon fill="none" stroke="black" points="231.5,-233 231.5,-255 443.5,-255 443.5,-233 231.5,-233"/>
<text text-anchor="start" x="251.5" y="-241.2" font-family="Helvetica,sans-Serif" font-size="11.00">createdby</text>
<polygon fill="none" stroke="black" points="443.5,-233 443.5,-255 526.5,-255 526.5,-233 443.5,-233"/>
<text text-anchor="start" x="446.5" y="-241.2" font-family="Helvetica,sans-Serif" font-size="11.00">numeric[10]</text>
<polygon fill="none" stroke="black" points="231.5,-211 231.5,-233 443.5,-233 443.5,-211 231.5,-211"/>
<text text-anchor="start" x="251.5" y="-219.2" font-family="Helvetica,sans-Serif" font-size="11.00">updated</text>
<polygon fill="none" stroke="black" points="443.5,-211 443.5,-233 526.5,-233 526.5,-211 443.5,-211"/>
<text text-anchor="start" x="446.5" y="-219.2" font-family="Helvetica,sans-Serif" font-size="11.00">timestamp[29,6]</text>
<polygon fill="none" stroke="black" points="231.5,-189 231.5,-211 443.5,-211 443.5,-189 231.5,-189"/>
<text text-anchor="start" x="251.5" y="-197.2" font-family="Helvetica,sans-Serif" font-size="11.00">updatedby</text>
<polygon fill="none" stroke="black" points="443.5,-189 443.5,-211 526.5,-211 526.5,-189 443.5,-189"/>
<text text-anchor="start" x="446.5" y="-197.2" font-family="Helvetica,sans-Serif" font-size="11.00">numeric[10]</text>
<polygon fill="none" stroke="black" points="231.5,-167 231.5,-189 443.5,-189 443.5,-167 231.5,-167"/>
<text text-anchor="start" x="251.5" y="-175.2" font-family="Helvetica,sans-Serif" font-size="11.00">value</text>
<polygon fill="none" stroke="black" points="443.5,-167 443.5,-189 526.5,-189 526.5,-167 443.5,-167"/>
<text text-anchor="start" x="446.5" y="-175.2" font-family="Helvetica,sans-Serif" font-size="11.00">varchar[40]</text>
<polygon fill="none" stroke="black" points="231.5,-145 231.5,-167 443.5,-167 443.5,-145 231.5,-145"/>
<text text-anchor="start" x="251.5" y="-153.2" font-family="Helvetica,sans-Serif" font-size="11.00">name</text>
<polygon fill="none" stroke="black" points="443.5,-145 443.5,-167 526.5,-167 526.5,-145 443.5,-145"/>
<text text-anchor="start" x="446.5" y="-153.2" font-family="Helvetica,sans-Serif" font-size="11.00">varchar[60]</text>
<polygon fill="none" stroke="black" points="231.5,-123 231.5,-145 443.5,-145 443.5,-123 231.5,-123"/>
<text text-anchor="start" x="251.5" y="-131.2" font-family="Helvetica,sans-Serif" font-size="11.00">description</text>
<polygon fill="none" stroke="black" points="443.5,-123 443.5,-145 526.5,-145 526.5,-123 443.5,-123"/>
<text text-anchor="start" x="446.5" y="-131.2" font-family="Helvetica,sans-Serif" font-size="11.00">varchar[255]</text>
<polygon fill="none" stroke="black" points="231.5,-101 231.5,-123 443.5,-123 443.5,-101 231.5,-101"/>
<text text-anchor="start" x="251.5" y="-109.2" font-family="Helvetica,sans-Serif" font-size="11.00">help</text>
<polygon fill="none" stroke="black" points="443.5,-101 443.5,-123 526.5,-123 526.5,-101 443.5,-101"/>
<text text-anchor="start" x="446.5" y="-109.2" font-family="Helvetica,sans-Serif" font-size="11.00">varchar[2000]</text>
<polygon fill="none" stroke="black" points="231.5,-79 231.5,-101 443.5,-101 443.5,-79 231.5,-79"/>
<text text-anchor="start" x="251.5" y="-87.2" font-family="Helvetica,sans-Serif" font-size="11.00">parametervalue</text>
<polygon fill="none" stroke="black" points="443.5,-79 443.5,-101 526.5,-101 526.5,-79 443.5,-79"/>
<text text-anchor="start" x="446.5" y="-87.2" font-family="Helvetica,sans-Serif" font-size="11.00">varchar[60]</text>
<polygon fill="#ffffff" stroke="transparent" points="231.5,-57 231.5,-79 443.5,-79 443.5,-57 231.5,-57"/>
<polygon fill="none" stroke="black" points="231.5,-57 231.5,-79 443.5,-79 443.5,-57 231.5,-57"/>
<text text-anchor="start" x="251.5" y="-65.2" font-family="Helvetica,sans-Serif" font-size="11.00">exp_processorparameter_uu</text>
<polygon fill="none" stroke="black" points="443.5,-57 443.5,-79 526.5,-79 526.5,-57 443.5,-57"/>
<text text-anchor="start" x="446.5" y="-65.2" font-family="Helvetica,sans-Serif" font-size="11.00">varchar[36]</text>
<polygon fill="#ffffff" stroke="transparent" points="231.5,-39 231.5,-57 328.5,-57 328.5,-39 231.5,-39"/>
<polygon fill="none" stroke="black" points="231.5,-39 231.5,-57 328.5,-57 328.5,-39 231.5,-39"/>
<text text-anchor="start" x="234.5" y="-45.2" font-family="Helvetica,sans-Serif" font-size="11.00">&lt; 1</text>
<polygon fill="#ffffff" stroke="transparent" points="328.5,-39 328.5,-57 443.5,-57 443.5,-39 328.5,-39"/>
<polygon fill="none" stroke="black" points="328.5,-39 328.5,-57 443.5,-57 443.5,-39 328.5,-39"/>
<text text-anchor="start" x="407.5" y="-45.2" font-family="Helvetica,sans-Serif" font-size="11.00">0 rows</text>
<polygon fill="#ffffff" stroke="transparent" points="443.5,-39 443.5,-57 526.5,-57 526.5,-39 443.5,-39"/>
<polygon fill="none" stroke="black" points="443.5,-39 443.5,-57 526.5,-57 526.5,-39 443.5,-39"/>
<text text-anchor="start" x="507.5" y="-45.2" font-family="Helvetica,sans-Serif" font-size="11.00">0 &gt;</text>
<polygon fill="none" stroke="black" stroke-width="2" points="230,-38 230,-410 527,-410 527,-38 230,-38"/>
</a>
</g>
</g>
<!-- exp_processor -->
<g id="node2" class="node">
<title>exp_processor</title>
<g id="a_node2"><a xlink:href="../../tables/exp_processor.html" xlink:title="exp_processor" target="_top">
<polygon fill="#ffffff" stroke="transparent" points="8,-263 8,-387 180,-387 180,-263 8,-263"/>
<polygon fill="#f5f5f5" stroke="transparent" points="8,-365 8,-387 180,-387 180,-365 8,-365"/>
<polygon fill="none" stroke="black" points="8,-365 8,-387 180,-387 180,-365 8,-365"/>
<text text-anchor="start" x="13" y="-374.2" font-family="Helvetica,sans-Serif" font-weight="bold" font-size="11.00">exp_processor</text>
<text text-anchor="start" x="145" y="-373.2" font-family="Helvetica,sans-Serif" font-size="11.00">[table]</text>
<polygon fill="none" stroke="black" points="8,-343 8,-365 180,-365 180,-343 8,-343"/>
<image xlink:href="../../images/primaryKeys.png" width="11px" height="12px" preserveAspectRatio="xMinYMin meet" x="13" y="-360"/>
<text text-anchor="start" x="28" y="-351.2" font-family="Helvetica,sans-Serif" font-size="11.00">exp_processor_id</text>
<polygon fill="none" stroke="black" points="8,-321 8,-343 180,-343 180,-321 8,-321"/>
<image xlink:href="../../images/foreignKeys.png" width="11px" height="12px" preserveAspectRatio="xMinYMin meet" x="13" y="-338"/>
<text text-anchor="start" x="28" y="-329.2" font-family="Helvetica,sans-Serif" font-size="11.00">exp_processor_type_id</text>
<polygon fill="#ffffff" stroke="transparent" points="8,-299 8,-321 180,-321 180,-299 8,-299"/>
<polygon fill="none" stroke="black" points="8,-299 8,-321 180,-321 180,-299 8,-299"/>
<text text-anchor="start" x="28" y="-307.2" font-family="Helvetica,sans-Serif" font-size="11.00">exp_processor_uu</text>
<polygon fill="none" stroke="black" points="8,-281 8,-299 180,-299 180,-281 8,-281"/>
<text text-anchor="start" x="11" y="-287.2" font-family="Helvetica,sans-Serif" font-size="11.00">...</text>
<polygon fill="#ffffff" stroke="transparent" points="8,-263 8,-281 74,-281 74,-263 8,-263"/>
<polygon fill="none" stroke="black" points="8,-263 8,-281 74,-281 74,-263 8,-263"/>
<text text-anchor="start" x="11" y="-269.2" font-family="Helvetica,sans-Serif" font-size="11.00">&lt; 1</text>
<polygon fill="#ffffff" stroke="transparent" points="74,-263 74,-281 135,-281 135,-263 74,-263"/>
<polygon fill="none" stroke="black" points="74,-263 74,-281 135,-281 135,-263 74,-263"/>
<text text-anchor="start" x="99" y="-269.2" font-family="Helvetica,sans-Serif" font-size="11.00">0 rows</text>
<polygon fill="#ffffff" stroke="transparent" points="135,-263 135,-281 180,-281 180,-263 135,-263"/>
<polygon fill="none" stroke="black" points="135,-263 135,-281 180,-281 180,-263 135,-263"/>
<text text-anchor="start" x="161" y="-269.2" font-family="Helvetica,sans-Serif" font-size="11.00">2 &gt;</text>
</a>
</g>
</g>
<!-- exp_processorparameter&#45;&gt;exp_processor -->
<g id="edge1" class="edge">
<title>exp_processorparameter:w&#45;&gt;exp_processor:e</title>
<path fill="none" stroke="black" d="M215.84,-354C204.41,-354 197.16,-354 181,-354"/>
<polygon fill="black" stroke="black" points="222.5,-354 230.5,-357.6 226.5,-354 230.5,-354 230.5,-354 230.5,-354 226.5,-354 230.5,-350.4 222.5,-354 222.5,-354"/>
<ellipse fill="none" stroke="black" cx="219.3" cy="-354" rx="3.2" ry="3.2"/>
</g>
</g>
</svg>
