<?xml version="1.0" encoding="UTF-8" standalone="no"?>
<!DOCTYPE svg PUBLIC "-//W3C//DTD SVG 1.1//EN"
 "http://www.w3.org/Graphics/SVG/1.1/DTD/svg11.dtd">
<!-- Generated by graphviz version 2.43.0 (0)
 -->
<!-- Title: oneDegreeRelationshipsDiagram Pages: 1 -->
<svg width="727pt" height="1349pt"
 viewBox="0.00 0.00 727.00 1349.00" xmlns="http://www.w3.org/2000/svg" xmlns:xlink="http://www.w3.org/1999/xlink">
<g id="graph0" class="graph" transform="scale(1 1) rotate(0) translate(4 1345)">
<title>oneDegreeRelationshipsDiagram</title>
<polygon fill="#ffffff" stroke="transparent" points="-4,4 -4,-1345 723,-1345 723,4 -4,4"/>
<text text-anchor="middle" x="71.5" y="-7.2" font-family="Helvetica,sans-Serif" font-size="11.00">Generated by SchemaSpy</text>
<!-- c_validcombination -->
<g id="node1" class="node">
<title>c_validcombination</title>
<g id="a_node1"><a xlink:href="../../tables/c_validcombination.html" xlink:title="c_validcombination" target="_top">
<polygon fill="#ffffff" stroke="transparent" points="247,-258 247,-778 420,-778 420,-258 247,-258"/>
<polygon fill="#f5f5f5" stroke="transparent" points="247.5,-756 247.5,-778 420.5,-778 420.5,-756 247.5,-756"/>
<polygon fill="none" stroke="black" points="247.5,-756 247.5,-778 420.5,-778 420.5,-756 247.5,-756"/>
<text text-anchor="start" x="252.5" y="-765.2" font-family="Helvetica,sans-Serif" font-weight="bold" font-size="11.00">c_validcombination</text>
<text text-anchor="start" x="385.5" y="-764.2" font-family="Helvetica,sans-Serif" font-size="11.00">[table]</text>
<polygon fill="none" stroke="black" points="247.5,-734 247.5,-756 420.5,-756 420.5,-734 247.5,-734"/>
<image xlink:href="../../images/primaryKeys.png" width="11px" height="12px" preserveAspectRatio="xMinYMin meet" x="252.5" y="-751"/>
<text text-anchor="start" x="267.5" y="-742.2" font-family="Helvetica,sans-Serif" font-size="11.00">c_validcombination_id</text>
<polygon fill="#ffffff" stroke="transparent" points="247.5,-712 247.5,-734 420.5,-734 420.5,-712 247.5,-712"/>
<polygon fill="none" stroke="black" points="247.5,-712 247.5,-734 420.5,-734 420.5,-712 247.5,-712"/>
<image xlink:href="../../images/foreignKeys.png" width="11px" height="12px" preserveAspectRatio="xMinYMin meet" x="252.5" y="-729"/>
<text text-anchor="start" x="267.5" y="-720.2" font-family="Helvetica,sans-Serif" font-size="11.00">ad_client_id</text>
<polygon fill="#ffffff" stroke="transparent" points="247.5,-690 247.5,-712 420.5,-712 420.5,-690 247.5,-690"/>
<polygon fill="none" stroke="black" points="247.5,-690 247.5,-712 420.5,-712 420.5,-690 247.5,-690"/>
<image xlink:href="../../images/foreignKeys.png" width="11px" height="12px" preserveAspectRatio="xMinYMin meet" x="252.5" y="-707"/>
<text text-anchor="start" x="267.5" y="-698.2" font-family="Helvetica,sans-Serif" font-size="11.00">ad_org_id</text>
<polygon fill="#ffffff" stroke="transparent" points="247.5,-668 247.5,-690 420.5,-690 420.5,-668 247.5,-668"/>
<polygon fill="none" stroke="black" points="247.5,-668 247.5,-690 420.5,-690 420.5,-668 247.5,-668"/>
<text text-anchor="start" x="267.5" y="-676.2" font-family="Helvetica,sans-Serif" font-size="11.00">alias</text>
<polygon fill="#ffffff" stroke="transparent" points="247.5,-646 247.5,-668 420.5,-668 420.5,-646 247.5,-646"/>
<polygon fill="none" stroke="black" points="247.5,-646 247.5,-668 420.5,-668 420.5,-646 247.5,-646"/>
<image xlink:href="../../images/foreignKeys.png" width="11px" height="12px" preserveAspectRatio="xMinYMin meet" x="252.5" y="-663"/>
<text text-anchor="start" x="267.5" y="-654.2" font-family="Helvetica,sans-Serif" font-size="11.00">c_acctschema_id</text>
<polygon fill="#ffffff" stroke="transparent" points="247.5,-624 247.5,-646 420.5,-646 420.5,-624 247.5,-624"/>
<polygon fill="none" stroke="black" points="247.5,-624 247.5,-646 420.5,-646 420.5,-624 247.5,-624"/>
<image xlink:href="../../images/foreignKeys.png" width="11px" height="12px" preserveAspectRatio="xMinYMin meet" x="252.5" y="-641"/>
<text text-anchor="start" x="267.5" y="-632.2" font-family="Helvetica,sans-Serif" font-size="11.00">account_id</text>
<polygon fill="#ffffff" stroke="transparent" points="247.5,-602 247.5,-624 420.5,-624 420.5,-602 247.5,-602"/>
<polygon fill="none" stroke="black" points="247.5,-602 247.5,-624 420.5,-624 420.5,-602 247.5,-602"/>
<image xlink:href="../../images/foreignKeys.png" width="11px" height="12px" preserveAspectRatio="xMinYMin meet" x="252.5" y="-619"/>
<text text-anchor="start" x="267.5" y="-610.2" font-family="Helvetica,sans-Serif" font-size="11.00">m_product_id</text>
<polygon fill="#ffffff" stroke="transparent" points="247.5,-580 247.5,-602 420.5,-602 420.5,-580 247.5,-580"/>
<polygon fill="none" stroke="black" points="247.5,-580 247.5,-602 420.5,-602 420.5,-580 247.5,-580"/>
<image xlink:href="../../images/foreignKeys.png" width="11px" height="12px" preserveAspectRatio="xMinYMin meet" x="252.5" y="-597"/>
<text text-anchor="start" x="267.5" y="-588.2" font-family="Helvetica,sans-Serif" font-size="11.00">c_bpartner_id</text>
<polygon fill="#ffffff" stroke="transparent" points="247.5,-558 247.5,-580 420.5,-580 420.5,-558 247.5,-558"/>
<polygon fill="none" stroke="black" points="247.5,-558 247.5,-580 420.5,-580 420.5,-558 247.5,-558"/>
<image xlink:href="../../images/foreignKeys.png" width="11px" height="12px" preserveAspectRatio="xMinYMin meet" x="252.5" y="-575"/>
<text text-anchor="start" x="267.5" y="-566.2" font-family="Helvetica,sans-Serif" font-size="11.00">ad_orgtrx_id</text>
<polygon fill="#ffffff" stroke="transparent" points="247.5,-536 247.5,-558 420.5,-558 420.5,-536 247.5,-536"/>
<polygon fill="none" stroke="black" points="247.5,-536 247.5,-558 420.5,-558 420.5,-536 247.5,-536"/>
<image xlink:href="../../images/foreignKeys.png" width="11px" height="12px" preserveAspectRatio="xMinYMin meet" x="252.5" y="-553"/>
<text text-anchor="start" x="267.5" y="-544.2" font-family="Helvetica,sans-Serif" font-size="11.00">c_locfrom_id</text>
<polygon fill="#ffffff" stroke="transparent" points="247.5,-514 247.5,-536 420.5,-536 420.5,-514 247.5,-514"/>
<polygon fill="none" stroke="black" points="247.5,-514 247.5,-536 420.5,-536 420.5,-514 247.5,-514"/>
<image xlink:href="../../images/foreignKeys.png" width="11px" height="12px" preserveAspectRatio="xMinYMin meet" x="252.5" y="-531"/>
<text text-anchor="start" x="267.5" y="-522.2" font-family="Helvetica,sans-Serif" font-size="11.00">c_locto_id</text>
<polygon fill="#ffffff" stroke="transparent" points="247.5,-492 247.5,-514 420.5,-514 420.5,-492 247.5,-492"/>
<polygon fill="none" stroke="black" points="247.5,-492 247.5,-514 420.5,-514 420.5,-492 247.5,-492"/>
<image xlink:href="../../images/foreignKeys.png" width="11px" height="12px" preserveAspectRatio="xMinYMin meet" x="252.5" y="-509"/>
<text text-anchor="start" x="267.5" y="-500.2" font-family="Helvetica,sans-Serif" font-size="11.00">c_salesregion_id</text>
<polygon fill="#ffffff" stroke="transparent" points="247.5,-470 247.5,-492 420.5,-492 420.5,-470 247.5,-470"/>
<polygon fill="none" stroke="black" points="247.5,-470 247.5,-492 420.5,-492 420.5,-470 247.5,-470"/>
<image xlink:href="../../images/foreignKeys.png" width="11px" height="12px" preserveAspectRatio="xMinYMin meet" x="252.5" y="-487"/>
<text text-anchor="start" x="267.5" y="-478.2" font-family="Helvetica,sans-Serif" font-size="11.00">c_project_id</text>
<polygon fill="#ffffff" stroke="transparent" points="247.5,-448 247.5,-470 420.5,-470 420.5,-448 247.5,-448"/>
<polygon fill="none" stroke="black" points="247.5,-448 247.5,-470 420.5,-470 420.5,-448 247.5,-448"/>
<image xlink:href="../../images/foreignKeys.png" width="11px" height="12px" preserveAspectRatio="xMinYMin meet" x="252.5" y="-465"/>
<text text-anchor="start" x="267.5" y="-456.2" font-family="Helvetica,sans-Serif" font-size="11.00">c_campaign_id</text>
<polygon fill="#ffffff" stroke="transparent" points="247.5,-426 247.5,-448 420.5,-448 420.5,-426 247.5,-426"/>
<polygon fill="none" stroke="black" points="247.5,-426 247.5,-448 420.5,-448 420.5,-426 247.5,-426"/>
<image xlink:href="../../images/foreignKeys.png" width="11px" height="12px" preserveAspectRatio="xMinYMin meet" x="252.5" y="-443"/>
<text text-anchor="start" x="267.5" y="-434.2" font-family="Helvetica,sans-Serif" font-size="11.00">c_activity_id</text>
<polygon fill="#ffffff" stroke="transparent" points="247.5,-404 247.5,-426 420.5,-426 420.5,-404 247.5,-404"/>
<polygon fill="none" stroke="black" points="247.5,-404 247.5,-426 420.5,-426 420.5,-404 247.5,-404"/>
<image xlink:href="../../images/foreignKeys.png" width="11px" height="12px" preserveAspectRatio="xMinYMin meet" x="252.5" y="-421"/>
<text text-anchor="start" x="267.5" y="-412.2" font-family="Helvetica,sans-Serif" font-size="11.00">user1_id</text>
<polygon fill="#ffffff" stroke="transparent" points="247.5,-382 247.5,-404 420.5,-404 420.5,-382 247.5,-382"/>
<polygon fill="none" stroke="black" points="247.5,-382 247.5,-404 420.5,-404 420.5,-382 247.5,-382"/>
<image xlink:href="../../images/foreignKeys.png" width="11px" height="12px" preserveAspectRatio="xMinYMin meet" x="252.5" y="-399"/>
<text text-anchor="start" x="267.5" y="-390.2" font-family="Helvetica,sans-Serif" font-size="11.00">user2_id</text>
<polygon fill="#ffffff" stroke="transparent" points="247.5,-360 247.5,-382 420.5,-382 420.5,-360 247.5,-360"/>
<polygon fill="none" stroke="black" points="247.5,-360 247.5,-382 420.5,-382 420.5,-360 247.5,-360"/>
<image xlink:href="../../images/foreignKeys.png" width="11px" height="12px" preserveAspectRatio="xMinYMin meet" x="252.5" y="-377"/>
<text text-anchor="start" x="267.5" y="-368.2" font-family="Helvetica,sans-Serif" font-size="11.00">c_subacct_id</text>
<polygon fill="#ffffff" stroke="transparent" points="247.5,-338 247.5,-360 420.5,-360 420.5,-338 247.5,-338"/>
<polygon fill="none" stroke="black" points="247.5,-338 247.5,-360 420.5,-360 420.5,-338 247.5,-338"/>
<text text-anchor="start" x="267.5" y="-346.2" font-family="Helvetica,sans-Serif" font-size="11.00">userelement1_id</text>
<polygon fill="#ffffff" stroke="transparent" points="247.5,-316 247.5,-338 420.5,-338 420.5,-316 247.5,-316"/>
<polygon fill="none" stroke="black" points="247.5,-316 247.5,-338 420.5,-338 420.5,-316 247.5,-316"/>
<text text-anchor="start" x="267.5" y="-324.2" font-family="Helvetica,sans-Serif" font-size="11.00">userelement2_id</text>
<polygon fill="#ffffff" stroke="transparent" points="247.5,-294 247.5,-316 420.5,-316 420.5,-294 247.5,-294"/>
<polygon fill="none" stroke="black" points="247.5,-294 247.5,-316 420.5,-316 420.5,-294 247.5,-294"/>
<text text-anchor="start" x="267.5" y="-302.2" font-family="Helvetica,sans-Serif" font-size="11.00">c_validcombination_uu</text>
<polygon fill="none" stroke="black" points="247.5,-276 247.5,-294 420.5,-294 420.5,-276 247.5,-276"/>
<text text-anchor="start" x="250.5" y="-282.2" font-family="Helvetica,sans-Serif" font-size="11.00">...</text>
<polygon fill="#ffffff" stroke="transparent" points="247.5,-258 247.5,-276 305.5,-276 305.5,-258 247.5,-258"/>
<polygon fill="none" stroke="black" points="247.5,-258 247.5,-276 305.5,-276 305.5,-258 247.5,-258"/>
<text text-anchor="start" x="250.5" y="-264.2" font-family="Helvetica,sans-Serif" font-size="11.00">&lt; 16</text>
<polygon fill="#ffffff" stroke="transparent" points="305.5,-258 305.5,-276 371.5,-276 371.5,-258 305.5,-258"/>
<polygon fill="none" stroke="black" points="305.5,-258 305.5,-276 371.5,-276 371.5,-258 305.5,-258"/>
<text text-anchor="start" x="323.5" y="-264.2" font-family="Helvetica,sans-Serif" font-size="11.00">784 rows</text>
<polygon fill="#ffffff" stroke="transparent" points="371.5,-258 371.5,-276 420.5,-276 420.5,-258 371.5,-258"/>
<polygon fill="none" stroke="black" points="371.5,-258 371.5,-276 420.5,-276 420.5,-258 371.5,-258"/>
<text text-anchor="start" x="389.5" y="-264.2" font-family="Helvetica,sans-Serif" font-size="11.00">262 &gt;</text>
</a>
</g>
</g>
<!-- c_elementvalue -->
<g id="node2" class="node">
<title>c_elementvalue</title>
<g id="a_node2"><a xlink:href="../../tables/c_elementvalue.html" xlink:title="c_elementvalue" target="_top">
<polygon fill="#ffffff" stroke="transparent" points="17,-365 17,-643 186,-643 186,-365 17,-365"/>
<polygon fill="#f5f5f5" stroke="transparent" points="17.5,-621 17.5,-643 186.5,-643 186.5,-621 17.5,-621"/>
<polygon fill="none" stroke="black" points="17.5,-621 17.5,-643 186.5,-643 186.5,-621 17.5,-621"/>
<text text-anchor="start" x="22.5" y="-630.2" font-family="Helvetica,sans-Serif" font-weight="bold" font-size="11.00">c_elementvalue</text>
<text text-anchor="start" x="151.5" y="-629.2" font-family="Helvetica,sans-Serif" font-size="11.00">[table]</text>
<polygon fill="none" stroke="black" points="17.5,-599 17.5,-621 186.5,-621 186.5,-599 17.5,-599"/>
<image xlink:href="../../images/primaryKeys.png" width="11px" height="12px" preserveAspectRatio="xMinYMin meet" x="22.5" y="-616"/>
<text text-anchor="start" x="37.5" y="-607.2" font-family="Helvetica,sans-Serif" font-size="11.00">c_elementvalue_id</text>
<polygon fill="none" stroke="black" points="17.5,-577 17.5,-599 186.5,-599 186.5,-577 17.5,-577"/>
<image xlink:href="../../images/foreignKeys.png" width="11px" height="12px" preserveAspectRatio="xMinYMin meet" x="22.5" y="-594"/>
<text text-anchor="start" x="37.5" y="-585.2" font-family="Helvetica,sans-Serif" font-size="11.00">ad_client_id</text>
<polygon fill="none" stroke="black" points="17.5,-555 17.5,-577 186.5,-577 186.5,-555 17.5,-555"/>
<image xlink:href="../../images/foreignKeys.png" width="11px" height="12px" preserveAspectRatio="xMinYMin meet" x="22.5" y="-572"/>
<text text-anchor="start" x="37.5" y="-563.2" font-family="Helvetica,sans-Serif" font-size="11.00">ad_org_id</text>
<polygon fill="#ffffff" stroke="transparent" points="17.5,-533 17.5,-555 186.5,-555 186.5,-533 17.5,-533"/>
<polygon fill="none" stroke="black" points="17.5,-533 17.5,-555 186.5,-555 186.5,-533 17.5,-533"/>
<text text-anchor="start" x="37.5" y="-541.2" font-family="Helvetica,sans-Serif" font-size="11.00">value</text>
<polygon fill="#ffffff" stroke="transparent" points="17.5,-511 17.5,-533 186.5,-533 186.5,-511 17.5,-511"/>
<polygon fill="none" stroke="black" points="17.5,-511 17.5,-533 186.5,-533 186.5,-511 17.5,-511"/>
<text text-anchor="start" x="37.5" y="-519.2" font-family="Helvetica,sans-Serif" font-size="11.00">name</text>
<polygon fill="#ffffff" stroke="transparent" points="17.5,-489 17.5,-511 186.5,-511 186.5,-489 17.5,-489"/>
<polygon fill="none" stroke="black" points="17.5,-489 17.5,-511 186.5,-511 186.5,-489 17.5,-489"/>
<image xlink:href="../../images/foreignKeys.png" width="11px" height="12px" preserveAspectRatio="xMinYMin meet" x="22.5" y="-506"/>
<text text-anchor="start" x="37.5" y="-497.2" font-family="Helvetica,sans-Serif" font-size="11.00">c_element_id</text>
<polygon fill="none" stroke="black" points="17.5,-467 17.5,-489 186.5,-489 186.5,-467 17.5,-467"/>
<image xlink:href="../../images/foreignKeys.png" width="11px" height="12px" preserveAspectRatio="xMinYMin meet" x="22.5" y="-484"/>
<text text-anchor="start" x="37.5" y="-475.2" font-family="Helvetica,sans-Serif" font-size="11.00">c_bankaccount_id</text>
<polygon fill="none" stroke="black" points="17.5,-445 17.5,-467 186.5,-467 186.5,-445 17.5,-445"/>
<image xlink:href="../../images/foreignKeys.png" width="11px" height="12px" preserveAspectRatio="xMinYMin meet" x="22.5" y="-462"/>
<text text-anchor="start" x="37.5" y="-453.2" font-family="Helvetica,sans-Serif" font-size="11.00">c_currency_id</text>
<polygon fill="#ffffff" stroke="transparent" points="17.5,-423 17.5,-445 186.5,-445 186.5,-423 17.5,-423"/>
<polygon fill="none" stroke="black" points="17.5,-423 17.5,-445 186.5,-445 186.5,-423 17.5,-423"/>
<text text-anchor="start" x="37.5" y="-431.2" font-family="Helvetica,sans-Serif" font-size="11.00">c_elementvalue_uu</text>
<polygon fill="none" stroke="black" points="17.5,-401 17.5,-423 186.5,-423 186.5,-401 17.5,-401"/>
<image xlink:href="../../images/foreignKeys.png" width="11px" height="12px" preserveAspectRatio="xMinYMin meet" x="22.5" y="-418"/>
<text text-anchor="start" x="37.5" y="-409.2" font-family="Helvetica,sans-Serif" font-size="11.00">cof_codagl_id</text>
<polygon fill="none" stroke="black" points="17.5,-383 17.5,-401 186.5,-401 186.5,-383 17.5,-383"/>
<text text-anchor="start" x="20.5" y="-389.2" font-family="Helvetica,sans-Serif" font-size="11.00">...</text>
<polygon fill="#ffffff" stroke="transparent" points="17.5,-365 17.5,-383 65.5,-383 65.5,-365 17.5,-365"/>
<polygon fill="none" stroke="black" points="17.5,-365 17.5,-383 65.5,-383 65.5,-365 17.5,-365"/>
<text text-anchor="start" x="20.5" y="-371.2" font-family="Helvetica,sans-Serif" font-size="11.00">&lt; 6</text>
<polygon fill="#ffffff" stroke="transparent" points="65.5,-365 65.5,-383 138.5,-383 138.5,-365 65.5,-365"/>
<polygon fill="none" stroke="black" points="65.5,-365 65.5,-383 138.5,-383 138.5,-365 65.5,-365"/>
<text text-anchor="start" x="81.5" y="-371.2" font-family="Helvetica,sans-Serif" font-size="11.00">1.835 rows</text>
<polygon fill="#ffffff" stroke="transparent" points="138.5,-365 138.5,-383 186.5,-383 186.5,-365 138.5,-365"/>
<polygon fill="none" stroke="black" points="138.5,-365 138.5,-383 186.5,-383 186.5,-365 138.5,-365"/>
<text text-anchor="start" x="155.5" y="-371.2" font-family="Helvetica,sans-Serif" font-size="11.00">108 &gt;</text>
</a>
</g>
</g>
<!-- c_validcombination&#45;&gt;c_elementvalue -->
<g id="edge1" class="edge">
<title>c_validcombination:w&#45;&gt;c_elementvalue:e</title>
<path fill="none" stroke="black" d="M231.97,-632.32C216.1,-625.88 210.19,-610 187.5,-610"/>
<polygon fill="black" stroke="black" points="238.63,-633.55 245.85,-638.54 242.57,-634.28 246.5,-635 246.5,-635 246.5,-635 242.57,-634.28 247.15,-631.46 238.63,-633.55 238.63,-633.55"/>
<ellipse fill="none" stroke="black" cx="235.49" cy="-632.97" rx="3.2" ry="3.2"/>
</g>
<!-- c_validcombination&#45;&gt;c_elementvalue -->
<g id="edge3" class="edge">
<title>c_validcombination:w&#45;&gt;c_elementvalue:e</title>
<path fill="none" stroke="black" d="M231.91,-417.19C170.38,-438.61 272.39,-610 187.5,-610"/>
<polygon fill="black" stroke="black" points="238.59,-416.19 247.03,-418.56 242.54,-415.59 246.5,-415 246.5,-415 246.5,-415 242.54,-415.59 245.97,-411.44 238.59,-416.19 238.59,-416.19"/>
<ellipse fill="none" stroke="black" cx="235.42" cy="-416.66" rx="3.2" ry="3.2"/>
</g>
<!-- c_validcombination&#45;&gt;c_elementvalue -->
<g id="edge4" class="edge">
<title>c_validcombination:w&#45;&gt;c_elementvalue:e</title>
<path fill="none" stroke="black" d="M232.18,-394.88C161.24,-416.09 281.98,-610 187.5,-610"/>
<polygon fill="black" stroke="black" points="238.57,-394.04 246.97,-396.57 242.53,-393.52 246.5,-393 246.5,-393 246.5,-393 242.53,-393.52 246.03,-389.43 238.57,-394.04 238.57,-394.04"/>
<ellipse fill="none" stroke="black" cx="235.39" cy="-394.46" rx="3.2" ry="3.2"/>
</g>
<!-- c_acctschema -->
<g id="node3" class="node">
<title>c_acctschema</title>
<g id="a_node3"><a xlink:href="../../tables/c_acctschema.html" xlink:title="c_acctschema" target="_top">
<polygon fill="#ffffff" stroke="transparent" points="8,-37 8,-293 195,-293 195,-37 8,-37"/>
<polygon fill="#f5f5f5" stroke="transparent" points="8.5,-271 8.5,-293 195.5,-293 195.5,-271 8.5,-271"/>
<polygon fill="none" stroke="black" points="8.5,-271 8.5,-293 195.5,-293 195.5,-271 8.5,-271"/>
<text text-anchor="start" x="13.5" y="-280.2" font-family="Helvetica,sans-Serif" font-weight="bold" font-size="11.00">c_acctschema</text>
<text text-anchor="start" x="160.5" y="-279.2" font-family="Helvetica,sans-Serif" font-size="11.00">[table]</text>
<polygon fill="none" stroke="black" points="8.5,-249 8.5,-271 195.5,-271 195.5,-249 8.5,-249"/>
<image xlink:href="../../images/primaryKeys.png" width="11px" height="12px" preserveAspectRatio="xMinYMin meet" x="13.5" y="-266"/>
<text text-anchor="start" x="28.5" y="-257.2" font-family="Helvetica,sans-Serif" font-size="11.00">c_acctschema_id</text>
<polygon fill="#ffffff" stroke="transparent" points="8.5,-227 8.5,-249 195.5,-249 195.5,-227 8.5,-227"/>
<polygon fill="none" stroke="black" points="8.5,-227 8.5,-249 195.5,-249 195.5,-227 8.5,-227"/>
<image xlink:href="../../images/foreignKeys.png" width="11px" height="12px" preserveAspectRatio="xMinYMin meet" x="13.5" y="-244"/>
<text text-anchor="start" x="28.5" y="-235.2" font-family="Helvetica,sans-Serif" font-size="11.00">ad_client_id</text>
<polygon fill="none" stroke="black" points="8.5,-205 8.5,-227 195.5,-227 195.5,-205 8.5,-205"/>
<image xlink:href="../../images/foreignKeys.png" width="11px" height="12px" preserveAspectRatio="xMinYMin meet" x="13.5" y="-222"/>
<text text-anchor="start" x="28.5" y="-213.2" font-family="Helvetica,sans-Serif" font-size="11.00">ad_org_id</text>
<polygon fill="#ffffff" stroke="transparent" points="8.5,-183 8.5,-205 195.5,-205 195.5,-183 8.5,-183"/>
<polygon fill="none" stroke="black" points="8.5,-183 8.5,-205 195.5,-205 195.5,-183 8.5,-183"/>
<text text-anchor="start" x="28.5" y="-191.2" font-family="Helvetica,sans-Serif" font-size="11.00">name</text>
<polygon fill="none" stroke="black" points="8.5,-161 8.5,-183 195.5,-183 195.5,-161 8.5,-161"/>
<image xlink:href="../../images/foreignKeys.png" width="11px" height="12px" preserveAspectRatio="xMinYMin meet" x="13.5" y="-178"/>
<text text-anchor="start" x="28.5" y="-169.2" font-family="Helvetica,sans-Serif" font-size="11.00">c_currency_id</text>
<polygon fill="none" stroke="black" points="8.5,-139 8.5,-161 195.5,-161 195.5,-139 8.5,-139"/>
<image xlink:href="../../images/foreignKeys.png" width="11px" height="12px" preserveAspectRatio="xMinYMin meet" x="13.5" y="-156"/>
<text text-anchor="start" x="28.5" y="-147.2" font-family="Helvetica,sans-Serif" font-size="11.00">c_period_id</text>
<polygon fill="none" stroke="black" points="8.5,-117 8.5,-139 195.5,-139 195.5,-117 8.5,-117"/>
<image xlink:href="../../images/foreignKeys.png" width="11px" height="12px" preserveAspectRatio="xMinYMin meet" x="13.5" y="-134"/>
<text text-anchor="start" x="28.5" y="-125.2" font-family="Helvetica,sans-Serif" font-size="11.00">m_costtype_id</text>
<polygon fill="none" stroke="black" points="8.5,-95 8.5,-117 195.5,-117 195.5,-95 8.5,-95"/>
<image xlink:href="../../images/foreignKeys.png" width="11px" height="12px" preserveAspectRatio="xMinYMin meet" x="13.5" y="-112"/>
<text text-anchor="start" x="28.5" y="-103.2" font-family="Helvetica,sans-Serif" font-size="11.00">ad_orgonly_id</text>
<polygon fill="#ffffff" stroke="transparent" points="8.5,-73 8.5,-95 195.5,-95 195.5,-73 8.5,-73"/>
<polygon fill="none" stroke="black" points="8.5,-73 8.5,-95 195.5,-95 195.5,-73 8.5,-73"/>
<text text-anchor="start" x="28.5" y="-81.2" font-family="Helvetica,sans-Serif" font-size="11.00">c_acctschema_uu</text>
<polygon fill="none" stroke="black" points="8.5,-55 8.5,-73 195.5,-73 195.5,-55 8.5,-55"/>
<text text-anchor="start" x="11.5" y="-61.2" font-family="Helvetica,sans-Serif" font-size="11.00">...</text>
<polygon fill="#ffffff" stroke="transparent" points="8.5,-37 8.5,-55 81.5,-55 81.5,-37 8.5,-37"/>
<polygon fill="none" stroke="black" points="8.5,-37 8.5,-55 81.5,-55 81.5,-37 8.5,-37"/>
<text text-anchor="start" x="11.5" y="-43.2" font-family="Helvetica,sans-Serif" font-size="11.00">&lt; 6</text>
<polygon fill="#ffffff" stroke="transparent" points="81.5,-37 81.5,-55 141.5,-55 141.5,-37 81.5,-37"/>
<polygon fill="none" stroke="black" points="81.5,-37 81.5,-55 141.5,-55 141.5,-37 81.5,-37"/>
<text text-anchor="start" x="110.5" y="-43.2" font-family="Helvetica,sans-Serif" font-size="11.00">1 row</text>
<polygon fill="#ffffff" stroke="transparent" points="141.5,-37 141.5,-55 195.5,-55 195.5,-37 141.5,-37"/>
<polygon fill="none" stroke="black" points="141.5,-37 141.5,-55 195.5,-55 195.5,-37 141.5,-37"/>
<text text-anchor="start" x="170.5" y="-43.2" font-family="Helvetica,sans-Serif" font-size="11.00">55 &gt;</text>
</a>
</g>
</g>
<!-- c_validcombination&#45;&gt;c_acctschema -->
<g id="edge2" class="edge">
<title>c_validcombination:w&#45;&gt;c_acctschema:e</title>
<path fill="none" stroke="black" d="M232.64,-652.81C172.27,-610.38 280.04,-260 196.5,-260"/>
<polygon fill="black" stroke="black" points="238.84,-654.69 245.46,-660.45 242.67,-655.84 246.5,-657 246.5,-657 246.5,-657 242.67,-655.84 247.54,-653.55 238.84,-654.69 238.84,-654.69"/>
<ellipse fill="none" stroke="black" cx="235.78" cy="-653.76" rx="3.2" ry="3.2"/>
</g>
<!-- hr_concept_acct -->
<g id="node4" class="node">
<title>hr_concept_acct</title>
<g id="a_node4"><a xlink:href="../../tables/hr_concept_acct.html" xlink:title="hr_concept_acct" target="_top">
<polygon fill="#ffffff" stroke="transparent" points="472,-626 472,-1044 711,-1044 711,-626 472,-626"/>
<polygon fill="#f5f5f5" stroke="transparent" points="474.5,-1020 474.5,-1042 709.5,-1042 709.5,-1020 474.5,-1020"/>
<polygon fill="none" stroke="black" points="474.5,-1020 474.5,-1042 709.5,-1042 709.5,-1020 474.5,-1020"/>
<text text-anchor="start" x="479.5" y="-1029.2" font-family="Helvetica,sans-Serif" font-weight="bold" font-size="11.00">hr_concept_acct</text>
<text text-anchor="start" x="674.5" y="-1028.2" font-family="Helvetica,sans-Serif" font-size="11.00">[table]</text>
<polygon fill="none" stroke="black" points="474.5,-998 474.5,-1020 626.5,-1020 626.5,-998 474.5,-998"/>
<image xlink:href="../../images/foreignKeys.png" width="11px" height="12px" preserveAspectRatio="xMinYMin meet" x="479.5" y="-1015"/>
<text text-anchor="start" x="494.5" y="-1006.2" font-family="Helvetica,sans-Serif" font-size="11.00">c_bp_group_id</text>
<polygon fill="none" stroke="black" points="626.5,-998 626.5,-1020 709.5,-1020 709.5,-998 626.5,-998"/>
<text text-anchor="start" x="629.5" y="-1006.2" font-family="Helvetica,sans-Serif" font-size="11.00">numeric[10]</text>
<polygon fill="none" stroke="black" points="474.5,-976 474.5,-998 626.5,-998 626.5,-976 474.5,-976"/>
<text text-anchor="start" x="494.5" y="-984.2" font-family="Helvetica,sans-Serif" font-size="11.00">isbalancing</text>
<polygon fill="none" stroke="black" points="626.5,-976 626.5,-998 709.5,-998 709.5,-976 626.5,-976"/>
<text text-anchor="start" x="629.5" y="-984.2" font-family="Helvetica,sans-Serif" font-size="11.00">bpchar[1]</text>
<polygon fill="none" stroke="black" points="474.5,-954 474.5,-976 626.5,-976 626.5,-954 474.5,-954"/>
<image xlink:href="../../images/foreignKeys.png" width="11px" height="12px" preserveAspectRatio="xMinYMin meet" x="479.5" y="-971"/>
<text text-anchor="start" x="494.5" y="-962.2" font-family="Helvetica,sans-Serif" font-size="11.00">user1_id</text>
<polygon fill="none" stroke="black" points="626.5,-954 626.5,-976 709.5,-976 709.5,-954 626.5,-954"/>
<text text-anchor="start" x="629.5" y="-962.2" font-family="Helvetica,sans-Serif" font-size="11.00">numeric[10]</text>
<polygon fill="none" stroke="black" points="474.5,-932 474.5,-954 626.5,-954 626.5,-932 474.5,-932"/>
<image xlink:href="../../images/foreignKeys.png" width="11px" height="12px" preserveAspectRatio="xMinYMin meet" x="479.5" y="-949"/>
<text text-anchor="start" x="494.5" y="-940.2" font-family="Helvetica,sans-Serif" font-size="11.00">user2_id</text>
<polygon fill="none" stroke="black" points="626.5,-932 626.5,-954 709.5,-954 709.5,-932 626.5,-932"/>
<text text-anchor="start" x="629.5" y="-940.2" font-family="Helvetica,sans-Serif" font-size="11.00">numeric[10]</text>
<polygon fill="none" stroke="black" points="474.5,-910 474.5,-932 626.5,-932 626.5,-910 474.5,-910"/>
<text text-anchor="start" x="494.5" y="-918.2" font-family="Helvetica,sans-Serif" font-size="11.00">createdby</text>
<polygon fill="none" stroke="black" points="626.5,-910 626.5,-932 709.5,-932 709.5,-910 626.5,-910"/>
<text text-anchor="start" x="629.5" y="-918.2" font-family="Helvetica,sans-Serif" font-size="11.00">numeric[10]</text>
<polygon fill="none" stroke="black" points="474.5,-888 474.5,-910 626.5,-910 626.5,-888 474.5,-888"/>
<image xlink:href="../../images/primaryKeys.png" width="11px" height="12px" preserveAspectRatio="xMinYMin meet" x="479.5" y="-905"/>
<text text-anchor="start" x="494.5" y="-896.2" font-family="Helvetica,sans-Serif" font-size="11.00">hr_concept_acct_id</text>
<polygon fill="none" stroke="black" points="626.5,-888 626.5,-910 709.5,-910 709.5,-888 626.5,-888"/>
<text text-anchor="start" x="629.5" y="-896.2" font-family="Helvetica,sans-Serif" font-size="11.00">numeric[10]</text>
<polygon fill="none" stroke="black" points="474.5,-866 474.5,-888 626.5,-888 626.5,-866 474.5,-866"/>
<image xlink:href="../../images/foreignKeys.png" width="11px" height="12px" preserveAspectRatio="xMinYMin meet" x="479.5" y="-883"/>
<text text-anchor="start" x="494.5" y="-874.2" font-family="Helvetica,sans-Serif" font-size="11.00">hr_concept_id</text>
<polygon fill="none" stroke="black" points="626.5,-866 626.5,-888 709.5,-888 709.5,-866 626.5,-866"/>
<text text-anchor="start" x="629.5" y="-874.2" font-family="Helvetica,sans-Serif" font-size="11.00">numeric[10]</text>
<polygon fill="none" stroke="black" points="474.5,-844 474.5,-866 626.5,-866 626.5,-844 474.5,-844"/>
<text text-anchor="start" x="494.5" y="-852.2" font-family="Helvetica,sans-Serif" font-size="11.00">ad_client_id</text>
<polygon fill="none" stroke="black" points="626.5,-844 626.5,-866 709.5,-866 709.5,-844 626.5,-844"/>
<text text-anchor="start" x="629.5" y="-852.2" font-family="Helvetica,sans-Serif" font-size="11.00">numeric[10]</text>
<polygon fill="none" stroke="black" points="474.5,-822 474.5,-844 626.5,-844 626.5,-822 474.5,-822"/>
<image xlink:href="../../images/foreignKeys.png" width="11px" height="12px" preserveAspectRatio="xMinYMin meet" x="479.5" y="-839"/>
<text text-anchor="start" x="494.5" y="-830.2" font-family="Helvetica,sans-Serif" font-size="11.00">hr_revenue_acct</text>
<polygon fill="none" stroke="black" points="626.5,-822 626.5,-844 709.5,-844 709.5,-822 626.5,-822"/>
<text text-anchor="start" x="629.5" y="-830.2" font-family="Helvetica,sans-Serif" font-size="11.00">numeric[10]</text>
<polygon fill="none" stroke="black" points="474.5,-800 474.5,-822 626.5,-822 626.5,-800 474.5,-800"/>
<text text-anchor="start" x="494.5" y="-808.2" font-family="Helvetica,sans-Serif" font-size="11.00">isactive</text>
<polygon fill="none" stroke="black" points="626.5,-800 626.5,-822 709.5,-822 709.5,-800 626.5,-800"/>
<text text-anchor="start" x="629.5" y="-808.2" font-family="Helvetica,sans-Serif" font-size="11.00">bpchar[1]</text>
<polygon fill="none" stroke="black" points="474.5,-778 474.5,-800 626.5,-800 626.5,-778 474.5,-778"/>
<text text-anchor="start" x="494.5" y="-786.2" font-family="Helvetica,sans-Serif" font-size="11.00">updated</text>
<polygon fill="none" stroke="black" points="626.5,-778 626.5,-800 709.5,-800 709.5,-778 626.5,-778"/>
<text text-anchor="start" x="629.5" y="-786.2" font-family="Helvetica,sans-Serif" font-size="11.00">timestamp[29,6]</text>
<polygon fill="none" stroke="black" points="474.5,-756 474.5,-778 626.5,-778 626.5,-756 474.5,-756"/>
<text text-anchor="start" x="494.5" y="-764.2" font-family="Helvetica,sans-Serif" font-size="11.00">updatedby</text>
<polygon fill="none" stroke="black" points="626.5,-756 626.5,-778 709.5,-778 709.5,-756 626.5,-756"/>
<text text-anchor="start" x="629.5" y="-764.2" font-family="Helvetica,sans-Serif" font-size="11.00">numeric[10]</text>
<polygon fill="none" stroke="black" points="474.5,-734 474.5,-756 626.5,-756 626.5,-734 474.5,-734"/>
<image xlink:href="../../images/foreignKeys.png" width="11px" height="12px" preserveAspectRatio="xMinYMin meet" x="479.5" y="-751"/>
<text text-anchor="start" x="494.5" y="-742.2" font-family="Helvetica,sans-Serif" font-size="11.00">hr_expense_acct</text>
<polygon fill="none" stroke="black" points="626.5,-734 626.5,-756 709.5,-756 709.5,-734 626.5,-734"/>
<text text-anchor="start" x="629.5" y="-742.2" font-family="Helvetica,sans-Serif" font-size="11.00">numeric[10]</text>
<polygon fill="none" stroke="black" points="474.5,-712 474.5,-734 626.5,-734 626.5,-712 474.5,-712"/>
<text text-anchor="start" x="494.5" y="-720.2" font-family="Helvetica,sans-Serif" font-size="11.00">ad_org_id</text>
<polygon fill="none" stroke="black" points="626.5,-712 626.5,-734 709.5,-734 709.5,-712 626.5,-712"/>
<text text-anchor="start" x="629.5" y="-720.2" font-family="Helvetica,sans-Serif" font-size="11.00">numeric[10]</text>
<polygon fill="none" stroke="black" points="474.5,-690 474.5,-712 626.5,-712 626.5,-690 474.5,-690"/>
<image xlink:href="../../images/foreignKeys.png" width="11px" height="12px" preserveAspectRatio="xMinYMin meet" x="479.5" y="-707"/>
<text text-anchor="start" x="494.5" y="-698.2" font-family="Helvetica,sans-Serif" font-size="11.00">c_acctschema_id</text>
<polygon fill="none" stroke="black" points="626.5,-690 626.5,-712 709.5,-712 709.5,-690 626.5,-690"/>
<text text-anchor="start" x="629.5" y="-698.2" font-family="Helvetica,sans-Serif" font-size="11.00">numeric[10]</text>
<polygon fill="none" stroke="black" points="474.5,-668 474.5,-690 626.5,-690 626.5,-668 474.5,-668"/>
<text text-anchor="start" x="494.5" y="-676.2" font-family="Helvetica,sans-Serif" font-size="11.00">created</text>
<polygon fill="none" stroke="black" points="626.5,-668 626.5,-690 709.5,-690 709.5,-668 626.5,-668"/>
<text text-anchor="start" x="629.5" y="-676.2" font-family="Helvetica,sans-Serif" font-size="11.00">timestamp[29,6]</text>
<polygon fill="#ffffff" stroke="transparent" points="474.5,-646 474.5,-668 626.5,-668 626.5,-646 474.5,-646"/>
<polygon fill="none" stroke="black" points="474.5,-646 474.5,-668 626.5,-668 626.5,-646 474.5,-646"/>
<text text-anchor="start" x="494.5" y="-654.2" font-family="Helvetica,sans-Serif" font-size="11.00">hr_concept_acct_uu</text>
<polygon fill="none" stroke="black" points="626.5,-646 626.5,-668 709.5,-668 709.5,-646 626.5,-646"/>
<text text-anchor="start" x="629.5" y="-654.2" font-family="Helvetica,sans-Serif" font-size="11.00">varchar[36]</text>
<polygon fill="#ffffff" stroke="transparent" points="474.5,-628 474.5,-646 541.5,-646 541.5,-628 474.5,-628"/>
<polygon fill="none" stroke="black" points="474.5,-628 474.5,-646 541.5,-646 541.5,-628 474.5,-628"/>
<text text-anchor="start" x="477.5" y="-634.2" font-family="Helvetica,sans-Serif" font-size="11.00">&lt; 7</text>
<polygon fill="#ffffff" stroke="transparent" points="541.5,-628 541.5,-646 626.5,-646 626.5,-628 541.5,-628"/>
<polygon fill="none" stroke="black" points="541.5,-628 541.5,-646 626.5,-646 626.5,-628 541.5,-628"/>
<text text-anchor="start" x="590.5" y="-634.2" font-family="Helvetica,sans-Serif" font-size="11.00">0 rows</text>
<polygon fill="#ffffff" stroke="transparent" points="626.5,-628 626.5,-646 709.5,-646 709.5,-628 626.5,-628"/>
<polygon fill="none" stroke="black" points="626.5,-628 626.5,-646 709.5,-646 709.5,-628 626.5,-628"/>
<text text-anchor="start" x="690.5" y="-634.2" font-family="Helvetica,sans-Serif" font-size="11.00">0 &gt;</text>
<polygon fill="none" stroke="black" stroke-width="2" points="473,-627 473,-1043 710,-1043 710,-627 473,-627"/>
</a>
</g>
</g>
<!-- hr_concept_acct&#45;&gt;c_validcombination -->
<g id="edge8" class="edge">
<title>hr_concept_acct:w&#45;&gt;c_validcombination:e</title>
<path fill="none" stroke="black" d="M458.88,-745C446.42,-745 438.83,-745 421.5,-745"/>
<polygon fill="black" stroke="black" points="465.5,-745 473.5,-748.6 469.5,-745 473.5,-745 473.5,-745 473.5,-745 469.5,-745 473.5,-741.4 465.5,-745 465.5,-745"/>
<ellipse fill="none" stroke="black" cx="462.3" cy="-745" rx="3.2" ry="3.2"/>
</g>
<!-- hr_concept_acct&#45;&gt;c_validcombination -->
<g id="edge9" class="edge">
<title>hr_concept_acct:w&#45;&gt;c_validcombination:e</title>
<path fill="none" stroke="black" d="M459.46,-828.76C436.91,-811.18 460.9,-745 421.5,-745"/>
<polygon fill="black" stroke="black" points="465.84,-830.68 472.46,-836.45 469.67,-831.84 473.5,-833 473.5,-833 473.5,-833 469.67,-831.84 474.54,-829.55 465.84,-830.68 465.84,-830.68"/>
<ellipse fill="none" stroke="black" cx="462.78" cy="-829.76" rx="3.2" ry="3.2"/>
</g>
<!-- hr_concept_acct&#45;&gt;c_validcombination -->
<g id="edge11" class="edge">
<title>hr_concept_acct:w&#45;&gt;c_validcombination:e</title>
<path fill="none" stroke="black" d="M458.92,-940.78C397.9,-919.02 506.8,-745 421.5,-745"/>
<polygon fill="black" stroke="black" points="465.59,-941.79 472.96,-946.56 469.55,-942.4 473.5,-943 473.5,-943 473.5,-943 469.55,-942.4 474.04,-939.44 465.59,-941.79 465.59,-941.79"/>
<ellipse fill="none" stroke="black" cx="462.43" cy="-941.31" rx="3.2" ry="3.2"/>
</g>
<!-- hr_concept_acct&#45;&gt;c_elementvalue -->
<g id="edge10" class="edge">
<title>hr_concept_acct:w&#45;&gt;c_elementvalue:e</title>
<path fill="none" stroke="black" d="M459.51,-969.7C447.07,-981.22 453.51,-1010.71 431,-1022 392.27,-1041.43 268.38,-1050.79 236,-1022 167.11,-960.74 279.69,-610 187.5,-610"/>
<polygon fill="black" stroke="black" points="465.92,-967.55 474.65,-968.41 469.71,-966.27 473.5,-965 473.5,-965 473.5,-965 469.71,-966.27 472.35,-961.59 465.92,-967.55 465.92,-967.55"/>
<ellipse fill="none" stroke="black" cx="462.88" cy="-968.57" rx="3.2" ry="3.2"/>
</g>
<!-- hr_concept_acct&#45;&gt;c_acctschema -->
<g id="edge5" class="edge">
<title>hr_concept_acct:w&#45;&gt;c_acctschema:e</title>
<path fill="none" stroke="black" d="M459.37,-697.88C385.7,-661.2 501.97,-311.63 431,-247 366.93,-188.64 321.57,-233.28 236,-247 217.75,-249.93 214.98,-260 196.5,-260"/>
<polygon fill="black" stroke="black" points="465.69,-699.28 472.73,-704.52 469.59,-700.14 473.5,-701 473.5,-701 473.5,-701 469.59,-700.14 474.27,-697.48 465.69,-699.28 465.69,-699.28"/>
<ellipse fill="none" stroke="black" cx="462.56" cy="-698.59" rx="3.2" ry="3.2"/>
</g>
<!-- c_bp_group -->
<g id="node5" class="node">
<title>c_bp_group</title>
<g id="a_node5"><a xlink:href="../../tables/c_bp_group.html" xlink:title="c_bp_group" target="_top">
<polygon fill="#ffffff" stroke="transparent" points="247.5,-1059 247.5,-1337 419.5,-1337 419.5,-1059 247.5,-1059"/>
<polygon fill="#f5f5f5" stroke="transparent" points="247.5,-1315 247.5,-1337 419.5,-1337 419.5,-1315 247.5,-1315"/>
<polygon fill="none" stroke="black" points="247.5,-1315 247.5,-1337 419.5,-1337 419.5,-1315 247.5,-1315"/>
<text text-anchor="start" x="252.5" y="-1324.2" font-family="Helvetica,sans-Serif" font-weight="bold" font-size="11.00">c_bp_group</text>
<text text-anchor="start" x="384.5" y="-1323.2" font-family="Helvetica,sans-Serif" font-size="11.00">[table]</text>
<polygon fill="none" stroke="black" points="247.5,-1293 247.5,-1315 419.5,-1315 419.5,-1293 247.5,-1293"/>
<image xlink:href="../../images/primaryKeys.png" width="11px" height="12px" preserveAspectRatio="xMinYMin meet" x="252.5" y="-1310"/>
<text text-anchor="start" x="267.5" y="-1301.2" font-family="Helvetica,sans-Serif" font-size="11.00">c_bp_group_id</text>
<polygon fill="#ffffff" stroke="transparent" points="247.5,-1271 247.5,-1293 419.5,-1293 419.5,-1271 247.5,-1271"/>
<polygon fill="none" stroke="black" points="247.5,-1271 247.5,-1293 419.5,-1293 419.5,-1271 247.5,-1271"/>
<text text-anchor="start" x="267.5" y="-1279.2" font-family="Helvetica,sans-Serif" font-size="11.00">ad_client_id</text>
<polygon fill="#ffffff" stroke="transparent" points="247.5,-1249 247.5,-1271 419.5,-1271 419.5,-1249 247.5,-1249"/>
<polygon fill="none" stroke="black" points="247.5,-1249 247.5,-1271 419.5,-1271 419.5,-1249 247.5,-1249"/>
<text text-anchor="start" x="267.5" y="-1257.2" font-family="Helvetica,sans-Serif" font-size="11.00">value</text>
<polygon fill="none" stroke="black" points="247.5,-1227 247.5,-1249 419.5,-1249 419.5,-1227 247.5,-1227"/>
<image xlink:href="../../images/foreignKeys.png" width="11px" height="12px" preserveAspectRatio="xMinYMin meet" x="252.5" y="-1244"/>
<text text-anchor="start" x="267.5" y="-1235.2" font-family="Helvetica,sans-Serif" font-size="11.00">ad_printcolor_id</text>
<polygon fill="none" stroke="black" points="247.5,-1205 247.5,-1227 419.5,-1227 419.5,-1205 247.5,-1205"/>
<image xlink:href="../../images/foreignKeys.png" width="11px" height="12px" preserveAspectRatio="xMinYMin meet" x="252.5" y="-1222"/>
<text text-anchor="start" x="267.5" y="-1213.2" font-family="Helvetica,sans-Serif" font-size="11.00">m_pricelist_id</text>
<polygon fill="none" stroke="black" points="247.5,-1183 247.5,-1205 419.5,-1205 419.5,-1183 247.5,-1183"/>
<image xlink:href="../../images/foreignKeys.png" width="11px" height="12px" preserveAspectRatio="xMinYMin meet" x="252.5" y="-1200"/>
<text text-anchor="start" x="267.5" y="-1191.2" font-family="Helvetica,sans-Serif" font-size="11.00">po_pricelist_id</text>
<polygon fill="none" stroke="black" points="247.5,-1161 247.5,-1183 419.5,-1183 419.5,-1161 247.5,-1161"/>
<image xlink:href="../../images/foreignKeys.png" width="11px" height="12px" preserveAspectRatio="xMinYMin meet" x="252.5" y="-1178"/>
<text text-anchor="start" x="267.5" y="-1169.2" font-family="Helvetica,sans-Serif" font-size="11.00">m_discountschema_id</text>
<polygon fill="none" stroke="black" points="247.5,-1139 247.5,-1161 419.5,-1161 419.5,-1139 247.5,-1139"/>
<image xlink:href="../../images/foreignKeys.png" width="11px" height="12px" preserveAspectRatio="xMinYMin meet" x="252.5" y="-1156"/>
<text text-anchor="start" x="267.5" y="-1147.2" font-family="Helvetica,sans-Serif" font-size="11.00">po_discountschema_id</text>
<polygon fill="none" stroke="black" points="247.5,-1117 247.5,-1139 419.5,-1139 419.5,-1117 247.5,-1117"/>
<image xlink:href="../../images/foreignKeys.png" width="11px" height="12px" preserveAspectRatio="xMinYMin meet" x="252.5" y="-1134"/>
<text text-anchor="start" x="267.5" y="-1125.2" font-family="Helvetica,sans-Serif" font-size="11.00">c_dunning_id</text>
<polygon fill="#ffffff" stroke="transparent" points="247.5,-1095 247.5,-1117 419.5,-1117 419.5,-1095 247.5,-1095"/>
<polygon fill="none" stroke="black" points="247.5,-1095 247.5,-1117 419.5,-1117 419.5,-1095 247.5,-1095"/>
<text text-anchor="start" x="267.5" y="-1103.2" font-family="Helvetica,sans-Serif" font-size="11.00">c_bp_group_uu</text>
<polygon fill="none" stroke="black" points="247.5,-1077 247.5,-1095 419.5,-1095 419.5,-1077 247.5,-1077"/>
<text text-anchor="start" x="250.5" y="-1083.2" font-family="Helvetica,sans-Serif" font-size="11.00">...</text>
<polygon fill="#ffffff" stroke="transparent" points="247.5,-1059 247.5,-1077 310.5,-1077 310.5,-1059 247.5,-1059"/>
<polygon fill="none" stroke="black" points="247.5,-1059 247.5,-1077 310.5,-1077 310.5,-1059 247.5,-1059"/>
<text text-anchor="start" x="250.5" y="-1065.2" font-family="Helvetica,sans-Serif" font-size="11.00">&lt; 6</text>
<polygon fill="#ffffff" stroke="transparent" points="310.5,-1059 310.5,-1077 370.5,-1077 370.5,-1059 310.5,-1059"/>
<polygon fill="none" stroke="black" points="310.5,-1059 310.5,-1077 370.5,-1077 370.5,-1059 310.5,-1059"/>
<text text-anchor="start" x="334.5" y="-1065.2" font-family="Helvetica,sans-Serif" font-size="11.00">5 rows</text>
<polygon fill="#ffffff" stroke="transparent" points="370.5,-1059 370.5,-1077 419.5,-1077 419.5,-1059 370.5,-1059"/>
<polygon fill="none" stroke="black" points="370.5,-1059 370.5,-1077 419.5,-1077 419.5,-1059 370.5,-1059"/>
<text text-anchor="start" x="394.5" y="-1065.2" font-family="Helvetica,sans-Serif" font-size="11.00">14 &gt;</text>
</a>
</g>
</g>
<!-- hr_concept_acct&#45;&gt;c_bp_group -->
<g id="edge6" class="edge">
<title>hr_concept_acct:w&#45;&gt;c_bp_group:e</title>
<path fill="none" stroke="black" d="M459.91,-1014.63C419.07,-1055.41 481.64,-1304 420.5,-1304"/>
<polygon fill="black" stroke="black" points="466.11,-1012.06 474.88,-1012.33 469.8,-1010.53 473.5,-1009 473.5,-1009 473.5,-1009 469.8,-1010.53 472.12,-1005.67 466.11,-1012.06 466.11,-1012.06"/>
<ellipse fill="none" stroke="black" cx="463.15" cy="-1013.29" rx="3.2" ry="3.2"/>
</g>
<!-- hr_concept -->
<g id="node6" class="node">
<title>hr_concept</title>
<g id="a_node6"><a xlink:href="../../tables/hr_concept.html" xlink:title="hr_concept" target="_top">
<polygon fill="#ffffff" stroke="transparent" points="244,-799 244,-1011 423,-1011 423,-799 244,-799"/>
<polygon fill="#f5f5f5" stroke="transparent" points="244.5,-989 244.5,-1011 423.5,-1011 423.5,-989 244.5,-989"/>
<polygon fill="none" stroke="black" points="244.5,-989 244.5,-1011 423.5,-1011 423.5,-989 244.5,-989"/>
<text text-anchor="start" x="249.5" y="-998.2" font-family="Helvetica,sans-Serif" font-weight="bold" font-size="11.00">hr_concept</text>
<text text-anchor="start" x="388.5" y="-997.2" font-family="Helvetica,sans-Serif" font-size="11.00">[table]</text>
<polygon fill="none" stroke="black" points="244.5,-967 244.5,-989 423.5,-989 423.5,-967 244.5,-967"/>
<image xlink:href="../../images/foreignKeys.png" width="11px" height="12px" preserveAspectRatio="xMinYMin meet" x="249.5" y="-984"/>
<text text-anchor="start" x="264.5" y="-975.2" font-family="Helvetica,sans-Serif" font-size="11.00">hr_concept_category_id</text>
<polygon fill="none" stroke="black" points="244.5,-945 244.5,-967 423.5,-967 423.5,-945 244.5,-945"/>
<image xlink:href="../../images/primaryKeys.png" width="11px" height="12px" preserveAspectRatio="xMinYMin meet" x="249.5" y="-962"/>
<text text-anchor="start" x="264.5" y="-953.2" font-family="Helvetica,sans-Serif" font-size="11.00">hr_concept_id</text>
<polygon fill="none" stroke="black" points="244.5,-923 244.5,-945 423.5,-945 423.5,-923 244.5,-923"/>
<image xlink:href="../../images/foreignKeys.png" width="11px" height="12px" preserveAspectRatio="xMinYMin meet" x="249.5" y="-940"/>
<text text-anchor="start" x="264.5" y="-931.2" font-family="Helvetica,sans-Serif" font-size="11.00">hr_department_id</text>
<polygon fill="none" stroke="black" points="244.5,-901 244.5,-923 423.5,-923 423.5,-901 244.5,-901"/>
<image xlink:href="../../images/foreignKeys.png" width="11px" height="12px" preserveAspectRatio="xMinYMin meet" x="249.5" y="-918"/>
<text text-anchor="start" x="264.5" y="-909.2" font-family="Helvetica,sans-Serif" font-size="11.00">hr_job_id</text>
<polygon fill="none" stroke="black" points="244.5,-879 244.5,-901 423.5,-901 423.5,-879 244.5,-879"/>
<image xlink:href="../../images/foreignKeys.png" width="11px" height="12px" preserveAspectRatio="xMinYMin meet" x="249.5" y="-896"/>
<text text-anchor="start" x="264.5" y="-887.2" font-family="Helvetica,sans-Serif" font-size="11.00">hr_payroll_id</text>
<polygon fill="none" stroke="black" points="244.5,-857 244.5,-879 423.5,-879 423.5,-857 244.5,-857"/>
<image xlink:href="../../images/foreignKeys.png" width="11px" height="12px" preserveAspectRatio="xMinYMin meet" x="249.5" y="-874"/>
<text text-anchor="start" x="264.5" y="-865.2" font-family="Helvetica,sans-Serif" font-size="11.00">ad_reference_id</text>
<polygon fill="#ffffff" stroke="transparent" points="244.5,-835 244.5,-857 423.5,-857 423.5,-835 244.5,-835"/>
<polygon fill="none" stroke="black" points="244.5,-835 244.5,-857 423.5,-857 423.5,-835 244.5,-835"/>
<text text-anchor="start" x="264.5" y="-843.2" font-family="Helvetica,sans-Serif" font-size="11.00">hr_concept_uu</text>
<polygon fill="none" stroke="black" points="244.5,-817 244.5,-835 423.5,-835 423.5,-817 244.5,-817"/>
<text text-anchor="start" x="247.5" y="-823.2" font-family="Helvetica,sans-Serif" font-size="11.00">...</text>
<polygon fill="#ffffff" stroke="transparent" points="244.5,-799 244.5,-817 314.5,-817 314.5,-799 244.5,-799"/>
<polygon fill="none" stroke="black" points="244.5,-799 244.5,-817 314.5,-817 314.5,-799 244.5,-799"/>
<text text-anchor="start" x="247.5" y="-805.2" font-family="Helvetica,sans-Serif" font-size="11.00">&lt; 5</text>
<polygon fill="#ffffff" stroke="transparent" points="314.5,-799 314.5,-817 377.5,-817 377.5,-799 314.5,-799"/>
<polygon fill="none" stroke="black" points="314.5,-799 314.5,-817 377.5,-817 377.5,-799 314.5,-799"/>
<text text-anchor="start" x="341.5" y="-805.2" font-family="Helvetica,sans-Serif" font-size="11.00">0 rows</text>
<polygon fill="#ffffff" stroke="transparent" points="377.5,-799 377.5,-817 423.5,-817 423.5,-799 377.5,-799"/>
<polygon fill="none" stroke="black" points="377.5,-799 377.5,-817 423.5,-817 423.5,-799 377.5,-799"/>
<text text-anchor="start" x="404.5" y="-805.2" font-family="Helvetica,sans-Serif" font-size="11.00">5 &gt;</text>
</a>
</g>
</g>
<!-- hr_concept_acct&#45;&gt;hr_concept -->
<g id="edge7" class="edge">
<title>hr_concept_acct:w&#45;&gt;hr_concept:e</title>
<path fill="none" stroke="black" d="M459.57,-881.71C440.52,-898.71 459.68,-956 424.5,-956"/>
<polygon fill="black" stroke="black" points="465.92,-879.56 474.65,-880.41 469.71,-878.28 473.5,-877 473.5,-877 473.5,-877 469.71,-878.28 472.35,-873.59 465.92,-879.56 465.92,-879.56"/>
<ellipse fill="none" stroke="black" cx="462.89" cy="-880.58" rx="3.2" ry="3.2"/>
</g>
</g>
</svg>
