<?xml version="1.0" encoding="UTF-8" standalone="no"?>
<!DOCTYPE svg PUBLIC "-//W3C//DTD SVG 1.1//EN"
 "http://www.w3.org/Graphics/SVG/1.1/DTD/svg11.dtd">
<!-- Generated by graphviz version 2.43.0 (0)
 -->
<!-- Title: oneDegreeRelationshipsDiagram Pages: 1 -->
<svg width="1083pt" height="1169pt"
 viewBox="0.00 0.00 1083.00 1169.00" xmlns="http://www.w3.org/2000/svg" xmlns:xlink="http://www.w3.org/1999/xlink">
<g id="graph0" class="graph" transform="scale(1 1) rotate(0) translate(4 1165)">
<title>oneDegreeRelationshipsDiagram</title>
<polygon fill="#ffffff" stroke="transparent" points="-4,4 -4,-1165 1079,-1165 1079,4 -4,4"/>
<text text-anchor="middle" x="71.5" y="-7.2" font-family="Helvetica,sans-Serif" font-size="11.00">Generated by SchemaSpy</text>
<!-- ad_org -->
<g id="node1" class="node">
<title>ad_org</title>
<g id="a_node1"><a xlink:href="../../tables/ad_org.html" xlink:title="ad_org" target="_top">
<polygon fill="#ffffff" stroke="transparent" points="285,-323 285,-513 477,-513 477,-323 285,-323"/>
<polygon fill="#f5f5f5" stroke="transparent" points="285,-491 285,-513 477,-513 477,-491 285,-491"/>
<polygon fill="none" stroke="black" points="285,-491 285,-513 477,-513 477,-491 285,-491"/>
<text text-anchor="start" x="290" y="-500.2" font-family="Helvetica,sans-Serif" font-weight="bold" font-size="11.00">ad_org</text>
<text text-anchor="start" x="442" y="-499.2" font-family="Helvetica,sans-Serif" font-size="11.00">[table]</text>
<polygon fill="none" stroke="black" points="285,-469 285,-491 477,-491 477,-469 285,-469"/>
<image xlink:href="../../images/primaryKeys.png" width="11px" height="12px" preserveAspectRatio="xMinYMin meet" x="290" y="-486"/>
<text text-anchor="start" x="305" y="-477.2" font-family="Helvetica,sans-Serif" font-size="11.00">ad_org_id</text>
<polygon fill="#ffffff" stroke="transparent" points="285,-447 285,-469 477,-469 477,-447 285,-447"/>
<polygon fill="none" stroke="black" points="285,-447 285,-469 477,-469 477,-447 285,-447"/>
<image xlink:href="../../images/foreignKeys.png" width="11px" height="12px" preserveAspectRatio="xMinYMin meet" x="290" y="-464"/>
<text text-anchor="start" x="305" y="-455.2" font-family="Helvetica,sans-Serif" font-size="11.00">ad_client_id</text>
<polygon fill="#ffffff" stroke="transparent" points="285,-425 285,-447 477,-447 477,-425 285,-425"/>
<polygon fill="none" stroke="black" points="285,-425 285,-447 477,-447 477,-425 285,-425"/>
<text text-anchor="start" x="305" y="-433.2" font-family="Helvetica,sans-Serif" font-size="11.00">value</text>
<polygon fill="none" stroke="black" points="285,-403 285,-425 477,-425 477,-403 285,-403"/>
<image xlink:href="../../images/foreignKeys.png" width="11px" height="12px" preserveAspectRatio="xMinYMin meet" x="290" y="-420"/>
<text text-anchor="start" x="305" y="-411.2" font-family="Helvetica,sans-Serif" font-size="11.00">ad_replicationstrategy_id</text>
<polygon fill="#ffffff" stroke="transparent" points="285,-381 285,-403 477,-403 477,-381 285,-381"/>
<polygon fill="none" stroke="black" points="285,-381 285,-403 477,-403 477,-381 285,-381"/>
<text text-anchor="start" x="305" y="-389.2" font-family="Helvetica,sans-Serif" font-size="11.00">ad_org_uu</text>
<polygon fill="none" stroke="black" points="285,-359 285,-381 477,-381 477,-359 285,-359"/>
<image xlink:href="../../images/foreignKeys.png" width="11px" height="12px" preserveAspectRatio="xMinYMin meet" x="290" y="-376"/>
<text text-anchor="start" x="305" y="-367.2" font-family="Helvetica,sans-Serif" font-size="11.00">cof_c_snrange_id</text>
<polygon fill="none" stroke="black" points="285,-341 285,-359 477,-359 477,-341 285,-341"/>
<text text-anchor="start" x="288" y="-347.2" font-family="Helvetica,sans-Serif" font-size="11.00">...</text>
<polygon fill="#ffffff" stroke="transparent" points="285,-323 285,-341 355,-341 355,-323 285,-323"/>
<polygon fill="none" stroke="black" points="285,-323 285,-341 355,-341 355,-323 285,-323"/>
<text text-anchor="start" x="288" y="-329.2" font-family="Helvetica,sans-Serif" font-size="11.00">&lt; 3</text>
<polygon fill="#ffffff" stroke="transparent" points="355,-323 355,-341 418,-341 418,-323 355,-323"/>
<polygon fill="none" stroke="black" points="355,-323 355,-341 418,-341 418,-323 355,-323"/>
<text text-anchor="start" x="382" y="-329.2" font-family="Helvetica,sans-Serif" font-size="11.00">3 rows</text>
<polygon fill="#ffffff" stroke="transparent" points="418,-323 418,-341 477,-341 477,-323 418,-323"/>
<polygon fill="none" stroke="black" points="418,-323 418,-341 477,-341 477,-323 418,-323"/>
<text text-anchor="start" x="446" y="-329.2" font-family="Helvetica,sans-Serif" font-size="11.00">224 &gt;</text>
</a>
</g>
</g>
<!-- ad_client -->
<g id="node2" class="node">
<title>ad_client</title>
<g id="a_node2"><a xlink:href="../../tables/ad_client.html" xlink:title="ad_client" target="_top">
<polygon fill="#ffffff" stroke="transparent" points="8,-358 8,-570 236,-570 236,-358 8,-358"/>
<polygon fill="#f5f5f5" stroke="transparent" points="8,-548 8,-570 236,-570 236,-548 8,-548"/>
<polygon fill="none" stroke="black" points="8,-548 8,-570 236,-570 236,-548 8,-548"/>
<text text-anchor="start" x="13" y="-557.2" font-family="Helvetica,sans-Serif" font-weight="bold" font-size="11.00">ad_client</text>
<text text-anchor="start" x="201" y="-556.2" font-family="Helvetica,sans-Serif" font-size="11.00">[table]</text>
<polygon fill="none" stroke="black" points="8,-526 8,-548 236,-548 236,-526 8,-526"/>
<image xlink:href="../../images/primaryKeys.png" width="11px" height="12px" preserveAspectRatio="xMinYMin meet" x="13" y="-543"/>
<text text-anchor="start" x="28" y="-534.2" font-family="Helvetica,sans-Serif" font-size="11.00">ad_client_id</text>
<polygon fill="#ffffff" stroke="transparent" points="8,-504 8,-526 236,-526 236,-504 8,-504"/>
<polygon fill="none" stroke="black" points="8,-504 8,-526 236,-526 236,-504 8,-504"/>
<text text-anchor="start" x="28" y="-512.2" font-family="Helvetica,sans-Serif" font-size="11.00">value</text>
<polygon fill="none" stroke="black" points="8,-482 8,-504 236,-504 236,-482 8,-482"/>
<image xlink:href="../../images/foreignKeys.png" width="11px" height="12px" preserveAspectRatio="xMinYMin meet" x="13" y="-499"/>
<text text-anchor="start" x="28" y="-490.2" font-family="Helvetica,sans-Serif" font-size="11.00">ad_language</text>
<polygon fill="none" stroke="black" points="8,-460 8,-482 236,-482 236,-460 8,-460"/>
<image xlink:href="../../images/foreignKeys.png" width="11px" height="12px" preserveAspectRatio="xMinYMin meet" x="13" y="-477"/>
<text text-anchor="start" x="28" y="-468.2" font-family="Helvetica,sans-Serif" font-size="11.00">ad_replicationstrategy_id</text>
<polygon fill="#ffffff" stroke="transparent" points="8,-438 8,-460 236,-460 236,-438 8,-438"/>
<polygon fill="none" stroke="black" points="8,-438 8,-460 236,-460 236,-438 8,-438"/>
<text text-anchor="start" x="28" y="-446.2" font-family="Helvetica,sans-Serif" font-size="11.00">ad_client_uu</text>
<polygon fill="none" stroke="black" points="8,-416 8,-438 236,-438 236,-416 8,-416"/>
<image xlink:href="../../images/foreignKeys.png" width="11px" height="12px" preserveAspectRatio="xMinYMin meet" x="13" y="-433"/>
<text text-anchor="start" x="28" y="-424.2" font-family="Helvetica,sans-Serif" font-size="11.00">ad_passwordrule_id</text>
<polygon fill="#ffffff" stroke="transparent" points="8,-394 8,-416 236,-416 236,-394 8,-394"/>
<polygon fill="none" stroke="black" points="8,-394 8,-416 236,-416 236,-394 8,-394"/>
<text text-anchor="start" x="28" y="-402.2" font-family="Helvetica,sans-Serif" font-size="11.00">loginprefix</text>
<polygon fill="none" stroke="black" points="8,-376 8,-394 236,-394 236,-376 8,-376"/>
<text text-anchor="start" x="11" y="-382.2" font-family="Helvetica,sans-Serif" font-size="11.00">...</text>
<polygon fill="#ffffff" stroke="transparent" points="8,-358 8,-376 96,-376 96,-358 8,-358"/>
<polygon fill="none" stroke="black" points="8,-358 8,-376 96,-376 96,-358 8,-358"/>
<text text-anchor="start" x="11" y="-364.2" font-family="Helvetica,sans-Serif" font-size="11.00">&lt; 3</text>
<polygon fill="#ffffff" stroke="transparent" points="96,-358 96,-376 168,-376 168,-358 96,-358"/>
<polygon fill="none" stroke="black" points="96,-358 96,-376 168,-376 168,-358 96,-358"/>
<text text-anchor="start" x="132" y="-364.2" font-family="Helvetica,sans-Serif" font-size="11.00">2 rows</text>
<polygon fill="#ffffff" stroke="transparent" points="168,-358 168,-376 236,-376 236,-358 168,-358"/>
<polygon fill="none" stroke="black" points="168,-358 168,-376 236,-376 236,-358 168,-358"/>
<text text-anchor="start" x="205" y="-364.2" font-family="Helvetica,sans-Serif" font-size="11.00">145 &gt;</text>
</a>
</g>
</g>
<!-- ad_org&#45;&gt;ad_client -->
<g id="edge1" class="edge">
<title>ad_org:w&#45;&gt;ad_client:e</title>
<path fill="none" stroke="black" d="M270.31,-462.71C251.78,-479.71 271.79,-537 237,-537"/>
<polygon fill="black" stroke="black" points="276.43,-460.6 285.17,-461.4 280.22,-459.3 284,-458 284,-458 284,-458 280.22,-459.3 282.83,-454.6 276.43,-460.6 276.43,-460.6"/>
<ellipse fill="none" stroke="black" cx="273.41" cy="-461.64" rx="3.2" ry="3.2"/>
</g>
<!-- ad_user -->
<g id="node3" class="node">
<title>ad_user</title>
<g id="a_node3"><a xlink:href="../../tables/ad_user.html" xlink:title="ad_user" target="_top">
<polygon fill="#ffffff" stroke="transparent" points="526,-37 526,-557 749,-557 749,-37 526,-37"/>
<polygon fill="#f5f5f5" stroke="transparent" points="526.5,-535 526.5,-557 749.5,-557 749.5,-535 526.5,-535"/>
<polygon fill="none" stroke="black" points="526.5,-535 526.5,-557 749.5,-557 749.5,-535 526.5,-535"/>
<text text-anchor="start" x="531.5" y="-544.2" font-family="Helvetica,sans-Serif" font-weight="bold" font-size="11.00">ad_user</text>
<text text-anchor="start" x="714.5" y="-543.2" font-family="Helvetica,sans-Serif" font-size="11.00">[table]</text>
<polygon fill="none" stroke="black" points="526.5,-513 526.5,-535 749.5,-535 749.5,-513 526.5,-513"/>
<image xlink:href="../../images/primaryKeys.png" width="11px" height="12px" preserveAspectRatio="xMinYMin meet" x="531.5" y="-530"/>
<text text-anchor="start" x="546.5" y="-521.2" font-family="Helvetica,sans-Serif" font-size="11.00">ad_user_id</text>
<polygon fill="none" stroke="black" points="526.5,-491 526.5,-513 749.5,-513 749.5,-491 526.5,-491"/>
<image xlink:href="../../images/foreignKeys.png" width="11px" height="12px" preserveAspectRatio="xMinYMin meet" x="531.5" y="-508"/>
<text text-anchor="start" x="546.5" y="-499.2" font-family="Helvetica,sans-Serif" font-size="11.00">ad_client_id</text>
<polygon fill="none" stroke="black" points="526.5,-469 526.5,-491 749.5,-491 749.5,-469 526.5,-469"/>
<image xlink:href="../../images/foreignKeys.png" width="11px" height="12px" preserveAspectRatio="xMinYMin meet" x="531.5" y="-486"/>
<text text-anchor="start" x="546.5" y="-477.2" font-family="Helvetica,sans-Serif" font-size="11.00">ad_org_id</text>
<polygon fill="#ffffff" stroke="transparent" points="526.5,-447 526.5,-469 749.5,-469 749.5,-447 526.5,-447"/>
<polygon fill="none" stroke="black" points="526.5,-447 526.5,-469 749.5,-469 749.5,-447 526.5,-447"/>
<text text-anchor="start" x="546.5" y="-455.2" font-family="Helvetica,sans-Serif" font-size="11.00">name</text>
<polygon fill="#ffffff" stroke="transparent" points="526.5,-425 526.5,-447 749.5,-447 749.5,-425 526.5,-425"/>
<polygon fill="none" stroke="black" points="526.5,-425 526.5,-447 749.5,-447 749.5,-425 526.5,-425"/>
<text text-anchor="start" x="546.5" y="-433.2" font-family="Helvetica,sans-Serif" font-size="11.00">email</text>
<polygon fill="none" stroke="black" points="526.5,-403 526.5,-425 749.5,-425 749.5,-403 526.5,-403"/>
<image xlink:href="../../images/foreignKeys.png" width="11px" height="12px" preserveAspectRatio="xMinYMin meet" x="531.5" y="-420"/>
<text text-anchor="start" x="546.5" y="-411.2" font-family="Helvetica,sans-Serif" font-size="11.00">supervisor_id</text>
<polygon fill="#ffffff" stroke="transparent" points="526.5,-381 526.5,-403 749.5,-403 749.5,-381 526.5,-381"/>
<polygon fill="none" stroke="black" points="526.5,-381 526.5,-403 749.5,-403 749.5,-381 526.5,-381"/>
<image xlink:href="../../images/foreignKeys.png" width="11px" height="12px" preserveAspectRatio="xMinYMin meet" x="531.5" y="-398"/>
<text text-anchor="start" x="546.5" y="-389.2" font-family="Helvetica,sans-Serif" font-size="11.00">c_bpartner_id</text>
<polygon fill="none" stroke="black" points="526.5,-359 526.5,-381 749.5,-381 749.5,-359 526.5,-359"/>
<image xlink:href="../../images/foreignKeys.png" width="11px" height="12px" preserveAspectRatio="xMinYMin meet" x="531.5" y="-376"/>
<text text-anchor="start" x="546.5" y="-367.2" font-family="Helvetica,sans-Serif" font-size="11.00">c_bpartner_location_id</text>
<polygon fill="none" stroke="black" points="526.5,-337 526.5,-359 749.5,-359 749.5,-337 526.5,-337"/>
<image xlink:href="../../images/foreignKeys.png" width="11px" height="12px" preserveAspectRatio="xMinYMin meet" x="531.5" y="-354"/>
<text text-anchor="start" x="546.5" y="-345.2" font-family="Helvetica,sans-Serif" font-size="11.00">c_greeting_id</text>
<polygon fill="none" stroke="black" points="526.5,-315 526.5,-337 749.5,-337 749.5,-315 526.5,-315"/>
<image xlink:href="../../images/foreignKeys.png" width="11px" height="12px" preserveAspectRatio="xMinYMin meet" x="531.5" y="-332"/>
<text text-anchor="start" x="546.5" y="-323.2" font-family="Helvetica,sans-Serif" font-size="11.00">ad_orgtrx_id</text>
<polygon fill="none" stroke="black" points="526.5,-293 526.5,-315 749.5,-315 749.5,-293 526.5,-293"/>
<image xlink:href="../../images/foreignKeys.png" width="11px" height="12px" preserveAspectRatio="xMinYMin meet" x="531.5" y="-310"/>
<text text-anchor="start" x="546.5" y="-301.2" font-family="Helvetica,sans-Serif" font-size="11.00">c_job_id</text>
<polygon fill="#ffffff" stroke="transparent" points="526.5,-271 526.5,-293 749.5,-293 749.5,-271 526.5,-271"/>
<polygon fill="none" stroke="black" points="526.5,-271 526.5,-293 749.5,-293 749.5,-271 526.5,-271"/>
<text text-anchor="start" x="546.5" y="-279.2" font-family="Helvetica,sans-Serif" font-size="11.00">ad_user_uu</text>
<polygon fill="none" stroke="black" points="526.5,-249 526.5,-271 749.5,-271 749.5,-249 526.5,-249"/>
<image xlink:href="../../images/foreignKeys.png" width="11px" height="12px" preserveAspectRatio="xMinYMin meet" x="531.5" y="-266"/>
<text text-anchor="start" x="546.5" y="-257.2" font-family="Helvetica,sans-Serif" font-size="11.00">c_location_id</text>
<polygon fill="none" stroke="black" points="526.5,-227 526.5,-249 749.5,-249 749.5,-227 526.5,-227"/>
<image xlink:href="../../images/foreignKeys.png" width="11px" height="12px" preserveAspectRatio="xMinYMin meet" x="531.5" y="-244"/>
<text text-anchor="start" x="546.5" y="-235.2" font-family="Helvetica,sans-Serif" font-size="11.00">c_campaign_id</text>
<polygon fill="none" stroke="black" points="526.5,-205 526.5,-227 749.5,-227 749.5,-205 526.5,-205"/>
<image xlink:href="../../images/foreignKeys.png" width="11px" height="12px" preserveAspectRatio="xMinYMin meet" x="531.5" y="-222"/>
<text text-anchor="start" x="546.5" y="-213.2" font-family="Helvetica,sans-Serif" font-size="11.00">salesrep_id</text>
<polygon fill="none" stroke="black" points="526.5,-183 526.5,-205 749.5,-205 749.5,-183 526.5,-183"/>
<image xlink:href="../../images/foreignKeys.png" width="11px" height="12px" preserveAspectRatio="xMinYMin meet" x="531.5" y="-200"/>
<text text-anchor="start" x="546.5" y="-191.2" font-family="Helvetica,sans-Serif" font-size="11.00">bp_location_id</text>
<polygon fill="none" stroke="black" points="526.5,-161 526.5,-183 749.5,-183 749.5,-161 526.5,-161"/>
<image xlink:href="../../images/foreignKeys.png" width="11px" height="12px" preserveAspectRatio="xMinYMin meet" x="531.5" y="-178"/>
<text text-anchor="start" x="546.5" y="-169.2" font-family="Helvetica,sans-Serif" font-size="11.00">r_defaultmailtext_id</text>
<polygon fill="none" stroke="black" points="526.5,-139 526.5,-161 749.5,-161 749.5,-139 526.5,-139"/>
<image xlink:href="../../images/foreignKeys.png" width="11px" height="12px" preserveAspectRatio="xMinYMin meet" x="531.5" y="-156"/>
<text text-anchor="start" x="546.5" y="-147.2" font-family="Helvetica,sans-Serif" font-size="11.00">cof_c_marketsegment_id</text>
<polygon fill="none" stroke="black" points="526.5,-117 526.5,-139 749.5,-139 749.5,-117 526.5,-117"/>
<image xlink:href="../../images/foreignKeys.png" width="11px" height="12px" preserveAspectRatio="xMinYMin meet" x="531.5" y="-134"/>
<text text-anchor="start" x="546.5" y="-125.2" font-family="Helvetica,sans-Serif" font-size="11.00">cof_c_leadexpirationreason_id</text>
<polygon fill="none" stroke="black" points="526.5,-95 526.5,-117 749.5,-117 749.5,-95 526.5,-95"/>
<image xlink:href="../../images/foreignKeys.png" width="11px" height="12px" preserveAspectRatio="xMinYMin meet" x="531.5" y="-112"/>
<text text-anchor="start" x="546.5" y="-103.2" font-family="Helvetica,sans-Serif" font-size="11.00">ad_image_id</text>
<polygon fill="none" stroke="black" points="526.5,-73 526.5,-95 749.5,-95 749.5,-73 526.5,-73"/>
<image xlink:href="../../images/foreignKeys.png" width="11px" height="12px" preserveAspectRatio="xMinYMin meet" x="531.5" y="-90"/>
<text text-anchor="start" x="546.5" y="-81.2" font-family="Helvetica,sans-Serif" font-size="11.00">c_subscription_id</text>
<polygon fill="none" stroke="black" points="526.5,-55 526.5,-73 749.5,-73 749.5,-55 526.5,-55"/>
<text text-anchor="start" x="529.5" y="-61.2" font-family="Helvetica,sans-Serif" font-size="11.00">...</text>
<polygon fill="#ffffff" stroke="transparent" points="526.5,-37 526.5,-55 615.5,-55 615.5,-37 526.5,-37"/>
<polygon fill="none" stroke="black" points="526.5,-37 526.5,-55 615.5,-55 615.5,-37 526.5,-37"/>
<text text-anchor="start" x="529.5" y="-43.2" font-family="Helvetica,sans-Serif" font-size="11.00">&lt; 17</text>
<polygon fill="#ffffff" stroke="transparent" points="615.5,-37 615.5,-55 684.5,-55 684.5,-37 615.5,-37"/>
<polygon fill="none" stroke="black" points="615.5,-37 615.5,-55 684.5,-55 684.5,-37 615.5,-37"/>
<text text-anchor="start" x="648.5" y="-43.2" font-family="Helvetica,sans-Serif" font-size="11.00">8 rows</text>
<polygon fill="#ffffff" stroke="transparent" points="684.5,-37 684.5,-55 749.5,-55 749.5,-37 684.5,-37"/>
<polygon fill="none" stroke="black" points="684.5,-37 684.5,-55 749.5,-55 749.5,-37 684.5,-37"/>
<text text-anchor="start" x="718.5" y="-43.2" font-family="Helvetica,sans-Serif" font-size="11.00">316 &gt;</text>
</a>
</g>
</g>
<!-- ad_user&#45;&gt;ad_org -->
<g id="edge3" class="edge">
<title>ad_user:w&#45;&gt;ad_org:e</title>
<path fill="none" stroke="black" d="M511.09,-480C500.32,-480 493.34,-480 478,-480"/>
<polygon fill="black" stroke="black" points="517.5,-480 525.5,-483.6 521.5,-480 525.5,-480 525.5,-480 525.5,-480 521.5,-480 525.5,-476.4 517.5,-480 517.5,-480"/>
<ellipse fill="none" stroke="black" cx="514.3" cy="-480" rx="3.2" ry="3.2"/>
</g>
<!-- ad_user&#45;&gt;ad_org -->
<g id="edge4" class="edge">
<title>ad_user:w&#45;&gt;ad_org:e</title>
<path fill="none" stroke="black" d="M511.34,-328.8C468.14,-349.68 543.89,-480 478,-480"/>
<polygon fill="black" stroke="black" points="517.65,-327.55 526.2,-329.53 521.58,-326.78 525.5,-326 525.5,-326 525.5,-326 521.58,-326.78 524.8,-322.47 517.65,-327.55 517.65,-327.55"/>
<ellipse fill="none" stroke="black" cx="514.51" cy="-328.18" rx="3.2" ry="3.2"/>
</g>
<!-- ad_user&#45;&gt;ad_client -->
<g id="edge2" class="edge">
<title>ad_user:w&#45;&gt;ad_client:e</title>
<path fill="none" stroke="black" d="M511.56,-505.63C503.13,-510.8 498.86,-520.09 485,-524 378.77,-553.97 347.37,-537 237,-537"/>
<polygon fill="black" stroke="black" points="517.76,-504.02 526.41,-505.48 521.63,-503.01 525.5,-502 525.5,-502 525.5,-502 521.63,-503.01 524.59,-498.52 517.76,-504.02 517.76,-504.02"/>
<ellipse fill="none" stroke="black" cx="514.66" cy="-504.82" rx="3.2" ry="3.2"/>
</g>
<!-- lbr_docfiscal_detpag -->
<g id="node4" class="node">
<title>lbr_docfiscal_detpag</title>
<g id="a_node4"><a xlink:href="../../tables/lbr_docfiscal_detpag.html" xlink:title="lbr_docfiscal_detpag" target="_top">
<polygon fill="#ffffff" stroke="transparent" points="798,-717 798,-1157 1067,-1157 1067,-717 798,-717"/>
<polygon fill="#f5f5f5" stroke="transparent" points="800.5,-1133 800.5,-1155 1065.5,-1155 1065.5,-1133 800.5,-1133"/>
<polygon fill="none" stroke="black" points="800.5,-1133 800.5,-1155 1065.5,-1155 1065.5,-1133 800.5,-1133"/>
<text text-anchor="start" x="805.5" y="-1142.2" font-family="Helvetica,sans-Serif" font-weight="bold" font-size="11.00">lbr_docfiscal_detpag</text>
<text text-anchor="start" x="1030.5" y="-1141.2" font-family="Helvetica,sans-Serif" font-size="11.00">[table]</text>
<polygon fill="none" stroke="black" points="800.5,-1111 800.5,-1133 982.5,-1133 982.5,-1111 800.5,-1111"/>
<image xlink:href="../../images/foreignKeys.png" width="11px" height="12px" preserveAspectRatio="xMinYMin meet" x="805.5" y="-1128"/>
<text text-anchor="start" x="820.5" y="-1119.2" font-family="Helvetica,sans-Serif" font-size="11.00">ad_client_id</text>
<polygon fill="none" stroke="black" points="982.5,-1111 982.5,-1133 1065.5,-1133 1065.5,-1111 982.5,-1111"/>
<text text-anchor="start" x="985.5" y="-1119.2" font-family="Helvetica,sans-Serif" font-size="11.00">numeric[10]</text>
<polygon fill="none" stroke="black" points="800.5,-1089 800.5,-1111 982.5,-1111 982.5,-1089 800.5,-1089"/>
<image xlink:href="../../images/foreignKeys.png" width="11px" height="12px" preserveAspectRatio="xMinYMin meet" x="805.5" y="-1106"/>
<text text-anchor="start" x="820.5" y="-1097.2" font-family="Helvetica,sans-Serif" font-size="11.00">ad_org_id</text>
<polygon fill="none" stroke="black" points="982.5,-1089 982.5,-1111 1065.5,-1111 1065.5,-1089 982.5,-1089"/>
<text text-anchor="start" x="985.5" y="-1097.2" font-family="Helvetica,sans-Serif" font-size="11.00">numeric[10]</text>
<polygon fill="none" stroke="black" points="800.5,-1067 800.5,-1089 982.5,-1089 982.5,-1067 800.5,-1067"/>
<text text-anchor="start" x="820.5" y="-1075.2" font-family="Helvetica,sans-Serif" font-size="11.00">created</text>
<polygon fill="none" stroke="black" points="982.5,-1067 982.5,-1089 1065.5,-1089 1065.5,-1067 982.5,-1067"/>
<text text-anchor="start" x="985.5" y="-1075.2" font-family="Helvetica,sans-Serif" font-size="11.00">timestamp[29,6]</text>
<polygon fill="none" stroke="black" points="800.5,-1045 800.5,-1067 982.5,-1067 982.5,-1045 800.5,-1045"/>
<image xlink:href="../../images/foreignKeys.png" width="11px" height="12px" preserveAspectRatio="xMinYMin meet" x="805.5" y="-1062"/>
<text text-anchor="start" x="820.5" y="-1053.2" font-family="Helvetica,sans-Serif" font-size="11.00">createdby</text>
<polygon fill="none" stroke="black" points="982.5,-1045 982.5,-1067 1065.5,-1067 1065.5,-1045 982.5,-1045"/>
<text text-anchor="start" x="985.5" y="-1053.2" font-family="Helvetica,sans-Serif" font-size="11.00">numeric[10]</text>
<polygon fill="none" stroke="black" points="800.5,-1023 800.5,-1045 982.5,-1045 982.5,-1023 800.5,-1023"/>
<text text-anchor="start" x="820.5" y="-1031.2" font-family="Helvetica,sans-Serif" font-size="11.00">isactive</text>
<polygon fill="none" stroke="black" points="982.5,-1023 982.5,-1045 1065.5,-1045 1065.5,-1023 982.5,-1023"/>
<text text-anchor="start" x="985.5" y="-1031.2" font-family="Helvetica,sans-Serif" font-size="11.00">bpchar[1]</text>
<polygon fill="none" stroke="black" points="800.5,-1001 800.5,-1023 982.5,-1023 982.5,-1001 800.5,-1001"/>
<image xlink:href="../../images/foreignKeys.png" width="11px" height="12px" preserveAspectRatio="xMinYMin meet" x="805.5" y="-1018"/>
<text text-anchor="start" x="820.5" y="-1009.2" font-family="Helvetica,sans-Serif" font-size="11.00">lbr_docfiscal_id</text>
<polygon fill="none" stroke="black" points="982.5,-1001 982.5,-1023 1065.5,-1023 1065.5,-1001 982.5,-1001"/>
<text text-anchor="start" x="985.5" y="-1009.2" font-family="Helvetica,sans-Serif" font-size="11.00">numeric[10]</text>
<polygon fill="none" stroke="black" points="800.5,-979 800.5,-1001 982.5,-1001 982.5,-979 800.5,-979"/>
<image xlink:href="../../images/primaryKeys.png" width="11px" height="12px" preserveAspectRatio="xMinYMin meet" x="805.5" y="-996"/>
<text text-anchor="start" x="820.5" y="-987.2" font-family="Helvetica,sans-Serif" font-size="11.00">lbr_docfiscal_detpag_id</text>
<polygon fill="none" stroke="black" points="982.5,-979 982.5,-1001 1065.5,-1001 1065.5,-979 982.5,-979"/>
<text text-anchor="start" x="985.5" y="-987.2" font-family="Helvetica,sans-Serif" font-size="11.00">numeric[10]</text>
<polygon fill="none" stroke="black" points="800.5,-957 800.5,-979 982.5,-979 982.5,-957 800.5,-957"/>
<text text-anchor="start" x="820.5" y="-965.2" font-family="Helvetica,sans-Serif" font-size="11.00">updated</text>
<polygon fill="none" stroke="black" points="982.5,-957 982.5,-979 1065.5,-979 1065.5,-957 982.5,-957"/>
<text text-anchor="start" x="985.5" y="-965.2" font-family="Helvetica,sans-Serif" font-size="11.00">timestamp[29,6]</text>
<polygon fill="none" stroke="black" points="800.5,-935 800.5,-957 982.5,-957 982.5,-935 800.5,-935"/>
<image xlink:href="../../images/foreignKeys.png" width="11px" height="12px" preserveAspectRatio="xMinYMin meet" x="805.5" y="-952"/>
<text text-anchor="start" x="820.5" y="-943.2" font-family="Helvetica,sans-Serif" font-size="11.00">updatedby</text>
<polygon fill="none" stroke="black" points="982.5,-935 982.5,-957 1065.5,-957 1065.5,-935 982.5,-935"/>
<text text-anchor="start" x="985.5" y="-943.2" font-family="Helvetica,sans-Serif" font-size="11.00">numeric[10]</text>
<polygon fill="none" stroke="black" points="800.5,-913 800.5,-935 982.5,-935 982.5,-913 800.5,-913"/>
<text text-anchor="start" x="820.5" y="-921.2" font-family="Helvetica,sans-Serif" font-size="11.00">pag_tpag</text>
<polygon fill="none" stroke="black" points="982.5,-913 982.5,-935 1065.5,-935 1065.5,-913 982.5,-913"/>
<text text-anchor="start" x="985.5" y="-921.2" font-family="Helvetica,sans-Serif" font-size="11.00">varchar[2]</text>
<polygon fill="none" stroke="black" points="800.5,-891 800.5,-913 982.5,-913 982.5,-891 800.5,-891"/>
<text text-anchor="start" x="820.5" y="-899.2" font-family="Helvetica,sans-Serif" font-size="11.00">pag_vpag</text>
<polygon fill="none" stroke="black" points="982.5,-891 982.5,-913 1065.5,-913 1065.5,-891 982.5,-891"/>
<text text-anchor="start" x="985.5" y="-899.2" font-family="Helvetica,sans-Serif" font-size="11.00">numeric[0]</text>
<polygon fill="none" stroke="black" points="800.5,-869 800.5,-891 982.5,-891 982.5,-869 800.5,-869"/>
<text text-anchor="start" x="820.5" y="-877.2" font-family="Helvetica,sans-Serif" font-size="11.00">pag_card_cnpj</text>
<polygon fill="none" stroke="black" points="982.5,-869 982.5,-891 1065.5,-891 1065.5,-869 982.5,-869"/>
<text text-anchor="start" x="985.5" y="-877.2" font-family="Helvetica,sans-Serif" font-size="11.00">varchar[18]</text>
<polygon fill="none" stroke="black" points="800.5,-847 800.5,-869 982.5,-869 982.5,-847 800.5,-847"/>
<text text-anchor="start" x="820.5" y="-855.2" font-family="Helvetica,sans-Serif" font-size="11.00">pag_card_tband</text>
<polygon fill="none" stroke="black" points="982.5,-847 982.5,-869 1065.5,-869 1065.5,-847 982.5,-847"/>
<text text-anchor="start" x="985.5" y="-855.2" font-family="Helvetica,sans-Serif" font-size="11.00">varchar[2]</text>
<polygon fill="none" stroke="black" points="800.5,-825 800.5,-847 982.5,-847 982.5,-825 800.5,-825"/>
<text text-anchor="start" x="820.5" y="-833.2" font-family="Helvetica,sans-Serif" font-size="11.00">pag_card_caut</text>
<polygon fill="none" stroke="black" points="982.5,-825 982.5,-847 1065.5,-847 1065.5,-825 982.5,-825"/>
<text text-anchor="start" x="985.5" y="-833.2" font-family="Helvetica,sans-Serif" font-size="11.00">varchar[20]</text>
<polygon fill="#ffffff" stroke="transparent" points="800.5,-803 800.5,-825 982.5,-825 982.5,-803 800.5,-803"/>
<polygon fill="none" stroke="black" points="800.5,-803 800.5,-825 982.5,-825 982.5,-803 800.5,-803"/>
<text text-anchor="start" x="820.5" y="-811.2" font-family="Helvetica,sans-Serif" font-size="11.00">lbr_docfiscal_detpag_uu</text>
<polygon fill="none" stroke="black" points="982.5,-803 982.5,-825 1065.5,-825 1065.5,-803 982.5,-803"/>
<text text-anchor="start" x="985.5" y="-811.2" font-family="Helvetica,sans-Serif" font-size="11.00">varchar[36]</text>
<polygon fill="none" stroke="black" points="800.5,-781 800.5,-803 982.5,-803 982.5,-781 800.5,-781"/>
<text text-anchor="start" x="820.5" y="-789.2" font-family="Helvetica,sans-Serif" font-size="11.00">pag_card_tpintegra</text>
<polygon fill="none" stroke="black" points="982.5,-781 982.5,-803 1065.5,-803 1065.5,-781 982.5,-781"/>
<text text-anchor="start" x="985.5" y="-789.2" font-family="Helvetica,sans-Serif" font-size="11.00">bpchar[1]</text>
<polygon fill="none" stroke="black" points="800.5,-759 800.5,-781 982.5,-781 982.5,-759 800.5,-759"/>
<text text-anchor="start" x="820.5" y="-767.2" font-family="Helvetica,sans-Serif" font-size="11.00">pag_indpag</text>
<polygon fill="none" stroke="black" points="982.5,-759 982.5,-781 1065.5,-781 1065.5,-759 982.5,-759"/>
<text text-anchor="start" x="985.5" y="-767.2" font-family="Helvetica,sans-Serif" font-size="11.00">bpchar[1]</text>
<polygon fill="none" stroke="black" points="800.5,-737 800.5,-759 982.5,-759 982.5,-737 800.5,-737"/>
<text text-anchor="start" x="820.5" y="-745.2" font-family="Helvetica,sans-Serif" font-size="11.00">pag_xpag</text>
<polygon fill="none" stroke="black" points="982.5,-737 982.5,-759 1065.5,-759 1065.5,-737 982.5,-737"/>
<text text-anchor="start" x="985.5" y="-745.2" font-family="Helvetica,sans-Serif" font-size="11.00">varchar[60]</text>
<polygon fill="#ffffff" stroke="transparent" points="800.5,-719 800.5,-737 882.5,-737 882.5,-719 800.5,-719"/>
<polygon fill="none" stroke="black" points="800.5,-719 800.5,-737 882.5,-737 882.5,-719 800.5,-719"/>
<text text-anchor="start" x="803.5" y="-725.2" font-family="Helvetica,sans-Serif" font-size="11.00">&lt; 5</text>
<polygon fill="#ffffff" stroke="transparent" points="882.5,-719 882.5,-737 982.5,-737 982.5,-719 882.5,-719"/>
<polygon fill="none" stroke="black" points="882.5,-719 882.5,-737 982.5,-737 982.5,-719 882.5,-719"/>
<text text-anchor="start" x="946.5" y="-725.2" font-family="Helvetica,sans-Serif" font-size="11.00">0 rows</text>
<polygon fill="#ffffff" stroke="transparent" points="982.5,-719 982.5,-737 1065.5,-737 1065.5,-719 982.5,-719"/>
<polygon fill="none" stroke="black" points="982.5,-719 982.5,-737 1065.5,-737 1065.5,-719 982.5,-719"/>
<text text-anchor="start" x="1046.5" y="-725.2" font-family="Helvetica,sans-Serif" font-size="11.00">0 &gt;</text>
<polygon fill="none" stroke="black" stroke-width="2" points="799,-718 799,-1156 1066,-1156 1066,-718 799,-718"/>
</a>
</g>
</g>
<!-- lbr_docfiscal_detpag&#45;&gt;ad_org -->
<g id="edge6" class="edge">
<title>lbr_docfiscal_detpag:w&#45;&gt;ad_org:e</title>
<path fill="none" stroke="black" d="M784.72,-1100.42C713.03,-1103.97 559.57,-1127.76 518,-1087 469.74,-1039.68 545.59,-480 478,-480"/>
<polygon fill="black" stroke="black" points="791.5,-1100.23 799.6,-1103.6 795.5,-1100.11 799.5,-1100 799.5,-1100 799.5,-1100 795.5,-1100.11 799.4,-1096.4 791.5,-1100.23 791.5,-1100.23"/>
<ellipse fill="none" stroke="black" cx="788.3" cy="-1100.32" rx="3.2" ry="3.2"/>
</g>
<!-- lbr_docfiscal_detpag&#45;&gt;ad_client -->
<g id="edge5" class="edge">
<title>lbr_docfiscal_detpag:w&#45;&gt;ad_client:e</title>
<path fill="none" stroke="black" d="M784.8,-1122.25C670.02,-1126.19 618.48,-1174.06 518,-1108 399.83,-1030.31 378.42,-537 237,-537"/>
<polygon fill="black" stroke="black" points="791.5,-1122.14 799.56,-1125.6 795.5,-1122.07 799.5,-1122 799.5,-1122 799.5,-1122 795.5,-1122.07 799.44,-1118.4 791.5,-1122.14 791.5,-1122.14"/>
<ellipse fill="none" stroke="black" cx="788.3" cy="-1122.19" rx="3.2" ry="3.2"/>
</g>
<!-- lbr_docfiscal_detpag&#45;&gt;ad_user -->
<g id="edge7" class="edge">
<title>lbr_docfiscal_detpag:w&#45;&gt;ad_user:e</title>
<path fill="none" stroke="black" d="M785.3,-1052.88C697.09,-1009.28 863.89,-524 750.5,-524"/>
<polygon fill="black" stroke="black" points="791.69,-1054.28 798.73,-1059.52 795.59,-1055.14 799.5,-1056 799.5,-1056 799.5,-1056 795.59,-1055.14 800.27,-1052.48 791.69,-1054.28 791.69,-1054.28"/>
<ellipse fill="none" stroke="black" cx="788.56" cy="-1053.59" rx="3.2" ry="3.2"/>
</g>
<!-- lbr_docfiscal_detpag&#45;&gt;ad_user -->
<g id="edge9" class="edge">
<title>lbr_docfiscal_detpag:w&#45;&gt;ad_user:e</title>
<path fill="none" stroke="black" d="M785.63,-942.09C720.18,-899.55 839.56,-524 750.5,-524"/>
<polygon fill="black" stroke="black" points="791.8,-943.83 798.52,-949.47 795.65,-944.92 799.5,-946 799.5,-946 799.5,-946 795.65,-944.92 800.48,-942.53 791.8,-943.83 791.8,-943.83"/>
<ellipse fill="none" stroke="black" cx="788.72" cy="-942.96" rx="3.2" ry="3.2"/>
</g>
<!-- lbr_docfiscal -->
<g id="node5" class="node">
<title>lbr_docfiscal</title>
<g id="a_node5"><a xlink:href="../../tables/lbr_docfiscal.html" xlink:title="lbr_docfiscal" target="_top">
<polygon fill="#ffffff" stroke="transparent" points="527.5,-578 527.5,-1076 747.5,-1076 747.5,-578 527.5,-578"/>
<polygon fill="#f5f5f5" stroke="transparent" points="527.5,-1054 527.5,-1076 747.5,-1076 747.5,-1054 527.5,-1054"/>
<polygon fill="none" stroke="black" points="527.5,-1054 527.5,-1076 747.5,-1076 747.5,-1054 527.5,-1054"/>
<text text-anchor="start" x="532.5" y="-1063.2" font-family="Helvetica,sans-Serif" font-weight="bold" font-size="11.00">lbr_docfiscal</text>
<text text-anchor="start" x="712.5" y="-1062.2" font-family="Helvetica,sans-Serif" font-size="11.00">[table]</text>
<polygon fill="none" stroke="black" points="527.5,-1032 527.5,-1054 747.5,-1054 747.5,-1032 527.5,-1032"/>
<image xlink:href="../../images/primaryKeys.png" width="11px" height="12px" preserveAspectRatio="xMinYMin meet" x="532.5" y="-1049"/>
<text text-anchor="start" x="547.5" y="-1040.2" font-family="Helvetica,sans-Serif" font-size="11.00">lbr_docfiscal_id</text>
<polygon fill="none" stroke="black" points="527.5,-1010 527.5,-1032 747.5,-1032 747.5,-1010 527.5,-1010"/>
<image xlink:href="../../images/foreignKeys.png" width="11px" height="12px" preserveAspectRatio="xMinYMin meet" x="532.5" y="-1027"/>
<text text-anchor="start" x="547.5" y="-1018.2" font-family="Helvetica,sans-Serif" font-size="11.00">c_doctype_id</text>
<polygon fill="none" stroke="black" points="527.5,-988 527.5,-1010 747.5,-1010 747.5,-988 527.5,-988"/>
<image xlink:href="../../images/foreignKeys.png" width="11px" height="12px" preserveAspectRatio="xMinYMin meet" x="532.5" y="-1005"/>
<text text-anchor="start" x="547.5" y="-996.2" font-family="Helvetica,sans-Serif" font-size="11.00">m_shipper_id</text>
<polygon fill="#ffffff" stroke="transparent" points="527.5,-966 527.5,-988 747.5,-988 747.5,-966 527.5,-966"/>
<polygon fill="none" stroke="black" points="527.5,-966 527.5,-988 747.5,-988 747.5,-966 527.5,-966"/>
<image xlink:href="../../images/foreignKeys.png" width="11px" height="12px" preserveAspectRatio="xMinYMin meet" x="532.5" y="-983"/>
<text text-anchor="start" x="547.5" y="-974.2" font-family="Helvetica,sans-Serif" font-size="11.00">c_invoice_id</text>
<polygon fill="none" stroke="black" points="527.5,-944 527.5,-966 747.5,-966 747.5,-944 527.5,-944"/>
<image xlink:href="../../images/foreignKeys.png" width="11px" height="12px" preserveAspectRatio="xMinYMin meet" x="532.5" y="-961"/>
<text text-anchor="start" x="547.5" y="-952.2" font-family="Helvetica,sans-Serif" font-size="11.00">c_order_id</text>
<polygon fill="none" stroke="black" points="527.5,-922 527.5,-944 747.5,-944 747.5,-922 527.5,-922"/>
<image xlink:href="../../images/foreignKeys.png" width="11px" height="12px" preserveAspectRatio="xMinYMin meet" x="532.5" y="-939"/>
<text text-anchor="start" x="547.5" y="-930.2" font-family="Helvetica,sans-Serif" font-size="11.00">m_inout_id</text>
<polygon fill="none" stroke="black" points="527.5,-900 527.5,-922 747.5,-922 747.5,-900 527.5,-900"/>
<image xlink:href="../../images/foreignKeys.png" width="11px" height="12px" preserveAspectRatio="xMinYMin meet" x="532.5" y="-917"/>
<text text-anchor="start" x="547.5" y="-908.2" font-family="Helvetica,sans-Serif" font-size="11.00">m_pricelist_id</text>
<polygon fill="none" stroke="black" points="527.5,-878 527.5,-900 747.5,-900 747.5,-878 527.5,-878"/>
<image xlink:href="../../images/foreignKeys.png" width="11px" height="12px" preserveAspectRatio="xMinYMin meet" x="532.5" y="-895"/>
<text text-anchor="start" x="547.5" y="-886.2" font-family="Helvetica,sans-Serif" font-size="11.00">c_paymentterm_id</text>
<polygon fill="#ffffff" stroke="transparent" points="527.5,-856 527.5,-878 747.5,-878 747.5,-856 527.5,-856"/>
<polygon fill="none" stroke="black" points="527.5,-856 527.5,-878 747.5,-878 747.5,-856 527.5,-856"/>
<text text-anchor="start" x="547.5" y="-864.2" font-family="Helvetica,sans-Serif" font-size="11.00">lbr_nfestatus</text>
<polygon fill="none" stroke="black" points="527.5,-834 527.5,-856 747.5,-856 747.5,-834 527.5,-834"/>
<image xlink:href="../../images/foreignKeys.png" width="11px" height="12px" preserveAspectRatio="xMinYMin meet" x="532.5" y="-851"/>
<text text-anchor="start" x="547.5" y="-842.2" font-family="Helvetica,sans-Serif" font-size="11.00">lbr_nfelot_id</text>
<polygon fill="#ffffff" stroke="transparent" points="527.5,-812 527.5,-834 747.5,-834 747.5,-812 527.5,-812"/>
<polygon fill="none" stroke="black" points="527.5,-812 527.5,-834 747.5,-834 747.5,-812 527.5,-812"/>
<text text-anchor="start" x="547.5" y="-820.2" font-family="Helvetica,sans-Serif" font-size="11.00">lbr_docfiscal_uu</text>
<polygon fill="none" stroke="black" points="527.5,-790 527.5,-812 747.5,-812 747.5,-790 527.5,-790"/>
<image xlink:href="../../images/foreignKeys.png" width="11px" height="12px" preserveAspectRatio="xMinYMin meet" x="532.5" y="-807"/>
<text text-anchor="start" x="547.5" y="-798.2" font-family="Helvetica,sans-Serif" font-size="11.00">c_currency_id</text>
<polygon fill="none" stroke="black" points="527.5,-768 527.5,-790 747.5,-790 747.5,-768 527.5,-768"/>
<image xlink:href="../../images/foreignKeys.png" width="11px" height="12px" preserveAspectRatio="xMinYMin meet" x="532.5" y="-785"/>
<text text-anchor="start" x="547.5" y="-776.2" font-family="Helvetica,sans-Serif" font-size="11.00">m_movement_id</text>
<polygon fill="none" stroke="black" points="527.5,-746 527.5,-768 747.5,-768 747.5,-746 527.5,-746"/>
<image xlink:href="../../images/foreignKeys.png" width="11px" height="12px" preserveAspectRatio="xMinYMin meet" x="532.5" y="-763"/>
<text text-anchor="start" x="547.5" y="-754.2" font-family="Helvetica,sans-Serif" font-size="11.00">cof_dfe_id</text>
<polygon fill="none" stroke="black" points="527.5,-724 527.5,-746 747.5,-746 747.5,-724 527.5,-724"/>
<image xlink:href="../../images/foreignKeys.png" width="11px" height="12px" preserveAspectRatio="xMinYMin meet" x="532.5" y="-741"/>
<text text-anchor="start" x="547.5" y="-732.2" font-family="Helvetica,sans-Serif" font-size="11.00">cof_pnretira_id</text>
<polygon fill="none" stroke="black" points="527.5,-702 527.5,-724 747.5,-724 747.5,-702 527.5,-702"/>
<image xlink:href="../../images/foreignKeys.png" width="11px" height="12px" preserveAspectRatio="xMinYMin meet" x="532.5" y="-719"/>
<text text-anchor="start" x="547.5" y="-710.2" font-family="Helvetica,sans-Serif" font-size="11.00">cof_pnlocationretira_id</text>
<polygon fill="none" stroke="black" points="527.5,-680 527.5,-702 747.5,-702 747.5,-680 527.5,-680"/>
<image xlink:href="../../images/foreignKeys.png" width="11px" height="12px" preserveAspectRatio="xMinYMin meet" x="532.5" y="-697"/>
<text text-anchor="start" x="547.5" y="-688.2" font-family="Helvetica,sans-Serif" font-size="11.00">retira_city_id</text>
<polygon fill="none" stroke="black" points="527.5,-658 527.5,-680 747.5,-680 747.5,-658 527.5,-658"/>
<image xlink:href="../../images/foreignKeys.png" width="11px" height="12px" preserveAspectRatio="xMinYMin meet" x="532.5" y="-675"/>
<text text-anchor="start" x="547.5" y="-666.2" font-family="Helvetica,sans-Serif" font-size="11.00">retira_region_id</text>
<polygon fill="none" stroke="black" points="527.5,-636 527.5,-658 747.5,-658 747.5,-636 527.5,-636"/>
<image xlink:href="../../images/foreignKeys.png" width="11px" height="12px" preserveAspectRatio="xMinYMin meet" x="532.5" y="-653"/>
<text text-anchor="start" x="547.5" y="-644.2" font-family="Helvetica,sans-Serif" font-size="11.00">retira_country_id</text>
<polygon fill="none" stroke="black" points="527.5,-614 527.5,-636 747.5,-636 747.5,-614 527.5,-614"/>
<image xlink:href="../../images/foreignKeys.png" width="11px" height="12px" preserveAspectRatio="xMinYMin meet" x="532.5" y="-631"/>
<text text-anchor="start" x="547.5" y="-622.2" font-family="Helvetica,sans-Serif" font-size="11.00">entrega_country_id</text>
<polygon fill="none" stroke="black" points="527.5,-596 527.5,-614 747.5,-614 747.5,-596 527.5,-596"/>
<text text-anchor="start" x="530.5" y="-602.2" font-family="Helvetica,sans-Serif" font-size="11.00">...</text>
<polygon fill="#ffffff" stroke="transparent" points="527.5,-578 527.5,-596 614.5,-596 614.5,-578 527.5,-578"/>
<polygon fill="none" stroke="black" points="527.5,-578 527.5,-596 614.5,-596 614.5,-578 527.5,-578"/>
<text text-anchor="start" x="530.5" y="-584.2" font-family="Helvetica,sans-Serif" font-size="11.00">&lt; 9</text>
<polygon fill="#ffffff" stroke="transparent" points="614.5,-578 614.5,-596 686.5,-596 686.5,-578 614.5,-578"/>
<polygon fill="none" stroke="black" points="614.5,-578 614.5,-596 686.5,-596 686.5,-578 614.5,-578"/>
<text text-anchor="start" x="650.5" y="-584.2" font-family="Helvetica,sans-Serif" font-size="11.00">0 rows</text>
<polygon fill="#ffffff" stroke="transparent" points="686.5,-578 686.5,-596 747.5,-596 747.5,-578 686.5,-578"/>
<polygon fill="none" stroke="black" points="686.5,-578 686.5,-596 747.5,-596 747.5,-578 686.5,-578"/>
<text text-anchor="start" x="722.5" y="-584.2" font-family="Helvetica,sans-Serif" font-size="11.00">29 &gt;</text>
</a>
</g>
</g>
<!-- lbr_docfiscal_detpag&#45;&gt;lbr_docfiscal -->
<g id="edge8" class="edge">
<title>lbr_docfiscal_detpag:w&#45;&gt;lbr_docfiscal:e</title>
<path fill="none" stroke="black" d="M785.6,-1015.8C772.5,-1024.08 769.22,-1043 748.5,-1043"/>
<polygon fill="black" stroke="black" points="791.78,-1014.11 800.45,-1015.47 795.64,-1013.05 799.5,-1012 799.5,-1012 799.5,-1012 795.64,-1013.05 798.55,-1008.53 791.78,-1014.11 791.78,-1014.11"/>
<ellipse fill="none" stroke="black" cx="788.7" cy="-1014.95" rx="3.2" ry="3.2"/>
</g>
</g>
</svg>
