<?xml version="1.0" encoding="UTF-8" standalone="no"?>
<!DOCTYPE svg PUBLIC "-//W3C//DTD SVG 1.1//EN"
 "http://www.w3.org/Graphics/SVG/1.1/DTD/svg11.dtd">
<!-- Generated by graphviz version 2.43.0 (0)
 -->
<!-- Title: oneDegreeRelationshipsDiagram Pages: 1 -->
<svg width="1019pt" height="1117pt"
 viewBox="0.00 0.00 1019.00 1117.00" xmlns="http://www.w3.org/2000/svg" xmlns:xlink="http://www.w3.org/1999/xlink">
<g id="graph0" class="graph" transform="scale(1 1) rotate(0) translate(4 1113)">
<title>oneDegreeRelationshipsDiagram</title>
<polygon fill="#ffffff" stroke="transparent" points="-4,4 -4,-1113 1015,-1113 1015,4 -4,4"/>
<text text-anchor="middle" x="71.5" y="-7.2" font-family="Helvetica,sans-Serif" font-size="11.00">Generated by SchemaSpy</text>
<!-- cof_labelfield -->
<g id="node1" class="node">
<title>cof_labelfield</title>
<g id="a_node1"><a xlink:href="../../tables/cof_labelfield.html" xlink:title="cof_labelfield" target="_top">
<polygon fill="#ffffff" stroke="transparent" points="531,-893 531,-1105 757,-1105 757,-893 531,-893"/>
<polygon fill="#f5f5f5" stroke="transparent" points="531,-1083 531,-1105 757,-1105 757,-1083 531,-1083"/>
<polygon fill="none" stroke="black" points="531,-1083 531,-1105 757,-1105 757,-1083 531,-1083"/>
<text text-anchor="start" x="536" y="-1092.2" font-family="Helvetica,sans-Serif" font-weight="bold" font-size="11.00">cof_labelfield</text>
<text text-anchor="start" x="722" y="-1091.2" font-family="Helvetica,sans-Serif" font-size="11.00">[table]</text>
<polygon fill="none" stroke="black" points="531,-1061 531,-1083 757,-1083 757,-1061 531,-1061"/>
<image xlink:href="../../images/primaryKeys.png" width="11px" height="12px" preserveAspectRatio="xMinYMin meet" x="536" y="-1078"/>
<text text-anchor="start" x="551" y="-1069.2" font-family="Helvetica,sans-Serif" font-size="11.00">cof_labelfield_id</text>
<polygon fill="#ffffff" stroke="transparent" points="531,-1039 531,-1061 757,-1061 757,-1039 531,-1039"/>
<polygon fill="none" stroke="black" points="531,-1039 531,-1061 757,-1061 757,-1039 531,-1039"/>
<text text-anchor="start" x="551" y="-1047.2" font-family="Helvetica,sans-Serif" font-size="11.00">cof_labelfield_uu</text>
<polygon fill="none" stroke="black" points="531,-1017 531,-1039 757,-1039 757,-1017 531,-1017"/>
<image xlink:href="../../images/foreignKeys.png" width="11px" height="12px" preserveAspectRatio="xMinYMin meet" x="536" y="-1034"/>
<text text-anchor="start" x="551" y="-1025.2" font-family="Helvetica,sans-Serif" font-size="11.00">ad_field_id</text>
<polygon fill="none" stroke="black" points="531,-995 531,-1017 757,-1017 757,-995 531,-995"/>
<image xlink:href="../../images/foreignKeys.png" width="11px" height="12px" preserveAspectRatio="xMinYMin meet" x="536" y="-1012"/>
<text text-anchor="start" x="551" y="-1003.2" font-family="Helvetica,sans-Serif" font-size="11.00">cof_labelconfig_id</text>
<polygon fill="none" stroke="black" points="531,-973 531,-995 757,-995 757,-973 531,-973"/>
<image xlink:href="../../images/foreignKeys.png" width="11px" height="12px" preserveAspectRatio="xMinYMin meet" x="536" y="-990"/>
<text text-anchor="start" x="551" y="-981.2" font-family="Helvetica,sans-Serif" font-size="11.00">cof_productbarcodecolumn_id</text>
<polygon fill="none" stroke="black" points="531,-951 531,-973 757,-973 757,-951 531,-951"/>
<image xlink:href="../../images/foreignKeys.png" width="11px" height="12px" preserveAspectRatio="xMinYMin meet" x="536" y="-968"/>
<text text-anchor="start" x="551" y="-959.2" font-family="Helvetica,sans-Serif" font-size="11.00">m_attribute_id</text>
<polygon fill="none" stroke="black" points="531,-929 531,-951 757,-951 757,-929 531,-929"/>
<image xlink:href="../../images/foreignKeys.png" width="11px" height="12px" preserveAspectRatio="xMinYMin meet" x="536" y="-946"/>
<text text-anchor="start" x="551" y="-937.2" font-family="Helvetica,sans-Serif" font-size="11.00">ad_sequence_id</text>
<polygon fill="none" stroke="black" points="531,-911 531,-929 757,-929 757,-911 531,-911"/>
<text text-anchor="start" x="534" y="-917.2" font-family="Helvetica,sans-Serif" font-size="11.00">...</text>
<polygon fill="#ffffff" stroke="transparent" points="531,-893 531,-911 629,-911 629,-893 531,-893"/>
<polygon fill="none" stroke="black" points="531,-893 531,-911 629,-911 629,-893 531,-893"/>
<text text-anchor="start" x="534" y="-899.2" font-family="Helvetica,sans-Serif" font-size="11.00">&lt; 5</text>
<polygon fill="#ffffff" stroke="transparent" points="629,-893 629,-911 706,-911 706,-893 629,-893"/>
<polygon fill="none" stroke="black" points="629,-893 629,-911 706,-911 706,-893 629,-893"/>
<text text-anchor="start" x="670" y="-899.2" font-family="Helvetica,sans-Serif" font-size="11.00">0 rows</text>
<polygon fill="#ffffff" stroke="transparent" points="706,-893 706,-911 757,-911 757,-893 706,-893"/>
<polygon fill="none" stroke="black" points="706,-893 706,-911 757,-911 757,-893 706,-893"/>
<text text-anchor="start" x="747" y="-899.2" font-family="Helvetica,sans-Serif" font-size="11.00"> &#160;</text>
</a>
</g>
</g>
<!-- m_attribute -->
<g id="node2" class="node">
<title>m_attribute</title>
<g id="a_node2"><a xlink:href="../../tables/m_attribute.html" xlink:title="m_attribute" target="_top">
<polygon fill="#ffffff" stroke="transparent" points="225,-341 225,-803 482,-803 482,-341 225,-341"/>
<polygon fill="#f5f5f5" stroke="transparent" points="227.5,-779 227.5,-801 480.5,-801 480.5,-779 227.5,-779"/>
<polygon fill="none" stroke="black" points="227.5,-779 227.5,-801 480.5,-801 480.5,-779 227.5,-779"/>
<text text-anchor="start" x="232.5" y="-788.2" font-family="Helvetica,sans-Serif" font-weight="bold" font-size="11.00">m_attribute</text>
<text text-anchor="start" x="445.5" y="-787.2" font-family="Helvetica,sans-Serif" font-size="11.00">[table]</text>
<polygon fill="none" stroke="black" points="227.5,-757 227.5,-779 397.5,-779 397.5,-757 227.5,-757"/>
<image xlink:href="../../images/primaryKeys.png" width="11px" height="12px" preserveAspectRatio="xMinYMin meet" x="232.5" y="-774"/>
<text text-anchor="start" x="247.5" y="-765.2" font-family="Helvetica,sans-Serif" font-size="11.00">m_attribute_id</text>
<polygon fill="none" stroke="black" points="397.5,-757 397.5,-779 480.5,-779 480.5,-757 397.5,-757"/>
<text text-anchor="start" x="400.5" y="-765.2" font-family="Helvetica,sans-Serif" font-size="11.00">numeric[10]</text>
<polygon fill="none" stroke="black" points="227.5,-735 227.5,-757 397.5,-757 397.5,-735 227.5,-735"/>
<text text-anchor="start" x="247.5" y="-743.2" font-family="Helvetica,sans-Serif" font-size="11.00">ad_client_id</text>
<polygon fill="none" stroke="black" points="397.5,-735 397.5,-757 480.5,-757 480.5,-735 397.5,-735"/>
<text text-anchor="start" x="400.5" y="-743.2" font-family="Helvetica,sans-Serif" font-size="11.00">numeric[10]</text>
<polygon fill="none" stroke="black" points="227.5,-713 227.5,-735 397.5,-735 397.5,-713 227.5,-713"/>
<text text-anchor="start" x="247.5" y="-721.2" font-family="Helvetica,sans-Serif" font-size="11.00">ad_org_id</text>
<polygon fill="none" stroke="black" points="397.5,-713 397.5,-735 480.5,-735 480.5,-713 397.5,-713"/>
<text text-anchor="start" x="400.5" y="-721.2" font-family="Helvetica,sans-Serif" font-size="11.00">numeric[10]</text>
<polygon fill="none" stroke="black" points="227.5,-691 227.5,-713 397.5,-713 397.5,-691 227.5,-691"/>
<text text-anchor="start" x="247.5" y="-699.2" font-family="Helvetica,sans-Serif" font-size="11.00">isactive</text>
<polygon fill="none" stroke="black" points="397.5,-691 397.5,-713 480.5,-713 480.5,-691 397.5,-691"/>
<text text-anchor="start" x="400.5" y="-699.2" font-family="Helvetica,sans-Serif" font-size="11.00">bpchar[1]</text>
<polygon fill="none" stroke="black" points="227.5,-669 227.5,-691 397.5,-691 397.5,-669 227.5,-669"/>
<text text-anchor="start" x="247.5" y="-677.2" font-family="Helvetica,sans-Serif" font-size="11.00">created</text>
<polygon fill="none" stroke="black" points="397.5,-669 397.5,-691 480.5,-691 480.5,-669 397.5,-669"/>
<text text-anchor="start" x="400.5" y="-677.2" font-family="Helvetica,sans-Serif" font-size="11.00">timestamp[29,6]</text>
<polygon fill="none" stroke="black" points="227.5,-647 227.5,-669 397.5,-669 397.5,-647 227.5,-647"/>
<text text-anchor="start" x="247.5" y="-655.2" font-family="Helvetica,sans-Serif" font-size="11.00">createdby</text>
<polygon fill="none" stroke="black" points="397.5,-647 397.5,-669 480.5,-669 480.5,-647 397.5,-647"/>
<text text-anchor="start" x="400.5" y="-655.2" font-family="Helvetica,sans-Serif" font-size="11.00">numeric[10]</text>
<polygon fill="none" stroke="black" points="227.5,-625 227.5,-647 397.5,-647 397.5,-625 227.5,-625"/>
<text text-anchor="start" x="247.5" y="-633.2" font-family="Helvetica,sans-Serif" font-size="11.00">updated</text>
<polygon fill="none" stroke="black" points="397.5,-625 397.5,-647 480.5,-647 480.5,-625 397.5,-625"/>
<text text-anchor="start" x="400.5" y="-633.2" font-family="Helvetica,sans-Serif" font-size="11.00">timestamp[29,6]</text>
<polygon fill="none" stroke="black" points="227.5,-603 227.5,-625 397.5,-625 397.5,-603 227.5,-603"/>
<text text-anchor="start" x="247.5" y="-611.2" font-family="Helvetica,sans-Serif" font-size="11.00">updatedby</text>
<polygon fill="none" stroke="black" points="397.5,-603 397.5,-625 480.5,-625 480.5,-603 397.5,-603"/>
<text text-anchor="start" x="400.5" y="-611.2" font-family="Helvetica,sans-Serif" font-size="11.00">numeric[10]</text>
<polygon fill="none" stroke="black" points="227.5,-581 227.5,-603 397.5,-603 397.5,-581 227.5,-581"/>
<text text-anchor="start" x="247.5" y="-589.2" font-family="Helvetica,sans-Serif" font-size="11.00">name</text>
<polygon fill="none" stroke="black" points="397.5,-581 397.5,-603 480.5,-603 480.5,-581 397.5,-581"/>
<text text-anchor="start" x="400.5" y="-589.2" font-family="Helvetica,sans-Serif" font-size="11.00">varchar[60]</text>
<polygon fill="none" stroke="black" points="227.5,-559 227.5,-581 397.5,-581 397.5,-559 227.5,-559"/>
<text text-anchor="start" x="247.5" y="-567.2" font-family="Helvetica,sans-Serif" font-size="11.00">description</text>
<polygon fill="none" stroke="black" points="397.5,-559 397.5,-581 480.5,-581 480.5,-559 397.5,-559"/>
<text text-anchor="start" x="400.5" y="-567.2" font-family="Helvetica,sans-Serif" font-size="11.00">varchar[255]</text>
<polygon fill="none" stroke="black" points="227.5,-537 227.5,-559 397.5,-559 397.5,-537 227.5,-537"/>
<text text-anchor="start" x="247.5" y="-545.2" font-family="Helvetica,sans-Serif" font-size="11.00">ismandatory</text>
<polygon fill="none" stroke="black" points="397.5,-537 397.5,-559 480.5,-559 480.5,-537 397.5,-537"/>
<text text-anchor="start" x="400.5" y="-545.2" font-family="Helvetica,sans-Serif" font-size="11.00">bpchar[1]</text>
<polygon fill="none" stroke="black" points="227.5,-515 227.5,-537 397.5,-537 397.5,-515 227.5,-515"/>
<text text-anchor="start" x="247.5" y="-523.2" font-family="Helvetica,sans-Serif" font-size="11.00">isinstanceattribute</text>
<polygon fill="none" stroke="black" points="397.5,-515 397.5,-537 480.5,-537 480.5,-515 397.5,-515"/>
<text text-anchor="start" x="400.5" y="-523.2" font-family="Helvetica,sans-Serif" font-size="11.00">bpchar[1]</text>
<polygon fill="none" stroke="black" points="227.5,-493 227.5,-515 397.5,-515 397.5,-493 227.5,-493"/>
<image xlink:href="../../images/foreignKeys.png" width="11px" height="12px" preserveAspectRatio="xMinYMin meet" x="232.5" y="-510"/>
<text text-anchor="start" x="247.5" y="-501.2" font-family="Helvetica,sans-Serif" font-size="11.00">m_attributesearch_id</text>
<polygon fill="none" stroke="black" points="397.5,-493 397.5,-515 480.5,-515 480.5,-493 397.5,-493"/>
<text text-anchor="start" x="400.5" y="-501.2" font-family="Helvetica,sans-Serif" font-size="11.00">numeric[10]</text>
<polygon fill="none" stroke="black" points="227.5,-471 227.5,-493 397.5,-493 397.5,-471 227.5,-471"/>
<text text-anchor="start" x="247.5" y="-479.2" font-family="Helvetica,sans-Serif" font-size="11.00">attributevaluetype</text>
<polygon fill="none" stroke="black" points="397.5,-471 397.5,-493 480.5,-493 480.5,-471 397.5,-471"/>
<text text-anchor="start" x="400.5" y="-479.2" font-family="Helvetica,sans-Serif" font-size="11.00">bpchar[1]</text>
<polygon fill="#ffffff" stroke="transparent" points="227.5,-449 227.5,-471 397.5,-471 397.5,-449 227.5,-449"/>
<polygon fill="none" stroke="black" points="227.5,-449 227.5,-471 397.5,-471 397.5,-449 227.5,-449"/>
<text text-anchor="start" x="247.5" y="-457.2" font-family="Helvetica,sans-Serif" font-size="11.00">m_attribute_uu</text>
<polygon fill="none" stroke="black" points="397.5,-449 397.5,-471 480.5,-471 480.5,-449 397.5,-449"/>
<text text-anchor="start" x="400.5" y="-457.2" font-family="Helvetica,sans-Serif" font-size="11.00">varchar[36]</text>
<polygon fill="none" stroke="black" points="227.5,-427 227.5,-449 397.5,-449 397.5,-427 227.5,-427"/>
<text text-anchor="start" x="247.5" y="-435.2" font-family="Helvetica,sans-Serif" font-size="11.00">dateformat</text>
<polygon fill="none" stroke="black" points="397.5,-427 397.5,-449 480.5,-449 480.5,-427 397.5,-427"/>
<text text-anchor="start" x="400.5" y="-435.2" font-family="Helvetica,sans-Serif" font-size="11.00">varchar[20]</text>
<polygon fill="none" stroke="black" points="227.5,-405 227.5,-427 397.5,-427 397.5,-405 227.5,-405"/>
<image xlink:href="../../images/foreignKeys.png" width="11px" height="12px" preserveAspectRatio="xMinYMin meet" x="232.5" y="-422"/>
<text text-anchor="start" x="247.5" y="-413.2" font-family="Helvetica,sans-Serif" font-size="11.00">ad_reference_id</text>
<polygon fill="none" stroke="black" points="397.5,-405 397.5,-427 480.5,-427 480.5,-405 397.5,-405"/>
<text text-anchor="start" x="400.5" y="-413.2" font-family="Helvetica,sans-Serif" font-size="11.00">numeric[10]</text>
<polygon fill="none" stroke="black" points="227.5,-383 227.5,-405 397.5,-405 397.5,-383 227.5,-383"/>
<image xlink:href="../../images/foreignKeys.png" width="11px" height="12px" preserveAspectRatio="xMinYMin meet" x="232.5" y="-400"/>
<text text-anchor="start" x="247.5" y="-391.2" font-family="Helvetica,sans-Serif" font-size="11.00">ad_reference_value_id</text>
<polygon fill="none" stroke="black" points="397.5,-383 397.5,-405 480.5,-405 480.5,-383 397.5,-383"/>
<text text-anchor="start" x="400.5" y="-391.2" font-family="Helvetica,sans-Serif" font-size="11.00">numeric[10]</text>
<polygon fill="none" stroke="black" points="227.5,-361 227.5,-383 397.5,-383 397.5,-361 227.5,-361"/>
<image xlink:href="../../images/foreignKeys.png" width="11px" height="12px" preserveAspectRatio="xMinYMin meet" x="232.5" y="-378"/>
<text text-anchor="start" x="247.5" y="-369.2" font-family="Helvetica,sans-Serif" font-size="11.00">ad_val_rule_id</text>
<polygon fill="none" stroke="black" points="397.5,-361 397.5,-383 480.5,-383 480.5,-361 397.5,-361"/>
<text text-anchor="start" x="400.5" y="-369.2" font-family="Helvetica,sans-Serif" font-size="11.00">numeric[10]</text>
<polygon fill="#ffffff" stroke="transparent" points="227.5,-343 227.5,-361 303.5,-361 303.5,-343 227.5,-343"/>
<polygon fill="none" stroke="black" points="227.5,-343 227.5,-361 303.5,-361 303.5,-343 227.5,-343"/>
<text text-anchor="start" x="230.5" y="-349.2" font-family="Helvetica,sans-Serif" font-size="11.00">&lt; 4</text>
<polygon fill="#ffffff" stroke="transparent" points="303.5,-343 303.5,-361 397.5,-361 397.5,-343 303.5,-343"/>
<polygon fill="none" stroke="black" points="303.5,-343 303.5,-361 397.5,-361 397.5,-343 303.5,-343"/>
<text text-anchor="start" x="361.5" y="-349.2" font-family="Helvetica,sans-Serif" font-size="11.00">0 rows</text>
<polygon fill="#ffffff" stroke="transparent" points="397.5,-343 397.5,-361 480.5,-361 480.5,-343 397.5,-343"/>
<polygon fill="none" stroke="black" points="397.5,-343 397.5,-361 480.5,-361 480.5,-343 397.5,-343"/>
<text text-anchor="start" x="461.5" y="-349.2" font-family="Helvetica,sans-Serif" font-size="11.00">5 &gt;</text>
<polygon fill="none" stroke="black" stroke-width="2" points="226,-342 226,-802 481,-802 481,-342 226,-342"/>
</a>
</g>
</g>
<!-- cof_labelfield&#45;&gt;m_attribute -->
<g id="edge1" class="edge">
<title>cof_labelfield:w&#45;&gt;m_attribute:e</title>
<path fill="none" stroke="black" d="M515.42,-959.69C456.88,-937.8 564.65,-768 481.5,-768"/>
<polygon fill="black" stroke="black" points="522.1,-960.75 529.44,-965.56 526.05,-961.37 530,-962 530,-962 530,-962 526.05,-961.37 530.56,-958.44 522.1,-960.75 522.1,-960.75"/>
<ellipse fill="none" stroke="black" cx="518.94" cy="-960.24" rx="3.2" ry="3.2"/>
</g>
<!-- ad_reference -->
<g id="node3" class="node">
<title>ad_reference</title>
<g id="a_node3"><a xlink:href="../../tables/ad_reference.html" xlink:title="ad_reference" target="_top">
<polygon fill="#ffffff" stroke="transparent" points="26,-226 26,-438 158,-438 158,-226 26,-226"/>
<polygon fill="#f5f5f5" stroke="transparent" points="26,-416 26,-438 158,-438 158,-416 26,-416"/>
<polygon fill="none" stroke="black" points="26,-416 26,-438 158,-438 158,-416 26,-416"/>
<text text-anchor="start" x="31" y="-425.2" font-family="Helvetica,sans-Serif" font-weight="bold" font-size="11.00">ad_reference</text>
<text text-anchor="start" x="123" y="-424.2" font-family="Helvetica,sans-Serif" font-size="11.00">[table]</text>
<polygon fill="none" stroke="black" points="26,-394 26,-416 158,-416 158,-394 26,-394"/>
<image xlink:href="../../images/primaryKeys.png" width="11px" height="12px" preserveAspectRatio="xMinYMin meet" x="31" y="-411"/>
<text text-anchor="start" x="46" y="-402.2" font-family="Helvetica,sans-Serif" font-size="11.00">ad_reference_id</text>
<polygon fill="none" stroke="black" points="26,-372 26,-394 158,-394 158,-372 26,-372"/>
<image xlink:href="../../images/foreignKeys.png" width="11px" height="12px" preserveAspectRatio="xMinYMin meet" x="31" y="-389"/>
<text text-anchor="start" x="46" y="-380.2" font-family="Helvetica,sans-Serif" font-size="11.00">ad_client_id</text>
<polygon fill="none" stroke="black" points="26,-350 26,-372 158,-372 158,-350 26,-350"/>
<image xlink:href="../../images/foreignKeys.png" width="11px" height="12px" preserveAspectRatio="xMinYMin meet" x="31" y="-367"/>
<text text-anchor="start" x="46" y="-358.2" font-family="Helvetica,sans-Serif" font-size="11.00">ad_org_id</text>
<polygon fill="#ffffff" stroke="transparent" points="26,-328 26,-350 158,-350 158,-328 26,-328"/>
<polygon fill="none" stroke="black" points="26,-328 26,-350 158,-350 158,-328 26,-328"/>
<text text-anchor="start" x="46" y="-336.2" font-family="Helvetica,sans-Serif" font-size="11.00">name</text>
<polygon fill="none" stroke="black" points="26,-306 26,-328 158,-328 158,-306 26,-306"/>
<image xlink:href="../../images/foreignKeys.png" width="11px" height="12px" preserveAspectRatio="xMinYMin meet" x="31" y="-323"/>
<text text-anchor="start" x="46" y="-314.2" font-family="Helvetica,sans-Serif" font-size="11.00">entitytype</text>
<polygon fill="#ffffff" stroke="transparent" points="26,-284 26,-306 158,-306 158,-284 26,-284"/>
<polygon fill="none" stroke="black" points="26,-284 26,-306 158,-306 158,-284 26,-284"/>
<text text-anchor="start" x="46" y="-292.2" font-family="Helvetica,sans-Serif" font-size="11.00">ad_reference_uu</text>
<polygon fill="none" stroke="black" points="26,-262 26,-284 158,-284 158,-262 26,-262"/>
<image xlink:href="../../images/foreignKeys.png" width="11px" height="12px" preserveAspectRatio="xMinYMin meet" x="31" y="-279"/>
<text text-anchor="start" x="46" y="-270.2" font-family="Helvetica,sans-Serif" font-size="11.00">ad_element_id</text>
<polygon fill="none" stroke="black" points="26,-244 26,-262 158,-262 158,-244 26,-244"/>
<text text-anchor="start" x="29" y="-250.2" font-family="Helvetica,sans-Serif" font-size="11.00">...</text>
<polygon fill="#ffffff" stroke="transparent" points="26,-226 26,-244 59,-244 59,-226 26,-226"/>
<polygon fill="none" stroke="black" points="26,-226 26,-244 59,-244 59,-226 26,-226"/>
<text text-anchor="start" x="29" y="-232.2" font-family="Helvetica,sans-Serif" font-size="11.00">&lt; 4</text>
<polygon fill="#ffffff" stroke="transparent" points="59,-226 59,-244 124,-244 124,-226 59,-226"/>
<polygon fill="none" stroke="black" points="59,-226 59,-244 124,-244 124,-226 59,-226"/>
<text text-anchor="start" x="67" y="-232.2" font-family="Helvetica,sans-Serif" font-size="11.00">1.022 rows</text>
<polygon fill="#ffffff" stroke="transparent" points="124,-226 124,-244 158,-244 158,-226 124,-226"/>
<polygon fill="none" stroke="black" points="124,-226 124,-244 158,-244 158,-226 124,-226"/>
<text text-anchor="start" x="133" y="-232.2" font-family="Helvetica,sans-Serif" font-size="11.00">31 &gt;</text>
</a>
</g>
</g>
<!-- m_attribute&#45;&gt;ad_reference -->
<g id="edge2" class="edge">
<title>m_attribute:w&#45;&gt;ad_reference:e</title>
<path fill="none" stroke="black" d="M211.86,-415.02C192.84,-412.33 183.82,-405 159,-405"/>
<polygon fill="black" stroke="black" points="218.52,-415.47 226.26,-419.59 222.51,-415.73 226.5,-416 226.5,-416 226.5,-416 222.51,-415.73 226.74,-412.41 218.52,-415.47 218.52,-415.47"/>
<ellipse fill="none" stroke="black" cx="215.32" cy="-415.25" rx="3.2" ry="3.2"/>
</g>
<!-- m_attribute&#45;&gt;ad_reference -->
<g id="edge3" class="edge">
<title>m_attribute:w&#45;&gt;ad_reference:e</title>
<path fill="none" stroke="black" d="M211.86,-394.98C192.84,-397.67 183.82,-405 159,-405"/>
<polygon fill="black" stroke="black" points="218.52,-394.53 226.74,-397.59 222.51,-394.27 226.5,-394 226.5,-394 226.5,-394 222.51,-394.27 226.26,-390.41 218.52,-394.53 218.52,-394.53"/>
<ellipse fill="none" stroke="black" cx="215.32" cy="-394.75" rx="3.2" ry="3.2"/>
</g>
<!-- ad_val_rule -->
<g id="node4" class="node">
<title>ad_val_rule</title>
<g id="a_node4"><a xlink:href="../../tables/ad_val_rule.html" xlink:title="ad_val_rule" target="_top">
<polygon fill="#ffffff" stroke="transparent" points="32.5,-37 32.5,-205 151.5,-205 151.5,-37 32.5,-37"/>
<polygon fill="#f5f5f5" stroke="transparent" points="33,-183 33,-205 152,-205 152,-183 33,-183"/>
<polygon fill="none" stroke="black" points="33,-183 33,-205 152,-205 152,-183 33,-183"/>
<text text-anchor="start" x="38" y="-192.2" font-family="Helvetica,sans-Serif" font-weight="bold" font-size="11.00">ad_val_rule</text>
<text text-anchor="start" x="117" y="-191.2" font-family="Helvetica,sans-Serif" font-size="11.00">[table]</text>
<polygon fill="none" stroke="black" points="33,-161 33,-183 152,-183 152,-161 33,-161"/>
<image xlink:href="../../images/primaryKeys.png" width="11px" height="12px" preserveAspectRatio="xMinYMin meet" x="38" y="-178"/>
<text text-anchor="start" x="53" y="-169.2" font-family="Helvetica,sans-Serif" font-size="11.00">ad_val_rule_id</text>
<polygon fill="none" stroke="black" points="33,-139 33,-161 152,-161 152,-139 33,-139"/>
<image xlink:href="../../images/foreignKeys.png" width="11px" height="12px" preserveAspectRatio="xMinYMin meet" x="38" y="-156"/>
<text text-anchor="start" x="53" y="-147.2" font-family="Helvetica,sans-Serif" font-size="11.00">ad_client_id</text>
<polygon fill="none" stroke="black" points="33,-117 33,-139 152,-139 152,-117 33,-117"/>
<image xlink:href="../../images/foreignKeys.png" width="11px" height="12px" preserveAspectRatio="xMinYMin meet" x="38" y="-134"/>
<text text-anchor="start" x="53" y="-125.2" font-family="Helvetica,sans-Serif" font-size="11.00">ad_org_id</text>
<polygon fill="none" stroke="black" points="33,-95 33,-117 152,-117 152,-95 33,-95"/>
<image xlink:href="../../images/foreignKeys.png" width="11px" height="12px" preserveAspectRatio="xMinYMin meet" x="38" y="-112"/>
<text text-anchor="start" x="53" y="-103.2" font-family="Helvetica,sans-Serif" font-size="11.00">entitytype</text>
<polygon fill="#ffffff" stroke="transparent" points="33,-73 33,-95 152,-95 152,-73 33,-73"/>
<polygon fill="none" stroke="black" points="33,-73 33,-95 152,-95 152,-73 33,-73"/>
<text text-anchor="start" x="53" y="-81.2" font-family="Helvetica,sans-Serif" font-size="11.00">ad_val_rule_uu</text>
<polygon fill="none" stroke="black" points="33,-55 33,-73 152,-73 152,-55 33,-55"/>
<text text-anchor="start" x="36" y="-61.2" font-family="Helvetica,sans-Serif" font-size="11.00">...</text>
<polygon fill="#ffffff" stroke="transparent" points="33,-37 33,-55 64,-55 64,-37 33,-37"/>
<polygon fill="none" stroke="black" points="33,-37 33,-55 64,-55 64,-37 33,-37"/>
<text text-anchor="start" x="36" y="-43.2" font-family="Helvetica,sans-Serif" font-size="11.00">&lt; 3</text>
<polygon fill="#ffffff" stroke="transparent" points="64,-37 64,-55 119,-55 119,-37 64,-37"/>
<polygon fill="none" stroke="black" points="64,-37 64,-55 119,-55 119,-37 64,-37"/>
<text text-anchor="start" x="71" y="-43.2" font-family="Helvetica,sans-Serif" font-size="11.00">523 rows</text>
<polygon fill="#ffffff" stroke="transparent" points="119,-37 119,-55 152,-55 152,-37 119,-37"/>
<polygon fill="none" stroke="black" points="119,-37 119,-55 152,-55 152,-37 119,-37"/>
<text text-anchor="start" x="127" y="-43.2" font-family="Helvetica,sans-Serif" font-size="11.00">14 &gt;</text>
</a>
</g>
</g>
<!-- m_attribute&#45;&gt;ad_val_rule -->
<g id="edge4" class="edge">
<title>m_attribute:w&#45;&gt;ad_val_rule:e</title>
<path fill="none" stroke="black" d="M211.94,-370.02C144.66,-349.25 242.15,-172 153,-172"/>
<polygon fill="black" stroke="black" points="218.57,-370.92 226.02,-375.57 222.54,-371.46 226.5,-372 226.5,-372 226.5,-372 222.54,-371.46 226.98,-368.43 218.57,-370.92 218.57,-370.92"/>
<ellipse fill="none" stroke="black" cx="215.4" cy="-370.49" rx="3.2" ry="3.2"/>
</g>
<!-- m_attributesearch -->
<g id="node5" class="node">
<title>m_attributesearch</title>
<g id="a_node5"><a xlink:href="../../tables/m_attributesearch.html" xlink:title="m_attributesearch" target="_top">
<polygon fill="#ffffff" stroke="transparent" points="8,-459 8,-561 176,-561 176,-459 8,-459"/>
<polygon fill="#f5f5f5" stroke="transparent" points="8,-539 8,-561 176,-561 176,-539 8,-539"/>
<polygon fill="none" stroke="black" points="8,-539 8,-561 176,-561 176,-539 8,-539"/>
<text text-anchor="start" x="13" y="-548.2" font-family="Helvetica,sans-Serif" font-weight="bold" font-size="11.00">m_attributesearch</text>
<text text-anchor="start" x="141" y="-547.2" font-family="Helvetica,sans-Serif" font-size="11.00">[table]</text>
<polygon fill="none" stroke="black" points="8,-517 8,-539 176,-539 176,-517 8,-517"/>
<image xlink:href="../../images/primaryKeys.png" width="11px" height="12px" preserveAspectRatio="xMinYMin meet" x="13" y="-534"/>
<text text-anchor="start" x="28" y="-525.2" font-family="Helvetica,sans-Serif" font-size="11.00">m_attributesearch_id</text>
<polygon fill="#ffffff" stroke="transparent" points="8,-495 8,-517 176,-517 176,-495 8,-495"/>
<polygon fill="none" stroke="black" points="8,-495 8,-517 176,-517 176,-495 8,-495"/>
<text text-anchor="start" x="28" y="-503.2" font-family="Helvetica,sans-Serif" font-size="11.00">m_attributesearch_uu</text>
<polygon fill="none" stroke="black" points="8,-477 8,-495 176,-495 176,-477 8,-477"/>
<text text-anchor="start" x="11" y="-483.2" font-family="Helvetica,sans-Serif" font-size="11.00">...</text>
<polygon fill="#ffffff" stroke="transparent" points="8,-459 8,-477 68,-477 68,-459 8,-459"/>
<polygon fill="none" stroke="black" points="8,-459 8,-477 68,-477 68,-459 8,-459"/>
<text text-anchor="start" x="11" y="-465.2" font-family="Helvetica,sans-Serif" font-size="11.00"> &#160;</text>
<polygon fill="#ffffff" stroke="transparent" points="68,-459 68,-477 130,-477 130,-459 68,-459"/>
<polygon fill="none" stroke="black" points="68,-459 68,-477 130,-477 130,-459 68,-459"/>
<text text-anchor="start" x="94" y="-465.2" font-family="Helvetica,sans-Serif" font-size="11.00">0 rows</text>
<polygon fill="#ffffff" stroke="transparent" points="130,-459 130,-477 176,-477 176,-459 130,-459"/>
<polygon fill="none" stroke="black" points="130,-459 130,-477 176,-477 176,-459 130,-459"/>
<text text-anchor="start" x="157" y="-465.2" font-family="Helvetica,sans-Serif" font-size="11.00">1 &gt;</text>
</a>
</g>
</g>
<!-- m_attribute&#45;&gt;m_attributesearch -->
<g id="edge5" class="edge">
<title>m_attribute:w&#45;&gt;m_attributesearch:e</title>
<path fill="none" stroke="black" d="M212.25,-507.54C200.36,-514.22 195.53,-528 177,-528"/>
<polygon fill="black" stroke="black" points="218.74,-505.93 227.37,-507.49 222.62,-504.97 226.5,-504 226.5,-504 226.5,-504 222.62,-504.97 225.63,-500.51 218.74,-505.93 218.74,-505.93"/>
<ellipse fill="none" stroke="black" cx="215.63" cy="-506.7" rx="3.2" ry="3.2"/>
</g>
<!-- m_attributeinstance -->
<g id="node6" class="node">
<title>m_attributeinstance</title>
<g id="a_node6"><a xlink:href="../../tables/m_attributeinstance.html" xlink:title="m_attributeinstance" target="_top">
<polygon fill="#ffffff" stroke="transparent" points="806,-760 806,-906 1003,-906 1003,-760 806,-760"/>
<polygon fill="#f5f5f5" stroke="transparent" points="806.5,-884 806.5,-906 1003.5,-906 1003.5,-884 806.5,-884"/>
<polygon fill="none" stroke="black" points="806.5,-884 806.5,-906 1003.5,-906 1003.5,-884 806.5,-884"/>
<text text-anchor="start" x="811.5" y="-893.2" font-family="Helvetica,sans-Serif" font-weight="bold" font-size="11.00">m_attributeinstance</text>
<text text-anchor="start" x="968.5" y="-892.2" font-family="Helvetica,sans-Serif" font-size="11.00">[table]</text>
<polygon fill="none" stroke="black" points="806.5,-862 806.5,-884 1003.5,-884 1003.5,-862 806.5,-862"/>
<image xlink:href="../../images/primaryKeys.png" width="11px" height="12px" preserveAspectRatio="xMinYMin meet" x="811.5" y="-879"/>
<text text-anchor="start" x="826.5" y="-870.2" font-family="Helvetica,sans-Serif" font-size="11.00">m_attributesetinstance_id</text>
<polygon fill="none" stroke="black" points="806.5,-840 806.5,-862 1003.5,-862 1003.5,-840 806.5,-840"/>
<image xlink:href="../../images/primaryKeys.png" width="11px" height="12px" preserveAspectRatio="xMinYMin meet" x="811.5" y="-857"/>
<text text-anchor="start" x="826.5" y="-848.2" font-family="Helvetica,sans-Serif" font-size="11.00">m_attribute_id</text>
<polygon fill="none" stroke="black" points="806.5,-818 806.5,-840 1003.5,-840 1003.5,-818 806.5,-818"/>
<image xlink:href="../../images/foreignKeys.png" width="11px" height="12px" preserveAspectRatio="xMinYMin meet" x="811.5" y="-835"/>
<text text-anchor="start" x="826.5" y="-826.2" font-family="Helvetica,sans-Serif" font-size="11.00">m_attributevalue_id</text>
<polygon fill="#ffffff" stroke="transparent" points="806.5,-796 806.5,-818 1003.5,-818 1003.5,-796 806.5,-796"/>
<polygon fill="none" stroke="black" points="806.5,-796 806.5,-818 1003.5,-818 1003.5,-796 806.5,-796"/>
<text text-anchor="start" x="826.5" y="-804.2" font-family="Helvetica,sans-Serif" font-size="11.00">m_attributeinstance_uu</text>
<polygon fill="none" stroke="black" points="806.5,-778 806.5,-796 1003.5,-796 1003.5,-778 806.5,-778"/>
<text text-anchor="start" x="809.5" y="-784.2" font-family="Helvetica,sans-Serif" font-size="11.00">...</text>
<polygon fill="#ffffff" stroke="transparent" points="806.5,-760 806.5,-778 889.5,-778 889.5,-760 806.5,-760"/>
<polygon fill="none" stroke="black" points="806.5,-760 806.5,-778 889.5,-778 889.5,-760 806.5,-760"/>
<text text-anchor="start" x="809.5" y="-766.2" font-family="Helvetica,sans-Serif" font-size="11.00">&lt; 2</text>
<polygon fill="#ffffff" stroke="transparent" points="889.5,-760 889.5,-778 959.5,-778 959.5,-760 889.5,-760"/>
<polygon fill="none" stroke="black" points="889.5,-760 889.5,-778 959.5,-778 959.5,-760 889.5,-760"/>
<text text-anchor="start" x="923.5" y="-766.2" font-family="Helvetica,sans-Serif" font-size="11.00">0 rows</text>
<polygon fill="#ffffff" stroke="transparent" points="959.5,-760 959.5,-778 1003.5,-778 1003.5,-760 959.5,-760"/>
<polygon fill="none" stroke="black" points="959.5,-760 959.5,-778 1003.5,-778 1003.5,-760 959.5,-760"/>
<text text-anchor="start" x="993.5" y="-766.2" font-family="Helvetica,sans-Serif" font-size="11.00"> &#160;</text>
</a>
</g>
</g>
<!-- m_attributeinstance&#45;&gt;m_attribute -->
<g id="edge6" class="edge">
<title>m_attributeinstance:w&#45;&gt;m_attribute:e</title>
<path fill="none" stroke="black" d="M790.87,-852.06C782.94,-853.3 777.02,-855.26 765,-856 711.32,-859.3 568.42,-884.8 523,-856 486.48,-832.85 524.74,-768 481.5,-768"/>
<polygon fill="black" stroke="black" points="797.52,-851.58 805.76,-854.59 801.51,-851.29 805.5,-851 805.5,-851 805.5,-851 801.51,-851.29 805.24,-847.41 797.52,-851.58 797.52,-851.58"/>
<ellipse fill="none" stroke="black" cx="794.33" cy="-851.81" rx="3.2" ry="3.2"/>
</g>
<!-- m_attributevalue -->
<g id="node7" class="node">
<title>m_attributevalue</title>
<g id="a_node7"><a xlink:href="../../tables/m_attributevalue.html" xlink:title="m_attributevalue" target="_top">
<polygon fill="#ffffff" stroke="transparent" points="564.5,-677 564.5,-845 723.5,-845 723.5,-677 564.5,-677"/>
<polygon fill="#f5f5f5" stroke="transparent" points="565,-823 565,-845 724,-845 724,-823 565,-823"/>
<polygon fill="none" stroke="black" points="565,-823 565,-845 724,-845 724,-823 565,-823"/>
<text text-anchor="start" x="570" y="-832.2" font-family="Helvetica,sans-Serif" font-weight="bold" font-size="11.00">m_attributevalue</text>
<text text-anchor="start" x="689" y="-831.2" font-family="Helvetica,sans-Serif" font-size="11.00">[table]</text>
<polygon fill="none" stroke="black" points="565,-801 565,-823 724,-823 724,-801 565,-801"/>
<image xlink:href="../../images/primaryKeys.png" width="11px" height="12px" preserveAspectRatio="xMinYMin meet" x="570" y="-818"/>
<text text-anchor="start" x="585" y="-809.2" font-family="Helvetica,sans-Serif" font-size="11.00">m_attributevalue_id</text>
<polygon fill="#ffffff" stroke="transparent" points="565,-779 565,-801 724,-801 724,-779 565,-779"/>
<polygon fill="none" stroke="black" points="565,-779 565,-801 724,-801 724,-779 565,-779"/>
<text text-anchor="start" x="585" y="-787.2" font-family="Helvetica,sans-Serif" font-size="11.00">ad_client_id</text>
<polygon fill="#ffffff" stroke="transparent" points="565,-757 565,-779 724,-779 724,-757 565,-757"/>
<polygon fill="none" stroke="black" points="565,-757 565,-779 724,-779 724,-757 565,-757"/>
<image xlink:href="../../images/foreignKeys.png" width="11px" height="12px" preserveAspectRatio="xMinYMin meet" x="570" y="-774"/>
<text text-anchor="start" x="585" y="-765.2" font-family="Helvetica,sans-Serif" font-size="11.00">m_attribute_id</text>
<polygon fill="#ffffff" stroke="transparent" points="565,-735 565,-757 724,-757 724,-735 565,-735"/>
<polygon fill="none" stroke="black" points="565,-735 565,-757 724,-757 724,-735 565,-735"/>
<text text-anchor="start" x="585" y="-743.2" font-family="Helvetica,sans-Serif" font-size="11.00">value</text>
<polygon fill="#ffffff" stroke="transparent" points="565,-713 565,-735 724,-735 724,-713 565,-713"/>
<polygon fill="none" stroke="black" points="565,-713 565,-735 724,-735 724,-713 565,-713"/>
<text text-anchor="start" x="585" y="-721.2" font-family="Helvetica,sans-Serif" font-size="11.00">m_attributevalue_uu</text>
<polygon fill="none" stroke="black" points="565,-695 565,-713 724,-713 724,-695 565,-695"/>
<text text-anchor="start" x="568" y="-701.2" font-family="Helvetica,sans-Serif" font-size="11.00">...</text>
<polygon fill="#ffffff" stroke="transparent" points="565,-677 565,-695 625,-695 625,-677 565,-677"/>
<polygon fill="none" stroke="black" points="565,-677 565,-695 625,-695 625,-677 565,-677"/>
<text text-anchor="start" x="568" y="-683.2" font-family="Helvetica,sans-Serif" font-size="11.00">&lt; 1</text>
<polygon fill="#ffffff" stroke="transparent" points="625,-677 625,-695 683,-695 683,-677 625,-677"/>
<polygon fill="none" stroke="black" points="625,-677 625,-695 683,-695 683,-677 625,-677"/>
<text text-anchor="start" x="647" y="-683.2" font-family="Helvetica,sans-Serif" font-size="11.00">0 rows</text>
<polygon fill="#ffffff" stroke="transparent" points="683,-677 683,-695 724,-695 724,-677 683,-677"/>
<polygon fill="none" stroke="black" points="683,-677 683,-695 724,-695 724,-677 683,-677"/>
<text text-anchor="start" x="705" y="-683.2" font-family="Helvetica,sans-Serif" font-size="11.00">1 &gt;</text>
</a>
</g>
</g>
<!-- m_attributeinstance&#45;&gt;m_attributevalue -->
<g id="edge7" class="edge">
<title>m_attributeinstance:w&#45;&gt;m_attributevalue:e</title>
<path fill="none" stroke="black" d="M790.96,-827.99C766.1,-824.33 756.14,-812 725,-812"/>
<polygon fill="black" stroke="black" points="797.52,-828.44 805.25,-832.59 801.51,-828.72 805.5,-829 805.5,-829 805.5,-829 801.51,-828.72 805.75,-825.41 797.52,-828.44 797.52,-828.44"/>
<ellipse fill="none" stroke="black" cx="794.33" cy="-828.22" rx="3.2" ry="3.2"/>
</g>
<!-- m_attributevalue&#45;&gt;m_attribute -->
<g id="edge9" class="edge">
<title>m_attributevalue:w&#45;&gt;m_attribute:e</title>
<path fill="none" stroke="black" d="M549.31,-768C524.01,-768 512.72,-768 481.5,-768"/>
<polygon fill="black" stroke="black" points="556,-768 564,-771.6 560,-768 564,-768 564,-768 564,-768 560,-768 564,-764.4 556,-768 556,-768"/>
<ellipse fill="none" stroke="black" cx="552.8" cy="-768" rx="3.2" ry="3.2"/>
</g>
<!-- m_attributeuse -->
<g id="node8" class="node">
<title>m_attributeuse</title>
<g id="a_node8"><a xlink:href="../../tables/m_attributeuse.html" xlink:title="m_attributeuse" target="_top">
<polygon fill="#ffffff" stroke="transparent" points="570.5,-532 570.5,-656 717.5,-656 717.5,-532 570.5,-532"/>
<polygon fill="#f5f5f5" stroke="transparent" points="571,-634 571,-656 718,-656 718,-634 571,-634"/>
<polygon fill="none" stroke="black" points="571,-634 571,-656 718,-656 718,-634 571,-634"/>
<text text-anchor="start" x="576" y="-643.2" font-family="Helvetica,sans-Serif" font-weight="bold" font-size="11.00">m_attributeuse</text>
<text text-anchor="start" x="683" y="-642.2" font-family="Helvetica,sans-Serif" font-size="11.00">[table]</text>
<polygon fill="none" stroke="black" points="571,-612 571,-634 718,-634 718,-612 571,-612"/>
<image xlink:href="../../images/primaryKeys.png" width="11px" height="12px" preserveAspectRatio="xMinYMin meet" x="576" y="-629"/>
<text text-anchor="start" x="591" y="-620.2" font-family="Helvetica,sans-Serif" font-size="11.00">m_attribute_id</text>
<polygon fill="none" stroke="black" points="571,-590 571,-612 718,-612 718,-590 571,-590"/>
<image xlink:href="../../images/primaryKeys.png" width="11px" height="12px" preserveAspectRatio="xMinYMin meet" x="576" y="-607"/>
<text text-anchor="start" x="591" y="-598.2" font-family="Helvetica,sans-Serif" font-size="11.00">m_attributeset_id</text>
<polygon fill="#ffffff" stroke="transparent" points="571,-568 571,-590 718,-590 718,-568 571,-568"/>
<polygon fill="none" stroke="black" points="571,-568 571,-590 718,-590 718,-568 571,-568"/>
<text text-anchor="start" x="591" y="-576.2" font-family="Helvetica,sans-Serif" font-size="11.00">m_attributeuse_uu</text>
<polygon fill="none" stroke="black" points="571,-550 571,-568 718,-568 718,-550 571,-550"/>
<text text-anchor="start" x="574" y="-556.2" font-family="Helvetica,sans-Serif" font-size="11.00">...</text>
<polygon fill="#ffffff" stroke="transparent" points="571,-532 571,-550 629,-550 629,-532 571,-532"/>
<polygon fill="none" stroke="black" points="571,-532 571,-550 629,-550 629,-532 571,-532"/>
<text text-anchor="start" x="574" y="-538.2" font-family="Helvetica,sans-Serif" font-size="11.00">&lt; 2</text>
<polygon fill="#ffffff" stroke="transparent" points="629,-532 629,-550 686,-550 686,-532 629,-532"/>
<polygon fill="none" stroke="black" points="629,-532 629,-550 686,-550 686,-532 629,-532"/>
<text text-anchor="start" x="650" y="-538.2" font-family="Helvetica,sans-Serif" font-size="11.00">0 rows</text>
<polygon fill="#ffffff" stroke="transparent" points="686,-532 686,-550 718,-550 718,-532 686,-532"/>
<polygon fill="none" stroke="black" points="686,-532 686,-550 718,-550 718,-532 686,-532"/>
<text text-anchor="start" x="708" y="-538.2" font-family="Helvetica,sans-Serif" font-size="11.00"> &#160;</text>
</a>
</g>
</g>
<!-- m_attributeuse&#45;&gt;m_attribute -->
<g id="edge8" class="edge">
<title>m_attributeuse:w&#45;&gt;m_attribute:e</title>
<path fill="none" stroke="black" d="M555.5,-625.39C539.94,-631.44 535.95,-648.23 523,-667 495.43,-706.94 530.03,-768 481.5,-768"/>
<polygon fill="black" stroke="black" points="562.11,-624.3 570.58,-626.55 566.05,-623.65 570,-623 570,-623 570,-623 566.05,-623.65 569.42,-619.45 562.11,-624.3 562.11,-624.3"/>
<ellipse fill="none" stroke="black" cx="558.95" cy="-624.82" rx="3.2" ry="3.2"/>
</g>
<!-- qm_specificationline -->
<g id="node9" class="node">
<title>qm_specificationline</title>
<g id="a_node9"><a xlink:href="../../tables/qm_specificationline.html" xlink:title="qm_specificationline" target="_top">
<polygon fill="#ffffff" stroke="transparent" points="553,-365 553,-511 735,-511 735,-365 553,-365"/>
<polygon fill="#f5f5f5" stroke="transparent" points="553,-489 553,-511 735,-511 735,-489 553,-489"/>
<polygon fill="none" stroke="black" points="553,-489 553,-511 735,-511 735,-489 553,-489"/>
<text text-anchor="start" x="558" y="-498.2" font-family="Helvetica,sans-Serif" font-weight="bold" font-size="11.00">qm_specificationline</text>
<text text-anchor="start" x="700" y="-497.2" font-family="Helvetica,sans-Serif" font-size="11.00">[table]</text>
<polygon fill="none" stroke="black" points="553,-467 553,-489 735,-489 735,-467 553,-467"/>
<image xlink:href="../../images/primaryKeys.png" width="11px" height="12px" preserveAspectRatio="xMinYMin meet" x="558" y="-484"/>
<text text-anchor="start" x="573" y="-475.2" font-family="Helvetica,sans-Serif" font-size="11.00">qm_specificationline_id</text>
<polygon fill="none" stroke="black" points="553,-445 553,-467 735,-467 735,-445 553,-445"/>
<image xlink:href="../../images/foreignKeys.png" width="11px" height="12px" preserveAspectRatio="xMinYMin meet" x="558" y="-462"/>
<text text-anchor="start" x="573" y="-453.2" font-family="Helvetica,sans-Serif" font-size="11.00">m_attribute_id</text>
<polygon fill="none" stroke="black" points="553,-423 553,-445 735,-445 735,-423 553,-423"/>
<image xlink:href="../../images/foreignKeys.png" width="11px" height="12px" preserveAspectRatio="xMinYMin meet" x="558" y="-440"/>
<text text-anchor="start" x="573" y="-431.2" font-family="Helvetica,sans-Serif" font-size="11.00">qm_specification_id</text>
<polygon fill="#ffffff" stroke="transparent" points="553,-401 553,-423 735,-423 735,-401 553,-401"/>
<polygon fill="none" stroke="black" points="553,-401 553,-423 735,-423 735,-401 553,-401"/>
<text text-anchor="start" x="573" y="-409.2" font-family="Helvetica,sans-Serif" font-size="11.00">qm_specificationline_uu</text>
<polygon fill="none" stroke="black" points="553,-383 553,-401 735,-401 735,-383 553,-383"/>
<text text-anchor="start" x="556" y="-389.2" font-family="Helvetica,sans-Serif" font-size="11.00">...</text>
<polygon fill="#ffffff" stroke="transparent" points="553,-365 553,-383 629,-383 629,-365 553,-365"/>
<polygon fill="none" stroke="black" points="553,-365 553,-383 629,-383 629,-365 553,-365"/>
<text text-anchor="start" x="556" y="-371.2" font-family="Helvetica,sans-Serif" font-size="11.00">&lt; 2</text>
<polygon fill="#ffffff" stroke="transparent" points="629,-365 629,-383 695,-383 695,-365 629,-365"/>
<polygon fill="none" stroke="black" points="629,-365 629,-383 695,-383 695,-365 629,-365"/>
<text text-anchor="start" x="659" y="-371.2" font-family="Helvetica,sans-Serif" font-size="11.00">0 rows</text>
<polygon fill="#ffffff" stroke="transparent" points="695,-365 695,-383 735,-383 735,-365 695,-365"/>
<polygon fill="none" stroke="black" points="695,-365 695,-383 735,-383 735,-365 695,-365"/>
<text text-anchor="start" x="725" y="-371.2" font-family="Helvetica,sans-Serif" font-size="11.00"> &#160;</text>
</a>
</g>
</g>
<!-- qm_specificationline&#45;&gt;m_attribute -->
<g id="edge10" class="edge">
<title>qm_specificationline:w&#45;&gt;m_attribute:e</title>
<path fill="none" stroke="black" d="M538.42,-460.9C490.77,-500.59 547.31,-768 481.5,-768"/>
<polygon fill="black" stroke="black" points="544.47,-458.71 553.22,-459.39 548.24,-457.36 552,-456 552,-456 552,-456 548.24,-457.36 550.78,-452.61 544.47,-458.71 544.47,-458.71"/>
<ellipse fill="none" stroke="black" cx="541.46" cy="-459.8" rx="3.2" ry="3.2"/>
</g>
</g>
</svg>
