<?xml version="1.0" encoding="UTF-8" standalone="no"?>
<!DOCTYPE svg PUBLIC "-//W3C//DTD SVG 1.1//EN"
 "http://www.w3.org/Graphics/SVG/1.1/DTD/svg11.dtd">
<!-- Generated by graphviz version 2.43.0 (0)
 -->
<!-- Title: oneDegreeRelationshipsDiagram Pages: 1 -->
<svg width="807pt" height="978pt"
 viewBox="0.00 0.00 807.00 978.00" xmlns="http://www.w3.org/2000/svg" xmlns:xlink="http://www.w3.org/1999/xlink">
<g id="graph0" class="graph" transform="scale(1 1) rotate(0) translate(4 974)">
<title>oneDegreeRelationshipsDiagram</title>
<polygon fill="#ffffff" stroke="transparent" points="-4,4 -4,-974 803,-974 803,4 -4,4"/>
<text text-anchor="middle" x="71.5" y="-7.2" font-family="Helvetica,sans-Serif" font-size="11.00">Generated by SchemaSpy</text>
<!-- m_bomalternative -->
<g id="node1" class="node">
<title>m_bomalternative</title>
<g id="a_node1"><a xlink:href="../../tables/m_bomalternative.html" xlink:title="m_bomalternative" target="_top">
<polygon fill="#ffffff" stroke="transparent" points="292,-552 292,-860 545,-860 545,-552 292,-552"/>
<polygon fill="#f5f5f5" stroke="transparent" points="294.5,-836 294.5,-858 543.5,-858 543.5,-836 294.5,-836"/>
<polygon fill="none" stroke="black" points="294.5,-836 294.5,-858 543.5,-858 543.5,-836 294.5,-836"/>
<text text-anchor="start" x="299.5" y="-845.2" font-family="Helvetica,sans-Serif" font-weight="bold" font-size="11.00">m_bomalternative</text>
<text text-anchor="start" x="508.5" y="-844.2" font-family="Helvetica,sans-Serif" font-size="11.00">[table]</text>
<polygon fill="none" stroke="black" points="294.5,-814 294.5,-836 460.5,-836 460.5,-814 294.5,-814"/>
<image xlink:href="../../images/primaryKeys.png" width="11px" height="12px" preserveAspectRatio="xMinYMin meet" x="299.5" y="-831"/>
<text text-anchor="start" x="314.5" y="-822.2" font-family="Helvetica,sans-Serif" font-size="11.00">m_bomalternative_id</text>
<polygon fill="none" stroke="black" points="460.5,-814 460.5,-836 543.5,-836 543.5,-814 460.5,-814"/>
<text text-anchor="start" x="463.5" y="-822.2" font-family="Helvetica,sans-Serif" font-size="11.00">numeric[10]</text>
<polygon fill="none" stroke="black" points="294.5,-792 294.5,-814 460.5,-814 460.5,-792 294.5,-792"/>
<text text-anchor="start" x="314.5" y="-800.2" font-family="Helvetica,sans-Serif" font-size="11.00">ad_client_id</text>
<polygon fill="none" stroke="black" points="460.5,-792 460.5,-814 543.5,-814 543.5,-792 460.5,-792"/>
<text text-anchor="start" x="463.5" y="-800.2" font-family="Helvetica,sans-Serif" font-size="11.00">numeric[10]</text>
<polygon fill="none" stroke="black" points="294.5,-770 294.5,-792 460.5,-792 460.5,-770 294.5,-770"/>
<text text-anchor="start" x="314.5" y="-778.2" font-family="Helvetica,sans-Serif" font-size="11.00">ad_org_id</text>
<polygon fill="none" stroke="black" points="460.5,-770 460.5,-792 543.5,-792 543.5,-770 460.5,-770"/>
<text text-anchor="start" x="463.5" y="-778.2" font-family="Helvetica,sans-Serif" font-size="11.00">numeric[10]</text>
<polygon fill="none" stroke="black" points="294.5,-748 294.5,-770 460.5,-770 460.5,-748 294.5,-748"/>
<text text-anchor="start" x="314.5" y="-756.2" font-family="Helvetica,sans-Serif" font-size="11.00">isactive</text>
<polygon fill="none" stroke="black" points="460.5,-748 460.5,-770 543.5,-770 543.5,-748 460.5,-748"/>
<text text-anchor="start" x="463.5" y="-756.2" font-family="Helvetica,sans-Serif" font-size="11.00">bpchar[1]</text>
<polygon fill="none" stroke="black" points="294.5,-726 294.5,-748 460.5,-748 460.5,-726 294.5,-726"/>
<text text-anchor="start" x="314.5" y="-734.2" font-family="Helvetica,sans-Serif" font-size="11.00">created</text>
<polygon fill="none" stroke="black" points="460.5,-726 460.5,-748 543.5,-748 543.5,-726 460.5,-726"/>
<text text-anchor="start" x="463.5" y="-734.2" font-family="Helvetica,sans-Serif" font-size="11.00">timestamp[29,6]</text>
<polygon fill="none" stroke="black" points="294.5,-704 294.5,-726 460.5,-726 460.5,-704 294.5,-704"/>
<text text-anchor="start" x="314.5" y="-712.2" font-family="Helvetica,sans-Serif" font-size="11.00">createdby</text>
<polygon fill="none" stroke="black" points="460.5,-704 460.5,-726 543.5,-726 543.5,-704 460.5,-704"/>
<text text-anchor="start" x="463.5" y="-712.2" font-family="Helvetica,sans-Serif" font-size="11.00">numeric[10]</text>
<polygon fill="none" stroke="black" points="294.5,-682 294.5,-704 460.5,-704 460.5,-682 294.5,-682"/>
<text text-anchor="start" x="314.5" y="-690.2" font-family="Helvetica,sans-Serif" font-size="11.00">updated</text>
<polygon fill="none" stroke="black" points="460.5,-682 460.5,-704 543.5,-704 543.5,-682 460.5,-682"/>
<text text-anchor="start" x="463.5" y="-690.2" font-family="Helvetica,sans-Serif" font-size="11.00">timestamp[29,6]</text>
<polygon fill="none" stroke="black" points="294.5,-660 294.5,-682 460.5,-682 460.5,-660 294.5,-660"/>
<text text-anchor="start" x="314.5" y="-668.2" font-family="Helvetica,sans-Serif" font-size="11.00">updatedby</text>
<polygon fill="none" stroke="black" points="460.5,-660 460.5,-682 543.5,-682 543.5,-660 460.5,-660"/>
<text text-anchor="start" x="463.5" y="-668.2" font-family="Helvetica,sans-Serif" font-size="11.00">numeric[10]</text>
<polygon fill="none" stroke="black" points="294.5,-638 294.5,-660 460.5,-660 460.5,-638 294.5,-638"/>
<text text-anchor="start" x="314.5" y="-646.2" font-family="Helvetica,sans-Serif" font-size="11.00">name</text>
<polygon fill="none" stroke="black" points="460.5,-638 460.5,-660 543.5,-660 543.5,-638 460.5,-638"/>
<text text-anchor="start" x="463.5" y="-646.2" font-family="Helvetica,sans-Serif" font-size="11.00">varchar[60]</text>
<polygon fill="none" stroke="black" points="294.5,-616 294.5,-638 460.5,-638 460.5,-616 294.5,-616"/>
<text text-anchor="start" x="314.5" y="-624.2" font-family="Helvetica,sans-Serif" font-size="11.00">description</text>
<polygon fill="none" stroke="black" points="460.5,-616 460.5,-638 543.5,-638 543.5,-616 460.5,-616"/>
<text text-anchor="start" x="463.5" y="-624.2" font-family="Helvetica,sans-Serif" font-size="11.00">varchar[255]</text>
<polygon fill="none" stroke="black" points="294.5,-594 294.5,-616 460.5,-616 460.5,-594 294.5,-594"/>
<image xlink:href="../../images/foreignKeys.png" width="11px" height="12px" preserveAspectRatio="xMinYMin meet" x="299.5" y="-611"/>
<text text-anchor="start" x="314.5" y="-602.2" font-family="Helvetica,sans-Serif" font-size="11.00">m_product_id</text>
<polygon fill="none" stroke="black" points="460.5,-594 460.5,-616 543.5,-616 543.5,-594 460.5,-594"/>
<text text-anchor="start" x="463.5" y="-602.2" font-family="Helvetica,sans-Serif" font-size="11.00">numeric[10]</text>
<polygon fill="#ffffff" stroke="transparent" points="294.5,-572 294.5,-594 460.5,-594 460.5,-572 294.5,-572"/>
<polygon fill="none" stroke="black" points="294.5,-572 294.5,-594 460.5,-594 460.5,-572 294.5,-572"/>
<text text-anchor="start" x="314.5" y="-580.2" font-family="Helvetica,sans-Serif" font-size="11.00">m_bomalternative_uu</text>
<polygon fill="none" stroke="black" points="460.5,-572 460.5,-594 543.5,-594 543.5,-572 460.5,-572"/>
<text text-anchor="start" x="463.5" y="-580.2" font-family="Helvetica,sans-Serif" font-size="11.00">varchar[36]</text>
<polygon fill="#ffffff" stroke="transparent" points="294.5,-554 294.5,-572 368.5,-572 368.5,-554 294.5,-554"/>
<polygon fill="none" stroke="black" points="294.5,-554 294.5,-572 368.5,-572 368.5,-554 294.5,-554"/>
<text text-anchor="start" x="297.5" y="-560.2" font-family="Helvetica,sans-Serif" font-size="11.00">&lt; 1</text>
<polygon fill="#ffffff" stroke="transparent" points="368.5,-554 368.5,-572 460.5,-572 460.5,-554 368.5,-554"/>
<polygon fill="none" stroke="black" points="368.5,-554 368.5,-572 460.5,-572 460.5,-554 368.5,-554"/>
<text text-anchor="start" x="424.5" y="-560.2" font-family="Helvetica,sans-Serif" font-size="11.00">0 rows</text>
<polygon fill="#ffffff" stroke="transparent" points="460.5,-554 460.5,-572 543.5,-572 543.5,-554 460.5,-554"/>
<polygon fill="none" stroke="black" points="460.5,-554 460.5,-572 543.5,-572 543.5,-554 460.5,-554"/>
<text text-anchor="start" x="524.5" y="-560.2" font-family="Helvetica,sans-Serif" font-size="11.00">1 &gt;</text>
<polygon fill="none" stroke="black" stroke-width="2" points="293,-553 293,-859 544,-859 544,-553 293,-553"/>
</a>
</g>
</g>
<!-- m_product -->
<g id="node2" class="node">
<title>m_product</title>
<g id="a_node2"><a xlink:href="../../tables/m_product.html" xlink:title="m_product" target="_top">
<polygon fill="#ffffff" stroke="transparent" points="8,-37 8,-777 243,-777 243,-37 8,-37"/>
<polygon fill="#f5f5f5" stroke="transparent" points="8.5,-755 8.5,-777 243.5,-777 243.5,-755 8.5,-755"/>
<polygon fill="none" stroke="black" points="8.5,-755 8.5,-777 243.5,-777 243.5,-755 8.5,-755"/>
<text text-anchor="start" x="13.5" y="-764.2" font-family="Helvetica,sans-Serif" font-weight="bold" font-size="11.00">m_product</text>
<text text-anchor="start" x="208.5" y="-763.2" font-family="Helvetica,sans-Serif" font-size="11.00">[table]</text>
<polygon fill="none" stroke="black" points="8.5,-733 8.5,-755 243.5,-755 243.5,-733 8.5,-733"/>
<image xlink:href="../../images/primaryKeys.png" width="11px" height="12px" preserveAspectRatio="xMinYMin meet" x="13.5" y="-750"/>
<text text-anchor="start" x="28.5" y="-741.2" font-family="Helvetica,sans-Serif" font-size="11.00">m_product_id</text>
<polygon fill="#ffffff" stroke="transparent" points="8.5,-711 8.5,-733 243.5,-733 243.5,-711 8.5,-711"/>
<polygon fill="none" stroke="black" points="8.5,-711 8.5,-733 243.5,-733 243.5,-711 8.5,-711"/>
<image xlink:href="../../images/foreignKeys.png" width="11px" height="12px" preserveAspectRatio="xMinYMin meet" x="13.5" y="-728"/>
<text text-anchor="start" x="28.5" y="-719.2" font-family="Helvetica,sans-Serif" font-size="11.00">ad_client_id</text>
<polygon fill="none" stroke="black" points="8.5,-689 8.5,-711 243.5,-711 243.5,-689 8.5,-689"/>
<image xlink:href="../../images/foreignKeys.png" width="11px" height="12px" preserveAspectRatio="xMinYMin meet" x="13.5" y="-706"/>
<text text-anchor="start" x="28.5" y="-697.2" font-family="Helvetica,sans-Serif" font-size="11.00">ad_org_id</text>
<polygon fill="#ffffff" stroke="transparent" points="8.5,-667 8.5,-689 243.5,-689 243.5,-667 8.5,-667"/>
<polygon fill="none" stroke="black" points="8.5,-667 8.5,-689 243.5,-689 243.5,-667 8.5,-667"/>
<text text-anchor="start" x="28.5" y="-675.2" font-family="Helvetica,sans-Serif" font-size="11.00">value</text>
<polygon fill="#ffffff" stroke="transparent" points="8.5,-645 8.5,-667 243.5,-667 243.5,-645 8.5,-645"/>
<polygon fill="none" stroke="black" points="8.5,-645 8.5,-667 243.5,-667 243.5,-645 8.5,-645"/>
<text text-anchor="start" x="28.5" y="-653.2" font-family="Helvetica,sans-Serif" font-size="11.00">name</text>
<polygon fill="#ffffff" stroke="transparent" points="8.5,-623 8.5,-645 243.5,-645 243.5,-623 8.5,-623"/>
<polygon fill="none" stroke="black" points="8.5,-623 8.5,-645 243.5,-645 243.5,-623 8.5,-623"/>
<text text-anchor="start" x="28.5" y="-631.2" font-family="Helvetica,sans-Serif" font-size="11.00">upc</text>
<polygon fill="none" stroke="black" points="8.5,-601 8.5,-623 243.5,-623 243.5,-601 8.5,-601"/>
<image xlink:href="../../images/foreignKeys.png" width="11px" height="12px" preserveAspectRatio="xMinYMin meet" x="13.5" y="-618"/>
<text text-anchor="start" x="28.5" y="-609.2" font-family="Helvetica,sans-Serif" font-size="11.00">c_uom_id</text>
<polygon fill="none" stroke="black" points="8.5,-579 8.5,-601 243.5,-601 243.5,-579 8.5,-579"/>
<image xlink:href="../../images/foreignKeys.png" width="11px" height="12px" preserveAspectRatio="xMinYMin meet" x="13.5" y="-596"/>
<text text-anchor="start" x="28.5" y="-587.2" font-family="Helvetica,sans-Serif" font-size="11.00">salesrep_id</text>
<polygon fill="none" stroke="black" points="8.5,-557 8.5,-579 243.5,-579 243.5,-557 8.5,-557"/>
<image xlink:href="../../images/foreignKeys.png" width="11px" height="12px" preserveAspectRatio="xMinYMin meet" x="13.5" y="-574"/>
<text text-anchor="start" x="28.5" y="-565.2" font-family="Helvetica,sans-Serif" font-size="11.00">c_revenuerecognition_id</text>
<polygon fill="#ffffff" stroke="transparent" points="8.5,-535 8.5,-557 243.5,-557 243.5,-535 8.5,-535"/>
<polygon fill="none" stroke="black" points="8.5,-535 8.5,-557 243.5,-557 243.5,-535 8.5,-535"/>
<image xlink:href="../../images/foreignKeys.png" width="11px" height="12px" preserveAspectRatio="xMinYMin meet" x="13.5" y="-552"/>
<text text-anchor="start" x="28.5" y="-543.2" font-family="Helvetica,sans-Serif" font-size="11.00">m_product_category_id</text>
<polygon fill="none" stroke="black" points="8.5,-513 8.5,-535 243.5,-535 243.5,-513 8.5,-513"/>
<image xlink:href="../../images/foreignKeys.png" width="11px" height="12px" preserveAspectRatio="xMinYMin meet" x="13.5" y="-530"/>
<text text-anchor="start" x="28.5" y="-521.2" font-family="Helvetica,sans-Serif" font-size="11.00">c_taxcategory_id</text>
<polygon fill="#ffffff" stroke="transparent" points="8.5,-491 8.5,-513 243.5,-513 243.5,-491 8.5,-491"/>
<polygon fill="none" stroke="black" points="8.5,-491 8.5,-513 243.5,-513 243.5,-491 8.5,-491"/>
<image xlink:href="../../images/foreignKeys.png" width="11px" height="12px" preserveAspectRatio="xMinYMin meet" x="13.5" y="-508"/>
<text text-anchor="start" x="28.5" y="-499.2" font-family="Helvetica,sans-Serif" font-size="11.00">s_resource_id</text>
<polygon fill="#ffffff" stroke="transparent" points="8.5,-469 8.5,-491 243.5,-491 243.5,-469 8.5,-469"/>
<polygon fill="none" stroke="black" points="8.5,-469 8.5,-491 243.5,-491 243.5,-469 8.5,-469"/>
<image xlink:href="../../images/foreignKeys.png" width="11px" height="12px" preserveAspectRatio="xMinYMin meet" x="13.5" y="-486"/>
<text text-anchor="start" x="28.5" y="-477.2" font-family="Helvetica,sans-Serif" font-size="11.00">s_expensetype_id</text>
<polygon fill="none" stroke="black" points="8.5,-447 8.5,-469 243.5,-469 243.5,-447 8.5,-447"/>
<image xlink:href="../../images/foreignKeys.png" width="11px" height="12px" preserveAspectRatio="xMinYMin meet" x="13.5" y="-464"/>
<text text-anchor="start" x="28.5" y="-455.2" font-family="Helvetica,sans-Serif" font-size="11.00">r_mailtext_id</text>
<polygon fill="none" stroke="black" points="8.5,-425 8.5,-447 243.5,-447 243.5,-425 8.5,-425"/>
<image xlink:href="../../images/foreignKeys.png" width="11px" height="12px" preserveAspectRatio="xMinYMin meet" x="13.5" y="-442"/>
<text text-anchor="start" x="28.5" y="-433.2" font-family="Helvetica,sans-Serif" font-size="11.00">m_attributeset_id</text>
<polygon fill="none" stroke="black" points="8.5,-403 8.5,-425 243.5,-425 243.5,-403 8.5,-403"/>
<image xlink:href="../../images/foreignKeys.png" width="11px" height="12px" preserveAspectRatio="xMinYMin meet" x="13.5" y="-420"/>
<text text-anchor="start" x="28.5" y="-411.2" font-family="Helvetica,sans-Serif" font-size="11.00">m_attributesetinstance_id</text>
<polygon fill="none" stroke="black" points="8.5,-381 8.5,-403 243.5,-403 243.5,-381 8.5,-381"/>
<image xlink:href="../../images/foreignKeys.png" width="11px" height="12px" preserveAspectRatio="xMinYMin meet" x="13.5" y="-398"/>
<text text-anchor="start" x="28.5" y="-389.2" font-family="Helvetica,sans-Serif" font-size="11.00">m_freightcategory_id</text>
<polygon fill="none" stroke="black" points="8.5,-359 8.5,-381 243.5,-381 243.5,-359 8.5,-359"/>
<image xlink:href="../../images/foreignKeys.png" width="11px" height="12px" preserveAspectRatio="xMinYMin meet" x="13.5" y="-376"/>
<text text-anchor="start" x="28.5" y="-367.2" font-family="Helvetica,sans-Serif" font-size="11.00">m_locator_id</text>
<polygon fill="none" stroke="black" points="8.5,-337 8.5,-359 243.5,-359 243.5,-337 8.5,-337"/>
<image xlink:href="../../images/foreignKeys.png" width="11px" height="12px" preserveAspectRatio="xMinYMin meet" x="13.5" y="-354"/>
<text text-anchor="start" x="28.5" y="-345.2" font-family="Helvetica,sans-Serif" font-size="11.00">c_subscriptiontype_id</text>
<polygon fill="#ffffff" stroke="transparent" points="8.5,-315 8.5,-337 243.5,-337 243.5,-315 8.5,-315"/>
<polygon fill="none" stroke="black" points="8.5,-315 8.5,-337 243.5,-337 243.5,-315 8.5,-315"/>
<text text-anchor="start" x="28.5" y="-323.2" font-family="Helvetica,sans-Serif" font-size="11.00">m_product_uu</text>
<polygon fill="none" stroke="black" points="8.5,-293 8.5,-315 243.5,-315 243.5,-293 8.5,-293"/>
<image xlink:href="../../images/foreignKeys.png" width="11px" height="12px" preserveAspectRatio="xMinYMin meet" x="13.5" y="-310"/>
<text text-anchor="start" x="28.5" y="-301.2" font-family="Helvetica,sans-Serif" font-size="11.00">m_parttype_id</text>
<polygon fill="none" stroke="black" points="8.5,-271 8.5,-293 243.5,-293 243.5,-271 8.5,-271"/>
<image xlink:href="../../images/foreignKeys.png" width="11px" height="12px" preserveAspectRatio="xMinYMin meet" x="13.5" y="-288"/>
<text text-anchor="start" x="28.5" y="-279.2" font-family="Helvetica,sans-Serif" font-size="11.00">lbr_productcategory_id</text>
<polygon fill="none" stroke="black" points="8.5,-249 8.5,-271 243.5,-271 243.5,-249 8.5,-249"/>
<image xlink:href="../../images/foreignKeys.png" width="11px" height="12px" preserveAspectRatio="xMinYMin meet" x="13.5" y="-266"/>
<text text-anchor="start" x="28.5" y="-257.2" font-family="Helvetica,sans-Serif" font-size="11.00">lbr_ncm_id</text>
<polygon fill="none" stroke="black" points="8.5,-227 8.5,-249 243.5,-249 243.5,-227 8.5,-227"/>
<image xlink:href="../../images/foreignKeys.png" width="11px" height="12px" preserveAspectRatio="xMinYMin meet" x="13.5" y="-244"/>
<text text-anchor="start" x="28.5" y="-235.2" font-family="Helvetica,sans-Serif" font-size="11.00">lbr_fiscalgroup_product_id</text>
<polygon fill="none" stroke="black" points="8.5,-205 8.5,-227 243.5,-227 243.5,-205 8.5,-205"/>
<image xlink:href="../../images/foreignKeys.png" width="11px" height="12px" preserveAspectRatio="xMinYMin meet" x="13.5" y="-222"/>
<text text-anchor="start" x="28.5" y="-213.2" font-family="Helvetica,sans-Serif" font-size="11.00">cof_cest_id</text>
<polygon fill="none" stroke="black" points="8.5,-183 8.5,-205 243.5,-205 243.5,-183 8.5,-183"/>
<image xlink:href="../../images/foreignKeys.png" width="11px" height="12px" preserveAspectRatio="xMinYMin meet" x="13.5" y="-200"/>
<text text-anchor="start" x="28.5" y="-191.2" font-family="Helvetica,sans-Serif" font-size="11.00">cof_c_generoitem_sped_id</text>
<polygon fill="none" stroke="black" points="8.5,-161 8.5,-183 243.5,-183 243.5,-161 8.5,-161"/>
<image xlink:href="../../images/foreignKeys.png" width="11px" height="12px" preserveAspectRatio="xMinYMin meet" x="13.5" y="-178"/>
<text text-anchor="start" x="28.5" y="-169.2" font-family="Helvetica,sans-Serif" font-size="11.00">cof_producttype_id</text>
<polygon fill="none" stroke="black" points="8.5,-139 8.5,-161 243.5,-161 243.5,-139 8.5,-139"/>
<image xlink:href="../../images/foreignKeys.png" width="11px" height="12px" preserveAspectRatio="xMinYMin meet" x="13.5" y="-156"/>
<text text-anchor="start" x="28.5" y="-147.2" font-family="Helvetica,sans-Serif" font-size="11.00">cof_productclass_id</text>
<polygon fill="none" stroke="black" points="8.5,-117 8.5,-139 243.5,-139 243.5,-117 8.5,-117"/>
<image xlink:href="../../images/foreignKeys.png" width="11px" height="12px" preserveAspectRatio="xMinYMin meet" x="13.5" y="-134"/>
<text text-anchor="start" x="28.5" y="-125.2" font-family="Helvetica,sans-Serif" font-size="11.00">cof_productgroup_id</text>
<polygon fill="none" stroke="black" points="8.5,-95 8.5,-117 243.5,-117 243.5,-95 8.5,-95"/>
<image xlink:href="../../images/foreignKeys.png" width="11px" height="12px" preserveAspectRatio="xMinYMin meet" x="13.5" y="-112"/>
<text text-anchor="start" x="28.5" y="-103.2" font-family="Helvetica,sans-Serif" font-size="11.00">cof_nbs_id</text>
<polygon fill="none" stroke="black" points="8.5,-73 8.5,-95 243.5,-95 243.5,-73 8.5,-73"/>
<image xlink:href="../../images/foreignKeys.png" width="11px" height="12px" preserveAspectRatio="xMinYMin meet" x="13.5" y="-90"/>
<text text-anchor="start" x="28.5" y="-81.2" font-family="Helvetica,sans-Serif" font-size="11.00">cof_grupofornecedor_id</text>
<polygon fill="none" stroke="black" points="8.5,-55 8.5,-73 243.5,-73 243.5,-55 8.5,-55"/>
<text text-anchor="start" x="11.5" y="-61.2" font-family="Helvetica,sans-Serif" font-size="11.00">...</text>
<polygon fill="#ffffff" stroke="transparent" points="8.5,-37 8.5,-55 105.5,-55 105.5,-37 8.5,-37"/>
<polygon fill="none" stroke="black" points="8.5,-37 8.5,-55 105.5,-55 105.5,-37 8.5,-37"/>
<text text-anchor="start" x="11.5" y="-43.2" font-family="Helvetica,sans-Serif" font-size="11.00">&lt; 22</text>
<polygon fill="#ffffff" stroke="transparent" points="105.5,-37 105.5,-55 174.5,-55 174.5,-37 105.5,-37"/>
<polygon fill="none" stroke="black" points="105.5,-37 105.5,-55 174.5,-55 174.5,-37 105.5,-37"/>
<text text-anchor="start" x="143.5" y="-43.2" font-family="Helvetica,sans-Serif" font-size="11.00">1 row</text>
<polygon fill="#ffffff" stroke="transparent" points="174.5,-37 174.5,-55 243.5,-55 243.5,-37 174.5,-37"/>
<polygon fill="none" stroke="black" points="174.5,-37 174.5,-55 243.5,-55 243.5,-37 174.5,-37"/>
<text text-anchor="start" x="212.5" y="-43.2" font-family="Helvetica,sans-Serif" font-size="11.00">172 &gt;</text>
</a>
</g>
</g>
<!-- m_bomalternative&#45;&gt;m_product -->
<g id="edge1" class="edge">
<title>m_bomalternative:w&#45;&gt;m_product:e</title>
<path fill="none" stroke="black" d="M279.2,-608.16C241.54,-628.85 304.12,-744 244.5,-744"/>
<polygon fill="black" stroke="black" points="285.69,-606.73 294.28,-608.51 289.59,-605.86 293.5,-605 293.5,-605 293.5,-605 289.59,-605.86 292.72,-601.49 285.69,-606.73 285.69,-606.73"/>
<ellipse fill="none" stroke="black" cx="282.56" cy="-607.42" rx="3.2" ry="3.2"/>
</g>
<!-- m_bomproduct -->
<g id="node3" class="node">
<title>m_bomproduct</title>
<g id="a_node3"><a xlink:href="../../tables/m_bomproduct.html" xlink:title="m_bomproduct" target="_top">
<polygon fill="#ffffff" stroke="transparent" points="594,-732 594,-966 791,-966 791,-732 594,-732"/>
<polygon fill="#f5f5f5" stroke="transparent" points="594.5,-944 594.5,-966 791.5,-966 791.5,-944 594.5,-944"/>
<polygon fill="none" stroke="black" points="594.5,-944 594.5,-966 791.5,-966 791.5,-944 594.5,-944"/>
<text text-anchor="start" x="599.5" y="-953.2" font-family="Helvetica,sans-Serif" font-weight="bold" font-size="11.00">m_bomproduct</text>
<text text-anchor="start" x="756.5" y="-952.2" font-family="Helvetica,sans-Serif" font-size="11.00">[table]</text>
<polygon fill="none" stroke="black" points="594.5,-922 594.5,-944 791.5,-944 791.5,-922 594.5,-922"/>
<image xlink:href="../../images/primaryKeys.png" width="11px" height="12px" preserveAspectRatio="xMinYMin meet" x="599.5" y="-939"/>
<text text-anchor="start" x="614.5" y="-930.2" font-family="Helvetica,sans-Serif" font-size="11.00">m_bomproduct_id</text>
<polygon fill="none" stroke="black" points="594.5,-900 594.5,-922 791.5,-922 791.5,-900 594.5,-900"/>
<image xlink:href="../../images/foreignKeys.png" width="11px" height="12px" preserveAspectRatio="xMinYMin meet" x="599.5" y="-917"/>
<text text-anchor="start" x="614.5" y="-908.2" font-family="Helvetica,sans-Serif" font-size="11.00">m_bom_id</text>
<polygon fill="none" stroke="black" points="594.5,-878 594.5,-900 791.5,-900 791.5,-878 594.5,-878"/>
<image xlink:href="../../images/foreignKeys.png" width="11px" height="12px" preserveAspectRatio="xMinYMin meet" x="599.5" y="-895"/>
<text text-anchor="start" x="614.5" y="-886.2" font-family="Helvetica,sans-Serif" font-size="11.00">m_productbom_id</text>
<polygon fill="none" stroke="black" points="594.5,-856 594.5,-878 791.5,-878 791.5,-856 594.5,-856"/>
<image xlink:href="../../images/foreignKeys.png" width="11px" height="12px" preserveAspectRatio="xMinYMin meet" x="599.5" y="-873"/>
<text text-anchor="start" x="614.5" y="-864.2" font-family="Helvetica,sans-Serif" font-size="11.00">m_changenotice_id</text>
<polygon fill="none" stroke="black" points="594.5,-834 594.5,-856 791.5,-856 791.5,-834 594.5,-834"/>
<image xlink:href="../../images/foreignKeys.png" width="11px" height="12px" preserveAspectRatio="xMinYMin meet" x="599.5" y="-851"/>
<text text-anchor="start" x="614.5" y="-842.2" font-family="Helvetica,sans-Serif" font-size="11.00">m_attributesetinstance_id</text>
<polygon fill="none" stroke="black" points="594.5,-812 594.5,-834 791.5,-834 791.5,-812 594.5,-812"/>
<image xlink:href="../../images/foreignKeys.png" width="11px" height="12px" preserveAspectRatio="xMinYMin meet" x="599.5" y="-829"/>
<text text-anchor="start" x="614.5" y="-820.2" font-family="Helvetica,sans-Serif" font-size="11.00">m_bomalternative_id</text>
<polygon fill="none" stroke="black" points="594.5,-790 594.5,-812 791.5,-812 791.5,-790 594.5,-790"/>
<image xlink:href="../../images/foreignKeys.png" width="11px" height="12px" preserveAspectRatio="xMinYMin meet" x="599.5" y="-807"/>
<text text-anchor="start" x="614.5" y="-798.2" font-family="Helvetica,sans-Serif" font-size="11.00">m_productoperation_id</text>
<polygon fill="#ffffff" stroke="transparent" points="594.5,-768 594.5,-790 791.5,-790 791.5,-768 594.5,-768"/>
<polygon fill="none" stroke="black" points="594.5,-768 594.5,-790 791.5,-790 791.5,-768 594.5,-768"/>
<text text-anchor="start" x="614.5" y="-776.2" font-family="Helvetica,sans-Serif" font-size="11.00">m_bomproduct_uu</text>
<polygon fill="none" stroke="black" points="594.5,-750 594.5,-768 791.5,-768 791.5,-750 594.5,-750"/>
<text text-anchor="start" x="597.5" y="-756.2" font-family="Helvetica,sans-Serif" font-size="11.00">...</text>
<polygon fill="#ffffff" stroke="transparent" points="594.5,-732 594.5,-750 677.5,-750 677.5,-732 594.5,-732"/>
<polygon fill="none" stroke="black" points="594.5,-732 594.5,-750 677.5,-750 677.5,-732 594.5,-732"/>
<text text-anchor="start" x="597.5" y="-738.2" font-family="Helvetica,sans-Serif" font-size="11.00">&lt; 6</text>
<polygon fill="#ffffff" stroke="transparent" points="677.5,-732 677.5,-750 747.5,-750 747.5,-732 677.5,-732"/>
<polygon fill="none" stroke="black" points="677.5,-732 677.5,-750 747.5,-750 747.5,-732 677.5,-732"/>
<text text-anchor="start" x="711.5" y="-738.2" font-family="Helvetica,sans-Serif" font-size="11.00">0 rows</text>
<polygon fill="#ffffff" stroke="transparent" points="747.5,-732 747.5,-750 791.5,-750 791.5,-732 747.5,-732"/>
<polygon fill="none" stroke="black" points="747.5,-732 747.5,-750 791.5,-750 791.5,-732 747.5,-732"/>
<text text-anchor="start" x="781.5" y="-738.2" font-family="Helvetica,sans-Serif" font-size="11.00"> &#160;</text>
</a>
</g>
</g>
<!-- m_bomproduct&#45;&gt;m_bomalternative -->
<g id="edge2" class="edge">
<title>m_bomproduct:w&#45;&gt;m_bomalternative:e</title>
<path fill="none" stroke="black" d="M578.99,-823.35C567.67,-823.92 560.51,-825 544.5,-825"/>
<polygon fill="black" stroke="black" points="585.5,-823.19 593.59,-826.6 589.5,-823.1 593.5,-823 593.5,-823 593.5,-823 589.5,-823.1 593.41,-819.4 585.5,-823.19 585.5,-823.19"/>
<ellipse fill="none" stroke="black" cx="582.3" cy="-823.27" rx="3.2" ry="3.2"/>
</g>
<!-- m_bomproduct&#45;&gt;m_product -->
<g id="edge3" class="edge">
<title>m_bomproduct:w&#45;&gt;m_product:e</title>
<path fill="none" stroke="black" d="M578.85,-889.25C451.06,-893.57 388.6,-951.88 284,-870 237.79,-833.83 303.19,-744 244.5,-744"/>
<polygon fill="black" stroke="black" points="585.5,-889.14 593.56,-892.6 589.5,-889.07 593.5,-889 593.5,-889 593.5,-889 589.5,-889.07 593.44,-885.4 585.5,-889.14 585.5,-889.14"/>
<ellipse fill="none" stroke="black" cx="582.3" cy="-889.19" rx="3.2" ry="3.2"/>
</g>
</g>
</svg>
