<?xml version="1.0" encoding="UTF-8" standalone="no"?>
<!DOCTYPE svg PUBLIC "-//W3C//DTD SVG 1.1//EN"
 "http://www.w3.org/Graphics/SVG/1.1/DTD/svg11.dtd">
<!-- Generated by graphviz version 2.43.0 (0)
 -->
<!-- Title: oneDegreeRelationshipsDiagram Pages: 1 -->
<svg width="538pt" height="1739pt"
 viewBox="0.00 0.00 538.00 1739.00" xmlns="http://www.w3.org/2000/svg" xmlns:xlink="http://www.w3.org/1999/xlink">
<g id="graph0" class="graph" transform="scale(1 1) rotate(0) translate(4 1735)">
<title>oneDegreeRelationshipsDiagram</title>
<polygon fill="#ffffff" stroke="transparent" points="-4,4 -4,-1735 534,-1735 534,4 -4,4"/>
<text text-anchor="middle" x="71.5" y="-7.2" font-family="Helvetica,sans-Serif" font-size="11.00">Generated by SchemaSpy</text>
<!-- m_bp_price -->
<g id="node1" class="node">
<title>m_bp_price</title>
<g id="a_node1"><a xlink:href="../../tables/m_bp_price.html" xlink:title="m_bp_price" target="_top">
<polygon fill="#ffffff" stroke="transparent" points="293,-660 293,-1188 522,-1188 522,-660 293,-660"/>
<polygon fill="#f5f5f5" stroke="transparent" points="295.5,-1164 295.5,-1186 520.5,-1186 520.5,-1164 295.5,-1164"/>
<polygon fill="none" stroke="black" points="295.5,-1164 295.5,-1186 520.5,-1186 520.5,-1164 295.5,-1164"/>
<text text-anchor="start" x="300.5" y="-1173.2" font-family="Helvetica,sans-Serif" font-weight="bold" font-size="11.00">m_bp_price</text>
<text text-anchor="start" x="485.5" y="-1172.2" font-family="Helvetica,sans-Serif" font-size="11.00">[table]</text>
<polygon fill="none" stroke="black" points="295.5,-1142 295.5,-1164 437.5,-1164 437.5,-1142 295.5,-1142"/>
<image xlink:href="../../images/primaryKeys.png" width="11px" height="12px" preserveAspectRatio="xMinYMin meet" x="300.5" y="-1159"/>
<text text-anchor="start" x="315.5" y="-1150.2" font-family="Helvetica,sans-Serif" font-size="11.00">m_bp_price_id</text>
<polygon fill="none" stroke="black" points="437.5,-1142 437.5,-1164 520.5,-1164 520.5,-1142 437.5,-1142"/>
<text text-anchor="start" x="440.5" y="-1150.2" font-family="Helvetica,sans-Serif" font-size="11.00">numeric[10]</text>
<polygon fill="none" stroke="black" points="295.5,-1120 295.5,-1142 437.5,-1142 437.5,-1120 295.5,-1120"/>
<text text-anchor="start" x="315.5" y="-1128.2" font-family="Helvetica,sans-Serif" font-size="11.00">ad_client_id</text>
<polygon fill="none" stroke="black" points="437.5,-1120 437.5,-1142 520.5,-1142 520.5,-1120 437.5,-1120"/>
<text text-anchor="start" x="440.5" y="-1128.2" font-family="Helvetica,sans-Serif" font-size="11.00">numeric[10]</text>
<polygon fill="none" stroke="black" points="295.5,-1098 295.5,-1120 437.5,-1120 437.5,-1098 295.5,-1098"/>
<text text-anchor="start" x="315.5" y="-1106.2" font-family="Helvetica,sans-Serif" font-size="11.00">ad_org_id</text>
<polygon fill="none" stroke="black" points="437.5,-1098 437.5,-1120 520.5,-1120 520.5,-1098 437.5,-1098"/>
<text text-anchor="start" x="440.5" y="-1106.2" font-family="Helvetica,sans-Serif" font-size="11.00">numeric[10]</text>
<polygon fill="none" stroke="black" points="295.5,-1076 295.5,-1098 437.5,-1098 437.5,-1076 295.5,-1076"/>
<text text-anchor="start" x="315.5" y="-1084.2" font-family="Helvetica,sans-Serif" font-size="11.00">breakvalue</text>
<polygon fill="none" stroke="black" points="437.5,-1076 437.5,-1098 520.5,-1098 520.5,-1076 437.5,-1076"/>
<text text-anchor="start" x="440.5" y="-1084.2" font-family="Helvetica,sans-Serif" font-size="11.00">numeric[0]</text>
<polygon fill="none" stroke="black" points="295.5,-1054 295.5,-1076 437.5,-1076 437.5,-1054 295.5,-1054"/>
<image xlink:href="../../images/foreignKeys.png" width="11px" height="12px" preserveAspectRatio="xMinYMin meet" x="300.5" y="-1071"/>
<text text-anchor="start" x="315.5" y="-1062.2" font-family="Helvetica,sans-Serif" font-size="11.00">c_bpartner_id</text>
<polygon fill="none" stroke="black" points="437.5,-1054 437.5,-1076 520.5,-1076 520.5,-1054 437.5,-1054"/>
<text text-anchor="start" x="440.5" y="-1062.2" font-family="Helvetica,sans-Serif" font-size="11.00">numeric[10]</text>
<polygon fill="none" stroke="black" points="295.5,-1032 295.5,-1054 437.5,-1054 437.5,-1032 295.5,-1032"/>
<text text-anchor="start" x="315.5" y="-1040.2" font-family="Helvetica,sans-Serif" font-size="11.00">comments</text>
<polygon fill="none" stroke="black" points="437.5,-1032 437.5,-1054 520.5,-1054 520.5,-1032 437.5,-1032"/>
<text text-anchor="start" x="440.5" y="-1040.2" font-family="Helvetica,sans-Serif" font-size="11.00">varchar[2000]</text>
<polygon fill="none" stroke="black" points="295.5,-1010 295.5,-1032 437.5,-1032 437.5,-1010 295.5,-1010"/>
<text text-anchor="start" x="315.5" y="-1018.2" font-family="Helvetica,sans-Serif" font-size="11.00">created</text>
<polygon fill="none" stroke="black" points="437.5,-1010 437.5,-1032 520.5,-1032 520.5,-1010 437.5,-1010"/>
<text text-anchor="start" x="440.5" y="-1018.2" font-family="Helvetica,sans-Serif" font-size="11.00">timestamp[29,6]</text>
<polygon fill="none" stroke="black" points="295.5,-988 295.5,-1010 437.5,-1010 437.5,-988 295.5,-988"/>
<text text-anchor="start" x="315.5" y="-996.2" font-family="Helvetica,sans-Serif" font-size="11.00">createdby</text>
<polygon fill="none" stroke="black" points="437.5,-988 437.5,-1010 520.5,-1010 520.5,-988 437.5,-988"/>
<text text-anchor="start" x="440.5" y="-996.2" font-family="Helvetica,sans-Serif" font-size="11.00">numeric[10]</text>
<polygon fill="none" stroke="black" points="295.5,-966 295.5,-988 437.5,-988 437.5,-966 295.5,-966"/>
<text text-anchor="start" x="315.5" y="-974.2" font-family="Helvetica,sans-Serif" font-size="11.00">discount</text>
<polygon fill="none" stroke="black" points="437.5,-966 437.5,-988 520.5,-988 520.5,-966 437.5,-966"/>
<text text-anchor="start" x="440.5" y="-974.2" font-family="Helvetica,sans-Serif" font-size="11.00">numeric[0]</text>
<polygon fill="none" stroke="black" points="295.5,-944 295.5,-966 437.5,-966 437.5,-944 295.5,-944"/>
<text text-anchor="start" x="315.5" y="-952.2" font-family="Helvetica,sans-Serif" font-size="11.00">isactive</text>
<polygon fill="none" stroke="black" points="437.5,-944 437.5,-966 520.5,-966 520.5,-944 437.5,-944"/>
<text text-anchor="start" x="440.5" y="-952.2" font-family="Helvetica,sans-Serif" font-size="11.00">bpchar[1]</text>
<polygon fill="none" stroke="black" points="295.5,-922 295.5,-944 437.5,-944 437.5,-922 295.5,-922"/>
<image xlink:href="../../images/foreignKeys.png" width="11px" height="12px" preserveAspectRatio="xMinYMin meet" x="300.5" y="-939"/>
<text text-anchor="start" x="315.5" y="-930.2" font-family="Helvetica,sans-Serif" font-size="11.00">m_product_id</text>
<polygon fill="none" stroke="black" points="437.5,-922 437.5,-944 520.5,-944 520.5,-922 437.5,-922"/>
<text text-anchor="start" x="440.5" y="-930.2" font-family="Helvetica,sans-Serif" font-size="11.00">numeric[10]</text>
<polygon fill="none" stroke="black" points="295.5,-900 295.5,-922 437.5,-922 437.5,-900 295.5,-900"/>
<text text-anchor="start" x="315.5" y="-908.2" font-family="Helvetica,sans-Serif" font-size="11.00">pricelimit</text>
<polygon fill="none" stroke="black" points="437.5,-900 437.5,-922 520.5,-922 520.5,-900 437.5,-900"/>
<text text-anchor="start" x="440.5" y="-908.2" font-family="Helvetica,sans-Serif" font-size="11.00">numeric[0]</text>
<polygon fill="none" stroke="black" points="295.5,-878 295.5,-900 437.5,-900 437.5,-878 295.5,-878"/>
<text text-anchor="start" x="315.5" y="-886.2" font-family="Helvetica,sans-Serif" font-size="11.00">pricelist</text>
<polygon fill="none" stroke="black" points="437.5,-878 437.5,-900 520.5,-900 520.5,-878 437.5,-878"/>
<text text-anchor="start" x="440.5" y="-886.2" font-family="Helvetica,sans-Serif" font-size="11.00">numeric[0]</text>
<polygon fill="none" stroke="black" points="295.5,-856 295.5,-878 437.5,-878 437.5,-856 295.5,-856"/>
<text text-anchor="start" x="315.5" y="-864.2" font-family="Helvetica,sans-Serif" font-size="11.00">pricestd</text>
<polygon fill="none" stroke="black" points="437.5,-856 437.5,-878 520.5,-878 520.5,-856 437.5,-856"/>
<text text-anchor="start" x="440.5" y="-864.2" font-family="Helvetica,sans-Serif" font-size="11.00">numeric[0]</text>
<polygon fill="none" stroke="black" points="295.5,-834 295.5,-856 437.5,-856 437.5,-834 295.5,-834"/>
<text text-anchor="start" x="315.5" y="-842.2" font-family="Helvetica,sans-Serif" font-size="11.00">updated</text>
<polygon fill="none" stroke="black" points="437.5,-834 437.5,-856 520.5,-856 520.5,-834 437.5,-834"/>
<text text-anchor="start" x="440.5" y="-842.2" font-family="Helvetica,sans-Serif" font-size="11.00">timestamp[29,6]</text>
<polygon fill="none" stroke="black" points="295.5,-812 295.5,-834 437.5,-834 437.5,-812 295.5,-812"/>
<text text-anchor="start" x="315.5" y="-820.2" font-family="Helvetica,sans-Serif" font-size="11.00">updatedby</text>
<polygon fill="none" stroke="black" points="437.5,-812 437.5,-834 520.5,-834 520.5,-812 437.5,-812"/>
<text text-anchor="start" x="440.5" y="-820.2" font-family="Helvetica,sans-Serif" font-size="11.00">numeric[10]</text>
<polygon fill="none" stroke="black" points="295.5,-790 295.5,-812 437.5,-812 437.5,-790 295.5,-790"/>
<text text-anchor="start" x="315.5" y="-798.2" font-family="Helvetica,sans-Serif" font-size="11.00">validfrom</text>
<polygon fill="none" stroke="black" points="437.5,-790 437.5,-812 520.5,-812 520.5,-790 437.5,-790"/>
<text text-anchor="start" x="440.5" y="-798.2" font-family="Helvetica,sans-Serif" font-size="11.00">timestamp[29,6]</text>
<polygon fill="none" stroke="black" points="295.5,-768 295.5,-790 437.5,-790 437.5,-768 295.5,-768"/>
<text text-anchor="start" x="315.5" y="-776.2" font-family="Helvetica,sans-Serif" font-size="11.00">validto</text>
<polygon fill="none" stroke="black" points="437.5,-768 437.5,-790 520.5,-790 520.5,-768 437.5,-768"/>
<text text-anchor="start" x="440.5" y="-776.2" font-family="Helvetica,sans-Serif" font-size="11.00">timestamp[29,6]</text>
<polygon fill="none" stroke="black" points="295.5,-746 295.5,-768 437.5,-768 437.5,-746 295.5,-746"/>
<text text-anchor="start" x="315.5" y="-754.2" font-family="Helvetica,sans-Serif" font-size="11.00">priceoverridetype</text>
<polygon fill="none" stroke="black" points="437.5,-746 437.5,-768 520.5,-768 520.5,-746 437.5,-746"/>
<text text-anchor="start" x="440.5" y="-754.2" font-family="Helvetica,sans-Serif" font-size="11.00">bpchar[1]</text>
<polygon fill="none" stroke="black" points="295.5,-724 295.5,-746 437.5,-746 437.5,-724 295.5,-724"/>
<text text-anchor="start" x="315.5" y="-732.2" font-family="Helvetica,sans-Serif" font-size="11.00">isnetprice</text>
<polygon fill="none" stroke="black" points="437.5,-724 437.5,-746 520.5,-746 520.5,-724 437.5,-724"/>
<text text-anchor="start" x="440.5" y="-732.2" font-family="Helvetica,sans-Serif" font-size="11.00">bpchar[1]</text>
<polygon fill="none" stroke="black" points="295.5,-702 295.5,-724 437.5,-724 437.5,-702 295.5,-702"/>
<image xlink:href="../../images/foreignKeys.png" width="11px" height="12px" preserveAspectRatio="xMinYMin meet" x="300.5" y="-719"/>
<text text-anchor="start" x="315.5" y="-710.2" font-family="Helvetica,sans-Serif" font-size="11.00">c_currency_id</text>
<polygon fill="none" stroke="black" points="437.5,-702 437.5,-724 520.5,-724 520.5,-702 437.5,-702"/>
<text text-anchor="start" x="440.5" y="-710.2" font-family="Helvetica,sans-Serif" font-size="11.00">numeric[10]</text>
<polygon fill="#ffffff" stroke="transparent" points="295.5,-680 295.5,-702 437.5,-702 437.5,-680 295.5,-680"/>
<polygon fill="none" stroke="black" points="295.5,-680 295.5,-702 437.5,-702 437.5,-680 295.5,-680"/>
<text text-anchor="start" x="315.5" y="-688.2" font-family="Helvetica,sans-Serif" font-size="11.00">m_bp_price_uu</text>
<polygon fill="none" stroke="black" points="437.5,-680 437.5,-702 520.5,-702 520.5,-680 437.5,-680"/>
<text text-anchor="start" x="440.5" y="-688.2" font-family="Helvetica,sans-Serif" font-size="11.00">varchar[36]</text>
<polygon fill="#ffffff" stroke="transparent" points="295.5,-662 295.5,-680 357.5,-680 357.5,-662 295.5,-662"/>
<polygon fill="none" stroke="black" points="295.5,-662 295.5,-680 357.5,-680 357.5,-662 295.5,-662"/>
<text text-anchor="start" x="298.5" y="-668.2" font-family="Helvetica,sans-Serif" font-size="11.00">&lt; 3</text>
<polygon fill="#ffffff" stroke="transparent" points="357.5,-662 357.5,-680 437.5,-680 437.5,-662 357.5,-662"/>
<polygon fill="none" stroke="black" points="357.5,-662 357.5,-680 437.5,-680 437.5,-662 357.5,-662"/>
<text text-anchor="start" x="401.5" y="-668.2" font-family="Helvetica,sans-Serif" font-size="11.00">0 rows</text>
<polygon fill="#ffffff" stroke="transparent" points="437.5,-662 437.5,-680 520.5,-680 520.5,-662 437.5,-662"/>
<polygon fill="none" stroke="black" points="437.5,-662 437.5,-680 520.5,-680 520.5,-662 437.5,-662"/>
<text text-anchor="start" x="501.5" y="-668.2" font-family="Helvetica,sans-Serif" font-size="11.00">0 &gt;</text>
<polygon fill="none" stroke="black" stroke-width="2" points="294,-661 294,-1187 521,-1187 521,-661 294,-661"/>
</a>
</g>
</g>
<!-- c_bpartner -->
<g id="node2" class="node">
<title>c_bpartner</title>
<g id="a_node2"><a xlink:href="../../tables/c_bpartner.html" xlink:title="c_bpartner" target="_top">
<polygon fill="#ffffff" stroke="transparent" points="8,-987 8,-1727 244,-1727 244,-987 8,-987"/>
<polygon fill="#f5f5f5" stroke="transparent" points="8,-1705 8,-1727 244,-1727 244,-1705 8,-1705"/>
<polygon fill="none" stroke="black" points="8,-1705 8,-1727 244,-1727 244,-1705 8,-1705"/>
<text text-anchor="start" x="13" y="-1714.2" font-family="Helvetica,sans-Serif" font-weight="bold" font-size="11.00">c_bpartner</text>
<text text-anchor="start" x="209" y="-1713.2" font-family="Helvetica,sans-Serif" font-size="11.00">[table]</text>
<polygon fill="none" stroke="black" points="8,-1683 8,-1705 244,-1705 244,-1683 8,-1683"/>
<image xlink:href="../../images/primaryKeys.png" width="11px" height="12px" preserveAspectRatio="xMinYMin meet" x="13" y="-1700"/>
<text text-anchor="start" x="28" y="-1691.2" font-family="Helvetica,sans-Serif" font-size="11.00">c_bpartner_id</text>
<polygon fill="#ffffff" stroke="transparent" points="8,-1661 8,-1683 244,-1683 244,-1661 8,-1661"/>
<polygon fill="none" stroke="black" points="8,-1661 8,-1683 244,-1683 244,-1661 8,-1661"/>
<image xlink:href="../../images/foreignKeys.png" width="11px" height="12px" preserveAspectRatio="xMinYMin meet" x="13" y="-1678"/>
<text text-anchor="start" x="28" y="-1669.2" font-family="Helvetica,sans-Serif" font-size="11.00">ad_client_id</text>
<polygon fill="none" stroke="black" points="8,-1639 8,-1661 244,-1661 244,-1639 8,-1639"/>
<image xlink:href="../../images/foreignKeys.png" width="11px" height="12px" preserveAspectRatio="xMinYMin meet" x="13" y="-1656"/>
<text text-anchor="start" x="28" y="-1647.2" font-family="Helvetica,sans-Serif" font-size="11.00">ad_org_id</text>
<polygon fill="#ffffff" stroke="transparent" points="8,-1617 8,-1639 244,-1639 244,-1617 8,-1617"/>
<polygon fill="none" stroke="black" points="8,-1617 8,-1639 244,-1639 244,-1617 8,-1617"/>
<text text-anchor="start" x="28" y="-1625.2" font-family="Helvetica,sans-Serif" font-size="11.00">value</text>
<polygon fill="#ffffff" stroke="transparent" points="8,-1595 8,-1617 244,-1617 244,-1595 8,-1595"/>
<polygon fill="none" stroke="black" points="8,-1595 8,-1617 244,-1617 244,-1595 8,-1595"/>
<text text-anchor="start" x="28" y="-1603.2" font-family="Helvetica,sans-Serif" font-size="11.00">name</text>
<polygon fill="none" stroke="black" points="8,-1573 8,-1595 244,-1595 244,-1573 8,-1573"/>
<image xlink:href="../../images/foreignKeys.png" width="11px" height="12px" preserveAspectRatio="xMinYMin meet" x="13" y="-1590"/>
<text text-anchor="start" x="28" y="-1581.2" font-family="Helvetica,sans-Serif" font-size="11.00">c_bp_group_id</text>
<polygon fill="none" stroke="black" points="8,-1551 8,-1573 244,-1573 244,-1551 8,-1551"/>
<image xlink:href="../../images/foreignKeys.png" width="11px" height="12px" preserveAspectRatio="xMinYMin meet" x="13" y="-1568"/>
<text text-anchor="start" x="28" y="-1559.2" font-family="Helvetica,sans-Serif" font-size="11.00">ad_language</text>
<polygon fill="none" stroke="black" points="8,-1529 8,-1551 244,-1551 244,-1529 8,-1529"/>
<image xlink:href="../../images/foreignKeys.png" width="11px" height="12px" preserveAspectRatio="xMinYMin meet" x="13" y="-1546"/>
<text text-anchor="start" x="28" y="-1537.2" font-family="Helvetica,sans-Serif" font-size="11.00">c_invoiceschedule_id</text>
<polygon fill="none" stroke="black" points="8,-1507 8,-1529 244,-1529 244,-1507 8,-1507"/>
<image xlink:href="../../images/foreignKeys.png" width="11px" height="12px" preserveAspectRatio="xMinYMin meet" x="13" y="-1524"/>
<text text-anchor="start" x="28" y="-1515.2" font-family="Helvetica,sans-Serif" font-size="11.00">c_paymentterm_id</text>
<polygon fill="none" stroke="black" points="8,-1485 8,-1507 244,-1507 244,-1485 8,-1485"/>
<image xlink:href="../../images/foreignKeys.png" width="11px" height="12px" preserveAspectRatio="xMinYMin meet" x="13" y="-1502"/>
<text text-anchor="start" x="28" y="-1493.2" font-family="Helvetica,sans-Serif" font-size="11.00">m_pricelist_id</text>
<polygon fill="none" stroke="black" points="8,-1463 8,-1485 244,-1485 244,-1463 8,-1463"/>
<image xlink:href="../../images/foreignKeys.png" width="11px" height="12px" preserveAspectRatio="xMinYMin meet" x="13" y="-1480"/>
<text text-anchor="start" x="28" y="-1471.2" font-family="Helvetica,sans-Serif" font-size="11.00">m_discountschema_id</text>
<polygon fill="none" stroke="black" points="8,-1441 8,-1463 244,-1463 244,-1441 8,-1441"/>
<image xlink:href="../../images/foreignKeys.png" width="11px" height="12px" preserveAspectRatio="xMinYMin meet" x="13" y="-1458"/>
<text text-anchor="start" x="28" y="-1449.2" font-family="Helvetica,sans-Serif" font-size="11.00">c_dunning_id</text>
<polygon fill="none" stroke="black" points="8,-1419 8,-1441 244,-1441 244,-1419 8,-1419"/>
<image xlink:href="../../images/foreignKeys.png" width="11px" height="12px" preserveAspectRatio="xMinYMin meet" x="13" y="-1436"/>
<text text-anchor="start" x="28" y="-1427.2" font-family="Helvetica,sans-Serif" font-size="11.00">po_pricelist_id</text>
<polygon fill="none" stroke="black" points="8,-1397 8,-1419 244,-1419 244,-1397 8,-1397"/>
<image xlink:href="../../images/foreignKeys.png" width="11px" height="12px" preserveAspectRatio="xMinYMin meet" x="13" y="-1414"/>
<text text-anchor="start" x="28" y="-1405.2" font-family="Helvetica,sans-Serif" font-size="11.00">po_discountschema_id</text>
<polygon fill="none" stroke="black" points="8,-1375 8,-1397 244,-1397 244,-1375 8,-1375"/>
<image xlink:href="../../images/foreignKeys.png" width="11px" height="12px" preserveAspectRatio="xMinYMin meet" x="13" y="-1392"/>
<text text-anchor="start" x="28" y="-1383.2" font-family="Helvetica,sans-Serif" font-size="11.00">po_paymentterm_id</text>
<polygon fill="none" stroke="black" points="8,-1353 8,-1375 244,-1375 244,-1353 8,-1353"/>
<image xlink:href="../../images/foreignKeys.png" width="11px" height="12px" preserveAspectRatio="xMinYMin meet" x="13" y="-1370"/>
<text text-anchor="start" x="28" y="-1361.2" font-family="Helvetica,sans-Serif" font-size="11.00">c_greeting_id</text>
<polygon fill="none" stroke="black" points="8,-1331 8,-1353 244,-1353 244,-1331 8,-1331"/>
<image xlink:href="../../images/foreignKeys.png" width="11px" height="12px" preserveAspectRatio="xMinYMin meet" x="13" y="-1348"/>
<text text-anchor="start" x="28" y="-1339.2" font-family="Helvetica,sans-Serif" font-size="11.00">salesrep_id</text>
<polygon fill="none" stroke="black" points="8,-1309 8,-1331 244,-1331 244,-1309 8,-1309"/>
<image xlink:href="../../images/foreignKeys.png" width="11px" height="12px" preserveAspectRatio="xMinYMin meet" x="13" y="-1326"/>
<text text-anchor="start" x="28" y="-1317.2" font-family="Helvetica,sans-Serif" font-size="11.00">bpartner_parent_id</text>
<polygon fill="none" stroke="black" points="8,-1287 8,-1309 244,-1309 244,-1287 8,-1287"/>
<image xlink:href="../../images/foreignKeys.png" width="11px" height="12px" preserveAspectRatio="xMinYMin meet" x="13" y="-1304"/>
<text text-anchor="start" x="28" y="-1295.2" font-family="Helvetica,sans-Serif" font-size="11.00">invoice_printformat_id</text>
<polygon fill="#ffffff" stroke="transparent" points="8,-1265 8,-1287 244,-1287 244,-1265 8,-1265"/>
<polygon fill="none" stroke="black" points="8,-1265 8,-1287 244,-1287 244,-1265 8,-1265"/>
<image xlink:href="../../images/foreignKeys.png" width="11px" height="12px" preserveAspectRatio="xMinYMin meet" x="13" y="-1282"/>
<text text-anchor="start" x="28" y="-1273.2" font-family="Helvetica,sans-Serif" font-size="11.00">ad_orgbp_id</text>
<polygon fill="none" stroke="black" points="8,-1243 8,-1265 244,-1265 244,-1243 8,-1243"/>
<image xlink:href="../../images/foreignKeys.png" width="11px" height="12px" preserveAspectRatio="xMinYMin meet" x="13" y="-1260"/>
<text text-anchor="start" x="28" y="-1251.2" font-family="Helvetica,sans-Serif" font-size="11.00">c_taxgroup_id</text>
<polygon fill="none" stroke="black" points="8,-1221 8,-1243 244,-1243 244,-1221 8,-1221"/>
<image xlink:href="../../images/foreignKeys.png" width="11px" height="12px" preserveAspectRatio="xMinYMin meet" x="13" y="-1238"/>
<text text-anchor="start" x="28" y="-1229.2" font-family="Helvetica,sans-Serif" font-size="11.00">logo_id</text>
<polygon fill="#ffffff" stroke="transparent" points="8,-1199 8,-1221 244,-1221 244,-1199 8,-1199"/>
<polygon fill="none" stroke="black" points="8,-1199 8,-1221 244,-1221 244,-1199 8,-1199"/>
<text text-anchor="start" x="28" y="-1207.2" font-family="Helvetica,sans-Serif" font-size="11.00">c_bpartner_uu</text>
<polygon fill="none" stroke="black" points="8,-1177 8,-1199 244,-1199 244,-1177 8,-1177"/>
<image xlink:href="../../images/foreignKeys.png" width="11px" height="12px" preserveAspectRatio="xMinYMin meet" x="13" y="-1194"/>
<text text-anchor="start" x="28" y="-1185.2" font-family="Helvetica,sans-Serif" font-size="11.00">default1099box_id</text>
<polygon fill="none" stroke="black" points="8,-1155 8,-1177 244,-1177 244,-1155 8,-1155"/>
<image xlink:href="../../images/foreignKeys.png" width="11px" height="12px" preserveAspectRatio="xMinYMin meet" x="13" y="-1172"/>
<text text-anchor="start" x="28" y="-1163.2" font-family="Helvetica,sans-Serif" font-size="11.00">cof_c_custody_id</text>
<polygon fill="none" stroke="black" points="8,-1133 8,-1155 244,-1155 244,-1133 8,-1133"/>
<image xlink:href="../../images/foreignKeys.png" width="11px" height="12px" preserveAspectRatio="xMinYMin meet" x="13" y="-1150"/>
<text text-anchor="start" x="28" y="-1141.2" font-family="Helvetica,sans-Serif" font-size="11.00">cof_doctypepurchase_id</text>
<polygon fill="none" stroke="black" points="8,-1111 8,-1133 244,-1133 244,-1111 8,-1111"/>
<image xlink:href="../../images/foreignKeys.png" width="11px" height="12px" preserveAspectRatio="xMinYMin meet" x="13" y="-1128"/>
<text text-anchor="start" x="28" y="-1119.2" font-family="Helvetica,sans-Serif" font-size="11.00">cof_doctypesale_id</text>
<polygon fill="none" stroke="black" points="8,-1089 8,-1111 244,-1111 244,-1089 8,-1089"/>
<image xlink:href="../../images/foreignKeys.png" width="11px" height="12px" preserveAspectRatio="xMinYMin meet" x="13" y="-1106"/>
<text text-anchor="start" x="28" y="-1097.2" font-family="Helvetica,sans-Serif" font-size="11.00">cof_grupofornecedor_id</text>
<polygon fill="none" stroke="black" points="8,-1067 8,-1089 244,-1089 244,-1067 8,-1067"/>
<image xlink:href="../../images/foreignKeys.png" width="11px" height="12px" preserveAspectRatio="xMinYMin meet" x="13" y="-1084"/>
<text text-anchor="start" x="28" y="-1075.2" font-family="Helvetica,sans-Serif" font-size="11.00">cof_vendedorinterno_id</text>
<polygon fill="none" stroke="black" points="8,-1045 8,-1067 244,-1067 244,-1045 8,-1045"/>
<image xlink:href="../../images/foreignKeys.png" width="11px" height="12px" preserveAspectRatio="xMinYMin meet" x="13" y="-1062"/>
<text text-anchor="start" x="28" y="-1053.2" font-family="Helvetica,sans-Serif" font-size="11.00">cof_tipoparceiro_id</text>
<polygon fill="none" stroke="black" points="8,-1023 8,-1045 244,-1045 244,-1023 8,-1023"/>
<image xlink:href="../../images/foreignKeys.png" width="11px" height="12px" preserveAspectRatio="xMinYMin meet" x="13" y="-1040"/>
<text text-anchor="start" x="28" y="-1031.2" font-family="Helvetica,sans-Serif" font-size="11.00">cof_classeparceiro_id</text>
<polygon fill="none" stroke="black" points="8,-1005 8,-1023 244,-1023 244,-1005 8,-1005"/>
<text text-anchor="start" x="11" y="-1011.2" font-family="Helvetica,sans-Serif" font-size="11.00">...</text>
<polygon fill="#ffffff" stroke="transparent" points="8,-987 8,-1005 103,-1005 103,-987 8,-987"/>
<polygon fill="none" stroke="black" points="8,-987 8,-1005 103,-1005 103,-987 8,-987"/>
<text text-anchor="start" x="11" y="-993.2" font-family="Helvetica,sans-Serif" font-size="11.00">&lt; 27</text>
<polygon fill="#ffffff" stroke="transparent" points="103,-987 103,-1005 176,-1005 176,-987 103,-987"/>
<polygon fill="none" stroke="black" points="103,-987 103,-1005 176,-1005 176,-987 103,-987"/>
<text text-anchor="start" x="140" y="-993.2" font-family="Helvetica,sans-Serif" font-size="11.00">4 rows</text>
<polygon fill="#ffffff" stroke="transparent" points="176,-987 176,-1005 244,-1005 244,-987 176,-987"/>
<polygon fill="none" stroke="black" points="176,-987 176,-1005 244,-1005 244,-987 176,-987"/>
<text text-anchor="start" x="213" y="-993.2" font-family="Helvetica,sans-Serif" font-size="11.00">164 &gt;</text>
</a>
</g>
</g>
<!-- m_bp_price&#45;&gt;c_bpartner -->
<g id="edge1" class="edge">
<title>m_bp_price:w&#45;&gt;c_bpartner:e</title>
<path fill="none" stroke="black" d="M280.07,-1065.61C32.3,-1087.52 520.35,-1694 245,-1694"/>
<polygon fill="black" stroke="black" points="286.51,-1065.34 294.65,-1068.6 290.5,-1065.17 294.5,-1065 294.5,-1065 294.5,-1065 290.5,-1065.17 294.35,-1061.4 286.51,-1065.34 286.51,-1065.34"/>
<ellipse fill="none" stroke="black" cx="283.31" cy="-1065.47" rx="3.2" ry="3.2"/>
</g>
<!-- c_currency -->
<g id="node3" class="node">
<title>c_currency</title>
<g id="a_node3"><a xlink:href="../../tables/c_currency.html" xlink:title="c_currency" target="_top">
<polygon fill="#ffffff" stroke="transparent" points="55,-37 55,-205 197,-205 197,-37 55,-37"/>
<polygon fill="#f5f5f5" stroke="transparent" points="55,-183 55,-205 197,-205 197,-183 55,-183"/>
<polygon fill="none" stroke="black" points="55,-183 55,-205 197,-205 197,-183 55,-183"/>
<text text-anchor="start" x="60" y="-192.2" font-family="Helvetica,sans-Serif" font-weight="bold" font-size="11.00">c_currency</text>
<text text-anchor="start" x="162" y="-191.2" font-family="Helvetica,sans-Serif" font-size="11.00">[table]</text>
<polygon fill="none" stroke="black" points="55,-161 55,-183 197,-183 197,-161 55,-161"/>
<image xlink:href="../../images/primaryKeys.png" width="11px" height="12px" preserveAspectRatio="xMinYMin meet" x="60" y="-178"/>
<text text-anchor="start" x="75" y="-169.2" font-family="Helvetica,sans-Serif" font-size="11.00">c_currency_id</text>
<polygon fill="none" stroke="black" points="55,-139 55,-161 197,-161 197,-139 55,-139"/>
<image xlink:href="../../images/foreignKeys.png" width="11px" height="12px" preserveAspectRatio="xMinYMin meet" x="60" y="-156"/>
<text text-anchor="start" x="75" y="-147.2" font-family="Helvetica,sans-Serif" font-size="11.00">ad_client_id</text>
<polygon fill="none" stroke="black" points="55,-117 55,-139 197,-139 197,-117 55,-117"/>
<image xlink:href="../../images/foreignKeys.png" width="11px" height="12px" preserveAspectRatio="xMinYMin meet" x="60" y="-134"/>
<text text-anchor="start" x="75" y="-125.2" font-family="Helvetica,sans-Serif" font-size="11.00">ad_org_id</text>
<polygon fill="#ffffff" stroke="transparent" points="55,-95 55,-117 197,-117 197,-95 55,-95"/>
<polygon fill="none" stroke="black" points="55,-95 55,-117 197,-117 197,-95 55,-95"/>
<text text-anchor="start" x="75" y="-103.2" font-family="Helvetica,sans-Serif" font-size="11.00">iso_code</text>
<polygon fill="#ffffff" stroke="transparent" points="55,-73 55,-95 197,-95 197,-73 55,-73"/>
<polygon fill="none" stroke="black" points="55,-73 55,-95 197,-95 197,-73 55,-73"/>
<text text-anchor="start" x="75" y="-81.2" font-family="Helvetica,sans-Serif" font-size="11.00">c_currency_uu</text>
<polygon fill="none" stroke="black" points="55,-55 55,-73 197,-73 197,-55 55,-55"/>
<text text-anchor="start" x="58" y="-61.2" font-family="Helvetica,sans-Serif" font-size="11.00">...</text>
<polygon fill="#ffffff" stroke="transparent" points="55,-37 55,-55 97,-55 97,-37 55,-37"/>
<polygon fill="none" stroke="black" points="55,-37 55,-55 97,-55 97,-37 55,-37"/>
<text text-anchor="start" x="58" y="-43.2" font-family="Helvetica,sans-Serif" font-size="11.00">&lt; 2</text>
<polygon fill="#ffffff" stroke="transparent" points="97,-37 97,-55 158,-55 158,-37 97,-37"/>
<polygon fill="none" stroke="black" points="97,-37 97,-55 158,-55 158,-37 97,-37"/>
<text text-anchor="start" x="110" y="-43.2" font-family="Helvetica,sans-Serif" font-size="11.00">175 rows</text>
<polygon fill="#ffffff" stroke="transparent" points="158,-37 158,-55 197,-55 197,-37 158,-37"/>
<polygon fill="none" stroke="black" points="158,-37 158,-55 197,-55 197,-37 158,-37"/>
<text text-anchor="start" x="172" y="-43.2" font-family="Helvetica,sans-Serif" font-size="11.00">67 &gt;</text>
</a>
</g>
</g>
<!-- m_bp_price&#45;&gt;c_currency -->
<g id="edge2" class="edge">
<title>m_bp_price:w&#45;&gt;c_currency:e</title>
<path fill="none" stroke="black" d="M282.68,-704.42C245.01,-642.19 275.77,-260.98 252,-216 237.53,-188.63 228.96,-172 198,-172"/>
<polygon fill="black" stroke="black" points="288.02,-708.3 292.39,-715.91 291.26,-710.65 294.5,-713 294.5,-713 294.5,-713 291.26,-710.65 296.61,-710.09 288.02,-708.3 288.02,-708.3"/>
<ellipse fill="none" stroke="black" cx="285.43" cy="-706.42" rx="3.2" ry="3.2"/>
</g>
<!-- m_product -->
<g id="node4" class="node">
<title>m_product</title>
<g id="a_node4"><a xlink:href="../../tables/m_product.html" xlink:title="m_product" target="_top">
<polygon fill="#ffffff" stroke="transparent" points="8.5,-226 8.5,-966 243.5,-966 243.5,-226 8.5,-226"/>
<polygon fill="#f5f5f5" stroke="transparent" points="9,-944 9,-966 244,-966 244,-944 9,-944"/>
<polygon fill="none" stroke="black" points="9,-944 9,-966 244,-966 244,-944 9,-944"/>
<text text-anchor="start" x="14" y="-953.2" font-family="Helvetica,sans-Serif" font-weight="bold" font-size="11.00">m_product</text>
<text text-anchor="start" x="209" y="-952.2" font-family="Helvetica,sans-Serif" font-size="11.00">[table]</text>
<polygon fill="none" stroke="black" points="9,-922 9,-944 244,-944 244,-922 9,-922"/>
<image xlink:href="../../images/primaryKeys.png" width="11px" height="12px" preserveAspectRatio="xMinYMin meet" x="14" y="-939"/>
<text text-anchor="start" x="29" y="-930.2" font-family="Helvetica,sans-Serif" font-size="11.00">m_product_id</text>
<polygon fill="#ffffff" stroke="transparent" points="9,-900 9,-922 244,-922 244,-900 9,-900"/>
<polygon fill="none" stroke="black" points="9,-900 9,-922 244,-922 244,-900 9,-900"/>
<image xlink:href="../../images/foreignKeys.png" width="11px" height="12px" preserveAspectRatio="xMinYMin meet" x="14" y="-917"/>
<text text-anchor="start" x="29" y="-908.2" font-family="Helvetica,sans-Serif" font-size="11.00">ad_client_id</text>
<polygon fill="none" stroke="black" points="9,-878 9,-900 244,-900 244,-878 9,-878"/>
<image xlink:href="../../images/foreignKeys.png" width="11px" height="12px" preserveAspectRatio="xMinYMin meet" x="14" y="-895"/>
<text text-anchor="start" x="29" y="-886.2" font-family="Helvetica,sans-Serif" font-size="11.00">ad_org_id</text>
<polygon fill="#ffffff" stroke="transparent" points="9,-856 9,-878 244,-878 244,-856 9,-856"/>
<polygon fill="none" stroke="black" points="9,-856 9,-878 244,-878 244,-856 9,-856"/>
<text text-anchor="start" x="29" y="-864.2" font-family="Helvetica,sans-Serif" font-size="11.00">value</text>
<polygon fill="#ffffff" stroke="transparent" points="9,-834 9,-856 244,-856 244,-834 9,-834"/>
<polygon fill="none" stroke="black" points="9,-834 9,-856 244,-856 244,-834 9,-834"/>
<text text-anchor="start" x="29" y="-842.2" font-family="Helvetica,sans-Serif" font-size="11.00">name</text>
<polygon fill="#ffffff" stroke="transparent" points="9,-812 9,-834 244,-834 244,-812 9,-812"/>
<polygon fill="none" stroke="black" points="9,-812 9,-834 244,-834 244,-812 9,-812"/>
<text text-anchor="start" x="29" y="-820.2" font-family="Helvetica,sans-Serif" font-size="11.00">upc</text>
<polygon fill="none" stroke="black" points="9,-790 9,-812 244,-812 244,-790 9,-790"/>
<image xlink:href="../../images/foreignKeys.png" width="11px" height="12px" preserveAspectRatio="xMinYMin meet" x="14" y="-807"/>
<text text-anchor="start" x="29" y="-798.2" font-family="Helvetica,sans-Serif" font-size="11.00">c_uom_id</text>
<polygon fill="none" stroke="black" points="9,-768 9,-790 244,-790 244,-768 9,-768"/>
<image xlink:href="../../images/foreignKeys.png" width="11px" height="12px" preserveAspectRatio="xMinYMin meet" x="14" y="-785"/>
<text text-anchor="start" x="29" y="-776.2" font-family="Helvetica,sans-Serif" font-size="11.00">salesrep_id</text>
<polygon fill="none" stroke="black" points="9,-746 9,-768 244,-768 244,-746 9,-746"/>
<image xlink:href="../../images/foreignKeys.png" width="11px" height="12px" preserveAspectRatio="xMinYMin meet" x="14" y="-763"/>
<text text-anchor="start" x="29" y="-754.2" font-family="Helvetica,sans-Serif" font-size="11.00">c_revenuerecognition_id</text>
<polygon fill="#ffffff" stroke="transparent" points="9,-724 9,-746 244,-746 244,-724 9,-724"/>
<polygon fill="none" stroke="black" points="9,-724 9,-746 244,-746 244,-724 9,-724"/>
<image xlink:href="../../images/foreignKeys.png" width="11px" height="12px" preserveAspectRatio="xMinYMin meet" x="14" y="-741"/>
<text text-anchor="start" x="29" y="-732.2" font-family="Helvetica,sans-Serif" font-size="11.00">m_product_category_id</text>
<polygon fill="none" stroke="black" points="9,-702 9,-724 244,-724 244,-702 9,-702"/>
<image xlink:href="../../images/foreignKeys.png" width="11px" height="12px" preserveAspectRatio="xMinYMin meet" x="14" y="-719"/>
<text text-anchor="start" x="29" y="-710.2" font-family="Helvetica,sans-Serif" font-size="11.00">c_taxcategory_id</text>
<polygon fill="#ffffff" stroke="transparent" points="9,-680 9,-702 244,-702 244,-680 9,-680"/>
<polygon fill="none" stroke="black" points="9,-680 9,-702 244,-702 244,-680 9,-680"/>
<image xlink:href="../../images/foreignKeys.png" width="11px" height="12px" preserveAspectRatio="xMinYMin meet" x="14" y="-697"/>
<text text-anchor="start" x="29" y="-688.2" font-family="Helvetica,sans-Serif" font-size="11.00">s_resource_id</text>
<polygon fill="#ffffff" stroke="transparent" points="9,-658 9,-680 244,-680 244,-658 9,-658"/>
<polygon fill="none" stroke="black" points="9,-658 9,-680 244,-680 244,-658 9,-658"/>
<image xlink:href="../../images/foreignKeys.png" width="11px" height="12px" preserveAspectRatio="xMinYMin meet" x="14" y="-675"/>
<text text-anchor="start" x="29" y="-666.2" font-family="Helvetica,sans-Serif" font-size="11.00">s_expensetype_id</text>
<polygon fill="none" stroke="black" points="9,-636 9,-658 244,-658 244,-636 9,-636"/>
<image xlink:href="../../images/foreignKeys.png" width="11px" height="12px" preserveAspectRatio="xMinYMin meet" x="14" y="-653"/>
<text text-anchor="start" x="29" y="-644.2" font-family="Helvetica,sans-Serif" font-size="11.00">r_mailtext_id</text>
<polygon fill="none" stroke="black" points="9,-614 9,-636 244,-636 244,-614 9,-614"/>
<image xlink:href="../../images/foreignKeys.png" width="11px" height="12px" preserveAspectRatio="xMinYMin meet" x="14" y="-631"/>
<text text-anchor="start" x="29" y="-622.2" font-family="Helvetica,sans-Serif" font-size="11.00">m_attributeset_id</text>
<polygon fill="none" stroke="black" points="9,-592 9,-614 244,-614 244,-592 9,-592"/>
<image xlink:href="../../images/foreignKeys.png" width="11px" height="12px" preserveAspectRatio="xMinYMin meet" x="14" y="-609"/>
<text text-anchor="start" x="29" y="-600.2" font-family="Helvetica,sans-Serif" font-size="11.00">m_attributesetinstance_id</text>
<polygon fill="none" stroke="black" points="9,-570 9,-592 244,-592 244,-570 9,-570"/>
<image xlink:href="../../images/foreignKeys.png" width="11px" height="12px" preserveAspectRatio="xMinYMin meet" x="14" y="-587"/>
<text text-anchor="start" x="29" y="-578.2" font-family="Helvetica,sans-Serif" font-size="11.00">m_freightcategory_id</text>
<polygon fill="none" stroke="black" points="9,-548 9,-570 244,-570 244,-548 9,-548"/>
<image xlink:href="../../images/foreignKeys.png" width="11px" height="12px" preserveAspectRatio="xMinYMin meet" x="14" y="-565"/>
<text text-anchor="start" x="29" y="-556.2" font-family="Helvetica,sans-Serif" font-size="11.00">m_locator_id</text>
<polygon fill="none" stroke="black" points="9,-526 9,-548 244,-548 244,-526 9,-526"/>
<image xlink:href="../../images/foreignKeys.png" width="11px" height="12px" preserveAspectRatio="xMinYMin meet" x="14" y="-543"/>
<text text-anchor="start" x="29" y="-534.2" font-family="Helvetica,sans-Serif" font-size="11.00">c_subscriptiontype_id</text>
<polygon fill="#ffffff" stroke="transparent" points="9,-504 9,-526 244,-526 244,-504 9,-504"/>
<polygon fill="none" stroke="black" points="9,-504 9,-526 244,-526 244,-504 9,-504"/>
<text text-anchor="start" x="29" y="-512.2" font-family="Helvetica,sans-Serif" font-size="11.00">m_product_uu</text>
<polygon fill="none" stroke="black" points="9,-482 9,-504 244,-504 244,-482 9,-482"/>
<image xlink:href="../../images/foreignKeys.png" width="11px" height="12px" preserveAspectRatio="xMinYMin meet" x="14" y="-499"/>
<text text-anchor="start" x="29" y="-490.2" font-family="Helvetica,sans-Serif" font-size="11.00">m_parttype_id</text>
<polygon fill="none" stroke="black" points="9,-460 9,-482 244,-482 244,-460 9,-460"/>
<image xlink:href="../../images/foreignKeys.png" width="11px" height="12px" preserveAspectRatio="xMinYMin meet" x="14" y="-477"/>
<text text-anchor="start" x="29" y="-468.2" font-family="Helvetica,sans-Serif" font-size="11.00">lbr_productcategory_id</text>
<polygon fill="none" stroke="black" points="9,-438 9,-460 244,-460 244,-438 9,-438"/>
<image xlink:href="../../images/foreignKeys.png" width="11px" height="12px" preserveAspectRatio="xMinYMin meet" x="14" y="-455"/>
<text text-anchor="start" x="29" y="-446.2" font-family="Helvetica,sans-Serif" font-size="11.00">lbr_ncm_id</text>
<polygon fill="none" stroke="black" points="9,-416 9,-438 244,-438 244,-416 9,-416"/>
<image xlink:href="../../images/foreignKeys.png" width="11px" height="12px" preserveAspectRatio="xMinYMin meet" x="14" y="-433"/>
<text text-anchor="start" x="29" y="-424.2" font-family="Helvetica,sans-Serif" font-size="11.00">lbr_fiscalgroup_product_id</text>
<polygon fill="none" stroke="black" points="9,-394 9,-416 244,-416 244,-394 9,-394"/>
<image xlink:href="../../images/foreignKeys.png" width="11px" height="12px" preserveAspectRatio="xMinYMin meet" x="14" y="-411"/>
<text text-anchor="start" x="29" y="-402.2" font-family="Helvetica,sans-Serif" font-size="11.00">cof_cest_id</text>
<polygon fill="none" stroke="black" points="9,-372 9,-394 244,-394 244,-372 9,-372"/>
<image xlink:href="../../images/foreignKeys.png" width="11px" height="12px" preserveAspectRatio="xMinYMin meet" x="14" y="-389"/>
<text text-anchor="start" x="29" y="-380.2" font-family="Helvetica,sans-Serif" font-size="11.00">cof_c_generoitem_sped_id</text>
<polygon fill="none" stroke="black" points="9,-350 9,-372 244,-372 244,-350 9,-350"/>
<image xlink:href="../../images/foreignKeys.png" width="11px" height="12px" preserveAspectRatio="xMinYMin meet" x="14" y="-367"/>
<text text-anchor="start" x="29" y="-358.2" font-family="Helvetica,sans-Serif" font-size="11.00">cof_producttype_id</text>
<polygon fill="none" stroke="black" points="9,-328 9,-350 244,-350 244,-328 9,-328"/>
<image xlink:href="../../images/foreignKeys.png" width="11px" height="12px" preserveAspectRatio="xMinYMin meet" x="14" y="-345"/>
<text text-anchor="start" x="29" y="-336.2" font-family="Helvetica,sans-Serif" font-size="11.00">cof_productclass_id</text>
<polygon fill="none" stroke="black" points="9,-306 9,-328 244,-328 244,-306 9,-306"/>
<image xlink:href="../../images/foreignKeys.png" width="11px" height="12px" preserveAspectRatio="xMinYMin meet" x="14" y="-323"/>
<text text-anchor="start" x="29" y="-314.2" font-family="Helvetica,sans-Serif" font-size="11.00">cof_productgroup_id</text>
<polygon fill="none" stroke="black" points="9,-284 9,-306 244,-306 244,-284 9,-284"/>
<image xlink:href="../../images/foreignKeys.png" width="11px" height="12px" preserveAspectRatio="xMinYMin meet" x="14" y="-301"/>
<text text-anchor="start" x="29" y="-292.2" font-family="Helvetica,sans-Serif" font-size="11.00">cof_nbs_id</text>
<polygon fill="none" stroke="black" points="9,-262 9,-284 244,-284 244,-262 9,-262"/>
<image xlink:href="../../images/foreignKeys.png" width="11px" height="12px" preserveAspectRatio="xMinYMin meet" x="14" y="-279"/>
<text text-anchor="start" x="29" y="-270.2" font-family="Helvetica,sans-Serif" font-size="11.00">cof_grupofornecedor_id</text>
<polygon fill="none" stroke="black" points="9,-244 9,-262 244,-262 244,-244 9,-244"/>
<text text-anchor="start" x="12" y="-250.2" font-family="Helvetica,sans-Serif" font-size="11.00">...</text>
<polygon fill="#ffffff" stroke="transparent" points="9,-226 9,-244 106,-244 106,-226 9,-226"/>
<polygon fill="none" stroke="black" points="9,-226 9,-244 106,-244 106,-226 9,-226"/>
<text text-anchor="start" x="12" y="-232.2" font-family="Helvetica,sans-Serif" font-size="11.00">&lt; 22</text>
<polygon fill="#ffffff" stroke="transparent" points="106,-226 106,-244 175,-244 175,-226 106,-226"/>
<polygon fill="none" stroke="black" points="106,-226 106,-244 175,-244 175,-226 106,-226"/>
<text text-anchor="start" x="144" y="-232.2" font-family="Helvetica,sans-Serif" font-size="11.00">1 row</text>
<polygon fill="#ffffff" stroke="transparent" points="175,-226 175,-244 244,-244 244,-226 175,-226"/>
<polygon fill="none" stroke="black" points="175,-226 175,-244 244,-244 244,-226 175,-226"/>
<text text-anchor="start" x="213" y="-232.2" font-family="Helvetica,sans-Serif" font-size="11.00">172 &gt;</text>
</a>
</g>
</g>
<!-- m_bp_price&#45;&gt;m_product -->
<g id="edge3" class="edge">
<title>m_bp_price:w&#45;&gt;m_product:e</title>
<path fill="none" stroke="black" d="M279.84,-933C268.41,-933 261.16,-933 245,-933"/>
<polygon fill="black" stroke="black" points="286.5,-933 294.5,-936.6 290.5,-933 294.5,-933 294.5,-933 294.5,-933 290.5,-933 294.5,-929.4 286.5,-933 286.5,-933"/>
<ellipse fill="none" stroke="black" cx="283.3" cy="-933" rx="3.2" ry="3.2"/>
</g>
</g>
</svg>
