<?xml version="1.0" encoding="UTF-8" standalone="no"?>
<!DOCTYPE svg PUBLIC "-//W3C//DTD SVG 1.1//EN"
 "http://www.w3.org/Graphics/SVG/1.1/DTD/svg11.dtd">
<!-- Generated by graphviz version 2.43.0 (0)
 -->
<!-- Title: oneDegreeRelationshipsDiagram Pages: 1 -->
<svg width="1073pt" height="948pt"
 viewBox="0.00 0.00 1073.00 948.31" xmlns="http://www.w3.org/2000/svg" xmlns:xlink="http://www.w3.org/1999/xlink">
<g id="graph0" class="graph" transform="scale(1 1) rotate(0) translate(4 944.31)">
<title>oneDegreeRelationshipsDiagram</title>
<polygon fill="#ffffff" stroke="transparent" points="-4,4 -4,-944.31 1069,-944.31 1069,4 -4,4"/>
<text text-anchor="middle" x="71.5" y="-7.2" font-family="Helvetica,sans-Serif" font-size="11.00">Generated by SchemaSpy</text>
<!-- c_bp_group -->
<g id="node1" class="node">
<title>c_bp_group</title>
<g id="a_node1"><a xlink:href="../../tables/c_bp_group.html" xlink:title="c_bp_group" target="_top">
<polygon fill="#ffffff" stroke="transparent" points="335,-579 335,-857 507,-857 507,-579 335,-579"/>
<polygon fill="#f5f5f5" stroke="transparent" points="335,-835 335,-857 507,-857 507,-835 335,-835"/>
<polygon fill="none" stroke="black" points="335,-835 335,-857 507,-857 507,-835 335,-835"/>
<text text-anchor="start" x="340" y="-844.2" font-family="Helvetica,sans-Serif" font-weight="bold" font-size="11.00">c_bp_group</text>
<text text-anchor="start" x="472" y="-843.2" font-family="Helvetica,sans-Serif" font-size="11.00">[table]</text>
<polygon fill="none" stroke="black" points="335,-813 335,-835 507,-835 507,-813 335,-813"/>
<image xlink:href="../../images/primaryKeys.png" width="11px" height="12px" preserveAspectRatio="xMinYMin meet" x="340" y="-830"/>
<text text-anchor="start" x="355" y="-821.2" font-family="Helvetica,sans-Serif" font-size="11.00">c_bp_group_id</text>
<polygon fill="#ffffff" stroke="transparent" points="335,-791 335,-813 507,-813 507,-791 335,-791"/>
<polygon fill="none" stroke="black" points="335,-791 335,-813 507,-813 507,-791 335,-791"/>
<text text-anchor="start" x="355" y="-799.2" font-family="Helvetica,sans-Serif" font-size="11.00">ad_client_id</text>
<polygon fill="#ffffff" stroke="transparent" points="335,-769 335,-791 507,-791 507,-769 335,-769"/>
<polygon fill="none" stroke="black" points="335,-769 335,-791 507,-791 507,-769 335,-769"/>
<text text-anchor="start" x="355" y="-777.2" font-family="Helvetica,sans-Serif" font-size="11.00">value</text>
<polygon fill="none" stroke="black" points="335,-747 335,-769 507,-769 507,-747 335,-747"/>
<image xlink:href="../../images/foreignKeys.png" width="11px" height="12px" preserveAspectRatio="xMinYMin meet" x="340" y="-764"/>
<text text-anchor="start" x="355" y="-755.2" font-family="Helvetica,sans-Serif" font-size="11.00">ad_printcolor_id</text>
<polygon fill="none" stroke="black" points="335,-725 335,-747 507,-747 507,-725 335,-725"/>
<image xlink:href="../../images/foreignKeys.png" width="11px" height="12px" preserveAspectRatio="xMinYMin meet" x="340" y="-742"/>
<text text-anchor="start" x="355" y="-733.2" font-family="Helvetica,sans-Serif" font-size="11.00">m_pricelist_id</text>
<polygon fill="none" stroke="black" points="335,-703 335,-725 507,-725 507,-703 335,-703"/>
<image xlink:href="../../images/foreignKeys.png" width="11px" height="12px" preserveAspectRatio="xMinYMin meet" x="340" y="-720"/>
<text text-anchor="start" x="355" y="-711.2" font-family="Helvetica,sans-Serif" font-size="11.00">po_pricelist_id</text>
<polygon fill="none" stroke="black" points="335,-681 335,-703 507,-703 507,-681 335,-681"/>
<image xlink:href="../../images/foreignKeys.png" width="11px" height="12px" preserveAspectRatio="xMinYMin meet" x="340" y="-698"/>
<text text-anchor="start" x="355" y="-689.2" font-family="Helvetica,sans-Serif" font-size="11.00">m_discountschema_id</text>
<polygon fill="none" stroke="black" points="335,-659 335,-681 507,-681 507,-659 335,-659"/>
<image xlink:href="../../images/foreignKeys.png" width="11px" height="12px" preserveAspectRatio="xMinYMin meet" x="340" y="-676"/>
<text text-anchor="start" x="355" y="-667.2" font-family="Helvetica,sans-Serif" font-size="11.00">po_discountschema_id</text>
<polygon fill="none" stroke="black" points="335,-637 335,-659 507,-659 507,-637 335,-637"/>
<image xlink:href="../../images/foreignKeys.png" width="11px" height="12px" preserveAspectRatio="xMinYMin meet" x="340" y="-654"/>
<text text-anchor="start" x="355" y="-645.2" font-family="Helvetica,sans-Serif" font-size="11.00">c_dunning_id</text>
<polygon fill="#ffffff" stroke="transparent" points="335,-615 335,-637 507,-637 507,-615 335,-615"/>
<polygon fill="none" stroke="black" points="335,-615 335,-637 507,-637 507,-615 335,-615"/>
<text text-anchor="start" x="355" y="-623.2" font-family="Helvetica,sans-Serif" font-size="11.00">c_bp_group_uu</text>
<polygon fill="none" stroke="black" points="335,-597 335,-615 507,-615 507,-597 335,-597"/>
<text text-anchor="start" x="338" y="-603.2" font-family="Helvetica,sans-Serif" font-size="11.00">...</text>
<polygon fill="#ffffff" stroke="transparent" points="335,-579 335,-597 398,-597 398,-579 335,-579"/>
<polygon fill="none" stroke="black" points="335,-579 335,-597 398,-597 398,-579 335,-579"/>
<text text-anchor="start" x="338" y="-585.2" font-family="Helvetica,sans-Serif" font-size="11.00">&lt; 6</text>
<polygon fill="#ffffff" stroke="transparent" points="398,-579 398,-597 458,-597 458,-579 398,-579"/>
<polygon fill="none" stroke="black" points="398,-579 398,-597 458,-597 458,-579 398,-579"/>
<text text-anchor="start" x="422" y="-585.2" font-family="Helvetica,sans-Serif" font-size="11.00">5 rows</text>
<polygon fill="#ffffff" stroke="transparent" points="458,-579 458,-597 507,-597 507,-579 458,-579"/>
<polygon fill="none" stroke="black" points="458,-579 458,-597 507,-597 507,-579 458,-579"/>
<text text-anchor="start" x="482" y="-585.2" font-family="Helvetica,sans-Serif" font-size="11.00">14 &gt;</text>
</a>
</g>
</g>
<!-- m_discountschema -->
<g id="node2" class="node">
<title>m_discountschema</title>
<g id="a_node2"><a xlink:href="../../tables/m_discountschema.html" xlink:title="m_discountschema" target="_top">
<polygon fill="#ffffff" stroke="transparent" points="8,-128 8,-590 267,-590 267,-128 8,-128"/>
<polygon fill="#f5f5f5" stroke="transparent" points="10.5,-566 10.5,-588 265.5,-588 265.5,-566 10.5,-566"/>
<polygon fill="none" stroke="black" points="10.5,-566 10.5,-588 265.5,-588 265.5,-566 10.5,-566"/>
<text text-anchor="start" x="15.5" y="-575.2" font-family="Helvetica,sans-Serif" font-weight="bold" font-size="11.00">m_discountschema</text>
<text text-anchor="start" x="230.5" y="-574.2" font-family="Helvetica,sans-Serif" font-size="11.00">[table]</text>
<polygon fill="none" stroke="black" points="10.5,-544 10.5,-566 182.5,-566 182.5,-544 10.5,-544"/>
<image xlink:href="../../images/primaryKeys.png" width="11px" height="12px" preserveAspectRatio="xMinYMin meet" x="15.5" y="-561"/>
<text text-anchor="start" x="30.5" y="-552.2" font-family="Helvetica,sans-Serif" font-size="11.00">m_discountschema_id</text>
<polygon fill="none" stroke="black" points="182.5,-544 182.5,-566 265.5,-566 265.5,-544 182.5,-544"/>
<text text-anchor="start" x="185.5" y="-552.2" font-family="Helvetica,sans-Serif" font-size="11.00">numeric[10]</text>
<polygon fill="none" stroke="black" points="10.5,-522 10.5,-544 182.5,-544 182.5,-522 10.5,-522"/>
<text text-anchor="start" x="30.5" y="-530.2" font-family="Helvetica,sans-Serif" font-size="11.00">ad_client_id</text>
<polygon fill="none" stroke="black" points="182.5,-522 182.5,-544 265.5,-544 265.5,-522 182.5,-522"/>
<text text-anchor="start" x="185.5" y="-530.2" font-family="Helvetica,sans-Serif" font-size="11.00">numeric[10]</text>
<polygon fill="none" stroke="black" points="10.5,-500 10.5,-522 182.5,-522 182.5,-500 10.5,-500"/>
<text text-anchor="start" x="30.5" y="-508.2" font-family="Helvetica,sans-Serif" font-size="11.00">ad_org_id</text>
<polygon fill="none" stroke="black" points="182.5,-500 182.5,-522 265.5,-522 265.5,-500 182.5,-500"/>
<text text-anchor="start" x="185.5" y="-508.2" font-family="Helvetica,sans-Serif" font-size="11.00">numeric[10]</text>
<polygon fill="none" stroke="black" points="10.5,-478 10.5,-500 182.5,-500 182.5,-478 10.5,-478"/>
<text text-anchor="start" x="30.5" y="-486.2" font-family="Helvetica,sans-Serif" font-size="11.00">isactive</text>
<polygon fill="none" stroke="black" points="182.5,-478 182.5,-500 265.5,-500 265.5,-478 182.5,-478"/>
<text text-anchor="start" x="185.5" y="-486.2" font-family="Helvetica,sans-Serif" font-size="11.00">bpchar[1]</text>
<polygon fill="none" stroke="black" points="10.5,-456 10.5,-478 182.5,-478 182.5,-456 10.5,-456"/>
<text text-anchor="start" x="30.5" y="-464.2" font-family="Helvetica,sans-Serif" font-size="11.00">created</text>
<polygon fill="none" stroke="black" points="182.5,-456 182.5,-478 265.5,-478 265.5,-456 182.5,-456"/>
<text text-anchor="start" x="185.5" y="-464.2" font-family="Helvetica,sans-Serif" font-size="11.00">timestamp[29,6]</text>
<polygon fill="none" stroke="black" points="10.5,-434 10.5,-456 182.5,-456 182.5,-434 10.5,-434"/>
<text text-anchor="start" x="30.5" y="-442.2" font-family="Helvetica,sans-Serif" font-size="11.00">createdby</text>
<polygon fill="none" stroke="black" points="182.5,-434 182.5,-456 265.5,-456 265.5,-434 182.5,-434"/>
<text text-anchor="start" x="185.5" y="-442.2" font-family="Helvetica,sans-Serif" font-size="11.00">numeric[10]</text>
<polygon fill="none" stroke="black" points="10.5,-412 10.5,-434 182.5,-434 182.5,-412 10.5,-412"/>
<text text-anchor="start" x="30.5" y="-420.2" font-family="Helvetica,sans-Serif" font-size="11.00">updated</text>
<polygon fill="none" stroke="black" points="182.5,-412 182.5,-434 265.5,-434 265.5,-412 182.5,-412"/>
<text text-anchor="start" x="185.5" y="-420.2" font-family="Helvetica,sans-Serif" font-size="11.00">timestamp[29,6]</text>
<polygon fill="none" stroke="black" points="10.5,-390 10.5,-412 182.5,-412 182.5,-390 10.5,-390"/>
<text text-anchor="start" x="30.5" y="-398.2" font-family="Helvetica,sans-Serif" font-size="11.00">updatedby</text>
<polygon fill="none" stroke="black" points="182.5,-390 182.5,-412 265.5,-412 265.5,-390 182.5,-390"/>
<text text-anchor="start" x="185.5" y="-398.2" font-family="Helvetica,sans-Serif" font-size="11.00">numeric[10]</text>
<polygon fill="none" stroke="black" points="10.5,-368 10.5,-390 182.5,-390 182.5,-368 10.5,-368"/>
<text text-anchor="start" x="30.5" y="-376.2" font-family="Helvetica,sans-Serif" font-size="11.00">name</text>
<polygon fill="none" stroke="black" points="182.5,-368 182.5,-390 265.5,-390 265.5,-368 182.5,-368"/>
<text text-anchor="start" x="185.5" y="-376.2" font-family="Helvetica,sans-Serif" font-size="11.00">varchar[60]</text>
<polygon fill="none" stroke="black" points="10.5,-346 10.5,-368 182.5,-368 182.5,-346 10.5,-346"/>
<text text-anchor="start" x="30.5" y="-354.2" font-family="Helvetica,sans-Serif" font-size="11.00">description</text>
<polygon fill="none" stroke="black" points="182.5,-346 182.5,-368 265.5,-368 265.5,-346 182.5,-346"/>
<text text-anchor="start" x="185.5" y="-354.2" font-family="Helvetica,sans-Serif" font-size="11.00">varchar[255]</text>
<polygon fill="none" stroke="black" points="10.5,-324 10.5,-346 182.5,-346 182.5,-324 10.5,-324"/>
<text text-anchor="start" x="30.5" y="-332.2" font-family="Helvetica,sans-Serif" font-size="11.00">validfrom</text>
<polygon fill="none" stroke="black" points="182.5,-324 182.5,-346 265.5,-346 265.5,-324 182.5,-324"/>
<text text-anchor="start" x="185.5" y="-332.2" font-family="Helvetica,sans-Serif" font-size="11.00">timestamp[29,6]</text>
<polygon fill="none" stroke="black" points="10.5,-302 10.5,-324 182.5,-324 182.5,-302 10.5,-302"/>
<text text-anchor="start" x="30.5" y="-310.2" font-family="Helvetica,sans-Serif" font-size="11.00">discounttype</text>
<polygon fill="none" stroke="black" points="182.5,-302 182.5,-324 265.5,-324 265.5,-302 182.5,-302"/>
<text text-anchor="start" x="185.5" y="-310.2" font-family="Helvetica,sans-Serif" font-size="11.00">bpchar[1]</text>
<polygon fill="none" stroke="black" points="10.5,-280 10.5,-302 182.5,-302 182.5,-280 10.5,-280"/>
<text text-anchor="start" x="30.5" y="-288.2" font-family="Helvetica,sans-Serif" font-size="11.00">script</text>
<polygon fill="none" stroke="black" points="182.5,-280 182.5,-302 265.5,-302 265.5,-280 182.5,-280"/>
<text text-anchor="start" x="185.5" y="-288.2" font-family="Helvetica,sans-Serif" font-size="11.00">varchar[2000]</text>
<polygon fill="none" stroke="black" points="10.5,-258 10.5,-280 182.5,-280 182.5,-258 10.5,-258"/>
<text text-anchor="start" x="30.5" y="-266.2" font-family="Helvetica,sans-Serif" font-size="11.00">flatdiscount</text>
<polygon fill="none" stroke="black" points="182.5,-258 182.5,-280 265.5,-280 265.5,-258 182.5,-258"/>
<text text-anchor="start" x="185.5" y="-266.2" font-family="Helvetica,sans-Serif" font-size="11.00">numeric[0]</text>
<polygon fill="none" stroke="black" points="10.5,-236 10.5,-258 182.5,-258 182.5,-236 10.5,-236"/>
<text text-anchor="start" x="30.5" y="-244.2" font-family="Helvetica,sans-Serif" font-size="11.00">isquantitybased</text>
<polygon fill="none" stroke="black" points="182.5,-236 182.5,-258 265.5,-258 265.5,-236 182.5,-236"/>
<text text-anchor="start" x="185.5" y="-244.2" font-family="Helvetica,sans-Serif" font-size="11.00">bpchar[1]</text>
<polygon fill="none" stroke="black" points="10.5,-214 10.5,-236 182.5,-236 182.5,-214 10.5,-214"/>
<text text-anchor="start" x="30.5" y="-222.2" font-family="Helvetica,sans-Serif" font-size="11.00">cumulativelevel</text>
<polygon fill="none" stroke="black" points="182.5,-214 182.5,-236 265.5,-236 265.5,-214 182.5,-214"/>
<text text-anchor="start" x="185.5" y="-222.2" font-family="Helvetica,sans-Serif" font-size="11.00">bpchar[1]</text>
<polygon fill="none" stroke="black" points="10.5,-192 10.5,-214 182.5,-214 182.5,-192 10.5,-192"/>
<text text-anchor="start" x="30.5" y="-200.2" font-family="Helvetica,sans-Serif" font-size="11.00">processing</text>
<polygon fill="none" stroke="black" points="182.5,-192 182.5,-214 265.5,-214 265.5,-192 182.5,-192"/>
<text text-anchor="start" x="185.5" y="-200.2" font-family="Helvetica,sans-Serif" font-size="11.00">bpchar[1]</text>
<polygon fill="none" stroke="black" points="10.5,-170 10.5,-192 182.5,-192 182.5,-170 10.5,-170"/>
<text text-anchor="start" x="30.5" y="-178.2" font-family="Helvetica,sans-Serif" font-size="11.00">isbpartnerflatdiscount</text>
<polygon fill="none" stroke="black" points="182.5,-170 182.5,-192 265.5,-192 265.5,-170 182.5,-170"/>
<text text-anchor="start" x="185.5" y="-178.2" font-family="Helvetica,sans-Serif" font-size="11.00">bpchar[1]</text>
<polygon fill="#ffffff" stroke="transparent" points="10.5,-148 10.5,-170 182.5,-170 182.5,-148 10.5,-148"/>
<polygon fill="none" stroke="black" points="10.5,-148 10.5,-170 182.5,-170 182.5,-148 10.5,-148"/>
<text text-anchor="start" x="30.5" y="-156.2" font-family="Helvetica,sans-Serif" font-size="11.00">m_discountschema_uu</text>
<polygon fill="none" stroke="black" points="182.5,-148 182.5,-170 265.5,-170 265.5,-148 182.5,-148"/>
<text text-anchor="start" x="185.5" y="-156.2" font-family="Helvetica,sans-Serif" font-size="11.00">varchar[36]</text>
<polygon fill="#ffffff" stroke="transparent" points="10.5,-130 10.5,-148 87.5,-148 87.5,-130 10.5,-130"/>
<polygon fill="none" stroke="black" points="10.5,-130 10.5,-148 87.5,-148 87.5,-130 10.5,-130"/>
<text text-anchor="start" x="13.5" y="-136.2" font-family="Helvetica,sans-Serif" font-size="11.00">&lt; 0</text>
<polygon fill="#ffffff" stroke="transparent" points="87.5,-130 87.5,-148 182.5,-148 182.5,-130 87.5,-130"/>
<polygon fill="none" stroke="black" points="87.5,-130 87.5,-148 182.5,-148 182.5,-130 87.5,-130"/>
<text text-anchor="start" x="146.5" y="-136.2" font-family="Helvetica,sans-Serif" font-size="11.00">2 rows</text>
<polygon fill="#ffffff" stroke="transparent" points="182.5,-130 182.5,-148 265.5,-148 265.5,-130 182.5,-130"/>
<polygon fill="none" stroke="black" points="182.5,-130 182.5,-148 265.5,-148 265.5,-130 182.5,-130"/>
<text text-anchor="start" x="246.5" y="-136.2" font-family="Helvetica,sans-Serif" font-size="11.00">7 &gt;</text>
<polygon fill="none" stroke="black" stroke-width="2" points="9,-129 9,-589 266,-589 266,-129 9,-129"/>
</a>
</g>
</g>
<!-- c_bp_group&#45;&gt;m_discountschema -->
<g id="edge1" class="edge">
<title>c_bp_group:w&#45;&gt;m_discountschema:e</title>
<path fill="none" stroke="black" d="M319.62,-689.26C276.63,-669.95 328.68,-555 266.5,-555"/>
<polygon fill="black" stroke="black" points="326.14,-690.5 333.33,-695.54 330.07,-691.25 334,-692 334,-692 334,-692 330.07,-691.25 334.67,-688.46 326.14,-690.5 326.14,-690.5"/>
<ellipse fill="none" stroke="black" cx="323" cy="-689.91" rx="3.2" ry="3.2"/>
</g>
<!-- c_bp_group&#45;&gt;m_discountschema -->
<g id="edge2" class="edge">
<title>c_bp_group:w&#45;&gt;m_discountschema:e</title>
<path fill="none" stroke="black" d="M319.59,-666.92C283.65,-648.64 319.98,-555 266.5,-555"/>
<polygon fill="black" stroke="black" points="326.18,-668.33 333.25,-673.52 330.09,-669.17 334,-670 334,-670 334,-670 330.09,-669.17 334.75,-666.48 326.18,-668.33 326.18,-668.33"/>
<ellipse fill="none" stroke="black" cx="323.05" cy="-667.66" rx="3.2" ry="3.2"/>
</g>
<!-- c_bpartner -->
<g id="node3" class="node">
<title>c_bpartner</title>
<g id="a_node3"><a xlink:href="../../tables/c_bpartner.html" xlink:title="c_bpartner" target="_top">
<polygon fill="#ffffff" stroke="transparent" points="575,-112 575,-852 811,-852 811,-112 575,-112"/>
<polygon fill="#f5f5f5" stroke="transparent" points="575,-830 575,-852 811,-852 811,-830 575,-830"/>
<polygon fill="none" stroke="black" points="575,-830 575,-852 811,-852 811,-830 575,-830"/>
<text text-anchor="start" x="580" y="-839.2" font-family="Helvetica,sans-Serif" font-weight="bold" font-size="11.00">c_bpartner</text>
<text text-anchor="start" x="776" y="-838.2" font-family="Helvetica,sans-Serif" font-size="11.00">[table]</text>
<polygon fill="none" stroke="black" points="575,-808 575,-830 811,-830 811,-808 575,-808"/>
<image xlink:href="../../images/primaryKeys.png" width="11px" height="12px" preserveAspectRatio="xMinYMin meet" x="580" y="-825"/>
<text text-anchor="start" x="595" y="-816.2" font-family="Helvetica,sans-Serif" font-size="11.00">c_bpartner_id</text>
<polygon fill="#ffffff" stroke="transparent" points="575,-786 575,-808 811,-808 811,-786 575,-786"/>
<polygon fill="none" stroke="black" points="575,-786 575,-808 811,-808 811,-786 575,-786"/>
<image xlink:href="../../images/foreignKeys.png" width="11px" height="12px" preserveAspectRatio="xMinYMin meet" x="580" y="-803"/>
<text text-anchor="start" x="595" y="-794.2" font-family="Helvetica,sans-Serif" font-size="11.00">ad_client_id</text>
<polygon fill="none" stroke="black" points="575,-764 575,-786 811,-786 811,-764 575,-764"/>
<image xlink:href="../../images/foreignKeys.png" width="11px" height="12px" preserveAspectRatio="xMinYMin meet" x="580" y="-781"/>
<text text-anchor="start" x="595" y="-772.2" font-family="Helvetica,sans-Serif" font-size="11.00">ad_org_id</text>
<polygon fill="#ffffff" stroke="transparent" points="575,-742 575,-764 811,-764 811,-742 575,-742"/>
<polygon fill="none" stroke="black" points="575,-742 575,-764 811,-764 811,-742 575,-742"/>
<text text-anchor="start" x="595" y="-750.2" font-family="Helvetica,sans-Serif" font-size="11.00">value</text>
<polygon fill="#ffffff" stroke="transparent" points="575,-720 575,-742 811,-742 811,-720 575,-720"/>
<polygon fill="none" stroke="black" points="575,-720 575,-742 811,-742 811,-720 575,-720"/>
<text text-anchor="start" x="595" y="-728.2" font-family="Helvetica,sans-Serif" font-size="11.00">name</text>
<polygon fill="none" stroke="black" points="575,-698 575,-720 811,-720 811,-698 575,-698"/>
<image xlink:href="../../images/foreignKeys.png" width="11px" height="12px" preserveAspectRatio="xMinYMin meet" x="580" y="-715"/>
<text text-anchor="start" x="595" y="-706.2" font-family="Helvetica,sans-Serif" font-size="11.00">c_bp_group_id</text>
<polygon fill="none" stroke="black" points="575,-676 575,-698 811,-698 811,-676 575,-676"/>
<image xlink:href="../../images/foreignKeys.png" width="11px" height="12px" preserveAspectRatio="xMinYMin meet" x="580" y="-693"/>
<text text-anchor="start" x="595" y="-684.2" font-family="Helvetica,sans-Serif" font-size="11.00">ad_language</text>
<polygon fill="none" stroke="black" points="575,-654 575,-676 811,-676 811,-654 575,-654"/>
<image xlink:href="../../images/foreignKeys.png" width="11px" height="12px" preserveAspectRatio="xMinYMin meet" x="580" y="-671"/>
<text text-anchor="start" x="595" y="-662.2" font-family="Helvetica,sans-Serif" font-size="11.00">c_invoiceschedule_id</text>
<polygon fill="none" stroke="black" points="575,-632 575,-654 811,-654 811,-632 575,-632"/>
<image xlink:href="../../images/foreignKeys.png" width="11px" height="12px" preserveAspectRatio="xMinYMin meet" x="580" y="-649"/>
<text text-anchor="start" x="595" y="-640.2" font-family="Helvetica,sans-Serif" font-size="11.00">c_paymentterm_id</text>
<polygon fill="none" stroke="black" points="575,-610 575,-632 811,-632 811,-610 575,-610"/>
<image xlink:href="../../images/foreignKeys.png" width="11px" height="12px" preserveAspectRatio="xMinYMin meet" x="580" y="-627"/>
<text text-anchor="start" x="595" y="-618.2" font-family="Helvetica,sans-Serif" font-size="11.00">m_pricelist_id</text>
<polygon fill="none" stroke="black" points="575,-588 575,-610 811,-610 811,-588 575,-588"/>
<image xlink:href="../../images/foreignKeys.png" width="11px" height="12px" preserveAspectRatio="xMinYMin meet" x="580" y="-605"/>
<text text-anchor="start" x="595" y="-596.2" font-family="Helvetica,sans-Serif" font-size="11.00">m_discountschema_id</text>
<polygon fill="none" stroke="black" points="575,-566 575,-588 811,-588 811,-566 575,-566"/>
<image xlink:href="../../images/foreignKeys.png" width="11px" height="12px" preserveAspectRatio="xMinYMin meet" x="580" y="-583"/>
<text text-anchor="start" x="595" y="-574.2" font-family="Helvetica,sans-Serif" font-size="11.00">c_dunning_id</text>
<polygon fill="none" stroke="black" points="575,-544 575,-566 811,-566 811,-544 575,-544"/>
<image xlink:href="../../images/foreignKeys.png" width="11px" height="12px" preserveAspectRatio="xMinYMin meet" x="580" y="-561"/>
<text text-anchor="start" x="595" y="-552.2" font-family="Helvetica,sans-Serif" font-size="11.00">po_pricelist_id</text>
<polygon fill="none" stroke="black" points="575,-522 575,-544 811,-544 811,-522 575,-522"/>
<image xlink:href="../../images/foreignKeys.png" width="11px" height="12px" preserveAspectRatio="xMinYMin meet" x="580" y="-539"/>
<text text-anchor="start" x="595" y="-530.2" font-family="Helvetica,sans-Serif" font-size="11.00">po_discountschema_id</text>
<polygon fill="none" stroke="black" points="575,-500 575,-522 811,-522 811,-500 575,-500"/>
<image xlink:href="../../images/foreignKeys.png" width="11px" height="12px" preserveAspectRatio="xMinYMin meet" x="580" y="-517"/>
<text text-anchor="start" x="595" y="-508.2" font-family="Helvetica,sans-Serif" font-size="11.00">po_paymentterm_id</text>
<polygon fill="none" stroke="black" points="575,-478 575,-500 811,-500 811,-478 575,-478"/>
<image xlink:href="../../images/foreignKeys.png" width="11px" height="12px" preserveAspectRatio="xMinYMin meet" x="580" y="-495"/>
<text text-anchor="start" x="595" y="-486.2" font-family="Helvetica,sans-Serif" font-size="11.00">c_greeting_id</text>
<polygon fill="none" stroke="black" points="575,-456 575,-478 811,-478 811,-456 575,-456"/>
<image xlink:href="../../images/foreignKeys.png" width="11px" height="12px" preserveAspectRatio="xMinYMin meet" x="580" y="-473"/>
<text text-anchor="start" x="595" y="-464.2" font-family="Helvetica,sans-Serif" font-size="11.00">salesrep_id</text>
<polygon fill="none" stroke="black" points="575,-434 575,-456 811,-456 811,-434 575,-434"/>
<image xlink:href="../../images/foreignKeys.png" width="11px" height="12px" preserveAspectRatio="xMinYMin meet" x="580" y="-451"/>
<text text-anchor="start" x="595" y="-442.2" font-family="Helvetica,sans-Serif" font-size="11.00">bpartner_parent_id</text>
<polygon fill="none" stroke="black" points="575,-412 575,-434 811,-434 811,-412 575,-412"/>
<image xlink:href="../../images/foreignKeys.png" width="11px" height="12px" preserveAspectRatio="xMinYMin meet" x="580" y="-429"/>
<text text-anchor="start" x="595" y="-420.2" font-family="Helvetica,sans-Serif" font-size="11.00">invoice_printformat_id</text>
<polygon fill="#ffffff" stroke="transparent" points="575,-390 575,-412 811,-412 811,-390 575,-390"/>
<polygon fill="none" stroke="black" points="575,-390 575,-412 811,-412 811,-390 575,-390"/>
<image xlink:href="../../images/foreignKeys.png" width="11px" height="12px" preserveAspectRatio="xMinYMin meet" x="580" y="-407"/>
<text text-anchor="start" x="595" y="-398.2" font-family="Helvetica,sans-Serif" font-size="11.00">ad_orgbp_id</text>
<polygon fill="none" stroke="black" points="575,-368 575,-390 811,-390 811,-368 575,-368"/>
<image xlink:href="../../images/foreignKeys.png" width="11px" height="12px" preserveAspectRatio="xMinYMin meet" x="580" y="-385"/>
<text text-anchor="start" x="595" y="-376.2" font-family="Helvetica,sans-Serif" font-size="11.00">c_taxgroup_id</text>
<polygon fill="none" stroke="black" points="575,-346 575,-368 811,-368 811,-346 575,-346"/>
<image xlink:href="../../images/foreignKeys.png" width="11px" height="12px" preserveAspectRatio="xMinYMin meet" x="580" y="-363"/>
<text text-anchor="start" x="595" y="-354.2" font-family="Helvetica,sans-Serif" font-size="11.00">logo_id</text>
<polygon fill="#ffffff" stroke="transparent" points="575,-324 575,-346 811,-346 811,-324 575,-324"/>
<polygon fill="none" stroke="black" points="575,-324 575,-346 811,-346 811,-324 575,-324"/>
<text text-anchor="start" x="595" y="-332.2" font-family="Helvetica,sans-Serif" font-size="11.00">c_bpartner_uu</text>
<polygon fill="none" stroke="black" points="575,-302 575,-324 811,-324 811,-302 575,-302"/>
<image xlink:href="../../images/foreignKeys.png" width="11px" height="12px" preserveAspectRatio="xMinYMin meet" x="580" y="-319"/>
<text text-anchor="start" x="595" y="-310.2" font-family="Helvetica,sans-Serif" font-size="11.00">default1099box_id</text>
<polygon fill="none" stroke="black" points="575,-280 575,-302 811,-302 811,-280 575,-280"/>
<image xlink:href="../../images/foreignKeys.png" width="11px" height="12px" preserveAspectRatio="xMinYMin meet" x="580" y="-297"/>
<text text-anchor="start" x="595" y="-288.2" font-family="Helvetica,sans-Serif" font-size="11.00">cof_c_custody_id</text>
<polygon fill="none" stroke="black" points="575,-258 575,-280 811,-280 811,-258 575,-258"/>
<image xlink:href="../../images/foreignKeys.png" width="11px" height="12px" preserveAspectRatio="xMinYMin meet" x="580" y="-275"/>
<text text-anchor="start" x="595" y="-266.2" font-family="Helvetica,sans-Serif" font-size="11.00">cof_doctypepurchase_id</text>
<polygon fill="none" stroke="black" points="575,-236 575,-258 811,-258 811,-236 575,-236"/>
<image xlink:href="../../images/foreignKeys.png" width="11px" height="12px" preserveAspectRatio="xMinYMin meet" x="580" y="-253"/>
<text text-anchor="start" x="595" y="-244.2" font-family="Helvetica,sans-Serif" font-size="11.00">cof_doctypesale_id</text>
<polygon fill="none" stroke="black" points="575,-214 575,-236 811,-236 811,-214 575,-214"/>
<image xlink:href="../../images/foreignKeys.png" width="11px" height="12px" preserveAspectRatio="xMinYMin meet" x="580" y="-231"/>
<text text-anchor="start" x="595" y="-222.2" font-family="Helvetica,sans-Serif" font-size="11.00">cof_grupofornecedor_id</text>
<polygon fill="none" stroke="black" points="575,-192 575,-214 811,-214 811,-192 575,-192"/>
<image xlink:href="../../images/foreignKeys.png" width="11px" height="12px" preserveAspectRatio="xMinYMin meet" x="580" y="-209"/>
<text text-anchor="start" x="595" y="-200.2" font-family="Helvetica,sans-Serif" font-size="11.00">cof_vendedorinterno_id</text>
<polygon fill="none" stroke="black" points="575,-170 575,-192 811,-192 811,-170 575,-170"/>
<image xlink:href="../../images/foreignKeys.png" width="11px" height="12px" preserveAspectRatio="xMinYMin meet" x="580" y="-187"/>
<text text-anchor="start" x="595" y="-178.2" font-family="Helvetica,sans-Serif" font-size="11.00">cof_tipoparceiro_id</text>
<polygon fill="none" stroke="black" points="575,-148 575,-170 811,-170 811,-148 575,-148"/>
<image xlink:href="../../images/foreignKeys.png" width="11px" height="12px" preserveAspectRatio="xMinYMin meet" x="580" y="-165"/>
<text text-anchor="start" x="595" y="-156.2" font-family="Helvetica,sans-Serif" font-size="11.00">cof_classeparceiro_id</text>
<polygon fill="none" stroke="black" points="575,-130 575,-148 811,-148 811,-130 575,-130"/>
<text text-anchor="start" x="578" y="-136.2" font-family="Helvetica,sans-Serif" font-size="11.00">...</text>
<polygon fill="#ffffff" stroke="transparent" points="575,-112 575,-130 670,-130 670,-112 575,-112"/>
<polygon fill="none" stroke="black" points="575,-112 575,-130 670,-130 670,-112 575,-112"/>
<text text-anchor="start" x="578" y="-118.2" font-family="Helvetica,sans-Serif" font-size="11.00">&lt; 27</text>
<polygon fill="#ffffff" stroke="transparent" points="670,-112 670,-130 743,-130 743,-112 670,-112"/>
<polygon fill="none" stroke="black" points="670,-112 670,-130 743,-130 743,-112 670,-112"/>
<text text-anchor="start" x="707" y="-118.2" font-family="Helvetica,sans-Serif" font-size="11.00">4 rows</text>
<polygon fill="#ffffff" stroke="transparent" points="743,-112 743,-130 811,-130 811,-112 743,-112"/>
<polygon fill="none" stroke="black" points="743,-112 743,-130 811,-130 811,-112 743,-112"/>
<text text-anchor="start" x="780" y="-118.2" font-family="Helvetica,sans-Serif" font-size="11.00">164 &gt;</text>
</a>
</g>
</g>
<!-- c_bpartner&#45;&gt;c_bp_group -->
<g id="edge3" class="edge">
<title>c_bpartner:w&#45;&gt;c_bp_group:e</title>
<path fill="none" stroke="black" d="M559.7,-712.08C524.14,-730.36 561.18,-824 508,-824"/>
<polygon fill="black" stroke="black" points="566.18,-710.68 574.76,-712.52 570.09,-709.84 574,-709 574,-709 574,-709 570.09,-709.84 573.24,-705.48 566.18,-710.68 566.18,-710.68"/>
<ellipse fill="none" stroke="black" cx="563.05" cy="-711.36" rx="3.2" ry="3.2"/>
</g>
<!-- c_bpartner&#45;&gt;m_discountschema -->
<g id="edge4" class="edge">
<title>c_bpartner:w&#45;&gt;m_discountschema:e</title>
<path fill="none" stroke="black" d="M560.08,-594.35C551.57,-587.17 549.16,-573.6 534,-568 422.35,-526.75 385.53,-555 266.5,-555"/>
<polygon fill="black" stroke="black" points="566.41,-596.47 572.86,-602.41 570.21,-597.73 574,-599 574,-599 574,-599 570.21,-597.73 575.14,-595.59 566.41,-596.47 566.41,-596.47"/>
<ellipse fill="none" stroke="black" cx="563.38" cy="-595.45" rx="3.2" ry="3.2"/>
</g>
<!-- c_bpartner&#45;&gt;m_discountschema -->
<g id="edge5" class="edge">
<title>c_bpartner:w&#45;&gt;m_discountschema:e</title>
<path fill="none" stroke="black" d="M559.55,-532.96C452.95,-532.31 419.9,-525 308,-543 289.04,-546.05 285.7,-555 266.5,-555"/>
<polygon fill="black" stroke="black" points="566,-532.98 573.99,-536.6 570,-532.99 574,-533 574,-533 574,-533 570,-532.99 574.01,-529.4 566,-532.98 566,-532.98"/>
<ellipse fill="none" stroke="black" cx="562.8" cy="-532.97" rx="3.2" ry="3.2"/>
</g>
<!-- m_discountschemabreak -->
<g id="node4" class="node">
<title>m_discountschemabreak</title>
<g id="a_node4"><a xlink:href="../../tables/m_discountschemabreak.html" xlink:title="m_discountschemabreak" target="_top">
<polygon fill="#ffffff" stroke="transparent" points="316,-248 316,-504 526,-504 526,-248 316,-248"/>
<polygon fill="#f5f5f5" stroke="transparent" points="316,-482 316,-504 526,-504 526,-482 316,-482"/>
<polygon fill="none" stroke="black" points="316,-482 316,-504 526,-504 526,-482 316,-482"/>
<text text-anchor="start" x="321" y="-491.2" font-family="Helvetica,sans-Serif" font-weight="bold" font-size="11.00">m_discountschemabreak</text>
<text text-anchor="start" x="491" y="-490.2" font-family="Helvetica,sans-Serif" font-size="11.00">[table]</text>
<polygon fill="none" stroke="black" points="316,-460 316,-482 526,-482 526,-460 316,-460"/>
<image xlink:href="../../images/primaryKeys.png" width="11px" height="12px" preserveAspectRatio="xMinYMin meet" x="321" y="-477"/>
<text text-anchor="start" x="336" y="-468.2" font-family="Helvetica,sans-Serif" font-size="11.00">m_discountschemabreak_id</text>
<polygon fill="none" stroke="black" points="316,-438 316,-460 526,-460 526,-438 316,-438"/>
<image xlink:href="../../images/foreignKeys.png" width="11px" height="12px" preserveAspectRatio="xMinYMin meet" x="321" y="-455"/>
<text text-anchor="start" x="336" y="-446.2" font-family="Helvetica,sans-Serif" font-size="11.00">m_discountschema_id</text>
<polygon fill="none" stroke="black" points="316,-416 316,-438 526,-438 526,-416 316,-416"/>
<image xlink:href="../../images/foreignKeys.png" width="11px" height="12px" preserveAspectRatio="xMinYMin meet" x="321" y="-433"/>
<text text-anchor="start" x="336" y="-424.2" font-family="Helvetica,sans-Serif" font-size="11.00">m_product_category_id</text>
<polygon fill="none" stroke="black" points="316,-394 316,-416 526,-416 526,-394 316,-394"/>
<image xlink:href="../../images/foreignKeys.png" width="11px" height="12px" preserveAspectRatio="xMinYMin meet" x="321" y="-411"/>
<text text-anchor="start" x="336" y="-402.2" font-family="Helvetica,sans-Serif" font-size="11.00">m_product_id</text>
<polygon fill="#ffffff" stroke="transparent" points="316,-372 316,-394 526,-394 526,-372 316,-372"/>
<polygon fill="none" stroke="black" points="316,-372 316,-394 526,-394 526,-372 316,-372"/>
<text text-anchor="start" x="336" y="-380.2" font-family="Helvetica,sans-Serif" font-size="11.00">m_discountschemabreak_uu</text>
<polygon fill="none" stroke="black" points="316,-350 316,-372 526,-372 526,-350 316,-350"/>
<image xlink:href="../../images/foreignKeys.png" width="11px" height="12px" preserveAspectRatio="xMinYMin meet" x="321" y="-367"/>
<text text-anchor="start" x="336" y="-358.2" font-family="Helvetica,sans-Serif" font-size="11.00">cof_producttype_id</text>
<polygon fill="none" stroke="black" points="316,-328 316,-350 526,-350 526,-328 316,-328"/>
<image xlink:href="../../images/foreignKeys.png" width="11px" height="12px" preserveAspectRatio="xMinYMin meet" x="321" y="-345"/>
<text text-anchor="start" x="336" y="-336.2" font-family="Helvetica,sans-Serif" font-size="11.00">cof_productgroup_id</text>
<polygon fill="none" stroke="black" points="316,-306 316,-328 526,-328 526,-306 316,-306"/>
<image xlink:href="../../images/foreignKeys.png" width="11px" height="12px" preserveAspectRatio="xMinYMin meet" x="321" y="-323"/>
<text text-anchor="start" x="336" y="-314.2" font-family="Helvetica,sans-Serif" font-size="11.00">cof_productclass_id</text>
<polygon fill="none" stroke="black" points="316,-284 316,-306 526,-306 526,-284 316,-284"/>
<image xlink:href="../../images/foreignKeys.png" width="11px" height="12px" preserveAspectRatio="xMinYMin meet" x="321" y="-301"/>
<text text-anchor="start" x="336" y="-292.2" font-family="Helvetica,sans-Serif" font-size="11.00">cof_grupofornecedor_id</text>
<polygon fill="none" stroke="black" points="316,-266 316,-284 526,-284 526,-266 316,-266"/>
<text text-anchor="start" x="319" y="-272.2" font-family="Helvetica,sans-Serif" font-size="11.00">...</text>
<polygon fill="#ffffff" stroke="transparent" points="316,-248 316,-266 406,-266 406,-248 316,-248"/>
<polygon fill="none" stroke="black" points="316,-248 316,-266 406,-266 406,-248 316,-248"/>
<text text-anchor="start" x="319" y="-254.2" font-family="Helvetica,sans-Serif" font-size="11.00">&lt; 7</text>
<polygon fill="#ffffff" stroke="transparent" points="406,-248 406,-266 479,-266 479,-248 406,-248"/>
<polygon fill="none" stroke="black" points="406,-248 406,-266 479,-266 479,-248 406,-248"/>
<text text-anchor="start" x="443" y="-254.2" font-family="Helvetica,sans-Serif" font-size="11.00">0 rows</text>
<polygon fill="#ffffff" stroke="transparent" points="479,-248 479,-266 526,-266 526,-248 479,-248"/>
<polygon fill="none" stroke="black" points="479,-248 479,-266 526,-266 526,-248 479,-248"/>
<text text-anchor="start" x="516" y="-254.2" font-family="Helvetica,sans-Serif" font-size="11.00"> &#160;</text>
</a>
</g>
</g>
<!-- m_discountschemabreak&#45;&gt;m_discountschema -->
<g id="edge6" class="edge">
<title>m_discountschemabreak:w&#45;&gt;m_discountschema:e</title>
<path fill="none" stroke="black" d="M300.85,-453.03C274.64,-472.39 312.24,-555 266.5,-555"/>
<polygon fill="black" stroke="black" points="307.31,-451.19 315.98,-452.46 311.15,-450.09 315,-449 315,-449 315,-449 311.15,-450.09 314.02,-445.54 307.31,-451.19 307.31,-451.19"/>
<ellipse fill="none" stroke="black" cx="304.23" cy="-452.06" rx="3.2" ry="3.2"/>
</g>
<!-- m_discountschemaline -->
<g id="node5" class="node">
<title>m_discountschemaline</title>
<g id="a_node5"><a xlink:href="../../tables/m_discountschemaline.html" xlink:title="m_discountschemaline" target="_top">
<polygon fill="#ffffff" stroke="transparent" points="860,-624 860,-924 1057,-924 1057,-624 860,-624"/>
<polygon fill="#f5f5f5" stroke="transparent" points="860.5,-902 860.5,-924 1057.5,-924 1057.5,-902 860.5,-902"/>
<polygon fill="none" stroke="black" points="860.5,-902 860.5,-924 1057.5,-924 1057.5,-902 860.5,-902"/>
<text text-anchor="start" x="865.5" y="-911.2" font-family="Helvetica,sans-Serif" font-weight="bold" font-size="11.00">m_discountschemaline</text>
<text text-anchor="start" x="1022.5" y="-910.2" font-family="Helvetica,sans-Serif" font-size="11.00">[table]</text>
<polygon fill="none" stroke="black" points="860.5,-880 860.5,-902 1057.5,-902 1057.5,-880 860.5,-880"/>
<image xlink:href="../../images/primaryKeys.png" width="11px" height="12px" preserveAspectRatio="xMinYMin meet" x="865.5" y="-897"/>
<text text-anchor="start" x="880.5" y="-888.2" font-family="Helvetica,sans-Serif" font-size="11.00">m_discountschemaline_id</text>
<polygon fill="none" stroke="black" points="860.5,-858 860.5,-880 1057.5,-880 1057.5,-858 860.5,-858"/>
<image xlink:href="../../images/foreignKeys.png" width="11px" height="12px" preserveAspectRatio="xMinYMin meet" x="865.5" y="-875"/>
<text text-anchor="start" x="880.5" y="-866.2" font-family="Helvetica,sans-Serif" font-size="11.00">m_discountschema_id</text>
<polygon fill="none" stroke="black" points="860.5,-836 860.5,-858 1057.5,-858 1057.5,-836 860.5,-836"/>
<image xlink:href="../../images/foreignKeys.png" width="11px" height="12px" preserveAspectRatio="xMinYMin meet" x="865.5" y="-853"/>
<text text-anchor="start" x="880.5" y="-844.2" font-family="Helvetica,sans-Serif" font-size="11.00">m_product_category_id</text>
<polygon fill="none" stroke="black" points="860.5,-814 860.5,-836 1057.5,-836 1057.5,-814 860.5,-814"/>
<image xlink:href="../../images/foreignKeys.png" width="11px" height="12px" preserveAspectRatio="xMinYMin meet" x="865.5" y="-831"/>
<text text-anchor="start" x="880.5" y="-822.2" font-family="Helvetica,sans-Serif" font-size="11.00">c_bpartner_id</text>
<polygon fill="none" stroke="black" points="860.5,-792 860.5,-814 1057.5,-814 1057.5,-792 860.5,-792"/>
<image xlink:href="../../images/foreignKeys.png" width="11px" height="12px" preserveAspectRatio="xMinYMin meet" x="865.5" y="-809"/>
<text text-anchor="start" x="880.5" y="-800.2" font-family="Helvetica,sans-Serif" font-size="11.00">m_product_id</text>
<polygon fill="none" stroke="black" points="860.5,-770 860.5,-792 1057.5,-792 1057.5,-770 860.5,-770"/>
<image xlink:href="../../images/foreignKeys.png" width="11px" height="12px" preserveAspectRatio="xMinYMin meet" x="865.5" y="-787"/>
<text text-anchor="start" x="880.5" y="-778.2" font-family="Helvetica,sans-Serif" font-size="11.00">c_conversiontype_id</text>
<polygon fill="#ffffff" stroke="transparent" points="860.5,-748 860.5,-770 1057.5,-770 1057.5,-748 860.5,-748"/>
<polygon fill="none" stroke="black" points="860.5,-748 860.5,-770 1057.5,-770 1057.5,-748 860.5,-748"/>
<text text-anchor="start" x="880.5" y="-756.2" font-family="Helvetica,sans-Serif" font-size="11.00">m_discountschemaline_uu</text>
<polygon fill="none" stroke="black" points="860.5,-726 860.5,-748 1057.5,-748 1057.5,-726 860.5,-726"/>
<image xlink:href="../../images/foreignKeys.png" width="11px" height="12px" preserveAspectRatio="xMinYMin meet" x="865.5" y="-743"/>
<text text-anchor="start" x="880.5" y="-734.2" font-family="Helvetica,sans-Serif" font-size="11.00">cof_producttype_id</text>
<polygon fill="none" stroke="black" points="860.5,-704 860.5,-726 1057.5,-726 1057.5,-704 860.5,-704"/>
<image xlink:href="../../images/foreignKeys.png" width="11px" height="12px" preserveAspectRatio="xMinYMin meet" x="865.5" y="-721"/>
<text text-anchor="start" x="880.5" y="-712.2" font-family="Helvetica,sans-Serif" font-size="11.00">cof_productclass_id</text>
<polygon fill="none" stroke="black" points="860.5,-682 860.5,-704 1057.5,-704 1057.5,-682 860.5,-682"/>
<image xlink:href="../../images/foreignKeys.png" width="11px" height="12px" preserveAspectRatio="xMinYMin meet" x="865.5" y="-699"/>
<text text-anchor="start" x="880.5" y="-690.2" font-family="Helvetica,sans-Serif" font-size="11.00">cof_productgroup_id</text>
<polygon fill="none" stroke="black" points="860.5,-660 860.5,-682 1057.5,-682 1057.5,-660 860.5,-660"/>
<image xlink:href="../../images/foreignKeys.png" width="11px" height="12px" preserveAspectRatio="xMinYMin meet" x="865.5" y="-677"/>
<text text-anchor="start" x="880.5" y="-668.2" font-family="Helvetica,sans-Serif" font-size="11.00">cof_grupofornecedor_id</text>
<polygon fill="none" stroke="black" points="860.5,-642 860.5,-660 1057.5,-660 1057.5,-642 860.5,-642"/>
<text text-anchor="start" x="863.5" y="-648.2" font-family="Helvetica,sans-Serif" font-size="11.00">...</text>
<polygon fill="#ffffff" stroke="transparent" points="860.5,-624 860.5,-642 946.5,-642 946.5,-624 860.5,-624"/>
<polygon fill="none" stroke="black" points="860.5,-624 860.5,-642 946.5,-642 946.5,-624 860.5,-624"/>
<text text-anchor="start" x="863.5" y="-630.2" font-family="Helvetica,sans-Serif" font-size="11.00">&lt; 9</text>
<polygon fill="#ffffff" stroke="transparent" points="946.5,-624 946.5,-642 1012.5,-642 1012.5,-624 946.5,-624"/>
<polygon fill="none" stroke="black" points="946.5,-624 946.5,-642 1012.5,-642 1012.5,-624 946.5,-624"/>
<text text-anchor="start" x="981.5" y="-630.2" font-family="Helvetica,sans-Serif" font-size="11.00">1 row</text>
<polygon fill="#ffffff" stroke="transparent" points="1012.5,-624 1012.5,-642 1057.5,-642 1057.5,-624 1012.5,-624"/>
<polygon fill="none" stroke="black" points="1012.5,-624 1012.5,-642 1057.5,-642 1057.5,-624 1012.5,-624"/>
<text text-anchor="start" x="1047.5" y="-630.2" font-family="Helvetica,sans-Serif" font-size="11.00"> &#160;</text>
</a>
</g>
</g>
<!-- m_discountschemaline&#45;&gt;m_discountschema -->
<g id="edge8" class="edge">
<title>m_discountschemaline:w&#45;&gt;m_discountschema:e</title>
<path fill="none" stroke="black" d="M844.93,-869.19C609.47,-875.3 488.52,-1026.46 308,-868 255.27,-821.71 336.66,-555 266.5,-555"/>
<polygon fill="black" stroke="black" points="851.5,-869.1 859.55,-872.6 855.5,-869.05 859.5,-869 859.5,-869 859.5,-869 855.5,-869.05 859.45,-865.4 851.5,-869.1 851.5,-869.1"/>
<ellipse fill="none" stroke="black" cx="848.3" cy="-869.15" rx="3.2" ry="3.2"/>
</g>
<!-- m_discountschemaline&#45;&gt;c_bpartner -->
<g id="edge7" class="edge">
<title>m_discountschemaline:w&#45;&gt;c_bpartner:e</title>
<path fill="none" stroke="black" d="M845.04,-823.9C834.3,-822.17 827.46,-819 812,-819"/>
<polygon fill="black" stroke="black" points="851.52,-824.39 859.23,-828.59 855.51,-824.7 859.5,-825 859.5,-825 859.5,-825 855.51,-824.7 859.77,-821.41 851.52,-824.39 851.52,-824.39"/>
<ellipse fill="none" stroke="black" cx="848.33" cy="-824.15" rx="3.2" ry="3.2"/>
</g>
<!-- m_pricelist_version -->
<g id="node6" class="node">
<title>m_pricelist_version</title>
<g id="a_node6"><a xlink:href="../../tables/m_pricelist_version.html" xlink:title="m_pricelist_version" target="_top">
<polygon fill="#ffffff" stroke="transparent" points="317.5,-37 317.5,-227 524.5,-227 524.5,-37 317.5,-37"/>
<polygon fill="#f5f5f5" stroke="transparent" points="318,-205 318,-227 525,-227 525,-205 318,-205"/>
<polygon fill="none" stroke="black" points="318,-205 318,-227 525,-227 525,-205 318,-205"/>
<text text-anchor="start" x="323" y="-214.2" font-family="Helvetica,sans-Serif" font-weight="bold" font-size="11.00">m_pricelist_version</text>
<text text-anchor="start" x="490" y="-213.2" font-family="Helvetica,sans-Serif" font-size="11.00">[table]</text>
<polygon fill="none" stroke="black" points="318,-183 318,-205 525,-205 525,-183 318,-183"/>
<image xlink:href="../../images/primaryKeys.png" width="11px" height="12px" preserveAspectRatio="xMinYMin meet" x="323" y="-200"/>
<text text-anchor="start" x="338" y="-191.2" font-family="Helvetica,sans-Serif" font-size="11.00">m_pricelist_version_id</text>
<polygon fill="#ffffff" stroke="transparent" points="318,-161 318,-183 525,-183 525,-161 318,-161"/>
<polygon fill="none" stroke="black" points="318,-161 318,-183 525,-183 525,-161 318,-161"/>
<image xlink:href="../../images/foreignKeys.png" width="11px" height="12px" preserveAspectRatio="xMinYMin meet" x="323" y="-178"/>
<text text-anchor="start" x="338" y="-169.2" font-family="Helvetica,sans-Serif" font-size="11.00">m_pricelist_id</text>
<polygon fill="none" stroke="black" points="318,-139 318,-161 525,-161 525,-139 318,-139"/>
<image xlink:href="../../images/foreignKeys.png" width="11px" height="12px" preserveAspectRatio="xMinYMin meet" x="323" y="-156"/>
<text text-anchor="start" x="338" y="-147.2" font-family="Helvetica,sans-Serif" font-size="11.00">m_discountschema_id</text>
<polygon fill="#ffffff" stroke="transparent" points="318,-117 318,-139 525,-139 525,-117 318,-117"/>
<polygon fill="none" stroke="black" points="318,-117 318,-139 525,-139 525,-117 318,-117"/>
<text text-anchor="start" x="338" y="-125.2" font-family="Helvetica,sans-Serif" font-size="11.00">validfrom</text>
<polygon fill="none" stroke="black" points="318,-95 318,-117 525,-117 525,-95 318,-95"/>
<image xlink:href="../../images/foreignKeys.png" width="11px" height="12px" preserveAspectRatio="xMinYMin meet" x="323" y="-112"/>
<text text-anchor="start" x="338" y="-103.2" font-family="Helvetica,sans-Serif" font-size="11.00">m_pricelist_version_base_id</text>
<polygon fill="#ffffff" stroke="transparent" points="318,-73 318,-95 525,-95 525,-73 318,-73"/>
<polygon fill="none" stroke="black" points="318,-73 318,-95 525,-95 525,-73 318,-73"/>
<text text-anchor="start" x="338" y="-81.2" font-family="Helvetica,sans-Serif" font-size="11.00">m_pricelist_version_uu</text>
<polygon fill="none" stroke="black" points="318,-55 318,-73 525,-73 525,-55 318,-55"/>
<text text-anchor="start" x="321" y="-61.2" font-family="Helvetica,sans-Serif" font-size="11.00">...</text>
<polygon fill="#ffffff" stroke="transparent" points="318,-37 318,-55 402,-55 402,-37 318,-37"/>
<polygon fill="none" stroke="black" points="318,-37 318,-55 402,-55 402,-37 318,-37"/>
<text text-anchor="start" x="321" y="-43.2" font-family="Helvetica,sans-Serif" font-size="11.00">&lt; 3</text>
<polygon fill="#ffffff" stroke="transparent" points="402,-37 402,-55 472,-55 472,-37 402,-37"/>
<polygon fill="none" stroke="black" points="402,-37 402,-55 472,-55 472,-37 402,-37"/>
<text text-anchor="start" x="436" y="-43.2" font-family="Helvetica,sans-Serif" font-size="11.00">3 rows</text>
<polygon fill="#ffffff" stroke="transparent" points="472,-37 472,-55 525,-55 525,-37 472,-37"/>
<polygon fill="none" stroke="black" points="472,-37 472,-55 525,-55 525,-37 472,-37"/>
<text text-anchor="start" x="506" y="-43.2" font-family="Helvetica,sans-Serif" font-size="11.00">9 &gt;</text>
</a>
</g>
</g>
<!-- m_pricelist_version&#45;&gt;m_discountschema -->
<g id="edge9" class="edge">
<title>m_pricelist_version:w&#45;&gt;m_discountschema:e</title>
<path fill="none" stroke="black" d="M302.86,-154.27C241.34,-197.56 351.71,-555 266.5,-555"/>
<polygon fill="black" stroke="black" points="309.34,-152.32 318.04,-153.45 313.17,-151.16 317,-150 317,-150 317,-150 313.17,-151.16 315.96,-146.55 309.34,-152.32 309.34,-152.32"/>
<ellipse fill="none" stroke="black" cx="306.28" cy="-153.24" rx="3.2" ry="3.2"/>
</g>
</g>
</svg>
