<?xml version="1.0" encoding="UTF-8" standalone="no"?>
<!DOCTYPE svg PUBLIC "-//W3C//DTD SVG 1.1//EN"
 "http://www.w3.org/Graphics/SVG/1.1/DTD/svg11.dtd">
<!-- Generated by graphviz version 2.43.0 (0)
 -->
<!-- Title: oneDegreeRelationshipsDiagram Pages: 1 -->
<svg width="516pt" height="789pt"
 viewBox="0.00 0.00 516.00 789.00" xmlns="http://www.w3.org/2000/svg" xmlns:xlink="http://www.w3.org/1999/xlink">
<g id="graph0" class="graph" transform="scale(1 1) rotate(0) translate(4 785)">
<title>oneDegreeRelationshipsDiagram</title>
<polygon fill="#ffffff" stroke="transparent" points="-4,4 -4,-785 512,-785 512,4 -4,4"/>
<text text-anchor="middle" x="71.5" y="-7.2" font-family="Helvetica,sans-Serif" font-size="11.00">Generated by SchemaSpy</text>
<!-- m_product -->
<g id="node1" class="node">
<title>m_product</title>
<g id="a_node1"><a xlink:href="../../tables/m_product.html" xlink:title="m_product" target="_top">
<polygon fill="#ffffff" stroke="transparent" points="265,-37 265,-777 500,-777 500,-37 265,-37"/>
<polygon fill="#f5f5f5" stroke="transparent" points="265.5,-755 265.5,-777 500.5,-777 500.5,-755 265.5,-755"/>
<polygon fill="none" stroke="black" points="265.5,-755 265.5,-777 500.5,-777 500.5,-755 265.5,-755"/>
<text text-anchor="start" x="270.5" y="-764.2" font-family="Helvetica,sans-Serif" font-weight="bold" font-size="11.00">m_product</text>
<text text-anchor="start" x="465.5" y="-763.2" font-family="Helvetica,sans-Serif" font-size="11.00">[table]</text>
<polygon fill="none" stroke="black" points="265.5,-733 265.5,-755 500.5,-755 500.5,-733 265.5,-733"/>
<image xlink:href="../../images/primaryKeys.png" width="11px" height="12px" preserveAspectRatio="xMinYMin meet" x="270.5" y="-750"/>
<text text-anchor="start" x="285.5" y="-741.2" font-family="Helvetica,sans-Serif" font-size="11.00">m_product_id</text>
<polygon fill="#ffffff" stroke="transparent" points="265.5,-711 265.5,-733 500.5,-733 500.5,-711 265.5,-711"/>
<polygon fill="none" stroke="black" points="265.5,-711 265.5,-733 500.5,-733 500.5,-711 265.5,-711"/>
<image xlink:href="../../images/foreignKeys.png" width="11px" height="12px" preserveAspectRatio="xMinYMin meet" x="270.5" y="-728"/>
<text text-anchor="start" x="285.5" y="-719.2" font-family="Helvetica,sans-Serif" font-size="11.00">ad_client_id</text>
<polygon fill="none" stroke="black" points="265.5,-689 265.5,-711 500.5,-711 500.5,-689 265.5,-689"/>
<image xlink:href="../../images/foreignKeys.png" width="11px" height="12px" preserveAspectRatio="xMinYMin meet" x="270.5" y="-706"/>
<text text-anchor="start" x="285.5" y="-697.2" font-family="Helvetica,sans-Serif" font-size="11.00">ad_org_id</text>
<polygon fill="#ffffff" stroke="transparent" points="265.5,-667 265.5,-689 500.5,-689 500.5,-667 265.5,-667"/>
<polygon fill="none" stroke="black" points="265.5,-667 265.5,-689 500.5,-689 500.5,-667 265.5,-667"/>
<text text-anchor="start" x="285.5" y="-675.2" font-family="Helvetica,sans-Serif" font-size="11.00">value</text>
<polygon fill="#ffffff" stroke="transparent" points="265.5,-645 265.5,-667 500.5,-667 500.5,-645 265.5,-645"/>
<polygon fill="none" stroke="black" points="265.5,-645 265.5,-667 500.5,-667 500.5,-645 265.5,-645"/>
<text text-anchor="start" x="285.5" y="-653.2" font-family="Helvetica,sans-Serif" font-size="11.00">name</text>
<polygon fill="#ffffff" stroke="transparent" points="265.5,-623 265.5,-645 500.5,-645 500.5,-623 265.5,-623"/>
<polygon fill="none" stroke="black" points="265.5,-623 265.5,-645 500.5,-645 500.5,-623 265.5,-623"/>
<text text-anchor="start" x="285.5" y="-631.2" font-family="Helvetica,sans-Serif" font-size="11.00">upc</text>
<polygon fill="none" stroke="black" points="265.5,-601 265.5,-623 500.5,-623 500.5,-601 265.5,-601"/>
<image xlink:href="../../images/foreignKeys.png" width="11px" height="12px" preserveAspectRatio="xMinYMin meet" x="270.5" y="-618"/>
<text text-anchor="start" x="285.5" y="-609.2" font-family="Helvetica,sans-Serif" font-size="11.00">c_uom_id</text>
<polygon fill="none" stroke="black" points="265.5,-579 265.5,-601 500.5,-601 500.5,-579 265.5,-579"/>
<image xlink:href="../../images/foreignKeys.png" width="11px" height="12px" preserveAspectRatio="xMinYMin meet" x="270.5" y="-596"/>
<text text-anchor="start" x="285.5" y="-587.2" font-family="Helvetica,sans-Serif" font-size="11.00">salesrep_id</text>
<polygon fill="none" stroke="black" points="265.5,-557 265.5,-579 500.5,-579 500.5,-557 265.5,-557"/>
<image xlink:href="../../images/foreignKeys.png" width="11px" height="12px" preserveAspectRatio="xMinYMin meet" x="270.5" y="-574"/>
<text text-anchor="start" x="285.5" y="-565.2" font-family="Helvetica,sans-Serif" font-size="11.00">c_revenuerecognition_id</text>
<polygon fill="#ffffff" stroke="transparent" points="265.5,-535 265.5,-557 500.5,-557 500.5,-535 265.5,-535"/>
<polygon fill="none" stroke="black" points="265.5,-535 265.5,-557 500.5,-557 500.5,-535 265.5,-535"/>
<image xlink:href="../../images/foreignKeys.png" width="11px" height="12px" preserveAspectRatio="xMinYMin meet" x="270.5" y="-552"/>
<text text-anchor="start" x="285.5" y="-543.2" font-family="Helvetica,sans-Serif" font-size="11.00">m_product_category_id</text>
<polygon fill="none" stroke="black" points="265.5,-513 265.5,-535 500.5,-535 500.5,-513 265.5,-513"/>
<image xlink:href="../../images/foreignKeys.png" width="11px" height="12px" preserveAspectRatio="xMinYMin meet" x="270.5" y="-530"/>
<text text-anchor="start" x="285.5" y="-521.2" font-family="Helvetica,sans-Serif" font-size="11.00">c_taxcategory_id</text>
<polygon fill="#ffffff" stroke="transparent" points="265.5,-491 265.5,-513 500.5,-513 500.5,-491 265.5,-491"/>
<polygon fill="none" stroke="black" points="265.5,-491 265.5,-513 500.5,-513 500.5,-491 265.5,-491"/>
<image xlink:href="../../images/foreignKeys.png" width="11px" height="12px" preserveAspectRatio="xMinYMin meet" x="270.5" y="-508"/>
<text text-anchor="start" x="285.5" y="-499.2" font-family="Helvetica,sans-Serif" font-size="11.00">s_resource_id</text>
<polygon fill="#ffffff" stroke="transparent" points="265.5,-469 265.5,-491 500.5,-491 500.5,-469 265.5,-469"/>
<polygon fill="none" stroke="black" points="265.5,-469 265.5,-491 500.5,-491 500.5,-469 265.5,-469"/>
<image xlink:href="../../images/foreignKeys.png" width="11px" height="12px" preserveAspectRatio="xMinYMin meet" x="270.5" y="-486"/>
<text text-anchor="start" x="285.5" y="-477.2" font-family="Helvetica,sans-Serif" font-size="11.00">s_expensetype_id</text>
<polygon fill="none" stroke="black" points="265.5,-447 265.5,-469 500.5,-469 500.5,-447 265.5,-447"/>
<image xlink:href="../../images/foreignKeys.png" width="11px" height="12px" preserveAspectRatio="xMinYMin meet" x="270.5" y="-464"/>
<text text-anchor="start" x="285.5" y="-455.2" font-family="Helvetica,sans-Serif" font-size="11.00">r_mailtext_id</text>
<polygon fill="none" stroke="black" points="265.5,-425 265.5,-447 500.5,-447 500.5,-425 265.5,-425"/>
<image xlink:href="../../images/foreignKeys.png" width="11px" height="12px" preserveAspectRatio="xMinYMin meet" x="270.5" y="-442"/>
<text text-anchor="start" x="285.5" y="-433.2" font-family="Helvetica,sans-Serif" font-size="11.00">m_attributeset_id</text>
<polygon fill="none" stroke="black" points="265.5,-403 265.5,-425 500.5,-425 500.5,-403 265.5,-403"/>
<image xlink:href="../../images/foreignKeys.png" width="11px" height="12px" preserveAspectRatio="xMinYMin meet" x="270.5" y="-420"/>
<text text-anchor="start" x="285.5" y="-411.2" font-family="Helvetica,sans-Serif" font-size="11.00">m_attributesetinstance_id</text>
<polygon fill="none" stroke="black" points="265.5,-381 265.5,-403 500.5,-403 500.5,-381 265.5,-381"/>
<image xlink:href="../../images/foreignKeys.png" width="11px" height="12px" preserveAspectRatio="xMinYMin meet" x="270.5" y="-398"/>
<text text-anchor="start" x="285.5" y="-389.2" font-family="Helvetica,sans-Serif" font-size="11.00">m_freightcategory_id</text>
<polygon fill="none" stroke="black" points="265.5,-359 265.5,-381 500.5,-381 500.5,-359 265.5,-359"/>
<image xlink:href="../../images/foreignKeys.png" width="11px" height="12px" preserveAspectRatio="xMinYMin meet" x="270.5" y="-376"/>
<text text-anchor="start" x="285.5" y="-367.2" font-family="Helvetica,sans-Serif" font-size="11.00">m_locator_id</text>
<polygon fill="none" stroke="black" points="265.5,-337 265.5,-359 500.5,-359 500.5,-337 265.5,-337"/>
<image xlink:href="../../images/foreignKeys.png" width="11px" height="12px" preserveAspectRatio="xMinYMin meet" x="270.5" y="-354"/>
<text text-anchor="start" x="285.5" y="-345.2" font-family="Helvetica,sans-Serif" font-size="11.00">c_subscriptiontype_id</text>
<polygon fill="#ffffff" stroke="transparent" points="265.5,-315 265.5,-337 500.5,-337 500.5,-315 265.5,-315"/>
<polygon fill="none" stroke="black" points="265.5,-315 265.5,-337 500.5,-337 500.5,-315 265.5,-315"/>
<text text-anchor="start" x="285.5" y="-323.2" font-family="Helvetica,sans-Serif" font-size="11.00">m_product_uu</text>
<polygon fill="none" stroke="black" points="265.5,-293 265.5,-315 500.5,-315 500.5,-293 265.5,-293"/>
<image xlink:href="../../images/foreignKeys.png" width="11px" height="12px" preserveAspectRatio="xMinYMin meet" x="270.5" y="-310"/>
<text text-anchor="start" x="285.5" y="-301.2" font-family="Helvetica,sans-Serif" font-size="11.00">m_parttype_id</text>
<polygon fill="none" stroke="black" points="265.5,-271 265.5,-293 500.5,-293 500.5,-271 265.5,-271"/>
<image xlink:href="../../images/foreignKeys.png" width="11px" height="12px" preserveAspectRatio="xMinYMin meet" x="270.5" y="-288"/>
<text text-anchor="start" x="285.5" y="-279.2" font-family="Helvetica,sans-Serif" font-size="11.00">lbr_productcategory_id</text>
<polygon fill="none" stroke="black" points="265.5,-249 265.5,-271 500.5,-271 500.5,-249 265.5,-249"/>
<image xlink:href="../../images/foreignKeys.png" width="11px" height="12px" preserveAspectRatio="xMinYMin meet" x="270.5" y="-266"/>
<text text-anchor="start" x="285.5" y="-257.2" font-family="Helvetica,sans-Serif" font-size="11.00">lbr_ncm_id</text>
<polygon fill="none" stroke="black" points="265.5,-227 265.5,-249 500.5,-249 500.5,-227 265.5,-227"/>
<image xlink:href="../../images/foreignKeys.png" width="11px" height="12px" preserveAspectRatio="xMinYMin meet" x="270.5" y="-244"/>
<text text-anchor="start" x="285.5" y="-235.2" font-family="Helvetica,sans-Serif" font-size="11.00">lbr_fiscalgroup_product_id</text>
<polygon fill="none" stroke="black" points="265.5,-205 265.5,-227 500.5,-227 500.5,-205 265.5,-205"/>
<image xlink:href="../../images/foreignKeys.png" width="11px" height="12px" preserveAspectRatio="xMinYMin meet" x="270.5" y="-222"/>
<text text-anchor="start" x="285.5" y="-213.2" font-family="Helvetica,sans-Serif" font-size="11.00">cof_cest_id</text>
<polygon fill="none" stroke="black" points="265.5,-183 265.5,-205 500.5,-205 500.5,-183 265.5,-183"/>
<image xlink:href="../../images/foreignKeys.png" width="11px" height="12px" preserveAspectRatio="xMinYMin meet" x="270.5" y="-200"/>
<text text-anchor="start" x="285.5" y="-191.2" font-family="Helvetica,sans-Serif" font-size="11.00">cof_c_generoitem_sped_id</text>
<polygon fill="none" stroke="black" points="265.5,-161 265.5,-183 500.5,-183 500.5,-161 265.5,-161"/>
<image xlink:href="../../images/foreignKeys.png" width="11px" height="12px" preserveAspectRatio="xMinYMin meet" x="270.5" y="-178"/>
<text text-anchor="start" x="285.5" y="-169.2" font-family="Helvetica,sans-Serif" font-size="11.00">cof_producttype_id</text>
<polygon fill="none" stroke="black" points="265.5,-139 265.5,-161 500.5,-161 500.5,-139 265.5,-139"/>
<image xlink:href="../../images/foreignKeys.png" width="11px" height="12px" preserveAspectRatio="xMinYMin meet" x="270.5" y="-156"/>
<text text-anchor="start" x="285.5" y="-147.2" font-family="Helvetica,sans-Serif" font-size="11.00">cof_productclass_id</text>
<polygon fill="none" stroke="black" points="265.5,-117 265.5,-139 500.5,-139 500.5,-117 265.5,-117"/>
<image xlink:href="../../images/foreignKeys.png" width="11px" height="12px" preserveAspectRatio="xMinYMin meet" x="270.5" y="-134"/>
<text text-anchor="start" x="285.5" y="-125.2" font-family="Helvetica,sans-Serif" font-size="11.00">cof_productgroup_id</text>
<polygon fill="none" stroke="black" points="265.5,-95 265.5,-117 500.5,-117 500.5,-95 265.5,-95"/>
<image xlink:href="../../images/foreignKeys.png" width="11px" height="12px" preserveAspectRatio="xMinYMin meet" x="270.5" y="-112"/>
<text text-anchor="start" x="285.5" y="-103.2" font-family="Helvetica,sans-Serif" font-size="11.00">cof_nbs_id</text>
<polygon fill="none" stroke="black" points="265.5,-73 265.5,-95 500.5,-95 500.5,-73 265.5,-73"/>
<image xlink:href="../../images/foreignKeys.png" width="11px" height="12px" preserveAspectRatio="xMinYMin meet" x="270.5" y="-90"/>
<text text-anchor="start" x="285.5" y="-81.2" font-family="Helvetica,sans-Serif" font-size="11.00">cof_grupofornecedor_id</text>
<polygon fill="none" stroke="black" points="265.5,-55 265.5,-73 500.5,-73 500.5,-55 265.5,-55"/>
<text text-anchor="start" x="268.5" y="-61.2" font-family="Helvetica,sans-Serif" font-size="11.00">...</text>
<polygon fill="#ffffff" stroke="transparent" points="265.5,-37 265.5,-55 362.5,-55 362.5,-37 265.5,-37"/>
<polygon fill="none" stroke="black" points="265.5,-37 265.5,-55 362.5,-55 362.5,-37 265.5,-37"/>
<text text-anchor="start" x="268.5" y="-43.2" font-family="Helvetica,sans-Serif" font-size="11.00">&lt; 22</text>
<polygon fill="#ffffff" stroke="transparent" points="362.5,-37 362.5,-55 431.5,-55 431.5,-37 362.5,-37"/>
<polygon fill="none" stroke="black" points="362.5,-37 362.5,-55 431.5,-55 431.5,-37 362.5,-37"/>
<text text-anchor="start" x="400.5" y="-43.2" font-family="Helvetica,sans-Serif" font-size="11.00">1 row</text>
<polygon fill="#ffffff" stroke="transparent" points="431.5,-37 431.5,-55 500.5,-55 500.5,-37 431.5,-37"/>
<polygon fill="none" stroke="black" points="431.5,-37 431.5,-55 500.5,-55 500.5,-37 431.5,-37"/>
<text text-anchor="start" x="469.5" y="-43.2" font-family="Helvetica,sans-Serif" font-size="11.00">172 &gt;</text>
</a>
</g>
</g>
<!-- m_parttype -->
<g id="node2" class="node">
<title>m_parttype</title>
<g id="a_node2"><a xlink:href="../../tables/m_parttype.html" xlink:title="m_parttype" target="_top">
<polygon fill="#ffffff" stroke="transparent" points="8,-53 8,-339 216,-339 216,-53 8,-53"/>
<polygon fill="#f5f5f5" stroke="transparent" points="10,-315 10,-337 214,-337 214,-315 10,-315"/>
<polygon fill="none" stroke="black" points="10,-315 10,-337 214,-337 214,-315 10,-315"/>
<text text-anchor="start" x="15" y="-324.2" font-family="Helvetica,sans-Serif" font-weight="bold" font-size="11.00">m_parttype</text>
<text text-anchor="start" x="179" y="-323.2" font-family="Helvetica,sans-Serif" font-size="11.00">[table]</text>
<polygon fill="none" stroke="black" points="10,-293 10,-315 131,-315 131,-293 10,-293"/>
<image xlink:href="../../images/primaryKeys.png" width="11px" height="12px" preserveAspectRatio="xMinYMin meet" x="15" y="-310"/>
<text text-anchor="start" x="30" y="-301.2" font-family="Helvetica,sans-Serif" font-size="11.00">m_parttype_id</text>
<polygon fill="none" stroke="black" points="131,-293 131,-315 214,-315 214,-293 131,-293"/>
<text text-anchor="start" x="134" y="-301.2" font-family="Helvetica,sans-Serif" font-size="11.00">numeric[10]</text>
<polygon fill="none" stroke="black" points="10,-271 10,-293 131,-293 131,-271 10,-271"/>
<text text-anchor="start" x="30" y="-279.2" font-family="Helvetica,sans-Serif" font-size="11.00">ad_client_id</text>
<polygon fill="none" stroke="black" points="131,-271 131,-293 214,-293 214,-271 131,-271"/>
<text text-anchor="start" x="134" y="-279.2" font-family="Helvetica,sans-Serif" font-size="11.00">numeric[10]</text>
<polygon fill="none" stroke="black" points="10,-249 10,-271 131,-271 131,-249 10,-249"/>
<text text-anchor="start" x="30" y="-257.2" font-family="Helvetica,sans-Serif" font-size="11.00">ad_org_id</text>
<polygon fill="none" stroke="black" points="131,-249 131,-271 214,-271 214,-249 131,-249"/>
<text text-anchor="start" x="134" y="-257.2" font-family="Helvetica,sans-Serif" font-size="11.00">numeric[10]</text>
<polygon fill="none" stroke="black" points="10,-227 10,-249 131,-249 131,-227 10,-227"/>
<text text-anchor="start" x="30" y="-235.2" font-family="Helvetica,sans-Serif" font-size="11.00">created</text>
<polygon fill="none" stroke="black" points="131,-227 131,-249 214,-249 214,-227 131,-227"/>
<text text-anchor="start" x="134" y="-235.2" font-family="Helvetica,sans-Serif" font-size="11.00">timestamp[29,6]</text>
<polygon fill="none" stroke="black" points="10,-205 10,-227 131,-227 131,-205 10,-205"/>
<text text-anchor="start" x="30" y="-213.2" font-family="Helvetica,sans-Serif" font-size="11.00">createdby</text>
<polygon fill="none" stroke="black" points="131,-205 131,-227 214,-227 214,-205 131,-205"/>
<text text-anchor="start" x="134" y="-213.2" font-family="Helvetica,sans-Serif" font-size="11.00">numeric[10]</text>
<polygon fill="none" stroke="black" points="10,-183 10,-205 131,-205 131,-183 10,-183"/>
<text text-anchor="start" x="30" y="-191.2" font-family="Helvetica,sans-Serif" font-size="11.00">isactive</text>
<polygon fill="none" stroke="black" points="131,-183 131,-205 214,-205 214,-183 131,-183"/>
<text text-anchor="start" x="134" y="-191.2" font-family="Helvetica,sans-Serif" font-size="11.00">bpchar[1]</text>
<polygon fill="none" stroke="black" points="10,-161 10,-183 131,-183 131,-161 10,-161"/>
<text text-anchor="start" x="30" y="-169.2" font-family="Helvetica,sans-Serif" font-size="11.00">updated</text>
<polygon fill="none" stroke="black" points="131,-161 131,-183 214,-183 214,-161 131,-161"/>
<text text-anchor="start" x="134" y="-169.2" font-family="Helvetica,sans-Serif" font-size="11.00">timestamp[29,6]</text>
<polygon fill="none" stroke="black" points="10,-139 10,-161 131,-161 131,-139 10,-139"/>
<text text-anchor="start" x="30" y="-147.2" font-family="Helvetica,sans-Serif" font-size="11.00">updatedby</text>
<polygon fill="none" stroke="black" points="131,-139 131,-161 214,-161 214,-139 131,-139"/>
<text text-anchor="start" x="134" y="-147.2" font-family="Helvetica,sans-Serif" font-size="11.00">numeric[10]</text>
<polygon fill="none" stroke="black" points="10,-117 10,-139 131,-139 131,-117 10,-117"/>
<text text-anchor="start" x="30" y="-125.2" font-family="Helvetica,sans-Serif" font-size="11.00">name</text>
<polygon fill="none" stroke="black" points="131,-117 131,-139 214,-139 214,-117 131,-117"/>
<text text-anchor="start" x="134" y="-125.2" font-family="Helvetica,sans-Serif" font-size="11.00">varchar[255]</text>
<polygon fill="none" stroke="black" points="10,-95 10,-117 131,-117 131,-95 10,-95"/>
<text text-anchor="start" x="30" y="-103.2" font-family="Helvetica,sans-Serif" font-size="11.00">description</text>
<polygon fill="none" stroke="black" points="131,-95 131,-117 214,-117 214,-95 131,-95"/>
<text text-anchor="start" x="134" y="-103.2" font-family="Helvetica,sans-Serif" font-size="11.00">varchar[255]</text>
<polygon fill="#ffffff" stroke="transparent" points="10,-73 10,-95 131,-95 131,-73 10,-73"/>
<polygon fill="none" stroke="black" points="10,-73 10,-95 131,-95 131,-73 10,-73"/>
<text text-anchor="start" x="30" y="-81.2" font-family="Helvetica,sans-Serif" font-size="11.00">m_parttype_uu</text>
<polygon fill="none" stroke="black" points="131,-73 131,-95 214,-95 214,-73 131,-73"/>
<text text-anchor="start" x="134" y="-81.2" font-family="Helvetica,sans-Serif" font-size="11.00">varchar[36]</text>
<polygon fill="#ffffff" stroke="transparent" points="10,-55 10,-73 62,-73 62,-55 10,-55"/>
<polygon fill="none" stroke="black" points="10,-55 10,-73 62,-73 62,-55 10,-55"/>
<text text-anchor="start" x="13" y="-61.2" font-family="Helvetica,sans-Serif" font-size="11.00">&lt; 0</text>
<polygon fill="#ffffff" stroke="transparent" points="62,-55 62,-73 131,-73 131,-55 62,-55"/>
<polygon fill="none" stroke="black" points="62,-55 62,-73 131,-73 131,-55 62,-55"/>
<text text-anchor="start" x="95" y="-61.2" font-family="Helvetica,sans-Serif" font-size="11.00">0 rows</text>
<polygon fill="#ffffff" stroke="transparent" points="131,-55 131,-73 214,-73 214,-55 131,-55"/>
<polygon fill="none" stroke="black" points="131,-55 131,-73 214,-73 214,-55 131,-55"/>
<text text-anchor="start" x="195" y="-61.2" font-family="Helvetica,sans-Serif" font-size="11.00">1 &gt;</text>
<polygon fill="none" stroke="black" stroke-width="2" points="9,-54 9,-338 215,-338 215,-54 9,-54"/>
</a>
</g>
</g>
<!-- m_product&#45;&gt;m_parttype -->
<g id="edge1" class="edge">
<title>m_product:w&#45;&gt;m_parttype:e</title>
<path fill="none" stroke="black" d="M249.84,-304C238.41,-304 231.16,-304 215,-304"/>
<polygon fill="black" stroke="black" points="256.5,-304 264.5,-307.6 260.5,-304 264.5,-304 264.5,-304 264.5,-304 260.5,-304 264.5,-300.4 256.5,-304 256.5,-304"/>
<ellipse fill="none" stroke="black" cx="253.3" cy="-304" rx="3.2" ry="3.2"/>
</g>
</g>
</svg>
