<?xml version="1.0" encoding="UTF-8" standalone="no"?>
<!DOCTYPE svg PUBLIC "-//W3C//DTD SVG 1.1//EN"
 "http://www.w3.org/Graphics/SVG/1.1/DTD/svg11.dtd">
<!-- Generated by graphviz version 2.43.0 (0)
 -->
<!-- Title: oneDegreeRelationshipsDiagram Pages: 1 -->
<svg width="769pt" height="533pt"
 viewBox="0.00 0.00 769.00 533.00" xmlns="http://www.w3.org/2000/svg" xmlns:xlink="http://www.w3.org/1999/xlink">
<g id="graph0" class="graph" transform="scale(1 1) rotate(0) translate(4 529)">
<title>oneDegreeRelationshipsDiagram</title>
<polygon fill="#ffffff" stroke="transparent" points="-4,4 -4,-529 765,-529 765,4 -4,4"/>
<text text-anchor="middle" x="71.5" y="-7.2" font-family="Helvetica,sans-Serif" font-size="11.00">Generated by SchemaSpy</text>
<!-- m_promotiondistribution -->
<g id="node1" class="node">
<title>m_promotiondistribution</title>
<g id="a_node1"><a xlink:href="../../tables/m_promotiondistribution.html" xlink:title="m_promotiondistribution" target="_top">
<polygon fill="#ffffff" stroke="transparent" points="198,-120 198,-266 410,-266 410,-120 198,-120"/>
<polygon fill="#f5f5f5" stroke="transparent" points="198,-244 198,-266 410,-266 410,-244 198,-244"/>
<polygon fill="none" stroke="black" points="198,-244 198,-266 410,-266 410,-244 198,-244"/>
<text text-anchor="start" x="203" y="-253.2" font-family="Helvetica,sans-Serif" font-weight="bold" font-size="11.00">m_promotiondistribution</text>
<text text-anchor="start" x="375" y="-252.2" font-family="Helvetica,sans-Serif" font-size="11.00">[table]</text>
<polygon fill="none" stroke="black" points="198,-222 198,-244 410,-244 410,-222 198,-222"/>
<image xlink:href="../../images/primaryKeys.png" width="11px" height="12px" preserveAspectRatio="xMinYMin meet" x="203" y="-239"/>
<text text-anchor="start" x="218" y="-230.2" font-family="Helvetica,sans-Serif" font-size="11.00">m_promotiondistribution_id</text>
<polygon fill="none" stroke="black" points="198,-200 198,-222 410,-222 410,-200 198,-200"/>
<image xlink:href="../../images/foreignKeys.png" width="11px" height="12px" preserveAspectRatio="xMinYMin meet" x="203" y="-217"/>
<text text-anchor="start" x="218" y="-208.2" font-family="Helvetica,sans-Serif" font-size="11.00">m_promotionline_id</text>
<polygon fill="none" stroke="black" points="198,-178 198,-200 410,-200 410,-178 198,-178"/>
<image xlink:href="../../images/foreignKeys.png" width="11px" height="12px" preserveAspectRatio="xMinYMin meet" x="203" y="-195"/>
<text text-anchor="start" x="218" y="-186.2" font-family="Helvetica,sans-Serif" font-size="11.00">m_promotion_id</text>
<polygon fill="#ffffff" stroke="transparent" points="198,-156 198,-178 410,-178 410,-156 198,-156"/>
<polygon fill="none" stroke="black" points="198,-156 198,-178 410,-178 410,-156 198,-156"/>
<text text-anchor="start" x="218" y="-164.2" font-family="Helvetica,sans-Serif" font-size="11.00">m_promotiondistribution_uu</text>
<polygon fill="none" stroke="black" points="198,-138 198,-156 410,-156 410,-138 198,-138"/>
<text text-anchor="start" x="201" y="-144.2" font-family="Helvetica,sans-Serif" font-size="11.00">...</text>
<polygon fill="#ffffff" stroke="transparent" points="198,-120 198,-138 284,-138 284,-120 198,-120"/>
<polygon fill="none" stroke="black" points="198,-120 198,-138 284,-138 284,-120 198,-120"/>
<text text-anchor="start" x="201" y="-126.2" font-family="Helvetica,sans-Serif" font-size="11.00">&lt; 2</text>
<polygon fill="#ffffff" stroke="transparent" points="284,-120 284,-138 355,-138 355,-120 284,-120"/>
<polygon fill="none" stroke="black" points="284,-120 284,-138 355,-138 355,-120 284,-120"/>
<text text-anchor="start" x="319" y="-126.2" font-family="Helvetica,sans-Serif" font-size="11.00">0 rows</text>
<polygon fill="#ffffff" stroke="transparent" points="355,-120 355,-138 410,-138 410,-120 355,-120"/>
<polygon fill="none" stroke="black" points="355,-120 355,-138 410,-138 410,-120 355,-120"/>
<text text-anchor="start" x="391" y="-126.2" font-family="Helvetica,sans-Serif" font-size="11.00">2 &gt;</text>
</a>
</g>
</g>
<!-- m_promotion -->
<g id="node2" class="node">
<title>m_promotion</title>
<g id="a_node2"><a xlink:href="../../tables/m_promotion.html" xlink:title="m_promotion" target="_top">
<polygon fill="#ffffff" stroke="transparent" points="8,-51 8,-175 149,-175 149,-51 8,-51"/>
<polygon fill="#f5f5f5" stroke="transparent" points="8.5,-153 8.5,-175 149.5,-175 149.5,-153 8.5,-153"/>
<polygon fill="none" stroke="black" points="8.5,-153 8.5,-175 149.5,-175 149.5,-153 8.5,-153"/>
<text text-anchor="start" x="13.5" y="-162.2" font-family="Helvetica,sans-Serif" font-weight="bold" font-size="11.00">m_promotion</text>
<text text-anchor="start" x="114.5" y="-161.2" font-family="Helvetica,sans-Serif" font-size="11.00">[table]</text>
<polygon fill="none" stroke="black" points="8.5,-131 8.5,-153 149.5,-153 149.5,-131 8.5,-131"/>
<image xlink:href="../../images/primaryKeys.png" width="11px" height="12px" preserveAspectRatio="xMinYMin meet" x="13.5" y="-148"/>
<text text-anchor="start" x="28.5" y="-139.2" font-family="Helvetica,sans-Serif" font-size="11.00">m_promotion_id</text>
<polygon fill="none" stroke="black" points="8.5,-109 8.5,-131 149.5,-131 149.5,-109 8.5,-109"/>
<image xlink:href="../../images/foreignKeys.png" width="11px" height="12px" preserveAspectRatio="xMinYMin meet" x="13.5" y="-126"/>
<text text-anchor="start" x="28.5" y="-117.2" font-family="Helvetica,sans-Serif" font-size="11.00">c_campaign_id</text>
<polygon fill="#ffffff" stroke="transparent" points="8.5,-87 8.5,-109 149.5,-109 149.5,-87 8.5,-87"/>
<polygon fill="none" stroke="black" points="8.5,-87 8.5,-109 149.5,-109 149.5,-87 8.5,-87"/>
<text text-anchor="start" x="28.5" y="-95.2" font-family="Helvetica,sans-Serif" font-size="11.00">m_promotion_uu</text>
<polygon fill="none" stroke="black" points="8.5,-69 8.5,-87 149.5,-87 149.5,-69 8.5,-69"/>
<text text-anchor="start" x="11.5" y="-75.2" font-family="Helvetica,sans-Serif" font-size="11.00">...</text>
<polygon fill="#ffffff" stroke="transparent" points="8.5,-51 8.5,-69 59.5,-69 59.5,-51 8.5,-51"/>
<polygon fill="none" stroke="black" points="8.5,-51 8.5,-69 59.5,-69 59.5,-51 8.5,-51"/>
<text text-anchor="start" x="11.5" y="-57.2" font-family="Helvetica,sans-Serif" font-size="11.00">&lt; 1</text>
<polygon fill="#ffffff" stroke="transparent" points="59.5,-51 59.5,-69 112.5,-69 112.5,-51 59.5,-51"/>
<polygon fill="none" stroke="black" points="59.5,-51 59.5,-69 112.5,-69 112.5,-51 59.5,-51"/>
<text text-anchor="start" x="76.5" y="-57.2" font-family="Helvetica,sans-Serif" font-size="11.00">0 rows</text>
<polygon fill="#ffffff" stroke="transparent" points="112.5,-51 112.5,-69 149.5,-69 149.5,-51 112.5,-51"/>
<polygon fill="none" stroke="black" points="112.5,-51 112.5,-69 149.5,-69 149.5,-51 112.5,-51"/>
<text text-anchor="start" x="130.5" y="-57.2" font-family="Helvetica,sans-Serif" font-size="11.00">5 &gt;</text>
</a>
</g>
</g>
<!-- m_promotiondistribution&#45;&gt;m_promotion -->
<g id="edge1" class="edge">
<title>m_promotiondistribution:w&#45;&gt;m_promotion:e</title>
<path fill="none" stroke="black" d="M183.18,-183.61C170.94,-171.26 173.69,-142 150.5,-142"/>
<polygon fill="black" stroke="black" points="189.55,-186.09 195.69,-192.35 193.27,-187.55 197,-189 197,-189 197,-189 193.27,-187.55 198.31,-185.65 189.55,-186.09 189.55,-186.09"/>
<ellipse fill="none" stroke="black" cx="186.57" cy="-184.93" rx="3.2" ry="3.2"/>
</g>
<!-- m_promotionreward -->
<g id="node3" class="node">
<title>m_promotionreward</title>
<g id="a_node3"><a xlink:href="../../tables/m_promotionreward.html" xlink:title="m_promotionreward" target="_top">
<polygon fill="#ffffff" stroke="transparent" points="459,-37 459,-521 753,-521 753,-37 459,-37"/>
<polygon fill="#f5f5f5" stroke="transparent" points="461,-497 461,-519 751,-519 751,-497 461,-497"/>
<polygon fill="none" stroke="black" points="461,-497 461,-519 751,-519 751,-497 461,-497"/>
<text text-anchor="start" x="466" y="-506.2" font-family="Helvetica,sans-Serif" font-weight="bold" font-size="11.00">m_promotionreward</text>
<text text-anchor="start" x="716" y="-505.2" font-family="Helvetica,sans-Serif" font-size="11.00">[table]</text>
<polygon fill="none" stroke="black" points="461,-475 461,-497 668,-497 668,-475 461,-475"/>
<text text-anchor="start" x="481" y="-483.2" font-family="Helvetica,sans-Serif" font-size="11.00">ad_client_id</text>
<polygon fill="none" stroke="black" points="668,-475 668,-497 751,-497 751,-475 668,-475"/>
<text text-anchor="start" x="671" y="-483.2" font-family="Helvetica,sans-Serif" font-size="11.00">numeric[10]</text>
<polygon fill="none" stroke="black" points="461,-453 461,-475 668,-475 668,-453 461,-453"/>
<text text-anchor="start" x="481" y="-461.2" font-family="Helvetica,sans-Serif" font-size="11.00">ad_org_id</text>
<polygon fill="none" stroke="black" points="668,-453 668,-475 751,-475 751,-453 668,-453"/>
<text text-anchor="start" x="671" y="-461.2" font-family="Helvetica,sans-Serif" font-size="11.00">numeric[10]</text>
<polygon fill="none" stroke="black" points="461,-431 461,-453 668,-453 668,-431 461,-431"/>
<text text-anchor="start" x="481" y="-439.2" font-family="Helvetica,sans-Serif" font-size="11.00">amount</text>
<polygon fill="none" stroke="black" points="668,-431 668,-453 751,-453 751,-431 668,-431"/>
<text text-anchor="start" x="671" y="-439.2" font-family="Helvetica,sans-Serif" font-size="11.00">numeric[0]</text>
<polygon fill="none" stroke="black" points="461,-409 461,-431 668,-431 668,-409 461,-409"/>
<image xlink:href="../../images/foreignKeys.png" width="11px" height="12px" preserveAspectRatio="xMinYMin meet" x="466" y="-426"/>
<text text-anchor="start" x="481" y="-417.2" font-family="Helvetica,sans-Serif" font-size="11.00">c_charge_id</text>
<polygon fill="none" stroke="black" points="668,-409 668,-431 751,-431 751,-409 668,-409"/>
<text text-anchor="start" x="671" y="-417.2" font-family="Helvetica,sans-Serif" font-size="11.00">numeric[10]</text>
<polygon fill="none" stroke="black" points="461,-387 461,-409 668,-409 668,-387 461,-387"/>
<text text-anchor="start" x="481" y="-395.2" font-family="Helvetica,sans-Serif" font-size="11.00">created</text>
<polygon fill="none" stroke="black" points="668,-387 668,-409 751,-409 751,-387 668,-387"/>
<text text-anchor="start" x="671" y="-395.2" font-family="Helvetica,sans-Serif" font-size="11.00">timestamp[29,6]</text>
<polygon fill="none" stroke="black" points="461,-365 461,-387 668,-387 668,-365 461,-365"/>
<text text-anchor="start" x="481" y="-373.2" font-family="Helvetica,sans-Serif" font-size="11.00">createdby</text>
<polygon fill="none" stroke="black" points="668,-365 668,-387 751,-387 751,-365 668,-365"/>
<text text-anchor="start" x="671" y="-373.2" font-family="Helvetica,sans-Serif" font-size="11.00">numeric[10]</text>
<polygon fill="none" stroke="black" points="461,-343 461,-365 668,-365 668,-343 461,-343"/>
<text text-anchor="start" x="481" y="-351.2" font-family="Helvetica,sans-Serif" font-size="11.00">distributionsorting</text>
<polygon fill="none" stroke="black" points="668,-343 668,-365 751,-365 751,-343 668,-343"/>
<text text-anchor="start" x="671" y="-351.2" font-family="Helvetica,sans-Serif" font-size="11.00">bpchar[1]</text>
<polygon fill="none" stroke="black" points="461,-321 461,-343 668,-343 668,-321 461,-321"/>
<text text-anchor="start" x="481" y="-329.2" font-family="Helvetica,sans-Serif" font-size="11.00">isactive</text>
<polygon fill="none" stroke="black" points="668,-321 668,-343 751,-343 751,-321 668,-321"/>
<text text-anchor="start" x="671" y="-329.2" font-family="Helvetica,sans-Serif" font-size="11.00">bpchar[1]</text>
<polygon fill="none" stroke="black" points="461,-299 461,-321 668,-321 668,-299 461,-299"/>
<text text-anchor="start" x="481" y="-307.2" font-family="Helvetica,sans-Serif" font-size="11.00">isforalldistribution</text>
<polygon fill="none" stroke="black" points="668,-299 668,-321 751,-321 751,-299 668,-299"/>
<text text-anchor="start" x="671" y="-307.2" font-family="Helvetica,sans-Serif" font-size="11.00">bpchar[1]</text>
<polygon fill="none" stroke="black" points="461,-277 461,-299 668,-299 668,-277 461,-277"/>
<text text-anchor="start" x="481" y="-285.2" font-family="Helvetica,sans-Serif" font-size="11.00">issamedistribution</text>
<polygon fill="none" stroke="black" points="668,-277 668,-299 751,-299 751,-277 668,-277"/>
<text text-anchor="start" x="671" y="-285.2" font-family="Helvetica,sans-Serif" font-size="11.00">bpchar[1]</text>
<polygon fill="none" stroke="black" points="461,-255 461,-277 668,-277 668,-255 461,-255"/>
<image xlink:href="../../images/foreignKeys.png" width="11px" height="12px" preserveAspectRatio="xMinYMin meet" x="466" y="-272"/>
<text text-anchor="start" x="481" y="-263.2" font-family="Helvetica,sans-Serif" font-size="11.00">m_promotiondistribution_id</text>
<polygon fill="none" stroke="black" points="668,-255 668,-277 751,-277 751,-255 668,-255"/>
<text text-anchor="start" x="671" y="-263.2" font-family="Helvetica,sans-Serif" font-size="11.00">numeric[10]</text>
<polygon fill="none" stroke="black" points="461,-233 461,-255 668,-255 668,-233 461,-233"/>
<image xlink:href="../../images/primaryKeys.png" width="11px" height="12px" preserveAspectRatio="xMinYMin meet" x="466" y="-250"/>
<text text-anchor="start" x="481" y="-241.2" font-family="Helvetica,sans-Serif" font-size="11.00">m_promotionreward_id</text>
<polygon fill="none" stroke="black" points="668,-233 668,-255 751,-255 751,-233 668,-233"/>
<text text-anchor="start" x="671" y="-241.2" font-family="Helvetica,sans-Serif" font-size="11.00">numeric[10]</text>
<polygon fill="none" stroke="black" points="461,-211 461,-233 668,-233 668,-211 461,-211"/>
<image xlink:href="../../images/foreignKeys.png" width="11px" height="12px" preserveAspectRatio="xMinYMin meet" x="466" y="-228"/>
<text text-anchor="start" x="481" y="-219.2" font-family="Helvetica,sans-Serif" font-size="11.00">m_promotion_id</text>
<polygon fill="none" stroke="black" points="668,-211 668,-233 751,-233 751,-211 668,-211"/>
<text text-anchor="start" x="671" y="-219.2" font-family="Helvetica,sans-Serif" font-size="11.00">numeric[10]</text>
<polygon fill="none" stroke="black" points="461,-189 461,-211 668,-211 668,-189 461,-189"/>
<image xlink:href="../../images/foreignKeys.png" width="11px" height="12px" preserveAspectRatio="xMinYMin meet" x="466" y="-206"/>
<text text-anchor="start" x="481" y="-197.2" font-family="Helvetica,sans-Serif" font-size="11.00">m_targetdistribution_id</text>
<polygon fill="none" stroke="black" points="668,-189 668,-211 751,-211 751,-189 668,-189"/>
<text text-anchor="start" x="671" y="-197.2" font-family="Helvetica,sans-Serif" font-size="11.00">numeric[10]</text>
<polygon fill="none" stroke="black" points="461,-167 461,-189 668,-189 668,-167 461,-167"/>
<text text-anchor="start" x="481" y="-175.2" font-family="Helvetica,sans-Serif" font-size="11.00">qty</text>
<polygon fill="none" stroke="black" points="668,-167 668,-189 751,-189 751,-167 668,-167"/>
<text text-anchor="start" x="671" y="-175.2" font-family="Helvetica,sans-Serif" font-size="11.00">numeric[0]</text>
<polygon fill="none" stroke="black" points="461,-145 461,-167 668,-167 668,-145 461,-145"/>
<text text-anchor="start" x="481" y="-153.2" font-family="Helvetica,sans-Serif" font-size="11.00">rewardtype</text>
<polygon fill="none" stroke="black" points="668,-145 668,-167 751,-167 751,-145 668,-145"/>
<text text-anchor="start" x="671" y="-153.2" font-family="Helvetica,sans-Serif" font-size="11.00">bpchar[1]</text>
<polygon fill="none" stroke="black" points="461,-123 461,-145 668,-145 668,-123 461,-123"/>
<text text-anchor="start" x="481" y="-131.2" font-family="Helvetica,sans-Serif" font-size="11.00">seqno</text>
<polygon fill="none" stroke="black" points="668,-123 668,-145 751,-145 751,-123 668,-123"/>
<text text-anchor="start" x="671" y="-131.2" font-family="Helvetica,sans-Serif" font-size="11.00">numeric[10]</text>
<polygon fill="none" stroke="black" points="461,-101 461,-123 668,-123 668,-101 461,-101"/>
<text text-anchor="start" x="481" y="-109.2" font-family="Helvetica,sans-Serif" font-size="11.00">updated</text>
<polygon fill="none" stroke="black" points="668,-101 668,-123 751,-123 751,-101 668,-101"/>
<text text-anchor="start" x="671" y="-109.2" font-family="Helvetica,sans-Serif" font-size="11.00">timestamp[29,6]</text>
<polygon fill="none" stroke="black" points="461,-79 461,-101 668,-101 668,-79 461,-79"/>
<text text-anchor="start" x="481" y="-87.2" font-family="Helvetica,sans-Serif" font-size="11.00">updatedby</text>
<polygon fill="none" stroke="black" points="668,-79 668,-101 751,-101 751,-79 668,-79"/>
<text text-anchor="start" x="671" y="-87.2" font-family="Helvetica,sans-Serif" font-size="11.00">numeric[10]</text>
<polygon fill="#ffffff" stroke="transparent" points="461,-57 461,-79 668,-79 668,-57 461,-57"/>
<polygon fill="none" stroke="black" points="461,-57 461,-79 668,-79 668,-57 461,-57"/>
<text text-anchor="start" x="481" y="-65.2" font-family="Helvetica,sans-Serif" font-size="11.00">m_promotionreward_uu</text>
<polygon fill="none" stroke="black" points="668,-57 668,-79 751,-79 751,-57 668,-57"/>
<text text-anchor="start" x="671" y="-65.2" font-family="Helvetica,sans-Serif" font-size="11.00">varchar[36]</text>
<polygon fill="#ffffff" stroke="transparent" points="461,-39 461,-57 556,-57 556,-39 461,-39"/>
<polygon fill="none" stroke="black" points="461,-39 461,-57 556,-57 556,-39 461,-39"/>
<text text-anchor="start" x="464" y="-45.2" font-family="Helvetica,sans-Serif" font-size="11.00">&lt; 4</text>
<polygon fill="#ffffff" stroke="transparent" points="556,-39 556,-57 668,-57 668,-39 556,-39"/>
<polygon fill="none" stroke="black" points="556,-39 556,-57 668,-57 668,-39 556,-39"/>
<text text-anchor="start" x="632" y="-45.2" font-family="Helvetica,sans-Serif" font-size="11.00">0 rows</text>
<polygon fill="#ffffff" stroke="transparent" points="668,-39 668,-57 751,-57 751,-39 668,-39"/>
<polygon fill="none" stroke="black" points="668,-39 668,-57 751,-57 751,-39 668,-39"/>
<text text-anchor="start" x="732" y="-45.2" font-family="Helvetica,sans-Serif" font-size="11.00">0 &gt;</text>
<polygon fill="none" stroke="black" stroke-width="2" points="460,-38 460,-520 752,-520 752,-38 460,-38"/>
</a>
</g>
</g>
<!-- m_promotionreward&#45;&gt;m_promotiondistribution -->
<g id="edge4" class="edge">
<title>m_promotionreward:w&#45;&gt;m_promotiondistribution:e</title>
<path fill="none" stroke="black" d="M446.05,-261.69C433.81,-252.74 431.31,-233 411,-233"/>
<polygon fill="black" stroke="black" points="452.36,-263.64 458.94,-269.44 456.18,-264.82 460,-266 460,-266 460,-266 456.18,-264.82 461.06,-262.56 452.36,-263.64 452.36,-263.64"/>
<ellipse fill="none" stroke="black" cx="449.3" cy="-262.69" rx="3.2" ry="3.2"/>
</g>
<!-- m_promotionreward&#45;&gt;m_promotiondistribution -->
<g id="edge5" class="edge">
<title>m_promotionreward:w&#45;&gt;m_promotiondistribution:e</title>
<path fill="none" stroke="black" d="M446.05,-204.31C433.81,-213.26 431.31,-233 411,-233"/>
<polygon fill="black" stroke="black" points="452.36,-202.36 461.06,-203.44 456.18,-201.18 460,-200 460,-200 460,-200 456.18,-201.18 458.94,-196.56 452.36,-202.36 452.36,-202.36"/>
<ellipse fill="none" stroke="black" cx="449.3" cy="-203.31" rx="3.2" ry="3.2"/>
</g>
<!-- m_promotionreward&#45;&gt;m_promotion -->
<g id="edge3" class="edge">
<title>m_promotionreward:w&#45;&gt;m_promotion:e</title>
<path fill="none" stroke="black" d="M445.69,-219.02C417.73,-203.99 457.01,-136.12 418,-109 334.8,-51.16 285.26,-74.44 190,-109 168.5,-116.8 173.38,-142 150.5,-142"/>
<polygon fill="black" stroke="black" points="452.17,-220.37 459.27,-225.52 456.08,-221.19 460,-222 460,-222 460,-222 456.08,-221.19 460.73,-218.48 452.17,-220.37 452.17,-220.37"/>
<ellipse fill="none" stroke="black" cx="449.03" cy="-219.72" rx="3.2" ry="3.2"/>
</g>
<!-- c_charge -->
<g id="node4" class="node">
<title>c_charge</title>
<g id="a_node4"><a xlink:href="../../tables/c_charge.html" xlink:title="c_charge" target="_top">
<polygon fill="#ffffff" stroke="transparent" points="216,-287 216,-521 392,-521 392,-287 216,-287"/>
<polygon fill="#f5f5f5" stroke="transparent" points="216,-499 216,-521 392,-521 392,-499 216,-499"/>
<polygon fill="none" stroke="black" points="216,-499 216,-521 392,-521 392,-499 216,-499"/>
<text text-anchor="start" x="221" y="-508.2" font-family="Helvetica,sans-Serif" font-weight="bold" font-size="11.00">c_charge</text>
<text text-anchor="start" x="357" y="-507.2" font-family="Helvetica,sans-Serif" font-size="11.00">[table]</text>
<polygon fill="none" stroke="black" points="216,-477 216,-499 392,-499 392,-477 216,-477"/>
<image xlink:href="../../images/primaryKeys.png" width="11px" height="12px" preserveAspectRatio="xMinYMin meet" x="221" y="-494"/>
<text text-anchor="start" x="236" y="-485.2" font-family="Helvetica,sans-Serif" font-size="11.00">c_charge_id</text>
<polygon fill="#ffffff" stroke="transparent" points="216,-455 216,-477 392,-477 392,-455 216,-455"/>
<polygon fill="none" stroke="black" points="216,-455 216,-477 392,-477 392,-455 216,-455"/>
<text text-anchor="start" x="236" y="-463.2" font-family="Helvetica,sans-Serif" font-size="11.00">ad_client_id</text>
<polygon fill="#ffffff" stroke="transparent" points="216,-433 216,-455 392,-455 392,-433 216,-433"/>
<polygon fill="none" stroke="black" points="216,-433 216,-455 392,-455 392,-433 216,-433"/>
<text text-anchor="start" x="236" y="-441.2" font-family="Helvetica,sans-Serif" font-size="11.00">name</text>
<polygon fill="none" stroke="black" points="216,-411 216,-433 392,-433 392,-411 216,-411"/>
<image xlink:href="../../images/foreignKeys.png" width="11px" height="12px" preserveAspectRatio="xMinYMin meet" x="221" y="-428"/>
<text text-anchor="start" x="236" y="-419.2" font-family="Helvetica,sans-Serif" font-size="11.00">c_taxcategory_id</text>
<polygon fill="none" stroke="black" points="216,-389 216,-411 392,-411 392,-389 216,-389"/>
<image xlink:href="../../images/foreignKeys.png" width="11px" height="12px" preserveAspectRatio="xMinYMin meet" x="221" y="-406"/>
<text text-anchor="start" x="236" y="-397.2" font-family="Helvetica,sans-Serif" font-size="11.00">c_bpartner_id</text>
<polygon fill="none" stroke="black" points="216,-367 216,-389 392,-389 392,-367 216,-367"/>
<image xlink:href="../../images/foreignKeys.png" width="11px" height="12px" preserveAspectRatio="xMinYMin meet" x="221" y="-384"/>
<text text-anchor="start" x="236" y="-375.2" font-family="Helvetica,sans-Serif" font-size="11.00">c_chargetype_id</text>
<polygon fill="#ffffff" stroke="transparent" points="216,-345 216,-367 392,-367 392,-345 216,-345"/>
<polygon fill="none" stroke="black" points="216,-345 216,-367 392,-367 392,-345 216,-345"/>
<text text-anchor="start" x="236" y="-353.2" font-family="Helvetica,sans-Serif" font-size="11.00">c_charge_uu</text>
<polygon fill="none" stroke="black" points="216,-323 216,-345 392,-345 392,-323 216,-323"/>
<image xlink:href="../../images/foreignKeys.png" width="11px" height="12px" preserveAspectRatio="xMinYMin meet" x="221" y="-340"/>
<text text-anchor="start" x="236" y="-331.2" font-family="Helvetica,sans-Serif" font-size="11.00">lbr_productcategory_id</text>
<polygon fill="none" stroke="black" points="216,-305 216,-323 392,-323 392,-305 216,-305"/>
<text text-anchor="start" x="219" y="-311.2" font-family="Helvetica,sans-Serif" font-size="11.00">...</text>
<polygon fill="#ffffff" stroke="transparent" points="216,-287 216,-305 275,-305 275,-287 216,-287"/>
<polygon fill="none" stroke="black" points="216,-287 216,-305 275,-305 275,-287 216,-287"/>
<text text-anchor="start" x="219" y="-293.2" font-family="Helvetica,sans-Serif" font-size="11.00">&lt; 3</text>
<polygon fill="#ffffff" stroke="transparent" points="275,-287 275,-305 345,-305 345,-287 275,-287"/>
<polygon fill="none" stroke="black" points="275,-287 275,-305 345,-305 345,-287 275,-287"/>
<text text-anchor="start" x="297" y="-293.2" font-family="Helvetica,sans-Serif" font-size="11.00">266 rows</text>
<polygon fill="#ffffff" stroke="transparent" points="345,-287 345,-305 392,-305 392,-287 345,-287"/>
<polygon fill="none" stroke="black" points="345,-287 345,-305 392,-305 392,-287 345,-287"/>
<text text-anchor="start" x="367" y="-293.2" font-family="Helvetica,sans-Serif" font-size="11.00">37 &gt;</text>
</a>
</g>
</g>
<!-- m_promotionreward&#45;&gt;c_charge -->
<g id="edge2" class="edge">
<title>m_promotionreward:w&#45;&gt;c_charge:e</title>
<path fill="none" stroke="black" d="M445.67,-423.47C421.33,-437.32 429.63,-488 393,-488"/>
<polygon fill="black" stroke="black" points="452.22,-421.88 460.85,-423.5 456.11,-420.94 460,-420 460,-420 460,-420 456.11,-420.94 459.15,-416.5 452.22,-421.88 452.22,-421.88"/>
<ellipse fill="none" stroke="black" cx="449.11" cy="-422.63" rx="3.2" ry="3.2"/>
</g>
</g>
</svg>
