<?xml version="1.0" encoding="UTF-8" standalone="no"?>
<!DOCTYPE svg PUBLIC "-//W3C//DTD SVG 1.1//EN"
 "http://www.w3.org/Graphics/SVG/1.1/DTD/svg11.dtd">
<!-- Generated by graphviz version 2.43.0 (0)
 -->
<!-- Title: oneDegreeRelationshipsDiagramImplied Pages: 1 -->
<svg width="543pt" height="1226pt"
 viewBox="0.00 0.00 543.00 1226.00" xmlns="http://www.w3.org/2000/svg" xmlns:xlink="http://www.w3.org/1999/xlink">
<g id="graph0" class="graph" transform="scale(1 1) rotate(0) translate(4 1222)">
<title>oneDegreeRelationshipsDiagramImplied</title>
<polygon fill="#ffffff" stroke="transparent" points="-4,4 -4,-1222 539,-1222 539,4 -4,4"/>
<text text-anchor="middle" x="71.5" y="-7.2" font-family="Helvetica,sans-Serif" font-size="11.00">Generated by SchemaSpy</text>
<!-- m_product_stock_v -->
<g id="node1" class="node">
<title>m_product_stock_v</title>
<g id="a_node1"><a xlink:href="../../tables/m_product_stock_v.html" xlink:title="m_product_stock_v" target="_top">
<polygon fill="#ffffff" stroke="transparent" points="292,-814 292,-1214 527,-1214 527,-814 292,-814"/>
<polygon fill="#f5f5f5" stroke="transparent" points="294.5,-1190 294.5,-1212 525.5,-1212 525.5,-1190 294.5,-1190"/>
<polygon fill="none" stroke="black" points="294.5,-1190 294.5,-1212 525.5,-1212 525.5,-1190 294.5,-1190"/>
<text text-anchor="start" x="299.5" y="-1199.2" font-family="Helvetica,sans-Serif" font-weight="bold" font-size="11.00">m_product_stock_v</text>
<text text-anchor="start" x="492.5" y="-1198.2" font-family="Helvetica,sans-Serif" font-size="11.00">[view]</text>
<polygon fill="none" stroke="black" points="294.5,-1168 294.5,-1190 442.5,-1190 442.5,-1168 294.5,-1168"/>
<text text-anchor="start" x="314.5" y="-1176.2" font-family="Helvetica,sans-Serif" font-size="11.00">isactive</text>
<polygon fill="none" stroke="black" points="442.5,-1168 442.5,-1190 525.5,-1190 525.5,-1168 442.5,-1168"/>
<text text-anchor="start" x="445.5" y="-1176.2" font-family="Helvetica,sans-Serif" font-size="11.00">bpchar[1]</text>
<polygon fill="none" stroke="black" points="294.5,-1146 294.5,-1168 442.5,-1168 442.5,-1146 294.5,-1146"/>
<text text-anchor="start" x="314.5" y="-1154.2" font-family="Helvetica,sans-Serif" font-size="11.00">created</text>
<polygon fill="none" stroke="black" points="442.5,-1146 442.5,-1168 525.5,-1168 525.5,-1146 442.5,-1146"/>
<text text-anchor="start" x="445.5" y="-1154.2" font-family="Helvetica,sans-Serif" font-size="11.00">timestamp[29,6]</text>
<polygon fill="none" stroke="black" points="294.5,-1124 294.5,-1146 442.5,-1146 442.5,-1124 294.5,-1124"/>
<text text-anchor="start" x="314.5" y="-1132.2" font-family="Helvetica,sans-Serif" font-size="11.00">createdby</text>
<polygon fill="none" stroke="black" points="442.5,-1124 442.5,-1146 525.5,-1146 525.5,-1124 442.5,-1124"/>
<text text-anchor="start" x="445.5" y="-1132.2" font-family="Helvetica,sans-Serif" font-size="11.00">numeric[10]</text>
<polygon fill="none" stroke="black" points="294.5,-1102 294.5,-1124 442.5,-1124 442.5,-1102 294.5,-1102"/>
<text text-anchor="start" x="314.5" y="-1110.2" font-family="Helvetica,sans-Serif" font-size="11.00">updated</text>
<polygon fill="none" stroke="black" points="442.5,-1102 442.5,-1124 525.5,-1124 525.5,-1102 442.5,-1102"/>
<text text-anchor="start" x="445.5" y="-1110.2" font-family="Helvetica,sans-Serif" font-size="11.00">timestamp[29,6]</text>
<polygon fill="none" stroke="black" points="294.5,-1080 294.5,-1102 442.5,-1102 442.5,-1080 294.5,-1080"/>
<text text-anchor="start" x="314.5" y="-1088.2" font-family="Helvetica,sans-Serif" font-size="11.00">updatedby</text>
<polygon fill="none" stroke="black" points="442.5,-1080 442.5,-1102 525.5,-1102 525.5,-1080 442.5,-1080"/>
<text text-anchor="start" x="445.5" y="-1088.2" font-family="Helvetica,sans-Serif" font-size="11.00">numeric[10]</text>
<polygon fill="none" stroke="black" points="294.5,-1058 294.5,-1080 442.5,-1080 442.5,-1058 294.5,-1058"/>
<text text-anchor="start" x="314.5" y="-1066.2" font-family="Helvetica,sans-Serif" font-size="11.00">value</text>
<polygon fill="none" stroke="black" points="442.5,-1058 442.5,-1080 525.5,-1080 525.5,-1058 442.5,-1058"/>
<text text-anchor="start" x="445.5" y="-1066.2" font-family="Helvetica,sans-Serif" font-size="11.00">varchar[510]</text>
<polygon fill="none" stroke="black" points="294.5,-1036 294.5,-1058 442.5,-1058 442.5,-1036 294.5,-1036"/>
<text text-anchor="start" x="314.5" y="-1044.2" font-family="Helvetica,sans-Serif" font-size="11.00">help</text>
<polygon fill="none" stroke="black" points="442.5,-1036 442.5,-1058 525.5,-1058 525.5,-1036 442.5,-1036"/>
<text text-anchor="start" x="445.5" y="-1044.2" font-family="Helvetica,sans-Serif" font-size="11.00">varchar[2000]</text>
<polygon fill="none" stroke="black" points="294.5,-1014 294.5,-1036 442.5,-1036 442.5,-1014 294.5,-1014"/>
<text text-anchor="start" x="314.5" y="-1022.2" font-family="Helvetica,sans-Serif" font-size="11.00">qtyavailable</text>
<polygon fill="none" stroke="black" points="442.5,-1014 442.5,-1036 525.5,-1036 525.5,-1014 442.5,-1014"/>
<text text-anchor="start" x="445.5" y="-1022.2" font-family="Helvetica,sans-Serif" font-size="11.00">numeric[0]</text>
<polygon fill="none" stroke="black" points="294.5,-992 294.5,-1014 442.5,-1014 442.5,-992 294.5,-992"/>
<text text-anchor="start" x="314.5" y="-1000.2" font-family="Helvetica,sans-Serif" font-size="11.00">qtyonhand</text>
<polygon fill="none" stroke="black" points="442.5,-992 442.5,-1014 525.5,-1014 525.5,-992 442.5,-992"/>
<text text-anchor="start" x="445.5" y="-1000.2" font-family="Helvetica,sans-Serif" font-size="11.00">numeric[0]</text>
<polygon fill="none" stroke="black" points="294.5,-970 294.5,-992 442.5,-992 442.5,-970 294.5,-970"/>
<text text-anchor="start" x="314.5" y="-978.2" font-family="Helvetica,sans-Serif" font-size="11.00">qtyreserved</text>
<polygon fill="none" stroke="black" points="442.5,-970 442.5,-992 525.5,-992 525.5,-970 442.5,-970"/>
<text text-anchor="start" x="445.5" y="-978.2" font-family="Helvetica,sans-Serif" font-size="11.00">numeric[0]</text>
<polygon fill="none" stroke="black" points="294.5,-948 294.5,-970 442.5,-970 442.5,-948 294.5,-948"/>
<text text-anchor="start" x="314.5" y="-956.2" font-family="Helvetica,sans-Serif" font-size="11.00">description</text>
<polygon fill="none" stroke="black" points="442.5,-948 442.5,-970 525.5,-970 525.5,-948 442.5,-948"/>
<text text-anchor="start" x="445.5" y="-956.2" font-family="Helvetica,sans-Serif" font-size="11.00">varchar[255]</text>
<polygon fill="none" stroke="black" points="294.5,-926 294.5,-948 442.5,-948 442.5,-926 294.5,-926"/>
<text text-anchor="start" x="314.5" y="-934.2" font-family="Helvetica,sans-Serif" font-size="11.00">warehouse</text>
<polygon fill="none" stroke="black" points="442.5,-926 442.5,-948 525.5,-948 525.5,-926 442.5,-926"/>
<text text-anchor="start" x="445.5" y="-934.2" font-family="Helvetica,sans-Serif" font-size="11.00">varchar[60]</text>
<polygon fill="none" stroke="black" points="294.5,-904 294.5,-926 442.5,-926 442.5,-904 294.5,-904"/>
<image xlink:href="../../images/foreignKeys.png" width="11px" height="12px" preserveAspectRatio="xMinYMin meet" x="299.5" y="-921"/>
<text text-anchor="start" x="314.5" y="-912.2" font-family="Helvetica,sans-Serif" font-size="11.00">m_warehouse_id</text>
<polygon fill="none" stroke="black" points="442.5,-904 442.5,-926 525.5,-926 525.5,-904 442.5,-904"/>
<text text-anchor="start" x="445.5" y="-912.2" font-family="Helvetica,sans-Serif" font-size="11.00">numeric[10]</text>
<polygon fill="none" stroke="black" points="294.5,-882 294.5,-904 442.5,-904 442.5,-882 294.5,-882"/>
<text text-anchor="start" x="314.5" y="-890.2" font-family="Helvetica,sans-Serif" font-size="11.00">ad_client_id</text>
<polygon fill="none" stroke="black" points="442.5,-882 442.5,-904 525.5,-904 525.5,-882 442.5,-882"/>
<text text-anchor="start" x="445.5" y="-890.2" font-family="Helvetica,sans-Serif" font-size="11.00">numeric[10]</text>
<polygon fill="none" stroke="black" points="294.5,-860 294.5,-882 442.5,-882 442.5,-860 294.5,-860"/>
<text text-anchor="start" x="314.5" y="-868.2" font-family="Helvetica,sans-Serif" font-size="11.00">ad_org_id</text>
<polygon fill="none" stroke="black" points="442.5,-860 442.5,-882 525.5,-882 525.5,-860 442.5,-860"/>
<text text-anchor="start" x="445.5" y="-868.2" font-family="Helvetica,sans-Serif" font-size="11.00">numeric[10]</text>
<polygon fill="none" stroke="black" points="294.5,-838 294.5,-860 442.5,-860 442.5,-838 294.5,-838"/>
<text text-anchor="start" x="314.5" y="-846.2" font-family="Helvetica,sans-Serif" font-size="11.00">documentnote</text>
<polygon fill="none" stroke="black" points="442.5,-838 442.5,-860 525.5,-860 525.5,-838 442.5,-838"/>
<text text-anchor="start" x="445.5" y="-846.2" font-family="Helvetica,sans-Serif" font-size="11.00">varchar[2000]</text>
<polygon fill="none" stroke="black" points="294.5,-816 294.5,-838 442.5,-838 442.5,-816 294.5,-816"/>
<image xlink:href="../../images/foreignKeys.png" width="11px" height="12px" preserveAspectRatio="xMinYMin meet" x="299.5" y="-833"/>
<text text-anchor="start" x="314.5" y="-824.2" font-family="Helvetica,sans-Serif" font-size="11.00">m_product_id</text>
<polygon fill="none" stroke="black" points="442.5,-816 442.5,-838 525.5,-838 525.5,-816 442.5,-816"/>
<text text-anchor="start" x="445.5" y="-824.2" font-family="Helvetica,sans-Serif" font-size="11.00">numeric[10]</text>
<polygon fill="none" stroke="black" stroke-width="2" points="293,-815 293,-1213 526,-1213 526,-815 293,-815"/>
</a>
</g>
</g>
<!-- m_product -->
<g id="node2" class="node">
<title>m_product</title>
<g id="a_node2"><a xlink:href="../../tables/m_product.html" xlink:title="m_product" target="_top">
<polygon fill="#ffffff" stroke="transparent" points="8,-37 8,-777 243,-777 243,-37 8,-37"/>
<polygon fill="#f5f5f5" stroke="transparent" points="8.5,-755 8.5,-777 243.5,-777 243.5,-755 8.5,-755"/>
<polygon fill="none" stroke="black" points="8.5,-755 8.5,-777 243.5,-777 243.5,-755 8.5,-755"/>
<text text-anchor="start" x="13.5" y="-764.2" font-family="Helvetica,sans-Serif" font-weight="bold" font-size="11.00">m_product</text>
<text text-anchor="start" x="208.5" y="-763.2" font-family="Helvetica,sans-Serif" font-size="11.00">[table]</text>
<polygon fill="none" stroke="black" points="8.5,-733 8.5,-755 243.5,-755 243.5,-733 8.5,-733"/>
<image xlink:href="../../images/primaryKeys.png" width="11px" height="12px" preserveAspectRatio="xMinYMin meet" x="13.5" y="-750"/>
<text text-anchor="start" x="28.5" y="-741.2" font-family="Helvetica,sans-Serif" font-size="11.00">m_product_id</text>
<polygon fill="#ffffff" stroke="transparent" points="8.5,-711 8.5,-733 243.5,-733 243.5,-711 8.5,-711"/>
<polygon fill="none" stroke="black" points="8.5,-711 8.5,-733 243.5,-733 243.5,-711 8.5,-711"/>
<image xlink:href="../../images/foreignKeys.png" width="11px" height="12px" preserveAspectRatio="xMinYMin meet" x="13.5" y="-728"/>
<text text-anchor="start" x="28.5" y="-719.2" font-family="Helvetica,sans-Serif" font-size="11.00">ad_client_id</text>
<polygon fill="none" stroke="black" points="8.5,-689 8.5,-711 243.5,-711 243.5,-689 8.5,-689"/>
<image xlink:href="../../images/foreignKeys.png" width="11px" height="12px" preserveAspectRatio="xMinYMin meet" x="13.5" y="-706"/>
<text text-anchor="start" x="28.5" y="-697.2" font-family="Helvetica,sans-Serif" font-size="11.00">ad_org_id</text>
<polygon fill="#ffffff" stroke="transparent" points="8.5,-667 8.5,-689 243.5,-689 243.5,-667 8.5,-667"/>
<polygon fill="none" stroke="black" points="8.5,-667 8.5,-689 243.5,-689 243.5,-667 8.5,-667"/>
<text text-anchor="start" x="28.5" y="-675.2" font-family="Helvetica,sans-Serif" font-size="11.00">value</text>
<polygon fill="#ffffff" stroke="transparent" points="8.5,-645 8.5,-667 243.5,-667 243.5,-645 8.5,-645"/>
<polygon fill="none" stroke="black" points="8.5,-645 8.5,-667 243.5,-667 243.5,-645 8.5,-645"/>
<text text-anchor="start" x="28.5" y="-653.2" font-family="Helvetica,sans-Serif" font-size="11.00">name</text>
<polygon fill="#ffffff" stroke="transparent" points="8.5,-623 8.5,-645 243.5,-645 243.5,-623 8.5,-623"/>
<polygon fill="none" stroke="black" points="8.5,-623 8.5,-645 243.5,-645 243.5,-623 8.5,-623"/>
<text text-anchor="start" x="28.5" y="-631.2" font-family="Helvetica,sans-Serif" font-size="11.00">upc</text>
<polygon fill="none" stroke="black" points="8.5,-601 8.5,-623 243.5,-623 243.5,-601 8.5,-601"/>
<image xlink:href="../../images/foreignKeys.png" width="11px" height="12px" preserveAspectRatio="xMinYMin meet" x="13.5" y="-618"/>
<text text-anchor="start" x="28.5" y="-609.2" font-family="Helvetica,sans-Serif" font-size="11.00">c_uom_id</text>
<polygon fill="none" stroke="black" points="8.5,-579 8.5,-601 243.5,-601 243.5,-579 8.5,-579"/>
<image xlink:href="../../images/foreignKeys.png" width="11px" height="12px" preserveAspectRatio="xMinYMin meet" x="13.5" y="-596"/>
<text text-anchor="start" x="28.5" y="-587.2" font-family="Helvetica,sans-Serif" font-size="11.00">salesrep_id</text>
<polygon fill="none" stroke="black" points="8.5,-557 8.5,-579 243.5,-579 243.5,-557 8.5,-557"/>
<image xlink:href="../../images/foreignKeys.png" width="11px" height="12px" preserveAspectRatio="xMinYMin meet" x="13.5" y="-574"/>
<text text-anchor="start" x="28.5" y="-565.2" font-family="Helvetica,sans-Serif" font-size="11.00">c_revenuerecognition_id</text>
<polygon fill="#ffffff" stroke="transparent" points="8.5,-535 8.5,-557 243.5,-557 243.5,-535 8.5,-535"/>
<polygon fill="none" stroke="black" points="8.5,-535 8.5,-557 243.5,-557 243.5,-535 8.5,-535"/>
<image xlink:href="../../images/foreignKeys.png" width="11px" height="12px" preserveAspectRatio="xMinYMin meet" x="13.5" y="-552"/>
<text text-anchor="start" x="28.5" y="-543.2" font-family="Helvetica,sans-Serif" font-size="11.00">m_product_category_id</text>
<polygon fill="none" stroke="black" points="8.5,-513 8.5,-535 243.5,-535 243.5,-513 8.5,-513"/>
<image xlink:href="../../images/foreignKeys.png" width="11px" height="12px" preserveAspectRatio="xMinYMin meet" x="13.5" y="-530"/>
<text text-anchor="start" x="28.5" y="-521.2" font-family="Helvetica,sans-Serif" font-size="11.00">c_taxcategory_id</text>
<polygon fill="#ffffff" stroke="transparent" points="8.5,-491 8.5,-513 243.5,-513 243.5,-491 8.5,-491"/>
<polygon fill="none" stroke="black" points="8.5,-491 8.5,-513 243.5,-513 243.5,-491 8.5,-491"/>
<image xlink:href="../../images/foreignKeys.png" width="11px" height="12px" preserveAspectRatio="xMinYMin meet" x="13.5" y="-508"/>
<text text-anchor="start" x="28.5" y="-499.2" font-family="Helvetica,sans-Serif" font-size="11.00">s_resource_id</text>
<polygon fill="#ffffff" stroke="transparent" points="8.5,-469 8.5,-491 243.5,-491 243.5,-469 8.5,-469"/>
<polygon fill="none" stroke="black" points="8.5,-469 8.5,-491 243.5,-491 243.5,-469 8.5,-469"/>
<image xlink:href="../../images/foreignKeys.png" width="11px" height="12px" preserveAspectRatio="xMinYMin meet" x="13.5" y="-486"/>
<text text-anchor="start" x="28.5" y="-477.2" font-family="Helvetica,sans-Serif" font-size="11.00">s_expensetype_id</text>
<polygon fill="none" stroke="black" points="8.5,-447 8.5,-469 243.5,-469 243.5,-447 8.5,-447"/>
<image xlink:href="../../images/foreignKeys.png" width="11px" height="12px" preserveAspectRatio="xMinYMin meet" x="13.5" y="-464"/>
<text text-anchor="start" x="28.5" y="-455.2" font-family="Helvetica,sans-Serif" font-size="11.00">r_mailtext_id</text>
<polygon fill="none" stroke="black" points="8.5,-425 8.5,-447 243.5,-447 243.5,-425 8.5,-425"/>
<image xlink:href="../../images/foreignKeys.png" width="11px" height="12px" preserveAspectRatio="xMinYMin meet" x="13.5" y="-442"/>
<text text-anchor="start" x="28.5" y="-433.2" font-family="Helvetica,sans-Serif" font-size="11.00">m_attributeset_id</text>
<polygon fill="none" stroke="black" points="8.5,-403 8.5,-425 243.5,-425 243.5,-403 8.5,-403"/>
<image xlink:href="../../images/foreignKeys.png" width="11px" height="12px" preserveAspectRatio="xMinYMin meet" x="13.5" y="-420"/>
<text text-anchor="start" x="28.5" y="-411.2" font-family="Helvetica,sans-Serif" font-size="11.00">m_attributesetinstance_id</text>
<polygon fill="none" stroke="black" points="8.5,-381 8.5,-403 243.5,-403 243.5,-381 8.5,-381"/>
<image xlink:href="../../images/foreignKeys.png" width="11px" height="12px" preserveAspectRatio="xMinYMin meet" x="13.5" y="-398"/>
<text text-anchor="start" x="28.5" y="-389.2" font-family="Helvetica,sans-Serif" font-size="11.00">m_freightcategory_id</text>
<polygon fill="none" stroke="black" points="8.5,-359 8.5,-381 243.5,-381 243.5,-359 8.5,-359"/>
<image xlink:href="../../images/foreignKeys.png" width="11px" height="12px" preserveAspectRatio="xMinYMin meet" x="13.5" y="-376"/>
<text text-anchor="start" x="28.5" y="-367.2" font-family="Helvetica,sans-Serif" font-size="11.00">m_locator_id</text>
<polygon fill="none" stroke="black" points="8.5,-337 8.5,-359 243.5,-359 243.5,-337 8.5,-337"/>
<image xlink:href="../../images/foreignKeys.png" width="11px" height="12px" preserveAspectRatio="xMinYMin meet" x="13.5" y="-354"/>
<text text-anchor="start" x="28.5" y="-345.2" font-family="Helvetica,sans-Serif" font-size="11.00">c_subscriptiontype_id</text>
<polygon fill="#ffffff" stroke="transparent" points="8.5,-315 8.5,-337 243.5,-337 243.5,-315 8.5,-315"/>
<polygon fill="none" stroke="black" points="8.5,-315 8.5,-337 243.5,-337 243.5,-315 8.5,-315"/>
<text text-anchor="start" x="28.5" y="-323.2" font-family="Helvetica,sans-Serif" font-size="11.00">m_product_uu</text>
<polygon fill="none" stroke="black" points="8.5,-293 8.5,-315 243.5,-315 243.5,-293 8.5,-293"/>
<image xlink:href="../../images/foreignKeys.png" width="11px" height="12px" preserveAspectRatio="xMinYMin meet" x="13.5" y="-310"/>
<text text-anchor="start" x="28.5" y="-301.2" font-family="Helvetica,sans-Serif" font-size="11.00">m_parttype_id</text>
<polygon fill="none" stroke="black" points="8.5,-271 8.5,-293 243.5,-293 243.5,-271 8.5,-271"/>
<image xlink:href="../../images/foreignKeys.png" width="11px" height="12px" preserveAspectRatio="xMinYMin meet" x="13.5" y="-288"/>
<text text-anchor="start" x="28.5" y="-279.2" font-family="Helvetica,sans-Serif" font-size="11.00">lbr_productcategory_id</text>
<polygon fill="none" stroke="black" points="8.5,-249 8.5,-271 243.5,-271 243.5,-249 8.5,-249"/>
<image xlink:href="../../images/foreignKeys.png" width="11px" height="12px" preserveAspectRatio="xMinYMin meet" x="13.5" y="-266"/>
<text text-anchor="start" x="28.5" y="-257.2" font-family="Helvetica,sans-Serif" font-size="11.00">lbr_ncm_id</text>
<polygon fill="none" stroke="black" points="8.5,-227 8.5,-249 243.5,-249 243.5,-227 8.5,-227"/>
<image xlink:href="../../images/foreignKeys.png" width="11px" height="12px" preserveAspectRatio="xMinYMin meet" x="13.5" y="-244"/>
<text text-anchor="start" x="28.5" y="-235.2" font-family="Helvetica,sans-Serif" font-size="11.00">lbr_fiscalgroup_product_id</text>
<polygon fill="none" stroke="black" points="8.5,-205 8.5,-227 243.5,-227 243.5,-205 8.5,-205"/>
<image xlink:href="../../images/foreignKeys.png" width="11px" height="12px" preserveAspectRatio="xMinYMin meet" x="13.5" y="-222"/>
<text text-anchor="start" x="28.5" y="-213.2" font-family="Helvetica,sans-Serif" font-size="11.00">cof_cest_id</text>
<polygon fill="none" stroke="black" points="8.5,-183 8.5,-205 243.5,-205 243.5,-183 8.5,-183"/>
<image xlink:href="../../images/foreignKeys.png" width="11px" height="12px" preserveAspectRatio="xMinYMin meet" x="13.5" y="-200"/>
<text text-anchor="start" x="28.5" y="-191.2" font-family="Helvetica,sans-Serif" font-size="11.00">cof_c_generoitem_sped_id</text>
<polygon fill="none" stroke="black" points="8.5,-161 8.5,-183 243.5,-183 243.5,-161 8.5,-161"/>
<image xlink:href="../../images/foreignKeys.png" width="11px" height="12px" preserveAspectRatio="xMinYMin meet" x="13.5" y="-178"/>
<text text-anchor="start" x="28.5" y="-169.2" font-family="Helvetica,sans-Serif" font-size="11.00">cof_producttype_id</text>
<polygon fill="none" stroke="black" points="8.5,-139 8.5,-161 243.5,-161 243.5,-139 8.5,-139"/>
<image xlink:href="../../images/foreignKeys.png" width="11px" height="12px" preserveAspectRatio="xMinYMin meet" x="13.5" y="-156"/>
<text text-anchor="start" x="28.5" y="-147.2" font-family="Helvetica,sans-Serif" font-size="11.00">cof_productclass_id</text>
<polygon fill="none" stroke="black" points="8.5,-117 8.5,-139 243.5,-139 243.5,-117 8.5,-117"/>
<image xlink:href="../../images/foreignKeys.png" width="11px" height="12px" preserveAspectRatio="xMinYMin meet" x="13.5" y="-134"/>
<text text-anchor="start" x="28.5" y="-125.2" font-family="Helvetica,sans-Serif" font-size="11.00">cof_productgroup_id</text>
<polygon fill="none" stroke="black" points="8.5,-95 8.5,-117 243.5,-117 243.5,-95 8.5,-95"/>
<image xlink:href="../../images/foreignKeys.png" width="11px" height="12px" preserveAspectRatio="xMinYMin meet" x="13.5" y="-112"/>
<text text-anchor="start" x="28.5" y="-103.2" font-family="Helvetica,sans-Serif" font-size="11.00">cof_nbs_id</text>
<polygon fill="none" stroke="black" points="8.5,-73 8.5,-95 243.5,-95 243.5,-73 8.5,-73"/>
<image xlink:href="../../images/foreignKeys.png" width="11px" height="12px" preserveAspectRatio="xMinYMin meet" x="13.5" y="-90"/>
<text text-anchor="start" x="28.5" y="-81.2" font-family="Helvetica,sans-Serif" font-size="11.00">cof_grupofornecedor_id</text>
<polygon fill="none" stroke="black" points="8.5,-55 8.5,-73 243.5,-73 243.5,-55 8.5,-55"/>
<text text-anchor="start" x="11.5" y="-61.2" font-family="Helvetica,sans-Serif" font-size="11.00">...</text>
<polygon fill="#ffffff" stroke="transparent" points="8.5,-37 8.5,-55 105.5,-55 105.5,-37 8.5,-37"/>
<polygon fill="none" stroke="black" points="8.5,-37 8.5,-55 105.5,-55 105.5,-37 8.5,-37"/>
<text text-anchor="start" x="11.5" y="-43.2" font-family="Helvetica,sans-Serif" font-size="11.00">&lt; 26</text>
<polygon fill="#ffffff" stroke="transparent" points="105.5,-37 105.5,-55 174.5,-55 174.5,-37 105.5,-37"/>
<polygon fill="none" stroke="black" points="105.5,-37 105.5,-55 174.5,-55 174.5,-37 105.5,-37"/>
<text text-anchor="start" x="143.5" y="-43.2" font-family="Helvetica,sans-Serif" font-size="11.00">1 row</text>
<polygon fill="#ffffff" stroke="transparent" points="174.5,-37 174.5,-55 243.5,-55 243.5,-37 174.5,-37"/>
<polygon fill="none" stroke="black" points="174.5,-37 174.5,-55 243.5,-55 243.5,-37 174.5,-37"/>
<text text-anchor="start" x="212.5" y="-43.2" font-family="Helvetica,sans-Serif" font-size="11.00">288 &gt;</text>
</a>
</g>
</g>
<!-- m_product_stock_v&#45;&gt;m_product -->
<g id="edge1" class="edge">
<title>m_product_stock_v:w&#45;&gt;m_product:e</title>
<path fill="none" stroke="black" stroke-dasharray="5,2" d="M279.7,-822.54C259.4,-805.3 281.31,-744 244.5,-744"/>
<polygon fill="black" stroke="black" points="285.89,-824.54 292.39,-830.43 289.69,-825.77 293.5,-827 293.5,-827 293.5,-827 289.69,-825.77 294.61,-823.57 285.89,-824.54 285.89,-824.54"/>
<ellipse fill="none" stroke="black" cx="282.84" cy="-823.55" rx="3.2" ry="3.2"/>
</g>
<!-- m_warehouse -->
<g id="node3" class="node">
<title>m_warehouse</title>
<g id="a_node3"><a xlink:href="../../tables/m_warehouse.html" xlink:title="m_warehouse" target="_top">
<polygon fill="#ffffff" stroke="transparent" points="37,-798 37,-1032 214,-1032 214,-798 37,-798"/>
<polygon fill="#f5f5f5" stroke="transparent" points="37.5,-1010 37.5,-1032 214.5,-1032 214.5,-1010 37.5,-1010"/>
<polygon fill="none" stroke="black" points="37.5,-1010 37.5,-1032 214.5,-1032 214.5,-1010 37.5,-1010"/>
<text text-anchor="start" x="42.5" y="-1019.2" font-family="Helvetica,sans-Serif" font-weight="bold" font-size="11.00">m_warehouse</text>
<text text-anchor="start" x="179.5" y="-1018.2" font-family="Helvetica,sans-Serif" font-size="11.00">[table]</text>
<polygon fill="none" stroke="black" points="37.5,-988 37.5,-1010 214.5,-1010 214.5,-988 37.5,-988"/>
<image xlink:href="../../images/primaryKeys.png" width="11px" height="12px" preserveAspectRatio="xMinYMin meet" x="42.5" y="-1005"/>
<text text-anchor="start" x="57.5" y="-996.2" font-family="Helvetica,sans-Serif" font-size="11.00">m_warehouse_id</text>
<polygon fill="#ffffff" stroke="transparent" points="37.5,-966 37.5,-988 214.5,-988 214.5,-966 37.5,-966"/>
<polygon fill="none" stroke="black" points="37.5,-966 37.5,-988 214.5,-988 214.5,-966 37.5,-966"/>
<image xlink:href="../../images/foreignKeys.png" width="11px" height="12px" preserveAspectRatio="xMinYMin meet" x="42.5" y="-983"/>
<text text-anchor="start" x="57.5" y="-974.2" font-family="Helvetica,sans-Serif" font-size="11.00">ad_client_id</text>
<polygon fill="none" stroke="black" points="37.5,-944 37.5,-966 214.5,-966 214.5,-944 37.5,-944"/>
<image xlink:href="../../images/foreignKeys.png" width="11px" height="12px" preserveAspectRatio="xMinYMin meet" x="42.5" y="-961"/>
<text text-anchor="start" x="57.5" y="-952.2" font-family="Helvetica,sans-Serif" font-size="11.00">ad_org_id</text>
<polygon fill="#ffffff" stroke="transparent" points="37.5,-922 37.5,-944 214.5,-944 214.5,-922 37.5,-922"/>
<polygon fill="none" stroke="black" points="37.5,-922 37.5,-944 214.5,-944 214.5,-922 37.5,-922"/>
<text text-anchor="start" x="57.5" y="-930.2" font-family="Helvetica,sans-Serif" font-size="11.00">name</text>
<polygon fill="none" stroke="black" points="37.5,-900 37.5,-922 214.5,-922 214.5,-900 37.5,-900"/>
<image xlink:href="../../images/foreignKeys.png" width="11px" height="12px" preserveAspectRatio="xMinYMin meet" x="42.5" y="-917"/>
<text text-anchor="start" x="57.5" y="-908.2" font-family="Helvetica,sans-Serif" font-size="11.00">c_location_id</text>
<polygon fill="none" stroke="black" points="37.5,-878 37.5,-900 214.5,-900 214.5,-878 37.5,-878"/>
<image xlink:href="../../images/foreignKeys.png" width="11px" height="12px" preserveAspectRatio="xMinYMin meet" x="42.5" y="-895"/>
<text text-anchor="start" x="57.5" y="-886.2" font-family="Helvetica,sans-Serif" font-size="11.00">m_warehousesource_id</text>
<polygon fill="#ffffff" stroke="transparent" points="37.5,-856 37.5,-878 214.5,-878 214.5,-856 37.5,-856"/>
<polygon fill="none" stroke="black" points="37.5,-856 37.5,-878 214.5,-878 214.5,-856 37.5,-856"/>
<text text-anchor="start" x="57.5" y="-864.2" font-family="Helvetica,sans-Serif" font-size="11.00">m_warehouse_uu</text>
<polygon fill="none" stroke="black" points="37.5,-834 37.5,-856 214.5,-856 214.5,-834 37.5,-834"/>
<image xlink:href="../../images/foreignKeys.png" width="11px" height="12px" preserveAspectRatio="xMinYMin meet" x="42.5" y="-851"/>
<text text-anchor="start" x="57.5" y="-842.2" font-family="Helvetica,sans-Serif" font-size="11.00">m_reservelocator_id</text>
<polygon fill="none" stroke="black" points="37.5,-816 37.5,-834 214.5,-834 214.5,-816 37.5,-816"/>
<text text-anchor="start" x="40.5" y="-822.2" font-family="Helvetica,sans-Serif" font-size="11.00">...</text>
<polygon fill="#ffffff" stroke="transparent" points="37.5,-798 37.5,-816 100.5,-816 100.5,-798 37.5,-798"/>
<polygon fill="none" stroke="black" points="37.5,-798 37.5,-816 100.5,-816 100.5,-798 37.5,-798"/>
<text text-anchor="start" x="40.5" y="-804.2" font-family="Helvetica,sans-Serif" font-size="11.00">&lt; 5</text>
<polygon fill="#ffffff" stroke="transparent" points="100.5,-798 100.5,-816 159.5,-816 159.5,-798 100.5,-798"/>
<polygon fill="none" stroke="black" points="100.5,-798 100.5,-816 159.5,-816 159.5,-798 100.5,-798"/>
<text text-anchor="start" x="123.5" y="-804.2" font-family="Helvetica,sans-Serif" font-size="11.00">8 rows</text>
<polygon fill="#ffffff" stroke="transparent" points="159.5,-798 159.5,-816 214.5,-816 214.5,-798 159.5,-798"/>
<polygon fill="none" stroke="black" points="159.5,-798 159.5,-816 214.5,-816 214.5,-798 159.5,-798"/>
<text text-anchor="start" x="183.5" y="-804.2" font-family="Helvetica,sans-Serif" font-size="11.00">118 &gt;</text>
</a>
</g>
</g>
<!-- m_product_stock_v&#45;&gt;m_warehouse -->
<g id="edge2" class="edge">
<title>m_product_stock_v:w&#45;&gt;m_warehouse:e</title>
<path fill="none" stroke="black" stroke-dasharray="5,2" d="M279.27,-917.79C246.88,-932.37 260.87,-999 215.5,-999"/>
<polygon fill="black" stroke="black" points="285.65,-916.54 294.19,-918.53 289.58,-915.77 293.5,-915 293.5,-915 293.5,-915 289.58,-915.77 292.81,-911.47 285.65,-916.54 285.65,-916.54"/>
<ellipse fill="none" stroke="black" cx="282.51" cy="-917.16" rx="3.2" ry="3.2"/>
</g>
</g>
</svg>
