<?xml version="1.0" encoding="UTF-8" standalone="no"?>
<!DOCTYPE svg PUBLIC "-//W3C//DTD SVG 1.1//EN"
 "http://www.w3.org/Graphics/SVG/1.1/DTD/svg11.dtd">
<!-- Generated by graphviz version 2.43.0 (0)
 -->
<!-- Title: oneDegreeRelationshipsDiagram Pages: 1 -->
<svg width="1116pt" height="816pt"
 viewBox="0.00 0.00 1116.00 816.00" xmlns="http://www.w3.org/2000/svg" xmlns:xlink="http://www.w3.org/1999/xlink">
<g id="graph0" class="graph" transform="scale(1 1) rotate(0) translate(4 812)">
<title>oneDegreeRelationshipsDiagram</title>
<polygon fill="#ffffff" stroke="transparent" points="-4,4 -4,-812 1112,-812 1112,4 -4,4"/>
<text text-anchor="middle" x="71.5" y="-7.2" font-family="Helvetica,sans-Serif" font-size="11.00">Generated by SchemaSpy</text>
<!-- m_package -->
<g id="node1" class="node">
<title>m_package</title>
<g id="a_node1"><a xlink:href="../../tables/m_package.html" xlink:title="m_package" target="_top">
<polygon fill="#ffffff" stroke="transparent" points="621,-460 621,-804 836,-804 836,-460 621,-460"/>
<polygon fill="#f5f5f5" stroke="transparent" points="621.5,-782 621.5,-804 836.5,-804 836.5,-782 621.5,-782"/>
<polygon fill="none" stroke="black" points="621.5,-782 621.5,-804 836.5,-804 836.5,-782 621.5,-782"/>
<text text-anchor="start" x="626.5" y="-791.2" font-family="Helvetica,sans-Serif" font-weight="bold" font-size="11.00">m_package</text>
<text text-anchor="start" x="801.5" y="-790.2" font-family="Helvetica,sans-Serif" font-size="11.00">[table]</text>
<polygon fill="none" stroke="black" points="621.5,-760 621.5,-782 836.5,-782 836.5,-760 621.5,-760"/>
<image xlink:href="../../images/primaryKeys.png" width="11px" height="12px" preserveAspectRatio="xMinYMin meet" x="626.5" y="-777"/>
<text text-anchor="start" x="641.5" y="-768.2" font-family="Helvetica,sans-Serif" font-size="11.00">m_package_id</text>
<polygon fill="none" stroke="black" points="621.5,-738 621.5,-760 836.5,-760 836.5,-738 621.5,-738"/>
<image xlink:href="../../images/foreignKeys.png" width="11px" height="12px" preserveAspectRatio="xMinYMin meet" x="626.5" y="-755"/>
<text text-anchor="start" x="641.5" y="-746.2" font-family="Helvetica,sans-Serif" font-size="11.00">m_inout_id</text>
<polygon fill="none" stroke="black" points="621.5,-716 621.5,-738 836.5,-738 836.5,-716 621.5,-716"/>
<image xlink:href="../../images/foreignKeys.png" width="11px" height="12px" preserveAspectRatio="xMinYMin meet" x="626.5" y="-733"/>
<text text-anchor="start" x="641.5" y="-724.2" font-family="Helvetica,sans-Serif" font-size="11.00">m_shipper_id</text>
<polygon fill="#ffffff" stroke="transparent" points="621.5,-694 621.5,-716 836.5,-716 836.5,-694 621.5,-694"/>
<polygon fill="none" stroke="black" points="621.5,-694 621.5,-716 836.5,-716 836.5,-694 621.5,-694"/>
<text text-anchor="start" x="641.5" y="-702.2" font-family="Helvetica,sans-Serif" font-size="11.00">m_package_uu</text>
<polygon fill="none" stroke="black" points="621.5,-672 621.5,-694 836.5,-694 836.5,-672 621.5,-672"/>
<image xlink:href="../../images/foreignKeys.png" width="11px" height="12px" preserveAspectRatio="xMinYMin meet" x="626.5" y="-689"/>
<text text-anchor="start" x="641.5" y="-680.2" font-family="Helvetica,sans-Serif" font-size="11.00">c_bpartner_location_id</text>
<polygon fill="none" stroke="black" points="621.5,-650 621.5,-672 836.5,-672 836.5,-650 621.5,-650"/>
<image xlink:href="../../images/foreignKeys.png" width="11px" height="12px" preserveAspectRatio="xMinYMin meet" x="626.5" y="-667"/>
<text text-anchor="start" x="641.5" y="-658.2" font-family="Helvetica,sans-Serif" font-size="11.00">c_currency_id</text>
<polygon fill="none" stroke="black" points="621.5,-628 621.5,-650 836.5,-650 836.5,-628 621.5,-628"/>
<image xlink:href="../../images/foreignKeys.png" width="11px" height="12px" preserveAspectRatio="xMinYMin meet" x="626.5" y="-645"/>
<text text-anchor="start" x="641.5" y="-636.2" font-family="Helvetica,sans-Serif" font-size="11.00">c_uom_length_id</text>
<polygon fill="none" stroke="black" points="621.5,-606 621.5,-628 836.5,-628 836.5,-606 621.5,-606"/>
<image xlink:href="../../images/foreignKeys.png" width="11px" height="12px" preserveAspectRatio="xMinYMin meet" x="626.5" y="-623"/>
<text text-anchor="start" x="641.5" y="-614.2" font-family="Helvetica,sans-Serif" font-size="11.00">c_uom_weight_id</text>
<polygon fill="none" stroke="black" points="621.5,-584 621.5,-606 836.5,-606 836.5,-584 621.5,-584"/>
<image xlink:href="../../images/foreignKeys.png" width="11px" height="12px" preserveAspectRatio="xMinYMin meet" x="626.5" y="-601"/>
<text text-anchor="start" x="641.5" y="-592.2" font-family="Helvetica,sans-Serif" font-size="11.00">c_bp_shippingacct_id</text>
<polygon fill="none" stroke="black" points="621.5,-562 621.5,-584 836.5,-584 836.5,-562 621.5,-562"/>
<image xlink:href="../../images/foreignKeys.png" width="11px" height="12px" preserveAspectRatio="xMinYMin meet" x="626.5" y="-579"/>
<text text-anchor="start" x="641.5" y="-570.2" font-family="Helvetica,sans-Serif" font-size="11.00">m_shipperlabels_id</text>
<polygon fill="none" stroke="black" points="621.5,-540 621.5,-562 836.5,-562 836.5,-540 621.5,-540"/>
<image xlink:href="../../images/foreignKeys.png" width="11px" height="12px" preserveAspectRatio="xMinYMin meet" x="626.5" y="-557"/>
<text text-anchor="start" x="641.5" y="-548.2" font-family="Helvetica,sans-Serif" font-size="11.00">m_shipperpackaging_id</text>
<polygon fill="none" stroke="black" points="621.5,-518 621.5,-540 836.5,-540 836.5,-518 621.5,-518"/>
<image xlink:href="../../images/foreignKeys.png" width="11px" height="12px" preserveAspectRatio="xMinYMin meet" x="626.5" y="-535"/>
<text text-anchor="start" x="641.5" y="-526.2" font-family="Helvetica,sans-Serif" font-size="11.00">m_shipperpickuptypes_id</text>
<polygon fill="none" stroke="black" points="621.5,-496 621.5,-518 836.5,-518 836.5,-496 621.5,-496"/>
<image xlink:href="../../images/foreignKeys.png" width="11px" height="12px" preserveAspectRatio="xMinYMin meet" x="626.5" y="-513"/>
<text text-anchor="start" x="641.5" y="-504.2" font-family="Helvetica,sans-Serif" font-size="11.00">holdaddress_id</text>
<polygon fill="none" stroke="black" points="621.5,-478 621.5,-496 836.5,-496 836.5,-478 621.5,-478"/>
<text text-anchor="start" x="624.5" y="-484.2" font-family="Helvetica,sans-Serif" font-size="11.00">...</text>
<polygon fill="#ffffff" stroke="transparent" points="621.5,-460 621.5,-478 712.5,-478 712.5,-460 621.5,-460"/>
<polygon fill="none" stroke="black" points="621.5,-460 621.5,-478 712.5,-478 712.5,-460 621.5,-460"/>
<text text-anchor="start" x="624.5" y="-466.2" font-family="Helvetica,sans-Serif" font-size="11.00">&lt; 11</text>
<polygon fill="#ffffff" stroke="transparent" points="712.5,-460 712.5,-478 782.5,-478 782.5,-460 712.5,-460"/>
<polygon fill="none" stroke="black" points="712.5,-460 712.5,-478 782.5,-478 782.5,-460 712.5,-460"/>
<text text-anchor="start" x="746.5" y="-466.2" font-family="Helvetica,sans-Serif" font-size="11.00">0 rows</text>
<polygon fill="#ffffff" stroke="transparent" points="782.5,-460 782.5,-478 836.5,-478 836.5,-460 782.5,-460"/>
<polygon fill="none" stroke="black" points="782.5,-460 782.5,-478 836.5,-478 836.5,-460 782.5,-460"/>
<text text-anchor="start" x="817.5" y="-466.2" font-family="Helvetica,sans-Serif" font-size="11.00">3 &gt;</text>
</a>
</g>
</g>
<!-- m_shipper -->
<g id="node2" class="node">
<title>m_shipper</title>
<g id="a_node2"><a xlink:href="../../tables/m_shipper.html" xlink:title="m_shipper" target="_top">
<polygon fill="#ffffff" stroke="transparent" points="25,-301 25,-469 207,-469 207,-301 25,-301"/>
<polygon fill="#f5f5f5" stroke="transparent" points="25,-447 25,-469 207,-469 207,-447 25,-447"/>
<polygon fill="none" stroke="black" points="25,-447 25,-469 207,-469 207,-447 25,-447"/>
<text text-anchor="start" x="30" y="-456.2" font-family="Helvetica,sans-Serif" font-weight="bold" font-size="11.00">m_shipper</text>
<text text-anchor="start" x="172" y="-455.2" font-family="Helvetica,sans-Serif" font-size="11.00">[table]</text>
<polygon fill="none" stroke="black" points="25,-425 25,-447 207,-447 207,-425 25,-425"/>
<image xlink:href="../../images/primaryKeys.png" width="11px" height="12px" preserveAspectRatio="xMinYMin meet" x="30" y="-442"/>
<text text-anchor="start" x="45" y="-433.2" font-family="Helvetica,sans-Serif" font-size="11.00">m_shipper_id</text>
<polygon fill="none" stroke="black" points="25,-403 25,-425 207,-425 207,-403 25,-403"/>
<image xlink:href="../../images/foreignKeys.png" width="11px" height="12px" preserveAspectRatio="xMinYMin meet" x="30" y="-420"/>
<text text-anchor="start" x="45" y="-411.2" font-family="Helvetica,sans-Serif" font-size="11.00">c_bpartner_id</text>
<polygon fill="#ffffff" stroke="transparent" points="25,-381 25,-403 207,-403 207,-381 25,-381"/>
<polygon fill="none" stroke="black" points="25,-381 25,-403 207,-403 207,-381 25,-381"/>
<text text-anchor="start" x="45" y="-389.2" font-family="Helvetica,sans-Serif" font-size="11.00">m_shipper_uu</text>
<polygon fill="none" stroke="black" points="25,-359 25,-381 207,-381 207,-359 25,-359"/>
<image xlink:href="../../images/foreignKeys.png" width="11px" height="12px" preserveAspectRatio="xMinYMin meet" x="30" y="-376"/>
<text text-anchor="start" x="45" y="-367.2" font-family="Helvetica,sans-Serif" font-size="11.00">m_shippingprocessor_id</text>
<polygon fill="none" stroke="black" points="25,-337 25,-359 207,-359 207,-337 25,-337"/>
<image xlink:href="../../images/foreignKeys.png" width="11px" height="12px" preserveAspectRatio="xMinYMin meet" x="30" y="-354"/>
<text text-anchor="start" x="45" y="-345.2" font-family="Helvetica,sans-Serif" font-size="11.00">m_shippercfg_id</text>
<polygon fill="none" stroke="black" points="25,-319 25,-337 207,-337 207,-319 25,-319"/>
<text text-anchor="start" x="28" y="-325.2" font-family="Helvetica,sans-Serif" font-size="11.00">...</text>
<polygon fill="#ffffff" stroke="transparent" points="25,-301 25,-319 93,-319 93,-301 25,-301"/>
<polygon fill="none" stroke="black" points="25,-301 25,-319 93,-319 93,-301 25,-301"/>
<text text-anchor="start" x="28" y="-307.2" font-family="Helvetica,sans-Serif" font-size="11.00">&lt; 3</text>
<polygon fill="#ffffff" stroke="transparent" points="93,-301 93,-319 155,-319 155,-301 93,-301"/>
<polygon fill="none" stroke="black" points="93,-301 93,-319 155,-319 155,-301 93,-301"/>
<text text-anchor="start" x="119" y="-307.2" font-family="Helvetica,sans-Serif" font-size="11.00">0 rows</text>
<polygon fill="#ffffff" stroke="transparent" points="155,-301 155,-319 207,-319 207,-301 155,-301"/>
<polygon fill="none" stroke="black" points="155,-301 155,-319 207,-319 207,-301 155,-301"/>
<text text-anchor="start" x="182" y="-307.2" font-family="Helvetica,sans-Serif" font-size="11.00">16 &gt;</text>
</a>
</g>
</g>
<!-- m_package&#45;&gt;m_shipper -->
<g id="edge1" class="edge">
<title>m_package:w&#45;&gt;m_shipper:e</title>
<path fill="none" stroke="black" d="M605.98,-725.5C492.65,-703.07 315.47,-436 208,-436"/>
<polygon fill="black" stroke="black" points="612.54,-726.18 620.13,-730.58 616.52,-726.59 620.5,-727 620.5,-727 620.5,-727 616.52,-726.59 620.87,-723.42 612.54,-726.18 612.54,-726.18"/>
<ellipse fill="none" stroke="black" cx="609.36" cy="-725.85" rx="3.2" ry="3.2"/>
</g>
<!-- m_shipperpickuptypes -->
<g id="node3" class="node">
<title>m_shipperpickuptypes</title>
<g id="a_node3"><a xlink:href="../../tables/m_shipperpickuptypes.html" xlink:title="m_shipperpickuptypes" target="_top">
<polygon fill="#ffffff" stroke="transparent" points="273,-82 273,-412 572,-412 572,-82 273,-82"/>
<polygon fill="#f5f5f5" stroke="transparent" points="275.5,-388 275.5,-410 570.5,-410 570.5,-388 275.5,-388"/>
<polygon fill="none" stroke="black" points="275.5,-388 275.5,-410 570.5,-410 570.5,-388 275.5,-388"/>
<text text-anchor="start" x="280.5" y="-397.2" font-family="Helvetica,sans-Serif" font-weight="bold" font-size="11.00">m_shipperpickuptypes</text>
<text text-anchor="start" x="535.5" y="-396.2" font-family="Helvetica,sans-Serif" font-size="11.00">[table]</text>
<polygon fill="none" stroke="black" points="275.5,-366 275.5,-388 487.5,-388 487.5,-366 275.5,-366"/>
<text text-anchor="start" x="295.5" y="-374.2" font-family="Helvetica,sans-Serif" font-size="11.00">ad_client_id</text>
<polygon fill="none" stroke="black" points="487.5,-366 487.5,-388 570.5,-388 570.5,-366 487.5,-366"/>
<text text-anchor="start" x="490.5" y="-374.2" font-family="Helvetica,sans-Serif" font-size="11.00">numeric[10]</text>
<polygon fill="none" stroke="black" points="275.5,-344 275.5,-366 487.5,-366 487.5,-344 275.5,-344"/>
<text text-anchor="start" x="295.5" y="-352.2" font-family="Helvetica,sans-Serif" font-size="11.00">ad_org_id</text>
<polygon fill="none" stroke="black" points="487.5,-344 487.5,-366 570.5,-366 570.5,-344 487.5,-344"/>
<text text-anchor="start" x="490.5" y="-352.2" font-family="Helvetica,sans-Serif" font-size="11.00">numeric[10]</text>
<polygon fill="none" stroke="black" points="275.5,-322 275.5,-344 487.5,-344 487.5,-322 275.5,-322"/>
<text text-anchor="start" x="295.5" y="-330.2" font-family="Helvetica,sans-Serif" font-size="11.00">created</text>
<polygon fill="none" stroke="black" points="487.5,-322 487.5,-344 570.5,-344 570.5,-322 487.5,-322"/>
<text text-anchor="start" x="490.5" y="-330.2" font-family="Helvetica,sans-Serif" font-size="11.00">timestamp[29,6]</text>
<polygon fill="none" stroke="black" points="275.5,-300 275.5,-322 487.5,-322 487.5,-300 275.5,-300"/>
<text text-anchor="start" x="295.5" y="-308.2" font-family="Helvetica,sans-Serif" font-size="11.00">createdby</text>
<polygon fill="none" stroke="black" points="487.5,-300 487.5,-322 570.5,-322 570.5,-300 487.5,-300"/>
<text text-anchor="start" x="490.5" y="-308.2" font-family="Helvetica,sans-Serif" font-size="11.00">numeric[10]</text>
<polygon fill="none" stroke="black" points="275.5,-278 275.5,-300 487.5,-300 487.5,-278 275.5,-278"/>
<text text-anchor="start" x="295.5" y="-286.2" font-family="Helvetica,sans-Serif" font-size="11.00">isactive</text>
<polygon fill="none" stroke="black" points="487.5,-278 487.5,-300 570.5,-300 570.5,-278 487.5,-278"/>
<text text-anchor="start" x="490.5" y="-286.2" font-family="Helvetica,sans-Serif" font-size="11.00">bpchar[1]</text>
<polygon fill="none" stroke="black" points="275.5,-256 275.5,-278 487.5,-278 487.5,-256 275.5,-256"/>
<text text-anchor="start" x="295.5" y="-264.2" font-family="Helvetica,sans-Serif" font-size="11.00">isdefault</text>
<polygon fill="none" stroke="black" points="487.5,-256 487.5,-278 570.5,-278 570.5,-256 487.5,-256"/>
<text text-anchor="start" x="490.5" y="-264.2" font-family="Helvetica,sans-Serif" font-size="11.00">bpchar[1]</text>
<polygon fill="#ffffff" stroke="transparent" points="275.5,-234 275.5,-256 487.5,-256 487.5,-234 275.5,-234"/>
<polygon fill="none" stroke="black" points="275.5,-234 275.5,-256 487.5,-256 487.5,-234 275.5,-234"/>
<image xlink:href="../../images/foreignKeys.png" width="11px" height="12px" preserveAspectRatio="xMinYMin meet" x="280.5" y="-251"/>
<text text-anchor="start" x="295.5" y="-242.2" font-family="Helvetica,sans-Serif" font-size="11.00">m_shipper_id</text>
<polygon fill="none" stroke="black" points="487.5,-234 487.5,-256 570.5,-256 570.5,-234 487.5,-234"/>
<text text-anchor="start" x="490.5" y="-242.2" font-family="Helvetica,sans-Serif" font-size="11.00">numeric[10]</text>
<polygon fill="none" stroke="black" points="275.5,-212 275.5,-234 487.5,-234 487.5,-212 275.5,-212"/>
<image xlink:href="../../images/primaryKeys.png" width="11px" height="12px" preserveAspectRatio="xMinYMin meet" x="280.5" y="-229"/>
<text text-anchor="start" x="295.5" y="-220.2" font-family="Helvetica,sans-Serif" font-size="11.00">m_shipperpickuptypes_id</text>
<polygon fill="none" stroke="black" points="487.5,-212 487.5,-234 570.5,-234 570.5,-212 487.5,-212"/>
<text text-anchor="start" x="490.5" y="-220.2" font-family="Helvetica,sans-Serif" font-size="11.00">numeric[10]</text>
<polygon fill="#ffffff" stroke="transparent" points="275.5,-190 275.5,-212 487.5,-212 487.5,-190 275.5,-190"/>
<polygon fill="none" stroke="black" points="275.5,-190 275.5,-212 487.5,-212 487.5,-190 275.5,-190"/>
<text text-anchor="start" x="295.5" y="-198.2" font-family="Helvetica,sans-Serif" font-size="11.00">m_shipperpickuptypes_uu</text>
<polygon fill="none" stroke="black" points="487.5,-190 487.5,-212 570.5,-212 570.5,-190 487.5,-190"/>
<text text-anchor="start" x="490.5" y="-198.2" font-family="Helvetica,sans-Serif" font-size="11.00">varchar[36]</text>
<polygon fill="none" stroke="black" points="275.5,-168 275.5,-190 487.5,-190 487.5,-168 275.5,-168"/>
<text text-anchor="start" x="295.5" y="-176.2" font-family="Helvetica,sans-Serif" font-size="11.00">updated</text>
<polygon fill="none" stroke="black" points="487.5,-168 487.5,-190 570.5,-190 570.5,-168 487.5,-168"/>
<text text-anchor="start" x="490.5" y="-176.2" font-family="Helvetica,sans-Serif" font-size="11.00">timestamp[29,6]</text>
<polygon fill="none" stroke="black" points="275.5,-146 275.5,-168 487.5,-168 487.5,-146 275.5,-146"/>
<text text-anchor="start" x="295.5" y="-154.2" font-family="Helvetica,sans-Serif" font-size="11.00">updatedby</text>
<polygon fill="none" stroke="black" points="487.5,-146 487.5,-168 570.5,-168 570.5,-146 487.5,-146"/>
<text text-anchor="start" x="490.5" y="-154.2" font-family="Helvetica,sans-Serif" font-size="11.00">numeric[10]</text>
<polygon fill="#ffffff" stroke="transparent" points="275.5,-124 275.5,-146 487.5,-146 487.5,-124 275.5,-124"/>
<polygon fill="none" stroke="black" points="275.5,-124 275.5,-146 487.5,-146 487.5,-124 275.5,-124"/>
<image xlink:href="../../images/foreignKeys.png" width="11px" height="12px" preserveAspectRatio="xMinYMin meet" x="280.5" y="-141"/>
<text text-anchor="start" x="295.5" y="-132.2" font-family="Helvetica,sans-Serif" font-size="11.00">m_shipperpickuptypescfg_id</text>
<polygon fill="none" stroke="black" points="487.5,-124 487.5,-146 570.5,-146 570.5,-124 487.5,-124"/>
<text text-anchor="start" x="490.5" y="-132.2" font-family="Helvetica,sans-Serif" font-size="11.00">numeric[10]</text>
<polygon fill="none" stroke="black" points="275.5,-102 275.5,-124 487.5,-124 487.5,-102 275.5,-102"/>
<text text-anchor="start" x="295.5" y="-110.2" font-family="Helvetica,sans-Serif" font-size="11.00">name</text>
<polygon fill="none" stroke="black" points="487.5,-102 487.5,-124 570.5,-124 570.5,-102 487.5,-102"/>
<text text-anchor="start" x="490.5" y="-110.2" font-family="Helvetica,sans-Serif" font-size="11.00">varchar[60]</text>
<polygon fill="#ffffff" stroke="transparent" points="275.5,-84 275.5,-102 372.5,-102 372.5,-84 275.5,-84"/>
<polygon fill="none" stroke="black" points="275.5,-84 275.5,-102 372.5,-102 372.5,-84 275.5,-84"/>
<text text-anchor="start" x="278.5" y="-90.2" font-family="Helvetica,sans-Serif" font-size="11.00">&lt; 2</text>
<polygon fill="#ffffff" stroke="transparent" points="372.5,-84 372.5,-102 487.5,-102 487.5,-84 372.5,-84"/>
<polygon fill="none" stroke="black" points="372.5,-84 372.5,-102 487.5,-102 487.5,-84 372.5,-84"/>
<text text-anchor="start" x="451.5" y="-90.2" font-family="Helvetica,sans-Serif" font-size="11.00">0 rows</text>
<polygon fill="#ffffff" stroke="transparent" points="487.5,-84 487.5,-102 570.5,-102 570.5,-84 487.5,-84"/>
<polygon fill="none" stroke="black" points="487.5,-84 487.5,-102 570.5,-102 570.5,-84 487.5,-84"/>
<text text-anchor="start" x="551.5" y="-90.2" font-family="Helvetica,sans-Serif" font-size="11.00">2 &gt;</text>
<polygon fill="none" stroke="black" stroke-width="2" points="274,-83 274,-411 571,-411 571,-83 274,-83"/>
</a>
</g>
</g>
<!-- m_package&#45;&gt;m_shipperpickuptypes -->
<g id="edge2" class="edge">
<title>m_package:w&#45;&gt;m_shipperpickuptypes:e</title>
<path fill="none" stroke="black" d="M607.09,-523.69C564.54,-483.06 634.99,-223 571.5,-223"/>
<polygon fill="black" stroke="black" points="613.06,-526.05 619.17,-532.35 616.78,-527.53 620.5,-529 620.5,-529 620.5,-529 616.78,-527.53 621.83,-525.65 613.06,-526.05 613.06,-526.05"/>
<ellipse fill="none" stroke="black" cx="610.09" cy="-524.87" rx="3.2" ry="3.2"/>
</g>
<!-- m_shipperpickuptypes&#45;&gt;m_shipper -->
<g id="edge3" class="edge">
<title>m_shipperpickuptypes:w&#45;&gt;m_shipper:e</title>
<path fill="none" stroke="black" d="M259.93,-247.15C197.98,-268.13 292.27,-436 208,-436"/>
<polygon fill="black" stroke="black" points="266.59,-246.17 275.02,-248.56 270.54,-245.58 274.5,-245 274.5,-245 274.5,-245 270.54,-245.58 273.98,-241.44 266.59,-246.17 266.59,-246.17"/>
<ellipse fill="none" stroke="black" cx="263.42" cy="-246.63" rx="3.2" ry="3.2"/>
</g>
<!-- m_shipperpickuptypescfg -->
<g id="node4" class="node">
<title>m_shipperpickuptypescfg</title>
<g id="a_node4"><a xlink:href="../../tables/m_shipperpickuptypescfg.html" xlink:title="m_shipperpickuptypescfg" target="_top">
<polygon fill="#ffffff" stroke="transparent" points="8,-66 8,-212 224,-212 224,-66 8,-66"/>
<polygon fill="#f5f5f5" stroke="transparent" points="8,-190 8,-212 224,-212 224,-190 8,-190"/>
<polygon fill="none" stroke="black" points="8,-190 8,-212 224,-212 224,-190 8,-190"/>
<text text-anchor="start" x="13" y="-199.2" font-family="Helvetica,sans-Serif" font-weight="bold" font-size="11.00">m_shipperpickuptypescfg</text>
<text text-anchor="start" x="189" y="-198.2" font-family="Helvetica,sans-Serif" font-size="11.00">[table]</text>
<polygon fill="#ffffff" stroke="transparent" points="8,-168 8,-190 224,-190 224,-168 8,-168"/>
<polygon fill="none" stroke="black" points="8,-168 8,-190 224,-190 224,-168 8,-168"/>
<text text-anchor="start" x="28" y="-176.2" font-family="Helvetica,sans-Serif" font-size="11.00">value</text>
<polygon fill="#ffffff" stroke="transparent" points="8,-146 8,-168 224,-168 224,-146 8,-146"/>
<polygon fill="none" stroke="black" points="8,-146 8,-168 224,-168 224,-146 8,-146"/>
<image xlink:href="../../images/foreignKeys.png" width="11px" height="12px" preserveAspectRatio="xMinYMin meet" x="13" y="-163"/>
<text text-anchor="start" x="28" y="-154.2" font-family="Helvetica,sans-Serif" font-size="11.00">m_shippercfg_id</text>
<polygon fill="none" stroke="black" points="8,-124 8,-146 224,-146 224,-124 8,-124"/>
<image xlink:href="../../images/primaryKeys.png" width="11px" height="12px" preserveAspectRatio="xMinYMin meet" x="13" y="-141"/>
<text text-anchor="start" x="28" y="-132.2" font-family="Helvetica,sans-Serif" font-size="11.00">m_shipperpickuptypescfg_id</text>
<polygon fill="#ffffff" stroke="transparent" points="8,-102 8,-124 224,-124 224,-102 8,-102"/>
<polygon fill="none" stroke="black" points="8,-102 8,-124 224,-124 224,-102 8,-102"/>
<text text-anchor="start" x="28" y="-110.2" font-family="Helvetica,sans-Serif" font-size="11.00">m_shipperpickuptypescfg_uu</text>
<polygon fill="none" stroke="black" points="8,-84 8,-102 224,-102 224,-84 8,-84"/>
<text text-anchor="start" x="11" y="-90.2" font-family="Helvetica,sans-Serif" font-size="11.00">...</text>
<polygon fill="#ffffff" stroke="transparent" points="8,-66 8,-84 96,-84 96,-66 8,-66"/>
<polygon fill="none" stroke="black" points="8,-66 8,-84 96,-84 96,-66 8,-66"/>
<text text-anchor="start" x="11" y="-72.2" font-family="Helvetica,sans-Serif" font-size="11.00">&lt; 1</text>
<polygon fill="#ffffff" stroke="transparent" points="96,-66 96,-84 168,-84 168,-66 96,-66"/>
<polygon fill="none" stroke="black" points="96,-66 96,-84 168,-84 168,-66 96,-66"/>
<text text-anchor="start" x="132" y="-72.2" font-family="Helvetica,sans-Serif" font-size="11.00">0 rows</text>
<polygon fill="#ffffff" stroke="transparent" points="168,-66 168,-84 224,-84 224,-66 168,-66"/>
<polygon fill="none" stroke="black" points="168,-66 168,-84 224,-84 224,-66 168,-66"/>
<text text-anchor="start" x="205" y="-72.2" font-family="Helvetica,sans-Serif" font-size="11.00">1 &gt;</text>
</a>
</g>
</g>
<!-- m_shipperpickuptypes&#45;&gt;m_shipperpickuptypescfg -->
<g id="edge4" class="edge">
<title>m_shipperpickuptypes:w&#45;&gt;m_shipperpickuptypescfg:e</title>
<path fill="none" stroke="black" d="M259.84,-135C248.41,-135 241.16,-135 225,-135"/>
<polygon fill="black" stroke="black" points="266.5,-135 274.5,-138.6 270.5,-135 274.5,-135 274.5,-135 274.5,-135 270.5,-135 274.5,-131.4 266.5,-135 266.5,-135"/>
<ellipse fill="none" stroke="black" cx="263.3" cy="-135" rx="3.2" ry="3.2"/>
</g>
<!-- m_shippingtransaction -->
<g id="node5" class="node">
<title>m_shippingtransaction</title>
<g id="a_node5"><a xlink:href="../../tables/m_shippingtransaction.html" xlink:title="m_shippingtransaction" target="_top">
<polygon fill="#ffffff" stroke="transparent" points="885,-37 885,-645 1100,-645 1100,-37 885,-37"/>
<polygon fill="#f5f5f5" stroke="transparent" points="885.5,-623 885.5,-645 1100.5,-645 1100.5,-623 885.5,-623"/>
<polygon fill="none" stroke="black" points="885.5,-623 885.5,-645 1100.5,-645 1100.5,-623 885.5,-623"/>
<text text-anchor="start" x="890.5" y="-632.2" font-family="Helvetica,sans-Serif" font-weight="bold" font-size="11.00">m_shippingtransaction</text>
<text text-anchor="start" x="1065.5" y="-631.2" font-family="Helvetica,sans-Serif" font-size="11.00">[table]</text>
<polygon fill="none" stroke="black" points="885.5,-601 885.5,-623 1100.5,-623 1100.5,-601 885.5,-601"/>
<image xlink:href="../../images/foreignKeys.png" width="11px" height="12px" preserveAspectRatio="xMinYMin meet" x="890.5" y="-618"/>
<text text-anchor="start" x="905.5" y="-609.2" font-family="Helvetica,sans-Serif" font-size="11.00">c_bp_shippingacct_id</text>
<polygon fill="none" stroke="black" points="885.5,-579 885.5,-601 1100.5,-601 1100.5,-579 885.5,-579"/>
<image xlink:href="../../images/foreignKeys.png" width="11px" height="12px" preserveAspectRatio="xMinYMin meet" x="890.5" y="-596"/>
<text text-anchor="start" x="905.5" y="-587.2" font-family="Helvetica,sans-Serif" font-size="11.00">c_bpartner_location_id</text>
<polygon fill="none" stroke="black" points="885.5,-557 885.5,-579 1100.5,-579 1100.5,-557 885.5,-557"/>
<image xlink:href="../../images/foreignKeys.png" width="11px" height="12px" preserveAspectRatio="xMinYMin meet" x="890.5" y="-574"/>
<text text-anchor="start" x="905.5" y="-565.2" font-family="Helvetica,sans-Serif" font-size="11.00">c_currency_id</text>
<polygon fill="none" stroke="black" points="885.5,-535 885.5,-557 1100.5,-557 1100.5,-535 885.5,-535"/>
<image xlink:href="../../images/foreignKeys.png" width="11px" height="12px" preserveAspectRatio="xMinYMin meet" x="890.5" y="-552"/>
<text text-anchor="start" x="905.5" y="-543.2" font-family="Helvetica,sans-Serif" font-size="11.00">c_order_id</text>
<polygon fill="none" stroke="black" points="885.5,-513 885.5,-535 1100.5,-535 1100.5,-513 885.5,-513"/>
<image xlink:href="../../images/foreignKeys.png" width="11px" height="12px" preserveAspectRatio="xMinYMin meet" x="890.5" y="-530"/>
<text text-anchor="start" x="905.5" y="-521.2" font-family="Helvetica,sans-Serif" font-size="11.00">c_uom_length_id</text>
<polygon fill="none" stroke="black" points="885.5,-491 885.5,-513 1100.5,-513 1100.5,-491 885.5,-491"/>
<image xlink:href="../../images/foreignKeys.png" width="11px" height="12px" preserveAspectRatio="xMinYMin meet" x="890.5" y="-508"/>
<text text-anchor="start" x="905.5" y="-499.2" font-family="Helvetica,sans-Serif" font-size="11.00">c_uom_weight_id</text>
<polygon fill="none" stroke="black" points="885.5,-469 885.5,-491 1100.5,-491 1100.5,-469 885.5,-469"/>
<image xlink:href="../../images/foreignKeys.png" width="11px" height="12px" preserveAspectRatio="xMinYMin meet" x="890.5" y="-486"/>
<text text-anchor="start" x="905.5" y="-477.2" font-family="Helvetica,sans-Serif" font-size="11.00">m_inout_id</text>
<polygon fill="none" stroke="black" points="885.5,-447 885.5,-469 1100.5,-469 1100.5,-447 885.5,-447"/>
<image xlink:href="../../images/foreignKeys.png" width="11px" height="12px" preserveAspectRatio="xMinYMin meet" x="890.5" y="-464"/>
<text text-anchor="start" x="905.5" y="-455.2" font-family="Helvetica,sans-Serif" font-size="11.00">m_package_id</text>
<polygon fill="none" stroke="black" points="885.5,-425 885.5,-447 1100.5,-447 1100.5,-425 885.5,-425"/>
<image xlink:href="../../images/foreignKeys.png" width="11px" height="12px" preserveAspectRatio="xMinYMin meet" x="890.5" y="-442"/>
<text text-anchor="start" x="905.5" y="-433.2" font-family="Helvetica,sans-Serif" font-size="11.00">m_shipper_id</text>
<polygon fill="none" stroke="black" points="885.5,-403 885.5,-425 1100.5,-425 1100.5,-403 885.5,-403"/>
<image xlink:href="../../images/foreignKeys.png" width="11px" height="12px" preserveAspectRatio="xMinYMin meet" x="890.5" y="-420"/>
<text text-anchor="start" x="905.5" y="-411.2" font-family="Helvetica,sans-Serif" font-size="11.00">m_shipperlabels_id</text>
<polygon fill="none" stroke="black" points="885.5,-381 885.5,-403 1100.5,-403 1100.5,-381 885.5,-381"/>
<image xlink:href="../../images/foreignKeys.png" width="11px" height="12px" preserveAspectRatio="xMinYMin meet" x="890.5" y="-398"/>
<text text-anchor="start" x="905.5" y="-389.2" font-family="Helvetica,sans-Serif" font-size="11.00">m_shipperpackaging_id</text>
<polygon fill="none" stroke="black" points="885.5,-359 885.5,-381 1100.5,-381 1100.5,-359 885.5,-359"/>
<image xlink:href="../../images/foreignKeys.png" width="11px" height="12px" preserveAspectRatio="xMinYMin meet" x="890.5" y="-376"/>
<text text-anchor="start" x="905.5" y="-367.2" font-family="Helvetica,sans-Serif" font-size="11.00">m_shipperpickuptypes_id</text>
<polygon fill="none" stroke="black" points="885.5,-337 885.5,-359 1100.5,-359 1100.5,-337 885.5,-337"/>
<image xlink:href="../../images/foreignKeys.png" width="11px" height="12px" preserveAspectRatio="xMinYMin meet" x="890.5" y="-354"/>
<text text-anchor="start" x="905.5" y="-345.2" font-family="Helvetica,sans-Serif" font-size="11.00">m_shippingprocessor_id</text>
<polygon fill="none" stroke="black" points="885.5,-315 885.5,-337 1100.5,-337 1100.5,-315 885.5,-315"/>
<image xlink:href="../../images/primaryKeys.png" width="11px" height="12px" preserveAspectRatio="xMinYMin meet" x="890.5" y="-332"/>
<text text-anchor="start" x="905.5" y="-323.2" font-family="Helvetica,sans-Serif" font-size="11.00">m_shippingtransaction_id</text>
<polygon fill="#ffffff" stroke="transparent" points="885.5,-293 885.5,-315 1100.5,-315 1100.5,-293 885.5,-293"/>
<polygon fill="none" stroke="black" points="885.5,-293 885.5,-315 1100.5,-315 1100.5,-293 885.5,-293"/>
<text text-anchor="start" x="905.5" y="-301.2" font-family="Helvetica,sans-Serif" font-size="11.00">m_shippingtransaction_uu</text>
<polygon fill="none" stroke="black" points="885.5,-271 885.5,-293 1100.5,-293 1100.5,-271 885.5,-271"/>
<image xlink:href="../../images/foreignKeys.png" width="11px" height="12px" preserveAspectRatio="xMinYMin meet" x="890.5" y="-288"/>
<text text-anchor="start" x="905.5" y="-279.2" font-family="Helvetica,sans-Serif" font-size="11.00">returnbpartner_id</text>
<polygon fill="none" stroke="black" points="885.5,-249 885.5,-271 1100.5,-271 1100.5,-249 885.5,-249"/>
<image xlink:href="../../images/foreignKeys.png" width="11px" height="12px" preserveAspectRatio="xMinYMin meet" x="890.5" y="-266"/>
<text text-anchor="start" x="905.5" y="-257.2" font-family="Helvetica,sans-Serif" font-size="11.00">returnlocation_id</text>
<polygon fill="none" stroke="black" points="885.5,-227 885.5,-249 1100.5,-249 1100.5,-227 885.5,-227"/>
<image xlink:href="../../images/foreignKeys.png" width="11px" height="12px" preserveAspectRatio="xMinYMin meet" x="890.5" y="-244"/>
<text text-anchor="start" x="905.5" y="-235.2" font-family="Helvetica,sans-Serif" font-size="11.00">returnuser_id</text>
<polygon fill="none" stroke="black" points="885.5,-205 885.5,-227 1100.5,-227 1100.5,-205 885.5,-205"/>
<image xlink:href="../../images/foreignKeys.png" width="11px" height="12px" preserveAspectRatio="xMinYMin meet" x="890.5" y="-222"/>
<text text-anchor="start" x="905.5" y="-213.2" font-family="Helvetica,sans-Serif" font-size="11.00">salesrep_id</text>
<polygon fill="none" stroke="black" points="885.5,-183 885.5,-205 1100.5,-205 1100.5,-183 885.5,-183"/>
<image xlink:href="../../images/foreignKeys.png" width="11px" height="12px" preserveAspectRatio="xMinYMin meet" x="890.5" y="-200"/>
<text text-anchor="start" x="905.5" y="-191.2" font-family="Helvetica,sans-Serif" font-size="11.00">m_warehouse_id</text>
<polygon fill="none" stroke="black" points="885.5,-161 885.5,-183 1100.5,-183 1100.5,-161 885.5,-161"/>
<image xlink:href="../../images/foreignKeys.png" width="11px" height="12px" preserveAspectRatio="xMinYMin meet" x="890.5" y="-178"/>
<text text-anchor="start" x="905.5" y="-169.2" font-family="Helvetica,sans-Serif" font-size="11.00">c_bpartner_id</text>
<polygon fill="none" stroke="black" points="885.5,-139 885.5,-161 1100.5,-161 1100.5,-139 885.5,-139"/>
<image xlink:href="../../images/foreignKeys.png" width="11px" height="12px" preserveAspectRatio="xMinYMin meet" x="890.5" y="-156"/>
<text text-anchor="start" x="905.5" y="-147.2" font-family="Helvetica,sans-Serif" font-size="11.00">ad_user_id</text>
<polygon fill="none" stroke="black" points="885.5,-117 885.5,-139 1100.5,-139 1100.5,-117 885.5,-117"/>
<image xlink:href="../../images/foreignKeys.png" width="11px" height="12px" preserveAspectRatio="xMinYMin meet" x="890.5" y="-134"/>
<text text-anchor="start" x="905.5" y="-125.2" font-family="Helvetica,sans-Serif" font-size="11.00">c_invoice_id</text>
<polygon fill="none" stroke="black" points="885.5,-95 885.5,-117 1100.5,-117 1100.5,-95 885.5,-95"/>
<image xlink:href="../../images/foreignKeys.png" width="11px" height="12px" preserveAspectRatio="xMinYMin meet" x="890.5" y="-112"/>
<text text-anchor="start" x="905.5" y="-103.2" font-family="Helvetica,sans-Serif" font-size="11.00">bill_location_id</text>
<polygon fill="none" stroke="black" points="885.5,-73 885.5,-95 1100.5,-95 1100.5,-73 885.5,-73"/>
<image xlink:href="../../images/foreignKeys.png" width="11px" height="12px" preserveAspectRatio="xMinYMin meet" x="890.5" y="-90"/>
<text text-anchor="start" x="905.5" y="-81.2" font-family="Helvetica,sans-Serif" font-size="11.00">holdaddress_id</text>
<polygon fill="none" stroke="black" points="885.5,-55 885.5,-73 1100.5,-73 1100.5,-55 885.5,-55"/>
<text text-anchor="start" x="888.5" y="-61.2" font-family="Helvetica,sans-Serif" font-size="11.00">...</text>
<polygon fill="#ffffff" stroke="transparent" points="885.5,-37 885.5,-55 976.5,-55 976.5,-37 885.5,-37"/>
<polygon fill="none" stroke="black" points="885.5,-37 885.5,-55 976.5,-55 976.5,-37 885.5,-37"/>
<text text-anchor="start" x="888.5" y="-43.2" font-family="Helvetica,sans-Serif" font-size="11.00">&lt; 23</text>
<polygon fill="#ffffff" stroke="transparent" points="976.5,-37 976.5,-55 1046.5,-55 1046.5,-37 976.5,-37"/>
<polygon fill="none" stroke="black" points="976.5,-37 976.5,-55 1046.5,-55 1046.5,-37 976.5,-37"/>
<text text-anchor="start" x="1010.5" y="-43.2" font-family="Helvetica,sans-Serif" font-size="11.00">0 rows</text>
<polygon fill="#ffffff" stroke="transparent" points="1046.5,-37 1046.5,-55 1100.5,-55 1100.5,-37 1046.5,-37"/>
<polygon fill="none" stroke="black" points="1046.5,-37 1046.5,-55 1100.5,-55 1100.5,-37 1046.5,-37"/>
<text text-anchor="start" x="1081.5" y="-43.2" font-family="Helvetica,sans-Serif" font-size="11.00">1 &gt;</text>
</a>
</g>
</g>
<!-- m_shippingtransaction&#45;&gt;m_package -->
<g id="edge5" class="edge">
<title>m_shippingtransaction:w&#45;&gt;m_package:e</title>
<path fill="none" stroke="black" d="M870.02,-459.33C761.14,-481.39 972.81,-771 837.5,-771"/>
<polygon fill="black" stroke="black" points="876.53,-458.73 884.83,-461.58 880.52,-458.37 884.5,-458 884.5,-458 884.5,-458 880.52,-458.37 884.17,-454.42 876.53,-458.73 876.53,-458.73"/>
<ellipse fill="none" stroke="black" cx="873.35" cy="-459.02" rx="3.2" ry="3.2"/>
</g>
<!-- m_shippingtransaction&#45;&gt;m_shipper -->
<g id="edge6" class="edge">
<title>m_shippingtransaction:w&#45;&gt;m_shipper:e</title>
<path fill="none" stroke="black" d="M869.71,-436C581.28,-436 503.68,-436 208,-436"/>
<polygon fill="black" stroke="black" points="876.5,-436 884.5,-439.6 880.5,-436 884.5,-436 884.5,-436 884.5,-436 880.5,-436 884.5,-432.4 876.5,-436 876.5,-436"/>
<ellipse fill="none" stroke="black" cx="873.3" cy="-436" rx="3.2" ry="3.2"/>
</g>
<!-- m_shippingtransaction&#45;&gt;m_shipperpickuptypes -->
<g id="edge7" class="edge">
<title>m_shippingtransaction:w&#45;&gt;m_shipperpickuptypes:e</title>
<path fill="none" stroke="black" d="M870.09,-369.55C730.29,-360.68 720.24,-223 571.5,-223"/>
<polygon fill="black" stroke="black" points="876.5,-369.75 884.39,-373.6 880.5,-369.88 884.5,-370 884.5,-370 884.5,-370 880.5,-369.88 884.61,-366.4 876.5,-369.75 876.5,-369.75"/>
<ellipse fill="none" stroke="black" cx="873.31" cy="-369.65" rx="3.2" ry="3.2"/>
</g>
</g>
</svg>
