<?xml version="1.0" encoding="UTF-8" standalone="no"?>
<!DOCTYPE svg PUBLIC "-//W3C//DTD SVG 1.1//EN"
 "http://www.w3.org/Graphics/SVG/1.1/DTD/svg11.dtd">
<!-- Generated by graphviz version 2.43.0 (0)
 -->
<!-- Title: oneDegreeRelationshipsDiagram Pages: 1 -->
<svg width="683pt" height="1201pt"
 viewBox="0.00 0.00 683.00 1201.00" xmlns="http://www.w3.org/2000/svg" xmlns:xlink="http://www.w3.org/1999/xlink">
<g id="graph0" class="graph" transform="scale(1 1) rotate(0) translate(4 1197)">
<title>oneDegreeRelationshipsDiagram</title>
<polygon fill="#ffffff" stroke="transparent" points="-4,4 -4,-1197 679,-1197 679,4 -4,4"/>
<text text-anchor="middle" x="71.5" y="-7.2" font-family="Helvetica,sans-Serif" font-size="11.00">Generated by SchemaSpy</text>
<!-- pa_achievement -->
<g id="node1" class="node">
<title>pa_achievement</title>
<g id="a_node1"><a xlink:href="../../tables/pa_achievement.html" xlink:title="pa_achievement" target="_top">
<polygon fill="#ffffff" stroke="transparent" points="514,-1065 514,-1189 667,-1189 667,-1065 514,-1065"/>
<polygon fill="#f5f5f5" stroke="transparent" points="514.5,-1167 514.5,-1189 667.5,-1189 667.5,-1167 514.5,-1167"/>
<polygon fill="none" stroke="black" points="514.5,-1167 514.5,-1189 667.5,-1189 667.5,-1167 514.5,-1167"/>
<text text-anchor="start" x="519.5" y="-1176.2" font-family="Helvetica,sans-Serif" font-weight="bold" font-size="11.00">pa_achievement</text>
<text text-anchor="start" x="632.5" y="-1175.2" font-family="Helvetica,sans-Serif" font-size="11.00">[table]</text>
<polygon fill="none" stroke="black" points="514.5,-1145 514.5,-1167 667.5,-1167 667.5,-1145 514.5,-1145"/>
<image xlink:href="../../images/primaryKeys.png" width="11px" height="12px" preserveAspectRatio="xMinYMin meet" x="519.5" y="-1162"/>
<text text-anchor="start" x="534.5" y="-1153.2" font-family="Helvetica,sans-Serif" font-size="11.00">pa_achievement_id</text>
<polygon fill="none" stroke="black" points="514.5,-1123 514.5,-1145 667.5,-1145 667.5,-1123 514.5,-1123"/>
<image xlink:href="../../images/foreignKeys.png" width="11px" height="12px" preserveAspectRatio="xMinYMin meet" x="519.5" y="-1140"/>
<text text-anchor="start" x="534.5" y="-1131.2" font-family="Helvetica,sans-Serif" font-size="11.00">pa_measure_id</text>
<polygon fill="#ffffff" stroke="transparent" points="514.5,-1101 514.5,-1123 667.5,-1123 667.5,-1101 514.5,-1101"/>
<polygon fill="none" stroke="black" points="514.5,-1101 514.5,-1123 667.5,-1123 667.5,-1101 514.5,-1101"/>
<text text-anchor="start" x="534.5" y="-1109.2" font-family="Helvetica,sans-Serif" font-size="11.00">pa_achievement_uu</text>
<polygon fill="none" stroke="black" points="514.5,-1083 514.5,-1101 667.5,-1101 667.5,-1083 514.5,-1083"/>
<text text-anchor="start" x="517.5" y="-1089.2" font-family="Helvetica,sans-Serif" font-size="11.00">...</text>
<polygon fill="#ffffff" stroke="transparent" points="514.5,-1065 514.5,-1083 575.5,-1083 575.5,-1065 514.5,-1065"/>
<polygon fill="none" stroke="black" points="514.5,-1065 514.5,-1083 575.5,-1083 575.5,-1065 514.5,-1065"/>
<text text-anchor="start" x="517.5" y="-1071.2" font-family="Helvetica,sans-Serif" font-size="11.00">&lt; 1</text>
<polygon fill="#ffffff" stroke="transparent" points="575.5,-1065 575.5,-1083 634.5,-1083 634.5,-1065 575.5,-1065"/>
<polygon fill="none" stroke="black" points="575.5,-1065 575.5,-1083 634.5,-1083 634.5,-1065 575.5,-1065"/>
<text text-anchor="start" x="598.5" y="-1071.2" font-family="Helvetica,sans-Serif" font-size="11.00">0 rows</text>
<polygon fill="#ffffff" stroke="transparent" points="634.5,-1065 634.5,-1083 667.5,-1083 667.5,-1065 634.5,-1065"/>
<polygon fill="none" stroke="black" points="634.5,-1065 634.5,-1083 667.5,-1083 667.5,-1065 634.5,-1065"/>
<text text-anchor="start" x="657.5" y="-1071.2" font-family="Helvetica,sans-Serif" font-size="11.00"> &#160;</text>
</a>
</g>
</g>
<!-- pa_measure -->
<g id="node2" class="node">
<title>pa_measure</title>
<g id="a_node2"><a xlink:href="../../tables/pa_measure.html" xlink:title="pa_measure" target="_top">
<polygon fill="#ffffff" stroke="transparent" points="231,-536 231,-1064 465,-1064 465,-536 231,-536"/>
<polygon fill="#f5f5f5" stroke="transparent" points="233,-1040 233,-1062 463,-1062 463,-1040 233,-1040"/>
<polygon fill="none" stroke="black" points="233,-1040 233,-1062 463,-1062 463,-1040 233,-1040"/>
<text text-anchor="start" x="238" y="-1049.2" font-family="Helvetica,sans-Serif" font-weight="bold" font-size="11.00">pa_measure</text>
<text text-anchor="start" x="428" y="-1048.2" font-family="Helvetica,sans-Serif" font-size="11.00">[table]</text>
<polygon fill="none" stroke="black" points="233,-1018 233,-1040 380,-1040 380,-1018 233,-1018"/>
<image xlink:href="../../images/primaryKeys.png" width="11px" height="12px" preserveAspectRatio="xMinYMin meet" x="238" y="-1035"/>
<text text-anchor="start" x="253" y="-1026.2" font-family="Helvetica,sans-Serif" font-size="11.00">pa_measure_id</text>
<polygon fill="none" stroke="black" points="380,-1018 380,-1040 463,-1040 463,-1018 380,-1018"/>
<text text-anchor="start" x="383" y="-1026.2" font-family="Helvetica,sans-Serif" font-size="11.00">numeric[10]</text>
<polygon fill="none" stroke="black" points="233,-996 233,-1018 380,-1018 380,-996 233,-996"/>
<text text-anchor="start" x="253" y="-1004.2" font-family="Helvetica,sans-Serif" font-size="11.00">ad_client_id</text>
<polygon fill="none" stroke="black" points="380,-996 380,-1018 463,-1018 463,-996 380,-996"/>
<text text-anchor="start" x="383" y="-1004.2" font-family="Helvetica,sans-Serif" font-size="11.00">numeric[10]</text>
<polygon fill="none" stroke="black" points="233,-974 233,-996 380,-996 380,-974 233,-974"/>
<text text-anchor="start" x="253" y="-982.2" font-family="Helvetica,sans-Serif" font-size="11.00">ad_org_id</text>
<polygon fill="none" stroke="black" points="380,-974 380,-996 463,-996 463,-974 380,-974"/>
<text text-anchor="start" x="383" y="-982.2" font-family="Helvetica,sans-Serif" font-size="11.00">numeric[10]</text>
<polygon fill="none" stroke="black" points="233,-952 233,-974 380,-974 380,-952 233,-952"/>
<text text-anchor="start" x="253" y="-960.2" font-family="Helvetica,sans-Serif" font-size="11.00">isactive</text>
<polygon fill="none" stroke="black" points="380,-952 380,-974 463,-974 463,-952 380,-952"/>
<text text-anchor="start" x="383" y="-960.2" font-family="Helvetica,sans-Serif" font-size="11.00">bpchar[1]</text>
<polygon fill="none" stroke="black" points="233,-930 233,-952 380,-952 380,-930 233,-930"/>
<text text-anchor="start" x="253" y="-938.2" font-family="Helvetica,sans-Serif" font-size="11.00">created</text>
<polygon fill="none" stroke="black" points="380,-930 380,-952 463,-952 463,-930 380,-930"/>
<text text-anchor="start" x="383" y="-938.2" font-family="Helvetica,sans-Serif" font-size="11.00">timestamp[29,6]</text>
<polygon fill="none" stroke="black" points="233,-908 233,-930 380,-930 380,-908 233,-908"/>
<text text-anchor="start" x="253" y="-916.2" font-family="Helvetica,sans-Serif" font-size="11.00">createdby</text>
<polygon fill="none" stroke="black" points="380,-908 380,-930 463,-930 463,-908 380,-908"/>
<text text-anchor="start" x="383" y="-916.2" font-family="Helvetica,sans-Serif" font-size="11.00">numeric[10]</text>
<polygon fill="none" stroke="black" points="233,-886 233,-908 380,-908 380,-886 233,-886"/>
<text text-anchor="start" x="253" y="-894.2" font-family="Helvetica,sans-Serif" font-size="11.00">updated</text>
<polygon fill="none" stroke="black" points="380,-886 380,-908 463,-908 463,-886 380,-886"/>
<text text-anchor="start" x="383" y="-894.2" font-family="Helvetica,sans-Serif" font-size="11.00">timestamp[29,6]</text>
<polygon fill="none" stroke="black" points="233,-864 233,-886 380,-886 380,-864 233,-864"/>
<text text-anchor="start" x="253" y="-872.2" font-family="Helvetica,sans-Serif" font-size="11.00">updatedby</text>
<polygon fill="none" stroke="black" points="380,-864 380,-886 463,-886 463,-864 380,-864"/>
<text text-anchor="start" x="383" y="-872.2" font-family="Helvetica,sans-Serif" font-size="11.00">numeric[10]</text>
<polygon fill="none" stroke="black" points="233,-842 233,-864 380,-864 380,-842 233,-842"/>
<text text-anchor="start" x="253" y="-850.2" font-family="Helvetica,sans-Serif" font-size="11.00">name</text>
<polygon fill="none" stroke="black" points="380,-842 380,-864 463,-864 463,-842 380,-842"/>
<text text-anchor="start" x="383" y="-850.2" font-family="Helvetica,sans-Serif" font-size="11.00">varchar[60]</text>
<polygon fill="none" stroke="black" points="233,-820 233,-842 380,-842 380,-820 233,-820"/>
<text text-anchor="start" x="253" y="-828.2" font-family="Helvetica,sans-Serif" font-size="11.00">description</text>
<polygon fill="none" stroke="black" points="380,-820 380,-842 463,-842 463,-820 380,-820"/>
<text text-anchor="start" x="383" y="-828.2" font-family="Helvetica,sans-Serif" font-size="11.00">varchar[255]</text>
<polygon fill="none" stroke="black" points="233,-798 233,-820 380,-820 380,-798 233,-798"/>
<text text-anchor="start" x="253" y="-806.2" font-family="Helvetica,sans-Serif" font-size="11.00">measuretype</text>
<polygon fill="none" stroke="black" points="380,-798 380,-820 463,-820 463,-798 380,-798"/>
<text text-anchor="start" x="383" y="-806.2" font-family="Helvetica,sans-Serif" font-size="11.00">bpchar[1]</text>
<polygon fill="none" stroke="black" points="233,-776 233,-798 380,-798 380,-776 233,-776"/>
<text text-anchor="start" x="253" y="-784.2" font-family="Helvetica,sans-Serif" font-size="11.00">manualactual</text>
<polygon fill="none" stroke="black" points="380,-776 380,-798 463,-798 463,-776 380,-776"/>
<text text-anchor="start" x="383" y="-784.2" font-family="Helvetica,sans-Serif" font-size="11.00">numeric[0]</text>
<polygon fill="none" stroke="black" points="233,-754 233,-776 380,-776 380,-754 233,-754"/>
<text text-anchor="start" x="253" y="-762.2" font-family="Helvetica,sans-Serif" font-size="11.00">manualnote</text>
<polygon fill="none" stroke="black" points="380,-754 380,-776 463,-776 463,-754 380,-754"/>
<text text-anchor="start" x="383" y="-762.2" font-family="Helvetica,sans-Serif" font-size="11.00">varchar[2000]</text>
<polygon fill="none" stroke="black" points="233,-732 233,-754 380,-754 380,-732 233,-732"/>
<text text-anchor="start" x="253" y="-740.2" font-family="Helvetica,sans-Serif" font-size="11.00">calculationclass</text>
<polygon fill="none" stroke="black" points="380,-732 380,-754 463,-754 463,-732 380,-732"/>
<text text-anchor="start" x="383" y="-740.2" font-family="Helvetica,sans-Serif" font-size="11.00">varchar[60]</text>
<polygon fill="none" stroke="black" points="233,-710 233,-732 380,-732 380,-710 233,-710"/>
<image xlink:href="../../images/foreignKeys.png" width="11px" height="12px" preserveAspectRatio="xMinYMin meet" x="238" y="-727"/>
<text text-anchor="start" x="253" y="-718.2" font-family="Helvetica,sans-Serif" font-size="11.00">pa_measurecalc_id</text>
<polygon fill="none" stroke="black" points="380,-710 380,-732 463,-732 463,-710 380,-710"/>
<text text-anchor="start" x="383" y="-718.2" font-family="Helvetica,sans-Serif" font-size="11.00">numeric[10]</text>
<polygon fill="none" stroke="black" points="233,-688 233,-710 380,-710 380,-688 233,-688"/>
<image xlink:href="../../images/foreignKeys.png" width="11px" height="12px" preserveAspectRatio="xMinYMin meet" x="238" y="-705"/>
<text text-anchor="start" x="253" y="-696.2" font-family="Helvetica,sans-Serif" font-size="11.00">pa_benchmark_id</text>
<polygon fill="none" stroke="black" points="380,-688 380,-710 463,-710 463,-688 380,-688"/>
<text text-anchor="start" x="383" y="-696.2" font-family="Helvetica,sans-Serif" font-size="11.00">numeric[10]</text>
<polygon fill="none" stroke="black" points="233,-666 233,-688 380,-688 380,-666 233,-666"/>
<image xlink:href="../../images/foreignKeys.png" width="11px" height="12px" preserveAspectRatio="xMinYMin meet" x="238" y="-683"/>
<text text-anchor="start" x="253" y="-674.2" font-family="Helvetica,sans-Serif" font-size="11.00">pa_ratio_id</text>
<polygon fill="none" stroke="black" points="380,-666 380,-688 463,-688 463,-666 380,-666"/>
<text text-anchor="start" x="383" y="-674.2" font-family="Helvetica,sans-Serif" font-size="11.00">numeric[10]</text>
<polygon fill="none" stroke="black" points="233,-644 233,-666 380,-666 380,-644 233,-644"/>
<image xlink:href="../../images/foreignKeys.png" width="11px" height="12px" preserveAspectRatio="xMinYMin meet" x="238" y="-661"/>
<text text-anchor="start" x="253" y="-652.2" font-family="Helvetica,sans-Serif" font-size="11.00">pa_hierarchy_id</text>
<polygon fill="none" stroke="black" points="380,-644 380,-666 463,-666 463,-644 380,-644"/>
<text text-anchor="start" x="383" y="-652.2" font-family="Helvetica,sans-Serif" font-size="11.00">numeric[10]</text>
<polygon fill="none" stroke="black" points="233,-622 233,-644 380,-644 380,-622 233,-622"/>
<text text-anchor="start" x="253" y="-630.2" font-family="Helvetica,sans-Serif" font-size="11.00">measuredatatype</text>
<polygon fill="none" stroke="black" points="380,-622 380,-644 463,-644 463,-622 380,-622"/>
<text text-anchor="start" x="383" y="-630.2" font-family="Helvetica,sans-Serif" font-size="11.00">bpchar[1]</text>
<polygon fill="none" stroke="black" points="233,-600 233,-622 380,-622 380,-600 233,-600"/>
<image xlink:href="../../images/foreignKeys.png" width="11px" height="12px" preserveAspectRatio="xMinYMin meet" x="238" y="-617"/>
<text text-anchor="start" x="253" y="-608.2" font-family="Helvetica,sans-Serif" font-size="11.00">r_requesttype_id</text>
<polygon fill="none" stroke="black" points="380,-600 380,-622 463,-622 463,-600 380,-600"/>
<text text-anchor="start" x="383" y="-608.2" font-family="Helvetica,sans-Serif" font-size="11.00">numeric[10]</text>
<polygon fill="none" stroke="black" points="233,-578 233,-600 380,-600 380,-578 233,-578"/>
<image xlink:href="../../images/foreignKeys.png" width="11px" height="12px" preserveAspectRatio="xMinYMin meet" x="238" y="-595"/>
<text text-anchor="start" x="253" y="-586.2" font-family="Helvetica,sans-Serif" font-size="11.00">c_projecttype_id</text>
<polygon fill="none" stroke="black" points="380,-578 380,-600 463,-600 463,-578 380,-578"/>
<text text-anchor="start" x="383" y="-586.2" font-family="Helvetica,sans-Serif" font-size="11.00">numeric[10]</text>
<polygon fill="#ffffff" stroke="transparent" points="233,-556 233,-578 380,-578 380,-556 233,-556"/>
<polygon fill="none" stroke="black" points="233,-556 233,-578 380,-578 380,-556 233,-556"/>
<text text-anchor="start" x="253" y="-564.2" font-family="Helvetica,sans-Serif" font-size="11.00">pa_measure_uu</text>
<polygon fill="none" stroke="black" points="380,-556 380,-578 463,-578 463,-556 380,-556"/>
<text text-anchor="start" x="383" y="-564.2" font-family="Helvetica,sans-Serif" font-size="11.00">varchar[36]</text>
<polygon fill="#ffffff" stroke="transparent" points="233,-538 233,-556 298,-556 298,-538 233,-538"/>
<polygon fill="none" stroke="black" points="233,-538 233,-556 298,-556 298,-538 233,-538"/>
<text text-anchor="start" x="236" y="-544.2" font-family="Helvetica,sans-Serif" font-size="11.00">&lt; 6</text>
<polygon fill="#ffffff" stroke="transparent" points="298,-538 298,-556 380,-556 380,-538 298,-538"/>
<polygon fill="none" stroke="black" points="298,-538 298,-556 380,-556 380,-538 298,-538"/>
<text text-anchor="start" x="344" y="-544.2" font-family="Helvetica,sans-Serif" font-size="11.00">0 rows</text>
<polygon fill="#ffffff" stroke="transparent" points="380,-538 380,-556 463,-556 463,-538 380,-538"/>
<polygon fill="none" stroke="black" points="380,-538 380,-556 463,-556 463,-538 380,-538"/>
<text text-anchor="start" x="444" y="-544.2" font-family="Helvetica,sans-Serif" font-size="11.00">2 &gt;</text>
<polygon fill="none" stroke="black" stroke-width="2" points="232,-537 232,-1063 464,-1063 464,-537 232,-537"/>
</a>
</g>
</g>
<!-- pa_achievement&#45;&gt;pa_measure -->
<g id="edge1" class="edge">
<title>pa_achievement:w&#45;&gt;pa_measure:e</title>
<path fill="none" stroke="black" d="M499.36,-1130.01C473.04,-1110.83 509.55,-1029 464,-1029"/>
<polygon fill="black" stroke="black" points="505.8,-1131.83 512.52,-1137.46 509.65,-1132.91 513.5,-1134 513.5,-1134 513.5,-1134 509.65,-1132.91 514.48,-1130.54 505.8,-1131.83 505.8,-1131.83"/>
<ellipse fill="none" stroke="black" cx="502.72" cy="-1130.96" rx="3.2" ry="3.2"/>
</g>
<!-- c_projecttype -->
<g id="node4" class="node">
<title>c_projecttype</title>
<g id="a_node4"><a xlink:href="../../tables/c_projecttype.html" xlink:title="c_projecttype" target="_top">
<polygon fill="#ffffff" stroke="transparent" points="27.5,-37 27.5,-139 162.5,-139 162.5,-37 27.5,-37"/>
<polygon fill="#f5f5f5" stroke="transparent" points="28,-117 28,-139 163,-139 163,-117 28,-117"/>
<polygon fill="none" stroke="black" points="28,-117 28,-139 163,-139 163,-117 28,-117"/>
<text text-anchor="start" x="33" y="-126.2" font-family="Helvetica,sans-Serif" font-weight="bold" font-size="11.00">c_projecttype</text>
<text text-anchor="start" x="128" y="-125.2" font-family="Helvetica,sans-Serif" font-size="11.00">[table]</text>
<polygon fill="none" stroke="black" points="28,-95 28,-117 163,-117 163,-95 28,-95"/>
<image xlink:href="../../images/primaryKeys.png" width="11px" height="12px" preserveAspectRatio="xMinYMin meet" x="33" y="-112"/>
<text text-anchor="start" x="48" y="-103.2" font-family="Helvetica,sans-Serif" font-size="11.00">c_projecttype_id</text>
<polygon fill="#ffffff" stroke="transparent" points="28,-73 28,-95 163,-95 163,-73 28,-73"/>
<polygon fill="none" stroke="black" points="28,-73 28,-95 163,-95 163,-73 28,-73"/>
<text text-anchor="start" x="48" y="-81.2" font-family="Helvetica,sans-Serif" font-size="11.00">c_projecttype_uu</text>
<polygon fill="none" stroke="black" points="28,-55 28,-73 163,-73 163,-55 28,-55"/>
<text text-anchor="start" x="31" y="-61.2" font-family="Helvetica,sans-Serif" font-size="11.00">...</text>
<polygon fill="#ffffff" stroke="transparent" points="28,-37 28,-55 71,-55 71,-37 28,-37"/>
<polygon fill="none" stroke="black" points="28,-37 28,-55 71,-55 71,-37 28,-37"/>
<text text-anchor="start" x="31" y="-43.2" font-family="Helvetica,sans-Serif" font-size="11.00"> &#160;</text>
<polygon fill="#ffffff" stroke="transparent" points="71,-37 71,-55 125,-55 125,-37 71,-37"/>
<polygon fill="none" stroke="black" points="71,-37 71,-55 125,-55 125,-37 71,-37"/>
<text text-anchor="start" x="89" y="-43.2" font-family="Helvetica,sans-Serif" font-size="11.00">0 rows</text>
<polygon fill="#ffffff" stroke="transparent" points="125,-37 125,-55 163,-55 163,-37 125,-37"/>
<polygon fill="none" stroke="black" points="125,-37 125,-55 163,-55 163,-37 125,-37"/>
<text text-anchor="start" x="144" y="-43.2" font-family="Helvetica,sans-Serif" font-size="11.00">3 &gt;</text>
</a>
</g>
</g>
<!-- pa_measure&#45;&gt;c_projecttype -->
<g id="edge3" class="edge">
<title>pa_measure:w&#45;&gt;c_projecttype:e</title>
<path fill="none" stroke="black" d="M220.42,-580.01C186.63,-521.11 204.04,-191.44 190,-149 182.99,-127.8 186.33,-106 164,-106"/>
<polygon fill="black" stroke="black" points="225.68,-584.09 229.79,-591.84 228.84,-586.55 232,-589 232,-589 232,-589 228.84,-586.55 234.21,-586.16 225.68,-584.09 225.68,-584.09"/>
<ellipse fill="none" stroke="black" cx="223.15" cy="-582.13" rx="3.2" ry="3.2"/>
</g>
<!-- pa_benchmark -->
<g id="node5" class="node">
<title>pa_benchmark</title>
<g id="a_node5"><a xlink:href="../../tables/pa_benchmark.html" xlink:title="pa_benchmark" target="_top">
<polygon fill="#ffffff" stroke="transparent" points="24,-793 24,-895 166,-895 166,-793 24,-793"/>
<polygon fill="#f5f5f5" stroke="transparent" points="24,-873 24,-895 166,-895 166,-873 24,-873"/>
<polygon fill="none" stroke="black" points="24,-873 24,-895 166,-895 166,-873 24,-873"/>
<text text-anchor="start" x="29" y="-882.2" font-family="Helvetica,sans-Serif" font-weight="bold" font-size="11.00">pa_benchmark</text>
<text text-anchor="start" x="131" y="-881.2" font-family="Helvetica,sans-Serif" font-size="11.00">[table]</text>
<polygon fill="none" stroke="black" points="24,-851 24,-873 166,-873 166,-851 24,-851"/>
<image xlink:href="../../images/primaryKeys.png" width="11px" height="12px" preserveAspectRatio="xMinYMin meet" x="29" y="-868"/>
<text text-anchor="start" x="44" y="-859.2" font-family="Helvetica,sans-Serif" font-size="11.00">pa_benchmark_id</text>
<polygon fill="#ffffff" stroke="transparent" points="24,-829 24,-851 166,-851 166,-829 24,-829"/>
<polygon fill="none" stroke="black" points="24,-829 24,-851 166,-851 166,-829 24,-829"/>
<text text-anchor="start" x="44" y="-837.2" font-family="Helvetica,sans-Serif" font-size="11.00">pa_benchmark_uu</text>
<polygon fill="none" stroke="black" points="24,-811 24,-829 166,-829 166,-811 24,-811"/>
<text text-anchor="start" x="27" y="-817.2" font-family="Helvetica,sans-Serif" font-size="11.00">...</text>
<polygon fill="#ffffff" stroke="transparent" points="24,-793 24,-811 71,-811 71,-793 24,-793"/>
<polygon fill="none" stroke="black" points="24,-793 24,-811 71,-811 71,-793 24,-793"/>
<text text-anchor="start" x="27" y="-799.2" font-family="Helvetica,sans-Serif" font-size="11.00"> &#160;</text>
<polygon fill="#ffffff" stroke="transparent" points="71,-793 71,-811 127,-811 127,-793 71,-793"/>
<polygon fill="none" stroke="black" points="71,-793 71,-811 127,-811 127,-793 71,-793"/>
<text text-anchor="start" x="91" y="-799.2" font-family="Helvetica,sans-Serif" font-size="11.00">0 rows</text>
<polygon fill="#ffffff" stroke="transparent" points="127,-793 127,-811 166,-811 166,-793 127,-793"/>
<polygon fill="none" stroke="black" points="127,-793 127,-811 166,-811 166,-793 127,-793"/>
<text text-anchor="start" x="147" y="-799.2" font-family="Helvetica,sans-Serif" font-size="11.00">2 &gt;</text>
</a>
</g>
</g>
<!-- pa_measure&#45;&gt;pa_benchmark -->
<g id="edge4" class="edge">
<title>pa_measure:w&#45;&gt;pa_benchmark:e</title>
<path fill="none" stroke="black" d="M217.61,-701.43C166.28,-721.71 239.36,-862 167,-862"/>
<polygon fill="black" stroke="black" points="224.11,-700.33 232.6,-702.55 228.06,-699.67 232,-699 232,-699 232,-699 228.06,-699.67 231.4,-695.45 224.11,-700.33 224.11,-700.33"/>
<ellipse fill="none" stroke="black" cx="220.96" cy="-700.87" rx="3.2" ry="3.2"/>
</g>
<!-- pa_hierarchy -->
<g id="node6" class="node">
<title>pa_hierarchy</title>
<g id="a_node6"><a xlink:href="../../tables/pa_hierarchy.html" xlink:title="pa_hierarchy" target="_top">
<polygon fill="#ffffff" stroke="transparent" points="8,-349 8,-627 182,-627 182,-349 8,-349"/>
<polygon fill="#f5f5f5" stroke="transparent" points="8,-605 8,-627 182,-627 182,-605 8,-605"/>
<polygon fill="none" stroke="black" points="8,-605 8,-627 182,-627 182,-605 8,-605"/>
<text text-anchor="start" x="13" y="-614.2" font-family="Helvetica,sans-Serif" font-weight="bold" font-size="11.00">pa_hierarchy</text>
<text text-anchor="start" x="147" y="-613.2" font-family="Helvetica,sans-Serif" font-size="11.00">[table]</text>
<polygon fill="none" stroke="black" points="8,-583 8,-605 182,-605 182,-583 8,-583"/>
<image xlink:href="../../images/primaryKeys.png" width="11px" height="12px" preserveAspectRatio="xMinYMin meet" x="13" y="-600"/>
<text text-anchor="start" x="28" y="-591.2" font-family="Helvetica,sans-Serif" font-size="11.00">pa_hierarchy_id</text>
<polygon fill="none" stroke="black" points="8,-561 8,-583 182,-583 182,-561 8,-561"/>
<image xlink:href="../../images/foreignKeys.png" width="11px" height="12px" preserveAspectRatio="xMinYMin meet" x="13" y="-578"/>
<text text-anchor="start" x="28" y="-569.2" font-family="Helvetica,sans-Serif" font-size="11.00">ad_tree_org_id</text>
<polygon fill="none" stroke="black" points="8,-539 8,-561 182,-561 182,-539 8,-539"/>
<image xlink:href="../../images/foreignKeys.png" width="11px" height="12px" preserveAspectRatio="xMinYMin meet" x="13" y="-556"/>
<text text-anchor="start" x="28" y="-547.2" font-family="Helvetica,sans-Serif" font-size="11.00">ad_tree_bpartner_id</text>
<polygon fill="none" stroke="black" points="8,-517 8,-539 182,-539 182,-517 8,-517"/>
<image xlink:href="../../images/foreignKeys.png" width="11px" height="12px" preserveAspectRatio="xMinYMin meet" x="13" y="-534"/>
<text text-anchor="start" x="28" y="-525.2" font-family="Helvetica,sans-Serif" font-size="11.00">ad_tree_project_id</text>
<polygon fill="none" stroke="black" points="8,-495 8,-517 182,-517 182,-495 8,-495"/>
<image xlink:href="../../images/foreignKeys.png" width="11px" height="12px" preserveAspectRatio="xMinYMin meet" x="13" y="-512"/>
<text text-anchor="start" x="28" y="-503.2" font-family="Helvetica,sans-Serif" font-size="11.00">ad_tree_salesregion_id</text>
<polygon fill="none" stroke="black" points="8,-473 8,-495 182,-495 182,-473 8,-473"/>
<image xlink:href="../../images/foreignKeys.png" width="11px" height="12px" preserveAspectRatio="xMinYMin meet" x="13" y="-490"/>
<text text-anchor="start" x="28" y="-481.2" font-family="Helvetica,sans-Serif" font-size="11.00">ad_tree_product_id</text>
<polygon fill="none" stroke="black" points="8,-451 8,-473 182,-473 182,-451 8,-451"/>
<image xlink:href="../../images/foreignKeys.png" width="11px" height="12px" preserveAspectRatio="xMinYMin meet" x="13" y="-468"/>
<text text-anchor="start" x="28" y="-459.2" font-family="Helvetica,sans-Serif" font-size="11.00">ad_tree_campaign_id</text>
<polygon fill="none" stroke="black" points="8,-429 8,-451 182,-451 182,-429 8,-429"/>
<image xlink:href="../../images/foreignKeys.png" width="11px" height="12px" preserveAspectRatio="xMinYMin meet" x="13" y="-446"/>
<text text-anchor="start" x="28" y="-437.2" font-family="Helvetica,sans-Serif" font-size="11.00">ad_tree_activity_id</text>
<polygon fill="none" stroke="black" points="8,-407 8,-429 182,-429 182,-407 8,-407"/>
<image xlink:href="../../images/foreignKeys.png" width="11px" height="12px" preserveAspectRatio="xMinYMin meet" x="13" y="-424"/>
<text text-anchor="start" x="28" y="-415.2" font-family="Helvetica,sans-Serif" font-size="11.00">ad_tree_account_id</text>
<polygon fill="#ffffff" stroke="transparent" points="8,-385 8,-407 182,-407 182,-385 8,-385"/>
<polygon fill="none" stroke="black" points="8,-385 8,-407 182,-407 182,-385 8,-385"/>
<text text-anchor="start" x="28" y="-393.2" font-family="Helvetica,sans-Serif" font-size="11.00">pa_hierarchy_uu</text>
<polygon fill="none" stroke="black" points="8,-367 8,-385 182,-385 182,-367 8,-367"/>
<text text-anchor="start" x="11" y="-373.2" font-family="Helvetica,sans-Serif" font-size="11.00">...</text>
<polygon fill="#ffffff" stroke="transparent" points="8,-349 8,-367 78,-367 78,-349 8,-349"/>
<polygon fill="none" stroke="black" points="8,-349 8,-367 78,-367 78,-349 8,-349"/>
<text text-anchor="start" x="11" y="-355.2" font-family="Helvetica,sans-Serif" font-size="11.00">&lt; 8</text>
<polygon fill="#ffffff" stroke="transparent" points="78,-349 78,-367 136,-367 136,-349 78,-349"/>
<polygon fill="none" stroke="black" points="78,-349 78,-367 136,-367 136,-349 78,-349"/>
<text text-anchor="start" x="105" y="-355.2" font-family="Helvetica,sans-Serif" font-size="11.00">1 row</text>
<polygon fill="#ffffff" stroke="transparent" points="136,-349 136,-367 182,-367 182,-349 136,-349"/>
<polygon fill="none" stroke="black" points="136,-349 136,-367 182,-367 182,-349 136,-349"/>
<text text-anchor="start" x="163" y="-355.2" font-family="Helvetica,sans-Serif" font-size="11.00">1 &gt;</text>
</a>
</g>
</g>
<!-- pa_measure&#45;&gt;pa_hierarchy -->
<g id="edge5" class="edge">
<title>pa_measure:w&#45;&gt;pa_hierarchy:e</title>
<path fill="none" stroke="black" d="M218.41,-650.21C202.65,-635.83 211.8,-594 183,-594"/>
<polygon fill="black" stroke="black" points="224.45,-652.34 230.8,-658.4 228.23,-653.67 232,-655 232,-655 232,-655 228.23,-653.67 233.2,-651.6 224.45,-652.34 224.45,-652.34"/>
<ellipse fill="none" stroke="black" cx="221.44" cy="-651.28" rx="3.2" ry="3.2"/>
</g>
<!-- pa_measurecalc -->
<g id="node7" class="node">
<title>pa_measurecalc</title>
<g id="a_node7"><a xlink:href="../../tables/pa_measurecalc.html" xlink:title="pa_measurecalc" target="_top">
<polygon fill="#ffffff" stroke="transparent" points="19.5,-916 19.5,-1062 170.5,-1062 170.5,-916 19.5,-916"/>
<polygon fill="#f5f5f5" stroke="transparent" points="20,-1040 20,-1062 171,-1062 171,-1040 20,-1040"/>
<polygon fill="none" stroke="black" points="20,-1040 20,-1062 171,-1062 171,-1040 20,-1040"/>
<text text-anchor="start" x="25" y="-1049.2" font-family="Helvetica,sans-Serif" font-weight="bold" font-size="11.00">pa_measurecalc</text>
<text text-anchor="start" x="136" y="-1048.2" font-family="Helvetica,sans-Serif" font-size="11.00">[table]</text>
<polygon fill="none" stroke="black" points="20,-1018 20,-1040 171,-1040 171,-1018 20,-1018"/>
<image xlink:href="../../images/primaryKeys.png" width="11px" height="12px" preserveAspectRatio="xMinYMin meet" x="25" y="-1035"/>
<text text-anchor="start" x="40" y="-1026.2" font-family="Helvetica,sans-Serif" font-size="11.00">pa_measurecalc_id</text>
<polygon fill="none" stroke="black" points="20,-996 20,-1018 171,-1018 171,-996 20,-996"/>
<image xlink:href="../../images/foreignKeys.png" width="11px" height="12px" preserveAspectRatio="xMinYMin meet" x="25" y="-1013"/>
<text text-anchor="start" x="40" y="-1004.2" font-family="Helvetica,sans-Serif" font-size="11.00">ad_table_id</text>
<polygon fill="none" stroke="black" points="20,-974 20,-996 171,-996 171,-974 20,-974"/>
<image xlink:href="../../images/foreignKeys.png" width="11px" height="12px" preserveAspectRatio="xMinYMin meet" x="25" y="-991"/>
<text text-anchor="start" x="40" y="-982.2" font-family="Helvetica,sans-Serif" font-size="11.00">entitytype</text>
<polygon fill="#ffffff" stroke="transparent" points="20,-952 20,-974 171,-974 171,-952 20,-952"/>
<polygon fill="none" stroke="black" points="20,-952 20,-974 171,-974 171,-952 20,-952"/>
<text text-anchor="start" x="40" y="-960.2" font-family="Helvetica,sans-Serif" font-size="11.00">pa_measurecalc_uu</text>
<polygon fill="none" stroke="black" points="20,-934 20,-952 171,-952 171,-934 20,-934"/>
<text text-anchor="start" x="23" y="-940.2" font-family="Helvetica,sans-Serif" font-size="11.00">...</text>
<polygon fill="#ffffff" stroke="transparent" points="20,-916 20,-934 76,-934 76,-916 20,-916"/>
<polygon fill="none" stroke="black" points="20,-916 20,-934 76,-934 76,-916 20,-916"/>
<text text-anchor="start" x="23" y="-922.2" font-family="Helvetica,sans-Serif" font-size="11.00">&lt; 2</text>
<polygon fill="#ffffff" stroke="transparent" points="76,-916 76,-934 132,-934 132,-916 76,-916"/>
<polygon fill="none" stroke="black" points="76,-916 76,-934 132,-934 132,-916 76,-916"/>
<text text-anchor="start" x="96" y="-922.2" font-family="Helvetica,sans-Serif" font-size="11.00">6 rows</text>
<polygon fill="#ffffff" stroke="transparent" points="132,-916 132,-934 171,-934 171,-916 132,-916"/>
<polygon fill="none" stroke="black" points="132,-916 132,-934 171,-934 171,-916 132,-916"/>
<text text-anchor="start" x="152" y="-922.2" font-family="Helvetica,sans-Serif" font-size="11.00">2 &gt;</text>
</a>
</g>
</g>
<!-- pa_measure&#45;&gt;pa_measurecalc -->
<g id="edge6" class="edge">
<title>pa_measure:w&#45;&gt;pa_measurecalc:e</title>
<path fill="none" stroke="black" d="M218.25,-726.35C173.77,-767.25 236.28,-1029 172,-1029"/>
<polygon fill="black" stroke="black" points="224.54,-723.9 233.3,-724.36 228.27,-722.45 232,-721 232,-721 232,-721 228.27,-722.45 230.7,-717.64 224.54,-723.9 224.54,-723.9"/>
<ellipse fill="none" stroke="black" cx="221.56" cy="-725.06" rx="3.2" ry="3.2"/>
</g>
<!-- pa_ratio -->
<g id="node8" class="node">
<title>pa_ratio</title>
<g id="a_node8"><a xlink:href="../../tables/pa_ratio.html" xlink:title="pa_ratio" target="_top">
<polygon fill="#ffffff" stroke="transparent" points="29,-648 29,-772 161,-772 161,-648 29,-648"/>
<polygon fill="#f5f5f5" stroke="transparent" points="29,-750 29,-772 161,-772 161,-750 29,-750"/>
<polygon fill="none" stroke="black" points="29,-750 29,-772 161,-772 161,-750 29,-750"/>
<text text-anchor="start" x="34" y="-759.2" font-family="Helvetica,sans-Serif" font-weight="bold" font-size="11.00">pa_ratio</text>
<text text-anchor="start" x="126" y="-758.2" font-family="Helvetica,sans-Serif" font-size="11.00">[table]</text>
<polygon fill="none" stroke="black" points="29,-728 29,-750 161,-750 161,-728 29,-728"/>
<image xlink:href="../../images/primaryKeys.png" width="11px" height="12px" preserveAspectRatio="xMinYMin meet" x="34" y="-745"/>
<text text-anchor="start" x="49" y="-736.2" font-family="Helvetica,sans-Serif" font-size="11.00">pa_ratio_id</text>
<polygon fill="none" stroke="black" points="29,-706 29,-728 161,-728 161,-706 29,-706"/>
<image xlink:href="../../images/foreignKeys.png" width="11px" height="12px" preserveAspectRatio="xMinYMin meet" x="34" y="-723"/>
<text text-anchor="start" x="49" y="-714.2" font-family="Helvetica,sans-Serif" font-size="11.00">c_acctschema_id</text>
<polygon fill="#ffffff" stroke="transparent" points="29,-684 29,-706 161,-706 161,-684 29,-684"/>
<polygon fill="none" stroke="black" points="29,-684 29,-706 161,-706 161,-684 29,-684"/>
<text text-anchor="start" x="49" y="-692.2" font-family="Helvetica,sans-Serif" font-size="11.00">pa_ratio_uu</text>
<polygon fill="none" stroke="black" points="29,-666 29,-684 161,-684 161,-666 29,-666"/>
<text text-anchor="start" x="32" y="-672.2" font-family="Helvetica,sans-Serif" font-size="11.00">...</text>
<polygon fill="#ffffff" stroke="transparent" points="29,-648 29,-666 75,-666 75,-648 29,-648"/>
<polygon fill="none" stroke="black" points="29,-648 29,-666 75,-666 75,-648 29,-648"/>
<text text-anchor="start" x="32" y="-654.2" font-family="Helvetica,sans-Serif" font-size="11.00">&lt; 1</text>
<polygon fill="#ffffff" stroke="transparent" points="75,-648 75,-666 126,-666 126,-648 75,-648"/>
<polygon fill="none" stroke="black" points="75,-648 75,-666 126,-666 126,-648 75,-648"/>
<text text-anchor="start" x="90" y="-654.2" font-family="Helvetica,sans-Serif" font-size="11.00">0 rows</text>
<polygon fill="#ffffff" stroke="transparent" points="126,-648 126,-666 161,-666 161,-648 126,-648"/>
<polygon fill="none" stroke="black" points="126,-648 126,-666 161,-666 161,-648 126,-648"/>
<text text-anchor="start" x="142" y="-654.2" font-family="Helvetica,sans-Serif" font-size="11.00">3 &gt;</text>
</a>
</g>
</g>
<!-- pa_measure&#45;&gt;pa_ratio -->
<g id="edge7" class="edge">
<title>pa_measure:w&#45;&gt;pa_ratio:e</title>
<path fill="none" stroke="black" d="M217.74,-680.16C193.01,-692.79 197.88,-739 162,-739"/>
<polygon fill="black" stroke="black" points="224.19,-678.73 232.78,-680.51 228.09,-677.87 232,-677 232,-677 232,-677 228.09,-677.87 231.22,-673.49 224.19,-678.73 224.19,-678.73"/>
<ellipse fill="none" stroke="black" cx="221.07" cy="-679.42" rx="3.2" ry="3.2"/>
</g>
<!-- r_requesttype -->
<g id="node9" class="node">
<title>r_requesttype</title>
<g id="a_node9"><a xlink:href="../../tables/r_requesttype.html" xlink:title="r_requesttype" target="_top">
<polygon fill="#ffffff" stroke="transparent" points="13,-160 13,-328 177,-328 177,-160 13,-160"/>
<polygon fill="#f5f5f5" stroke="transparent" points="13,-306 13,-328 177,-328 177,-306 13,-306"/>
<polygon fill="none" stroke="black" points="13,-306 13,-328 177,-328 177,-306 13,-306"/>
<text text-anchor="start" x="18" y="-315.2" font-family="Helvetica,sans-Serif" font-weight="bold" font-size="11.00">r_requesttype</text>
<text text-anchor="start" x="142" y="-314.2" font-family="Helvetica,sans-Serif" font-size="11.00">[table]</text>
<polygon fill="none" stroke="black" points="13,-284 13,-306 177,-306 177,-284 13,-284"/>
<image xlink:href="../../images/primaryKeys.png" width="11px" height="12px" preserveAspectRatio="xMinYMin meet" x="18" y="-301"/>
<text text-anchor="start" x="33" y="-292.2" font-family="Helvetica,sans-Serif" font-size="11.00">r_requesttype_id</text>
<polygon fill="none" stroke="black" points="13,-262 13,-284 177,-284 177,-262 13,-262"/>
<image xlink:href="../../images/foreignKeys.png" width="11px" height="12px" preserveAspectRatio="xMinYMin meet" x="18" y="-279"/>
<text text-anchor="start" x="33" y="-270.2" font-family="Helvetica,sans-Serif" font-size="11.00">r_statuscategory_id</text>
<polygon fill="#ffffff" stroke="transparent" points="13,-240 13,-262 177,-262 177,-240 13,-240"/>
<polygon fill="none" stroke="black" points="13,-240 13,-262 177,-262 177,-240 13,-240"/>
<text text-anchor="start" x="33" y="-248.2" font-family="Helvetica,sans-Serif" font-size="11.00">r_requesttype_uu</text>
<polygon fill="none" stroke="black" points="13,-218 13,-240 177,-240 177,-218 13,-218"/>
<image xlink:href="../../images/foreignKeys.png" width="11px" height="12px" preserveAspectRatio="xMinYMin meet" x="18" y="-235"/>
<text text-anchor="start" x="33" y="-226.2" font-family="Helvetica,sans-Serif" font-size="11.00">cof_templateemail_id</text>
<polygon fill="none" stroke="black" points="13,-196 13,-218 177,-218 177,-196 13,-196"/>
<image xlink:href="../../images/foreignKeys.png" width="11px" height="12px" preserveAspectRatio="xMinYMin meet" x="18" y="-213"/>
<text text-anchor="start" x="33" y="-204.2" font-family="Helvetica,sans-Serif" font-size="11.00">ad_user_id</text>
<polygon fill="none" stroke="black" points="13,-178 13,-196 177,-196 177,-178 13,-178"/>
<text text-anchor="start" x="16" y="-184.2" font-family="Helvetica,sans-Serif" font-size="11.00">...</text>
<polygon fill="#ffffff" stroke="transparent" points="13,-160 13,-178 72,-178 72,-160 13,-160"/>
<polygon fill="none" stroke="black" points="13,-160 13,-178 72,-178 72,-160 13,-160"/>
<text text-anchor="start" x="16" y="-166.2" font-family="Helvetica,sans-Serif" font-size="11.00">&lt; 3</text>
<polygon fill="#ffffff" stroke="transparent" points="72,-160 72,-178 130,-178 130,-160 72,-160"/>
<polygon fill="none" stroke="black" points="72,-160 72,-178 130,-178 130,-160 72,-160"/>
<text text-anchor="start" x="94" y="-166.2" font-family="Helvetica,sans-Serif" font-size="11.00">2 rows</text>
<polygon fill="#ffffff" stroke="transparent" points="130,-160 130,-178 177,-178 177,-160 130,-160"/>
<polygon fill="none" stroke="black" points="130,-160 130,-178 177,-178 177,-160 130,-160"/>
<text text-anchor="start" x="152" y="-166.2" font-family="Helvetica,sans-Serif" font-size="11.00">12 &gt;</text>
</a>
</g>
</g>
<!-- pa_measure&#45;&gt;r_requesttype -->
<g id="edge8" class="edge">
<title>pa_measure:w&#45;&gt;r_requesttype:e</title>
<path fill="none" stroke="black" d="M218.36,-605.78C173.31,-564.69 243.81,-295 178,-295"/>
<polygon fill="black" stroke="black" points="224.53,-608.14 230.71,-614.36 228.26,-609.57 232,-611 232,-611 232,-611 228.26,-609.57 233.29,-607.64 224.53,-608.14 224.53,-608.14"/>
<ellipse fill="none" stroke="black" cx="221.54" cy="-607" rx="3.2" ry="3.2"/>
</g>
<!-- pa_goal -->
<g id="node3" class="node">
<title>pa_goal</title>
<g id="a_node3"><a xlink:href="../../tables/pa_goal.html" xlink:title="pa_goal" target="_top">
<polygon fill="#ffffff" stroke="transparent" points="517,-832 517,-1044 664,-1044 664,-832 517,-832"/>
<polygon fill="#f5f5f5" stroke="transparent" points="517.5,-1022 517.5,-1044 664.5,-1044 664.5,-1022 517.5,-1022"/>
<polygon fill="none" stroke="black" points="517.5,-1022 517.5,-1044 664.5,-1044 664.5,-1022 517.5,-1022"/>
<text text-anchor="start" x="522.5" y="-1031.2" font-family="Helvetica,sans-Serif" font-weight="bold" font-size="11.00">pa_goal</text>
<text text-anchor="start" x="629.5" y="-1030.2" font-family="Helvetica,sans-Serif" font-size="11.00">[table]</text>
<polygon fill="none" stroke="black" points="517.5,-1000 517.5,-1022 664.5,-1022 664.5,-1000 517.5,-1000"/>
<image xlink:href="../../images/primaryKeys.png" width="11px" height="12px" preserveAspectRatio="xMinYMin meet" x="522.5" y="-1017"/>
<text text-anchor="start" x="537.5" y="-1008.2" font-family="Helvetica,sans-Serif" font-size="11.00">pa_goal_id</text>
<polygon fill="none" stroke="black" points="517.5,-978 517.5,-1000 664.5,-1000 664.5,-978 517.5,-978"/>
<image xlink:href="../../images/foreignKeys.png" width="11px" height="12px" preserveAspectRatio="xMinYMin meet" x="522.5" y="-995"/>
<text text-anchor="start" x="537.5" y="-986.2" font-family="Helvetica,sans-Serif" font-size="11.00">ad_user_id</text>
<polygon fill="none" stroke="black" points="517.5,-956 517.5,-978 664.5,-978 664.5,-956 517.5,-956"/>
<image xlink:href="../../images/foreignKeys.png" width="11px" height="12px" preserveAspectRatio="xMinYMin meet" x="522.5" y="-973"/>
<text text-anchor="start" x="537.5" y="-964.2" font-family="Helvetica,sans-Serif" font-size="11.00">pa_colorschema_id</text>
<polygon fill="none" stroke="black" points="517.5,-934 517.5,-956 664.5,-956 664.5,-934 517.5,-934"/>
<image xlink:href="../../images/foreignKeys.png" width="11px" height="12px" preserveAspectRatio="xMinYMin meet" x="522.5" y="-951"/>
<text text-anchor="start" x="537.5" y="-942.2" font-family="Helvetica,sans-Serif" font-size="11.00">pa_goalparent_id</text>
<polygon fill="none" stroke="black" points="517.5,-912 517.5,-934 664.5,-934 664.5,-912 517.5,-912"/>
<image xlink:href="../../images/foreignKeys.png" width="11px" height="12px" preserveAspectRatio="xMinYMin meet" x="522.5" y="-929"/>
<text text-anchor="start" x="537.5" y="-920.2" font-family="Helvetica,sans-Serif" font-size="11.00">pa_measure_id</text>
<polygon fill="none" stroke="black" points="517.5,-890 517.5,-912 664.5,-912 664.5,-890 517.5,-890"/>
<image xlink:href="../../images/foreignKeys.png" width="11px" height="12px" preserveAspectRatio="xMinYMin meet" x="522.5" y="-907"/>
<text text-anchor="start" x="537.5" y="-898.2" font-family="Helvetica,sans-Serif" font-size="11.00">ad_role_id</text>
<polygon fill="#ffffff" stroke="transparent" points="517.5,-868 517.5,-890 664.5,-890 664.5,-868 517.5,-868"/>
<polygon fill="none" stroke="black" points="517.5,-868 517.5,-890 664.5,-890 664.5,-868 517.5,-868"/>
<text text-anchor="start" x="537.5" y="-876.2" font-family="Helvetica,sans-Serif" font-size="11.00">pa_goal_uu</text>
<polygon fill="none" stroke="black" points="517.5,-850 517.5,-868 664.5,-868 664.5,-850 517.5,-850"/>
<text text-anchor="start" x="520.5" y="-856.2" font-family="Helvetica,sans-Serif" font-size="11.00">...</text>
<polygon fill="#ffffff" stroke="transparent" points="517.5,-832 517.5,-850 571.5,-850 571.5,-832 517.5,-832"/>
<polygon fill="none" stroke="black" points="517.5,-832 517.5,-850 571.5,-850 571.5,-832 517.5,-832"/>
<text text-anchor="start" x="520.5" y="-838.2" font-family="Helvetica,sans-Serif" font-size="11.00">&lt; 5</text>
<polygon fill="#ffffff" stroke="transparent" points="571.5,-832 571.5,-850 626.5,-850 626.5,-832 571.5,-832"/>
<polygon fill="none" stroke="black" points="571.5,-832 571.5,-850 626.5,-850 626.5,-832 571.5,-832"/>
<text text-anchor="start" x="590.5" y="-838.2" font-family="Helvetica,sans-Serif" font-size="11.00">0 rows</text>
<polygon fill="#ffffff" stroke="transparent" points="626.5,-832 626.5,-850 664.5,-850 664.5,-832 626.5,-832"/>
<polygon fill="none" stroke="black" points="626.5,-832 626.5,-850 664.5,-850 664.5,-832 626.5,-832"/>
<text text-anchor="start" x="645.5" y="-838.2" font-family="Helvetica,sans-Serif" font-size="11.00">3 &gt;</text>
</a>
</g>
</g>
<!-- pa_goal&#45;&gt;pa_measure -->
<g id="edge2" class="edge">
<title>pa_goal:w&#45;&gt;pa_measure:e</title>
<path fill="none" stroke="black" d="M502.38,-926.77C474.5,-945.66 510.62,-1029 464,-1029"/>
<polygon fill="black" stroke="black" points="508.77,-925.06 517.43,-926.48 512.64,-924.03 516.5,-923 516.5,-923 516.5,-923 512.64,-924.03 515.57,-919.52 508.77,-925.06 508.77,-925.06"/>
<ellipse fill="none" stroke="black" cx="505.68" cy="-925.89" rx="3.2" ry="3.2"/>
</g>
</g>
</svg>
