<?xml version="1.0" encoding="UTF-8" standalone="no"?>
<!DOCTYPE svg PUBLIC "-//W3C//DTD SVG 1.1//EN"
 "http://www.w3.org/Graphics/SVG/1.1/DTD/svg11.dtd">
<!-- Generated by graphviz version 2.43.0 (0)
 -->
<!-- Title: oneDegreeRelationshipsDiagram Pages: 1 -->
<svg width="547pt" height="698pt"
 viewBox="0.00 0.00 547.00 698.00" xmlns="http://www.w3.org/2000/svg" xmlns:xlink="http://www.w3.org/1999/xlink">
<g id="graph0" class="graph" transform="scale(1 1) rotate(0) translate(4 694)">
<title>oneDegreeRelationshipsDiagram</title>
<polygon fill="#ffffff" stroke="transparent" points="-4,4 -4,-694 543,-694 543,4 -4,4"/>
<text text-anchor="middle" x="71.5" y="-7.2" font-family="Helvetica,sans-Serif" font-size="11.00">Generated by SchemaSpy</text>
<!-- pa_reportcolumn_trl -->
<g id="node1" class="node">
<title>pa_reportcolumn_trl</title>
<g id="a_node1"><a xlink:href="../../tables/pa_reportcolumn_trl.html" xlink:title="pa_reportcolumn_trl" target="_top">
<polygon fill="#ffffff" stroke="transparent" points="264,-356 264,-686 531,-686 531,-356 264,-356"/>
<polygon fill="#f5f5f5" stroke="transparent" points="266.5,-662 266.5,-684 529.5,-684 529.5,-662 266.5,-662"/>
<polygon fill="none" stroke="black" points="266.5,-662 266.5,-684 529.5,-684 529.5,-662 266.5,-662"/>
<text text-anchor="start" x="271.5" y="-671.2" font-family="Helvetica,sans-Serif" font-weight="bold" font-size="11.00">pa_reportcolumn_trl</text>
<text text-anchor="start" x="494.5" y="-670.2" font-family="Helvetica,sans-Serif" font-size="11.00">[table]</text>
<polygon fill="none" stroke="black" points="266.5,-640 266.5,-662 446.5,-662 446.5,-640 266.5,-640"/>
<text text-anchor="start" x="286.5" y="-648.2" font-family="Helvetica,sans-Serif" font-size="11.00">ad_client_id</text>
<polygon fill="none" stroke="black" points="446.5,-640 446.5,-662 529.5,-662 529.5,-640 446.5,-640"/>
<text text-anchor="start" x="449.5" y="-648.2" font-family="Helvetica,sans-Serif" font-size="11.00">numeric[10]</text>
<polygon fill="none" stroke="black" points="266.5,-618 266.5,-640 446.5,-640 446.5,-618 266.5,-618"/>
<image xlink:href="../../images/primaryKeys.png" width="11px" height="12px" preserveAspectRatio="xMinYMin meet" x="271.5" y="-635"/>
<text text-anchor="start" x="286.5" y="-626.2" font-family="Helvetica,sans-Serif" font-size="11.00">ad_language</text>
<polygon fill="none" stroke="black" points="446.5,-618 446.5,-640 529.5,-640 529.5,-618 446.5,-618"/>
<text text-anchor="start" x="449.5" y="-626.2" font-family="Helvetica,sans-Serif" font-size="11.00">varchar[6]</text>
<polygon fill="none" stroke="black" points="266.5,-596 266.5,-618 446.5,-618 446.5,-596 266.5,-596"/>
<text text-anchor="start" x="286.5" y="-604.2" font-family="Helvetica,sans-Serif" font-size="11.00">ad_org_id</text>
<polygon fill="none" stroke="black" points="446.5,-596 446.5,-618 529.5,-618 529.5,-596 446.5,-596"/>
<text text-anchor="start" x="449.5" y="-604.2" font-family="Helvetica,sans-Serif" font-size="11.00">numeric[10]</text>
<polygon fill="none" stroke="black" points="266.5,-574 266.5,-596 446.5,-596 446.5,-574 266.5,-574"/>
<text text-anchor="start" x="286.5" y="-582.2" font-family="Helvetica,sans-Serif" font-size="11.00">created</text>
<polygon fill="none" stroke="black" points="446.5,-574 446.5,-596 529.5,-596 529.5,-574 446.5,-574"/>
<text text-anchor="start" x="449.5" y="-582.2" font-family="Helvetica,sans-Serif" font-size="11.00">timestamp[29,6]</text>
<polygon fill="none" stroke="black" points="266.5,-552 266.5,-574 446.5,-574 446.5,-552 266.5,-552"/>
<text text-anchor="start" x="286.5" y="-560.2" font-family="Helvetica,sans-Serif" font-size="11.00">createdby</text>
<polygon fill="none" stroke="black" points="446.5,-552 446.5,-574 529.5,-574 529.5,-552 446.5,-552"/>
<text text-anchor="start" x="449.5" y="-560.2" font-family="Helvetica,sans-Serif" font-size="11.00">numeric[10]</text>
<polygon fill="none" stroke="black" points="266.5,-530 266.5,-552 446.5,-552 446.5,-530 266.5,-530"/>
<text text-anchor="start" x="286.5" y="-538.2" font-family="Helvetica,sans-Serif" font-size="11.00">description</text>
<polygon fill="none" stroke="black" points="446.5,-530 446.5,-552 529.5,-552 529.5,-530 446.5,-530"/>
<text text-anchor="start" x="449.5" y="-538.2" font-family="Helvetica,sans-Serif" font-size="11.00">varchar[255]</text>
<polygon fill="none" stroke="black" points="266.5,-508 266.5,-530 446.5,-530 446.5,-508 266.5,-508"/>
<text text-anchor="start" x="286.5" y="-516.2" font-family="Helvetica,sans-Serif" font-size="11.00">isactive</text>
<polygon fill="none" stroke="black" points="446.5,-508 446.5,-530 529.5,-530 529.5,-508 446.5,-508"/>
<text text-anchor="start" x="449.5" y="-516.2" font-family="Helvetica,sans-Serif" font-size="11.00">bpchar[1]</text>
<polygon fill="none" stroke="black" points="266.5,-486 266.5,-508 446.5,-508 446.5,-486 266.5,-486"/>
<text text-anchor="start" x="286.5" y="-494.2" font-family="Helvetica,sans-Serif" font-size="11.00">istranslated</text>
<polygon fill="none" stroke="black" points="446.5,-486 446.5,-508 529.5,-508 529.5,-486 446.5,-486"/>
<text text-anchor="start" x="449.5" y="-494.2" font-family="Helvetica,sans-Serif" font-size="11.00">bpchar[1]</text>
<polygon fill="none" stroke="black" points="266.5,-464 266.5,-486 446.5,-486 446.5,-464 266.5,-464"/>
<text text-anchor="start" x="286.5" y="-472.2" font-family="Helvetica,sans-Serif" font-size="11.00">name</text>
<polygon fill="none" stroke="black" points="446.5,-464 446.5,-486 529.5,-486 529.5,-464 446.5,-464"/>
<text text-anchor="start" x="449.5" y="-472.2" font-family="Helvetica,sans-Serif" font-size="11.00">varchar[255]</text>
<polygon fill="none" stroke="black" points="266.5,-442 266.5,-464 446.5,-464 446.5,-442 266.5,-442"/>
<image xlink:href="../../images/primaryKeys.png" width="11px" height="12px" preserveAspectRatio="xMinYMin meet" x="271.5" y="-459"/>
<text text-anchor="start" x="286.5" y="-450.2" font-family="Helvetica,sans-Serif" font-size="11.00">pa_reportcolumn_id</text>
<polygon fill="none" stroke="black" points="446.5,-442 446.5,-464 529.5,-464 529.5,-442 446.5,-442"/>
<text text-anchor="start" x="449.5" y="-450.2" font-family="Helvetica,sans-Serif" font-size="11.00">numeric[10]</text>
<polygon fill="#ffffff" stroke="transparent" points="266.5,-420 266.5,-442 446.5,-442 446.5,-420 266.5,-420"/>
<polygon fill="none" stroke="black" points="266.5,-420 266.5,-442 446.5,-442 446.5,-420 266.5,-420"/>
<text text-anchor="start" x="286.5" y="-428.2" font-family="Helvetica,sans-Serif" font-size="11.00">pa_reportcolumn_trl_uu</text>
<polygon fill="none" stroke="black" points="446.5,-420 446.5,-442 529.5,-442 529.5,-420 446.5,-420"/>
<text text-anchor="start" x="449.5" y="-428.2" font-family="Helvetica,sans-Serif" font-size="11.00">varchar[36]</text>
<polygon fill="none" stroke="black" points="266.5,-398 266.5,-420 446.5,-420 446.5,-398 266.5,-398"/>
<text text-anchor="start" x="286.5" y="-406.2" font-family="Helvetica,sans-Serif" font-size="11.00">updated</text>
<polygon fill="none" stroke="black" points="446.5,-398 446.5,-420 529.5,-420 529.5,-398 446.5,-398"/>
<text text-anchor="start" x="449.5" y="-406.2" font-family="Helvetica,sans-Serif" font-size="11.00">timestamp[29,6]</text>
<polygon fill="none" stroke="black" points="266.5,-376 266.5,-398 446.5,-398 446.5,-376 266.5,-376"/>
<text text-anchor="start" x="286.5" y="-384.2" font-family="Helvetica,sans-Serif" font-size="11.00">updatedby</text>
<polygon fill="none" stroke="black" points="446.5,-376 446.5,-398 529.5,-398 529.5,-376 446.5,-376"/>
<text text-anchor="start" x="449.5" y="-384.2" font-family="Helvetica,sans-Serif" font-size="11.00">numeric[10]</text>
<polygon fill="#ffffff" stroke="transparent" points="266.5,-358 266.5,-376 344.5,-376 344.5,-358 266.5,-358"/>
<polygon fill="none" stroke="black" points="266.5,-358 266.5,-376 344.5,-376 344.5,-358 266.5,-358"/>
<text text-anchor="start" x="269.5" y="-364.2" font-family="Helvetica,sans-Serif" font-size="11.00">&lt; 2</text>
<polygon fill="#ffffff" stroke="transparent" points="344.5,-358 344.5,-376 446.5,-376 446.5,-358 344.5,-358"/>
<polygon fill="none" stroke="black" points="344.5,-358 344.5,-376 446.5,-376 446.5,-358 344.5,-358"/>
<text text-anchor="start" x="404.5" y="-364.2" font-family="Helvetica,sans-Serif" font-size="11.00">24 rows</text>
<polygon fill="#ffffff" stroke="transparent" points="446.5,-358 446.5,-376 529.5,-376 529.5,-358 446.5,-358"/>
<polygon fill="none" stroke="black" points="446.5,-358 446.5,-376 529.5,-376 529.5,-358 446.5,-358"/>
<text text-anchor="start" x="510.5" y="-364.2" font-family="Helvetica,sans-Serif" font-size="11.00">0 &gt;</text>
<polygon fill="none" stroke="black" stroke-width="2" points="265,-357 265,-685 530,-685 530,-357 265,-357"/>
</a>
</g>
</g>
<!-- ad_language -->
<g id="node2" class="node">
<title>ad_language</title>
<g id="a_node2"><a xlink:href="../../tables/ad_language.html" xlink:title="ad_language" target="_top">
<polygon fill="#ffffff" stroke="transparent" points="40,-490 40,-680 183,-680 183,-490 40,-490"/>
<polygon fill="#f5f5f5" stroke="transparent" points="40.5,-658 40.5,-680 183.5,-680 183.5,-658 40.5,-658"/>
<polygon fill="none" stroke="black" points="40.5,-658 40.5,-680 183.5,-680 183.5,-658 40.5,-658"/>
<text text-anchor="start" x="45.5" y="-667.2" font-family="Helvetica,sans-Serif" font-weight="bold" font-size="11.00">ad_language</text>
<text text-anchor="start" x="148.5" y="-666.2" font-family="Helvetica,sans-Serif" font-size="11.00">[table]</text>
<polygon fill="none" stroke="black" points="40.5,-636 40.5,-658 183.5,-658 183.5,-636 40.5,-636"/>
<image xlink:href="../../images/primaryKeys.png" width="11px" height="12px" preserveAspectRatio="xMinYMin meet" x="45.5" y="-653"/>
<text text-anchor="start" x="60.5" y="-644.2" font-family="Helvetica,sans-Serif" font-size="11.00">ad_language</text>
<polygon fill="none" stroke="black" points="40.5,-614 40.5,-636 183.5,-636 183.5,-614 40.5,-614"/>
<image xlink:href="../../images/foreignKeys.png" width="11px" height="12px" preserveAspectRatio="xMinYMin meet" x="45.5" y="-631"/>
<text text-anchor="start" x="60.5" y="-622.2" font-family="Helvetica,sans-Serif" font-size="11.00">ad_client_id</text>
<polygon fill="none" stroke="black" points="40.5,-592 40.5,-614 183.5,-614 183.5,-592 40.5,-592"/>
<image xlink:href="../../images/foreignKeys.png" width="11px" height="12px" preserveAspectRatio="xMinYMin meet" x="45.5" y="-609"/>
<text text-anchor="start" x="60.5" y="-600.2" font-family="Helvetica,sans-Serif" font-size="11.00">ad_org_id</text>
<polygon fill="#ffffff" stroke="transparent" points="40.5,-570 40.5,-592 183.5,-592 183.5,-570 40.5,-570"/>
<polygon fill="none" stroke="black" points="40.5,-570 40.5,-592 183.5,-592 183.5,-570 40.5,-570"/>
<text text-anchor="start" x="60.5" y="-578.2" font-family="Helvetica,sans-Serif" font-size="11.00">ad_language_id</text>
<polygon fill="#ffffff" stroke="transparent" points="40.5,-548 40.5,-570 183.5,-570 183.5,-548 40.5,-548"/>
<polygon fill="none" stroke="black" points="40.5,-548 40.5,-570 183.5,-570 183.5,-548 40.5,-548"/>
<text text-anchor="start" x="60.5" y="-556.2" font-family="Helvetica,sans-Serif" font-size="11.00">ad_language_uu</text>
<polygon fill="none" stroke="black" points="40.5,-526 40.5,-548 183.5,-548 183.5,-526 40.5,-526"/>
<image xlink:href="../../images/foreignKeys.png" width="11px" height="12px" preserveAspectRatio="xMinYMin meet" x="45.5" y="-543"/>
<text text-anchor="start" x="60.5" y="-534.2" font-family="Helvetica,sans-Serif" font-size="11.00">ad_printpaper_id</text>
<polygon fill="none" stroke="black" points="40.5,-508 40.5,-526 183.5,-526 183.5,-508 40.5,-508"/>
<text text-anchor="start" x="43.5" y="-514.2" font-family="Helvetica,sans-Serif" font-size="11.00">...</text>
<polygon fill="#ffffff" stroke="transparent" points="40.5,-490 40.5,-508 83.5,-508 83.5,-490 40.5,-490"/>
<polygon fill="none" stroke="black" points="40.5,-490 40.5,-508 83.5,-508 83.5,-490 40.5,-490"/>
<text text-anchor="start" x="43.5" y="-496.2" font-family="Helvetica,sans-Serif" font-size="11.00">&lt; 3</text>
<polygon fill="#ffffff" stroke="transparent" points="83.5,-490 83.5,-508 144.5,-508 144.5,-490 83.5,-490"/>
<polygon fill="none" stroke="black" points="83.5,-490 83.5,-508 144.5,-508 144.5,-490 83.5,-490"/>
<text text-anchor="start" x="96.5" y="-496.2" font-family="Helvetica,sans-Serif" font-size="11.00">109 rows</text>
<polygon fill="#ffffff" stroke="transparent" points="144.5,-490 144.5,-508 183.5,-508 183.5,-490 144.5,-490"/>
<polygon fill="none" stroke="black" points="144.5,-490 144.5,-508 183.5,-508 183.5,-490 144.5,-490"/>
<text text-anchor="start" x="158.5" y="-496.2" font-family="Helvetica,sans-Serif" font-size="11.00">86 &gt;</text>
</a>
</g>
</g>
<!-- pa_reportcolumn_trl&#45;&gt;ad_language -->
<g id="edge1" class="edge">
<title>pa_reportcolumn_trl:w&#45;&gt;ad_language:e</title>
<path fill="none" stroke="black" d="M250.84,-630.07C225.82,-633.95 215.9,-647 184.5,-647"/>
<polygon fill="black" stroke="black" points="257.52,-629.58 265.76,-632.59 261.51,-629.29 265.5,-629 265.5,-629 265.5,-629 261.51,-629.29 265.24,-625.41 257.52,-629.58 257.52,-629.58"/>
<ellipse fill="none" stroke="black" cx="254.33" cy="-629.82" rx="3.2" ry="3.2"/>
</g>
<!-- pa_reportcolumn -->
<g id="node3" class="node">
<title>pa_reportcolumn</title>
<g id="a_node3"><a xlink:href="../../tables/pa_reportcolumn.html" xlink:title="pa_reportcolumn" target="_top">
<polygon fill="#ffffff" stroke="transparent" points="8,-37 8,-469 215,-469 215,-37 8,-37"/>
<polygon fill="#f5f5f5" stroke="transparent" points="8.5,-447 8.5,-469 215.5,-469 215.5,-447 8.5,-447"/>
<polygon fill="none" stroke="black" points="8.5,-447 8.5,-469 215.5,-469 215.5,-447 8.5,-447"/>
<text text-anchor="start" x="13.5" y="-456.2" font-family="Helvetica,sans-Serif" font-weight="bold" font-size="11.00">pa_reportcolumn</text>
<text text-anchor="start" x="180.5" y="-455.2" font-family="Helvetica,sans-Serif" font-size="11.00">[table]</text>
<polygon fill="none" stroke="black" points="8.5,-425 8.5,-447 215.5,-447 215.5,-425 8.5,-425"/>
<image xlink:href="../../images/primaryKeys.png" width="11px" height="12px" preserveAspectRatio="xMinYMin meet" x="13.5" y="-442"/>
<text text-anchor="start" x="28.5" y="-433.2" font-family="Helvetica,sans-Serif" font-size="11.00">pa_reportcolumn_id</text>
<polygon fill="none" stroke="black" points="8.5,-403 8.5,-425 215.5,-425 215.5,-403 8.5,-403"/>
<image xlink:href="../../images/foreignKeys.png" width="11px" height="12px" preserveAspectRatio="xMinYMin meet" x="13.5" y="-420"/>
<text text-anchor="start" x="28.5" y="-411.2" font-family="Helvetica,sans-Serif" font-size="11.00">pa_reportcolumnset_id</text>
<polygon fill="none" stroke="black" points="8.5,-381 8.5,-403 215.5,-403 215.5,-381 8.5,-381"/>
<image xlink:href="../../images/foreignKeys.png" width="11px" height="12px" preserveAspectRatio="xMinYMin meet" x="13.5" y="-398"/>
<text text-anchor="start" x="28.5" y="-389.2" font-family="Helvetica,sans-Serif" font-size="11.00">gl_budget_id</text>
<polygon fill="none" stroke="black" points="8.5,-359 8.5,-381 215.5,-381 215.5,-359 8.5,-359"/>
<image xlink:href="../../images/foreignKeys.png" width="11px" height="12px" preserveAspectRatio="xMinYMin meet" x="13.5" y="-376"/>
<text text-anchor="start" x="28.5" y="-367.2" font-family="Helvetica,sans-Serif" font-size="11.00">c_currency_id</text>
<polygon fill="none" stroke="black" points="8.5,-337 8.5,-359 215.5,-359 215.5,-337 8.5,-337"/>
<image xlink:href="../../images/foreignKeys.png" width="11px" height="12px" preserveAspectRatio="xMinYMin meet" x="13.5" y="-354"/>
<text text-anchor="start" x="28.5" y="-345.2" font-family="Helvetica,sans-Serif" font-size="11.00">oper_1_id</text>
<polygon fill="none" stroke="black" points="8.5,-315 8.5,-337 215.5,-337 215.5,-315 8.5,-315"/>
<image xlink:href="../../images/foreignKeys.png" width="11px" height="12px" preserveAspectRatio="xMinYMin meet" x="13.5" y="-332"/>
<text text-anchor="start" x="28.5" y="-323.2" font-family="Helvetica,sans-Serif" font-size="11.00">oper_2_id</text>
<polygon fill="none" stroke="black" points="8.5,-293 8.5,-315 215.5,-315 215.5,-293 8.5,-293"/>
<image xlink:href="../../images/foreignKeys.png" width="11px" height="12px" preserveAspectRatio="xMinYMin meet" x="13.5" y="-310"/>
<text text-anchor="start" x="28.5" y="-301.2" font-family="Helvetica,sans-Serif" font-size="11.00">org_id</text>
<polygon fill="none" stroke="black" points="8.5,-271 8.5,-293 215.5,-293 215.5,-271 8.5,-271"/>
<image xlink:href="../../images/foreignKeys.png" width="11px" height="12px" preserveAspectRatio="xMinYMin meet" x="13.5" y="-288"/>
<text text-anchor="start" x="28.5" y="-279.2" font-family="Helvetica,sans-Serif" font-size="11.00">c_elementvalue_id</text>
<polygon fill="none" stroke="black" points="8.5,-249 8.5,-271 215.5,-271 215.5,-249 8.5,-249"/>
<image xlink:href="../../images/foreignKeys.png" width="11px" height="12px" preserveAspectRatio="xMinYMin meet" x="13.5" y="-266"/>
<text text-anchor="start" x="28.5" y="-257.2" font-family="Helvetica,sans-Serif" font-size="11.00">c_project_id</text>
<polygon fill="none" stroke="black" points="8.5,-227 8.5,-249 215.5,-249 215.5,-227 8.5,-227"/>
<image xlink:href="../../images/foreignKeys.png" width="11px" height="12px" preserveAspectRatio="xMinYMin meet" x="13.5" y="-244"/>
<text text-anchor="start" x="28.5" y="-235.2" font-family="Helvetica,sans-Serif" font-size="11.00">c_bpartner_id</text>
<polygon fill="none" stroke="black" points="8.5,-205 8.5,-227 215.5,-227 215.5,-205 8.5,-205"/>
<image xlink:href="../../images/foreignKeys.png" width="11px" height="12px" preserveAspectRatio="xMinYMin meet" x="13.5" y="-222"/>
<text text-anchor="start" x="28.5" y="-213.2" font-family="Helvetica,sans-Serif" font-size="11.00">m_product_id</text>
<polygon fill="none" stroke="black" points="8.5,-183 8.5,-205 215.5,-205 215.5,-183 8.5,-183"/>
<image xlink:href="../../images/foreignKeys.png" width="11px" height="12px" preserveAspectRatio="xMinYMin meet" x="13.5" y="-200"/>
<text text-anchor="start" x="28.5" y="-191.2" font-family="Helvetica,sans-Serif" font-size="11.00">c_campaign_id</text>
<polygon fill="none" stroke="black" points="8.5,-161 8.5,-183 215.5,-183 215.5,-161 8.5,-161"/>
<image xlink:href="../../images/foreignKeys.png" width="11px" height="12px" preserveAspectRatio="xMinYMin meet" x="13.5" y="-178"/>
<text text-anchor="start" x="28.5" y="-169.2" font-family="Helvetica,sans-Serif" font-size="11.00">c_location_id</text>
<polygon fill="none" stroke="black" points="8.5,-139 8.5,-161 215.5,-161 215.5,-139 8.5,-139"/>
<image xlink:href="../../images/foreignKeys.png" width="11px" height="12px" preserveAspectRatio="xMinYMin meet" x="13.5" y="-156"/>
<text text-anchor="start" x="28.5" y="-147.2" font-family="Helvetica,sans-Serif" font-size="11.00">c_salesregion_id</text>
<polygon fill="none" stroke="black" points="8.5,-117 8.5,-139 215.5,-139 215.5,-117 8.5,-117"/>
<image xlink:href="../../images/foreignKeys.png" width="11px" height="12px" preserveAspectRatio="xMinYMin meet" x="13.5" y="-134"/>
<text text-anchor="start" x="28.5" y="-125.2" font-family="Helvetica,sans-Serif" font-size="11.00">c_activity_id</text>
<polygon fill="none" stroke="black" points="8.5,-95 8.5,-117 215.5,-117 215.5,-95 8.5,-95"/>
<image xlink:href="../../images/foreignKeys.png" width="11px" height="12px" preserveAspectRatio="xMinYMin meet" x="13.5" y="-112"/>
<text text-anchor="start" x="28.5" y="-103.2" font-family="Helvetica,sans-Serif" font-size="11.00">ad_orgtrx_id</text>
<polygon fill="#ffffff" stroke="transparent" points="8.5,-73 8.5,-95 215.5,-95 215.5,-73 8.5,-73"/>
<polygon fill="none" stroke="black" points="8.5,-73 8.5,-95 215.5,-95 215.5,-73 8.5,-73"/>
<text text-anchor="start" x="28.5" y="-81.2" font-family="Helvetica,sans-Serif" font-size="11.00">pa_reportcolumn_uu</text>
<polygon fill="none" stroke="black" points="8.5,-55 8.5,-73 215.5,-73 215.5,-55 8.5,-55"/>
<text text-anchor="start" x="11.5" y="-61.2" font-family="Helvetica,sans-Serif" font-size="11.00">...</text>
<polygon fill="#ffffff" stroke="transparent" points="8.5,-37 8.5,-55 92.5,-55 92.5,-37 8.5,-37"/>
<polygon fill="none" stroke="black" points="8.5,-37 8.5,-55 92.5,-55 92.5,-37 8.5,-37"/>
<text text-anchor="start" x="11.5" y="-43.2" font-family="Helvetica,sans-Serif" font-size="11.00">&lt; 15</text>
<polygon fill="#ffffff" stroke="transparent" points="92.5,-37 92.5,-55 165.5,-55 165.5,-37 92.5,-37"/>
<polygon fill="none" stroke="black" points="92.5,-37 92.5,-55 165.5,-55 165.5,-37 92.5,-37"/>
<text text-anchor="start" x="123.5" y="-43.2" font-family="Helvetica,sans-Serif" font-size="11.00">12 rows</text>
<polygon fill="#ffffff" stroke="transparent" points="165.5,-37 165.5,-55 215.5,-55 215.5,-37 165.5,-37"/>
<polygon fill="none" stroke="black" points="165.5,-37 165.5,-55 215.5,-55 215.5,-37 165.5,-37"/>
<text text-anchor="start" x="196.5" y="-43.2" font-family="Helvetica,sans-Serif" font-size="11.00">3 &gt;</text>
</a>
</g>
</g>
<!-- pa_reportcolumn_trl&#45;&gt;pa_reportcolumn -->
<g id="edge2" class="edge">
<title>pa_reportcolumn_trl:w&#45;&gt;pa_reportcolumn:e</title>
<path fill="none" stroke="black" d="M251,-450.19C239.62,-445.36 233.61,-436 216.5,-436"/>
<polygon fill="black" stroke="black" points="257.65,-451.48 264.82,-456.53 261.57,-452.24 265.5,-453 265.5,-453 265.5,-453 261.57,-452.24 266.18,-449.47 257.65,-451.48 257.65,-451.48"/>
<ellipse fill="none" stroke="black" cx="254.5" cy="-450.87" rx="3.2" ry="3.2"/>
</g>
</g>
</svg>
