<?xml version="1.0" encoding="UTF-8" standalone="no"?>
<!DOCTYPE svg PUBLIC "-//W3C//DTD SVG 1.1//EN"
 "http://www.w3.org/Graphics/SVG/1.1/DTD/svg11.dtd">
<!-- Generated by graphviz version 2.43.0 (0)
 -->
<!-- Title: oneDegreeRelationshipsDiagram Pages: 1 -->
<svg width="1027pt" height="1056pt"
 viewBox="0.00 0.00 1027.00 1056.20" xmlns="http://www.w3.org/2000/svg" xmlns:xlink="http://www.w3.org/1999/xlink">
<g id="graph0" class="graph" transform="scale(1 1) rotate(0) translate(4 1052.2)">
<title>oneDegreeRelationshipsDiagram</title>
<polygon fill="#ffffff" stroke="transparent" points="-4,4 -4,-1052.2 1023,-1052.2 1023,4 -4,4"/>
<text text-anchor="middle" x="71.5" y="-7.2" font-family="Helvetica,sans-Serif" font-size="11.00">Generated by SchemaSpy</text>
<!-- pp_order_node -->
<g id="node1" class="node">
<title>pp_order_node</title>
<g id="a_node1"><a xlink:href="../../tables/pp_order_node.html" xlink:title="pp_order_node" target="_top">
<polygon fill="#ffffff" stroke="transparent" points="507.5,-88.2 507.5,-542.2 675.5,-542.2 675.5,-88.2 507.5,-88.2"/>
<polygon fill="#f5f5f5" stroke="transparent" points="507.5,-520.2 507.5,-542.2 675.5,-542.2 675.5,-520.2 507.5,-520.2"/>
<polygon fill="none" stroke="black" points="507.5,-520.2 507.5,-542.2 675.5,-542.2 675.5,-520.2 507.5,-520.2"/>
<text text-anchor="start" x="512.5" y="-529.4" font-family="Helvetica,sans-Serif" font-weight="bold" font-size="11.00">pp_order_node</text>
<text text-anchor="start" x="640.5" y="-528.4" font-family="Helvetica,sans-Serif" font-size="11.00">[table]</text>
<polygon fill="none" stroke="black" points="507.5,-498.2 507.5,-520.2 675.5,-520.2 675.5,-498.2 507.5,-498.2"/>
<image xlink:href="../../images/foreignKeys.png" width="11px" height="12px" preserveAspectRatio="xMinYMin meet" x="512.5" y="-515.197"/>
<text text-anchor="start" x="527.5" y="-506.4" font-family="Helvetica,sans-Serif" font-size="11.00">ad_column_id</text>
<polygon fill="none" stroke="black" points="507.5,-476.2 507.5,-498.2 675.5,-498.2 675.5,-476.2 507.5,-476.2"/>
<image xlink:href="../../images/foreignKeys.png" width="11px" height="12px" preserveAspectRatio="xMinYMin meet" x="512.5" y="-493.197"/>
<text text-anchor="start" x="527.5" y="-484.4" font-family="Helvetica,sans-Serif" font-size="11.00">ad_form_id</text>
<polygon fill="none" stroke="black" points="507.5,-454.2 507.5,-476.2 675.5,-476.2 675.5,-454.2 507.5,-454.2"/>
<image xlink:href="../../images/foreignKeys.png" width="11px" height="12px" preserveAspectRatio="xMinYMin meet" x="512.5" y="-471.197"/>
<text text-anchor="start" x="527.5" y="-462.4" font-family="Helvetica,sans-Serif" font-size="11.00">ad_image_id</text>
<polygon fill="none" stroke="black" points="507.5,-432.2 507.5,-454.2 675.5,-454.2 675.5,-432.2 507.5,-432.2"/>
<image xlink:href="../../images/foreignKeys.png" width="11px" height="12px" preserveAspectRatio="xMinYMin meet" x="512.5" y="-449.197"/>
<text text-anchor="start" x="527.5" y="-440.4" font-family="Helvetica,sans-Serif" font-size="11.00">ad_process_id</text>
<polygon fill="none" stroke="black" points="507.5,-410.2 507.5,-432.2 675.5,-432.2 675.5,-410.2 507.5,-410.2"/>
<image xlink:href="../../images/foreignKeys.png" width="11px" height="12px" preserveAspectRatio="xMinYMin meet" x="512.5" y="-427.197"/>
<text text-anchor="start" x="527.5" y="-418.4" font-family="Helvetica,sans-Serif" font-size="11.00">ad_task_id</text>
<polygon fill="none" stroke="black" points="507.5,-388.2 507.5,-410.2 675.5,-410.2 675.5,-388.2 507.5,-388.2"/>
<image xlink:href="../../images/foreignKeys.png" width="11px" height="12px" preserveAspectRatio="xMinYMin meet" x="512.5" y="-405.197"/>
<text text-anchor="start" x="527.5" y="-396.4" font-family="Helvetica,sans-Serif" font-size="11.00">ad_wf_block_id</text>
<polygon fill="none" stroke="black" points="507.5,-366.2 507.5,-388.2 675.5,-388.2 675.5,-366.2 507.5,-366.2"/>
<image xlink:href="../../images/foreignKeys.png" width="11px" height="12px" preserveAspectRatio="xMinYMin meet" x="512.5" y="-383.197"/>
<text text-anchor="start" x="527.5" y="-374.4" font-family="Helvetica,sans-Serif" font-size="11.00">ad_wf_node_id</text>
<polygon fill="none" stroke="black" points="507.5,-344.2 507.5,-366.2 675.5,-366.2 675.5,-344.2 507.5,-344.2"/>
<image xlink:href="../../images/foreignKeys.png" width="11px" height="12px" preserveAspectRatio="xMinYMin meet" x="512.5" y="-361.197"/>
<text text-anchor="start" x="527.5" y="-352.4" font-family="Helvetica,sans-Serif" font-size="11.00">ad_wf_responsible_id</text>
<polygon fill="none" stroke="black" points="507.5,-322.2 507.5,-344.2 675.5,-344.2 675.5,-322.2 507.5,-322.2"/>
<image xlink:href="../../images/foreignKeys.png" width="11px" height="12px" preserveAspectRatio="xMinYMin meet" x="512.5" y="-339.197"/>
<text text-anchor="start" x="527.5" y="-330.4" font-family="Helvetica,sans-Serif" font-size="11.00">ad_window_id</text>
<polygon fill="none" stroke="black" points="507.5,-300.2 507.5,-322.2 675.5,-322.2 675.5,-300.2 507.5,-300.2"/>
<image xlink:href="../../images/foreignKeys.png" width="11px" height="12px" preserveAspectRatio="xMinYMin meet" x="512.5" y="-317.197"/>
<text text-anchor="start" x="527.5" y="-308.4" font-family="Helvetica,sans-Serif" font-size="11.00">ad_workflow_id</text>
<polygon fill="none" stroke="black" points="507.5,-278.2 507.5,-300.2 675.5,-300.2 675.5,-278.2 507.5,-278.2"/>
<image xlink:href="../../images/foreignKeys.png" width="11px" height="12px" preserveAspectRatio="xMinYMin meet" x="512.5" y="-295.197"/>
<text text-anchor="start" x="527.5" y="-286.4" font-family="Helvetica,sans-Serif" font-size="11.00">c_bpartner_id</text>
<polygon fill="none" stroke="black" points="507.5,-256.2 507.5,-278.2 675.5,-278.2 675.5,-256.2 507.5,-256.2"/>
<image xlink:href="../../images/foreignKeys.png" width="11px" height="12px" preserveAspectRatio="xMinYMin meet" x="512.5" y="-273.197"/>
<text text-anchor="start" x="527.5" y="-264.4" font-family="Helvetica,sans-Serif" font-size="11.00">entitytype</text>
<polygon fill="none" stroke="black" points="507.5,-234.2 507.5,-256.2 675.5,-256.2 675.5,-234.2 507.5,-234.2"/>
<image xlink:href="../../images/foreignKeys.png" width="11px" height="12px" preserveAspectRatio="xMinYMin meet" x="512.5" y="-251.197"/>
<text text-anchor="start" x="527.5" y="-242.4" font-family="Helvetica,sans-Serif" font-size="11.00">pp_order_id</text>
<polygon fill="none" stroke="black" points="507.5,-212.2 507.5,-234.2 675.5,-234.2 675.5,-212.2 507.5,-212.2"/>
<image xlink:href="../../images/primaryKeys.png" width="11px" height="12px" preserveAspectRatio="xMinYMin meet" x="512.5" y="-229.197"/>
<text text-anchor="start" x="527.5" y="-220.4" font-family="Helvetica,sans-Serif" font-size="11.00">pp_order_node_id</text>
<polygon fill="none" stroke="black" points="507.5,-190.2 507.5,-212.2 675.5,-212.2 675.5,-190.2 507.5,-190.2"/>
<image xlink:href="../../images/foreignKeys.png" width="11px" height="12px" preserveAspectRatio="xMinYMin meet" x="512.5" y="-207.197"/>
<text text-anchor="start" x="527.5" y="-198.4" font-family="Helvetica,sans-Serif" font-size="11.00">pp_order_workflow_id</text>
<polygon fill="none" stroke="black" points="507.5,-168.2 507.5,-190.2 675.5,-190.2 675.5,-168.2 507.5,-168.2"/>
<image xlink:href="../../images/foreignKeys.png" width="11px" height="12px" preserveAspectRatio="xMinYMin meet" x="512.5" y="-185.197"/>
<text text-anchor="start" x="527.5" y="-176.4" font-family="Helvetica,sans-Serif" font-size="11.00">s_resource_id</text>
<polygon fill="none" stroke="black" points="507.5,-146.2 507.5,-168.2 675.5,-168.2 675.5,-146.2 507.5,-146.2"/>
<image xlink:href="../../images/foreignKeys.png" width="11px" height="12px" preserveAspectRatio="xMinYMin meet" x="512.5" y="-163.197"/>
<text text-anchor="start" x="527.5" y="-154.4" font-family="Helvetica,sans-Serif" font-size="11.00">workflow_id</text>
<polygon fill="#ffffff" stroke="transparent" points="507.5,-124.2 507.5,-146.2 675.5,-146.2 675.5,-124.2 507.5,-124.2"/>
<polygon fill="none" stroke="black" points="507.5,-124.2 507.5,-146.2 675.5,-146.2 675.5,-124.2 507.5,-124.2"/>
<text text-anchor="start" x="527.5" y="-132.4" font-family="Helvetica,sans-Serif" font-size="11.00">pp_order_node_uu</text>
<polygon fill="none" stroke="black" points="507.5,-106.2 507.5,-124.2 675.5,-124.2 675.5,-106.2 507.5,-106.2"/>
<text text-anchor="start" x="510.5" y="-112.4" font-family="Helvetica,sans-Serif" font-size="11.00">...</text>
<polygon fill="#ffffff" stroke="transparent" points="507.5,-88.2 507.5,-106.2 574.5,-106.2 574.5,-88.2 507.5,-88.2"/>
<polygon fill="none" stroke="black" points="507.5,-88.2 507.5,-106.2 574.5,-106.2 574.5,-88.2 507.5,-88.2"/>
<text text-anchor="start" x="510.5" y="-94.4" font-family="Helvetica,sans-Serif" font-size="11.00">&lt; 16</text>
<polygon fill="#ffffff" stroke="transparent" points="574.5,-88.2 574.5,-106.2 633.5,-106.2 633.5,-88.2 574.5,-88.2"/>
<polygon fill="none" stroke="black" points="574.5,-88.2 574.5,-106.2 633.5,-106.2 633.5,-88.2 574.5,-88.2"/>
<text text-anchor="start" x="597.5" y="-94.4" font-family="Helvetica,sans-Serif" font-size="11.00">0 rows</text>
<polygon fill="#ffffff" stroke="transparent" points="633.5,-88.2 633.5,-106.2 675.5,-106.2 675.5,-88.2 633.5,-88.2"/>
<polygon fill="none" stroke="black" points="633.5,-88.2 633.5,-106.2 675.5,-106.2 675.5,-88.2 633.5,-88.2"/>
<text text-anchor="start" x="656.5" y="-94.4" font-family="Helvetica,sans-Serif" font-size="11.00">7 &gt;</text>
</a>
</g>
</g>
<!-- pp_order -->
<g id="node2" class="node">
<title>pp_order</title>
<g id="a_node2"><a xlink:href="../../tables/pp_order.html" xlink:title="pp_order" target="_top">
<polygon fill="#ffffff" stroke="transparent" points="8,-145.2 8,-709.2 205,-709.2 205,-145.2 8,-145.2"/>
<polygon fill="#f5f5f5" stroke="transparent" points="8.5,-687.2 8.5,-709.2 205.5,-709.2 205.5,-687.2 8.5,-687.2"/>
<polygon fill="none" stroke="black" points="8.5,-687.2 8.5,-709.2 205.5,-709.2 205.5,-687.2 8.5,-687.2"/>
<text text-anchor="start" x="13.5" y="-696.4" font-family="Helvetica,sans-Serif" font-weight="bold" font-size="11.00">pp_order</text>
<text text-anchor="start" x="170.5" y="-695.4" font-family="Helvetica,sans-Serif" font-size="11.00">[table]</text>
<polygon fill="none" stroke="black" points="8.5,-665.2 8.5,-687.2 205.5,-687.2 205.5,-665.2 8.5,-665.2"/>
<image xlink:href="../../images/foreignKeys.png" width="11px" height="12px" preserveAspectRatio="xMinYMin meet" x="13.5" y="-682.197"/>
<text text-anchor="start" x="28.5" y="-673.4" font-family="Helvetica,sans-Serif" font-size="11.00">s_resource_id</text>
<polygon fill="none" stroke="black" points="8.5,-643.2 8.5,-665.2 205.5,-665.2 205.5,-643.2 8.5,-643.2"/>
<image xlink:href="../../images/foreignKeys.png" width="11px" height="12px" preserveAspectRatio="xMinYMin meet" x="13.5" y="-660.197"/>
<text text-anchor="start" x="28.5" y="-651.4" font-family="Helvetica,sans-Serif" font-size="11.00">m_product_id</text>
<polygon fill="none" stroke="black" points="8.5,-621.2 8.5,-643.2 205.5,-643.2 205.5,-621.2 8.5,-621.2"/>
<image xlink:href="../../images/foreignKeys.png" width="11px" height="12px" preserveAspectRatio="xMinYMin meet" x="13.5" y="-638.197"/>
<text text-anchor="start" x="28.5" y="-629.4" font-family="Helvetica,sans-Serif" font-size="11.00">m_warehouse_id</text>
<polygon fill="none" stroke="black" points="8.5,-599.2 8.5,-621.2 205.5,-621.2 205.5,-599.2 8.5,-599.2"/>
<image xlink:href="../../images/foreignKeys.png" width="11px" height="12px" preserveAspectRatio="xMinYMin meet" x="13.5" y="-616.197"/>
<text text-anchor="start" x="28.5" y="-607.4" font-family="Helvetica,sans-Serif" font-size="11.00">c_activity_id</text>
<polygon fill="none" stroke="black" points="8.5,-577.2 8.5,-599.2 205.5,-599.2 205.5,-577.2 8.5,-577.2"/>
<image xlink:href="../../images/foreignKeys.png" width="11px" height="12px" preserveAspectRatio="xMinYMin meet" x="13.5" y="-594.197"/>
<text text-anchor="start" x="28.5" y="-585.4" font-family="Helvetica,sans-Serif" font-size="11.00">c_campaign_id</text>
<polygon fill="none" stroke="black" points="8.5,-555.2 8.5,-577.2 205.5,-577.2 205.5,-555.2 8.5,-555.2"/>
<image xlink:href="../../images/foreignKeys.png" width="11px" height="12px" preserveAspectRatio="xMinYMin meet" x="13.5" y="-572.197"/>
<text text-anchor="start" x="28.5" y="-563.4" font-family="Helvetica,sans-Serif" font-size="11.00">c_doctypetarget_id</text>
<polygon fill="none" stroke="black" points="8.5,-533.2 8.5,-555.2 205.5,-555.2 205.5,-533.2 8.5,-533.2"/>
<image xlink:href="../../images/foreignKeys.png" width="11px" height="12px" preserveAspectRatio="xMinYMin meet" x="13.5" y="-550.197"/>
<text text-anchor="start" x="28.5" y="-541.4" font-family="Helvetica,sans-Serif" font-size="11.00">c_doctype_id</text>
<polygon fill="none" stroke="black" points="8.5,-511.2 8.5,-533.2 205.5,-533.2 205.5,-511.2 8.5,-511.2"/>
<image xlink:href="../../images/foreignKeys.png" width="11px" height="12px" preserveAspectRatio="xMinYMin meet" x="13.5" y="-528.197"/>
<text text-anchor="start" x="28.5" y="-519.4" font-family="Helvetica,sans-Serif" font-size="11.00">c_orderline_id</text>
<polygon fill="none" stroke="black" points="8.5,-489.2 8.5,-511.2 205.5,-511.2 205.5,-489.2 8.5,-489.2"/>
<image xlink:href="../../images/foreignKeys.png" width="11px" height="12px" preserveAspectRatio="xMinYMin meet" x="13.5" y="-506.197"/>
<text text-anchor="start" x="28.5" y="-497.4" font-family="Helvetica,sans-Serif" font-size="11.00">c_project_id</text>
<polygon fill="none" stroke="black" points="8.5,-467.2 8.5,-489.2 205.5,-489.2 205.5,-467.2 8.5,-467.2"/>
<image xlink:href="../../images/foreignKeys.png" width="11px" height="12px" preserveAspectRatio="xMinYMin meet" x="13.5" y="-484.197"/>
<text text-anchor="start" x="28.5" y="-475.4" font-family="Helvetica,sans-Serif" font-size="11.00">c_uom_id</text>
<polygon fill="none" stroke="black" points="8.5,-445.2 8.5,-467.2 205.5,-467.2 205.5,-445.2 8.5,-445.2"/>
<image xlink:href="../../images/foreignKeys.png" width="11px" height="12px" preserveAspectRatio="xMinYMin meet" x="13.5" y="-462.197"/>
<text text-anchor="start" x="28.5" y="-453.4" font-family="Helvetica,sans-Serif" font-size="11.00">m_attributesetinstance_id</text>
<polygon fill="none" stroke="black" points="8.5,-423.2 8.5,-445.2 205.5,-445.2 205.5,-423.2 8.5,-423.2"/>
<image xlink:href="../../images/primaryKeys.png" width="11px" height="12px" preserveAspectRatio="xMinYMin meet" x="13.5" y="-440.197"/>
<text text-anchor="start" x="28.5" y="-431.4" font-family="Helvetica,sans-Serif" font-size="11.00">pp_order_id</text>
<polygon fill="none" stroke="black" points="8.5,-401.2 8.5,-423.2 205.5,-423.2 205.5,-401.2 8.5,-401.2"/>
<image xlink:href="../../images/foreignKeys.png" width="11px" height="12px" preserveAspectRatio="xMinYMin meet" x="13.5" y="-418.197"/>
<text text-anchor="start" x="28.5" y="-409.4" font-family="Helvetica,sans-Serif" font-size="11.00">pp_product_bom_id</text>
<polygon fill="none" stroke="black" points="8.5,-379.2 8.5,-401.2 205.5,-401.2 205.5,-379.2 8.5,-379.2"/>
<image xlink:href="../../images/foreignKeys.png" width="11px" height="12px" preserveAspectRatio="xMinYMin meet" x="13.5" y="-396.197"/>
<text text-anchor="start" x="28.5" y="-387.4" font-family="Helvetica,sans-Serif" font-size="11.00">planner_id</text>
<polygon fill="#ffffff" stroke="transparent" points="8.5,-357.2 8.5,-379.2 205.5,-379.2 205.5,-357.2 8.5,-357.2"/>
<polygon fill="none" stroke="black" points="8.5,-357.2 8.5,-379.2 205.5,-379.2 205.5,-357.2 8.5,-357.2"/>
<text text-anchor="start" x="28.5" y="-365.4" font-family="Helvetica,sans-Serif" font-size="11.00">posted</text>
<polygon fill="#ffffff" stroke="transparent" points="8.5,-335.2 8.5,-357.2 205.5,-357.2 205.5,-335.2 8.5,-335.2"/>
<polygon fill="none" stroke="black" points="8.5,-335.2 8.5,-357.2 205.5,-357.2 205.5,-335.2 8.5,-335.2"/>
<text text-anchor="start" x="28.5" y="-343.4" font-family="Helvetica,sans-Serif" font-size="11.00">processed</text>
<polygon fill="none" stroke="black" points="8.5,-313.2 8.5,-335.2 205.5,-335.2 205.5,-313.2 8.5,-313.2"/>
<image xlink:href="../../images/foreignKeys.png" width="11px" height="12px" preserveAspectRatio="xMinYMin meet" x="13.5" y="-330.197"/>
<text text-anchor="start" x="28.5" y="-321.4" font-family="Helvetica,sans-Serif" font-size="11.00">user1_id</text>
<polygon fill="none" stroke="black" points="8.5,-291.2 8.5,-313.2 205.5,-313.2 205.5,-291.2 8.5,-291.2"/>
<image xlink:href="../../images/foreignKeys.png" width="11px" height="12px" preserveAspectRatio="xMinYMin meet" x="13.5" y="-308.197"/>
<text text-anchor="start" x="28.5" y="-299.4" font-family="Helvetica,sans-Serif" font-size="11.00">user2_id</text>
<polygon fill="#ffffff" stroke="transparent" points="8.5,-269.2 8.5,-291.2 205.5,-291.2 205.5,-269.2 8.5,-269.2"/>
<polygon fill="none" stroke="black" points="8.5,-269.2 8.5,-291.2 205.5,-291.2 205.5,-269.2 8.5,-269.2"/>
<text text-anchor="start" x="28.5" y="-277.4" font-family="Helvetica,sans-Serif" font-size="11.00">ad_client_id</text>
<polygon fill="none" stroke="black" points="8.5,-247.2 8.5,-269.2 205.5,-269.2 205.5,-247.2 8.5,-247.2"/>
<image xlink:href="../../images/foreignKeys.png" width="11px" height="12px" preserveAspectRatio="xMinYMin meet" x="13.5" y="-264.197"/>
<text text-anchor="start" x="28.5" y="-255.4" font-family="Helvetica,sans-Serif" font-size="11.00">ad_orgtrx_id</text>
<polygon fill="none" stroke="black" points="8.5,-225.2 8.5,-247.2 205.5,-247.2 205.5,-225.2 8.5,-225.2"/>
<image xlink:href="../../images/foreignKeys.png" width="11px" height="12px" preserveAspectRatio="xMinYMin meet" x="13.5" y="-242.197"/>
<text text-anchor="start" x="28.5" y="-233.4" font-family="Helvetica,sans-Serif" font-size="11.00">ad_workflow_id</text>
<polygon fill="#ffffff" stroke="transparent" points="8.5,-203.2 8.5,-225.2 205.5,-225.2 205.5,-203.2 8.5,-203.2"/>
<polygon fill="none" stroke="black" points="8.5,-203.2 8.5,-225.2 205.5,-225.2 205.5,-203.2 8.5,-203.2"/>
<text text-anchor="start" x="28.5" y="-211.4" font-family="Helvetica,sans-Serif" font-size="11.00">processedon</text>
<polygon fill="#ffffff" stroke="transparent" points="8.5,-181.2 8.5,-203.2 205.5,-203.2 205.5,-181.2 8.5,-181.2"/>
<polygon fill="none" stroke="black" points="8.5,-181.2 8.5,-203.2 205.5,-203.2 205.5,-181.2 8.5,-181.2"/>
<text text-anchor="start" x="28.5" y="-189.4" font-family="Helvetica,sans-Serif" font-size="11.00">pp_order_uu</text>
<polygon fill="none" stroke="black" points="8.5,-163.2 8.5,-181.2 205.5,-181.2 205.5,-163.2 8.5,-163.2"/>
<text text-anchor="start" x="11.5" y="-169.4" font-family="Helvetica,sans-Serif" font-size="11.00">...</text>
<polygon fill="#ffffff" stroke="transparent" points="8.5,-145.2 8.5,-163.2 87.5,-163.2 87.5,-145.2 8.5,-145.2"/>
<polygon fill="none" stroke="black" points="8.5,-145.2 8.5,-163.2 87.5,-163.2 87.5,-145.2 8.5,-145.2"/>
<text text-anchor="start" x="11.5" y="-151.4" font-family="Helvetica,sans-Serif" font-size="11.00">&lt; 17</text>
<polygon fill="#ffffff" stroke="transparent" points="87.5,-145.2 87.5,-163.2 151.5,-163.2 151.5,-145.2 87.5,-145.2"/>
<polygon fill="none" stroke="black" points="87.5,-145.2 87.5,-163.2 151.5,-163.2 151.5,-145.2 87.5,-145.2"/>
<text text-anchor="start" x="115.5" y="-151.4" font-family="Helvetica,sans-Serif" font-size="11.00">0 rows</text>
<polygon fill="#ffffff" stroke="transparent" points="151.5,-145.2 151.5,-163.2 205.5,-163.2 205.5,-145.2 151.5,-145.2"/>
<polygon fill="none" stroke="black" points="151.5,-145.2 151.5,-163.2 205.5,-163.2 205.5,-145.2 151.5,-145.2"/>
<text text-anchor="start" x="180.5" y="-151.4" font-family="Helvetica,sans-Serif" font-size="11.00">10 &gt;</text>
</a>
</g>
</g>
<!-- pp_order_node&#45;&gt;pp_order -->
<g id="edge1" class="edge">
<title>pp_order_node:w&#45;&gt;pp_order:e</title>
<path fill="none" stroke="black" d="M492.11,-246.88C436.78,-261.92 511.82,-373.49 452,-420.2 365.86,-487.46 315.79,-434.2 206.5,-434.2"/>
<polygon fill="black" stroke="black" points="498.55,-246.13 506.92,-248.77 502.53,-245.66 506.5,-245.2 506.5,-245.2 506.5,-245.2 502.53,-245.66 506.08,-241.62 498.55,-246.13 498.55,-246.13"/>
<ellipse fill="none" stroke="black" cx="495.38" cy="-246.5" rx="3.2" ry="3.2"/>
</g>
<!-- pp_order_workflow -->
<g id="node3" class="node">
<title>pp_order_workflow</title>
<g id="a_node3"><a xlink:href="../../tables/pp_order_workflow.html" xlink:title="pp_order_workflow" target="_top">
<polygon fill="#ffffff" stroke="transparent" points="254,-110.2 254,-410.2 444,-410.2 444,-110.2 254,-110.2"/>
<polygon fill="#f5f5f5" stroke="transparent" points="254,-388.2 254,-410.2 444,-410.2 444,-388.2 254,-388.2"/>
<polygon fill="none" stroke="black" points="254,-388.2 254,-410.2 444,-410.2 444,-388.2 254,-388.2"/>
<text text-anchor="start" x="259" y="-397.4" font-family="Helvetica,sans-Serif" font-weight="bold" font-size="11.00">pp_order_workflow</text>
<text text-anchor="start" x="409" y="-396.4" font-family="Helvetica,sans-Serif" font-size="11.00">[table]</text>
<polygon fill="none" stroke="black" points="254,-366.2 254,-388.2 444,-388.2 444,-366.2 254,-366.2"/>
<image xlink:href="../../images/foreignKeys.png" width="11px" height="12px" preserveAspectRatio="xMinYMin meet" x="259" y="-383.197"/>
<text text-anchor="start" x="274" y="-374.4" font-family="Helvetica,sans-Serif" font-size="11.00">ad_table_id</text>
<polygon fill="none" stroke="black" points="254,-344.2 254,-366.2 444,-366.2 444,-344.2 254,-344.2"/>
<image xlink:href="../../images/foreignKeys.png" width="11px" height="12px" preserveAspectRatio="xMinYMin meet" x="259" y="-361.197"/>
<text text-anchor="start" x="274" y="-352.4" font-family="Helvetica,sans-Serif" font-size="11.00">ad_wf_node_id</text>
<polygon fill="none" stroke="black" points="254,-322.2 254,-344.2 444,-344.2 444,-322.2 254,-322.2"/>
<image xlink:href="../../images/foreignKeys.png" width="11px" height="12px" preserveAspectRatio="xMinYMin meet" x="259" y="-339.197"/>
<text text-anchor="start" x="274" y="-330.4" font-family="Helvetica,sans-Serif" font-size="11.00">ad_wf_responsible_id</text>
<polygon fill="none" stroke="black" points="254,-300.2 254,-322.2 444,-322.2 444,-300.2 254,-300.2"/>
<image xlink:href="../../images/foreignKeys.png" width="11px" height="12px" preserveAspectRatio="xMinYMin meet" x="259" y="-317.197"/>
<text text-anchor="start" x="274" y="-308.4" font-family="Helvetica,sans-Serif" font-size="11.00">ad_workflowprocessor_id</text>
<polygon fill="none" stroke="black" points="254,-278.2 254,-300.2 444,-300.2 444,-278.2 254,-278.2"/>
<image xlink:href="../../images/foreignKeys.png" width="11px" height="12px" preserveAspectRatio="xMinYMin meet" x="259" y="-295.197"/>
<text text-anchor="start" x="274" y="-286.4" font-family="Helvetica,sans-Serif" font-size="11.00">ad_workflow_id</text>
<polygon fill="none" stroke="black" points="254,-256.2 254,-278.2 444,-278.2 444,-256.2 254,-256.2"/>
<image xlink:href="../../images/foreignKeys.png" width="11px" height="12px" preserveAspectRatio="xMinYMin meet" x="259" y="-273.197"/>
<text text-anchor="start" x="274" y="-264.4" font-family="Helvetica,sans-Serif" font-size="11.00">entitytype</text>
<polygon fill="none" stroke="black" points="254,-234.2 254,-256.2 444,-256.2 444,-234.2 254,-234.2"/>
<image xlink:href="../../images/foreignKeys.png" width="11px" height="12px" preserveAspectRatio="xMinYMin meet" x="259" y="-251.197"/>
<text text-anchor="start" x="274" y="-242.4" font-family="Helvetica,sans-Serif" font-size="11.00">pp_order_id</text>
<polygon fill="none" stroke="black" points="254,-212.2 254,-234.2 444,-234.2 444,-212.2 254,-212.2"/>
<image xlink:href="../../images/foreignKeys.png" width="11px" height="12px" preserveAspectRatio="xMinYMin meet" x="259" y="-229.197"/>
<text text-anchor="start" x="274" y="-220.4" font-family="Helvetica,sans-Serif" font-size="11.00">pp_order_node_id</text>
<polygon fill="none" stroke="black" points="254,-190.2 254,-212.2 444,-212.2 444,-190.2 254,-190.2"/>
<image xlink:href="../../images/primaryKeys.png" width="11px" height="12px" preserveAspectRatio="xMinYMin meet" x="259" y="-207.197"/>
<text text-anchor="start" x="274" y="-198.4" font-family="Helvetica,sans-Serif" font-size="11.00">pp_order_workflow_id</text>
<polygon fill="none" stroke="black" points="254,-168.2 254,-190.2 444,-190.2 444,-168.2 254,-168.2"/>
<image xlink:href="../../images/foreignKeys.png" width="11px" height="12px" preserveAspectRatio="xMinYMin meet" x="259" y="-185.197"/>
<text text-anchor="start" x="274" y="-176.4" font-family="Helvetica,sans-Serif" font-size="11.00">s_resource_id</text>
<polygon fill="#ffffff" stroke="transparent" points="254,-146.2 254,-168.2 444,-168.2 444,-146.2 254,-146.2"/>
<polygon fill="none" stroke="black" points="254,-146.2 254,-168.2 444,-168.2 444,-146.2 254,-146.2"/>
<text text-anchor="start" x="274" y="-154.4" font-family="Helvetica,sans-Serif" font-size="11.00">pp_order_workflow_uu</text>
<polygon fill="none" stroke="black" points="254,-128.2 254,-146.2 444,-146.2 444,-128.2 254,-128.2"/>
<text text-anchor="start" x="257" y="-134.4" font-family="Helvetica,sans-Serif" font-size="11.00">...</text>
<polygon fill="#ffffff" stroke="transparent" points="254,-110.2 254,-128.2 329,-128.2 329,-110.2 254,-110.2"/>
<polygon fill="none" stroke="black" points="254,-110.2 254,-128.2 329,-128.2 329,-110.2 254,-110.2"/>
<text text-anchor="start" x="257" y="-116.4" font-family="Helvetica,sans-Serif" font-size="11.00">&lt; 9</text>
<polygon fill="#ffffff" stroke="transparent" points="329,-110.2 329,-128.2 395,-128.2 395,-110.2 329,-110.2"/>
<polygon fill="none" stroke="black" points="329,-110.2 329,-128.2 395,-128.2 395,-110.2 329,-110.2"/>
<text text-anchor="start" x="359" y="-116.4" font-family="Helvetica,sans-Serif" font-size="11.00">0 rows</text>
<polygon fill="#ffffff" stroke="transparent" points="395,-110.2 395,-128.2 444,-128.2 444,-110.2 395,-110.2"/>
<polygon fill="none" stroke="black" points="395,-110.2 395,-128.2 444,-128.2 444,-110.2 395,-110.2"/>
<text text-anchor="start" x="425" y="-116.4" font-family="Helvetica,sans-Serif" font-size="11.00">5 &gt;</text>
</a>
</g>
</g>
<!-- pp_order_node&#45;&gt;pp_order_workflow -->
<g id="edge2" class="edge">
<title>pp_order_node:w&#45;&gt;pp_order_workflow:e</title>
<path fill="none" stroke="black" d="M492.04,-201.2C475.54,-201.2 466.78,-201.2 445,-201.2"/>
<polygon fill="black" stroke="black" points="498.5,-201.2 506.5,-204.8 502.5,-201.2 506.5,-201.2 506.5,-201.2 506.5,-201.2 502.5,-201.2 506.5,-197.6 498.5,-201.2 498.5,-201.2"/>
<ellipse fill="none" stroke="black" cx="495.3" cy="-201.2" rx="3.2" ry="3.2"/>
</g>
<!-- pp_order_workflow&#45;&gt;pp_order_node -->
<g id="edge8" class="edge">
<title>pp_order_workflow:w&#45;&gt;pp_order_node:e</title>
<path fill="none" stroke="black" d="M241.77,-213.68C230.89,-188.61 239.75,-121.65 254,-106.2 263.62,-95.77 654.94,-63.78 675.5,-84.2 697.42,-105.96 707.39,-223.2 676.5,-223.2"/>
<polygon fill="black" stroke="black" points="246.9,-218.02 250.67,-225.94 249.95,-220.61 253,-223.2 253,-223.2 253,-223.2 249.95,-220.61 255.33,-220.45 246.9,-218.02 246.9,-218.02"/>
<ellipse fill="none" stroke="black" cx="244.46" cy="-215.96" rx="3.2" ry="3.2"/>
</g>
<!-- pp_order_workflow&#45;&gt;pp_order -->
<g id="edge7" class="edge">
<title>pp_order_workflow:w&#45;&gt;pp_order:e</title>
<path fill="none" stroke="black" d="M238.46,-247.59C182.36,-269.46 287.26,-434.2 206.5,-434.2"/>
<polygon fill="black" stroke="black" points="245.11,-246.49 253.58,-248.75 249.05,-245.85 253,-245.2 253,-245.2 253,-245.2 249.05,-245.85 252.42,-241.64 245.11,-246.49 245.11,-246.49"/>
<ellipse fill="none" stroke="black" cx="241.95" cy="-247.01" rx="3.2" ry="3.2"/>
</g>
<!-- pp_order_node_asset -->
<g id="node4" class="node">
<title>pp_order_node_asset</title>
<g id="a_node4"><a xlink:href="../../tables/pp_order_node_asset.html" xlink:title="pp_order_node_asset" target="_top">
<polygon fill="#ffffff" stroke="transparent" points="739,-253.2 739,-583.2 1011,-583.2 1011,-253.2 739,-253.2"/>
<polygon fill="#f5f5f5" stroke="transparent" points="741,-559.2 741,-581.2 1009,-581.2 1009,-559.2 741,-559.2"/>
<polygon fill="none" stroke="black" points="741,-559.2 741,-581.2 1009,-581.2 1009,-559.2 741,-559.2"/>
<text text-anchor="start" x="746" y="-568.4" font-family="Helvetica,sans-Serif" font-weight="bold" font-size="11.00">pp_order_node_asset</text>
<text text-anchor="start" x="974" y="-567.4" font-family="Helvetica,sans-Serif" font-size="11.00">[table]</text>
<polygon fill="none" stroke="black" points="741,-537.2 741,-559.2 926,-559.2 926,-537.2 741,-537.2"/>
<text text-anchor="start" x="761" y="-545.4" font-family="Helvetica,sans-Serif" font-size="11.00">ad_client_id</text>
<polygon fill="none" stroke="black" points="926,-537.2 926,-559.2 1009,-559.2 1009,-537.2 926,-537.2"/>
<text text-anchor="start" x="929" y="-545.4" font-family="Helvetica,sans-Serif" font-size="11.00">numeric[10]</text>
<polygon fill="none" stroke="black" points="741,-515.2 741,-537.2 926,-537.2 926,-515.2 741,-515.2"/>
<text text-anchor="start" x="761" y="-523.4" font-family="Helvetica,sans-Serif" font-size="11.00">ad_org_id</text>
<polygon fill="none" stroke="black" points="926,-515.2 926,-537.2 1009,-537.2 1009,-515.2 926,-515.2"/>
<text text-anchor="start" x="929" y="-523.4" font-family="Helvetica,sans-Serif" font-size="11.00">numeric[10]</text>
<polygon fill="none" stroke="black" points="741,-493.2 741,-515.2 926,-515.2 926,-493.2 741,-493.2"/>
<image xlink:href="../../images/foreignKeys.png" width="11px" height="12px" preserveAspectRatio="xMinYMin meet" x="746" y="-510.197"/>
<text text-anchor="start" x="761" y="-501.4" font-family="Helvetica,sans-Serif" font-size="11.00">a_asset_id</text>
<polygon fill="none" stroke="black" points="926,-493.2 926,-515.2 1009,-515.2 1009,-493.2 926,-493.2"/>
<text text-anchor="start" x="929" y="-501.4" font-family="Helvetica,sans-Serif" font-size="11.00">numeric[10]</text>
<polygon fill="none" stroke="black" points="741,-471.2 741,-493.2 926,-493.2 926,-471.2 741,-471.2"/>
<text text-anchor="start" x="761" y="-479.4" font-family="Helvetica,sans-Serif" font-size="11.00">created</text>
<polygon fill="none" stroke="black" points="926,-471.2 926,-493.2 1009,-493.2 1009,-471.2 926,-471.2"/>
<text text-anchor="start" x="929" y="-479.4" font-family="Helvetica,sans-Serif" font-size="11.00">timestamp[29,6]</text>
<polygon fill="none" stroke="black" points="741,-449.2 741,-471.2 926,-471.2 926,-449.2 741,-449.2"/>
<text text-anchor="start" x="761" y="-457.4" font-family="Helvetica,sans-Serif" font-size="11.00">createdby</text>
<polygon fill="none" stroke="black" points="926,-449.2 926,-471.2 1009,-471.2 1009,-449.2 926,-449.2"/>
<text text-anchor="start" x="929" y="-457.4" font-family="Helvetica,sans-Serif" font-size="11.00">numeric[10]</text>
<polygon fill="none" stroke="black" points="741,-427.2 741,-449.2 926,-449.2 926,-427.2 741,-427.2"/>
<text text-anchor="start" x="761" y="-435.4" font-family="Helvetica,sans-Serif" font-size="11.00">isactive</text>
<polygon fill="none" stroke="black" points="926,-427.2 926,-449.2 1009,-449.2 1009,-427.2 926,-427.2"/>
<text text-anchor="start" x="929" y="-435.4" font-family="Helvetica,sans-Serif" font-size="11.00">bpchar[1]</text>
<polygon fill="none" stroke="black" points="741,-405.2 741,-427.2 926,-427.2 926,-405.2 741,-405.2"/>
<image xlink:href="../../images/foreignKeys.png" width="11px" height="12px" preserveAspectRatio="xMinYMin meet" x="746" y="-422.197"/>
<text text-anchor="start" x="761" y="-413.4" font-family="Helvetica,sans-Serif" font-size="11.00">pp_order_id</text>
<polygon fill="none" stroke="black" points="926,-405.2 926,-427.2 1009,-427.2 1009,-405.2 926,-405.2"/>
<text text-anchor="start" x="929" y="-413.4" font-family="Helvetica,sans-Serif" font-size="11.00">numeric[10]</text>
<polygon fill="none" stroke="black" points="741,-383.2 741,-405.2 926,-405.2 926,-383.2 741,-383.2"/>
<image xlink:href="../../images/primaryKeys.png" width="11px" height="12px" preserveAspectRatio="xMinYMin meet" x="746" y="-400.197"/>
<text text-anchor="start" x="761" y="-391.4" font-family="Helvetica,sans-Serif" font-size="11.00">pp_order_node_asset_id</text>
<polygon fill="none" stroke="black" points="926,-383.2 926,-405.2 1009,-405.2 1009,-383.2 926,-383.2"/>
<text text-anchor="start" x="929" y="-391.4" font-family="Helvetica,sans-Serif" font-size="11.00">numeric[10]</text>
<polygon fill="none" stroke="black" points="741,-361.2 741,-383.2 926,-383.2 926,-361.2 741,-361.2"/>
<image xlink:href="../../images/foreignKeys.png" width="11px" height="12px" preserveAspectRatio="xMinYMin meet" x="746" y="-378.197"/>
<text text-anchor="start" x="761" y="-369.4" font-family="Helvetica,sans-Serif" font-size="11.00">pp_order_node_id</text>
<polygon fill="none" stroke="black" points="926,-361.2 926,-383.2 1009,-383.2 1009,-361.2 926,-361.2"/>
<text text-anchor="start" x="929" y="-369.4" font-family="Helvetica,sans-Serif" font-size="11.00">numeric[10]</text>
<polygon fill="none" stroke="black" points="741,-339.2 741,-361.2 926,-361.2 926,-339.2 741,-339.2"/>
<image xlink:href="../../images/foreignKeys.png" width="11px" height="12px" preserveAspectRatio="xMinYMin meet" x="746" y="-356.197"/>
<text text-anchor="start" x="761" y="-347.4" font-family="Helvetica,sans-Serif" font-size="11.00">pp_order_workflow_id</text>
<polygon fill="none" stroke="black" points="926,-339.2 926,-361.2 1009,-361.2 1009,-339.2 926,-339.2"/>
<text text-anchor="start" x="929" y="-347.4" font-family="Helvetica,sans-Serif" font-size="11.00">numeric[10]</text>
<polygon fill="none" stroke="black" points="741,-317.2 741,-339.2 926,-339.2 926,-317.2 741,-317.2"/>
<text text-anchor="start" x="761" y="-325.4" font-family="Helvetica,sans-Serif" font-size="11.00">updated</text>
<polygon fill="none" stroke="black" points="926,-317.2 926,-339.2 1009,-339.2 1009,-317.2 926,-317.2"/>
<text text-anchor="start" x="929" y="-325.4" font-family="Helvetica,sans-Serif" font-size="11.00">timestamp[29,6]</text>
<polygon fill="none" stroke="black" points="741,-295.2 741,-317.2 926,-317.2 926,-295.2 741,-295.2"/>
<text text-anchor="start" x="761" y="-303.4" font-family="Helvetica,sans-Serif" font-size="11.00">updatedby</text>
<polygon fill="none" stroke="black" points="926,-295.2 926,-317.2 1009,-317.2 1009,-295.2 926,-295.2"/>
<text text-anchor="start" x="929" y="-303.4" font-family="Helvetica,sans-Serif" font-size="11.00">numeric[10]</text>
<polygon fill="#ffffff" stroke="transparent" points="741,-273.2 741,-295.2 926,-295.2 926,-273.2 741,-273.2"/>
<polygon fill="none" stroke="black" points="741,-273.2 741,-295.2 926,-295.2 926,-273.2 741,-273.2"/>
<text text-anchor="start" x="761" y="-281.4" font-family="Helvetica,sans-Serif" font-size="11.00">pp_order_node_asset_uu</text>
<polygon fill="none" stroke="black" points="926,-273.2 926,-295.2 1009,-295.2 1009,-273.2 926,-273.2"/>
<text text-anchor="start" x="929" y="-281.4" font-family="Helvetica,sans-Serif" font-size="11.00">varchar[36]</text>
<polygon fill="#ffffff" stroke="transparent" points="741,-255.2 741,-273.2 825,-273.2 825,-255.2 741,-255.2"/>
<polygon fill="none" stroke="black" points="741,-255.2 741,-273.2 825,-273.2 825,-255.2 741,-255.2"/>
<text text-anchor="start" x="744" y="-261.4" font-family="Helvetica,sans-Serif" font-size="11.00">&lt; 4</text>
<polygon fill="#ffffff" stroke="transparent" points="825,-255.2 825,-273.2 926,-273.2 926,-255.2 825,-255.2"/>
<polygon fill="none" stroke="black" points="825,-255.2 825,-273.2 926,-273.2 926,-255.2 825,-255.2"/>
<text text-anchor="start" x="890" y="-261.4" font-family="Helvetica,sans-Serif" font-size="11.00">0 rows</text>
<polygon fill="#ffffff" stroke="transparent" points="926,-255.2 926,-273.2 1009,-273.2 1009,-255.2 926,-255.2"/>
<polygon fill="none" stroke="black" points="926,-255.2 926,-273.2 1009,-273.2 1009,-255.2 926,-255.2"/>
<text text-anchor="start" x="990" y="-261.4" font-family="Helvetica,sans-Serif" font-size="11.00">0 &gt;</text>
<polygon fill="none" stroke="black" stroke-width="2" points="740,-254.2 740,-582.2 1010,-582.2 1010,-254.2 740,-254.2"/>
</a>
</g>
</g>
<!-- pp_order_node_asset&#45;&gt;pp_order_node -->
<g id="edge5" class="edge">
<title>pp_order_node_asset:w&#45;&gt;pp_order_node:e</title>
<path fill="none" stroke="black" d="M725.77,-369.61C679.66,-349.82 742.86,-223.2 676.5,-223.2"/>
<polygon fill="black" stroke="black" points="732.13,-370.77 739.36,-375.74 736.06,-371.48 740,-372.2 740,-372.2 740,-372.2 736.06,-371.48 740.64,-368.65 732.13,-370.77 732.13,-370.77"/>
<ellipse fill="none" stroke="black" cx="728.98" cy="-370.19" rx="3.2" ry="3.2"/>
</g>
<!-- pp_order_node_asset&#45;&gt;pp_order -->
<g id="edge4" class="edge">
<title>pp_order_node_asset:w&#45;&gt;pp_order:e</title>
<path fill="none" stroke="black" d="M725.57,-418.66C689.19,-434.12 744.13,-518.16 698,-552.2 659.91,-580.3 531.39,-561.62 485,-552.2 468.53,-548.85 223.3,-434.2 206.5,-434.2"/>
<polygon fill="black" stroke="black" points="732.11,-417.54 740.61,-419.75 736.06,-416.87 740,-416.2 740,-416.2 740,-416.2 736.06,-416.87 739.39,-412.65 732.11,-417.54 732.11,-417.54"/>
<ellipse fill="none" stroke="black" cx="728.96" cy="-418.08" rx="3.2" ry="3.2"/>
</g>
<!-- pp_order_node_asset&#45;&gt;pp_order_workflow -->
<g id="edge6" class="edge">
<title>pp_order_node_asset:w&#45;&gt;pp_order_workflow:e</title>
<path fill="none" stroke="black" d="M726.37,-344.86C689.56,-309.88 740.4,-113.57 698,-77.2 626.15,-15.56 561.53,-21.47 485,-77.2 438.19,-111.28 502.91,-201.2 445,-201.2"/>
<polygon fill="black" stroke="black" points="732.55,-347.28 738.69,-353.55 736.27,-348.74 740,-350.2 740,-350.2 740,-350.2 736.27,-348.74 741.31,-346.84 732.55,-347.28 732.55,-347.28"/>
<ellipse fill="none" stroke="black" cx="729.57" cy="-346.12" rx="3.2" ry="3.2"/>
</g>
<!-- a_asset -->
<g id="node5" class="node">
<title>a_asset</title>
<g id="a_node5"><a xlink:href="../../tables/a_asset.html" xlink:title="a_asset" target="_top">
<polygon fill="#ffffff" stroke="transparent" points="493,-590.2 493,-1044.2 690,-1044.2 690,-590.2 493,-590.2"/>
<polygon fill="#f5f5f5" stroke="transparent" points="493.5,-1022.2 493.5,-1044.2 690.5,-1044.2 690.5,-1022.2 493.5,-1022.2"/>
<polygon fill="none" stroke="black" points="493.5,-1022.2 493.5,-1044.2 690.5,-1044.2 690.5,-1022.2 493.5,-1022.2"/>
<text text-anchor="start" x="498.5" y="-1031.4" font-family="Helvetica,sans-Serif" font-weight="bold" font-size="11.00">a_asset</text>
<text text-anchor="start" x="655.5" y="-1030.4" font-family="Helvetica,sans-Serif" font-size="11.00">[table]</text>
<polygon fill="none" stroke="black" points="493.5,-1000.2 493.5,-1022.2 690.5,-1022.2 690.5,-1000.2 493.5,-1000.2"/>
<image xlink:href="../../images/primaryKeys.png" width="11px" height="12px" preserveAspectRatio="xMinYMin meet" x="498.5" y="-1017.2"/>
<text text-anchor="start" x="513.5" y="-1008.4" font-family="Helvetica,sans-Serif" font-size="11.00">a_asset_id</text>
<polygon fill="none" stroke="black" points="493.5,-978.2 493.5,-1000.2 690.5,-1000.2 690.5,-978.2 493.5,-978.2"/>
<image xlink:href="../../images/foreignKeys.png" width="11px" height="12px" preserveAspectRatio="xMinYMin meet" x="498.5" y="-995.197"/>
<text text-anchor="start" x="513.5" y="-986.4" font-family="Helvetica,sans-Serif" font-size="11.00">a_asset_group_id</text>
<polygon fill="none" stroke="black" points="493.5,-956.2 493.5,-978.2 690.5,-978.2 690.5,-956.2 493.5,-956.2"/>
<image xlink:href="../../images/foreignKeys.png" width="11px" height="12px" preserveAspectRatio="xMinYMin meet" x="498.5" y="-973.197"/>
<text text-anchor="start" x="513.5" y="-964.4" font-family="Helvetica,sans-Serif" font-size="11.00">m_product_id</text>
<polygon fill="none" stroke="black" points="493.5,-934.2 493.5,-956.2 690.5,-956.2 690.5,-934.2 493.5,-934.2"/>
<image xlink:href="../../images/foreignKeys.png" width="11px" height="12px" preserveAspectRatio="xMinYMin meet" x="498.5" y="-951.197"/>
<text text-anchor="start" x="513.5" y="-942.4" font-family="Helvetica,sans-Serif" font-size="11.00">m_locator_id</text>
<polygon fill="none" stroke="black" points="493.5,-912.2 493.5,-934.2 690.5,-934.2 690.5,-912.2 493.5,-912.2"/>
<image xlink:href="../../images/foreignKeys.png" width="11px" height="12px" preserveAspectRatio="xMinYMin meet" x="498.5" y="-929.197"/>
<text text-anchor="start" x="513.5" y="-920.4" font-family="Helvetica,sans-Serif" font-size="11.00">c_bpartner_id</text>
<polygon fill="none" stroke="black" points="493.5,-890.2 493.5,-912.2 690.5,-912.2 690.5,-890.2 493.5,-890.2"/>
<image xlink:href="../../images/foreignKeys.png" width="11px" height="12px" preserveAspectRatio="xMinYMin meet" x="498.5" y="-907.197"/>
<text text-anchor="start" x="513.5" y="-898.4" font-family="Helvetica,sans-Serif" font-size="11.00">c_bpartner_location_id</text>
<polygon fill="none" stroke="black" points="493.5,-868.2 493.5,-890.2 690.5,-890.2 690.5,-868.2 493.5,-868.2"/>
<image xlink:href="../../images/foreignKeys.png" width="11px" height="12px" preserveAspectRatio="xMinYMin meet" x="498.5" y="-885.197"/>
<text text-anchor="start" x="513.5" y="-876.4" font-family="Helvetica,sans-Serif" font-size="11.00">c_location_id</text>
<polygon fill="none" stroke="black" points="493.5,-846.2 493.5,-868.2 690.5,-868.2 690.5,-846.2 493.5,-846.2"/>
<image xlink:href="../../images/foreignKeys.png" width="11px" height="12px" preserveAspectRatio="xMinYMin meet" x="498.5" y="-863.197"/>
<text text-anchor="start" x="513.5" y="-854.4" font-family="Helvetica,sans-Serif" font-size="11.00">ad_user_id</text>
<polygon fill="none" stroke="black" points="493.5,-824.2 493.5,-846.2 690.5,-846.2 690.5,-824.2 493.5,-824.2"/>
<image xlink:href="../../images/foreignKeys.png" width="11px" height="12px" preserveAspectRatio="xMinYMin meet" x="498.5" y="-841.197"/>
<text text-anchor="start" x="513.5" y="-832.4" font-family="Helvetica,sans-Serif" font-size="11.00">m_attributesetinstance_id</text>
<polygon fill="none" stroke="black" points="493.5,-802.2 493.5,-824.2 690.5,-824.2 690.5,-802.2 493.5,-802.2"/>
<image xlink:href="../../images/foreignKeys.png" width="11px" height="12px" preserveAspectRatio="xMinYMin meet" x="498.5" y="-819.197"/>
<text text-anchor="start" x="513.5" y="-810.4" font-family="Helvetica,sans-Serif" font-size="11.00">c_project_id</text>
<polygon fill="none" stroke="black" points="493.5,-780.2 493.5,-802.2 690.5,-802.2 690.5,-780.2 493.5,-780.2"/>
<image xlink:href="../../images/foreignKeys.png" width="11px" height="12px" preserveAspectRatio="xMinYMin meet" x="498.5" y="-797.197"/>
<text text-anchor="start" x="513.5" y="-788.4" font-family="Helvetica,sans-Serif" font-size="11.00">c_bpartnersr_id</text>
<polygon fill="none" stroke="black" points="493.5,-758.2 493.5,-780.2 690.5,-780.2 690.5,-758.2 493.5,-758.2"/>
<image xlink:href="../../images/foreignKeys.png" width="11px" height="12px" preserveAspectRatio="xMinYMin meet" x="498.5" y="-775.197"/>
<text text-anchor="start" x="513.5" y="-766.4" font-family="Helvetica,sans-Serif" font-size="11.00">m_inoutline_id</text>
<polygon fill="none" stroke="black" points="493.5,-736.2 493.5,-758.2 690.5,-758.2 690.5,-736.2 493.5,-736.2"/>
<image xlink:href="../../images/foreignKeys.png" width="11px" height="12px" preserveAspectRatio="xMinYMin meet" x="498.5" y="-753.197"/>
<text text-anchor="start" x="513.5" y="-744.4" font-family="Helvetica,sans-Serif" font-size="11.00">lease_bpartner_id</text>
<polygon fill="none" stroke="black" points="493.5,-714.2 493.5,-736.2 690.5,-736.2 690.5,-714.2 493.5,-714.2"/>
<image xlink:href="../../images/foreignKeys.png" width="11px" height="12px" preserveAspectRatio="xMinYMin meet" x="498.5" y="-731.197"/>
<text text-anchor="start" x="513.5" y="-722.4" font-family="Helvetica,sans-Serif" font-size="11.00">a_parent_asset_id</text>
<polygon fill="#ffffff" stroke="transparent" points="493.5,-692.2 493.5,-714.2 690.5,-714.2 690.5,-692.2 493.5,-692.2"/>
<polygon fill="none" stroke="black" points="493.5,-692.2 493.5,-714.2 690.5,-714.2 690.5,-692.2 493.5,-692.2"/>
<text text-anchor="start" x="513.5" y="-700.4" font-family="Helvetica,sans-Serif" font-size="11.00">a_asset_uu</text>
<polygon fill="none" stroke="black" points="493.5,-670.2 493.5,-692.2 690.5,-692.2 690.5,-670.2 493.5,-670.2"/>
<image xlink:href="../../images/foreignKeys.png" width="11px" height="12px" preserveAspectRatio="xMinYMin meet" x="498.5" y="-687.197"/>
<text text-anchor="start" x="513.5" y="-678.4" font-family="Helvetica,sans-Serif" font-size="11.00">a_asset_class_id</text>
<polygon fill="none" stroke="black" points="493.5,-648.2 493.5,-670.2 690.5,-670.2 690.5,-648.2 493.5,-648.2"/>
<image xlink:href="../../images/foreignKeys.png" width="11px" height="12px" preserveAspectRatio="xMinYMin meet" x="498.5" y="-665.197"/>
<text text-anchor="start" x="513.5" y="-656.4" font-family="Helvetica,sans-Serif" font-size="11.00">a_asset_type_id</text>
<polygon fill="none" stroke="black" points="493.5,-626.2 493.5,-648.2 690.5,-648.2 690.5,-626.2 493.5,-626.2"/>
<image xlink:href="../../images/foreignKeys.png" width="11px" height="12px" preserveAspectRatio="xMinYMin meet" x="498.5" y="-643.197"/>
<text text-anchor="start" x="513.5" y="-634.4" font-family="Helvetica,sans-Serif" font-size="11.00">c_activity_id</text>
<polygon fill="none" stroke="black" points="493.5,-608.2 493.5,-626.2 690.5,-626.2 690.5,-608.2 493.5,-608.2"/>
<text text-anchor="start" x="496.5" y="-614.4" font-family="Helvetica,sans-Serif" font-size="11.00">...</text>
<polygon fill="#ffffff" stroke="transparent" points="493.5,-590.2 493.5,-608.2 572.5,-608.2 572.5,-590.2 493.5,-590.2"/>
<polygon fill="none" stroke="black" points="493.5,-590.2 493.5,-608.2 572.5,-608.2 572.5,-590.2 493.5,-590.2"/>
<text text-anchor="start" x="496.5" y="-596.4" font-family="Helvetica,sans-Serif" font-size="11.00">&lt; 16</text>
<polygon fill="#ffffff" stroke="transparent" points="572.5,-590.2 572.5,-608.2 636.5,-608.2 636.5,-590.2 572.5,-590.2"/>
<polygon fill="none" stroke="black" points="572.5,-590.2 572.5,-608.2 636.5,-608.2 636.5,-590.2 572.5,-590.2"/>
<text text-anchor="start" x="600.5" y="-596.4" font-family="Helvetica,sans-Serif" font-size="11.00">0 rows</text>
<polygon fill="#ffffff" stroke="transparent" points="636.5,-590.2 636.5,-608.2 690.5,-608.2 690.5,-590.2 636.5,-590.2"/>
<polygon fill="none" stroke="black" points="636.5,-590.2 636.5,-608.2 690.5,-608.2 690.5,-590.2 636.5,-590.2"/>
<text text-anchor="start" x="665.5" y="-596.4" font-family="Helvetica,sans-Serif" font-size="11.00">48 &gt;</text>
</a>
</g>
</g>
<!-- pp_order_node_asset&#45;&gt;a_asset -->
<g id="edge3" class="edge">
<title>pp_order_node_asset:w&#45;&gt;a_asset:e</title>
<path fill="none" stroke="black" d="M725.94,-507.43C642.85,-550.61 799.38,-1011.2 691.5,-1011.2"/>
<polygon fill="black" stroke="black" points="732.2,-505.99 740.81,-507.7 736.1,-505.09 740,-504.2 740,-504.2 740,-504.2 736.1,-505.09 739.19,-500.69 732.2,-505.99 732.2,-505.99"/>
<ellipse fill="none" stroke="black" cx="729.09" cy="-506.71" rx="3.2" ry="3.2"/>
</g>
</g>
</svg>
