<?xml version="1.0" encoding="UTF-8" standalone="no"?>
<!DOCTYPE svg PUBLIC "-//W3C//DTD SVG 1.1//EN"
 "http://www.w3.org/Graphics/SVG/1.1/DTD/svg11.dtd">
<!-- Generated by graphviz version 2.43.0 (0)
 -->
<!-- Title: oneDegreeRelationshipsDiagram Pages: 1 -->
<svg width="334pt" height="1461pt"
 viewBox="0.00 0.00 334.00 1461.00" xmlns="http://www.w3.org/2000/svg" xmlns:xlink="http://www.w3.org/1999/xlink">
<g id="graph0" class="graph" transform="scale(1 1) rotate(0) translate(4 1457)">
<title>oneDegreeRelationshipsDiagram</title>
<polygon fill="#ffffff" stroke="transparent" points="-4,4 -4,-1457 330,-1457 330,4 -4,4"/>
<text text-anchor="middle" x="71.5" y="-7.2" font-family="Helvetica,sans-Serif" font-size="11.00">Generated by SchemaSpy</text>
<!-- pp_order_bom_header_v -->
<g id="node1" class="node">
<title>pp_order_bom_header_v</title>
<g id="a_node1"><a xlink:href="../../tables/pp_order_bom_header_v.html" xlink:title="pp_order_bom_header_v" target="_top">
<polygon fill="#ffffff" stroke="transparent" points="8,-37 8,-1449 318,-1449 318,-37 8,-37"/>
<polygon fill="#f5f5f5" stroke="transparent" points="10,-1425 10,-1447 316,-1447 316,-1425 10,-1425"/>
<polygon fill="none" stroke="black" points="10,-1425 10,-1447 316,-1447 316,-1425 10,-1425"/>
<text text-anchor="start" x="15" y="-1434.2" font-family="Helvetica,sans-Serif" font-weight="bold" font-size="11.00">pp_order_bom_header_v</text>
<text text-anchor="start" x="283" y="-1433.2" font-family="Helvetica,sans-Serif" font-size="11.00">[view]</text>
<polygon fill="none" stroke="black" points="10,-1403 10,-1425 207,-1425 207,-1403 10,-1403"/>
<text text-anchor="start" x="30" y="-1411.2" font-family="Helvetica,sans-Serif" font-size="11.00">ad_client_id</text>
<polygon fill="none" stroke="black" points="207,-1403 207,-1425 316,-1425 316,-1403 207,-1403"/>
<text text-anchor="start" x="210" y="-1411.2" font-family="Helvetica,sans-Serif" font-size="11.00">numeric[10]</text>
<polygon fill="none" stroke="black" points="10,-1381 10,-1403 207,-1403 207,-1381 10,-1381"/>
<text text-anchor="start" x="30" y="-1389.2" font-family="Helvetica,sans-Serif" font-size="11.00">ad_org_id</text>
<polygon fill="none" stroke="black" points="207,-1381 207,-1403 316,-1403 316,-1381 207,-1381"/>
<text text-anchor="start" x="210" y="-1389.2" font-family="Helvetica,sans-Serif" font-size="11.00">numeric[10]</text>
<polygon fill="none" stroke="black" points="10,-1359 10,-1381 207,-1381 207,-1359 10,-1359"/>
<text text-anchor="start" x="30" y="-1367.2" font-family="Helvetica,sans-Serif" font-size="11.00">isactive</text>
<polygon fill="none" stroke="black" points="207,-1359 207,-1381 316,-1381 316,-1359 207,-1359"/>
<text text-anchor="start" x="210" y="-1367.2" font-family="Helvetica,sans-Serif" font-size="11.00">bpchar[1]</text>
<polygon fill="none" stroke="black" points="10,-1337 10,-1359 207,-1359 207,-1337 10,-1337"/>
<text text-anchor="start" x="30" y="-1345.2" font-family="Helvetica,sans-Serif" font-size="11.00">created</text>
<polygon fill="none" stroke="black" points="207,-1337 207,-1359 316,-1359 316,-1337 207,-1337"/>
<text text-anchor="start" x="210" y="-1345.2" font-family="Helvetica,sans-Serif" font-size="11.00">timestamp[29,6]</text>
<polygon fill="none" stroke="black" points="10,-1315 10,-1337 207,-1337 207,-1315 10,-1315"/>
<text text-anchor="start" x="30" y="-1323.2" font-family="Helvetica,sans-Serif" font-size="11.00">createdby</text>
<polygon fill="none" stroke="black" points="207,-1315 207,-1337 316,-1337 316,-1315 207,-1315"/>
<text text-anchor="start" x="210" y="-1323.2" font-family="Helvetica,sans-Serif" font-size="11.00">numeric[10]</text>
<polygon fill="none" stroke="black" points="10,-1293 10,-1315 207,-1315 207,-1293 10,-1293"/>
<text text-anchor="start" x="30" y="-1301.2" font-family="Helvetica,sans-Serif" font-size="11.00">updated</text>
<polygon fill="none" stroke="black" points="207,-1293 207,-1315 316,-1315 316,-1293 207,-1293"/>
<text text-anchor="start" x="210" y="-1301.2" font-family="Helvetica,sans-Serif" font-size="11.00">timestamp[29,6]</text>
<polygon fill="none" stroke="black" points="10,-1271 10,-1293 207,-1293 207,-1271 10,-1271"/>
<text text-anchor="start" x="30" y="-1279.2" font-family="Helvetica,sans-Serif" font-size="11.00">updatedby</text>
<polygon fill="none" stroke="black" points="207,-1271 207,-1293 316,-1293 316,-1271 207,-1271"/>
<text text-anchor="start" x="210" y="-1279.2" font-family="Helvetica,sans-Serif" font-size="11.00">numeric[10]</text>
<polygon fill="none" stroke="black" points="10,-1249 10,-1271 207,-1271 207,-1249 10,-1249"/>
<text text-anchor="start" x="30" y="-1257.2" font-family="Helvetica,sans-Serif" font-size="11.00">ad_language</text>
<polygon fill="none" stroke="black" points="207,-1249 207,-1271 316,-1271 316,-1249 207,-1249"/>
<text text-anchor="start" x="210" y="-1257.2" font-family="Helvetica,sans-Serif" font-size="11.00">varchar[2147483647]</text>
<polygon fill="none" stroke="black" points="10,-1227 10,-1249 207,-1249 207,-1227 10,-1227"/>
<image xlink:href="../../images/foreignKeys.png" width="11px" height="12px" preserveAspectRatio="xMinYMin meet" x="15" y="-1244"/>
<text text-anchor="start" x="30" y="-1235.2" font-family="Helvetica,sans-Serif" font-size="11.00">pp_order_id</text>
<polygon fill="none" stroke="black" points="207,-1227 207,-1249 316,-1249 316,-1227 207,-1227"/>
<text text-anchor="start" x="210" y="-1235.2" font-family="Helvetica,sans-Serif" font-size="11.00">numeric[10]</text>
<polygon fill="none" stroke="black" points="10,-1205 10,-1227 207,-1227 207,-1205 10,-1205"/>
<text text-anchor="start" x="30" y="-1213.2" font-family="Helvetica,sans-Serif" font-size="11.00">documentno</text>
<polygon fill="none" stroke="black" points="207,-1205 207,-1227 316,-1227 316,-1205 207,-1205"/>
<text text-anchor="start" x="210" y="-1213.2" font-family="Helvetica,sans-Serif" font-size="11.00">varchar[60]</text>
<polygon fill="none" stroke="black" points="10,-1183 10,-1205 207,-1205 207,-1183 10,-1183"/>
<text text-anchor="start" x="30" y="-1191.2" font-family="Helvetica,sans-Serif" font-size="11.00">docstatus</text>
<polygon fill="none" stroke="black" points="207,-1183 207,-1205 316,-1205 316,-1183 207,-1183"/>
<text text-anchor="start" x="210" y="-1191.2" font-family="Helvetica,sans-Serif" font-size="11.00">bpchar[2]</text>
<polygon fill="none" stroke="black" points="10,-1161 10,-1183 207,-1183 207,-1161 10,-1161"/>
<image xlink:href="../../images/foreignKeys.png" width="11px" height="12px" preserveAspectRatio="xMinYMin meet" x="15" y="-1178"/>
<text text-anchor="start" x="30" y="-1169.2" font-family="Helvetica,sans-Serif" font-size="11.00">c_doctype_id</text>
<polygon fill="none" stroke="black" points="207,-1161 207,-1183 316,-1183 316,-1161 207,-1161"/>
<text text-anchor="start" x="210" y="-1169.2" font-family="Helvetica,sans-Serif" font-size="11.00">numeric[10]</text>
<polygon fill="none" stroke="black" points="10,-1139 10,-1161 207,-1161 207,-1139 10,-1139"/>
<text text-anchor="start" x="30" y="-1147.2" font-family="Helvetica,sans-Serif" font-size="11.00">org_location_id</text>
<polygon fill="none" stroke="black" points="207,-1139 207,-1161 316,-1161 316,-1139 207,-1139"/>
<text text-anchor="start" x="210" y="-1147.2" font-family="Helvetica,sans-Serif" font-size="11.00">numeric[10]</text>
<polygon fill="none" stroke="black" points="10,-1117 10,-1139 207,-1139 207,-1117 10,-1117"/>
<text text-anchor="start" x="30" y="-1125.2" font-family="Helvetica,sans-Serif" font-size="11.00">taxid</text>
<polygon fill="none" stroke="black" points="207,-1117 207,-1139 316,-1139 316,-1117 207,-1117"/>
<text text-anchor="start" x="210" y="-1125.2" font-family="Helvetica,sans-Serif" font-size="11.00">varchar[20]</text>
<polygon fill="none" stroke="black" points="10,-1095 10,-1117 207,-1117 207,-1095 10,-1095"/>
<image xlink:href="../../images/foreignKeys.png" width="11px" height="12px" preserveAspectRatio="xMinYMin meet" x="15" y="-1112"/>
<text text-anchor="start" x="30" y="-1103.2" font-family="Helvetica,sans-Serif" font-size="11.00">m_warehouse_id</text>
<polygon fill="none" stroke="black" points="207,-1095 207,-1117 316,-1117 316,-1095 207,-1095"/>
<text text-anchor="start" x="210" y="-1103.2" font-family="Helvetica,sans-Serif" font-size="11.00">numeric[10]</text>
<polygon fill="none" stroke="black" points="10,-1073 10,-1095 207,-1095 207,-1073 10,-1073"/>
<text text-anchor="start" x="30" y="-1081.2" font-family="Helvetica,sans-Serif" font-size="11.00">warehouse_location_id</text>
<polygon fill="none" stroke="black" points="207,-1073 207,-1095 316,-1095 316,-1073 207,-1073"/>
<text text-anchor="start" x="210" y="-1081.2" font-family="Helvetica,sans-Serif" font-size="11.00">numeric[10]</text>
<polygon fill="none" stroke="black" points="10,-1051 10,-1073 207,-1073 207,-1051 10,-1051"/>
<text text-anchor="start" x="30" y="-1059.2" font-family="Helvetica,sans-Serif" font-size="11.00">documenttype</text>
<polygon fill="none" stroke="black" points="207,-1051 207,-1073 316,-1073 316,-1051 207,-1051"/>
<text text-anchor="start" x="210" y="-1059.2" font-family="Helvetica,sans-Serif" font-size="11.00">varchar[60]</text>
<polygon fill="none" stroke="black" points="10,-1029 10,-1051 207,-1051 207,-1029 10,-1029"/>
<text text-anchor="start" x="30" y="-1037.2" font-family="Helvetica,sans-Serif" font-size="11.00">documenttypenote</text>
<polygon fill="none" stroke="black" points="207,-1029 207,-1051 316,-1051 316,-1029 207,-1029"/>
<text text-anchor="start" x="210" y="-1037.2" font-family="Helvetica,sans-Serif" font-size="11.00">varchar[2000]</text>
<polygon fill="none" stroke="black" points="10,-1007 10,-1029 207,-1029 207,-1007 10,-1007"/>
<text text-anchor="start" x="30" y="-1015.2" font-family="Helvetica,sans-Serif" font-size="11.00">planner_id</text>
<polygon fill="none" stroke="black" points="207,-1007 207,-1029 316,-1029 316,-1007 207,-1007"/>
<text text-anchor="start" x="210" y="-1015.2" font-family="Helvetica,sans-Serif" font-size="11.00">numeric[10]</text>
<polygon fill="none" stroke="black" points="10,-985 10,-1007 207,-1007 207,-985 10,-985"/>
<text text-anchor="start" x="30" y="-993.2" font-family="Helvetica,sans-Serif" font-size="11.00">salesrep_name</text>
<polygon fill="none" stroke="black" points="207,-985 207,-1007 316,-1007 316,-985 207,-985"/>
<text text-anchor="start" x="210" y="-993.2" font-family="Helvetica,sans-Serif" font-size="11.00">varchar[60]</text>
<polygon fill="none" stroke="black" points="10,-963 10,-985 207,-985 207,-963 10,-963"/>
<text text-anchor="start" x="30" y="-971.2" font-family="Helvetica,sans-Serif" font-size="11.00">datestart</text>
<polygon fill="none" stroke="black" points="207,-963 207,-985 316,-985 316,-963 207,-963"/>
<text text-anchor="start" x="210" y="-971.2" font-family="Helvetica,sans-Serif" font-size="11.00">timestamp[29,6]</text>
<polygon fill="none" stroke="black" points="10,-941 10,-963 207,-963 207,-941 10,-941"/>
<text text-anchor="start" x="30" y="-949.2" font-family="Helvetica,sans-Serif" font-size="11.00">datestartschedule</text>
<polygon fill="none" stroke="black" points="207,-941 207,-963 316,-963 316,-941 207,-941"/>
<text text-anchor="start" x="210" y="-949.2" font-family="Helvetica,sans-Serif" font-size="11.00">timestamp[29,6]</text>
<polygon fill="none" stroke="black" points="10,-919 10,-941 207,-941 207,-919 10,-919"/>
<text text-anchor="start" x="30" y="-927.2" font-family="Helvetica,sans-Serif" font-size="11.00">floatafter</text>
<polygon fill="none" stroke="black" points="207,-919 207,-941 316,-941 316,-919 207,-919"/>
<text text-anchor="start" x="210" y="-927.2" font-family="Helvetica,sans-Serif" font-size="11.00">numeric[0]</text>
<polygon fill="none" stroke="black" points="10,-897 10,-919 207,-919 207,-897 10,-897"/>
<text text-anchor="start" x="30" y="-905.2" font-family="Helvetica,sans-Serif" font-size="11.00">floatbefored</text>
<polygon fill="none" stroke="black" points="207,-897 207,-919 316,-919 316,-897 207,-897"/>
<text text-anchor="start" x="210" y="-905.2" font-family="Helvetica,sans-Serif" font-size="11.00">numeric[0]</text>
<polygon fill="none" stroke="black" points="10,-875 10,-897 207,-897 207,-875 10,-875"/>
<text text-anchor="start" x="30" y="-883.2" font-family="Helvetica,sans-Serif" font-size="11.00">line</text>
<polygon fill="none" stroke="black" points="207,-875 207,-897 316,-897 316,-875 207,-875"/>
<text text-anchor="start" x="210" y="-883.2" font-family="Helvetica,sans-Serif" font-size="11.00">numeric[10]</text>
<polygon fill="none" stroke="black" points="10,-853 10,-875 207,-875 207,-853 10,-853"/>
<text text-anchor="start" x="30" y="-861.2" font-family="Helvetica,sans-Serif" font-size="11.00">lot</text>
<polygon fill="none" stroke="black" points="207,-853 207,-875 316,-875 316,-853 207,-853"/>
<text text-anchor="start" x="210" y="-861.2" font-family="Helvetica,sans-Serif" font-size="11.00">varchar[20]</text>
<polygon fill="none" stroke="black" points="10,-831 10,-853 207,-853 207,-831 10,-831"/>
<text text-anchor="start" x="30" y="-839.2" font-family="Helvetica,sans-Serif" font-size="11.00">serno</text>
<polygon fill="none" stroke="black" points="207,-831 207,-853 316,-853 316,-831 207,-831"/>
<text text-anchor="start" x="210" y="-839.2" font-family="Helvetica,sans-Serif" font-size="11.00">varchar[20]</text>
<polygon fill="none" stroke="black" points="10,-809 10,-831 207,-831 207,-809 10,-809"/>
<image xlink:href="../../images/foreignKeys.png" width="11px" height="12px" preserveAspectRatio="xMinYMin meet" x="15" y="-826"/>
<text text-anchor="start" x="30" y="-817.2" font-family="Helvetica,sans-Serif" font-size="11.00">c_uom_id</text>
<polygon fill="none" stroke="black" points="207,-809 207,-831 316,-831 316,-809 207,-809"/>
<text text-anchor="start" x="210" y="-817.2" font-family="Helvetica,sans-Serif" font-size="11.00">numeric[10]</text>
<polygon fill="none" stroke="black" points="10,-787 10,-809 207,-809 207,-787 10,-787"/>
<image xlink:href="../../images/foreignKeys.png" width="11px" height="12px" preserveAspectRatio="xMinYMin meet" x="15" y="-804"/>
<text text-anchor="start" x="30" y="-795.2" font-family="Helvetica,sans-Serif" font-size="11.00">s_resource_id</text>
<polygon fill="none" stroke="black" points="207,-787 207,-809 316,-809 316,-787 207,-787"/>
<text text-anchor="start" x="210" y="-795.2" font-family="Helvetica,sans-Serif" font-size="11.00">numeric[10]</text>
<polygon fill="none" stroke="black" points="10,-765 10,-787 207,-787 207,-765 10,-765"/>
<image xlink:href="../../images/foreignKeys.png" width="11px" height="12px" preserveAspectRatio="xMinYMin meet" x="15" y="-782"/>
<text text-anchor="start" x="30" y="-773.2" font-family="Helvetica,sans-Serif" font-size="11.00">pp_product_bom_id</text>
<polygon fill="none" stroke="black" points="207,-765 207,-787 316,-787 316,-765 207,-765"/>
<text text-anchor="start" x="210" y="-773.2" font-family="Helvetica,sans-Serif" font-size="11.00">numeric[10]</text>
<polygon fill="none" stroke="black" points="10,-743 10,-765 207,-765 207,-743 10,-743"/>
<image xlink:href="../../images/foreignKeys.png" width="11px" height="12px" preserveAspectRatio="xMinYMin meet" x="15" y="-760"/>
<text text-anchor="start" x="30" y="-751.2" font-family="Helvetica,sans-Serif" font-size="11.00">ad_workflow_id</text>
<polygon fill="none" stroke="black" points="207,-743 207,-765 316,-765 316,-743 207,-743"/>
<text text-anchor="start" x="210" y="-751.2" font-family="Helvetica,sans-Serif" font-size="11.00">numeric[10]</text>
<polygon fill="none" stroke="black" points="10,-721 10,-743 207,-743 207,-721 10,-721"/>
<text text-anchor="start" x="30" y="-729.2" font-family="Helvetica,sans-Serif" font-size="11.00">assay</text>
<polygon fill="none" stroke="black" points="207,-721 207,-743 316,-743 316,-721 207,-721"/>
<text text-anchor="start" x="210" y="-729.2" font-family="Helvetica,sans-Serif" font-size="11.00">numeric[0]</text>
<polygon fill="none" stroke="black" points="10,-699 10,-721 207,-721 207,-699 10,-699"/>
<image xlink:href="../../images/foreignKeys.png" width="11px" height="12px" preserveAspectRatio="xMinYMin meet" x="15" y="-716"/>
<text text-anchor="start" x="30" y="-707.2" font-family="Helvetica,sans-Serif" font-size="11.00">c_orderline_id</text>
<polygon fill="none" stroke="black" points="207,-699 207,-721 316,-721 316,-699 207,-699"/>
<text text-anchor="start" x="210" y="-707.2" font-family="Helvetica,sans-Serif" font-size="11.00">numeric[10]</text>
<polygon fill="none" stroke="black" points="10,-677 10,-699 207,-699 207,-677 10,-677"/>
<text text-anchor="start" x="30" y="-685.2" font-family="Helvetica,sans-Serif" font-size="11.00">priorityrule</text>
<polygon fill="none" stroke="black" points="207,-677 207,-699 316,-699 316,-677 207,-677"/>
<text text-anchor="start" x="210" y="-685.2" font-family="Helvetica,sans-Serif" font-size="11.00">bpchar[1]</text>
<polygon fill="none" stroke="black" points="10,-655 10,-677 207,-677 207,-655 10,-655"/>
<text text-anchor="start" x="30" y="-663.2" font-family="Helvetica,sans-Serif" font-size="11.00">qtybatchsize</text>
<polygon fill="none" stroke="black" points="207,-655 207,-677 316,-677 316,-655 207,-655"/>
<text text-anchor="start" x="210" y="-663.2" font-family="Helvetica,sans-Serif" font-size="11.00">numeric[0]</text>
<polygon fill="none" stroke="black" points="10,-633 10,-655 207,-655 207,-633 10,-633"/>
<text text-anchor="start" x="30" y="-641.2" font-family="Helvetica,sans-Serif" font-size="11.00">qtybatchs</text>
<polygon fill="none" stroke="black" points="207,-633 207,-655 316,-655 316,-633 207,-633"/>
<text text-anchor="start" x="210" y="-641.2" font-family="Helvetica,sans-Serif" font-size="11.00">numeric[0]</text>
<polygon fill="none" stroke="black" points="10,-611 10,-633 207,-633 207,-611 10,-611"/>
<text text-anchor="start" x="30" y="-619.2" font-family="Helvetica,sans-Serif" font-size="11.00">qtydelivered</text>
<polygon fill="none" stroke="black" points="207,-611 207,-633 316,-633 316,-611 207,-611"/>
<text text-anchor="start" x="210" y="-619.2" font-family="Helvetica,sans-Serif" font-size="11.00">numeric[0]</text>
<polygon fill="none" stroke="black" points="10,-589 10,-611 207,-611 207,-589 10,-589"/>
<text text-anchor="start" x="30" y="-597.2" font-family="Helvetica,sans-Serif" font-size="11.00">qtyentered</text>
<polygon fill="none" stroke="black" points="207,-589 207,-611 316,-611 316,-589 207,-589"/>
<text text-anchor="start" x="210" y="-597.2" font-family="Helvetica,sans-Serif" font-size="11.00">numeric[0]</text>
<polygon fill="none" stroke="black" points="10,-567 10,-589 207,-589 207,-567 10,-567"/>
<text text-anchor="start" x="30" y="-575.2" font-family="Helvetica,sans-Serif" font-size="11.00">qtyordered</text>
<polygon fill="none" stroke="black" points="207,-567 207,-589 316,-589 316,-567 207,-567"/>
<text text-anchor="start" x="210" y="-575.2" font-family="Helvetica,sans-Serif" font-size="11.00">numeric[0]</text>
<polygon fill="none" stroke="black" points="10,-545 10,-567 207,-567 207,-545 10,-545"/>
<text text-anchor="start" x="30" y="-553.2" font-family="Helvetica,sans-Serif" font-size="11.00">dateconfirm</text>
<polygon fill="none" stroke="black" points="207,-545 207,-567 316,-567 316,-545 207,-545"/>
<text text-anchor="start" x="210" y="-553.2" font-family="Helvetica,sans-Serif" font-size="11.00">timestamp[29,6]</text>
<polygon fill="none" stroke="black" points="10,-523 10,-545 207,-545 207,-523 10,-523"/>
<text text-anchor="start" x="30" y="-531.2" font-family="Helvetica,sans-Serif" font-size="11.00">datedelivered</text>
<polygon fill="none" stroke="black" points="207,-523 207,-545 316,-545 316,-523 207,-523"/>
<text text-anchor="start" x="210" y="-531.2" font-family="Helvetica,sans-Serif" font-size="11.00">timestamp[29,6]</text>
<polygon fill="none" stroke="black" points="10,-501 10,-523 207,-523 207,-501 10,-501"/>
<text text-anchor="start" x="30" y="-509.2" font-family="Helvetica,sans-Serif" font-size="11.00">datefinish</text>
<polygon fill="none" stroke="black" points="207,-501 207,-523 316,-523 316,-501 207,-501"/>
<text text-anchor="start" x="210" y="-509.2" font-family="Helvetica,sans-Serif" font-size="11.00">timestamp[29,6]</text>
<polygon fill="none" stroke="black" points="10,-479 10,-501 207,-501 207,-479 10,-479"/>
<text text-anchor="start" x="30" y="-487.2" font-family="Helvetica,sans-Serif" font-size="11.00">datefinishschedule</text>
<polygon fill="none" stroke="black" points="207,-479 207,-501 316,-501 316,-479 207,-479"/>
<text text-anchor="start" x="210" y="-487.2" font-family="Helvetica,sans-Serif" font-size="11.00">timestamp[29,6]</text>
<polygon fill="none" stroke="black" points="10,-457 10,-479 207,-479 207,-457 10,-457"/>
<text text-anchor="start" x="30" y="-465.2" font-family="Helvetica,sans-Serif" font-size="11.00">dateordered</text>
<polygon fill="none" stroke="black" points="207,-457 207,-479 316,-479 316,-457 207,-457"/>
<text text-anchor="start" x="210" y="-465.2" font-family="Helvetica,sans-Serif" font-size="11.00">timestamp[29,6]</text>
<polygon fill="none" stroke="black" points="10,-435 10,-457 207,-457 207,-435 10,-435"/>
<text text-anchor="start" x="30" y="-443.2" font-family="Helvetica,sans-Serif" font-size="11.00">datepromised</text>
<polygon fill="none" stroke="black" points="207,-435 207,-457 316,-457 316,-435 207,-435"/>
<text text-anchor="start" x="210" y="-443.2" font-family="Helvetica,sans-Serif" font-size="11.00">timestamp[29,6]</text>
<polygon fill="none" stroke="black" points="10,-413 10,-435 207,-435 207,-413 10,-413"/>
<text text-anchor="start" x="30" y="-421.2" font-family="Helvetica,sans-Serif" font-size="11.00">qtyreject</text>
<polygon fill="none" stroke="black" points="207,-413 207,-435 316,-435 316,-413 207,-413"/>
<text text-anchor="start" x="210" y="-421.2" font-family="Helvetica,sans-Serif" font-size="11.00">numeric[0]</text>
<polygon fill="none" stroke="black" points="10,-391 10,-413 207,-413 207,-391 10,-391"/>
<text text-anchor="start" x="30" y="-399.2" font-family="Helvetica,sans-Serif" font-size="11.00">qtyreserved</text>
<polygon fill="none" stroke="black" points="207,-391 207,-413 316,-413 316,-391 207,-391"/>
<text text-anchor="start" x="210" y="-399.2" font-family="Helvetica,sans-Serif" font-size="11.00">numeric[0]</text>
<polygon fill="none" stroke="black" points="10,-369 10,-391 207,-391 207,-369 10,-369"/>
<text text-anchor="start" x="30" y="-377.2" font-family="Helvetica,sans-Serif" font-size="11.00">qtyscrap</text>
<polygon fill="none" stroke="black" points="207,-369 207,-391 316,-391 316,-369 207,-369"/>
<text text-anchor="start" x="210" y="-377.2" font-family="Helvetica,sans-Serif" font-size="11.00">numeric[0]</text>
<polygon fill="none" stroke="black" points="10,-347 10,-369 207,-369 207,-347 10,-347"/>
<text text-anchor="start" x="30" y="-355.2" font-family="Helvetica,sans-Serif" font-size="11.00">yield</text>
<polygon fill="none" stroke="black" points="207,-347 207,-369 316,-369 316,-347 207,-347"/>
<text text-anchor="start" x="210" y="-355.2" font-family="Helvetica,sans-Serif" font-size="11.00">numeric[0]</text>
<polygon fill="none" stroke="black" points="10,-325 10,-347 207,-347 207,-325 10,-325"/>
<image xlink:href="../../images/foreignKeys.png" width="11px" height="12px" preserveAspectRatio="xMinYMin meet" x="15" y="-342"/>
<text text-anchor="start" x="30" y="-333.2" font-family="Helvetica,sans-Serif" font-size="11.00">c_campaign_id</text>
<polygon fill="none" stroke="black" points="207,-325 207,-347 316,-347 316,-325 207,-325"/>
<text text-anchor="start" x="210" y="-333.2" font-family="Helvetica,sans-Serif" font-size="11.00">numeric[10]</text>
<polygon fill="none" stroke="black" points="10,-303 10,-325 207,-325 207,-303 10,-303"/>
<image xlink:href="../../images/foreignKeys.png" width="11px" height="12px" preserveAspectRatio="xMinYMin meet" x="15" y="-320"/>
<text text-anchor="start" x="30" y="-311.2" font-family="Helvetica,sans-Serif" font-size="11.00">c_project_id</text>
<polygon fill="none" stroke="black" points="207,-303 207,-325 316,-325 316,-303 207,-303"/>
<text text-anchor="start" x="210" y="-311.2" font-family="Helvetica,sans-Serif" font-size="11.00">numeric[10]</text>
<polygon fill="none" stroke="black" points="10,-281 10,-303 207,-303 207,-281 10,-281"/>
<image xlink:href="../../images/foreignKeys.png" width="11px" height="12px" preserveAspectRatio="xMinYMin meet" x="15" y="-298"/>
<text text-anchor="start" x="30" y="-289.2" font-family="Helvetica,sans-Serif" font-size="11.00">c_activity_id</text>
<polygon fill="none" stroke="black" points="207,-281 207,-303 316,-303 316,-281 207,-281"/>
<text text-anchor="start" x="210" y="-289.2" font-family="Helvetica,sans-Serif" font-size="11.00">numeric[10]</text>
<polygon fill="none" stroke="black" points="10,-259 10,-281 207,-281 207,-259 10,-259"/>
<text text-anchor="start" x="30" y="-267.2" font-family="Helvetica,sans-Serif" font-size="11.00">bomtype</text>
<polygon fill="none" stroke="black" points="207,-259 207,-281 316,-281 316,-259 207,-259"/>
<text text-anchor="start" x="210" y="-267.2" font-family="Helvetica,sans-Serif" font-size="11.00">bpchar[1]</text>
<polygon fill="none" stroke="black" points="10,-237 10,-259 207,-259 207,-237 10,-237"/>
<text text-anchor="start" x="30" y="-245.2" font-family="Helvetica,sans-Serif" font-size="11.00">bomuse</text>
<polygon fill="none" stroke="black" points="207,-237 207,-259 316,-259 316,-237 207,-237"/>
<text text-anchor="start" x="210" y="-245.2" font-family="Helvetica,sans-Serif" font-size="11.00">bpchar[1]</text>
<polygon fill="none" stroke="black" points="10,-215 10,-237 207,-237 207,-215 10,-215"/>
<text text-anchor="start" x="30" y="-223.2" font-family="Helvetica,sans-Serif" font-size="11.00">description</text>
<polygon fill="none" stroke="black" points="207,-215 207,-237 316,-237 316,-215 207,-215"/>
<text text-anchor="start" x="210" y="-223.2" font-family="Helvetica,sans-Serif" font-size="11.00">varchar[255]</text>
<polygon fill="none" stroke="black" points="10,-193 10,-215 207,-215 207,-193 10,-193"/>
<text text-anchor="start" x="30" y="-201.2" font-family="Helvetica,sans-Serif" font-size="11.00">help</text>
<polygon fill="none" stroke="black" points="207,-193 207,-215 316,-215 316,-193 207,-193"/>
<text text-anchor="start" x="210" y="-201.2" font-family="Helvetica,sans-Serif" font-size="11.00">varchar[2000]</text>
<polygon fill="none" stroke="black" points="10,-171 10,-193 207,-193 207,-171 10,-171"/>
<image xlink:href="../../images/foreignKeys.png" width="11px" height="12px" preserveAspectRatio="xMinYMin meet" x="15" y="-188"/>
<text text-anchor="start" x="30" y="-179.2" font-family="Helvetica,sans-Serif" font-size="11.00">m_attributesetinstance_id</text>
<polygon fill="none" stroke="black" points="207,-171 207,-193 316,-193 316,-171 207,-171"/>
<text text-anchor="start" x="210" y="-179.2" font-family="Helvetica,sans-Serif" font-size="11.00">numeric[10]</text>
<polygon fill="none" stroke="black" points="10,-149 10,-171 207,-171 207,-149 10,-149"/>
<image xlink:href="../../images/foreignKeys.png" width="11px" height="12px" preserveAspectRatio="xMinYMin meet" x="15" y="-166"/>
<text text-anchor="start" x="30" y="-157.2" font-family="Helvetica,sans-Serif" font-size="11.00">m_product_id</text>
<polygon fill="none" stroke="black" points="207,-149 207,-171 316,-171 316,-149 207,-149"/>
<text text-anchor="start" x="210" y="-157.2" font-family="Helvetica,sans-Serif" font-size="11.00">numeric[10]</text>
<polygon fill="none" stroke="black" points="10,-127 10,-149 207,-149 207,-127 10,-127"/>
<text text-anchor="start" x="30" y="-135.2" font-family="Helvetica,sans-Serif" font-size="11.00">name</text>
<polygon fill="none" stroke="black" points="207,-127 207,-149 316,-149 316,-127 207,-127"/>
<text text-anchor="start" x="210" y="-135.2" font-family="Helvetica,sans-Serif" font-size="11.00">varchar[60]</text>
<polygon fill="none" stroke="black" points="10,-105 10,-127 207,-127 207,-105 10,-105"/>
<text text-anchor="start" x="30" y="-113.2" font-family="Helvetica,sans-Serif" font-size="11.00">revision</text>
<polygon fill="none" stroke="black" points="207,-105 207,-127 316,-127 316,-105 207,-105"/>
<text text-anchor="start" x="210" y="-113.2" font-family="Helvetica,sans-Serif" font-size="11.00">varchar[10]</text>
<polygon fill="none" stroke="black" points="10,-83 10,-105 207,-105 207,-83 10,-83"/>
<text text-anchor="start" x="30" y="-91.2" font-family="Helvetica,sans-Serif" font-size="11.00">validfrom</text>
<polygon fill="none" stroke="black" points="207,-83 207,-105 316,-105 316,-83 207,-83"/>
<text text-anchor="start" x="210" y="-91.2" font-family="Helvetica,sans-Serif" font-size="11.00">timestamp[29,6]</text>
<polygon fill="none" stroke="black" points="10,-61 10,-83 207,-83 207,-61 10,-61"/>
<text text-anchor="start" x="30" y="-69.2" font-family="Helvetica,sans-Serif" font-size="11.00">validto</text>
<polygon fill="none" stroke="black" points="207,-61 207,-83 316,-83 316,-61 207,-61"/>
<text text-anchor="start" x="210" y="-69.2" font-family="Helvetica,sans-Serif" font-size="11.00">timestamp[29,6]</text>
<polygon fill="none" stroke="black" points="10,-39 10,-61 207,-61 207,-39 10,-39"/>
<text text-anchor="start" x="30" y="-47.2" font-family="Helvetica,sans-Serif" font-size="11.00">logo_id</text>
<polygon fill="none" stroke="black" points="207,-39 207,-61 316,-61 316,-39 207,-39"/>
<text text-anchor="start" x="210" y="-47.2" font-family="Helvetica,sans-Serif" font-size="11.00">numeric[10]</text>
<polygon fill="none" stroke="black" stroke-width="2" points="9,-38 9,-1448 317,-1448 317,-38 9,-38"/>
</a>
</g>
</g>
</g>
</svg>
