<?xml version="1.0" encoding="UTF-8" standalone="no"?>
<!DOCTYPE svg PUBLIC "-//W3C//DTD SVG 1.1//EN"
 "http://www.w3.org/Graphics/SVG/1.1/DTD/svg11.dtd">
<!-- Generated by graphviz version 2.43.0 (0)
 -->
<!-- Title: oneDegreeRelationshipsDiagram Pages: 1 -->
<svg width="563pt" height="472pt"
 viewBox="0.00 0.00 563.00 472.00" xmlns="http://www.w3.org/2000/svg" xmlns:xlink="http://www.w3.org/1999/xlink">
<g id="graph0" class="graph" transform="scale(1 1) rotate(0) translate(4 468)">
<title>oneDegreeRelationshipsDiagram</title>
<polygon fill="#ffffff" stroke="transparent" points="-4,4 -4,-468 559,-468 559,4 -4,4"/>
<text text-anchor="middle" x="71.5" y="-7.2" font-family="Helvetica,sans-Serif" font-size="11.00">Generated by SchemaSpy</text>
<!-- pp_product_bomline_trl -->
<g id="node1" class="node">
<title>pp_product_bomline_trl</title>
<g id="a_node1"><a xlink:href="../../tables/pp_product_bomline_trl.html" xlink:title="pp_product_bomline_trl" target="_top">
<polygon fill="#ffffff" stroke="transparent" points="258,-92 258,-422 547,-422 547,-92 258,-92"/>
<polygon fill="#f5f5f5" stroke="transparent" points="260.5,-398 260.5,-420 545.5,-420 545.5,-398 260.5,-398"/>
<polygon fill="none" stroke="black" points="260.5,-398 260.5,-420 545.5,-420 545.5,-398 260.5,-398"/>
<text text-anchor="start" x="265.5" y="-407.2" font-family="Helvetica,sans-Serif" font-weight="bold" font-size="11.00">pp_product_bomline_trl</text>
<text text-anchor="start" x="510.5" y="-406.2" font-family="Helvetica,sans-Serif" font-size="11.00">[table]</text>
<polygon fill="none" stroke="black" points="260.5,-376 260.5,-398 462.5,-398 462.5,-376 260.5,-376"/>
<text text-anchor="start" x="280.5" y="-384.2" font-family="Helvetica,sans-Serif" font-size="11.00">ad_client_id</text>
<polygon fill="none" stroke="black" points="462.5,-376 462.5,-398 545.5,-398 545.5,-376 462.5,-376"/>
<text text-anchor="start" x="465.5" y="-384.2" font-family="Helvetica,sans-Serif" font-size="11.00">numeric[10]</text>
<polygon fill="none" stroke="black" points="260.5,-354 260.5,-376 462.5,-376 462.5,-354 260.5,-354"/>
<image xlink:href="../../images/primaryKeys.png" width="11px" height="12px" preserveAspectRatio="xMinYMin meet" x="265.5" y="-371"/>
<text text-anchor="start" x="280.5" y="-362.2" font-family="Helvetica,sans-Serif" font-size="11.00">ad_language</text>
<polygon fill="none" stroke="black" points="462.5,-354 462.5,-376 545.5,-376 545.5,-354 462.5,-354"/>
<text text-anchor="start" x="465.5" y="-362.2" font-family="Helvetica,sans-Serif" font-size="11.00">varchar[6]</text>
<polygon fill="none" stroke="black" points="260.5,-332 260.5,-354 462.5,-354 462.5,-332 260.5,-332"/>
<text text-anchor="start" x="280.5" y="-340.2" font-family="Helvetica,sans-Serif" font-size="11.00">ad_org_id</text>
<polygon fill="none" stroke="black" points="462.5,-332 462.5,-354 545.5,-354 545.5,-332 462.5,-332"/>
<text text-anchor="start" x="465.5" y="-340.2" font-family="Helvetica,sans-Serif" font-size="11.00">numeric[10]</text>
<polygon fill="none" stroke="black" points="260.5,-310 260.5,-332 462.5,-332 462.5,-310 260.5,-310"/>
<text text-anchor="start" x="280.5" y="-318.2" font-family="Helvetica,sans-Serif" font-size="11.00">created</text>
<polygon fill="none" stroke="black" points="462.5,-310 462.5,-332 545.5,-332 545.5,-310 462.5,-310"/>
<text text-anchor="start" x="465.5" y="-318.2" font-family="Helvetica,sans-Serif" font-size="11.00">timestamp[29,6]</text>
<polygon fill="none" stroke="black" points="260.5,-288 260.5,-310 462.5,-310 462.5,-288 260.5,-288"/>
<text text-anchor="start" x="280.5" y="-296.2" font-family="Helvetica,sans-Serif" font-size="11.00">createdby</text>
<polygon fill="none" stroke="black" points="462.5,-288 462.5,-310 545.5,-310 545.5,-288 462.5,-288"/>
<text text-anchor="start" x="465.5" y="-296.2" font-family="Helvetica,sans-Serif" font-size="11.00">numeric[10]</text>
<polygon fill="none" stroke="black" points="260.5,-266 260.5,-288 462.5,-288 462.5,-266 260.5,-266"/>
<text text-anchor="start" x="280.5" y="-274.2" font-family="Helvetica,sans-Serif" font-size="11.00">description</text>
<polygon fill="none" stroke="black" points="462.5,-266 462.5,-288 545.5,-288 545.5,-266 462.5,-266"/>
<text text-anchor="start" x="465.5" y="-274.2" font-family="Helvetica,sans-Serif" font-size="11.00">varchar[255]</text>
<polygon fill="none" stroke="black" points="260.5,-244 260.5,-266 462.5,-266 462.5,-244 260.5,-244"/>
<text text-anchor="start" x="280.5" y="-252.2" font-family="Helvetica,sans-Serif" font-size="11.00">help</text>
<polygon fill="none" stroke="black" points="462.5,-244 462.5,-266 545.5,-266 545.5,-244 462.5,-244"/>
<text text-anchor="start" x="465.5" y="-252.2" font-family="Helvetica,sans-Serif" font-size="11.00">varchar[2000]</text>
<polygon fill="none" stroke="black" points="260.5,-222 260.5,-244 462.5,-244 462.5,-222 260.5,-222"/>
<text text-anchor="start" x="280.5" y="-230.2" font-family="Helvetica,sans-Serif" font-size="11.00">isactive</text>
<polygon fill="none" stroke="black" points="462.5,-222 462.5,-244 545.5,-244 545.5,-222 462.5,-222"/>
<text text-anchor="start" x="465.5" y="-230.2" font-family="Helvetica,sans-Serif" font-size="11.00">bpchar[1]</text>
<polygon fill="none" stroke="black" points="260.5,-200 260.5,-222 462.5,-222 462.5,-200 260.5,-200"/>
<text text-anchor="start" x="280.5" y="-208.2" font-family="Helvetica,sans-Serif" font-size="11.00">istranslated</text>
<polygon fill="none" stroke="black" points="462.5,-200 462.5,-222 545.5,-222 545.5,-200 462.5,-200"/>
<text text-anchor="start" x="465.5" y="-208.2" font-family="Helvetica,sans-Serif" font-size="11.00">bpchar[1]</text>
<polygon fill="none" stroke="black" points="260.5,-178 260.5,-200 462.5,-200 462.5,-178 260.5,-178"/>
<image xlink:href="../../images/primaryKeys.png" width="11px" height="12px" preserveAspectRatio="xMinYMin meet" x="265.5" y="-195"/>
<text text-anchor="start" x="280.5" y="-186.2" font-family="Helvetica,sans-Serif" font-size="11.00">pp_product_bomline_id</text>
<polygon fill="none" stroke="black" points="462.5,-178 462.5,-200 545.5,-200 545.5,-178 462.5,-178"/>
<text text-anchor="start" x="465.5" y="-186.2" font-family="Helvetica,sans-Serif" font-size="11.00">numeric[10]</text>
<polygon fill="none" stroke="black" points="260.5,-156 260.5,-178 462.5,-178 462.5,-156 260.5,-156"/>
<text text-anchor="start" x="280.5" y="-164.2" font-family="Helvetica,sans-Serif" font-size="11.00">updated</text>
<polygon fill="none" stroke="black" points="462.5,-156 462.5,-178 545.5,-178 545.5,-156 462.5,-156"/>
<text text-anchor="start" x="465.5" y="-164.2" font-family="Helvetica,sans-Serif" font-size="11.00">timestamp[29,6]</text>
<polygon fill="none" stroke="black" points="260.5,-134 260.5,-156 462.5,-156 462.5,-134 260.5,-134"/>
<text text-anchor="start" x="280.5" y="-142.2" font-family="Helvetica,sans-Serif" font-size="11.00">updatedby</text>
<polygon fill="none" stroke="black" points="462.5,-134 462.5,-156 545.5,-156 545.5,-134 462.5,-134"/>
<text text-anchor="start" x="465.5" y="-142.2" font-family="Helvetica,sans-Serif" font-size="11.00">numeric[10]</text>
<polygon fill="#ffffff" stroke="transparent" points="260.5,-112 260.5,-134 462.5,-134 462.5,-112 260.5,-112"/>
<polygon fill="none" stroke="black" points="260.5,-112 260.5,-134 462.5,-134 462.5,-112 260.5,-112"/>
<text text-anchor="start" x="280.5" y="-120.2" font-family="Helvetica,sans-Serif" font-size="11.00">pp_product_bomline_trl_uu</text>
<polygon fill="none" stroke="black" points="462.5,-112 462.5,-134 545.5,-134 545.5,-112 462.5,-112"/>
<text text-anchor="start" x="465.5" y="-120.2" font-family="Helvetica,sans-Serif" font-size="11.00">varchar[36]</text>
<polygon fill="#ffffff" stroke="transparent" points="260.5,-94 260.5,-112 352.5,-112 352.5,-94 260.5,-94"/>
<polygon fill="none" stroke="black" points="260.5,-94 260.5,-112 352.5,-112 352.5,-94 260.5,-94"/>
<text text-anchor="start" x="263.5" y="-100.2" font-family="Helvetica,sans-Serif" font-size="11.00">&lt; 2</text>
<polygon fill="#ffffff" stroke="transparent" points="352.5,-94 352.5,-112 462.5,-112 462.5,-94 352.5,-94"/>
<polygon fill="none" stroke="black" points="352.5,-94 352.5,-112 462.5,-112 462.5,-94 352.5,-94"/>
<text text-anchor="start" x="426.5" y="-100.2" font-family="Helvetica,sans-Serif" font-size="11.00">0 rows</text>
<polygon fill="#ffffff" stroke="transparent" points="462.5,-94 462.5,-112 545.5,-112 545.5,-94 462.5,-94"/>
<polygon fill="none" stroke="black" points="462.5,-94 462.5,-112 545.5,-112 545.5,-94 462.5,-94"/>
<text text-anchor="start" x="526.5" y="-100.2" font-family="Helvetica,sans-Serif" font-size="11.00">0 &gt;</text>
<polygon fill="none" stroke="black" stroke-width="2" points="259,-93 259,-421 546,-421 546,-93 259,-93"/>
</a>
</g>
</g>
<!-- ad_language -->
<g id="node2" class="node">
<title>ad_language</title>
<g id="a_node2"><a xlink:href="../../tables/ad_language.html" xlink:title="ad_language" target="_top">
<polygon fill="#ffffff" stroke="transparent" points="37,-270 37,-460 180,-460 180,-270 37,-270"/>
<polygon fill="#f5f5f5" stroke="transparent" points="37.5,-438 37.5,-460 180.5,-460 180.5,-438 37.5,-438"/>
<polygon fill="none" stroke="black" points="37.5,-438 37.5,-460 180.5,-460 180.5,-438 37.5,-438"/>
<text text-anchor="start" x="42.5" y="-447.2" font-family="Helvetica,sans-Serif" font-weight="bold" font-size="11.00">ad_language</text>
<text text-anchor="start" x="145.5" y="-446.2" font-family="Helvetica,sans-Serif" font-size="11.00">[table]</text>
<polygon fill="none" stroke="black" points="37.5,-416 37.5,-438 180.5,-438 180.5,-416 37.5,-416"/>
<image xlink:href="../../images/primaryKeys.png" width="11px" height="12px" preserveAspectRatio="xMinYMin meet" x="42.5" y="-433"/>
<text text-anchor="start" x="57.5" y="-424.2" font-family="Helvetica,sans-Serif" font-size="11.00">ad_language</text>
<polygon fill="none" stroke="black" points="37.5,-394 37.5,-416 180.5,-416 180.5,-394 37.5,-394"/>
<image xlink:href="../../images/foreignKeys.png" width="11px" height="12px" preserveAspectRatio="xMinYMin meet" x="42.5" y="-411"/>
<text text-anchor="start" x="57.5" y="-402.2" font-family="Helvetica,sans-Serif" font-size="11.00">ad_client_id</text>
<polygon fill="none" stroke="black" points="37.5,-372 37.5,-394 180.5,-394 180.5,-372 37.5,-372"/>
<image xlink:href="../../images/foreignKeys.png" width="11px" height="12px" preserveAspectRatio="xMinYMin meet" x="42.5" y="-389"/>
<text text-anchor="start" x="57.5" y="-380.2" font-family="Helvetica,sans-Serif" font-size="11.00">ad_org_id</text>
<polygon fill="#ffffff" stroke="transparent" points="37.5,-350 37.5,-372 180.5,-372 180.5,-350 37.5,-350"/>
<polygon fill="none" stroke="black" points="37.5,-350 37.5,-372 180.5,-372 180.5,-350 37.5,-350"/>
<text text-anchor="start" x="57.5" y="-358.2" font-family="Helvetica,sans-Serif" font-size="11.00">ad_language_id</text>
<polygon fill="#ffffff" stroke="transparent" points="37.5,-328 37.5,-350 180.5,-350 180.5,-328 37.5,-328"/>
<polygon fill="none" stroke="black" points="37.5,-328 37.5,-350 180.5,-350 180.5,-328 37.5,-328"/>
<text text-anchor="start" x="57.5" y="-336.2" font-family="Helvetica,sans-Serif" font-size="11.00">ad_language_uu</text>
<polygon fill="none" stroke="black" points="37.5,-306 37.5,-328 180.5,-328 180.5,-306 37.5,-306"/>
<image xlink:href="../../images/foreignKeys.png" width="11px" height="12px" preserveAspectRatio="xMinYMin meet" x="42.5" y="-323"/>
<text text-anchor="start" x="57.5" y="-314.2" font-family="Helvetica,sans-Serif" font-size="11.00">ad_printpaper_id</text>
<polygon fill="none" stroke="black" points="37.5,-288 37.5,-306 180.5,-306 180.5,-288 37.5,-288"/>
<text text-anchor="start" x="40.5" y="-294.2" font-family="Helvetica,sans-Serif" font-size="11.00">...</text>
<polygon fill="#ffffff" stroke="transparent" points="37.5,-270 37.5,-288 80.5,-288 80.5,-270 37.5,-270"/>
<polygon fill="none" stroke="black" points="37.5,-270 37.5,-288 80.5,-288 80.5,-270 37.5,-270"/>
<text text-anchor="start" x="40.5" y="-276.2" font-family="Helvetica,sans-Serif" font-size="11.00">&lt; 3</text>
<polygon fill="#ffffff" stroke="transparent" points="80.5,-270 80.5,-288 141.5,-288 141.5,-270 80.5,-270"/>
<polygon fill="none" stroke="black" points="80.5,-270 80.5,-288 141.5,-288 141.5,-270 80.5,-270"/>
<text text-anchor="start" x="93.5" y="-276.2" font-family="Helvetica,sans-Serif" font-size="11.00">109 rows</text>
<polygon fill="#ffffff" stroke="transparent" points="141.5,-270 141.5,-288 180.5,-288 180.5,-270 141.5,-270"/>
<polygon fill="none" stroke="black" points="141.5,-270 141.5,-288 180.5,-288 180.5,-270 141.5,-270"/>
<text text-anchor="start" x="155.5" y="-276.2" font-family="Helvetica,sans-Serif" font-size="11.00">86 &gt;</text>
</a>
</g>
</g>
<!-- pp_product_bomline_trl&#45;&gt;ad_language -->
<g id="edge1" class="edge">
<title>pp_product_bomline_trl:w&#45;&gt;ad_language:e</title>
<path fill="none" stroke="black" d="M245.25,-367.66C217,-379.53 220.25,-427 181.5,-427"/>
<polygon fill="black" stroke="black" points="251.64,-366.47 260.16,-368.54 255.57,-365.74 259.5,-365 259.5,-365 259.5,-365 255.57,-365.74 258.84,-361.46 251.64,-366.47 251.64,-366.47"/>
<ellipse fill="none" stroke="black" cx="248.49" cy="-367.06" rx="3.2" ry="3.2"/>
</g>
<!-- pp_product_bomline -->
<g id="node3" class="node">
<title>pp_product_bomline</title>
<g id="a_node3"><a xlink:href="../../tables/pp_product_bomline.html" xlink:title="pp_product_bomline" target="_top">
<polygon fill="#ffffff" stroke="transparent" points="8,-37 8,-249 209,-249 209,-37 8,-37"/>
<polygon fill="#f5f5f5" stroke="transparent" points="8.5,-227 8.5,-249 209.5,-249 209.5,-227 8.5,-227"/>
<polygon fill="none" stroke="black" points="8.5,-227 8.5,-249 209.5,-249 209.5,-227 8.5,-227"/>
<text text-anchor="start" x="13.5" y="-236.2" font-family="Helvetica,sans-Serif" font-weight="bold" font-size="11.00">pp_product_bomline</text>
<text text-anchor="start" x="174.5" y="-235.2" font-family="Helvetica,sans-Serif" font-size="11.00">[table]</text>
<polygon fill="none" stroke="black" points="8.5,-205 8.5,-227 209.5,-227 209.5,-205 8.5,-205"/>
<image xlink:href="../../images/foreignKeys.png" width="11px" height="12px" preserveAspectRatio="xMinYMin meet" x="13.5" y="-222"/>
<text text-anchor="start" x="28.5" y="-213.2" font-family="Helvetica,sans-Serif" font-size="11.00">c_uom_id</text>
<polygon fill="none" stroke="black" points="8.5,-183 8.5,-205 209.5,-205 209.5,-183 8.5,-183"/>
<image xlink:href="../../images/foreignKeys.png" width="11px" height="12px" preserveAspectRatio="xMinYMin meet" x="13.5" y="-200"/>
<text text-anchor="start" x="28.5" y="-191.2" font-family="Helvetica,sans-Serif" font-size="11.00">m_attributesetinstance_id</text>
<polygon fill="none" stroke="black" points="8.5,-161 8.5,-183 209.5,-183 209.5,-161 8.5,-161"/>
<image xlink:href="../../images/foreignKeys.png" width="11px" height="12px" preserveAspectRatio="xMinYMin meet" x="13.5" y="-178"/>
<text text-anchor="start" x="28.5" y="-169.2" font-family="Helvetica,sans-Serif" font-size="11.00">m_changenotice_id</text>
<polygon fill="none" stroke="black" points="8.5,-139 8.5,-161 209.5,-161 209.5,-139 8.5,-139"/>
<image xlink:href="../../images/foreignKeys.png" width="11px" height="12px" preserveAspectRatio="xMinYMin meet" x="13.5" y="-156"/>
<text text-anchor="start" x="28.5" y="-147.2" font-family="Helvetica,sans-Serif" font-size="11.00">m_product_id</text>
<polygon fill="none" stroke="black" points="8.5,-117 8.5,-139 209.5,-139 209.5,-117 8.5,-117"/>
<image xlink:href="../../images/primaryKeys.png" width="11px" height="12px" preserveAspectRatio="xMinYMin meet" x="13.5" y="-134"/>
<text text-anchor="start" x="28.5" y="-125.2" font-family="Helvetica,sans-Serif" font-size="11.00">pp_product_bomline_id</text>
<polygon fill="none" stroke="black" points="8.5,-95 8.5,-117 209.5,-117 209.5,-95 8.5,-95"/>
<image xlink:href="../../images/foreignKeys.png" width="11px" height="12px" preserveAspectRatio="xMinYMin meet" x="13.5" y="-112"/>
<text text-anchor="start" x="28.5" y="-103.2" font-family="Helvetica,sans-Serif" font-size="11.00">pp_product_bom_id</text>
<polygon fill="#ffffff" stroke="transparent" points="8.5,-73 8.5,-95 209.5,-95 209.5,-73 8.5,-73"/>
<polygon fill="none" stroke="black" points="8.5,-73 8.5,-95 209.5,-95 209.5,-73 8.5,-73"/>
<text text-anchor="start" x="28.5" y="-81.2" font-family="Helvetica,sans-Serif" font-size="11.00">pp_product_bomline_uu</text>
<polygon fill="none" stroke="black" points="8.5,-55 8.5,-73 209.5,-73 209.5,-55 8.5,-55"/>
<text text-anchor="start" x="11.5" y="-61.2" font-family="Helvetica,sans-Serif" font-size="11.00">...</text>
<polygon fill="#ffffff" stroke="transparent" points="8.5,-37 8.5,-55 89.5,-55 89.5,-37 8.5,-37"/>
<polygon fill="none" stroke="black" points="8.5,-37 8.5,-55 89.5,-55 89.5,-37 8.5,-37"/>
<text text-anchor="start" x="11.5" y="-43.2" font-family="Helvetica,sans-Serif" font-size="11.00">&lt; 5</text>
<polygon fill="#ffffff" stroke="transparent" points="89.5,-37 89.5,-55 157.5,-55 157.5,-37 89.5,-37"/>
<polygon fill="none" stroke="black" points="89.5,-37 89.5,-55 157.5,-55 157.5,-37 89.5,-37"/>
<text text-anchor="start" x="121.5" y="-43.2" font-family="Helvetica,sans-Serif" font-size="11.00">0 rows</text>
<polygon fill="#ffffff" stroke="transparent" points="157.5,-37 157.5,-55 209.5,-55 209.5,-37 157.5,-37"/>
<polygon fill="none" stroke="black" points="157.5,-37 157.5,-55 209.5,-55 209.5,-37 157.5,-37"/>
<text text-anchor="start" x="190.5" y="-43.2" font-family="Helvetica,sans-Serif" font-size="11.00">1 &gt;</text>
</a>
</g>
</g>
<!-- pp_product_bomline_trl&#45;&gt;pp_product_bomline -->
<g id="edge2" class="edge">
<title>pp_product_bomline_trl:w&#45;&gt;pp_product_bomline:e</title>
<path fill="none" stroke="black" d="M245.91,-184.21C230.15,-169.83 239.3,-128 210.5,-128"/>
<polygon fill="black" stroke="black" points="251.95,-186.34 258.3,-192.4 255.73,-187.67 259.5,-189 259.5,-189 259.5,-189 255.73,-187.67 260.7,-185.6 251.95,-186.34 251.95,-186.34"/>
<ellipse fill="none" stroke="black" cx="248.94" cy="-185.28" rx="3.2" ry="3.2"/>
</g>
</g>
</svg>
