<?xml version="1.0" encoding="UTF-8" standalone="no"?>
<!DOCTYPE svg PUBLIC "-//W3C//DTD SVG 1.1//EN"
 "http://www.w3.org/Graphics/SVG/1.1/DTD/svg11.dtd">
<!-- Generated by graphviz version 2.43.0 (0)
 -->
<!-- Title: oneDegreeRelationshipsDiagram Pages: 1 -->
<svg width="706pt" height="725pt"
 viewBox="0.00 0.00 706.00 725.00" xmlns="http://www.w3.org/2000/svg" xmlns:xlink="http://www.w3.org/1999/xlink">
<g id="graph0" class="graph" transform="scale(1 1) rotate(0) translate(4 721)">
<title>oneDegreeRelationshipsDiagram</title>
<polygon fill="#ffffff" stroke="transparent" points="-4,4 -4,-721 702,-721 702,4 -4,4"/>
<text text-anchor="middle" x="71.5" y="-7.2" font-family="Helvetica,sans-Serif" font-size="11.00">Generated by SchemaSpy</text>
<!-- ad_issue -->
<g id="node1" class="node">
<title>ad_issue</title>
<g id="a_node1"><a xlink:href="../../tables/ad_issue.html" xlink:title="ad_issue" target="_top">
<polygon fill="#ffffff" stroke="transparent" points="529,-413 529,-713 690,-713 690,-413 529,-413"/>
<polygon fill="#f5f5f5" stroke="transparent" points="529.5,-691 529.5,-713 690.5,-713 690.5,-691 529.5,-691"/>
<polygon fill="none" stroke="black" points="529.5,-691 529.5,-713 690.5,-713 690.5,-691 529.5,-691"/>
<text text-anchor="start" x="534.5" y="-700.2" font-family="Helvetica,sans-Serif" font-weight="bold" font-size="11.00">ad_issue</text>
<text text-anchor="start" x="655.5" y="-699.2" font-family="Helvetica,sans-Serif" font-size="11.00">[table]</text>
<polygon fill="none" stroke="black" points="529.5,-669 529.5,-691 690.5,-691 690.5,-669 529.5,-669"/>
<image xlink:href="../../images/primaryKeys.png" width="11px" height="12px" preserveAspectRatio="xMinYMin meet" x="534.5" y="-686"/>
<text text-anchor="start" x="549.5" y="-677.2" font-family="Helvetica,sans-Serif" font-size="11.00">ad_issue_id</text>
<polygon fill="none" stroke="black" points="529.5,-647 529.5,-669 690.5,-669 690.5,-647 529.5,-647"/>
<image xlink:href="../../images/foreignKeys.png" width="11px" height="12px" preserveAspectRatio="xMinYMin meet" x="534.5" y="-664"/>
<text text-anchor="start" x="549.5" y="-655.2" font-family="Helvetica,sans-Serif" font-size="11.00">a_asset_id</text>
<polygon fill="none" stroke="black" points="529.5,-625 529.5,-647 690.5,-647 690.5,-625 529.5,-625"/>
<image xlink:href="../../images/foreignKeys.png" width="11px" height="12px" preserveAspectRatio="xMinYMin meet" x="534.5" y="-642"/>
<text text-anchor="start" x="549.5" y="-633.2" font-family="Helvetica,sans-Serif" font-size="11.00">r_request_id</text>
<polygon fill="none" stroke="black" points="529.5,-603 529.5,-625 690.5,-625 690.5,-603 529.5,-603"/>
<image xlink:href="../../images/foreignKeys.png" width="11px" height="12px" preserveAspectRatio="xMinYMin meet" x="534.5" y="-620"/>
<text text-anchor="start" x="549.5" y="-611.2" font-family="Helvetica,sans-Serif" font-size="11.00">r_issueknown_id</text>
<polygon fill="none" stroke="black" points="529.5,-581 529.5,-603 690.5,-603 690.5,-581 529.5,-581"/>
<image xlink:href="../../images/foreignKeys.png" width="11px" height="12px" preserveAspectRatio="xMinYMin meet" x="534.5" y="-598"/>
<text text-anchor="start" x="549.5" y="-589.2" font-family="Helvetica,sans-Serif" font-size="11.00">r_issueproject_id</text>
<polygon fill="none" stroke="black" points="529.5,-559 529.5,-581 690.5,-581 690.5,-559 529.5,-559"/>
<image xlink:href="../../images/foreignKeys.png" width="11px" height="12px" preserveAspectRatio="xMinYMin meet" x="534.5" y="-576"/>
<text text-anchor="start" x="549.5" y="-567.2" font-family="Helvetica,sans-Serif" font-size="11.00">r_issueuser_id</text>
<polygon fill="none" stroke="black" points="529.5,-537 529.5,-559 690.5,-559 690.5,-537 529.5,-537"/>
<image xlink:href="../../images/foreignKeys.png" width="11px" height="12px" preserveAspectRatio="xMinYMin meet" x="534.5" y="-554"/>
<text text-anchor="start" x="549.5" y="-545.2" font-family="Helvetica,sans-Serif" font-size="11.00">r_issuesystem_id</text>
<polygon fill="none" stroke="black" points="529.5,-515 529.5,-537 690.5,-537 690.5,-515 529.5,-515"/>
<image xlink:href="../../images/foreignKeys.png" width="11px" height="12px" preserveAspectRatio="xMinYMin meet" x="534.5" y="-532"/>
<text text-anchor="start" x="549.5" y="-523.2" font-family="Helvetica,sans-Serif" font-size="11.00">ad_window_id</text>
<polygon fill="none" stroke="black" points="529.5,-493 529.5,-515 690.5,-515 690.5,-493 529.5,-493"/>
<image xlink:href="../../images/foreignKeys.png" width="11px" height="12px" preserveAspectRatio="xMinYMin meet" x="534.5" y="-510"/>
<text text-anchor="start" x="549.5" y="-501.2" font-family="Helvetica,sans-Serif" font-size="11.00">ad_process_id</text>
<polygon fill="none" stroke="black" points="529.5,-471 529.5,-493 690.5,-493 690.5,-471 529.5,-471"/>
<image xlink:href="../../images/foreignKeys.png" width="11px" height="12px" preserveAspectRatio="xMinYMin meet" x="534.5" y="-488"/>
<text text-anchor="start" x="549.5" y="-479.2" font-family="Helvetica,sans-Serif" font-size="11.00">ad_form_id</text>
<polygon fill="#ffffff" stroke="transparent" points="529.5,-449 529.5,-471 690.5,-471 690.5,-449 529.5,-449"/>
<polygon fill="none" stroke="black" points="529.5,-449 529.5,-471 690.5,-471 690.5,-449 529.5,-449"/>
<text text-anchor="start" x="549.5" y="-457.2" font-family="Helvetica,sans-Serif" font-size="11.00">ad_issue_uu</text>
<polygon fill="none" stroke="black" points="529.5,-431 529.5,-449 690.5,-449 690.5,-431 529.5,-431"/>
<text text-anchor="start" x="532.5" y="-437.2" font-family="Helvetica,sans-Serif" font-size="11.00">...</text>
<polygon fill="#ffffff" stroke="transparent" points="529.5,-413 529.5,-431 594.5,-431 594.5,-413 529.5,-413"/>
<polygon fill="none" stroke="black" points="529.5,-413 529.5,-431 594.5,-431 594.5,-413 529.5,-413"/>
<text text-anchor="start" x="532.5" y="-419.2" font-family="Helvetica,sans-Serif" font-size="11.00">&lt; 9</text>
<polygon fill="#ffffff" stroke="transparent" points="594.5,-413 594.5,-431 655.5,-431 655.5,-413 594.5,-413"/>
<polygon fill="none" stroke="black" points="594.5,-413 594.5,-431 655.5,-431 655.5,-413 594.5,-413"/>
<text text-anchor="start" x="619.5" y="-419.2" font-family="Helvetica,sans-Serif" font-size="11.00">0 rows</text>
<polygon fill="#ffffff" stroke="transparent" points="655.5,-413 655.5,-431 690.5,-431 690.5,-413 655.5,-413"/>
<polygon fill="none" stroke="black" points="655.5,-413 655.5,-431 690.5,-431 690.5,-413 655.5,-413"/>
<text text-anchor="start" x="680.5" y="-419.2" font-family="Helvetica,sans-Serif" font-size="11.00"> &#160;</text>
</a>
</g>
</g>
<!-- a_asset -->
<g id="node2" class="node">
<title>a_asset</title>
<g id="a_node2"><a xlink:href="../../tables/a_asset.html" xlink:title="a_asset" target="_top">
<polygon fill="#ffffff" stroke="transparent" points="8,-37 8,-491 205,-491 205,-37 8,-37"/>
<polygon fill="#f5f5f5" stroke="transparent" points="8.5,-469 8.5,-491 205.5,-491 205.5,-469 8.5,-469"/>
<polygon fill="none" stroke="black" points="8.5,-469 8.5,-491 205.5,-491 205.5,-469 8.5,-469"/>
<text text-anchor="start" x="13.5" y="-478.2" font-family="Helvetica,sans-Serif" font-weight="bold" font-size="11.00">a_asset</text>
<text text-anchor="start" x="170.5" y="-477.2" font-family="Helvetica,sans-Serif" font-size="11.00">[table]</text>
<polygon fill="none" stroke="black" points="8.5,-447 8.5,-469 205.5,-469 205.5,-447 8.5,-447"/>
<image xlink:href="../../images/primaryKeys.png" width="11px" height="12px" preserveAspectRatio="xMinYMin meet" x="13.5" y="-464"/>
<text text-anchor="start" x="28.5" y="-455.2" font-family="Helvetica,sans-Serif" font-size="11.00">a_asset_id</text>
<polygon fill="none" stroke="black" points="8.5,-425 8.5,-447 205.5,-447 205.5,-425 8.5,-425"/>
<image xlink:href="../../images/foreignKeys.png" width="11px" height="12px" preserveAspectRatio="xMinYMin meet" x="13.5" y="-442"/>
<text text-anchor="start" x="28.5" y="-433.2" font-family="Helvetica,sans-Serif" font-size="11.00">a_asset_group_id</text>
<polygon fill="none" stroke="black" points="8.5,-403 8.5,-425 205.5,-425 205.5,-403 8.5,-403"/>
<image xlink:href="../../images/foreignKeys.png" width="11px" height="12px" preserveAspectRatio="xMinYMin meet" x="13.5" y="-420"/>
<text text-anchor="start" x="28.5" y="-411.2" font-family="Helvetica,sans-Serif" font-size="11.00">m_product_id</text>
<polygon fill="none" stroke="black" points="8.5,-381 8.5,-403 205.5,-403 205.5,-381 8.5,-381"/>
<image xlink:href="../../images/foreignKeys.png" width="11px" height="12px" preserveAspectRatio="xMinYMin meet" x="13.5" y="-398"/>
<text text-anchor="start" x="28.5" y="-389.2" font-family="Helvetica,sans-Serif" font-size="11.00">m_locator_id</text>
<polygon fill="none" stroke="black" points="8.5,-359 8.5,-381 205.5,-381 205.5,-359 8.5,-359"/>
<image xlink:href="../../images/foreignKeys.png" width="11px" height="12px" preserveAspectRatio="xMinYMin meet" x="13.5" y="-376"/>
<text text-anchor="start" x="28.5" y="-367.2" font-family="Helvetica,sans-Serif" font-size="11.00">c_bpartner_id</text>
<polygon fill="none" stroke="black" points="8.5,-337 8.5,-359 205.5,-359 205.5,-337 8.5,-337"/>
<image xlink:href="../../images/foreignKeys.png" width="11px" height="12px" preserveAspectRatio="xMinYMin meet" x="13.5" y="-354"/>
<text text-anchor="start" x="28.5" y="-345.2" font-family="Helvetica,sans-Serif" font-size="11.00">c_bpartner_location_id</text>
<polygon fill="none" stroke="black" points="8.5,-315 8.5,-337 205.5,-337 205.5,-315 8.5,-315"/>
<image xlink:href="../../images/foreignKeys.png" width="11px" height="12px" preserveAspectRatio="xMinYMin meet" x="13.5" y="-332"/>
<text text-anchor="start" x="28.5" y="-323.2" font-family="Helvetica,sans-Serif" font-size="11.00">c_location_id</text>
<polygon fill="none" stroke="black" points="8.5,-293 8.5,-315 205.5,-315 205.5,-293 8.5,-293"/>
<image xlink:href="../../images/foreignKeys.png" width="11px" height="12px" preserveAspectRatio="xMinYMin meet" x="13.5" y="-310"/>
<text text-anchor="start" x="28.5" y="-301.2" font-family="Helvetica,sans-Serif" font-size="11.00">ad_user_id</text>
<polygon fill="none" stroke="black" points="8.5,-271 8.5,-293 205.5,-293 205.5,-271 8.5,-271"/>
<image xlink:href="../../images/foreignKeys.png" width="11px" height="12px" preserveAspectRatio="xMinYMin meet" x="13.5" y="-288"/>
<text text-anchor="start" x="28.5" y="-279.2" font-family="Helvetica,sans-Serif" font-size="11.00">m_attributesetinstance_id</text>
<polygon fill="none" stroke="black" points="8.5,-249 8.5,-271 205.5,-271 205.5,-249 8.5,-249"/>
<image xlink:href="../../images/foreignKeys.png" width="11px" height="12px" preserveAspectRatio="xMinYMin meet" x="13.5" y="-266"/>
<text text-anchor="start" x="28.5" y="-257.2" font-family="Helvetica,sans-Serif" font-size="11.00">c_project_id</text>
<polygon fill="none" stroke="black" points="8.5,-227 8.5,-249 205.5,-249 205.5,-227 8.5,-227"/>
<image xlink:href="../../images/foreignKeys.png" width="11px" height="12px" preserveAspectRatio="xMinYMin meet" x="13.5" y="-244"/>
<text text-anchor="start" x="28.5" y="-235.2" font-family="Helvetica,sans-Serif" font-size="11.00">c_bpartnersr_id</text>
<polygon fill="none" stroke="black" points="8.5,-205 8.5,-227 205.5,-227 205.5,-205 8.5,-205"/>
<image xlink:href="../../images/foreignKeys.png" width="11px" height="12px" preserveAspectRatio="xMinYMin meet" x="13.5" y="-222"/>
<text text-anchor="start" x="28.5" y="-213.2" font-family="Helvetica,sans-Serif" font-size="11.00">m_inoutline_id</text>
<polygon fill="none" stroke="black" points="8.5,-183 8.5,-205 205.5,-205 205.5,-183 8.5,-183"/>
<image xlink:href="../../images/foreignKeys.png" width="11px" height="12px" preserveAspectRatio="xMinYMin meet" x="13.5" y="-200"/>
<text text-anchor="start" x="28.5" y="-191.2" font-family="Helvetica,sans-Serif" font-size="11.00">lease_bpartner_id</text>
<polygon fill="none" stroke="black" points="8.5,-161 8.5,-183 205.5,-183 205.5,-161 8.5,-161"/>
<image xlink:href="../../images/foreignKeys.png" width="11px" height="12px" preserveAspectRatio="xMinYMin meet" x="13.5" y="-178"/>
<text text-anchor="start" x="28.5" y="-169.2" font-family="Helvetica,sans-Serif" font-size="11.00">a_parent_asset_id</text>
<polygon fill="#ffffff" stroke="transparent" points="8.5,-139 8.5,-161 205.5,-161 205.5,-139 8.5,-139"/>
<polygon fill="none" stroke="black" points="8.5,-139 8.5,-161 205.5,-161 205.5,-139 8.5,-139"/>
<text text-anchor="start" x="28.5" y="-147.2" font-family="Helvetica,sans-Serif" font-size="11.00">a_asset_uu</text>
<polygon fill="none" stroke="black" points="8.5,-117 8.5,-139 205.5,-139 205.5,-117 8.5,-117"/>
<image xlink:href="../../images/foreignKeys.png" width="11px" height="12px" preserveAspectRatio="xMinYMin meet" x="13.5" y="-134"/>
<text text-anchor="start" x="28.5" y="-125.2" font-family="Helvetica,sans-Serif" font-size="11.00">a_asset_class_id</text>
<polygon fill="none" stroke="black" points="8.5,-95 8.5,-117 205.5,-117 205.5,-95 8.5,-95"/>
<image xlink:href="../../images/foreignKeys.png" width="11px" height="12px" preserveAspectRatio="xMinYMin meet" x="13.5" y="-112"/>
<text text-anchor="start" x="28.5" y="-103.2" font-family="Helvetica,sans-Serif" font-size="11.00">a_asset_type_id</text>
<polygon fill="none" stroke="black" points="8.5,-73 8.5,-95 205.5,-95 205.5,-73 8.5,-73"/>
<image xlink:href="../../images/foreignKeys.png" width="11px" height="12px" preserveAspectRatio="xMinYMin meet" x="13.5" y="-90"/>
<text text-anchor="start" x="28.5" y="-81.2" font-family="Helvetica,sans-Serif" font-size="11.00">c_activity_id</text>
<polygon fill="none" stroke="black" points="8.5,-55 8.5,-73 205.5,-73 205.5,-55 8.5,-55"/>
<text text-anchor="start" x="11.5" y="-61.2" font-family="Helvetica,sans-Serif" font-size="11.00">...</text>
<polygon fill="#ffffff" stroke="transparent" points="8.5,-37 8.5,-55 87.5,-55 87.5,-37 8.5,-37"/>
<polygon fill="none" stroke="black" points="8.5,-37 8.5,-55 87.5,-55 87.5,-37 8.5,-37"/>
<text text-anchor="start" x="11.5" y="-43.2" font-family="Helvetica,sans-Serif" font-size="11.00">&lt; 16</text>
<polygon fill="#ffffff" stroke="transparent" points="87.5,-37 87.5,-55 151.5,-55 151.5,-37 87.5,-37"/>
<polygon fill="none" stroke="black" points="87.5,-37 87.5,-55 151.5,-55 151.5,-37 87.5,-37"/>
<text text-anchor="start" x="115.5" y="-43.2" font-family="Helvetica,sans-Serif" font-size="11.00">0 rows</text>
<polygon fill="#ffffff" stroke="transparent" points="151.5,-37 151.5,-55 205.5,-55 205.5,-37 151.5,-37"/>
<polygon fill="none" stroke="black" points="151.5,-37 151.5,-55 205.5,-55 205.5,-37 151.5,-37"/>
<text text-anchor="start" x="180.5" y="-43.2" font-family="Helvetica,sans-Serif" font-size="11.00">48 &gt;</text>
</a>
</g>
</g>
<!-- ad_issue&#45;&gt;a_asset -->
<g id="edge1" class="edge">
<title>ad_issue:w&#45;&gt;a_asset:e</title>
<path fill="none" stroke="black" d="M514.08,-658.1C395.14,-659.69 336.15,-678.9 246,-594 200.18,-550.85 269.44,-458 206.5,-458"/>
<polygon fill="black" stroke="black" points="520.5,-658.05 528.52,-661.6 524.5,-658.03 528.5,-658 528.5,-658 528.5,-658 524.5,-658.03 528.48,-654.4 520.5,-658.05 520.5,-658.05"/>
<ellipse fill="none" stroke="black" cx="517.3" cy="-658.08" rx="3.2" ry="3.2"/>
</g>
<!-- r_issuesystem -->
<g id="node3" class="node">
<title>r_issuesystem</title>
<g id="a_node3"><a xlink:href="../../tables/r_issuesystem.html" xlink:title="r_issuesystem" target="_top">
<polygon fill="#ffffff" stroke="transparent" points="254,-231 254,-583 480,-583 480,-231 254,-231"/>
<polygon fill="#f5f5f5" stroke="transparent" points="256,-559 256,-581 478,-581 478,-559 256,-559"/>
<polygon fill="none" stroke="black" points="256,-559 256,-581 478,-581 478,-559 256,-559"/>
<text text-anchor="start" x="261" y="-568.2" font-family="Helvetica,sans-Serif" font-weight="bold" font-size="11.00">r_issuesystem</text>
<text text-anchor="start" x="443" y="-567.2" font-family="Helvetica,sans-Serif" font-size="11.00">[table]</text>
<polygon fill="none" stroke="black" points="256,-537 256,-559 395,-559 395,-537 256,-537"/>
<image xlink:href="../../images/primaryKeys.png" width="11px" height="12px" preserveAspectRatio="xMinYMin meet" x="261" y="-554"/>
<text text-anchor="start" x="276" y="-545.2" font-family="Helvetica,sans-Serif" font-size="11.00">r_issuesystem_id</text>
<polygon fill="none" stroke="black" points="395,-537 395,-559 478,-559 478,-537 395,-537"/>
<text text-anchor="start" x="398" y="-545.2" font-family="Helvetica,sans-Serif" font-size="11.00">numeric[10]</text>
<polygon fill="none" stroke="black" points="256,-515 256,-537 395,-537 395,-515 256,-515"/>
<text text-anchor="start" x="276" y="-523.2" font-family="Helvetica,sans-Serif" font-size="11.00">ad_client_id</text>
<polygon fill="none" stroke="black" points="395,-515 395,-537 478,-537 478,-515 395,-515"/>
<text text-anchor="start" x="398" y="-523.2" font-family="Helvetica,sans-Serif" font-size="11.00">numeric[10]</text>
<polygon fill="none" stroke="black" points="256,-493 256,-515 395,-515 395,-493 256,-493"/>
<text text-anchor="start" x="276" y="-501.2" font-family="Helvetica,sans-Serif" font-size="11.00">ad_org_id</text>
<polygon fill="none" stroke="black" points="395,-493 395,-515 478,-515 478,-493 395,-493"/>
<text text-anchor="start" x="398" y="-501.2" font-family="Helvetica,sans-Serif" font-size="11.00">numeric[10]</text>
<polygon fill="none" stroke="black" points="256,-471 256,-493 395,-493 395,-471 256,-471"/>
<text text-anchor="start" x="276" y="-479.2" font-family="Helvetica,sans-Serif" font-size="11.00">isactive</text>
<polygon fill="none" stroke="black" points="395,-471 395,-493 478,-493 478,-471 395,-471"/>
<text text-anchor="start" x="398" y="-479.2" font-family="Helvetica,sans-Serif" font-size="11.00">bpchar[1]</text>
<polygon fill="none" stroke="black" points="256,-449 256,-471 395,-471 395,-449 256,-449"/>
<text text-anchor="start" x="276" y="-457.2" font-family="Helvetica,sans-Serif" font-size="11.00">created</text>
<polygon fill="none" stroke="black" points="395,-449 395,-471 478,-471 478,-449 395,-449"/>
<text text-anchor="start" x="398" y="-457.2" font-family="Helvetica,sans-Serif" font-size="11.00">timestamp[29,6]</text>
<polygon fill="none" stroke="black" points="256,-427 256,-449 395,-449 395,-427 256,-427"/>
<text text-anchor="start" x="276" y="-435.2" font-family="Helvetica,sans-Serif" font-size="11.00">createdby</text>
<polygon fill="none" stroke="black" points="395,-427 395,-449 478,-449 478,-427 395,-427"/>
<text text-anchor="start" x="398" y="-435.2" font-family="Helvetica,sans-Serif" font-size="11.00">numeric[10]</text>
<polygon fill="none" stroke="black" points="256,-405 256,-427 395,-427 395,-405 256,-405"/>
<text text-anchor="start" x="276" y="-413.2" font-family="Helvetica,sans-Serif" font-size="11.00">updated</text>
<polygon fill="none" stroke="black" points="395,-405 395,-427 478,-427 478,-405 395,-405"/>
<text text-anchor="start" x="398" y="-413.2" font-family="Helvetica,sans-Serif" font-size="11.00">timestamp[29,6]</text>
<polygon fill="none" stroke="black" points="256,-383 256,-405 395,-405 395,-383 256,-383"/>
<text text-anchor="start" x="276" y="-391.2" font-family="Helvetica,sans-Serif" font-size="11.00">updatedby</text>
<polygon fill="none" stroke="black" points="395,-383 395,-405 478,-405 478,-383 395,-383"/>
<text text-anchor="start" x="398" y="-391.2" font-family="Helvetica,sans-Serif" font-size="11.00">numeric[10]</text>
<polygon fill="#ffffff" stroke="transparent" points="256,-361 256,-383 395,-383 395,-361 256,-361"/>
<polygon fill="none" stroke="black" points="256,-361 256,-383 395,-383 395,-361 256,-361"/>
<text text-anchor="start" x="276" y="-369.2" font-family="Helvetica,sans-Serif" font-size="11.00">dbaddress</text>
<polygon fill="none" stroke="black" points="395,-361 395,-383 478,-383 478,-361 395,-361"/>
<text text-anchor="start" x="398" y="-369.2" font-family="Helvetica,sans-Serif" font-size="11.00">varchar[255]</text>
<polygon fill="none" stroke="black" points="256,-339 256,-361 395,-361 395,-339 256,-339"/>
<text text-anchor="start" x="276" y="-347.2" font-family="Helvetica,sans-Serif" font-size="11.00">statisticsinfo</text>
<polygon fill="none" stroke="black" points="395,-339 395,-361 478,-361 478,-339 395,-339"/>
<text text-anchor="start" x="398" y="-347.2" font-family="Helvetica,sans-Serif" font-size="11.00">varchar[60]</text>
<polygon fill="none" stroke="black" points="256,-317 256,-339 395,-339 395,-317 256,-317"/>
<text text-anchor="start" x="276" y="-325.2" font-family="Helvetica,sans-Serif" font-size="11.00">profileinfo</text>
<polygon fill="none" stroke="black" points="395,-317 395,-339 478,-339 478,-317 395,-317"/>
<text text-anchor="start" x="398" y="-325.2" font-family="Helvetica,sans-Serif" font-size="11.00">varchar[4000]</text>
<polygon fill="none" stroke="black" points="256,-295 256,-317 395,-317 395,-295 256,-295"/>
<text text-anchor="start" x="276" y="-303.2" font-family="Helvetica,sans-Serif" font-size="11.00">systemstatus</text>
<polygon fill="none" stroke="black" points="395,-295 395,-317 478,-317 478,-295 395,-295"/>
<text text-anchor="start" x="398" y="-303.2" font-family="Helvetica,sans-Serif" font-size="11.00">bpchar[1]</text>
<polygon fill="none" stroke="black" points="256,-273 256,-295 395,-295 395,-273 256,-273"/>
<image xlink:href="../../images/foreignKeys.png" width="11px" height="12px" preserveAspectRatio="xMinYMin meet" x="261" y="-290"/>
<text text-anchor="start" x="276" y="-281.2" font-family="Helvetica,sans-Serif" font-size="11.00">a_asset_id</text>
<polygon fill="none" stroke="black" points="395,-273 395,-295 478,-295 478,-273 395,-273"/>
<text text-anchor="start" x="398" y="-281.2" font-family="Helvetica,sans-Serif" font-size="11.00">numeric[10]</text>
<polygon fill="#ffffff" stroke="transparent" points="256,-251 256,-273 395,-273 395,-251 256,-251"/>
<polygon fill="none" stroke="black" points="256,-251 256,-273 395,-273 395,-251 256,-251"/>
<text text-anchor="start" x="276" y="-259.2" font-family="Helvetica,sans-Serif" font-size="11.00">r_issuesystem_uu</text>
<polygon fill="none" stroke="black" points="395,-251 395,-273 478,-273 478,-251 395,-251"/>
<text text-anchor="start" x="398" y="-259.2" font-family="Helvetica,sans-Serif" font-size="11.00">varchar[36]</text>
<polygon fill="#ffffff" stroke="transparent" points="256,-233 256,-251 317,-251 317,-233 256,-233"/>
<polygon fill="none" stroke="black" points="256,-233 256,-251 317,-251 317,-233 256,-233"/>
<text text-anchor="start" x="259" y="-239.2" font-family="Helvetica,sans-Serif" font-size="11.00">&lt; 1</text>
<polygon fill="#ffffff" stroke="transparent" points="317,-233 317,-251 395,-251 395,-233 317,-233"/>
<polygon fill="none" stroke="black" points="317,-233 317,-251 395,-251 395,-233 317,-233"/>
<text text-anchor="start" x="359" y="-239.2" font-family="Helvetica,sans-Serif" font-size="11.00">0 rows</text>
<polygon fill="#ffffff" stroke="transparent" points="395,-233 395,-251 478,-251 478,-233 395,-233"/>
<polygon fill="none" stroke="black" points="395,-233 395,-251 478,-251 478,-233 395,-233"/>
<text text-anchor="start" x="459" y="-239.2" font-family="Helvetica,sans-Serif" font-size="11.00">2 &gt;</text>
<polygon fill="none" stroke="black" stroke-width="2" points="255,-232 255,-582 479,-582 479,-232 255,-232"/>
</a>
</g>
</g>
<!-- ad_issue&#45;&gt;r_issuesystem -->
<g id="edge2" class="edge">
<title>ad_issue:w&#45;&gt;r_issuesystem:e</title>
<path fill="none" stroke="black" d="M513.84,-548C502.41,-548 495.16,-548 479,-548"/>
<polygon fill="black" stroke="black" points="520.5,-548 528.5,-551.6 524.5,-548 528.5,-548 528.5,-548 528.5,-548 524.5,-548 528.5,-544.4 520.5,-548 520.5,-548"/>
<ellipse fill="none" stroke="black" cx="517.3" cy="-548" rx="3.2" ry="3.2"/>
</g>
<!-- r_issuesystem&#45;&gt;a_asset -->
<g id="edge4" class="edge">
<title>r_issuesystem:w&#45;&gt;a_asset:e</title>
<path fill="none" stroke="black" d="M240.78,-286.46C189.53,-307.61 281.14,-458 206.5,-458"/>
<polygon fill="black" stroke="black" points="247.12,-285.36 255.61,-287.55 251.06,-284.68 255,-284 255,-284 255,-284 251.06,-284.68 254.39,-280.45 247.12,-285.36 247.12,-285.36"/>
<ellipse fill="none" stroke="black" cx="243.96" cy="-285.91" rx="3.2" ry="3.2"/>
</g>
<!-- r_issuesource -->
<g id="node4" class="node">
<title>r_issuesource</title>
<g id="a_node4"><a xlink:href="../../tables/r_issuesource.html" xlink:title="r_issuesource" target="_top">
<polygon fill="#ffffff" stroke="transparent" points="542,-246 542,-392 677,-392 677,-246 542,-246"/>
<polygon fill="#f5f5f5" stroke="transparent" points="542.5,-370 542.5,-392 677.5,-392 677.5,-370 542.5,-370"/>
<polygon fill="none" stroke="black" points="542.5,-370 542.5,-392 677.5,-392 677.5,-370 542.5,-370"/>
<text text-anchor="start" x="547.5" y="-379.2" font-family="Helvetica,sans-Serif" font-weight="bold" font-size="11.00">r_issuesource</text>
<text text-anchor="start" x="642.5" y="-378.2" font-family="Helvetica,sans-Serif" font-size="11.00">[table]</text>
<polygon fill="none" stroke="black" points="542.5,-348 542.5,-370 677.5,-370 677.5,-348 542.5,-348"/>
<image xlink:href="../../images/primaryKeys.png" width="11px" height="12px" preserveAspectRatio="xMinYMin meet" x="547.5" y="-365"/>
<text text-anchor="start" x="562.5" y="-356.2" font-family="Helvetica,sans-Serif" font-size="11.00">r_issuesource_id</text>
<polygon fill="#ffffff" stroke="transparent" points="542.5,-326 542.5,-348 677.5,-348 677.5,-326 542.5,-326"/>
<polygon fill="none" stroke="black" points="542.5,-326 542.5,-348 677.5,-348 677.5,-326 542.5,-326"/>
<image xlink:href="../../images/foreignKeys.png" width="11px" height="12px" preserveAspectRatio="xMinYMin meet" x="547.5" y="-343"/>
<text text-anchor="start" x="562.5" y="-334.2" font-family="Helvetica,sans-Serif" font-size="11.00">r_issuesystem_id</text>
<polygon fill="#ffffff" stroke="transparent" points="542.5,-304 542.5,-326 677.5,-326 677.5,-304 542.5,-304"/>
<polygon fill="none" stroke="black" points="542.5,-304 542.5,-326 677.5,-326 677.5,-304 542.5,-304"/>
<image xlink:href="../../images/foreignKeys.png" width="11px" height="12px" preserveAspectRatio="xMinYMin meet" x="547.5" y="-321"/>
<text text-anchor="start" x="562.5" y="-312.2" font-family="Helvetica,sans-Serif" font-size="11.00">r_issueproject_id</text>
<polygon fill="#ffffff" stroke="transparent" points="542.5,-282 542.5,-304 677.5,-304 677.5,-282 542.5,-282"/>
<polygon fill="none" stroke="black" points="542.5,-282 542.5,-304 677.5,-304 677.5,-282 542.5,-282"/>
<image xlink:href="../../images/foreignKeys.png" width="11px" height="12px" preserveAspectRatio="xMinYMin meet" x="547.5" y="-299"/>
<text text-anchor="start" x="562.5" y="-290.2" font-family="Helvetica,sans-Serif" font-size="11.00">r_issueuser_id</text>
<polygon fill="none" stroke="black" points="542.5,-264 542.5,-282 677.5,-282 677.5,-264 542.5,-264"/>
<text text-anchor="start" x="545.5" y="-270.2" font-family="Helvetica,sans-Serif" font-size="11.00">...</text>
<polygon fill="#ffffff" stroke="transparent" points="542.5,-246 542.5,-264 594.5,-264 594.5,-246 542.5,-246"/>
<polygon fill="none" stroke="black" points="542.5,-246 542.5,-264 594.5,-264 594.5,-246 542.5,-246"/>
<text text-anchor="start" x="545.5" y="-252.2" font-family="Helvetica,sans-Serif" font-size="11.00">&lt; 3</text>
<polygon fill="#ffffff" stroke="transparent" points="594.5,-246 594.5,-264 648.5,-264 648.5,-246 594.5,-246"/>
<polygon fill="none" stroke="black" points="594.5,-246 594.5,-264 648.5,-264 648.5,-246 594.5,-246"/>
<text text-anchor="start" x="612.5" y="-252.2" font-family="Helvetica,sans-Serif" font-size="11.00">0 rows</text>
<polygon fill="#ffffff" stroke="transparent" points="648.5,-246 648.5,-264 677.5,-264 677.5,-246 648.5,-246"/>
<polygon fill="none" stroke="black" points="648.5,-246 648.5,-264 677.5,-264 677.5,-246 648.5,-246"/>
<text text-anchor="start" x="667.5" y="-252.2" font-family="Helvetica,sans-Serif" font-size="11.00"> &#160;</text>
</a>
</g>
</g>
<!-- r_issuesource&#45;&gt;r_issuesystem -->
<g id="edge3" class="edge">
<title>r_issuesource:w&#45;&gt;r_issuesystem:e</title>
<path fill="none" stroke="black" d="M527.02,-338.95C458.03,-360.23 571.27,-548 479,-548"/>
<polygon fill="black" stroke="black" points="533.57,-338.07 541.98,-340.57 537.54,-337.53 541.5,-337 541.5,-337 541.5,-337 537.54,-337.53 541.02,-333.43 533.57,-338.07 533.57,-338.07"/>
<ellipse fill="none" stroke="black" cx="530.4" cy="-338.5" rx="3.2" ry="3.2"/>
</g>
</g>
</svg>
