<?xml version="1.0" encoding="UTF-8" standalone="no"?>
<!DOCTYPE svg PUBLIC "-//W3C//DTD SVG 1.1//EN"
 "http://www.w3.org/Graphics/SVG/1.1/DTD/svg11.dtd">
<!-- Generated by graphviz version 2.43.0 (0)
 -->
<!-- Title: oneDegreeRelationshipsDiagram Pages: 1 -->
<svg width="789pt" height="626pt"
 viewBox="0.00 0.00 789.00 626.00" xmlns="http://www.w3.org/2000/svg" xmlns:xlink="http://www.w3.org/1999/xlink">
<g id="graph0" class="graph" transform="scale(1 1) rotate(0) translate(4 622)">
<title>oneDegreeRelationshipsDiagram</title>
<polygon fill="#ffffff" stroke="transparent" points="-4,4 -4,-622 785,-622 785,4 -4,4"/>
<text text-anchor="middle" x="71.5" y="-7.2" font-family="Helvetica,sans-Serif" font-size="11.00">Generated by SchemaSpy</text>
<!-- r_requesttype -->
<g id="node1" class="node">
<title>r_requesttype</title>
<g id="a_node1"><a xlink:href="../../tables/r_requesttype.html" xlink:title="r_requesttype" target="_top">
<polygon fill="#ffffff" stroke="transparent" points="280,-405 280,-573 444,-573 444,-405 280,-405"/>
<polygon fill="#f5f5f5" stroke="transparent" points="280,-551 280,-573 444,-573 444,-551 280,-551"/>
<polygon fill="none" stroke="black" points="280,-551 280,-573 444,-573 444,-551 280,-551"/>
<text text-anchor="start" x="285" y="-560.2" font-family="Helvetica,sans-Serif" font-weight="bold" font-size="11.00">r_requesttype</text>
<text text-anchor="start" x="409" y="-559.2" font-family="Helvetica,sans-Serif" font-size="11.00">[table]</text>
<polygon fill="none" stroke="black" points="280,-529 280,-551 444,-551 444,-529 280,-529"/>
<image xlink:href="../../images/primaryKeys.png" width="11px" height="12px" preserveAspectRatio="xMinYMin meet" x="285" y="-546"/>
<text text-anchor="start" x="300" y="-537.2" font-family="Helvetica,sans-Serif" font-size="11.00">r_requesttype_id</text>
<polygon fill="none" stroke="black" points="280,-507 280,-529 444,-529 444,-507 280,-507"/>
<image xlink:href="../../images/foreignKeys.png" width="11px" height="12px" preserveAspectRatio="xMinYMin meet" x="285" y="-524"/>
<text text-anchor="start" x="300" y="-515.2" font-family="Helvetica,sans-Serif" font-size="11.00">r_statuscategory_id</text>
<polygon fill="#ffffff" stroke="transparent" points="280,-485 280,-507 444,-507 444,-485 280,-485"/>
<polygon fill="none" stroke="black" points="280,-485 280,-507 444,-507 444,-485 280,-485"/>
<text text-anchor="start" x="300" y="-493.2" font-family="Helvetica,sans-Serif" font-size="11.00">r_requesttype_uu</text>
<polygon fill="none" stroke="black" points="280,-463 280,-485 444,-485 444,-463 280,-463"/>
<image xlink:href="../../images/foreignKeys.png" width="11px" height="12px" preserveAspectRatio="xMinYMin meet" x="285" y="-480"/>
<text text-anchor="start" x="300" y="-471.2" font-family="Helvetica,sans-Serif" font-size="11.00">cof_templateemail_id</text>
<polygon fill="none" stroke="black" points="280,-441 280,-463 444,-463 444,-441 280,-441"/>
<image xlink:href="../../images/foreignKeys.png" width="11px" height="12px" preserveAspectRatio="xMinYMin meet" x="285" y="-458"/>
<text text-anchor="start" x="300" y="-449.2" font-family="Helvetica,sans-Serif" font-size="11.00">ad_user_id</text>
<polygon fill="none" stroke="black" points="280,-423 280,-441 444,-441 444,-423 280,-423"/>
<text text-anchor="start" x="283" y="-429.2" font-family="Helvetica,sans-Serif" font-size="11.00">...</text>
<polygon fill="#ffffff" stroke="transparent" points="280,-405 280,-423 339,-423 339,-405 280,-405"/>
<polygon fill="none" stroke="black" points="280,-405 280,-423 339,-423 339,-405 280,-405"/>
<text text-anchor="start" x="283" y="-411.2" font-family="Helvetica,sans-Serif" font-size="11.00">&lt; 3</text>
<polygon fill="#ffffff" stroke="transparent" points="339,-405 339,-423 397,-423 397,-405 339,-405"/>
<polygon fill="none" stroke="black" points="339,-405 339,-423 397,-423 397,-405 339,-405"/>
<text text-anchor="start" x="361" y="-411.2" font-family="Helvetica,sans-Serif" font-size="11.00">2 rows</text>
<polygon fill="#ffffff" stroke="transparent" points="397,-405 397,-423 444,-423 444,-405 397,-405"/>
<polygon fill="none" stroke="black" points="397,-405 397,-423 444,-423 444,-405 397,-405"/>
<text text-anchor="start" x="419" y="-411.2" font-family="Helvetica,sans-Serif" font-size="11.00">12 &gt;</text>
</a>
</g>
</g>
<!-- ad_user -->
<g id="node2" class="node">
<title>ad_user</title>
<g id="a_node2"><a xlink:href="../../tables/ad_user.html" xlink:title="ad_user" target="_top">
<polygon fill="#ffffff" stroke="transparent" points="8,-37 8,-557 231,-557 231,-37 8,-37"/>
<polygon fill="#f5f5f5" stroke="transparent" points="8.5,-535 8.5,-557 231.5,-557 231.5,-535 8.5,-535"/>
<polygon fill="none" stroke="black" points="8.5,-535 8.5,-557 231.5,-557 231.5,-535 8.5,-535"/>
<text text-anchor="start" x="13.5" y="-544.2" font-family="Helvetica,sans-Serif" font-weight="bold" font-size="11.00">ad_user</text>
<text text-anchor="start" x="196.5" y="-543.2" font-family="Helvetica,sans-Serif" font-size="11.00">[table]</text>
<polygon fill="none" stroke="black" points="8.5,-513 8.5,-535 231.5,-535 231.5,-513 8.5,-513"/>
<image xlink:href="../../images/primaryKeys.png" width="11px" height="12px" preserveAspectRatio="xMinYMin meet" x="13.5" y="-530"/>
<text text-anchor="start" x="28.5" y="-521.2" font-family="Helvetica,sans-Serif" font-size="11.00">ad_user_id</text>
<polygon fill="none" stroke="black" points="8.5,-491 8.5,-513 231.5,-513 231.5,-491 8.5,-491"/>
<image xlink:href="../../images/foreignKeys.png" width="11px" height="12px" preserveAspectRatio="xMinYMin meet" x="13.5" y="-508"/>
<text text-anchor="start" x="28.5" y="-499.2" font-family="Helvetica,sans-Serif" font-size="11.00">ad_client_id</text>
<polygon fill="none" stroke="black" points="8.5,-469 8.5,-491 231.5,-491 231.5,-469 8.5,-469"/>
<image xlink:href="../../images/foreignKeys.png" width="11px" height="12px" preserveAspectRatio="xMinYMin meet" x="13.5" y="-486"/>
<text text-anchor="start" x="28.5" y="-477.2" font-family="Helvetica,sans-Serif" font-size="11.00">ad_org_id</text>
<polygon fill="#ffffff" stroke="transparent" points="8.5,-447 8.5,-469 231.5,-469 231.5,-447 8.5,-447"/>
<polygon fill="none" stroke="black" points="8.5,-447 8.5,-469 231.5,-469 231.5,-447 8.5,-447"/>
<text text-anchor="start" x="28.5" y="-455.2" font-family="Helvetica,sans-Serif" font-size="11.00">name</text>
<polygon fill="#ffffff" stroke="transparent" points="8.5,-425 8.5,-447 231.5,-447 231.5,-425 8.5,-425"/>
<polygon fill="none" stroke="black" points="8.5,-425 8.5,-447 231.5,-447 231.5,-425 8.5,-425"/>
<text text-anchor="start" x="28.5" y="-433.2" font-family="Helvetica,sans-Serif" font-size="11.00">email</text>
<polygon fill="none" stroke="black" points="8.5,-403 8.5,-425 231.5,-425 231.5,-403 8.5,-403"/>
<image xlink:href="../../images/foreignKeys.png" width="11px" height="12px" preserveAspectRatio="xMinYMin meet" x="13.5" y="-420"/>
<text text-anchor="start" x="28.5" y="-411.2" font-family="Helvetica,sans-Serif" font-size="11.00">supervisor_id</text>
<polygon fill="#ffffff" stroke="transparent" points="8.5,-381 8.5,-403 231.5,-403 231.5,-381 8.5,-381"/>
<polygon fill="none" stroke="black" points="8.5,-381 8.5,-403 231.5,-403 231.5,-381 8.5,-381"/>
<image xlink:href="../../images/foreignKeys.png" width="11px" height="12px" preserveAspectRatio="xMinYMin meet" x="13.5" y="-398"/>
<text text-anchor="start" x="28.5" y="-389.2" font-family="Helvetica,sans-Serif" font-size="11.00">c_bpartner_id</text>
<polygon fill="none" stroke="black" points="8.5,-359 8.5,-381 231.5,-381 231.5,-359 8.5,-359"/>
<image xlink:href="../../images/foreignKeys.png" width="11px" height="12px" preserveAspectRatio="xMinYMin meet" x="13.5" y="-376"/>
<text text-anchor="start" x="28.5" y="-367.2" font-family="Helvetica,sans-Serif" font-size="11.00">c_bpartner_location_id</text>
<polygon fill="none" stroke="black" points="8.5,-337 8.5,-359 231.5,-359 231.5,-337 8.5,-337"/>
<image xlink:href="../../images/foreignKeys.png" width="11px" height="12px" preserveAspectRatio="xMinYMin meet" x="13.5" y="-354"/>
<text text-anchor="start" x="28.5" y="-345.2" font-family="Helvetica,sans-Serif" font-size="11.00">c_greeting_id</text>
<polygon fill="none" stroke="black" points="8.5,-315 8.5,-337 231.5,-337 231.5,-315 8.5,-315"/>
<image xlink:href="../../images/foreignKeys.png" width="11px" height="12px" preserveAspectRatio="xMinYMin meet" x="13.5" y="-332"/>
<text text-anchor="start" x="28.5" y="-323.2" font-family="Helvetica,sans-Serif" font-size="11.00">ad_orgtrx_id</text>
<polygon fill="none" stroke="black" points="8.5,-293 8.5,-315 231.5,-315 231.5,-293 8.5,-293"/>
<image xlink:href="../../images/foreignKeys.png" width="11px" height="12px" preserveAspectRatio="xMinYMin meet" x="13.5" y="-310"/>
<text text-anchor="start" x="28.5" y="-301.2" font-family="Helvetica,sans-Serif" font-size="11.00">c_job_id</text>
<polygon fill="#ffffff" stroke="transparent" points="8.5,-271 8.5,-293 231.5,-293 231.5,-271 8.5,-271"/>
<polygon fill="none" stroke="black" points="8.5,-271 8.5,-293 231.5,-293 231.5,-271 8.5,-271"/>
<text text-anchor="start" x="28.5" y="-279.2" font-family="Helvetica,sans-Serif" font-size="11.00">ad_user_uu</text>
<polygon fill="none" stroke="black" points="8.5,-249 8.5,-271 231.5,-271 231.5,-249 8.5,-249"/>
<image xlink:href="../../images/foreignKeys.png" width="11px" height="12px" preserveAspectRatio="xMinYMin meet" x="13.5" y="-266"/>
<text text-anchor="start" x="28.5" y="-257.2" font-family="Helvetica,sans-Serif" font-size="11.00">c_location_id</text>
<polygon fill="none" stroke="black" points="8.5,-227 8.5,-249 231.5,-249 231.5,-227 8.5,-227"/>
<image xlink:href="../../images/foreignKeys.png" width="11px" height="12px" preserveAspectRatio="xMinYMin meet" x="13.5" y="-244"/>
<text text-anchor="start" x="28.5" y="-235.2" font-family="Helvetica,sans-Serif" font-size="11.00">c_campaign_id</text>
<polygon fill="none" stroke="black" points="8.5,-205 8.5,-227 231.5,-227 231.5,-205 8.5,-205"/>
<image xlink:href="../../images/foreignKeys.png" width="11px" height="12px" preserveAspectRatio="xMinYMin meet" x="13.5" y="-222"/>
<text text-anchor="start" x="28.5" y="-213.2" font-family="Helvetica,sans-Serif" font-size="11.00">salesrep_id</text>
<polygon fill="none" stroke="black" points="8.5,-183 8.5,-205 231.5,-205 231.5,-183 8.5,-183"/>
<image xlink:href="../../images/foreignKeys.png" width="11px" height="12px" preserveAspectRatio="xMinYMin meet" x="13.5" y="-200"/>
<text text-anchor="start" x="28.5" y="-191.2" font-family="Helvetica,sans-Serif" font-size="11.00">bp_location_id</text>
<polygon fill="none" stroke="black" points="8.5,-161 8.5,-183 231.5,-183 231.5,-161 8.5,-161"/>
<image xlink:href="../../images/foreignKeys.png" width="11px" height="12px" preserveAspectRatio="xMinYMin meet" x="13.5" y="-178"/>
<text text-anchor="start" x="28.5" y="-169.2" font-family="Helvetica,sans-Serif" font-size="11.00">r_defaultmailtext_id</text>
<polygon fill="none" stroke="black" points="8.5,-139 8.5,-161 231.5,-161 231.5,-139 8.5,-139"/>
<image xlink:href="../../images/foreignKeys.png" width="11px" height="12px" preserveAspectRatio="xMinYMin meet" x="13.5" y="-156"/>
<text text-anchor="start" x="28.5" y="-147.2" font-family="Helvetica,sans-Serif" font-size="11.00">cof_c_marketsegment_id</text>
<polygon fill="none" stroke="black" points="8.5,-117 8.5,-139 231.5,-139 231.5,-117 8.5,-117"/>
<image xlink:href="../../images/foreignKeys.png" width="11px" height="12px" preserveAspectRatio="xMinYMin meet" x="13.5" y="-134"/>
<text text-anchor="start" x="28.5" y="-125.2" font-family="Helvetica,sans-Serif" font-size="11.00">cof_c_leadexpirationreason_id</text>
<polygon fill="none" stroke="black" points="8.5,-95 8.5,-117 231.5,-117 231.5,-95 8.5,-95"/>
<image xlink:href="../../images/foreignKeys.png" width="11px" height="12px" preserveAspectRatio="xMinYMin meet" x="13.5" y="-112"/>
<text text-anchor="start" x="28.5" y="-103.2" font-family="Helvetica,sans-Serif" font-size="11.00">ad_image_id</text>
<polygon fill="none" stroke="black" points="8.5,-73 8.5,-95 231.5,-95 231.5,-73 8.5,-73"/>
<image xlink:href="../../images/foreignKeys.png" width="11px" height="12px" preserveAspectRatio="xMinYMin meet" x="13.5" y="-90"/>
<text text-anchor="start" x="28.5" y="-81.2" font-family="Helvetica,sans-Serif" font-size="11.00">c_subscription_id</text>
<polygon fill="none" stroke="black" points="8.5,-55 8.5,-73 231.5,-73 231.5,-55 8.5,-55"/>
<text text-anchor="start" x="11.5" y="-61.2" font-family="Helvetica,sans-Serif" font-size="11.00">...</text>
<polygon fill="#ffffff" stroke="transparent" points="8.5,-37 8.5,-55 97.5,-55 97.5,-37 8.5,-37"/>
<polygon fill="none" stroke="black" points="8.5,-37 8.5,-55 97.5,-55 97.5,-37 8.5,-37"/>
<text text-anchor="start" x="11.5" y="-43.2" font-family="Helvetica,sans-Serif" font-size="11.00">&lt; 17</text>
<polygon fill="#ffffff" stroke="transparent" points="97.5,-37 97.5,-55 166.5,-55 166.5,-37 97.5,-37"/>
<polygon fill="none" stroke="black" points="97.5,-37 97.5,-55 166.5,-55 166.5,-37 97.5,-37"/>
<text text-anchor="start" x="130.5" y="-43.2" font-family="Helvetica,sans-Serif" font-size="11.00">8 rows</text>
<polygon fill="#ffffff" stroke="transparent" points="166.5,-37 166.5,-55 231.5,-55 231.5,-37 166.5,-37"/>
<polygon fill="none" stroke="black" points="166.5,-37 166.5,-55 231.5,-55 231.5,-37 166.5,-37"/>
<text text-anchor="start" x="200.5" y="-43.2" font-family="Helvetica,sans-Serif" font-size="11.00">316 &gt;</text>
</a>
</g>
</g>
<!-- r_requesttype&#45;&gt;ad_user -->
<g id="edge1" class="edge">
<title>r_requesttype:w&#45;&gt;ad_user:e</title>
<path fill="none" stroke="black" d="M265.13,-457.18C248.82,-473.69 264.34,-524 232.5,-524"/>
<polygon fill="black" stroke="black" points="271.5,-454.8 280.26,-455.37 275.25,-453.4 279,-452 279,-452 279,-452 275.25,-453.4 277.74,-448.63 271.5,-454.8 271.5,-454.8"/>
<ellipse fill="none" stroke="black" cx="268.51" cy="-455.92" rx="3.2" ry="3.2"/>
</g>
<!-- r_requesttypeupdates -->
<g id="node3" class="node">
<title>r_requesttypeupdates</title>
<g id="a_node3"><a xlink:href="../../tables/r_requesttypeupdates.html" xlink:title="r_requesttypeupdates" target="_top">
<polygon fill="#ffffff" stroke="transparent" points="493,-328 493,-614 773,-614 773,-328 493,-328"/>
<polygon fill="#f5f5f5" stroke="transparent" points="495,-590 495,-612 771,-612 771,-590 495,-590"/>
<polygon fill="none" stroke="black" points="495,-590 495,-612 771,-612 771,-590 495,-590"/>
<text text-anchor="start" x="500" y="-599.2" font-family="Helvetica,sans-Serif" font-weight="bold" font-size="11.00">r_requesttypeupdates</text>
<text text-anchor="start" x="736" y="-598.2" font-family="Helvetica,sans-Serif" font-size="11.00">[table]</text>
<polygon fill="none" stroke="black" points="495,-568 495,-590 688,-590 688,-568 495,-568"/>
<image xlink:href="../../images/primaryKeys.png" width="11px" height="12px" preserveAspectRatio="xMinYMin meet" x="500" y="-585"/>
<text text-anchor="start" x="515" y="-576.2" font-family="Helvetica,sans-Serif" font-size="11.00">ad_user_id</text>
<polygon fill="none" stroke="black" points="688,-568 688,-590 771,-590 771,-568 688,-568"/>
<text text-anchor="start" x="691" y="-576.2" font-family="Helvetica,sans-Serif" font-size="11.00">numeric[10]</text>
<polygon fill="none" stroke="black" points="495,-546 495,-568 688,-568 688,-546 495,-546"/>
<image xlink:href="../../images/primaryKeys.png" width="11px" height="12px" preserveAspectRatio="xMinYMin meet" x="500" y="-563"/>
<text text-anchor="start" x="515" y="-554.2" font-family="Helvetica,sans-Serif" font-size="11.00">r_requesttype_id</text>
<polygon fill="none" stroke="black" points="688,-546 688,-568 771,-568 771,-546 688,-546"/>
<text text-anchor="start" x="691" y="-554.2" font-family="Helvetica,sans-Serif" font-size="11.00">numeric[10]</text>
<polygon fill="none" stroke="black" points="495,-524 495,-546 688,-546 688,-524 495,-524"/>
<text text-anchor="start" x="515" y="-532.2" font-family="Helvetica,sans-Serif" font-size="11.00">ad_client_id</text>
<polygon fill="none" stroke="black" points="688,-524 688,-546 771,-546 771,-524 688,-524"/>
<text text-anchor="start" x="691" y="-532.2" font-family="Helvetica,sans-Serif" font-size="11.00">numeric[10]</text>
<polygon fill="none" stroke="black" points="495,-502 495,-524 688,-524 688,-502 495,-502"/>
<text text-anchor="start" x="515" y="-510.2" font-family="Helvetica,sans-Serif" font-size="11.00">ad_org_id</text>
<polygon fill="none" stroke="black" points="688,-502 688,-524 771,-524 771,-502 688,-502"/>
<text text-anchor="start" x="691" y="-510.2" font-family="Helvetica,sans-Serif" font-size="11.00">numeric[10]</text>
<polygon fill="none" stroke="black" points="495,-480 495,-502 688,-502 688,-480 495,-480"/>
<text text-anchor="start" x="515" y="-488.2" font-family="Helvetica,sans-Serif" font-size="11.00">isactive</text>
<polygon fill="none" stroke="black" points="688,-480 688,-502 771,-502 771,-480 688,-480"/>
<text text-anchor="start" x="691" y="-488.2" font-family="Helvetica,sans-Serif" font-size="11.00">bpchar[1]</text>
<polygon fill="none" stroke="black" points="495,-458 495,-480 688,-480 688,-458 495,-458"/>
<text text-anchor="start" x="515" y="-466.2" font-family="Helvetica,sans-Serif" font-size="11.00">created</text>
<polygon fill="none" stroke="black" points="688,-458 688,-480 771,-480 771,-458 688,-458"/>
<text text-anchor="start" x="691" y="-466.2" font-family="Helvetica,sans-Serif" font-size="11.00">timestamp[29,6]</text>
<polygon fill="none" stroke="black" points="495,-436 495,-458 688,-458 688,-436 495,-436"/>
<text text-anchor="start" x="515" y="-444.2" font-family="Helvetica,sans-Serif" font-size="11.00">createdby</text>
<polygon fill="none" stroke="black" points="688,-436 688,-458 771,-458 771,-436 688,-436"/>
<text text-anchor="start" x="691" y="-444.2" font-family="Helvetica,sans-Serif" font-size="11.00">numeric[10]</text>
<polygon fill="none" stroke="black" points="495,-414 495,-436 688,-436 688,-414 495,-414"/>
<text text-anchor="start" x="515" y="-422.2" font-family="Helvetica,sans-Serif" font-size="11.00">updated</text>
<polygon fill="none" stroke="black" points="688,-414 688,-436 771,-436 771,-414 688,-414"/>
<text text-anchor="start" x="691" y="-422.2" font-family="Helvetica,sans-Serif" font-size="11.00">timestamp[29,6]</text>
<polygon fill="none" stroke="black" points="495,-392 495,-414 688,-414 688,-392 495,-392"/>
<text text-anchor="start" x="515" y="-400.2" font-family="Helvetica,sans-Serif" font-size="11.00">updatedby</text>
<polygon fill="none" stroke="black" points="688,-392 688,-414 771,-414 771,-392 688,-392"/>
<text text-anchor="start" x="691" y="-400.2" font-family="Helvetica,sans-Serif" font-size="11.00">numeric[10]</text>
<polygon fill="none" stroke="black" points="495,-370 495,-392 688,-392 688,-370 495,-370"/>
<text text-anchor="start" x="515" y="-378.2" font-family="Helvetica,sans-Serif" font-size="11.00">isselfservice</text>
<polygon fill="none" stroke="black" points="688,-370 688,-392 771,-392 771,-370 688,-370"/>
<text text-anchor="start" x="691" y="-378.2" font-family="Helvetica,sans-Serif" font-size="11.00">bpchar[1]</text>
<polygon fill="#ffffff" stroke="transparent" points="495,-348 495,-370 688,-370 688,-348 495,-348"/>
<polygon fill="none" stroke="black" points="495,-348 495,-370 688,-370 688,-348 495,-348"/>
<text text-anchor="start" x="515" y="-356.2" font-family="Helvetica,sans-Serif" font-size="11.00">r_requesttypeupdates_uu</text>
<polygon fill="none" stroke="black" points="688,-348 688,-370 771,-370 771,-348 688,-348"/>
<text text-anchor="start" x="691" y="-356.2" font-family="Helvetica,sans-Serif" font-size="11.00">varchar[36]</text>
<polygon fill="#ffffff" stroke="transparent" points="495,-330 495,-348 585,-348 585,-330 495,-330"/>
<polygon fill="none" stroke="black" points="495,-330 495,-348 585,-348 585,-330 495,-330"/>
<text text-anchor="start" x="498" y="-336.2" font-family="Helvetica,sans-Serif" font-size="11.00">&lt; 2</text>
<polygon fill="#ffffff" stroke="transparent" points="585,-330 585,-348 688,-348 688,-330 585,-330"/>
<polygon fill="none" stroke="black" points="585,-330 585,-348 688,-348 688,-330 585,-330"/>
<text text-anchor="start" x="657" y="-336.2" font-family="Helvetica,sans-Serif" font-size="11.00">1 row</text>
<polygon fill="#ffffff" stroke="transparent" points="688,-330 688,-348 771,-348 771,-330 688,-330"/>
<polygon fill="none" stroke="black" points="688,-330 688,-348 771,-348 771,-330 688,-330"/>
<text text-anchor="start" x="752" y="-336.2" font-family="Helvetica,sans-Serif" font-size="11.00">0 &gt;</text>
<polygon fill="none" stroke="black" stroke-width="2" points="494,-329 494,-613 772,-613 772,-329 494,-329"/>
</a>
</g>
</g>
<!-- r_requesttypeupdates&#45;&gt;r_requesttype -->
<g id="edge3" class="edge">
<title>r_requesttypeupdates:w&#45;&gt;r_requesttype:e</title>
<path fill="none" stroke="black" d="M479.5,-554.19C468.12,-549.36 462.11,-540 445,-540"/>
<polygon fill="black" stroke="black" points="486.15,-555.48 493.32,-560.53 490.07,-556.24 494,-557 494,-557 494,-557 490.07,-556.24 494.68,-553.47 486.15,-555.48 486.15,-555.48"/>
<ellipse fill="none" stroke="black" cx="483" cy="-554.87" rx="3.2" ry="3.2"/>
</g>
<!-- r_requesttypeupdates&#45;&gt;ad_user -->
<g id="edge2" class="edge">
<title>r_requesttypeupdates:w&#45;&gt;ad_user:e</title>
<path fill="none" stroke="black" d="M479.41,-579.98C470.89,-581.21 464.75,-583.24 452,-584 372.14,-588.74 342.42,-621.95 272,-584 243.89,-568.85 264.43,-524 232.5,-524"/>
<polygon fill="black" stroke="black" points="486.02,-579.53 494.24,-582.59 490.01,-579.27 494,-579 494,-579 494,-579 490.01,-579.27 493.76,-575.41 486.02,-579.53 486.02,-579.53"/>
<ellipse fill="none" stroke="black" cx="482.83" cy="-579.75" rx="3.2" ry="3.2"/>
</g>
</g>
</svg>
