<?xml version="1.0" encoding="UTF-8" standalone="no"?>
<!DOCTYPE svg PUBLIC "-//W3C//DTD SVG 1.1//EN"
 "http://www.w3.org/Graphics/SVG/1.1/DTD/svg11.dtd">
<!-- Generated by graphviz version 2.43.0 (0)
 -->
<!-- Title: oneDegreeRelationshipsDiagram Pages: 1 -->
<svg width="271pt" height="361pt"
 viewBox="0.00 0.00 271.00 361.00" xmlns="http://www.w3.org/2000/svg" xmlns:xlink="http://www.w3.org/1999/xlink">
<g id="graph0" class="graph" transform="scale(1 1) rotate(0) translate(4 357)">
<title>oneDegreeRelationshipsDiagram</title>
<polygon fill="#ffffff" stroke="transparent" points="-4,4 -4,-357 267,-357 267,4 -4,4"/>
<text text-anchor="middle" x="71.5" y="-7.2" font-family="Helvetica,sans-Serif" font-size="11.00">Generated by SchemaSpy</text>
<!-- rv_c_invoice_productqtr -->
<g id="node1" class="node">
<title>rv_c_invoice_productqtr</title>
<g id="a_node1"><a xlink:href="../../tables/rv_c_invoice_productqtr.html" xlink:title="rv_c_invoice_productqtr" target="_top">
<polygon fill="#ffffff" stroke="transparent" points="8,-37 8,-349 255,-349 255,-37 8,-37"/>
<polygon fill="#f5f5f5" stroke="transparent" points="10.5,-325 10.5,-347 253.5,-347 253.5,-325 10.5,-325"/>
<polygon fill="none" stroke="black" points="10.5,-325 10.5,-347 253.5,-347 253.5,-325 10.5,-325"/>
<text text-anchor="start" x="15.5" y="-334.2" font-family="Helvetica,sans-Serif" font-weight="bold" font-size="11.00">rv_c_invoice_productqtr</text>
<text text-anchor="start" x="220.5" y="-333.2" font-family="Helvetica,sans-Serif" font-size="11.00">[view]</text>
<polygon fill="none" stroke="black" points="10.5,-303 10.5,-325 190.5,-325 190.5,-303 10.5,-303"/>
<text text-anchor="start" x="30.5" y="-311.2" font-family="Helvetica,sans-Serif" font-size="11.00">ad_client_id</text>
<polygon fill="none" stroke="black" points="190.5,-303 190.5,-325 253.5,-325 253.5,-303 190.5,-303"/>
<text text-anchor="start" x="193.5" y="-311.2" font-family="Helvetica,sans-Serif" font-size="11.00">numeric[10]</text>
<polygon fill="none" stroke="black" points="10.5,-281 10.5,-303 190.5,-303 190.5,-281 10.5,-281"/>
<text text-anchor="start" x="30.5" y="-289.2" font-family="Helvetica,sans-Serif" font-size="11.00">ad_org_id</text>
<polygon fill="none" stroke="black" points="190.5,-281 190.5,-303 253.5,-303 253.5,-281 190.5,-281"/>
<text text-anchor="start" x="193.5" y="-289.2" font-family="Helvetica,sans-Serif" font-size="11.00">numeric[10]</text>
<polygon fill="none" stroke="black" points="10.5,-259 10.5,-281 190.5,-281 190.5,-259 10.5,-259"/>
<image xlink:href="../../images/foreignKeys.png" width="11px" height="12px" preserveAspectRatio="xMinYMin meet" x="15.5" y="-276"/>
<text text-anchor="start" x="30.5" y="-267.2" font-family="Helvetica,sans-Serif" font-size="11.00">m_product_id</text>
<polygon fill="none" stroke="black" points="190.5,-259 190.5,-281 253.5,-281 253.5,-259 190.5,-259"/>
<text text-anchor="start" x="193.5" y="-267.2" font-family="Helvetica,sans-Serif" font-size="11.00">numeric[10]</text>
<polygon fill="none" stroke="black" points="10.5,-237 10.5,-259 190.5,-259 190.5,-237 10.5,-237"/>
<text text-anchor="start" x="30.5" y="-245.2" font-family="Helvetica,sans-Serif" font-size="11.00">dateinvoiced</text>
<polygon fill="none" stroke="black" points="190.5,-237 190.5,-259 253.5,-259 253.5,-237 190.5,-237"/>
<text text-anchor="start" x="193.5" y="-245.2" font-family="Helvetica,sans-Serif" font-size="11.00">date[13]</text>
<polygon fill="none" stroke="black" points="10.5,-215 10.5,-237 190.5,-237 190.5,-215 10.5,-215"/>
<text text-anchor="start" x="30.5" y="-223.2" font-family="Helvetica,sans-Serif" font-size="11.00">linenetamt</text>
<polygon fill="none" stroke="black" points="190.5,-215 190.5,-237 253.5,-237 253.5,-215 190.5,-215"/>
<text text-anchor="start" x="193.5" y="-223.2" font-family="Helvetica,sans-Serif" font-size="11.00">numeric[0]</text>
<polygon fill="none" stroke="black" points="10.5,-193 10.5,-215 190.5,-215 190.5,-193 10.5,-193"/>
<text text-anchor="start" x="30.5" y="-201.2" font-family="Helvetica,sans-Serif" font-size="11.00">linelistamt</text>
<polygon fill="none" stroke="black" points="190.5,-193 190.5,-215 253.5,-215 253.5,-193 190.5,-193"/>
<text text-anchor="start" x="193.5" y="-201.2" font-family="Helvetica,sans-Serif" font-size="11.00">numeric[0]</text>
<polygon fill="none" stroke="black" points="10.5,-171 10.5,-193 190.5,-193 190.5,-171 10.5,-171"/>
<text text-anchor="start" x="30.5" y="-179.2" font-family="Helvetica,sans-Serif" font-size="11.00">linelimitamt</text>
<polygon fill="none" stroke="black" points="190.5,-171 190.5,-193 253.5,-193 253.5,-171 190.5,-171"/>
<text text-anchor="start" x="193.5" y="-179.2" font-family="Helvetica,sans-Serif" font-size="11.00">numeric[0]</text>
<polygon fill="none" stroke="black" points="10.5,-149 10.5,-171 190.5,-171 190.5,-149 10.5,-149"/>
<text text-anchor="start" x="30.5" y="-157.2" font-family="Helvetica,sans-Serif" font-size="11.00">linediscountamt</text>
<polygon fill="none" stroke="black" points="190.5,-149 190.5,-171 253.5,-171 253.5,-149 190.5,-149"/>
<text text-anchor="start" x="193.5" y="-157.2" font-family="Helvetica,sans-Serif" font-size="11.00">numeric[0]</text>
<polygon fill="none" stroke="black" points="10.5,-127 10.5,-149 190.5,-149 190.5,-127 10.5,-127"/>
<text text-anchor="start" x="30.5" y="-135.2" font-family="Helvetica,sans-Serif" font-size="11.00">linediscount</text>
<polygon fill="none" stroke="black" points="190.5,-127 190.5,-149 253.5,-149 253.5,-127 190.5,-127"/>
<text text-anchor="start" x="193.5" y="-135.2" font-family="Helvetica,sans-Serif" font-size="11.00">numeric[0]</text>
<polygon fill="none" stroke="black" points="10.5,-105 10.5,-127 190.5,-127 190.5,-105 10.5,-105"/>
<text text-anchor="start" x="30.5" y="-113.2" font-family="Helvetica,sans-Serif" font-size="11.00">lineoverlimitamt</text>
<polygon fill="none" stroke="black" points="190.5,-105 190.5,-127 253.5,-127 253.5,-105 190.5,-105"/>
<text text-anchor="start" x="193.5" y="-113.2" font-family="Helvetica,sans-Serif" font-size="11.00">numeric[0]</text>
<polygon fill="none" stroke="black" points="10.5,-83 10.5,-105 190.5,-105 190.5,-83 10.5,-83"/>
<text text-anchor="start" x="30.5" y="-91.2" font-family="Helvetica,sans-Serif" font-size="11.00">lineoverlimit</text>
<polygon fill="none" stroke="black" points="190.5,-83 190.5,-105 253.5,-105 253.5,-83 190.5,-83"/>
<text text-anchor="start" x="193.5" y="-91.2" font-family="Helvetica,sans-Serif" font-size="11.00">numeric[0]</text>
<polygon fill="none" stroke="black" points="10.5,-61 10.5,-83 190.5,-83 190.5,-61 10.5,-61"/>
<text text-anchor="start" x="30.5" y="-69.2" font-family="Helvetica,sans-Serif" font-size="11.00">qtyinvoiced</text>
<polygon fill="none" stroke="black" points="190.5,-61 190.5,-83 253.5,-83 253.5,-61 190.5,-61"/>
<text text-anchor="start" x="193.5" y="-69.2" font-family="Helvetica,sans-Serif" font-size="11.00">numeric[0]</text>
<polygon fill="none" stroke="black" points="10.5,-39 10.5,-61 190.5,-61 190.5,-39 10.5,-39"/>
<text text-anchor="start" x="30.5" y="-47.2" font-family="Helvetica,sans-Serif" font-size="11.00">issotrx</text>
<polygon fill="none" stroke="black" points="190.5,-39 190.5,-61 253.5,-61 253.5,-39 190.5,-39"/>
<text text-anchor="start" x="193.5" y="-47.2" font-family="Helvetica,sans-Serif" font-size="11.00">bpchar[1]</text>
<polygon fill="none" stroke="black" stroke-width="2" points="9,-38 9,-348 254,-348 254,-38 9,-38"/>
</a>
</g>
</g>
</g>
</svg>
