<?xml version="1.0" encoding="UTF-8" standalone="no"?>
<!DOCTYPE svg PUBLIC "-//W3C//DTD SVG 1.1//EN"
 "http://www.w3.org/Graphics/SVG/1.1/DTD/svg11.dtd">
<!-- Generated by graphviz version 2.43.0 (0)
 -->
<!-- Title: oneDegreeRelationshipsDiagram Pages: 1 -->
<svg width="279pt" height="713pt"
 viewBox="0.00 0.00 279.00 713.00" xmlns="http://www.w3.org/2000/svg" xmlns:xlink="http://www.w3.org/1999/xlink">
<g id="graph0" class="graph" transform="scale(1 1) rotate(0) translate(4 709)">
<title>oneDegreeRelationshipsDiagram</title>
<polygon fill="#ffffff" stroke="transparent" points="-4,4 -4,-709 275,-709 275,4 -4,4"/>
<text text-anchor="middle" x="71.5" y="-7.2" font-family="Helvetica,sans-Serif" font-size="11.00">Generated by SchemaSpy</text>
<!-- rv_pp_order_workflow -->
<g id="node1" class="node">
<title>rv_pp_order_workflow</title>
<g id="a_node1"><a xlink:href="../../tables/rv_pp_order_workflow.html" xlink:title="rv_pp_order_workflow" target="_top">
<polygon fill="#ffffff" stroke="transparent" points="8,-37 8,-701 263,-701 263,-37 8,-37"/>
<polygon fill="#f5f5f5" stroke="transparent" points="10.5,-677 10.5,-699 261.5,-699 261.5,-677 10.5,-677"/>
<polygon fill="none" stroke="black" points="10.5,-677 10.5,-699 261.5,-699 261.5,-677 10.5,-677"/>
<text text-anchor="start" x="15.5" y="-686.2" font-family="Helvetica,sans-Serif" font-weight="bold" font-size="11.00">rv_pp_order_workflow</text>
<text text-anchor="start" x="228.5" y="-685.2" font-family="Helvetica,sans-Serif" font-size="11.00">[view]</text>
<polygon fill="none" stroke="black" points="10.5,-655 10.5,-677 178.5,-677 178.5,-655 10.5,-655"/>
<text text-anchor="start" x="30.5" y="-663.2" font-family="Helvetica,sans-Serif" font-size="11.00">ad_client_id</text>
<polygon fill="none" stroke="black" points="178.5,-655 178.5,-677 261.5,-677 261.5,-655 178.5,-655"/>
<text text-anchor="start" x="181.5" y="-663.2" font-family="Helvetica,sans-Serif" font-size="11.00">numeric[10]</text>
<polygon fill="none" stroke="black" points="10.5,-633 10.5,-655 178.5,-655 178.5,-633 10.5,-633"/>
<text text-anchor="start" x="30.5" y="-641.2" font-family="Helvetica,sans-Serif" font-size="11.00">ad_org_id</text>
<polygon fill="none" stroke="black" points="178.5,-633 178.5,-655 261.5,-655 261.5,-633 178.5,-633"/>
<text text-anchor="start" x="181.5" y="-641.2" font-family="Helvetica,sans-Serif" font-size="11.00">numeric[10]</text>
<polygon fill="none" stroke="black" points="10.5,-611 10.5,-633 178.5,-633 178.5,-611 10.5,-611"/>
<text text-anchor="start" x="30.5" y="-619.2" font-family="Helvetica,sans-Serif" font-size="11.00">created</text>
<polygon fill="none" stroke="black" points="178.5,-611 178.5,-633 261.5,-633 261.5,-611 178.5,-611"/>
<text text-anchor="start" x="181.5" y="-619.2" font-family="Helvetica,sans-Serif" font-size="11.00">timestamp[29,6]</text>
<polygon fill="none" stroke="black" points="10.5,-589 10.5,-611 178.5,-611 178.5,-589 10.5,-589"/>
<text text-anchor="start" x="30.5" y="-597.2" font-family="Helvetica,sans-Serif" font-size="11.00">createdby</text>
<polygon fill="none" stroke="black" points="178.5,-589 178.5,-611 261.5,-611 261.5,-589 178.5,-589"/>
<text text-anchor="start" x="181.5" y="-597.2" font-family="Helvetica,sans-Serif" font-size="11.00">numeric[10]</text>
<polygon fill="none" stroke="black" points="10.5,-567 10.5,-589 178.5,-589 178.5,-567 10.5,-567"/>
<text text-anchor="start" x="30.5" y="-575.2" font-family="Helvetica,sans-Serif" font-size="11.00">isactive</text>
<polygon fill="none" stroke="black" points="178.5,-567 178.5,-589 261.5,-589 261.5,-567 178.5,-567"/>
<text text-anchor="start" x="181.5" y="-575.2" font-family="Helvetica,sans-Serif" font-size="11.00">bpchar[1]</text>
<polygon fill="none" stroke="black" points="10.5,-545 10.5,-567 178.5,-567 178.5,-545 10.5,-545"/>
<text text-anchor="start" x="30.5" y="-553.2" font-family="Helvetica,sans-Serif" font-size="11.00">updated</text>
<polygon fill="none" stroke="black" points="178.5,-545 178.5,-567 261.5,-567 261.5,-545 178.5,-545"/>
<text text-anchor="start" x="181.5" y="-553.2" font-family="Helvetica,sans-Serif" font-size="11.00">timestamp[29,6]</text>
<polygon fill="none" stroke="black" points="10.5,-523 10.5,-545 178.5,-545 178.5,-523 10.5,-523"/>
<text text-anchor="start" x="30.5" y="-531.2" font-family="Helvetica,sans-Serif" font-size="11.00">updatedby</text>
<polygon fill="none" stroke="black" points="178.5,-523 178.5,-545 261.5,-545 261.5,-523 178.5,-523"/>
<text text-anchor="start" x="181.5" y="-531.2" font-family="Helvetica,sans-Serif" font-size="11.00">numeric[10]</text>
<polygon fill="none" stroke="black" points="10.5,-501 10.5,-523 178.5,-523 178.5,-501 10.5,-501"/>
<image xlink:href="../../images/foreignKeys.png" width="11px" height="12px" preserveAspectRatio="xMinYMin meet" x="15.5" y="-518"/>
<text text-anchor="start" x="30.5" y="-509.2" font-family="Helvetica,sans-Serif" font-size="11.00">pp_order_workflow_id</text>
<polygon fill="none" stroke="black" points="178.5,-501 178.5,-523 261.5,-523 261.5,-501 178.5,-501"/>
<text text-anchor="start" x="181.5" y="-509.2" font-family="Helvetica,sans-Serif" font-size="11.00">numeric[10]</text>
<polygon fill="none" stroke="black" points="10.5,-479 10.5,-501 178.5,-501 178.5,-479 10.5,-479"/>
<text text-anchor="start" x="30.5" y="-487.2" font-family="Helvetica,sans-Serif" font-size="11.00">name</text>
<polygon fill="none" stroke="black" points="178.5,-479 178.5,-501 261.5,-501 261.5,-479 178.5,-479"/>
<text text-anchor="start" x="181.5" y="-487.2" font-family="Helvetica,sans-Serif" font-size="11.00">varchar[60]</text>
<polygon fill="none" stroke="black" points="10.5,-457 10.5,-479 178.5,-479 178.5,-457 10.5,-457"/>
<image xlink:href="../../images/foreignKeys.png" width="11px" height="12px" preserveAspectRatio="xMinYMin meet" x="15.5" y="-474"/>
<text text-anchor="start" x="30.5" y="-465.2" font-family="Helvetica,sans-Serif" font-size="11.00">pp_order_id</text>
<polygon fill="none" stroke="black" points="178.5,-457 178.5,-479 261.5,-479 261.5,-457 178.5,-457"/>
<text text-anchor="start" x="181.5" y="-465.2" font-family="Helvetica,sans-Serif" font-size="11.00">numeric[10]</text>
<polygon fill="none" stroke="black" points="10.5,-435 10.5,-457 178.5,-457 178.5,-435 10.5,-435"/>
<text text-anchor="start" x="30.5" y="-443.2" font-family="Helvetica,sans-Serif" font-size="11.00">docstatus</text>
<polygon fill="none" stroke="black" points="178.5,-435 178.5,-457 261.5,-457 261.5,-435 178.5,-435"/>
<text text-anchor="start" x="181.5" y="-443.2" font-family="Helvetica,sans-Serif" font-size="11.00">bpchar[2]</text>
<polygon fill="none" stroke="black" points="10.5,-413 10.5,-435 178.5,-435 178.5,-413 10.5,-413"/>
<text text-anchor="start" x="30.5" y="-421.2" font-family="Helvetica,sans-Serif" font-size="11.00">value</text>
<polygon fill="none" stroke="black" points="178.5,-413 178.5,-435 261.5,-435 261.5,-413 178.5,-413"/>
<text text-anchor="start" x="181.5" y="-421.2" font-family="Helvetica,sans-Serif" font-size="11.00">varchar[40]</text>
<polygon fill="none" stroke="black" points="10.5,-391 10.5,-413 178.5,-413 178.5,-391 10.5,-391"/>
<image xlink:href="../../images/foreignKeys.png" width="11px" height="12px" preserveAspectRatio="xMinYMin meet" x="15.5" y="-408"/>
<text text-anchor="start" x="30.5" y="-399.2" font-family="Helvetica,sans-Serif" font-size="11.00">s_resource_id</text>
<polygon fill="none" stroke="black" points="178.5,-391 178.5,-413 261.5,-413 261.5,-391 178.5,-391"/>
<text text-anchor="start" x="181.5" y="-399.2" font-family="Helvetica,sans-Serif" font-size="11.00">numeric[10]</text>
<polygon fill="none" stroke="black" points="10.5,-369 10.5,-391 178.5,-391 178.5,-369 10.5,-369"/>
<text text-anchor="start" x="30.5" y="-377.2" font-family="Helvetica,sans-Serif" font-size="11.00">durationrequiered</text>
<polygon fill="none" stroke="black" points="178.5,-369 178.5,-391 261.5,-391 261.5,-369 178.5,-369"/>
<text text-anchor="start" x="181.5" y="-377.2" font-family="Helvetica,sans-Serif" font-size="11.00">numeric[10]</text>
<polygon fill="none" stroke="black" points="10.5,-347 10.5,-369 178.5,-369 178.5,-347 10.5,-347"/>
<text text-anchor="start" x="30.5" y="-355.2" font-family="Helvetica,sans-Serif" font-size="11.00">durationreal</text>
<polygon fill="none" stroke="black" points="178.5,-347 178.5,-369 261.5,-369 261.5,-347 178.5,-347"/>
<text text-anchor="start" x="181.5" y="-355.2" font-family="Helvetica,sans-Serif" font-size="11.00">numeric[10]</text>
<polygon fill="none" stroke="black" points="10.5,-325 10.5,-347 178.5,-347 178.5,-325 10.5,-325"/>
<text text-anchor="start" x="30.5" y="-333.2" font-family="Helvetica,sans-Serif" font-size="11.00">duration</text>
<polygon fill="none" stroke="black" points="178.5,-325 178.5,-347 261.5,-347 261.5,-325 178.5,-325"/>
<text text-anchor="start" x="181.5" y="-333.2" font-family="Helvetica,sans-Serif" font-size="11.00">numeric[0]</text>
<polygon fill="none" stroke="black" points="10.5,-303 10.5,-325 178.5,-325 178.5,-303 10.5,-303"/>
<text text-anchor="start" x="30.5" y="-311.2" font-family="Helvetica,sans-Serif" font-size="11.00">movingtime</text>
<polygon fill="none" stroke="black" points="178.5,-303 178.5,-325 261.5,-325 261.5,-303 178.5,-303"/>
<text text-anchor="start" x="181.5" y="-311.2" font-family="Helvetica,sans-Serif" font-size="11.00">numeric[10]</text>
<polygon fill="none" stroke="black" points="10.5,-281 10.5,-303 178.5,-303 178.5,-281 10.5,-281"/>
<text text-anchor="start" x="30.5" y="-289.2" font-family="Helvetica,sans-Serif" font-size="11.00">waitingtime</text>
<polygon fill="none" stroke="black" points="178.5,-281 178.5,-303 261.5,-303 261.5,-281 178.5,-281"/>
<text text-anchor="start" x="181.5" y="-289.2" font-family="Helvetica,sans-Serif" font-size="11.00">numeric[10]</text>
<polygon fill="none" stroke="black" points="10.5,-259 10.5,-281 178.5,-281 178.5,-259 10.5,-259"/>
<text text-anchor="start" x="30.5" y="-267.2" font-family="Helvetica,sans-Serif" font-size="11.00">setuptime</text>
<polygon fill="none" stroke="black" points="178.5,-259 178.5,-281 261.5,-281 261.5,-259 178.5,-259"/>
<text text-anchor="start" x="181.5" y="-267.2" font-family="Helvetica,sans-Serif" font-size="11.00">numeric[10]</text>
<polygon fill="none" stroke="black" points="10.5,-237 10.5,-259 178.5,-259 178.5,-237 10.5,-237"/>
<text text-anchor="start" x="30.5" y="-245.2" font-family="Helvetica,sans-Serif" font-size="11.00">queuingtime</text>
<polygon fill="none" stroke="black" points="178.5,-237 178.5,-259 261.5,-259 261.5,-237 178.5,-237"/>
<text text-anchor="start" x="181.5" y="-245.2" font-family="Helvetica,sans-Serif" font-size="11.00">numeric[10]</text>
<polygon fill="none" stroke="black" points="10.5,-215 10.5,-237 178.5,-237 178.5,-215 10.5,-215"/>
<text text-anchor="start" x="30.5" y="-223.2" font-family="Helvetica,sans-Serif" font-size="11.00">qtydelivered</text>
<polygon fill="none" stroke="black" points="178.5,-215 178.5,-237 261.5,-237 261.5,-215 178.5,-215"/>
<text text-anchor="start" x="181.5" y="-223.2" font-family="Helvetica,sans-Serif" font-size="11.00">numeric[0]</text>
<polygon fill="none" stroke="black" points="10.5,-193 10.5,-215 178.5,-215 178.5,-193 10.5,-193"/>
<text text-anchor="start" x="30.5" y="-201.2" font-family="Helvetica,sans-Serif" font-size="11.00">qtyreject</text>
<polygon fill="none" stroke="black" points="178.5,-193 178.5,-215 261.5,-215 261.5,-193 178.5,-193"/>
<text text-anchor="start" x="181.5" y="-201.2" font-family="Helvetica,sans-Serif" font-size="11.00">numeric[0]</text>
<polygon fill="none" stroke="black" points="10.5,-171 10.5,-193 178.5,-193 178.5,-171 10.5,-171"/>
<text text-anchor="start" x="30.5" y="-179.2" font-family="Helvetica,sans-Serif" font-size="11.00">qtyscrap</text>
<polygon fill="none" stroke="black" points="178.5,-171 178.5,-193 261.5,-193 261.5,-171 178.5,-171"/>
<text text-anchor="start" x="181.5" y="-179.2" font-family="Helvetica,sans-Serif" font-size="11.00">numeric[0]</text>
<polygon fill="none" stroke="black" points="10.5,-149 10.5,-171 178.5,-171 178.5,-149 10.5,-149"/>
<text text-anchor="start" x="30.5" y="-157.2" font-family="Helvetica,sans-Serif" font-size="11.00">datestartschedule</text>
<polygon fill="none" stroke="black" points="178.5,-149 178.5,-171 261.5,-171 261.5,-149 178.5,-149"/>
<text text-anchor="start" x="181.5" y="-157.2" font-family="Helvetica,sans-Serif" font-size="11.00">timestamp[29,6]</text>
<polygon fill="none" stroke="black" points="10.5,-127 10.5,-149 178.5,-149 178.5,-127 10.5,-127"/>
<text text-anchor="start" x="30.5" y="-135.2" font-family="Helvetica,sans-Serif" font-size="11.00">datefinishschedule</text>
<polygon fill="none" stroke="black" points="178.5,-127 178.5,-149 261.5,-149 261.5,-127 178.5,-127"/>
<text text-anchor="start" x="181.5" y="-135.2" font-family="Helvetica,sans-Serif" font-size="11.00">timestamp[29,6]</text>
<polygon fill="none" stroke="black" points="10.5,-105 10.5,-127 178.5,-127 178.5,-105 10.5,-105"/>
<image xlink:href="../../images/foreignKeys.png" width="11px" height="12px" preserveAspectRatio="xMinYMin meet" x="15.5" y="-122"/>
<text text-anchor="start" x="30.5" y="-113.2" font-family="Helvetica,sans-Serif" font-size="11.00">c_bpartner_id</text>
<polygon fill="none" stroke="black" points="178.5,-105 178.5,-127 261.5,-127 261.5,-105 178.5,-105"/>
<text text-anchor="start" x="181.5" y="-113.2" font-family="Helvetica,sans-Serif" font-size="11.00">numeric[10]</text>
<polygon fill="none" stroke="black" points="10.5,-83 10.5,-105 178.5,-105 178.5,-83 10.5,-83"/>
<text text-anchor="start" x="30.5" y="-91.2" font-family="Helvetica,sans-Serif" font-size="11.00">description</text>
<polygon fill="none" stroke="black" points="178.5,-83 178.5,-105 261.5,-105 261.5,-83 178.5,-83"/>
<text text-anchor="start" x="181.5" y="-91.2" font-family="Helvetica,sans-Serif" font-size="11.00">varchar[255]</text>
<polygon fill="none" stroke="black" points="10.5,-61 10.5,-83 178.5,-83 178.5,-61 10.5,-61"/>
<text text-anchor="start" x="30.5" y="-69.2" font-family="Helvetica,sans-Serif" font-size="11.00">ismilestone</text>
<polygon fill="none" stroke="black" points="178.5,-61 178.5,-83 261.5,-83 261.5,-61 178.5,-61"/>
<text text-anchor="start" x="181.5" y="-69.2" font-family="Helvetica,sans-Serif" font-size="11.00">bpchar[1]</text>
<polygon fill="none" stroke="black" points="10.5,-39 10.5,-61 178.5,-61 178.5,-39 10.5,-39"/>
<text text-anchor="start" x="30.5" y="-47.2" font-family="Helvetica,sans-Serif" font-size="11.00">issubcontracting</text>
<polygon fill="none" stroke="black" points="178.5,-39 178.5,-61 261.5,-61 261.5,-39 178.5,-39"/>
<text text-anchor="start" x="181.5" y="-47.2" font-family="Helvetica,sans-Serif" font-size="11.00">bpchar[1]</text>
<polygon fill="none" stroke="black" stroke-width="2" points="9,-38 9,-700 262,-700 262,-38 9,-38"/>
</a>
</g>
</g>
</g>
</svg>
