<?xml version="1.0" encoding="UTF-8" standalone="no"?>
<!DOCTYPE svg PUBLIC "-//W3C//DTD SVG 1.1//EN"
 "http://www.w3.org/Graphics/SVG/1.1/DTD/svg11.dtd">
<!-- Generated by graphviz version 2.43.0 (0)
 -->
<!-- Title: oneDegreeRelationshipsDiagram Pages: 1 -->
<svg width="296pt" height="1021pt"
 viewBox="0.00 0.00 296.00 1021.00" xmlns="http://www.w3.org/2000/svg" xmlns:xlink="http://www.w3.org/1999/xlink">
<g id="graph0" class="graph" transform="scale(1 1) rotate(0) translate(4 1017)">
<title>oneDegreeRelationshipsDiagram</title>
<polygon fill="#ffffff" stroke="transparent" points="-4,4 -4,-1017 292,-1017 292,4 -4,4"/>
<text text-anchor="middle" x="71.5" y="-7.2" font-family="Helvetica,sans-Serif" font-size="11.00">Generated by SchemaSpy</text>
<!-- rv_pp_mrp -->
<g id="node1" class="node">
<title>rv_pp_mrp</title>
<g id="a_node1"><a xlink:href="../../tables/rv_pp_mrp.html" xlink:title="rv_pp_mrp" target="_top">
<polygon fill="#ffffff" stroke="transparent" points="8,-37 8,-1009 280,-1009 280,-37 8,-37"/>
<polygon fill="#f5f5f5" stroke="transparent" points="10,-985 10,-1007 278,-1007 278,-985 10,-985"/>
<polygon fill="none" stroke="black" points="10,-985 10,-1007 278,-1007 278,-985 10,-985"/>
<text text-anchor="start" x="15" y="-994.2" font-family="Helvetica,sans-Serif" font-weight="bold" font-size="11.00">rv_pp_mrp</text>
<text text-anchor="start" x="245" y="-993.2" font-family="Helvetica,sans-Serif" font-size="11.00">[view]</text>
<polygon fill="none" stroke="black" points="10,-963 10,-985 169,-985 169,-963 10,-963"/>
<text text-anchor="start" x="30" y="-971.2" font-family="Helvetica,sans-Serif" font-size="11.00">pp_mrp_id</text>
<polygon fill="none" stroke="black" points="169,-963 169,-985 278,-985 278,-963 169,-963"/>
<text text-anchor="start" x="172" y="-971.2" font-family="Helvetica,sans-Serif" font-size="11.00">numeric[0]</text>
<polygon fill="none" stroke="black" points="10,-941 10,-963 169,-963 169,-941 10,-941"/>
<text text-anchor="start" x="30" y="-949.2" font-family="Helvetica,sans-Serif" font-size="11.00">ad_client_id</text>
<polygon fill="none" stroke="black" points="169,-941 169,-963 278,-963 278,-941 169,-941"/>
<text text-anchor="start" x="172" y="-949.2" font-family="Helvetica,sans-Serif" font-size="11.00">numeric[10]</text>
<polygon fill="none" stroke="black" points="10,-919 10,-941 169,-941 169,-919 10,-919"/>
<text text-anchor="start" x="30" y="-927.2" font-family="Helvetica,sans-Serif" font-size="11.00">ad_org_id</text>
<polygon fill="none" stroke="black" points="169,-919 169,-941 278,-941 278,-919 169,-919"/>
<text text-anchor="start" x="172" y="-927.2" font-family="Helvetica,sans-Serif" font-size="11.00">numeric[10]</text>
<polygon fill="none" stroke="black" points="10,-897 10,-919 169,-919 169,-897 10,-897"/>
<text text-anchor="start" x="30" y="-905.2" font-family="Helvetica,sans-Serif" font-size="11.00">created</text>
<polygon fill="none" stroke="black" points="169,-897 169,-919 278,-919 278,-897 169,-897"/>
<text text-anchor="start" x="172" y="-905.2" font-family="Helvetica,sans-Serif" font-size="11.00">timestamp[29,6]</text>
<polygon fill="none" stroke="black" points="10,-875 10,-897 169,-897 169,-875 10,-875"/>
<text text-anchor="start" x="30" y="-883.2" font-family="Helvetica,sans-Serif" font-size="11.00">createdby</text>
<polygon fill="none" stroke="black" points="169,-875 169,-897 278,-897 278,-875 169,-875"/>
<text text-anchor="start" x="172" y="-883.2" font-family="Helvetica,sans-Serif" font-size="11.00">numeric[10]</text>
<polygon fill="none" stroke="black" points="10,-853 10,-875 169,-875 169,-853 10,-853"/>
<text text-anchor="start" x="30" y="-861.2" font-family="Helvetica,sans-Serif" font-size="11.00">isactive</text>
<polygon fill="none" stroke="black" points="169,-853 169,-875 278,-875 278,-853 169,-853"/>
<text text-anchor="start" x="172" y="-861.2" font-family="Helvetica,sans-Serif" font-size="11.00">bpchar[1]</text>
<polygon fill="none" stroke="black" points="10,-831 10,-853 169,-853 169,-831 10,-831"/>
<text text-anchor="start" x="30" y="-839.2" font-family="Helvetica,sans-Serif" font-size="11.00">isavailable</text>
<polygon fill="none" stroke="black" points="169,-831 169,-853 278,-853 278,-831 169,-831"/>
<text text-anchor="start" x="172" y="-839.2" font-family="Helvetica,sans-Serif" font-size="11.00">bpchar[2147483647]</text>
<polygon fill="none" stroke="black" points="10,-809 10,-831 169,-831 169,-809 10,-809"/>
<text text-anchor="start" x="30" y="-817.2" font-family="Helvetica,sans-Serif" font-size="11.00">updated</text>
<polygon fill="none" stroke="black" points="169,-809 169,-831 278,-831 278,-809 169,-809"/>
<text text-anchor="start" x="172" y="-817.2" font-family="Helvetica,sans-Serif" font-size="11.00">timestamp[29,6]</text>
<polygon fill="none" stroke="black" points="10,-787 10,-809 169,-809 169,-787 10,-787"/>
<text text-anchor="start" x="30" y="-795.2" font-family="Helvetica,sans-Serif" font-size="11.00">updatedby</text>
<polygon fill="none" stroke="black" points="169,-787 169,-809 278,-809 278,-787 169,-787"/>
<text text-anchor="start" x="172" y="-795.2" font-family="Helvetica,sans-Serif" font-size="11.00">numeric[10]</text>
<polygon fill="none" stroke="black" points="10,-765 10,-787 169,-787 169,-765 10,-765"/>
<text text-anchor="start" x="30" y="-773.2" font-family="Helvetica,sans-Serif" font-size="11.00">ismps</text>
<polygon fill="none" stroke="black" points="169,-765 169,-787 278,-787 278,-765 169,-765"/>
<text text-anchor="start" x="172" y="-773.2" font-family="Helvetica,sans-Serif" font-size="11.00">bpchar[1]</text>
<polygon fill="none" stroke="black" points="10,-743 10,-765 169,-765 169,-743 10,-743"/>
<image xlink:href="../../images/foreignKeys.png" width="11px" height="12px" preserveAspectRatio="xMinYMin meet" x="15" y="-760"/>
<text text-anchor="start" x="30" y="-751.2" font-family="Helvetica,sans-Serif" font-size="11.00">name</text>
<polygon fill="none" stroke="black" points="169,-743 169,-765 278,-765 278,-743 169,-743"/>
<text text-anchor="start" x="172" y="-751.2" font-family="Helvetica,sans-Serif" font-size="11.00">varchar[2147483647]</text>
<polygon fill="none" stroke="black" points="10,-721 10,-743 169,-743 169,-721 10,-721"/>
<text text-anchor="start" x="30" y="-729.2" font-family="Helvetica,sans-Serif" font-size="11.00">description</text>
<polygon fill="none" stroke="black" points="169,-721 169,-743 278,-743 278,-721 169,-721"/>
<text text-anchor="start" x="172" y="-729.2" font-family="Helvetica,sans-Serif" font-size="11.00">varchar[2147483647]</text>
<polygon fill="none" stroke="black" points="10,-699 10,-721 169,-721 169,-699 10,-699"/>
<text text-anchor="start" x="30" y="-707.2" font-family="Helvetica,sans-Serif" font-size="11.00">c_order_id</text>
<polygon fill="none" stroke="black" points="169,-699 169,-721 278,-721 278,-699 169,-699"/>
<text text-anchor="start" x="172" y="-707.2" font-family="Helvetica,sans-Serif" font-size="11.00">numeric[0]</text>
<polygon fill="none" stroke="black" points="10,-677 10,-699 169,-699 169,-677 10,-677"/>
<text text-anchor="start" x="30" y="-685.2" font-family="Helvetica,sans-Serif" font-size="11.00">c_orderline_id</text>
<polygon fill="none" stroke="black" points="169,-677 169,-699 278,-699 278,-677 169,-677"/>
<text text-anchor="start" x="172" y="-685.2" font-family="Helvetica,sans-Serif" font-size="11.00">numeric[0]</text>
<polygon fill="none" stroke="black" points="10,-655 10,-677 169,-677 169,-655 10,-655"/>
<text text-anchor="start" x="30" y="-663.2" font-family="Helvetica,sans-Serif" font-size="11.00">dateordered</text>
<polygon fill="none" stroke="black" points="169,-655 169,-677 278,-677 278,-655 169,-655"/>
<text text-anchor="start" x="172" y="-663.2" font-family="Helvetica,sans-Serif" font-size="11.00">timestamptz[35,6]</text>
<polygon fill="none" stroke="black" points="10,-633 10,-655 169,-655 169,-633 10,-633"/>
<text text-anchor="start" x="30" y="-641.2" font-family="Helvetica,sans-Serif" font-size="11.00">dateconfirm</text>
<polygon fill="none" stroke="black" points="169,-633 169,-655 278,-655 278,-633 169,-633"/>
<text text-anchor="start" x="172" y="-641.2" font-family="Helvetica,sans-Serif" font-size="11.00">timestamptz[35,6]</text>
<polygon fill="none" stroke="black" points="10,-611 10,-633 169,-633 169,-611 10,-611"/>
<text text-anchor="start" x="30" y="-619.2" font-family="Helvetica,sans-Serif" font-size="11.00">datepromised</text>
<polygon fill="none" stroke="black" points="169,-611 169,-633 278,-633 278,-611 169,-611"/>
<text text-anchor="start" x="172" y="-619.2" font-family="Helvetica,sans-Serif" font-size="11.00">timestamptz[35,6]</text>
<polygon fill="none" stroke="black" points="10,-589 10,-611 169,-611 169,-589 10,-589"/>
<text text-anchor="start" x="30" y="-597.2" font-family="Helvetica,sans-Serif" font-size="11.00">datestartschedule</text>
<polygon fill="none" stroke="black" points="169,-589 169,-611 278,-611 278,-589 169,-589"/>
<text text-anchor="start" x="172" y="-597.2" font-family="Helvetica,sans-Serif" font-size="11.00">timestamptz[35,6]</text>
<polygon fill="none" stroke="black" points="10,-567 10,-589 169,-589 169,-567 10,-567"/>
<text text-anchor="start" x="30" y="-575.2" font-family="Helvetica,sans-Serif" font-size="11.00">datefinishschedule</text>
<polygon fill="none" stroke="black" points="169,-567 169,-589 278,-589 278,-567 169,-567"/>
<text text-anchor="start" x="172" y="-575.2" font-family="Helvetica,sans-Serif" font-size="11.00">timestamptz[35,6]</text>
<polygon fill="none" stroke="black" points="10,-545 10,-567 169,-567 169,-545 10,-545"/>
<text text-anchor="start" x="30" y="-553.2" font-family="Helvetica,sans-Serif" font-size="11.00">datestart</text>
<polygon fill="none" stroke="black" points="169,-545 169,-567 278,-567 278,-545 169,-545"/>
<text text-anchor="start" x="172" y="-553.2" font-family="Helvetica,sans-Serif" font-size="11.00">timestamptz[35,6]</text>
<polygon fill="none" stroke="black" points="10,-523 10,-545 169,-545 169,-523 10,-523"/>
<text text-anchor="start" x="30" y="-531.2" font-family="Helvetica,sans-Serif" font-size="11.00">datesimulation</text>
<polygon fill="none" stroke="black" points="169,-523 169,-545 278,-545 278,-523 169,-523"/>
<text text-anchor="start" x="172" y="-531.2" font-family="Helvetica,sans-Serif" font-size="11.00">timestamptz[35,6]</text>
<polygon fill="none" stroke="black" points="10,-501 10,-523 169,-523 169,-501 10,-501"/>
<text text-anchor="start" x="30" y="-509.2" font-family="Helvetica,sans-Serif" font-size="11.00">docstatus</text>
<polygon fill="none" stroke="black" points="169,-501 169,-523 278,-523 278,-501 169,-501"/>
<text text-anchor="start" x="172" y="-509.2" font-family="Helvetica,sans-Serif" font-size="11.00">varchar[2147483647]</text>
<polygon fill="none" stroke="black" points="10,-479 10,-501 169,-501 169,-479 10,-479"/>
<text text-anchor="start" x="30" y="-487.2" font-family="Helvetica,sans-Serif" font-size="11.00">m_forecast_id</text>
<polygon fill="none" stroke="black" points="169,-479 169,-501 278,-501 278,-479 169,-479"/>
<text text-anchor="start" x="172" y="-487.2" font-family="Helvetica,sans-Serif" font-size="11.00">numeric[0]</text>
<polygon fill="none" stroke="black" points="10,-457 10,-479 169,-479 169,-457 10,-457"/>
<text text-anchor="start" x="30" y="-465.2" font-family="Helvetica,sans-Serif" font-size="11.00">m_forecastline_id</text>
<polygon fill="none" stroke="black" points="169,-457 169,-479 278,-479 278,-457 169,-457"/>
<text text-anchor="start" x="172" y="-465.2" font-family="Helvetica,sans-Serif" font-size="11.00">numeric[0]</text>
<polygon fill="none" stroke="black" points="10,-435 10,-457 169,-457 169,-435 10,-435"/>
<text text-anchor="start" x="30" y="-443.2" font-family="Helvetica,sans-Serif" font-size="11.00">value</text>
<polygon fill="none" stroke="black" points="169,-435 169,-457 278,-457 278,-435 169,-435"/>
<text text-anchor="start" x="172" y="-443.2" font-family="Helvetica,sans-Serif" font-size="11.00">varchar[2147483647]</text>
<polygon fill="none" stroke="black" points="10,-413 10,-435 169,-435 169,-413 10,-413"/>
<image xlink:href="../../images/foreignKeys.png" width="11px" height="12px" preserveAspectRatio="xMinYMin meet" x="15" y="-430"/>
<text text-anchor="start" x="30" y="-421.2" font-family="Helvetica,sans-Serif" font-size="11.00">m_product_id</text>
<polygon fill="none" stroke="black" points="169,-413 169,-435 278,-435 278,-413 169,-413"/>
<text text-anchor="start" x="172" y="-421.2" font-family="Helvetica,sans-Serif" font-size="11.00">numeric[10]</text>
<polygon fill="none" stroke="black" points="10,-391 10,-413 169,-413 169,-391 10,-391"/>
<text text-anchor="start" x="30" y="-399.2" font-family="Helvetica,sans-Serif" font-size="11.00">m_requisition_id</text>
<polygon fill="none" stroke="black" points="169,-391 169,-413 278,-413 278,-391 169,-391"/>
<text text-anchor="start" x="172" y="-399.2" font-family="Helvetica,sans-Serif" font-size="11.00">numeric[0]</text>
<polygon fill="none" stroke="black" points="10,-369 10,-391 169,-391 169,-369 10,-369"/>
<text text-anchor="start" x="30" y="-377.2" font-family="Helvetica,sans-Serif" font-size="11.00">m_requisitionline_id</text>
<polygon fill="none" stroke="black" points="169,-369 169,-391 278,-391 278,-369 169,-369"/>
<text text-anchor="start" x="172" y="-377.2" font-family="Helvetica,sans-Serif" font-size="11.00">numeric[0]</text>
<polygon fill="none" stroke="black" points="10,-347 10,-369 169,-369 169,-347 10,-347"/>
<image xlink:href="../../images/foreignKeys.png" width="11px" height="12px" preserveAspectRatio="xMinYMin meet" x="15" y="-364"/>
<text text-anchor="start" x="30" y="-355.2" font-family="Helvetica,sans-Serif" font-size="11.00">m_warehouse_id</text>
<polygon fill="none" stroke="black" points="169,-347 169,-369 278,-369 278,-347 169,-347"/>
<text text-anchor="start" x="172" y="-355.2" font-family="Helvetica,sans-Serif" font-size="11.00">numeric[10]</text>
<polygon fill="none" stroke="black" points="10,-325 10,-347 169,-347 169,-325 10,-325"/>
<text text-anchor="start" x="30" y="-333.2" font-family="Helvetica,sans-Serif" font-size="11.00">pp_order_id</text>
<polygon fill="none" stroke="black" points="169,-325 169,-347 278,-347 278,-325 169,-325"/>
<text text-anchor="start" x="172" y="-333.2" font-family="Helvetica,sans-Serif" font-size="11.00">numeric[0]</text>
<polygon fill="none" stroke="black" points="10,-303 10,-325 169,-325 169,-303 10,-303"/>
<text text-anchor="start" x="30" y="-311.2" font-family="Helvetica,sans-Serif" font-size="11.00">pp_order_bomline_id</text>
<polygon fill="none" stroke="black" points="169,-303 169,-325 278,-325 278,-303 169,-303"/>
<text text-anchor="start" x="172" y="-311.2" font-family="Helvetica,sans-Serif" font-size="11.00">numeric[0]</text>
<polygon fill="none" stroke="black" points="10,-281 10,-303 169,-303 169,-281 10,-281"/>
<text text-anchor="start" x="30" y="-289.2" font-family="Helvetica,sans-Serif" font-size="11.00">dd_order_id</text>
<polygon fill="none" stroke="black" points="169,-281 169,-303 278,-303 278,-281 169,-281"/>
<text text-anchor="start" x="172" y="-289.2" font-family="Helvetica,sans-Serif" font-size="11.00">numeric[0]</text>
<polygon fill="none" stroke="black" points="10,-259 10,-281 169,-281 169,-259 10,-259"/>
<text text-anchor="start" x="30" y="-267.2" font-family="Helvetica,sans-Serif" font-size="11.00">dd_orderline_id</text>
<polygon fill="none" stroke="black" points="169,-259 169,-281 278,-281 278,-259 169,-259"/>
<text text-anchor="start" x="172" y="-267.2" font-family="Helvetica,sans-Serif" font-size="11.00">numeric[0]</text>
<polygon fill="none" stroke="black" points="10,-237 10,-259 169,-259 169,-237 10,-237"/>
<text text-anchor="start" x="30" y="-245.2" font-family="Helvetica,sans-Serif" font-size="11.00">qty</text>
<polygon fill="none" stroke="black" points="169,-237 169,-259 278,-259 278,-237 169,-237"/>
<text text-anchor="start" x="172" y="-245.2" font-family="Helvetica,sans-Serif" font-size="11.00">numeric[0]</text>
<polygon fill="none" stroke="black" points="10,-215 10,-237 169,-237 169,-215 10,-215"/>
<image xlink:href="../../images/foreignKeys.png" width="11px" height="12px" preserveAspectRatio="xMinYMin meet" x="15" y="-232"/>
<text text-anchor="start" x="30" y="-223.2" font-family="Helvetica,sans-Serif" font-size="11.00">s_resource_id</text>
<polygon fill="none" stroke="black" points="169,-215 169,-237 278,-237 278,-215 169,-215"/>
<text text-anchor="start" x="172" y="-223.2" font-family="Helvetica,sans-Serif" font-size="11.00">numeric[10]</text>
<polygon fill="none" stroke="black" points="10,-193 10,-215 169,-215 169,-193 10,-193"/>
<text text-anchor="start" x="30" y="-201.2" font-family="Helvetica,sans-Serif" font-size="11.00">planner_id</text>
<polygon fill="none" stroke="black" points="169,-193 169,-215 278,-215 278,-193 169,-193"/>
<text text-anchor="start" x="172" y="-201.2" font-family="Helvetica,sans-Serif" font-size="11.00">numeric[0]</text>
<polygon fill="none" stroke="black" points="10,-171 10,-193 169,-193 169,-171 10,-171"/>
<text text-anchor="start" x="30" y="-179.2" font-family="Helvetica,sans-Serif" font-size="11.00">priority</text>
<polygon fill="none" stroke="black" points="169,-171 169,-193 278,-193 278,-171 169,-171"/>
<text text-anchor="start" x="172" y="-179.2" font-family="Helvetica,sans-Serif" font-size="11.00">varchar[2147483647]</text>
<polygon fill="none" stroke="black" points="10,-149 10,-171 169,-171 169,-149 10,-149"/>
<text text-anchor="start" x="30" y="-157.2" font-family="Helvetica,sans-Serif" font-size="11.00">ordertype</text>
<polygon fill="none" stroke="black" points="169,-149 169,-171 278,-171 278,-149 169,-149"/>
<text text-anchor="start" x="172" y="-157.2" font-family="Helvetica,sans-Serif" font-size="11.00">varchar[2147483647]</text>
<polygon fill="none" stroke="black" points="10,-127 10,-149 169,-149 169,-127 10,-127"/>
<text text-anchor="start" x="30" y="-135.2" font-family="Helvetica,sans-Serif" font-size="11.00">typemrp</text>
<polygon fill="none" stroke="black" points="169,-127 169,-149 278,-149 278,-127 169,-127"/>
<text text-anchor="start" x="172" y="-135.2" font-family="Helvetica,sans-Serif" font-size="11.00">bpchar[2147483647]</text>
<polygon fill="none" stroke="black" points="10,-105 10,-127 169,-127 169,-105 10,-105"/>
<text text-anchor="start" x="30" y="-113.2" font-family="Helvetica,sans-Serif" font-size="11.00">lowlevel</text>
<polygon fill="none" stroke="black" points="169,-105 169,-127 278,-127 278,-105 169,-105"/>
<text text-anchor="start" x="172" y="-113.2" font-family="Helvetica,sans-Serif" font-size="11.00">numeric[10]</text>
<polygon fill="none" stroke="black" points="10,-83 10,-105 169,-105 169,-83 10,-83"/>
<text text-anchor="start" x="30" y="-91.2" font-family="Helvetica,sans-Serif" font-size="11.00">c_bpartner_id</text>
<polygon fill="none" stroke="black" points="169,-83 169,-105 278,-105 278,-83 169,-83"/>
<text text-anchor="start" x="172" y="-91.2" font-family="Helvetica,sans-Serif" font-size="11.00">numeric[0]</text>
<polygon fill="none" stroke="black" points="10,-61 10,-83 169,-83 169,-61 10,-61"/>
<text text-anchor="start" x="30" y="-69.2" font-family="Helvetica,sans-Serif" font-size="11.00">version</text>
<polygon fill="none" stroke="black" points="169,-61 169,-83 278,-83 278,-61 169,-61"/>
<text text-anchor="start" x="172" y="-69.2" font-family="Helvetica,sans-Serif" font-size="11.00">numeric[0]</text>
<polygon fill="none" stroke="black" points="10,-39 10,-61 169,-61 169,-39 10,-39"/>
<text text-anchor="start" x="30" y="-47.2" font-family="Helvetica,sans-Serif" font-size="11.00">documentno</text>
<polygon fill="none" stroke="black" points="169,-39 169,-61 278,-61 278,-39 169,-39"/>
<text text-anchor="start" x="172" y="-47.2" font-family="Helvetica,sans-Serif" font-size="11.00">varchar[2147483647]</text>
<polygon fill="none" stroke="black" stroke-width="2" points="9,-38 9,-1008 279,-1008 279,-38 9,-38"/>
</a>
</g>
</g>
</g>
</svg>
