<?xml version="1.0" encoding="UTF-8" standalone="no"?>
<!DOCTYPE svg PUBLIC "-//W3C//DTD SVG 1.1//EN"
 "http://www.w3.org/Graphics/SVG/1.1/DTD/svg11.dtd">
<!-- Generated by graphviz version 2.43.0 (0)
 -->
<!-- Title: oneDegreeRelationshipsDiagramImplied Pages: 1 -->
<svg width="555pt" height="405pt"
 viewBox="0.00 0.00 555.00 405.00" xmlns="http://www.w3.org/2000/svg" xmlns:xlink="http://www.w3.org/1999/xlink">
<g id="graph0" class="graph" transform="scale(1 1) rotate(0) translate(4 401)">
<title>oneDegreeRelationshipsDiagramImplied</title>
<polygon fill="#ffffff" stroke="transparent" points="-4,4 -4,-401 551,-401 551,4 -4,4"/>
<text text-anchor="middle" x="71.5" y="-7.2" font-family="Helvetica,sans-Serif" font-size="11.00">Generated by SchemaSpy</text>
<!-- rv_query_for_manual -->
<g id="node1" class="node">
<title>rv_query_for_manual</title>
<g id="a_node1"><a xlink:href="../../tables/rv_query_for_manual.html" xlink:title="rv_query_for_manual" target="_top">
<polygon fill="#ffffff" stroke="transparent" points="265,-37 265,-393 539,-393 539,-37 265,-37"/>
<polygon fill="#f5f5f5" stroke="transparent" points="267,-369 267,-391 537,-391 537,-369 267,-369"/>
<polygon fill="none" stroke="black" points="267,-369 267,-391 537,-391 537,-369 267,-369"/>
<text text-anchor="start" x="272" y="-378.2" font-family="Helvetica,sans-Serif" font-weight="bold" font-size="11.00">rv_query_for_manual</text>
<text text-anchor="start" x="504" y="-377.2" font-family="Helvetica,sans-Serif" font-size="11.00">[view]</text>
<polygon fill="none" stroke="black" points="267,-347 267,-369 428,-369 428,-347 267,-347"/>
<text text-anchor="start" x="287" y="-355.2" font-family="Helvetica,sans-Serif" font-size="11.00">ad_language</text>
<polygon fill="none" stroke="black" points="428,-347 428,-369 537,-369 537,-347 428,-347"/>
<text text-anchor="start" x="431" y="-355.2" font-family="Helvetica,sans-Serif" font-size="11.00">varchar[2147483647]</text>
<polygon fill="none" stroke="black" points="267,-325 267,-347 428,-347 428,-325 267,-325"/>
<image xlink:href="../../images/foreignKeys.png" width="11px" height="12px" preserveAspectRatio="xMinYMin meet" x="272" y="-342"/>
<text text-anchor="start" x="287" y="-333.2" font-family="Helvetica,sans-Serif" font-size="11.00">ad_window_id</text>
<polygon fill="none" stroke="black" points="428,-325 428,-347 537,-347 537,-325 428,-325"/>
<text text-anchor="start" x="431" y="-333.2" font-family="Helvetica,sans-Serif" font-size="11.00">numeric[10]</text>
<polygon fill="none" stroke="black" points="267,-303 267,-325 428,-325 428,-303 267,-303"/>
<text text-anchor="start" x="287" y="-311.2" font-family="Helvetica,sans-Serif" font-size="11.00">ad_tab_id</text>
<polygon fill="none" stroke="black" points="428,-303 428,-325 537,-325 537,-303 428,-303"/>
<text text-anchor="start" x="431" y="-311.2" font-family="Helvetica,sans-Serif" font-size="11.00">numeric[0]</text>
<polygon fill="none" stroke="black" points="267,-281 267,-303 428,-303 428,-281 267,-281"/>
<text text-anchor="start" x="287" y="-289.2" font-family="Helvetica,sans-Serif" font-size="11.00">ad_field_id</text>
<polygon fill="none" stroke="black" points="428,-281 428,-303 537,-303 537,-281 428,-281"/>
<text text-anchor="start" x="431" y="-289.2" font-family="Helvetica,sans-Serif" font-size="11.00">numeric[0]</text>
<polygon fill="none" stroke="black" points="267,-259 267,-281 428,-281 428,-259 267,-259"/>
<text text-anchor="start" x="287" y="-267.2" font-family="Helvetica,sans-Serif" font-size="11.00">type</text>
<polygon fill="none" stroke="black" points="428,-259 428,-281 537,-281 537,-259 428,-259"/>
<text text-anchor="start" x="431" y="-267.2" font-family="Helvetica,sans-Serif" font-size="11.00">text[2147483647]</text>
<polygon fill="none" stroke="black" points="267,-237 267,-259 428,-259 428,-237 267,-237"/>
<text text-anchor="start" x="287" y="-245.2" font-family="Helvetica,sans-Serif" font-size="11.00">name</text>
<polygon fill="none" stroke="black" points="428,-237 428,-259 537,-259 537,-237 428,-237"/>
<text text-anchor="start" x="431" y="-245.2" font-family="Helvetica,sans-Serif" font-size="11.00">varchar[60]</text>
<polygon fill="none" stroke="black" points="267,-215 267,-237 428,-237 428,-215 267,-215"/>
<text text-anchor="start" x="287" y="-223.2" font-family="Helvetica,sans-Serif" font-size="11.00">description</text>
<polygon fill="none" stroke="black" points="428,-215 428,-237 537,-237 537,-215 428,-215"/>
<text text-anchor="start" x="431" y="-223.2" font-family="Helvetica,sans-Serif" font-size="11.00">varchar[255]</text>
<polygon fill="none" stroke="black" points="267,-193 267,-215 428,-215 428,-193 267,-193"/>
<text text-anchor="start" x="287" y="-201.2" font-family="Helvetica,sans-Serif" font-size="11.00">help</text>
<polygon fill="none" stroke="black" points="428,-193 428,-215 537,-215 537,-193 428,-193"/>
<text text-anchor="start" x="431" y="-201.2" font-family="Helvetica,sans-Serif" font-size="11.00">varchar[2000]</text>
<polygon fill="none" stroke="black" points="267,-171 267,-193 428,-193 428,-171 267,-171"/>
<text text-anchor="start" x="287" y="-179.2" font-family="Helvetica,sans-Serif" font-size="11.00">seqtab</text>
<polygon fill="none" stroke="black" points="428,-171 428,-193 537,-193 537,-171 428,-171"/>
<text text-anchor="start" x="431" y="-179.2" font-family="Helvetica,sans-Serif" font-size="11.00">numeric[0]</text>
<polygon fill="none" stroke="black" points="267,-149 267,-171 428,-171 428,-149 267,-149"/>
<text text-anchor="start" x="287" y="-157.2" font-family="Helvetica,sans-Serif" font-size="11.00">seqfld</text>
<polygon fill="none" stroke="black" points="428,-149 428,-171 537,-171 537,-149 428,-149"/>
<text text-anchor="start" x="431" y="-157.2" font-family="Helvetica,sans-Serif" font-size="11.00">numeric[0]</text>
<polygon fill="none" stroke="black" points="267,-127 267,-149 428,-149 428,-127 267,-127"/>
<text text-anchor="start" x="287" y="-135.2" font-family="Helvetica,sans-Serif" font-size="11.00">dbtable</text>
<polygon fill="none" stroke="black" points="428,-127 428,-149 537,-149 537,-127 428,-127"/>
<text text-anchor="start" x="431" y="-135.2" font-family="Helvetica,sans-Serif" font-size="11.00">varchar[2147483647]</text>
<polygon fill="none" stroke="black" points="267,-105 267,-127 428,-127 428,-105 267,-105"/>
<text text-anchor="start" x="287" y="-113.2" font-family="Helvetica,sans-Serif" font-size="11.00">dbcolumn</text>
<polygon fill="none" stroke="black" points="428,-105 428,-127 537,-127 537,-105 428,-105"/>
<text text-anchor="start" x="431" y="-113.2" font-family="Helvetica,sans-Serif" font-size="11.00">text[2147483647]</text>
<polygon fill="none" stroke="black" points="267,-83 267,-105 428,-105 428,-83 267,-83"/>
<text text-anchor="start" x="287" y="-91.2" font-family="Helvetica,sans-Serif" font-size="11.00">dbtype</text>
<polygon fill="none" stroke="black" points="428,-83 428,-105 537,-105 537,-83 428,-83"/>
<text text-anchor="start" x="431" y="-91.2" font-family="Helvetica,sans-Serif" font-size="11.00">text[2147483647]</text>
<polygon fill="none" stroke="black" points="267,-61 267,-83 428,-83 428,-61 267,-61"/>
<text text-anchor="start" x="287" y="-69.2" font-family="Helvetica,sans-Serif" font-size="11.00">adempieretype</text>
<polygon fill="none" stroke="black" points="428,-61 428,-83 537,-83 537,-61 428,-61"/>
<text text-anchor="start" x="431" y="-69.2" font-family="Helvetica,sans-Serif" font-size="11.00">text[2147483647]</text>
<polygon fill="none" stroke="black" points="267,-39 267,-61 428,-61 428,-39 267,-39"/>
<text text-anchor="start" x="287" y="-47.2" font-family="Helvetica,sans-Serif" font-size="11.00">isbetafunctionality</text>
<polygon fill="none" stroke="black" points="428,-39 428,-61 537,-61 537,-39 428,-39"/>
<text text-anchor="start" x="431" y="-47.2" font-family="Helvetica,sans-Serif" font-size="11.00">bpchar[2147483647]</text>
<polygon fill="none" stroke="black" stroke-width="2" points="266,-38 266,-392 538,-392 538,-38 266,-38"/>
</a>
</g>
</g>
<!-- ad_window -->
<g id="node2" class="node">
<title>ad_window</title>
<g id="a_node2"><a xlink:href="../../tables/ad_window.html" xlink:title="ad_window" target="_top">
<polygon fill="#ffffff" stroke="transparent" points="8,-135 8,-369 216,-369 216,-135 8,-135"/>
<polygon fill="#f5f5f5" stroke="transparent" points="8,-347 8,-369 216,-369 216,-347 8,-347"/>
<polygon fill="none" stroke="black" points="8,-347 8,-369 216,-369 216,-347 8,-347"/>
<text text-anchor="start" x="13" y="-356.2" font-family="Helvetica,sans-Serif" font-weight="bold" font-size="11.00">ad_window</text>
<text text-anchor="start" x="181" y="-355.2" font-family="Helvetica,sans-Serif" font-size="11.00">[table]</text>
<polygon fill="none" stroke="black" points="8,-325 8,-347 216,-347 216,-325 8,-325"/>
<image xlink:href="../../images/primaryKeys.png" width="11px" height="12px" preserveAspectRatio="xMinYMin meet" x="13" y="-342"/>
<text text-anchor="start" x="28" y="-333.2" font-family="Helvetica,sans-Serif" font-size="11.00">ad_window_id</text>
<polygon fill="#ffffff" stroke="transparent" points="8,-303 8,-325 216,-325 216,-303 8,-303"/>
<polygon fill="none" stroke="black" points="8,-303 8,-325 216,-325 216,-303 8,-303"/>
<image xlink:href="../../images/foreignKeys.png" width="11px" height="12px" preserveAspectRatio="xMinYMin meet" x="13" y="-320"/>
<text text-anchor="start" x="28" y="-311.2" font-family="Helvetica,sans-Serif" font-size="11.00">ad_client_id</text>
<polygon fill="none" stroke="black" points="8,-281 8,-303 216,-303 216,-281 8,-281"/>
<image xlink:href="../../images/foreignKeys.png" width="11px" height="12px" preserveAspectRatio="xMinYMin meet" x="13" y="-298"/>
<text text-anchor="start" x="28" y="-289.2" font-family="Helvetica,sans-Serif" font-size="11.00">ad_org_id</text>
<polygon fill="#ffffff" stroke="transparent" points="8,-259 8,-281 216,-281 216,-259 8,-259"/>
<polygon fill="none" stroke="black" points="8,-259 8,-281 216,-281 216,-259 8,-259"/>
<text text-anchor="start" x="28" y="-267.2" font-family="Helvetica,sans-Serif" font-size="11.00">name</text>
<polygon fill="none" stroke="black" points="8,-237 8,-259 216,-259 216,-237 8,-237"/>
<image xlink:href="../../images/foreignKeys.png" width="11px" height="12px" preserveAspectRatio="xMinYMin meet" x="13" y="-254"/>
<text text-anchor="start" x="28" y="-245.2" font-family="Helvetica,sans-Serif" font-size="11.00">entitytype</text>
<polygon fill="none" stroke="black" points="8,-215 8,-237 216,-237 216,-215 8,-215"/>
<image xlink:href="../../images/foreignKeys.png" width="11px" height="12px" preserveAspectRatio="xMinYMin meet" x="13" y="-232"/>
<text text-anchor="start" x="28" y="-223.2" font-family="Helvetica,sans-Serif" font-size="11.00">ad_image_id</text>
<polygon fill="none" stroke="black" points="8,-193 8,-215 216,-215 216,-193 8,-193"/>
<image xlink:href="../../images/foreignKeys.png" width="11px" height="12px" preserveAspectRatio="xMinYMin meet" x="13" y="-210"/>
<text text-anchor="start" x="28" y="-201.2" font-family="Helvetica,sans-Serif" font-size="11.00">ad_color_id</text>
<polygon fill="#ffffff" stroke="transparent" points="8,-171 8,-193 216,-193 216,-171 8,-171"/>
<polygon fill="none" stroke="black" points="8,-171 8,-193 216,-193 216,-171 8,-171"/>
<text text-anchor="start" x="28" y="-179.2" font-family="Helvetica,sans-Serif" font-size="11.00">ad_window_uu</text>
<polygon fill="none" stroke="black" points="8,-153 8,-171 216,-171 216,-153 8,-153"/>
<text text-anchor="start" x="11" y="-159.2" font-family="Helvetica,sans-Serif" font-size="11.00">...</text>
<polygon fill="#ffffff" stroke="transparent" points="8,-135 8,-153 83,-153 83,-135 8,-135"/>
<polygon fill="none" stroke="black" points="8,-135 8,-153 83,-153 83,-135 8,-135"/>
<text text-anchor="start" x="11" y="-141.2" font-family="Helvetica,sans-Serif" font-size="11.00">&lt; 5</text>
<polygon fill="#ffffff" stroke="transparent" points="83,-135 83,-153 161,-153 161,-135 83,-135"/>
<polygon fill="none" stroke="black" points="83,-135 83,-153 161,-153 161,-135 83,-135"/>
<text text-anchor="start" x="113" y="-141.2" font-family="Helvetica,sans-Serif" font-size="11.00">582 rows</text>
<polygon fill="#ffffff" stroke="transparent" points="161,-135 161,-153 216,-153 216,-135 161,-135"/>
<polygon fill="none" stroke="black" points="161,-135 161,-153 216,-153 216,-135 161,-135"/>
<text text-anchor="start" x="191" y="-141.2" font-family="Helvetica,sans-Serif" font-size="11.00">40 &gt;</text>
</a>
</g>
</g>
<!-- rv_query_for_manual&#45;&gt;ad_window -->
<g id="edge1" class="edge">
<title>rv_query_for_manual:w&#45;&gt;ad_window:e</title>
<path fill="none" stroke="black" stroke-dasharray="5,2" d="M251.49,-336C240.18,-336 232.99,-336 217,-336"/>
<polygon fill="black" stroke="black" points="258,-336 266,-339.6 262,-336 266,-336 266,-336 266,-336 262,-336 266,-332.4 258,-336 258,-336"/>
<ellipse fill="none" stroke="black" cx="254.8" cy="-336" rx="3.2" ry="3.2"/>
</g>
</g>
</svg>
