<?xml version="1.0" encoding="UTF-8" standalone="no"?>
<!DOCTYPE svg PUBLIC "-//W3C//DTD SVG 1.1//EN"
 "http://www.w3.org/Graphics/SVG/1.1/DTD/svg11.dtd">
<!-- Generated by graphviz version 2.43.0 (0)
 -->
<!-- Title: oneDegreeRelationshipsDiagram Pages: 1 -->
<svg width="847pt" height="807pt"
 viewBox="0.00 0.00 847.00 807.00" xmlns="http://www.w3.org/2000/svg" xmlns:xlink="http://www.w3.org/1999/xlink">
<g id="graph0" class="graph" transform="scale(1 1) rotate(0) translate(4 803)">
<title>oneDegreeRelationshipsDiagram</title>
<polygon fill="#ffffff" stroke="transparent" points="-4,4 -4,-803 843,-803 843,4 -4,4"/>
<text text-anchor="middle" x="71.5" y="-7.2" font-family="Helvetica,sans-Serif" font-size="11.00">Generated by SchemaSpy</text>
<!-- m_product -->
<g id="node1" class="node">
<title>m_product</title>
<g id="a_node1"><a xlink:href="../../tables/m_product.html" xlink:title="m_product" target="_top">
<polygon fill="#ffffff" stroke="transparent" points="596,-55 596,-795 831,-795 831,-55 596,-55"/>
<polygon fill="#f5f5f5" stroke="transparent" points="596.5,-773 596.5,-795 831.5,-795 831.5,-773 596.5,-773"/>
<polygon fill="none" stroke="black" points="596.5,-773 596.5,-795 831.5,-795 831.5,-773 596.5,-773"/>
<text text-anchor="start" x="601.5" y="-782.2" font-family="Helvetica,sans-Serif" font-weight="bold" font-size="11.00">m_product</text>
<text text-anchor="start" x="796.5" y="-781.2" font-family="Helvetica,sans-Serif" font-size="11.00">[table]</text>
<polygon fill="none" stroke="black" points="596.5,-751 596.5,-773 831.5,-773 831.5,-751 596.5,-751"/>
<image xlink:href="../../images/primaryKeys.png" width="11px" height="12px" preserveAspectRatio="xMinYMin meet" x="601.5" y="-768"/>
<text text-anchor="start" x="616.5" y="-759.2" font-family="Helvetica,sans-Serif" font-size="11.00">m_product_id</text>
<polygon fill="#ffffff" stroke="transparent" points="596.5,-729 596.5,-751 831.5,-751 831.5,-729 596.5,-729"/>
<polygon fill="none" stroke="black" points="596.5,-729 596.5,-751 831.5,-751 831.5,-729 596.5,-729"/>
<image xlink:href="../../images/foreignKeys.png" width="11px" height="12px" preserveAspectRatio="xMinYMin meet" x="601.5" y="-746"/>
<text text-anchor="start" x="616.5" y="-737.2" font-family="Helvetica,sans-Serif" font-size="11.00">ad_client_id</text>
<polygon fill="none" stroke="black" points="596.5,-707 596.5,-729 831.5,-729 831.5,-707 596.5,-707"/>
<image xlink:href="../../images/foreignKeys.png" width="11px" height="12px" preserveAspectRatio="xMinYMin meet" x="601.5" y="-724"/>
<text text-anchor="start" x="616.5" y="-715.2" font-family="Helvetica,sans-Serif" font-size="11.00">ad_org_id</text>
<polygon fill="#ffffff" stroke="transparent" points="596.5,-685 596.5,-707 831.5,-707 831.5,-685 596.5,-685"/>
<polygon fill="none" stroke="black" points="596.5,-685 596.5,-707 831.5,-707 831.5,-685 596.5,-685"/>
<text text-anchor="start" x="616.5" y="-693.2" font-family="Helvetica,sans-Serif" font-size="11.00">value</text>
<polygon fill="#ffffff" stroke="transparent" points="596.5,-663 596.5,-685 831.5,-685 831.5,-663 596.5,-663"/>
<polygon fill="none" stroke="black" points="596.5,-663 596.5,-685 831.5,-685 831.5,-663 596.5,-663"/>
<text text-anchor="start" x="616.5" y="-671.2" font-family="Helvetica,sans-Serif" font-size="11.00">name</text>
<polygon fill="#ffffff" stroke="transparent" points="596.5,-641 596.5,-663 831.5,-663 831.5,-641 596.5,-641"/>
<polygon fill="none" stroke="black" points="596.5,-641 596.5,-663 831.5,-663 831.5,-641 596.5,-641"/>
<text text-anchor="start" x="616.5" y="-649.2" font-family="Helvetica,sans-Serif" font-size="11.00">upc</text>
<polygon fill="none" stroke="black" points="596.5,-619 596.5,-641 831.5,-641 831.5,-619 596.5,-619"/>
<image xlink:href="../../images/foreignKeys.png" width="11px" height="12px" preserveAspectRatio="xMinYMin meet" x="601.5" y="-636"/>
<text text-anchor="start" x="616.5" y="-627.2" font-family="Helvetica,sans-Serif" font-size="11.00">c_uom_id</text>
<polygon fill="none" stroke="black" points="596.5,-597 596.5,-619 831.5,-619 831.5,-597 596.5,-597"/>
<image xlink:href="../../images/foreignKeys.png" width="11px" height="12px" preserveAspectRatio="xMinYMin meet" x="601.5" y="-614"/>
<text text-anchor="start" x="616.5" y="-605.2" font-family="Helvetica,sans-Serif" font-size="11.00">salesrep_id</text>
<polygon fill="none" stroke="black" points="596.5,-575 596.5,-597 831.5,-597 831.5,-575 596.5,-575"/>
<image xlink:href="../../images/foreignKeys.png" width="11px" height="12px" preserveAspectRatio="xMinYMin meet" x="601.5" y="-592"/>
<text text-anchor="start" x="616.5" y="-583.2" font-family="Helvetica,sans-Serif" font-size="11.00">c_revenuerecognition_id</text>
<polygon fill="#ffffff" stroke="transparent" points="596.5,-553 596.5,-575 831.5,-575 831.5,-553 596.5,-553"/>
<polygon fill="none" stroke="black" points="596.5,-553 596.5,-575 831.5,-575 831.5,-553 596.5,-553"/>
<image xlink:href="../../images/foreignKeys.png" width="11px" height="12px" preserveAspectRatio="xMinYMin meet" x="601.5" y="-570"/>
<text text-anchor="start" x="616.5" y="-561.2" font-family="Helvetica,sans-Serif" font-size="11.00">m_product_category_id</text>
<polygon fill="none" stroke="black" points="596.5,-531 596.5,-553 831.5,-553 831.5,-531 596.5,-531"/>
<image xlink:href="../../images/foreignKeys.png" width="11px" height="12px" preserveAspectRatio="xMinYMin meet" x="601.5" y="-548"/>
<text text-anchor="start" x="616.5" y="-539.2" font-family="Helvetica,sans-Serif" font-size="11.00">c_taxcategory_id</text>
<polygon fill="#ffffff" stroke="transparent" points="596.5,-509 596.5,-531 831.5,-531 831.5,-509 596.5,-509"/>
<polygon fill="none" stroke="black" points="596.5,-509 596.5,-531 831.5,-531 831.5,-509 596.5,-509"/>
<image xlink:href="../../images/foreignKeys.png" width="11px" height="12px" preserveAspectRatio="xMinYMin meet" x="601.5" y="-526"/>
<text text-anchor="start" x="616.5" y="-517.2" font-family="Helvetica,sans-Serif" font-size="11.00">s_resource_id</text>
<polygon fill="#ffffff" stroke="transparent" points="596.5,-487 596.5,-509 831.5,-509 831.5,-487 596.5,-487"/>
<polygon fill="none" stroke="black" points="596.5,-487 596.5,-509 831.5,-509 831.5,-487 596.5,-487"/>
<image xlink:href="../../images/foreignKeys.png" width="11px" height="12px" preserveAspectRatio="xMinYMin meet" x="601.5" y="-504"/>
<text text-anchor="start" x="616.5" y="-495.2" font-family="Helvetica,sans-Serif" font-size="11.00">s_expensetype_id</text>
<polygon fill="none" stroke="black" points="596.5,-465 596.5,-487 831.5,-487 831.5,-465 596.5,-465"/>
<image xlink:href="../../images/foreignKeys.png" width="11px" height="12px" preserveAspectRatio="xMinYMin meet" x="601.5" y="-482"/>
<text text-anchor="start" x="616.5" y="-473.2" font-family="Helvetica,sans-Serif" font-size="11.00">r_mailtext_id</text>
<polygon fill="none" stroke="black" points="596.5,-443 596.5,-465 831.5,-465 831.5,-443 596.5,-443"/>
<image xlink:href="../../images/foreignKeys.png" width="11px" height="12px" preserveAspectRatio="xMinYMin meet" x="601.5" y="-460"/>
<text text-anchor="start" x="616.5" y="-451.2" font-family="Helvetica,sans-Serif" font-size="11.00">m_attributeset_id</text>
<polygon fill="none" stroke="black" points="596.5,-421 596.5,-443 831.5,-443 831.5,-421 596.5,-421"/>
<image xlink:href="../../images/foreignKeys.png" width="11px" height="12px" preserveAspectRatio="xMinYMin meet" x="601.5" y="-438"/>
<text text-anchor="start" x="616.5" y="-429.2" font-family="Helvetica,sans-Serif" font-size="11.00">m_attributesetinstance_id</text>
<polygon fill="none" stroke="black" points="596.5,-399 596.5,-421 831.5,-421 831.5,-399 596.5,-399"/>
<image xlink:href="../../images/foreignKeys.png" width="11px" height="12px" preserveAspectRatio="xMinYMin meet" x="601.5" y="-416"/>
<text text-anchor="start" x="616.5" y="-407.2" font-family="Helvetica,sans-Serif" font-size="11.00">m_freightcategory_id</text>
<polygon fill="none" stroke="black" points="596.5,-377 596.5,-399 831.5,-399 831.5,-377 596.5,-377"/>
<image xlink:href="../../images/foreignKeys.png" width="11px" height="12px" preserveAspectRatio="xMinYMin meet" x="601.5" y="-394"/>
<text text-anchor="start" x="616.5" y="-385.2" font-family="Helvetica,sans-Serif" font-size="11.00">m_locator_id</text>
<polygon fill="none" stroke="black" points="596.5,-355 596.5,-377 831.5,-377 831.5,-355 596.5,-355"/>
<image xlink:href="../../images/foreignKeys.png" width="11px" height="12px" preserveAspectRatio="xMinYMin meet" x="601.5" y="-372"/>
<text text-anchor="start" x="616.5" y="-363.2" font-family="Helvetica,sans-Serif" font-size="11.00">c_subscriptiontype_id</text>
<polygon fill="#ffffff" stroke="transparent" points="596.5,-333 596.5,-355 831.5,-355 831.5,-333 596.5,-333"/>
<polygon fill="none" stroke="black" points="596.5,-333 596.5,-355 831.5,-355 831.5,-333 596.5,-333"/>
<text text-anchor="start" x="616.5" y="-341.2" font-family="Helvetica,sans-Serif" font-size="11.00">m_product_uu</text>
<polygon fill="none" stroke="black" points="596.5,-311 596.5,-333 831.5,-333 831.5,-311 596.5,-311"/>
<image xlink:href="../../images/foreignKeys.png" width="11px" height="12px" preserveAspectRatio="xMinYMin meet" x="601.5" y="-328"/>
<text text-anchor="start" x="616.5" y="-319.2" font-family="Helvetica,sans-Serif" font-size="11.00">m_parttype_id</text>
<polygon fill="none" stroke="black" points="596.5,-289 596.5,-311 831.5,-311 831.5,-289 596.5,-289"/>
<image xlink:href="../../images/foreignKeys.png" width="11px" height="12px" preserveAspectRatio="xMinYMin meet" x="601.5" y="-306"/>
<text text-anchor="start" x="616.5" y="-297.2" font-family="Helvetica,sans-Serif" font-size="11.00">lbr_productcategory_id</text>
<polygon fill="none" stroke="black" points="596.5,-267 596.5,-289 831.5,-289 831.5,-267 596.5,-267"/>
<image xlink:href="../../images/foreignKeys.png" width="11px" height="12px" preserveAspectRatio="xMinYMin meet" x="601.5" y="-284"/>
<text text-anchor="start" x="616.5" y="-275.2" font-family="Helvetica,sans-Serif" font-size="11.00">lbr_ncm_id</text>
<polygon fill="none" stroke="black" points="596.5,-245 596.5,-267 831.5,-267 831.5,-245 596.5,-245"/>
<image xlink:href="../../images/foreignKeys.png" width="11px" height="12px" preserveAspectRatio="xMinYMin meet" x="601.5" y="-262"/>
<text text-anchor="start" x="616.5" y="-253.2" font-family="Helvetica,sans-Serif" font-size="11.00">lbr_fiscalgroup_product_id</text>
<polygon fill="none" stroke="black" points="596.5,-223 596.5,-245 831.5,-245 831.5,-223 596.5,-223"/>
<image xlink:href="../../images/foreignKeys.png" width="11px" height="12px" preserveAspectRatio="xMinYMin meet" x="601.5" y="-240"/>
<text text-anchor="start" x="616.5" y="-231.2" font-family="Helvetica,sans-Serif" font-size="11.00">cof_cest_id</text>
<polygon fill="none" stroke="black" points="596.5,-201 596.5,-223 831.5,-223 831.5,-201 596.5,-201"/>
<image xlink:href="../../images/foreignKeys.png" width="11px" height="12px" preserveAspectRatio="xMinYMin meet" x="601.5" y="-218"/>
<text text-anchor="start" x="616.5" y="-209.2" font-family="Helvetica,sans-Serif" font-size="11.00">cof_c_generoitem_sped_id</text>
<polygon fill="none" stroke="black" points="596.5,-179 596.5,-201 831.5,-201 831.5,-179 596.5,-179"/>
<image xlink:href="../../images/foreignKeys.png" width="11px" height="12px" preserveAspectRatio="xMinYMin meet" x="601.5" y="-196"/>
<text text-anchor="start" x="616.5" y="-187.2" font-family="Helvetica,sans-Serif" font-size="11.00">cof_producttype_id</text>
<polygon fill="none" stroke="black" points="596.5,-157 596.5,-179 831.5,-179 831.5,-157 596.5,-157"/>
<image xlink:href="../../images/foreignKeys.png" width="11px" height="12px" preserveAspectRatio="xMinYMin meet" x="601.5" y="-174"/>
<text text-anchor="start" x="616.5" y="-165.2" font-family="Helvetica,sans-Serif" font-size="11.00">cof_productclass_id</text>
<polygon fill="none" stroke="black" points="596.5,-135 596.5,-157 831.5,-157 831.5,-135 596.5,-135"/>
<image xlink:href="../../images/foreignKeys.png" width="11px" height="12px" preserveAspectRatio="xMinYMin meet" x="601.5" y="-152"/>
<text text-anchor="start" x="616.5" y="-143.2" font-family="Helvetica,sans-Serif" font-size="11.00">cof_productgroup_id</text>
<polygon fill="none" stroke="black" points="596.5,-113 596.5,-135 831.5,-135 831.5,-113 596.5,-113"/>
<image xlink:href="../../images/foreignKeys.png" width="11px" height="12px" preserveAspectRatio="xMinYMin meet" x="601.5" y="-130"/>
<text text-anchor="start" x="616.5" y="-121.2" font-family="Helvetica,sans-Serif" font-size="11.00">cof_nbs_id</text>
<polygon fill="none" stroke="black" points="596.5,-91 596.5,-113 831.5,-113 831.5,-91 596.5,-91"/>
<image xlink:href="../../images/foreignKeys.png" width="11px" height="12px" preserveAspectRatio="xMinYMin meet" x="601.5" y="-108"/>
<text text-anchor="start" x="616.5" y="-99.2" font-family="Helvetica,sans-Serif" font-size="11.00">cof_grupofornecedor_id</text>
<polygon fill="none" stroke="black" points="596.5,-73 596.5,-91 831.5,-91 831.5,-73 596.5,-73"/>
<text text-anchor="start" x="599.5" y="-79.2" font-family="Helvetica,sans-Serif" font-size="11.00">...</text>
<polygon fill="#ffffff" stroke="transparent" points="596.5,-55 596.5,-73 693.5,-73 693.5,-55 596.5,-55"/>
<polygon fill="none" stroke="black" points="596.5,-55 596.5,-73 693.5,-73 693.5,-55 596.5,-55"/>
<text text-anchor="start" x="599.5" y="-61.2" font-family="Helvetica,sans-Serif" font-size="11.00">&lt; 22</text>
<polygon fill="#ffffff" stroke="transparent" points="693.5,-55 693.5,-73 762.5,-73 762.5,-55 693.5,-55"/>
<polygon fill="none" stroke="black" points="693.5,-55 693.5,-73 762.5,-73 762.5,-55 693.5,-55"/>
<text text-anchor="start" x="731.5" y="-61.2" font-family="Helvetica,sans-Serif" font-size="11.00">1 row</text>
<polygon fill="#ffffff" stroke="transparent" points="762.5,-55 762.5,-73 831.5,-73 831.5,-55 762.5,-55"/>
<polygon fill="none" stroke="black" points="762.5,-55 762.5,-73 831.5,-73 831.5,-55 762.5,-55"/>
<text text-anchor="start" x="800.5" y="-61.2" font-family="Helvetica,sans-Serif" font-size="11.00">172 &gt;</text>
</a>
</g>
</g>
<!-- c_taxcategory -->
<g id="node2" class="node">
<title>c_taxcategory</title>
<g id="a_node2"><a xlink:href="../../tables/c_taxcategory.html" xlink:title="c_taxcategory" target="_top">
<polygon fill="#ffffff" stroke="transparent" points="52.5,-37 52.5,-183 190.5,-183 190.5,-37 52.5,-37"/>
<polygon fill="#f5f5f5" stroke="transparent" points="52.5,-161 52.5,-183 190.5,-183 190.5,-161 52.5,-161"/>
<polygon fill="none" stroke="black" points="52.5,-161 52.5,-183 190.5,-183 190.5,-161 52.5,-161"/>
<text text-anchor="start" x="57.5" y="-170.2" font-family="Helvetica,sans-Serif" font-weight="bold" font-size="11.00">c_taxcategory</text>
<text text-anchor="start" x="155.5" y="-169.2" font-family="Helvetica,sans-Serif" font-size="11.00">[table]</text>
<polygon fill="none" stroke="black" points="52.5,-139 52.5,-161 190.5,-161 190.5,-139 52.5,-139"/>
<image xlink:href="../../images/primaryKeys.png" width="11px" height="12px" preserveAspectRatio="xMinYMin meet" x="57.5" y="-156"/>
<text text-anchor="start" x="72.5" y="-147.2" font-family="Helvetica,sans-Serif" font-size="11.00">c_taxcategory_id</text>
<polygon fill="#ffffff" stroke="transparent" points="52.5,-117 52.5,-139 190.5,-139 190.5,-117 52.5,-117"/>
<polygon fill="none" stroke="black" points="52.5,-117 52.5,-139 190.5,-139 190.5,-117 52.5,-117"/>
<text text-anchor="start" x="72.5" y="-125.2" font-family="Helvetica,sans-Serif" font-size="11.00">ad_client_id</text>
<polygon fill="#ffffff" stroke="transparent" points="52.5,-95 52.5,-117 190.5,-117 190.5,-95 52.5,-95"/>
<polygon fill="none" stroke="black" points="52.5,-95 52.5,-117 190.5,-117 190.5,-95 52.5,-95"/>
<text text-anchor="start" x="72.5" y="-103.2" font-family="Helvetica,sans-Serif" font-size="11.00">name</text>
<polygon fill="#ffffff" stroke="transparent" points="52.5,-73 52.5,-95 190.5,-95 190.5,-73 52.5,-73"/>
<polygon fill="none" stroke="black" points="52.5,-73 52.5,-95 190.5,-95 190.5,-73 52.5,-73"/>
<text text-anchor="start" x="72.5" y="-81.2" font-family="Helvetica,sans-Serif" font-size="11.00">c_taxcategory_uu</text>
<polygon fill="none" stroke="black" points="52.5,-55 52.5,-73 190.5,-73 190.5,-55 52.5,-55"/>
<text text-anchor="start" x="55.5" y="-61.2" font-family="Helvetica,sans-Serif" font-size="11.00">...</text>
<polygon fill="#ffffff" stroke="transparent" points="52.5,-37 52.5,-55 94.5,-55 94.5,-37 52.5,-37"/>
<polygon fill="none" stroke="black" points="52.5,-37 52.5,-55 94.5,-55 94.5,-37 52.5,-37"/>
<text text-anchor="start" x="55.5" y="-43.2" font-family="Helvetica,sans-Serif" font-size="11.00"> &#160;</text>
<polygon fill="#ffffff" stroke="transparent" points="94.5,-37 94.5,-55 153.5,-55 153.5,-37 94.5,-37"/>
<polygon fill="none" stroke="black" points="94.5,-37 94.5,-55 153.5,-55 153.5,-37 94.5,-37"/>
<text text-anchor="start" x="111.5" y="-43.2" font-family="Helvetica,sans-Serif" font-size="11.00">14 rows</text>
<polygon fill="#ffffff" stroke="transparent" points="153.5,-37 153.5,-55 190.5,-55 190.5,-37 153.5,-37"/>
<polygon fill="none" stroke="black" points="153.5,-37 153.5,-55 190.5,-55 190.5,-37 153.5,-37"/>
<text text-anchor="start" x="171.5" y="-43.2" font-family="Helvetica,sans-Serif" font-size="11.00">8 &gt;</text>
</a>
</g>
</g>
<!-- m_product&#45;&gt;c_taxcategory -->
<g id="edge1" class="edge">
<title>m_product:w&#45;&gt;c_taxcategory:e</title>
<path fill="none" stroke="black" d="M581.47,-538.41C519.61,-501.94 617.12,-199.13 555,-143 435.11,-34.66 353.09,-150 191.5,-150"/>
<polygon fill="black" stroke="black" points="587.75,-540.02 594.61,-545.49 591.63,-541.01 595.5,-542 595.5,-542 595.5,-542 591.63,-541.01 596.39,-538.51 587.75,-540.02 587.75,-540.02"/>
<ellipse fill="none" stroke="black" cx="584.65" cy="-539.22" rx="3.2" ry="3.2"/>
</g>
<!-- c_uom -->
<g id="node3" class="node">
<title>c_uom</title>
<g id="a_node3"><a xlink:href="../../tables/c_uom.html" xlink:title="c_uom" target="_top">
<polygon fill="#ffffff" stroke="transparent" points="55.5,-462 55.5,-652 187.5,-652 187.5,-462 55.5,-462"/>
<polygon fill="#f5f5f5" stroke="transparent" points="55.5,-630 55.5,-652 187.5,-652 187.5,-630 55.5,-630"/>
<polygon fill="none" stroke="black" points="55.5,-630 55.5,-652 187.5,-652 187.5,-630 55.5,-630"/>
<text text-anchor="start" x="60.5" y="-639.2" font-family="Helvetica,sans-Serif" font-weight="bold" font-size="11.00">c_uom</text>
<text text-anchor="start" x="152.5" y="-638.2" font-family="Helvetica,sans-Serif" font-size="11.00">[table]</text>
<polygon fill="none" stroke="black" points="55.5,-608 55.5,-630 187.5,-630 187.5,-608 55.5,-608"/>
<image xlink:href="../../images/primaryKeys.png" width="11px" height="12px" preserveAspectRatio="xMinYMin meet" x="60.5" y="-625"/>
<text text-anchor="start" x="75.5" y="-616.2" font-family="Helvetica,sans-Serif" font-size="11.00">c_uom_id</text>
<polygon fill="#ffffff" stroke="transparent" points="55.5,-586 55.5,-608 187.5,-608 187.5,-586 55.5,-586"/>
<polygon fill="none" stroke="black" points="55.5,-586 55.5,-608 187.5,-608 187.5,-586 55.5,-586"/>
<image xlink:href="../../images/foreignKeys.png" width="11px" height="12px" preserveAspectRatio="xMinYMin meet" x="60.5" y="-603"/>
<text text-anchor="start" x="75.5" y="-594.2" font-family="Helvetica,sans-Serif" font-size="11.00">ad_client_id</text>
<polygon fill="none" stroke="black" points="55.5,-564 55.5,-586 187.5,-586 187.5,-564 55.5,-564"/>
<image xlink:href="../../images/foreignKeys.png" width="11px" height="12px" preserveAspectRatio="xMinYMin meet" x="60.5" y="-581"/>
<text text-anchor="start" x="75.5" y="-572.2" font-family="Helvetica,sans-Serif" font-size="11.00">ad_org_id</text>
<polygon fill="#ffffff" stroke="transparent" points="55.5,-542 55.5,-564 187.5,-564 187.5,-542 55.5,-542"/>
<polygon fill="none" stroke="black" points="55.5,-542 55.5,-564 187.5,-564 187.5,-542 55.5,-542"/>
<text text-anchor="start" x="75.5" y="-550.2" font-family="Helvetica,sans-Serif" font-size="11.00">x12de355</text>
<polygon fill="#ffffff" stroke="transparent" points="55.5,-520 55.5,-542 187.5,-542 187.5,-520 55.5,-520"/>
<polygon fill="none" stroke="black" points="55.5,-520 55.5,-542 187.5,-542 187.5,-520 55.5,-520"/>
<text text-anchor="start" x="75.5" y="-528.2" font-family="Helvetica,sans-Serif" font-size="11.00">name</text>
<polygon fill="#ffffff" stroke="transparent" points="55.5,-498 55.5,-520 187.5,-520 187.5,-498 55.5,-498"/>
<polygon fill="none" stroke="black" points="55.5,-498 55.5,-520 187.5,-520 187.5,-498 55.5,-498"/>
<text text-anchor="start" x="75.5" y="-506.2" font-family="Helvetica,sans-Serif" font-size="11.00">c_uom_uu</text>
<polygon fill="none" stroke="black" points="55.5,-480 55.5,-498 187.5,-498 187.5,-480 55.5,-480"/>
<text text-anchor="start" x="58.5" y="-486.2" font-family="Helvetica,sans-Serif" font-size="11.00">...</text>
<polygon fill="#ffffff" stroke="transparent" points="55.5,-462 55.5,-480 95.5,-480 95.5,-462 55.5,-462"/>
<polygon fill="none" stroke="black" points="55.5,-462 55.5,-480 95.5,-480 95.5,-462 55.5,-462"/>
<text text-anchor="start" x="58.5" y="-468.2" font-family="Helvetica,sans-Serif" font-size="11.00">&lt; 2</text>
<polygon fill="#ffffff" stroke="transparent" points="95.5,-462 95.5,-480 149.5,-480 149.5,-462 95.5,-462"/>
<polygon fill="none" stroke="black" points="95.5,-462 95.5,-480 149.5,-480 149.5,-462 95.5,-462"/>
<text text-anchor="start" x="107.5" y="-468.2" font-family="Helvetica,sans-Serif" font-size="11.00">72 rows</text>
<polygon fill="#ffffff" stroke="transparent" points="149.5,-462 149.5,-480 187.5,-480 187.5,-462 149.5,-462"/>
<polygon fill="none" stroke="black" points="149.5,-462 149.5,-480 187.5,-480 187.5,-462 149.5,-462"/>
<text text-anchor="start" x="162.5" y="-468.2" font-family="Helvetica,sans-Serif" font-size="11.00">49 &gt;</text>
</a>
</g>
</g>
<!-- m_product&#45;&gt;c_uom -->
<g id="edge2" class="edge">
<title>m_product:w&#45;&gt;c_uom:e</title>
<path fill="none" stroke="black" d="M580.96,-629.98C411.98,-629.41 364.51,-619 188.5,-619"/>
<polygon fill="black" stroke="black" points="587.5,-629.99 595.49,-633.6 591.5,-629.99 595.5,-630 595.5,-630 595.5,-630 591.5,-629.99 595.51,-626.4 587.5,-629.99 587.5,-629.99"/>
<ellipse fill="none" stroke="black" cx="584.3" cy="-629.98" rx="3.2" ry="3.2"/>
</g>
<!-- m_product_category -->
<g id="node4" class="node">
<title>m_product_category</title>
<g id="a_node4"><a xlink:href="../../tables/m_product_category.html" xlink:title="m_product_category" target="_top">
<polygon fill="#ffffff" stroke="transparent" points="8,-206 8,-440 235,-440 235,-206 8,-206"/>
<polygon fill="#f5f5f5" stroke="transparent" points="8.5,-418 8.5,-440 235.5,-440 235.5,-418 8.5,-418"/>
<polygon fill="none" stroke="black" points="8.5,-418 8.5,-440 235.5,-440 235.5,-418 8.5,-418"/>
<text text-anchor="start" x="13.5" y="-427.2" font-family="Helvetica,sans-Serif" font-weight="bold" font-size="11.00">m_product_category</text>
<text text-anchor="start" x="200.5" y="-426.2" font-family="Helvetica,sans-Serif" font-size="11.00">[table]</text>
<polygon fill="none" stroke="black" points="8.5,-396 8.5,-418 235.5,-418 235.5,-396 8.5,-396"/>
<image xlink:href="../../images/primaryKeys.png" width="11px" height="12px" preserveAspectRatio="xMinYMin meet" x="13.5" y="-413"/>
<text text-anchor="start" x="28.5" y="-404.2" font-family="Helvetica,sans-Serif" font-size="11.00">m_product_category_id</text>
<polygon fill="#ffffff" stroke="transparent" points="8.5,-374 8.5,-396 235.5,-396 235.5,-374 8.5,-374"/>
<polygon fill="none" stroke="black" points="8.5,-374 8.5,-396 235.5,-396 235.5,-374 8.5,-374"/>
<text text-anchor="start" x="28.5" y="-382.2" font-family="Helvetica,sans-Serif" font-size="11.00">ad_client_id</text>
<polygon fill="#ffffff" stroke="transparent" points="8.5,-352 8.5,-374 235.5,-374 235.5,-352 8.5,-352"/>
<polygon fill="none" stroke="black" points="8.5,-352 8.5,-374 235.5,-374 235.5,-352 8.5,-352"/>
<text text-anchor="start" x="28.5" y="-360.2" font-family="Helvetica,sans-Serif" font-size="11.00">value</text>
<polygon fill="none" stroke="black" points="8.5,-330 8.5,-352 235.5,-352 235.5,-330 8.5,-330"/>
<image xlink:href="../../images/foreignKeys.png" width="11px" height="12px" preserveAspectRatio="xMinYMin meet" x="13.5" y="-347"/>
<text text-anchor="start" x="28.5" y="-338.2" font-family="Helvetica,sans-Serif" font-size="11.00">a_asset_group_id</text>
<polygon fill="none" stroke="black" points="8.5,-308 8.5,-330 235.5,-330 235.5,-308 8.5,-308"/>
<image xlink:href="../../images/foreignKeys.png" width="11px" height="12px" preserveAspectRatio="xMinYMin meet" x="13.5" y="-325"/>
<text text-anchor="start" x="28.5" y="-316.2" font-family="Helvetica,sans-Serif" font-size="11.00">ad_printcolor_id</text>
<polygon fill="none" stroke="black" points="8.5,-286 8.5,-308 235.5,-308 235.5,-286 8.5,-286"/>
<image xlink:href="../../images/foreignKeys.png" width="11px" height="12px" preserveAspectRatio="xMinYMin meet" x="13.5" y="-303"/>
<text text-anchor="start" x="28.5" y="-294.2" font-family="Helvetica,sans-Serif" font-size="11.00">m_product_category_parent_id</text>
<polygon fill="#ffffff" stroke="transparent" points="8.5,-264 8.5,-286 235.5,-286 235.5,-264 8.5,-264"/>
<polygon fill="none" stroke="black" points="8.5,-264 8.5,-286 235.5,-286 235.5,-264 8.5,-264"/>
<text text-anchor="start" x="28.5" y="-272.2" font-family="Helvetica,sans-Serif" font-size="11.00">m_product_category_uu</text>
<polygon fill="none" stroke="black" points="8.5,-242 8.5,-264 235.5,-264 235.5,-242 8.5,-242"/>
<image xlink:href="../../images/foreignKeys.png" width="11px" height="12px" preserveAspectRatio="xMinYMin meet" x="13.5" y="-259"/>
<text text-anchor="start" x="28.5" y="-250.2" font-family="Helvetica,sans-Serif" font-size="11.00">m_attributeset_id</text>
<polygon fill="none" stroke="black" points="8.5,-224 8.5,-242 235.5,-242 235.5,-224 8.5,-224"/>
<text text-anchor="start" x="11.5" y="-230.2" font-family="Helvetica,sans-Serif" font-size="11.00">...</text>
<polygon fill="#ffffff" stroke="transparent" points="8.5,-206 8.5,-224 99.5,-224 99.5,-206 8.5,-206"/>
<polygon fill="none" stroke="black" points="8.5,-206 8.5,-224 99.5,-224 99.5,-206 8.5,-206"/>
<text text-anchor="start" x="11.5" y="-212.2" font-family="Helvetica,sans-Serif" font-size="11.00">&lt; 3</text>
<polygon fill="#ffffff" stroke="transparent" points="99.5,-206 99.5,-224 172.5,-224 172.5,-206 99.5,-206"/>
<polygon fill="none" stroke="black" points="99.5,-206 99.5,-224 172.5,-224 172.5,-206 99.5,-206"/>
<text text-anchor="start" x="136.5" y="-212.2" font-family="Helvetica,sans-Serif" font-size="11.00">5 rows</text>
<polygon fill="#ffffff" stroke="transparent" points="172.5,-206 172.5,-224 235.5,-224 235.5,-206 172.5,-206"/>
<polygon fill="none" stroke="black" points="172.5,-206 172.5,-224 235.5,-224 235.5,-206 172.5,-206"/>
<text text-anchor="start" x="210.5" y="-212.2" font-family="Helvetica,sans-Serif" font-size="11.00">24 &gt;</text>
</a>
</g>
</g>
<!-- m_product&#45;&gt;m_product_category -->
<g id="edge3" class="edge">
<title>m_product:w&#45;&gt;m_product_category:e</title>
<path fill="none" stroke="black" d="M580.8,-564.3C448.82,-569.73 383.86,-645.5 276,-561 220.38,-517.42 307.16,-407 236.5,-407"/>
<polygon fill="black" stroke="black" points="587.5,-564.16 595.57,-567.6 591.5,-564.08 595.5,-564 595.5,-564 595.5,-564 591.5,-564.08 595.43,-560.4 587.5,-564.16 587.5,-564.16"/>
<ellipse fill="none" stroke="black" cx="584.3" cy="-564.23" rx="3.2" ry="3.2"/>
</g>
<!-- s_expensetype -->
<g id="node5" class="node">
<title>s_expensetype</title>
<g id="a_node5"><a xlink:href="../../tables/s_expensetype.html" xlink:title="s_expensetype" target="_top">
<polygon fill="#ffffff" stroke="transparent" points="284,-154 284,-550 547,-550 547,-154 284,-154"/>
<polygon fill="#f5f5f5" stroke="transparent" points="286.5,-526 286.5,-548 545.5,-548 545.5,-526 286.5,-526"/>
<polygon fill="none" stroke="black" points="286.5,-526 286.5,-548 545.5,-548 545.5,-526 286.5,-526"/>
<text text-anchor="start" x="291.5" y="-535.2" font-family="Helvetica,sans-Serif" font-weight="bold" font-size="11.00">s_expensetype</text>
<text text-anchor="start" x="510.5" y="-534.2" font-family="Helvetica,sans-Serif" font-size="11.00">[table]</text>
<polygon fill="none" stroke="black" points="286.5,-504 286.5,-526 462.5,-526 462.5,-504 286.5,-504"/>
<image xlink:href="../../images/primaryKeys.png" width="11px" height="12px" preserveAspectRatio="xMinYMin meet" x="291.5" y="-521"/>
<text text-anchor="start" x="306.5" y="-512.2" font-family="Helvetica,sans-Serif" font-size="11.00">s_expensetype_id</text>
<polygon fill="none" stroke="black" points="462.5,-504 462.5,-526 545.5,-526 545.5,-504 462.5,-504"/>
<text text-anchor="start" x="465.5" y="-512.2" font-family="Helvetica,sans-Serif" font-size="11.00">numeric[10]</text>
<polygon fill="none" stroke="black" points="286.5,-482 286.5,-504 462.5,-504 462.5,-482 286.5,-482"/>
<text text-anchor="start" x="306.5" y="-490.2" font-family="Helvetica,sans-Serif" font-size="11.00">ad_client_id</text>
<polygon fill="none" stroke="black" points="462.5,-482 462.5,-504 545.5,-504 545.5,-482 462.5,-482"/>
<text text-anchor="start" x="465.5" y="-490.2" font-family="Helvetica,sans-Serif" font-size="11.00">numeric[10]</text>
<polygon fill="none" stroke="black" points="286.5,-460 286.5,-482 462.5,-482 462.5,-460 286.5,-460"/>
<text text-anchor="start" x="306.5" y="-468.2" font-family="Helvetica,sans-Serif" font-size="11.00">ad_org_id</text>
<polygon fill="none" stroke="black" points="462.5,-460 462.5,-482 545.5,-482 545.5,-460 462.5,-460"/>
<text text-anchor="start" x="465.5" y="-468.2" font-family="Helvetica,sans-Serif" font-size="11.00">numeric[10]</text>
<polygon fill="none" stroke="black" points="286.5,-438 286.5,-460 462.5,-460 462.5,-438 286.5,-438"/>
<text text-anchor="start" x="306.5" y="-446.2" font-family="Helvetica,sans-Serif" font-size="11.00">isactive</text>
<polygon fill="none" stroke="black" points="462.5,-438 462.5,-460 545.5,-460 545.5,-438 462.5,-438"/>
<text text-anchor="start" x="465.5" y="-446.2" font-family="Helvetica,sans-Serif" font-size="11.00">bpchar[1]</text>
<polygon fill="none" stroke="black" points="286.5,-416 286.5,-438 462.5,-438 462.5,-416 286.5,-416"/>
<text text-anchor="start" x="306.5" y="-424.2" font-family="Helvetica,sans-Serif" font-size="11.00">created</text>
<polygon fill="none" stroke="black" points="462.5,-416 462.5,-438 545.5,-438 545.5,-416 462.5,-416"/>
<text text-anchor="start" x="465.5" y="-424.2" font-family="Helvetica,sans-Serif" font-size="11.00">timestamp[29,6]</text>
<polygon fill="none" stroke="black" points="286.5,-394 286.5,-416 462.5,-416 462.5,-394 286.5,-394"/>
<text text-anchor="start" x="306.5" y="-402.2" font-family="Helvetica,sans-Serif" font-size="11.00">createdby</text>
<polygon fill="none" stroke="black" points="462.5,-394 462.5,-416 545.5,-416 545.5,-394 462.5,-394"/>
<text text-anchor="start" x="465.5" y="-402.2" font-family="Helvetica,sans-Serif" font-size="11.00">numeric[10]</text>
<polygon fill="none" stroke="black" points="286.5,-372 286.5,-394 462.5,-394 462.5,-372 286.5,-372"/>
<text text-anchor="start" x="306.5" y="-380.2" font-family="Helvetica,sans-Serif" font-size="11.00">updated</text>
<polygon fill="none" stroke="black" points="462.5,-372 462.5,-394 545.5,-394 545.5,-372 462.5,-372"/>
<text text-anchor="start" x="465.5" y="-380.2" font-family="Helvetica,sans-Serif" font-size="11.00">timestamp[29,6]</text>
<polygon fill="none" stroke="black" points="286.5,-350 286.5,-372 462.5,-372 462.5,-350 286.5,-350"/>
<text text-anchor="start" x="306.5" y="-358.2" font-family="Helvetica,sans-Serif" font-size="11.00">updatedby</text>
<polygon fill="none" stroke="black" points="462.5,-350 462.5,-372 545.5,-372 545.5,-350 462.5,-350"/>
<text text-anchor="start" x="465.5" y="-358.2" font-family="Helvetica,sans-Serif" font-size="11.00">numeric[10]</text>
<polygon fill="none" stroke="black" points="286.5,-328 286.5,-350 462.5,-350 462.5,-328 286.5,-328"/>
<text text-anchor="start" x="306.5" y="-336.2" font-family="Helvetica,sans-Serif" font-size="11.00">value</text>
<polygon fill="none" stroke="black" points="462.5,-328 462.5,-350 545.5,-350 545.5,-328 462.5,-328"/>
<text text-anchor="start" x="465.5" y="-336.2" font-family="Helvetica,sans-Serif" font-size="11.00">varchar[40]</text>
<polygon fill="none" stroke="black" points="286.5,-306 286.5,-328 462.5,-328 462.5,-306 286.5,-306"/>
<text text-anchor="start" x="306.5" y="-314.2" font-family="Helvetica,sans-Serif" font-size="11.00">name</text>
<polygon fill="none" stroke="black" points="462.5,-306 462.5,-328 545.5,-328 545.5,-306 462.5,-306"/>
<text text-anchor="start" x="465.5" y="-314.2" font-family="Helvetica,sans-Serif" font-size="11.00">varchar[60]</text>
<polygon fill="none" stroke="black" points="286.5,-284 286.5,-306 462.5,-306 462.5,-284 286.5,-284"/>
<text text-anchor="start" x="306.5" y="-292.2" font-family="Helvetica,sans-Serif" font-size="11.00">description</text>
<polygon fill="none" stroke="black" points="462.5,-284 462.5,-306 545.5,-306 545.5,-284 462.5,-284"/>
<text text-anchor="start" x="465.5" y="-292.2" font-family="Helvetica,sans-Serif" font-size="11.00">varchar[255]</text>
<polygon fill="none" stroke="black" points="286.5,-262 286.5,-284 462.5,-284 462.5,-262 286.5,-262"/>
<text text-anchor="start" x="306.5" y="-270.2" font-family="Helvetica,sans-Serif" font-size="11.00">isinvoiced</text>
<polygon fill="none" stroke="black" points="462.5,-262 462.5,-284 545.5,-284 545.5,-262 462.5,-262"/>
<text text-anchor="start" x="465.5" y="-270.2" font-family="Helvetica,sans-Serif" font-size="11.00">bpchar[1]</text>
<polygon fill="none" stroke="black" points="286.5,-240 286.5,-262 462.5,-262 462.5,-240 286.5,-240"/>
<image xlink:href="../../images/foreignKeys.png" width="11px" height="12px" preserveAspectRatio="xMinYMin meet" x="291.5" y="-257"/>
<text text-anchor="start" x="306.5" y="-248.2" font-family="Helvetica,sans-Serif" font-size="11.00">c_uom_id</text>
<polygon fill="none" stroke="black" points="462.5,-240 462.5,-262 545.5,-262 545.5,-240 462.5,-240"/>
<text text-anchor="start" x="465.5" y="-248.2" font-family="Helvetica,sans-Serif" font-size="11.00">numeric[10]</text>
<polygon fill="none" stroke="black" points="286.5,-218 286.5,-240 462.5,-240 462.5,-218 286.5,-218"/>
<image xlink:href="../../images/foreignKeys.png" width="11px" height="12px" preserveAspectRatio="xMinYMin meet" x="291.5" y="-235"/>
<text text-anchor="start" x="306.5" y="-226.2" font-family="Helvetica,sans-Serif" font-size="11.00">m_product_category_id</text>
<polygon fill="none" stroke="black" points="462.5,-218 462.5,-240 545.5,-240 545.5,-218 462.5,-218"/>
<text text-anchor="start" x="465.5" y="-226.2" font-family="Helvetica,sans-Serif" font-size="11.00">numeric[10]</text>
<polygon fill="none" stroke="black" points="286.5,-196 286.5,-218 462.5,-218 462.5,-196 286.5,-196"/>
<image xlink:href="../../images/foreignKeys.png" width="11px" height="12px" preserveAspectRatio="xMinYMin meet" x="291.5" y="-213"/>
<text text-anchor="start" x="306.5" y="-204.2" font-family="Helvetica,sans-Serif" font-size="11.00">c_taxcategory_id</text>
<polygon fill="none" stroke="black" points="462.5,-196 462.5,-218 545.5,-218 545.5,-196 462.5,-196"/>
<text text-anchor="start" x="465.5" y="-204.2" font-family="Helvetica,sans-Serif" font-size="11.00">numeric[10]</text>
<polygon fill="#ffffff" stroke="transparent" points="286.5,-174 286.5,-196 462.5,-196 462.5,-174 286.5,-174"/>
<polygon fill="none" stroke="black" points="286.5,-174 286.5,-196 462.5,-196 462.5,-174 286.5,-174"/>
<text text-anchor="start" x="306.5" y="-182.2" font-family="Helvetica,sans-Serif" font-size="11.00">s_expensetype_uu</text>
<polygon fill="none" stroke="black" points="462.5,-174 462.5,-196 545.5,-196 545.5,-174 462.5,-174"/>
<text text-anchor="start" x="465.5" y="-182.2" font-family="Helvetica,sans-Serif" font-size="11.00">varchar[36]</text>
<polygon fill="#ffffff" stroke="transparent" points="286.5,-156 286.5,-174 365.5,-174 365.5,-156 286.5,-156"/>
<polygon fill="none" stroke="black" points="286.5,-156 286.5,-174 365.5,-174 365.5,-156 286.5,-156"/>
<text text-anchor="start" x="289.5" y="-162.2" font-family="Helvetica,sans-Serif" font-size="11.00">&lt; 3</text>
<polygon fill="#ffffff" stroke="transparent" points="365.5,-156 365.5,-174 462.5,-174 462.5,-156 365.5,-156"/>
<polygon fill="none" stroke="black" points="365.5,-156 365.5,-174 462.5,-174 462.5,-156 365.5,-156"/>
<text text-anchor="start" x="426.5" y="-162.2" font-family="Helvetica,sans-Serif" font-size="11.00">0 rows</text>
<polygon fill="#ffffff" stroke="transparent" points="462.5,-156 462.5,-174 545.5,-174 545.5,-156 462.5,-156"/>
<polygon fill="none" stroke="black" points="462.5,-156 462.5,-174 545.5,-174 545.5,-156 462.5,-156"/>
<text text-anchor="start" x="526.5" y="-162.2" font-family="Helvetica,sans-Serif" font-size="11.00">1 &gt;</text>
<polygon fill="none" stroke="black" stroke-width="2" points="285,-155 285,-549 546,-549 546,-155 285,-155"/>
</a>
</g>
</g>
<!-- m_product&#45;&gt;s_expensetype -->
<g id="edge4" class="edge">
<title>m_product:w&#45;&gt;s_expensetype:e</title>
<path fill="none" stroke="black" d="M584.79,-499.45C570.76,-503.56 565.41,-515 546.5,-515"/>
<polygon fill="black" stroke="black" points="594.17,-494.14 595.24,-502.07 593.66,-502.29 592.59,-494.36 594.17,-494.14"/>
<polyline fill="none" stroke="black" points="595.5,-498 591.54,-498.54 "/>
<ellipse fill="none" stroke="black" cx="588.37" cy="-498.97" rx="3.2" ry="3.2"/>
</g>
<!-- s_expensetype&#45;&gt;c_taxcategory -->
<g id="edge5" class="edge">
<title>s_expensetype:w&#45;&gt;c_taxcategory:e</title>
<path fill="none" stroke="black" d="M271.22,-205.1C236.83,-195.21 235.01,-150 191.5,-150"/>
<polygon fill="black" stroke="black" points="277.57,-205.95 285.03,-210.57 281.53,-206.47 285.5,-207 285.5,-207 285.5,-207 281.53,-206.47 285.97,-203.43 277.57,-205.95 277.57,-205.95"/>
<ellipse fill="none" stroke="black" cx="274.4" cy="-205.53" rx="3.2" ry="3.2"/>
</g>
<!-- s_expensetype&#45;&gt;c_uom -->
<g id="edge6" class="edge">
<title>s_expensetype:w&#45;&gt;c_uom:e</title>
<path fill="none" stroke="black" d="M271.86,-257C243.14,-286.05 253.37,-412.25 243,-451 222.7,-526.83 267,-619 188.5,-619"/>
<polygon fill="black" stroke="black" points="278.18,-254.22 286.95,-254.3 281.84,-252.61 285.5,-251 285.5,-251 285.5,-251 281.84,-252.61 284.05,-247.7 278.18,-254.22 278.18,-254.22"/>
<ellipse fill="none" stroke="black" cx="275.25" cy="-255.51" rx="3.2" ry="3.2"/>
</g>
<!-- s_expensetype&#45;&gt;m_product_category -->
<g id="edge7" class="edge">
<title>s_expensetype:w&#45;&gt;m_product_category:e</title>
<path fill="none" stroke="black" d="M270.98,-231.52C218.66,-253.15 312.78,-407 236.5,-407"/>
<polygon fill="black" stroke="black" points="277.62,-230.37 286.11,-232.55 281.56,-229.68 285.5,-229 285.5,-229 285.5,-229 281.56,-229.68 284.89,-225.45 277.62,-230.37 277.62,-230.37"/>
<ellipse fill="none" stroke="black" cx="274.46" cy="-230.91" rx="3.2" ry="3.2"/>
</g>
</g>
</svg>
