<?xml version="1.0" encoding="UTF-8" standalone="no"?>
<!DOCTYPE svg PUBLIC "-//W3C//DTD SVG 1.1//EN"
 "http://www.w3.org/Graphics/SVG/1.1/DTD/svg11.dtd">
<!-- Generated by graphviz version 2.43.0 (0)
 -->
<!-- Title: oneDegreeRelationshipsDiagram Pages: 1 -->
<svg width="942pt" height="852pt"
 viewBox="0.00 0.00 942.00 852.00" xmlns="http://www.w3.org/2000/svg" xmlns:xlink="http://www.w3.org/1999/xlink">
<g id="graph0" class="graph" transform="scale(1 1) rotate(0) translate(4 848)">
<title>oneDegreeRelationshipsDiagram</title>
<polygon fill="#ffffff" stroke="transparent" points="-4,4 -4,-848 938,-848 938,4 -4,4"/>
<text text-anchor="middle" x="71.5" y="-7.2" font-family="Helvetica,sans-Serif" font-size="11.00">Generated by SchemaSpy</text>
<!-- a_asset -->
<g id="node1" class="node">
<title>a_asset</title>
<g id="a_node1"><a xlink:href="../../tables/a_asset.html" xlink:title="a_asset" target="_top">
<polygon fill="#ffffff" stroke="transparent" points="468,-307 468,-761 665,-761 665,-307 468,-307"/>
<polygon fill="#f5f5f5" stroke="transparent" points="468.5,-739 468.5,-761 665.5,-761 665.5,-739 468.5,-739"/>
<polygon fill="none" stroke="black" points="468.5,-739 468.5,-761 665.5,-761 665.5,-739 468.5,-739"/>
<text text-anchor="start" x="473.5" y="-748.2" font-family="Helvetica,sans-Serif" font-weight="bold" font-size="11.00">a_asset</text>
<text text-anchor="start" x="630.5" y="-747.2" font-family="Helvetica,sans-Serif" font-size="11.00">[table]</text>
<polygon fill="none" stroke="black" points="468.5,-717 468.5,-739 665.5,-739 665.5,-717 468.5,-717"/>
<image xlink:href="../../images/primaryKeys.png" width="11px" height="12px" preserveAspectRatio="xMinYMin meet" x="473.5" y="-734"/>
<text text-anchor="start" x="488.5" y="-725.2" font-family="Helvetica,sans-Serif" font-size="11.00">a_asset_id</text>
<polygon fill="none" stroke="black" points="468.5,-695 468.5,-717 665.5,-717 665.5,-695 468.5,-695"/>
<image xlink:href="../../images/foreignKeys.png" width="11px" height="12px" preserveAspectRatio="xMinYMin meet" x="473.5" y="-712"/>
<text text-anchor="start" x="488.5" y="-703.2" font-family="Helvetica,sans-Serif" font-size="11.00">a_asset_group_id</text>
<polygon fill="none" stroke="black" points="468.5,-673 468.5,-695 665.5,-695 665.5,-673 468.5,-673"/>
<image xlink:href="../../images/foreignKeys.png" width="11px" height="12px" preserveAspectRatio="xMinYMin meet" x="473.5" y="-690"/>
<text text-anchor="start" x="488.5" y="-681.2" font-family="Helvetica,sans-Serif" font-size="11.00">m_product_id</text>
<polygon fill="none" stroke="black" points="468.5,-651 468.5,-673 665.5,-673 665.5,-651 468.5,-651"/>
<image xlink:href="../../images/foreignKeys.png" width="11px" height="12px" preserveAspectRatio="xMinYMin meet" x="473.5" y="-668"/>
<text text-anchor="start" x="488.5" y="-659.2" font-family="Helvetica,sans-Serif" font-size="11.00">m_locator_id</text>
<polygon fill="none" stroke="black" points="468.5,-629 468.5,-651 665.5,-651 665.5,-629 468.5,-629"/>
<image xlink:href="../../images/foreignKeys.png" width="11px" height="12px" preserveAspectRatio="xMinYMin meet" x="473.5" y="-646"/>
<text text-anchor="start" x="488.5" y="-637.2" font-family="Helvetica,sans-Serif" font-size="11.00">c_bpartner_id</text>
<polygon fill="none" stroke="black" points="468.5,-607 468.5,-629 665.5,-629 665.5,-607 468.5,-607"/>
<image xlink:href="../../images/foreignKeys.png" width="11px" height="12px" preserveAspectRatio="xMinYMin meet" x="473.5" y="-624"/>
<text text-anchor="start" x="488.5" y="-615.2" font-family="Helvetica,sans-Serif" font-size="11.00">c_bpartner_location_id</text>
<polygon fill="none" stroke="black" points="468.5,-585 468.5,-607 665.5,-607 665.5,-585 468.5,-585"/>
<image xlink:href="../../images/foreignKeys.png" width="11px" height="12px" preserveAspectRatio="xMinYMin meet" x="473.5" y="-602"/>
<text text-anchor="start" x="488.5" y="-593.2" font-family="Helvetica,sans-Serif" font-size="11.00">c_location_id</text>
<polygon fill="none" stroke="black" points="468.5,-563 468.5,-585 665.5,-585 665.5,-563 468.5,-563"/>
<image xlink:href="../../images/foreignKeys.png" width="11px" height="12px" preserveAspectRatio="xMinYMin meet" x="473.5" y="-580"/>
<text text-anchor="start" x="488.5" y="-571.2" font-family="Helvetica,sans-Serif" font-size="11.00">ad_user_id</text>
<polygon fill="none" stroke="black" points="468.5,-541 468.5,-563 665.5,-563 665.5,-541 468.5,-541"/>
<image xlink:href="../../images/foreignKeys.png" width="11px" height="12px" preserveAspectRatio="xMinYMin meet" x="473.5" y="-558"/>
<text text-anchor="start" x="488.5" y="-549.2" font-family="Helvetica,sans-Serif" font-size="11.00">m_attributesetinstance_id</text>
<polygon fill="none" stroke="black" points="468.5,-519 468.5,-541 665.5,-541 665.5,-519 468.5,-519"/>
<image xlink:href="../../images/foreignKeys.png" width="11px" height="12px" preserveAspectRatio="xMinYMin meet" x="473.5" y="-536"/>
<text text-anchor="start" x="488.5" y="-527.2" font-family="Helvetica,sans-Serif" font-size="11.00">c_project_id</text>
<polygon fill="none" stroke="black" points="468.5,-497 468.5,-519 665.5,-519 665.5,-497 468.5,-497"/>
<image xlink:href="../../images/foreignKeys.png" width="11px" height="12px" preserveAspectRatio="xMinYMin meet" x="473.5" y="-514"/>
<text text-anchor="start" x="488.5" y="-505.2" font-family="Helvetica,sans-Serif" font-size="11.00">c_bpartnersr_id</text>
<polygon fill="none" stroke="black" points="468.5,-475 468.5,-497 665.5,-497 665.5,-475 468.5,-475"/>
<image xlink:href="../../images/foreignKeys.png" width="11px" height="12px" preserveAspectRatio="xMinYMin meet" x="473.5" y="-492"/>
<text text-anchor="start" x="488.5" y="-483.2" font-family="Helvetica,sans-Serif" font-size="11.00">m_inoutline_id</text>
<polygon fill="none" stroke="black" points="468.5,-453 468.5,-475 665.5,-475 665.5,-453 468.5,-453"/>
<image xlink:href="../../images/foreignKeys.png" width="11px" height="12px" preserveAspectRatio="xMinYMin meet" x="473.5" y="-470"/>
<text text-anchor="start" x="488.5" y="-461.2" font-family="Helvetica,sans-Serif" font-size="11.00">lease_bpartner_id</text>
<polygon fill="none" stroke="black" points="468.5,-431 468.5,-453 665.5,-453 665.5,-431 468.5,-431"/>
<image xlink:href="../../images/foreignKeys.png" width="11px" height="12px" preserveAspectRatio="xMinYMin meet" x="473.5" y="-448"/>
<text text-anchor="start" x="488.5" y="-439.2" font-family="Helvetica,sans-Serif" font-size="11.00">a_parent_asset_id</text>
<polygon fill="#ffffff" stroke="transparent" points="468.5,-409 468.5,-431 665.5,-431 665.5,-409 468.5,-409"/>
<polygon fill="none" stroke="black" points="468.5,-409 468.5,-431 665.5,-431 665.5,-409 468.5,-409"/>
<text text-anchor="start" x="488.5" y="-417.2" font-family="Helvetica,sans-Serif" font-size="11.00">a_asset_uu</text>
<polygon fill="none" stroke="black" points="468.5,-387 468.5,-409 665.5,-409 665.5,-387 468.5,-387"/>
<image xlink:href="../../images/foreignKeys.png" width="11px" height="12px" preserveAspectRatio="xMinYMin meet" x="473.5" y="-404"/>
<text text-anchor="start" x="488.5" y="-395.2" font-family="Helvetica,sans-Serif" font-size="11.00">a_asset_class_id</text>
<polygon fill="none" stroke="black" points="468.5,-365 468.5,-387 665.5,-387 665.5,-365 468.5,-365"/>
<image xlink:href="../../images/foreignKeys.png" width="11px" height="12px" preserveAspectRatio="xMinYMin meet" x="473.5" y="-382"/>
<text text-anchor="start" x="488.5" y="-373.2" font-family="Helvetica,sans-Serif" font-size="11.00">a_asset_type_id</text>
<polygon fill="none" stroke="black" points="468.5,-343 468.5,-365 665.5,-365 665.5,-343 468.5,-343"/>
<image xlink:href="../../images/foreignKeys.png" width="11px" height="12px" preserveAspectRatio="xMinYMin meet" x="473.5" y="-360"/>
<text text-anchor="start" x="488.5" y="-351.2" font-family="Helvetica,sans-Serif" font-size="11.00">c_activity_id</text>
<polygon fill="none" stroke="black" points="468.5,-325 468.5,-343 665.5,-343 665.5,-325 468.5,-325"/>
<text text-anchor="start" x="471.5" y="-331.2" font-family="Helvetica,sans-Serif" font-size="11.00">...</text>
<polygon fill="#ffffff" stroke="transparent" points="468.5,-307 468.5,-325 547.5,-325 547.5,-307 468.5,-307"/>
<polygon fill="none" stroke="black" points="468.5,-307 468.5,-325 547.5,-325 547.5,-307 468.5,-307"/>
<text text-anchor="start" x="471.5" y="-313.2" font-family="Helvetica,sans-Serif" font-size="11.00">&lt; 16</text>
<polygon fill="#ffffff" stroke="transparent" points="547.5,-307 547.5,-325 611.5,-325 611.5,-307 547.5,-307"/>
<polygon fill="none" stroke="black" points="547.5,-307 547.5,-325 611.5,-325 611.5,-307 547.5,-307"/>
<text text-anchor="start" x="575.5" y="-313.2" font-family="Helvetica,sans-Serif" font-size="11.00">0 rows</text>
<polygon fill="#ffffff" stroke="transparent" points="611.5,-307 611.5,-325 665.5,-325 665.5,-307 611.5,-307"/>
<polygon fill="none" stroke="black" points="611.5,-307 611.5,-325 665.5,-325 665.5,-307 611.5,-307"/>
<text text-anchor="start" x="640.5" y="-313.2" font-family="Helvetica,sans-Serif" font-size="11.00">48 &gt;</text>
</a>
</g>
</g>
<!-- a_asset_group -->
<g id="node2" class="node">
<title>a_asset_group</title>
<g id="a_node2"><a xlink:href="../../tables/a_asset_group.html" xlink:title="a_asset_group" target="_top">
<polygon fill="#ffffff" stroke="transparent" points="274,-593 274,-739 419,-739 419,-593 274,-593"/>
<polygon fill="#f5f5f5" stroke="transparent" points="274.5,-717 274.5,-739 419.5,-739 419.5,-717 274.5,-717"/>
<polygon fill="none" stroke="black" points="274.5,-717 274.5,-739 419.5,-739 419.5,-717 274.5,-717"/>
<text text-anchor="start" x="279.5" y="-726.2" font-family="Helvetica,sans-Serif" font-weight="bold" font-size="11.00">a_asset_group</text>
<text text-anchor="start" x="384.5" y="-725.2" font-family="Helvetica,sans-Serif" font-size="11.00">[table]</text>
<polygon fill="none" stroke="black" points="274.5,-695 274.5,-717 419.5,-717 419.5,-695 274.5,-695"/>
<image xlink:href="../../images/primaryKeys.png" width="11px" height="12px" preserveAspectRatio="xMinYMin meet" x="279.5" y="-712"/>
<text text-anchor="start" x="294.5" y="-703.2" font-family="Helvetica,sans-Serif" font-size="11.00">a_asset_group_id</text>
<polygon fill="#ffffff" stroke="transparent" points="274.5,-673 274.5,-695 419.5,-695 419.5,-673 274.5,-673"/>
<polygon fill="none" stroke="black" points="274.5,-673 274.5,-695 419.5,-695 419.5,-673 274.5,-673"/>
<text text-anchor="start" x="294.5" y="-681.2" font-family="Helvetica,sans-Serif" font-size="11.00">a_asset_group_uu</text>
<polygon fill="none" stroke="black" points="274.5,-651 274.5,-673 419.5,-673 419.5,-651 274.5,-651"/>
<image xlink:href="../../images/foreignKeys.png" width="11px" height="12px" preserveAspectRatio="xMinYMin meet" x="279.5" y="-668"/>
<text text-anchor="start" x="294.5" y="-659.2" font-family="Helvetica,sans-Serif" font-size="11.00">a_asset_class_id</text>
<polygon fill="none" stroke="black" points="274.5,-629 274.5,-651 419.5,-651 419.5,-629 274.5,-629"/>
<image xlink:href="../../images/foreignKeys.png" width="11px" height="12px" preserveAspectRatio="xMinYMin meet" x="279.5" y="-646"/>
<text text-anchor="start" x="294.5" y="-637.2" font-family="Helvetica,sans-Serif" font-size="11.00">a_asset_type_id</text>
<polygon fill="none" stroke="black" points="274.5,-611 274.5,-629 419.5,-629 419.5,-611 274.5,-611"/>
<text text-anchor="start" x="277.5" y="-617.2" font-family="Helvetica,sans-Serif" font-size="11.00">...</text>
<polygon fill="#ffffff" stroke="transparent" points="274.5,-593 274.5,-611 324.5,-611 324.5,-593 274.5,-593"/>
<polygon fill="none" stroke="black" points="274.5,-593 274.5,-611 324.5,-611 324.5,-593 274.5,-593"/>
<text text-anchor="start" x="277.5" y="-599.2" font-family="Helvetica,sans-Serif" font-size="11.00">&lt; 2</text>
<polygon fill="#ffffff" stroke="transparent" points="324.5,-593 324.5,-611 377.5,-611 377.5,-593 324.5,-593"/>
<polygon fill="none" stroke="black" points="324.5,-593 324.5,-611 377.5,-611 377.5,-593 324.5,-593"/>
<text text-anchor="start" x="341.5" y="-599.2" font-family="Helvetica,sans-Serif" font-size="11.00">0 rows</text>
<polygon fill="#ffffff" stroke="transparent" points="377.5,-593 377.5,-611 419.5,-611 419.5,-593 377.5,-593"/>
<polygon fill="none" stroke="black" points="377.5,-593 377.5,-611 419.5,-611 419.5,-593 377.5,-593"/>
<text text-anchor="start" x="394.5" y="-599.2" font-family="Helvetica,sans-Serif" font-size="11.00">10 &gt;</text>
</a>
</g>
</g>
<!-- a_asset&#45;&gt;a_asset_group -->
<g id="edge1" class="edge">
<title>a_asset:w&#45;&gt;a_asset_group:e</title>
<path fill="none" stroke="black" d="M452.9,-706C442.43,-706 435.51,-706 420.5,-706"/>
<polygon fill="black" stroke="black" points="459.5,-706 467.5,-709.6 463.5,-706 467.5,-706 467.5,-706 467.5,-706 463.5,-706 467.5,-702.4 459.5,-706 459.5,-706"/>
<ellipse fill="none" stroke="black" cx="456.3" cy="-706" rx="3.2" ry="3.2"/>
</g>
<!-- a_asset_type -->
<g id="node3" class="node">
<title>a_asset_type</title>
<g id="a_node3"><a xlink:href="../../tables/a_asset_type.html" xlink:title="a_asset_type" target="_top">
<polygon fill="#ffffff" stroke="transparent" points="8,-37 8,-411 225,-411 225,-37 8,-37"/>
<polygon fill="#f5f5f5" stroke="transparent" points="10.5,-387 10.5,-409 223.5,-409 223.5,-387 10.5,-387"/>
<polygon fill="none" stroke="black" points="10.5,-387 10.5,-409 223.5,-409 223.5,-387 10.5,-387"/>
<text text-anchor="start" x="15.5" y="-396.2" font-family="Helvetica,sans-Serif" font-weight="bold" font-size="11.00">a_asset_type</text>
<text text-anchor="start" x="188.5" y="-395.2" font-family="Helvetica,sans-Serif" font-size="11.00">[table]</text>
<polygon fill="none" stroke="black" points="10.5,-365 10.5,-387 140.5,-387 140.5,-365 10.5,-365"/>
<image xlink:href="../../images/primaryKeys.png" width="11px" height="12px" preserveAspectRatio="xMinYMin meet" x="15.5" y="-382"/>
<text text-anchor="start" x="30.5" y="-373.2" font-family="Helvetica,sans-Serif" font-size="11.00">a_asset_type_id</text>
<polygon fill="none" stroke="black" points="140.5,-365 140.5,-387 223.5,-387 223.5,-365 140.5,-365"/>
<text text-anchor="start" x="143.5" y="-373.2" font-family="Helvetica,sans-Serif" font-size="11.00">numeric[10]</text>
<polygon fill="none" stroke="black" points="10.5,-343 10.5,-365 140.5,-365 140.5,-343 10.5,-343"/>
<text text-anchor="start" x="30.5" y="-351.2" font-family="Helvetica,sans-Serif" font-size="11.00">name</text>
<polygon fill="none" stroke="black" points="140.5,-343 140.5,-365 223.5,-365 223.5,-343 140.5,-343"/>
<text text-anchor="start" x="143.5" y="-351.2" font-family="Helvetica,sans-Serif" font-size="11.00">varchar[120]</text>
<polygon fill="none" stroke="black" points="10.5,-321 10.5,-343 140.5,-343 140.5,-321 10.5,-321"/>
<text text-anchor="start" x="30.5" y="-329.2" font-family="Helvetica,sans-Serif" font-size="11.00">value</text>
<polygon fill="none" stroke="black" points="140.5,-321 140.5,-343 223.5,-343 223.5,-321 140.5,-321"/>
<text text-anchor="start" x="143.5" y="-329.2" font-family="Helvetica,sans-Serif" font-size="11.00">varchar[40]</text>
<polygon fill="none" stroke="black" points="10.5,-299 10.5,-321 140.5,-321 140.5,-299 10.5,-299"/>
<text text-anchor="start" x="30.5" y="-307.2" font-family="Helvetica,sans-Serif" font-size="11.00">ad_client_id</text>
<polygon fill="none" stroke="black" points="140.5,-299 140.5,-321 223.5,-321 223.5,-299 140.5,-299"/>
<text text-anchor="start" x="143.5" y="-307.2" font-family="Helvetica,sans-Serif" font-size="11.00">numeric[10]</text>
<polygon fill="none" stroke="black" points="10.5,-277 10.5,-299 140.5,-299 140.5,-277 10.5,-277"/>
<text text-anchor="start" x="30.5" y="-285.2" font-family="Helvetica,sans-Serif" font-size="11.00">ad_org_id</text>
<polygon fill="none" stroke="black" points="140.5,-277 140.5,-299 223.5,-299 223.5,-277 140.5,-277"/>
<text text-anchor="start" x="143.5" y="-285.2" font-family="Helvetica,sans-Serif" font-size="11.00">numeric[10]</text>
<polygon fill="none" stroke="black" points="10.5,-255 10.5,-277 140.5,-277 140.5,-255 10.5,-255"/>
<text text-anchor="start" x="30.5" y="-263.2" font-family="Helvetica,sans-Serif" font-size="11.00">isactive</text>
<polygon fill="none" stroke="black" points="140.5,-255 140.5,-277 223.5,-277 223.5,-255 140.5,-255"/>
<text text-anchor="start" x="143.5" y="-263.2" font-family="Helvetica,sans-Serif" font-size="11.00">bpchar[1]</text>
<polygon fill="none" stroke="black" points="10.5,-233 10.5,-255 140.5,-255 140.5,-233 10.5,-233"/>
<text text-anchor="start" x="30.5" y="-241.2" font-family="Helvetica,sans-Serif" font-size="11.00">created</text>
<polygon fill="none" stroke="black" points="140.5,-233 140.5,-255 223.5,-255 223.5,-233 140.5,-233"/>
<text text-anchor="start" x="143.5" y="-241.2" font-family="Helvetica,sans-Serif" font-size="11.00">timestamp[29,6]</text>
<polygon fill="none" stroke="black" points="10.5,-211 10.5,-233 140.5,-233 140.5,-211 10.5,-211"/>
<text text-anchor="start" x="30.5" y="-219.2" font-family="Helvetica,sans-Serif" font-size="11.00">createdby</text>
<polygon fill="none" stroke="black" points="140.5,-211 140.5,-233 223.5,-233 223.5,-211 140.5,-211"/>
<text text-anchor="start" x="143.5" y="-219.2" font-family="Helvetica,sans-Serif" font-size="11.00">numeric[10]</text>
<polygon fill="none" stroke="black" points="10.5,-189 10.5,-211 140.5,-211 140.5,-189 10.5,-189"/>
<text text-anchor="start" x="30.5" y="-197.2" font-family="Helvetica,sans-Serif" font-size="11.00">updated</text>
<polygon fill="none" stroke="black" points="140.5,-189 140.5,-211 223.5,-211 223.5,-189 140.5,-189"/>
<text text-anchor="start" x="143.5" y="-197.2" font-family="Helvetica,sans-Serif" font-size="11.00">timestamp[29,6]</text>
<polygon fill="none" stroke="black" points="10.5,-167 10.5,-189 140.5,-189 140.5,-167 10.5,-167"/>
<text text-anchor="start" x="30.5" y="-175.2" font-family="Helvetica,sans-Serif" font-size="11.00">updatedby</text>
<polygon fill="none" stroke="black" points="140.5,-167 140.5,-189 223.5,-189 223.5,-167 140.5,-167"/>
<text text-anchor="start" x="143.5" y="-175.2" font-family="Helvetica,sans-Serif" font-size="11.00">numeric[10]</text>
<polygon fill="none" stroke="black" points="10.5,-145 10.5,-167 140.5,-167 140.5,-145 10.5,-145"/>
<text text-anchor="start" x="30.5" y="-153.2" font-family="Helvetica,sans-Serif" font-size="11.00">description</text>
<polygon fill="none" stroke="black" points="140.5,-145 140.5,-167 223.5,-167 223.5,-145 140.5,-145"/>
<text text-anchor="start" x="143.5" y="-153.2" font-family="Helvetica,sans-Serif" font-size="11.00">varchar[255]</text>
<polygon fill="none" stroke="black" points="10.5,-123 10.5,-145 140.5,-145 140.5,-123 10.5,-123"/>
<text text-anchor="start" x="30.5" y="-131.2" font-family="Helvetica,sans-Serif" font-size="11.00">isowned</text>
<polygon fill="none" stroke="black" points="140.5,-123 140.5,-145 223.5,-145 223.5,-123 140.5,-123"/>
<text text-anchor="start" x="143.5" y="-131.2" font-family="Helvetica,sans-Serif" font-size="11.00">varchar[2]</text>
<polygon fill="none" stroke="black" points="10.5,-101 10.5,-123 140.5,-123 140.5,-101 10.5,-101"/>
<text text-anchor="start" x="30.5" y="-109.2" font-family="Helvetica,sans-Serif" font-size="11.00">isinposession</text>
<polygon fill="none" stroke="black" points="140.5,-101 140.5,-123 223.5,-123 223.5,-101 140.5,-101"/>
<text text-anchor="start" x="143.5" y="-109.2" font-family="Helvetica,sans-Serif" font-size="11.00">varchar[2]</text>
<polygon fill="none" stroke="black" points="10.5,-79 10.5,-101 140.5,-101 140.5,-79 10.5,-79"/>
<text text-anchor="start" x="30.5" y="-87.2" font-family="Helvetica,sans-Serif" font-size="11.00">isdepreciable</text>
<polygon fill="none" stroke="black" points="140.5,-79 140.5,-101 223.5,-101 223.5,-79 140.5,-79"/>
<text text-anchor="start" x="143.5" y="-87.2" font-family="Helvetica,sans-Serif" font-size="11.00">varchar[2]</text>
<polygon fill="#ffffff" stroke="transparent" points="10.5,-57 10.5,-79 140.5,-79 140.5,-57 10.5,-57"/>
<polygon fill="none" stroke="black" points="10.5,-57 10.5,-79 140.5,-79 140.5,-57 10.5,-57"/>
<text text-anchor="start" x="30.5" y="-65.2" font-family="Helvetica,sans-Serif" font-size="11.00">a_asset_type_uu</text>
<polygon fill="none" stroke="black" points="140.5,-57 140.5,-79 223.5,-79 223.5,-57 140.5,-57"/>
<text text-anchor="start" x="143.5" y="-65.2" font-family="Helvetica,sans-Serif" font-size="11.00">varchar[36]</text>
<polygon fill="#ffffff" stroke="transparent" points="10.5,-39 10.5,-57 66.5,-57 66.5,-39 10.5,-39"/>
<polygon fill="none" stroke="black" points="10.5,-39 10.5,-57 66.5,-57 66.5,-39 10.5,-39"/>
<text text-anchor="start" x="13.5" y="-45.2" font-family="Helvetica,sans-Serif" font-size="11.00">&lt; 0</text>
<polygon fill="#ffffff" stroke="transparent" points="66.5,-39 66.5,-57 140.5,-57 140.5,-39 66.5,-39"/>
<polygon fill="none" stroke="black" points="66.5,-39 66.5,-57 140.5,-57 140.5,-39 66.5,-39"/>
<text text-anchor="start" x="104.5" y="-45.2" font-family="Helvetica,sans-Serif" font-size="11.00">0 rows</text>
<polygon fill="#ffffff" stroke="transparent" points="140.5,-39 140.5,-57 223.5,-57 223.5,-39 140.5,-39"/>
<polygon fill="none" stroke="black" points="140.5,-39 140.5,-57 223.5,-57 223.5,-39 140.5,-39"/>
<text text-anchor="start" x="204.5" y="-45.2" font-family="Helvetica,sans-Serif" font-size="11.00">3 &gt;</text>
<polygon fill="none" stroke="black" stroke-width="2" points="9,-38 9,-410 224,-410 224,-38 9,-38"/>
</a>
</g>
</g>
<!-- a_asset&#45;&gt;a_asset_type -->
<g id="edge2" class="edge">
<title>a_asset:w&#45;&gt;a_asset_type:e</title>
<path fill="none" stroke="black" d="M452.83,-376C356.79,-376 327.44,-376 224.5,-376"/>
<polygon fill="black" stroke="black" points="459.5,-376 467.5,-379.6 463.5,-376 467.5,-376 467.5,-376 467.5,-376 463.5,-376 467.5,-372.4 459.5,-376 459.5,-376"/>
<ellipse fill="none" stroke="black" cx="456.3" cy="-376" rx="3.2" ry="3.2"/>
</g>
<!-- a_asset_group&#45;&gt;a_asset_type -->
<g id="edge3" class="edge">
<title>a_asset_group:w&#45;&gt;a_asset_type:e</title>
<path fill="none" stroke="black" d="M258.96,-638.38C170.92,-616.32 338.36,-376 224.5,-376"/>
<polygon fill="black" stroke="black" points="265.55,-639.12 273.1,-643.58 269.52,-639.56 273.5,-640 273.5,-640 273.5,-640 269.52,-639.56 273.9,-636.42 265.55,-639.12 265.55,-639.12"/>
<ellipse fill="none" stroke="black" cx="262.37" cy="-638.76" rx="3.2" ry="3.2"/>
</g>
<!-- i_fixedasset -->
<g id="node4" class="node">
<title>i_fixedasset</title>
<g id="a_node4"><a xlink:href="../../tables/i_fixedasset.html" xlink:title="i_fixedasset" target="_top">
<polygon fill="#ffffff" stroke="transparent" points="714,-496 714,-840 926,-840 926,-496 714,-496"/>
<polygon fill="#f5f5f5" stroke="transparent" points="714,-818 714,-840 926,-840 926,-818 714,-818"/>
<polygon fill="none" stroke="black" points="714,-818 714,-840 926,-840 926,-818 714,-818"/>
<text text-anchor="start" x="719" y="-827.2" font-family="Helvetica,sans-Serif" font-weight="bold" font-size="11.00">i_fixedasset</text>
<text text-anchor="start" x="891" y="-826.2" font-family="Helvetica,sans-Serif" font-size="11.00">[table]</text>
<polygon fill="none" stroke="black" points="714,-796 714,-818 926,-818 926,-796 714,-796"/>
<image xlink:href="../../images/primaryKeys.png" width="11px" height="12px" preserveAspectRatio="xMinYMin meet" x="719" y="-813"/>
<text text-anchor="start" x="734" y="-804.2" font-family="Helvetica,sans-Serif" font-size="11.00">i_fixedasset_id</text>
<polygon fill="none" stroke="black" points="714,-774 714,-796 926,-796 926,-774 714,-774"/>
<image xlink:href="../../images/foreignKeys.png" width="11px" height="12px" preserveAspectRatio="xMinYMin meet" x="719" y="-791"/>
<text text-anchor="start" x="734" y="-782.2" font-family="Helvetica,sans-Serif" font-size="11.00">a_asset_group_id</text>
<polygon fill="none" stroke="black" points="714,-752 714,-774 926,-774 926,-752 714,-752"/>
<image xlink:href="../../images/foreignKeys.png" width="11px" height="12px" preserveAspectRatio="xMinYMin meet" x="719" y="-769"/>
<text text-anchor="start" x="734" y="-760.2" font-family="Helvetica,sans-Serif" font-size="11.00">a_asset_class_id</text>
<polygon fill="none" stroke="black" points="714,-730 714,-752 926,-752 926,-730 714,-730"/>
<image xlink:href="../../images/foreignKeys.png" width="11px" height="12px" preserveAspectRatio="xMinYMin meet" x="719" y="-747"/>
<text text-anchor="start" x="734" y="-738.2" font-family="Helvetica,sans-Serif" font-size="11.00">m_product_id</text>
<polygon fill="none" stroke="black" points="714,-708 714,-730 926,-730 926,-708 714,-708"/>
<image xlink:href="../../images/foreignKeys.png" width="11px" height="12px" preserveAspectRatio="xMinYMin meet" x="719" y="-725"/>
<text text-anchor="start" x="734" y="-716.2" font-family="Helvetica,sans-Serif" font-size="11.00">a_asset_id</text>
<polygon fill="none" stroke="black" points="714,-686 714,-708 926,-708 926,-686 714,-686"/>
<image xlink:href="../../images/foreignKeys.png" width="11px" height="12px" preserveAspectRatio="xMinYMin meet" x="719" y="-703"/>
<text text-anchor="start" x="734" y="-694.2" font-family="Helvetica,sans-Serif" font-size="11.00">m_locator_id</text>
<polygon fill="none" stroke="black" points="714,-664 714,-686 926,-686 926,-664 714,-664"/>
<image xlink:href="../../images/foreignKeys.png" width="11px" height="12px" preserveAspectRatio="xMinYMin meet" x="719" y="-681"/>
<text text-anchor="start" x="734" y="-672.2" font-family="Helvetica,sans-Serif" font-size="11.00">c_uom_id</text>
<polygon fill="none" stroke="black" points="714,-642 714,-664 926,-664 926,-642 714,-642"/>
<image xlink:href="../../images/foreignKeys.png" width="11px" height="12px" preserveAspectRatio="xMinYMin meet" x="719" y="-659"/>
<text text-anchor="start" x="734" y="-650.2" font-family="Helvetica,sans-Serif" font-size="11.00">c_bpartnersr_id</text>
<polygon fill="none" stroke="black" points="714,-620 714,-642 926,-642 926,-620 714,-620"/>
<image xlink:href="../../images/foreignKeys.png" width="11px" height="12px" preserveAspectRatio="xMinYMin meet" x="719" y="-637"/>
<text text-anchor="start" x="734" y="-628.2" font-family="Helvetica,sans-Serif" font-size="11.00">c_city_id</text>
<polygon fill="none" stroke="black" points="714,-598 714,-620 926,-620 926,-598 714,-598"/>
<image xlink:href="../../images/foreignKeys.png" width="11px" height="12px" preserveAspectRatio="xMinYMin meet" x="719" y="-615"/>
<text text-anchor="start" x="734" y="-606.2" font-family="Helvetica,sans-Serif" font-size="11.00">a_asset_type_id</text>
<polygon fill="#ffffff" stroke="transparent" points="714,-576 714,-598 926,-598 926,-576 714,-576"/>
<polygon fill="none" stroke="black" points="714,-576 714,-598 926,-598 926,-576 714,-576"/>
<text text-anchor="start" x="734" y="-584.2" font-family="Helvetica,sans-Serif" font-size="11.00">i_fixedasset_uu</text>
<polygon fill="none" stroke="black" points="714,-554 714,-576 926,-576 926,-554 714,-554"/>
<image xlink:href="../../images/foreignKeys.png" width="11px" height="12px" preserveAspectRatio="xMinYMin meet" x="719" y="-571"/>
<text text-anchor="start" x="734" y="-562.2" font-family="Helvetica,sans-Serif" font-size="11.00">c_currency_id</text>
<polygon fill="none" stroke="black" points="714,-532 714,-554 926,-554 926,-532 714,-532"/>
<image xlink:href="../../images/foreignKeys.png" width="11px" height="12px" preserveAspectRatio="xMinYMin meet" x="719" y="-549"/>
<text text-anchor="start" x="734" y="-540.2" font-family="Helvetica,sans-Serif" font-size="11.00">c_acctschema_id</text>
<polygon fill="none" stroke="black" points="714,-514 714,-532 926,-532 926,-514 714,-514"/>
<text text-anchor="start" x="717" y="-520.2" font-family="Helvetica,sans-Serif" font-size="11.00">...</text>
<polygon fill="#ffffff" stroke="transparent" points="714,-496 714,-514 803,-514 803,-496 714,-496"/>
<polygon fill="none" stroke="black" points="714,-496 714,-514 803,-514 803,-496 714,-496"/>
<text text-anchor="start" x="717" y="-502.2" font-family="Helvetica,sans-Serif" font-size="11.00">&lt; 11</text>
<polygon fill="#ffffff" stroke="transparent" points="803,-496 803,-514 873,-514 873,-496 803,-496"/>
<polygon fill="none" stroke="black" points="803,-496 803,-514 873,-514 873,-496 803,-496"/>
<text text-anchor="start" x="837" y="-502.2" font-family="Helvetica,sans-Serif" font-size="11.00">0 rows</text>
<polygon fill="#ffffff" stroke="transparent" points="873,-496 873,-514 926,-514 926,-496 873,-496"/>
<polygon fill="none" stroke="black" points="873,-496 873,-514 926,-514 926,-496 873,-496"/>
<text text-anchor="start" x="907" y="-502.2" font-family="Helvetica,sans-Serif" font-size="11.00">1 &gt;</text>
</a>
</g>
</g>
<!-- i_fixedasset&#45;&gt;a_asset -->
<g id="edge5" class="edge">
<title>i_fixedasset:w&#45;&gt;a_asset:e</title>
<path fill="none" stroke="black" d="M698.45,-720.74C688.16,-723.35 681.63,-728 666.5,-728"/>
<polygon fill="black" stroke="black" points="705.06,-719.95 713.43,-722.57 709.03,-719.47 713,-719 713,-719 713,-719 709.03,-719.47 712.57,-715.43 705.06,-719.95 705.06,-719.95"/>
<ellipse fill="none" stroke="black" cx="701.88" cy="-720.33" rx="3.2" ry="3.2"/>
</g>
<!-- i_fixedasset&#45;&gt;a_asset_group -->
<g id="edge4" class="edge">
<title>i_fixedasset:w&#45;&gt;a_asset_group:e</title>
<path fill="none" stroke="black" d="M698.54,-785.25C596.45,-788.76 552.25,-827.47 460,-772 430.7,-754.38 454.69,-706 420.5,-706"/>
<polygon fill="black" stroke="black" points="705,-785.14 713.06,-788.6 709,-785.07 713,-785 713,-785 713,-785 709,-785.07 712.94,-781.4 705,-785.14 705,-785.14"/>
<ellipse fill="none" stroke="black" cx="701.8" cy="-785.19" rx="3.2" ry="3.2"/>
</g>
<!-- i_fixedasset&#45;&gt;a_asset_type -->
<g id="edge6" class="edge">
<title>i_fixedasset:w&#45;&gt;a_asset_type:e</title>
<path fill="none" stroke="black" d="M699.27,-604.36C655.15,-568.81 721.38,-339.57 673,-297 521.05,-163.29 426.9,-376 224.5,-376"/>
<polygon fill="black" stroke="black" points="705.42,-606.44 711.85,-612.41 709.21,-607.72 713,-609 713,-609 713,-609 709.21,-607.72 714.15,-605.59 705.42,-606.44 705.42,-606.44"/>
<ellipse fill="none" stroke="black" cx="702.39" cy="-605.42" rx="3.2" ry="3.2"/>
</g>
</g>
</svg>
