<?xml version="1.0" encoding="UTF-8" standalone="no"?>
<!DOCTYPE svg PUBLIC "-//W3C//DTD SVG 1.1//EN"
 "http://www.w3.org/Graphics/SVG/1.1/DTD/svg11.dtd">
<!-- Generated by graphviz version 2.43.0 (0)
 -->
<!-- Title: oneDegreeRelationshipsDiagram Pages: 1 -->
<svg width="842pt" height="694pt"
 viewBox="0.00 0.00 842.00 694.47" xmlns="http://www.w3.org/2000/svg" xmlns:xlink="http://www.w3.org/1999/xlink">
<g id="graph0" class="graph" transform="scale(1 1) rotate(0) translate(4 690.47)">
<title>oneDegreeRelationshipsDiagram</title>
<polygon fill="#ffffff" stroke="transparent" points="-4,4 -4,-690.47 838,-690.47 838,4 -4,4"/>
<text text-anchor="middle" x="71.5" y="-7.2" font-family="Helvetica,sans-Serif" font-size="11.00">Generated by SchemaSpy</text>
<!-- a_asset_change -->
<g id="node1" class="node">
<title>a_asset_change</title>
<g id="a_node1"><a xlink:href="../../tables/a_asset_change.html" xlink:title="a_asset_change" target="_top">
<polygon fill="#ffffff" stroke="transparent" points="244,-96.47 244,-682.47 478,-682.47 478,-96.47 244,-96.47"/>
<polygon fill="#f5f5f5" stroke="transparent" points="244,-660.47 244,-682.47 478,-682.47 478,-660.47 244,-660.47"/>
<polygon fill="none" stroke="black" points="244,-660.47 244,-682.47 478,-682.47 478,-660.47 244,-660.47"/>
<text text-anchor="start" x="249" y="-669.67" font-family="Helvetica,sans-Serif" font-weight="bold" font-size="11.00">a_asset_change</text>
<text text-anchor="start" x="443" y="-668.67" font-family="Helvetica,sans-Serif" font-size="11.00">[table]</text>
<polygon fill="none" stroke="black" points="244,-638.47 244,-660.47 478,-660.47 478,-638.47 244,-638.47"/>
<image xlink:href="../../images/primaryKeys.png" width="11px" height="12px" preserveAspectRatio="xMinYMin meet" x="249" y="-655.469"/>
<text text-anchor="start" x="264" y="-646.67" font-family="Helvetica,sans-Serif" font-size="11.00">a_asset_change_id</text>
<polygon fill="none" stroke="black" points="244,-616.47 244,-638.47 478,-638.47 478,-616.47 244,-616.47"/>
<image xlink:href="../../images/foreignKeys.png" width="11px" height="12px" preserveAspectRatio="xMinYMin meet" x="249" y="-633.469"/>
<text text-anchor="start" x="264" y="-624.67" font-family="Helvetica,sans-Serif" font-size="11.00">a_asset_id</text>
<polygon fill="none" stroke="black" points="244,-594.47 244,-616.47 478,-616.47 478,-594.47 244,-594.47"/>
<image xlink:href="../../images/foreignKeys.png" width="11px" height="12px" preserveAspectRatio="xMinYMin meet" x="249" y="-611.469"/>
<text text-anchor="start" x="264" y="-602.67" font-family="Helvetica,sans-Serif" font-size="11.00">a_asset_retirement_id</text>
<polygon fill="none" stroke="black" points="244,-572.47 244,-594.47 478,-594.47 478,-572.47 244,-572.47"/>
<image xlink:href="../../images/foreignKeys.png" width="11px" height="12px" preserveAspectRatio="xMinYMin meet" x="249" y="-589.469"/>
<text text-anchor="start" x="264" y="-580.67" font-family="Helvetica,sans-Serif" font-size="11.00">a_asset_addition_id</text>
<polygon fill="none" stroke="black" points="244,-550.47 244,-572.47 478,-572.47 478,-550.47 244,-550.47"/>
<image xlink:href="../../images/foreignKeys.png" width="11px" height="12px" preserveAspectRatio="xMinYMin meet" x="249" y="-567.469"/>
<text text-anchor="start" x="264" y="-558.67" font-family="Helvetica,sans-Serif" font-size="11.00">a_accumdepreciation_acct</text>
<polygon fill="none" stroke="black" points="244,-528.47 244,-550.47 478,-550.47 478,-528.47 244,-528.47"/>
<image xlink:href="../../images/foreignKeys.png" width="11px" height="12px" preserveAspectRatio="xMinYMin meet" x="249" y="-545.469"/>
<text text-anchor="start" x="264" y="-536.67" font-family="Helvetica,sans-Serif" font-size="11.00">a_parent_asset_id</text>
<polygon fill="none" stroke="black" points="244,-506.47 244,-528.47 478,-528.47 478,-506.47 244,-506.47"/>
<image xlink:href="../../images/foreignKeys.png" width="11px" height="12px" preserveAspectRatio="xMinYMin meet" x="249" y="-523.469"/>
<text text-anchor="start" x="264" y="-514.67" font-family="Helvetica,sans-Serif" font-size="11.00">a_depreciation_table_header_id</text>
<polygon fill="none" stroke="black" points="244,-484.47 244,-506.47 478,-506.47 478,-484.47 244,-484.47"/>
<image xlink:href="../../images/foreignKeys.png" width="11px" height="12px" preserveAspectRatio="xMinYMin meet" x="249" y="-501.469"/>
<text text-anchor="start" x="264" y="-492.67" font-family="Helvetica,sans-Serif" font-size="11.00">c_acctschema_id</text>
<polygon fill="none" stroke="black" points="244,-462.47 244,-484.47 478,-484.47 478,-462.47 244,-462.47"/>
<image xlink:href="../../images/foreignKeys.png" width="11px" height="12px" preserveAspectRatio="xMinYMin meet" x="249" y="-479.469"/>
<text text-anchor="start" x="264" y="-470.67" font-family="Helvetica,sans-Serif" font-size="11.00">ad_user_id</text>
<polygon fill="none" stroke="black" points="244,-440.47 244,-462.47 478,-462.47 478,-440.47 244,-440.47"/>
<image xlink:href="../../images/foreignKeys.png" width="11px" height="12px" preserveAspectRatio="xMinYMin meet" x="249" y="-457.469"/>
<text text-anchor="start" x="264" y="-448.67" font-family="Helvetica,sans-Serif" font-size="11.00">c_validcombination_id</text>
<polygon fill="none" stroke="black" points="244,-418.47 244,-440.47 478,-440.47 478,-418.47 244,-418.47"/>
<image xlink:href="../../images/foreignKeys.png" width="11px" height="12px" preserveAspectRatio="xMinYMin meet" x="249" y="-435.469"/>
<text text-anchor="start" x="264" y="-426.67" font-family="Helvetica,sans-Serif" font-size="11.00">c_location_id</text>
<polygon fill="none" stroke="black" points="244,-396.47 244,-418.47 478,-418.47 478,-396.47 244,-396.47"/>
<image xlink:href="../../images/foreignKeys.png" width="11px" height="12px" preserveAspectRatio="xMinYMin meet" x="249" y="-413.469"/>
<text text-anchor="start" x="264" y="-404.67" font-family="Helvetica,sans-Serif" font-size="11.00">c_bpartner_location_id</text>
<polygon fill="none" stroke="black" points="244,-374.47 244,-396.47 478,-396.47 478,-374.47 244,-374.47"/>
<image xlink:href="../../images/foreignKeys.png" width="11px" height="12px" preserveAspectRatio="xMinYMin meet" x="249" y="-391.469"/>
<text text-anchor="start" x="264" y="-382.67" font-family="Helvetica,sans-Serif" font-size="11.00">c_bpartner_id</text>
<polygon fill="none" stroke="black" points="244,-352.47 244,-374.47 478,-374.47 478,-352.47 244,-352.47"/>
<image xlink:href="../../images/foreignKeys.png" width="11px" height="12px" preserveAspectRatio="xMinYMin meet" x="249" y="-369.469"/>
<text text-anchor="start" x="264" y="-360.67" font-family="Helvetica,sans-Serif" font-size="11.00">a_depreciation_acct</text>
<polygon fill="none" stroke="black" points="244,-330.47 244,-352.47 478,-352.47 478,-330.47 244,-330.47"/>
<image xlink:href="../../images/foreignKeys.png" width="11px" height="12px" preserveAspectRatio="xMinYMin meet" x="249" y="-347.469"/>
<text text-anchor="start" x="264" y="-338.67" font-family="Helvetica,sans-Serif" font-size="11.00">a_asset_acct</text>
<polygon fill="none" stroke="black" points="244,-308.47 244,-330.47 478,-330.47 478,-308.47 244,-308.47"/>
<image xlink:href="../../images/foreignKeys.png" width="11px" height="12px" preserveAspectRatio="xMinYMin meet" x="249" y="-325.469"/>
<text text-anchor="start" x="264" y="-316.67" font-family="Helvetica,sans-Serif" font-size="11.00">a_asset_acct_id</text>
<polygon fill="#ffffff" stroke="transparent" points="244,-286.47 244,-308.47 478,-308.47 478,-286.47 244,-286.47"/>
<polygon fill="none" stroke="black" points="244,-286.47 244,-308.47 478,-308.47 478,-286.47 244,-286.47"/>
<text text-anchor="start" x="264" y="-294.67" font-family="Helvetica,sans-Serif" font-size="11.00">a_asset_change_uu</text>
<polygon fill="none" stroke="black" points="244,-264.47 244,-286.47 478,-286.47 478,-264.47 244,-264.47"/>
<image xlink:href="../../images/foreignKeys.png" width="11px" height="12px" preserveAspectRatio="xMinYMin meet" x="249" y="-281.469"/>
<text text-anchor="start" x="264" y="-272.67" font-family="Helvetica,sans-Serif" font-size="11.00">a_disposal_revenue_acct</text>
<polygon fill="none" stroke="black" points="244,-242.47 244,-264.47 478,-264.47 478,-242.47 244,-242.47"/>
<image xlink:href="../../images/foreignKeys.png" width="11px" height="12px" preserveAspectRatio="xMinYMin meet" x="249" y="-259.469"/>
<text text-anchor="start" x="264" y="-250.67" font-family="Helvetica,sans-Serif" font-size="11.00">a_disposal_loss_acct</text>
<polygon fill="none" stroke="black" points="244,-220.47 244,-242.47 478,-242.47 478,-220.47 244,-220.47"/>
<image xlink:href="../../images/foreignKeys.png" width="11px" height="12px" preserveAspectRatio="xMinYMin meet" x="249" y="-237.469"/>
<text text-anchor="start" x="264" y="-228.67" font-family="Helvetica,sans-Serif" font-size="11.00">c_invoice_id</text>
<polygon fill="none" stroke="black" points="244,-198.47 244,-220.47 478,-220.47 478,-198.47 244,-198.47"/>
<image xlink:href="../../images/foreignKeys.png" width="11px" height="12px" preserveAspectRatio="xMinYMin meet" x="249" y="-215.469"/>
<text text-anchor="start" x="264" y="-206.67" font-family="Helvetica,sans-Serif" font-size="11.00">c_invoice_c_bpartner_id</text>
<polygon fill="none" stroke="black" points="244,-176.47 244,-198.47 478,-198.47 478,-176.47 244,-176.47"/>
<image xlink:href="../../images/foreignKeys.png" width="11px" height="12px" preserveAspectRatio="xMinYMin meet" x="249" y="-193.469"/>
<text text-anchor="start" x="264" y="-184.67" font-family="Helvetica,sans-Serif" font-size="11.00">c_invoice_ad_user_id</text>
<polygon fill="none" stroke="black" points="244,-154.47 244,-176.47 478,-176.47 478,-154.47 244,-154.47"/>
<image xlink:href="../../images/foreignKeys.png" width="11px" height="12px" preserveAspectRatio="xMinYMin meet" x="249" y="-171.469"/>
<text text-anchor="start" x="264" y="-162.67" font-family="Helvetica,sans-Serif" font-size="11.00">c_invoice_c_doctypetarget_id</text>
<polygon fill="none" stroke="black" points="244,-132.47 244,-154.47 478,-154.47 478,-132.47 244,-132.47"/>
<image xlink:href="../../images/foreignKeys.png" width="11px" height="12px" preserveAspectRatio="xMinYMin meet" x="249" y="-149.469"/>
<text text-anchor="start" x="264" y="-140.67" font-family="Helvetica,sans-Serif" font-size="11.00">c_invoice_c_bpartnerloc_id</text>
<polygon fill="none" stroke="black" points="244,-114.47 244,-132.47 478,-132.47 478,-114.47 244,-114.47"/>
<text text-anchor="start" x="247" y="-120.67" font-family="Helvetica,sans-Serif" font-size="11.00">...</text>
<polygon fill="#ffffff" stroke="transparent" points="244,-96.47 244,-114.47 344,-114.47 344,-96.47 244,-96.47"/>
<polygon fill="none" stroke="black" points="244,-96.47 244,-114.47 344,-114.47 344,-96.47 244,-96.47"/>
<text text-anchor="start" x="247" y="-102.67" font-family="Helvetica,sans-Serif" font-size="11.00">&lt; 21</text>
<polygon fill="#ffffff" stroke="transparent" points="344,-96.47 344,-114.47 419,-114.47 419,-96.47 344,-96.47"/>
<polygon fill="none" stroke="black" points="344,-96.47 344,-114.47 419,-114.47 419,-96.47 344,-96.47"/>
<text text-anchor="start" x="383" y="-102.67" font-family="Helvetica,sans-Serif" font-size="11.00">0 rows</text>
<polygon fill="#ffffff" stroke="transparent" points="419,-96.47 419,-114.47 478,-114.47 478,-96.47 419,-96.47"/>
<polygon fill="none" stroke="black" points="419,-96.47 419,-114.47 478,-114.47 478,-96.47 419,-96.47"/>
<text text-anchor="start" x="459" y="-102.67" font-family="Helvetica,sans-Serif" font-size="11.00">1 &gt;</text>
</a>
</g>
</g>
<!-- c_acctschema -->
<g id="node2" class="node">
<title>c_acctschema</title>
<g id="a_node2"><a xlink:href="../../tables/c_acctschema.html" xlink:title="c_acctschema" target="_top">
<polygon fill="#ffffff" stroke="transparent" points="8,-60.47 8,-316.47 195,-316.47 195,-60.47 8,-60.47"/>
<polygon fill="#f5f5f5" stroke="transparent" points="8.5,-294.47 8.5,-316.47 195.5,-316.47 195.5,-294.47 8.5,-294.47"/>
<polygon fill="none" stroke="black" points="8.5,-294.47 8.5,-316.47 195.5,-316.47 195.5,-294.47 8.5,-294.47"/>
<text text-anchor="start" x="13.5" y="-303.67" font-family="Helvetica,sans-Serif" font-weight="bold" font-size="11.00">c_acctschema</text>
<text text-anchor="start" x="160.5" y="-302.67" font-family="Helvetica,sans-Serif" font-size="11.00">[table]</text>
<polygon fill="none" stroke="black" points="8.5,-272.47 8.5,-294.47 195.5,-294.47 195.5,-272.47 8.5,-272.47"/>
<image xlink:href="../../images/primaryKeys.png" width="11px" height="12px" preserveAspectRatio="xMinYMin meet" x="13.5" y="-289.469"/>
<text text-anchor="start" x="28.5" y="-280.67" font-family="Helvetica,sans-Serif" font-size="11.00">c_acctschema_id</text>
<polygon fill="#ffffff" stroke="transparent" points="8.5,-250.47 8.5,-272.47 195.5,-272.47 195.5,-250.47 8.5,-250.47"/>
<polygon fill="none" stroke="black" points="8.5,-250.47 8.5,-272.47 195.5,-272.47 195.5,-250.47 8.5,-250.47"/>
<image xlink:href="../../images/foreignKeys.png" width="11px" height="12px" preserveAspectRatio="xMinYMin meet" x="13.5" y="-267.469"/>
<text text-anchor="start" x="28.5" y="-258.67" font-family="Helvetica,sans-Serif" font-size="11.00">ad_client_id</text>
<polygon fill="none" stroke="black" points="8.5,-228.47 8.5,-250.47 195.5,-250.47 195.5,-228.47 8.5,-228.47"/>
<image xlink:href="../../images/foreignKeys.png" width="11px" height="12px" preserveAspectRatio="xMinYMin meet" x="13.5" y="-245.469"/>
<text text-anchor="start" x="28.5" y="-236.67" font-family="Helvetica,sans-Serif" font-size="11.00">ad_org_id</text>
<polygon fill="#ffffff" stroke="transparent" points="8.5,-206.47 8.5,-228.47 195.5,-228.47 195.5,-206.47 8.5,-206.47"/>
<polygon fill="none" stroke="black" points="8.5,-206.47 8.5,-228.47 195.5,-228.47 195.5,-206.47 8.5,-206.47"/>
<text text-anchor="start" x="28.5" y="-214.67" font-family="Helvetica,sans-Serif" font-size="11.00">name</text>
<polygon fill="none" stroke="black" points="8.5,-184.47 8.5,-206.47 195.5,-206.47 195.5,-184.47 8.5,-184.47"/>
<image xlink:href="../../images/foreignKeys.png" width="11px" height="12px" preserveAspectRatio="xMinYMin meet" x="13.5" y="-201.469"/>
<text text-anchor="start" x="28.5" y="-192.67" font-family="Helvetica,sans-Serif" font-size="11.00">c_currency_id</text>
<polygon fill="none" stroke="black" points="8.5,-162.47 8.5,-184.47 195.5,-184.47 195.5,-162.47 8.5,-162.47"/>
<image xlink:href="../../images/foreignKeys.png" width="11px" height="12px" preserveAspectRatio="xMinYMin meet" x="13.5" y="-179.469"/>
<text text-anchor="start" x="28.5" y="-170.67" font-family="Helvetica,sans-Serif" font-size="11.00">c_period_id</text>
<polygon fill="none" stroke="black" points="8.5,-140.47 8.5,-162.47 195.5,-162.47 195.5,-140.47 8.5,-140.47"/>
<image xlink:href="../../images/foreignKeys.png" width="11px" height="12px" preserveAspectRatio="xMinYMin meet" x="13.5" y="-157.469"/>
<text text-anchor="start" x="28.5" y="-148.67" font-family="Helvetica,sans-Serif" font-size="11.00">m_costtype_id</text>
<polygon fill="none" stroke="black" points="8.5,-118.47 8.5,-140.47 195.5,-140.47 195.5,-118.47 8.5,-118.47"/>
<image xlink:href="../../images/foreignKeys.png" width="11px" height="12px" preserveAspectRatio="xMinYMin meet" x="13.5" y="-135.469"/>
<text text-anchor="start" x="28.5" y="-126.67" font-family="Helvetica,sans-Serif" font-size="11.00">ad_orgonly_id</text>
<polygon fill="#ffffff" stroke="transparent" points="8.5,-96.47 8.5,-118.47 195.5,-118.47 195.5,-96.47 8.5,-96.47"/>
<polygon fill="none" stroke="black" points="8.5,-96.47 8.5,-118.47 195.5,-118.47 195.5,-96.47 8.5,-96.47"/>
<text text-anchor="start" x="28.5" y="-104.67" font-family="Helvetica,sans-Serif" font-size="11.00">c_acctschema_uu</text>
<polygon fill="none" stroke="black" points="8.5,-78.47 8.5,-96.47 195.5,-96.47 195.5,-78.47 8.5,-78.47"/>
<text text-anchor="start" x="11.5" y="-84.67" font-family="Helvetica,sans-Serif" font-size="11.00">...</text>
<polygon fill="#ffffff" stroke="transparent" points="8.5,-60.47 8.5,-78.47 81.5,-78.47 81.5,-60.47 8.5,-60.47"/>
<polygon fill="none" stroke="black" points="8.5,-60.47 8.5,-78.47 81.5,-78.47 81.5,-60.47 8.5,-60.47"/>
<text text-anchor="start" x="11.5" y="-66.67" font-family="Helvetica,sans-Serif" font-size="11.00">&lt; 6</text>
<polygon fill="#ffffff" stroke="transparent" points="81.5,-60.47 81.5,-78.47 141.5,-78.47 141.5,-60.47 81.5,-60.47"/>
<polygon fill="none" stroke="black" points="81.5,-60.47 81.5,-78.47 141.5,-78.47 141.5,-60.47 81.5,-60.47"/>
<text text-anchor="start" x="110.5" y="-66.67" font-family="Helvetica,sans-Serif" font-size="11.00">1 row</text>
<polygon fill="#ffffff" stroke="transparent" points="141.5,-60.47 141.5,-78.47 195.5,-78.47 195.5,-60.47 141.5,-60.47"/>
<polygon fill="none" stroke="black" points="141.5,-60.47 141.5,-78.47 195.5,-78.47 195.5,-60.47 141.5,-60.47"/>
<text text-anchor="start" x="170.5" y="-66.67" font-family="Helvetica,sans-Serif" font-size="11.00">55 &gt;</text>
</a>
</g>
</g>
<!-- a_asset_change&#45;&gt;c_acctschema -->
<g id="edge1" class="edge">
<title>a_asset_change:w&#45;&gt;c_acctschema:e</title>
<path fill="none" stroke="black" d="M228.45,-493.37C162.86,-471.35 287.31,-283.47 196.5,-283.47"/>
<polygon fill="black" stroke="black" points="235.08,-494.33 242.49,-499.03 239.04,-494.9 243,-495.47 243,-495.47 243,-495.47 239.04,-494.9 243.51,-491.91 235.08,-494.33 235.08,-494.33"/>
<ellipse fill="none" stroke="black" cx="231.91" cy="-493.87" rx="3.2" ry="3.2"/>
</g>
<!-- a_asset_change_amt -->
<g id="node3" class="node">
<title>a_asset_change_amt</title>
<g id="a_node3"><a xlink:href="../../tables/a_asset_change_amt.html" xlink:title="a_asset_change_amt" target="_top">
<polygon fill="#ffffff" stroke="transparent" points="527,-76.47 527,-406.47 826,-406.47 826,-76.47 527,-76.47"/>
<polygon fill="#f5f5f5" stroke="transparent" points="529.5,-382.47 529.5,-404.47 824.5,-404.47 824.5,-382.47 529.5,-382.47"/>
<polygon fill="none" stroke="black" points="529.5,-382.47 529.5,-404.47 824.5,-404.47 824.5,-382.47 529.5,-382.47"/>
<text text-anchor="start" x="534.5" y="-391.67" font-family="Helvetica,sans-Serif" font-weight="bold" font-size="11.00">a_asset_change_amt</text>
<text text-anchor="start" x="789.5" y="-390.67" font-family="Helvetica,sans-Serif" font-size="11.00">[table]</text>
<polygon fill="none" stroke="black" points="529.5,-360.47 529.5,-382.47 741.5,-382.47 741.5,-360.47 529.5,-360.47"/>
<image xlink:href="../../images/primaryKeys.png" width="11px" height="12px" preserveAspectRatio="xMinYMin meet" x="534.5" y="-377.469"/>
<text text-anchor="start" x="549.5" y="-368.67" font-family="Helvetica,sans-Serif" font-size="11.00">a_asset_change_id</text>
<polygon fill="none" stroke="black" points="741.5,-360.47 741.5,-382.47 824.5,-382.47 824.5,-360.47 741.5,-360.47"/>
<text text-anchor="start" x="744.5" y="-368.67" font-family="Helvetica,sans-Serif" font-size="11.00">numeric[10]</text>
<polygon fill="none" stroke="black" points="529.5,-338.47 529.5,-360.47 741.5,-360.47 741.5,-338.47 529.5,-338.47"/>
<image xlink:href="../../images/primaryKeys.png" width="11px" height="12px" preserveAspectRatio="xMinYMin meet" x="534.5" y="-355.469"/>
<text text-anchor="start" x="549.5" y="-346.67" font-family="Helvetica,sans-Serif" font-size="11.00">c_acctschema_id</text>
<polygon fill="none" stroke="black" points="741.5,-338.47 741.5,-360.47 824.5,-360.47 824.5,-338.47 741.5,-338.47"/>
<text text-anchor="start" x="744.5" y="-346.67" font-family="Helvetica,sans-Serif" font-size="11.00">numeric[10]</text>
<polygon fill="none" stroke="black" points="529.5,-316.47 529.5,-338.47 741.5,-338.47 741.5,-316.47 529.5,-316.47"/>
<text text-anchor="start" x="549.5" y="-324.67" font-family="Helvetica,sans-Serif" font-size="11.00">ad_client_id</text>
<polygon fill="none" stroke="black" points="741.5,-316.47 741.5,-338.47 824.5,-338.47 824.5,-316.47 741.5,-316.47"/>
<text text-anchor="start" x="744.5" y="-324.67" font-family="Helvetica,sans-Serif" font-size="11.00">numeric[10]</text>
<polygon fill="none" stroke="black" points="529.5,-294.47 529.5,-316.47 741.5,-316.47 741.5,-294.47 529.5,-294.47"/>
<text text-anchor="start" x="549.5" y="-302.67" font-family="Helvetica,sans-Serif" font-size="11.00">ad_org_id</text>
<polygon fill="none" stroke="black" points="741.5,-294.47 741.5,-316.47 824.5,-316.47 824.5,-294.47 741.5,-294.47"/>
<text text-anchor="start" x="744.5" y="-302.67" font-family="Helvetica,sans-Serif" font-size="11.00">numeric[10]</text>
<polygon fill="none" stroke="black" points="529.5,-272.47 529.5,-294.47 741.5,-294.47 741.5,-272.47 529.5,-272.47"/>
<text text-anchor="start" x="549.5" y="-280.67" font-family="Helvetica,sans-Serif" font-size="11.00">isactive</text>
<polygon fill="none" stroke="black" points="741.5,-272.47 741.5,-294.47 824.5,-294.47 824.5,-272.47 741.5,-272.47"/>
<text text-anchor="start" x="744.5" y="-280.67" font-family="Helvetica,sans-Serif" font-size="11.00">bpchar[1]</text>
<polygon fill="none" stroke="black" points="529.5,-250.47 529.5,-272.47 741.5,-272.47 741.5,-250.47 529.5,-250.47"/>
<text text-anchor="start" x="549.5" y="-258.67" font-family="Helvetica,sans-Serif" font-size="11.00">created</text>
<polygon fill="none" stroke="black" points="741.5,-250.47 741.5,-272.47 824.5,-272.47 824.5,-250.47 741.5,-250.47"/>
<text text-anchor="start" x="744.5" y="-258.67" font-family="Helvetica,sans-Serif" font-size="11.00">timestamp[29,6]</text>
<polygon fill="none" stroke="black" points="529.5,-228.47 529.5,-250.47 741.5,-250.47 741.5,-228.47 529.5,-228.47"/>
<text text-anchor="start" x="549.5" y="-236.67" font-family="Helvetica,sans-Serif" font-size="11.00">createdby</text>
<polygon fill="none" stroke="black" points="741.5,-228.47 741.5,-250.47 824.5,-250.47 824.5,-228.47 741.5,-228.47"/>
<text text-anchor="start" x="744.5" y="-236.67" font-family="Helvetica,sans-Serif" font-size="11.00">numeric[10]</text>
<polygon fill="none" stroke="black" points="529.5,-206.47 529.5,-228.47 741.5,-228.47 741.5,-206.47 529.5,-206.47"/>
<text text-anchor="start" x="549.5" y="-214.67" font-family="Helvetica,sans-Serif" font-size="11.00">updated</text>
<polygon fill="none" stroke="black" points="741.5,-206.47 741.5,-228.47 824.5,-228.47 824.5,-206.47 741.5,-206.47"/>
<text text-anchor="start" x="744.5" y="-214.67" font-family="Helvetica,sans-Serif" font-size="11.00">timestamp[29,6]</text>
<polygon fill="none" stroke="black" points="529.5,-184.47 529.5,-206.47 741.5,-206.47 741.5,-184.47 529.5,-184.47"/>
<text text-anchor="start" x="549.5" y="-192.67" font-family="Helvetica,sans-Serif" font-size="11.00">updatedby</text>
<polygon fill="none" stroke="black" points="741.5,-184.47 741.5,-206.47 824.5,-206.47 824.5,-184.47 741.5,-184.47"/>
<text text-anchor="start" x="744.5" y="-192.67" font-family="Helvetica,sans-Serif" font-size="11.00">numeric[10]</text>
<polygon fill="none" stroke="black" points="529.5,-162.47 529.5,-184.47 741.5,-184.47 741.5,-162.47 529.5,-162.47"/>
<text text-anchor="start" x="549.5" y="-170.67" font-family="Helvetica,sans-Serif" font-size="11.00">assetvalueamt</text>
<polygon fill="none" stroke="black" points="741.5,-162.47 741.5,-184.47 824.5,-184.47 824.5,-162.47 741.5,-162.47"/>
<text text-anchor="start" x="744.5" y="-170.67" font-family="Helvetica,sans-Serif" font-size="11.00">numeric[0]</text>
<polygon fill="none" stroke="black" points="529.5,-140.47 529.5,-162.47 741.5,-162.47 741.5,-140.47 529.5,-140.47"/>
<text text-anchor="start" x="549.5" y="-148.67" font-family="Helvetica,sans-Serif" font-size="11.00">assetmarketvalueamt</text>
<polygon fill="none" stroke="black" points="741.5,-140.47 741.5,-162.47 824.5,-162.47 824.5,-140.47 741.5,-140.47"/>
<text text-anchor="start" x="744.5" y="-148.67" font-family="Helvetica,sans-Serif" font-size="11.00">numeric[0]</text>
<polygon fill="none" stroke="black" points="529.5,-118.47 529.5,-140.47 741.5,-140.47 741.5,-118.47 529.5,-118.47"/>
<text text-anchor="start" x="549.5" y="-126.67" font-family="Helvetica,sans-Serif" font-size="11.00">assetbookvalueamt</text>
<polygon fill="none" stroke="black" points="741.5,-118.47 741.5,-140.47 824.5,-140.47 824.5,-118.47 741.5,-118.47"/>
<text text-anchor="start" x="744.5" y="-126.67" font-family="Helvetica,sans-Serif" font-size="11.00">numeric[0]</text>
<polygon fill="none" stroke="black" points="529.5,-96.47 529.5,-118.47 741.5,-118.47 741.5,-96.47 529.5,-96.47"/>
<text text-anchor="start" x="549.5" y="-104.67" font-family="Helvetica,sans-Serif" font-size="11.00">assetaccumdepreciationamt</text>
<polygon fill="none" stroke="black" points="741.5,-96.47 741.5,-118.47 824.5,-118.47 824.5,-96.47 741.5,-96.47"/>
<text text-anchor="start" x="744.5" y="-104.67" font-family="Helvetica,sans-Serif" font-size="11.00">numeric[0]</text>
<polygon fill="#ffffff" stroke="transparent" points="529.5,-78.47 529.5,-96.47 626.5,-96.47 626.5,-78.47 529.5,-78.47"/>
<polygon fill="none" stroke="black" points="529.5,-78.47 529.5,-96.47 626.5,-96.47 626.5,-78.47 529.5,-78.47"/>
<text text-anchor="start" x="532.5" y="-84.67" font-family="Helvetica,sans-Serif" font-size="11.00">&lt; 2</text>
<polygon fill="#ffffff" stroke="transparent" points="626.5,-78.47 626.5,-96.47 741.5,-96.47 741.5,-78.47 626.5,-78.47"/>
<polygon fill="none" stroke="black" points="626.5,-78.47 626.5,-96.47 741.5,-96.47 741.5,-78.47 626.5,-78.47"/>
<text text-anchor="start" x="705.5" y="-84.67" font-family="Helvetica,sans-Serif" font-size="11.00">0 rows</text>
<polygon fill="#ffffff" stroke="transparent" points="741.5,-78.47 741.5,-96.47 824.5,-96.47 824.5,-78.47 741.5,-78.47"/>
<polygon fill="none" stroke="black" points="741.5,-78.47 741.5,-96.47 824.5,-96.47 824.5,-78.47 741.5,-78.47"/>
<text text-anchor="start" x="805.5" y="-84.67" font-family="Helvetica,sans-Serif" font-size="11.00">0 &gt;</text>
<polygon fill="none" stroke="black" stroke-width="2" points="528,-77.47 528,-405.47 825,-405.47 825,-77.47 528,-77.47"/>
</a>
</g>
</g>
<!-- a_asset_change_amt&#45;&gt;a_asset_change -->
<g id="edge2" class="edge">
<title>a_asset_change_amt:w&#45;&gt;a_asset_change:e</title>
<path fill="none" stroke="black" d="M514.08,-372.96C419.71,-394.85 599.11,-649.47 479,-649.47"/>
<polygon fill="black" stroke="black" points="520.54,-372.29 528.87,-375.05 524.52,-371.88 528.5,-371.47 528.5,-371.47 528.5,-371.47 524.52,-371.88 528.13,-367.89 520.54,-372.29 520.54,-372.29"/>
<ellipse fill="none" stroke="black" cx="517.36" cy="-372.62" rx="3.2" ry="3.2"/>
</g>
<!-- a_asset_change_amt&#45;&gt;c_acctschema -->
<g id="edge3" class="edge">
<title>a_asset_change_amt:w&#45;&gt;c_acctschema:e</title>
<path fill="none" stroke="black" d="M514.85,-343.89C479.94,-308.99 526.85,-121.25 486,-86.47 401.4,-14.44 321.94,-16.05 236,-86.47 166.93,-143.07 285.8,-283.47 196.5,-283.47"/>
<polygon fill="black" stroke="black" points="521.1,-346.44 527.14,-352.8 524.8,-347.95 528.5,-349.47 528.5,-349.47 528.5,-349.47 524.8,-347.95 529.86,-346.14 521.1,-346.44 521.1,-346.44"/>
<ellipse fill="none" stroke="black" cx="518.13" cy="-345.23" rx="3.2" ry="3.2"/>
</g>
</g>
</svg>
