<?xml version="1.0" encoding="UTF-8" standalone="no"?>
<!DOCTYPE svg PUBLIC "-//W3C//DTD SVG 1.1//EN"
 "http://www.w3.org/Graphics/SVG/1.1/DTD/svg11.dtd">
<!-- Generated by graphviz version 2.43.0 (0)
 -->
<!-- Title: oneDegreeRelationshipsDiagram Pages: 1 -->
<svg width="553pt" height="450pt"
 viewBox="0.00 0.00 553.00 450.00" xmlns="http://www.w3.org/2000/svg" xmlns:xlink="http://www.w3.org/1999/xlink">
<g id="graph0" class="graph" transform="scale(1 1) rotate(0) translate(4 446)">
<title>oneDegreeRelationshipsDiagram</title>
<polygon fill="#ffffff" stroke="transparent" points="-4,4 -4,-446 549,-446 549,4 -4,4"/>
<text text-anchor="middle" x="71.5" y="-7.2" font-family="Helvetica,sans-Serif" font-size="11.00">Generated by SchemaSpy</text>
<!-- a_registrationvalue -->
<g id="node1" class="node">
<title>a_registrationvalue</title>
<g id="a_node1"><a xlink:href="../../tables/a_registrationvalue.html" xlink:title="a_registrationvalue" target="_top">
<polygon fill="#ffffff" stroke="transparent" points="256,-37 256,-345 537,-345 537,-37 256,-37"/>
<polygon fill="#f5f5f5" stroke="transparent" points="258.5,-321 258.5,-343 535.5,-343 535.5,-321 258.5,-321"/>
<polygon fill="none" stroke="black" points="258.5,-321 258.5,-343 535.5,-343 535.5,-321 258.5,-321"/>
<text text-anchor="start" x="263.5" y="-330.2" font-family="Helvetica,sans-Serif" font-weight="bold" font-size="11.00">a_registrationvalue</text>
<text text-anchor="start" x="500.5" y="-329.2" font-family="Helvetica,sans-Serif" font-size="11.00">[table]</text>
<polygon fill="none" stroke="black" points="258.5,-299 258.5,-321 452.5,-321 452.5,-299 258.5,-299"/>
<image xlink:href="../../images/primaryKeys.png" width="11px" height="12px" preserveAspectRatio="xMinYMin meet" x="263.5" y="-316"/>
<text text-anchor="start" x="278.5" y="-307.2" font-family="Helvetica,sans-Serif" font-size="11.00">a_registration_id</text>
<polygon fill="none" stroke="black" points="452.5,-299 452.5,-321 535.5,-321 535.5,-299 452.5,-299"/>
<text text-anchor="start" x="455.5" y="-307.2" font-family="Helvetica,sans-Serif" font-size="11.00">numeric[10]</text>
<polygon fill="none" stroke="black" points="258.5,-277 258.5,-299 452.5,-299 452.5,-277 258.5,-277"/>
<image xlink:href="../../images/primaryKeys.png" width="11px" height="12px" preserveAspectRatio="xMinYMin meet" x="263.5" y="-294"/>
<text text-anchor="start" x="278.5" y="-285.2" font-family="Helvetica,sans-Serif" font-size="11.00">a_registrationattribute_id</text>
<polygon fill="none" stroke="black" points="452.5,-277 452.5,-299 535.5,-299 535.5,-277 452.5,-277"/>
<text text-anchor="start" x="455.5" y="-285.2" font-family="Helvetica,sans-Serif" font-size="11.00">numeric[10]</text>
<polygon fill="none" stroke="black" points="258.5,-255 258.5,-277 452.5,-277 452.5,-255 258.5,-255"/>
<text text-anchor="start" x="278.5" y="-263.2" font-family="Helvetica,sans-Serif" font-size="11.00">ad_client_id</text>
<polygon fill="none" stroke="black" points="452.5,-255 452.5,-277 535.5,-277 535.5,-255 452.5,-255"/>
<text text-anchor="start" x="455.5" y="-263.2" font-family="Helvetica,sans-Serif" font-size="11.00">numeric[10]</text>
<polygon fill="none" stroke="black" points="258.5,-233 258.5,-255 452.5,-255 452.5,-233 258.5,-233"/>
<text text-anchor="start" x="278.5" y="-241.2" font-family="Helvetica,sans-Serif" font-size="11.00">ad_org_id</text>
<polygon fill="none" stroke="black" points="452.5,-233 452.5,-255 535.5,-255 535.5,-233 452.5,-233"/>
<text text-anchor="start" x="455.5" y="-241.2" font-family="Helvetica,sans-Serif" font-size="11.00">numeric[10]</text>
<polygon fill="none" stroke="black" points="258.5,-211 258.5,-233 452.5,-233 452.5,-211 258.5,-211"/>
<text text-anchor="start" x="278.5" y="-219.2" font-family="Helvetica,sans-Serif" font-size="11.00">isactive</text>
<polygon fill="none" stroke="black" points="452.5,-211 452.5,-233 535.5,-233 535.5,-211 452.5,-211"/>
<text text-anchor="start" x="455.5" y="-219.2" font-family="Helvetica,sans-Serif" font-size="11.00">bpchar[1]</text>
<polygon fill="none" stroke="black" points="258.5,-189 258.5,-211 452.5,-211 452.5,-189 258.5,-189"/>
<text text-anchor="start" x="278.5" y="-197.2" font-family="Helvetica,sans-Serif" font-size="11.00">created</text>
<polygon fill="none" stroke="black" points="452.5,-189 452.5,-211 535.5,-211 535.5,-189 452.5,-189"/>
<text text-anchor="start" x="455.5" y="-197.2" font-family="Helvetica,sans-Serif" font-size="11.00">timestamp[29,6]</text>
<polygon fill="none" stroke="black" points="258.5,-167 258.5,-189 452.5,-189 452.5,-167 258.5,-167"/>
<text text-anchor="start" x="278.5" y="-175.2" font-family="Helvetica,sans-Serif" font-size="11.00">createdby</text>
<polygon fill="none" stroke="black" points="452.5,-167 452.5,-189 535.5,-189 535.5,-167 452.5,-167"/>
<text text-anchor="start" x="455.5" y="-175.2" font-family="Helvetica,sans-Serif" font-size="11.00">numeric[10]</text>
<polygon fill="none" stroke="black" points="258.5,-145 258.5,-167 452.5,-167 452.5,-145 258.5,-145"/>
<text text-anchor="start" x="278.5" y="-153.2" font-family="Helvetica,sans-Serif" font-size="11.00">updated</text>
<polygon fill="none" stroke="black" points="452.5,-145 452.5,-167 535.5,-167 535.5,-145 452.5,-145"/>
<text text-anchor="start" x="455.5" y="-153.2" font-family="Helvetica,sans-Serif" font-size="11.00">timestamp[29,6]</text>
<polygon fill="none" stroke="black" points="258.5,-123 258.5,-145 452.5,-145 452.5,-123 258.5,-123"/>
<text text-anchor="start" x="278.5" y="-131.2" font-family="Helvetica,sans-Serif" font-size="11.00">updatedby</text>
<polygon fill="none" stroke="black" points="452.5,-123 452.5,-145 535.5,-145 535.5,-123 452.5,-123"/>
<text text-anchor="start" x="455.5" y="-131.2" font-family="Helvetica,sans-Serif" font-size="11.00">numeric[10]</text>
<polygon fill="none" stroke="black" points="258.5,-101 258.5,-123 452.5,-123 452.5,-101 258.5,-101"/>
<text text-anchor="start" x="278.5" y="-109.2" font-family="Helvetica,sans-Serif" font-size="11.00">name</text>
<polygon fill="none" stroke="black" points="452.5,-101 452.5,-123 535.5,-123 535.5,-101 452.5,-101"/>
<text text-anchor="start" x="455.5" y="-109.2" font-family="Helvetica,sans-Serif" font-size="11.00">varchar[60]</text>
<polygon fill="none" stroke="black" points="258.5,-79 258.5,-101 452.5,-101 452.5,-79 258.5,-79"/>
<text text-anchor="start" x="278.5" y="-87.2" font-family="Helvetica,sans-Serif" font-size="11.00">description</text>
<polygon fill="none" stroke="black" points="452.5,-79 452.5,-101 535.5,-101 535.5,-79 452.5,-79"/>
<text text-anchor="start" x="455.5" y="-87.2" font-family="Helvetica,sans-Serif" font-size="11.00">varchar[255]</text>
<polygon fill="#ffffff" stroke="transparent" points="258.5,-57 258.5,-79 452.5,-79 452.5,-57 258.5,-57"/>
<polygon fill="none" stroke="black" points="258.5,-57 258.5,-79 452.5,-79 452.5,-57 258.5,-57"/>
<text text-anchor="start" x="278.5" y="-65.2" font-family="Helvetica,sans-Serif" font-size="11.00">a_registrationvalue_uu</text>
<polygon fill="none" stroke="black" points="452.5,-57 452.5,-79 535.5,-79 535.5,-57 452.5,-57"/>
<text text-anchor="start" x="455.5" y="-65.2" font-family="Helvetica,sans-Serif" font-size="11.00">varchar[36]</text>
<polygon fill="#ffffff" stroke="transparent" points="258.5,-39 258.5,-57 346.5,-57 346.5,-39 258.5,-39"/>
<polygon fill="none" stroke="black" points="258.5,-39 258.5,-57 346.5,-57 346.5,-39 258.5,-39"/>
<text text-anchor="start" x="261.5" y="-45.2" font-family="Helvetica,sans-Serif" font-size="11.00">&lt; 2</text>
<polygon fill="#ffffff" stroke="transparent" points="346.5,-39 346.5,-57 452.5,-57 452.5,-39 346.5,-39"/>
<polygon fill="none" stroke="black" points="346.5,-39 346.5,-57 452.5,-57 452.5,-39 346.5,-39"/>
<text text-anchor="start" x="416.5" y="-45.2" font-family="Helvetica,sans-Serif" font-size="11.00">0 rows</text>
<polygon fill="#ffffff" stroke="transparent" points="452.5,-39 452.5,-57 535.5,-57 535.5,-39 452.5,-39"/>
<polygon fill="none" stroke="black" points="452.5,-39 452.5,-57 535.5,-57 535.5,-39 452.5,-39"/>
<text text-anchor="start" x="516.5" y="-45.2" font-family="Helvetica,sans-Serif" font-size="11.00">0 &gt;</text>
<polygon fill="none" stroke="black" stroke-width="2" points="257,-38 257,-344 536,-344 536,-38 257,-38"/>
</a>
</g>
</g>
<!-- a_registration -->
<g id="node2" class="node">
<title>a_registration</title>
<g id="a_node2"><a xlink:href="../../tables/a_registration.html" xlink:title="a_registration" target="_top">
<polygon fill="#ffffff" stroke="transparent" points="38.5,-248 38.5,-438 176.5,-438 176.5,-248 38.5,-248"/>
<polygon fill="#f5f5f5" stroke="transparent" points="38.5,-416 38.5,-438 176.5,-438 176.5,-416 38.5,-416"/>
<polygon fill="none" stroke="black" points="38.5,-416 38.5,-438 176.5,-438 176.5,-416 38.5,-416"/>
<text text-anchor="start" x="43.5" y="-425.2" font-family="Helvetica,sans-Serif" font-weight="bold" font-size="11.00">a_registration</text>
<text text-anchor="start" x="141.5" y="-424.2" font-family="Helvetica,sans-Serif" font-size="11.00">[table]</text>
<polygon fill="none" stroke="black" points="38.5,-394 38.5,-416 176.5,-416 176.5,-394 38.5,-394"/>
<image xlink:href="../../images/primaryKeys.png" width="11px" height="12px" preserveAspectRatio="xMinYMin meet" x="43.5" y="-411"/>
<text text-anchor="start" x="58.5" y="-402.2" font-family="Helvetica,sans-Serif" font-size="11.00">a_registration_id</text>
<polygon fill="none" stroke="black" points="38.5,-372 38.5,-394 176.5,-394 176.5,-372 38.5,-372"/>
<image xlink:href="../../images/foreignKeys.png" width="11px" height="12px" preserveAspectRatio="xMinYMin meet" x="43.5" y="-389"/>
<text text-anchor="start" x="58.5" y="-380.2" font-family="Helvetica,sans-Serif" font-size="11.00">a_asset_id</text>
<polygon fill="none" stroke="black" points="38.5,-350 38.5,-372 176.5,-372 176.5,-350 38.5,-350"/>
<image xlink:href="../../images/foreignKeys.png" width="11px" height="12px" preserveAspectRatio="xMinYMin meet" x="43.5" y="-367"/>
<text text-anchor="start" x="58.5" y="-358.2" font-family="Helvetica,sans-Serif" font-size="11.00">m_product_id</text>
<polygon fill="none" stroke="black" points="38.5,-328 38.5,-350 176.5,-350 176.5,-328 38.5,-328"/>
<image xlink:href="../../images/foreignKeys.png" width="11px" height="12px" preserveAspectRatio="xMinYMin meet" x="43.5" y="-345"/>
<text text-anchor="start" x="58.5" y="-336.2" font-family="Helvetica,sans-Serif" font-size="11.00">c_bpartner_id</text>
<polygon fill="none" stroke="black" points="38.5,-306 38.5,-328 176.5,-328 176.5,-306 38.5,-306"/>
<image xlink:href="../../images/foreignKeys.png" width="11px" height="12px" preserveAspectRatio="xMinYMin meet" x="43.5" y="-323"/>
<text text-anchor="start" x="58.5" y="-314.2" font-family="Helvetica,sans-Serif" font-size="11.00">ad_user_id</text>
<polygon fill="#ffffff" stroke="transparent" points="38.5,-284 38.5,-306 176.5,-306 176.5,-284 38.5,-284"/>
<polygon fill="none" stroke="black" points="38.5,-284 38.5,-306 176.5,-306 176.5,-284 38.5,-284"/>
<text text-anchor="start" x="58.5" y="-292.2" font-family="Helvetica,sans-Serif" font-size="11.00">a_registration_uu</text>
<polygon fill="none" stroke="black" points="38.5,-266 38.5,-284 176.5,-284 176.5,-266 38.5,-266"/>
<text text-anchor="start" x="41.5" y="-272.2" font-family="Helvetica,sans-Serif" font-size="11.00">...</text>
<polygon fill="#ffffff" stroke="transparent" points="38.5,-248 38.5,-266 87.5,-266 87.5,-248 38.5,-248"/>
<polygon fill="none" stroke="black" points="38.5,-248 38.5,-266 87.5,-266 87.5,-248 38.5,-248"/>
<text text-anchor="start" x="41.5" y="-254.2" font-family="Helvetica,sans-Serif" font-size="11.00">&lt; 4</text>
<polygon fill="#ffffff" stroke="transparent" points="87.5,-248 87.5,-266 140.5,-266 140.5,-248 87.5,-248"/>
<polygon fill="none" stroke="black" points="87.5,-248 87.5,-266 140.5,-266 140.5,-248 87.5,-248"/>
<text text-anchor="start" x="104.5" y="-254.2" font-family="Helvetica,sans-Serif" font-size="11.00">0 rows</text>
<polygon fill="#ffffff" stroke="transparent" points="140.5,-248 140.5,-266 176.5,-266 176.5,-248 140.5,-248"/>
<polygon fill="none" stroke="black" points="140.5,-248 140.5,-266 176.5,-266 176.5,-248 140.5,-248"/>
<text text-anchor="start" x="157.5" y="-254.2" font-family="Helvetica,sans-Serif" font-size="11.00">1 &gt;</text>
</a>
</g>
</g>
<!-- a_registrationvalue&#45;&gt;a_registration -->
<g id="edge1" class="edge">
<title>a_registrationvalue:w&#45;&gt;a_registration:e</title>
<path fill="none" stroke="black" d="M243.15,-312.74C207.59,-328.32 227.09,-405 177.5,-405"/>
<polygon fill="black" stroke="black" points="249.64,-311.5 258.18,-313.54 253.57,-310.75 257.5,-310 257.5,-310 257.5,-310 253.57,-310.75 256.82,-306.46 249.64,-311.5 249.64,-311.5"/>
<ellipse fill="none" stroke="black" cx="246.5" cy="-312.1" rx="3.2" ry="3.2"/>
</g>
<!-- a_registrationattribute -->
<g id="node3" class="node">
<title>a_registrationattribute</title>
<g id="a_node3"><a xlink:href="../../tables/a_registrationattribute.html" xlink:title="a_registrationattribute" target="_top">
<polygon fill="#ffffff" stroke="transparent" points="8,-81 8,-227 207,-227 207,-81 8,-81"/>
<polygon fill="#f5f5f5" stroke="transparent" points="8.5,-205 8.5,-227 207.5,-227 207.5,-205 8.5,-205"/>
<polygon fill="none" stroke="black" points="8.5,-205 8.5,-227 207.5,-227 207.5,-205 8.5,-205"/>
<text text-anchor="start" x="13.5" y="-214.2" font-family="Helvetica,sans-Serif" font-weight="bold" font-size="11.00">a_registrationattribute</text>
<text text-anchor="start" x="172.5" y="-213.2" font-family="Helvetica,sans-Serif" font-size="11.00">[table]</text>
<polygon fill="none" stroke="black" points="8.5,-183 8.5,-205 207.5,-205 207.5,-183 8.5,-183"/>
<image xlink:href="../../images/primaryKeys.png" width="11px" height="12px" preserveAspectRatio="xMinYMin meet" x="13.5" y="-200"/>
<text text-anchor="start" x="28.5" y="-191.2" font-family="Helvetica,sans-Serif" font-size="11.00">a_registrationattribute_id</text>
<polygon fill="none" stroke="black" points="8.5,-161 8.5,-183 207.5,-183 207.5,-161 8.5,-161"/>
<image xlink:href="../../images/foreignKeys.png" width="11px" height="12px" preserveAspectRatio="xMinYMin meet" x="13.5" y="-178"/>
<text text-anchor="start" x="28.5" y="-169.2" font-family="Helvetica,sans-Serif" font-size="11.00">ad_reference_id</text>
<polygon fill="none" stroke="black" points="8.5,-139 8.5,-161 207.5,-161 207.5,-139 8.5,-139"/>
<image xlink:href="../../images/foreignKeys.png" width="11px" height="12px" preserveAspectRatio="xMinYMin meet" x="13.5" y="-156"/>
<text text-anchor="start" x="28.5" y="-147.2" font-family="Helvetica,sans-Serif" font-size="11.00">ad_reference_value_id</text>
<polygon fill="#ffffff" stroke="transparent" points="8.5,-117 8.5,-139 207.5,-139 207.5,-117 8.5,-117"/>
<polygon fill="none" stroke="black" points="8.5,-117 8.5,-139 207.5,-139 207.5,-117 8.5,-117"/>
<text text-anchor="start" x="28.5" y="-125.2" font-family="Helvetica,sans-Serif" font-size="11.00">a_registrationattribute_uu</text>
<polygon fill="none" stroke="black" points="8.5,-99 8.5,-117 207.5,-117 207.5,-99 8.5,-99"/>
<text text-anchor="start" x="11.5" y="-105.2" font-family="Helvetica,sans-Serif" font-size="11.00">...</text>
<polygon fill="#ffffff" stroke="transparent" points="8.5,-81 8.5,-99 88.5,-99 88.5,-81 8.5,-81"/>
<polygon fill="none" stroke="black" points="8.5,-81 8.5,-99 88.5,-99 88.5,-81 8.5,-81"/>
<text text-anchor="start" x="11.5" y="-87.2" font-family="Helvetica,sans-Serif" font-size="11.00">&lt; 2</text>
<polygon fill="#ffffff" stroke="transparent" points="88.5,-81 88.5,-99 156.5,-99 156.5,-81 88.5,-81"/>
<polygon fill="none" stroke="black" points="88.5,-81 88.5,-99 156.5,-99 156.5,-81 88.5,-81"/>
<text text-anchor="start" x="120.5" y="-87.2" font-family="Helvetica,sans-Serif" font-size="11.00">0 rows</text>
<polygon fill="#ffffff" stroke="transparent" points="156.5,-81 156.5,-99 207.5,-99 207.5,-81 156.5,-81"/>
<polygon fill="none" stroke="black" points="156.5,-81 156.5,-99 207.5,-99 207.5,-81 156.5,-81"/>
<text text-anchor="start" x="188.5" y="-87.2" font-family="Helvetica,sans-Serif" font-size="11.00">2 &gt;</text>
</a>
</g>
</g>
<!-- a_registrationvalue&#45;&gt;a_registrationattribute -->
<g id="edge2" class="edge">
<title>a_registrationvalue:w&#45;&gt;a_registrationattribute:e</title>
<path fill="none" stroke="black" d="M243.49,-283.72C220.51,-265.33 249.54,-194 208.5,-194"/>
<polygon fill="black" stroke="black" points="249.85,-285.66 256.45,-291.44 253.67,-286.83 257.5,-288 257.5,-288 257.5,-288 253.67,-286.83 258.55,-284.56 249.85,-285.66 249.85,-285.66"/>
<ellipse fill="none" stroke="black" cx="246.79" cy="-284.73" rx="3.2" ry="3.2"/>
</g>
</g>
</svg>
