<?xml version="1.0" encoding="UTF-8" standalone="no"?>
<!DOCTYPE svg PUBLIC "-//W3C//DTD SVG 1.1//EN"
 "http://www.w3.org/Graphics/SVG/1.1/DTD/svg11.dtd">
<!-- Generated by graphviz version 2.43.0 (0)
 -->
<!-- Title: oneDegreeRelationshipsDiagram Pages: 1 -->
<svg width="506pt" height="610pt"
 viewBox="0.00 0.00 506.00 610.00" xmlns="http://www.w3.org/2000/svg" xmlns:xlink="http://www.w3.org/1999/xlink">
<g id="graph0" class="graph" transform="scale(1 1) rotate(0) translate(4 606)">
<title>oneDegreeRelationshipsDiagram</title>
<polygon fill="#ffffff" stroke="transparent" points="-4,4 -4,-606 502,-606 502,4 -4,4"/>
<text text-anchor="middle" x="71.5" y="-7.2" font-family="Helvetica,sans-Serif" font-size="11.00">Generated by SchemaSpy</text>
<!-- ad_alertrule -->
<g id="node1" class="node">
<title>ad_alertrule</title>
<g id="a_node1"><a xlink:href="../../tables/ad_alertrule.html" xlink:title="ad_alertrule" target="_top">
<polygon fill="#ffffff" stroke="transparent" points="278,-114 278,-598 490,-598 490,-114 278,-114"/>
<polygon fill="#f5f5f5" stroke="transparent" points="280,-574 280,-596 488,-596 488,-574 280,-574"/>
<polygon fill="none" stroke="black" points="280,-574 280,-596 488,-596 488,-574 280,-574"/>
<text text-anchor="start" x="285" y="-583.2" font-family="Helvetica,sans-Serif" font-weight="bold" font-size="11.00">ad_alertrule</text>
<text text-anchor="start" x="453" y="-582.2" font-family="Helvetica,sans-Serif" font-size="11.00">[table]</text>
<polygon fill="none" stroke="black" points="280,-552 280,-574 405,-574 405,-552 280,-552"/>
<image xlink:href="../../images/primaryKeys.png" width="11px" height="12px" preserveAspectRatio="xMinYMin meet" x="285" y="-569"/>
<text text-anchor="start" x="300" y="-560.2" font-family="Helvetica,sans-Serif" font-size="11.00">ad_alertrule_id</text>
<polygon fill="none" stroke="black" points="405,-552 405,-574 488,-574 488,-552 405,-552"/>
<text text-anchor="start" x="408" y="-560.2" font-family="Helvetica,sans-Serif" font-size="11.00">numeric[10]</text>
<polygon fill="none" stroke="black" points="280,-530 280,-552 405,-552 405,-530 280,-530"/>
<text text-anchor="start" x="300" y="-538.2" font-family="Helvetica,sans-Serif" font-size="11.00">ad_client_id</text>
<polygon fill="none" stroke="black" points="405,-530 405,-552 488,-552 488,-530 405,-530"/>
<text text-anchor="start" x="408" y="-538.2" font-family="Helvetica,sans-Serif" font-size="11.00">numeric[10]</text>
<polygon fill="none" stroke="black" points="280,-508 280,-530 405,-530 405,-508 280,-508"/>
<text text-anchor="start" x="300" y="-516.2" font-family="Helvetica,sans-Serif" font-size="11.00">ad_org_id</text>
<polygon fill="none" stroke="black" points="405,-508 405,-530 488,-530 488,-508 405,-508"/>
<text text-anchor="start" x="408" y="-516.2" font-family="Helvetica,sans-Serif" font-size="11.00">numeric[10]</text>
<polygon fill="none" stroke="black" points="280,-486 280,-508 405,-508 405,-486 280,-486"/>
<text text-anchor="start" x="300" y="-494.2" font-family="Helvetica,sans-Serif" font-size="11.00">isactive</text>
<polygon fill="none" stroke="black" points="405,-486 405,-508 488,-508 488,-486 405,-486"/>
<text text-anchor="start" x="408" y="-494.2" font-family="Helvetica,sans-Serif" font-size="11.00">bpchar[1]</text>
<polygon fill="none" stroke="black" points="280,-464 280,-486 405,-486 405,-464 280,-464"/>
<text text-anchor="start" x="300" y="-472.2" font-family="Helvetica,sans-Serif" font-size="11.00">created</text>
<polygon fill="none" stroke="black" points="405,-464 405,-486 488,-486 488,-464 405,-464"/>
<text text-anchor="start" x="408" y="-472.2" font-family="Helvetica,sans-Serif" font-size="11.00">timestamp[29,6]</text>
<polygon fill="none" stroke="black" points="280,-442 280,-464 405,-464 405,-442 280,-442"/>
<text text-anchor="start" x="300" y="-450.2" font-family="Helvetica,sans-Serif" font-size="11.00">createdby</text>
<polygon fill="none" stroke="black" points="405,-442 405,-464 488,-464 488,-442 405,-442"/>
<text text-anchor="start" x="408" y="-450.2" font-family="Helvetica,sans-Serif" font-size="11.00">numeric[10]</text>
<polygon fill="none" stroke="black" points="280,-420 280,-442 405,-442 405,-420 280,-420"/>
<text text-anchor="start" x="300" y="-428.2" font-family="Helvetica,sans-Serif" font-size="11.00">updated</text>
<polygon fill="none" stroke="black" points="405,-420 405,-442 488,-442 488,-420 405,-420"/>
<text text-anchor="start" x="408" y="-428.2" font-family="Helvetica,sans-Serif" font-size="11.00">timestamp[29,6]</text>
<polygon fill="none" stroke="black" points="280,-398 280,-420 405,-420 405,-398 280,-398"/>
<text text-anchor="start" x="300" y="-406.2" font-family="Helvetica,sans-Serif" font-size="11.00">updatedby</text>
<polygon fill="none" stroke="black" points="405,-398 405,-420 488,-420 488,-398 405,-398"/>
<text text-anchor="start" x="408" y="-406.2" font-family="Helvetica,sans-Serif" font-size="11.00">numeric[10]</text>
<polygon fill="none" stroke="black" points="280,-376 280,-398 405,-398 405,-376 280,-376"/>
<text text-anchor="start" x="300" y="-384.2" font-family="Helvetica,sans-Serif" font-size="11.00">name</text>
<polygon fill="none" stroke="black" points="405,-376 405,-398 488,-398 488,-376 405,-376"/>
<text text-anchor="start" x="408" y="-384.2" font-family="Helvetica,sans-Serif" font-size="11.00">varchar[60]</text>
<polygon fill="none" stroke="black" points="280,-354 280,-376 405,-376 405,-354 280,-354"/>
<image xlink:href="../../images/foreignKeys.png" width="11px" height="12px" preserveAspectRatio="xMinYMin meet" x="285" y="-371"/>
<text text-anchor="start" x="300" y="-362.2" font-family="Helvetica,sans-Serif" font-size="11.00">ad_alert_id</text>
<polygon fill="none" stroke="black" points="405,-354 405,-376 488,-376 488,-354 405,-354"/>
<text text-anchor="start" x="408" y="-362.2" font-family="Helvetica,sans-Serif" font-size="11.00">numeric[10]</text>
<polygon fill="none" stroke="black" points="280,-332 280,-354 405,-354 405,-332 280,-332"/>
<text text-anchor="start" x="300" y="-340.2" font-family="Helvetica,sans-Serif" font-size="11.00">selectclause</text>
<polygon fill="none" stroke="black" points="405,-332 405,-354 488,-354 488,-332 405,-332"/>
<text text-anchor="start" x="408" y="-340.2" font-family="Helvetica,sans-Serif" font-size="11.00">varchar[2000]</text>
<polygon fill="none" stroke="black" points="280,-310 280,-332 405,-332 405,-310 280,-310"/>
<text text-anchor="start" x="300" y="-318.2" font-family="Helvetica,sans-Serif" font-size="11.00">fromclause</text>
<polygon fill="none" stroke="black" points="405,-310 405,-332 488,-332 488,-310 405,-310"/>
<text text-anchor="start" x="408" y="-318.2" font-family="Helvetica,sans-Serif" font-size="11.00">varchar[2000]</text>
<polygon fill="none" stroke="black" points="280,-288 280,-310 405,-310 405,-288 280,-288"/>
<text text-anchor="start" x="300" y="-296.2" font-family="Helvetica,sans-Serif" font-size="11.00">whereclause</text>
<polygon fill="none" stroke="black" points="405,-288 405,-310 488,-310 488,-288 405,-288"/>
<text text-anchor="start" x="408" y="-296.2" font-family="Helvetica,sans-Serif" font-size="11.00">varchar[2000]</text>
<polygon fill="none" stroke="black" points="280,-266 280,-288 405,-288 405,-266 280,-266"/>
<image xlink:href="../../images/foreignKeys.png" width="11px" height="12px" preserveAspectRatio="xMinYMin meet" x="285" y="-283"/>
<text text-anchor="start" x="300" y="-274.2" font-family="Helvetica,sans-Serif" font-size="11.00">ad_table_id</text>
<polygon fill="none" stroke="black" points="405,-266 405,-288 488,-288 488,-266 405,-266"/>
<text text-anchor="start" x="408" y="-274.2" font-family="Helvetica,sans-Serif" font-size="11.00">numeric[10]</text>
<polygon fill="none" stroke="black" points="280,-244 280,-266 405,-266 405,-244 280,-244"/>
<text text-anchor="start" x="300" y="-252.2" font-family="Helvetica,sans-Serif" font-size="11.00">preprocessing</text>
<polygon fill="none" stroke="black" points="405,-244 405,-266 488,-266 488,-244 405,-244"/>
<text text-anchor="start" x="408" y="-252.2" font-family="Helvetica,sans-Serif" font-size="11.00">varchar[2000]</text>
<polygon fill="none" stroke="black" points="280,-222 280,-244 405,-244 405,-222 280,-222"/>
<text text-anchor="start" x="300" y="-230.2" font-family="Helvetica,sans-Serif" font-size="11.00">postprocessing</text>
<polygon fill="none" stroke="black" points="405,-222 405,-244 488,-244 488,-222 405,-222"/>
<text text-anchor="start" x="408" y="-230.2" font-family="Helvetica,sans-Serif" font-size="11.00">varchar[2000]</text>
<polygon fill="none" stroke="black" points="280,-200 280,-222 405,-222 405,-200 280,-200"/>
<text text-anchor="start" x="300" y="-208.2" font-family="Helvetica,sans-Serif" font-size="11.00">isvalid</text>
<polygon fill="none" stroke="black" points="405,-200 405,-222 488,-222 488,-200 405,-200"/>
<text text-anchor="start" x="408" y="-208.2" font-family="Helvetica,sans-Serif" font-size="11.00">bpchar[1]</text>
<polygon fill="none" stroke="black" points="280,-178 280,-200 405,-200 405,-178 280,-178"/>
<text text-anchor="start" x="300" y="-186.2" font-family="Helvetica,sans-Serif" font-size="11.00">errormsg</text>
<polygon fill="none" stroke="black" points="405,-178 405,-200 488,-200 488,-178 405,-178"/>
<text text-anchor="start" x="408" y="-186.2" font-family="Helvetica,sans-Serif" font-size="11.00">varchar[2000]</text>
<polygon fill="none" stroke="black" points="280,-156 280,-178 405,-178 405,-156 280,-156"/>
<text text-anchor="start" x="300" y="-164.2" font-family="Helvetica,sans-Serif" font-size="11.00">otherclause</text>
<polygon fill="none" stroke="black" points="405,-156 405,-178 488,-178 488,-156 405,-156"/>
<text text-anchor="start" x="408" y="-164.2" font-family="Helvetica,sans-Serif" font-size="11.00">varchar[2000]</text>
<polygon fill="#ffffff" stroke="transparent" points="280,-134 280,-156 405,-156 405,-134 280,-134"/>
<polygon fill="none" stroke="black" points="280,-134 280,-156 405,-156 405,-134 280,-134"/>
<text text-anchor="start" x="300" y="-142.2" font-family="Helvetica,sans-Serif" font-size="11.00">ad_alertrule_uu</text>
<polygon fill="none" stroke="black" points="405,-134 405,-156 488,-156 488,-134 405,-134"/>
<text text-anchor="start" x="408" y="-142.2" font-family="Helvetica,sans-Serif" font-size="11.00">varchar[36]</text>
<polygon fill="#ffffff" stroke="transparent" points="280,-116 280,-134 334,-134 334,-116 280,-116"/>
<polygon fill="none" stroke="black" points="280,-116 280,-134 334,-134 334,-116 280,-116"/>
<text text-anchor="start" x="283" y="-122.2" font-family="Helvetica,sans-Serif" font-size="11.00">&lt; 2</text>
<polygon fill="#ffffff" stroke="transparent" points="334,-116 334,-134 405,-134 405,-116 334,-116"/>
<polygon fill="none" stroke="black" points="334,-116 334,-134 405,-134 405,-116 334,-116"/>
<text text-anchor="start" x="369" y="-122.2" font-family="Helvetica,sans-Serif" font-size="11.00">0 rows</text>
<polygon fill="#ffffff" stroke="transparent" points="405,-116 405,-134 488,-134 488,-116 405,-116"/>
<polygon fill="none" stroke="black" points="405,-116 405,-134 488,-134 488,-116 405,-116"/>
<text text-anchor="start" x="469" y="-122.2" font-family="Helvetica,sans-Serif" font-size="11.00">0 &gt;</text>
<polygon fill="none" stroke="black" stroke-width="2" points="279,-115 279,-597 489,-597 489,-115 279,-115"/>
</a>
</g>
</g>
<!-- ad_alert -->
<g id="node2" class="node">
<title>ad_alert</title>
<g id="a_node2"><a xlink:href="../../tables/ad_alert.html" xlink:title="ad_alert" target="_top">
<polygon fill="#ffffff" stroke="transparent" points="8,-292 8,-438 229,-438 229,-292 8,-292"/>
<polygon fill="#f5f5f5" stroke="transparent" points="8.5,-416 8.5,-438 229.5,-438 229.5,-416 8.5,-416"/>
<polygon fill="none" stroke="black" points="8.5,-416 8.5,-438 229.5,-438 229.5,-416 8.5,-416"/>
<text text-anchor="start" x="13.5" y="-425.2" font-family="Helvetica,sans-Serif" font-weight="bold" font-size="11.00">ad_alert</text>
<text text-anchor="start" x="194.5" y="-424.2" font-family="Helvetica,sans-Serif" font-size="11.00">[table]</text>
<polygon fill="none" stroke="black" points="8.5,-394 8.5,-416 229.5,-416 229.5,-394 8.5,-394"/>
<image xlink:href="../../images/primaryKeys.png" width="11px" height="12px" preserveAspectRatio="xMinYMin meet" x="13.5" y="-411"/>
<text text-anchor="start" x="28.5" y="-402.2" font-family="Helvetica,sans-Serif" font-size="11.00">ad_alert_id</text>
<polygon fill="none" stroke="black" points="8.5,-372 8.5,-394 229.5,-394 229.5,-372 8.5,-372"/>
<image xlink:href="../../images/foreignKeys.png" width="11px" height="12px" preserveAspectRatio="xMinYMin meet" x="13.5" y="-389"/>
<text text-anchor="start" x="28.5" y="-380.2" font-family="Helvetica,sans-Serif" font-size="11.00">ad_alertprocessor_id</text>
<polygon fill="#ffffff" stroke="transparent" points="8.5,-350 8.5,-372 229.5,-372 229.5,-350 8.5,-350"/>
<polygon fill="none" stroke="black" points="8.5,-350 8.5,-372 229.5,-372 229.5,-350 8.5,-350"/>
<text text-anchor="start" x="28.5" y="-358.2" font-family="Helvetica,sans-Serif" font-size="11.00">ad_alert_uu</text>
<polygon fill="none" stroke="black" points="8.5,-328 8.5,-350 229.5,-350 229.5,-328 8.5,-328"/>
<image xlink:href="../../images/foreignKeys.png" width="11px" height="12px" preserveAspectRatio="xMinYMin meet" x="13.5" y="-345"/>
<text text-anchor="start" x="28.5" y="-336.2" font-family="Helvetica,sans-Serif" font-size="11.00">cof_armazenamentonuvem_id</text>
<polygon fill="none" stroke="black" points="8.5,-310 8.5,-328 229.5,-328 229.5,-310 8.5,-310"/>
<text text-anchor="start" x="11.5" y="-316.2" font-family="Helvetica,sans-Serif" font-size="11.00">...</text>
<polygon fill="#ffffff" stroke="transparent" points="8.5,-292 8.5,-310 99.5,-310 99.5,-292 8.5,-292"/>
<polygon fill="none" stroke="black" points="8.5,-292 8.5,-310 99.5,-310 99.5,-292 8.5,-292"/>
<text text-anchor="start" x="11.5" y="-298.2" font-family="Helvetica,sans-Serif" font-size="11.00">&lt; 2</text>
<polygon fill="#ffffff" stroke="transparent" points="99.5,-292 99.5,-310 172.5,-310 172.5,-292 99.5,-292"/>
<polygon fill="none" stroke="black" points="99.5,-292 99.5,-310 172.5,-310 172.5,-292 99.5,-292"/>
<text text-anchor="start" x="136.5" y="-298.2" font-family="Helvetica,sans-Serif" font-size="11.00">0 rows</text>
<polygon fill="#ffffff" stroke="transparent" points="172.5,-292 172.5,-310 229.5,-310 229.5,-292 172.5,-292"/>
<polygon fill="none" stroke="black" points="172.5,-292 172.5,-310 229.5,-310 229.5,-292 172.5,-292"/>
<text text-anchor="start" x="210.5" y="-298.2" font-family="Helvetica,sans-Serif" font-size="11.00">2 &gt;</text>
</a>
</g>
</g>
<!-- ad_alertrule&#45;&gt;ad_alert -->
<g id="edge1" class="edge">
<title>ad_alertrule:w&#45;&gt;ad_alert:e</title>
<path fill="none" stroke="black" d="M265,-369.9C252.6,-380.59 252.33,-405 230.5,-405"/>
<polygon fill="black" stroke="black" points="271.45,-367.64 280.19,-368.4 275.22,-366.32 279,-365 279,-365 279,-365 275.22,-366.32 277.81,-361.6 271.45,-367.64 271.45,-367.64"/>
<ellipse fill="none" stroke="black" cx="268.43" cy="-368.7" rx="3.2" ry="3.2"/>
</g>
<!-- ad_table -->
<g id="node3" class="node">
<title>ad_table</title>
<g id="a_node3"><a xlink:href="../../tables/ad_table.html" xlink:title="ad_table" target="_top">
<polygon fill="#ffffff" stroke="transparent" points="19.5,-37 19.5,-271 217.5,-271 217.5,-37 19.5,-37"/>
<polygon fill="#f5f5f5" stroke="transparent" points="19.5,-249 19.5,-271 217.5,-271 217.5,-249 19.5,-249"/>
<polygon fill="none" stroke="black" points="19.5,-249 19.5,-271 217.5,-271 217.5,-249 19.5,-249"/>
<text text-anchor="start" x="24.5" y="-258.2" font-family="Helvetica,sans-Serif" font-weight="bold" font-size="11.00">ad_table</text>
<text text-anchor="start" x="182.5" y="-257.2" font-family="Helvetica,sans-Serif" font-size="11.00">[table]</text>
<polygon fill="none" stroke="black" points="19.5,-227 19.5,-249 217.5,-249 217.5,-227 19.5,-227"/>
<image xlink:href="../../images/primaryKeys.png" width="11px" height="12px" preserveAspectRatio="xMinYMin meet" x="24.5" y="-244"/>
<text text-anchor="start" x="39.5" y="-235.2" font-family="Helvetica,sans-Serif" font-size="11.00">ad_table_id</text>
<polygon fill="none" stroke="black" points="19.5,-205 19.5,-227 217.5,-227 217.5,-205 19.5,-205"/>
<image xlink:href="../../images/foreignKeys.png" width="11px" height="12px" preserveAspectRatio="xMinYMin meet" x="24.5" y="-222"/>
<text text-anchor="start" x="39.5" y="-213.2" font-family="Helvetica,sans-Serif" font-size="11.00">ad_client_id</text>
<polygon fill="none" stroke="black" points="19.5,-183 19.5,-205 217.5,-205 217.5,-183 19.5,-183"/>
<image xlink:href="../../images/foreignKeys.png" width="11px" height="12px" preserveAspectRatio="xMinYMin meet" x="24.5" y="-200"/>
<text text-anchor="start" x="39.5" y="-191.2" font-family="Helvetica,sans-Serif" font-size="11.00">ad_org_id</text>
<polygon fill="none" stroke="black" points="19.5,-161 19.5,-183 217.5,-183 217.5,-161 19.5,-161"/>
<image xlink:href="../../images/foreignKeys.png" width="11px" height="12px" preserveAspectRatio="xMinYMin meet" x="24.5" y="-178"/>
<text text-anchor="start" x="39.5" y="-169.2" font-family="Helvetica,sans-Serif" font-size="11.00">entitytype</text>
<polygon fill="none" stroke="black" points="19.5,-139 19.5,-161 217.5,-161 217.5,-139 19.5,-139"/>
<image xlink:href="../../images/foreignKeys.png" width="11px" height="12px" preserveAspectRatio="xMinYMin meet" x="24.5" y="-156"/>
<text text-anchor="start" x="39.5" y="-147.2" font-family="Helvetica,sans-Serif" font-size="11.00">ad_window_id</text>
<polygon fill="none" stroke="black" points="19.5,-117 19.5,-139 217.5,-139 217.5,-117 19.5,-117"/>
<image xlink:href="../../images/foreignKeys.png" width="11px" height="12px" preserveAspectRatio="xMinYMin meet" x="24.5" y="-134"/>
<text text-anchor="start" x="39.5" y="-125.2" font-family="Helvetica,sans-Serif" font-size="11.00">ad_val_rule_id</text>
<polygon fill="none" stroke="black" points="19.5,-95 19.5,-117 217.5,-117 217.5,-95 19.5,-95"/>
<image xlink:href="../../images/foreignKeys.png" width="11px" height="12px" preserveAspectRatio="xMinYMin meet" x="24.5" y="-112"/>
<text text-anchor="start" x="39.5" y="-103.2" font-family="Helvetica,sans-Serif" font-size="11.00">po_window_id</text>
<polygon fill="#ffffff" stroke="transparent" points="19.5,-73 19.5,-95 217.5,-95 217.5,-73 19.5,-73"/>
<polygon fill="none" stroke="black" points="19.5,-73 19.5,-95 217.5,-95 217.5,-73 19.5,-73"/>
<text text-anchor="start" x="39.5" y="-81.2" font-family="Helvetica,sans-Serif" font-size="11.00">ad_table_uu</text>
<polygon fill="none" stroke="black" points="19.5,-55 19.5,-73 217.5,-73 217.5,-55 19.5,-55"/>
<text text-anchor="start" x="22.5" y="-61.2" font-family="Helvetica,sans-Serif" font-size="11.00">...</text>
<polygon fill="#ffffff" stroke="transparent" points="19.5,-37 19.5,-55 85.5,-55 85.5,-37 19.5,-37"/>
<polygon fill="none" stroke="black" points="19.5,-37 19.5,-55 85.5,-55 85.5,-37 19.5,-37"/>
<text text-anchor="start" x="22.5" y="-43.2" font-family="Helvetica,sans-Serif" font-size="11.00">&lt; 6</text>
<polygon fill="#ffffff" stroke="transparent" points="85.5,-37 85.5,-55 167.5,-55 167.5,-37 85.5,-37"/>
<polygon fill="none" stroke="black" points="85.5,-37 85.5,-55 167.5,-55 167.5,-37 85.5,-37"/>
<text text-anchor="start" x="110.5" y="-43.2" font-family="Helvetica,sans-Serif" font-size="11.00">1.363 rows</text>
<polygon fill="#ffffff" stroke="transparent" points="167.5,-37 167.5,-55 217.5,-55 217.5,-37 167.5,-37"/>
<polygon fill="none" stroke="black" points="167.5,-37 167.5,-55 217.5,-55 217.5,-37 167.5,-37"/>
<text text-anchor="start" x="192.5" y="-43.2" font-family="Helvetica,sans-Serif" font-size="11.00">77 &gt;</text>
</a>
</g>
</g>
<!-- ad_alertrule&#45;&gt;ad_table -->
<g id="edge2" class="edge">
<title>ad_alertrule:w&#45;&gt;ad_table:e</title>
<path fill="none" stroke="black" d="M264.78,-273.67C247.11,-264.24 244.74,-238 218.5,-238"/>
<polygon fill="black" stroke="black" points="271.21,-275.18 278.18,-280.51 275.11,-276.09 279,-277 279,-277 279,-277 275.11,-276.09 279.82,-273.49 271.21,-275.18 271.21,-275.18"/>
<ellipse fill="none" stroke="black" cx="268.09" cy="-274.45" rx="3.2" ry="3.2"/>
</g>
</g>
</svg>
