<?xml version="1.0" encoding="UTF-8" standalone="no"?>
<!DOCTYPE svg PUBLIC "-//W3C//DTD SVG 1.1//EN"
 "http://www.w3.org/Graphics/SVG/1.1/DTD/svg11.dtd">
<!-- Generated by graphviz version 2.43.0 (0)
 -->
<!-- Title: oneDegreeRelationshipsDiagram Pages: 1 -->
<svg width="769pt" height="542pt"
 viewBox="0.00 0.00 769.00 542.00" xmlns="http://www.w3.org/2000/svg" xmlns:xlink="http://www.w3.org/1999/xlink">
<g id="graph0" class="graph" transform="scale(1 1) rotate(0) translate(4 538)">
<title>oneDegreeRelationshipsDiagram</title>
<polygon fill="#ffffff" stroke="transparent" points="-4,4 -4,-538 765,-538 765,4 -4,4"/>
<text text-anchor="middle" x="71.5" y="-7.2" font-family="Helvetica,sans-Serif" font-size="11.00">Generated by SchemaSpy</text>
<!-- ad_attachment -->
<g id="node1" class="node">
<title>ad_attachment</title>
<g id="a_node1"><a xlink:href="../../tables/ad_attachment.html" xlink:title="ad_attachment" target="_top">
<polygon fill="#ffffff" stroke="transparent" points="255,-136 255,-510 529,-510 529,-136 255,-136"/>
<polygon fill="#f5f5f5" stroke="transparent" points="257,-486 257,-508 527,-508 527,-486 257,-486"/>
<polygon fill="none" stroke="black" points="257,-486 257,-508 527,-508 527,-486 257,-486"/>
<text text-anchor="start" x="262" y="-495.2" font-family="Helvetica,sans-Serif" font-weight="bold" font-size="11.00">ad_attachment</text>
<text text-anchor="start" x="492" y="-494.2" font-family="Helvetica,sans-Serif" font-size="11.00">[table]</text>
<polygon fill="none" stroke="black" points="257,-464 257,-486 428,-486 428,-464 257,-464"/>
<image xlink:href="../../images/primaryKeys.png" width="11px" height="12px" preserveAspectRatio="xMinYMin meet" x="262" y="-481"/>
<text text-anchor="start" x="277" y="-472.2" font-family="Helvetica,sans-Serif" font-size="11.00">ad_attachment_id</text>
<polygon fill="none" stroke="black" points="428,-464 428,-486 527,-486 527,-464 428,-464"/>
<text text-anchor="start" x="431" y="-472.2" font-family="Helvetica,sans-Serif" font-size="11.00">numeric[10]</text>
<polygon fill="none" stroke="black" points="257,-442 257,-464 428,-464 428,-442 257,-442"/>
<text text-anchor="start" x="277" y="-450.2" font-family="Helvetica,sans-Serif" font-size="11.00">ad_client_id</text>
<polygon fill="none" stroke="black" points="428,-442 428,-464 527,-464 527,-442 428,-442"/>
<text text-anchor="start" x="431" y="-450.2" font-family="Helvetica,sans-Serif" font-size="11.00">numeric[10]</text>
<polygon fill="none" stroke="black" points="257,-420 257,-442 428,-442 428,-420 257,-420"/>
<text text-anchor="start" x="277" y="-428.2" font-family="Helvetica,sans-Serif" font-size="11.00">ad_org_id</text>
<polygon fill="none" stroke="black" points="428,-420 428,-442 527,-442 527,-420 428,-420"/>
<text text-anchor="start" x="431" y="-428.2" font-family="Helvetica,sans-Serif" font-size="11.00">numeric[10]</text>
<polygon fill="none" stroke="black" points="257,-398 257,-420 428,-420 428,-398 257,-398"/>
<text text-anchor="start" x="277" y="-406.2" font-family="Helvetica,sans-Serif" font-size="11.00">isactive</text>
<polygon fill="none" stroke="black" points="428,-398 428,-420 527,-420 527,-398 428,-398"/>
<text text-anchor="start" x="431" y="-406.2" font-family="Helvetica,sans-Serif" font-size="11.00">bpchar[1]</text>
<polygon fill="none" stroke="black" points="257,-376 257,-398 428,-398 428,-376 257,-376"/>
<text text-anchor="start" x="277" y="-384.2" font-family="Helvetica,sans-Serif" font-size="11.00">created</text>
<polygon fill="none" stroke="black" points="428,-376 428,-398 527,-398 527,-376 428,-376"/>
<text text-anchor="start" x="431" y="-384.2" font-family="Helvetica,sans-Serif" font-size="11.00">timestamp[29,6]</text>
<polygon fill="none" stroke="black" points="257,-354 257,-376 428,-376 428,-354 257,-354"/>
<text text-anchor="start" x="277" y="-362.2" font-family="Helvetica,sans-Serif" font-size="11.00">createdby</text>
<polygon fill="none" stroke="black" points="428,-354 428,-376 527,-376 527,-354 428,-354"/>
<text text-anchor="start" x="431" y="-362.2" font-family="Helvetica,sans-Serif" font-size="11.00">numeric[10]</text>
<polygon fill="none" stroke="black" points="257,-332 257,-354 428,-354 428,-332 257,-332"/>
<text text-anchor="start" x="277" y="-340.2" font-family="Helvetica,sans-Serif" font-size="11.00">updated</text>
<polygon fill="none" stroke="black" points="428,-332 428,-354 527,-354 527,-332 428,-332"/>
<text text-anchor="start" x="431" y="-340.2" font-family="Helvetica,sans-Serif" font-size="11.00">timestamp[29,6]</text>
<polygon fill="none" stroke="black" points="257,-310 257,-332 428,-332 428,-310 257,-310"/>
<text text-anchor="start" x="277" y="-318.2" font-family="Helvetica,sans-Serif" font-size="11.00">updatedby</text>
<polygon fill="none" stroke="black" points="428,-310 428,-332 527,-332 527,-310 428,-310"/>
<text text-anchor="start" x="431" y="-318.2" font-family="Helvetica,sans-Serif" font-size="11.00">numeric[10]</text>
<polygon fill="#ffffff" stroke="transparent" points="257,-288 257,-310 428,-310 428,-288 257,-288"/>
<polygon fill="none" stroke="black" points="257,-288 257,-310 428,-310 428,-288 257,-288"/>
<image xlink:href="../../images/foreignKeys.png" width="11px" height="12px" preserveAspectRatio="xMinYMin meet" x="262" y="-305"/>
<text text-anchor="start" x="277" y="-296.2" font-family="Helvetica,sans-Serif" font-size="11.00">ad_table_id</text>
<polygon fill="none" stroke="black" points="428,-288 428,-310 527,-310 527,-288 428,-288"/>
<text text-anchor="start" x="431" y="-296.2" font-family="Helvetica,sans-Serif" font-size="11.00">numeric[10]</text>
<polygon fill="#ffffff" stroke="transparent" points="257,-266 257,-288 428,-288 428,-266 257,-266"/>
<polygon fill="none" stroke="black" points="257,-266 257,-288 428,-288 428,-266 257,-266"/>
<text text-anchor="start" x="277" y="-274.2" font-family="Helvetica,sans-Serif" font-size="11.00">record_id</text>
<polygon fill="none" stroke="black" points="428,-266 428,-288 527,-288 527,-266 428,-266"/>
<text text-anchor="start" x="431" y="-274.2" font-family="Helvetica,sans-Serif" font-size="11.00">numeric[10]</text>
<polygon fill="none" stroke="black" points="257,-244 257,-266 428,-266 428,-244 257,-244"/>
<text text-anchor="start" x="277" y="-252.2" font-family="Helvetica,sans-Serif" font-size="11.00">title</text>
<polygon fill="none" stroke="black" points="428,-244 428,-266 527,-266 527,-244 428,-244"/>
<text text-anchor="start" x="431" y="-252.2" font-family="Helvetica,sans-Serif" font-size="11.00">varchar[60]</text>
<polygon fill="none" stroke="black" points="257,-222 257,-244 428,-244 428,-222 257,-222"/>
<text text-anchor="start" x="277" y="-230.2" font-family="Helvetica,sans-Serif" font-size="11.00">binarydata</text>
<polygon fill="none" stroke="black" points="428,-222 428,-244 527,-244 527,-222 428,-222"/>
<text text-anchor="start" x="431" y="-230.2" font-family="Helvetica,sans-Serif" font-size="11.00">bytea[2147483647]</text>
<polygon fill="none" stroke="black" points="257,-200 257,-222 428,-222 428,-200 257,-200"/>
<text text-anchor="start" x="277" y="-208.2" font-family="Helvetica,sans-Serif" font-size="11.00">textmsg</text>
<polygon fill="none" stroke="black" points="428,-200 428,-222 527,-222 527,-200 428,-200"/>
<text text-anchor="start" x="431" y="-208.2" font-family="Helvetica,sans-Serif" font-size="11.00">varchar[2000]</text>
<polygon fill="#ffffff" stroke="transparent" points="257,-178 257,-200 428,-200 428,-178 257,-178"/>
<polygon fill="none" stroke="black" points="257,-178 257,-200 428,-200 428,-178 257,-178"/>
<text text-anchor="start" x="277" y="-186.2" font-family="Helvetica,sans-Serif" font-size="11.00">ad_attachment_uu</text>
<polygon fill="none" stroke="black" points="428,-178 428,-200 527,-200 527,-178 428,-178"/>
<text text-anchor="start" x="431" y="-186.2" font-family="Helvetica,sans-Serif" font-size="11.00">varchar[36]</text>
<polygon fill="none" stroke="black" points="257,-156 257,-178 428,-178 428,-156 257,-156"/>
<image xlink:href="../../images/foreignKeys.png" width="11px" height="12px" preserveAspectRatio="xMinYMin meet" x="262" y="-173"/>
<text text-anchor="start" x="277" y="-164.2" font-family="Helvetica,sans-Serif" font-size="11.00">ad_storageprovider_id</text>
<polygon fill="none" stroke="black" points="428,-156 428,-178 527,-178 527,-156 428,-156"/>
<text text-anchor="start" x="431" y="-164.2" font-family="Helvetica,sans-Serif" font-size="11.00">numeric[10]</text>
<polygon fill="#ffffff" stroke="transparent" points="257,-138 257,-156 331,-156 331,-138 257,-138"/>
<polygon fill="none" stroke="black" points="257,-138 257,-156 331,-156 331,-138 257,-138"/>
<text text-anchor="start" x="260" y="-144.2" font-family="Helvetica,sans-Serif" font-size="11.00">&lt; 2</text>
<polygon fill="#ffffff" stroke="transparent" points="331,-138 331,-156 428,-156 428,-138 331,-138"/>
<polygon fill="none" stroke="black" points="331,-138 331,-156 428,-156 428,-138 331,-138"/>
<text text-anchor="start" x="386" y="-144.2" font-family="Helvetica,sans-Serif" font-size="11.00">22 rows</text>
<polygon fill="#ffffff" stroke="transparent" points="428,-138 428,-156 527,-156 527,-138 428,-138"/>
<polygon fill="none" stroke="black" points="428,-138 428,-156 527,-156 527,-138 428,-138"/>
<text text-anchor="start" x="508" y="-144.2" font-family="Helvetica,sans-Serif" font-size="11.00">1 &gt;</text>
<polygon fill="none" stroke="black" stroke-width="2" points="256,-137 256,-509 528,-509 528,-137 256,-137"/>
</a>
</g>
</g>
<!-- ad_storageprovider -->
<g id="node2" class="node">
<title>ad_storageprovider</title>
<g id="a_node2"><a xlink:href="../../tables/ad_storageprovider.html" xlink:title="ad_storageprovider" target="_top">
<polygon fill="#ffffff" stroke="transparent" points="19.5,-37 19.5,-139 194.5,-139 194.5,-37 19.5,-37"/>
<polygon fill="#f5f5f5" stroke="transparent" points="20,-117 20,-139 195,-139 195,-117 20,-117"/>
<polygon fill="none" stroke="black" points="20,-117 20,-139 195,-139 195,-117 20,-117"/>
<text text-anchor="start" x="25" y="-126.2" font-family="Helvetica,sans-Serif" font-weight="bold" font-size="11.00">ad_storageprovider</text>
<text text-anchor="start" x="160" y="-125.2" font-family="Helvetica,sans-Serif" font-size="11.00">[table]</text>
<polygon fill="none" stroke="black" points="20,-95 20,-117 195,-117 195,-95 20,-95"/>
<image xlink:href="../../images/primaryKeys.png" width="11px" height="12px" preserveAspectRatio="xMinYMin meet" x="25" y="-112"/>
<text text-anchor="start" x="40" y="-103.2" font-family="Helvetica,sans-Serif" font-size="11.00">ad_storageprovider_id</text>
<polygon fill="#ffffff" stroke="transparent" points="20,-73 20,-95 195,-95 195,-73 20,-73"/>
<polygon fill="none" stroke="black" points="20,-73 20,-95 195,-95 195,-73 20,-73"/>
<text text-anchor="start" x="40" y="-81.2" font-family="Helvetica,sans-Serif" font-size="11.00">ad_storageprovider_uu</text>
<polygon fill="none" stroke="black" points="20,-55 20,-73 195,-73 195,-55 20,-55"/>
<text text-anchor="start" x="23" y="-61.2" font-family="Helvetica,sans-Serif" font-size="11.00">...</text>
<polygon fill="#ffffff" stroke="transparent" points="20,-37 20,-55 86,-55 86,-37 20,-37"/>
<polygon fill="none" stroke="black" points="20,-37 20,-55 86,-55 86,-37 20,-37"/>
<text text-anchor="start" x="23" y="-43.2" font-family="Helvetica,sans-Serif" font-size="11.00"> &#160;</text>
<polygon fill="#ffffff" stroke="transparent" points="86,-37 86,-55 146,-55 146,-37 86,-37"/>
<polygon fill="none" stroke="black" points="86,-37 86,-55 146,-55 146,-37 86,-37"/>
<text text-anchor="start" x="115" y="-43.2" font-family="Helvetica,sans-Serif" font-size="11.00">1 row</text>
<polygon fill="#ffffff" stroke="transparent" points="146,-37 146,-55 195,-55 195,-37 146,-37"/>
<polygon fill="none" stroke="black" points="146,-37 146,-55 195,-55 195,-37 146,-37"/>
<text text-anchor="start" x="176" y="-43.2" font-family="Helvetica,sans-Serif" font-size="11.00">6 &gt;</text>
</a>
</g>
</g>
<!-- ad_attachment&#45;&gt;ad_storageprovider -->
<g id="edge1" class="edge">
<title>ad_attachment:w&#45;&gt;ad_storageprovider:e</title>
<path fill="none" stroke="black" d="M242,-163.18C221.61,-149.83 228.23,-106 196,-106"/>
<polygon fill="black" stroke="black" points="248.28,-164.9 255.05,-170.47 252.14,-165.95 256,-167 256,-167 256,-167 252.14,-165.95 256.95,-163.53 248.28,-164.9 248.28,-164.9"/>
<ellipse fill="none" stroke="black" cx="245.19" cy="-164.05" rx="3.2" ry="3.2"/>
</g>
<!-- ad_table -->
<g id="node3" class="node">
<title>ad_table</title>
<g id="a_node3"><a xlink:href="../../tables/ad_table.html" xlink:title="ad_table" target="_top">
<polygon fill="#ffffff" stroke="transparent" points="8,-160 8,-394 206,-394 206,-160 8,-160"/>
<polygon fill="#f5f5f5" stroke="transparent" points="8,-372 8,-394 206,-394 206,-372 8,-372"/>
<polygon fill="none" stroke="black" points="8,-372 8,-394 206,-394 206,-372 8,-372"/>
<text text-anchor="start" x="13" y="-381.2" font-family="Helvetica,sans-Serif" font-weight="bold" font-size="11.00">ad_table</text>
<text text-anchor="start" x="171" y="-380.2" font-family="Helvetica,sans-Serif" font-size="11.00">[table]</text>
<polygon fill="none" stroke="black" points="8,-350 8,-372 206,-372 206,-350 8,-350"/>
<image xlink:href="../../images/primaryKeys.png" width="11px" height="12px" preserveAspectRatio="xMinYMin meet" x="13" y="-367"/>
<text text-anchor="start" x="28" y="-358.2" font-family="Helvetica,sans-Serif" font-size="11.00">ad_table_id</text>
<polygon fill="none" stroke="black" points="8,-328 8,-350 206,-350 206,-328 8,-328"/>
<image xlink:href="../../images/foreignKeys.png" width="11px" height="12px" preserveAspectRatio="xMinYMin meet" x="13" y="-345"/>
<text text-anchor="start" x="28" y="-336.2" font-family="Helvetica,sans-Serif" font-size="11.00">ad_client_id</text>
<polygon fill="none" stroke="black" points="8,-306 8,-328 206,-328 206,-306 8,-306"/>
<image xlink:href="../../images/foreignKeys.png" width="11px" height="12px" preserveAspectRatio="xMinYMin meet" x="13" y="-323"/>
<text text-anchor="start" x="28" y="-314.2" font-family="Helvetica,sans-Serif" font-size="11.00">ad_org_id</text>
<polygon fill="none" stroke="black" points="8,-284 8,-306 206,-306 206,-284 8,-284"/>
<image xlink:href="../../images/foreignKeys.png" width="11px" height="12px" preserveAspectRatio="xMinYMin meet" x="13" y="-301"/>
<text text-anchor="start" x="28" y="-292.2" font-family="Helvetica,sans-Serif" font-size="11.00">entitytype</text>
<polygon fill="none" stroke="black" points="8,-262 8,-284 206,-284 206,-262 8,-262"/>
<image xlink:href="../../images/foreignKeys.png" width="11px" height="12px" preserveAspectRatio="xMinYMin meet" x="13" y="-279"/>
<text text-anchor="start" x="28" y="-270.2" font-family="Helvetica,sans-Serif" font-size="11.00">ad_window_id</text>
<polygon fill="none" stroke="black" points="8,-240 8,-262 206,-262 206,-240 8,-240"/>
<image xlink:href="../../images/foreignKeys.png" width="11px" height="12px" preserveAspectRatio="xMinYMin meet" x="13" y="-257"/>
<text text-anchor="start" x="28" y="-248.2" font-family="Helvetica,sans-Serif" font-size="11.00">ad_val_rule_id</text>
<polygon fill="none" stroke="black" points="8,-218 8,-240 206,-240 206,-218 8,-218"/>
<image xlink:href="../../images/foreignKeys.png" width="11px" height="12px" preserveAspectRatio="xMinYMin meet" x="13" y="-235"/>
<text text-anchor="start" x="28" y="-226.2" font-family="Helvetica,sans-Serif" font-size="11.00">po_window_id</text>
<polygon fill="#ffffff" stroke="transparent" points="8,-196 8,-218 206,-218 206,-196 8,-196"/>
<polygon fill="none" stroke="black" points="8,-196 8,-218 206,-218 206,-196 8,-196"/>
<text text-anchor="start" x="28" y="-204.2" font-family="Helvetica,sans-Serif" font-size="11.00">ad_table_uu</text>
<polygon fill="none" stroke="black" points="8,-178 8,-196 206,-196 206,-178 8,-178"/>
<text text-anchor="start" x="11" y="-184.2" font-family="Helvetica,sans-Serif" font-size="11.00">...</text>
<polygon fill="#ffffff" stroke="transparent" points="8,-160 8,-178 74,-178 74,-160 8,-160"/>
<polygon fill="none" stroke="black" points="8,-160 8,-178 74,-178 74,-160 8,-160"/>
<text text-anchor="start" x="11" y="-166.2" font-family="Helvetica,sans-Serif" font-size="11.00">&lt; 6</text>
<polygon fill="#ffffff" stroke="transparent" points="74,-160 74,-178 156,-178 156,-160 74,-160"/>
<polygon fill="none" stroke="black" points="74,-160 74,-178 156,-178 156,-160 74,-160"/>
<text text-anchor="start" x="99" y="-166.2" font-family="Helvetica,sans-Serif" font-size="11.00">1.363 rows</text>
<polygon fill="#ffffff" stroke="transparent" points="156,-160 156,-178 206,-178 206,-160 156,-160"/>
<polygon fill="none" stroke="black" points="156,-160 156,-178 206,-178 206,-160 156,-160"/>
<text text-anchor="start" x="181" y="-166.2" font-family="Helvetica,sans-Serif" font-size="11.00">77 &gt;</text>
</a>
</g>
</g>
<!-- ad_attachment&#45;&gt;ad_table -->
<g id="edge2" class="edge">
<title>ad_attachment:w&#45;&gt;ad_table:e</title>
<path fill="none" stroke="black" d="M242.31,-303.87C226.52,-318.48 236.09,-361 207,-361"/>
<polygon fill="black" stroke="black" points="248.46,-301.68 257.21,-302.39 252.23,-300.34 256,-299 256,-299 256,-299 252.23,-300.34 254.79,-295.61 248.46,-301.68 248.46,-301.68"/>
<ellipse fill="none" stroke="black" cx="245.45" cy="-302.75" rx="3.2" ry="3.2"/>
</g>
<!-- ad_attachmentnote -->
<g id="node4" class="node">
<title>ad_attachmentnote</title>
<g id="a_node4"><a xlink:href="../../tables/ad_attachmentnote.html" xlink:title="ad_attachmentnote" target="_top">
<polygon fill="#ffffff" stroke="transparent" points="578,-384 578,-530 753,-530 753,-384 578,-384"/>
<polygon fill="#f5f5f5" stroke="transparent" points="578.5,-508 578.5,-530 753.5,-530 753.5,-508 578.5,-508"/>
<polygon fill="none" stroke="black" points="578.5,-508 578.5,-530 753.5,-530 753.5,-508 578.5,-508"/>
<text text-anchor="start" x="583.5" y="-517.2" font-family="Helvetica,sans-Serif" font-weight="bold" font-size="11.00">ad_attachmentnote</text>
<text text-anchor="start" x="718.5" y="-516.2" font-family="Helvetica,sans-Serif" font-size="11.00">[table]</text>
<polygon fill="none" stroke="black" points="578.5,-486 578.5,-508 753.5,-508 753.5,-486 578.5,-486"/>
<image xlink:href="../../images/primaryKeys.png" width="11px" height="12px" preserveAspectRatio="xMinYMin meet" x="583.5" y="-503"/>
<text text-anchor="start" x="598.5" y="-494.2" font-family="Helvetica,sans-Serif" font-size="11.00">ad_attachmentnote_id</text>
<polygon fill="none" stroke="black" points="578.5,-464 578.5,-486 753.5,-486 753.5,-464 578.5,-464"/>
<image xlink:href="../../images/foreignKeys.png" width="11px" height="12px" preserveAspectRatio="xMinYMin meet" x="583.5" y="-481"/>
<text text-anchor="start" x="598.5" y="-472.2" font-family="Helvetica,sans-Serif" font-size="11.00">ad_attachment_id</text>
<polygon fill="none" stroke="black" points="578.5,-442 578.5,-464 753.5,-464 753.5,-442 578.5,-442"/>
<image xlink:href="../../images/foreignKeys.png" width="11px" height="12px" preserveAspectRatio="xMinYMin meet" x="583.5" y="-459"/>
<text text-anchor="start" x="598.5" y="-450.2" font-family="Helvetica,sans-Serif" font-size="11.00">ad_user_id</text>
<polygon fill="#ffffff" stroke="transparent" points="578.5,-420 578.5,-442 753.5,-442 753.5,-420 578.5,-420"/>
<polygon fill="none" stroke="black" points="578.5,-420 578.5,-442 753.5,-442 753.5,-420 578.5,-420"/>
<text text-anchor="start" x="598.5" y="-428.2" font-family="Helvetica,sans-Serif" font-size="11.00">ad_attachmentnote_uu</text>
<polygon fill="none" stroke="black" points="578.5,-402 578.5,-420 753.5,-420 753.5,-402 578.5,-402"/>
<text text-anchor="start" x="581.5" y="-408.2" font-family="Helvetica,sans-Serif" font-size="11.00">...</text>
<polygon fill="#ffffff" stroke="transparent" points="578.5,-384 578.5,-402 650.5,-402 650.5,-384 578.5,-384"/>
<polygon fill="none" stroke="black" points="578.5,-384 578.5,-402 650.5,-402 650.5,-384 578.5,-384"/>
<text text-anchor="start" x="581.5" y="-390.2" font-family="Helvetica,sans-Serif" font-size="11.00">&lt; 2</text>
<polygon fill="#ffffff" stroke="transparent" points="650.5,-384 650.5,-402 714.5,-402 714.5,-384 650.5,-384"/>
<polygon fill="none" stroke="black" points="650.5,-384 650.5,-402 714.5,-402 714.5,-384 650.5,-384"/>
<text text-anchor="start" x="678.5" y="-390.2" font-family="Helvetica,sans-Serif" font-size="11.00">0 rows</text>
<polygon fill="#ffffff" stroke="transparent" points="714.5,-384 714.5,-402 753.5,-402 753.5,-384 714.5,-384"/>
<polygon fill="none" stroke="black" points="714.5,-384 714.5,-402 753.5,-402 753.5,-384 714.5,-384"/>
<text text-anchor="start" x="743.5" y="-390.2" font-family="Helvetica,sans-Serif" font-size="11.00"> &#160;</text>
</a>
</g>
</g>
<!-- ad_attachmentnote&#45;&gt;ad_attachment -->
<g id="edge3" class="edge">
<title>ad_attachmentnote:w&#45;&gt;ad_attachment:e</title>
<path fill="none" stroke="black" d="M562.84,-475C551.41,-475 544.16,-475 528,-475"/>
<polygon fill="black" stroke="black" points="569.5,-475 577.5,-478.6 573.5,-475 577.5,-475 577.5,-475 577.5,-475 573.5,-475 577.5,-471.4 569.5,-475 569.5,-475"/>
<ellipse fill="none" stroke="black" cx="566.3" cy="-475" rx="3.2" ry="3.2"/>
</g>
</g>
</svg>
