<?xml version="1.0" encoding="UTF-8" standalone="no"?>
<!DOCTYPE svg PUBLIC "-//W3C//DTD SVG 1.1//EN"
 "http://www.w3.org/Graphics/SVG/1.1/DTD/svg11.dtd">
<!-- Generated by graphviz version 2.43.0 (0)
 -->
<!-- Title: oneDegreeRelationshipsDiagram Pages: 1 -->
<svg width="869pt" height="802pt"
 viewBox="0.00 0.00 869.00 802.00" xmlns="http://www.w3.org/2000/svg" xmlns:xlink="http://www.w3.org/1999/xlink">
<g id="graph0" class="graph" transform="scale(1 1) rotate(0) translate(4 798)">
<title>oneDegreeRelationshipsDiagram</title>
<polygon fill="#ffffff" stroke="transparent" points="-4,4 -4,-798 865,-798 865,4 -4,4"/>
<text text-anchor="middle" x="71.5" y="-7.2" font-family="Helvetica,sans-Serif" font-size="11.00">Generated by SchemaSpy</text>
<!-- ad_authorizationaccount -->
<g id="node1" class="node">
<title>ad_authorizationaccount</title>
<g id="a_node1"><a xlink:href="../../tables/ad_authorizationaccount.html" xlink:title="ad_authorizationaccount" target="_top">
<polygon fill="#ffffff" stroke="transparent" points="283,-154 283,-682 598,-682 598,-154 283,-154"/>
<polygon fill="#f5f5f5" stroke="transparent" points="285.5,-658 285.5,-680 596.5,-680 596.5,-658 285.5,-658"/>
<polygon fill="none" stroke="black" points="285.5,-658 285.5,-680 596.5,-680 596.5,-658 285.5,-658"/>
<text text-anchor="start" x="290.5" y="-667.2" font-family="Helvetica,sans-Serif" font-weight="bold" font-size="11.00">ad_authorizationaccount</text>
<text text-anchor="start" x="561.5" y="-666.2" font-family="Helvetica,sans-Serif" font-size="11.00">[table]</text>
<polygon fill="none" stroke="black" points="285.5,-636 285.5,-658 506.5,-658 506.5,-636 285.5,-636"/>
<image xlink:href="../../images/primaryKeys.png" width="11px" height="12px" preserveAspectRatio="xMinYMin meet" x="290.5" y="-653"/>
<text text-anchor="start" x="305.5" y="-644.2" font-family="Helvetica,sans-Serif" font-size="11.00">ad_authorizationaccount_id</text>
<polygon fill="none" stroke="black" points="506.5,-636 506.5,-658 596.5,-658 596.5,-636 506.5,-636"/>
<text text-anchor="start" x="509.5" y="-644.2" font-family="Helvetica,sans-Serif" font-size="11.00">numeric[10]</text>
<polygon fill="none" stroke="black" points="285.5,-614 285.5,-636 506.5,-636 506.5,-614 285.5,-614"/>
<text text-anchor="start" x="305.5" y="-622.2" font-family="Helvetica,sans-Serif" font-size="11.00">ad_client_id</text>
<polygon fill="none" stroke="black" points="506.5,-614 506.5,-636 596.5,-636 596.5,-614 506.5,-614"/>
<text text-anchor="start" x="509.5" y="-622.2" font-family="Helvetica,sans-Serif" font-size="11.00">numeric[10]</text>
<polygon fill="none" stroke="black" points="285.5,-592 285.5,-614 506.5,-614 506.5,-592 285.5,-592"/>
<text text-anchor="start" x="305.5" y="-600.2" font-family="Helvetica,sans-Serif" font-size="11.00">ad_org_id</text>
<polygon fill="none" stroke="black" points="506.5,-592 506.5,-614 596.5,-614 596.5,-592 506.5,-592"/>
<text text-anchor="start" x="509.5" y="-600.2" font-family="Helvetica,sans-Serif" font-size="11.00">numeric[10]</text>
<polygon fill="none" stroke="black" points="285.5,-570 285.5,-592 506.5,-592 506.5,-570 285.5,-570"/>
<text text-anchor="start" x="305.5" y="-578.2" font-family="Helvetica,sans-Serif" font-size="11.00">created</text>
<polygon fill="none" stroke="black" points="506.5,-570 506.5,-592 596.5,-592 596.5,-570 506.5,-570"/>
<text text-anchor="start" x="509.5" y="-578.2" font-family="Helvetica,sans-Serif" font-size="11.00">timestamp[29,6]</text>
<polygon fill="none" stroke="black" points="285.5,-548 285.5,-570 506.5,-570 506.5,-548 285.5,-548"/>
<text text-anchor="start" x="305.5" y="-556.2" font-family="Helvetica,sans-Serif" font-size="11.00">createdby</text>
<polygon fill="none" stroke="black" points="506.5,-548 506.5,-570 596.5,-570 596.5,-548 506.5,-548"/>
<text text-anchor="start" x="509.5" y="-556.2" font-family="Helvetica,sans-Serif" font-size="11.00">numeric[10]</text>
<polygon fill="none" stroke="black" points="285.5,-526 285.5,-548 506.5,-548 506.5,-526 285.5,-526"/>
<text text-anchor="start" x="305.5" y="-534.2" font-family="Helvetica,sans-Serif" font-size="11.00">help</text>
<polygon fill="none" stroke="black" points="506.5,-526 506.5,-548 596.5,-548 596.5,-526 506.5,-526"/>
<text text-anchor="start" x="509.5" y="-534.2" font-family="Helvetica,sans-Serif" font-size="11.00">varchar[2000]</text>
<polygon fill="none" stroke="black" points="285.5,-504 285.5,-526 506.5,-526 506.5,-504 285.5,-504"/>
<text text-anchor="start" x="305.5" y="-512.2" font-family="Helvetica,sans-Serif" font-size="11.00">isactive</text>
<polygon fill="none" stroke="black" points="506.5,-504 506.5,-526 596.5,-526 596.5,-504 506.5,-504"/>
<text text-anchor="start" x="509.5" y="-512.2" font-family="Helvetica,sans-Serif" font-size="11.00">bpchar[1]</text>
<polygon fill="#ffffff" stroke="transparent" points="285.5,-482 285.5,-504 506.5,-504 506.5,-482 285.5,-482"/>
<polygon fill="none" stroke="black" points="285.5,-482 285.5,-504 506.5,-504 506.5,-482 285.5,-482"/>
<text text-anchor="start" x="305.5" y="-490.2" font-family="Helvetica,sans-Serif" font-size="11.00">ad_authorizationaccount_uu</text>
<polygon fill="none" stroke="black" points="506.5,-482 506.5,-504 596.5,-504 596.5,-482 506.5,-482"/>
<text text-anchor="start" x="509.5" y="-490.2" font-family="Helvetica,sans-Serif" font-size="11.00">varchar[36]</text>
<polygon fill="none" stroke="black" points="285.5,-460 285.5,-482 506.5,-482 506.5,-460 285.5,-460"/>
<text text-anchor="start" x="305.5" y="-468.2" font-family="Helvetica,sans-Serif" font-size="11.00">updated</text>
<polygon fill="none" stroke="black" points="506.5,-460 506.5,-482 596.5,-482 596.5,-460 506.5,-460"/>
<text text-anchor="start" x="509.5" y="-468.2" font-family="Helvetica,sans-Serif" font-size="11.00">timestamp[29,6]</text>
<polygon fill="none" stroke="black" points="285.5,-438 285.5,-460 506.5,-460 506.5,-438 285.5,-438"/>
<text text-anchor="start" x="305.5" y="-446.2" font-family="Helvetica,sans-Serif" font-size="11.00">updatedby</text>
<polygon fill="none" stroke="black" points="506.5,-438 506.5,-460 596.5,-460 596.5,-438 506.5,-438"/>
<text text-anchor="start" x="509.5" y="-446.2" font-family="Helvetica,sans-Serif" font-size="11.00">numeric[10]</text>
<polygon fill="none" stroke="black" points="285.5,-416 285.5,-438 506.5,-438 506.5,-416 285.5,-416"/>
<text text-anchor="start" x="305.5" y="-424.2" font-family="Helvetica,sans-Serif" font-size="11.00">email</text>
<polygon fill="none" stroke="black" points="506.5,-416 506.5,-438 596.5,-438 596.5,-416 506.5,-416"/>
<text text-anchor="start" x="509.5" y="-424.2" font-family="Helvetica,sans-Serif" font-size="11.00">varchar[200]</text>
<polygon fill="none" stroke="black" points="285.5,-394 285.5,-416 506.5,-416 506.5,-394 285.5,-394"/>
<text text-anchor="start" x="305.5" y="-402.2" font-family="Helvetica,sans-Serif" font-size="11.00">accesstoken</text>
<polygon fill="none" stroke="black" points="506.5,-394 506.5,-416 596.5,-416 596.5,-394 506.5,-394"/>
<text text-anchor="start" x="509.5" y="-402.2" font-family="Helvetica,sans-Serif" font-size="11.00">text[2147483647]</text>
<polygon fill="none" stroke="black" points="285.5,-372 285.5,-394 506.5,-394 506.5,-372 285.5,-372"/>
<text text-anchor="start" x="305.5" y="-380.2" font-family="Helvetica,sans-Serif" font-size="11.00">refreshtoken</text>
<polygon fill="none" stroke="black" points="506.5,-372 506.5,-394 596.5,-394 596.5,-372 506.5,-372"/>
<text text-anchor="start" x="509.5" y="-380.2" font-family="Helvetica,sans-Serif" font-size="11.00">varchar[4000]</text>
<polygon fill="none" stroke="black" points="285.5,-350 285.5,-372 506.5,-372 506.5,-350 285.5,-350"/>
<text text-anchor="start" x="305.5" y="-358.2" font-family="Helvetica,sans-Serif" font-size="11.00">expireinseconds</text>
<polygon fill="none" stroke="black" points="506.5,-350 506.5,-372 596.5,-372 596.5,-350 506.5,-350"/>
<text text-anchor="start" x="509.5" y="-358.2" font-family="Helvetica,sans-Serif" font-size="11.00">numeric[0]</text>
<polygon fill="none" stroke="black" points="285.5,-328 285.5,-350 506.5,-350 506.5,-328 285.5,-328"/>
<text text-anchor="start" x="305.5" y="-336.2" font-family="Helvetica,sans-Serif" font-size="11.00">ad_authorizationscope</text>
<polygon fill="none" stroke="black" points="506.5,-328 506.5,-350 596.5,-350 596.5,-328 506.5,-328"/>
<text text-anchor="start" x="509.5" y="-336.2" font-family="Helvetica,sans-Serif" font-size="11.00">varchar[10]</text>
<polygon fill="none" stroke="black" points="285.5,-306 285.5,-328 506.5,-328 506.5,-306 285.5,-306"/>
<text text-anchor="start" x="305.5" y="-314.2" font-family="Helvetica,sans-Serif" font-size="11.00">accesstokentimestamp</text>
<polygon fill="none" stroke="black" points="506.5,-306 506.5,-328 596.5,-328 596.5,-306 506.5,-306"/>
<text text-anchor="start" x="509.5" y="-314.2" font-family="Helvetica,sans-Serif" font-size="11.00">timestamp[29,6]</text>
<polygon fill="none" stroke="black" points="285.5,-284 285.5,-306 506.5,-306 506.5,-284 285.5,-284"/>
<text text-anchor="start" x="305.5" y="-292.2" font-family="Helvetica,sans-Serif" font-size="11.00">isauthorized</text>
<polygon fill="none" stroke="black" points="506.5,-284 506.5,-306 596.5,-306 596.5,-284 506.5,-284"/>
<text text-anchor="start" x="509.5" y="-292.2" font-family="Helvetica,sans-Serif" font-size="11.00">bpchar[1]</text>
<polygon fill="none" stroke="black" points="285.5,-262 285.5,-284 506.5,-284 506.5,-262 285.5,-262"/>
<image xlink:href="../../images/foreignKeys.png" width="11px" height="12px" preserveAspectRatio="xMinYMin meet" x="290.5" y="-279"/>
<text text-anchor="start" x="305.5" y="-270.2" font-family="Helvetica,sans-Serif" font-size="11.00">ad_authorizationcredential_id</text>
<polygon fill="none" stroke="black" points="506.5,-262 506.5,-284 596.5,-284 596.5,-262 506.5,-262"/>
<text text-anchor="start" x="509.5" y="-270.2" font-family="Helvetica,sans-Serif" font-size="11.00">numeric[10]</text>
<polygon fill="none" stroke="black" points="285.5,-240 285.5,-262 506.5,-262 506.5,-240 285.5,-240"/>
<text text-anchor="start" x="305.5" y="-248.2" font-family="Helvetica,sans-Serif" font-size="11.00">isaccessrevoked</text>
<polygon fill="none" stroke="black" points="506.5,-240 506.5,-262 596.5,-262 596.5,-240 506.5,-240"/>
<text text-anchor="start" x="509.5" y="-248.2" font-family="Helvetica,sans-Serif" font-size="11.00">bpchar[1]</text>
<polygon fill="none" stroke="black" points="285.5,-218 285.5,-240 506.5,-240 506.5,-218 285.5,-218"/>
<image xlink:href="../../images/foreignKeys.png" width="11px" height="12px" preserveAspectRatio="xMinYMin meet" x="290.5" y="-235"/>
<text text-anchor="start" x="305.5" y="-226.2" font-family="Helvetica,sans-Serif" font-size="11.00">ad_user_id</text>
<polygon fill="none" stroke="black" points="506.5,-218 506.5,-240 596.5,-240 596.5,-218 506.5,-218"/>
<text text-anchor="start" x="509.5" y="-226.2" font-family="Helvetica,sans-Serif" font-size="11.00">numeric[10]</text>
<polygon fill="none" stroke="black" points="285.5,-196 285.5,-218 506.5,-218 506.5,-196 285.5,-196"/>
<text text-anchor="start" x="305.5" y="-204.2" font-family="Helvetica,sans-Serif" font-size="11.00">ad_authorizationscopes</text>
<polygon fill="none" stroke="black" points="506.5,-196 506.5,-218 596.5,-218 596.5,-196 506.5,-196"/>
<text text-anchor="start" x="509.5" y="-204.2" font-family="Helvetica,sans-Serif" font-size="11.00">varchar[255]</text>
<polygon fill="none" stroke="black" points="285.5,-174 285.5,-196 506.5,-196 506.5,-174 285.5,-174"/>
<text text-anchor="start" x="305.5" y="-182.2" font-family="Helvetica,sans-Serif" font-size="11.00">preferred_username</text>
<polygon fill="none" stroke="black" points="506.5,-174 506.5,-196 596.5,-196 596.5,-174 506.5,-174"/>
<text text-anchor="start" x="509.5" y="-182.2" font-family="Helvetica,sans-Serif" font-size="11.00">varchar[1000]</text>
<polygon fill="#ffffff" stroke="transparent" points="285.5,-156 285.5,-174 387.5,-174 387.5,-156 285.5,-156"/>
<polygon fill="none" stroke="black" points="285.5,-156 285.5,-174 387.5,-174 387.5,-156 285.5,-156"/>
<text text-anchor="start" x="288.5" y="-162.2" font-family="Helvetica,sans-Serif" font-size="11.00">&lt; 2</text>
<polygon fill="#ffffff" stroke="transparent" points="387.5,-156 387.5,-174 506.5,-174 506.5,-156 387.5,-156"/>
<polygon fill="none" stroke="black" points="387.5,-156 387.5,-174 506.5,-174 506.5,-156 387.5,-156"/>
<text text-anchor="start" x="470.5" y="-162.2" font-family="Helvetica,sans-Serif" font-size="11.00">0 rows</text>
<polygon fill="#ffffff" stroke="transparent" points="506.5,-156 506.5,-174 596.5,-174 596.5,-156 506.5,-156"/>
<polygon fill="none" stroke="black" points="506.5,-156 506.5,-174 596.5,-174 596.5,-156 506.5,-156"/>
<text text-anchor="start" x="577.5" y="-162.2" font-family="Helvetica,sans-Serif" font-size="11.00">1 &gt;</text>
<polygon fill="none" stroke="black" stroke-width="2" points="284,-155 284,-681 597,-681 597,-155 284,-155"/>
</a>
</g>
</g>
<!-- ad_authorizationcredential -->
<g id="node2" class="node">
<title>ad_authorizationcredential</title>
<g id="a_node2"><a xlink:href="../../tables/ad_authorizationcredential.html" xlink:title="ad_authorizationcredential" target="_top">
<polygon fill="#ffffff" stroke="transparent" points="8,-37 8,-205 234,-205 234,-37 8,-37"/>
<polygon fill="#f5f5f5" stroke="transparent" points="8,-183 8,-205 234,-205 234,-183 8,-183"/>
<polygon fill="none" stroke="black" points="8,-183 8,-205 234,-205 234,-183 8,-183"/>
<text text-anchor="start" x="13" y="-192.2" font-family="Helvetica,sans-Serif" font-weight="bold" font-size="11.00">ad_authorizationcredential</text>
<text text-anchor="start" x="199" y="-191.2" font-family="Helvetica,sans-Serif" font-size="11.00">[table]</text>
<polygon fill="none" stroke="black" points="8,-161 8,-183 234,-183 234,-161 8,-161"/>
<image xlink:href="../../images/primaryKeys.png" width="11px" height="12px" preserveAspectRatio="xMinYMin meet" x="13" y="-178"/>
<text text-anchor="start" x="28" y="-169.2" font-family="Helvetica,sans-Serif" font-size="11.00">ad_authorizationcredential_id</text>
<polygon fill="#ffffff" stroke="transparent" points="8,-139 8,-161 234,-161 234,-139 8,-139"/>
<polygon fill="none" stroke="black" points="8,-139 8,-161 234,-161 234,-139 8,-139"/>
<text text-anchor="start" x="28" y="-147.2" font-family="Helvetica,sans-Serif" font-size="11.00">ad_client_id</text>
<polygon fill="#ffffff" stroke="transparent" points="8,-117 8,-139 234,-139 234,-117 8,-117"/>
<polygon fill="none" stroke="black" points="8,-117 8,-139 234,-139 234,-117 8,-117"/>
<text text-anchor="start" x="28" y="-125.2" font-family="Helvetica,sans-Serif" font-size="11.00">ad_authorizationcredential_uu</text>
<polygon fill="#ffffff" stroke="transparent" points="8,-95 8,-117 234,-117 234,-95 8,-95"/>
<polygon fill="none" stroke="black" points="8,-95 8,-117 234,-117 234,-95 8,-95"/>
<text text-anchor="start" x="28" y="-103.2" font-family="Helvetica,sans-Serif" font-size="11.00">name</text>
<polygon fill="none" stroke="black" points="8,-73 8,-95 234,-95 234,-73 8,-73"/>
<image xlink:href="../../images/foreignKeys.png" width="11px" height="12px" preserveAspectRatio="xMinYMin meet" x="13" y="-90"/>
<text text-anchor="start" x="28" y="-81.2" font-family="Helvetica,sans-Serif" font-size="11.00">ad_authorizationprovider_id</text>
<polygon fill="none" stroke="black" points="8,-55 8,-73 234,-73 234,-55 8,-55"/>
<text text-anchor="start" x="11" y="-61.2" font-family="Helvetica,sans-Serif" font-size="11.00">...</text>
<polygon fill="#ffffff" stroke="transparent" points="8,-37 8,-55 101,-55 101,-37 8,-37"/>
<polygon fill="none" stroke="black" points="8,-37 8,-55 101,-55 101,-37 8,-37"/>
<text text-anchor="start" x="11" y="-43.2" font-family="Helvetica,sans-Serif" font-size="11.00">&lt; 1</text>
<polygon fill="#ffffff" stroke="transparent" points="101,-37 101,-55 176,-55 176,-37 101,-37"/>
<polygon fill="none" stroke="black" points="101,-37 101,-55 176,-55 176,-37 101,-37"/>
<text text-anchor="start" x="140" y="-43.2" font-family="Helvetica,sans-Serif" font-size="11.00">0 rows</text>
<polygon fill="#ffffff" stroke="transparent" points="176,-37 176,-55 234,-55 234,-37 176,-37"/>
<polygon fill="none" stroke="black" points="176,-37 176,-55 234,-55 234,-37 176,-37"/>
<text text-anchor="start" x="215" y="-43.2" font-family="Helvetica,sans-Serif" font-size="11.00">1 &gt;</text>
</a>
</g>
</g>
<!-- ad_authorizationaccount&#45;&gt;ad_authorizationcredential -->
<g id="edge1" class="edge">
<title>ad_authorizationaccount:w&#45;&gt;ad_authorizationcredential:e</title>
<path fill="none" stroke="black" d="M270.4,-268.92C245.26,-250.02 278.94,-172 235,-172"/>
<polygon fill="black" stroke="black" points="276.82,-270.77 283.5,-276.46 280.66,-271.89 284.5,-273 284.5,-273 284.5,-273 280.66,-271.89 285.5,-269.54 276.82,-270.77 276.82,-270.77"/>
<ellipse fill="none" stroke="black" cx="273.74" cy="-269.88" rx="3.2" ry="3.2"/>
</g>
<!-- ad_user -->
<g id="node3" class="node">
<title>ad_user</title>
<g id="a_node3"><a xlink:href="../../tables/ad_user.html" xlink:title="ad_user" target="_top">
<polygon fill="#ffffff" stroke="transparent" points="9.5,-226 9.5,-746 232.5,-746 232.5,-226 9.5,-226"/>
<polygon fill="#f5f5f5" stroke="transparent" points="10,-724 10,-746 233,-746 233,-724 10,-724"/>
<polygon fill="none" stroke="black" points="10,-724 10,-746 233,-746 233,-724 10,-724"/>
<text text-anchor="start" x="15" y="-733.2" font-family="Helvetica,sans-Serif" font-weight="bold" font-size="11.00">ad_user</text>
<text text-anchor="start" x="198" y="-732.2" font-family="Helvetica,sans-Serif" font-size="11.00">[table]</text>
<polygon fill="none" stroke="black" points="10,-702 10,-724 233,-724 233,-702 10,-702"/>
<image xlink:href="../../images/primaryKeys.png" width="11px" height="12px" preserveAspectRatio="xMinYMin meet" x="15" y="-719"/>
<text text-anchor="start" x="30" y="-710.2" font-family="Helvetica,sans-Serif" font-size="11.00">ad_user_id</text>
<polygon fill="none" stroke="black" points="10,-680 10,-702 233,-702 233,-680 10,-680"/>
<image xlink:href="../../images/foreignKeys.png" width="11px" height="12px" preserveAspectRatio="xMinYMin meet" x="15" y="-697"/>
<text text-anchor="start" x="30" y="-688.2" font-family="Helvetica,sans-Serif" font-size="11.00">ad_client_id</text>
<polygon fill="none" stroke="black" points="10,-658 10,-680 233,-680 233,-658 10,-658"/>
<image xlink:href="../../images/foreignKeys.png" width="11px" height="12px" preserveAspectRatio="xMinYMin meet" x="15" y="-675"/>
<text text-anchor="start" x="30" y="-666.2" font-family="Helvetica,sans-Serif" font-size="11.00">ad_org_id</text>
<polygon fill="#ffffff" stroke="transparent" points="10,-636 10,-658 233,-658 233,-636 10,-636"/>
<polygon fill="none" stroke="black" points="10,-636 10,-658 233,-658 233,-636 10,-636"/>
<text text-anchor="start" x="30" y="-644.2" font-family="Helvetica,sans-Serif" font-size="11.00">name</text>
<polygon fill="#ffffff" stroke="transparent" points="10,-614 10,-636 233,-636 233,-614 10,-614"/>
<polygon fill="none" stroke="black" points="10,-614 10,-636 233,-636 233,-614 10,-614"/>
<text text-anchor="start" x="30" y="-622.2" font-family="Helvetica,sans-Serif" font-size="11.00">email</text>
<polygon fill="none" stroke="black" points="10,-592 10,-614 233,-614 233,-592 10,-592"/>
<image xlink:href="../../images/foreignKeys.png" width="11px" height="12px" preserveAspectRatio="xMinYMin meet" x="15" y="-609"/>
<text text-anchor="start" x="30" y="-600.2" font-family="Helvetica,sans-Serif" font-size="11.00">supervisor_id</text>
<polygon fill="#ffffff" stroke="transparent" points="10,-570 10,-592 233,-592 233,-570 10,-570"/>
<polygon fill="none" stroke="black" points="10,-570 10,-592 233,-592 233,-570 10,-570"/>
<image xlink:href="../../images/foreignKeys.png" width="11px" height="12px" preserveAspectRatio="xMinYMin meet" x="15" y="-587"/>
<text text-anchor="start" x="30" y="-578.2" font-family="Helvetica,sans-Serif" font-size="11.00">c_bpartner_id</text>
<polygon fill="none" stroke="black" points="10,-548 10,-570 233,-570 233,-548 10,-548"/>
<image xlink:href="../../images/foreignKeys.png" width="11px" height="12px" preserveAspectRatio="xMinYMin meet" x="15" y="-565"/>
<text text-anchor="start" x="30" y="-556.2" font-family="Helvetica,sans-Serif" font-size="11.00">c_bpartner_location_id</text>
<polygon fill="none" stroke="black" points="10,-526 10,-548 233,-548 233,-526 10,-526"/>
<image xlink:href="../../images/foreignKeys.png" width="11px" height="12px" preserveAspectRatio="xMinYMin meet" x="15" y="-543"/>
<text text-anchor="start" x="30" y="-534.2" font-family="Helvetica,sans-Serif" font-size="11.00">c_greeting_id</text>
<polygon fill="none" stroke="black" points="10,-504 10,-526 233,-526 233,-504 10,-504"/>
<image xlink:href="../../images/foreignKeys.png" width="11px" height="12px" preserveAspectRatio="xMinYMin meet" x="15" y="-521"/>
<text text-anchor="start" x="30" y="-512.2" font-family="Helvetica,sans-Serif" font-size="11.00">ad_orgtrx_id</text>
<polygon fill="none" stroke="black" points="10,-482 10,-504 233,-504 233,-482 10,-482"/>
<image xlink:href="../../images/foreignKeys.png" width="11px" height="12px" preserveAspectRatio="xMinYMin meet" x="15" y="-499"/>
<text text-anchor="start" x="30" y="-490.2" font-family="Helvetica,sans-Serif" font-size="11.00">c_job_id</text>
<polygon fill="#ffffff" stroke="transparent" points="10,-460 10,-482 233,-482 233,-460 10,-460"/>
<polygon fill="none" stroke="black" points="10,-460 10,-482 233,-482 233,-460 10,-460"/>
<text text-anchor="start" x="30" y="-468.2" font-family="Helvetica,sans-Serif" font-size="11.00">ad_user_uu</text>
<polygon fill="none" stroke="black" points="10,-438 10,-460 233,-460 233,-438 10,-438"/>
<image xlink:href="../../images/foreignKeys.png" width="11px" height="12px" preserveAspectRatio="xMinYMin meet" x="15" y="-455"/>
<text text-anchor="start" x="30" y="-446.2" font-family="Helvetica,sans-Serif" font-size="11.00">c_location_id</text>
<polygon fill="none" stroke="black" points="10,-416 10,-438 233,-438 233,-416 10,-416"/>
<image xlink:href="../../images/foreignKeys.png" width="11px" height="12px" preserveAspectRatio="xMinYMin meet" x="15" y="-433"/>
<text text-anchor="start" x="30" y="-424.2" font-family="Helvetica,sans-Serif" font-size="11.00">c_campaign_id</text>
<polygon fill="none" stroke="black" points="10,-394 10,-416 233,-416 233,-394 10,-394"/>
<image xlink:href="../../images/foreignKeys.png" width="11px" height="12px" preserveAspectRatio="xMinYMin meet" x="15" y="-411"/>
<text text-anchor="start" x="30" y="-402.2" font-family="Helvetica,sans-Serif" font-size="11.00">salesrep_id</text>
<polygon fill="none" stroke="black" points="10,-372 10,-394 233,-394 233,-372 10,-372"/>
<image xlink:href="../../images/foreignKeys.png" width="11px" height="12px" preserveAspectRatio="xMinYMin meet" x="15" y="-389"/>
<text text-anchor="start" x="30" y="-380.2" font-family="Helvetica,sans-Serif" font-size="11.00">bp_location_id</text>
<polygon fill="none" stroke="black" points="10,-350 10,-372 233,-372 233,-350 10,-350"/>
<image xlink:href="../../images/foreignKeys.png" width="11px" height="12px" preserveAspectRatio="xMinYMin meet" x="15" y="-367"/>
<text text-anchor="start" x="30" y="-358.2" font-family="Helvetica,sans-Serif" font-size="11.00">r_defaultmailtext_id</text>
<polygon fill="none" stroke="black" points="10,-328 10,-350 233,-350 233,-328 10,-328"/>
<image xlink:href="../../images/foreignKeys.png" width="11px" height="12px" preserveAspectRatio="xMinYMin meet" x="15" y="-345"/>
<text text-anchor="start" x="30" y="-336.2" font-family="Helvetica,sans-Serif" font-size="11.00">cof_c_marketsegment_id</text>
<polygon fill="none" stroke="black" points="10,-306 10,-328 233,-328 233,-306 10,-306"/>
<image xlink:href="../../images/foreignKeys.png" width="11px" height="12px" preserveAspectRatio="xMinYMin meet" x="15" y="-323"/>
<text text-anchor="start" x="30" y="-314.2" font-family="Helvetica,sans-Serif" font-size="11.00">cof_c_leadexpirationreason_id</text>
<polygon fill="none" stroke="black" points="10,-284 10,-306 233,-306 233,-284 10,-284"/>
<image xlink:href="../../images/foreignKeys.png" width="11px" height="12px" preserveAspectRatio="xMinYMin meet" x="15" y="-301"/>
<text text-anchor="start" x="30" y="-292.2" font-family="Helvetica,sans-Serif" font-size="11.00">ad_image_id</text>
<polygon fill="none" stroke="black" points="10,-262 10,-284 233,-284 233,-262 10,-262"/>
<image xlink:href="../../images/foreignKeys.png" width="11px" height="12px" preserveAspectRatio="xMinYMin meet" x="15" y="-279"/>
<text text-anchor="start" x="30" y="-270.2" font-family="Helvetica,sans-Serif" font-size="11.00">c_subscription_id</text>
<polygon fill="none" stroke="black" points="10,-244 10,-262 233,-262 233,-244 10,-244"/>
<text text-anchor="start" x="13" y="-250.2" font-family="Helvetica,sans-Serif" font-size="11.00">...</text>
<polygon fill="#ffffff" stroke="transparent" points="10,-226 10,-244 99,-244 99,-226 10,-226"/>
<polygon fill="none" stroke="black" points="10,-226 10,-244 99,-244 99,-226 10,-226"/>
<text text-anchor="start" x="13" y="-232.2" font-family="Helvetica,sans-Serif" font-size="11.00">&lt; 17</text>
<polygon fill="#ffffff" stroke="transparent" points="99,-226 99,-244 168,-244 168,-226 99,-226"/>
<polygon fill="none" stroke="black" points="99,-226 99,-244 168,-244 168,-226 99,-226"/>
<text text-anchor="start" x="132" y="-232.2" font-family="Helvetica,sans-Serif" font-size="11.00">8 rows</text>
<polygon fill="#ffffff" stroke="transparent" points="168,-226 168,-244 233,-244 233,-226 168,-226"/>
<polygon fill="none" stroke="black" points="168,-226 168,-244 233,-244 233,-226 168,-226"/>
<text text-anchor="start" x="202" y="-232.2" font-family="Helvetica,sans-Serif" font-size="11.00">316 &gt;</text>
</a>
</g>
</g>
<!-- ad_authorizationaccount&#45;&gt;ad_user -->
<g id="edge2" class="edge">
<title>ad_authorizationaccount:w&#45;&gt;ad_user:e</title>
<path fill="none" stroke="black" d="M270.07,-232.62C192.49,-276.91 336.65,-713 234,-713"/>
<polygon fill="black" stroke="black" points="276.74,-230.95 285.38,-232.49 280.62,-229.97 284.5,-229 284.5,-229 284.5,-229 280.62,-229.97 283.62,-225.51 276.74,-230.95 276.74,-230.95"/>
<ellipse fill="none" stroke="black" cx="273.64" cy="-231.72" rx="3.2" ry="3.2"/>
</g>
<!-- ad_schedulerrecipient -->
<g id="node4" class="node">
<title>ad_schedulerrecipient</title>
<g id="a_node4"><a xlink:href="../../tables/ad_schedulerrecipient.html" xlink:title="ad_schedulerrecipient" target="_top">
<polygon fill="#ffffff" stroke="transparent" points="647,-600 647,-790 853,-790 853,-600 647,-600"/>
<polygon fill="#f5f5f5" stroke="transparent" points="647,-768 647,-790 853,-790 853,-768 647,-768"/>
<polygon fill="none" stroke="black" points="647,-768 647,-790 853,-790 853,-768 647,-768"/>
<text text-anchor="start" x="652" y="-777.2" font-family="Helvetica,sans-Serif" font-weight="bold" font-size="11.00">ad_schedulerrecipient</text>
<text text-anchor="start" x="818" y="-776.2" font-family="Helvetica,sans-Serif" font-size="11.00">[table]</text>
<polygon fill="none" stroke="black" points="647,-746 647,-768 853,-768 853,-746 647,-746"/>
<image xlink:href="../../images/primaryKeys.png" width="11px" height="12px" preserveAspectRatio="xMinYMin meet" x="652" y="-763"/>
<text text-anchor="start" x="667" y="-754.2" font-family="Helvetica,sans-Serif" font-size="11.00">ad_schedulerrecipient_id</text>
<polygon fill="none" stroke="black" points="647,-724 647,-746 853,-746 853,-724 647,-724"/>
<image xlink:href="../../images/foreignKeys.png" width="11px" height="12px" preserveAspectRatio="xMinYMin meet" x="652" y="-741"/>
<text text-anchor="start" x="667" y="-732.2" font-family="Helvetica,sans-Serif" font-size="11.00">ad_scheduler_id</text>
<polygon fill="none" stroke="black" points="647,-702 647,-724 853,-724 853,-702 647,-702"/>
<image xlink:href="../../images/foreignKeys.png" width="11px" height="12px" preserveAspectRatio="xMinYMin meet" x="652" y="-719"/>
<text text-anchor="start" x="667" y="-710.2" font-family="Helvetica,sans-Serif" font-size="11.00">ad_user_id</text>
<polygon fill="none" stroke="black" points="647,-680 647,-702 853,-702 853,-680 647,-680"/>
<image xlink:href="../../images/foreignKeys.png" width="11px" height="12px" preserveAspectRatio="xMinYMin meet" x="652" y="-697"/>
<text text-anchor="start" x="667" y="-688.2" font-family="Helvetica,sans-Serif" font-size="11.00">ad_role_id</text>
<polygon fill="#ffffff" stroke="transparent" points="647,-658 647,-680 853,-680 853,-658 647,-658"/>
<polygon fill="none" stroke="black" points="647,-658 647,-680 853,-680 853,-658 647,-658"/>
<text text-anchor="start" x="667" y="-666.2" font-family="Helvetica,sans-Serif" font-size="11.00">ad_schedulerrecipient_uu</text>
<polygon fill="none" stroke="black" points="647,-636 647,-658 853,-658 853,-636 647,-636"/>
<image xlink:href="../../images/foreignKeys.png" width="11px" height="12px" preserveAspectRatio="xMinYMin meet" x="652" y="-653"/>
<text text-anchor="start" x="667" y="-644.2" font-family="Helvetica,sans-Serif" font-size="11.00">ad_authorizationaccount_id</text>
<polygon fill="none" stroke="black" points="647,-618 647,-636 853,-636 853,-618 647,-618"/>
<text text-anchor="start" x="650" y="-624.2" font-family="Helvetica,sans-Serif" font-size="11.00">...</text>
<polygon fill="#ffffff" stroke="transparent" points="647,-600 647,-618 737,-618 737,-600 647,-600"/>
<polygon fill="none" stroke="black" points="647,-600 647,-618 737,-618 737,-600 647,-600"/>
<text text-anchor="start" x="650" y="-606.2" font-family="Helvetica,sans-Serif" font-size="11.00">&lt; 4</text>
<polygon fill="#ffffff" stroke="transparent" points="737,-600 737,-618 805,-618 805,-600 737,-600"/>
<polygon fill="none" stroke="black" points="737,-600 737,-618 805,-618 805,-600 737,-600"/>
<text text-anchor="start" x="774" y="-606.2" font-family="Helvetica,sans-Serif" font-size="11.00">1 row</text>
<polygon fill="#ffffff" stroke="transparent" points="805,-600 805,-618 853,-618 853,-600 805,-600"/>
<polygon fill="none" stroke="black" points="805,-600 805,-618 853,-618 853,-600 805,-600"/>
<text text-anchor="start" x="843" y="-606.2" font-family="Helvetica,sans-Serif" font-size="11.00"> &#160;</text>
</a>
</g>
</g>
<!-- ad_schedulerrecipient&#45;&gt;ad_authorizationaccount -->
<g id="edge3" class="edge">
<title>ad_schedulerrecipient:w&#45;&gt;ad_authorizationaccount:e</title>
<path fill="none" stroke="black" d="M631.28,-647C620.29,-647 613.16,-647 597.5,-647"/>
<polygon fill="black" stroke="black" points="638,-647 646,-650.6 642,-647 646,-647 646,-647 646,-647 642,-647 646,-643.4 638,-647 638,-647"/>
<ellipse fill="none" stroke="black" cx="634.8" cy="-647" rx="3.2" ry="3.2"/>
</g>
<!-- ad_schedulerrecipient&#45;&gt;ad_user -->
<g id="edge4" class="edge">
<title>ad_schedulerrecipient:w&#45;&gt;ad_user:e</title>
<path fill="none" stroke="black" d="M631.54,-713C460.33,-713 412.19,-713 234,-713"/>
<polygon fill="black" stroke="black" points="638,-713 646,-716.6 642,-713 646,-713 646,-713 646,-713 642,-713 646,-709.4 638,-713 638,-713"/>
<ellipse fill="none" stroke="black" cx="634.8" cy="-713" rx="3.2" ry="3.2"/>
</g>
</g>
</svg>
