<?xml version="1.0" encoding="UTF-8" standalone="no"?>
<!DOCTYPE svg PUBLIC "-//W3C//DTD SVG 1.1//EN"
 "http://www.w3.org/Graphics/SVG/1.1/DTD/svg11.dtd">
<!-- Generated by graphviz version 2.43.0 (0)
 -->
<!-- Title: oneDegreeRelationshipsDiagram Pages: 1 -->
<svg width="1226pt" height="942pt"
 viewBox="0.00 0.00 1225.52 942.00" xmlns="http://www.w3.org/2000/svg" xmlns:xlink="http://www.w3.org/1999/xlink">
<g id="graph0" class="graph" transform="scale(1 1) rotate(0) translate(4 938)">
<title>oneDegreeRelationshipsDiagram</title>
<polygon fill="#ffffff" stroke="transparent" points="-4,4 -4,-938 1221.52,-938 1221.52,4 -4,4"/>
<text text-anchor="middle" x="71.5" y="-7.2" font-family="Helvetica,sans-Serif" font-size="11.00">Generated by SchemaSpy</text>
<!-- ad_chart_trl -->
<g id="node1" class="node">
<title>ad_chart_trl</title>
<g id="a_node1"><a xlink:href="../../tables/ad_chart_trl.html" xlink:title="ad_chart_trl" target="_top">
<polygon fill="#ffffff" stroke="transparent" points="999.52,-471 999.52,-845 1209.52,-845 1209.52,-471 999.52,-471"/>
<polygon fill="#f5f5f5" stroke="transparent" points="1001.52,-821 1001.52,-843 1207.52,-843 1207.52,-821 1001.52,-821"/>
<polygon fill="none" stroke="black" points="1001.52,-821 1001.52,-843 1207.52,-843 1207.52,-821 1001.52,-821"/>
<text text-anchor="start" x="1006.52" y="-830.2" font-family="Helvetica,sans-Serif" font-weight="bold" font-size="11.00">ad_chart_trl</text>
<text text-anchor="start" x="1172.52" y="-829.2" font-family="Helvetica,sans-Serif" font-size="11.00">[table]</text>
<polygon fill="none" stroke="black" points="1001.52,-799 1001.52,-821 1124.52,-821 1124.52,-799 1001.52,-799"/>
<image xlink:href="../../images/primaryKeys.png" width="11px" height="12px" preserveAspectRatio="xMinYMin meet" x="1006.52" y="-816"/>
<text text-anchor="start" x="1021.52" y="-807.2" font-family="Helvetica,sans-Serif" font-size="11.00">ad_chart_id</text>
<polygon fill="none" stroke="black" points="1124.52,-799 1124.52,-821 1207.52,-821 1207.52,-799 1124.52,-799"/>
<text text-anchor="start" x="1127.52" y="-807.2" font-family="Helvetica,sans-Serif" font-size="11.00">numeric[10]</text>
<polygon fill="#ffffff" stroke="transparent" points="1001.52,-777 1001.52,-799 1124.52,-799 1124.52,-777 1001.52,-777"/>
<polygon fill="none" stroke="black" points="1001.52,-777 1001.52,-799 1124.52,-799 1124.52,-777 1001.52,-777"/>
<text text-anchor="start" x="1021.52" y="-785.2" font-family="Helvetica,sans-Serif" font-size="11.00">ad_chart_trl_uu</text>
<polygon fill="none" stroke="black" points="1124.52,-777 1124.52,-799 1207.52,-799 1207.52,-777 1124.52,-777"/>
<text text-anchor="start" x="1127.52" y="-785.2" font-family="Helvetica,sans-Serif" font-size="11.00">varchar[36]</text>
<polygon fill="none" stroke="black" points="1001.52,-755 1001.52,-777 1124.52,-777 1124.52,-755 1001.52,-755"/>
<image xlink:href="../../images/foreignKeys.png" width="11px" height="12px" preserveAspectRatio="xMinYMin meet" x="1006.52" y="-772"/>
<text text-anchor="start" x="1021.52" y="-763.2" font-family="Helvetica,sans-Serif" font-size="11.00">ad_client_id</text>
<polygon fill="none" stroke="black" points="1124.52,-755 1124.52,-777 1207.52,-777 1207.52,-755 1124.52,-755"/>
<text text-anchor="start" x="1127.52" y="-763.2" font-family="Helvetica,sans-Serif" font-size="11.00">numeric[10]</text>
<polygon fill="none" stroke="black" points="1001.52,-733 1001.52,-755 1124.52,-755 1124.52,-733 1001.52,-733"/>
<image xlink:href="../../images/primaryKeys.png" width="11px" height="12px" preserveAspectRatio="xMinYMin meet" x="1006.52" y="-750"/>
<text text-anchor="start" x="1021.52" y="-741.2" font-family="Helvetica,sans-Serif" font-size="11.00">ad_language</text>
<polygon fill="none" stroke="black" points="1124.52,-733 1124.52,-755 1207.52,-755 1207.52,-733 1124.52,-733"/>
<text text-anchor="start" x="1127.52" y="-741.2" font-family="Helvetica,sans-Serif" font-size="11.00">varchar[6]</text>
<polygon fill="none" stroke="black" points="1001.52,-711 1001.52,-733 1124.52,-733 1124.52,-711 1001.52,-711"/>
<image xlink:href="../../images/foreignKeys.png" width="11px" height="12px" preserveAspectRatio="xMinYMin meet" x="1006.52" y="-728"/>
<text text-anchor="start" x="1021.52" y="-719.2" font-family="Helvetica,sans-Serif" font-size="11.00">ad_org_id</text>
<polygon fill="none" stroke="black" points="1124.52,-711 1124.52,-733 1207.52,-733 1207.52,-711 1124.52,-711"/>
<text text-anchor="start" x="1127.52" y="-719.2" font-family="Helvetica,sans-Serif" font-size="11.00">numeric[10]</text>
<polygon fill="none" stroke="black" points="1001.52,-689 1001.52,-711 1124.52,-711 1124.52,-689 1001.52,-689"/>
<text text-anchor="start" x="1021.52" y="-697.2" font-family="Helvetica,sans-Serif" font-size="11.00">created</text>
<polygon fill="none" stroke="black" points="1124.52,-689 1124.52,-711 1207.52,-711 1207.52,-689 1124.52,-689"/>
<text text-anchor="start" x="1127.52" y="-697.2" font-family="Helvetica,sans-Serif" font-size="11.00">timestamp[29,6]</text>
<polygon fill="none" stroke="black" points="1001.52,-667 1001.52,-689 1124.52,-689 1124.52,-667 1001.52,-667"/>
<image xlink:href="../../images/foreignKeys.png" width="11px" height="12px" preserveAspectRatio="xMinYMin meet" x="1006.52" y="-684"/>
<text text-anchor="start" x="1021.52" y="-675.2" font-family="Helvetica,sans-Serif" font-size="11.00">createdby</text>
<polygon fill="none" stroke="black" points="1124.52,-667 1124.52,-689 1207.52,-689 1207.52,-667 1124.52,-667"/>
<text text-anchor="start" x="1127.52" y="-675.2" font-family="Helvetica,sans-Serif" font-size="11.00">numeric[10]</text>
<polygon fill="none" stroke="black" points="1001.52,-645 1001.52,-667 1124.52,-667 1124.52,-645 1001.52,-645"/>
<text text-anchor="start" x="1021.52" y="-653.2" font-family="Helvetica,sans-Serif" font-size="11.00">description</text>
<polygon fill="none" stroke="black" points="1124.52,-645 1124.52,-667 1207.52,-667 1207.52,-645 1124.52,-645"/>
<text text-anchor="start" x="1127.52" y="-653.2" font-family="Helvetica,sans-Serif" font-size="11.00">varchar[255]</text>
<polygon fill="none" stroke="black" points="1001.52,-623 1001.52,-645 1124.52,-645 1124.52,-623 1001.52,-623"/>
<text text-anchor="start" x="1021.52" y="-631.2" font-family="Helvetica,sans-Serif" font-size="11.00">isactive</text>
<polygon fill="none" stroke="black" points="1124.52,-623 1124.52,-645 1207.52,-645 1207.52,-623 1124.52,-623"/>
<text text-anchor="start" x="1127.52" y="-631.2" font-family="Helvetica,sans-Serif" font-size="11.00">bpchar[1]</text>
<polygon fill="none" stroke="black" points="1001.52,-601 1001.52,-623 1124.52,-623 1124.52,-601 1001.52,-601"/>
<text text-anchor="start" x="1021.52" y="-609.2" font-family="Helvetica,sans-Serif" font-size="11.00">istranslated</text>
<polygon fill="none" stroke="black" points="1124.52,-601 1124.52,-623 1207.52,-623 1207.52,-601 1124.52,-601"/>
<text text-anchor="start" x="1127.52" y="-609.2" font-family="Helvetica,sans-Serif" font-size="11.00">bpchar[1]</text>
<polygon fill="none" stroke="black" points="1001.52,-579 1001.52,-601 1124.52,-601 1124.52,-579 1001.52,-579"/>
<text text-anchor="start" x="1021.52" y="-587.2" font-family="Helvetica,sans-Serif" font-size="11.00">name</text>
<polygon fill="none" stroke="black" points="1124.52,-579 1124.52,-601 1207.52,-601 1207.52,-579 1124.52,-579"/>
<text text-anchor="start" x="1127.52" y="-587.2" font-family="Helvetica,sans-Serif" font-size="11.00">varchar[60]</text>
<polygon fill="none" stroke="black" points="1001.52,-557 1001.52,-579 1124.52,-579 1124.52,-557 1001.52,-557"/>
<text text-anchor="start" x="1021.52" y="-565.2" font-family="Helvetica,sans-Serif" font-size="11.00">updated</text>
<polygon fill="none" stroke="black" points="1124.52,-557 1124.52,-579 1207.52,-579 1207.52,-557 1124.52,-557"/>
<text text-anchor="start" x="1127.52" y="-565.2" font-family="Helvetica,sans-Serif" font-size="11.00">timestamp[29,6]</text>
<polygon fill="none" stroke="black" points="1001.52,-535 1001.52,-557 1124.52,-557 1124.52,-535 1001.52,-535"/>
<image xlink:href="../../images/foreignKeys.png" width="11px" height="12px" preserveAspectRatio="xMinYMin meet" x="1006.52" y="-552"/>
<text text-anchor="start" x="1021.52" y="-543.2" font-family="Helvetica,sans-Serif" font-size="11.00">updatedby</text>
<polygon fill="none" stroke="black" points="1124.52,-535 1124.52,-557 1207.52,-557 1207.52,-535 1124.52,-535"/>
<text text-anchor="start" x="1127.52" y="-543.2" font-family="Helvetica,sans-Serif" font-size="11.00">numeric[10]</text>
<polygon fill="none" stroke="black" points="1001.52,-513 1001.52,-535 1124.52,-535 1124.52,-513 1001.52,-513"/>
<text text-anchor="start" x="1021.52" y="-521.2" font-family="Helvetica,sans-Serif" font-size="11.00">domainlabel</text>
<polygon fill="none" stroke="black" points="1124.52,-513 1124.52,-535 1207.52,-535 1207.52,-513 1124.52,-513"/>
<text text-anchor="start" x="1127.52" y="-521.2" font-family="Helvetica,sans-Serif" font-size="11.00">varchar[60]</text>
<polygon fill="none" stroke="black" points="1001.52,-491 1001.52,-513 1124.52,-513 1124.52,-491 1001.52,-491"/>
<text text-anchor="start" x="1021.52" y="-499.2" font-family="Helvetica,sans-Serif" font-size="11.00">rangelabel</text>
<polygon fill="none" stroke="black" points="1124.52,-491 1124.52,-513 1207.52,-513 1207.52,-491 1124.52,-491"/>
<text text-anchor="start" x="1127.52" y="-499.2" font-family="Helvetica,sans-Serif" font-size="11.00">varchar[60]</text>
<polygon fill="#ffffff" stroke="transparent" points="1001.52,-473 1001.52,-491 1051.52,-491 1051.52,-473 1001.52,-473"/>
<polygon fill="none" stroke="black" points="1001.52,-473 1001.52,-491 1051.52,-491 1051.52,-473 1001.52,-473"/>
<text text-anchor="start" x="1004.52" y="-479.2" font-family="Helvetica,sans-Serif" font-size="11.00">&lt; 6</text>
<polygon fill="#ffffff" stroke="transparent" points="1051.52,-473 1051.52,-491 1124.52,-491 1124.52,-473 1051.52,-473"/>
<polygon fill="none" stroke="black" points="1051.52,-473 1051.52,-491 1124.52,-491 1124.52,-473 1051.52,-473"/>
<text text-anchor="start" x="1082.52" y="-479.2" font-family="Helvetica,sans-Serif" font-size="11.00">16 rows</text>
<polygon fill="#ffffff" stroke="transparent" points="1124.52,-473 1124.52,-491 1207.52,-491 1207.52,-473 1124.52,-473"/>
<polygon fill="none" stroke="black" points="1124.52,-473 1124.52,-491 1207.52,-491 1207.52,-473 1124.52,-473"/>
<text text-anchor="start" x="1188.52" y="-479.2" font-family="Helvetica,sans-Serif" font-size="11.00">0 &gt;</text>
<polygon fill="none" stroke="black" stroke-width="2" points="1000.52,-472 1000.52,-844 1208.52,-844 1208.52,-472 1000.52,-472"/>
</a>
</g>
</g>
<!-- ad_chart -->
<g id="node2" class="node">
<title>ad_chart</title>
<g id="a_node2"><a xlink:href="../../tables/ad_chart.html" xlink:title="ad_chart" target="_top">
<polygon fill="#ffffff" stroke="transparent" points="773.52,-806 773.52,-930 904.52,-930 904.52,-806 773.52,-806"/>
<polygon fill="#f5f5f5" stroke="transparent" points="774.02,-908 774.02,-930 905.02,-930 905.02,-908 774.02,-908"/>
<polygon fill="none" stroke="black" points="774.02,-908 774.02,-930 905.02,-930 905.02,-908 774.02,-908"/>
<text text-anchor="start" x="779.02" y="-917.2" font-family="Helvetica,sans-Serif" font-weight="bold" font-size="11.00">ad_chart</text>
<text text-anchor="start" x="870.02" y="-916.2" font-family="Helvetica,sans-Serif" font-size="11.00">[table]</text>
<polygon fill="none" stroke="black" points="774.02,-886 774.02,-908 905.02,-908 905.02,-886 774.02,-886"/>
<image xlink:href="../../images/primaryKeys.png" width="11px" height="12px" preserveAspectRatio="xMinYMin meet" x="779.023" y="-903"/>
<text text-anchor="start" x="794.02" y="-894.2" font-family="Helvetica,sans-Serif" font-size="11.00">ad_chart_id</text>
<polygon fill="#ffffff" stroke="transparent" points="774.02,-864 774.02,-886 905.02,-886 905.02,-864 774.02,-864"/>
<polygon fill="none" stroke="black" points="774.02,-864 774.02,-886 905.02,-886 905.02,-864 774.02,-864"/>
<text text-anchor="start" x="794.02" y="-872.2" font-family="Helvetica,sans-Serif" font-size="11.00">ad_chart_uu</text>
<polygon fill="none" stroke="black" points="774.02,-842 774.02,-864 905.02,-864 905.02,-842 774.02,-842"/>
<image xlink:href="../../images/foreignKeys.png" width="11px" height="12px" preserveAspectRatio="xMinYMin meet" x="779.023" y="-859"/>
<text text-anchor="start" x="794.02" y="-850.2" font-family="Helvetica,sans-Serif" font-size="11.00">entitytype</text>
<polygon fill="none" stroke="black" points="774.02,-824 774.02,-842 905.02,-842 905.02,-824 774.02,-824"/>
<text text-anchor="start" x="777.02" y="-830.2" font-family="Helvetica,sans-Serif" font-size="11.00">...</text>
<polygon fill="#ffffff" stroke="transparent" points="774.02,-806 774.02,-824 820.02,-824 820.02,-806 774.02,-806"/>
<polygon fill="none" stroke="black" points="774.02,-806 774.02,-824 820.02,-824 820.02,-806 774.02,-806"/>
<text text-anchor="start" x="777.02" y="-812.2" font-family="Helvetica,sans-Serif" font-size="11.00">&lt; 1</text>
<polygon fill="#ffffff" stroke="transparent" points="820.02,-806 820.02,-824 871.02,-824 871.02,-806 820.02,-806"/>
<polygon fill="none" stroke="black" points="820.02,-806 820.02,-824 871.02,-824 871.02,-806 820.02,-806"/>
<text text-anchor="start" x="835.02" y="-812.2" font-family="Helvetica,sans-Serif" font-size="11.00">8 rows</text>
<polygon fill="#ffffff" stroke="transparent" points="871.02,-806 871.02,-824 905.02,-824 905.02,-806 871.02,-806"/>
<polygon fill="none" stroke="black" points="871.02,-806 871.02,-824 905.02,-824 905.02,-806 871.02,-806"/>
<text text-anchor="start" x="886.02" y="-812.2" font-family="Helvetica,sans-Serif" font-size="11.00">6 &gt;</text>
</a>
</g>
</g>
<!-- ad_chart_trl&#45;&gt;ad_chart -->
<g id="edge1" class="edge">
<title>ad_chart_trl:w&#45;&gt;ad_chart:e</title>
<path fill="none" stroke="black" d="M986.11,-812.24C946.5,-825.86 957.65,-897 906.02,-897"/>
<polygon fill="black" stroke="black" points="992.62,-811.23 1001.08,-813.56 996.57,-810.61 1000.52,-810 1000.52,-810 1000.52,-810 996.57,-810.61 999.97,-806.44 992.62,-811.23 992.62,-811.23"/>
<ellipse fill="none" stroke="black" cx="989.46" cy="-811.72" rx="3.2" ry="3.2"/>
</g>
<!-- ad_client -->
<g id="node3" class="node">
<title>ad_client</title>
<g id="a_node3"><a xlink:href="../../tables/ad_client.html" xlink:title="ad_client" target="_top">
<polygon fill="#ffffff" stroke="transparent" points="450.52,-525 450.52,-737 678.52,-737 678.52,-525 450.52,-525"/>
<polygon fill="#f5f5f5" stroke="transparent" points="450.52,-715 450.52,-737 678.52,-737 678.52,-715 450.52,-715"/>
<polygon fill="none" stroke="black" points="450.52,-715 450.52,-737 678.52,-737 678.52,-715 450.52,-715"/>
<text text-anchor="start" x="455.52" y="-724.2" font-family="Helvetica,sans-Serif" font-weight="bold" font-size="11.00">ad_client</text>
<text text-anchor="start" x="643.52" y="-723.2" font-family="Helvetica,sans-Serif" font-size="11.00">[table]</text>
<polygon fill="none" stroke="black" points="450.52,-693 450.52,-715 678.52,-715 678.52,-693 450.52,-693"/>
<image xlink:href="../../images/primaryKeys.png" width="11px" height="12px" preserveAspectRatio="xMinYMin meet" x="455.523" y="-710"/>
<text text-anchor="start" x="470.52" y="-701.2" font-family="Helvetica,sans-Serif" font-size="11.00">ad_client_id</text>
<polygon fill="#ffffff" stroke="transparent" points="450.52,-671 450.52,-693 678.52,-693 678.52,-671 450.52,-671"/>
<polygon fill="none" stroke="black" points="450.52,-671 450.52,-693 678.52,-693 678.52,-671 450.52,-671"/>
<text text-anchor="start" x="470.52" y="-679.2" font-family="Helvetica,sans-Serif" font-size="11.00">value</text>
<polygon fill="none" stroke="black" points="450.52,-649 450.52,-671 678.52,-671 678.52,-649 450.52,-649"/>
<image xlink:href="../../images/foreignKeys.png" width="11px" height="12px" preserveAspectRatio="xMinYMin meet" x="455.523" y="-666"/>
<text text-anchor="start" x="470.52" y="-657.2" font-family="Helvetica,sans-Serif" font-size="11.00">ad_language</text>
<polygon fill="none" stroke="black" points="450.52,-627 450.52,-649 678.52,-649 678.52,-627 450.52,-627"/>
<image xlink:href="../../images/foreignKeys.png" width="11px" height="12px" preserveAspectRatio="xMinYMin meet" x="455.523" y="-644"/>
<text text-anchor="start" x="470.52" y="-635.2" font-family="Helvetica,sans-Serif" font-size="11.00">ad_replicationstrategy_id</text>
<polygon fill="#ffffff" stroke="transparent" points="450.52,-605 450.52,-627 678.52,-627 678.52,-605 450.52,-605"/>
<polygon fill="none" stroke="black" points="450.52,-605 450.52,-627 678.52,-627 678.52,-605 450.52,-605"/>
<text text-anchor="start" x="470.52" y="-613.2" font-family="Helvetica,sans-Serif" font-size="11.00">ad_client_uu</text>
<polygon fill="none" stroke="black" points="450.52,-583 450.52,-605 678.52,-605 678.52,-583 450.52,-583"/>
<image xlink:href="../../images/foreignKeys.png" width="11px" height="12px" preserveAspectRatio="xMinYMin meet" x="455.523" y="-600"/>
<text text-anchor="start" x="470.52" y="-591.2" font-family="Helvetica,sans-Serif" font-size="11.00">ad_passwordrule_id</text>
<polygon fill="#ffffff" stroke="transparent" points="450.52,-561 450.52,-583 678.52,-583 678.52,-561 450.52,-561"/>
<polygon fill="none" stroke="black" points="450.52,-561 450.52,-583 678.52,-583 678.52,-561 450.52,-561"/>
<text text-anchor="start" x="470.52" y="-569.2" font-family="Helvetica,sans-Serif" font-size="11.00">loginprefix</text>
<polygon fill="none" stroke="black" points="450.52,-543 450.52,-561 678.52,-561 678.52,-543 450.52,-543"/>
<text text-anchor="start" x="453.52" y="-549.2" font-family="Helvetica,sans-Serif" font-size="11.00">...</text>
<polygon fill="#ffffff" stroke="transparent" points="450.52,-525 450.52,-543 538.52,-543 538.52,-525 450.52,-525"/>
<polygon fill="none" stroke="black" points="450.52,-525 450.52,-543 538.52,-543 538.52,-525 450.52,-525"/>
<text text-anchor="start" x="453.52" y="-531.2" font-family="Helvetica,sans-Serif" font-size="11.00">&lt; 3</text>
<polygon fill="#ffffff" stroke="transparent" points="538.52,-525 538.52,-543 610.52,-543 610.52,-525 538.52,-525"/>
<polygon fill="none" stroke="black" points="538.52,-525 538.52,-543 610.52,-543 610.52,-525 538.52,-525"/>
<text text-anchor="start" x="574.52" y="-531.2" font-family="Helvetica,sans-Serif" font-size="11.00">2 rows</text>
<polygon fill="#ffffff" stroke="transparent" points="610.52,-525 610.52,-543 678.52,-543 678.52,-525 610.52,-525"/>
<polygon fill="none" stroke="black" points="610.52,-525 610.52,-543 678.52,-543 678.52,-525 610.52,-525"/>
<text text-anchor="start" x="647.52" y="-531.2" font-family="Helvetica,sans-Serif" font-size="11.00">145 &gt;</text>
</a>
</g>
</g>
<!-- ad_chart_trl&#45;&gt;ad_client -->
<g id="edge2" class="edge">
<title>ad_chart_trl:w&#45;&gt;ad_client:e</title>
<path fill="none" stroke="black" d="M986.02,-765.79C853.01,-761.83 819.86,-704 679.52,-704"/>
<polygon fill="black" stroke="black" points="992.52,-765.88 1000.47,-769.6 996.52,-765.94 1000.52,-766 1000.52,-766 1000.52,-766 996.52,-765.94 1000.58,-762.4 992.52,-765.88 992.52,-765.88"/>
<ellipse fill="none" stroke="black" cx="989.32" cy="-765.84" rx="3.2" ry="3.2"/>
</g>
<!-- ad_language -->
<g id="node4" class="node">
<title>ad_language</title>
<g id="a_node4"><a xlink:href="../../tables/ad_language.html" xlink:title="ad_language" target="_top">
<polygon fill="#ffffff" stroke="transparent" points="258.52,-564 258.52,-754 401.52,-754 401.52,-564 258.52,-564"/>
<polygon fill="#f5f5f5" stroke="transparent" points="259.02,-732 259.02,-754 402.02,-754 402.02,-732 259.02,-732"/>
<polygon fill="none" stroke="black" points="259.02,-732 259.02,-754 402.02,-754 402.02,-732 259.02,-732"/>
<text text-anchor="start" x="264.02" y="-741.2" font-family="Helvetica,sans-Serif" font-weight="bold" font-size="11.00">ad_language</text>
<text text-anchor="start" x="367.02" y="-740.2" font-family="Helvetica,sans-Serif" font-size="11.00">[table]</text>
<polygon fill="none" stroke="black" points="259.02,-710 259.02,-732 402.02,-732 402.02,-710 259.02,-710"/>
<image xlink:href="../../images/primaryKeys.png" width="11px" height="12px" preserveAspectRatio="xMinYMin meet" x="264.023" y="-727"/>
<text text-anchor="start" x="279.02" y="-718.2" font-family="Helvetica,sans-Serif" font-size="11.00">ad_language</text>
<polygon fill="none" stroke="black" points="259.02,-688 259.02,-710 402.02,-710 402.02,-688 259.02,-688"/>
<image xlink:href="../../images/foreignKeys.png" width="11px" height="12px" preserveAspectRatio="xMinYMin meet" x="264.023" y="-705"/>
<text text-anchor="start" x="279.02" y="-696.2" font-family="Helvetica,sans-Serif" font-size="11.00">ad_client_id</text>
<polygon fill="none" stroke="black" points="259.02,-666 259.02,-688 402.02,-688 402.02,-666 259.02,-666"/>
<image xlink:href="../../images/foreignKeys.png" width="11px" height="12px" preserveAspectRatio="xMinYMin meet" x="264.023" y="-683"/>
<text text-anchor="start" x="279.02" y="-674.2" font-family="Helvetica,sans-Serif" font-size="11.00">ad_org_id</text>
<polygon fill="#ffffff" stroke="transparent" points="259.02,-644 259.02,-666 402.02,-666 402.02,-644 259.02,-644"/>
<polygon fill="none" stroke="black" points="259.02,-644 259.02,-666 402.02,-666 402.02,-644 259.02,-644"/>
<text text-anchor="start" x="279.02" y="-652.2" font-family="Helvetica,sans-Serif" font-size="11.00">ad_language_id</text>
<polygon fill="#ffffff" stroke="transparent" points="259.02,-622 259.02,-644 402.02,-644 402.02,-622 259.02,-622"/>
<polygon fill="none" stroke="black" points="259.02,-622 259.02,-644 402.02,-644 402.02,-622 259.02,-622"/>
<text text-anchor="start" x="279.02" y="-630.2" font-family="Helvetica,sans-Serif" font-size="11.00">ad_language_uu</text>
<polygon fill="none" stroke="black" points="259.02,-600 259.02,-622 402.02,-622 402.02,-600 259.02,-600"/>
<image xlink:href="../../images/foreignKeys.png" width="11px" height="12px" preserveAspectRatio="xMinYMin meet" x="264.023" y="-617"/>
<text text-anchor="start" x="279.02" y="-608.2" font-family="Helvetica,sans-Serif" font-size="11.00">ad_printpaper_id</text>
<polygon fill="none" stroke="black" points="259.02,-582 259.02,-600 402.02,-600 402.02,-582 259.02,-582"/>
<text text-anchor="start" x="262.02" y="-588.2" font-family="Helvetica,sans-Serif" font-size="11.00">...</text>
<polygon fill="#ffffff" stroke="transparent" points="259.02,-564 259.02,-582 302.02,-582 302.02,-564 259.02,-564"/>
<polygon fill="none" stroke="black" points="259.02,-564 259.02,-582 302.02,-582 302.02,-564 259.02,-564"/>
<text text-anchor="start" x="262.02" y="-570.2" font-family="Helvetica,sans-Serif" font-size="11.00">&lt; 3</text>
<polygon fill="#ffffff" stroke="transparent" points="302.02,-564 302.02,-582 363.02,-582 363.02,-564 302.02,-564"/>
<polygon fill="none" stroke="black" points="302.02,-564 302.02,-582 363.02,-582 363.02,-564 302.02,-564"/>
<text text-anchor="start" x="315.02" y="-570.2" font-family="Helvetica,sans-Serif" font-size="11.00">109 rows</text>
<polygon fill="#ffffff" stroke="transparent" points="363.02,-564 363.02,-582 402.02,-582 402.02,-564 363.02,-564"/>
<polygon fill="none" stroke="black" points="363.02,-564 363.02,-582 402.02,-582 402.02,-564 363.02,-564"/>
<text text-anchor="start" x="377.02" y="-570.2" font-family="Helvetica,sans-Serif" font-size="11.00">86 &gt;</text>
</a>
</g>
</g>
<!-- ad_chart_trl&#45;&gt;ad_language -->
<g id="edge3" class="edge">
<title>ad_chart_trl:w&#45;&gt;ad_language:e</title>
<path fill="none" stroke="black" d="M985.84,-744.09C749.53,-747.03 674.72,-819.78 442.52,-748 422.21,-741.72 424.29,-721 403.02,-721"/>
<polygon fill="black" stroke="black" points="992.52,-744.05 1000.55,-747.6 996.52,-744.02 1000.52,-744 1000.52,-744 1000.52,-744 996.52,-744.02 1000.5,-740.4 992.52,-744.05 992.52,-744.05"/>
<ellipse fill="none" stroke="black" cx="989.32" cy="-744.07" rx="3.2" ry="3.2"/>
</g>
<!-- ad_org -->
<g id="node5" class="node">
<title>ad_org</title>
<g id="a_node5"><a xlink:href="../../tables/ad_org.html" xlink:title="ad_org" target="_top">
<polygon fill="#ffffff" stroke="transparent" points="17.52,-344 17.52,-534 209.52,-534 209.52,-344 17.52,-344"/>
<polygon fill="#f5f5f5" stroke="transparent" points="17.52,-512 17.52,-534 209.52,-534 209.52,-512 17.52,-512"/>
<polygon fill="none" stroke="black" points="17.52,-512 17.52,-534 209.52,-534 209.52,-512 17.52,-512"/>
<text text-anchor="start" x="22.52" y="-521.2" font-family="Helvetica,sans-Serif" font-weight="bold" font-size="11.00">ad_org</text>
<text text-anchor="start" x="174.52" y="-520.2" font-family="Helvetica,sans-Serif" font-size="11.00">[table]</text>
<polygon fill="none" stroke="black" points="17.52,-490 17.52,-512 209.52,-512 209.52,-490 17.52,-490"/>
<image xlink:href="../../images/primaryKeys.png" width="11px" height="12px" preserveAspectRatio="xMinYMin meet" x="22.5235" y="-507"/>
<text text-anchor="start" x="37.52" y="-498.2" font-family="Helvetica,sans-Serif" font-size="11.00">ad_org_id</text>
<polygon fill="#ffffff" stroke="transparent" points="17.52,-468 17.52,-490 209.52,-490 209.52,-468 17.52,-468"/>
<polygon fill="none" stroke="black" points="17.52,-468 17.52,-490 209.52,-490 209.52,-468 17.52,-468"/>
<image xlink:href="../../images/foreignKeys.png" width="11px" height="12px" preserveAspectRatio="xMinYMin meet" x="22.5235" y="-485"/>
<text text-anchor="start" x="37.52" y="-476.2" font-family="Helvetica,sans-Serif" font-size="11.00">ad_client_id</text>
<polygon fill="#ffffff" stroke="transparent" points="17.52,-446 17.52,-468 209.52,-468 209.52,-446 17.52,-446"/>
<polygon fill="none" stroke="black" points="17.52,-446 17.52,-468 209.52,-468 209.52,-446 17.52,-446"/>
<text text-anchor="start" x="37.52" y="-454.2" font-family="Helvetica,sans-Serif" font-size="11.00">value</text>
<polygon fill="none" stroke="black" points="17.52,-424 17.52,-446 209.52,-446 209.52,-424 17.52,-424"/>
<image xlink:href="../../images/foreignKeys.png" width="11px" height="12px" preserveAspectRatio="xMinYMin meet" x="22.5235" y="-441"/>
<text text-anchor="start" x="37.52" y="-432.2" font-family="Helvetica,sans-Serif" font-size="11.00">ad_replicationstrategy_id</text>
<polygon fill="#ffffff" stroke="transparent" points="17.52,-402 17.52,-424 209.52,-424 209.52,-402 17.52,-402"/>
<polygon fill="none" stroke="black" points="17.52,-402 17.52,-424 209.52,-424 209.52,-402 17.52,-402"/>
<text text-anchor="start" x="37.52" y="-410.2" font-family="Helvetica,sans-Serif" font-size="11.00">ad_org_uu</text>
<polygon fill="none" stroke="black" points="17.52,-380 17.52,-402 209.52,-402 209.52,-380 17.52,-380"/>
<image xlink:href="../../images/foreignKeys.png" width="11px" height="12px" preserveAspectRatio="xMinYMin meet" x="22.5235" y="-397"/>
<text text-anchor="start" x="37.52" y="-388.2" font-family="Helvetica,sans-Serif" font-size="11.00">cof_c_snrange_id</text>
<polygon fill="none" stroke="black" points="17.52,-362 17.52,-380 209.52,-380 209.52,-362 17.52,-362"/>
<text text-anchor="start" x="20.52" y="-368.2" font-family="Helvetica,sans-Serif" font-size="11.00">...</text>
<polygon fill="#ffffff" stroke="transparent" points="17.52,-344 17.52,-362 87.52,-362 87.52,-344 17.52,-344"/>
<polygon fill="none" stroke="black" points="17.52,-344 17.52,-362 87.52,-362 87.52,-344 17.52,-344"/>
<text text-anchor="start" x="20.52" y="-350.2" font-family="Helvetica,sans-Serif" font-size="11.00">&lt; 3</text>
<polygon fill="#ffffff" stroke="transparent" points="87.52,-344 87.52,-362 150.52,-362 150.52,-344 87.52,-344"/>
<polygon fill="none" stroke="black" points="87.52,-344 87.52,-362 150.52,-362 150.52,-344 87.52,-344"/>
<text text-anchor="start" x="114.52" y="-350.2" font-family="Helvetica,sans-Serif" font-size="11.00">3 rows</text>
<polygon fill="#ffffff" stroke="transparent" points="150.52,-344 150.52,-362 209.52,-362 209.52,-344 150.52,-344"/>
<polygon fill="none" stroke="black" points="150.52,-344 150.52,-362 209.52,-362 209.52,-344 150.52,-344"/>
<text text-anchor="start" x="178.52" y="-350.2" font-family="Helvetica,sans-Serif" font-size="11.00">224 &gt;</text>
</a>
</g>
</g>
<!-- ad_chart_trl&#45;&gt;ad_org -->
<g id="edge4" class="edge">
<title>ad_chart_trl:w&#45;&gt;ad_org:e</title>
<path fill="none" stroke="black" d="M985.89,-721.79C855.55,-718 819.35,-662.43 719.52,-568 699.36,-548.93 710.58,-528.83 686.52,-515 594.77,-462.27 316.35,-501 210.52,-501"/>
<polygon fill="black" stroke="black" points="992.52,-721.89 1000.47,-725.6 996.52,-721.94 1000.52,-722 1000.52,-722 1000.52,-722 996.52,-721.94 1000.57,-718.4 992.52,-721.89 992.52,-721.89"/>
<ellipse fill="none" stroke="black" cx="989.32" cy="-721.84" rx="3.2" ry="3.2"/>
</g>
<!-- ad_user -->
<g id="node6" class="node">
<title>ad_user</title>
<g id="a_node6"><a xlink:href="../../tables/ad_user.html" xlink:title="ad_user" target="_top">
<polygon fill="#ffffff" stroke="transparent" points="727.52,-37 727.52,-557 950.52,-557 950.52,-37 727.52,-37"/>
<polygon fill="#f5f5f5" stroke="transparent" points="728.02,-535 728.02,-557 951.02,-557 951.02,-535 728.02,-535"/>
<polygon fill="none" stroke="black" points="728.02,-535 728.02,-557 951.02,-557 951.02,-535 728.02,-535"/>
<text text-anchor="start" x="733.02" y="-544.2" font-family="Helvetica,sans-Serif" font-weight="bold" font-size="11.00">ad_user</text>
<text text-anchor="start" x="916.02" y="-543.2" font-family="Helvetica,sans-Serif" font-size="11.00">[table]</text>
<polygon fill="none" stroke="black" points="728.02,-513 728.02,-535 951.02,-535 951.02,-513 728.02,-513"/>
<image xlink:href="../../images/primaryKeys.png" width="11px" height="12px" preserveAspectRatio="xMinYMin meet" x="733.023" y="-530"/>
<text text-anchor="start" x="748.02" y="-521.2" font-family="Helvetica,sans-Serif" font-size="11.00">ad_user_id</text>
<polygon fill="none" stroke="black" points="728.02,-491 728.02,-513 951.02,-513 951.02,-491 728.02,-491"/>
<image xlink:href="../../images/foreignKeys.png" width="11px" height="12px" preserveAspectRatio="xMinYMin meet" x="733.023" y="-508"/>
<text text-anchor="start" x="748.02" y="-499.2" font-family="Helvetica,sans-Serif" font-size="11.00">ad_client_id</text>
<polygon fill="none" stroke="black" points="728.02,-469 728.02,-491 951.02,-491 951.02,-469 728.02,-469"/>
<image xlink:href="../../images/foreignKeys.png" width="11px" height="12px" preserveAspectRatio="xMinYMin meet" x="733.023" y="-486"/>
<text text-anchor="start" x="748.02" y="-477.2" font-family="Helvetica,sans-Serif" font-size="11.00">ad_org_id</text>
<polygon fill="#ffffff" stroke="transparent" points="728.02,-447 728.02,-469 951.02,-469 951.02,-447 728.02,-447"/>
<polygon fill="none" stroke="black" points="728.02,-447 728.02,-469 951.02,-469 951.02,-447 728.02,-447"/>
<text text-anchor="start" x="748.02" y="-455.2" font-family="Helvetica,sans-Serif" font-size="11.00">name</text>
<polygon fill="#ffffff" stroke="transparent" points="728.02,-425 728.02,-447 951.02,-447 951.02,-425 728.02,-425"/>
<polygon fill="none" stroke="black" points="728.02,-425 728.02,-447 951.02,-447 951.02,-425 728.02,-425"/>
<text text-anchor="start" x="748.02" y="-433.2" font-family="Helvetica,sans-Serif" font-size="11.00">email</text>
<polygon fill="none" stroke="black" points="728.02,-403 728.02,-425 951.02,-425 951.02,-403 728.02,-403"/>
<image xlink:href="../../images/foreignKeys.png" width="11px" height="12px" preserveAspectRatio="xMinYMin meet" x="733.023" y="-420"/>
<text text-anchor="start" x="748.02" y="-411.2" font-family="Helvetica,sans-Serif" font-size="11.00">supervisor_id</text>
<polygon fill="#ffffff" stroke="transparent" points="728.02,-381 728.02,-403 951.02,-403 951.02,-381 728.02,-381"/>
<polygon fill="none" stroke="black" points="728.02,-381 728.02,-403 951.02,-403 951.02,-381 728.02,-381"/>
<image xlink:href="../../images/foreignKeys.png" width="11px" height="12px" preserveAspectRatio="xMinYMin meet" x="733.023" y="-398"/>
<text text-anchor="start" x="748.02" y="-389.2" font-family="Helvetica,sans-Serif" font-size="11.00">c_bpartner_id</text>
<polygon fill="none" stroke="black" points="728.02,-359 728.02,-381 951.02,-381 951.02,-359 728.02,-359"/>
<image xlink:href="../../images/foreignKeys.png" width="11px" height="12px" preserveAspectRatio="xMinYMin meet" x="733.023" y="-376"/>
<text text-anchor="start" x="748.02" y="-367.2" font-family="Helvetica,sans-Serif" font-size="11.00">c_bpartner_location_id</text>
<polygon fill="none" stroke="black" points="728.02,-337 728.02,-359 951.02,-359 951.02,-337 728.02,-337"/>
<image xlink:href="../../images/foreignKeys.png" width="11px" height="12px" preserveAspectRatio="xMinYMin meet" x="733.023" y="-354"/>
<text text-anchor="start" x="748.02" y="-345.2" font-family="Helvetica,sans-Serif" font-size="11.00">c_greeting_id</text>
<polygon fill="none" stroke="black" points="728.02,-315 728.02,-337 951.02,-337 951.02,-315 728.02,-315"/>
<image xlink:href="../../images/foreignKeys.png" width="11px" height="12px" preserveAspectRatio="xMinYMin meet" x="733.023" y="-332"/>
<text text-anchor="start" x="748.02" y="-323.2" font-family="Helvetica,sans-Serif" font-size="11.00">ad_orgtrx_id</text>
<polygon fill="none" stroke="black" points="728.02,-293 728.02,-315 951.02,-315 951.02,-293 728.02,-293"/>
<image xlink:href="../../images/foreignKeys.png" width="11px" height="12px" preserveAspectRatio="xMinYMin meet" x="733.023" y="-310"/>
<text text-anchor="start" x="748.02" y="-301.2" font-family="Helvetica,sans-Serif" font-size="11.00">c_job_id</text>
<polygon fill="#ffffff" stroke="transparent" points="728.02,-271 728.02,-293 951.02,-293 951.02,-271 728.02,-271"/>
<polygon fill="none" stroke="black" points="728.02,-271 728.02,-293 951.02,-293 951.02,-271 728.02,-271"/>
<text text-anchor="start" x="748.02" y="-279.2" font-family="Helvetica,sans-Serif" font-size="11.00">ad_user_uu</text>
<polygon fill="none" stroke="black" points="728.02,-249 728.02,-271 951.02,-271 951.02,-249 728.02,-249"/>
<image xlink:href="../../images/foreignKeys.png" width="11px" height="12px" preserveAspectRatio="xMinYMin meet" x="733.023" y="-266"/>
<text text-anchor="start" x="748.02" y="-257.2" font-family="Helvetica,sans-Serif" font-size="11.00">c_location_id</text>
<polygon fill="none" stroke="black" points="728.02,-227 728.02,-249 951.02,-249 951.02,-227 728.02,-227"/>
<image xlink:href="../../images/foreignKeys.png" width="11px" height="12px" preserveAspectRatio="xMinYMin meet" x="733.023" y="-244"/>
<text text-anchor="start" x="748.02" y="-235.2" font-family="Helvetica,sans-Serif" font-size="11.00">c_campaign_id</text>
<polygon fill="none" stroke="black" points="728.02,-205 728.02,-227 951.02,-227 951.02,-205 728.02,-205"/>
<image xlink:href="../../images/foreignKeys.png" width="11px" height="12px" preserveAspectRatio="xMinYMin meet" x="733.023" y="-222"/>
<text text-anchor="start" x="748.02" y="-213.2" font-family="Helvetica,sans-Serif" font-size="11.00">salesrep_id</text>
<polygon fill="none" stroke="black" points="728.02,-183 728.02,-205 951.02,-205 951.02,-183 728.02,-183"/>
<image xlink:href="../../images/foreignKeys.png" width="11px" height="12px" preserveAspectRatio="xMinYMin meet" x="733.023" y="-200"/>
<text text-anchor="start" x="748.02" y="-191.2" font-family="Helvetica,sans-Serif" font-size="11.00">bp_location_id</text>
<polygon fill="none" stroke="black" points="728.02,-161 728.02,-183 951.02,-183 951.02,-161 728.02,-161"/>
<image xlink:href="../../images/foreignKeys.png" width="11px" height="12px" preserveAspectRatio="xMinYMin meet" x="733.023" y="-178"/>
<text text-anchor="start" x="748.02" y="-169.2" font-family="Helvetica,sans-Serif" font-size="11.00">r_defaultmailtext_id</text>
<polygon fill="none" stroke="black" points="728.02,-139 728.02,-161 951.02,-161 951.02,-139 728.02,-139"/>
<image xlink:href="../../images/foreignKeys.png" width="11px" height="12px" preserveAspectRatio="xMinYMin meet" x="733.023" y="-156"/>
<text text-anchor="start" x="748.02" y="-147.2" font-family="Helvetica,sans-Serif" font-size="11.00">cof_c_marketsegment_id</text>
<polygon fill="none" stroke="black" points="728.02,-117 728.02,-139 951.02,-139 951.02,-117 728.02,-117"/>
<image xlink:href="../../images/foreignKeys.png" width="11px" height="12px" preserveAspectRatio="xMinYMin meet" x="733.023" y="-134"/>
<text text-anchor="start" x="748.02" y="-125.2" font-family="Helvetica,sans-Serif" font-size="11.00">cof_c_leadexpirationreason_id</text>
<polygon fill="none" stroke="black" points="728.02,-95 728.02,-117 951.02,-117 951.02,-95 728.02,-95"/>
<image xlink:href="../../images/foreignKeys.png" width="11px" height="12px" preserveAspectRatio="xMinYMin meet" x="733.023" y="-112"/>
<text text-anchor="start" x="748.02" y="-103.2" font-family="Helvetica,sans-Serif" font-size="11.00">ad_image_id</text>
<polygon fill="none" stroke="black" points="728.02,-73 728.02,-95 951.02,-95 951.02,-73 728.02,-73"/>
<image xlink:href="../../images/foreignKeys.png" width="11px" height="12px" preserveAspectRatio="xMinYMin meet" x="733.023" y="-90"/>
<text text-anchor="start" x="748.02" y="-81.2" font-family="Helvetica,sans-Serif" font-size="11.00">c_subscription_id</text>
<polygon fill="none" stroke="black" points="728.02,-55 728.02,-73 951.02,-73 951.02,-55 728.02,-55"/>
<text text-anchor="start" x="731.02" y="-61.2" font-family="Helvetica,sans-Serif" font-size="11.00">...</text>
<polygon fill="#ffffff" stroke="transparent" points="728.02,-37 728.02,-55 817.02,-55 817.02,-37 728.02,-37"/>
<polygon fill="none" stroke="black" points="728.02,-37 728.02,-55 817.02,-55 817.02,-37 728.02,-37"/>
<text text-anchor="start" x="731.02" y="-43.2" font-family="Helvetica,sans-Serif" font-size="11.00">&lt; 17</text>
<polygon fill="#ffffff" stroke="transparent" points="817.02,-37 817.02,-55 886.02,-55 886.02,-37 817.02,-37"/>
<polygon fill="none" stroke="black" points="817.02,-37 817.02,-55 886.02,-55 886.02,-37 817.02,-37"/>
<text text-anchor="start" x="850.02" y="-43.2" font-family="Helvetica,sans-Serif" font-size="11.00">8 rows</text>
<polygon fill="#ffffff" stroke="transparent" points="886.02,-37 886.02,-55 951.02,-55 951.02,-37 886.02,-37"/>
<polygon fill="none" stroke="black" points="886.02,-37 886.02,-55 951.02,-55 951.02,-37 886.02,-37"/>
<text text-anchor="start" x="920.02" y="-43.2" font-family="Helvetica,sans-Serif" font-size="11.00">316 &gt;</text>
</a>
</g>
</g>
<!-- ad_chart_trl&#45;&gt;ad_user -->
<g id="edge5" class="edge">
<title>ad_chart_trl:w&#45;&gt;ad_user:e</title>
<path fill="none" stroke="black" d="M986.32,-675.2C942.91,-654.32 1018.04,-524 952.02,-524"/>
<polygon fill="black" stroke="black" points="992.68,-676.45 999.83,-681.53 996.6,-677.23 1000.52,-678 1000.52,-678 1000.52,-678 996.6,-677.23 1001.22,-674.47 992.68,-676.45 992.68,-676.45"/>
<ellipse fill="none" stroke="black" cx="989.54" cy="-675.83" rx="3.2" ry="3.2"/>
</g>
<!-- ad_chart_trl&#45;&gt;ad_user -->
<g id="edge6" class="edge">
<title>ad_chart_trl:w&#45;&gt;ad_user:e</title>
<path fill="none" stroke="black" d="M986.29,-542.56C974.87,-536.38 969.78,-524 952.02,-524"/>
<polygon fill="black" stroke="black" points="992.75,-544.12 999.68,-549.5 996.64,-545.06 1000.52,-546 1000.52,-546 1000.52,-546 996.64,-545.06 1001.37,-542.5 992.75,-544.12 992.75,-544.12"/>
<ellipse fill="none" stroke="black" cx="989.64" cy="-543.37" rx="3.2" ry="3.2"/>
</g>
<!-- ad_client&#45;&gt;ad_language -->
<g id="edge7" class="edge">
<title>ad_client:w&#45;&gt;ad_language:e</title>
<path fill="none" stroke="black" d="M435.9,-665.2C421.42,-679.95 430.99,-721 403.02,-721"/>
<polygon fill="black" stroke="black" points="442.05,-662.85 450.81,-663.36 445.79,-661.43 449.52,-660 449.52,-660 449.52,-660 445.79,-661.43 448.24,-656.64 442.05,-662.85 442.05,-662.85"/>
<ellipse fill="none" stroke="black" cx="439.06" cy="-663.99" rx="3.2" ry="3.2"/>
</g>
<!-- ad_language&#45;&gt;ad_client -->
<g id="edge8" class="edge">
<title>ad_language:w&#45;&gt;ad_client:e</title>
<path fill="none" stroke="black" d="M244.73,-705.25C236.52,-717.37 244.85,-744.07 259.02,-758 306.72,-804.9 342.9,-764.01 409.52,-758 424.37,-756.66 427.71,-753.68 442.52,-752 455.56,-750.52 669.33,-750.37 678.52,-741 690.04,-729.25 695.97,-704 679.52,-704"/>
<polygon fill="black" stroke="black" points="250.78,-702.41 259.56,-702.26 254.4,-700.7 258.02,-699 258.02,-699 258.02,-699 254.4,-700.7 256.49,-695.74 250.78,-702.41 250.78,-702.41"/>
<ellipse fill="none" stroke="black" cx="247.89" cy="-703.77" rx="3.2" ry="3.2"/>
</g>
<!-- ad_language&#45;&gt;ad_org -->
<g id="edge9" class="edge">
<title>ad_language:w&#45;&gt;ad_org:e</title>
<path fill="none" stroke="black" d="M243.7,-674.51C192.14,-653.12 285.85,-501 210.52,-501"/>
<polygon fill="black" stroke="black" points="250.14,-675.63 257.41,-680.55 254.08,-676.32 258.02,-677 258.02,-677 258.02,-677 254.08,-676.32 258.64,-673.45 250.14,-675.63 250.14,-675.63"/>
<ellipse fill="none" stroke="black" cx="246.99" cy="-675.08" rx="3.2" ry="3.2"/>
</g>
<!-- ad_org&#45;&gt;ad_client -->
<g id="edge10" class="edge">
<title>ad_org:w&#45;&gt;ad_client:e</title>
<path fill="none" stroke="black" d="M3.29,-485.2C-4.84,-497.23 3.64,-523.78 17.52,-538 139.34,-662.76 278.26,-439.23 409.52,-554 473.06,-609.55 377.87,-686.76 442.52,-741 452.57,-749.43 669.13,-750.14 678.52,-741 690.31,-729.53 695.97,-704 679.52,-704"/>
<polygon fill="black" stroke="black" points="9.28,-482.39 18.05,-482.26 12.9,-480.7 16.52,-479 16.52,-479 16.52,-479 12.9,-480.7 15,-475.74 9.28,-482.39 9.28,-482.39"/>
<ellipse fill="none" stroke="black" cx="6.38" cy="-483.75" rx="3.2" ry="3.2"/>
</g>
<!-- ad_user&#45;&gt;ad_client -->
<g id="edge11" class="edge">
<title>ad_user:w&#45;&gt;ad_client:e</title>
<path fill="none" stroke="black" d="M712.69,-504.13C650.54,-525.72 766.17,-704 679.52,-704"/>
<polygon fill="black" stroke="black" points="719.11,-503.18 727.55,-505.56 723.07,-502.59 727.02,-502 727.02,-502 727.02,-502 723.07,-502.59 726.49,-498.44 719.11,-503.18 719.11,-503.18"/>
<ellipse fill="none" stroke="black" cx="715.95" cy="-503.65" rx="3.2" ry="3.2"/>
</g>
<!-- ad_user&#45;&gt;ad_org -->
<g id="edge12" class="edge">
<title>ad_user:w&#45;&gt;ad_org:e</title>
<path fill="none" stroke="black" d="M712.38,-479.97C512.54,-479.21 455.54,-463.36 250.52,-491 232.36,-493.45 228.85,-501 210.52,-501"/>
<polygon fill="black" stroke="black" points="719.02,-479.98 727.02,-483.6 723.02,-479.99 727.02,-480 727.02,-480 727.02,-480 723.02,-479.99 727.03,-476.4 719.02,-479.98 719.02,-479.98"/>
<ellipse fill="none" stroke="black" cx="715.82" cy="-479.98" rx="3.2" ry="3.2"/>
</g>
<!-- ad_user&#45;&gt;ad_org -->
<g id="edge13" class="edge">
<title>ad_user:w&#45;&gt;ad_org:e</title>
<path fill="none" stroke="black" d="M712.34,-326.08C502.82,-328.25 445.13,-377.79 250.52,-473 231.03,-482.54 232.22,-501 210.52,-501"/>
<polygon fill="black" stroke="black" points="719.02,-326.04 727.04,-329.6 723.02,-326.02 727.02,-326 727.02,-326 727.02,-326 723.02,-326.02 727.01,-322.4 719.02,-326.04 719.02,-326.04"/>
<ellipse fill="none" stroke="black" cx="715.82" cy="-326.06" rx="3.2" ry="3.2"/>
</g>
</g>
</svg>
