<?xml version="1.0" encoding="UTF-8" standalone="no"?>
<!DOCTYPE svg PUBLIC "-//W3C//DTD SVG 1.1//EN"
 "http://www.w3.org/Graphics/SVG/1.1/DTD/svg11.dtd">
<!-- Generated by graphviz version 2.43.0 (0)
 -->
<!-- Title: oneDegreeRelationshipsDiagram Pages: 1 -->
<svg width="1018pt" height="505pt"
 viewBox="0.00 0.00 1018.00 505.00" xmlns="http://www.w3.org/2000/svg" xmlns:xlink="http://www.w3.org/1999/xlink">
<g id="graph0" class="graph" transform="scale(1 1) rotate(0) translate(4 501)">
<title>oneDegreeRelationshipsDiagram</title>
<polygon fill="#ffffff" stroke="transparent" points="-4,4 -4,-501 1014,-501 1014,4 -4,4"/>
<text text-anchor="middle" x="71.5" y="-7.2" font-family="Helvetica,sans-Serif" font-size="11.00">Generated by SchemaSpy</text>
<!-- ad_clientshare -->
<g id="node1" class="node">
<title>ad_clientshare</title>
<g id="a_node1"><a xlink:href="../../tables/ad_clientshare.html" xlink:title="ad_clientshare" target="_top">
<polygon fill="#ffffff" stroke="transparent" points="773,-163 773,-493 1002,-493 1002,-163 773,-163"/>
<polygon fill="#f5f5f5" stroke="transparent" points="775.5,-469 775.5,-491 1000.5,-491 1000.5,-469 775.5,-469"/>
<polygon fill="none" stroke="black" points="775.5,-469 775.5,-491 1000.5,-491 1000.5,-469 775.5,-469"/>
<text text-anchor="start" x="780.5" y="-478.2" font-family="Helvetica,sans-Serif" font-weight="bold" font-size="11.00">ad_clientshare</text>
<text text-anchor="start" x="965.5" y="-477.2" font-family="Helvetica,sans-Serif" font-size="11.00">[table]</text>
<polygon fill="none" stroke="black" points="775.5,-447 775.5,-469 917.5,-469 917.5,-447 775.5,-447"/>
<image xlink:href="../../images/primaryKeys.png" width="11px" height="12px" preserveAspectRatio="xMinYMin meet" x="780.5" y="-464"/>
<text text-anchor="start" x="795.5" y="-455.2" font-family="Helvetica,sans-Serif" font-size="11.00">ad_clientshare_id</text>
<polygon fill="none" stroke="black" points="917.5,-447 917.5,-469 1000.5,-469 1000.5,-447 917.5,-447"/>
<text text-anchor="start" x="920.5" y="-455.2" font-family="Helvetica,sans-Serif" font-size="11.00">numeric[10]</text>
<polygon fill="#ffffff" stroke="transparent" points="775.5,-425 775.5,-447 917.5,-447 917.5,-425 775.5,-425"/>
<polygon fill="none" stroke="black" points="775.5,-425 775.5,-447 917.5,-447 917.5,-425 775.5,-425"/>
<image xlink:href="../../images/foreignKeys.png" width="11px" height="12px" preserveAspectRatio="xMinYMin meet" x="780.5" y="-442"/>
<text text-anchor="start" x="795.5" y="-433.2" font-family="Helvetica,sans-Serif" font-size="11.00">ad_client_id</text>
<polygon fill="none" stroke="black" points="917.5,-425 917.5,-447 1000.5,-447 1000.5,-425 917.5,-425"/>
<text text-anchor="start" x="920.5" y="-433.2" font-family="Helvetica,sans-Serif" font-size="11.00">numeric[10]</text>
<polygon fill="none" stroke="black" points="775.5,-403 775.5,-425 917.5,-425 917.5,-403 775.5,-403"/>
<image xlink:href="../../images/foreignKeys.png" width="11px" height="12px" preserveAspectRatio="xMinYMin meet" x="780.5" y="-420"/>
<text text-anchor="start" x="795.5" y="-411.2" font-family="Helvetica,sans-Serif" font-size="11.00">ad_org_id</text>
<polygon fill="none" stroke="black" points="917.5,-403 917.5,-425 1000.5,-425 1000.5,-403 917.5,-403"/>
<text text-anchor="start" x="920.5" y="-411.2" font-family="Helvetica,sans-Serif" font-size="11.00">numeric[10]</text>
<polygon fill="none" stroke="black" points="775.5,-381 775.5,-403 917.5,-403 917.5,-381 775.5,-381"/>
<text text-anchor="start" x="795.5" y="-389.2" font-family="Helvetica,sans-Serif" font-size="11.00">isactive</text>
<polygon fill="none" stroke="black" points="917.5,-381 917.5,-403 1000.5,-403 1000.5,-381 917.5,-381"/>
<text text-anchor="start" x="920.5" y="-389.2" font-family="Helvetica,sans-Serif" font-size="11.00">bpchar[1]</text>
<polygon fill="none" stroke="black" points="775.5,-359 775.5,-381 917.5,-381 917.5,-359 775.5,-359"/>
<text text-anchor="start" x="795.5" y="-367.2" font-family="Helvetica,sans-Serif" font-size="11.00">created</text>
<polygon fill="none" stroke="black" points="917.5,-359 917.5,-381 1000.5,-381 1000.5,-359 917.5,-359"/>
<text text-anchor="start" x="920.5" y="-367.2" font-family="Helvetica,sans-Serif" font-size="11.00">timestamp[29,6]</text>
<polygon fill="none" stroke="black" points="775.5,-337 775.5,-359 917.5,-359 917.5,-337 775.5,-337"/>
<text text-anchor="start" x="795.5" y="-345.2" font-family="Helvetica,sans-Serif" font-size="11.00">createdby</text>
<polygon fill="none" stroke="black" points="917.5,-337 917.5,-359 1000.5,-359 1000.5,-337 917.5,-337"/>
<text text-anchor="start" x="920.5" y="-345.2" font-family="Helvetica,sans-Serif" font-size="11.00">numeric[10]</text>
<polygon fill="none" stroke="black" points="775.5,-315 775.5,-337 917.5,-337 917.5,-315 775.5,-315"/>
<text text-anchor="start" x="795.5" y="-323.2" font-family="Helvetica,sans-Serif" font-size="11.00">updated</text>
<polygon fill="none" stroke="black" points="917.5,-315 917.5,-337 1000.5,-337 1000.5,-315 917.5,-315"/>
<text text-anchor="start" x="920.5" y="-323.2" font-family="Helvetica,sans-Serif" font-size="11.00">timestamp[29,6]</text>
<polygon fill="none" stroke="black" points="775.5,-293 775.5,-315 917.5,-315 917.5,-293 775.5,-293"/>
<text text-anchor="start" x="795.5" y="-301.2" font-family="Helvetica,sans-Serif" font-size="11.00">updatedby</text>
<polygon fill="none" stroke="black" points="917.5,-293 917.5,-315 1000.5,-315 1000.5,-293 917.5,-293"/>
<text text-anchor="start" x="920.5" y="-301.2" font-family="Helvetica,sans-Serif" font-size="11.00">numeric[10]</text>
<polygon fill="none" stroke="black" points="775.5,-271 775.5,-293 917.5,-293 917.5,-271 775.5,-271"/>
<text text-anchor="start" x="795.5" y="-279.2" font-family="Helvetica,sans-Serif" font-size="11.00">name</text>
<polygon fill="none" stroke="black" points="917.5,-271 917.5,-293 1000.5,-293 1000.5,-271 917.5,-271"/>
<text text-anchor="start" x="920.5" y="-279.2" font-family="Helvetica,sans-Serif" font-size="11.00">varchar[60]</text>
<polygon fill="none" stroke="black" points="775.5,-249 775.5,-271 917.5,-271 917.5,-249 775.5,-249"/>
<text text-anchor="start" x="795.5" y="-257.2" font-family="Helvetica,sans-Serif" font-size="11.00">description</text>
<polygon fill="none" stroke="black" points="917.5,-249 917.5,-271 1000.5,-271 1000.5,-249 917.5,-249"/>
<text text-anchor="start" x="920.5" y="-257.2" font-family="Helvetica,sans-Serif" font-size="11.00">varchar[255]</text>
<polygon fill="#ffffff" stroke="transparent" points="775.5,-227 775.5,-249 917.5,-249 917.5,-227 775.5,-227"/>
<polygon fill="none" stroke="black" points="775.5,-227 775.5,-249 917.5,-249 917.5,-227 775.5,-227"/>
<image xlink:href="../../images/foreignKeys.png" width="11px" height="12px" preserveAspectRatio="xMinYMin meet" x="780.5" y="-244"/>
<text text-anchor="start" x="795.5" y="-235.2" font-family="Helvetica,sans-Serif" font-size="11.00">ad_table_id</text>
<polygon fill="none" stroke="black" points="917.5,-227 917.5,-249 1000.5,-249 1000.5,-227 917.5,-227"/>
<text text-anchor="start" x="920.5" y="-235.2" font-family="Helvetica,sans-Serif" font-size="11.00">numeric[10]</text>
<polygon fill="none" stroke="black" points="775.5,-205 775.5,-227 917.5,-227 917.5,-205 775.5,-205"/>
<text text-anchor="start" x="795.5" y="-213.2" font-family="Helvetica,sans-Serif" font-size="11.00">sharetype</text>
<polygon fill="none" stroke="black" points="917.5,-205 917.5,-227 1000.5,-227 1000.5,-205 917.5,-205"/>
<text text-anchor="start" x="920.5" y="-213.2" font-family="Helvetica,sans-Serif" font-size="11.00">bpchar[1]</text>
<polygon fill="#ffffff" stroke="transparent" points="775.5,-183 775.5,-205 917.5,-205 917.5,-183 775.5,-183"/>
<polygon fill="none" stroke="black" points="775.5,-183 775.5,-205 917.5,-205 917.5,-183 775.5,-183"/>
<text text-anchor="start" x="795.5" y="-191.2" font-family="Helvetica,sans-Serif" font-size="11.00">ad_clientshare_uu</text>
<polygon fill="none" stroke="black" points="917.5,-183 917.5,-205 1000.5,-205 1000.5,-183 917.5,-183"/>
<text text-anchor="start" x="920.5" y="-191.2" font-family="Helvetica,sans-Serif" font-size="11.00">varchar[36]</text>
<polygon fill="#ffffff" stroke="transparent" points="775.5,-165 775.5,-183 837.5,-183 837.5,-165 775.5,-165"/>
<polygon fill="none" stroke="black" points="775.5,-165 775.5,-183 837.5,-183 837.5,-165 775.5,-165"/>
<text text-anchor="start" x="778.5" y="-171.2" font-family="Helvetica,sans-Serif" font-size="11.00">&lt; 3</text>
<polygon fill="#ffffff" stroke="transparent" points="837.5,-165 837.5,-183 917.5,-183 917.5,-165 837.5,-165"/>
<polygon fill="none" stroke="black" points="837.5,-165 837.5,-183 917.5,-183 917.5,-165 837.5,-165"/>
<text text-anchor="start" x="881.5" y="-171.2" font-family="Helvetica,sans-Serif" font-size="11.00">0 rows</text>
<polygon fill="#ffffff" stroke="transparent" points="917.5,-165 917.5,-183 1000.5,-183 1000.5,-165 917.5,-165"/>
<polygon fill="none" stroke="black" points="917.5,-165 917.5,-183 1000.5,-183 1000.5,-165 917.5,-165"/>
<text text-anchor="start" x="981.5" y="-171.2" font-family="Helvetica,sans-Serif" font-size="11.00">0 &gt;</text>
<polygon fill="none" stroke="black" stroke-width="2" points="774,-164 774,-492 1001,-492 1001,-164 774,-164"/>
</a>
</g>
</g>
<!-- ad_client -->
<g id="node2" class="node">
<title>ad_client</title>
<g id="a_node2"><a xlink:href="../../tables/ad_client.html" xlink:title="ad_client" target="_top">
<polygon fill="#ffffff" stroke="transparent" points="8,-184 8,-396 236,-396 236,-184 8,-184"/>
<polygon fill="#f5f5f5" stroke="transparent" points="8,-374 8,-396 236,-396 236,-374 8,-374"/>
<polygon fill="none" stroke="black" points="8,-374 8,-396 236,-396 236,-374 8,-374"/>
<text text-anchor="start" x="13" y="-383.2" font-family="Helvetica,sans-Serif" font-weight="bold" font-size="11.00">ad_client</text>
<text text-anchor="start" x="201" y="-382.2" font-family="Helvetica,sans-Serif" font-size="11.00">[table]</text>
<polygon fill="none" stroke="black" points="8,-352 8,-374 236,-374 236,-352 8,-352"/>
<image xlink:href="../../images/primaryKeys.png" width="11px" height="12px" preserveAspectRatio="xMinYMin meet" x="13" y="-369"/>
<text text-anchor="start" x="28" y="-360.2" font-family="Helvetica,sans-Serif" font-size="11.00">ad_client_id</text>
<polygon fill="#ffffff" stroke="transparent" points="8,-330 8,-352 236,-352 236,-330 8,-330"/>
<polygon fill="none" stroke="black" points="8,-330 8,-352 236,-352 236,-330 8,-330"/>
<text text-anchor="start" x="28" y="-338.2" font-family="Helvetica,sans-Serif" font-size="11.00">value</text>
<polygon fill="none" stroke="black" points="8,-308 8,-330 236,-330 236,-308 8,-308"/>
<image xlink:href="../../images/foreignKeys.png" width="11px" height="12px" preserveAspectRatio="xMinYMin meet" x="13" y="-325"/>
<text text-anchor="start" x="28" y="-316.2" font-family="Helvetica,sans-Serif" font-size="11.00">ad_language</text>
<polygon fill="none" stroke="black" points="8,-286 8,-308 236,-308 236,-286 8,-286"/>
<image xlink:href="../../images/foreignKeys.png" width="11px" height="12px" preserveAspectRatio="xMinYMin meet" x="13" y="-303"/>
<text text-anchor="start" x="28" y="-294.2" font-family="Helvetica,sans-Serif" font-size="11.00">ad_replicationstrategy_id</text>
<polygon fill="#ffffff" stroke="transparent" points="8,-264 8,-286 236,-286 236,-264 8,-264"/>
<polygon fill="none" stroke="black" points="8,-264 8,-286 236,-286 236,-264 8,-264"/>
<text text-anchor="start" x="28" y="-272.2" font-family="Helvetica,sans-Serif" font-size="11.00">ad_client_uu</text>
<polygon fill="none" stroke="black" points="8,-242 8,-264 236,-264 236,-242 8,-242"/>
<image xlink:href="../../images/foreignKeys.png" width="11px" height="12px" preserveAspectRatio="xMinYMin meet" x="13" y="-259"/>
<text text-anchor="start" x="28" y="-250.2" font-family="Helvetica,sans-Serif" font-size="11.00">ad_passwordrule_id</text>
<polygon fill="#ffffff" stroke="transparent" points="8,-220 8,-242 236,-242 236,-220 8,-220"/>
<polygon fill="none" stroke="black" points="8,-220 8,-242 236,-242 236,-220 8,-220"/>
<text text-anchor="start" x="28" y="-228.2" font-family="Helvetica,sans-Serif" font-size="11.00">loginprefix</text>
<polygon fill="none" stroke="black" points="8,-202 8,-220 236,-220 236,-202 8,-202"/>
<text text-anchor="start" x="11" y="-208.2" font-family="Helvetica,sans-Serif" font-size="11.00">...</text>
<polygon fill="#ffffff" stroke="transparent" points="8,-184 8,-202 96,-202 96,-184 8,-184"/>
<polygon fill="none" stroke="black" points="8,-184 8,-202 96,-202 96,-184 8,-184"/>
<text text-anchor="start" x="11" y="-190.2" font-family="Helvetica,sans-Serif" font-size="11.00">&lt; 3</text>
<polygon fill="#ffffff" stroke="transparent" points="96,-184 96,-202 168,-202 168,-184 96,-184"/>
<polygon fill="none" stroke="black" points="96,-184 96,-202 168,-202 168,-184 96,-184"/>
<text text-anchor="start" x="132" y="-190.2" font-family="Helvetica,sans-Serif" font-size="11.00">2 rows</text>
<polygon fill="#ffffff" stroke="transparent" points="168,-184 168,-202 236,-202 236,-184 168,-184"/>
<polygon fill="none" stroke="black" points="168,-184 168,-202 236,-202 236,-184 168,-184"/>
<text text-anchor="start" x="205" y="-190.2" font-family="Helvetica,sans-Serif" font-size="11.00">145 &gt;</text>
</a>
</g>
</g>
<!-- ad_clientshare&#45;&gt;ad_client -->
<g id="edge1" class="edge">
<title>ad_clientshare:w&#45;&gt;ad_client:e</title>
<path fill="none" stroke="black" d="M759.8,-436.15C549.52,-440.51 464.59,-536.41 277,-429 247.23,-411.96 271.3,-363 237,-363"/>
<polygon fill="black" stroke="black" points="766.5,-436.08 774.54,-439.6 770.5,-436.04 774.5,-436 774.5,-436 774.5,-436 770.5,-436.04 774.46,-432.4 766.5,-436.08 766.5,-436.08"/>
<ellipse fill="none" stroke="black" cx="763.3" cy="-436.12" rx="3.2" ry="3.2"/>
</g>
<!-- ad_org -->
<g id="node3" class="node">
<title>ad_org</title>
<g id="a_node3"><a xlink:href="../../tables/ad_org.html" xlink:title="ad_org" target="_top">
<polygon fill="#ffffff" stroke="transparent" points="285,-228 285,-418 477,-418 477,-228 285,-228"/>
<polygon fill="#f5f5f5" stroke="transparent" points="285,-396 285,-418 477,-418 477,-396 285,-396"/>
<polygon fill="none" stroke="black" points="285,-396 285,-418 477,-418 477,-396 285,-396"/>
<text text-anchor="start" x="290" y="-405.2" font-family="Helvetica,sans-Serif" font-weight="bold" font-size="11.00">ad_org</text>
<text text-anchor="start" x="442" y="-404.2" font-family="Helvetica,sans-Serif" font-size="11.00">[table]</text>
<polygon fill="none" stroke="black" points="285,-374 285,-396 477,-396 477,-374 285,-374"/>
<image xlink:href="../../images/primaryKeys.png" width="11px" height="12px" preserveAspectRatio="xMinYMin meet" x="290" y="-391"/>
<text text-anchor="start" x="305" y="-382.2" font-family="Helvetica,sans-Serif" font-size="11.00">ad_org_id</text>
<polygon fill="#ffffff" stroke="transparent" points="285,-352 285,-374 477,-374 477,-352 285,-352"/>
<polygon fill="none" stroke="black" points="285,-352 285,-374 477,-374 477,-352 285,-352"/>
<image xlink:href="../../images/foreignKeys.png" width="11px" height="12px" preserveAspectRatio="xMinYMin meet" x="290" y="-369"/>
<text text-anchor="start" x="305" y="-360.2" font-family="Helvetica,sans-Serif" font-size="11.00">ad_client_id</text>
<polygon fill="#ffffff" stroke="transparent" points="285,-330 285,-352 477,-352 477,-330 285,-330"/>
<polygon fill="none" stroke="black" points="285,-330 285,-352 477,-352 477,-330 285,-330"/>
<text text-anchor="start" x="305" y="-338.2" font-family="Helvetica,sans-Serif" font-size="11.00">value</text>
<polygon fill="none" stroke="black" points="285,-308 285,-330 477,-330 477,-308 285,-308"/>
<image xlink:href="../../images/foreignKeys.png" width="11px" height="12px" preserveAspectRatio="xMinYMin meet" x="290" y="-325"/>
<text text-anchor="start" x="305" y="-316.2" font-family="Helvetica,sans-Serif" font-size="11.00">ad_replicationstrategy_id</text>
<polygon fill="#ffffff" stroke="transparent" points="285,-286 285,-308 477,-308 477,-286 285,-286"/>
<polygon fill="none" stroke="black" points="285,-286 285,-308 477,-308 477,-286 285,-286"/>
<text text-anchor="start" x="305" y="-294.2" font-family="Helvetica,sans-Serif" font-size="11.00">ad_org_uu</text>
<polygon fill="none" stroke="black" points="285,-264 285,-286 477,-286 477,-264 285,-264"/>
<image xlink:href="../../images/foreignKeys.png" width="11px" height="12px" preserveAspectRatio="xMinYMin meet" x="290" y="-281"/>
<text text-anchor="start" x="305" y="-272.2" font-family="Helvetica,sans-Serif" font-size="11.00">cof_c_snrange_id</text>
<polygon fill="none" stroke="black" points="285,-246 285,-264 477,-264 477,-246 285,-246"/>
<text text-anchor="start" x="288" y="-252.2" font-family="Helvetica,sans-Serif" font-size="11.00">...</text>
<polygon fill="#ffffff" stroke="transparent" points="285,-228 285,-246 355,-246 355,-228 285,-228"/>
<polygon fill="none" stroke="black" points="285,-228 285,-246 355,-246 355,-228 285,-228"/>
<text text-anchor="start" x="288" y="-234.2" font-family="Helvetica,sans-Serif" font-size="11.00">&lt; 3</text>
<polygon fill="#ffffff" stroke="transparent" points="355,-228 355,-246 418,-246 418,-228 355,-228"/>
<polygon fill="none" stroke="black" points="355,-228 355,-246 418,-246 418,-228 355,-228"/>
<text text-anchor="start" x="382" y="-234.2" font-family="Helvetica,sans-Serif" font-size="11.00">3 rows</text>
<polygon fill="#ffffff" stroke="transparent" points="418,-228 418,-246 477,-246 477,-228 418,-228"/>
<polygon fill="none" stroke="black" points="418,-228 418,-246 477,-246 477,-228 418,-228"/>
<text text-anchor="start" x="446" y="-234.2" font-family="Helvetica,sans-Serif" font-size="11.00">224 &gt;</text>
</a>
</g>
</g>
<!-- ad_clientshare&#45;&gt;ad_org -->
<g id="edge2" class="edge">
<title>ad_clientshare:w&#45;&gt;ad_org:e</title>
<path fill="none" stroke="black" d="M759.8,-413.88C639.53,-411.83 605.36,-385 478,-385"/>
<polygon fill="black" stroke="black" points="766.5,-413.93 774.47,-417.6 770.5,-413.97 774.5,-414 774.5,-414 774.5,-414 770.5,-413.97 774.53,-410.4 766.5,-413.93 766.5,-413.93"/>
<ellipse fill="none" stroke="black" cx="763.3" cy="-413.91" rx="3.2" ry="3.2"/>
</g>
<!-- ad_table -->
<g id="node4" class="node">
<title>ad_table</title>
<g id="a_node4"><a xlink:href="../../tables/ad_table.html" xlink:title="ad_table" target="_top">
<polygon fill="#ffffff" stroke="transparent" points="526,-37 526,-271 724,-271 724,-37 526,-37"/>
<polygon fill="#f5f5f5" stroke="transparent" points="526,-249 526,-271 724,-271 724,-249 526,-249"/>
<polygon fill="none" stroke="black" points="526,-249 526,-271 724,-271 724,-249 526,-249"/>
<text text-anchor="start" x="531" y="-258.2" font-family="Helvetica,sans-Serif" font-weight="bold" font-size="11.00">ad_table</text>
<text text-anchor="start" x="689" y="-257.2" font-family="Helvetica,sans-Serif" font-size="11.00">[table]</text>
<polygon fill="none" stroke="black" points="526,-227 526,-249 724,-249 724,-227 526,-227"/>
<image xlink:href="../../images/primaryKeys.png" width="11px" height="12px" preserveAspectRatio="xMinYMin meet" x="531" y="-244"/>
<text text-anchor="start" x="546" y="-235.2" font-family="Helvetica,sans-Serif" font-size="11.00">ad_table_id</text>
<polygon fill="none" stroke="black" points="526,-205 526,-227 724,-227 724,-205 526,-205"/>
<image xlink:href="../../images/foreignKeys.png" width="11px" height="12px" preserveAspectRatio="xMinYMin meet" x="531" y="-222"/>
<text text-anchor="start" x="546" y="-213.2" font-family="Helvetica,sans-Serif" font-size="11.00">ad_client_id</text>
<polygon fill="none" stroke="black" points="526,-183 526,-205 724,-205 724,-183 526,-183"/>
<image xlink:href="../../images/foreignKeys.png" width="11px" height="12px" preserveAspectRatio="xMinYMin meet" x="531" y="-200"/>
<text text-anchor="start" x="546" y="-191.2" font-family="Helvetica,sans-Serif" font-size="11.00">ad_org_id</text>
<polygon fill="none" stroke="black" points="526,-161 526,-183 724,-183 724,-161 526,-161"/>
<image xlink:href="../../images/foreignKeys.png" width="11px" height="12px" preserveAspectRatio="xMinYMin meet" x="531" y="-178"/>
<text text-anchor="start" x="546" y="-169.2" font-family="Helvetica,sans-Serif" font-size="11.00">entitytype</text>
<polygon fill="none" stroke="black" points="526,-139 526,-161 724,-161 724,-139 526,-139"/>
<image xlink:href="../../images/foreignKeys.png" width="11px" height="12px" preserveAspectRatio="xMinYMin meet" x="531" y="-156"/>
<text text-anchor="start" x="546" y="-147.2" font-family="Helvetica,sans-Serif" font-size="11.00">ad_window_id</text>
<polygon fill="none" stroke="black" points="526,-117 526,-139 724,-139 724,-117 526,-117"/>
<image xlink:href="../../images/foreignKeys.png" width="11px" height="12px" preserveAspectRatio="xMinYMin meet" x="531" y="-134"/>
<text text-anchor="start" x="546" y="-125.2" font-family="Helvetica,sans-Serif" font-size="11.00">ad_val_rule_id</text>
<polygon fill="none" stroke="black" points="526,-95 526,-117 724,-117 724,-95 526,-95"/>
<image xlink:href="../../images/foreignKeys.png" width="11px" height="12px" preserveAspectRatio="xMinYMin meet" x="531" y="-112"/>
<text text-anchor="start" x="546" y="-103.2" font-family="Helvetica,sans-Serif" font-size="11.00">po_window_id</text>
<polygon fill="#ffffff" stroke="transparent" points="526,-73 526,-95 724,-95 724,-73 526,-73"/>
<polygon fill="none" stroke="black" points="526,-73 526,-95 724,-95 724,-73 526,-73"/>
<text text-anchor="start" x="546" y="-81.2" font-family="Helvetica,sans-Serif" font-size="11.00">ad_table_uu</text>
<polygon fill="none" stroke="black" points="526,-55 526,-73 724,-73 724,-55 526,-55"/>
<text text-anchor="start" x="529" y="-61.2" font-family="Helvetica,sans-Serif" font-size="11.00">...</text>
<polygon fill="#ffffff" stroke="transparent" points="526,-37 526,-55 592,-55 592,-37 526,-37"/>
<polygon fill="none" stroke="black" points="526,-37 526,-55 592,-55 592,-37 526,-37"/>
<text text-anchor="start" x="529" y="-43.2" font-family="Helvetica,sans-Serif" font-size="11.00">&lt; 6</text>
<polygon fill="#ffffff" stroke="transparent" points="592,-37 592,-55 674,-55 674,-37 592,-37"/>
<polygon fill="none" stroke="black" points="592,-37 592,-55 674,-55 674,-37 592,-37"/>
<text text-anchor="start" x="617" y="-43.2" font-family="Helvetica,sans-Serif" font-size="11.00">1.363 rows</text>
<polygon fill="#ffffff" stroke="transparent" points="674,-37 674,-55 724,-55 724,-37 674,-37"/>
<polygon fill="none" stroke="black" points="674,-37 674,-55 724,-55 724,-37 674,-37"/>
<text text-anchor="start" x="699" y="-43.2" font-family="Helvetica,sans-Serif" font-size="11.00">77 &gt;</text>
</a>
</g>
</g>
<!-- ad_clientshare&#45;&gt;ad_table -->
<g id="edge3" class="edge">
<title>ad_clientshare:w&#45;&gt;ad_table:e</title>
<path fill="none" stroke="black" d="M759.84,-238C748.41,-238 741.16,-238 725,-238"/>
<polygon fill="black" stroke="black" points="766.5,-238 774.5,-241.6 770.5,-238 774.5,-238 774.5,-238 774.5,-238 770.5,-238 774.5,-234.4 766.5,-238 766.5,-238"/>
<ellipse fill="none" stroke="black" cx="763.3" cy="-238" rx="3.2" ry="3.2"/>
</g>
<!-- ad_org&#45;&gt;ad_client -->
<g id="edge4" class="edge">
<title>ad_org:w&#45;&gt;ad_client:e</title>
<path fill="none" stroke="black" d="M269.4,-363C258.93,-363 252.01,-363 237,-363"/>
<polygon fill="black" stroke="black" points="276,-363 284,-366.6 280,-363 284,-363 284,-363 284,-363 280,-363 284,-359.4 276,-363 276,-363"/>
<ellipse fill="none" stroke="black" cx="272.8" cy="-363" rx="3.2" ry="3.2"/>
</g>
<!-- ad_table&#45;&gt;ad_client -->
<g id="edge5" class="edge">
<title>ad_table:w&#45;&gt;ad_client:e</title>
<path fill="none" stroke="black" d="M510.5,-215.62C410.18,-210.34 360.57,-152.98 277,-217 223.59,-257.92 304.28,-363 237,-363"/>
<polygon fill="black" stroke="black" points="517,-215.79 524.91,-219.6 521,-215.89 525,-216 525,-216 525,-216 521,-215.89 525.09,-212.4 517,-215.79 517,-215.79"/>
<ellipse fill="none" stroke="black" cx="513.8" cy="-215.71" rx="3.2" ry="3.2"/>
</g>
<!-- ad_table&#45;&gt;ad_org -->
<g id="edge6" class="edge">
<title>ad_table:w&#45;&gt;ad_org:e</title>
<path fill="none" stroke="black" d="M510.66,-196.28C453.16,-217.83 559.79,-385 478,-385"/>
<polygon fill="black" stroke="black" points="517.1,-195.26 525.56,-197.56 521.05,-194.63 525,-194 525,-194 525,-194 521.05,-194.63 524.44,-190.44 517.1,-195.26 517.1,-195.26"/>
<ellipse fill="none" stroke="black" cx="513.94" cy="-195.76" rx="3.2" ry="3.2"/>
</g>
</g>
</svg>
