<?xml version="1.0" encoding="UTF-8" standalone="no"?>
<!DOCTYPE svg PUBLIC "-//W3C//DTD SVG 1.1//EN"
 "http://www.w3.org/Graphics/SVG/1.1/DTD/svg11.dtd">
<!-- Generated by graphviz version 2.43.0 (0)
 -->
<!-- Title: oneDegreeRelationshipsDiagram Pages: 1 -->
<svg width="446pt" height="669pt"
 viewBox="0.00 0.00 446.00 669.00" xmlns="http://www.w3.org/2000/svg" xmlns:xlink="http://www.w3.org/1999/xlink">
<g id="graph0" class="graph" transform="scale(1 1) rotate(0) translate(4 665)">
<title>oneDegreeRelationshipsDiagram</title>
<polygon fill="#ffffff" stroke="transparent" points="-4,4 -4,-665 442,-665 442,4 -4,4"/>
<text text-anchor="middle" x="71.5" y="-7.2" font-family="Helvetica,sans-Serif" font-size="11.00">Generated by SchemaSpy</text>
<!-- ad_element_trl -->
<g id="node1" class="node">
<title>ad_element_trl</title>
<g id="a_node1"><a xlink:href="../../tables/ad_element_trl.html" xlink:title="ad_element_trl" target="_top">
<polygon fill="#ffffff" stroke="transparent" points="200,-37 200,-565 430,-565 430,-37 200,-37"/>
<polygon fill="#f5f5f5" stroke="transparent" points="202,-541 202,-563 428,-563 428,-541 202,-541"/>
<polygon fill="none" stroke="black" points="202,-541 202,-563 428,-563 428,-541 202,-541"/>
<text text-anchor="start" x="207" y="-550.2" font-family="Helvetica,sans-Serif" font-weight="bold" font-size="11.00">ad_element_trl</text>
<text text-anchor="start" x="393" y="-549.2" font-family="Helvetica,sans-Serif" font-size="11.00">[table]</text>
<polygon fill="none" stroke="black" points="202,-519 202,-541 345,-541 345,-519 202,-519"/>
<image xlink:href="../../images/primaryKeys.png" width="11px" height="12px" preserveAspectRatio="xMinYMin meet" x="207" y="-536"/>
<text text-anchor="start" x="222" y="-527.2" font-family="Helvetica,sans-Serif" font-size="11.00">ad_element_id</text>
<polygon fill="none" stroke="black" points="345,-519 345,-541 428,-541 428,-519 345,-519"/>
<text text-anchor="start" x="348" y="-527.2" font-family="Helvetica,sans-Serif" font-size="11.00">numeric[10]</text>
<polygon fill="none" stroke="black" points="202,-497 202,-519 345,-519 345,-497 202,-497"/>
<image xlink:href="../../images/primaryKeys.png" width="11px" height="12px" preserveAspectRatio="xMinYMin meet" x="207" y="-514"/>
<text text-anchor="start" x="222" y="-505.2" font-family="Helvetica,sans-Serif" font-size="11.00">ad_language</text>
<polygon fill="none" stroke="black" points="345,-497 345,-519 428,-519 428,-497 345,-497"/>
<text text-anchor="start" x="348" y="-505.2" font-family="Helvetica,sans-Serif" font-size="11.00">varchar[6]</text>
<polygon fill="none" stroke="black" points="202,-475 202,-497 345,-497 345,-475 202,-475"/>
<text text-anchor="start" x="222" y="-483.2" font-family="Helvetica,sans-Serif" font-size="11.00">ad_client_id</text>
<polygon fill="none" stroke="black" points="345,-475 345,-497 428,-497 428,-475 345,-475"/>
<text text-anchor="start" x="348" y="-483.2" font-family="Helvetica,sans-Serif" font-size="11.00">numeric[10]</text>
<polygon fill="none" stroke="black" points="202,-453 202,-475 345,-475 345,-453 202,-453"/>
<text text-anchor="start" x="222" y="-461.2" font-family="Helvetica,sans-Serif" font-size="11.00">ad_org_id</text>
<polygon fill="none" stroke="black" points="345,-453 345,-475 428,-475 428,-453 345,-453"/>
<text text-anchor="start" x="348" y="-461.2" font-family="Helvetica,sans-Serif" font-size="11.00">numeric[10]</text>
<polygon fill="none" stroke="black" points="202,-431 202,-453 345,-453 345,-431 202,-431"/>
<text text-anchor="start" x="222" y="-439.2" font-family="Helvetica,sans-Serif" font-size="11.00">isactive</text>
<polygon fill="none" stroke="black" points="345,-431 345,-453 428,-453 428,-431 345,-431"/>
<text text-anchor="start" x="348" y="-439.2" font-family="Helvetica,sans-Serif" font-size="11.00">bpchar[1]</text>
<polygon fill="none" stroke="black" points="202,-409 202,-431 345,-431 345,-409 202,-409"/>
<text text-anchor="start" x="222" y="-417.2" font-family="Helvetica,sans-Serif" font-size="11.00">created</text>
<polygon fill="none" stroke="black" points="345,-409 345,-431 428,-431 428,-409 345,-409"/>
<text text-anchor="start" x="348" y="-417.2" font-family="Helvetica,sans-Serif" font-size="11.00">timestamp[29,6]</text>
<polygon fill="none" stroke="black" points="202,-387 202,-409 345,-409 345,-387 202,-387"/>
<text text-anchor="start" x="222" y="-395.2" font-family="Helvetica,sans-Serif" font-size="11.00">createdby</text>
<polygon fill="none" stroke="black" points="345,-387 345,-409 428,-409 428,-387 345,-387"/>
<text text-anchor="start" x="348" y="-395.2" font-family="Helvetica,sans-Serif" font-size="11.00">numeric[10]</text>
<polygon fill="none" stroke="black" points="202,-365 202,-387 345,-387 345,-365 202,-365"/>
<text text-anchor="start" x="222" y="-373.2" font-family="Helvetica,sans-Serif" font-size="11.00">updated</text>
<polygon fill="none" stroke="black" points="345,-365 345,-387 428,-387 428,-365 345,-365"/>
<text text-anchor="start" x="348" y="-373.2" font-family="Helvetica,sans-Serif" font-size="11.00">timestamp[29,6]</text>
<polygon fill="none" stroke="black" points="202,-343 202,-365 345,-365 345,-343 202,-343"/>
<text text-anchor="start" x="222" y="-351.2" font-family="Helvetica,sans-Serif" font-size="11.00">updatedby</text>
<polygon fill="none" stroke="black" points="345,-343 345,-365 428,-365 428,-343 345,-343"/>
<text text-anchor="start" x="348" y="-351.2" font-family="Helvetica,sans-Serif" font-size="11.00">numeric[10]</text>
<polygon fill="none" stroke="black" points="202,-321 202,-343 345,-343 345,-321 202,-321"/>
<text text-anchor="start" x="222" y="-329.2" font-family="Helvetica,sans-Serif" font-size="11.00">name</text>
<polygon fill="none" stroke="black" points="345,-321 345,-343 428,-343 428,-321 345,-321"/>
<text text-anchor="start" x="348" y="-329.2" font-family="Helvetica,sans-Serif" font-size="11.00">varchar[60]</text>
<polygon fill="none" stroke="black" points="202,-299 202,-321 345,-321 345,-299 202,-299"/>
<text text-anchor="start" x="222" y="-307.2" font-family="Helvetica,sans-Serif" font-size="11.00">printname</text>
<polygon fill="none" stroke="black" points="345,-299 345,-321 428,-321 428,-299 345,-299"/>
<text text-anchor="start" x="348" y="-307.2" font-family="Helvetica,sans-Serif" font-size="11.00">varchar[60]</text>
<polygon fill="none" stroke="black" points="202,-277 202,-299 345,-299 345,-277 202,-277"/>
<text text-anchor="start" x="222" y="-285.2" font-family="Helvetica,sans-Serif" font-size="11.00">description</text>
<polygon fill="none" stroke="black" points="345,-277 345,-299 428,-299 428,-277 345,-277"/>
<text text-anchor="start" x="348" y="-285.2" font-family="Helvetica,sans-Serif" font-size="11.00">varchar[255]</text>
<polygon fill="none" stroke="black" points="202,-255 202,-277 345,-277 345,-255 202,-255"/>
<text text-anchor="start" x="222" y="-263.2" font-family="Helvetica,sans-Serif" font-size="11.00">help</text>
<polygon fill="none" stroke="black" points="345,-255 345,-277 428,-277 428,-255 345,-255"/>
<text text-anchor="start" x="348" y="-263.2" font-family="Helvetica,sans-Serif" font-size="11.00">varchar[2000]</text>
<polygon fill="none" stroke="black" points="202,-233 202,-255 345,-255 345,-233 202,-233"/>
<text text-anchor="start" x="222" y="-241.2" font-family="Helvetica,sans-Serif" font-size="11.00">po_name</text>
<polygon fill="none" stroke="black" points="345,-233 345,-255 428,-255 428,-233 345,-233"/>
<text text-anchor="start" x="348" y="-241.2" font-family="Helvetica,sans-Serif" font-size="11.00">varchar[60]</text>
<polygon fill="none" stroke="black" points="202,-211 202,-233 345,-233 345,-211 202,-211"/>
<text text-anchor="start" x="222" y="-219.2" font-family="Helvetica,sans-Serif" font-size="11.00">po_printname</text>
<polygon fill="none" stroke="black" points="345,-211 345,-233 428,-233 428,-211 345,-211"/>
<text text-anchor="start" x="348" y="-219.2" font-family="Helvetica,sans-Serif" font-size="11.00">varchar[60]</text>
<polygon fill="none" stroke="black" points="202,-189 202,-211 345,-211 345,-189 202,-189"/>
<text text-anchor="start" x="222" y="-197.2" font-family="Helvetica,sans-Serif" font-size="11.00">po_description</text>
<polygon fill="none" stroke="black" points="345,-189 345,-211 428,-211 428,-189 345,-189"/>
<text text-anchor="start" x="348" y="-197.2" font-family="Helvetica,sans-Serif" font-size="11.00">varchar[255]</text>
<polygon fill="none" stroke="black" points="202,-167 202,-189 345,-189 345,-167 202,-167"/>
<text text-anchor="start" x="222" y="-175.2" font-family="Helvetica,sans-Serif" font-size="11.00">po_help</text>
<polygon fill="none" stroke="black" points="345,-167 345,-189 428,-189 428,-167 345,-167"/>
<text text-anchor="start" x="348" y="-175.2" font-family="Helvetica,sans-Serif" font-size="11.00">varchar[2000]</text>
<polygon fill="none" stroke="black" points="202,-145 202,-167 345,-167 345,-145 202,-145"/>
<text text-anchor="start" x="222" y="-153.2" font-family="Helvetica,sans-Serif" font-size="11.00">istranslated</text>
<polygon fill="none" stroke="black" points="345,-145 345,-167 428,-167 428,-145 345,-145"/>
<text text-anchor="start" x="348" y="-153.2" font-family="Helvetica,sans-Serif" font-size="11.00">bpchar[1]</text>
<polygon fill="#ffffff" stroke="transparent" points="202,-123 202,-145 345,-145 345,-123 202,-123"/>
<polygon fill="none" stroke="black" points="202,-123 202,-145 345,-145 345,-123 202,-123"/>
<text text-anchor="start" x="222" y="-131.2" font-family="Helvetica,sans-Serif" font-size="11.00">ad_element_trl_uu</text>
<polygon fill="none" stroke="black" points="345,-123 345,-145 428,-145 428,-123 345,-123"/>
<text text-anchor="start" x="348" y="-131.2" font-family="Helvetica,sans-Serif" font-size="11.00">varchar[36]</text>
<polygon fill="none" stroke="black" points="202,-101 202,-123 345,-123 345,-101 202,-101"/>
<text text-anchor="start" x="222" y="-109.2" font-family="Helvetica,sans-Serif" font-size="11.00">cof_pretranslated</text>
<polygon fill="none" stroke="black" points="345,-101 345,-123 428,-123 428,-101 345,-101"/>
<text text-anchor="start" x="348" y="-109.2" font-family="Helvetica,sans-Serif" font-size="11.00">bpchar[1]</text>
<polygon fill="none" stroke="black" points="202,-79 202,-101 345,-101 345,-79 202,-79"/>
<text text-anchor="start" x="222" y="-87.2" font-family="Helvetica,sans-Serif" font-size="11.00">cof_checked</text>
<polygon fill="none" stroke="black" points="345,-79 345,-101 428,-101 428,-79 345,-79"/>
<text text-anchor="start" x="348" y="-87.2" font-family="Helvetica,sans-Serif" font-size="11.00">bpchar[1]</text>
<polygon fill="none" stroke="black" points="202,-57 202,-79 345,-79 345,-57 202,-57"/>
<text text-anchor="start" x="222" y="-65.2" font-family="Helvetica,sans-Serif" font-size="11.00">placeholder</text>
<polygon fill="none" stroke="black" points="345,-57 345,-79 428,-79 428,-57 345,-57"/>
<text text-anchor="start" x="348" y="-65.2" font-family="Helvetica,sans-Serif" font-size="11.00">varchar[255]</text>
<polygon fill="#ffffff" stroke="transparent" points="202,-39 202,-57 251,-57 251,-39 202,-39"/>
<polygon fill="none" stroke="black" points="202,-39 202,-57 251,-57 251,-39 202,-39"/>
<text text-anchor="start" x="205" y="-45.2" font-family="Helvetica,sans-Serif" font-size="11.00">&lt; 2</text>
<polygon fill="#ffffff" stroke="transparent" points="251,-39 251,-57 345,-57 345,-39 251,-39"/>
<polygon fill="none" stroke="black" points="251,-39 251,-57 345,-57 345,-39 251,-39"/>
<text text-anchor="start" x="282" y="-45.2" font-family="Helvetica,sans-Serif" font-size="11.00">20.006 rows</text>
<polygon fill="#ffffff" stroke="transparent" points="345,-39 345,-57 428,-57 428,-39 345,-39"/>
<polygon fill="none" stroke="black" points="345,-39 345,-57 428,-57 428,-39 345,-39"/>
<text text-anchor="start" x="409" y="-45.2" font-family="Helvetica,sans-Serif" font-size="11.00">0 &gt;</text>
<polygon fill="none" stroke="black" stroke-width="2" points="201,-38 201,-564 429,-564 429,-38 201,-38"/>
</a>
</g>
</g>
<!-- ad_element -->
<g id="node2" class="node">
<title>ad_element</title>
<g id="a_node2"><a xlink:href="../../tables/ad_element.html" xlink:title="ad_element" target="_top">
<polygon fill="#ffffff" stroke="transparent" points="18.5,-467 18.5,-657 140.5,-657 140.5,-467 18.5,-467"/>
<polygon fill="#f5f5f5" stroke="transparent" points="18.5,-635 18.5,-657 140.5,-657 140.5,-635 18.5,-635"/>
<polygon fill="none" stroke="black" points="18.5,-635 18.5,-657 140.5,-657 140.5,-635 18.5,-635"/>
<text text-anchor="start" x="23.5" y="-644.2" font-family="Helvetica,sans-Serif" font-weight="bold" font-size="11.00">ad_element</text>
<text text-anchor="start" x="105.5" y="-643.2" font-family="Helvetica,sans-Serif" font-size="11.00">[table]</text>
<polygon fill="none" stroke="black" points="18.5,-613 18.5,-635 140.5,-635 140.5,-613 18.5,-613"/>
<image xlink:href="../../images/primaryKeys.png" width="11px" height="12px" preserveAspectRatio="xMinYMin meet" x="23.5" y="-630"/>
<text text-anchor="start" x="38.5" y="-621.2" font-family="Helvetica,sans-Serif" font-size="11.00">ad_element_id</text>
<polygon fill="#ffffff" stroke="transparent" points="18.5,-591 18.5,-613 140.5,-613 140.5,-591 18.5,-591"/>
<polygon fill="none" stroke="black" points="18.5,-591 18.5,-613 140.5,-613 140.5,-591 18.5,-591"/>
<text text-anchor="start" x="38.5" y="-599.2" font-family="Helvetica,sans-Serif" font-size="11.00">ad_client_id</text>
<polygon fill="#ffffff" stroke="transparent" points="18.5,-569 18.5,-591 140.5,-591 140.5,-569 18.5,-569"/>
<polygon fill="none" stroke="black" points="18.5,-569 18.5,-591 140.5,-591 140.5,-569 18.5,-569"/>
<text text-anchor="start" x="38.5" y="-577.2" font-family="Helvetica,sans-Serif" font-size="11.00">ad_org_id</text>
<polygon fill="none" stroke="black" points="18.5,-547 18.5,-569 140.5,-569 140.5,-547 18.5,-547"/>
<image xlink:href="../../images/foreignKeys.png" width="11px" height="12px" preserveAspectRatio="xMinYMin meet" x="23.5" y="-564"/>
<text text-anchor="start" x="38.5" y="-555.2" font-family="Helvetica,sans-Serif" font-size="11.00">entitytype</text>
<polygon fill="#ffffff" stroke="transparent" points="18.5,-525 18.5,-547 140.5,-547 140.5,-525 18.5,-525"/>
<polygon fill="none" stroke="black" points="18.5,-525 18.5,-547 140.5,-547 140.5,-525 18.5,-525"/>
<text text-anchor="start" x="38.5" y="-533.2" font-family="Helvetica,sans-Serif" font-size="11.00">name</text>
<polygon fill="#ffffff" stroke="transparent" points="18.5,-503 18.5,-525 140.5,-525 140.5,-503 18.5,-503"/>
<polygon fill="none" stroke="black" points="18.5,-503 18.5,-525 140.5,-525 140.5,-503 18.5,-503"/>
<text text-anchor="start" x="38.5" y="-511.2" font-family="Helvetica,sans-Serif" font-size="11.00">ad_element_uu</text>
<polygon fill="none" stroke="black" points="18.5,-485 18.5,-503 140.5,-503 140.5,-485 18.5,-485"/>
<text text-anchor="start" x="21.5" y="-491.2" font-family="Helvetica,sans-Serif" font-size="11.00">...</text>
<polygon fill="#ffffff" stroke="transparent" points="18.5,-467 18.5,-485 49.5,-485 49.5,-467 18.5,-467"/>
<polygon fill="none" stroke="black" points="18.5,-467 18.5,-485 49.5,-485 49.5,-467 18.5,-467"/>
<text text-anchor="start" x="21.5" y="-473.2" font-family="Helvetica,sans-Serif" font-size="11.00">&lt; 1</text>
<polygon fill="#ffffff" stroke="transparent" points="49.5,-467 49.5,-485 113.5,-485 113.5,-467 49.5,-467"/>
<polygon fill="none" stroke="black" points="49.5,-467 49.5,-485 113.5,-485 113.5,-467 49.5,-467"/>
<text text-anchor="start" x="56.5" y="-473.2" font-family="Helvetica,sans-Serif" font-size="11.00">9.489 rows</text>
<polygon fill="#ffffff" stroke="transparent" points="113.5,-467 113.5,-485 140.5,-485 140.5,-467 113.5,-467"/>
<polygon fill="none" stroke="black" points="113.5,-467 113.5,-485 140.5,-485 140.5,-467 113.5,-467"/>
<text text-anchor="start" x="121.5" y="-473.2" font-family="Helvetica,sans-Serif" font-size="11.00">6 &gt;</text>
</a>
</g>
</g>
<!-- ad_element_trl&#45;&gt;ad_element -->
<g id="edge1" class="edge">
<title>ad_element_trl:w&#45;&gt;ad_element:e</title>
<path fill="none" stroke="black" d="M186.99,-533.57C159.57,-550.74 185.15,-624 141.5,-624"/>
<polygon fill="black" stroke="black" points="193.25,-531.98 201.89,-533.49 197.12,-530.99 201,-530 201,-530 201,-530 197.12,-530.99 200.11,-526.51 193.25,-531.98 193.25,-531.98"/>
<ellipse fill="none" stroke="black" cx="190.15" cy="-532.77" rx="3.2" ry="3.2"/>
</g>
<!-- ad_language -->
<g id="node3" class="node">
<title>ad_language</title>
<g id="a_node3"><a xlink:href="../../tables/ad_language.html" xlink:title="ad_language" target="_top">
<polygon fill="#ffffff" stroke="transparent" points="8,-256 8,-446 151,-446 151,-256 8,-256"/>
<polygon fill="#f5f5f5" stroke="transparent" points="8.5,-424 8.5,-446 151.5,-446 151.5,-424 8.5,-424"/>
<polygon fill="none" stroke="black" points="8.5,-424 8.5,-446 151.5,-446 151.5,-424 8.5,-424"/>
<text text-anchor="start" x="13.5" y="-433.2" font-family="Helvetica,sans-Serif" font-weight="bold" font-size="11.00">ad_language</text>
<text text-anchor="start" x="116.5" y="-432.2" font-family="Helvetica,sans-Serif" font-size="11.00">[table]</text>
<polygon fill="none" stroke="black" points="8.5,-402 8.5,-424 151.5,-424 151.5,-402 8.5,-402"/>
<image xlink:href="../../images/primaryKeys.png" width="11px" height="12px" preserveAspectRatio="xMinYMin meet" x="13.5" y="-419"/>
<text text-anchor="start" x="28.5" y="-410.2" font-family="Helvetica,sans-Serif" font-size="11.00">ad_language</text>
<polygon fill="none" stroke="black" points="8.5,-380 8.5,-402 151.5,-402 151.5,-380 8.5,-380"/>
<image xlink:href="../../images/foreignKeys.png" width="11px" height="12px" preserveAspectRatio="xMinYMin meet" x="13.5" y="-397"/>
<text text-anchor="start" x="28.5" y="-388.2" font-family="Helvetica,sans-Serif" font-size="11.00">ad_client_id</text>
<polygon fill="none" stroke="black" points="8.5,-358 8.5,-380 151.5,-380 151.5,-358 8.5,-358"/>
<image xlink:href="../../images/foreignKeys.png" width="11px" height="12px" preserveAspectRatio="xMinYMin meet" x="13.5" y="-375"/>
<text text-anchor="start" x="28.5" y="-366.2" font-family="Helvetica,sans-Serif" font-size="11.00">ad_org_id</text>
<polygon fill="#ffffff" stroke="transparent" points="8.5,-336 8.5,-358 151.5,-358 151.5,-336 8.5,-336"/>
<polygon fill="none" stroke="black" points="8.5,-336 8.5,-358 151.5,-358 151.5,-336 8.5,-336"/>
<text text-anchor="start" x="28.5" y="-344.2" font-family="Helvetica,sans-Serif" font-size="11.00">ad_language_id</text>
<polygon fill="#ffffff" stroke="transparent" points="8.5,-314 8.5,-336 151.5,-336 151.5,-314 8.5,-314"/>
<polygon fill="none" stroke="black" points="8.5,-314 8.5,-336 151.5,-336 151.5,-314 8.5,-314"/>
<text text-anchor="start" x="28.5" y="-322.2" font-family="Helvetica,sans-Serif" font-size="11.00">ad_language_uu</text>
<polygon fill="none" stroke="black" points="8.5,-292 8.5,-314 151.5,-314 151.5,-292 8.5,-292"/>
<image xlink:href="../../images/foreignKeys.png" width="11px" height="12px" preserveAspectRatio="xMinYMin meet" x="13.5" y="-309"/>
<text text-anchor="start" x="28.5" y="-300.2" font-family="Helvetica,sans-Serif" font-size="11.00">ad_printpaper_id</text>
<polygon fill="none" stroke="black" points="8.5,-274 8.5,-292 151.5,-292 151.5,-274 8.5,-274"/>
<text text-anchor="start" x="11.5" y="-280.2" font-family="Helvetica,sans-Serif" font-size="11.00">...</text>
<polygon fill="#ffffff" stroke="transparent" points="8.5,-256 8.5,-274 51.5,-274 51.5,-256 8.5,-256"/>
<polygon fill="none" stroke="black" points="8.5,-256 8.5,-274 51.5,-274 51.5,-256 8.5,-256"/>
<text text-anchor="start" x="11.5" y="-262.2" font-family="Helvetica,sans-Serif" font-size="11.00">&lt; 3</text>
<polygon fill="#ffffff" stroke="transparent" points="51.5,-256 51.5,-274 112.5,-274 112.5,-256 51.5,-256"/>
<polygon fill="none" stroke="black" points="51.5,-256 51.5,-274 112.5,-274 112.5,-256 51.5,-256"/>
<text text-anchor="start" x="64.5" y="-262.2" font-family="Helvetica,sans-Serif" font-size="11.00">109 rows</text>
<polygon fill="#ffffff" stroke="transparent" points="112.5,-256 112.5,-274 151.5,-274 151.5,-256 112.5,-256"/>
<polygon fill="none" stroke="black" points="112.5,-256 112.5,-274 151.5,-274 151.5,-256 112.5,-256"/>
<text text-anchor="start" x="126.5" y="-262.2" font-family="Helvetica,sans-Serif" font-size="11.00">86 &gt;</text>
</a>
</g>
</g>
<!-- ad_element_trl&#45;&gt;ad_language -->
<g id="edge2" class="edge">
<title>ad_element_trl:w&#45;&gt;ad_language:e</title>
<path fill="none" stroke="black" d="M186.94,-503.67C163.98,-485.09 193.8,-413 152.5,-413"/>
<polygon fill="black" stroke="black" points="193.35,-505.65 199.94,-511.44 197.18,-506.82 201,-508 201,-508 201,-508 197.18,-506.82 202.06,-504.56 193.35,-505.65 193.35,-505.65"/>
<ellipse fill="none" stroke="black" cx="190.3" cy="-504.7" rx="3.2" ry="3.2"/>
</g>
</g>
</svg>
