<?xml version="1.0" encoding="UTF-8" standalone="no"?>
<!DOCTYPE svg PUBLIC "-//W3C//DTD SVG 1.1//EN"
 "http://www.w3.org/Graphics/SVG/1.1/DTD/svg11.dtd">
<!-- Generated by graphviz version 2.43.0 (0)
 -->
<!-- Title: oneDegreeRelationshipsDiagram Pages: 1 -->
<svg width="684pt" height="720pt"
 viewBox="0.00 0.00 684.00 720.00" xmlns="http://www.w3.org/2000/svg" xmlns:xlink="http://www.w3.org/1999/xlink">
<g id="graph0" class="graph" transform="scale(1 1) rotate(0) translate(4 716)">
<title>oneDegreeRelationshipsDiagram</title>
<polygon fill="#ffffff" stroke="transparent" points="-4,4 -4,-716 680,-716 680,4 -4,4"/>
<text text-anchor="middle" x="71.5" y="-7.2" font-family="Helvetica,sans-Serif" font-size="11.00">Generated by SchemaSpy</text>
<!-- ad_column -->
<g id="node1" class="node">
<title>ad_column</title>
<g id="a_node1"><a xlink:href="../../tables/ad_column.html" xlink:title="ad_column" target="_top">
<polygon fill="#ffffff" stroke="transparent" points="194,-320 194,-708 380,-708 380,-320 194,-320"/>
<polygon fill="#f5f5f5" stroke="transparent" points="194,-686 194,-708 380,-708 380,-686 194,-686"/>
<polygon fill="none" stroke="black" points="194,-686 194,-708 380,-708 380,-686 194,-686"/>
<text text-anchor="start" x="199" y="-695.2" font-family="Helvetica,sans-Serif" font-weight="bold" font-size="11.00">ad_column</text>
<text text-anchor="start" x="345" y="-694.2" font-family="Helvetica,sans-Serif" font-size="11.00">[table]</text>
<polygon fill="none" stroke="black" points="194,-664 194,-686 380,-686 380,-664 194,-664"/>
<image xlink:href="../../images/primaryKeys.png" width="11px" height="12px" preserveAspectRatio="xMinYMin meet" x="199" y="-681"/>
<text text-anchor="start" x="214" y="-672.2" font-family="Helvetica,sans-Serif" font-size="11.00">ad_column_id</text>
<polygon fill="none" stroke="black" points="194,-642 194,-664 380,-664 380,-642 194,-642"/>
<image xlink:href="../../images/foreignKeys.png" width="11px" height="12px" preserveAspectRatio="xMinYMin meet" x="199" y="-659"/>
<text text-anchor="start" x="214" y="-650.2" font-family="Helvetica,sans-Serif" font-size="11.00">ad_client_id</text>
<polygon fill="none" stroke="black" points="194,-620 194,-642 380,-642 380,-620 194,-620"/>
<image xlink:href="../../images/foreignKeys.png" width="11px" height="12px" preserveAspectRatio="xMinYMin meet" x="199" y="-637"/>
<text text-anchor="start" x="214" y="-628.2" font-family="Helvetica,sans-Serif" font-size="11.00">ad_org_id</text>
<polygon fill="none" stroke="black" points="194,-598 194,-620 380,-620 380,-598 194,-598"/>
<image xlink:href="../../images/foreignKeys.png" width="11px" height="12px" preserveAspectRatio="xMinYMin meet" x="199" y="-615"/>
<text text-anchor="start" x="214" y="-606.2" font-family="Helvetica,sans-Serif" font-size="11.00">entitytype</text>
<polygon fill="#ffffff" stroke="transparent" points="194,-576 194,-598 380,-598 380,-576 194,-576"/>
<polygon fill="none" stroke="black" points="194,-576 194,-598 380,-598 380,-576 194,-576"/>
<image xlink:href="../../images/foreignKeys.png" width="11px" height="12px" preserveAspectRatio="xMinYMin meet" x="199" y="-593"/>
<text text-anchor="start" x="214" y="-584.2" font-family="Helvetica,sans-Serif" font-size="11.00">ad_table_id</text>
<polygon fill="none" stroke="black" points="194,-554 194,-576 380,-576 380,-554 194,-554"/>
<image xlink:href="../../images/foreignKeys.png" width="11px" height="12px" preserveAspectRatio="xMinYMin meet" x="199" y="-571"/>
<text text-anchor="start" x="214" y="-562.2" font-family="Helvetica,sans-Serif" font-size="11.00">ad_reference_id</text>
<polygon fill="none" stroke="black" points="194,-532 194,-554 380,-554 380,-532 194,-532"/>
<image xlink:href="../../images/foreignKeys.png" width="11px" height="12px" preserveAspectRatio="xMinYMin meet" x="199" y="-549"/>
<text text-anchor="start" x="214" y="-540.2" font-family="Helvetica,sans-Serif" font-size="11.00">ad_reference_value_id</text>
<polygon fill="none" stroke="black" points="194,-510 194,-532 380,-532 380,-510 194,-510"/>
<image xlink:href="../../images/foreignKeys.png" width="11px" height="12px" preserveAspectRatio="xMinYMin meet" x="199" y="-527"/>
<text text-anchor="start" x="214" y="-518.2" font-family="Helvetica,sans-Serif" font-size="11.00">ad_val_rule_id</text>
<polygon fill="none" stroke="black" points="194,-488 194,-510 380,-510 380,-488 194,-488"/>
<image xlink:href="../../images/foreignKeys.png" width="11px" height="12px" preserveAspectRatio="xMinYMin meet" x="199" y="-505"/>
<text text-anchor="start" x="214" y="-496.2" font-family="Helvetica,sans-Serif" font-size="11.00">ad_element_id</text>
<polygon fill="none" stroke="black" points="194,-466 194,-488 380,-488 380,-466 194,-466"/>
<image xlink:href="../../images/foreignKeys.png" width="11px" height="12px" preserveAspectRatio="xMinYMin meet" x="199" y="-483"/>
<text text-anchor="start" x="214" y="-474.2" font-family="Helvetica,sans-Serif" font-size="11.00">ad_process_id</text>
<polygon fill="#ffffff" stroke="transparent" points="194,-444 194,-466 380,-466 380,-444 194,-444"/>
<polygon fill="none" stroke="black" points="194,-444 194,-466 380,-466 380,-444 194,-444"/>
<text text-anchor="start" x="214" y="-452.2" font-family="Helvetica,sans-Serif" font-size="11.00">ad_column_uu</text>
<polygon fill="none" stroke="black" points="194,-422 194,-444 380,-444 380,-422 194,-422"/>
<image xlink:href="../../images/foreignKeys.png" width="11px" height="12px" preserveAspectRatio="xMinYMin meet" x="199" y="-439"/>
<text text-anchor="start" x="214" y="-430.2" font-family="Helvetica,sans-Serif" font-size="11.00">ad_chart_id</text>
<polygon fill="none" stroke="black" points="194,-400 194,-422 380,-422 380,-400 194,-400"/>
<image xlink:href="../../images/foreignKeys.png" width="11px" height="12px" preserveAspectRatio="xMinYMin meet" x="199" y="-417"/>
<text text-anchor="start" x="214" y="-408.2" font-family="Helvetica,sans-Serif" font-size="11.00">pa_dashboardcontent_id</text>
<polygon fill="none" stroke="black" points="194,-378 194,-400 380,-400 380,-378 194,-378"/>
<image xlink:href="../../images/foreignKeys.png" width="11px" height="12px" preserveAspectRatio="xMinYMin meet" x="199" y="-395"/>
<text text-anchor="start" x="214" y="-386.2" font-family="Helvetica,sans-Serif" font-size="11.00">ad_val_rule_lookup_id</text>
<polygon fill="none" stroke="black" points="194,-356 194,-378 380,-378 380,-356 194,-356"/>
<image xlink:href="../../images/foreignKeys.png" width="11px" height="12px" preserveAspectRatio="xMinYMin meet" x="199" y="-373"/>
<text text-anchor="start" x="214" y="-364.2" font-family="Helvetica,sans-Serif" font-size="11.00">ad_infowindow_id</text>
<polygon fill="none" stroke="black" points="194,-338 194,-356 380,-356 380,-338 194,-338"/>
<text text-anchor="start" x="197" y="-344.2" font-family="Helvetica,sans-Serif" font-size="11.00">...</text>
<polygon fill="#ffffff" stroke="transparent" points="194,-320 194,-338 254,-338 254,-320 194,-320"/>
<polygon fill="none" stroke="black" points="194,-320 194,-338 254,-338 254,-320 194,-320"/>
<text text-anchor="start" x="197" y="-326.2" font-family="Helvetica,sans-Serif" font-size="11.00">&lt; 13</text>
<polygon fill="#ffffff" stroke="transparent" points="254,-320 254,-338 336,-338 336,-320 254,-320"/>
<polygon fill="none" stroke="black" points="254,-320 254,-338 336,-338 336,-320 254,-320"/>
<text text-anchor="start" x="273" y="-326.2" font-family="Helvetica,sans-Serif" font-size="11.00">35.786 rows</text>
<polygon fill="#ffffff" stroke="transparent" points="336,-320 336,-338 380,-338 380,-320 336,-320"/>
<polygon fill="none" stroke="black" points="336,-320 336,-338 380,-338 380,-320 336,-320"/>
<text text-anchor="start" x="355" y="-326.2" font-family="Helvetica,sans-Serif" font-size="11.00">33 &gt;</text>
</a>
</g>
</g>
<!-- ad_entitytype -->
<g id="node2" class="node">
<title>ad_entitytype</title>
<g id="a_node2"><a xlink:href="../../tables/ad_entitytype.html" xlink:title="ad_entitytype" target="_top">
<polygon fill="#ffffff" stroke="transparent" points="8,-109 8,-233 145,-233 145,-109 8,-109"/>
<polygon fill="#f5f5f5" stroke="transparent" points="8.5,-211 8.5,-233 145.5,-233 145.5,-211 8.5,-211"/>
<polygon fill="none" stroke="black" points="8.5,-211 8.5,-233 145.5,-233 145.5,-211 8.5,-211"/>
<text text-anchor="start" x="13.5" y="-220.2" font-family="Helvetica,sans-Serif" font-weight="bold" font-size="11.00">ad_entitytype</text>
<text text-anchor="start" x="110.5" y="-219.2" font-family="Helvetica,sans-Serif" font-size="11.00">[table]</text>
<polygon fill="none" stroke="black" points="8.5,-189 8.5,-211 145.5,-211 145.5,-189 8.5,-189"/>
<image xlink:href="../../images/primaryKeys.png" width="11px" height="12px" preserveAspectRatio="xMinYMin meet" x="13.5" y="-206"/>
<text text-anchor="start" x="28.5" y="-197.2" font-family="Helvetica,sans-Serif" font-size="11.00">entitytype</text>
<polygon fill="#ffffff" stroke="transparent" points="8.5,-167 8.5,-189 145.5,-189 145.5,-167 8.5,-167"/>
<polygon fill="none" stroke="black" points="8.5,-167 8.5,-189 145.5,-189 145.5,-167 8.5,-167"/>
<text text-anchor="start" x="28.5" y="-175.2" font-family="Helvetica,sans-Serif" font-size="11.00">ad_entitytype_id</text>
<polygon fill="#ffffff" stroke="transparent" points="8.5,-145 8.5,-167 145.5,-167 145.5,-145 8.5,-145"/>
<polygon fill="none" stroke="black" points="8.5,-145 8.5,-167 145.5,-167 145.5,-145 8.5,-145"/>
<text text-anchor="start" x="28.5" y="-153.2" font-family="Helvetica,sans-Serif" font-size="11.00">ad_entitytype_uu</text>
<polygon fill="none" stroke="black" points="8.5,-127 8.5,-145 145.5,-145 145.5,-127 8.5,-127"/>
<text text-anchor="start" x="11.5" y="-133.2" font-family="Helvetica,sans-Serif" font-size="11.00">...</text>
<polygon fill="#ffffff" stroke="transparent" points="8.5,-109 8.5,-127 46.5,-127 46.5,-109 8.5,-109"/>
<polygon fill="none" stroke="black" points="8.5,-109 8.5,-127 46.5,-127 46.5,-109 8.5,-109"/>
<text text-anchor="start" x="11.5" y="-115.2" font-family="Helvetica,sans-Serif" font-size="11.00"> &#160;</text>
<polygon fill="#ffffff" stroke="transparent" points="46.5,-109 46.5,-127 104.5,-127 104.5,-109 46.5,-109"/>
<polygon fill="none" stroke="black" points="46.5,-109 46.5,-127 104.5,-127 104.5,-109 46.5,-109"/>
<text text-anchor="start" x="62.5" y="-115.2" font-family="Helvetica,sans-Serif" font-size="11.00">33 rows</text>
<polygon fill="#ffffff" stroke="transparent" points="104.5,-109 104.5,-127 145.5,-127 145.5,-109 104.5,-109"/>
<polygon fill="none" stroke="black" points="104.5,-109 104.5,-127 145.5,-127 145.5,-109 104.5,-109"/>
<text text-anchor="start" x="120.5" y="-115.2" font-family="Helvetica,sans-Serif" font-size="11.00">59 &gt;</text>
</a>
</g>
</g>
<!-- ad_column&#45;&gt;ad_entitytype -->
<g id="edge1" class="edge">
<title>ad_column:w&#45;&gt;ad_entitytype:e</title>
<path fill="none" stroke="black" d="M179.18,-604.95C116.73,-562.47 232.61,-200 146.5,-200"/>
<polygon fill="black" stroke="black" points="185.32,-606.75 191.99,-612.45 189.16,-607.88 193,-609 193,-609 193,-609 189.16,-607.88 194.01,-605.55 185.32,-606.75 185.32,-606.75"/>
<ellipse fill="none" stroke="black" cx="182.25" cy="-605.85" rx="3.2" ry="3.2"/>
</g>
<!-- ad_indexcolumn -->
<g id="node3" class="node">
<title>ad_indexcolumn</title>
<g id="a_node3"><a xlink:href="../../tables/ad_indexcolumn.html" xlink:title="ad_indexcolumn" target="_top">
<polygon fill="#ffffff" stroke="transparent" points="429,-37 429,-389 668,-389 668,-37 429,-37"/>
<polygon fill="#f5f5f5" stroke="transparent" points="431.5,-365 431.5,-387 666.5,-387 666.5,-365 431.5,-365"/>
<polygon fill="none" stroke="black" points="431.5,-365 431.5,-387 666.5,-387 666.5,-365 431.5,-365"/>
<text text-anchor="start" x="436.5" y="-374.2" font-family="Helvetica,sans-Serif" font-weight="bold" font-size="11.00">ad_indexcolumn</text>
<text text-anchor="start" x="631.5" y="-373.2" font-family="Helvetica,sans-Serif" font-size="11.00">[table]</text>
<polygon fill="none" stroke="black" points="431.5,-343 431.5,-365 583.5,-365 583.5,-343 431.5,-343"/>
<text text-anchor="start" x="451.5" y="-351.2" font-family="Helvetica,sans-Serif" font-size="11.00">ad_client_id</text>
<polygon fill="none" stroke="black" points="583.5,-343 583.5,-365 666.5,-365 666.5,-343 583.5,-343"/>
<text text-anchor="start" x="586.5" y="-351.2" font-family="Helvetica,sans-Serif" font-size="11.00">numeric[10]</text>
<polygon fill="none" stroke="black" points="431.5,-321 431.5,-343 583.5,-343 583.5,-321 431.5,-321"/>
<image xlink:href="../../images/foreignKeys.png" width="11px" height="12px" preserveAspectRatio="xMinYMin meet" x="436.5" y="-338"/>
<text text-anchor="start" x="451.5" y="-329.2" font-family="Helvetica,sans-Serif" font-size="11.00">ad_column_id</text>
<polygon fill="none" stroke="black" points="583.5,-321 583.5,-343 666.5,-343 666.5,-321 583.5,-321"/>
<text text-anchor="start" x="586.5" y="-329.2" font-family="Helvetica,sans-Serif" font-size="11.00">numeric[10]</text>
<polygon fill="none" stroke="black" points="431.5,-299 431.5,-321 583.5,-321 583.5,-299 431.5,-299"/>
<image xlink:href="../../images/primaryKeys.png" width="11px" height="12px" preserveAspectRatio="xMinYMin meet" x="436.5" y="-316"/>
<text text-anchor="start" x="451.5" y="-307.2" font-family="Helvetica,sans-Serif" font-size="11.00">ad_indexcolumn_id</text>
<polygon fill="none" stroke="black" points="583.5,-299 583.5,-321 666.5,-321 666.5,-299 583.5,-299"/>
<text text-anchor="start" x="586.5" y="-307.2" font-family="Helvetica,sans-Serif" font-size="11.00">numeric[10]</text>
<polygon fill="#ffffff" stroke="transparent" points="431.5,-277 431.5,-299 583.5,-299 583.5,-277 431.5,-277"/>
<polygon fill="none" stroke="black" points="431.5,-277 431.5,-299 583.5,-299 583.5,-277 431.5,-277"/>
<text text-anchor="start" x="451.5" y="-285.2" font-family="Helvetica,sans-Serif" font-size="11.00">ad_indexcolumn_uu</text>
<polygon fill="none" stroke="black" points="583.5,-277 583.5,-299 666.5,-299 666.5,-277 583.5,-277"/>
<text text-anchor="start" x="586.5" y="-285.2" font-family="Helvetica,sans-Serif" font-size="11.00">varchar[36]</text>
<polygon fill="none" stroke="black" points="431.5,-255 431.5,-277 583.5,-277 583.5,-255 431.5,-255"/>
<text text-anchor="start" x="451.5" y="-263.2" font-family="Helvetica,sans-Serif" font-size="11.00">ad_org_id</text>
<polygon fill="none" stroke="black" points="583.5,-255 583.5,-277 666.5,-277 666.5,-255 583.5,-255"/>
<text text-anchor="start" x="586.5" y="-263.2" font-family="Helvetica,sans-Serif" font-size="11.00">numeric[10]</text>
<polygon fill="none" stroke="black" points="431.5,-233 431.5,-255 583.5,-255 583.5,-233 431.5,-233"/>
<image xlink:href="../../images/foreignKeys.png" width="11px" height="12px" preserveAspectRatio="xMinYMin meet" x="436.5" y="-250"/>
<text text-anchor="start" x="451.5" y="-241.2" font-family="Helvetica,sans-Serif" font-size="11.00">ad_tableindex_id</text>
<polygon fill="none" stroke="black" points="583.5,-233 583.5,-255 666.5,-255 666.5,-233 583.5,-233"/>
<text text-anchor="start" x="586.5" y="-241.2" font-family="Helvetica,sans-Serif" font-size="11.00">numeric[10]</text>
<polygon fill="none" stroke="black" points="431.5,-211 431.5,-233 583.5,-233 583.5,-211 431.5,-211"/>
<text text-anchor="start" x="451.5" y="-219.2" font-family="Helvetica,sans-Serif" font-size="11.00">columnsql</text>
<polygon fill="none" stroke="black" points="583.5,-211 583.5,-233 666.5,-233 666.5,-211 583.5,-211"/>
<text text-anchor="start" x="586.5" y="-219.2" font-family="Helvetica,sans-Serif" font-size="11.00">varchar[255]</text>
<polygon fill="none" stroke="black" points="431.5,-189 431.5,-211 583.5,-211 583.5,-189 431.5,-189"/>
<text text-anchor="start" x="451.5" y="-197.2" font-family="Helvetica,sans-Serif" font-size="11.00">created</text>
<polygon fill="none" stroke="black" points="583.5,-189 583.5,-211 666.5,-211 666.5,-189 583.5,-189"/>
<text text-anchor="start" x="586.5" y="-197.2" font-family="Helvetica,sans-Serif" font-size="11.00">timestamp[29,6]</text>
<polygon fill="none" stroke="black" points="431.5,-167 431.5,-189 583.5,-189 583.5,-167 431.5,-167"/>
<text text-anchor="start" x="451.5" y="-175.2" font-family="Helvetica,sans-Serif" font-size="11.00">createdby</text>
<polygon fill="none" stroke="black" points="583.5,-167 583.5,-189 666.5,-189 666.5,-167 583.5,-167"/>
<text text-anchor="start" x="586.5" y="-175.2" font-family="Helvetica,sans-Serif" font-size="11.00">numeric[10]</text>
<polygon fill="none" stroke="black" points="431.5,-145 431.5,-167 583.5,-167 583.5,-145 431.5,-145"/>
<image xlink:href="../../images/foreignKeys.png" width="11px" height="12px" preserveAspectRatio="xMinYMin meet" x="436.5" y="-162"/>
<text text-anchor="start" x="451.5" y="-153.2" font-family="Helvetica,sans-Serif" font-size="11.00">entitytype</text>
<polygon fill="none" stroke="black" points="583.5,-145 583.5,-167 666.5,-167 666.5,-145 583.5,-145"/>
<text text-anchor="start" x="586.5" y="-153.2" font-family="Helvetica,sans-Serif" font-size="11.00">varchar[40]</text>
<polygon fill="none" stroke="black" points="431.5,-123 431.5,-145 583.5,-145 583.5,-123 431.5,-123"/>
<text text-anchor="start" x="451.5" y="-131.2" font-family="Helvetica,sans-Serif" font-size="11.00">isactive</text>
<polygon fill="none" stroke="black" points="583.5,-123 583.5,-145 666.5,-145 666.5,-123 583.5,-123"/>
<text text-anchor="start" x="586.5" y="-131.2" font-family="Helvetica,sans-Serif" font-size="11.00">bpchar[1]</text>
<polygon fill="none" stroke="black" points="431.5,-101 431.5,-123 583.5,-123 583.5,-101 431.5,-101"/>
<text text-anchor="start" x="451.5" y="-109.2" font-family="Helvetica,sans-Serif" font-size="11.00">seqno</text>
<polygon fill="none" stroke="black" points="583.5,-101 583.5,-123 666.5,-123 666.5,-101 583.5,-101"/>
<text text-anchor="start" x="586.5" y="-109.2" font-family="Helvetica,sans-Serif" font-size="11.00">numeric[10]</text>
<polygon fill="none" stroke="black" points="431.5,-79 431.5,-101 583.5,-101 583.5,-79 431.5,-79"/>
<text text-anchor="start" x="451.5" y="-87.2" font-family="Helvetica,sans-Serif" font-size="11.00">updated</text>
<polygon fill="none" stroke="black" points="583.5,-79 583.5,-101 666.5,-101 666.5,-79 583.5,-79"/>
<text text-anchor="start" x="586.5" y="-87.2" font-family="Helvetica,sans-Serif" font-size="11.00">timestamp[29,6]</text>
<polygon fill="none" stroke="black" points="431.5,-57 431.5,-79 583.5,-79 583.5,-57 431.5,-57"/>
<text text-anchor="start" x="451.5" y="-65.2" font-family="Helvetica,sans-Serif" font-size="11.00">updatedby</text>
<polygon fill="none" stroke="black" points="583.5,-57 583.5,-79 666.5,-79 666.5,-57 583.5,-57"/>
<text text-anchor="start" x="586.5" y="-65.2" font-family="Helvetica,sans-Serif" font-size="11.00">numeric[10]</text>
<polygon fill="#ffffff" stroke="transparent" points="431.5,-39 431.5,-57 488.5,-57 488.5,-39 431.5,-39"/>
<polygon fill="none" stroke="black" points="431.5,-39 431.5,-57 488.5,-57 488.5,-39 431.5,-39"/>
<text text-anchor="start" x="434.5" y="-45.2" font-family="Helvetica,sans-Serif" font-size="11.00">&lt; 3</text>
<polygon fill="#ffffff" stroke="transparent" points="488.5,-39 488.5,-57 583.5,-57 583.5,-39 488.5,-39"/>
<polygon fill="none" stroke="black" points="488.5,-39 488.5,-57 583.5,-57 583.5,-39 488.5,-39"/>
<text text-anchor="start" x="526.5" y="-45.2" font-family="Helvetica,sans-Serif" font-size="11.00">1.445 rows</text>
<polygon fill="#ffffff" stroke="transparent" points="583.5,-39 583.5,-57 666.5,-57 666.5,-39 583.5,-39"/>
<polygon fill="none" stroke="black" points="583.5,-39 583.5,-57 666.5,-57 666.5,-39 583.5,-39"/>
<text text-anchor="start" x="647.5" y="-45.2" font-family="Helvetica,sans-Serif" font-size="11.00">0 &gt;</text>
<polygon fill="none" stroke="black" stroke-width="2" points="430,-38 430,-388 667,-388 667,-38 430,-38"/>
</a>
</g>
</g>
<!-- ad_indexcolumn&#45;&gt;ad_column -->
<g id="edge2" class="edge">
<title>ad_indexcolumn:w&#45;&gt;ad_column:e</title>
<path fill="none" stroke="black" d="M416.12,-333.17C293.67,-355.05 529.76,-675 381,-675"/>
<polygon fill="black" stroke="black" points="422.53,-332.65 430.79,-335.59 426.51,-332.33 430.5,-332 430.5,-332 430.5,-332 426.51,-332.33 430.21,-328.41 422.53,-332.65 422.53,-332.65"/>
<ellipse fill="none" stroke="black" cx="419.34" cy="-332.91" rx="3.2" ry="3.2"/>
</g>
<!-- ad_indexcolumn&#45;&gt;ad_entitytype -->
<g id="edge4" class="edge">
<title>ad_indexcolumn:w&#45;&gt;ad_entitytype:e</title>
<path fill="none" stroke="black" d="M416.47,-151.44C406.75,-143.44 405.09,-127.13 388,-121 303.5,-90.68 262.37,-73.8 186,-121 152.61,-141.64 185.76,-200 146.5,-200"/>
<polygon fill="black" stroke="black" points="422.89,-153.53 429.39,-159.42 426.7,-154.76 430.5,-156 430.5,-156 430.5,-156 426.7,-154.76 431.61,-152.58 422.89,-153.53 422.89,-153.53"/>
<ellipse fill="none" stroke="black" cx="419.85" cy="-152.54" rx="3.2" ry="3.2"/>
</g>
<!-- ad_tableindex -->
<g id="node4" class="node">
<title>ad_tableindex</title>
<g id="a_node4"><a xlink:href="../../tables/ad_tableindex.html" xlink:title="ad_tableindex" target="_top">
<polygon fill="#ffffff" stroke="transparent" points="215,-131 215,-299 359,-299 359,-131 215,-131"/>
<polygon fill="#f5f5f5" stroke="transparent" points="215,-277 215,-299 359,-299 359,-277 215,-277"/>
<polygon fill="none" stroke="black" points="215,-277 215,-299 359,-299 359,-277 215,-277"/>
<text text-anchor="start" x="220" y="-286.2" font-family="Helvetica,sans-Serif" font-weight="bold" font-size="11.00">ad_tableindex</text>
<text text-anchor="start" x="324" y="-285.2" font-family="Helvetica,sans-Serif" font-size="11.00">[table]</text>
<polygon fill="none" stroke="black" points="215,-255 215,-277 359,-277 359,-255 215,-255"/>
<image xlink:href="../../images/foreignKeys.png" width="11px" height="12px" preserveAspectRatio="xMinYMin meet" x="220" y="-272"/>
<text text-anchor="start" x="235" y="-263.2" font-family="Helvetica,sans-Serif" font-size="11.00">ad_table_id</text>
<polygon fill="none" stroke="black" points="215,-233 215,-255 359,-255 359,-233 215,-233"/>
<image xlink:href="../../images/primaryKeys.png" width="11px" height="12px" preserveAspectRatio="xMinYMin meet" x="220" y="-250"/>
<text text-anchor="start" x="235" y="-241.2" font-family="Helvetica,sans-Serif" font-size="11.00">ad_tableindex_id</text>
<polygon fill="#ffffff" stroke="transparent" points="215,-211 215,-233 359,-233 359,-211 215,-211"/>
<polygon fill="none" stroke="black" points="215,-211 215,-233 359,-233 359,-211 215,-211"/>
<text text-anchor="start" x="235" y="-219.2" font-family="Helvetica,sans-Serif" font-size="11.00">ad_tableindex_uu</text>
<polygon fill="none" stroke="black" points="215,-189 215,-211 359,-211 359,-189 215,-189"/>
<image xlink:href="../../images/foreignKeys.png" width="11px" height="12px" preserveAspectRatio="xMinYMin meet" x="220" y="-206"/>
<text text-anchor="start" x="235" y="-197.2" font-family="Helvetica,sans-Serif" font-size="11.00">entitytype</text>
<polygon fill="none" stroke="black" points="215,-167 215,-189 359,-189 359,-167 215,-167"/>
<image xlink:href="../../images/foreignKeys.png" width="11px" height="12px" preserveAspectRatio="xMinYMin meet" x="220" y="-184"/>
<text text-anchor="start" x="235" y="-175.2" font-family="Helvetica,sans-Serif" font-size="11.00">ad_message_id</text>
<polygon fill="none" stroke="black" points="215,-149 215,-167 359,-167 359,-149 215,-149"/>
<text text-anchor="start" x="218" y="-155.2" font-family="Helvetica,sans-Serif" font-size="11.00">...</text>
<polygon fill="#ffffff" stroke="transparent" points="215,-131 215,-149 257,-149 257,-131 215,-131"/>
<polygon fill="none" stroke="black" points="215,-131 215,-149 257,-149 257,-131 215,-131"/>
<text text-anchor="start" x="218" y="-137.2" font-family="Helvetica,sans-Serif" font-size="11.00">&lt; 3</text>
<polygon fill="#ffffff" stroke="transparent" points="257,-131 257,-149 327,-149 327,-131 257,-131"/>
<polygon fill="none" stroke="black" points="257,-131 257,-149 327,-149 327,-131 257,-131"/>
<text text-anchor="start" x="270" y="-137.2" font-family="Helvetica,sans-Serif" font-size="11.00">1.105 rows</text>
<polygon fill="#ffffff" stroke="transparent" points="327,-131 327,-149 359,-149 359,-131 327,-131"/>
<polygon fill="none" stroke="black" points="327,-131 327,-149 359,-149 359,-131 327,-131"/>
<text text-anchor="start" x="340" y="-137.2" font-family="Helvetica,sans-Serif" font-size="11.00">1 &gt;</text>
</a>
</g>
</g>
<!-- ad_indexcolumn&#45;&gt;ad_tableindex -->
<g id="edge3" class="edge">
<title>ad_indexcolumn:w&#45;&gt;ad_tableindex:e</title>
<path fill="none" stroke="black" d="M415.9,-244C395.69,-244 385.83,-244 360,-244"/>
<polygon fill="black" stroke="black" points="422.5,-244 430.5,-247.6 426.5,-244 430.5,-244 430.5,-244 430.5,-244 426.5,-244 430.5,-240.4 422.5,-244 422.5,-244"/>
<ellipse fill="none" stroke="black" cx="419.3" cy="-244" rx="3.2" ry="3.2"/>
</g>
<!-- ad_tableindex&#45;&gt;ad_entitytype -->
<g id="edge5" class="edge">
<title>ad_tableindex:w&#45;&gt;ad_entitytype:e</title>
<path fill="none" stroke="black" d="M199.47,-200C180.49,-200 170.99,-200 146.5,-200"/>
<polygon fill="black" stroke="black" points="206,-200 214,-203.6 210,-200 214,-200 214,-200 214,-200 210,-200 214,-196.4 206,-200 206,-200"/>
<ellipse fill="none" stroke="black" cx="202.8" cy="-200" rx="3.2" ry="3.2"/>
</g>
</g>
</svg>
