<?xml version="1.0" encoding="UTF-8" standalone="no"?>
<!DOCTYPE svg PUBLIC "-//W3C//DTD SVG 1.1//EN"
 "http://www.w3.org/Graphics/SVG/1.1/DTD/svg11.dtd">
<!-- Generated by graphviz version 2.43.0 (0)
 -->
<!-- Title: oneDegreeRelationshipsDiagram Pages: 1 -->
<svg width="508pt" height="438pt"
 viewBox="0.00 0.00 508.00 438.00" xmlns="http://www.w3.org/2000/svg" xmlns:xlink="http://www.w3.org/1999/xlink">
<g id="graph0" class="graph" transform="scale(1 1) rotate(0) translate(4 434)">
<title>oneDegreeRelationshipsDiagram</title>
<polygon fill="#ffffff" stroke="transparent" points="-4,4 -4,-434 504,-434 504,4 -4,4"/>
<text text-anchor="middle" x="71.5" y="-7.2" font-family="Helvetica,sans-Serif" font-size="11.00">Generated by SchemaSpy</text>
<!-- ad_labelprinterfunction -->
<g id="node1" class="node">
<title>ad_labelprinterfunction</title>
<g id="a_node1"><a xlink:href="../../tables/ad_labelprinterfunction.html" xlink:title="ad_labelprinterfunction" target="_top">
<polygon fill="#ffffff" stroke="transparent" points="290,-302 290,-426 492,-426 492,-302 290,-302"/>
<polygon fill="#f5f5f5" stroke="transparent" points="290,-404 290,-426 492,-426 492,-404 290,-404"/>
<polygon fill="none" stroke="black" points="290,-404 290,-426 492,-426 492,-404 290,-404"/>
<text text-anchor="start" x="295" y="-413.2" font-family="Helvetica,sans-Serif" font-weight="bold" font-size="11.00">ad_labelprinterfunction</text>
<text text-anchor="start" x="457" y="-412.2" font-family="Helvetica,sans-Serif" font-size="11.00">[table]</text>
<polygon fill="none" stroke="black" points="290,-382 290,-404 492,-404 492,-382 290,-382"/>
<image xlink:href="../../images/primaryKeys.png" width="11px" height="12px" preserveAspectRatio="xMinYMin meet" x="295" y="-399"/>
<text text-anchor="start" x="310" y="-390.2" font-family="Helvetica,sans-Serif" font-size="11.00">ad_labelprinterfunction_id</text>
<polygon fill="none" stroke="black" points="290,-360 290,-382 492,-382 492,-360 290,-360"/>
<image xlink:href="../../images/foreignKeys.png" width="11px" height="12px" preserveAspectRatio="xMinYMin meet" x="295" y="-377"/>
<text text-anchor="start" x="310" y="-368.2" font-family="Helvetica,sans-Serif" font-size="11.00">ad_labelprinter_id</text>
<polygon fill="#ffffff" stroke="transparent" points="290,-338 290,-360 492,-360 492,-338 290,-338"/>
<polygon fill="none" stroke="black" points="290,-338 290,-360 492,-360 492,-338 290,-338"/>
<text text-anchor="start" x="310" y="-346.2" font-family="Helvetica,sans-Serif" font-size="11.00">ad_labelprinterfunction_uu</text>
<polygon fill="none" stroke="black" points="290,-320 290,-338 492,-338 492,-320 290,-320"/>
<text text-anchor="start" x="293" y="-326.2" font-family="Helvetica,sans-Serif" font-size="11.00">...</text>
<polygon fill="#ffffff" stroke="transparent" points="290,-302 290,-320 371,-320 371,-302 290,-302"/>
<polygon fill="none" stroke="black" points="290,-302 290,-320 371,-320 371,-302 290,-302"/>
<text text-anchor="start" x="293" y="-308.2" font-family="Helvetica,sans-Serif" font-size="11.00">&lt; 1</text>
<polygon fill="#ffffff" stroke="transparent" points="371,-302 371,-320 440,-320 440,-302 371,-302"/>
<polygon fill="none" stroke="black" points="371,-302 371,-320 440,-320 440,-302 371,-302"/>
<text text-anchor="start" x="404" y="-308.2" font-family="Helvetica,sans-Serif" font-size="11.00">0 rows</text>
<polygon fill="#ffffff" stroke="transparent" points="440,-302 440,-320 492,-320 492,-302 440,-302"/>
<polygon fill="none" stroke="black" points="440,-302 440,-320 492,-320 492,-302 440,-302"/>
<text text-anchor="start" x="473" y="-308.2" font-family="Helvetica,sans-Serif" font-size="11.00">1 &gt;</text>
</a>
</g>
</g>
<!-- ad_labelprinter -->
<g id="node2" class="node">
<title>ad_labelprinter</title>
<g id="a_node2"><a xlink:href="../../tables/ad_labelprinter.html" xlink:title="ad_labelprinter" target="_top">
<polygon fill="#ffffff" stroke="transparent" points="8,-37 8,-323 241,-323 241,-37 8,-37"/>
<polygon fill="#f5f5f5" stroke="transparent" points="10.5,-299 10.5,-321 239.5,-321 239.5,-299 10.5,-299"/>
<polygon fill="none" stroke="black" points="10.5,-299 10.5,-321 239.5,-321 239.5,-299 10.5,-299"/>
<text text-anchor="start" x="15.5" y="-308.2" font-family="Helvetica,sans-Serif" font-weight="bold" font-size="11.00">ad_labelprinter</text>
<text text-anchor="start" x="204.5" y="-307.2" font-family="Helvetica,sans-Serif" font-size="11.00">[table]</text>
<polygon fill="none" stroke="black" points="10.5,-277 10.5,-299 156.5,-299 156.5,-277 10.5,-277"/>
<image xlink:href="../../images/primaryKeys.png" width="11px" height="12px" preserveAspectRatio="xMinYMin meet" x="15.5" y="-294"/>
<text text-anchor="start" x="30.5" y="-285.2" font-family="Helvetica,sans-Serif" font-size="11.00">ad_labelprinter_id</text>
<polygon fill="none" stroke="black" points="156.5,-277 156.5,-299 239.5,-299 239.5,-277 156.5,-277"/>
<text text-anchor="start" x="159.5" y="-285.2" font-family="Helvetica,sans-Serif" font-size="11.00">numeric[10]</text>
<polygon fill="none" stroke="black" points="10.5,-255 10.5,-277 156.5,-277 156.5,-255 10.5,-255"/>
<text text-anchor="start" x="30.5" y="-263.2" font-family="Helvetica,sans-Serif" font-size="11.00">ad_client_id</text>
<polygon fill="none" stroke="black" points="156.5,-255 156.5,-277 239.5,-277 239.5,-255 156.5,-255"/>
<text text-anchor="start" x="159.5" y="-263.2" font-family="Helvetica,sans-Serif" font-size="11.00">numeric[10]</text>
<polygon fill="none" stroke="black" points="10.5,-233 10.5,-255 156.5,-255 156.5,-233 10.5,-233"/>
<text text-anchor="start" x="30.5" y="-241.2" font-family="Helvetica,sans-Serif" font-size="11.00">ad_org_id</text>
<polygon fill="none" stroke="black" points="156.5,-233 156.5,-255 239.5,-255 239.5,-233 156.5,-233"/>
<text text-anchor="start" x="159.5" y="-241.2" font-family="Helvetica,sans-Serif" font-size="11.00">numeric[10]</text>
<polygon fill="none" stroke="black" points="10.5,-211 10.5,-233 156.5,-233 156.5,-211 10.5,-211"/>
<text text-anchor="start" x="30.5" y="-219.2" font-family="Helvetica,sans-Serif" font-size="11.00">isactive</text>
<polygon fill="none" stroke="black" points="156.5,-211 156.5,-233 239.5,-233 239.5,-211 156.5,-211"/>
<text text-anchor="start" x="159.5" y="-219.2" font-family="Helvetica,sans-Serif" font-size="11.00">bpchar[1]</text>
<polygon fill="none" stroke="black" points="10.5,-189 10.5,-211 156.5,-211 156.5,-189 10.5,-189"/>
<text text-anchor="start" x="30.5" y="-197.2" font-family="Helvetica,sans-Serif" font-size="11.00">created</text>
<polygon fill="none" stroke="black" points="156.5,-189 156.5,-211 239.5,-211 239.5,-189 156.5,-189"/>
<text text-anchor="start" x="159.5" y="-197.2" font-family="Helvetica,sans-Serif" font-size="11.00">timestamp[29,6]</text>
<polygon fill="none" stroke="black" points="10.5,-167 10.5,-189 156.5,-189 156.5,-167 10.5,-167"/>
<text text-anchor="start" x="30.5" y="-175.2" font-family="Helvetica,sans-Serif" font-size="11.00">createdby</text>
<polygon fill="none" stroke="black" points="156.5,-167 156.5,-189 239.5,-189 239.5,-167 156.5,-167"/>
<text text-anchor="start" x="159.5" y="-175.2" font-family="Helvetica,sans-Serif" font-size="11.00">numeric[10]</text>
<polygon fill="none" stroke="black" points="10.5,-145 10.5,-167 156.5,-167 156.5,-145 10.5,-145"/>
<text text-anchor="start" x="30.5" y="-153.2" font-family="Helvetica,sans-Serif" font-size="11.00">updated</text>
<polygon fill="none" stroke="black" points="156.5,-145 156.5,-167 239.5,-167 239.5,-145 156.5,-145"/>
<text text-anchor="start" x="159.5" y="-153.2" font-family="Helvetica,sans-Serif" font-size="11.00">timestamp[29,6]</text>
<polygon fill="none" stroke="black" points="10.5,-123 10.5,-145 156.5,-145 156.5,-123 10.5,-123"/>
<text text-anchor="start" x="30.5" y="-131.2" font-family="Helvetica,sans-Serif" font-size="11.00">updatedby</text>
<polygon fill="none" stroke="black" points="156.5,-123 156.5,-145 239.5,-145 239.5,-123 156.5,-123"/>
<text text-anchor="start" x="159.5" y="-131.2" font-family="Helvetica,sans-Serif" font-size="11.00">numeric[10]</text>
<polygon fill="none" stroke="black" points="10.5,-101 10.5,-123 156.5,-123 156.5,-101 10.5,-101"/>
<text text-anchor="start" x="30.5" y="-109.2" font-family="Helvetica,sans-Serif" font-size="11.00">name</text>
<polygon fill="none" stroke="black" points="156.5,-101 156.5,-123 239.5,-123 239.5,-101 156.5,-101"/>
<text text-anchor="start" x="159.5" y="-109.2" font-family="Helvetica,sans-Serif" font-size="11.00">varchar[60]</text>
<polygon fill="none" stroke="black" points="10.5,-79 10.5,-101 156.5,-101 156.5,-79 10.5,-79"/>
<text text-anchor="start" x="30.5" y="-87.2" font-family="Helvetica,sans-Serif" font-size="11.00">description</text>
<polygon fill="none" stroke="black" points="156.5,-79 156.5,-101 239.5,-101 239.5,-79 156.5,-79"/>
<text text-anchor="start" x="159.5" y="-87.2" font-family="Helvetica,sans-Serif" font-size="11.00">varchar[255]</text>
<polygon fill="#ffffff" stroke="transparent" points="10.5,-57 10.5,-79 156.5,-79 156.5,-57 10.5,-57"/>
<polygon fill="none" stroke="black" points="10.5,-57 10.5,-79 156.5,-79 156.5,-57 10.5,-57"/>
<text text-anchor="start" x="30.5" y="-65.2" font-family="Helvetica,sans-Serif" font-size="11.00">ad_labelprinter_uu</text>
<polygon fill="none" stroke="black" points="156.5,-57 156.5,-79 239.5,-79 239.5,-57 156.5,-57"/>
<text text-anchor="start" x="159.5" y="-65.2" font-family="Helvetica,sans-Serif" font-size="11.00">varchar[36]</text>
<polygon fill="#ffffff" stroke="transparent" points="10.5,-39 10.5,-57 74.5,-57 74.5,-39 10.5,-39"/>
<polygon fill="none" stroke="black" points="10.5,-39 10.5,-57 74.5,-57 74.5,-39 10.5,-39"/>
<text text-anchor="start" x="13.5" y="-45.2" font-family="Helvetica,sans-Serif" font-size="11.00">&lt; 0</text>
<polygon fill="#ffffff" stroke="transparent" points="74.5,-39 74.5,-57 156.5,-57 156.5,-39 74.5,-39"/>
<polygon fill="none" stroke="black" points="74.5,-39 74.5,-57 156.5,-57 156.5,-39 74.5,-39"/>
<text text-anchor="start" x="120.5" y="-45.2" font-family="Helvetica,sans-Serif" font-size="11.00">0 rows</text>
<polygon fill="#ffffff" stroke="transparent" points="156.5,-39 156.5,-57 239.5,-57 239.5,-39 156.5,-39"/>
<polygon fill="none" stroke="black" points="156.5,-39 156.5,-57 239.5,-57 239.5,-39 156.5,-39"/>
<text text-anchor="start" x="220.5" y="-45.2" font-family="Helvetica,sans-Serif" font-size="11.00">2 &gt;</text>
<polygon fill="none" stroke="black" stroke-width="2" points="9,-38 9,-322 240,-322 240,-38 9,-38"/>
</a>
</g>
</g>
<!-- ad_labelprinterfunction&#45;&gt;ad_labelprinter -->
<g id="edge1" class="edge">
<title>ad_labelprinterfunction:w&#45;&gt;ad_labelprinter:e</title>
<path fill="none" stroke="black" d="M275.26,-366.54C255.09,-349.3 277.22,-288 240.5,-288"/>
<polygon fill="black" stroke="black" points="281.39,-368.53 287.89,-374.42 285.2,-369.76 289,-371 289,-371 289,-371 285.2,-369.76 290.11,-367.58 281.39,-368.53 281.39,-368.53"/>
<ellipse fill="none" stroke="black" cx="278.35" cy="-367.54" rx="3.2" ry="3.2"/>
</g>
<!-- ad_printlabel -->
<g id="node3" class="node">
<title>ad_printlabel</title>
<g id="a_node3"><a xlink:href="../../tables/ad_printlabel.html" xlink:title="ad_printlabel" target="_top">
<polygon fill="#ffffff" stroke="transparent" points="320,-135 320,-281 462,-281 462,-135 320,-135"/>
<polygon fill="#f5f5f5" stroke="transparent" points="320,-259 320,-281 462,-281 462,-259 320,-259"/>
<polygon fill="none" stroke="black" points="320,-259 320,-281 462,-281 462,-259 320,-259"/>
<text text-anchor="start" x="325" y="-268.2" font-family="Helvetica,sans-Serif" font-weight="bold" font-size="11.00">ad_printlabel</text>
<text text-anchor="start" x="427" y="-267.2" font-family="Helvetica,sans-Serif" font-size="11.00">[table]</text>
<polygon fill="none" stroke="black" points="320,-237 320,-259 462,-259 462,-237 320,-237"/>
<image xlink:href="../../images/primaryKeys.png" width="11px" height="12px" preserveAspectRatio="xMinYMin meet" x="325" y="-254"/>
<text text-anchor="start" x="340" y="-245.2" font-family="Helvetica,sans-Serif" font-size="11.00">ad_printlabel_id</text>
<polygon fill="none" stroke="black" points="320,-215 320,-237 462,-237 462,-215 320,-215"/>
<image xlink:href="../../images/foreignKeys.png" width="11px" height="12px" preserveAspectRatio="xMinYMin meet" x="325" y="-232"/>
<text text-anchor="start" x="340" y="-223.2" font-family="Helvetica,sans-Serif" font-size="11.00">ad_table_id</text>
<polygon fill="none" stroke="black" points="320,-193 320,-215 462,-215 462,-193 320,-193"/>
<image xlink:href="../../images/foreignKeys.png" width="11px" height="12px" preserveAspectRatio="xMinYMin meet" x="325" y="-210"/>
<text text-anchor="start" x="340" y="-201.2" font-family="Helvetica,sans-Serif" font-size="11.00">ad_labelprinter_id</text>
<polygon fill="#ffffff" stroke="transparent" points="320,-171 320,-193 462,-193 462,-171 320,-171"/>
<polygon fill="none" stroke="black" points="320,-171 320,-193 462,-193 462,-171 320,-171"/>
<text text-anchor="start" x="340" y="-179.2" font-family="Helvetica,sans-Serif" font-size="11.00">ad_printlabel_uu</text>
<polygon fill="none" stroke="black" points="320,-153 320,-171 462,-171 462,-153 320,-153"/>
<text text-anchor="start" x="323" y="-159.2" font-family="Helvetica,sans-Serif" font-size="11.00">...</text>
<polygon fill="#ffffff" stroke="transparent" points="320,-135 320,-153 371,-153 371,-135 320,-135"/>
<polygon fill="none" stroke="black" points="320,-135 320,-153 371,-153 371,-135 320,-135"/>
<text text-anchor="start" x="323" y="-141.2" font-family="Helvetica,sans-Serif" font-size="11.00">&lt; 2</text>
<polygon fill="#ffffff" stroke="transparent" points="371,-135 371,-153 425,-153 425,-135 371,-135"/>
<polygon fill="none" stroke="black" points="371,-135 371,-153 425,-153 425,-135 371,-135"/>
<text text-anchor="start" x="389" y="-141.2" font-family="Helvetica,sans-Serif" font-size="11.00">0 rows</text>
<polygon fill="#ffffff" stroke="transparent" points="425,-135 425,-153 462,-153 462,-135 425,-135"/>
<polygon fill="none" stroke="black" points="425,-135 425,-153 462,-153 462,-135 425,-135"/>
<text text-anchor="start" x="443" y="-141.2" font-family="Helvetica,sans-Serif" font-size="11.00">1 &gt;</text>
</a>
</g>
</g>
<!-- ad_printlabel&#45;&gt;ad_labelprinter -->
<g id="edge2" class="edge">
<title>ad_printlabel:w&#45;&gt;ad_labelprinter:e</title>
<path fill="none" stroke="black" d="M304.72,-206.79C272.19,-221.37 286.01,-288 240.5,-288"/>
<polygon fill="black" stroke="black" points="311.15,-205.54 319.69,-207.53 315.07,-204.77 319,-204 319,-204 319,-204 315.07,-204.77 318.31,-200.47 311.15,-205.54 311.15,-205.54"/>
<ellipse fill="none" stroke="black" cx="308.01" cy="-206.15" rx="3.2" ry="3.2"/>
</g>
</g>
</svg>
