<?xml version="1.0" encoding="UTF-8" standalone="no"?>
<!DOCTYPE svg PUBLIC "-//W3C//DTD SVG 1.1//EN"
 "http://www.w3.org/Graphics/SVG/1.1/DTD/svg11.dtd">
<!-- Generated by graphviz version 2.43.0 (0)
 -->
<!-- Title: oneDegreeRelationshipsDiagram Pages: 1 -->
<svg width="536pt" height="599pt"
 viewBox="0.00 0.00 536.00 599.00" xmlns="http://www.w3.org/2000/svg" xmlns:xlink="http://www.w3.org/1999/xlink">
<g id="graph0" class="graph" transform="scale(1 1) rotate(0) translate(4 595)">
<title>oneDegreeRelationshipsDiagram</title>
<polygon fill="#ffffff" stroke="transparent" points="-4,4 -4,-595 532,-595 532,4 -4,4"/>
<text text-anchor="middle" x="71.5" y="-7.2" font-family="Helvetica,sans-Serif" font-size="11.00">Generated by SchemaSpy</text>
<!-- ad_labelassignment -->
<g id="node1" class="node">
<title>ad_labelassignment</title>
<g id="a_node1"><a xlink:href="../../tables/ad_labelassignment.html" xlink:title="ad_labelassignment" target="_top">
<polygon fill="#ffffff" stroke="transparent" points="255,-257 255,-587 520,-587 520,-257 255,-257"/>
<polygon fill="#f5f5f5" stroke="transparent" points="257.5,-563 257.5,-585 518.5,-585 518.5,-563 257.5,-563"/>
<polygon fill="none" stroke="black" points="257.5,-563 257.5,-585 518.5,-585 518.5,-563 257.5,-563"/>
<text text-anchor="start" x="262.5" y="-572.2" font-family="Helvetica,sans-Serif" font-weight="bold" font-size="11.00">ad_labelassignment</text>
<text text-anchor="start" x="483.5" y="-571.2" font-family="Helvetica,sans-Serif" font-size="11.00">[table]</text>
<polygon fill="none" stroke="black" points="257.5,-541 257.5,-563 435.5,-563 435.5,-541 257.5,-541"/>
<image xlink:href="../../images/primaryKeys.png" width="11px" height="12px" preserveAspectRatio="xMinYMin meet" x="262.5" y="-558"/>
<text text-anchor="start" x="277.5" y="-549.2" font-family="Helvetica,sans-Serif" font-size="11.00">ad_labelassignment_id</text>
<polygon fill="none" stroke="black" points="435.5,-541 435.5,-563 518.5,-563 518.5,-541 435.5,-541"/>
<text text-anchor="start" x="438.5" y="-549.2" font-family="Helvetica,sans-Serif" font-size="11.00">numeric[10]</text>
<polygon fill="#ffffff" stroke="transparent" points="257.5,-519 257.5,-541 435.5,-541 435.5,-519 257.5,-519"/>
<polygon fill="none" stroke="black" points="257.5,-519 257.5,-541 435.5,-541 435.5,-519 257.5,-519"/>
<text text-anchor="start" x="277.5" y="-527.2" font-family="Helvetica,sans-Serif" font-size="11.00">ad_labelassignment_uu</text>
<polygon fill="none" stroke="black" points="435.5,-519 435.5,-541 518.5,-541 518.5,-519 435.5,-519"/>
<text text-anchor="start" x="438.5" y="-527.2" font-family="Helvetica,sans-Serif" font-size="11.00">varchar[36]</text>
<polygon fill="none" stroke="black" points="257.5,-497 257.5,-519 435.5,-519 435.5,-497 257.5,-497"/>
<text text-anchor="start" x="277.5" y="-505.2" font-family="Helvetica,sans-Serif" font-size="11.00">ad_client_id</text>
<polygon fill="none" stroke="black" points="435.5,-497 435.5,-519 518.5,-519 518.5,-497 435.5,-497"/>
<text text-anchor="start" x="438.5" y="-505.2" font-family="Helvetica,sans-Serif" font-size="11.00">numeric[10]</text>
<polygon fill="none" stroke="black" points="257.5,-475 257.5,-497 435.5,-497 435.5,-475 257.5,-475"/>
<text text-anchor="start" x="277.5" y="-483.2" font-family="Helvetica,sans-Serif" font-size="11.00">ad_org_id</text>
<polygon fill="none" stroke="black" points="435.5,-475 435.5,-497 518.5,-497 518.5,-475 435.5,-475"/>
<text text-anchor="start" x="438.5" y="-483.2" font-family="Helvetica,sans-Serif" font-size="11.00">numeric[10]</text>
<polygon fill="none" stroke="black" points="257.5,-453 257.5,-475 435.5,-475 435.5,-453 257.5,-453"/>
<text text-anchor="start" x="277.5" y="-461.2" font-family="Helvetica,sans-Serif" font-size="11.00">created</text>
<polygon fill="none" stroke="black" points="435.5,-453 435.5,-475 518.5,-475 518.5,-453 435.5,-453"/>
<text text-anchor="start" x="438.5" y="-461.2" font-family="Helvetica,sans-Serif" font-size="11.00">timestamp[29,6]</text>
<polygon fill="none" stroke="black" points="257.5,-431 257.5,-453 435.5,-453 435.5,-431 257.5,-431"/>
<text text-anchor="start" x="277.5" y="-439.2" font-family="Helvetica,sans-Serif" font-size="11.00">createdby</text>
<polygon fill="none" stroke="black" points="435.5,-431 435.5,-453 518.5,-453 518.5,-431 435.5,-431"/>
<text text-anchor="start" x="438.5" y="-439.2" font-family="Helvetica,sans-Serif" font-size="11.00">numeric[10]</text>
<polygon fill="none" stroke="black" points="257.5,-409 257.5,-431 435.5,-431 435.5,-409 257.5,-409"/>
<text text-anchor="start" x="277.5" y="-417.2" font-family="Helvetica,sans-Serif" font-size="11.00">updated</text>
<polygon fill="none" stroke="black" points="435.5,-409 435.5,-431 518.5,-431 518.5,-409 435.5,-409"/>
<text text-anchor="start" x="438.5" y="-417.2" font-family="Helvetica,sans-Serif" font-size="11.00">timestamp[29,6]</text>
<polygon fill="none" stroke="black" points="257.5,-387 257.5,-409 435.5,-409 435.5,-387 257.5,-387"/>
<text text-anchor="start" x="277.5" y="-395.2" font-family="Helvetica,sans-Serif" font-size="11.00">updatedby</text>
<polygon fill="none" stroke="black" points="435.5,-387 435.5,-409 518.5,-409 518.5,-387 435.5,-387"/>
<text text-anchor="start" x="438.5" y="-395.2" font-family="Helvetica,sans-Serif" font-size="11.00">numeric[10]</text>
<polygon fill="none" stroke="black" points="257.5,-365 257.5,-387 435.5,-387 435.5,-365 257.5,-365"/>
<text text-anchor="start" x="277.5" y="-373.2" font-family="Helvetica,sans-Serif" font-size="11.00">isactive</text>
<polygon fill="none" stroke="black" points="435.5,-365 435.5,-387 518.5,-387 518.5,-365 435.5,-365"/>
<text text-anchor="start" x="438.5" y="-373.2" font-family="Helvetica,sans-Serif" font-size="11.00">bpchar[1]</text>
<polygon fill="none" stroke="black" points="257.5,-343 257.5,-365 435.5,-365 435.5,-343 257.5,-343"/>
<text text-anchor="start" x="277.5" y="-351.2" font-family="Helvetica,sans-Serif" font-size="11.00">description</text>
<polygon fill="none" stroke="black" points="435.5,-343 435.5,-365 518.5,-365 518.5,-343 435.5,-343"/>
<text text-anchor="start" x="438.5" y="-351.2" font-family="Helvetica,sans-Serif" font-size="11.00">varchar[255]</text>
<polygon fill="none" stroke="black" points="257.5,-321 257.5,-343 435.5,-343 435.5,-321 257.5,-321"/>
<image xlink:href="../../images/foreignKeys.png" width="11px" height="12px" preserveAspectRatio="xMinYMin meet" x="262.5" y="-338"/>
<text text-anchor="start" x="277.5" y="-329.2" font-family="Helvetica,sans-Serif" font-size="11.00">ad_label_id</text>
<polygon fill="none" stroke="black" points="435.5,-321 435.5,-343 518.5,-343 518.5,-321 435.5,-321"/>
<text text-anchor="start" x="438.5" y="-329.2" font-family="Helvetica,sans-Serif" font-size="11.00">numeric[10]</text>
<polygon fill="#ffffff" stroke="transparent" points="257.5,-299 257.5,-321 435.5,-321 435.5,-299 257.5,-299"/>
<polygon fill="none" stroke="black" points="257.5,-299 257.5,-321 435.5,-321 435.5,-299 257.5,-299"/>
<image xlink:href="../../images/foreignKeys.png" width="11px" height="12px" preserveAspectRatio="xMinYMin meet" x="262.5" y="-316"/>
<text text-anchor="start" x="277.5" y="-307.2" font-family="Helvetica,sans-Serif" font-size="11.00">ad_table_id</text>
<polygon fill="none" stroke="black" points="435.5,-299 435.5,-321 518.5,-321 518.5,-299 435.5,-299"/>
<text text-anchor="start" x="438.5" y="-307.2" font-family="Helvetica,sans-Serif" font-size="11.00">numeric[10]</text>
<polygon fill="#ffffff" stroke="transparent" points="257.5,-277 257.5,-299 435.5,-299 435.5,-277 257.5,-277"/>
<polygon fill="none" stroke="black" points="257.5,-277 257.5,-299 435.5,-299 435.5,-277 257.5,-277"/>
<text text-anchor="start" x="277.5" y="-285.2" font-family="Helvetica,sans-Serif" font-size="11.00">record_id</text>
<polygon fill="none" stroke="black" points="435.5,-277 435.5,-299 518.5,-299 518.5,-277 435.5,-277"/>
<text text-anchor="start" x="438.5" y="-285.2" font-family="Helvetica,sans-Serif" font-size="11.00">numeric[10]</text>
<polygon fill="#ffffff" stroke="transparent" points="257.5,-259 257.5,-277 337.5,-277 337.5,-259 257.5,-259"/>
<polygon fill="none" stroke="black" points="257.5,-259 257.5,-277 337.5,-277 337.5,-259 257.5,-259"/>
<text text-anchor="start" x="260.5" y="-265.2" font-family="Helvetica,sans-Serif" font-size="11.00">&lt; 2</text>
<polygon fill="#ffffff" stroke="transparent" points="337.5,-259 337.5,-277 435.5,-277 435.5,-259 337.5,-259"/>
<polygon fill="none" stroke="black" points="337.5,-259 337.5,-277 435.5,-277 435.5,-259 337.5,-259"/>
<text text-anchor="start" x="399.5" y="-265.2" font-family="Helvetica,sans-Serif" font-size="11.00">0 rows</text>
<polygon fill="#ffffff" stroke="transparent" points="435.5,-259 435.5,-277 518.5,-277 518.5,-259 435.5,-259"/>
<polygon fill="none" stroke="black" points="435.5,-259 435.5,-277 518.5,-277 518.5,-259 435.5,-259"/>
<text text-anchor="start" x="499.5" y="-265.2" font-family="Helvetica,sans-Serif" font-size="11.00">0 &gt;</text>
<polygon fill="none" stroke="black" stroke-width="2" points="256,-258 256,-586 519,-586 519,-258 256,-258"/>
</a>
</g>
</g>
<!-- ad_label -->
<g id="node2" class="node">
<title>ad_label</title>
<g id="a_node2"><a xlink:href="../../tables/ad_label.html" xlink:title="ad_label" target="_top">
<polygon fill="#ffffff" stroke="transparent" points="29.5,-292 29.5,-438 184.5,-438 184.5,-292 29.5,-292"/>
<polygon fill="#f5f5f5" stroke="transparent" points="30,-416 30,-438 185,-438 185,-416 30,-416"/>
<polygon fill="none" stroke="black" points="30,-416 30,-438 185,-438 185,-416 30,-416"/>
<text text-anchor="start" x="35" y="-425.2" font-family="Helvetica,sans-Serif" font-weight="bold" font-size="11.00">ad_label</text>
<text text-anchor="start" x="150" y="-424.2" font-family="Helvetica,sans-Serif" font-size="11.00">[table]</text>
<polygon fill="none" stroke="black" points="30,-394 30,-416 185,-416 185,-394 30,-394"/>
<image xlink:href="../../images/primaryKeys.png" width="11px" height="12px" preserveAspectRatio="xMinYMin meet" x="35" y="-411"/>
<text text-anchor="start" x="50" y="-402.2" font-family="Helvetica,sans-Serif" font-size="11.00">ad_label_id</text>
<polygon fill="#ffffff" stroke="transparent" points="30,-372 30,-394 185,-394 185,-372 30,-372"/>
<polygon fill="none" stroke="black" points="30,-372 30,-394 185,-394 185,-372 30,-372"/>
<text text-anchor="start" x="50" y="-380.2" font-family="Helvetica,sans-Serif" font-size="11.00">ad_label_uu</text>
<polygon fill="none" stroke="black" points="30,-350 30,-372 185,-372 185,-350 30,-350"/>
<image xlink:href="../../images/foreignKeys.png" width="11px" height="12px" preserveAspectRatio="xMinYMin meet" x="35" y="-367"/>
<text text-anchor="start" x="50" y="-358.2" font-family="Helvetica,sans-Serif" font-size="11.00">ad_labelcategory_id</text>
<polygon fill="none" stroke="black" points="30,-328 30,-350 185,-350 185,-328 30,-328"/>
<image xlink:href="../../images/foreignKeys.png" width="11px" height="12px" preserveAspectRatio="xMinYMin meet" x="35" y="-345"/>
<text text-anchor="start" x="50" y="-336.2" font-family="Helvetica,sans-Serif" font-size="11.00">ad_labelstyle_id</text>
<polygon fill="none" stroke="black" points="30,-310 30,-328 185,-328 185,-310 30,-310"/>
<text text-anchor="start" x="33" y="-316.2" font-family="Helvetica,sans-Serif" font-size="11.00">...</text>
<polygon fill="#ffffff" stroke="transparent" points="30,-292 30,-310 88,-310 88,-292 30,-292"/>
<polygon fill="none" stroke="black" points="30,-292 30,-310 88,-310 88,-292 30,-292"/>
<text text-anchor="start" x="33" y="-298.2" font-family="Helvetica,sans-Serif" font-size="11.00">&lt; 2</text>
<polygon fill="#ffffff" stroke="transparent" points="88,-292 88,-310 145,-310 145,-292 88,-292"/>
<polygon fill="none" stroke="black" points="88,-292 88,-310 145,-310 145,-292 88,-292"/>
<text text-anchor="start" x="109" y="-298.2" font-family="Helvetica,sans-Serif" font-size="11.00">0 rows</text>
<polygon fill="#ffffff" stroke="transparent" points="145,-292 145,-310 185,-310 185,-292 145,-292"/>
<polygon fill="none" stroke="black" points="145,-292 145,-310 185,-310 185,-292 145,-292"/>
<text text-anchor="start" x="166" y="-298.2" font-family="Helvetica,sans-Serif" font-size="11.00">2 &gt;</text>
</a>
</g>
</g>
<!-- ad_labelassignment&#45;&gt;ad_label -->
<g id="edge1" class="edge">
<title>ad_labelassignment:w&#45;&gt;ad_label:e</title>
<path fill="none" stroke="black" d="M242.37,-335.14C215.31,-349.11 225.47,-405 186,-405"/>
<polygon fill="black" stroke="black" points="248.69,-333.73 257.28,-335.51 252.6,-332.87 256.5,-332 256.5,-332 256.5,-332 252.6,-332.87 255.72,-328.49 248.69,-333.73 248.69,-333.73"/>
<ellipse fill="none" stroke="black" cx="245.57" cy="-334.43" rx="3.2" ry="3.2"/>
</g>
<!-- ad_table -->
<g id="node3" class="node">
<title>ad_table</title>
<g id="a_node3"><a xlink:href="../../tables/ad_table.html" xlink:title="ad_table" target="_top">
<polygon fill="#ffffff" stroke="transparent" points="8,-37 8,-271 206,-271 206,-37 8,-37"/>
<polygon fill="#f5f5f5" stroke="transparent" points="8,-249 8,-271 206,-271 206,-249 8,-249"/>
<polygon fill="none" stroke="black" points="8,-249 8,-271 206,-271 206,-249 8,-249"/>
<text text-anchor="start" x="13" y="-258.2" font-family="Helvetica,sans-Serif" font-weight="bold" font-size="11.00">ad_table</text>
<text text-anchor="start" x="171" y="-257.2" font-family="Helvetica,sans-Serif" font-size="11.00">[table]</text>
<polygon fill="none" stroke="black" points="8,-227 8,-249 206,-249 206,-227 8,-227"/>
<image xlink:href="../../images/primaryKeys.png" width="11px" height="12px" preserveAspectRatio="xMinYMin meet" x="13" y="-244"/>
<text text-anchor="start" x="28" y="-235.2" font-family="Helvetica,sans-Serif" font-size="11.00">ad_table_id</text>
<polygon fill="none" stroke="black" points="8,-205 8,-227 206,-227 206,-205 8,-205"/>
<image xlink:href="../../images/foreignKeys.png" width="11px" height="12px" preserveAspectRatio="xMinYMin meet" x="13" y="-222"/>
<text text-anchor="start" x="28" y="-213.2" font-family="Helvetica,sans-Serif" font-size="11.00">ad_client_id</text>
<polygon fill="none" stroke="black" points="8,-183 8,-205 206,-205 206,-183 8,-183"/>
<image xlink:href="../../images/foreignKeys.png" width="11px" height="12px" preserveAspectRatio="xMinYMin meet" x="13" y="-200"/>
<text text-anchor="start" x="28" y="-191.2" font-family="Helvetica,sans-Serif" font-size="11.00">ad_org_id</text>
<polygon fill="none" stroke="black" points="8,-161 8,-183 206,-183 206,-161 8,-161"/>
<image xlink:href="../../images/foreignKeys.png" width="11px" height="12px" preserveAspectRatio="xMinYMin meet" x="13" y="-178"/>
<text text-anchor="start" x="28" y="-169.2" font-family="Helvetica,sans-Serif" font-size="11.00">entitytype</text>
<polygon fill="none" stroke="black" points="8,-139 8,-161 206,-161 206,-139 8,-139"/>
<image xlink:href="../../images/foreignKeys.png" width="11px" height="12px" preserveAspectRatio="xMinYMin meet" x="13" y="-156"/>
<text text-anchor="start" x="28" y="-147.2" font-family="Helvetica,sans-Serif" font-size="11.00">ad_window_id</text>
<polygon fill="none" stroke="black" points="8,-117 8,-139 206,-139 206,-117 8,-117"/>
<image xlink:href="../../images/foreignKeys.png" width="11px" height="12px" preserveAspectRatio="xMinYMin meet" x="13" y="-134"/>
<text text-anchor="start" x="28" y="-125.2" font-family="Helvetica,sans-Serif" font-size="11.00">ad_val_rule_id</text>
<polygon fill="none" stroke="black" points="8,-95 8,-117 206,-117 206,-95 8,-95"/>
<image xlink:href="../../images/foreignKeys.png" width="11px" height="12px" preserveAspectRatio="xMinYMin meet" x="13" y="-112"/>
<text text-anchor="start" x="28" y="-103.2" font-family="Helvetica,sans-Serif" font-size="11.00">po_window_id</text>
<polygon fill="#ffffff" stroke="transparent" points="8,-73 8,-95 206,-95 206,-73 8,-73"/>
<polygon fill="none" stroke="black" points="8,-73 8,-95 206,-95 206,-73 8,-73"/>
<text text-anchor="start" x="28" y="-81.2" font-family="Helvetica,sans-Serif" font-size="11.00">ad_table_uu</text>
<polygon fill="none" stroke="black" points="8,-55 8,-73 206,-73 206,-55 8,-55"/>
<text text-anchor="start" x="11" y="-61.2" font-family="Helvetica,sans-Serif" font-size="11.00">...</text>
<polygon fill="#ffffff" stroke="transparent" points="8,-37 8,-55 74,-55 74,-37 8,-37"/>
<polygon fill="none" stroke="black" points="8,-37 8,-55 74,-55 74,-37 8,-37"/>
<text text-anchor="start" x="11" y="-43.2" font-family="Helvetica,sans-Serif" font-size="11.00">&lt; 6</text>
<polygon fill="#ffffff" stroke="transparent" points="74,-37 74,-55 156,-55 156,-37 74,-37"/>
<polygon fill="none" stroke="black" points="74,-37 74,-55 156,-55 156,-37 74,-37"/>
<text text-anchor="start" x="99" y="-43.2" font-family="Helvetica,sans-Serif" font-size="11.00">1.363 rows</text>
<polygon fill="#ffffff" stroke="transparent" points="156,-37 156,-55 206,-55 206,-37 156,-37"/>
<polygon fill="none" stroke="black" points="156,-37 156,-55 206,-55 206,-37 156,-37"/>
<text text-anchor="start" x="181" y="-43.2" font-family="Helvetica,sans-Serif" font-size="11.00">77 &gt;</text>
</a>
</g>
</g>
<!-- ad_labelassignment&#45;&gt;ad_table -->
<g id="edge2" class="edge">
<title>ad_labelassignment:w&#45;&gt;ad_table:e</title>
<path fill="none" stroke="black" d="M242.69,-305.28C224.83,-289.26 239.77,-238 207,-238"/>
<polygon fill="black" stroke="black" points="248.93,-307.41 255.33,-313.41 252.72,-308.71 256.5,-310 256.5,-310 256.5,-310 252.72,-308.71 257.67,-306.59 248.93,-307.41 248.93,-307.41"/>
<ellipse fill="none" stroke="black" cx="245.9" cy="-306.37" rx="3.2" ry="3.2"/>
</g>
</g>
</svg>
