<?xml version="1.0" encoding="UTF-8" standalone="no"?>
<!DOCTYPE svg PUBLIC "-//W3C//DTD SVG 1.1//EN"
 "http://www.w3.org/Graphics/SVG/1.1/DTD/svg11.dtd">
<!-- Generated by graphviz version 2.43.0 (0)
 -->
<!-- Title: oneDegreeRelationshipsDiagram Pages: 1 -->
<svg width="521pt" height="445pt"
 viewBox="0.00 0.00 521.00 445.00" xmlns="http://www.w3.org/2000/svg" xmlns:xlink="http://www.w3.org/1999/xlink">
<g id="graph0" class="graph" transform="scale(1 1) rotate(0) translate(4 441)">
<title>oneDegreeRelationshipsDiagram</title>
<polygon fill="#ffffff" stroke="transparent" points="-4,4 -4,-441 517,-441 517,4 -4,4"/>
<text text-anchor="middle" x="71.5" y="-7.2" font-family="Helvetica,sans-Serif" font-size="11.00">Generated by SchemaSpy</text>
<!-- ad_ldapprocessorlog -->
<g id="node1" class="node">
<title>ad_ldapprocessorlog</title>
<g id="a_node1"><a xlink:href="../../tables/ad_ldapprocessorlog.html" xlink:title="ad_ldapprocessorlog" target="_top">
<polygon fill="#ffffff" stroke="transparent" points="219,-37 219,-433 505,-433 505,-37 219,-37"/>
<polygon fill="#f5f5f5" stroke="transparent" points="221,-409 221,-431 503,-431 503,-409 221,-409"/>
<polygon fill="none" stroke="black" points="221,-409 221,-431 503,-431 503,-409 221,-409"/>
<text text-anchor="start" x="226" y="-418.2" font-family="Helvetica,sans-Serif" font-weight="bold" font-size="11.00">ad_ldapprocessorlog</text>
<text text-anchor="start" x="468" y="-417.2" font-family="Helvetica,sans-Serif" font-size="11.00">[table]</text>
<polygon fill="none" stroke="black" points="221,-387 221,-409 404,-409 404,-387 221,-387"/>
<image xlink:href="../../images/primaryKeys.png" width="11px" height="12px" preserveAspectRatio="xMinYMin meet" x="226" y="-404"/>
<text text-anchor="start" x="241" y="-395.2" font-family="Helvetica,sans-Serif" font-size="11.00">ad_ldapprocessor_id</text>
<polygon fill="none" stroke="black" points="404,-387 404,-409 503,-409 503,-387 404,-387"/>
<text text-anchor="start" x="407" y="-395.2" font-family="Helvetica,sans-Serif" font-size="11.00">numeric[10]</text>
<polygon fill="none" stroke="black" points="221,-365 221,-387 404,-387 404,-365 221,-365"/>
<image xlink:href="../../images/primaryKeys.png" width="11px" height="12px" preserveAspectRatio="xMinYMin meet" x="226" y="-382"/>
<text text-anchor="start" x="241" y="-373.2" font-family="Helvetica,sans-Serif" font-size="11.00">ad_ldapprocessorlog_id</text>
<polygon fill="none" stroke="black" points="404,-365 404,-387 503,-387 503,-365 404,-365"/>
<text text-anchor="start" x="407" y="-373.2" font-family="Helvetica,sans-Serif" font-size="11.00">numeric[10]</text>
<polygon fill="none" stroke="black" points="221,-343 221,-365 404,-365 404,-343 221,-343"/>
<text text-anchor="start" x="241" y="-351.2" font-family="Helvetica,sans-Serif" font-size="11.00">ad_client_id</text>
<polygon fill="none" stroke="black" points="404,-343 404,-365 503,-365 503,-343 404,-343"/>
<text text-anchor="start" x="407" y="-351.2" font-family="Helvetica,sans-Serif" font-size="11.00">numeric[10]</text>
<polygon fill="none" stroke="black" points="221,-321 221,-343 404,-343 404,-321 221,-321"/>
<text text-anchor="start" x="241" y="-329.2" font-family="Helvetica,sans-Serif" font-size="11.00">ad_org_id</text>
<polygon fill="none" stroke="black" points="404,-321 404,-343 503,-343 503,-321 404,-321"/>
<text text-anchor="start" x="407" y="-329.2" font-family="Helvetica,sans-Serif" font-size="11.00">numeric[10]</text>
<polygon fill="none" stroke="black" points="221,-299 221,-321 404,-321 404,-299 221,-299"/>
<text text-anchor="start" x="241" y="-307.2" font-family="Helvetica,sans-Serif" font-size="11.00">isactive</text>
<polygon fill="none" stroke="black" points="404,-299 404,-321 503,-321 503,-299 404,-299"/>
<text text-anchor="start" x="407" y="-307.2" font-family="Helvetica,sans-Serif" font-size="11.00">bpchar[1]</text>
<polygon fill="none" stroke="black" points="221,-277 221,-299 404,-299 404,-277 221,-277"/>
<text text-anchor="start" x="241" y="-285.2" font-family="Helvetica,sans-Serif" font-size="11.00">created</text>
<polygon fill="none" stroke="black" points="404,-277 404,-299 503,-299 503,-277 404,-277"/>
<text text-anchor="start" x="407" y="-285.2" font-family="Helvetica,sans-Serif" font-size="11.00">timestamp[29,6]</text>
<polygon fill="none" stroke="black" points="221,-255 221,-277 404,-277 404,-255 221,-255"/>
<text text-anchor="start" x="241" y="-263.2" font-family="Helvetica,sans-Serif" font-size="11.00">createdby</text>
<polygon fill="none" stroke="black" points="404,-255 404,-277 503,-277 503,-255 404,-255"/>
<text text-anchor="start" x="407" y="-263.2" font-family="Helvetica,sans-Serif" font-size="11.00">numeric[10]</text>
<polygon fill="none" stroke="black" points="221,-233 221,-255 404,-255 404,-233 221,-233"/>
<text text-anchor="start" x="241" y="-241.2" font-family="Helvetica,sans-Serif" font-size="11.00">updated</text>
<polygon fill="none" stroke="black" points="404,-233 404,-255 503,-255 503,-233 404,-233"/>
<text text-anchor="start" x="407" y="-241.2" font-family="Helvetica,sans-Serif" font-size="11.00">timestamp[29,6]</text>
<polygon fill="none" stroke="black" points="221,-211 221,-233 404,-233 404,-211 221,-211"/>
<text text-anchor="start" x="241" y="-219.2" font-family="Helvetica,sans-Serif" font-size="11.00">updatedby</text>
<polygon fill="none" stroke="black" points="404,-211 404,-233 503,-233 503,-211 404,-211"/>
<text text-anchor="start" x="407" y="-219.2" font-family="Helvetica,sans-Serif" font-size="11.00">numeric[10]</text>
<polygon fill="none" stroke="black" points="221,-189 221,-211 404,-211 404,-189 221,-189"/>
<text text-anchor="start" x="241" y="-197.2" font-family="Helvetica,sans-Serif" font-size="11.00">summary</text>
<polygon fill="none" stroke="black" points="404,-189 404,-211 503,-211 503,-189 404,-189"/>
<text text-anchor="start" x="407" y="-197.2" font-family="Helvetica,sans-Serif" font-size="11.00">varchar[2000]</text>
<polygon fill="none" stroke="black" points="221,-167 221,-189 404,-189 404,-167 221,-167"/>
<text text-anchor="start" x="241" y="-175.2" font-family="Helvetica,sans-Serif" font-size="11.00">iserror</text>
<polygon fill="none" stroke="black" points="404,-167 404,-189 503,-189 503,-167 404,-167"/>
<text text-anchor="start" x="407" y="-175.2" font-family="Helvetica,sans-Serif" font-size="11.00">bpchar[1]</text>
<polygon fill="none" stroke="black" points="221,-145 221,-167 404,-167 404,-145 221,-145"/>
<text text-anchor="start" x="241" y="-153.2" font-family="Helvetica,sans-Serif" font-size="11.00">reference</text>
<polygon fill="none" stroke="black" points="404,-145 404,-167 503,-167 503,-145 404,-145"/>
<text text-anchor="start" x="407" y="-153.2" font-family="Helvetica,sans-Serif" font-size="11.00">varchar[60]</text>
<polygon fill="none" stroke="black" points="221,-123 221,-145 404,-145 404,-123 221,-123"/>
<text text-anchor="start" x="241" y="-131.2" font-family="Helvetica,sans-Serif" font-size="11.00">description</text>
<polygon fill="none" stroke="black" points="404,-123 404,-145 503,-145 503,-123 404,-123"/>
<text text-anchor="start" x="407" y="-131.2" font-family="Helvetica,sans-Serif" font-size="11.00">varchar[255]</text>
<polygon fill="none" stroke="black" points="221,-101 221,-123 404,-123 404,-101 221,-101"/>
<text text-anchor="start" x="241" y="-109.2" font-family="Helvetica,sans-Serif" font-size="11.00">textmsg</text>
<polygon fill="none" stroke="black" points="404,-101 404,-123 503,-123 503,-101 404,-101"/>
<text text-anchor="start" x="407" y="-109.2" font-family="Helvetica,sans-Serif" font-size="11.00">varchar[2000]</text>
<polygon fill="none" stroke="black" points="221,-79 221,-101 404,-101 404,-79 221,-79"/>
<text text-anchor="start" x="241" y="-87.2" font-family="Helvetica,sans-Serif" font-size="11.00">binarydata</text>
<polygon fill="none" stroke="black" points="404,-79 404,-101 503,-101 503,-79 404,-79"/>
<text text-anchor="start" x="407" y="-87.2" font-family="Helvetica,sans-Serif" font-size="11.00">bytea[2147483647]</text>
<polygon fill="#ffffff" stroke="transparent" points="221,-57 221,-79 404,-79 404,-57 221,-57"/>
<polygon fill="none" stroke="black" points="221,-57 221,-79 404,-79 404,-57 221,-57"/>
<text text-anchor="start" x="241" y="-65.2" font-family="Helvetica,sans-Serif" font-size="11.00">ad_ldapprocessorlog_uu</text>
<polygon fill="none" stroke="black" points="404,-57 404,-79 503,-79 503,-57 404,-57"/>
<text text-anchor="start" x="407" y="-65.2" font-family="Helvetica,sans-Serif" font-size="11.00">varchar[36]</text>
<polygon fill="#ffffff" stroke="transparent" points="221,-39 221,-57 304,-57 304,-39 221,-39"/>
<polygon fill="none" stroke="black" points="221,-39 221,-57 304,-57 304,-39 221,-39"/>
<text text-anchor="start" x="224" y="-45.2" font-family="Helvetica,sans-Serif" font-size="11.00">&lt; 1</text>
<polygon fill="#ffffff" stroke="transparent" points="304,-39 304,-57 404,-57 404,-39 304,-39"/>
<polygon fill="none" stroke="black" points="304,-39 304,-57 404,-57 404,-39 304,-39"/>
<text text-anchor="start" x="368" y="-45.2" font-family="Helvetica,sans-Serif" font-size="11.00">0 rows</text>
<polygon fill="#ffffff" stroke="transparent" points="404,-39 404,-57 503,-57 503,-39 404,-39"/>
<polygon fill="none" stroke="black" points="404,-39 404,-57 503,-57 503,-39 404,-39"/>
<text text-anchor="start" x="484" y="-45.2" font-family="Helvetica,sans-Serif" font-size="11.00">0 &gt;</text>
<polygon fill="none" stroke="black" stroke-width="2" points="220,-38 220,-432 504,-432 504,-38 220,-38"/>
</a>
</g>
</g>
<!-- ad_ldapprocessor -->
<g id="node2" class="node">
<title>ad_ldapprocessor</title>
<g id="a_node2"><a xlink:href="../../tables/ad_ldapprocessor.html" xlink:title="ad_ldapprocessor" target="_top">
<polygon fill="#ffffff" stroke="transparent" points="8,-285 8,-431 170,-431 170,-285 8,-285"/>
<polygon fill="#f5f5f5" stroke="transparent" points="8,-409 8,-431 170,-431 170,-409 8,-409"/>
<polygon fill="none" stroke="black" points="8,-409 8,-431 170,-431 170,-409 8,-409"/>
<text text-anchor="start" x="13" y="-418.2" font-family="Helvetica,sans-Serif" font-weight="bold" font-size="11.00">ad_ldapprocessor</text>
<text text-anchor="start" x="135" y="-417.2" font-family="Helvetica,sans-Serif" font-size="11.00">[table]</text>
<polygon fill="none" stroke="black" points="8,-387 8,-409 170,-409 170,-387 8,-387"/>
<image xlink:href="../../images/primaryKeys.png" width="11px" height="12px" preserveAspectRatio="xMinYMin meet" x="13" y="-404"/>
<text text-anchor="start" x="28" y="-395.2" font-family="Helvetica,sans-Serif" font-size="11.00">ad_ldapprocessor_id</text>
<polygon fill="#ffffff" stroke="transparent" points="8,-365 8,-387 170,-387 170,-365 8,-365"/>
<polygon fill="none" stroke="black" points="8,-365 8,-387 170,-387 170,-365 8,-365"/>
<text text-anchor="start" x="28" y="-373.2" font-family="Helvetica,sans-Serif" font-size="11.00">ldapport</text>
<polygon fill="none" stroke="black" points="8,-343 8,-365 170,-365 170,-343 8,-343"/>
<image xlink:href="../../images/foreignKeys.png" width="11px" height="12px" preserveAspectRatio="xMinYMin meet" x="13" y="-360"/>
<text text-anchor="start" x="28" y="-351.2" font-family="Helvetica,sans-Serif" font-size="11.00">supervisor_id</text>
<polygon fill="#ffffff" stroke="transparent" points="8,-321 8,-343 170,-343 170,-321 8,-321"/>
<polygon fill="none" stroke="black" points="8,-321 8,-343 170,-343 170,-321 8,-321"/>
<text text-anchor="start" x="28" y="-329.2" font-family="Helvetica,sans-Serif" font-size="11.00">ad_ldapprocessor_uu</text>
<polygon fill="none" stroke="black" points="8,-303 8,-321 170,-321 170,-303 8,-303"/>
<text text-anchor="start" x="11" y="-309.2" font-family="Helvetica,sans-Serif" font-size="11.00">...</text>
<polygon fill="#ffffff" stroke="transparent" points="8,-285 8,-303 72,-303 72,-285 8,-285"/>
<polygon fill="none" stroke="black" points="8,-285 8,-303 72,-303 72,-285 8,-285"/>
<text text-anchor="start" x="11" y="-291.2" font-family="Helvetica,sans-Serif" font-size="11.00">&lt; 1</text>
<polygon fill="#ffffff" stroke="transparent" points="72,-285 72,-303 127,-303 127,-285 72,-285"/>
<polygon fill="none" stroke="black" points="72,-285 72,-303 127,-303 127,-285 72,-285"/>
<text text-anchor="start" x="96" y="-291.2" font-family="Helvetica,sans-Serif" font-size="11.00">1 row</text>
<polygon fill="#ffffff" stroke="transparent" points="127,-285 127,-303 170,-303 170,-285 127,-285"/>
<polygon fill="none" stroke="black" points="127,-285 127,-303 170,-303 170,-285 127,-285"/>
<text text-anchor="start" x="151" y="-291.2" font-family="Helvetica,sans-Serif" font-size="11.00">2 &gt;</text>
</a>
</g>
</g>
<!-- ad_ldapprocessorlog&#45;&gt;ad_ldapprocessor -->
<g id="edge1" class="edge">
<title>ad_ldapprocessorlog:w&#45;&gt;ad_ldapprocessor:e</title>
<path fill="none" stroke="black" d="M205.49,-398C194.18,-398 186.99,-398 171,-398"/>
<polygon fill="black" stroke="black" points="212,-398 220,-401.6 216,-398 220,-398 220,-398 220,-398 216,-398 220,-394.4 212,-398 212,-398"/>
<ellipse fill="none" stroke="black" cx="208.8" cy="-398" rx="3.2" ry="3.2"/>
</g>
</g>
</svg>
