<?xml version="1.0" encoding="UTF-8" standalone="no"?>
<!DOCTYPE svg PUBLIC "-//W3C//DTD SVG 1.1//EN"
 "http://www.w3.org/Graphics/SVG/1.1/DTD/svg11.dtd">
<!-- Generated by graphviz version 2.43.0 (0)
 -->
<!-- Title: oneDegreeRelationshipsDiagram Pages: 1 -->
<svg width="298pt" height="555pt"
 viewBox="0.00 0.00 298.00 555.00" xmlns="http://www.w3.org/2000/svg" xmlns:xlink="http://www.w3.org/1999/xlink">
<g id="graph0" class="graph" transform="scale(1 1) rotate(0) translate(4 551)">
<title>oneDegreeRelationshipsDiagram</title>
<polygon fill="#ffffff" stroke="transparent" points="-4,4 -4,-551 294,-551 294,4 -4,4"/>
<text text-anchor="middle" x="71.5" y="-7.2" font-family="Helvetica,sans-Serif" font-size="11.00">Generated by SchemaSpy</text>
<!-- ad_migrationscript -->
<g id="node1" class="node">
<title>ad_migrationscript</title>
<g id="a_node1"><a xlink:href="../../tables/ad_migrationscript.html" xlink:title="ad_migrationscript" target="_top">
<polygon fill="#ffffff" stroke="transparent" points="8,-37 8,-543 282,-543 282,-37 8,-37"/>
<polygon fill="#f5f5f5" stroke="transparent" points="10,-519 10,-541 280,-541 280,-519 10,-519"/>
<polygon fill="none" stroke="black" points="10,-519 10,-541 280,-541 280,-519 10,-519"/>
<text text-anchor="start" x="15" y="-528.2" font-family="Helvetica,sans-Serif" font-weight="bold" font-size="11.00">ad_migrationscript</text>
<text text-anchor="start" x="245" y="-527.2" font-family="Helvetica,sans-Serif" font-size="11.00">[table]</text>
<polygon fill="none" stroke="black" points="10,-497 10,-519 181,-519 181,-497 10,-497"/>
<text text-anchor="start" x="30" y="-505.2" font-family="Helvetica,sans-Serif" font-size="11.00">ad_client_id</text>
<polygon fill="none" stroke="black" points="181,-497 181,-519 280,-519 280,-497 181,-497"/>
<text text-anchor="start" x="184" y="-505.2" font-family="Helvetica,sans-Serif" font-size="11.00">numeric[10]</text>
<polygon fill="none" stroke="black" points="10,-475 10,-497 181,-497 181,-475 10,-475"/>
<image xlink:href="../../images/primaryKeys.png" width="11px" height="12px" preserveAspectRatio="xMinYMin meet" x="15" y="-492"/>
<text text-anchor="start" x="30" y="-483.2" font-family="Helvetica,sans-Serif" font-size="11.00">ad_migrationscript_id</text>
<polygon fill="none" stroke="black" points="181,-475 181,-497 280,-497 280,-475 181,-475"/>
<text text-anchor="start" x="184" y="-483.2" font-family="Helvetica,sans-Serif" font-size="11.00">numeric[10]</text>
<polygon fill="none" stroke="black" points="10,-453 10,-475 181,-475 181,-453 10,-453"/>
<text text-anchor="start" x="30" y="-461.2" font-family="Helvetica,sans-Serif" font-size="11.00">ad_org_id</text>
<polygon fill="none" stroke="black" points="181,-453 181,-475 280,-475 280,-453 181,-453"/>
<text text-anchor="start" x="184" y="-461.2" font-family="Helvetica,sans-Serif" font-size="11.00">numeric[10]</text>
<polygon fill="none" stroke="black" points="10,-431 10,-453 181,-453 181,-431 10,-431"/>
<text text-anchor="start" x="30" y="-439.2" font-family="Helvetica,sans-Serif" font-size="11.00">created</text>
<polygon fill="none" stroke="black" points="181,-431 181,-453 280,-453 280,-431 181,-431"/>
<text text-anchor="start" x="184" y="-439.2" font-family="Helvetica,sans-Serif" font-size="11.00">timestamp[29,6]</text>
<polygon fill="none" stroke="black" points="10,-409 10,-431 181,-431 181,-409 10,-409"/>
<text text-anchor="start" x="30" y="-417.2" font-family="Helvetica,sans-Serif" font-size="11.00">createdby</text>
<polygon fill="none" stroke="black" points="181,-409 181,-431 280,-431 280,-409 181,-409"/>
<text text-anchor="start" x="184" y="-417.2" font-family="Helvetica,sans-Serif" font-size="11.00">numeric[10]</text>
<polygon fill="none" stroke="black" points="10,-387 10,-409 181,-409 181,-387 10,-387"/>
<text text-anchor="start" x="30" y="-395.2" font-family="Helvetica,sans-Serif" font-size="11.00">description</text>
<polygon fill="none" stroke="black" points="181,-387 181,-409 280,-409 280,-387 181,-387"/>
<text text-anchor="start" x="184" y="-395.2" font-family="Helvetica,sans-Serif" font-size="11.00">varchar[2000]</text>
<polygon fill="none" stroke="black" points="10,-365 10,-387 181,-387 181,-365 10,-365"/>
<text text-anchor="start" x="30" y="-373.2" font-family="Helvetica,sans-Serif" font-size="11.00">developername</text>
<polygon fill="none" stroke="black" points="181,-365 181,-387 280,-387 280,-365 181,-365"/>
<text text-anchor="start" x="184" y="-373.2" font-family="Helvetica,sans-Serif" font-size="11.00">varchar[60]</text>
<polygon fill="none" stroke="black" points="10,-343 10,-365 181,-365 181,-343 10,-343"/>
<text text-anchor="start" x="30" y="-351.2" font-family="Helvetica,sans-Serif" font-size="11.00">isactive</text>
<polygon fill="none" stroke="black" points="181,-343 181,-365 280,-365 280,-343 181,-343"/>
<text text-anchor="start" x="184" y="-351.2" font-family="Helvetica,sans-Serif" font-size="11.00">bpchar[1]</text>
<polygon fill="none" stroke="black" points="10,-321 10,-343 181,-343 181,-321 10,-321"/>
<text text-anchor="start" x="30" y="-329.2" font-family="Helvetica,sans-Serif" font-size="11.00">name</text>
<polygon fill="none" stroke="black" points="181,-321 181,-343 280,-343 280,-321 181,-321"/>
<text text-anchor="start" x="184" y="-329.2" font-family="Helvetica,sans-Serif" font-size="11.00">varchar[60]</text>
<polygon fill="none" stroke="black" points="10,-299 10,-321 181,-321 181,-299 10,-299"/>
<text text-anchor="start" x="30" y="-307.2" font-family="Helvetica,sans-Serif" font-size="11.00">projectname</text>
<polygon fill="none" stroke="black" points="181,-299 181,-321 280,-321 280,-299 181,-299"/>
<text text-anchor="start" x="184" y="-307.2" font-family="Helvetica,sans-Serif" font-size="11.00">varchar[60]</text>
<polygon fill="none" stroke="black" points="10,-277 10,-299 181,-299 181,-277 10,-277"/>
<text text-anchor="start" x="30" y="-285.2" font-family="Helvetica,sans-Serif" font-size="11.00">reference</text>
<polygon fill="none" stroke="black" points="181,-277 181,-299 280,-299 280,-277 181,-277"/>
<text text-anchor="start" x="184" y="-285.2" font-family="Helvetica,sans-Serif" font-size="11.00">varchar[2000]</text>
<polygon fill="none" stroke="black" points="10,-255 10,-277 181,-277 181,-255 10,-255"/>
<text text-anchor="start" x="30" y="-263.2" font-family="Helvetica,sans-Serif" font-size="11.00">releaseno</text>
<polygon fill="none" stroke="black" points="181,-255 181,-277 280,-277 280,-255 181,-255"/>
<text text-anchor="start" x="184" y="-263.2" font-family="Helvetica,sans-Serif" font-size="11.00">varchar[10]</text>
<polygon fill="none" stroke="black" points="10,-233 10,-255 181,-255 181,-233 10,-233"/>
<text text-anchor="start" x="30" y="-241.2" font-family="Helvetica,sans-Serif" font-size="11.00">scriptroll</text>
<polygon fill="none" stroke="black" points="181,-233 181,-255 280,-255 280,-233 181,-233"/>
<text text-anchor="start" x="184" y="-241.2" font-family="Helvetica,sans-Serif" font-size="11.00">bpchar[1]</text>
<polygon fill="none" stroke="black" points="10,-211 10,-233 181,-233 181,-211 10,-211"/>
<text text-anchor="start" x="30" y="-219.2" font-family="Helvetica,sans-Serif" font-size="11.00">status</text>
<polygon fill="none" stroke="black" points="181,-211 181,-233 280,-233 280,-211 181,-211"/>
<text text-anchor="start" x="184" y="-219.2" font-family="Helvetica,sans-Serif" font-size="11.00">bpchar[2]</text>
<polygon fill="none" stroke="black" points="10,-189 10,-211 181,-211 181,-189 10,-189"/>
<text text-anchor="start" x="30" y="-197.2" font-family="Helvetica,sans-Serif" font-size="11.00">url</text>
<polygon fill="none" stroke="black" points="181,-189 181,-211 280,-211 280,-189 181,-189"/>
<text text-anchor="start" x="184" y="-197.2" font-family="Helvetica,sans-Serif" font-size="11.00">varchar[2000]</text>
<polygon fill="none" stroke="black" points="10,-167 10,-189 181,-189 181,-167 10,-167"/>
<text text-anchor="start" x="30" y="-175.2" font-family="Helvetica,sans-Serif" font-size="11.00">updated</text>
<polygon fill="none" stroke="black" points="181,-167 181,-189 280,-189 280,-167 181,-167"/>
<text text-anchor="start" x="184" y="-175.2" font-family="Helvetica,sans-Serif" font-size="11.00">timestamp[29,6]</text>
<polygon fill="none" stroke="black" points="10,-145 10,-167 181,-167 181,-145 10,-145"/>
<text text-anchor="start" x="30" y="-153.2" font-family="Helvetica,sans-Serif" font-size="11.00">updatedby</text>
<polygon fill="none" stroke="black" points="181,-145 181,-167 280,-167 280,-145 181,-145"/>
<text text-anchor="start" x="184" y="-153.2" font-family="Helvetica,sans-Serif" font-size="11.00">numeric[10]</text>
<polygon fill="none" stroke="black" points="10,-123 10,-145 181,-145 181,-123 10,-123"/>
<text text-anchor="start" x="30" y="-131.2" font-family="Helvetica,sans-Serif" font-size="11.00">isapply</text>
<polygon fill="none" stroke="black" points="181,-123 181,-145 280,-145 280,-123 181,-123"/>
<text text-anchor="start" x="184" y="-131.2" font-family="Helvetica,sans-Serif" font-size="11.00">bpchar[1]</text>
<polygon fill="none" stroke="black" points="10,-101 10,-123 181,-123 181,-101 10,-101"/>
<text text-anchor="start" x="30" y="-109.2" font-family="Helvetica,sans-Serif" font-size="11.00">filename</text>
<polygon fill="none" stroke="black" points="181,-101 181,-123 280,-123 280,-101 181,-101"/>
<text text-anchor="start" x="184" y="-109.2" font-family="Helvetica,sans-Serif" font-size="11.00">varchar[500]</text>
<polygon fill="none" stroke="black" points="10,-79 10,-101 181,-101 181,-79 10,-79"/>
<text text-anchor="start" x="30" y="-87.2" font-family="Helvetica,sans-Serif" font-size="11.00">script</text>
<polygon fill="none" stroke="black" points="181,-79 181,-101 280,-101 280,-79 181,-79"/>
<text text-anchor="start" x="184" y="-87.2" font-family="Helvetica,sans-Serif" font-size="11.00">bytea[2147483647]</text>
<polygon fill="#ffffff" stroke="transparent" points="10,-57 10,-79 181,-79 181,-57 10,-57"/>
<polygon fill="none" stroke="black" points="10,-57 10,-79 181,-79 181,-57 10,-57"/>
<text text-anchor="start" x="30" y="-65.2" font-family="Helvetica,sans-Serif" font-size="11.00">ad_migrationscript_uu</text>
<polygon fill="none" stroke="black" points="181,-57 181,-79 280,-79 280,-57 181,-57"/>
<text text-anchor="start" x="184" y="-65.2" font-family="Helvetica,sans-Serif" font-size="11.00">varchar[36]</text>
<polygon fill="#ffffff" stroke="transparent" points="10,-39 10,-57 76,-57 76,-39 10,-39"/>
<polygon fill="none" stroke="black" points="10,-39 10,-57 76,-57 76,-39 10,-39"/>
<text text-anchor="start" x="13" y="-45.2" font-family="Helvetica,sans-Serif" font-size="11.00">&lt; 0</text>
<polygon fill="#ffffff" stroke="transparent" points="76,-39 76,-57 181,-57 181,-39 76,-39"/>
<polygon fill="none" stroke="black" points="76,-39 76,-57 181,-57 181,-39 76,-39"/>
<text text-anchor="start" x="124" y="-45.2" font-family="Helvetica,sans-Serif" font-size="11.00">3.619 rows</text>
<polygon fill="#ffffff" stroke="transparent" points="181,-39 181,-57 280,-57 280,-39 181,-39"/>
<polygon fill="none" stroke="black" points="181,-39 181,-57 280,-57 280,-39 181,-39"/>
<text text-anchor="start" x="261" y="-45.2" font-family="Helvetica,sans-Serif" font-size="11.00">0 &gt;</text>
<polygon fill="none" stroke="black" stroke-width="2" points="9,-38 9,-542 281,-542 281,-38 9,-38"/>
</a>
</g>
</g>
</g>
</svg>
