<?xml version="1.0" encoding="UTF-8" standalone="no"?>
<!DOCTYPE svg PUBLIC "-//W3C//DTD SVG 1.1//EN"
 "http://www.w3.org/Graphics/SVG/1.1/DTD/svg11.dtd">
<!-- Generated by graphviz version 2.43.0 (0)
 -->
<!-- Title: oneDegreeRelationshipsDiagram Pages: 1 -->
<svg width="564pt" height="637pt"
 viewBox="0.00 0.00 564.00 637.00" xmlns="http://www.w3.org/2000/svg" xmlns:xlink="http://www.w3.org/1999/xlink">
<g id="graph0" class="graph" transform="scale(1 1) rotate(0) translate(4 633)">
<title>oneDegreeRelationshipsDiagram</title>
<polygon fill="#ffffff" stroke="transparent" points="-4,4 -4,-633 560,-633 560,4 -4,4"/>
<text text-anchor="middle" x="71.5" y="-7.2" font-family="Helvetica,sans-Serif" font-size="11.00">Generated by SchemaSpy</text>
<!-- ad_package_imp_detail -->
<g id="node1" class="node">
<title>ad_package_imp_detail</title>
<g id="a_node1"><a xlink:href="../../tables/ad_package_imp_detail.html" xlink:title="ad_package_imp_detail" target="_top">
<polygon fill="#ffffff" stroke="transparent" points="255,-119 255,-625 548,-625 548,-119 255,-119"/>
<polygon fill="#f5f5f5" stroke="transparent" points="257.5,-601 257.5,-623 546.5,-623 546.5,-601 257.5,-601"/>
<polygon fill="none" stroke="black" points="257.5,-601 257.5,-623 546.5,-623 546.5,-601 257.5,-601"/>
<text text-anchor="start" x="262.5" y="-610.2" font-family="Helvetica,sans-Serif" font-weight="bold" font-size="11.00">ad_package_imp_detail</text>
<text text-anchor="start" x="511.5" y="-609.2" font-family="Helvetica,sans-Serif" font-size="11.00">[table]</text>
<polygon fill="none" stroke="black" points="257.5,-579 257.5,-601 456.5,-601 456.5,-579 257.5,-579"/>
<image xlink:href="../../images/primaryKeys.png" width="11px" height="12px" preserveAspectRatio="xMinYMin meet" x="262.5" y="-596"/>
<text text-anchor="start" x="277.5" y="-587.2" font-family="Helvetica,sans-Serif" font-size="11.00">ad_package_imp_detail_id</text>
<polygon fill="none" stroke="black" points="456.5,-579 456.5,-601 546.5,-601 546.5,-579 456.5,-579"/>
<text text-anchor="start" x="459.5" y="-587.2" font-family="Helvetica,sans-Serif" font-size="11.00">numeric[10]</text>
<polygon fill="none" stroke="black" points="257.5,-557 257.5,-579 456.5,-579 456.5,-557 257.5,-557"/>
<text text-anchor="start" x="277.5" y="-565.2" font-family="Helvetica,sans-Serif" font-size="11.00">ad_client_id</text>
<polygon fill="none" stroke="black" points="456.5,-557 456.5,-579 546.5,-579 546.5,-557 456.5,-557"/>
<text text-anchor="start" x="459.5" y="-565.2" font-family="Helvetica,sans-Serif" font-size="11.00">numeric[10]</text>
<polygon fill="none" stroke="black" points="257.5,-535 257.5,-557 456.5,-557 456.5,-535 257.5,-535"/>
<text text-anchor="start" x="277.5" y="-543.2" font-family="Helvetica,sans-Serif" font-size="11.00">ad_org_id</text>
<polygon fill="none" stroke="black" points="456.5,-535 456.5,-557 546.5,-557 546.5,-535 456.5,-535"/>
<text text-anchor="start" x="459.5" y="-543.2" font-family="Helvetica,sans-Serif" font-size="11.00">numeric[10]</text>
<polygon fill="none" stroke="black" points="257.5,-513 257.5,-535 456.5,-535 456.5,-513 257.5,-513"/>
<text text-anchor="start" x="277.5" y="-521.2" font-family="Helvetica,sans-Serif" font-size="11.00">isactive</text>
<polygon fill="none" stroke="black" points="456.5,-513 456.5,-535 546.5,-535 546.5,-513 456.5,-513"/>
<text text-anchor="start" x="459.5" y="-521.2" font-family="Helvetica,sans-Serif" font-size="11.00">bpchar[1]</text>
<polygon fill="none" stroke="black" points="257.5,-491 257.5,-513 456.5,-513 456.5,-491 257.5,-491"/>
<text text-anchor="start" x="277.5" y="-499.2" font-family="Helvetica,sans-Serif" font-size="11.00">created</text>
<polygon fill="none" stroke="black" points="456.5,-491 456.5,-513 546.5,-513 546.5,-491 456.5,-491"/>
<text text-anchor="start" x="459.5" y="-499.2" font-family="Helvetica,sans-Serif" font-size="11.00">timestamp[29,6]</text>
<polygon fill="none" stroke="black" points="257.5,-469 257.5,-491 456.5,-491 456.5,-469 257.5,-469"/>
<text text-anchor="start" x="277.5" y="-477.2" font-family="Helvetica,sans-Serif" font-size="11.00">createdby</text>
<polygon fill="none" stroke="black" points="456.5,-469 456.5,-491 546.5,-491 546.5,-469 456.5,-469"/>
<text text-anchor="start" x="459.5" y="-477.2" font-family="Helvetica,sans-Serif" font-size="11.00">numeric[10]</text>
<polygon fill="none" stroke="black" points="257.5,-447 257.5,-469 456.5,-469 456.5,-447 257.5,-447"/>
<text text-anchor="start" x="277.5" y="-455.2" font-family="Helvetica,sans-Serif" font-size="11.00">updated</text>
<polygon fill="none" stroke="black" points="456.5,-447 456.5,-469 546.5,-469 546.5,-447 456.5,-447"/>
<text text-anchor="start" x="459.5" y="-455.2" font-family="Helvetica,sans-Serif" font-size="11.00">timestamp[29,6]</text>
<polygon fill="none" stroke="black" points="257.5,-425 257.5,-447 456.5,-447 456.5,-425 257.5,-425"/>
<text text-anchor="start" x="277.5" y="-433.2" font-family="Helvetica,sans-Serif" font-size="11.00">updatedby</text>
<polygon fill="none" stroke="black" points="456.5,-425 456.5,-447 546.5,-447 546.5,-425 456.5,-425"/>
<text text-anchor="start" x="459.5" y="-433.2" font-family="Helvetica,sans-Serif" font-size="11.00">numeric[10]</text>
<polygon fill="none" stroke="black" points="257.5,-403 257.5,-425 456.5,-425 456.5,-403 257.5,-403"/>
<text text-anchor="start" x="277.5" y="-411.2" font-family="Helvetica,sans-Serif" font-size="11.00">name</text>
<polygon fill="none" stroke="black" points="456.5,-403 456.5,-425 546.5,-425 546.5,-403 456.5,-403"/>
<text text-anchor="start" x="459.5" y="-411.2" font-family="Helvetica,sans-Serif" font-size="11.00">varchar[2000]</text>
<polygon fill="none" stroke="black" points="257.5,-381 257.5,-403 456.5,-403 456.5,-381 257.5,-381"/>
<image xlink:href="../../images/foreignKeys.png" width="11px" height="12px" preserveAspectRatio="xMinYMin meet" x="262.5" y="-398"/>
<text text-anchor="start" x="277.5" y="-389.2" font-family="Helvetica,sans-Serif" font-size="11.00">ad_package_imp_id</text>
<polygon fill="none" stroke="black" points="456.5,-381 456.5,-403 546.5,-403 546.5,-381 456.5,-381"/>
<text text-anchor="start" x="459.5" y="-389.2" font-family="Helvetica,sans-Serif" font-size="11.00">numeric[10]</text>
<polygon fill="none" stroke="black" points="257.5,-359 257.5,-381 456.5,-381 456.5,-359 257.5,-359"/>
<text text-anchor="start" x="277.5" y="-367.2" font-family="Helvetica,sans-Serif" font-size="11.00">record_id</text>
<polygon fill="none" stroke="black" points="456.5,-359 456.5,-381 546.5,-381 546.5,-359 456.5,-359"/>
<text text-anchor="start" x="459.5" y="-367.2" font-family="Helvetica,sans-Serif" font-size="11.00">numeric[10]</text>
<polygon fill="none" stroke="black" points="257.5,-337 257.5,-359 456.5,-359 456.5,-337 257.5,-337"/>
<text text-anchor="start" x="277.5" y="-345.2" font-family="Helvetica,sans-Serif" font-size="11.00">ad_backup_id</text>
<polygon fill="none" stroke="black" points="456.5,-337 456.5,-359 546.5,-359 546.5,-337 456.5,-337"/>
<text text-anchor="start" x="459.5" y="-345.2" font-family="Helvetica,sans-Serif" font-size="11.00">numeric[10]</text>
<polygon fill="none" stroke="black" points="257.5,-315 257.5,-337 456.5,-337 456.5,-315 257.5,-315"/>
<text text-anchor="start" x="277.5" y="-323.2" font-family="Helvetica,sans-Serif" font-size="11.00">action</text>
<polygon fill="none" stroke="black" points="456.5,-315 456.5,-337 546.5,-337 546.5,-315 456.5,-315"/>
<text text-anchor="start" x="459.5" y="-323.2" font-family="Helvetica,sans-Serif" font-size="11.00">varchar[20]</text>
<polygon fill="none" stroke="black" points="257.5,-293 257.5,-315 456.5,-315 456.5,-293 257.5,-293"/>
<text text-anchor="start" x="277.5" y="-301.2" font-family="Helvetica,sans-Serif" font-size="11.00">success</text>
<polygon fill="none" stroke="black" points="456.5,-293 456.5,-315 546.5,-315 546.5,-293 456.5,-293"/>
<text text-anchor="start" x="459.5" y="-301.2" font-family="Helvetica,sans-Serif" font-size="11.00">varchar[20]</text>
<polygon fill="none" stroke="black" points="257.5,-271 257.5,-293 456.5,-293 456.5,-271 257.5,-271"/>
<text text-anchor="start" x="277.5" y="-279.2" font-family="Helvetica,sans-Serif" font-size="11.00">type</text>
<polygon fill="none" stroke="black" points="456.5,-271 456.5,-293 546.5,-293 546.5,-271 456.5,-271"/>
<text text-anchor="start" x="459.5" y="-279.2" font-family="Helvetica,sans-Serif" font-size="11.00">varchar[60]</text>
<polygon fill="none" stroke="black" points="257.5,-249 257.5,-271 456.5,-271 456.5,-249 257.5,-249"/>
<text text-anchor="start" x="277.5" y="-257.2" font-family="Helvetica,sans-Serif" font-size="11.00">tablename</text>
<polygon fill="none" stroke="black" points="456.5,-249 456.5,-271 546.5,-271 546.5,-249 456.5,-249"/>
<text text-anchor="start" x="459.5" y="-257.2" font-family="Helvetica,sans-Serif" font-size="11.00">varchar[60]</text>
<polygon fill="none" stroke="black" points="257.5,-227 257.5,-249 456.5,-249 456.5,-227 257.5,-227"/>
<image xlink:href="../../images/foreignKeys.png" width="11px" height="12px" preserveAspectRatio="xMinYMin meet" x="262.5" y="-244"/>
<text text-anchor="start" x="277.5" y="-235.2" font-family="Helvetica,sans-Serif" font-size="11.00">ad_table_id</text>
<polygon fill="none" stroke="black" points="456.5,-227 456.5,-249 546.5,-249 546.5,-227 456.5,-227"/>
<text text-anchor="start" x="459.5" y="-235.2" font-family="Helvetica,sans-Serif" font-size="11.00">numeric[10]</text>
<polygon fill="none" stroke="black" points="257.5,-205 257.5,-227 456.5,-227 456.5,-205 257.5,-205"/>
<text text-anchor="start" x="277.5" y="-213.2" font-family="Helvetica,sans-Serif" font-size="11.00">uninstall</text>
<polygon fill="none" stroke="black" points="456.5,-205 456.5,-227 546.5,-227 546.5,-205 456.5,-205"/>
<text text-anchor="start" x="459.5" y="-213.2" font-family="Helvetica,sans-Serif" font-size="11.00">bpchar[1]</text>
<polygon fill="#ffffff" stroke="transparent" points="257.5,-183 257.5,-205 456.5,-205 456.5,-183 257.5,-183"/>
<polygon fill="none" stroke="black" points="257.5,-183 257.5,-205 456.5,-205 456.5,-183 257.5,-183"/>
<text text-anchor="start" x="277.5" y="-191.2" font-family="Helvetica,sans-Serif" font-size="11.00">ad_package_imp_detail_uu</text>
<polygon fill="none" stroke="black" points="456.5,-183 456.5,-205 546.5,-205 546.5,-183 456.5,-183"/>
<text text-anchor="start" x="459.5" y="-191.2" font-family="Helvetica,sans-Serif" font-size="11.00">varchar[36]</text>
<polygon fill="none" stroke="black" points="257.5,-161 257.5,-183 456.5,-183 456.5,-161 257.5,-161"/>
<text text-anchor="start" x="277.5" y="-169.2" font-family="Helvetica,sans-Serif" font-size="11.00">execcode</text>
<polygon fill="none" stroke="black" points="456.5,-161 456.5,-183 546.5,-183 546.5,-161 456.5,-161"/>
<text text-anchor="start" x="459.5" y="-169.2" font-family="Helvetica,sans-Serif" font-size="11.00">text[2147483647]</text>
<polygon fill="none" stroke="black" points="257.5,-139 257.5,-161 456.5,-161 456.5,-139 257.5,-139"/>
<text text-anchor="start" x="277.5" y="-147.2" font-family="Helvetica,sans-Serif" font-size="11.00">result</text>
<polygon fill="none" stroke="black" points="456.5,-139 456.5,-161 546.5,-161 546.5,-139 456.5,-139"/>
<text text-anchor="start" x="459.5" y="-147.2" font-family="Helvetica,sans-Serif" font-size="11.00">text[2147483647]</text>
<polygon fill="#ffffff" stroke="transparent" points="257.5,-121 257.5,-139 345.5,-139 345.5,-121 257.5,-121"/>
<polygon fill="none" stroke="black" points="257.5,-121 257.5,-139 345.5,-139 345.5,-121 257.5,-121"/>
<text text-anchor="start" x="260.5" y="-127.2" font-family="Helvetica,sans-Serif" font-size="11.00">&lt; 2</text>
<polygon fill="#ffffff" stroke="transparent" points="345.5,-121 345.5,-139 456.5,-139 456.5,-121 345.5,-121"/>
<polygon fill="none" stroke="black" points="345.5,-121 345.5,-139 456.5,-139 456.5,-121 345.5,-121"/>
<text text-anchor="start" x="414.5" y="-127.2" font-family="Helvetica,sans-Serif" font-size="11.00">34 rows</text>
<polygon fill="#ffffff" stroke="transparent" points="456.5,-121 456.5,-139 546.5,-139 546.5,-121 456.5,-121"/>
<polygon fill="none" stroke="black" points="456.5,-121 456.5,-139 546.5,-139 546.5,-121 456.5,-121"/>
<text text-anchor="start" x="527.5" y="-127.2" font-family="Helvetica,sans-Serif" font-size="11.00">0 &gt;</text>
<polygon fill="none" stroke="black" stroke-width="2" points="256,-120 256,-624 547,-624 547,-120 256,-120"/>
</a>
</g>
</g>
<!-- ad_package_imp -->
<g id="node2" class="node">
<title>ad_package_imp</title>
<g id="a_node2"><a xlink:href="../../tables/ad_package_imp.html" xlink:title="ad_package_imp" target="_top">
<polygon fill="#ffffff" stroke="transparent" points="14,-301 14,-425 200,-425 200,-301 14,-301"/>
<polygon fill="#f5f5f5" stroke="transparent" points="14,-403 14,-425 200,-425 200,-403 14,-403"/>
<polygon fill="none" stroke="black" points="14,-403 14,-425 200,-425 200,-403 14,-403"/>
<text text-anchor="start" x="19" y="-412.2" font-family="Helvetica,sans-Serif" font-weight="bold" font-size="11.00">ad_package_imp</text>
<text text-anchor="start" x="165" y="-411.2" font-family="Helvetica,sans-Serif" font-size="11.00">[table]</text>
<polygon fill="none" stroke="black" points="14,-381 14,-403 200,-403 200,-381 14,-381"/>
<image xlink:href="../../images/primaryKeys.png" width="11px" height="12px" preserveAspectRatio="xMinYMin meet" x="19" y="-398"/>
<text text-anchor="start" x="34" y="-389.2" font-family="Helvetica,sans-Serif" font-size="11.00">ad_package_imp_id</text>
<polygon fill="#ffffff" stroke="transparent" points="14,-359 14,-381 200,-381 200,-359 14,-359"/>
<polygon fill="none" stroke="black" points="14,-359 14,-381 200,-381 200,-359 14,-359"/>
<text text-anchor="start" x="34" y="-367.2" font-family="Helvetica,sans-Serif" font-size="11.00">ad_package_imp_uu</text>
<polygon fill="none" stroke="black" points="14,-337 14,-359 200,-359 200,-337 14,-337"/>
<image xlink:href="../../images/foreignKeys.png" width="11px" height="12px" preserveAspectRatio="xMinYMin meet" x="19" y="-354"/>
<text text-anchor="start" x="34" y="-345.2" font-family="Helvetica,sans-Serif" font-size="11.00">ad_package_imp_proc_id</text>
<polygon fill="none" stroke="black" points="14,-319 14,-337 200,-337 200,-319 14,-319"/>
<text text-anchor="start" x="17" y="-325.2" font-family="Helvetica,sans-Serif" font-size="11.00">...</text>
<polygon fill="#ffffff" stroke="transparent" points="14,-301 14,-319 87,-319 87,-301 14,-301"/>
<polygon fill="none" stroke="black" points="14,-301 14,-319 87,-319 87,-301 14,-301"/>
<text text-anchor="start" x="17" y="-307.2" font-family="Helvetica,sans-Serif" font-size="11.00">&lt; 1</text>
<polygon fill="#ffffff" stroke="transparent" points="87,-301 87,-319 152,-319 152,-301 87,-301"/>
<polygon fill="none" stroke="black" points="87,-301 87,-319 152,-319 152,-301 87,-301"/>
<text text-anchor="start" x="116" y="-307.2" font-family="Helvetica,sans-Serif" font-size="11.00">6 rows</text>
<polygon fill="#ffffff" stroke="transparent" points="152,-301 152,-319 200,-319 200,-301 152,-301"/>
<polygon fill="none" stroke="black" points="152,-301 152,-319 200,-319 200,-301 152,-301"/>
<text text-anchor="start" x="181" y="-307.2" font-family="Helvetica,sans-Serif" font-size="11.00">1 &gt;</text>
</a>
</g>
</g>
<!-- ad_package_imp_detail&#45;&gt;ad_package_imp -->
<g id="edge1" class="edge">
<title>ad_package_imp_detail:w&#45;&gt;ad_package_imp:e</title>
<path fill="none" stroke="black" d="M241.73,-392C227.93,-392 219.89,-392 201,-392"/>
<polygon fill="black" stroke="black" points="248.5,-392 256.5,-395.6 252.5,-392 256.5,-392 256.5,-392 256.5,-392 252.5,-392 256.5,-388.4 248.5,-392 248.5,-392"/>
<ellipse fill="none" stroke="black" cx="245.3" cy="-392" rx="3.2" ry="3.2"/>
</g>
<!-- ad_table -->
<g id="node3" class="node">
<title>ad_table</title>
<g id="a_node3"><a xlink:href="../../tables/ad_table.html" xlink:title="ad_table" target="_top">
<polygon fill="#ffffff" stroke="transparent" points="8,-37 8,-271 206,-271 206,-37 8,-37"/>
<polygon fill="#f5f5f5" stroke="transparent" points="8,-249 8,-271 206,-271 206,-249 8,-249"/>
<polygon fill="none" stroke="black" points="8,-249 8,-271 206,-271 206,-249 8,-249"/>
<text text-anchor="start" x="13" y="-258.2" font-family="Helvetica,sans-Serif" font-weight="bold" font-size="11.00">ad_table</text>
<text text-anchor="start" x="171" y="-257.2" font-family="Helvetica,sans-Serif" font-size="11.00">[table]</text>
<polygon fill="none" stroke="black" points="8,-227 8,-249 206,-249 206,-227 8,-227"/>
<image xlink:href="../../images/primaryKeys.png" width="11px" height="12px" preserveAspectRatio="xMinYMin meet" x="13" y="-244"/>
<text text-anchor="start" x="28" y="-235.2" font-family="Helvetica,sans-Serif" font-size="11.00">ad_table_id</text>
<polygon fill="none" stroke="black" points="8,-205 8,-227 206,-227 206,-205 8,-205"/>
<image xlink:href="../../images/foreignKeys.png" width="11px" height="12px" preserveAspectRatio="xMinYMin meet" x="13" y="-222"/>
<text text-anchor="start" x="28" y="-213.2" font-family="Helvetica,sans-Serif" font-size="11.00">ad_client_id</text>
<polygon fill="none" stroke="black" points="8,-183 8,-205 206,-205 206,-183 8,-183"/>
<image xlink:href="../../images/foreignKeys.png" width="11px" height="12px" preserveAspectRatio="xMinYMin meet" x="13" y="-200"/>
<text text-anchor="start" x="28" y="-191.2" font-family="Helvetica,sans-Serif" font-size="11.00">ad_org_id</text>
<polygon fill="none" stroke="black" points="8,-161 8,-183 206,-183 206,-161 8,-161"/>
<image xlink:href="../../images/foreignKeys.png" width="11px" height="12px" preserveAspectRatio="xMinYMin meet" x="13" y="-178"/>
<text text-anchor="start" x="28" y="-169.2" font-family="Helvetica,sans-Serif" font-size="11.00">entitytype</text>
<polygon fill="none" stroke="black" points="8,-139 8,-161 206,-161 206,-139 8,-139"/>
<image xlink:href="../../images/foreignKeys.png" width="11px" height="12px" preserveAspectRatio="xMinYMin meet" x="13" y="-156"/>
<text text-anchor="start" x="28" y="-147.2" font-family="Helvetica,sans-Serif" font-size="11.00">ad_window_id</text>
<polygon fill="none" stroke="black" points="8,-117 8,-139 206,-139 206,-117 8,-117"/>
<image xlink:href="../../images/foreignKeys.png" width="11px" height="12px" preserveAspectRatio="xMinYMin meet" x="13" y="-134"/>
<text text-anchor="start" x="28" y="-125.2" font-family="Helvetica,sans-Serif" font-size="11.00">ad_val_rule_id</text>
<polygon fill="none" stroke="black" points="8,-95 8,-117 206,-117 206,-95 8,-95"/>
<image xlink:href="../../images/foreignKeys.png" width="11px" height="12px" preserveAspectRatio="xMinYMin meet" x="13" y="-112"/>
<text text-anchor="start" x="28" y="-103.2" font-family="Helvetica,sans-Serif" font-size="11.00">po_window_id</text>
<polygon fill="#ffffff" stroke="transparent" points="8,-73 8,-95 206,-95 206,-73 8,-73"/>
<polygon fill="none" stroke="black" points="8,-73 8,-95 206,-95 206,-73 8,-73"/>
<text text-anchor="start" x="28" y="-81.2" font-family="Helvetica,sans-Serif" font-size="11.00">ad_table_uu</text>
<polygon fill="none" stroke="black" points="8,-55 8,-73 206,-73 206,-55 8,-55"/>
<text text-anchor="start" x="11" y="-61.2" font-family="Helvetica,sans-Serif" font-size="11.00">...</text>
<polygon fill="#ffffff" stroke="transparent" points="8,-37 8,-55 74,-55 74,-37 8,-37"/>
<polygon fill="none" stroke="black" points="8,-37 8,-55 74,-55 74,-37 8,-37"/>
<text text-anchor="start" x="11" y="-43.2" font-family="Helvetica,sans-Serif" font-size="11.00">&lt; 6</text>
<polygon fill="#ffffff" stroke="transparent" points="74,-37 74,-55 156,-55 156,-37 74,-37"/>
<polygon fill="none" stroke="black" points="74,-37 74,-55 156,-55 156,-37 74,-37"/>
<text text-anchor="start" x="99" y="-43.2" font-family="Helvetica,sans-Serif" font-size="11.00">1.363 rows</text>
<polygon fill="#ffffff" stroke="transparent" points="156,-37 156,-55 206,-55 206,-37 156,-37"/>
<polygon fill="none" stroke="black" points="156,-37 156,-55 206,-55 206,-37 156,-37"/>
<text text-anchor="start" x="181" y="-43.2" font-family="Helvetica,sans-Serif" font-size="11.00">77 &gt;</text>
</a>
</g>
</g>
<!-- ad_package_imp_detail&#45;&gt;ad_table -->
<g id="edge2" class="edge">
<title>ad_package_imp_detail:w&#45;&gt;ad_table:e</title>
<path fill="none" stroke="black" d="M241.84,-238C230.41,-238 223.16,-238 207,-238"/>
<polygon fill="black" stroke="black" points="248.5,-238 256.5,-241.6 252.5,-238 256.5,-238 256.5,-238 256.5,-238 252.5,-238 256.5,-234.4 248.5,-238 248.5,-238"/>
<ellipse fill="none" stroke="black" cx="245.3" cy="-238" rx="3.2" ry="3.2"/>
</g>
</g>
</svg>
