<?xml version="1.0" encoding="UTF-8" standalone="no"?>
<!DOCTYPE svg PUBLIC "-//W3C//DTD SVG 1.1//EN"
 "http://www.w3.org/Graphics/SVG/1.1/DTD/svg11.dtd">
<!-- Generated by graphviz version 2.43.0 (0)
 -->
<!-- Title: oneDegreeRelationshipsDiagram Pages: 1 -->
<svg width="1007pt" height="892pt"
 viewBox="0.00 0.00 1007.00 892.00" xmlns="http://www.w3.org/2000/svg" xmlns:xlink="http://www.w3.org/1999/xlink">
<g id="graph0" class="graph" transform="scale(1 1) rotate(0) translate(4 888)">
<title>oneDegreeRelationshipsDiagram</title>
<polygon fill="#ffffff" stroke="transparent" points="-4,4 -4,-888 1003,-888 1003,4 -4,4"/>
<text text-anchor="middle" x="71.5" y="-7.2" font-family="Helvetica,sans-Serif" font-size="11.00">Generated by SchemaSpy</text>
<!-- ad_org -->
<g id="node1" class="node">
<title>ad_org</title>
<g id="a_node1"><a xlink:href="../../tables/ad_org.html" xlink:title="ad_org" target="_top">
<polygon fill="#ffffff" stroke="transparent" points="285,-543 285,-733 477,-733 477,-543 285,-543"/>
<polygon fill="#f5f5f5" stroke="transparent" points="285,-711 285,-733 477,-733 477,-711 285,-711"/>
<polygon fill="none" stroke="black" points="285,-711 285,-733 477,-733 477,-711 285,-711"/>
<text text-anchor="start" x="290" y="-720.2" font-family="Helvetica,sans-Serif" font-weight="bold" font-size="11.00">ad_org</text>
<text text-anchor="start" x="442" y="-719.2" font-family="Helvetica,sans-Serif" font-size="11.00">[table]</text>
<polygon fill="none" stroke="black" points="285,-689 285,-711 477,-711 477,-689 285,-689"/>
<image xlink:href="../../images/primaryKeys.png" width="11px" height="12px" preserveAspectRatio="xMinYMin meet" x="290" y="-706"/>
<text text-anchor="start" x="305" y="-697.2" font-family="Helvetica,sans-Serif" font-size="11.00">ad_org_id</text>
<polygon fill="#ffffff" stroke="transparent" points="285,-667 285,-689 477,-689 477,-667 285,-667"/>
<polygon fill="none" stroke="black" points="285,-667 285,-689 477,-689 477,-667 285,-667"/>
<image xlink:href="../../images/foreignKeys.png" width="11px" height="12px" preserveAspectRatio="xMinYMin meet" x="290" y="-684"/>
<text text-anchor="start" x="305" y="-675.2" font-family="Helvetica,sans-Serif" font-size="11.00">ad_client_id</text>
<polygon fill="#ffffff" stroke="transparent" points="285,-645 285,-667 477,-667 477,-645 285,-645"/>
<polygon fill="none" stroke="black" points="285,-645 285,-667 477,-667 477,-645 285,-645"/>
<text text-anchor="start" x="305" y="-653.2" font-family="Helvetica,sans-Serif" font-size="11.00">value</text>
<polygon fill="none" stroke="black" points="285,-623 285,-645 477,-645 477,-623 285,-623"/>
<image xlink:href="../../images/foreignKeys.png" width="11px" height="12px" preserveAspectRatio="xMinYMin meet" x="290" y="-640"/>
<text text-anchor="start" x="305" y="-631.2" font-family="Helvetica,sans-Serif" font-size="11.00">ad_replicationstrategy_id</text>
<polygon fill="#ffffff" stroke="transparent" points="285,-601 285,-623 477,-623 477,-601 285,-601"/>
<polygon fill="none" stroke="black" points="285,-601 285,-623 477,-623 477,-601 285,-601"/>
<text text-anchor="start" x="305" y="-609.2" font-family="Helvetica,sans-Serif" font-size="11.00">ad_org_uu</text>
<polygon fill="none" stroke="black" points="285,-579 285,-601 477,-601 477,-579 285,-579"/>
<image xlink:href="../../images/foreignKeys.png" width="11px" height="12px" preserveAspectRatio="xMinYMin meet" x="290" y="-596"/>
<text text-anchor="start" x="305" y="-587.2" font-family="Helvetica,sans-Serif" font-size="11.00">cof_c_snrange_id</text>
<polygon fill="none" stroke="black" points="285,-561 285,-579 477,-579 477,-561 285,-561"/>
<text text-anchor="start" x="288" y="-567.2" font-family="Helvetica,sans-Serif" font-size="11.00">...</text>
<polygon fill="#ffffff" stroke="transparent" points="285,-543 285,-561 355,-561 355,-543 285,-543"/>
<polygon fill="none" stroke="black" points="285,-543 285,-561 355,-561 355,-543 285,-543"/>
<text text-anchor="start" x="288" y="-549.2" font-family="Helvetica,sans-Serif" font-size="11.00">&lt; 3</text>
<polygon fill="#ffffff" stroke="transparent" points="355,-543 355,-561 418,-561 418,-543 355,-543"/>
<polygon fill="none" stroke="black" points="355,-543 355,-561 418,-561 418,-543 355,-543"/>
<text text-anchor="start" x="382" y="-549.2" font-family="Helvetica,sans-Serif" font-size="11.00">3 rows</text>
<polygon fill="#ffffff" stroke="transparent" points="418,-543 418,-561 477,-561 477,-543 418,-543"/>
<polygon fill="none" stroke="black" points="418,-543 418,-561 477,-561 477,-543 418,-543"/>
<text text-anchor="start" x="446" y="-549.2" font-family="Helvetica,sans-Serif" font-size="11.00">224 &gt;</text>
</a>
</g>
</g>
<!-- ad_client -->
<g id="node2" class="node">
<title>ad_client</title>
<g id="a_node2"><a xlink:href="../../tables/ad_client.html" xlink:title="ad_client" target="_top">
<polygon fill="#ffffff" stroke="transparent" points="8,-538 8,-750 236,-750 236,-538 8,-538"/>
<polygon fill="#f5f5f5" stroke="transparent" points="8,-728 8,-750 236,-750 236,-728 8,-728"/>
<polygon fill="none" stroke="black" points="8,-728 8,-750 236,-750 236,-728 8,-728"/>
<text text-anchor="start" x="13" y="-737.2" font-family="Helvetica,sans-Serif" font-weight="bold" font-size="11.00">ad_client</text>
<text text-anchor="start" x="201" y="-736.2" font-family="Helvetica,sans-Serif" font-size="11.00">[table]</text>
<polygon fill="none" stroke="black" points="8,-706 8,-728 236,-728 236,-706 8,-706"/>
<image xlink:href="../../images/primaryKeys.png" width="11px" height="12px" preserveAspectRatio="xMinYMin meet" x="13" y="-723"/>
<text text-anchor="start" x="28" y="-714.2" font-family="Helvetica,sans-Serif" font-size="11.00">ad_client_id</text>
<polygon fill="#ffffff" stroke="transparent" points="8,-684 8,-706 236,-706 236,-684 8,-684"/>
<polygon fill="none" stroke="black" points="8,-684 8,-706 236,-706 236,-684 8,-684"/>
<text text-anchor="start" x="28" y="-692.2" font-family="Helvetica,sans-Serif" font-size="11.00">value</text>
<polygon fill="none" stroke="black" points="8,-662 8,-684 236,-684 236,-662 8,-662"/>
<image xlink:href="../../images/foreignKeys.png" width="11px" height="12px" preserveAspectRatio="xMinYMin meet" x="13" y="-679"/>
<text text-anchor="start" x="28" y="-670.2" font-family="Helvetica,sans-Serif" font-size="11.00">ad_language</text>
<polygon fill="none" stroke="black" points="8,-640 8,-662 236,-662 236,-640 8,-640"/>
<image xlink:href="../../images/foreignKeys.png" width="11px" height="12px" preserveAspectRatio="xMinYMin meet" x="13" y="-657"/>
<text text-anchor="start" x="28" y="-648.2" font-family="Helvetica,sans-Serif" font-size="11.00">ad_replicationstrategy_id</text>
<polygon fill="#ffffff" stroke="transparent" points="8,-618 8,-640 236,-640 236,-618 8,-618"/>
<polygon fill="none" stroke="black" points="8,-618 8,-640 236,-640 236,-618 8,-618"/>
<text text-anchor="start" x="28" y="-626.2" font-family="Helvetica,sans-Serif" font-size="11.00">ad_client_uu</text>
<polygon fill="none" stroke="black" points="8,-596 8,-618 236,-618 236,-596 8,-596"/>
<image xlink:href="../../images/foreignKeys.png" width="11px" height="12px" preserveAspectRatio="xMinYMin meet" x="13" y="-613"/>
<text text-anchor="start" x="28" y="-604.2" font-family="Helvetica,sans-Serif" font-size="11.00">ad_passwordrule_id</text>
<polygon fill="#ffffff" stroke="transparent" points="8,-574 8,-596 236,-596 236,-574 8,-574"/>
<polygon fill="none" stroke="black" points="8,-574 8,-596 236,-596 236,-574 8,-574"/>
<text text-anchor="start" x="28" y="-582.2" font-family="Helvetica,sans-Serif" font-size="11.00">loginprefix</text>
<polygon fill="none" stroke="black" points="8,-556 8,-574 236,-574 236,-556 8,-556"/>
<text text-anchor="start" x="11" y="-562.2" font-family="Helvetica,sans-Serif" font-size="11.00">...</text>
<polygon fill="#ffffff" stroke="transparent" points="8,-538 8,-556 96,-556 96,-538 8,-538"/>
<polygon fill="none" stroke="black" points="8,-538 8,-556 96,-556 96,-538 8,-538"/>
<text text-anchor="start" x="11" y="-544.2" font-family="Helvetica,sans-Serif" font-size="11.00">&lt; 3</text>
<polygon fill="#ffffff" stroke="transparent" points="96,-538 96,-556 168,-556 168,-538 96,-538"/>
<polygon fill="none" stroke="black" points="96,-538 96,-556 168,-556 168,-538 96,-538"/>
<text text-anchor="start" x="132" y="-544.2" font-family="Helvetica,sans-Serif" font-size="11.00">2 rows</text>
<polygon fill="#ffffff" stroke="transparent" points="168,-538 168,-556 236,-556 236,-538 168,-538"/>
<polygon fill="none" stroke="black" points="168,-538 168,-556 236,-556 236,-538 168,-538"/>
<text text-anchor="start" x="205" y="-544.2" font-family="Helvetica,sans-Serif" font-size="11.00">145 &gt;</text>
</a>
</g>
</g>
<!-- ad_org&#45;&gt;ad_client -->
<g id="edge1" class="edge">
<title>ad_org:w&#45;&gt;ad_client:e</title>
<path fill="none" stroke="black" d="M270.41,-682.78C258.4,-693.2 258.21,-717 237,-717"/>
<polygon fill="black" stroke="black" points="276.45,-680.66 285.19,-681.4 280.23,-679.33 284,-678 284,-678 284,-678 280.23,-679.33 282.81,-674.6 276.45,-680.66 276.45,-680.66"/>
<ellipse fill="none" stroke="black" cx="273.43" cy="-681.72" rx="3.2" ry="3.2"/>
</g>
<!-- ad_postit -->
<g id="node3" class="node">
<title>ad_postit</title>
<g id="a_node3"><a xlink:href="../../tables/ad_postit.html" xlink:title="ad_postit" target="_top">
<polygon fill="#ffffff" stroke="transparent" points="798,-572 798,-880 991,-880 991,-572 798,-572"/>
<polygon fill="#f5f5f5" stroke="transparent" points="800.5,-856 800.5,-878 989.5,-878 989.5,-856 800.5,-856"/>
<polygon fill="none" stroke="black" points="800.5,-856 800.5,-878 989.5,-878 989.5,-856 800.5,-856"/>
<text text-anchor="start" x="805.5" y="-865.2" font-family="Helvetica,sans-Serif" font-weight="bold" font-size="11.00">ad_postit</text>
<text text-anchor="start" x="954.5" y="-864.2" font-family="Helvetica,sans-Serif" font-size="11.00">[table]</text>
<polygon fill="none" stroke="black" points="800.5,-834 800.5,-856 906.5,-856 906.5,-834 800.5,-834"/>
<image xlink:href="../../images/primaryKeys.png" width="11px" height="12px" preserveAspectRatio="xMinYMin meet" x="805.5" y="-851"/>
<text text-anchor="start" x="820.5" y="-842.2" font-family="Helvetica,sans-Serif" font-size="11.00">ad_postit_id</text>
<polygon fill="none" stroke="black" points="906.5,-834 906.5,-856 989.5,-856 989.5,-834 906.5,-834"/>
<text text-anchor="start" x="909.5" y="-842.2" font-family="Helvetica,sans-Serif" font-size="11.00">numeric[10]</text>
<polygon fill="none" stroke="black" points="800.5,-812 800.5,-834 906.5,-834 906.5,-812 800.5,-812"/>
<image xlink:href="../../images/foreignKeys.png" width="11px" height="12px" preserveAspectRatio="xMinYMin meet" x="805.5" y="-829"/>
<text text-anchor="start" x="820.5" y="-820.2" font-family="Helvetica,sans-Serif" font-size="11.00">ad_client_id</text>
<polygon fill="none" stroke="black" points="906.5,-812 906.5,-834 989.5,-834 989.5,-812 906.5,-812"/>
<text text-anchor="start" x="909.5" y="-820.2" font-family="Helvetica,sans-Serif" font-size="11.00">numeric[10]</text>
<polygon fill="none" stroke="black" points="800.5,-790 800.5,-812 906.5,-812 906.5,-790 800.5,-790"/>
<image xlink:href="../../images/foreignKeys.png" width="11px" height="12px" preserveAspectRatio="xMinYMin meet" x="805.5" y="-807"/>
<text text-anchor="start" x="820.5" y="-798.2" font-family="Helvetica,sans-Serif" font-size="11.00">ad_org_id</text>
<polygon fill="none" stroke="black" points="906.5,-790 906.5,-812 989.5,-812 989.5,-790 906.5,-790"/>
<text text-anchor="start" x="909.5" y="-798.2" font-family="Helvetica,sans-Serif" font-size="11.00">numeric[10]</text>
<polygon fill="#ffffff" stroke="transparent" points="800.5,-768 800.5,-790 906.5,-790 906.5,-768 800.5,-768"/>
<polygon fill="none" stroke="black" points="800.5,-768 800.5,-790 906.5,-790 906.5,-768 800.5,-768"/>
<image xlink:href="../../images/foreignKeys.png" width="11px" height="12px" preserveAspectRatio="xMinYMin meet" x="805.5" y="-785"/>
<text text-anchor="start" x="820.5" y="-776.2" font-family="Helvetica,sans-Serif" font-size="11.00">ad_table_id</text>
<polygon fill="none" stroke="black" points="906.5,-768 906.5,-790 989.5,-790 989.5,-768 906.5,-768"/>
<text text-anchor="start" x="909.5" y="-776.2" font-family="Helvetica,sans-Serif" font-size="11.00">numeric[10]</text>
<polygon fill="none" stroke="black" points="800.5,-746 800.5,-768 906.5,-768 906.5,-746 800.5,-746"/>
<text text-anchor="start" x="820.5" y="-754.2" font-family="Helvetica,sans-Serif" font-size="11.00">created</text>
<polygon fill="none" stroke="black" points="906.5,-746 906.5,-768 989.5,-768 989.5,-746 906.5,-746"/>
<text text-anchor="start" x="909.5" y="-754.2" font-family="Helvetica,sans-Serif" font-size="11.00">timestamp[29,6]</text>
<polygon fill="none" stroke="black" points="800.5,-724 800.5,-746 906.5,-746 906.5,-724 800.5,-724"/>
<image xlink:href="../../images/foreignKeys.png" width="11px" height="12px" preserveAspectRatio="xMinYMin meet" x="805.5" y="-741"/>
<text text-anchor="start" x="820.5" y="-732.2" font-family="Helvetica,sans-Serif" font-size="11.00">createdby</text>
<polygon fill="none" stroke="black" points="906.5,-724 906.5,-746 989.5,-746 989.5,-724 906.5,-724"/>
<text text-anchor="start" x="909.5" y="-732.2" font-family="Helvetica,sans-Serif" font-size="11.00">numeric[10]</text>
<polygon fill="none" stroke="black" points="800.5,-702 800.5,-724 906.5,-724 906.5,-702 800.5,-702"/>
<text text-anchor="start" x="820.5" y="-710.2" font-family="Helvetica,sans-Serif" font-size="11.00">isactive</text>
<polygon fill="none" stroke="black" points="906.5,-702 906.5,-724 989.5,-724 989.5,-702 906.5,-702"/>
<text text-anchor="start" x="909.5" y="-710.2" font-family="Helvetica,sans-Serif" font-size="11.00">bpchar[1]</text>
<polygon fill="none" stroke="black" points="800.5,-680 800.5,-702 906.5,-702 906.5,-680 800.5,-680"/>
<text text-anchor="start" x="820.5" y="-688.2" font-family="Helvetica,sans-Serif" font-size="11.00">text</text>
<polygon fill="none" stroke="black" points="906.5,-680 906.5,-702 989.5,-702 989.5,-680 906.5,-680"/>
<text text-anchor="start" x="909.5" y="-688.2" font-family="Helvetica,sans-Serif" font-size="11.00">varchar[2000]</text>
<polygon fill="#ffffff" stroke="transparent" points="800.5,-658 800.5,-680 906.5,-680 906.5,-658 800.5,-658"/>
<polygon fill="none" stroke="black" points="800.5,-658 800.5,-680 906.5,-680 906.5,-658 800.5,-658"/>
<text text-anchor="start" x="820.5" y="-666.2" font-family="Helvetica,sans-Serif" font-size="11.00">record_id</text>
<polygon fill="none" stroke="black" points="906.5,-658 906.5,-680 989.5,-680 989.5,-658 906.5,-658"/>
<text text-anchor="start" x="909.5" y="-666.2" font-family="Helvetica,sans-Serif" font-size="11.00">numeric[10]</text>
<polygon fill="none" stroke="black" points="800.5,-636 800.5,-658 906.5,-658 906.5,-636 800.5,-636"/>
<text text-anchor="start" x="820.5" y="-644.2" font-family="Helvetica,sans-Serif" font-size="11.00">updated</text>
<polygon fill="none" stroke="black" points="906.5,-636 906.5,-658 989.5,-658 989.5,-636 906.5,-636"/>
<text text-anchor="start" x="909.5" y="-644.2" font-family="Helvetica,sans-Serif" font-size="11.00">timestamp[29,6]</text>
<polygon fill="none" stroke="black" points="800.5,-614 800.5,-636 906.5,-636 906.5,-614 800.5,-614"/>
<image xlink:href="../../images/foreignKeys.png" width="11px" height="12px" preserveAspectRatio="xMinYMin meet" x="805.5" y="-631"/>
<text text-anchor="start" x="820.5" y="-622.2" font-family="Helvetica,sans-Serif" font-size="11.00">updatedby</text>
<polygon fill="none" stroke="black" points="906.5,-614 906.5,-636 989.5,-636 989.5,-614 906.5,-614"/>
<text text-anchor="start" x="909.5" y="-622.2" font-family="Helvetica,sans-Serif" font-size="11.00">numeric[10]</text>
<polygon fill="#ffffff" stroke="transparent" points="800.5,-592 800.5,-614 906.5,-614 906.5,-592 800.5,-592"/>
<polygon fill="none" stroke="black" points="800.5,-592 800.5,-614 906.5,-614 906.5,-592 800.5,-592"/>
<text text-anchor="start" x="820.5" y="-600.2" font-family="Helvetica,sans-Serif" font-size="11.00">ad_postit_uu</text>
<polygon fill="none" stroke="black" points="906.5,-592 906.5,-614 989.5,-614 989.5,-592 906.5,-592"/>
<text text-anchor="start" x="909.5" y="-600.2" font-family="Helvetica,sans-Serif" font-size="11.00">varchar[36]</text>
<polygon fill="#ffffff" stroke="transparent" points="800.5,-574 800.5,-592 844.5,-592 844.5,-574 800.5,-574"/>
<polygon fill="none" stroke="black" points="800.5,-574 800.5,-592 844.5,-592 844.5,-574 800.5,-574"/>
<text text-anchor="start" x="803.5" y="-580.2" font-family="Helvetica,sans-Serif" font-size="11.00">&lt; 5</text>
<polygon fill="#ffffff" stroke="transparent" points="844.5,-574 844.5,-592 906.5,-592 906.5,-574 844.5,-574"/>
<polygon fill="none" stroke="black" points="844.5,-574 844.5,-592 906.5,-592 906.5,-574 844.5,-574"/>
<text text-anchor="start" x="870.5" y="-580.2" font-family="Helvetica,sans-Serif" font-size="11.00">0 rows</text>
<polygon fill="#ffffff" stroke="transparent" points="906.5,-574 906.5,-592 989.5,-592 989.5,-574 906.5,-574"/>
<polygon fill="none" stroke="black" points="906.5,-574 906.5,-592 989.5,-592 989.5,-574 906.5,-574"/>
<text text-anchor="start" x="970.5" y="-580.2" font-family="Helvetica,sans-Serif" font-size="11.00">0 &gt;</text>
<polygon fill="none" stroke="black" stroke-width="2" points="799,-573 799,-879 990,-879 990,-573 799,-573"/>
</a>
</g>
</g>
<!-- ad_postit&#45;&gt;ad_org -->
<g id="edge3" class="edge">
<title>ad_postit:w&#45;&gt;ad_org:e</title>
<path fill="none" stroke="black" d="M785.26,-804.56C776.22,-809.81 771.69,-819.42 757,-823 705.4,-835.56 560.97,-854.21 518,-823 471.49,-789.22 535.48,-700 478,-700"/>
<polygon fill="black" stroke="black" points="791.74,-802.94 800.37,-804.49 795.62,-801.97 799.5,-801 799.5,-801 799.5,-801 795.62,-801.97 798.63,-797.51 791.74,-802.94 791.74,-802.94"/>
<ellipse fill="none" stroke="black" cx="788.63" cy="-803.71" rx="3.2" ry="3.2"/>
</g>
<!-- ad_postit&#45;&gt;ad_client -->
<g id="edge2" class="edge">
<title>ad_postit:w&#45;&gt;ad_client:e</title>
<path fill="none" stroke="black" d="M785.19,-826.06C776.26,-830.4 771.13,-838.13 757,-841 652.9,-862.14 622.95,-857.36 518,-841 406.9,-823.68 370.59,-826.32 277,-764 254.17,-748.8 264.43,-717 237,-717"/>
<polygon fill="black" stroke="black" points="791.68,-824.67 800.25,-826.52 795.59,-823.84 799.5,-823 799.5,-823 799.5,-823 795.59,-823.84 798.75,-819.48 791.68,-824.67 791.68,-824.67"/>
<ellipse fill="none" stroke="black" cx="788.55" cy="-825.34" rx="3.2" ry="3.2"/>
</g>
<!-- ad_table -->
<g id="node4" class="node">
<title>ad_table</title>
<g id="a_node4"><a xlink:href="../../tables/ad_table.html" xlink:title="ad_table" target="_top">
<polygon fill="#ffffff" stroke="transparent" points="538.5,-578 538.5,-812 736.5,-812 736.5,-578 538.5,-578"/>
<polygon fill="#f5f5f5" stroke="transparent" points="538.5,-790 538.5,-812 736.5,-812 736.5,-790 538.5,-790"/>
<polygon fill="none" stroke="black" points="538.5,-790 538.5,-812 736.5,-812 736.5,-790 538.5,-790"/>
<text text-anchor="start" x="543.5" y="-799.2" font-family="Helvetica,sans-Serif" font-weight="bold" font-size="11.00">ad_table</text>
<text text-anchor="start" x="701.5" y="-798.2" font-family="Helvetica,sans-Serif" font-size="11.00">[table]</text>
<polygon fill="none" stroke="black" points="538.5,-768 538.5,-790 736.5,-790 736.5,-768 538.5,-768"/>
<image xlink:href="../../images/primaryKeys.png" width="11px" height="12px" preserveAspectRatio="xMinYMin meet" x="543.5" y="-785"/>
<text text-anchor="start" x="558.5" y="-776.2" font-family="Helvetica,sans-Serif" font-size="11.00">ad_table_id</text>
<polygon fill="none" stroke="black" points="538.5,-746 538.5,-768 736.5,-768 736.5,-746 538.5,-746"/>
<image xlink:href="../../images/foreignKeys.png" width="11px" height="12px" preserveAspectRatio="xMinYMin meet" x="543.5" y="-763"/>
<text text-anchor="start" x="558.5" y="-754.2" font-family="Helvetica,sans-Serif" font-size="11.00">ad_client_id</text>
<polygon fill="none" stroke="black" points="538.5,-724 538.5,-746 736.5,-746 736.5,-724 538.5,-724"/>
<image xlink:href="../../images/foreignKeys.png" width="11px" height="12px" preserveAspectRatio="xMinYMin meet" x="543.5" y="-741"/>
<text text-anchor="start" x="558.5" y="-732.2" font-family="Helvetica,sans-Serif" font-size="11.00">ad_org_id</text>
<polygon fill="none" stroke="black" points="538.5,-702 538.5,-724 736.5,-724 736.5,-702 538.5,-702"/>
<image xlink:href="../../images/foreignKeys.png" width="11px" height="12px" preserveAspectRatio="xMinYMin meet" x="543.5" y="-719"/>
<text text-anchor="start" x="558.5" y="-710.2" font-family="Helvetica,sans-Serif" font-size="11.00">entitytype</text>
<polygon fill="none" stroke="black" points="538.5,-680 538.5,-702 736.5,-702 736.5,-680 538.5,-680"/>
<image xlink:href="../../images/foreignKeys.png" width="11px" height="12px" preserveAspectRatio="xMinYMin meet" x="543.5" y="-697"/>
<text text-anchor="start" x="558.5" y="-688.2" font-family="Helvetica,sans-Serif" font-size="11.00">ad_window_id</text>
<polygon fill="none" stroke="black" points="538.5,-658 538.5,-680 736.5,-680 736.5,-658 538.5,-658"/>
<image xlink:href="../../images/foreignKeys.png" width="11px" height="12px" preserveAspectRatio="xMinYMin meet" x="543.5" y="-675"/>
<text text-anchor="start" x="558.5" y="-666.2" font-family="Helvetica,sans-Serif" font-size="11.00">ad_val_rule_id</text>
<polygon fill="none" stroke="black" points="538.5,-636 538.5,-658 736.5,-658 736.5,-636 538.5,-636"/>
<image xlink:href="../../images/foreignKeys.png" width="11px" height="12px" preserveAspectRatio="xMinYMin meet" x="543.5" y="-653"/>
<text text-anchor="start" x="558.5" y="-644.2" font-family="Helvetica,sans-Serif" font-size="11.00">po_window_id</text>
<polygon fill="#ffffff" stroke="transparent" points="538.5,-614 538.5,-636 736.5,-636 736.5,-614 538.5,-614"/>
<polygon fill="none" stroke="black" points="538.5,-614 538.5,-636 736.5,-636 736.5,-614 538.5,-614"/>
<text text-anchor="start" x="558.5" y="-622.2" font-family="Helvetica,sans-Serif" font-size="11.00">ad_table_uu</text>
<polygon fill="none" stroke="black" points="538.5,-596 538.5,-614 736.5,-614 736.5,-596 538.5,-596"/>
<text text-anchor="start" x="541.5" y="-602.2" font-family="Helvetica,sans-Serif" font-size="11.00">...</text>
<polygon fill="#ffffff" stroke="transparent" points="538.5,-578 538.5,-596 604.5,-596 604.5,-578 538.5,-578"/>
<polygon fill="none" stroke="black" points="538.5,-578 538.5,-596 604.5,-596 604.5,-578 538.5,-578"/>
<text text-anchor="start" x="541.5" y="-584.2" font-family="Helvetica,sans-Serif" font-size="11.00">&lt; 6</text>
<polygon fill="#ffffff" stroke="transparent" points="604.5,-578 604.5,-596 686.5,-596 686.5,-578 604.5,-578"/>
<polygon fill="none" stroke="black" points="604.5,-578 604.5,-596 686.5,-596 686.5,-578 604.5,-578"/>
<text text-anchor="start" x="629.5" y="-584.2" font-family="Helvetica,sans-Serif" font-size="11.00">1.363 rows</text>
<polygon fill="#ffffff" stroke="transparent" points="686.5,-578 686.5,-596 736.5,-596 736.5,-578 686.5,-578"/>
<polygon fill="none" stroke="black" points="686.5,-578 686.5,-596 736.5,-596 736.5,-578 686.5,-578"/>
<text text-anchor="start" x="711.5" y="-584.2" font-family="Helvetica,sans-Serif" font-size="11.00">77 &gt;</text>
</a>
</g>
</g>
<!-- ad_postit&#45;&gt;ad_table -->
<g id="edge4" class="edge">
<title>ad_postit:w&#45;&gt;ad_table:e</title>
<path fill="none" stroke="black" d="M784.92,-779C768.29,-779 759.46,-779 737.5,-779"/>
<polygon fill="black" stroke="black" points="791.5,-779 799.5,-782.6 795.5,-779 799.5,-779 799.5,-779 799.5,-779 795.5,-779 799.5,-775.4 791.5,-779 791.5,-779"/>
<ellipse fill="none" stroke="black" cx="788.3" cy="-779" rx="3.2" ry="3.2"/>
</g>
<!-- ad_user -->
<g id="node5" class="node">
<title>ad_user</title>
<g id="a_node5"><a xlink:href="../../tables/ad_user.html" xlink:title="ad_user" target="_top">
<polygon fill="#ffffff" stroke="transparent" points="526,-37 526,-557 749,-557 749,-37 526,-37"/>
<polygon fill="#f5f5f5" stroke="transparent" points="526.5,-535 526.5,-557 749.5,-557 749.5,-535 526.5,-535"/>
<polygon fill="none" stroke="black" points="526.5,-535 526.5,-557 749.5,-557 749.5,-535 526.5,-535"/>
<text text-anchor="start" x="531.5" y="-544.2" font-family="Helvetica,sans-Serif" font-weight="bold" font-size="11.00">ad_user</text>
<text text-anchor="start" x="714.5" y="-543.2" font-family="Helvetica,sans-Serif" font-size="11.00">[table]</text>
<polygon fill="none" stroke="black" points="526.5,-513 526.5,-535 749.5,-535 749.5,-513 526.5,-513"/>
<image xlink:href="../../images/primaryKeys.png" width="11px" height="12px" preserveAspectRatio="xMinYMin meet" x="531.5" y="-530"/>
<text text-anchor="start" x="546.5" y="-521.2" font-family="Helvetica,sans-Serif" font-size="11.00">ad_user_id</text>
<polygon fill="none" stroke="black" points="526.5,-491 526.5,-513 749.5,-513 749.5,-491 526.5,-491"/>
<image xlink:href="../../images/foreignKeys.png" width="11px" height="12px" preserveAspectRatio="xMinYMin meet" x="531.5" y="-508"/>
<text text-anchor="start" x="546.5" y="-499.2" font-family="Helvetica,sans-Serif" font-size="11.00">ad_client_id</text>
<polygon fill="none" stroke="black" points="526.5,-469 526.5,-491 749.5,-491 749.5,-469 526.5,-469"/>
<image xlink:href="../../images/foreignKeys.png" width="11px" height="12px" preserveAspectRatio="xMinYMin meet" x="531.5" y="-486"/>
<text text-anchor="start" x="546.5" y="-477.2" font-family="Helvetica,sans-Serif" font-size="11.00">ad_org_id</text>
<polygon fill="#ffffff" stroke="transparent" points="526.5,-447 526.5,-469 749.5,-469 749.5,-447 526.5,-447"/>
<polygon fill="none" stroke="black" points="526.5,-447 526.5,-469 749.5,-469 749.5,-447 526.5,-447"/>
<text text-anchor="start" x="546.5" y="-455.2" font-family="Helvetica,sans-Serif" font-size="11.00">name</text>
<polygon fill="#ffffff" stroke="transparent" points="526.5,-425 526.5,-447 749.5,-447 749.5,-425 526.5,-425"/>
<polygon fill="none" stroke="black" points="526.5,-425 526.5,-447 749.5,-447 749.5,-425 526.5,-425"/>
<text text-anchor="start" x="546.5" y="-433.2" font-family="Helvetica,sans-Serif" font-size="11.00">email</text>
<polygon fill="none" stroke="black" points="526.5,-403 526.5,-425 749.5,-425 749.5,-403 526.5,-403"/>
<image xlink:href="../../images/foreignKeys.png" width="11px" height="12px" preserveAspectRatio="xMinYMin meet" x="531.5" y="-420"/>
<text text-anchor="start" x="546.5" y="-411.2" font-family="Helvetica,sans-Serif" font-size="11.00">supervisor_id</text>
<polygon fill="#ffffff" stroke="transparent" points="526.5,-381 526.5,-403 749.5,-403 749.5,-381 526.5,-381"/>
<polygon fill="none" stroke="black" points="526.5,-381 526.5,-403 749.5,-403 749.5,-381 526.5,-381"/>
<image xlink:href="../../images/foreignKeys.png" width="11px" height="12px" preserveAspectRatio="xMinYMin meet" x="531.5" y="-398"/>
<text text-anchor="start" x="546.5" y="-389.2" font-family="Helvetica,sans-Serif" font-size="11.00">c_bpartner_id</text>
<polygon fill="none" stroke="black" points="526.5,-359 526.5,-381 749.5,-381 749.5,-359 526.5,-359"/>
<image xlink:href="../../images/foreignKeys.png" width="11px" height="12px" preserveAspectRatio="xMinYMin meet" x="531.5" y="-376"/>
<text text-anchor="start" x="546.5" y="-367.2" font-family="Helvetica,sans-Serif" font-size="11.00">c_bpartner_location_id</text>
<polygon fill="none" stroke="black" points="526.5,-337 526.5,-359 749.5,-359 749.5,-337 526.5,-337"/>
<image xlink:href="../../images/foreignKeys.png" width="11px" height="12px" preserveAspectRatio="xMinYMin meet" x="531.5" y="-354"/>
<text text-anchor="start" x="546.5" y="-345.2" font-family="Helvetica,sans-Serif" font-size="11.00">c_greeting_id</text>
<polygon fill="none" stroke="black" points="526.5,-315 526.5,-337 749.5,-337 749.5,-315 526.5,-315"/>
<image xlink:href="../../images/foreignKeys.png" width="11px" height="12px" preserveAspectRatio="xMinYMin meet" x="531.5" y="-332"/>
<text text-anchor="start" x="546.5" y="-323.2" font-family="Helvetica,sans-Serif" font-size="11.00">ad_orgtrx_id</text>
<polygon fill="none" stroke="black" points="526.5,-293 526.5,-315 749.5,-315 749.5,-293 526.5,-293"/>
<image xlink:href="../../images/foreignKeys.png" width="11px" height="12px" preserveAspectRatio="xMinYMin meet" x="531.5" y="-310"/>
<text text-anchor="start" x="546.5" y="-301.2" font-family="Helvetica,sans-Serif" font-size="11.00">c_job_id</text>
<polygon fill="#ffffff" stroke="transparent" points="526.5,-271 526.5,-293 749.5,-293 749.5,-271 526.5,-271"/>
<polygon fill="none" stroke="black" points="526.5,-271 526.5,-293 749.5,-293 749.5,-271 526.5,-271"/>
<text text-anchor="start" x="546.5" y="-279.2" font-family="Helvetica,sans-Serif" font-size="11.00">ad_user_uu</text>
<polygon fill="none" stroke="black" points="526.5,-249 526.5,-271 749.5,-271 749.5,-249 526.5,-249"/>
<image xlink:href="../../images/foreignKeys.png" width="11px" height="12px" preserveAspectRatio="xMinYMin meet" x="531.5" y="-266"/>
<text text-anchor="start" x="546.5" y="-257.2" font-family="Helvetica,sans-Serif" font-size="11.00">c_location_id</text>
<polygon fill="none" stroke="black" points="526.5,-227 526.5,-249 749.5,-249 749.5,-227 526.5,-227"/>
<image xlink:href="../../images/foreignKeys.png" width="11px" height="12px" preserveAspectRatio="xMinYMin meet" x="531.5" y="-244"/>
<text text-anchor="start" x="546.5" y="-235.2" font-family="Helvetica,sans-Serif" font-size="11.00">c_campaign_id</text>
<polygon fill="none" stroke="black" points="526.5,-205 526.5,-227 749.5,-227 749.5,-205 526.5,-205"/>
<image xlink:href="../../images/foreignKeys.png" width="11px" height="12px" preserveAspectRatio="xMinYMin meet" x="531.5" y="-222"/>
<text text-anchor="start" x="546.5" y="-213.2" font-family="Helvetica,sans-Serif" font-size="11.00">salesrep_id</text>
<polygon fill="none" stroke="black" points="526.5,-183 526.5,-205 749.5,-205 749.5,-183 526.5,-183"/>
<image xlink:href="../../images/foreignKeys.png" width="11px" height="12px" preserveAspectRatio="xMinYMin meet" x="531.5" y="-200"/>
<text text-anchor="start" x="546.5" y="-191.2" font-family="Helvetica,sans-Serif" font-size="11.00">bp_location_id</text>
<polygon fill="none" stroke="black" points="526.5,-161 526.5,-183 749.5,-183 749.5,-161 526.5,-161"/>
<image xlink:href="../../images/foreignKeys.png" width="11px" height="12px" preserveAspectRatio="xMinYMin meet" x="531.5" y="-178"/>
<text text-anchor="start" x="546.5" y="-169.2" font-family="Helvetica,sans-Serif" font-size="11.00">r_defaultmailtext_id</text>
<polygon fill="none" stroke="black" points="526.5,-139 526.5,-161 749.5,-161 749.5,-139 526.5,-139"/>
<image xlink:href="../../images/foreignKeys.png" width="11px" height="12px" preserveAspectRatio="xMinYMin meet" x="531.5" y="-156"/>
<text text-anchor="start" x="546.5" y="-147.2" font-family="Helvetica,sans-Serif" font-size="11.00">cof_c_marketsegment_id</text>
<polygon fill="none" stroke="black" points="526.5,-117 526.5,-139 749.5,-139 749.5,-117 526.5,-117"/>
<image xlink:href="../../images/foreignKeys.png" width="11px" height="12px" preserveAspectRatio="xMinYMin meet" x="531.5" y="-134"/>
<text text-anchor="start" x="546.5" y="-125.2" font-family="Helvetica,sans-Serif" font-size="11.00">cof_c_leadexpirationreason_id</text>
<polygon fill="none" stroke="black" points="526.5,-95 526.5,-117 749.5,-117 749.5,-95 526.5,-95"/>
<image xlink:href="../../images/foreignKeys.png" width="11px" height="12px" preserveAspectRatio="xMinYMin meet" x="531.5" y="-112"/>
<text text-anchor="start" x="546.5" y="-103.2" font-family="Helvetica,sans-Serif" font-size="11.00">ad_image_id</text>
<polygon fill="none" stroke="black" points="526.5,-73 526.5,-95 749.5,-95 749.5,-73 526.5,-73"/>
<image xlink:href="../../images/foreignKeys.png" width="11px" height="12px" preserveAspectRatio="xMinYMin meet" x="531.5" y="-90"/>
<text text-anchor="start" x="546.5" y="-81.2" font-family="Helvetica,sans-Serif" font-size="11.00">c_subscription_id</text>
<polygon fill="none" stroke="black" points="526.5,-55 526.5,-73 749.5,-73 749.5,-55 526.5,-55"/>
<text text-anchor="start" x="529.5" y="-61.2" font-family="Helvetica,sans-Serif" font-size="11.00">...</text>
<polygon fill="#ffffff" stroke="transparent" points="526.5,-37 526.5,-55 615.5,-55 615.5,-37 526.5,-37"/>
<polygon fill="none" stroke="black" points="526.5,-37 526.5,-55 615.5,-55 615.5,-37 526.5,-37"/>
<text text-anchor="start" x="529.5" y="-43.2" font-family="Helvetica,sans-Serif" font-size="11.00">&lt; 17</text>
<polygon fill="#ffffff" stroke="transparent" points="615.5,-37 615.5,-55 684.5,-55 684.5,-37 615.5,-37"/>
<polygon fill="none" stroke="black" points="615.5,-37 615.5,-55 684.5,-55 684.5,-37 615.5,-37"/>
<text text-anchor="start" x="648.5" y="-43.2" font-family="Helvetica,sans-Serif" font-size="11.00">8 rows</text>
<polygon fill="#ffffff" stroke="transparent" points="684.5,-37 684.5,-55 749.5,-55 749.5,-37 684.5,-37"/>
<polygon fill="none" stroke="black" points="684.5,-37 684.5,-55 749.5,-55 749.5,-37 684.5,-37"/>
<text text-anchor="start" x="718.5" y="-43.2" font-family="Helvetica,sans-Serif" font-size="11.00">316 &gt;</text>
</a>
</g>
</g>
<!-- ad_postit&#45;&gt;ad_user -->
<g id="edge5" class="edge">
<title>ad_postit:w&#45;&gt;ad_user:e</title>
<path fill="none" stroke="black" d="M784.95,-732.91C719.23,-711 841.13,-524 750.5,-524"/>
<polygon fill="black" stroke="black" points="791.58,-733.86 798.99,-738.56 795.54,-734.43 799.5,-735 799.5,-735 799.5,-735 795.54,-734.43 800.01,-731.44 791.58,-733.86 791.58,-733.86"/>
<ellipse fill="none" stroke="black" cx="788.41" cy="-733.41" rx="3.2" ry="3.2"/>
</g>
<!-- ad_postit&#45;&gt;ad_user -->
<g id="edge6" class="edge">
<title>ad_postit:w&#45;&gt;ad_user:e</title>
<path fill="none" stroke="black" d="M785.45,-620.92C760.43,-602.02 794.35,-524 750.5,-524"/>
<polygon fill="black" stroke="black" points="791.82,-622.77 798.5,-628.46 795.66,-623.88 799.5,-625 799.5,-625 799.5,-625 795.66,-623.88 800.5,-621.54 791.82,-622.77 791.82,-622.77"/>
<ellipse fill="none" stroke="black" cx="788.75" cy="-621.87" rx="3.2" ry="3.2"/>
</g>
<!-- ad_table&#45;&gt;ad_org -->
<g id="edge8" class="edge">
<title>ad_table:w&#45;&gt;ad_org:e</title>
<path fill="none" stroke="black" d="M523.25,-731.77C506.37,-723.11 502.93,-700 478,-700"/>
<polygon fill="black" stroke="black" points="529.7,-733.23 536.7,-738.51 533.6,-734.12 537.5,-735 537.5,-735 537.5,-735 533.6,-734.12 538.3,-731.49 529.7,-733.23 529.7,-733.23"/>
<ellipse fill="none" stroke="black" cx="526.58" cy="-732.52" rx="3.2" ry="3.2"/>
</g>
<!-- ad_table&#45;&gt;ad_client -->
<g id="edge7" class="edge">
<title>ad_table:w&#45;&gt;ad_client:e</title>
<path fill="none" stroke="black" d="M522.99,-757.12C418.46,-758.92 382.25,-779.09 277,-744 256.65,-737.22 258.45,-717 237,-717"/>
<polygon fill="black" stroke="black" points="529.5,-757.07 537.53,-760.6 533.5,-757.03 537.5,-757 537.5,-757 537.5,-757 533.5,-757.03 537.47,-753.4 529.5,-757.07 529.5,-757.07"/>
<ellipse fill="none" stroke="black" cx="526.3" cy="-757.1" rx="3.2" ry="3.2"/>
</g>
<!-- ad_user&#45;&gt;ad_org -->
<g id="edge10" class="edge">
<title>ad_user:w&#45;&gt;ad_org:e</title>
<path fill="none" stroke="black" d="M510.84,-482.04C441.94,-504.22 572.37,-700 478,-700"/>
<polygon fill="black" stroke="black" points="517.58,-481.1 526,-483.57 521.54,-480.55 525.5,-480 525.5,-480 525.5,-480 521.54,-480.55 525,-476.43 517.58,-481.1 517.58,-481.1"/>
<ellipse fill="none" stroke="black" cx="514.41" cy="-481.54" rx="3.2" ry="3.2"/>
</g>
<!-- ad_user&#45;&gt;ad_org -->
<g id="edge11" class="edge">
<title>ad_user:w&#45;&gt;ad_org:e</title>
<path fill="none" stroke="black" d="M511.73,-330.46C456.35,-372.66 556.38,-700 478,-700"/>
<polygon fill="black" stroke="black" points="517.89,-328.47 526.61,-329.42 521.69,-327.23 525.5,-326 525.5,-326 525.5,-326 521.69,-327.23 524.39,-322.58 517.89,-328.47 517.89,-328.47"/>
<ellipse fill="none" stroke="black" cx="514.85" cy="-329.45" rx="3.2" ry="3.2"/>
</g>
<!-- ad_user&#45;&gt;ad_client -->
<g id="edge9" class="edge">
<title>ad_user:w&#45;&gt;ad_client:e</title>
<path fill="none" stroke="black" d="M510.83,-501.75C409.2,-498.28 355.47,-461.29 277,-533 215.22,-589.46 320.69,-717 237,-717"/>
<polygon fill="black" stroke="black" points="517.5,-501.86 525.44,-505.6 521.5,-501.93 525.5,-502 525.5,-502 525.5,-502 521.5,-501.93 525.56,-498.4 517.5,-501.86 517.5,-501.86"/>
<ellipse fill="none" stroke="black" cx="514.3" cy="-501.81" rx="3.2" ry="3.2"/>
</g>
</g>
</svg>
