<?xml version="1.0" encoding="UTF-8" standalone="no"?>
<!DOCTYPE svg PUBLIC "-//W3C//DTD SVG 1.1//EN"
 "http://www.w3.org/Graphics/SVG/1.1/DTD/svg11.dtd">
<!-- Generated by graphviz version 2.43.0 (0)
 -->
<!-- Title: oneDegreeRelationshipsDiagramImplied Pages: 1 -->
<svg width="1042pt" height="700pt"
 viewBox="0.00 0.00 1042.00 700.00" xmlns="http://www.w3.org/2000/svg" xmlns:xlink="http://www.w3.org/1999/xlink">
<g id="graph0" class="graph" transform="scale(1 1) rotate(0) translate(4 696)">
<title>oneDegreeRelationshipsDiagramImplied</title>
<polygon fill="#ffffff" stroke="transparent" points="-4,4 -4,-696 1038,-696 1038,4 -4,4"/>
<text text-anchor="middle" x="71.5" y="-7.2" font-family="Helvetica,sans-Serif" font-size="11.00">Generated by SchemaSpy</text>
<!-- ad_package_imp -->
<g id="node1" class="node">
<title>ad_package_imp</title>
<g id="a_node1"><a xlink:href="../../tables/ad_package_imp.html" xlink:title="ad_package_imp" target="_top">
<polygon fill="#ffffff" stroke="transparent" points="247,-75 247,-647 520,-647 520,-75 247,-75"/>
<polygon fill="#f5f5f5" stroke="transparent" points="249.5,-623 249.5,-645 518.5,-645 518.5,-623 249.5,-623"/>
<polygon fill="none" stroke="black" points="249.5,-623 249.5,-645 518.5,-645 518.5,-623 249.5,-623"/>
<text text-anchor="start" x="254.5" y="-632.2" font-family="Helvetica,sans-Serif" font-weight="bold" font-size="11.00">ad_package_imp</text>
<text text-anchor="start" x="483.5" y="-631.2" font-family="Helvetica,sans-Serif" font-size="11.00">[table]</text>
<polygon fill="none" stroke="black" points="249.5,-601 249.5,-623 435.5,-623 435.5,-601 249.5,-601"/>
<image xlink:href="../../images/primaryKeys.png" width="11px" height="12px" preserveAspectRatio="xMinYMin meet" x="254.5" y="-618"/>
<text text-anchor="start" x="269.5" y="-609.2" font-family="Helvetica,sans-Serif" font-size="11.00">ad_package_imp_id</text>
<polygon fill="none" stroke="black" points="435.5,-601 435.5,-623 518.5,-623 518.5,-601 435.5,-601"/>
<text text-anchor="start" x="438.5" y="-609.2" font-family="Helvetica,sans-Serif" font-size="11.00">numeric[10]</text>
<polygon fill="none" stroke="black" points="249.5,-579 249.5,-601 435.5,-601 435.5,-579 249.5,-579"/>
<text text-anchor="start" x="269.5" y="-587.2" font-family="Helvetica,sans-Serif" font-size="11.00">ad_client_id</text>
<polygon fill="none" stroke="black" points="435.5,-579 435.5,-601 518.5,-601 518.5,-579 435.5,-579"/>
<text text-anchor="start" x="438.5" y="-587.2" font-family="Helvetica,sans-Serif" font-size="11.00">numeric[10]</text>
<polygon fill="none" stroke="black" points="249.5,-557 249.5,-579 435.5,-579 435.5,-557 249.5,-557"/>
<text text-anchor="start" x="269.5" y="-565.2" font-family="Helvetica,sans-Serif" font-size="11.00">ad_org_id</text>
<polygon fill="none" stroke="black" points="435.5,-557 435.5,-579 518.5,-579 518.5,-557 435.5,-557"/>
<text text-anchor="start" x="438.5" y="-565.2" font-family="Helvetica,sans-Serif" font-size="11.00">numeric[10]</text>
<polygon fill="none" stroke="black" points="249.5,-535 249.5,-557 435.5,-557 435.5,-535 249.5,-535"/>
<text text-anchor="start" x="269.5" y="-543.2" font-family="Helvetica,sans-Serif" font-size="11.00">isactive</text>
<polygon fill="none" stroke="black" points="435.5,-535 435.5,-557 518.5,-557 518.5,-535 435.5,-535"/>
<text text-anchor="start" x="438.5" y="-543.2" font-family="Helvetica,sans-Serif" font-size="11.00">bpchar[1]</text>
<polygon fill="none" stroke="black" points="249.5,-513 249.5,-535 435.5,-535 435.5,-513 249.5,-513"/>
<text text-anchor="start" x="269.5" y="-521.2" font-family="Helvetica,sans-Serif" font-size="11.00">created</text>
<polygon fill="none" stroke="black" points="435.5,-513 435.5,-535 518.5,-535 518.5,-513 435.5,-513"/>
<text text-anchor="start" x="438.5" y="-521.2" font-family="Helvetica,sans-Serif" font-size="11.00">timestamp[29,6]</text>
<polygon fill="none" stroke="black" points="249.5,-491 249.5,-513 435.5,-513 435.5,-491 249.5,-491"/>
<text text-anchor="start" x="269.5" y="-499.2" font-family="Helvetica,sans-Serif" font-size="11.00">createdby</text>
<polygon fill="none" stroke="black" points="435.5,-491 435.5,-513 518.5,-513 518.5,-491 435.5,-491"/>
<text text-anchor="start" x="438.5" y="-499.2" font-family="Helvetica,sans-Serif" font-size="11.00">numeric[10]</text>
<polygon fill="none" stroke="black" points="249.5,-469 249.5,-491 435.5,-491 435.5,-469 249.5,-469"/>
<text text-anchor="start" x="269.5" y="-477.2" font-family="Helvetica,sans-Serif" font-size="11.00">updated</text>
<polygon fill="none" stroke="black" points="435.5,-469 435.5,-491 518.5,-491 518.5,-469 435.5,-469"/>
<text text-anchor="start" x="438.5" y="-477.2" font-family="Helvetica,sans-Serif" font-size="11.00">timestamp[29,6]</text>
<polygon fill="none" stroke="black" points="249.5,-447 249.5,-469 435.5,-469 435.5,-447 249.5,-447"/>
<text text-anchor="start" x="269.5" y="-455.2" font-family="Helvetica,sans-Serif" font-size="11.00">updatedby</text>
<polygon fill="none" stroke="black" points="435.5,-447 435.5,-469 518.5,-469 518.5,-447 435.5,-447"/>
<text text-anchor="start" x="438.5" y="-455.2" font-family="Helvetica,sans-Serif" font-size="11.00">numeric[10]</text>
<polygon fill="none" stroke="black" points="249.5,-425 249.5,-447 435.5,-447 435.5,-425 249.5,-425"/>
<text text-anchor="start" x="269.5" y="-433.2" font-family="Helvetica,sans-Serif" font-size="11.00">name</text>
<polygon fill="none" stroke="black" points="435.5,-425 435.5,-447 518.5,-447 518.5,-425 435.5,-425"/>
<text text-anchor="start" x="438.5" y="-433.2" font-family="Helvetica,sans-Serif" font-size="11.00">varchar[500]</text>
<polygon fill="none" stroke="black" points="249.5,-403 249.5,-425 435.5,-425 435.5,-403 249.5,-403"/>
<text text-anchor="start" x="269.5" y="-411.2" font-family="Helvetica,sans-Serif" font-size="11.00">pk_status</text>
<polygon fill="none" stroke="black" points="435.5,-403 435.5,-425 518.5,-425 518.5,-403 435.5,-403"/>
<text text-anchor="start" x="438.5" y="-411.2" font-family="Helvetica,sans-Serif" font-size="11.00">varchar[22]</text>
<polygon fill="none" stroke="black" points="249.5,-381 249.5,-403 435.5,-403 435.5,-381 249.5,-381"/>
<text text-anchor="start" x="269.5" y="-389.2" font-family="Helvetica,sans-Serif" font-size="11.00">releaseno</text>
<polygon fill="none" stroke="black" points="435.5,-381 435.5,-403 518.5,-403 518.5,-381 435.5,-381"/>
<text text-anchor="start" x="438.5" y="-389.2" font-family="Helvetica,sans-Serif" font-size="11.00">varchar[20]</text>
<polygon fill="none" stroke="black" points="249.5,-359 249.5,-381 435.5,-381 435.5,-359 249.5,-359"/>
<text text-anchor="start" x="269.5" y="-367.2" font-family="Helvetica,sans-Serif" font-size="11.00">pk_version</text>
<polygon fill="none" stroke="black" points="435.5,-359 435.5,-381 518.5,-381 518.5,-359 435.5,-359"/>
<text text-anchor="start" x="438.5" y="-367.2" font-family="Helvetica,sans-Serif" font-size="11.00">varchar[20]</text>
<polygon fill="none" stroke="black" points="249.5,-337 249.5,-359 435.5,-359 435.5,-337 249.5,-337"/>
<text text-anchor="start" x="269.5" y="-345.2" font-family="Helvetica,sans-Serif" font-size="11.00">version</text>
<polygon fill="none" stroke="black" points="435.5,-337 435.5,-359 518.5,-359 518.5,-337 435.5,-337"/>
<text text-anchor="start" x="438.5" y="-345.2" font-family="Helvetica,sans-Serif" font-size="11.00">varchar[20]</text>
<polygon fill="none" stroke="black" points="249.5,-315 249.5,-337 435.5,-337 435.5,-315 249.5,-315"/>
<text text-anchor="start" x="269.5" y="-323.2" font-family="Helvetica,sans-Serif" font-size="11.00">description</text>
<polygon fill="none" stroke="black" points="435.5,-315 435.5,-337 518.5,-337 518.5,-315 435.5,-315"/>
<text text-anchor="start" x="438.5" y="-323.2" font-family="Helvetica,sans-Serif" font-size="11.00">varchar[1000]</text>
<polygon fill="none" stroke="black" points="249.5,-293 249.5,-315 435.5,-315 435.5,-293 249.5,-293"/>
<text text-anchor="start" x="269.5" y="-301.2" font-family="Helvetica,sans-Serif" font-size="11.00">email</text>
<polygon fill="none" stroke="black" points="435.5,-293 435.5,-315 518.5,-315 518.5,-293 435.5,-293"/>
<text text-anchor="start" x="438.5" y="-301.2" font-family="Helvetica,sans-Serif" font-size="11.00">varchar[60]</text>
<polygon fill="none" stroke="black" points="249.5,-271 249.5,-293 435.5,-293 435.5,-271 249.5,-271"/>
<text text-anchor="start" x="269.5" y="-279.2" font-family="Helvetica,sans-Serif" font-size="11.00">processed</text>
<polygon fill="none" stroke="black" points="435.5,-271 435.5,-293 518.5,-293 518.5,-271 435.5,-271"/>
<text text-anchor="start" x="438.5" y="-279.2" font-family="Helvetica,sans-Serif" font-size="11.00">bpchar[1]</text>
<polygon fill="none" stroke="black" points="249.5,-249 249.5,-271 435.5,-271 435.5,-249 249.5,-249"/>
<text text-anchor="start" x="269.5" y="-257.2" font-family="Helvetica,sans-Serif" font-size="11.00">processing</text>
<polygon fill="none" stroke="black" points="435.5,-249 435.5,-271 518.5,-271 518.5,-249 435.5,-249"/>
<text text-anchor="start" x="438.5" y="-257.2" font-family="Helvetica,sans-Serif" font-size="11.00">bpchar[1]</text>
<polygon fill="none" stroke="black" points="249.5,-227 249.5,-249 435.5,-249 435.5,-227 249.5,-227"/>
<text text-anchor="start" x="269.5" y="-235.2" font-family="Helvetica,sans-Serif" font-size="11.00">creator</text>
<polygon fill="none" stroke="black" points="435.5,-227 435.5,-249 518.5,-249 518.5,-227 435.5,-227"/>
<text text-anchor="start" x="438.5" y="-235.2" font-family="Helvetica,sans-Serif" font-size="11.00">varchar[60]</text>
<polygon fill="none" stroke="black" points="249.5,-205 249.5,-227 435.5,-227 435.5,-205 249.5,-205"/>
<text text-anchor="start" x="269.5" y="-213.2" font-family="Helvetica,sans-Serif" font-size="11.00">creatorcontact</text>
<polygon fill="none" stroke="black" points="435.5,-205 435.5,-227 518.5,-227 518.5,-205 435.5,-205"/>
<text text-anchor="start" x="438.5" y="-213.2" font-family="Helvetica,sans-Serif" font-size="11.00">varchar[255]</text>
<polygon fill="none" stroke="black" points="249.5,-183 249.5,-205 435.5,-205 435.5,-183 249.5,-183"/>
<text text-anchor="start" x="269.5" y="-191.2" font-family="Helvetica,sans-Serif" font-size="11.00">createddate</text>
<polygon fill="none" stroke="black" points="435.5,-183 435.5,-205 518.5,-205 518.5,-183 435.5,-183"/>
<text text-anchor="start" x="438.5" y="-191.2" font-family="Helvetica,sans-Serif" font-size="11.00">varchar[25]</text>
<polygon fill="none" stroke="black" points="249.5,-161 249.5,-183 435.5,-183 435.5,-161 249.5,-161"/>
<text text-anchor="start" x="269.5" y="-169.2" font-family="Helvetica,sans-Serif" font-size="11.00">updateddate</text>
<polygon fill="none" stroke="black" points="435.5,-161 435.5,-183 518.5,-183 518.5,-161 435.5,-161"/>
<text text-anchor="start" x="438.5" y="-169.2" font-family="Helvetica,sans-Serif" font-size="11.00">varchar[25]</text>
<polygon fill="none" stroke="black" points="249.5,-139 249.5,-161 435.5,-161 435.5,-139 249.5,-139"/>
<text text-anchor="start" x="269.5" y="-147.2" font-family="Helvetica,sans-Serif" font-size="11.00">uninstall</text>
<polygon fill="none" stroke="black" points="435.5,-139 435.5,-161 518.5,-161 518.5,-139 435.5,-139"/>
<text text-anchor="start" x="438.5" y="-147.2" font-family="Helvetica,sans-Serif" font-size="11.00">bpchar[1]</text>
<polygon fill="#ffffff" stroke="transparent" points="249.5,-117 249.5,-139 435.5,-139 435.5,-117 249.5,-117"/>
<polygon fill="none" stroke="black" points="249.5,-117 249.5,-139 435.5,-139 435.5,-117 249.5,-117"/>
<text text-anchor="start" x="269.5" y="-125.2" font-family="Helvetica,sans-Serif" font-size="11.00">ad_package_imp_uu</text>
<polygon fill="none" stroke="black" points="435.5,-117 435.5,-139 518.5,-139 518.5,-117 435.5,-117"/>
<text text-anchor="start" x="438.5" y="-125.2" font-family="Helvetica,sans-Serif" font-size="11.00">varchar[36]</text>
<polygon fill="none" stroke="black" points="249.5,-95 249.5,-117 435.5,-117 435.5,-95 249.5,-95"/>
<image xlink:href="../../images/foreignKeys.png" width="11px" height="12px" preserveAspectRatio="xMinYMin meet" x="254.5" y="-112"/>
<text text-anchor="start" x="269.5" y="-103.2" font-family="Helvetica,sans-Serif" font-size="11.00">ad_package_imp_proc_id</text>
<polygon fill="none" stroke="black" points="435.5,-95 435.5,-117 518.5,-117 518.5,-95 435.5,-95"/>
<text text-anchor="start" x="438.5" y="-103.2" font-family="Helvetica,sans-Serif" font-size="11.00">numeric[10]</text>
<polygon fill="#ffffff" stroke="transparent" points="249.5,-77 249.5,-95 333.5,-95 333.5,-77 249.5,-77"/>
<polygon fill="none" stroke="black" points="249.5,-77 249.5,-95 333.5,-95 333.5,-77 249.5,-77"/>
<text text-anchor="start" x="252.5" y="-83.2" font-family="Helvetica,sans-Serif" font-size="11.00">&lt; 1</text>
<polygon fill="#ffffff" stroke="transparent" points="333.5,-77 333.5,-95 435.5,-95 435.5,-77 333.5,-77"/>
<polygon fill="none" stroke="black" points="333.5,-77 333.5,-95 435.5,-95 435.5,-77 333.5,-77"/>
<text text-anchor="start" x="399.5" y="-83.2" font-family="Helvetica,sans-Serif" font-size="11.00">6 rows</text>
<polygon fill="#ffffff" stroke="transparent" points="435.5,-77 435.5,-95 518.5,-95 518.5,-77 435.5,-77"/>
<polygon fill="none" stroke="black" points="435.5,-77 435.5,-95 518.5,-95 518.5,-77 435.5,-77"/>
<text text-anchor="start" x="499.5" y="-83.2" font-family="Helvetica,sans-Serif" font-size="11.00">2 &gt;</text>
<polygon fill="none" stroke="black" stroke-width="2" points="248,-76 248,-646 519,-646 519,-76 248,-76"/>
</a>
</g>
</g>
<!-- ad_package_imp_proc -->
<g id="node2" class="node">
<title>ad_package_imp_proc</title>
<g id="a_node2"><a xlink:href="../../tables/ad_package_imp_proc.html" xlink:title="ad_package_imp_proc" target="_top">
<polygon fill="#ffffff" stroke="transparent" points="8,-37 8,-139 198,-139 198,-37 8,-37"/>
<polygon fill="#f5f5f5" stroke="transparent" points="8,-117 8,-139 198,-139 198,-117 8,-117"/>
<polygon fill="none" stroke="black" points="8,-117 8,-139 198,-139 198,-117 8,-117"/>
<text text-anchor="start" x="13" y="-126.2" font-family="Helvetica,sans-Serif" font-weight="bold" font-size="11.00">ad_package_imp_proc</text>
<text text-anchor="start" x="163" y="-125.2" font-family="Helvetica,sans-Serif" font-size="11.00">[table]</text>
<polygon fill="none" stroke="black" points="8,-95 8,-117 198,-117 198,-95 8,-95"/>
<image xlink:href="../../images/primaryKeys.png" width="11px" height="12px" preserveAspectRatio="xMinYMin meet" x="13" y="-112"/>
<text text-anchor="start" x="28" y="-103.2" font-family="Helvetica,sans-Serif" font-size="11.00">ad_package_imp_proc_id</text>
<polygon fill="#ffffff" stroke="transparent" points="8,-73 8,-95 198,-95 198,-73 8,-73"/>
<polygon fill="none" stroke="black" points="8,-73 8,-95 198,-95 198,-73 8,-73"/>
<text text-anchor="start" x="28" y="-81.2" font-family="Helvetica,sans-Serif" font-size="11.00">ad_package_imp_proc_uu</text>
<polygon fill="none" stroke="black" points="8,-55 8,-73 198,-73 198,-55 8,-55"/>
<text text-anchor="start" x="11" y="-61.2" font-family="Helvetica,sans-Serif" font-size="11.00">...</text>
<polygon fill="#ffffff" stroke="transparent" points="8,-37 8,-55 79,-55 79,-37 8,-37"/>
<polygon fill="none" stroke="black" points="8,-37 8,-55 79,-55 79,-37 8,-37"/>
<text text-anchor="start" x="11" y="-43.2" font-family="Helvetica,sans-Serif" font-size="11.00"> &#160;</text>
<polygon fill="#ffffff" stroke="transparent" points="79,-37 79,-55 147,-55 147,-37 79,-37"/>
<polygon fill="none" stroke="black" points="79,-37 79,-55 147,-55 147,-37 79,-37"/>
<text text-anchor="start" x="111" y="-43.2" font-family="Helvetica,sans-Serif" font-size="11.00">5 rows</text>
<polygon fill="#ffffff" stroke="transparent" points="147,-37 147,-55 198,-55 198,-37 147,-37"/>
<polygon fill="none" stroke="black" points="147,-37 147,-55 198,-55 198,-37 147,-37"/>
<text text-anchor="start" x="179" y="-43.2" font-family="Helvetica,sans-Serif" font-size="11.00">1 &gt;</text>
</a>
</g>
</g>
<!-- ad_package_imp&#45;&gt;ad_package_imp_proc -->
<g id="edge1" class="edge">
<title>ad_package_imp:w&#45;&gt;ad_package_imp_proc:e</title>
<path fill="none" stroke="black" d="M233.84,-106C222.41,-106 215.16,-106 199,-106"/>
<polygon fill="black" stroke="black" points="240.5,-106 248.5,-109.6 244.5,-106 248.5,-106 248.5,-106 248.5,-106 244.5,-106 248.5,-102.4 240.5,-106 240.5,-106"/>
<ellipse fill="none" stroke="black" cx="237.3" cy="-106" rx="3.2" ry="3.2"/>
</g>
<!-- ad_package_imp_backup -->
<g id="node3" class="node">
<title>ad_package_imp_backup</title>
<g id="a_node3"><a xlink:href="../../tables/ad_package_imp_backup.html" xlink:title="ad_package_imp_backup" target="_top">
<polygon fill="#ffffff" stroke="transparent" points="817,-476 817,-688 1026,-688 1026,-476 817,-476"/>
<polygon fill="#f5f5f5" stroke="transparent" points="817.5,-666 817.5,-688 1026.5,-688 1026.5,-666 817.5,-666"/>
<polygon fill="none" stroke="black" points="817.5,-666 817.5,-688 1026.5,-688 1026.5,-666 817.5,-666"/>
<text text-anchor="start" x="822.5" y="-675.2" font-family="Helvetica,sans-Serif" font-weight="bold" font-size="11.00">ad_package_imp_backup</text>
<text text-anchor="start" x="991.5" y="-674.2" font-family="Helvetica,sans-Serif" font-size="11.00">[table]</text>
<polygon fill="none" stroke="black" points="817.5,-644 817.5,-666 1026.5,-666 1026.5,-644 817.5,-644"/>
<image xlink:href="../../images/primaryKeys.png" width="11px" height="12px" preserveAspectRatio="xMinYMin meet" x="822.5" y="-661"/>
<text text-anchor="start" x="837.5" y="-652.2" font-family="Helvetica,sans-Serif" font-size="11.00">ad_package_imp_backup_id</text>
<polygon fill="none" stroke="black" points="817.5,-622 817.5,-644 1026.5,-644 1026.5,-622 817.5,-622"/>
<image xlink:href="../../images/foreignKeys.png" width="11px" height="12px" preserveAspectRatio="xMinYMin meet" x="822.5" y="-639"/>
<text text-anchor="start" x="837.5" y="-630.2" font-family="Helvetica,sans-Serif" font-size="11.00">ad_package_imp_id</text>
<polygon fill="none" stroke="black" points="817.5,-600 817.5,-622 1026.5,-622 1026.5,-600 817.5,-600"/>
<image xlink:href="../../images/foreignKeys.png" width="11px" height="12px" preserveAspectRatio="xMinYMin meet" x="822.5" y="-617"/>
<text text-anchor="start" x="837.5" y="-608.2" font-family="Helvetica,sans-Serif" font-size="11.00">ad_package_imp_detail_id</text>
<polygon fill="none" stroke="black" points="817.5,-578 817.5,-600 1026.5,-600 1026.5,-578 817.5,-578"/>
<image xlink:href="../../images/foreignKeys.png" width="11px" height="12px" preserveAspectRatio="xMinYMin meet" x="822.5" y="-595"/>
<text text-anchor="start" x="837.5" y="-586.2" font-family="Helvetica,sans-Serif" font-size="11.00">ad_table_id</text>
<polygon fill="none" stroke="black" points="817.5,-556 817.5,-578 1026.5,-578 1026.5,-556 817.5,-556"/>
<image xlink:href="../../images/foreignKeys.png" width="11px" height="12px" preserveAspectRatio="xMinYMin meet" x="822.5" y="-573"/>
<text text-anchor="start" x="837.5" y="-564.2" font-family="Helvetica,sans-Serif" font-size="11.00">ad_column_id</text>
<polygon fill="none" stroke="black" points="817.5,-534 817.5,-556 1026.5,-556 1026.5,-534 817.5,-534"/>
<image xlink:href="../../images/foreignKeys.png" width="11px" height="12px" preserveAspectRatio="xMinYMin meet" x="822.5" y="-551"/>
<text text-anchor="start" x="837.5" y="-542.2" font-family="Helvetica,sans-Serif" font-size="11.00">ad_reference_id</text>
<polygon fill="#ffffff" stroke="transparent" points="817.5,-512 817.5,-534 1026.5,-534 1026.5,-512 817.5,-512"/>
<polygon fill="none" stroke="black" points="817.5,-512 817.5,-534 1026.5,-534 1026.5,-512 817.5,-512"/>
<text text-anchor="start" x="837.5" y="-520.2" font-family="Helvetica,sans-Serif" font-size="11.00">ad_package_imp_backup_uu</text>
<polygon fill="none" stroke="black" points="817.5,-494 817.5,-512 1026.5,-512 1026.5,-494 817.5,-494"/>
<text text-anchor="start" x="820.5" y="-500.2" font-family="Helvetica,sans-Serif" font-size="11.00">...</text>
<polygon fill="#ffffff" stroke="transparent" points="817.5,-476 817.5,-494 906.5,-494 906.5,-476 817.5,-476"/>
<polygon fill="none" stroke="black" points="817.5,-476 817.5,-494 906.5,-494 906.5,-476 817.5,-476"/>
<text text-anchor="start" x="820.5" y="-482.2" font-family="Helvetica,sans-Serif" font-size="11.00">&lt; 5</text>
<polygon fill="#ffffff" stroke="transparent" points="906.5,-476 906.5,-494 979.5,-494 979.5,-476 906.5,-476"/>
<polygon fill="none" stroke="black" points="906.5,-476 906.5,-494 979.5,-494 979.5,-476 906.5,-476"/>
<text text-anchor="start" x="943.5" y="-482.2" font-family="Helvetica,sans-Serif" font-size="11.00">4 rows</text>
<polygon fill="#ffffff" stroke="transparent" points="979.5,-476 979.5,-494 1026.5,-494 1026.5,-476 979.5,-476"/>
<polygon fill="none" stroke="black" points="979.5,-476 979.5,-494 1026.5,-494 1026.5,-476 979.5,-476"/>
<text text-anchor="start" x="1016.5" y="-482.2" font-family="Helvetica,sans-Serif" font-size="11.00"> &#160;</text>
</a>
</g>
</g>
<!-- ad_package_imp_backup&#45;&gt;ad_package_imp -->
<g id="edge3" class="edge">
<title>ad_package_imp_backup:w&#45;&gt;ad_package_imp:e</title>
<path fill="none" stroke="black" stroke-dasharray="5,2" d="M801.87,-634.06C793.94,-635.3 788.02,-637.26 776,-638 680.62,-643.87 652.84,-664.39 561,-638 540.08,-631.99 541.27,-612 519.5,-612"/>
<polygon fill="black" stroke="black" points="808.52,-633.58 816.76,-636.59 812.51,-633.29 816.5,-633 816.5,-633 816.5,-633 812.51,-633.29 816.24,-629.41 808.52,-633.58 808.52,-633.58"/>
<ellipse fill="none" stroke="black" cx="805.33" cy="-633.81" rx="3.2" ry="3.2"/>
</g>
<!-- ad_package_imp_detail -->
<g id="node4" class="node">
<title>ad_package_imp_detail</title>
<g id="a_node4"><a xlink:href="../../tables/ad_package_imp_detail.html" xlink:title="ad_package_imp_detail" target="_top">
<polygon fill="#ffffff" stroke="transparent" points="569,-481 569,-627 768,-627 768,-481 569,-481"/>
<polygon fill="#f5f5f5" stroke="transparent" points="569.5,-605 569.5,-627 768.5,-627 768.5,-605 569.5,-605"/>
<polygon fill="none" stroke="black" points="569.5,-605 569.5,-627 768.5,-627 768.5,-605 569.5,-605"/>
<text text-anchor="start" x="574.5" y="-614.2" font-family="Helvetica,sans-Serif" font-weight="bold" font-size="11.00">ad_package_imp_detail</text>
<text text-anchor="start" x="733.5" y="-613.2" font-family="Helvetica,sans-Serif" font-size="11.00">[table]</text>
<polygon fill="none" stroke="black" points="569.5,-583 569.5,-605 768.5,-605 768.5,-583 569.5,-583"/>
<image xlink:href="../../images/primaryKeys.png" width="11px" height="12px" preserveAspectRatio="xMinYMin meet" x="574.5" y="-600"/>
<text text-anchor="start" x="589.5" y="-591.2" font-family="Helvetica,sans-Serif" font-size="11.00">ad_package_imp_detail_id</text>
<polygon fill="none" stroke="black" points="569.5,-561 569.5,-583 768.5,-583 768.5,-561 569.5,-561"/>
<image xlink:href="../../images/foreignKeys.png" width="11px" height="12px" preserveAspectRatio="xMinYMin meet" x="574.5" y="-578"/>
<text text-anchor="start" x="589.5" y="-569.2" font-family="Helvetica,sans-Serif" font-size="11.00">ad_package_imp_id</text>
<polygon fill="none" stroke="black" points="569.5,-539 569.5,-561 768.5,-561 768.5,-539 569.5,-539"/>
<image xlink:href="../../images/foreignKeys.png" width="11px" height="12px" preserveAspectRatio="xMinYMin meet" x="574.5" y="-556"/>
<text text-anchor="start" x="589.5" y="-547.2" font-family="Helvetica,sans-Serif" font-size="11.00">ad_table_id</text>
<polygon fill="#ffffff" stroke="transparent" points="569.5,-517 569.5,-539 768.5,-539 768.5,-517 569.5,-517"/>
<polygon fill="none" stroke="black" points="569.5,-517 569.5,-539 768.5,-539 768.5,-517 569.5,-517"/>
<text text-anchor="start" x="589.5" y="-525.2" font-family="Helvetica,sans-Serif" font-size="11.00">ad_package_imp_detail_uu</text>
<polygon fill="none" stroke="black" points="569.5,-499 569.5,-517 768.5,-517 768.5,-499 569.5,-499"/>
<text text-anchor="start" x="572.5" y="-505.2" font-family="Helvetica,sans-Serif" font-size="11.00">...</text>
<polygon fill="#ffffff" stroke="transparent" points="569.5,-481 569.5,-499 646.5,-499 646.5,-481 569.5,-481"/>
<polygon fill="none" stroke="black" points="569.5,-481 569.5,-499 646.5,-499 646.5,-481 569.5,-481"/>
<text text-anchor="start" x="572.5" y="-487.2" font-family="Helvetica,sans-Serif" font-size="11.00">&lt; 2</text>
<polygon fill="#ffffff" stroke="transparent" points="646.5,-481 646.5,-499 718.5,-499 718.5,-481 646.5,-481"/>
<polygon fill="none" stroke="black" points="646.5,-481 646.5,-499 718.5,-499 718.5,-481 646.5,-481"/>
<text text-anchor="start" x="676.5" y="-487.2" font-family="Helvetica,sans-Serif" font-size="11.00">34 rows</text>
<polygon fill="#ffffff" stroke="transparent" points="718.5,-481 718.5,-499 768.5,-499 768.5,-481 718.5,-481"/>
<polygon fill="none" stroke="black" points="718.5,-481 718.5,-499 768.5,-499 768.5,-481 718.5,-481"/>
<text text-anchor="start" x="749.5" y="-487.2" font-family="Helvetica,sans-Serif" font-size="11.00">1 &gt;</text>
</a>
</g>
</g>
<!-- ad_package_imp_backup&#45;&gt;ad_package_imp_detail -->
<g id="edge2" class="edge">
<title>ad_package_imp_backup:w&#45;&gt;ad_package_imp_detail:e</title>
<path fill="none" stroke="black" stroke-dasharray="5,2" d="M802.22,-608.04C791.53,-603.17 785.81,-594 769.5,-594"/>
<polygon fill="black" stroke="black" points="808.67,-609.38 815.77,-614.53 812.58,-610.19 816.5,-611 816.5,-611 816.5,-611 812.58,-610.19 817.23,-607.47 808.67,-609.38 808.67,-609.38"/>
<ellipse fill="none" stroke="black" cx="805.53" cy="-608.73" rx="3.2" ry="3.2"/>
</g>
<!-- ad_package_imp_detail&#45;&gt;ad_package_imp -->
<g id="edge4" class="edge">
<title>ad_package_imp_detail:w&#45;&gt;ad_package_imp:e</title>
<path fill="none" stroke="black" d="M554.76,-576.59C541.86,-587.1 541.68,-612 519.5,-612"/>
<polygon fill="black" stroke="black" points="560.91,-574.53 569.64,-575.41 564.71,-573.27 568.5,-572 568.5,-572 568.5,-572 564.71,-573.27 567.36,-568.59 560.91,-574.53 560.91,-574.53"/>
<ellipse fill="none" stroke="black" cx="557.88" cy="-575.55" rx="3.2" ry="3.2"/>
</g>
</g>
</svg>
