<?xml version="1.0" encoding="UTF-8" standalone="no"?>
<!DOCTYPE svg PUBLIC "-//W3C//DTD SVG 1.1//EN"
 "http://www.w3.org/Graphics/SVG/1.1/DTD/svg11.dtd">
<!-- Generated by graphviz version 2.43.0 (0)
 -->
<!-- Title: oneDegreeRelationshipsDiagram Pages: 1 -->
<svg width="1096pt" height="1220pt"
 viewBox="0.00 0.00 1096.00 1220.16" xmlns="http://www.w3.org/2000/svg" xmlns:xlink="http://www.w3.org/1999/xlink">
<g id="graph0" class="graph" transform="scale(1 1) rotate(0) translate(4 1216.16)">
<title>oneDegreeRelationshipsDiagram</title>
<polygon fill="#ffffff" stroke="transparent" points="-4,4 -4,-1216.16 1092,-1216.16 1092,4 -4,4"/>
<text text-anchor="middle" x="71.5" y="-7.2" font-family="Helvetica,sans-Serif" font-size="11.00">Generated by SchemaSpy</text>
<!-- ad_column -->
<g id="node1" class="node">
<title>ad_column</title>
<g id="a_node1"><a xlink:href="../../tables/ad_column.html" xlink:title="ad_column" target="_top">
<polygon fill="#ffffff" stroke="transparent" points="544.5,-772 544.5,-1160 730.5,-1160 730.5,-772 544.5,-772"/>
<polygon fill="#f5f5f5" stroke="transparent" points="544.5,-1138 544.5,-1160 730.5,-1160 730.5,-1138 544.5,-1138"/>
<polygon fill="none" stroke="black" points="544.5,-1138 544.5,-1160 730.5,-1160 730.5,-1138 544.5,-1138"/>
<text text-anchor="start" x="549.5" y="-1147.2" font-family="Helvetica,sans-Serif" font-weight="bold" font-size="11.00">ad_column</text>
<text text-anchor="start" x="695.5" y="-1146.2" font-family="Helvetica,sans-Serif" font-size="11.00">[table]</text>
<polygon fill="none" stroke="black" points="544.5,-1116 544.5,-1138 730.5,-1138 730.5,-1116 544.5,-1116"/>
<image xlink:href="../../images/primaryKeys.png" width="11px" height="12px" preserveAspectRatio="xMinYMin meet" x="549.5" y="-1133"/>
<text text-anchor="start" x="564.5" y="-1124.2" font-family="Helvetica,sans-Serif" font-size="11.00">ad_column_id</text>
<polygon fill="none" stroke="black" points="544.5,-1094 544.5,-1116 730.5,-1116 730.5,-1094 544.5,-1094"/>
<image xlink:href="../../images/foreignKeys.png" width="11px" height="12px" preserveAspectRatio="xMinYMin meet" x="549.5" y="-1111"/>
<text text-anchor="start" x="564.5" y="-1102.2" font-family="Helvetica,sans-Serif" font-size="11.00">ad_client_id</text>
<polygon fill="none" stroke="black" points="544.5,-1072 544.5,-1094 730.5,-1094 730.5,-1072 544.5,-1072"/>
<image xlink:href="../../images/foreignKeys.png" width="11px" height="12px" preserveAspectRatio="xMinYMin meet" x="549.5" y="-1089"/>
<text text-anchor="start" x="564.5" y="-1080.2" font-family="Helvetica,sans-Serif" font-size="11.00">ad_org_id</text>
<polygon fill="none" stroke="black" points="544.5,-1050 544.5,-1072 730.5,-1072 730.5,-1050 544.5,-1050"/>
<image xlink:href="../../images/foreignKeys.png" width="11px" height="12px" preserveAspectRatio="xMinYMin meet" x="549.5" y="-1067"/>
<text text-anchor="start" x="564.5" y="-1058.2" font-family="Helvetica,sans-Serif" font-size="11.00">entitytype</text>
<polygon fill="#ffffff" stroke="transparent" points="544.5,-1028 544.5,-1050 730.5,-1050 730.5,-1028 544.5,-1028"/>
<polygon fill="none" stroke="black" points="544.5,-1028 544.5,-1050 730.5,-1050 730.5,-1028 544.5,-1028"/>
<image xlink:href="../../images/foreignKeys.png" width="11px" height="12px" preserveAspectRatio="xMinYMin meet" x="549.5" y="-1045"/>
<text text-anchor="start" x="564.5" y="-1036.2" font-family="Helvetica,sans-Serif" font-size="11.00">ad_table_id</text>
<polygon fill="none" stroke="black" points="544.5,-1006 544.5,-1028 730.5,-1028 730.5,-1006 544.5,-1006"/>
<image xlink:href="../../images/foreignKeys.png" width="11px" height="12px" preserveAspectRatio="xMinYMin meet" x="549.5" y="-1023"/>
<text text-anchor="start" x="564.5" y="-1014.2" font-family="Helvetica,sans-Serif" font-size="11.00">ad_reference_id</text>
<polygon fill="none" stroke="black" points="544.5,-984 544.5,-1006 730.5,-1006 730.5,-984 544.5,-984"/>
<image xlink:href="../../images/foreignKeys.png" width="11px" height="12px" preserveAspectRatio="xMinYMin meet" x="549.5" y="-1001"/>
<text text-anchor="start" x="564.5" y="-992.2" font-family="Helvetica,sans-Serif" font-size="11.00">ad_reference_value_id</text>
<polygon fill="none" stroke="black" points="544.5,-962 544.5,-984 730.5,-984 730.5,-962 544.5,-962"/>
<image xlink:href="../../images/foreignKeys.png" width="11px" height="12px" preserveAspectRatio="xMinYMin meet" x="549.5" y="-979"/>
<text text-anchor="start" x="564.5" y="-970.2" font-family="Helvetica,sans-Serif" font-size="11.00">ad_val_rule_id</text>
<polygon fill="none" stroke="black" points="544.5,-940 544.5,-962 730.5,-962 730.5,-940 544.5,-940"/>
<image xlink:href="../../images/foreignKeys.png" width="11px" height="12px" preserveAspectRatio="xMinYMin meet" x="549.5" y="-957"/>
<text text-anchor="start" x="564.5" y="-948.2" font-family="Helvetica,sans-Serif" font-size="11.00">ad_element_id</text>
<polygon fill="none" stroke="black" points="544.5,-918 544.5,-940 730.5,-940 730.5,-918 544.5,-918"/>
<image xlink:href="../../images/foreignKeys.png" width="11px" height="12px" preserveAspectRatio="xMinYMin meet" x="549.5" y="-935"/>
<text text-anchor="start" x="564.5" y="-926.2" font-family="Helvetica,sans-Serif" font-size="11.00">ad_process_id</text>
<polygon fill="#ffffff" stroke="transparent" points="544.5,-896 544.5,-918 730.5,-918 730.5,-896 544.5,-896"/>
<polygon fill="none" stroke="black" points="544.5,-896 544.5,-918 730.5,-918 730.5,-896 544.5,-896"/>
<text text-anchor="start" x="564.5" y="-904.2" font-family="Helvetica,sans-Serif" font-size="11.00">ad_column_uu</text>
<polygon fill="none" stroke="black" points="544.5,-874 544.5,-896 730.5,-896 730.5,-874 544.5,-874"/>
<image xlink:href="../../images/foreignKeys.png" width="11px" height="12px" preserveAspectRatio="xMinYMin meet" x="549.5" y="-891"/>
<text text-anchor="start" x="564.5" y="-882.2" font-family="Helvetica,sans-Serif" font-size="11.00">ad_chart_id</text>
<polygon fill="none" stroke="black" points="544.5,-852 544.5,-874 730.5,-874 730.5,-852 544.5,-852"/>
<image xlink:href="../../images/foreignKeys.png" width="11px" height="12px" preserveAspectRatio="xMinYMin meet" x="549.5" y="-869"/>
<text text-anchor="start" x="564.5" y="-860.2" font-family="Helvetica,sans-Serif" font-size="11.00">pa_dashboardcontent_id</text>
<polygon fill="none" stroke="black" points="544.5,-830 544.5,-852 730.5,-852 730.5,-830 544.5,-830"/>
<image xlink:href="../../images/foreignKeys.png" width="11px" height="12px" preserveAspectRatio="xMinYMin meet" x="549.5" y="-847"/>
<text text-anchor="start" x="564.5" y="-838.2" font-family="Helvetica,sans-Serif" font-size="11.00">ad_val_rule_lookup_id</text>
<polygon fill="none" stroke="black" points="544.5,-808 544.5,-830 730.5,-830 730.5,-808 544.5,-808"/>
<image xlink:href="../../images/foreignKeys.png" width="11px" height="12px" preserveAspectRatio="xMinYMin meet" x="549.5" y="-825"/>
<text text-anchor="start" x="564.5" y="-816.2" font-family="Helvetica,sans-Serif" font-size="11.00">ad_infowindow_id</text>
<polygon fill="none" stroke="black" points="544.5,-790 544.5,-808 730.5,-808 730.5,-790 544.5,-790"/>
<text text-anchor="start" x="547.5" y="-796.2" font-family="Helvetica,sans-Serif" font-size="11.00">...</text>
<polygon fill="#ffffff" stroke="transparent" points="544.5,-772 544.5,-790 604.5,-790 604.5,-772 544.5,-772"/>
<polygon fill="none" stroke="black" points="544.5,-772 544.5,-790 604.5,-790 604.5,-772 544.5,-772"/>
<text text-anchor="start" x="547.5" y="-778.2" font-family="Helvetica,sans-Serif" font-size="11.00">&lt; 13</text>
<polygon fill="#ffffff" stroke="transparent" points="604.5,-772 604.5,-790 686.5,-790 686.5,-772 604.5,-772"/>
<polygon fill="none" stroke="black" points="604.5,-772 604.5,-790 686.5,-790 686.5,-772 604.5,-772"/>
<text text-anchor="start" x="623.5" y="-778.2" font-family="Helvetica,sans-Serif" font-size="11.00">35.786 rows</text>
<polygon fill="#ffffff" stroke="transparent" points="686.5,-772 686.5,-790 730.5,-790 730.5,-772 686.5,-772"/>
<polygon fill="none" stroke="black" points="686.5,-772 686.5,-790 730.5,-790 730.5,-772 686.5,-772"/>
<text text-anchor="start" x="705.5" y="-778.2" font-family="Helvetica,sans-Serif" font-size="11.00">33 &gt;</text>
</a>
</g>
</g>
<!-- ad_client -->
<g id="node2" class="node">
<title>ad_client</title>
<g id="a_node2"><a xlink:href="../../tables/ad_client.html" xlink:title="ad_client" target="_top">
<polygon fill="#ffffff" stroke="transparent" points="8,-661 8,-873 236,-873 236,-661 8,-661"/>
<polygon fill="#f5f5f5" stroke="transparent" points="8,-851 8,-873 236,-873 236,-851 8,-851"/>
<polygon fill="none" stroke="black" points="8,-851 8,-873 236,-873 236,-851 8,-851"/>
<text text-anchor="start" x="13" y="-860.2" font-family="Helvetica,sans-Serif" font-weight="bold" font-size="11.00">ad_client</text>
<text text-anchor="start" x="201" y="-859.2" font-family="Helvetica,sans-Serif" font-size="11.00">[table]</text>
<polygon fill="none" stroke="black" points="8,-829 8,-851 236,-851 236,-829 8,-829"/>
<image xlink:href="../../images/primaryKeys.png" width="11px" height="12px" preserveAspectRatio="xMinYMin meet" x="13" y="-846"/>
<text text-anchor="start" x="28" y="-837.2" font-family="Helvetica,sans-Serif" font-size="11.00">ad_client_id</text>
<polygon fill="#ffffff" stroke="transparent" points="8,-807 8,-829 236,-829 236,-807 8,-807"/>
<polygon fill="none" stroke="black" points="8,-807 8,-829 236,-829 236,-807 8,-807"/>
<text text-anchor="start" x="28" y="-815.2" font-family="Helvetica,sans-Serif" font-size="11.00">value</text>
<polygon fill="none" stroke="black" points="8,-785 8,-807 236,-807 236,-785 8,-785"/>
<image xlink:href="../../images/foreignKeys.png" width="11px" height="12px" preserveAspectRatio="xMinYMin meet" x="13" y="-802"/>
<text text-anchor="start" x="28" y="-793.2" font-family="Helvetica,sans-Serif" font-size="11.00">ad_language</text>
<polygon fill="none" stroke="black" points="8,-763 8,-785 236,-785 236,-763 8,-763"/>
<image xlink:href="../../images/foreignKeys.png" width="11px" height="12px" preserveAspectRatio="xMinYMin meet" x="13" y="-780"/>
<text text-anchor="start" x="28" y="-771.2" font-family="Helvetica,sans-Serif" font-size="11.00">ad_replicationstrategy_id</text>
<polygon fill="#ffffff" stroke="transparent" points="8,-741 8,-763 236,-763 236,-741 8,-741"/>
<polygon fill="none" stroke="black" points="8,-741 8,-763 236,-763 236,-741 8,-741"/>
<text text-anchor="start" x="28" y="-749.2" font-family="Helvetica,sans-Serif" font-size="11.00">ad_client_uu</text>
<polygon fill="none" stroke="black" points="8,-719 8,-741 236,-741 236,-719 8,-719"/>
<image xlink:href="../../images/foreignKeys.png" width="11px" height="12px" preserveAspectRatio="xMinYMin meet" x="13" y="-736"/>
<text text-anchor="start" x="28" y="-727.2" font-family="Helvetica,sans-Serif" font-size="11.00">ad_passwordrule_id</text>
<polygon fill="#ffffff" stroke="transparent" points="8,-697 8,-719 236,-719 236,-697 8,-697"/>
<polygon fill="none" stroke="black" points="8,-697 8,-719 236,-719 236,-697 8,-697"/>
<text text-anchor="start" x="28" y="-705.2" font-family="Helvetica,sans-Serif" font-size="11.00">loginprefix</text>
<polygon fill="none" stroke="black" points="8,-679 8,-697 236,-697 236,-679 8,-679"/>
<text text-anchor="start" x="11" y="-685.2" font-family="Helvetica,sans-Serif" font-size="11.00">...</text>
<polygon fill="#ffffff" stroke="transparent" points="8,-661 8,-679 96,-679 96,-661 8,-661"/>
<polygon fill="none" stroke="black" points="8,-661 8,-679 96,-679 96,-661 8,-661"/>
<text text-anchor="start" x="11" y="-667.2" font-family="Helvetica,sans-Serif" font-size="11.00">&lt; 3</text>
<polygon fill="#ffffff" stroke="transparent" points="96,-661 96,-679 168,-679 168,-661 96,-661"/>
<polygon fill="none" stroke="black" points="96,-661 96,-679 168,-679 168,-661 96,-661"/>
<text text-anchor="start" x="132" y="-667.2" font-family="Helvetica,sans-Serif" font-size="11.00">2 rows</text>
<polygon fill="#ffffff" stroke="transparent" points="168,-661 168,-679 236,-679 236,-661 168,-661"/>
<polygon fill="none" stroke="black" points="168,-661 168,-679 236,-679 236,-661 168,-661"/>
<text text-anchor="start" x="205" y="-667.2" font-family="Helvetica,sans-Serif" font-size="11.00">145 &gt;</text>
</a>
</g>
</g>
<!-- ad_column&#45;&gt;ad_client -->
<g id="edge1" class="edge">
<title>ad_column:w&#45;&gt;ad_client:e</title>
<path fill="none" stroke="black" d="M528.75,-1104.37C366.27,-1090.2 411.98,-840 237,-840"/>
<polygon fill="black" stroke="black" points="535.51,-1104.66 543.35,-1108.6 539.5,-1104.83 543.5,-1105 543.5,-1105 543.5,-1105 539.5,-1104.83 543.65,-1101.4 535.51,-1104.66 535.51,-1104.66"/>
<ellipse fill="none" stroke="black" cx="532.31" cy="-1104.53" rx="3.2" ry="3.2"/>
</g>
<!-- ad_org -->
<g id="node3" class="node">
<title>ad_org</title>
<g id="a_node3"><a xlink:href="../../tables/ad_org.html" xlink:title="ad_org" target="_top">
<polygon fill="#ffffff" stroke="transparent" points="285,-591 285,-781 477,-781 477,-591 285,-591"/>
<polygon fill="#f5f5f5" stroke="transparent" points="285,-759 285,-781 477,-781 477,-759 285,-759"/>
<polygon fill="none" stroke="black" points="285,-759 285,-781 477,-781 477,-759 285,-759"/>
<text text-anchor="start" x="290" y="-768.2" font-family="Helvetica,sans-Serif" font-weight="bold" font-size="11.00">ad_org</text>
<text text-anchor="start" x="442" y="-767.2" font-family="Helvetica,sans-Serif" font-size="11.00">[table]</text>
<polygon fill="none" stroke="black" points="285,-737 285,-759 477,-759 477,-737 285,-737"/>
<image xlink:href="../../images/primaryKeys.png" width="11px" height="12px" preserveAspectRatio="xMinYMin meet" x="290" y="-754"/>
<text text-anchor="start" x="305" y="-745.2" font-family="Helvetica,sans-Serif" font-size="11.00">ad_org_id</text>
<polygon fill="#ffffff" stroke="transparent" points="285,-715 285,-737 477,-737 477,-715 285,-715"/>
<polygon fill="none" stroke="black" points="285,-715 285,-737 477,-737 477,-715 285,-715"/>
<image xlink:href="../../images/foreignKeys.png" width="11px" height="12px" preserveAspectRatio="xMinYMin meet" x="290" y="-732"/>
<text text-anchor="start" x="305" y="-723.2" font-family="Helvetica,sans-Serif" font-size="11.00">ad_client_id</text>
<polygon fill="#ffffff" stroke="transparent" points="285,-693 285,-715 477,-715 477,-693 285,-693"/>
<polygon fill="none" stroke="black" points="285,-693 285,-715 477,-715 477,-693 285,-693"/>
<text text-anchor="start" x="305" y="-701.2" font-family="Helvetica,sans-Serif" font-size="11.00">value</text>
<polygon fill="none" stroke="black" points="285,-671 285,-693 477,-693 477,-671 285,-671"/>
<image xlink:href="../../images/foreignKeys.png" width="11px" height="12px" preserveAspectRatio="xMinYMin meet" x="290" y="-688"/>
<text text-anchor="start" x="305" y="-679.2" font-family="Helvetica,sans-Serif" font-size="11.00">ad_replicationstrategy_id</text>
<polygon fill="#ffffff" stroke="transparent" points="285,-649 285,-671 477,-671 477,-649 285,-649"/>
<polygon fill="none" stroke="black" points="285,-649 285,-671 477,-671 477,-649 285,-649"/>
<text text-anchor="start" x="305" y="-657.2" font-family="Helvetica,sans-Serif" font-size="11.00">ad_org_uu</text>
<polygon fill="none" stroke="black" points="285,-627 285,-649 477,-649 477,-627 285,-627"/>
<image xlink:href="../../images/foreignKeys.png" width="11px" height="12px" preserveAspectRatio="xMinYMin meet" x="290" y="-644"/>
<text text-anchor="start" x="305" y="-635.2" font-family="Helvetica,sans-Serif" font-size="11.00">cof_c_snrange_id</text>
<polygon fill="none" stroke="black" points="285,-609 285,-627 477,-627 477,-609 285,-609"/>
<text text-anchor="start" x="288" y="-615.2" font-family="Helvetica,sans-Serif" font-size="11.00">...</text>
<polygon fill="#ffffff" stroke="transparent" points="285,-591 285,-609 355,-609 355,-591 285,-591"/>
<polygon fill="none" stroke="black" points="285,-591 285,-609 355,-609 355,-591 285,-591"/>
<text text-anchor="start" x="288" y="-597.2" font-family="Helvetica,sans-Serif" font-size="11.00">&lt; 3</text>
<polygon fill="#ffffff" stroke="transparent" points="355,-591 355,-609 418,-609 418,-591 355,-591"/>
<polygon fill="none" stroke="black" points="355,-591 355,-609 418,-609 418,-591 355,-591"/>
<text text-anchor="start" x="382" y="-597.2" font-family="Helvetica,sans-Serif" font-size="11.00">3 rows</text>
<polygon fill="#ffffff" stroke="transparent" points="418,-591 418,-609 477,-609 477,-591 418,-591"/>
<polygon fill="none" stroke="black" points="418,-591 418,-609 477,-609 477,-591 418,-591"/>
<text text-anchor="start" x="446" y="-597.2" font-family="Helvetica,sans-Serif" font-size="11.00">224 &gt;</text>
</a>
</g>
</g>
<!-- ad_column&#45;&gt;ad_org -->
<g id="edge2" class="edge">
<title>ad_column:w&#45;&gt;ad_org:e</title>
<path fill="none" stroke="black" d="M528.91,-1081.79C408.04,-1059.86 624.37,-748 478,-748"/>
<polygon fill="black" stroke="black" points="535.53,-1082.34 543.2,-1086.59 539.51,-1082.67 543.5,-1083 543.5,-1083 543.5,-1083 539.51,-1082.67 543.8,-1079.41 535.53,-1082.34 535.53,-1082.34"/>
<ellipse fill="none" stroke="black" cx="532.34" cy="-1082.07" rx="3.2" ry="3.2"/>
</g>
<!-- ad_org&#45;&gt;ad_client -->
<g id="edge3" class="edge">
<title>ad_org:w&#45;&gt;ad_client:e</title>
<path fill="none" stroke="black" d="M269.92,-729.79C241.49,-749.57 285.81,-840 237,-840"/>
<polygon fill="black" stroke="black" points="276.28,-728.08 284.94,-729.48 280.14,-727.04 284,-726 284,-726 284,-726 280.14,-727.04 283.06,-722.52 276.28,-728.08 276.28,-728.08"/>
<ellipse fill="none" stroke="black" cx="273.19" cy="-728.91" rx="3.2" ry="3.2"/>
</g>
<!-- ad_reportview_column -->
<g id="node4" class="node">
<title>ad_reportview_column</title>
<g id="a_node4"><a xlink:href="../../tables/ad_reportview_column.html" xlink:title="ad_reportview_column" target="_top">
<polygon fill="#ffffff" stroke="transparent" points="798,-556 798,-820 1080,-820 1080,-556 798,-556"/>
<polygon fill="#f5f5f5" stroke="transparent" points="800,-796 800,-818 1078,-818 1078,-796 800,-796"/>
<polygon fill="none" stroke="black" points="800,-796 800,-818 1078,-818 1078,-796 800,-796"/>
<text text-anchor="start" x="805" y="-805.2" font-family="Helvetica,sans-Serif" font-weight="bold" font-size="11.00">ad_reportview_column</text>
<text text-anchor="start" x="1043" y="-804.2" font-family="Helvetica,sans-Serif" font-size="11.00">[table]</text>
<polygon fill="none" stroke="black" points="800,-774 800,-796 995,-796 995,-774 800,-774"/>
<image xlink:href="../../images/foreignKeys.png" width="11px" height="12px" preserveAspectRatio="xMinYMin meet" x="805" y="-791"/>
<text text-anchor="start" x="820" y="-782.2" font-family="Helvetica,sans-Serif" font-size="11.00">ad_client_id</text>
<polygon fill="none" stroke="black" points="995,-774 995,-796 1078,-796 1078,-774 995,-774"/>
<text text-anchor="start" x="998" y="-782.2" font-family="Helvetica,sans-Serif" font-size="11.00">numeric[10]</text>
<polygon fill="none" stroke="black" points="800,-752 800,-774 995,-774 995,-752 800,-752"/>
<image xlink:href="../../images/primaryKeys.png" width="11px" height="12px" preserveAspectRatio="xMinYMin meet" x="805" y="-769"/>
<text text-anchor="start" x="820" y="-760.2" font-family="Helvetica,sans-Serif" font-size="11.00">ad_column_id</text>
<polygon fill="none" stroke="black" points="995,-752 995,-774 1078,-774 1078,-752 995,-752"/>
<text text-anchor="start" x="998" y="-760.2" font-family="Helvetica,sans-Serif" font-size="11.00">numeric[10]</text>
<polygon fill="none" stroke="black" points="800,-730 800,-752 995,-752 995,-730 800,-730"/>
<image xlink:href="../../images/foreignKeys.png" width="11px" height="12px" preserveAspectRatio="xMinYMin meet" x="805" y="-747"/>
<text text-anchor="start" x="820" y="-738.2" font-family="Helvetica,sans-Serif" font-size="11.00">ad_org_id</text>
<polygon fill="none" stroke="black" points="995,-730 995,-752 1078,-752 1078,-730 995,-730"/>
<text text-anchor="start" x="998" y="-738.2" font-family="Helvetica,sans-Serif" font-size="11.00">numeric[10]</text>
<polygon fill="#ffffff" stroke="transparent" points="800,-708 800,-730 995,-730 995,-708 800,-708"/>
<polygon fill="none" stroke="black" points="800,-708 800,-730 995,-730 995,-708 800,-708"/>
<text text-anchor="start" x="820" y="-716.2" font-family="Helvetica,sans-Serif" font-size="11.00">ad_reportview_column_uu</text>
<polygon fill="none" stroke="black" points="995,-708 995,-730 1078,-730 1078,-708 995,-708"/>
<text text-anchor="start" x="998" y="-716.2" font-family="Helvetica,sans-Serif" font-size="11.00">varchar[36]</text>
<polygon fill="none" stroke="black" points="800,-686 800,-708 995,-708 995,-686 800,-686"/>
<image xlink:href="../../images/primaryKeys.png" width="11px" height="12px" preserveAspectRatio="xMinYMin meet" x="805" y="-703"/>
<text text-anchor="start" x="820" y="-694.2" font-family="Helvetica,sans-Serif" font-size="11.00">ad_reportview_id</text>
<polygon fill="none" stroke="black" points="995,-686 995,-708 1078,-708 1078,-686 995,-686"/>
<text text-anchor="start" x="998" y="-694.2" font-family="Helvetica,sans-Serif" font-size="11.00">numeric[10]</text>
<polygon fill="none" stroke="black" points="800,-664 800,-686 995,-686 995,-664 800,-664"/>
<text text-anchor="start" x="820" y="-672.2" font-family="Helvetica,sans-Serif" font-size="11.00">created</text>
<polygon fill="none" stroke="black" points="995,-664 995,-686 1078,-686 1078,-664 995,-664"/>
<text text-anchor="start" x="998" y="-672.2" font-family="Helvetica,sans-Serif" font-size="11.00">timestamp[29,6]</text>
<polygon fill="none" stroke="black" points="800,-642 800,-664 995,-664 995,-642 800,-642"/>
<image xlink:href="../../images/foreignKeys.png" width="11px" height="12px" preserveAspectRatio="xMinYMin meet" x="805" y="-659"/>
<text text-anchor="start" x="820" y="-650.2" font-family="Helvetica,sans-Serif" font-size="11.00">createdby</text>
<polygon fill="none" stroke="black" points="995,-642 995,-664 1078,-664 1078,-642 995,-642"/>
<text text-anchor="start" x="998" y="-650.2" font-family="Helvetica,sans-Serif" font-size="11.00">numeric[10]</text>
<polygon fill="none" stroke="black" points="800,-620 800,-642 995,-642 995,-620 800,-620"/>
<text text-anchor="start" x="820" y="-628.2" font-family="Helvetica,sans-Serif" font-size="11.00">isactive</text>
<polygon fill="none" stroke="black" points="995,-620 995,-642 1078,-642 1078,-620 995,-620"/>
<text text-anchor="start" x="998" y="-628.2" font-family="Helvetica,sans-Serif" font-size="11.00">bpchar[1]</text>
<polygon fill="none" stroke="black" points="800,-598 800,-620 995,-620 995,-598 800,-598"/>
<text text-anchor="start" x="820" y="-606.2" font-family="Helvetica,sans-Serif" font-size="11.00">updated</text>
<polygon fill="none" stroke="black" points="995,-598 995,-620 1078,-620 1078,-598 995,-598"/>
<text text-anchor="start" x="998" y="-606.2" font-family="Helvetica,sans-Serif" font-size="11.00">timestamp[29,6]</text>
<polygon fill="none" stroke="black" points="800,-576 800,-598 995,-598 995,-576 800,-576"/>
<image xlink:href="../../images/foreignKeys.png" width="11px" height="12px" preserveAspectRatio="xMinYMin meet" x="805" y="-593"/>
<text text-anchor="start" x="820" y="-584.2" font-family="Helvetica,sans-Serif" font-size="11.00">updatedby</text>
<polygon fill="none" stroke="black" points="995,-576 995,-598 1078,-598 1078,-576 995,-576"/>
<text text-anchor="start" x="998" y="-584.2" font-family="Helvetica,sans-Serif" font-size="11.00">numeric[10]</text>
<polygon fill="#ffffff" stroke="transparent" points="800,-558 800,-576 889,-576 889,-558 800,-558"/>
<polygon fill="none" stroke="black" points="800,-558 800,-576 889,-576 889,-558 800,-558"/>
<text text-anchor="start" x="803" y="-564.2" font-family="Helvetica,sans-Serif" font-size="11.00">&lt; 6</text>
<polygon fill="#ffffff" stroke="transparent" points="889,-558 889,-576 995,-576 995,-558 889,-558"/>
<polygon fill="none" stroke="black" points="889,-558 889,-576 995,-576 995,-558 889,-558"/>
<text text-anchor="start" x="959" y="-564.2" font-family="Helvetica,sans-Serif" font-size="11.00">0 rows</text>
<polygon fill="#ffffff" stroke="transparent" points="995,-558 995,-576 1078,-576 1078,-558 995,-558"/>
<polygon fill="none" stroke="black" points="995,-558 995,-576 1078,-576 1078,-558 995,-558"/>
<text text-anchor="start" x="1059" y="-564.2" font-family="Helvetica,sans-Serif" font-size="11.00">0 &gt;</text>
<polygon fill="none" stroke="black" stroke-width="2" points="799,-557 799,-819 1079,-819 1079,-557 799,-557"/>
</a>
</g>
</g>
<!-- ad_reportview_column&#45;&gt;ad_column -->
<g id="edge5" class="edge">
<title>ad_reportview_column:w&#45;&gt;ad_column:e</title>
<path fill="none" stroke="black" d="M784.39,-764.11C650.88,-786.08 890.73,-1127 731.5,-1127"/>
<polygon fill="black" stroke="black" points="791.02,-763.61 799.27,-766.59 795.01,-763.3 799,-763 799,-763 799,-763 795.01,-763.3 798.73,-759.41 791.02,-763.61 791.02,-763.61"/>
<ellipse fill="none" stroke="black" cx="787.83" cy="-763.85" rx="3.2" ry="3.2"/>
</g>
<!-- ad_reportview_column&#45;&gt;ad_client -->
<g id="edge4" class="edge">
<title>ad_reportview_column:w&#45;&gt;ad_client:e</title>
<path fill="none" stroke="black" d="M785.01,-788.7C725.61,-824.99 817.21,-1116.98 757,-1171 677.93,-1241.93 618.27,-1206.06 518,-1171 388.73,-1125.8 353.09,-1092.86 277,-979 241.28,-925.55 301.28,-840 237,-840"/>
<polygon fill="black" stroke="black" points="791.27,-787.05 799.92,-788.48 795.13,-786.02 799,-785 799,-785 799,-785 795.13,-786.02 798.08,-781.52 791.27,-787.05 791.27,-787.05"/>
<ellipse fill="none" stroke="black" cx="788.17" cy="-787.87" rx="3.2" ry="3.2"/>
</g>
<!-- ad_reportview_column&#45;&gt;ad_org -->
<g id="edge6" class="edge">
<title>ad_reportview_column:w&#45;&gt;ad_org:e</title>
<path fill="none" stroke="black" d="M784.34,-741.03C653.66,-741.48 615.68,-748 478,-748"/>
<polygon fill="black" stroke="black" points="791,-741.01 799.01,-744.6 795,-741.01 799,-741 799,-741 799,-741 795,-741.01 798.99,-737.4 791,-741.01 791,-741.01"/>
<ellipse fill="none" stroke="black" cx="787.8" cy="-741.02" rx="3.2" ry="3.2"/>
</g>
<!-- ad_reportview -->
<g id="node5" class="node">
<title>ad_reportview</title>
<g id="a_node5"><a xlink:href="../../tables/ad_reportview.html" xlink:title="ad_reportview" target="_top">
<polygon fill="#ffffff" stroke="transparent" points="567.5,-578 567.5,-724 707.5,-724 707.5,-578 567.5,-578"/>
<polygon fill="#f5f5f5" stroke="transparent" points="567.5,-702 567.5,-724 707.5,-724 707.5,-702 567.5,-702"/>
<polygon fill="none" stroke="black" points="567.5,-702 567.5,-724 707.5,-724 707.5,-702 567.5,-702"/>
<text text-anchor="start" x="572.5" y="-711.2" font-family="Helvetica,sans-Serif" font-weight="bold" font-size="11.00">ad_reportview</text>
<text text-anchor="start" x="672.5" y="-710.2" font-family="Helvetica,sans-Serif" font-size="11.00">[table]</text>
<polygon fill="none" stroke="black" points="567.5,-680 567.5,-702 707.5,-702 707.5,-680 567.5,-680"/>
<image xlink:href="../../images/primaryKeys.png" width="11px" height="12px" preserveAspectRatio="xMinYMin meet" x="572.5" y="-697"/>
<text text-anchor="start" x="587.5" y="-688.2" font-family="Helvetica,sans-Serif" font-size="11.00">ad_reportview_id</text>
<polygon fill="none" stroke="black" points="567.5,-658 567.5,-680 707.5,-680 707.5,-658 567.5,-658"/>
<image xlink:href="../../images/foreignKeys.png" width="11px" height="12px" preserveAspectRatio="xMinYMin meet" x="572.5" y="-675"/>
<text text-anchor="start" x="587.5" y="-666.2" font-family="Helvetica,sans-Serif" font-size="11.00">ad_table_id</text>
<polygon fill="none" stroke="black" points="567.5,-636 567.5,-658 707.5,-658 707.5,-636 567.5,-636"/>
<image xlink:href="../../images/foreignKeys.png" width="11px" height="12px" preserveAspectRatio="xMinYMin meet" x="572.5" y="-653"/>
<text text-anchor="start" x="587.5" y="-644.2" font-family="Helvetica,sans-Serif" font-size="11.00">entitytype</text>
<polygon fill="#ffffff" stroke="transparent" points="567.5,-614 567.5,-636 707.5,-636 707.5,-614 567.5,-614"/>
<polygon fill="none" stroke="black" points="567.5,-614 567.5,-636 707.5,-636 707.5,-614 567.5,-614"/>
<text text-anchor="start" x="587.5" y="-622.2" font-family="Helvetica,sans-Serif" font-size="11.00">ad_reportview_uu</text>
<polygon fill="none" stroke="black" points="567.5,-596 567.5,-614 707.5,-614 707.5,-596 567.5,-596"/>
<text text-anchor="start" x="570.5" y="-602.2" font-family="Helvetica,sans-Serif" font-size="11.00">...</text>
<polygon fill="#ffffff" stroke="transparent" points="567.5,-578 567.5,-596 611.5,-596 611.5,-578 567.5,-578"/>
<polygon fill="none" stroke="black" points="567.5,-578 567.5,-596 611.5,-596 611.5,-578 567.5,-578"/>
<text text-anchor="start" x="570.5" y="-584.2" font-family="Helvetica,sans-Serif" font-size="11.00">&lt; 2</text>
<polygon fill="#ffffff" stroke="transparent" points="611.5,-578 611.5,-596 673.5,-596 673.5,-578 611.5,-578"/>
<polygon fill="none" stroke="black" points="611.5,-578 611.5,-596 673.5,-596 673.5,-578 611.5,-578"/>
<text text-anchor="start" x="625.5" y="-584.2" font-family="Helvetica,sans-Serif" font-size="11.00">153 rows</text>
<polygon fill="#ffffff" stroke="transparent" points="673.5,-578 673.5,-596 707.5,-596 707.5,-578 673.5,-578"/>
<polygon fill="none" stroke="black" points="673.5,-578 673.5,-596 707.5,-596 707.5,-578 673.5,-578"/>
<text text-anchor="start" x="688.5" y="-584.2" font-family="Helvetica,sans-Serif" font-size="11.00">7 &gt;</text>
</a>
</g>
</g>
<!-- ad_reportview_column&#45;&gt;ad_reportview -->
<g id="edge7" class="edge">
<title>ad_reportview_column:w&#45;&gt;ad_reportview:e</title>
<path fill="none" stroke="black" d="M784.41,-696.71C755.53,-695.51 743.46,-691 708.5,-691"/>
<polygon fill="black" stroke="black" points="791,-696.84 798.93,-700.6 795,-696.92 799,-697 799,-697 799,-697 795,-696.92 799.07,-693.4 791,-696.84 791,-696.84"/>
<ellipse fill="none" stroke="black" cx="787.8" cy="-696.78" rx="3.2" ry="3.2"/>
</g>
<!-- ad_user -->
<g id="node6" class="node">
<title>ad_user</title>
<g id="a_node6"><a xlink:href="../../tables/ad_user.html" xlink:title="ad_user" target="_top">
<polygon fill="#ffffff" stroke="transparent" points="526,-37 526,-557 749,-557 749,-37 526,-37"/>
<polygon fill="#f5f5f5" stroke="transparent" points="526.5,-535 526.5,-557 749.5,-557 749.5,-535 526.5,-535"/>
<polygon fill="none" stroke="black" points="526.5,-535 526.5,-557 749.5,-557 749.5,-535 526.5,-535"/>
<text text-anchor="start" x="531.5" y="-544.2" font-family="Helvetica,sans-Serif" font-weight="bold" font-size="11.00">ad_user</text>
<text text-anchor="start" x="714.5" y="-543.2" font-family="Helvetica,sans-Serif" font-size="11.00">[table]</text>
<polygon fill="none" stroke="black" points="526.5,-513 526.5,-535 749.5,-535 749.5,-513 526.5,-513"/>
<image xlink:href="../../images/primaryKeys.png" width="11px" height="12px" preserveAspectRatio="xMinYMin meet" x="531.5" y="-530"/>
<text text-anchor="start" x="546.5" y="-521.2" font-family="Helvetica,sans-Serif" font-size="11.00">ad_user_id</text>
<polygon fill="none" stroke="black" points="526.5,-491 526.5,-513 749.5,-513 749.5,-491 526.5,-491"/>
<image xlink:href="../../images/foreignKeys.png" width="11px" height="12px" preserveAspectRatio="xMinYMin meet" x="531.5" y="-508"/>
<text text-anchor="start" x="546.5" y="-499.2" font-family="Helvetica,sans-Serif" font-size="11.00">ad_client_id</text>
<polygon fill="none" stroke="black" points="526.5,-469 526.5,-491 749.5,-491 749.5,-469 526.5,-469"/>
<image xlink:href="../../images/foreignKeys.png" width="11px" height="12px" preserveAspectRatio="xMinYMin meet" x="531.5" y="-486"/>
<text text-anchor="start" x="546.5" y="-477.2" font-family="Helvetica,sans-Serif" font-size="11.00">ad_org_id</text>
<polygon fill="#ffffff" stroke="transparent" points="526.5,-447 526.5,-469 749.5,-469 749.5,-447 526.5,-447"/>
<polygon fill="none" stroke="black" points="526.5,-447 526.5,-469 749.5,-469 749.5,-447 526.5,-447"/>
<text text-anchor="start" x="546.5" y="-455.2" font-family="Helvetica,sans-Serif" font-size="11.00">name</text>
<polygon fill="#ffffff" stroke="transparent" points="526.5,-425 526.5,-447 749.5,-447 749.5,-425 526.5,-425"/>
<polygon fill="none" stroke="black" points="526.5,-425 526.5,-447 749.5,-447 749.5,-425 526.5,-425"/>
<text text-anchor="start" x="546.5" y="-433.2" font-family="Helvetica,sans-Serif" font-size="11.00">email</text>
<polygon fill="none" stroke="black" points="526.5,-403 526.5,-425 749.5,-425 749.5,-403 526.5,-403"/>
<image xlink:href="../../images/foreignKeys.png" width="11px" height="12px" preserveAspectRatio="xMinYMin meet" x="531.5" y="-420"/>
<text text-anchor="start" x="546.5" y="-411.2" font-family="Helvetica,sans-Serif" font-size="11.00">supervisor_id</text>
<polygon fill="#ffffff" stroke="transparent" points="526.5,-381 526.5,-403 749.5,-403 749.5,-381 526.5,-381"/>
<polygon fill="none" stroke="black" points="526.5,-381 526.5,-403 749.5,-403 749.5,-381 526.5,-381"/>
<image xlink:href="../../images/foreignKeys.png" width="11px" height="12px" preserveAspectRatio="xMinYMin meet" x="531.5" y="-398"/>
<text text-anchor="start" x="546.5" y="-389.2" font-family="Helvetica,sans-Serif" font-size="11.00">c_bpartner_id</text>
<polygon fill="none" stroke="black" points="526.5,-359 526.5,-381 749.5,-381 749.5,-359 526.5,-359"/>
<image xlink:href="../../images/foreignKeys.png" width="11px" height="12px" preserveAspectRatio="xMinYMin meet" x="531.5" y="-376"/>
<text text-anchor="start" x="546.5" y="-367.2" font-family="Helvetica,sans-Serif" font-size="11.00">c_bpartner_location_id</text>
<polygon fill="none" stroke="black" points="526.5,-337 526.5,-359 749.5,-359 749.5,-337 526.5,-337"/>
<image xlink:href="../../images/foreignKeys.png" width="11px" height="12px" preserveAspectRatio="xMinYMin meet" x="531.5" y="-354"/>
<text text-anchor="start" x="546.5" y="-345.2" font-family="Helvetica,sans-Serif" font-size="11.00">c_greeting_id</text>
<polygon fill="none" stroke="black" points="526.5,-315 526.5,-337 749.5,-337 749.5,-315 526.5,-315"/>
<image xlink:href="../../images/foreignKeys.png" width="11px" height="12px" preserveAspectRatio="xMinYMin meet" x="531.5" y="-332"/>
<text text-anchor="start" x="546.5" y="-323.2" font-family="Helvetica,sans-Serif" font-size="11.00">ad_orgtrx_id</text>
<polygon fill="none" stroke="black" points="526.5,-293 526.5,-315 749.5,-315 749.5,-293 526.5,-293"/>
<image xlink:href="../../images/foreignKeys.png" width="11px" height="12px" preserveAspectRatio="xMinYMin meet" x="531.5" y="-310"/>
<text text-anchor="start" x="546.5" y="-301.2" font-family="Helvetica,sans-Serif" font-size="11.00">c_job_id</text>
<polygon fill="#ffffff" stroke="transparent" points="526.5,-271 526.5,-293 749.5,-293 749.5,-271 526.5,-271"/>
<polygon fill="none" stroke="black" points="526.5,-271 526.5,-293 749.5,-293 749.5,-271 526.5,-271"/>
<text text-anchor="start" x="546.5" y="-279.2" font-family="Helvetica,sans-Serif" font-size="11.00">ad_user_uu</text>
<polygon fill="none" stroke="black" points="526.5,-249 526.5,-271 749.5,-271 749.5,-249 526.5,-249"/>
<image xlink:href="../../images/foreignKeys.png" width="11px" height="12px" preserveAspectRatio="xMinYMin meet" x="531.5" y="-266"/>
<text text-anchor="start" x="546.5" y="-257.2" font-family="Helvetica,sans-Serif" font-size="11.00">c_location_id</text>
<polygon fill="none" stroke="black" points="526.5,-227 526.5,-249 749.5,-249 749.5,-227 526.5,-227"/>
<image xlink:href="../../images/foreignKeys.png" width="11px" height="12px" preserveAspectRatio="xMinYMin meet" x="531.5" y="-244"/>
<text text-anchor="start" x="546.5" y="-235.2" font-family="Helvetica,sans-Serif" font-size="11.00">c_campaign_id</text>
<polygon fill="none" stroke="black" points="526.5,-205 526.5,-227 749.5,-227 749.5,-205 526.5,-205"/>
<image xlink:href="../../images/foreignKeys.png" width="11px" height="12px" preserveAspectRatio="xMinYMin meet" x="531.5" y="-222"/>
<text text-anchor="start" x="546.5" y="-213.2" font-family="Helvetica,sans-Serif" font-size="11.00">salesrep_id</text>
<polygon fill="none" stroke="black" points="526.5,-183 526.5,-205 749.5,-205 749.5,-183 526.5,-183"/>
<image xlink:href="../../images/foreignKeys.png" width="11px" height="12px" preserveAspectRatio="xMinYMin meet" x="531.5" y="-200"/>
<text text-anchor="start" x="546.5" y="-191.2" font-family="Helvetica,sans-Serif" font-size="11.00">bp_location_id</text>
<polygon fill="none" stroke="black" points="526.5,-161 526.5,-183 749.5,-183 749.5,-161 526.5,-161"/>
<image xlink:href="../../images/foreignKeys.png" width="11px" height="12px" preserveAspectRatio="xMinYMin meet" x="531.5" y="-178"/>
<text text-anchor="start" x="546.5" y="-169.2" font-family="Helvetica,sans-Serif" font-size="11.00">r_defaultmailtext_id</text>
<polygon fill="none" stroke="black" points="526.5,-139 526.5,-161 749.5,-161 749.5,-139 526.5,-139"/>
<image xlink:href="../../images/foreignKeys.png" width="11px" height="12px" preserveAspectRatio="xMinYMin meet" x="531.5" y="-156"/>
<text text-anchor="start" x="546.5" y="-147.2" font-family="Helvetica,sans-Serif" font-size="11.00">cof_c_marketsegment_id</text>
<polygon fill="none" stroke="black" points="526.5,-117 526.5,-139 749.5,-139 749.5,-117 526.5,-117"/>
<image xlink:href="../../images/foreignKeys.png" width="11px" height="12px" preserveAspectRatio="xMinYMin meet" x="531.5" y="-134"/>
<text text-anchor="start" x="546.5" y="-125.2" font-family="Helvetica,sans-Serif" font-size="11.00">cof_c_leadexpirationreason_id</text>
<polygon fill="none" stroke="black" points="526.5,-95 526.5,-117 749.5,-117 749.5,-95 526.5,-95"/>
<image xlink:href="../../images/foreignKeys.png" width="11px" height="12px" preserveAspectRatio="xMinYMin meet" x="531.5" y="-112"/>
<text text-anchor="start" x="546.5" y="-103.2" font-family="Helvetica,sans-Serif" font-size="11.00">ad_image_id</text>
<polygon fill="none" stroke="black" points="526.5,-73 526.5,-95 749.5,-95 749.5,-73 526.5,-73"/>
<image xlink:href="../../images/foreignKeys.png" width="11px" height="12px" preserveAspectRatio="xMinYMin meet" x="531.5" y="-90"/>
<text text-anchor="start" x="546.5" y="-81.2" font-family="Helvetica,sans-Serif" font-size="11.00">c_subscription_id</text>
<polygon fill="none" stroke="black" points="526.5,-55 526.5,-73 749.5,-73 749.5,-55 526.5,-55"/>
<text text-anchor="start" x="529.5" y="-61.2" font-family="Helvetica,sans-Serif" font-size="11.00">...</text>
<polygon fill="#ffffff" stroke="transparent" points="526.5,-37 526.5,-55 615.5,-55 615.5,-37 526.5,-37"/>
<polygon fill="none" stroke="black" points="526.5,-37 526.5,-55 615.5,-55 615.5,-37 526.5,-37"/>
<text text-anchor="start" x="529.5" y="-43.2" font-family="Helvetica,sans-Serif" font-size="11.00">&lt; 17</text>
<polygon fill="#ffffff" stroke="transparent" points="615.5,-37 615.5,-55 684.5,-55 684.5,-37 615.5,-37"/>
<polygon fill="none" stroke="black" points="615.5,-37 615.5,-55 684.5,-55 684.5,-37 615.5,-37"/>
<text text-anchor="start" x="648.5" y="-43.2" font-family="Helvetica,sans-Serif" font-size="11.00">8 rows</text>
<polygon fill="#ffffff" stroke="transparent" points="684.5,-37 684.5,-55 749.5,-55 749.5,-37 684.5,-37"/>
<polygon fill="none" stroke="black" points="684.5,-37 684.5,-55 749.5,-55 749.5,-37 684.5,-37"/>
<text text-anchor="start" x="718.5" y="-43.2" font-family="Helvetica,sans-Serif" font-size="11.00">316 &gt;</text>
</a>
</g>
</g>
<!-- ad_reportview_column&#45;&gt;ad_user -->
<g id="edge8" class="edge">
<title>ad_reportview_column:w&#45;&gt;ad_user:e</title>
<path fill="none" stroke="black" d="M784.67,-649.55C750.91,-629.03 805.77,-524 750.5,-524"/>
<polygon fill="black" stroke="black" points="791.22,-651.13 798.16,-656.5 795.11,-652.06 799,-653 799,-653 799,-653 795.11,-652.06 799.84,-649.5 791.22,-651.13 791.22,-651.13"/>
<ellipse fill="none" stroke="black" cx="788.11" cy="-650.38" rx="3.2" ry="3.2"/>
</g>
<!-- ad_reportview_column&#45;&gt;ad_user -->
<g id="edge9" class="edge">
<title>ad_reportview_column:w&#45;&gt;ad_user:e</title>
<path fill="none" stroke="black" d="M785.29,-582.06C769.59,-567.2 779.76,-524 750.5,-524"/>
<polygon fill="black" stroke="black" points="791.47,-584.29 797.78,-590.39 795.24,-585.64 799,-587 799,-587 799,-587 795.24,-585.64 800.22,-583.61 791.47,-584.29 791.47,-584.29"/>
<ellipse fill="none" stroke="black" cx="788.46" cy="-583.2" rx="3.2" ry="3.2"/>
</g>
<!-- ad_user&#45;&gt;ad_client -->
<g id="edge10" class="edge">
<title>ad_user:w&#45;&gt;ad_client:e</title>
<path fill="none" stroke="black" d="M510.88,-501.96C404.66,-501.4 349.14,-496.75 277,-581 239.12,-625.24 295.24,-840 237,-840"/>
<polygon fill="black" stroke="black" points="517.5,-501.98 525.49,-505.6 521.5,-501.99 525.5,-502 525.5,-502 525.5,-502 521.5,-501.99 525.51,-498.4 517.5,-501.98 517.5,-501.98"/>
<ellipse fill="none" stroke="black" cx="514.3" cy="-501.97" rx="3.2" ry="3.2"/>
</g>
<!-- ad_user&#45;&gt;ad_org -->
<g id="edge11" class="edge">
<title>ad_user:w&#45;&gt;ad_org:e</title>
<path fill="none" stroke="black" d="M512.25,-486.1C477.14,-525.99 533.05,-748 478,-748"/>
<polygon fill="black" stroke="black" points="518.23,-483.35 527.01,-483.27 521.87,-481.67 525.5,-480 525.5,-480 525.5,-480 521.87,-481.67 523.99,-476.73 518.23,-483.35 518.23,-483.35"/>
<ellipse fill="none" stroke="black" cx="515.33" cy="-484.68" rx="3.2" ry="3.2"/>
</g>
<!-- ad_user&#45;&gt;ad_org -->
<g id="edge12" class="edge">
<title>ad_user:w&#45;&gt;ad_org:e</title>
<path fill="none" stroke="black" d="M511.24,-330.18C446.87,-374 566.84,-748 478,-748"/>
<polygon fill="black" stroke="black" points="517.82,-328.25 526.51,-329.45 521.66,-327.12 525.5,-326 525.5,-326 525.5,-326 521.66,-327.12 524.49,-322.55 517.82,-328.25 517.82,-328.25"/>
<ellipse fill="none" stroke="black" cx="514.75" cy="-329.15" rx="3.2" ry="3.2"/>
</g>
</g>
</svg>
