<?xml version="1.0" encoding="UTF-8" standalone="no"?>
<!DOCTYPE svg PUBLIC "-//W3C//DTD SVG 1.1//EN"
 "http://www.w3.org/Graphics/SVG/1.1/DTD/svg11.dtd">
<!-- Generated by graphviz version 2.43.0 (0)
 -->
<!-- Title: oneDegreeRelationshipsDiagram Pages: 1 -->
<svg width="443pt" height="538pt"
 viewBox="0.00 0.00 443.00 538.00" xmlns="http://www.w3.org/2000/svg" xmlns:xlink="http://www.w3.org/1999/xlink">
<g id="graph0" class="graph" transform="scale(1 1) rotate(0) translate(4 534)">
<title>oneDegreeRelationshipsDiagram</title>
<polygon fill="#ffffff" stroke="transparent" points="-4,4 -4,-534 439,-534 439,4 -4,4"/>
<text text-anchor="middle" x="71.5" y="-7.2" font-family="Helvetica,sans-Serif" font-size="11.00">Generated by SchemaSpy</text>
<!-- ad_ref_list_trl -->
<g id="node1" class="node">
<title>ad_ref_list_trl</title>
<g id="a_node1"><a xlink:href="../../tables/ad_ref_list_trl.html" xlink:title="ad_ref_list_trl" target="_top">
<polygon fill="#ffffff" stroke="transparent" points="200,-37 200,-411 427,-411 427,-37 200,-37"/>
<polygon fill="#f5f5f5" stroke="transparent" points="202.5,-387 202.5,-409 425.5,-409 425.5,-387 202.5,-387"/>
<polygon fill="none" stroke="black" points="202.5,-387 202.5,-409 425.5,-409 425.5,-387 202.5,-387"/>
<text text-anchor="start" x="207.5" y="-396.2" font-family="Helvetica,sans-Serif" font-weight="bold" font-size="11.00">ad_ref_list_trl</text>
<text text-anchor="start" x="390.5" y="-395.2" font-family="Helvetica,sans-Serif" font-size="11.00">[table]</text>
<polygon fill="none" stroke="black" points="202.5,-365 202.5,-387 342.5,-387 342.5,-365 202.5,-365"/>
<image xlink:href="../../images/primaryKeys.png" width="11px" height="12px" preserveAspectRatio="xMinYMin meet" x="207.5" y="-382"/>
<text text-anchor="start" x="222.5" y="-373.2" font-family="Helvetica,sans-Serif" font-size="11.00">ad_ref_list_id</text>
<polygon fill="none" stroke="black" points="342.5,-365 342.5,-387 425.5,-387 425.5,-365 342.5,-365"/>
<text text-anchor="start" x="345.5" y="-373.2" font-family="Helvetica,sans-Serif" font-size="11.00">numeric[10]</text>
<polygon fill="none" stroke="black" points="202.5,-343 202.5,-365 342.5,-365 342.5,-343 202.5,-343"/>
<image xlink:href="../../images/primaryKeys.png" width="11px" height="12px" preserveAspectRatio="xMinYMin meet" x="207.5" y="-360"/>
<text text-anchor="start" x="222.5" y="-351.2" font-family="Helvetica,sans-Serif" font-size="11.00">ad_language</text>
<polygon fill="none" stroke="black" points="342.5,-343 342.5,-365 425.5,-365 425.5,-343 342.5,-343"/>
<text text-anchor="start" x="345.5" y="-351.2" font-family="Helvetica,sans-Serif" font-size="11.00">varchar[6]</text>
<polygon fill="none" stroke="black" points="202.5,-321 202.5,-343 342.5,-343 342.5,-321 202.5,-321"/>
<text text-anchor="start" x="222.5" y="-329.2" font-family="Helvetica,sans-Serif" font-size="11.00">ad_client_id</text>
<polygon fill="none" stroke="black" points="342.5,-321 342.5,-343 425.5,-343 425.5,-321 342.5,-321"/>
<text text-anchor="start" x="345.5" y="-329.2" font-family="Helvetica,sans-Serif" font-size="11.00">numeric[10]</text>
<polygon fill="none" stroke="black" points="202.5,-299 202.5,-321 342.5,-321 342.5,-299 202.5,-299"/>
<text text-anchor="start" x="222.5" y="-307.2" font-family="Helvetica,sans-Serif" font-size="11.00">ad_org_id</text>
<polygon fill="none" stroke="black" points="342.5,-299 342.5,-321 425.5,-321 425.5,-299 342.5,-299"/>
<text text-anchor="start" x="345.5" y="-307.2" font-family="Helvetica,sans-Serif" font-size="11.00">numeric[10]</text>
<polygon fill="none" stroke="black" points="202.5,-277 202.5,-299 342.5,-299 342.5,-277 202.5,-277"/>
<text text-anchor="start" x="222.5" y="-285.2" font-family="Helvetica,sans-Serif" font-size="11.00">isactive</text>
<polygon fill="none" stroke="black" points="342.5,-277 342.5,-299 425.5,-299 425.5,-277 342.5,-277"/>
<text text-anchor="start" x="345.5" y="-285.2" font-family="Helvetica,sans-Serif" font-size="11.00">bpchar[1]</text>
<polygon fill="none" stroke="black" points="202.5,-255 202.5,-277 342.5,-277 342.5,-255 202.5,-255"/>
<text text-anchor="start" x="222.5" y="-263.2" font-family="Helvetica,sans-Serif" font-size="11.00">created</text>
<polygon fill="none" stroke="black" points="342.5,-255 342.5,-277 425.5,-277 425.5,-255 342.5,-255"/>
<text text-anchor="start" x="345.5" y="-263.2" font-family="Helvetica,sans-Serif" font-size="11.00">timestamp[29,6]</text>
<polygon fill="none" stroke="black" points="202.5,-233 202.5,-255 342.5,-255 342.5,-233 202.5,-233"/>
<text text-anchor="start" x="222.5" y="-241.2" font-family="Helvetica,sans-Serif" font-size="11.00">createdby</text>
<polygon fill="none" stroke="black" points="342.5,-233 342.5,-255 425.5,-255 425.5,-233 342.5,-233"/>
<text text-anchor="start" x="345.5" y="-241.2" font-family="Helvetica,sans-Serif" font-size="11.00">numeric[10]</text>
<polygon fill="none" stroke="black" points="202.5,-211 202.5,-233 342.5,-233 342.5,-211 202.5,-211"/>
<text text-anchor="start" x="222.5" y="-219.2" font-family="Helvetica,sans-Serif" font-size="11.00">updated</text>
<polygon fill="none" stroke="black" points="342.5,-211 342.5,-233 425.5,-233 425.5,-211 342.5,-211"/>
<text text-anchor="start" x="345.5" y="-219.2" font-family="Helvetica,sans-Serif" font-size="11.00">timestamp[29,6]</text>
<polygon fill="none" stroke="black" points="202.5,-189 202.5,-211 342.5,-211 342.5,-189 202.5,-189"/>
<text text-anchor="start" x="222.5" y="-197.2" font-family="Helvetica,sans-Serif" font-size="11.00">updatedby</text>
<polygon fill="none" stroke="black" points="342.5,-189 342.5,-211 425.5,-211 425.5,-189 342.5,-189"/>
<text text-anchor="start" x="345.5" y="-197.2" font-family="Helvetica,sans-Serif" font-size="11.00">numeric[10]</text>
<polygon fill="none" stroke="black" points="202.5,-167 202.5,-189 342.5,-189 342.5,-167 202.5,-167"/>
<text text-anchor="start" x="222.5" y="-175.2" font-family="Helvetica,sans-Serif" font-size="11.00">name</text>
<polygon fill="none" stroke="black" points="342.5,-167 342.5,-189 425.5,-189 425.5,-167 342.5,-167"/>
<text text-anchor="start" x="345.5" y="-175.2" font-family="Helvetica,sans-Serif" font-size="11.00">varchar[255]</text>
<polygon fill="none" stroke="black" points="202.5,-145 202.5,-167 342.5,-167 342.5,-145 202.5,-145"/>
<text text-anchor="start" x="222.5" y="-153.2" font-family="Helvetica,sans-Serif" font-size="11.00">description</text>
<polygon fill="none" stroke="black" points="342.5,-145 342.5,-167 425.5,-167 425.5,-145 342.5,-145"/>
<text text-anchor="start" x="345.5" y="-153.2" font-family="Helvetica,sans-Serif" font-size="11.00">varchar[255]</text>
<polygon fill="none" stroke="black" points="202.5,-123 202.5,-145 342.5,-145 342.5,-123 202.5,-123"/>
<text text-anchor="start" x="222.5" y="-131.2" font-family="Helvetica,sans-Serif" font-size="11.00">istranslated</text>
<polygon fill="none" stroke="black" points="342.5,-123 342.5,-145 425.5,-145 425.5,-123 342.5,-123"/>
<text text-anchor="start" x="345.5" y="-131.2" font-family="Helvetica,sans-Serif" font-size="11.00">bpchar[1]</text>
<polygon fill="#ffffff" stroke="transparent" points="202.5,-101 202.5,-123 342.5,-123 342.5,-101 202.5,-101"/>
<polygon fill="none" stroke="black" points="202.5,-101 202.5,-123 342.5,-123 342.5,-101 202.5,-101"/>
<text text-anchor="start" x="222.5" y="-109.2" font-family="Helvetica,sans-Serif" font-size="11.00">ad_ref_list_trl_uu</text>
<polygon fill="none" stroke="black" points="342.5,-101 342.5,-123 425.5,-123 425.5,-101 342.5,-101"/>
<text text-anchor="start" x="345.5" y="-109.2" font-family="Helvetica,sans-Serif" font-size="11.00">varchar[36]</text>
<polygon fill="none" stroke="black" points="202.5,-79 202.5,-101 342.5,-101 342.5,-79 202.5,-79"/>
<text text-anchor="start" x="222.5" y="-87.2" font-family="Helvetica,sans-Serif" font-size="11.00">cof_pretranslated</text>
<polygon fill="none" stroke="black" points="342.5,-79 342.5,-101 425.5,-101 425.5,-79 342.5,-79"/>
<text text-anchor="start" x="345.5" y="-87.2" font-family="Helvetica,sans-Serif" font-size="11.00">bpchar[1]</text>
<polygon fill="none" stroke="black" points="202.5,-57 202.5,-79 342.5,-79 342.5,-57 202.5,-57"/>
<text text-anchor="start" x="222.5" y="-65.2" font-family="Helvetica,sans-Serif" font-size="11.00">cof_checked</text>
<polygon fill="none" stroke="black" points="342.5,-57 342.5,-79 425.5,-79 425.5,-57 342.5,-57"/>
<text text-anchor="start" x="345.5" y="-65.2" font-family="Helvetica,sans-Serif" font-size="11.00">bpchar[1]</text>
<polygon fill="#ffffff" stroke="transparent" points="202.5,-39 202.5,-57 253.5,-57 253.5,-39 202.5,-39"/>
<polygon fill="none" stroke="black" points="202.5,-39 202.5,-57 253.5,-57 253.5,-39 202.5,-39"/>
<text text-anchor="start" x="205.5" y="-45.2" font-family="Helvetica,sans-Serif" font-size="11.00">&lt; 2</text>
<polygon fill="#ffffff" stroke="transparent" points="253.5,-39 253.5,-57 342.5,-57 342.5,-39 253.5,-39"/>
<polygon fill="none" stroke="black" points="253.5,-39 253.5,-57 342.5,-57 342.5,-39 253.5,-39"/>
<text text-anchor="start" x="285.5" y="-45.2" font-family="Helvetica,sans-Serif" font-size="11.00">7.788 rows</text>
<polygon fill="#ffffff" stroke="transparent" points="342.5,-39 342.5,-57 425.5,-57 425.5,-39 342.5,-39"/>
<polygon fill="none" stroke="black" points="342.5,-39 342.5,-57 425.5,-57 425.5,-39 342.5,-39"/>
<text text-anchor="start" x="406.5" y="-45.2" font-family="Helvetica,sans-Serif" font-size="11.00">0 &gt;</text>
<polygon fill="none" stroke="black" stroke-width="2" points="201,-38 201,-410 426,-410 426,-38 201,-38"/>
</a>
</g>
</g>
<!-- ad_language -->
<g id="node2" class="node">
<title>ad_language</title>
<g id="a_node2"><a xlink:href="../../tables/ad_language.html" xlink:title="ad_language" target="_top">
<polygon fill="#ffffff" stroke="transparent" points="8,-81 8,-271 151,-271 151,-81 8,-81"/>
<polygon fill="#f5f5f5" stroke="transparent" points="8.5,-249 8.5,-271 151.5,-271 151.5,-249 8.5,-249"/>
<polygon fill="none" stroke="black" points="8.5,-249 8.5,-271 151.5,-271 151.5,-249 8.5,-249"/>
<text text-anchor="start" x="13.5" y="-258.2" font-family="Helvetica,sans-Serif" font-weight="bold" font-size="11.00">ad_language</text>
<text text-anchor="start" x="116.5" y="-257.2" font-family="Helvetica,sans-Serif" font-size="11.00">[table]</text>
<polygon fill="none" stroke="black" points="8.5,-227 8.5,-249 151.5,-249 151.5,-227 8.5,-227"/>
<image xlink:href="../../images/primaryKeys.png" width="11px" height="12px" preserveAspectRatio="xMinYMin meet" x="13.5" y="-244"/>
<text text-anchor="start" x="28.5" y="-235.2" font-family="Helvetica,sans-Serif" font-size="11.00">ad_language</text>
<polygon fill="none" stroke="black" points="8.5,-205 8.5,-227 151.5,-227 151.5,-205 8.5,-205"/>
<image xlink:href="../../images/foreignKeys.png" width="11px" height="12px" preserveAspectRatio="xMinYMin meet" x="13.5" y="-222"/>
<text text-anchor="start" x="28.5" y="-213.2" font-family="Helvetica,sans-Serif" font-size="11.00">ad_client_id</text>
<polygon fill="none" stroke="black" points="8.5,-183 8.5,-205 151.5,-205 151.5,-183 8.5,-183"/>
<image xlink:href="../../images/foreignKeys.png" width="11px" height="12px" preserveAspectRatio="xMinYMin meet" x="13.5" y="-200"/>
<text text-anchor="start" x="28.5" y="-191.2" font-family="Helvetica,sans-Serif" font-size="11.00">ad_org_id</text>
<polygon fill="#ffffff" stroke="transparent" points="8.5,-161 8.5,-183 151.5,-183 151.5,-161 8.5,-161"/>
<polygon fill="none" stroke="black" points="8.5,-161 8.5,-183 151.5,-183 151.5,-161 8.5,-161"/>
<text text-anchor="start" x="28.5" y="-169.2" font-family="Helvetica,sans-Serif" font-size="11.00">ad_language_id</text>
<polygon fill="#ffffff" stroke="transparent" points="8.5,-139 8.5,-161 151.5,-161 151.5,-139 8.5,-139"/>
<polygon fill="none" stroke="black" points="8.5,-139 8.5,-161 151.5,-161 151.5,-139 8.5,-139"/>
<text text-anchor="start" x="28.5" y="-147.2" font-family="Helvetica,sans-Serif" font-size="11.00">ad_language_uu</text>
<polygon fill="none" stroke="black" points="8.5,-117 8.5,-139 151.5,-139 151.5,-117 8.5,-117"/>
<image xlink:href="../../images/foreignKeys.png" width="11px" height="12px" preserveAspectRatio="xMinYMin meet" x="13.5" y="-134"/>
<text text-anchor="start" x="28.5" y="-125.2" font-family="Helvetica,sans-Serif" font-size="11.00">ad_printpaper_id</text>
<polygon fill="none" stroke="black" points="8.5,-99 8.5,-117 151.5,-117 151.5,-99 8.5,-99"/>
<text text-anchor="start" x="11.5" y="-105.2" font-family="Helvetica,sans-Serif" font-size="11.00">...</text>
<polygon fill="#ffffff" stroke="transparent" points="8.5,-81 8.5,-99 51.5,-99 51.5,-81 8.5,-81"/>
<polygon fill="none" stroke="black" points="8.5,-81 8.5,-99 51.5,-99 51.5,-81 8.5,-81"/>
<text text-anchor="start" x="11.5" y="-87.2" font-family="Helvetica,sans-Serif" font-size="11.00">&lt; 3</text>
<polygon fill="#ffffff" stroke="transparent" points="51.5,-81 51.5,-99 112.5,-99 112.5,-81 51.5,-81"/>
<polygon fill="none" stroke="black" points="51.5,-81 51.5,-99 112.5,-99 112.5,-81 51.5,-81"/>
<text text-anchor="start" x="64.5" y="-87.2" font-family="Helvetica,sans-Serif" font-size="11.00">109 rows</text>
<polygon fill="#ffffff" stroke="transparent" points="112.5,-81 112.5,-99 151.5,-99 151.5,-81 112.5,-81"/>
<polygon fill="none" stroke="black" points="112.5,-81 112.5,-99 151.5,-99 151.5,-81 112.5,-81"/>
<text text-anchor="start" x="126.5" y="-87.2" font-family="Helvetica,sans-Serif" font-size="11.00">86 &gt;</text>
</a>
</g>
</g>
<!-- ad_ref_list_trl&#45;&gt;ad_language -->
<g id="edge1" class="edge">
<title>ad_ref_list_trl:w&#45;&gt;ad_language:e</title>
<path fill="none" stroke="black" d="M187.48,-350.4C157.49,-330.82 202.56,-238 152.5,-238"/>
<polygon fill="black" stroke="black" points="193.75,-352.01 200.6,-357.49 197.63,-353.01 201.5,-354 201.5,-354 201.5,-354 197.63,-353.01 202.4,-350.51 193.75,-352.01 193.75,-352.01"/>
<ellipse fill="none" stroke="black" cx="190.65" cy="-351.22" rx="3.2" ry="3.2"/>
</g>
<!-- ad_ref_list -->
<g id="node3" class="node">
<title>ad_ref_list</title>
<g id="a_node3"><a xlink:href="../../tables/ad_ref_list.html" xlink:title="ad_ref_list" target="_top">
<polygon fill="#ffffff" stroke="transparent" points="16,-292 16,-526 143,-526 143,-292 16,-292"/>
<polygon fill="#f5f5f5" stroke="transparent" points="16.5,-504 16.5,-526 143.5,-526 143.5,-504 16.5,-504"/>
<polygon fill="none" stroke="black" points="16.5,-504 16.5,-526 143.5,-526 143.5,-504 16.5,-504"/>
<text text-anchor="start" x="21.5" y="-513.2" font-family="Helvetica,sans-Serif" font-weight="bold" font-size="11.00">ad_ref_list</text>
<text text-anchor="start" x="108.5" y="-512.2" font-family="Helvetica,sans-Serif" font-size="11.00">[table]</text>
<polygon fill="none" stroke="black" points="16.5,-482 16.5,-504 143.5,-504 143.5,-482 16.5,-482"/>
<image xlink:href="../../images/primaryKeys.png" width="11px" height="12px" preserveAspectRatio="xMinYMin meet" x="21.5" y="-499"/>
<text text-anchor="start" x="36.5" y="-490.2" font-family="Helvetica,sans-Serif" font-size="11.00">ad_ref_list_id</text>
<polygon fill="none" stroke="black" points="16.5,-460 16.5,-482 143.5,-482 143.5,-460 16.5,-460"/>
<image xlink:href="../../images/foreignKeys.png" width="11px" height="12px" preserveAspectRatio="xMinYMin meet" x="21.5" y="-477"/>
<text text-anchor="start" x="36.5" y="-468.2" font-family="Helvetica,sans-Serif" font-size="11.00">ad_client_id</text>
<polygon fill="none" stroke="black" points="16.5,-438 16.5,-460 143.5,-460 143.5,-438 16.5,-438"/>
<image xlink:href="../../images/foreignKeys.png" width="11px" height="12px" preserveAspectRatio="xMinYMin meet" x="21.5" y="-455"/>
<text text-anchor="start" x="36.5" y="-446.2" font-family="Helvetica,sans-Serif" font-size="11.00">ad_org_id</text>
<polygon fill="#ffffff" stroke="transparent" points="16.5,-416 16.5,-438 143.5,-438 143.5,-416 16.5,-416"/>
<polygon fill="none" stroke="black" points="16.5,-416 16.5,-438 143.5,-438 143.5,-416 16.5,-416"/>
<text text-anchor="start" x="36.5" y="-424.2" font-family="Helvetica,sans-Serif" font-size="11.00">value</text>
<polygon fill="#ffffff" stroke="transparent" points="16.5,-394 16.5,-416 143.5,-416 143.5,-394 16.5,-394"/>
<polygon fill="none" stroke="black" points="16.5,-394 16.5,-416 143.5,-416 143.5,-394 16.5,-394"/>
<text text-anchor="start" x="36.5" y="-402.2" font-family="Helvetica,sans-Serif" font-size="11.00">name</text>
<polygon fill="#ffffff" stroke="transparent" points="16.5,-372 16.5,-394 143.5,-394 143.5,-372 16.5,-372"/>
<polygon fill="none" stroke="black" points="16.5,-372 16.5,-394 143.5,-394 143.5,-372 16.5,-372"/>
<image xlink:href="../../images/foreignKeys.png" width="11px" height="12px" preserveAspectRatio="xMinYMin meet" x="21.5" y="-389"/>
<text text-anchor="start" x="36.5" y="-380.2" font-family="Helvetica,sans-Serif" font-size="11.00">ad_reference_id</text>
<polygon fill="none" stroke="black" points="16.5,-350 16.5,-372 143.5,-372 143.5,-350 16.5,-350"/>
<image xlink:href="../../images/foreignKeys.png" width="11px" height="12px" preserveAspectRatio="xMinYMin meet" x="21.5" y="-367"/>
<text text-anchor="start" x="36.5" y="-358.2" font-family="Helvetica,sans-Serif" font-size="11.00">entitytype</text>
<polygon fill="#ffffff" stroke="transparent" points="16.5,-328 16.5,-350 143.5,-350 143.5,-328 16.5,-328"/>
<polygon fill="none" stroke="black" points="16.5,-328 16.5,-350 143.5,-350 143.5,-328 16.5,-328"/>
<text text-anchor="start" x="36.5" y="-336.2" font-family="Helvetica,sans-Serif" font-size="11.00">ad_ref_list_uu</text>
<polygon fill="none" stroke="black" points="16.5,-310 16.5,-328 143.5,-328 143.5,-310 16.5,-310"/>
<text text-anchor="start" x="19.5" y="-316.2" font-family="Helvetica,sans-Serif" font-size="11.00">...</text>
<polygon fill="#ffffff" stroke="transparent" points="16.5,-292 16.5,-310 49.5,-310 49.5,-292 16.5,-292"/>
<polygon fill="none" stroke="black" points="16.5,-292 16.5,-310 49.5,-310 49.5,-292 16.5,-292"/>
<text text-anchor="start" x="19.5" y="-298.2" font-family="Helvetica,sans-Serif" font-size="11.00">&lt; 4</text>
<polygon fill="#ffffff" stroke="transparent" points="49.5,-292 49.5,-310 115.5,-310 115.5,-292 49.5,-292"/>
<polygon fill="none" stroke="black" points="49.5,-292 49.5,-310 115.5,-310 115.5,-292 49.5,-292"/>
<text text-anchor="start" x="58.5" y="-298.2" font-family="Helvetica,sans-Serif" font-size="11.00">3.746 rows</text>
<polygon fill="#ffffff" stroke="transparent" points="115.5,-292 115.5,-310 143.5,-310 143.5,-292 115.5,-292"/>
<polygon fill="none" stroke="black" points="115.5,-292 115.5,-310 143.5,-310 143.5,-292 115.5,-292"/>
<text text-anchor="start" x="124.5" y="-298.2" font-family="Helvetica,sans-Serif" font-size="11.00">3 &gt;</text>
</a>
</g>
</g>
<!-- ad_ref_list_trl&#45;&gt;ad_ref_list -->
<g id="edge2" class="edge">
<title>ad_ref_list_trl:w&#45;&gt;ad_ref_list:e</title>
<path fill="none" stroke="black" d="M187.24,-379.38C154.38,-398.56 196.47,-493 144.5,-493"/>
<polygon fill="black" stroke="black" points="193.72,-377.84 202.33,-379.5 197.61,-376.92 201.5,-376 201.5,-376 201.5,-376 197.61,-376.92 200.67,-372.5 193.72,-377.84 193.72,-377.84"/>
<ellipse fill="none" stroke="black" cx="190.6" cy="-378.58" rx="3.2" ry="3.2"/>
</g>
</g>
</svg>
