<?xml version="1.0" encoding="UTF-8" standalone="no"?>
<!DOCTYPE svg PUBLIC "-//W3C//DTD SVG 1.1//EN"
 "http://www.w3.org/Graphics/SVG/1.1/DTD/svg11.dtd">
<!-- Generated by graphviz version 2.43.0 (0)
 -->
<!-- Title: oneDegreeRelationshipsDiagram Pages: 1 -->
<svg width="570pt" height="445pt"
 viewBox="0.00 0.00 570.00 445.00" xmlns="http://www.w3.org/2000/svg" xmlns:xlink="http://www.w3.org/1999/xlink">
<g id="graph0" class="graph" transform="scale(1 1) rotate(0) translate(4 441)">
<title>oneDegreeRelationshipsDiagram</title>
<polygon fill="#ffffff" stroke="transparent" points="-4,4 -4,-441 566,-441 566,4 -4,4"/>
<text text-anchor="middle" x="71.5" y="-7.2" font-family="Helvetica,sans-Serif" font-size="11.00">Generated by SchemaSpy</text>
<!-- ad_style -->
<g id="node1" class="node">
<title>ad_style</title>
<g id="a_node1"><a xlink:href="../../tables/ad_style.html" xlink:title="ad_style" target="_top">
<polygon fill="#ffffff" stroke="transparent" points="194,-226 194,-350 294,-350 294,-226 194,-226"/>
<polygon fill="#f5f5f5" stroke="transparent" points="194,-328 194,-350 294,-350 294,-328 194,-328"/>
<polygon fill="none" stroke="black" points="194,-328 194,-350 294,-350 294,-328 194,-328"/>
<text text-anchor="start" x="199" y="-337.2" font-family="Helvetica,sans-Serif" font-weight="bold" font-size="11.00">ad_style</text>
<text text-anchor="start" x="259" y="-336.2" font-family="Helvetica,sans-Serif" font-size="11.00">[table]</text>
<polygon fill="none" stroke="black" points="194,-306 194,-328 294,-328 294,-306 194,-306"/>
<image xlink:href="../../images/primaryKeys.png" width="11px" height="12px" preserveAspectRatio="xMinYMin meet" x="199" y="-323"/>
<text text-anchor="start" x="214" y="-314.2" font-family="Helvetica,sans-Serif" font-size="11.00">ad_style_id</text>
<polygon fill="#ffffff" stroke="transparent" points="194,-284 194,-306 294,-306 294,-284 194,-284"/>
<polygon fill="none" stroke="black" points="194,-284 194,-306 294,-306 294,-284 194,-284"/>
<text text-anchor="start" x="214" y="-292.2" font-family="Helvetica,sans-Serif" font-size="11.00">ad_style_uu</text>
<polygon fill="none" stroke="black" points="194,-262 194,-284 294,-284 294,-262 194,-262"/>
<image xlink:href="../../images/foreignKeys.png" width="11px" height="12px" preserveAspectRatio="xMinYMin meet" x="199" y="-279"/>
<text text-anchor="start" x="214" y="-270.2" font-family="Helvetica,sans-Serif" font-size="11.00">entitytype</text>
<polygon fill="none" stroke="black" points="194,-244 194,-262 294,-262 294,-244 194,-244"/>
<text text-anchor="start" x="197" y="-250.2" font-family="Helvetica,sans-Serif" font-size="11.00">...</text>
<polygon fill="#ffffff" stroke="transparent" points="194,-226 194,-244 218,-244 218,-226 194,-226"/>
<polygon fill="none" stroke="black" points="194,-226 194,-244 218,-244 218,-226 194,-226"/>
<text text-anchor="start" x="197" y="-232.2" font-family="Helvetica,sans-Serif" font-size="11.00">&lt; 1</text>
<polygon fill="#ffffff" stroke="transparent" points="218,-226 218,-244 264,-244 264,-226 218,-226"/>
<polygon fill="none" stroke="black" points="218,-226 218,-244 264,-244 264,-226 218,-226"/>
<text text-anchor="start" x="222" y="-232.2" font-family="Helvetica,sans-Serif" font-size="11.00">10 rows</text>
<polygon fill="#ffffff" stroke="transparent" points="264,-226 264,-244 294,-244 294,-226 264,-226"/>
<polygon fill="none" stroke="black" points="264,-226 264,-244 294,-244 294,-226 264,-226"/>
<text text-anchor="start" x="269" y="-232.2" font-family="Helvetica,sans-Serif" font-size="11.00">10 &gt;</text>
</a>
</g>
</g>
<!-- ad_entitytype -->
<g id="node2" class="node">
<title>ad_entitytype</title>
<g id="a_node2"><a xlink:href="../../tables/ad_entitytype.html" xlink:title="ad_entitytype" target="_top">
<polygon fill="#ffffff" stroke="transparent" points="8,-109 8,-233 145,-233 145,-109 8,-109"/>
<polygon fill="#f5f5f5" stroke="transparent" points="8.5,-211 8.5,-233 145.5,-233 145.5,-211 8.5,-211"/>
<polygon fill="none" stroke="black" points="8.5,-211 8.5,-233 145.5,-233 145.5,-211 8.5,-211"/>
<text text-anchor="start" x="13.5" y="-220.2" font-family="Helvetica,sans-Serif" font-weight="bold" font-size="11.00">ad_entitytype</text>
<text text-anchor="start" x="110.5" y="-219.2" font-family="Helvetica,sans-Serif" font-size="11.00">[table]</text>
<polygon fill="none" stroke="black" points="8.5,-189 8.5,-211 145.5,-211 145.5,-189 8.5,-189"/>
<image xlink:href="../../images/primaryKeys.png" width="11px" height="12px" preserveAspectRatio="xMinYMin meet" x="13.5" y="-206"/>
<text text-anchor="start" x="28.5" y="-197.2" font-family="Helvetica,sans-Serif" font-size="11.00">entitytype</text>
<polygon fill="#ffffff" stroke="transparent" points="8.5,-167 8.5,-189 145.5,-189 145.5,-167 8.5,-167"/>
<polygon fill="none" stroke="black" points="8.5,-167 8.5,-189 145.5,-189 145.5,-167 8.5,-167"/>
<text text-anchor="start" x="28.5" y="-175.2" font-family="Helvetica,sans-Serif" font-size="11.00">ad_entitytype_id</text>
<polygon fill="#ffffff" stroke="transparent" points="8.5,-145 8.5,-167 145.5,-167 145.5,-145 8.5,-145"/>
<polygon fill="none" stroke="black" points="8.5,-145 8.5,-167 145.5,-167 145.5,-145 8.5,-145"/>
<text text-anchor="start" x="28.5" y="-153.2" font-family="Helvetica,sans-Serif" font-size="11.00">ad_entitytype_uu</text>
<polygon fill="none" stroke="black" points="8.5,-127 8.5,-145 145.5,-145 145.5,-127 8.5,-127"/>
<text text-anchor="start" x="11.5" y="-133.2" font-family="Helvetica,sans-Serif" font-size="11.00">...</text>
<polygon fill="#ffffff" stroke="transparent" points="8.5,-109 8.5,-127 46.5,-127 46.5,-109 8.5,-109"/>
<polygon fill="none" stroke="black" points="8.5,-109 8.5,-127 46.5,-127 46.5,-109 8.5,-109"/>
<text text-anchor="start" x="11.5" y="-115.2" font-family="Helvetica,sans-Serif" font-size="11.00"> &#160;</text>
<polygon fill="#ffffff" stroke="transparent" points="46.5,-109 46.5,-127 104.5,-127 104.5,-109 46.5,-109"/>
<polygon fill="none" stroke="black" points="46.5,-109 46.5,-127 104.5,-127 104.5,-109 46.5,-109"/>
<text text-anchor="start" x="62.5" y="-115.2" font-family="Helvetica,sans-Serif" font-size="11.00">33 rows</text>
<polygon fill="#ffffff" stroke="transparent" points="104.5,-109 104.5,-127 145.5,-127 145.5,-109 104.5,-109"/>
<polygon fill="none" stroke="black" points="104.5,-109 104.5,-127 145.5,-127 145.5,-109 104.5,-109"/>
<text text-anchor="start" x="120.5" y="-115.2" font-family="Helvetica,sans-Serif" font-size="11.00">59 &gt;</text>
</a>
</g>
</g>
<!-- ad_style&#45;&gt;ad_entitytype -->
<g id="edge1" class="edge">
<title>ad_style:w&#45;&gt;ad_entitytype:e</title>
<path fill="none" stroke="black" d="M179.02,-267.75C162.66,-251.01 178.66,-200 146.5,-200"/>
<polygon fill="black" stroke="black" points="185.51,-270.19 191.73,-276.37 189.26,-271.59 193,-273 193,-273 193,-273 189.26,-271.59 194.27,-269.63 185.51,-270.19 185.51,-270.19"/>
<ellipse fill="none" stroke="black" cx="182.52" cy="-269.06" rx="3.2" ry="3.2"/>
</g>
<!-- ad_styleline -->
<g id="node3" class="node">
<title>ad_styleline</title>
<g id="a_node3"><a xlink:href="../../tables/ad_styleline.html" xlink:title="ad_styleline" target="_top">
<polygon fill="#ffffff" stroke="transparent" points="343,-37 343,-433 554,-433 554,-37 343,-37"/>
<polygon fill="#f5f5f5" stroke="transparent" points="345.5,-409 345.5,-431 552.5,-431 552.5,-409 345.5,-409"/>
<polygon fill="none" stroke="black" points="345.5,-409 345.5,-431 552.5,-431 552.5,-409 345.5,-409"/>
<text text-anchor="start" x="350.5" y="-418.2" font-family="Helvetica,sans-Serif" font-weight="bold" font-size="11.00">ad_styleline</text>
<text text-anchor="start" x="517.5" y="-417.2" font-family="Helvetica,sans-Serif" font-size="11.00">[table]</text>
<polygon fill="none" stroke="black" points="345.5,-387 345.5,-409 469.5,-409 469.5,-387 345.5,-387"/>
<text text-anchor="start" x="365.5" y="-395.2" font-family="Helvetica,sans-Serif" font-size="11.00">ad_client_id</text>
<polygon fill="none" stroke="black" points="469.5,-387 469.5,-409 552.5,-409 552.5,-387 469.5,-387"/>
<text text-anchor="start" x="472.5" y="-395.2" font-family="Helvetica,sans-Serif" font-size="11.00">numeric[10]</text>
<polygon fill="none" stroke="black" points="345.5,-365 345.5,-387 469.5,-387 469.5,-365 345.5,-365"/>
<text text-anchor="start" x="365.5" y="-373.2" font-family="Helvetica,sans-Serif" font-size="11.00">ad_org_id</text>
<polygon fill="none" stroke="black" points="469.5,-365 469.5,-387 552.5,-387 552.5,-365 469.5,-365"/>
<text text-anchor="start" x="472.5" y="-373.2" font-family="Helvetica,sans-Serif" font-size="11.00">numeric[10]</text>
<polygon fill="none" stroke="black" points="345.5,-343 345.5,-365 469.5,-365 469.5,-343 345.5,-343"/>
<image xlink:href="../../images/foreignKeys.png" width="11px" height="12px" preserveAspectRatio="xMinYMin meet" x="350.5" y="-360"/>
<text text-anchor="start" x="365.5" y="-351.2" font-family="Helvetica,sans-Serif" font-size="11.00">ad_style_id</text>
<polygon fill="none" stroke="black" points="469.5,-343 469.5,-365 552.5,-365 552.5,-343 469.5,-343"/>
<text text-anchor="start" x="472.5" y="-351.2" font-family="Helvetica,sans-Serif" font-size="11.00">numeric[10]</text>
<polygon fill="none" stroke="black" points="345.5,-321 345.5,-343 469.5,-343 469.5,-321 345.5,-321"/>
<image xlink:href="../../images/primaryKeys.png" width="11px" height="12px" preserveAspectRatio="xMinYMin meet" x="350.5" y="-338"/>
<text text-anchor="start" x="365.5" y="-329.2" font-family="Helvetica,sans-Serif" font-size="11.00">ad_styleline_id</text>
<polygon fill="none" stroke="black" points="469.5,-321 469.5,-343 552.5,-343 552.5,-321 469.5,-321"/>
<text text-anchor="start" x="472.5" y="-329.2" font-family="Helvetica,sans-Serif" font-size="11.00">numeric[10]</text>
<polygon fill="#ffffff" stroke="transparent" points="345.5,-299 345.5,-321 469.5,-321 469.5,-299 345.5,-299"/>
<polygon fill="none" stroke="black" points="345.5,-299 345.5,-321 469.5,-321 469.5,-299 345.5,-299"/>
<text text-anchor="start" x="365.5" y="-307.2" font-family="Helvetica,sans-Serif" font-size="11.00">ad_styleline_uu</text>
<polygon fill="none" stroke="black" points="469.5,-299 469.5,-321 552.5,-321 552.5,-299 469.5,-299"/>
<text text-anchor="start" x="472.5" y="-307.2" font-family="Helvetica,sans-Serif" font-size="11.00">varchar[36]</text>
<polygon fill="none" stroke="black" points="345.5,-277 345.5,-299 469.5,-299 469.5,-277 345.5,-277"/>
<text text-anchor="start" x="365.5" y="-285.2" font-family="Helvetica,sans-Serif" font-size="11.00">created</text>
<polygon fill="none" stroke="black" points="469.5,-277 469.5,-299 552.5,-299 552.5,-277 469.5,-277"/>
<text text-anchor="start" x="472.5" y="-285.2" font-family="Helvetica,sans-Serif" font-size="11.00">timestamp[29,6]</text>
<polygon fill="none" stroke="black" points="345.5,-255 345.5,-277 469.5,-277 469.5,-255 345.5,-255"/>
<text text-anchor="start" x="365.5" y="-263.2" font-family="Helvetica,sans-Serif" font-size="11.00">createdby</text>
<polygon fill="none" stroke="black" points="469.5,-255 469.5,-277 552.5,-277 552.5,-255 469.5,-255"/>
<text text-anchor="start" x="472.5" y="-263.2" font-family="Helvetica,sans-Serif" font-size="11.00">numeric[10]</text>
<polygon fill="none" stroke="black" points="345.5,-233 345.5,-255 469.5,-255 469.5,-233 345.5,-233"/>
<text text-anchor="start" x="365.5" y="-241.2" font-family="Helvetica,sans-Serif" font-size="11.00">displaylogic</text>
<polygon fill="none" stroke="black" points="469.5,-233 469.5,-255 552.5,-255 552.5,-233 469.5,-233"/>
<text text-anchor="start" x="472.5" y="-241.2" font-family="Helvetica,sans-Serif" font-size="11.00">varchar[2000]</text>
<polygon fill="none" stroke="black" points="345.5,-211 345.5,-233 469.5,-233 469.5,-211 345.5,-211"/>
<text text-anchor="start" x="365.5" y="-219.2" font-family="Helvetica,sans-Serif" font-size="11.00">inlinestyle</text>
<polygon fill="none" stroke="black" points="469.5,-211 469.5,-233 552.5,-233 552.5,-211 469.5,-211"/>
<text text-anchor="start" x="472.5" y="-219.2" font-family="Helvetica,sans-Serif" font-size="11.00">varchar[2000]</text>
<polygon fill="none" stroke="black" points="345.5,-189 345.5,-211 469.5,-211 469.5,-189 345.5,-189"/>
<text text-anchor="start" x="365.5" y="-197.2" font-family="Helvetica,sans-Serif" font-size="11.00">isactive</text>
<polygon fill="none" stroke="black" points="469.5,-189 469.5,-211 552.5,-211 552.5,-189 469.5,-189"/>
<text text-anchor="start" x="472.5" y="-197.2" font-family="Helvetica,sans-Serif" font-size="11.00">bpchar[1]</text>
<polygon fill="none" stroke="black" points="345.5,-167 345.5,-189 469.5,-189 469.5,-167 345.5,-167"/>
<text text-anchor="start" x="365.5" y="-175.2" font-family="Helvetica,sans-Serif" font-size="11.00">line</text>
<polygon fill="none" stroke="black" points="469.5,-167 469.5,-189 552.5,-189 552.5,-167 469.5,-167"/>
<text text-anchor="start" x="472.5" y="-175.2" font-family="Helvetica,sans-Serif" font-size="11.00">numeric[10]</text>
<polygon fill="none" stroke="black" points="345.5,-145 345.5,-167 469.5,-167 469.5,-145 345.5,-145"/>
<text text-anchor="start" x="365.5" y="-153.2" font-family="Helvetica,sans-Serif" font-size="11.00">theme</text>
<polygon fill="none" stroke="black" points="469.5,-145 469.5,-167 552.5,-167 552.5,-145 469.5,-145"/>
<text text-anchor="start" x="472.5" y="-153.2" font-family="Helvetica,sans-Serif" font-size="11.00">varchar[60]</text>
<polygon fill="none" stroke="black" points="345.5,-123 345.5,-145 469.5,-145 469.5,-123 345.5,-123"/>
<text text-anchor="start" x="365.5" y="-131.2" font-family="Helvetica,sans-Serif" font-size="11.00">updated</text>
<polygon fill="none" stroke="black" points="469.5,-123 469.5,-145 552.5,-145 552.5,-123 469.5,-123"/>
<text text-anchor="start" x="472.5" y="-131.2" font-family="Helvetica,sans-Serif" font-size="11.00">timestamp[29,6]</text>
<polygon fill="none" stroke="black" points="345.5,-101 345.5,-123 469.5,-123 469.5,-101 345.5,-101"/>
<text text-anchor="start" x="365.5" y="-109.2" font-family="Helvetica,sans-Serif" font-size="11.00">updatedby</text>
<polygon fill="none" stroke="black" points="469.5,-101 469.5,-123 552.5,-123 552.5,-101 469.5,-101"/>
<text text-anchor="start" x="472.5" y="-109.2" font-family="Helvetica,sans-Serif" font-size="11.00">numeric[10]</text>
<polygon fill="none" stroke="black" points="345.5,-79 345.5,-101 469.5,-101 469.5,-79 345.5,-79"/>
<image xlink:href="../../images/foreignKeys.png" width="11px" height="12px" preserveAspectRatio="xMinYMin meet" x="350.5" y="-96"/>
<text text-anchor="start" x="365.5" y="-87.2" font-family="Helvetica,sans-Serif" font-size="11.00">entitytype</text>
<polygon fill="none" stroke="black" points="469.5,-79 469.5,-101 552.5,-101 552.5,-79 469.5,-79"/>
<text text-anchor="start" x="472.5" y="-87.2" font-family="Helvetica,sans-Serif" font-size="11.00">varchar[40]</text>
<polygon fill="none" stroke="black" points="345.5,-57 345.5,-79 469.5,-79 469.5,-57 345.5,-57"/>
<text text-anchor="start" x="365.5" y="-65.2" font-family="Helvetica,sans-Serif" font-size="11.00">description</text>
<polygon fill="none" stroke="black" points="469.5,-57 469.5,-79 552.5,-79 552.5,-57 469.5,-57"/>
<text text-anchor="start" x="472.5" y="-65.2" font-family="Helvetica,sans-Serif" font-size="11.00">varchar[255]</text>
<polygon fill="#ffffff" stroke="transparent" points="345.5,-39 345.5,-57 395.5,-57 395.5,-39 345.5,-39"/>
<polygon fill="none" stroke="black" points="345.5,-39 345.5,-57 395.5,-57 395.5,-39 345.5,-39"/>
<text text-anchor="start" x="348.5" y="-45.2" font-family="Helvetica,sans-Serif" font-size="11.00">&lt; 2</text>
<polygon fill="#ffffff" stroke="transparent" points="395.5,-39 395.5,-57 469.5,-57 469.5,-39 395.5,-39"/>
<polygon fill="none" stroke="black" points="395.5,-39 395.5,-57 469.5,-57 469.5,-39 395.5,-39"/>
<text text-anchor="start" x="427.5" y="-45.2" font-family="Helvetica,sans-Serif" font-size="11.00">53 rows</text>
<polygon fill="#ffffff" stroke="transparent" points="469.5,-39 469.5,-57 552.5,-57 552.5,-39 469.5,-39"/>
<polygon fill="none" stroke="black" points="469.5,-39 469.5,-57 552.5,-57 552.5,-39 469.5,-39"/>
<text text-anchor="start" x="533.5" y="-45.2" font-family="Helvetica,sans-Serif" font-size="11.00">0 &gt;</text>
<polygon fill="none" stroke="black" stroke-width="2" points="344,-38 344,-432 553,-432 553,-38 344,-38"/>
</a>
</g>
</g>
<!-- ad_styleline&#45;&gt;ad_style -->
<g id="edge2" class="edge">
<title>ad_styleline:w&#45;&gt;ad_style:e</title>
<path fill="none" stroke="black" d="M330.51,-349.46C317.84,-339.58 316.46,-317 295,-317"/>
<polygon fill="black" stroke="black" points="336.89,-351.53 343.39,-357.42 340.7,-352.77 344.5,-354 344.5,-354 344.5,-354 340.7,-352.77 345.61,-350.58 336.89,-351.53 336.89,-351.53"/>
<ellipse fill="none" stroke="black" cx="333.85" cy="-350.55" rx="3.2" ry="3.2"/>
</g>
<!-- ad_styleline&#45;&gt;ad_entitytype -->
<g id="edge3" class="edge">
<title>ad_styleline:w&#45;&gt;ad_entitytype:e</title>
<path fill="none" stroke="black" d="M329.94,-90.82C243.9,-100.89 242.06,-200 146.5,-200"/>
<polygon fill="black" stroke="black" points="336.51,-90.45 344.7,-93.59 340.51,-90.23 344.5,-90 344.5,-90 344.5,-90 340.51,-90.23 344.3,-86.41 336.51,-90.45 336.51,-90.45"/>
<ellipse fill="none" stroke="black" cx="333.32" cy="-90.63" rx="3.2" ry="3.2"/>
</g>
</g>
</svg>
