<?xml version="1.0" encoding="UTF-8" standalone="no"?>
<!DOCTYPE svg PUBLIC "-//W3C//DTD SVG 1.1//EN"
 "http://www.w3.org/Graphics/SVG/1.1/DTD/svg11.dtd">
<!-- Generated by graphviz version 2.43.0 (0)
 -->
<!-- Title: oneDegreeRelationshipsDiagram Pages: 1 -->
<svg width="550pt" height="604pt"
 viewBox="0.00 0.00 550.00 604.00" xmlns="http://www.w3.org/2000/svg" xmlns:xlink="http://www.w3.org/1999/xlink">
<g id="graph0" class="graph" transform="scale(1 1) rotate(0) translate(4 600)">
<title>oneDegreeRelationshipsDiagram</title>
<polygon fill="#ffffff" stroke="transparent" points="-4,4 -4,-600 546,-600 546,4 -4,4"/>
<text text-anchor="middle" x="71.5" y="-7.2" font-family="Helvetica,sans-Serif" font-size="11.00">Generated by SchemaSpy</text>
<!-- ad_scheduler_para -->
<g id="node1" class="node">
<title>ad_scheduler_para</title>
<g id="a_node1"><a xlink:href="../../tables/ad_scheduler_para.html" xlink:title="ad_scheduler_para" target="_top">
<polygon fill="#ffffff" stroke="transparent" points="278,-136 278,-466 534,-466 534,-136 278,-136"/>
<polygon fill="#f5f5f5" stroke="transparent" points="280,-442 280,-464 532,-464 532,-442 280,-442"/>
<polygon fill="none" stroke="black" points="280,-442 280,-464 532,-464 532,-442 280,-442"/>
<text text-anchor="start" x="285" y="-451.2" font-family="Helvetica,sans-Serif" font-weight="bold" font-size="11.00">ad_scheduler_para</text>
<text text-anchor="start" x="497" y="-450.2" font-family="Helvetica,sans-Serif" font-size="11.00">[table]</text>
<polygon fill="none" stroke="black" points="280,-420 280,-442 449,-442 449,-420 280,-420"/>
<image xlink:href="../../images/primaryKeys.png" width="11px" height="12px" preserveAspectRatio="xMinYMin meet" x="285" y="-437"/>
<text text-anchor="start" x="300" y="-428.2" font-family="Helvetica,sans-Serif" font-size="11.00">ad_scheduler_id</text>
<polygon fill="none" stroke="black" points="449,-420 449,-442 532,-442 532,-420 449,-420"/>
<text text-anchor="start" x="452" y="-428.2" font-family="Helvetica,sans-Serif" font-size="11.00">numeric[10]</text>
<polygon fill="none" stroke="black" points="280,-398 280,-420 449,-420 449,-398 280,-398"/>
<image xlink:href="../../images/primaryKeys.png" width="11px" height="12px" preserveAspectRatio="xMinYMin meet" x="285" y="-415"/>
<text text-anchor="start" x="300" y="-406.2" font-family="Helvetica,sans-Serif" font-size="11.00">ad_process_para_id</text>
<polygon fill="none" stroke="black" points="449,-398 449,-420 532,-420 532,-398 449,-398"/>
<text text-anchor="start" x="452" y="-406.2" font-family="Helvetica,sans-Serif" font-size="11.00">numeric[10]</text>
<polygon fill="none" stroke="black" points="280,-376 280,-398 449,-398 449,-376 280,-376"/>
<text text-anchor="start" x="300" y="-384.2" font-family="Helvetica,sans-Serif" font-size="11.00">ad_client_id</text>
<polygon fill="none" stroke="black" points="449,-376 449,-398 532,-398 532,-376 449,-376"/>
<text text-anchor="start" x="452" y="-384.2" font-family="Helvetica,sans-Serif" font-size="11.00">numeric[10]</text>
<polygon fill="none" stroke="black" points="280,-354 280,-376 449,-376 449,-354 280,-354"/>
<text text-anchor="start" x="300" y="-362.2" font-family="Helvetica,sans-Serif" font-size="11.00">ad_org_id</text>
<polygon fill="none" stroke="black" points="449,-354 449,-376 532,-376 532,-354 449,-354"/>
<text text-anchor="start" x="452" y="-362.2" font-family="Helvetica,sans-Serif" font-size="11.00">numeric[10]</text>
<polygon fill="none" stroke="black" points="280,-332 280,-354 449,-354 449,-332 280,-332"/>
<text text-anchor="start" x="300" y="-340.2" font-family="Helvetica,sans-Serif" font-size="11.00">isactive</text>
<polygon fill="none" stroke="black" points="449,-332 449,-354 532,-354 532,-332 449,-332"/>
<text text-anchor="start" x="452" y="-340.2" font-family="Helvetica,sans-Serif" font-size="11.00">bpchar[1]</text>
<polygon fill="none" stroke="black" points="280,-310 280,-332 449,-332 449,-310 280,-310"/>
<text text-anchor="start" x="300" y="-318.2" font-family="Helvetica,sans-Serif" font-size="11.00">created</text>
<polygon fill="none" stroke="black" points="449,-310 449,-332 532,-332 532,-310 449,-310"/>
<text text-anchor="start" x="452" y="-318.2" font-family="Helvetica,sans-Serif" font-size="11.00">timestamp[29,6]</text>
<polygon fill="none" stroke="black" points="280,-288 280,-310 449,-310 449,-288 280,-288"/>
<text text-anchor="start" x="300" y="-296.2" font-family="Helvetica,sans-Serif" font-size="11.00">createdby</text>
<polygon fill="none" stroke="black" points="449,-288 449,-310 532,-310 532,-288 449,-288"/>
<text text-anchor="start" x="452" y="-296.2" font-family="Helvetica,sans-Serif" font-size="11.00">numeric[10]</text>
<polygon fill="none" stroke="black" points="280,-266 280,-288 449,-288 449,-266 280,-266"/>
<text text-anchor="start" x="300" y="-274.2" font-family="Helvetica,sans-Serif" font-size="11.00">updated</text>
<polygon fill="none" stroke="black" points="449,-266 449,-288 532,-288 532,-266 449,-266"/>
<text text-anchor="start" x="452" y="-274.2" font-family="Helvetica,sans-Serif" font-size="11.00">timestamp[29,6]</text>
<polygon fill="none" stroke="black" points="280,-244 280,-266 449,-266 449,-244 280,-244"/>
<text text-anchor="start" x="300" y="-252.2" font-family="Helvetica,sans-Serif" font-size="11.00">updatedby</text>
<polygon fill="none" stroke="black" points="449,-244 449,-266 532,-266 532,-244 449,-244"/>
<text text-anchor="start" x="452" y="-252.2" font-family="Helvetica,sans-Serif" font-size="11.00">numeric[10]</text>
<polygon fill="none" stroke="black" points="280,-222 280,-244 449,-244 449,-222 280,-222"/>
<text text-anchor="start" x="300" y="-230.2" font-family="Helvetica,sans-Serif" font-size="11.00">parameterdefault</text>
<polygon fill="none" stroke="black" points="449,-222 449,-244 532,-244 532,-222 449,-222"/>
<text text-anchor="start" x="452" y="-230.2" font-family="Helvetica,sans-Serif" font-size="11.00">varchar[255]</text>
<polygon fill="none" stroke="black" points="280,-200 280,-222 449,-222 449,-200 280,-200"/>
<text text-anchor="start" x="300" y="-208.2" font-family="Helvetica,sans-Serif" font-size="11.00">description</text>
<polygon fill="none" stroke="black" points="449,-200 449,-222 532,-222 532,-200 449,-200"/>
<text text-anchor="start" x="452" y="-208.2" font-family="Helvetica,sans-Serif" font-size="11.00">varchar[255]</text>
<polygon fill="#ffffff" stroke="transparent" points="280,-178 280,-200 449,-200 449,-178 280,-178"/>
<polygon fill="none" stroke="black" points="280,-178 280,-200 449,-200 449,-178 280,-178"/>
<text text-anchor="start" x="300" y="-186.2" font-family="Helvetica,sans-Serif" font-size="11.00">ad_scheduler_para_uu</text>
<polygon fill="none" stroke="black" points="449,-178 449,-200 532,-200 532,-178 449,-178"/>
<text text-anchor="start" x="452" y="-186.2" font-family="Helvetica,sans-Serif" font-size="11.00">varchar[36]</text>
<polygon fill="none" stroke="black" points="280,-156 280,-178 449,-178 449,-156 280,-156"/>
<text text-anchor="start" x="300" y="-164.2" font-family="Helvetica,sans-Serif" font-size="11.00">parametertodefault</text>
<polygon fill="none" stroke="black" points="449,-156 449,-178 532,-178 532,-156 449,-156"/>
<text text-anchor="start" x="452" y="-164.2" font-family="Helvetica,sans-Serif" font-size="11.00">varchar[255]</text>
<polygon fill="#ffffff" stroke="transparent" points="280,-138 280,-156 353,-156 353,-138 280,-138"/>
<polygon fill="none" stroke="black" points="280,-138 280,-156 353,-156 353,-138 280,-138"/>
<text text-anchor="start" x="283" y="-144.2" font-family="Helvetica,sans-Serif" font-size="11.00">&lt; 2</text>
<polygon fill="#ffffff" stroke="transparent" points="353,-138 353,-156 449,-156 449,-138 353,-138"/>
<polygon fill="none" stroke="black" points="353,-138 353,-156 449,-156 449,-138 353,-138"/>
<text text-anchor="start" x="407" y="-144.2" font-family="Helvetica,sans-Serif" font-size="11.00">11 rows</text>
<polygon fill="#ffffff" stroke="transparent" points="449,-138 449,-156 532,-156 532,-138 449,-138"/>
<polygon fill="none" stroke="black" points="449,-138 449,-156 532,-156 532,-138 449,-138"/>
<text text-anchor="start" x="513" y="-144.2" font-family="Helvetica,sans-Serif" font-size="11.00">0 &gt;</text>
<polygon fill="none" stroke="black" stroke-width="2" points="279,-137 279,-465 533,-465 533,-137 279,-137"/>
</a>
</g>
</g>
<!-- ad_process_para -->
<g id="node2" class="node">
<title>ad_process_para</title>
<g id="a_node2"><a xlink:href="../../tables/ad_process_para.html" xlink:title="ad_process_para" target="_top">
<polygon fill="#ffffff" stroke="transparent" points="33.5,-37 33.5,-315 203.5,-315 203.5,-37 33.5,-37"/>
<polygon fill="#f5f5f5" stroke="transparent" points="33.5,-293 33.5,-315 203.5,-315 203.5,-293 33.5,-293"/>
<polygon fill="none" stroke="black" points="33.5,-293 33.5,-315 203.5,-315 203.5,-293 33.5,-293"/>
<text text-anchor="start" x="38.5" y="-302.2" font-family="Helvetica,sans-Serif" font-weight="bold" font-size="11.00">ad_process_para</text>
<text text-anchor="start" x="168.5" y="-301.2" font-family="Helvetica,sans-Serif" font-size="11.00">[table]</text>
<polygon fill="none" stroke="black" points="33.5,-271 33.5,-293 203.5,-293 203.5,-271 33.5,-271"/>
<image xlink:href="../../images/primaryKeys.png" width="11px" height="12px" preserveAspectRatio="xMinYMin meet" x="38.5" y="-288"/>
<text text-anchor="start" x="53.5" y="-279.2" font-family="Helvetica,sans-Serif" font-size="11.00">ad_process_para_id</text>
<polygon fill="#ffffff" stroke="transparent" points="33.5,-249 33.5,-271 203.5,-271 203.5,-249 33.5,-249"/>
<polygon fill="none" stroke="black" points="33.5,-249 33.5,-271 203.5,-271 203.5,-249 33.5,-249"/>
<image xlink:href="../../images/foreignKeys.png" width="11px" height="12px" preserveAspectRatio="xMinYMin meet" x="38.5" y="-266"/>
<text text-anchor="start" x="53.5" y="-257.2" font-family="Helvetica,sans-Serif" font-size="11.00">ad_process_id</text>
<polygon fill="#ffffff" stroke="transparent" points="33.5,-227 33.5,-249 203.5,-249 203.5,-227 33.5,-227"/>
<polygon fill="none" stroke="black" points="33.5,-227 33.5,-249 203.5,-249 203.5,-227 33.5,-227"/>
<text text-anchor="start" x="53.5" y="-235.2" font-family="Helvetica,sans-Serif" font-size="11.00">seqno</text>
<polygon fill="none" stroke="black" points="33.5,-205 33.5,-227 203.5,-227 203.5,-205 33.5,-205"/>
<image xlink:href="../../images/foreignKeys.png" width="11px" height="12px" preserveAspectRatio="xMinYMin meet" x="38.5" y="-222"/>
<text text-anchor="start" x="53.5" y="-213.2" font-family="Helvetica,sans-Serif" font-size="11.00">ad_reference_id</text>
<polygon fill="none" stroke="black" points="33.5,-183 33.5,-205 203.5,-205 203.5,-183 33.5,-183"/>
<image xlink:href="../../images/foreignKeys.png" width="11px" height="12px" preserveAspectRatio="xMinYMin meet" x="38.5" y="-200"/>
<text text-anchor="start" x="53.5" y="-191.2" font-family="Helvetica,sans-Serif" font-size="11.00">ad_reference_value_id</text>
<polygon fill="none" stroke="black" points="33.5,-161 33.5,-183 203.5,-183 203.5,-161 33.5,-161"/>
<image xlink:href="../../images/foreignKeys.png" width="11px" height="12px" preserveAspectRatio="xMinYMin meet" x="38.5" y="-178"/>
<text text-anchor="start" x="53.5" y="-169.2" font-family="Helvetica,sans-Serif" font-size="11.00">ad_val_rule_id</text>
<polygon fill="none" stroke="black" points="33.5,-139 33.5,-161 203.5,-161 203.5,-139 33.5,-139"/>
<image xlink:href="../../images/foreignKeys.png" width="11px" height="12px" preserveAspectRatio="xMinYMin meet" x="38.5" y="-156"/>
<text text-anchor="start" x="53.5" y="-147.2" font-family="Helvetica,sans-Serif" font-size="11.00">ad_element_id</text>
<polygon fill="none" stroke="black" points="33.5,-117 33.5,-139 203.5,-139 203.5,-117 33.5,-117"/>
<image xlink:href="../../images/foreignKeys.png" width="11px" height="12px" preserveAspectRatio="xMinYMin meet" x="38.5" y="-134"/>
<text text-anchor="start" x="53.5" y="-125.2" font-family="Helvetica,sans-Serif" font-size="11.00">entitytype</text>
<polygon fill="#ffffff" stroke="transparent" points="33.5,-95 33.5,-117 203.5,-117 203.5,-95 33.5,-95"/>
<polygon fill="none" stroke="black" points="33.5,-95 33.5,-117 203.5,-117 203.5,-95 33.5,-95"/>
<text text-anchor="start" x="53.5" y="-103.2" font-family="Helvetica,sans-Serif" font-size="11.00">ad_process_para_uu</text>
<polygon fill="none" stroke="black" points="33.5,-73 33.5,-95 203.5,-95 203.5,-73 33.5,-73"/>
<image xlink:href="../../images/foreignKeys.png" width="11px" height="12px" preserveAspectRatio="xMinYMin meet" x="38.5" y="-90"/>
<text text-anchor="start" x="53.5" y="-81.2" font-family="Helvetica,sans-Serif" font-size="11.00">ad_fieldgroup_id</text>
<polygon fill="none" stroke="black" points="33.5,-55 33.5,-73 203.5,-73 203.5,-55 33.5,-55"/>
<text text-anchor="start" x="36.5" y="-61.2" font-family="Helvetica,sans-Serif" font-size="11.00">...</text>
<polygon fill="#ffffff" stroke="transparent" points="33.5,-37 33.5,-55 88.5,-55 88.5,-37 33.5,-37"/>
<polygon fill="none" stroke="black" points="33.5,-37 33.5,-55 88.5,-55 88.5,-37 33.5,-37"/>
<text text-anchor="start" x="36.5" y="-43.2" font-family="Helvetica,sans-Serif" font-size="11.00">&lt; 7</text>
<polygon fill="#ffffff" stroke="transparent" points="88.5,-37 88.5,-55 164.5,-55 164.5,-37 88.5,-37"/>
<polygon fill="none" stroke="black" points="88.5,-37 88.5,-55 164.5,-55 164.5,-37 88.5,-37"/>
<text text-anchor="start" x="107.5" y="-43.2" font-family="Helvetica,sans-Serif" font-size="11.00">3.151 rows</text>
<polygon fill="#ffffff" stroke="transparent" points="164.5,-37 164.5,-55 203.5,-55 203.5,-37 164.5,-37"/>
<polygon fill="none" stroke="black" points="164.5,-37 164.5,-55 203.5,-55 203.5,-37 164.5,-37"/>
<text text-anchor="start" x="184.5" y="-43.2" font-family="Helvetica,sans-Serif" font-size="11.00">8 &gt;</text>
</a>
</g>
</g>
<!-- ad_scheduler_para&#45;&gt;ad_process_para -->
<g id="edge1" class="edge">
<title>ad_scheduler_para:w&#45;&gt;ad_process_para:e</title>
<path fill="none" stroke="black" d="M264.67,-406.35C222.35,-388.11 264.32,-282 204.5,-282"/>
<polygon fill="black" stroke="black" points="271.13,-407.54 278.34,-412.54 275.07,-408.27 279,-409 279,-409 279,-409 275.07,-408.27 279.66,-405.46 271.13,-407.54 271.13,-407.54"/>
<ellipse fill="none" stroke="black" cx="267.99" cy="-406.96" rx="3.2" ry="3.2"/>
</g>
<!-- ad_scheduler -->
<g id="node3" class="node">
<title>ad_scheduler</title>
<g id="a_node3"><a xlink:href="../../tables/ad_scheduler.html" xlink:title="ad_scheduler" target="_top">
<polygon fill="#ffffff" stroke="transparent" points="8,-336 8,-592 229,-592 229,-336 8,-336"/>
<polygon fill="#f5f5f5" stroke="transparent" points="8.5,-570 8.5,-592 229.5,-592 229.5,-570 8.5,-570"/>
<polygon fill="none" stroke="black" points="8.5,-570 8.5,-592 229.5,-592 229.5,-570 8.5,-570"/>
<text text-anchor="start" x="13.5" y="-579.2" font-family="Helvetica,sans-Serif" font-weight="bold" font-size="11.00">ad_scheduler</text>
<text text-anchor="start" x="194.5" y="-578.2" font-family="Helvetica,sans-Serif" font-size="11.00">[table]</text>
<polygon fill="none" stroke="black" points="8.5,-548 8.5,-570 229.5,-570 229.5,-548 8.5,-548"/>
<image xlink:href="../../images/primaryKeys.png" width="11px" height="12px" preserveAspectRatio="xMinYMin meet" x="13.5" y="-565"/>
<text text-anchor="start" x="28.5" y="-556.2" font-family="Helvetica,sans-Serif" font-size="11.00">ad_scheduler_id</text>
<polygon fill="none" stroke="black" points="8.5,-526 8.5,-548 229.5,-548 229.5,-526 8.5,-526"/>
<image xlink:href="../../images/foreignKeys.png" width="11px" height="12px" preserveAspectRatio="xMinYMin meet" x="13.5" y="-543"/>
<text text-anchor="start" x="28.5" y="-534.2" font-family="Helvetica,sans-Serif" font-size="11.00">ad_process_id</text>
<polygon fill="none" stroke="black" points="8.5,-504 8.5,-526 229.5,-526 229.5,-504 8.5,-504"/>
<image xlink:href="../../images/foreignKeys.png" width="11px" height="12px" preserveAspectRatio="xMinYMin meet" x="13.5" y="-521"/>
<text text-anchor="start" x="28.5" y="-512.2" font-family="Helvetica,sans-Serif" font-size="11.00">supervisor_id</text>
<polygon fill="none" stroke="black" points="8.5,-482 8.5,-504 229.5,-504 229.5,-482 8.5,-482"/>
<image xlink:href="../../images/foreignKeys.png" width="11px" height="12px" preserveAspectRatio="xMinYMin meet" x="13.5" y="-499"/>
<text text-anchor="start" x="28.5" y="-490.2" font-family="Helvetica,sans-Serif" font-size="11.00">ad_table_id</text>
<polygon fill="#ffffff" stroke="transparent" points="8.5,-460 8.5,-482 229.5,-482 229.5,-460 8.5,-460"/>
<polygon fill="none" stroke="black" points="8.5,-460 8.5,-482 229.5,-482 229.5,-460 8.5,-460"/>
<text text-anchor="start" x="28.5" y="-468.2" font-family="Helvetica,sans-Serif" font-size="11.00">ad_scheduler_uu</text>
<polygon fill="none" stroke="black" points="8.5,-438 8.5,-460 229.5,-460 229.5,-438 8.5,-438"/>
<image xlink:href="../../images/foreignKeys.png" width="11px" height="12px" preserveAspectRatio="xMinYMin meet" x="13.5" y="-455"/>
<text text-anchor="start" x="28.5" y="-446.2" font-family="Helvetica,sans-Serif" font-size="11.00">ad_schedule_id</text>
<polygon fill="none" stroke="black" points="8.5,-416 8.5,-438 229.5,-438 229.5,-416 8.5,-416"/>
<image xlink:href="../../images/foreignKeys.png" width="11px" height="12px" preserveAspectRatio="xMinYMin meet" x="13.5" y="-433"/>
<text text-anchor="start" x="28.5" y="-424.2" font-family="Helvetica,sans-Serif" font-size="11.00">r_mailtext_id</text>
<polygon fill="none" stroke="black" points="8.5,-394 8.5,-416 229.5,-416 229.5,-394 8.5,-394"/>
<image xlink:href="../../images/foreignKeys.png" width="11px" height="12px" preserveAspectRatio="xMinYMin meet" x="13.5" y="-411"/>
<text text-anchor="start" x="28.5" y="-402.2" font-family="Helvetica,sans-Serif" font-size="11.00">ad_printformat_id</text>
<polygon fill="none" stroke="black" points="8.5,-372 8.5,-394 229.5,-394 229.5,-372 8.5,-372"/>
<image xlink:href="../../images/foreignKeys.png" width="11px" height="12px" preserveAspectRatio="xMinYMin meet" x="13.5" y="-389"/>
<text text-anchor="start" x="28.5" y="-380.2" font-family="Helvetica,sans-Serif" font-size="11.00">cof_armazenamentonuvem_id</text>
<polygon fill="none" stroke="black" points="8.5,-354 8.5,-372 229.5,-372 229.5,-354 8.5,-354"/>
<text text-anchor="start" x="11.5" y="-360.2" font-family="Helvetica,sans-Serif" font-size="11.00">...</text>
<polygon fill="#ffffff" stroke="transparent" points="8.5,-336 8.5,-354 96.5,-354 96.5,-336 8.5,-336"/>
<polygon fill="none" stroke="black" points="8.5,-336 8.5,-354 96.5,-354 96.5,-336 8.5,-336"/>
<text text-anchor="start" x="11.5" y="-342.2" font-family="Helvetica,sans-Serif" font-size="11.00">&lt; 7</text>
<polygon fill="#ffffff" stroke="transparent" points="96.5,-336 96.5,-354 174.5,-354 174.5,-336 96.5,-336"/>
<polygon fill="none" stroke="black" points="96.5,-336 96.5,-354 174.5,-354 174.5,-336 96.5,-336"/>
<text text-anchor="start" x="132.5" y="-342.2" font-family="Helvetica,sans-Serif" font-size="11.00">10 rows</text>
<polygon fill="#ffffff" stroke="transparent" points="174.5,-336 174.5,-354 229.5,-354 229.5,-336 174.5,-336"/>
<polygon fill="none" stroke="black" points="174.5,-336 174.5,-354 229.5,-354 229.5,-336 174.5,-336"/>
<text text-anchor="start" x="210.5" y="-342.2" font-family="Helvetica,sans-Serif" font-size="11.00">3 &gt;</text>
</a>
</g>
</g>
<!-- ad_scheduler_para&#45;&gt;ad_scheduler -->
<g id="edge2" class="edge">
<title>ad_scheduler_para:w&#45;&gt;ad_scheduler:e</title>
<path fill="none" stroke="black" d="M264.76,-434.42C231.18,-454.78 285.39,-559 230.5,-559"/>
<polygon fill="black" stroke="black" points="271.22,-432.87 279.84,-434.5 275.11,-431.94 279,-431 279,-431 279,-431 275.11,-431.94 278.16,-427.5 271.22,-432.87 271.22,-432.87"/>
<ellipse fill="none" stroke="black" cx="268.11" cy="-433.62" rx="3.2" ry="3.2"/>
</g>
</g>
</svg>
