<?xml version="1.0" encoding="UTF-8" standalone="no"?>
<!DOCTYPE svg PUBLIC "-//W3C//DTD SVG 1.1//EN"
 "http://www.w3.org/Graphics/SVG/1.1/DTD/svg11.dtd">
<!-- Generated by graphviz version 2.43.0 (0)
 -->
<!-- Title: oneDegreeRelationshipsDiagram Pages: 1 -->
<svg width="595pt" height="615pt"
 viewBox="0.00 0.00 595.20 615.00" xmlns="http://www.w3.org/2000/svg" xmlns:xlink="http://www.w3.org/1999/xlink">
<g id="graph0" class="graph" transform="scale(1 1) rotate(0) translate(4 611)">
<title>oneDegreeRelationshipsDiagram</title>
<polygon fill="#ffffff" stroke="transparent" points="-4,4 -4,-611 591.2,-611 591.2,4 -4,4"/>
<text text-anchor="middle" x="71.5" y="-7.2" font-family="Helvetica,sans-Serif" font-size="11.00">Generated by SchemaSpy</text>
<!-- ad_tree_favorite_node -->
<g id="node1" class="node">
<title>ad_tree_favorite_node</title>
<g id="a_node1"><a xlink:href="../../tables/ad_tree_favorite_node.html" xlink:title="ad_tree_favorite_node" target="_top">
<polygon fill="#ffffff" stroke="transparent" points="265,-37 265,-477 545,-477 545,-37 265,-37"/>
<polygon fill="#f5f5f5" stroke="transparent" points="267,-453 267,-475 543,-475 543,-453 267,-453"/>
<polygon fill="none" stroke="black" points="267,-453 267,-475 543,-475 543,-453 267,-453"/>
<text text-anchor="start" x="272" y="-462.2" font-family="Helvetica,sans-Serif" font-weight="bold" font-size="11.00">ad_tree_favorite_node</text>
<text text-anchor="start" x="508" y="-461.2" font-family="Helvetica,sans-Serif" font-size="11.00">[table]</text>
<polygon fill="none" stroke="black" points="267,-431 267,-453 460,-453 460,-431 267,-431"/>
<text text-anchor="start" x="287" y="-439.2" font-family="Helvetica,sans-Serif" font-size="11.00">ad_client_id</text>
<polygon fill="none" stroke="black" points="460,-431 460,-453 543,-453 543,-431 460,-431"/>
<text text-anchor="start" x="463" y="-439.2" font-family="Helvetica,sans-Serif" font-size="11.00">numeric[10]</text>
<polygon fill="none" stroke="black" points="267,-409 267,-431 460,-431 460,-409 267,-409"/>
<image xlink:href="../../images/foreignKeys.png" width="11px" height="12px" preserveAspectRatio="xMinYMin meet" x="272" y="-426"/>
<text text-anchor="start" x="287" y="-417.2" font-family="Helvetica,sans-Serif" font-size="11.00">ad_menu_id</text>
<polygon fill="none" stroke="black" points="460,-409 460,-431 543,-431 543,-409 460,-409"/>
<text text-anchor="start" x="463" y="-417.2" font-family="Helvetica,sans-Serif" font-size="11.00">numeric[10]</text>
<polygon fill="none" stroke="black" points="267,-387 267,-409 460,-409 460,-387 267,-387"/>
<text text-anchor="start" x="287" y="-395.2" font-family="Helvetica,sans-Serif" font-size="11.00">ad_org_id</text>
<polygon fill="none" stroke="black" points="460,-387 460,-409 543,-409 543,-387 460,-387"/>
<text text-anchor="start" x="463" y="-395.2" font-family="Helvetica,sans-Serif" font-size="11.00">numeric[10]</text>
<polygon fill="none" stroke="black" points="267,-365 267,-387 460,-387 460,-365 267,-365"/>
<image xlink:href="../../images/foreignKeys.png" width="11px" height="12px" preserveAspectRatio="xMinYMin meet" x="272" y="-382"/>
<text text-anchor="start" x="287" y="-373.2" font-family="Helvetica,sans-Serif" font-size="11.00">ad_tree_favorite_id</text>
<polygon fill="none" stroke="black" points="460,-365 460,-387 543,-387 543,-365 460,-365"/>
<text text-anchor="start" x="463" y="-373.2" font-family="Helvetica,sans-Serif" font-size="11.00">numeric[10]</text>
<polygon fill="none" stroke="black" points="267,-343 267,-365 460,-365 460,-343 267,-343"/>
<image xlink:href="../../images/primaryKeys.png" width="11px" height="12px" preserveAspectRatio="xMinYMin meet" x="272" y="-360"/>
<text text-anchor="start" x="287" y="-351.2" font-family="Helvetica,sans-Serif" font-size="11.00">ad_tree_favorite_node_id</text>
<polygon fill="none" stroke="black" points="460,-343 460,-365 543,-365 543,-343 460,-343"/>
<text text-anchor="start" x="463" y="-351.2" font-family="Helvetica,sans-Serif" font-size="11.00">numeric[10]</text>
<polygon fill="#ffffff" stroke="transparent" points="267,-321 267,-343 460,-343 460,-321 267,-321"/>
<polygon fill="none" stroke="black" points="267,-321 267,-343 460,-343 460,-321 267,-321"/>
<text text-anchor="start" x="287" y="-329.2" font-family="Helvetica,sans-Serif" font-size="11.00">ad_tree_favorite_node_uu</text>
<polygon fill="none" stroke="black" points="460,-321 460,-343 543,-343 543,-321 460,-321"/>
<text text-anchor="start" x="463" y="-329.2" font-family="Helvetica,sans-Serif" font-size="11.00">varchar[36]</text>
<polygon fill="none" stroke="black" points="267,-299 267,-321 460,-321 460,-299 267,-299"/>
<text text-anchor="start" x="287" y="-307.2" font-family="Helvetica,sans-Serif" font-size="11.00">created</text>
<polygon fill="none" stroke="black" points="460,-299 460,-321 543,-321 543,-299 460,-299"/>
<text text-anchor="start" x="463" y="-307.2" font-family="Helvetica,sans-Serif" font-size="11.00">timestamp[29,6]</text>
<polygon fill="none" stroke="black" points="267,-277 267,-299 460,-299 460,-277 267,-277"/>
<text text-anchor="start" x="287" y="-285.2" font-family="Helvetica,sans-Serif" font-size="11.00">createdby</text>
<polygon fill="none" stroke="black" points="460,-277 460,-299 543,-299 543,-277 460,-277"/>
<text text-anchor="start" x="463" y="-285.2" font-family="Helvetica,sans-Serif" font-size="11.00">numeric[10]</text>
<polygon fill="none" stroke="black" points="267,-255 267,-277 460,-277 460,-255 267,-255"/>
<text text-anchor="start" x="287" y="-263.2" font-family="Helvetica,sans-Serif" font-size="11.00">isactive</text>
<polygon fill="none" stroke="black" points="460,-255 460,-277 543,-277 543,-255 460,-255"/>
<text text-anchor="start" x="463" y="-263.2" font-family="Helvetica,sans-Serif" font-size="11.00">bpchar[1]</text>
<polygon fill="none" stroke="black" points="267,-233 267,-255 460,-255 460,-233 267,-233"/>
<text text-anchor="start" x="287" y="-241.2" font-family="Helvetica,sans-Serif" font-size="11.00">iscollapsible</text>
<polygon fill="none" stroke="black" points="460,-233 460,-255 543,-255 543,-233 460,-233"/>
<text text-anchor="start" x="463" y="-241.2" font-family="Helvetica,sans-Serif" font-size="11.00">bpchar[1]</text>
<polygon fill="none" stroke="black" points="267,-211 267,-233 460,-233 460,-211 267,-211"/>
<text text-anchor="start" x="287" y="-219.2" font-family="Helvetica,sans-Serif" font-size="11.00">issummary</text>
<polygon fill="none" stroke="black" points="460,-211 460,-233 543,-233 543,-211 460,-211"/>
<text text-anchor="start" x="463" y="-219.2" font-family="Helvetica,sans-Serif" font-size="11.00">bpchar[1]</text>
<polygon fill="none" stroke="black" points="267,-189 267,-211 460,-211 460,-189 267,-189"/>
<text text-anchor="start" x="287" y="-197.2" font-family="Helvetica,sans-Serif" font-size="11.00">name</text>
<polygon fill="none" stroke="black" points="460,-189 460,-211 543,-211 543,-189 460,-189"/>
<text text-anchor="start" x="463" y="-197.2" font-family="Helvetica,sans-Serif" font-size="11.00">varchar[120]</text>
<polygon fill="none" stroke="black" points="267,-167 267,-189 460,-189 460,-167 267,-167"/>
<image xlink:href="../../images/foreignKeys.png" width="11px" height="12px" preserveAspectRatio="xMinYMin meet" x="272" y="-184"/>
<text text-anchor="start" x="287" y="-175.2" font-family="Helvetica,sans-Serif" font-size="11.00">parent_id</text>
<polygon fill="none" stroke="black" points="460,-167 460,-189 543,-189 543,-167 460,-167"/>
<text text-anchor="start" x="463" y="-175.2" font-family="Helvetica,sans-Serif" font-size="11.00">numeric[10]</text>
<polygon fill="none" stroke="black" points="267,-145 267,-167 460,-167 460,-145 267,-145"/>
<text text-anchor="start" x="287" y="-153.2" font-family="Helvetica,sans-Serif" font-size="11.00">seqno</text>
<polygon fill="none" stroke="black" points="460,-145 460,-167 543,-167 543,-145 460,-145"/>
<text text-anchor="start" x="463" y="-153.2" font-family="Helvetica,sans-Serif" font-size="11.00">numeric[10]</text>
<polygon fill="none" stroke="black" points="267,-123 267,-145 460,-145 460,-123 267,-123"/>
<text text-anchor="start" x="287" y="-131.2" font-family="Helvetica,sans-Serif" font-size="11.00">updated</text>
<polygon fill="none" stroke="black" points="460,-123 460,-145 543,-145 543,-123 460,-123"/>
<text text-anchor="start" x="463" y="-131.2" font-family="Helvetica,sans-Serif" font-size="11.00">timestamp[29,6]</text>
<polygon fill="none" stroke="black" points="267,-101 267,-123 460,-123 460,-101 267,-101"/>
<text text-anchor="start" x="287" y="-109.2" font-family="Helvetica,sans-Serif" font-size="11.00">updatedby</text>
<polygon fill="none" stroke="black" points="460,-101 460,-123 543,-123 543,-101 460,-101"/>
<text text-anchor="start" x="463" y="-109.2" font-family="Helvetica,sans-Serif" font-size="11.00">numeric[10]</text>
<polygon fill="none" stroke="black" points="267,-79 267,-101 460,-101 460,-79 267,-79"/>
<text text-anchor="start" x="287" y="-87.2" font-family="Helvetica,sans-Serif" font-size="11.00">isfavourite</text>
<polygon fill="none" stroke="black" points="460,-79 460,-101 543,-101 543,-79 460,-79"/>
<text text-anchor="start" x="463" y="-87.2" font-family="Helvetica,sans-Serif" font-size="11.00">bpchar[1]</text>
<polygon fill="none" stroke="black" points="267,-57 267,-79 460,-79 460,-57 267,-57"/>
<text text-anchor="start" x="287" y="-65.2" font-family="Helvetica,sans-Serif" font-size="11.00">loginopenseqno</text>
<polygon fill="none" stroke="black" points="460,-57 460,-79 543,-79 543,-57 460,-57"/>
<text text-anchor="start" x="463" y="-65.2" font-family="Helvetica,sans-Serif" font-size="11.00">numeric[10]</text>
<polygon fill="#ffffff" stroke="transparent" points="267,-39 267,-57 352,-57 352,-39 267,-39"/>
<polygon fill="none" stroke="black" points="267,-39 267,-57 352,-57 352,-39 267,-39"/>
<text text-anchor="start" x="270" y="-45.2" font-family="Helvetica,sans-Serif" font-size="11.00">&lt; 3</text>
<polygon fill="#ffffff" stroke="transparent" points="352,-39 352,-57 460,-57 460,-39 352,-39"/>
<polygon fill="none" stroke="black" points="352,-39 352,-57 460,-57 460,-39 352,-39"/>
<text text-anchor="start" x="418" y="-45.2" font-family="Helvetica,sans-Serif" font-size="11.00">34 rows</text>
<polygon fill="#ffffff" stroke="transparent" points="460,-39 460,-57 543,-57 543,-39 460,-39"/>
<polygon fill="none" stroke="black" points="460,-39 460,-57 543,-57 543,-39 460,-39"/>
<text text-anchor="start" x="524" y="-45.2" font-family="Helvetica,sans-Serif" font-size="11.00">1 &gt;</text>
<polygon fill="none" stroke="black" stroke-width="2" points="266,-38 266,-476 544,-476 544,-38 266,-38"/>
</a>
</g>
</g>
<!-- ad_tree_favorite_node&#45;&gt;ad_tree_favorite_node -->
<g id="edge3" class="edge">
<title>ad_tree_favorite_node:w&#45;&gt;ad_tree_favorite_node:e</title>
<path fill="none" stroke="black" d="M257.81,-189.3C194.41,-277.37 203.27,-494 405,-494 616,-494 616,-433 543,-354"/>
<polygon fill="black" stroke="black" points="261.95,-184.21 269.79,-180.27 264.48,-181.1 267,-178 267,-178 267,-178 264.48,-181.1 264.21,-175.73 261.95,-184.21 261.95,-184.21"/>
<ellipse fill="none" stroke="black" cx="259.93" cy="-186.69" rx="3.2" ry="3.2"/>
</g>
<!-- ad_menu -->
<g id="node2" class="node">
<title>ad_menu</title>
<g id="a_node2"><a xlink:href="../../tables/ad_menu.html" xlink:title="ad_menu" target="_top">
<polygon fill="#ffffff" stroke="transparent" points="8,-281 8,-603 216,-603 216,-281 8,-281"/>
<polygon fill="#f5f5f5" stroke="transparent" points="8,-581 8,-603 216,-603 216,-581 8,-581"/>
<polygon fill="none" stroke="black" points="8,-581 8,-603 216,-603 216,-581 8,-581"/>
<text text-anchor="start" x="13" y="-590.2" font-family="Helvetica,sans-Serif" font-weight="bold" font-size="11.00">ad_menu</text>
<text text-anchor="start" x="181" y="-589.2" font-family="Helvetica,sans-Serif" font-size="11.00">[table]</text>
<polygon fill="none" stroke="black" points="8,-559 8,-581 216,-581 216,-559 8,-559"/>
<image xlink:href="../../images/primaryKeys.png" width="11px" height="12px" preserveAspectRatio="xMinYMin meet" x="13" y="-576"/>
<text text-anchor="start" x="28" y="-567.2" font-family="Helvetica,sans-Serif" font-size="11.00">ad_menu_id</text>
<polygon fill="none" stroke="black" points="8,-537 8,-559 216,-559 216,-537 8,-537"/>
<image xlink:href="../../images/foreignKeys.png" width="11px" height="12px" preserveAspectRatio="xMinYMin meet" x="13" y="-554"/>
<text text-anchor="start" x="28" y="-545.2" font-family="Helvetica,sans-Serif" font-size="11.00">ad_client_id</text>
<polygon fill="none" stroke="black" points="8,-515 8,-537 216,-537 216,-515 8,-515"/>
<image xlink:href="../../images/foreignKeys.png" width="11px" height="12px" preserveAspectRatio="xMinYMin meet" x="13" y="-532"/>
<text text-anchor="start" x="28" y="-523.2" font-family="Helvetica,sans-Serif" font-size="11.00">ad_org_id</text>
<polygon fill="none" stroke="black" points="8,-493 8,-515 216,-515 216,-493 8,-493"/>
<image xlink:href="../../images/foreignKeys.png" width="11px" height="12px" preserveAspectRatio="xMinYMin meet" x="13" y="-510"/>
<text text-anchor="start" x="28" y="-501.2" font-family="Helvetica,sans-Serif" font-size="11.00">ad_window_id</text>
<polygon fill="none" stroke="black" points="8,-471 8,-493 216,-493 216,-471 8,-471"/>
<image xlink:href="../../images/foreignKeys.png" width="11px" height="12px" preserveAspectRatio="xMinYMin meet" x="13" y="-488"/>
<text text-anchor="start" x="28" y="-479.2" font-family="Helvetica,sans-Serif" font-size="11.00">ad_workflow_id</text>
<polygon fill="none" stroke="black" points="8,-449 8,-471 216,-471 216,-449 8,-449"/>
<image xlink:href="../../images/foreignKeys.png" width="11px" height="12px" preserveAspectRatio="xMinYMin meet" x="13" y="-466"/>
<text text-anchor="start" x="28" y="-457.2" font-family="Helvetica,sans-Serif" font-size="11.00">ad_task_id</text>
<polygon fill="none" stroke="black" points="8,-427 8,-449 216,-449 216,-427 8,-427"/>
<image xlink:href="../../images/foreignKeys.png" width="11px" height="12px" preserveAspectRatio="xMinYMin meet" x="13" y="-444"/>
<text text-anchor="start" x="28" y="-435.2" font-family="Helvetica,sans-Serif" font-size="11.00">ad_process_id</text>
<polygon fill="none" stroke="black" points="8,-405 8,-427 216,-427 216,-405 8,-405"/>
<image xlink:href="../../images/foreignKeys.png" width="11px" height="12px" preserveAspectRatio="xMinYMin meet" x="13" y="-422"/>
<text text-anchor="start" x="28" y="-413.2" font-family="Helvetica,sans-Serif" font-size="11.00">ad_form_id</text>
<polygon fill="none" stroke="black" points="8,-383 8,-405 216,-405 216,-383 8,-383"/>
<image xlink:href="../../images/foreignKeys.png" width="11px" height="12px" preserveAspectRatio="xMinYMin meet" x="13" y="-400"/>
<text text-anchor="start" x="28" y="-391.2" font-family="Helvetica,sans-Serif" font-size="11.00">ad_workbench_id</text>
<polygon fill="none" stroke="black" points="8,-361 8,-383 216,-383 216,-361 8,-361"/>
<image xlink:href="../../images/foreignKeys.png" width="11px" height="12px" preserveAspectRatio="xMinYMin meet" x="13" y="-378"/>
<text text-anchor="start" x="28" y="-369.2" font-family="Helvetica,sans-Serif" font-size="11.00">entitytype</text>
<polygon fill="#ffffff" stroke="transparent" points="8,-339 8,-361 216,-361 216,-339 8,-339"/>
<polygon fill="none" stroke="black" points="8,-339 8,-361 216,-361 216,-339 8,-339"/>
<text text-anchor="start" x="28" y="-347.2" font-family="Helvetica,sans-Serif" font-size="11.00">ad_menu_uu</text>
<polygon fill="none" stroke="black" points="8,-317 8,-339 216,-339 216,-317 8,-317"/>
<image xlink:href="../../images/foreignKeys.png" width="11px" height="12px" preserveAspectRatio="xMinYMin meet" x="13" y="-334"/>
<text text-anchor="start" x="28" y="-325.2" font-family="Helvetica,sans-Serif" font-size="11.00">ad_infowindow_id</text>
<polygon fill="none" stroke="black" points="8,-299 8,-317 216,-317 216,-299 8,-299"/>
<text text-anchor="start" x="11" y="-305.2" font-family="Helvetica,sans-Serif" font-size="11.00">...</text>
<polygon fill="#ffffff" stroke="transparent" points="8,-281 8,-299 85,-299 85,-281 8,-281"/>
<polygon fill="none" stroke="black" points="8,-281 8,-299 85,-299 85,-281 8,-281"/>
<text text-anchor="start" x="11" y="-287.2" font-family="Helvetica,sans-Serif" font-size="11.00">&lt; 10</text>
<polygon fill="#ffffff" stroke="transparent" points="85,-281 85,-299 169,-299 169,-281 85,-281"/>
<polygon fill="none" stroke="black" points="85,-281 85,-299 169,-299 169,-281 85,-281"/>
<text text-anchor="start" x="112" y="-287.2" font-family="Helvetica,sans-Serif" font-size="11.00">1.167 rows</text>
<polygon fill="#ffffff" stroke="transparent" points="169,-281 169,-299 216,-299 216,-281 169,-281"/>
<polygon fill="none" stroke="black" points="169,-281 169,-299 216,-299 216,-281 169,-281"/>
<text text-anchor="start" x="197" y="-287.2" font-family="Helvetica,sans-Serif" font-size="11.00">4 &gt;</text>
</a>
</g>
</g>
<!-- ad_tree_favorite_node&#45;&gt;ad_menu -->
<g id="edge1" class="edge">
<title>ad_tree_favorite_node:w&#45;&gt;ad_menu:e</title>
<path fill="none" stroke="black" d="M251.82,-422.86C209.75,-443.6 281.38,-570 217,-570"/>
<polygon fill="black" stroke="black" points="258.16,-421.58 266.71,-423.53 262.08,-420.79 266,-420 266,-420 266,-420 262.08,-420.79 265.29,-416.47 258.16,-421.58 258.16,-421.58"/>
<ellipse fill="none" stroke="black" cx="255.02" cy="-422.22" rx="3.2" ry="3.2"/>
</g>
<!-- ad_tree_favorite -->
<g id="node3" class="node">
<title>ad_tree_favorite</title>
<g id="a_node3"><a xlink:href="../../tables/ad_tree_favorite.html" xlink:title="ad_tree_favorite" target="_top">
<polygon fill="#ffffff" stroke="transparent" points="35.5,-136 35.5,-260 188.5,-260 188.5,-136 35.5,-136"/>
<polygon fill="#f5f5f5" stroke="transparent" points="36,-238 36,-260 189,-260 189,-238 36,-238"/>
<polygon fill="none" stroke="black" points="36,-238 36,-260 189,-260 189,-238 36,-238"/>
<text text-anchor="start" x="41" y="-247.2" font-family="Helvetica,sans-Serif" font-weight="bold" font-size="11.00">ad_tree_favorite</text>
<text text-anchor="start" x="154" y="-246.2" font-family="Helvetica,sans-Serif" font-size="11.00">[table]</text>
<polygon fill="none" stroke="black" points="36,-216 36,-238 189,-238 189,-216 36,-216"/>
<image xlink:href="../../images/primaryKeys.png" width="11px" height="12px" preserveAspectRatio="xMinYMin meet" x="41" y="-233"/>
<text text-anchor="start" x="56" y="-224.2" font-family="Helvetica,sans-Serif" font-size="11.00">ad_tree_favorite_id</text>
<polygon fill="#ffffff" stroke="transparent" points="36,-194 36,-216 189,-216 189,-194 36,-194"/>
<polygon fill="none" stroke="black" points="36,-194 36,-216 189,-216 189,-194 36,-194"/>
<text text-anchor="start" x="56" y="-202.2" font-family="Helvetica,sans-Serif" font-size="11.00">ad_tree_favorite_uu</text>
<polygon fill="none" stroke="black" points="36,-172 36,-194 189,-194 189,-172 36,-172"/>
<image xlink:href="../../images/foreignKeys.png" width="11px" height="12px" preserveAspectRatio="xMinYMin meet" x="41" y="-189"/>
<text text-anchor="start" x="56" y="-180.2" font-family="Helvetica,sans-Serif" font-size="11.00">ad_user_id</text>
<polygon fill="none" stroke="black" points="36,-154 36,-172 189,-172 189,-154 36,-154"/>
<text text-anchor="start" x="39" y="-160.2" font-family="Helvetica,sans-Serif" font-size="11.00">...</text>
<polygon fill="#ffffff" stroke="transparent" points="36,-136 36,-154 93,-154 93,-136 36,-136"/>
<polygon fill="none" stroke="black" points="36,-136 36,-154 93,-154 93,-136 36,-136"/>
<text text-anchor="start" x="39" y="-142.2" font-family="Helvetica,sans-Serif" font-size="11.00">&lt; 1</text>
<polygon fill="#ffffff" stroke="transparent" points="93,-136 93,-154 149,-154 149,-136 93,-136"/>
<polygon fill="none" stroke="black" points="93,-136 93,-154 149,-154 149,-136 93,-136"/>
<text text-anchor="start" x="113" y="-142.2" font-family="Helvetica,sans-Serif" font-size="11.00">3 rows</text>
<polygon fill="#ffffff" stroke="transparent" points="149,-136 149,-154 189,-154 189,-136 149,-136"/>
<polygon fill="none" stroke="black" points="149,-136 149,-154 189,-154 189,-136 149,-136"/>
<text text-anchor="start" x="170" y="-142.2" font-family="Helvetica,sans-Serif" font-size="11.00">1 &gt;</text>
</a>
</g>
</g>
<!-- ad_tree_favorite_node&#45;&gt;ad_tree_favorite -->
<g id="edge2" class="edge">
<title>ad_tree_favorite_node:w&#45;&gt;ad_tree_favorite:e</title>
<path fill="none" stroke="black" d="M251.76,-373.66C201.64,-354.7 258.82,-227 190,-227"/>
<polygon fill="black" stroke="black" points="258.11,-374.7 265.42,-379.55 262.05,-375.35 266,-376 266,-376 266,-376 262.05,-375.35 266.58,-372.45 258.11,-374.7 258.11,-374.7"/>
<ellipse fill="none" stroke="black" cx="254.95" cy="-374.18" rx="3.2" ry="3.2"/>
</g>
</g>
</svg>
