<?xml version="1.0" encoding="UTF-8" standalone="no"?>
<!DOCTYPE svg PUBLIC "-//W3C//DTD SVG 1.1//EN"
 "http://www.w3.org/Graphics/SVG/1.1/DTD/svg11.dtd">
<!-- Generated by graphviz version 2.43.0 (0)
 -->
<!-- Title: oneDegreeRelationshipsDiagram Pages: 1 -->
<svg width="1294pt" height="687pt"
 viewBox="0.00 0.00 1294.00 686.73" xmlns="http://www.w3.org/2000/svg" xmlns:xlink="http://www.w3.org/1999/xlink">
<g id="graph0" class="graph" transform="scale(1 1) rotate(0) translate(4 682.73)">
<title>oneDegreeRelationshipsDiagram</title>
<polygon fill="#ffffff" stroke="transparent" points="-4,4 -4,-682.73 1290,-682.73 1290,4 -4,4"/>
<text text-anchor="middle" x="71.5" y="-7.2" font-family="Helvetica,sans-Serif" font-size="11.00">Generated by SchemaSpy</text>
<!-- ad_org -->
<g id="node1" class="node">
<title>ad_org</title>
<g id="a_node1"><a xlink:href="../../tables/ad_org.html" xlink:title="ad_org" target="_top">
<polygon fill="#ffffff" stroke="transparent" points="285,-242.79 285,-432.79 477,-432.79 477,-242.79 285,-242.79"/>
<polygon fill="#f5f5f5" stroke="transparent" points="285,-410.79 285,-432.79 477,-432.79 477,-410.79 285,-410.79"/>
<polygon fill="none" stroke="black" points="285,-410.79 285,-432.79 477,-432.79 477,-410.79 285,-410.79"/>
<text text-anchor="start" x="290" y="-419.99" font-family="Helvetica,sans-Serif" font-weight="bold" font-size="11.00">ad_org</text>
<text text-anchor="start" x="442" y="-418.99" font-family="Helvetica,sans-Serif" font-size="11.00">[table]</text>
<polygon fill="none" stroke="black" points="285,-388.79 285,-410.79 477,-410.79 477,-388.79 285,-388.79"/>
<image xlink:href="../../images/primaryKeys.png" width="11px" height="12px" preserveAspectRatio="xMinYMin meet" x="290" y="-405.794"/>
<text text-anchor="start" x="305" y="-396.99" font-family="Helvetica,sans-Serif" font-size="11.00">ad_org_id</text>
<polygon fill="#ffffff" stroke="transparent" points="285,-366.79 285,-388.79 477,-388.79 477,-366.79 285,-366.79"/>
<polygon fill="none" stroke="black" points="285,-366.79 285,-388.79 477,-388.79 477,-366.79 285,-366.79"/>
<image xlink:href="../../images/foreignKeys.png" width="11px" height="12px" preserveAspectRatio="xMinYMin meet" x="290" y="-383.794"/>
<text text-anchor="start" x="305" y="-374.99" font-family="Helvetica,sans-Serif" font-size="11.00">ad_client_id</text>
<polygon fill="#ffffff" stroke="transparent" points="285,-344.79 285,-366.79 477,-366.79 477,-344.79 285,-344.79"/>
<polygon fill="none" stroke="black" points="285,-344.79 285,-366.79 477,-366.79 477,-344.79 285,-344.79"/>
<text text-anchor="start" x="305" y="-352.99" font-family="Helvetica,sans-Serif" font-size="11.00">value</text>
<polygon fill="none" stroke="black" points="285,-322.79 285,-344.79 477,-344.79 477,-322.79 285,-322.79"/>
<image xlink:href="../../images/foreignKeys.png" width="11px" height="12px" preserveAspectRatio="xMinYMin meet" x="290" y="-339.794"/>
<text text-anchor="start" x="305" y="-330.99" font-family="Helvetica,sans-Serif" font-size="11.00">ad_replicationstrategy_id</text>
<polygon fill="#ffffff" stroke="transparent" points="285,-300.79 285,-322.79 477,-322.79 477,-300.79 285,-300.79"/>
<polygon fill="none" stroke="black" points="285,-300.79 285,-322.79 477,-322.79 477,-300.79 285,-300.79"/>
<text text-anchor="start" x="305" y="-308.99" font-family="Helvetica,sans-Serif" font-size="11.00">ad_org_uu</text>
<polygon fill="none" stroke="black" points="285,-278.79 285,-300.79 477,-300.79 477,-278.79 285,-278.79"/>
<image xlink:href="../../images/foreignKeys.png" width="11px" height="12px" preserveAspectRatio="xMinYMin meet" x="290" y="-295.794"/>
<text text-anchor="start" x="305" y="-286.99" font-family="Helvetica,sans-Serif" font-size="11.00">cof_c_snrange_id</text>
<polygon fill="none" stroke="black" points="285,-260.79 285,-278.79 477,-278.79 477,-260.79 285,-260.79"/>
<text text-anchor="start" x="288" y="-266.99" font-family="Helvetica,sans-Serif" font-size="11.00">...</text>
<polygon fill="#ffffff" stroke="transparent" points="285,-242.79 285,-260.79 355,-260.79 355,-242.79 285,-242.79"/>
<polygon fill="none" stroke="black" points="285,-242.79 285,-260.79 355,-260.79 355,-242.79 285,-242.79"/>
<text text-anchor="start" x="288" y="-248.99" font-family="Helvetica,sans-Serif" font-size="11.00">&lt; 3</text>
<polygon fill="#ffffff" stroke="transparent" points="355,-242.79 355,-260.79 418,-260.79 418,-242.79 355,-242.79"/>
<polygon fill="none" stroke="black" points="355,-242.79 355,-260.79 418,-260.79 418,-242.79 355,-242.79"/>
<text text-anchor="start" x="382" y="-248.99" font-family="Helvetica,sans-Serif" font-size="11.00">3 rows</text>
<polygon fill="#ffffff" stroke="transparent" points="418,-242.79 418,-260.79 477,-260.79 477,-242.79 418,-242.79"/>
<polygon fill="none" stroke="black" points="418,-242.79 418,-260.79 477,-260.79 477,-242.79 418,-242.79"/>
<text text-anchor="start" x="446" y="-248.99" font-family="Helvetica,sans-Serif" font-size="11.00">224 &gt;</text>
</a>
</g>
</g>
<!-- ad_client -->
<g id="node2" class="node">
<title>ad_client</title>
<g id="a_node2"><a xlink:href="../../tables/ad_client.html" xlink:title="ad_client" target="_top">
<polygon fill="#ffffff" stroke="transparent" points="8,-267.79 8,-479.79 236,-479.79 236,-267.79 8,-267.79"/>
<polygon fill="#f5f5f5" stroke="transparent" points="8,-457.79 8,-479.79 236,-479.79 236,-457.79 8,-457.79"/>
<polygon fill="none" stroke="black" points="8,-457.79 8,-479.79 236,-479.79 236,-457.79 8,-457.79"/>
<text text-anchor="start" x="13" y="-466.99" font-family="Helvetica,sans-Serif" font-weight="bold" font-size="11.00">ad_client</text>
<text text-anchor="start" x="201" y="-465.99" font-family="Helvetica,sans-Serif" font-size="11.00">[table]</text>
<polygon fill="none" stroke="black" points="8,-435.79 8,-457.79 236,-457.79 236,-435.79 8,-435.79"/>
<image xlink:href="../../images/primaryKeys.png" width="11px" height="12px" preserveAspectRatio="xMinYMin meet" x="13" y="-452.794"/>
<text text-anchor="start" x="28" y="-443.99" font-family="Helvetica,sans-Serif" font-size="11.00">ad_client_id</text>
<polygon fill="#ffffff" stroke="transparent" points="8,-413.79 8,-435.79 236,-435.79 236,-413.79 8,-413.79"/>
<polygon fill="none" stroke="black" points="8,-413.79 8,-435.79 236,-435.79 236,-413.79 8,-413.79"/>
<text text-anchor="start" x="28" y="-421.99" font-family="Helvetica,sans-Serif" font-size="11.00">value</text>
<polygon fill="none" stroke="black" points="8,-391.79 8,-413.79 236,-413.79 236,-391.79 8,-391.79"/>
<image xlink:href="../../images/foreignKeys.png" width="11px" height="12px" preserveAspectRatio="xMinYMin meet" x="13" y="-408.794"/>
<text text-anchor="start" x="28" y="-399.99" font-family="Helvetica,sans-Serif" font-size="11.00">ad_language</text>
<polygon fill="none" stroke="black" points="8,-369.79 8,-391.79 236,-391.79 236,-369.79 8,-369.79"/>
<image xlink:href="../../images/foreignKeys.png" width="11px" height="12px" preserveAspectRatio="xMinYMin meet" x="13" y="-386.794"/>
<text text-anchor="start" x="28" y="-377.99" font-family="Helvetica,sans-Serif" font-size="11.00">ad_replicationstrategy_id</text>
<polygon fill="#ffffff" stroke="transparent" points="8,-347.79 8,-369.79 236,-369.79 236,-347.79 8,-347.79"/>
<polygon fill="none" stroke="black" points="8,-347.79 8,-369.79 236,-369.79 236,-347.79 8,-347.79"/>
<text text-anchor="start" x="28" y="-355.99" font-family="Helvetica,sans-Serif" font-size="11.00">ad_client_uu</text>
<polygon fill="none" stroke="black" points="8,-325.79 8,-347.79 236,-347.79 236,-325.79 8,-325.79"/>
<image xlink:href="../../images/foreignKeys.png" width="11px" height="12px" preserveAspectRatio="xMinYMin meet" x="13" y="-342.794"/>
<text text-anchor="start" x="28" y="-333.99" font-family="Helvetica,sans-Serif" font-size="11.00">ad_passwordrule_id</text>
<polygon fill="#ffffff" stroke="transparent" points="8,-303.79 8,-325.79 236,-325.79 236,-303.79 8,-303.79"/>
<polygon fill="none" stroke="black" points="8,-303.79 8,-325.79 236,-325.79 236,-303.79 8,-303.79"/>
<text text-anchor="start" x="28" y="-311.99" font-family="Helvetica,sans-Serif" font-size="11.00">loginprefix</text>
<polygon fill="none" stroke="black" points="8,-285.79 8,-303.79 236,-303.79 236,-285.79 8,-285.79"/>
<text text-anchor="start" x="11" y="-291.99" font-family="Helvetica,sans-Serif" font-size="11.00">...</text>
<polygon fill="#ffffff" stroke="transparent" points="8,-267.79 8,-285.79 96,-285.79 96,-267.79 8,-267.79"/>
<polygon fill="none" stroke="black" points="8,-267.79 8,-285.79 96,-285.79 96,-267.79 8,-267.79"/>
<text text-anchor="start" x="11" y="-273.99" font-family="Helvetica,sans-Serif" font-size="11.00">&lt; 3</text>
<polygon fill="#ffffff" stroke="transparent" points="96,-267.79 96,-285.79 168,-285.79 168,-267.79 96,-267.79"/>
<polygon fill="none" stroke="black" points="96,-267.79 96,-285.79 168,-285.79 168,-267.79 96,-267.79"/>
<text text-anchor="start" x="132" y="-273.99" font-family="Helvetica,sans-Serif" font-size="11.00">2 rows</text>
<polygon fill="#ffffff" stroke="transparent" points="168,-267.79 168,-285.79 236,-285.79 236,-267.79 168,-267.79"/>
<polygon fill="none" stroke="black" points="168,-267.79 168,-285.79 236,-285.79 236,-267.79 168,-267.79"/>
<text text-anchor="start" x="205" y="-273.99" font-family="Helvetica,sans-Serif" font-size="11.00">145 &gt;</text>
</a>
</g>
</g>
<!-- ad_org&#45;&gt;ad_client -->
<g id="edge1" class="edge">
<title>ad_org:w&#45;&gt;ad_client:e</title>
<path fill="none" stroke="black" d="M270.36,-382.76C254.09,-398.58 268.02,-446.79 237,-446.79"/>
<polygon fill="black" stroke="black" points="276.48,-380.53 285.23,-381.18 280.24,-379.16 284,-377.79 284,-377.79 284,-377.79 280.24,-379.16 282.77,-374.41 276.48,-380.53 276.48,-380.53"/>
<ellipse fill="none" stroke="black" cx="273.48" cy="-381.62" rx="3.2" ry="3.2"/>
</g>
<!-- ad_role -->
<g id="node3" class="node">
<title>ad_role</title>
<g id="a_node3"><a xlink:href="../../tables/ad_role.html" xlink:title="ad_role" target="_top">
<polygon fill="#ffffff" stroke="transparent" points="798,-224.79 798,-458.79 1006,-458.79 1006,-224.79 798,-224.79"/>
<polygon fill="#f5f5f5" stroke="transparent" points="798,-436.79 798,-458.79 1006,-458.79 1006,-436.79 798,-436.79"/>
<polygon fill="none" stroke="black" points="798,-436.79 798,-458.79 1006,-458.79 1006,-436.79 798,-436.79"/>
<text text-anchor="start" x="803" y="-445.99" font-family="Helvetica,sans-Serif" font-weight="bold" font-size="11.00">ad_role</text>
<text text-anchor="start" x="971" y="-444.99" font-family="Helvetica,sans-Serif" font-size="11.00">[table]</text>
<polygon fill="none" stroke="black" points="798,-414.79 798,-436.79 1006,-436.79 1006,-414.79 798,-414.79"/>
<image xlink:href="../../images/primaryKeys.png" width="11px" height="12px" preserveAspectRatio="xMinYMin meet" x="803" y="-431.794"/>
<text text-anchor="start" x="818" y="-422.99" font-family="Helvetica,sans-Serif" font-size="11.00">ad_role_id</text>
<polygon fill="none" stroke="black" points="798,-392.79 798,-414.79 1006,-414.79 1006,-392.79 798,-392.79"/>
<image xlink:href="../../images/foreignKeys.png" width="11px" height="12px" preserveAspectRatio="xMinYMin meet" x="803" y="-409.794"/>
<text text-anchor="start" x="818" y="-400.99" font-family="Helvetica,sans-Serif" font-size="11.00">ad_client_id</text>
<polygon fill="none" stroke="black" points="798,-370.79 798,-392.79 1006,-392.79 1006,-370.79 798,-370.79"/>
<image xlink:href="../../images/foreignKeys.png" width="11px" height="12px" preserveAspectRatio="xMinYMin meet" x="803" y="-387.794"/>
<text text-anchor="start" x="818" y="-378.99" font-family="Helvetica,sans-Serif" font-size="11.00">ad_org_id</text>
<polygon fill="none" stroke="black" points="798,-348.79 798,-370.79 1006,-370.79 1006,-348.79 798,-348.79"/>
<image xlink:href="../../images/foreignKeys.png" width="11px" height="12px" preserveAspectRatio="xMinYMin meet" x="803" y="-365.794"/>
<text text-anchor="start" x="818" y="-356.99" font-family="Helvetica,sans-Serif" font-size="11.00">c_currency_id</text>
<polygon fill="none" stroke="black" points="798,-326.79 798,-348.79 1006,-348.79 1006,-326.79 798,-326.79"/>
<image xlink:href="../../images/foreignKeys.png" width="11px" height="12px" preserveAspectRatio="xMinYMin meet" x="803" y="-343.794"/>
<text text-anchor="start" x="818" y="-334.99" font-family="Helvetica,sans-Serif" font-size="11.00">ad_tree_menu_id</text>
<polygon fill="none" stroke="black" points="798,-304.79 798,-326.79 1006,-326.79 1006,-304.79 798,-304.79"/>
<image xlink:href="../../images/foreignKeys.png" width="11px" height="12px" preserveAspectRatio="xMinYMin meet" x="803" y="-321.794"/>
<text text-anchor="start" x="818" y="-312.99" font-family="Helvetica,sans-Serif" font-size="11.00">supervisor_id</text>
<polygon fill="none" stroke="black" points="798,-282.79 798,-304.79 1006,-304.79 1006,-282.79 798,-282.79"/>
<image xlink:href="../../images/foreignKeys.png" width="11px" height="12px" preserveAspectRatio="xMinYMin meet" x="803" y="-299.794"/>
<text text-anchor="start" x="818" y="-290.99" font-family="Helvetica,sans-Serif" font-size="11.00">ad_tree_org_id</text>
<polygon fill="#ffffff" stroke="transparent" points="798,-260.79 798,-282.79 1006,-282.79 1006,-260.79 798,-260.79"/>
<polygon fill="none" stroke="black" points="798,-260.79 798,-282.79 1006,-282.79 1006,-260.79 798,-260.79"/>
<text text-anchor="start" x="818" y="-268.99" font-family="Helvetica,sans-Serif" font-size="11.00">ad_role_uu</text>
<polygon fill="none" stroke="black" points="798,-242.79 798,-260.79 1006,-260.79 1006,-242.79 798,-242.79"/>
<text text-anchor="start" x="801" y="-248.99" font-family="Helvetica,sans-Serif" font-size="11.00">...</text>
<polygon fill="#ffffff" stroke="transparent" points="798,-224.79 798,-242.79 876,-242.79 876,-224.79 798,-224.79"/>
<polygon fill="none" stroke="black" points="798,-224.79 798,-242.79 876,-242.79 876,-224.79 798,-224.79"/>
<text text-anchor="start" x="801" y="-230.99" font-family="Helvetica,sans-Serif" font-size="11.00">&lt; 6</text>
<polygon fill="#ffffff" stroke="transparent" points="876,-224.79 876,-242.79 949,-242.79 949,-224.79 876,-224.79"/>
<polygon fill="none" stroke="black" points="876,-224.79 876,-242.79 949,-242.79 949,-224.79 876,-224.79"/>
<text text-anchor="start" x="907" y="-230.99" font-family="Helvetica,sans-Serif" font-size="11.00">13 rows</text>
<polygon fill="#ffffff" stroke="transparent" points="949,-224.79 949,-242.79 1006,-242.79 1006,-224.79 949,-224.79"/>
<polygon fill="none" stroke="black" points="949,-224.79 949,-242.79 1006,-242.79 1006,-224.79 949,-224.79"/>
<text text-anchor="start" x="981" y="-230.99" font-family="Helvetica,sans-Serif" font-size="11.00">42 &gt;</text>
</a>
</g>
</g>
<!-- ad_role&#45;&gt;ad_org -->
<g id="edge3" class="edge">
<title>ad_role:w&#45;&gt;ad_org:e</title>
<path fill="none" stroke="black" d="M783.06,-376.31C745.68,-340.33 800.36,-138.42 757,-100.79 716.89,-65.99 557.97,-65.82 518,-100.79 467.55,-144.94 545.04,-399.79 478,-399.79"/>
<polygon fill="black" stroke="black" points="789.56,-378.86 795.68,-385.14 793.28,-380.33 797,-381.79 797,-381.79 797,-381.79 793.28,-380.33 798.32,-378.44 789.56,-378.86 789.56,-378.86"/>
<ellipse fill="none" stroke="black" cx="786.58" cy="-377.69" rx="3.2" ry="3.2"/>
</g>
<!-- ad_role&#45;&gt;ad_client -->
<g id="edge2" class="edge">
<title>ad_role:w&#45;&gt;ad_client:e</title>
<path fill="none" stroke="black" d="M783.79,-409.7C753.47,-443.36 793.79,-610.67 757,-641.79 675.9,-710.4 621.36,-666.28 518,-641.79 401.38,-614.16 363.02,-604.25 277,-520.79 250.17,-494.76 274.39,-446.79 237,-446.79"/>
<polygon fill="black" stroke="black" points="789.7,-407.06 798.47,-407.08 793.35,-405.43 797,-403.79 797,-403.79 797,-403.79 793.35,-405.43 795.53,-400.51 789.7,-407.06 789.7,-407.06"/>
<ellipse fill="none" stroke="black" cx="786.78" cy="-408.36" rx="3.2" ry="3.2"/>
</g>
<!-- ad_user -->
<g id="node4" class="node">
<title>ad_user</title>
<g id="a_node4"><a xlink:href="../../tables/ad_user.html" xlink:title="ad_user" target="_top">
<polygon fill="#ffffff" stroke="transparent" points="526,-110.79 526,-630.79 749,-630.79 749,-110.79 526,-110.79"/>
<polygon fill="#f5f5f5" stroke="transparent" points="526.5,-608.79 526.5,-630.79 749.5,-630.79 749.5,-608.79 526.5,-608.79"/>
<polygon fill="none" stroke="black" points="526.5,-608.79 526.5,-630.79 749.5,-630.79 749.5,-608.79 526.5,-608.79"/>
<text text-anchor="start" x="531.5" y="-617.99" font-family="Helvetica,sans-Serif" font-weight="bold" font-size="11.00">ad_user</text>
<text text-anchor="start" x="714.5" y="-616.99" font-family="Helvetica,sans-Serif" font-size="11.00">[table]</text>
<polygon fill="none" stroke="black" points="526.5,-586.79 526.5,-608.79 749.5,-608.79 749.5,-586.79 526.5,-586.79"/>
<image xlink:href="../../images/primaryKeys.png" width="11px" height="12px" preserveAspectRatio="xMinYMin meet" x="531.5" y="-603.794"/>
<text text-anchor="start" x="546.5" y="-594.99" font-family="Helvetica,sans-Serif" font-size="11.00">ad_user_id</text>
<polygon fill="none" stroke="black" points="526.5,-564.79 526.5,-586.79 749.5,-586.79 749.5,-564.79 526.5,-564.79"/>
<image xlink:href="../../images/foreignKeys.png" width="11px" height="12px" preserveAspectRatio="xMinYMin meet" x="531.5" y="-581.794"/>
<text text-anchor="start" x="546.5" y="-572.99" font-family="Helvetica,sans-Serif" font-size="11.00">ad_client_id</text>
<polygon fill="none" stroke="black" points="526.5,-542.79 526.5,-564.79 749.5,-564.79 749.5,-542.79 526.5,-542.79"/>
<image xlink:href="../../images/foreignKeys.png" width="11px" height="12px" preserveAspectRatio="xMinYMin meet" x="531.5" y="-559.794"/>
<text text-anchor="start" x="546.5" y="-550.99" font-family="Helvetica,sans-Serif" font-size="11.00">ad_org_id</text>
<polygon fill="#ffffff" stroke="transparent" points="526.5,-520.79 526.5,-542.79 749.5,-542.79 749.5,-520.79 526.5,-520.79"/>
<polygon fill="none" stroke="black" points="526.5,-520.79 526.5,-542.79 749.5,-542.79 749.5,-520.79 526.5,-520.79"/>
<text text-anchor="start" x="546.5" y="-528.99" font-family="Helvetica,sans-Serif" font-size="11.00">name</text>
<polygon fill="#ffffff" stroke="transparent" points="526.5,-498.79 526.5,-520.79 749.5,-520.79 749.5,-498.79 526.5,-498.79"/>
<polygon fill="none" stroke="black" points="526.5,-498.79 526.5,-520.79 749.5,-520.79 749.5,-498.79 526.5,-498.79"/>
<text text-anchor="start" x="546.5" y="-506.99" font-family="Helvetica,sans-Serif" font-size="11.00">email</text>
<polygon fill="none" stroke="black" points="526.5,-476.79 526.5,-498.79 749.5,-498.79 749.5,-476.79 526.5,-476.79"/>
<image xlink:href="../../images/foreignKeys.png" width="11px" height="12px" preserveAspectRatio="xMinYMin meet" x="531.5" y="-493.794"/>
<text text-anchor="start" x="546.5" y="-484.99" font-family="Helvetica,sans-Serif" font-size="11.00">supervisor_id</text>
<polygon fill="#ffffff" stroke="transparent" points="526.5,-454.79 526.5,-476.79 749.5,-476.79 749.5,-454.79 526.5,-454.79"/>
<polygon fill="none" stroke="black" points="526.5,-454.79 526.5,-476.79 749.5,-476.79 749.5,-454.79 526.5,-454.79"/>
<image xlink:href="../../images/foreignKeys.png" width="11px" height="12px" preserveAspectRatio="xMinYMin meet" x="531.5" y="-471.794"/>
<text text-anchor="start" x="546.5" y="-462.99" font-family="Helvetica,sans-Serif" font-size="11.00">c_bpartner_id</text>
<polygon fill="none" stroke="black" points="526.5,-432.79 526.5,-454.79 749.5,-454.79 749.5,-432.79 526.5,-432.79"/>
<image xlink:href="../../images/foreignKeys.png" width="11px" height="12px" preserveAspectRatio="xMinYMin meet" x="531.5" y="-449.794"/>
<text text-anchor="start" x="546.5" y="-440.99" font-family="Helvetica,sans-Serif" font-size="11.00">c_bpartner_location_id</text>
<polygon fill="none" stroke="black" points="526.5,-410.79 526.5,-432.79 749.5,-432.79 749.5,-410.79 526.5,-410.79"/>
<image xlink:href="../../images/foreignKeys.png" width="11px" height="12px" preserveAspectRatio="xMinYMin meet" x="531.5" y="-427.794"/>
<text text-anchor="start" x="546.5" y="-418.99" font-family="Helvetica,sans-Serif" font-size="11.00">c_greeting_id</text>
<polygon fill="none" stroke="black" points="526.5,-388.79 526.5,-410.79 749.5,-410.79 749.5,-388.79 526.5,-388.79"/>
<image xlink:href="../../images/foreignKeys.png" width="11px" height="12px" preserveAspectRatio="xMinYMin meet" x="531.5" y="-405.794"/>
<text text-anchor="start" x="546.5" y="-396.99" font-family="Helvetica,sans-Serif" font-size="11.00">ad_orgtrx_id</text>
<polygon fill="none" stroke="black" points="526.5,-366.79 526.5,-388.79 749.5,-388.79 749.5,-366.79 526.5,-366.79"/>
<image xlink:href="../../images/foreignKeys.png" width="11px" height="12px" preserveAspectRatio="xMinYMin meet" x="531.5" y="-383.794"/>
<text text-anchor="start" x="546.5" y="-374.99" font-family="Helvetica,sans-Serif" font-size="11.00">c_job_id</text>
<polygon fill="#ffffff" stroke="transparent" points="526.5,-344.79 526.5,-366.79 749.5,-366.79 749.5,-344.79 526.5,-344.79"/>
<polygon fill="none" stroke="black" points="526.5,-344.79 526.5,-366.79 749.5,-366.79 749.5,-344.79 526.5,-344.79"/>
<text text-anchor="start" x="546.5" y="-352.99" font-family="Helvetica,sans-Serif" font-size="11.00">ad_user_uu</text>
<polygon fill="none" stroke="black" points="526.5,-322.79 526.5,-344.79 749.5,-344.79 749.5,-322.79 526.5,-322.79"/>
<image xlink:href="../../images/foreignKeys.png" width="11px" height="12px" preserveAspectRatio="xMinYMin meet" x="531.5" y="-339.794"/>
<text text-anchor="start" x="546.5" y="-330.99" font-family="Helvetica,sans-Serif" font-size="11.00">c_location_id</text>
<polygon fill="none" stroke="black" points="526.5,-300.79 526.5,-322.79 749.5,-322.79 749.5,-300.79 526.5,-300.79"/>
<image xlink:href="../../images/foreignKeys.png" width="11px" height="12px" preserveAspectRatio="xMinYMin meet" x="531.5" y="-317.794"/>
<text text-anchor="start" x="546.5" y="-308.99" font-family="Helvetica,sans-Serif" font-size="11.00">c_campaign_id</text>
<polygon fill="none" stroke="black" points="526.5,-278.79 526.5,-300.79 749.5,-300.79 749.5,-278.79 526.5,-278.79"/>
<image xlink:href="../../images/foreignKeys.png" width="11px" height="12px" preserveAspectRatio="xMinYMin meet" x="531.5" y="-295.794"/>
<text text-anchor="start" x="546.5" y="-286.99" font-family="Helvetica,sans-Serif" font-size="11.00">salesrep_id</text>
<polygon fill="none" stroke="black" points="526.5,-256.79 526.5,-278.79 749.5,-278.79 749.5,-256.79 526.5,-256.79"/>
<image xlink:href="../../images/foreignKeys.png" width="11px" height="12px" preserveAspectRatio="xMinYMin meet" x="531.5" y="-273.794"/>
<text text-anchor="start" x="546.5" y="-264.99" font-family="Helvetica,sans-Serif" font-size="11.00">bp_location_id</text>
<polygon fill="none" stroke="black" points="526.5,-234.79 526.5,-256.79 749.5,-256.79 749.5,-234.79 526.5,-234.79"/>
<image xlink:href="../../images/foreignKeys.png" width="11px" height="12px" preserveAspectRatio="xMinYMin meet" x="531.5" y="-251.794"/>
<text text-anchor="start" x="546.5" y="-242.99" font-family="Helvetica,sans-Serif" font-size="11.00">r_defaultmailtext_id</text>
<polygon fill="none" stroke="black" points="526.5,-212.79 526.5,-234.79 749.5,-234.79 749.5,-212.79 526.5,-212.79"/>
<image xlink:href="../../images/foreignKeys.png" width="11px" height="12px" preserveAspectRatio="xMinYMin meet" x="531.5" y="-229.794"/>
<text text-anchor="start" x="546.5" y="-220.99" font-family="Helvetica,sans-Serif" font-size="11.00">cof_c_marketsegment_id</text>
<polygon fill="none" stroke="black" points="526.5,-190.79 526.5,-212.79 749.5,-212.79 749.5,-190.79 526.5,-190.79"/>
<image xlink:href="../../images/foreignKeys.png" width="11px" height="12px" preserveAspectRatio="xMinYMin meet" x="531.5" y="-207.794"/>
<text text-anchor="start" x="546.5" y="-198.99" font-family="Helvetica,sans-Serif" font-size="11.00">cof_c_leadexpirationreason_id</text>
<polygon fill="none" stroke="black" points="526.5,-168.79 526.5,-190.79 749.5,-190.79 749.5,-168.79 526.5,-168.79"/>
<image xlink:href="../../images/foreignKeys.png" width="11px" height="12px" preserveAspectRatio="xMinYMin meet" x="531.5" y="-185.794"/>
<text text-anchor="start" x="546.5" y="-176.99" font-family="Helvetica,sans-Serif" font-size="11.00">ad_image_id</text>
<polygon fill="none" stroke="black" points="526.5,-146.79 526.5,-168.79 749.5,-168.79 749.5,-146.79 526.5,-146.79"/>
<image xlink:href="../../images/foreignKeys.png" width="11px" height="12px" preserveAspectRatio="xMinYMin meet" x="531.5" y="-163.794"/>
<text text-anchor="start" x="546.5" y="-154.99" font-family="Helvetica,sans-Serif" font-size="11.00">c_subscription_id</text>
<polygon fill="none" stroke="black" points="526.5,-128.79 526.5,-146.79 749.5,-146.79 749.5,-128.79 526.5,-128.79"/>
<text text-anchor="start" x="529.5" y="-134.99" font-family="Helvetica,sans-Serif" font-size="11.00">...</text>
<polygon fill="#ffffff" stroke="transparent" points="526.5,-110.79 526.5,-128.79 615.5,-128.79 615.5,-110.79 526.5,-110.79"/>
<polygon fill="none" stroke="black" points="526.5,-110.79 526.5,-128.79 615.5,-128.79 615.5,-110.79 526.5,-110.79"/>
<text text-anchor="start" x="529.5" y="-116.99" font-family="Helvetica,sans-Serif" font-size="11.00">&lt; 17</text>
<polygon fill="#ffffff" stroke="transparent" points="615.5,-110.79 615.5,-128.79 684.5,-128.79 684.5,-110.79 615.5,-110.79"/>
<polygon fill="none" stroke="black" points="615.5,-110.79 615.5,-128.79 684.5,-128.79 684.5,-110.79 615.5,-110.79"/>
<text text-anchor="start" x="648.5" y="-116.99" font-family="Helvetica,sans-Serif" font-size="11.00">8 rows</text>
<polygon fill="#ffffff" stroke="transparent" points="684.5,-110.79 684.5,-128.79 749.5,-128.79 749.5,-110.79 684.5,-110.79"/>
<polygon fill="none" stroke="black" points="684.5,-110.79 684.5,-128.79 749.5,-128.79 749.5,-110.79 684.5,-110.79"/>
<text text-anchor="start" x="718.5" y="-116.99" font-family="Helvetica,sans-Serif" font-size="11.00">316 &gt;</text>
</a>
</g>
</g>
<!-- ad_role&#45;&gt;ad_user -->
<g id="edge4" class="edge">
<title>ad_role:w&#45;&gt;ad_user:e</title>
<path fill="none" stroke="black" d="M783.63,-321.68C746.26,-362.18 808.55,-597.79 750.5,-597.79"/>
<polygon fill="black" stroke="black" points="789.68,-319.02 798.45,-319.09 793.34,-317.41 797,-315.79 797,-315.79 797,-315.79 793.34,-317.41 795.55,-312.5 789.68,-319.02 789.68,-319.02"/>
<ellipse fill="none" stroke="black" cx="786.75" cy="-320.31" rx="3.2" ry="3.2"/>
</g>
<!-- ad_user&#45;&gt;ad_org -->
<g id="edge6" class="edge">
<title>ad_user:w&#45;&gt;ad_org:e</title>
<path fill="none" stroke="black" d="M511.34,-550.99C468.14,-530.12 543.89,-399.79 478,-399.79"/>
<polygon fill="black" stroke="black" points="517.65,-552.24 524.8,-557.33 521.58,-553.02 525.5,-553.79 525.5,-553.79 525.5,-553.79 521.58,-553.02 526.2,-550.26 517.65,-552.24 517.65,-552.24"/>
<ellipse fill="none" stroke="black" cx="514.51" cy="-551.62" rx="3.2" ry="3.2"/>
</g>
<!-- ad_user&#45;&gt;ad_org -->
<g id="edge7" class="edge">
<title>ad_user:w&#45;&gt;ad_org:e</title>
<path fill="none" stroke="black" d="M511.09,-399.79C500.32,-399.79 493.34,-399.79 478,-399.79"/>
<polygon fill="black" stroke="black" points="517.5,-399.79 525.5,-403.39 521.5,-399.79 525.5,-399.79 525.5,-399.79 525.5,-399.79 521.5,-399.79 525.5,-396.19 517.5,-399.79 517.5,-399.79"/>
<ellipse fill="none" stroke="black" cx="514.3" cy="-399.79" rx="3.2" ry="3.2"/>
</g>
<!-- ad_user&#45;&gt;ad_client -->
<g id="edge5" class="edge">
<title>ad_user:w&#45;&gt;ad_client:e</title>
<path fill="none" stroke="black" d="M510.78,-575.3C384.32,-566.64 372.38,-446.79 237,-446.79"/>
<polygon fill="black" stroke="black" points="517.5,-575.53 525.38,-579.39 521.5,-575.66 525.5,-575.79 525.5,-575.79 525.5,-575.79 521.5,-575.66 525.62,-572.2 517.5,-575.53 517.5,-575.53"/>
<ellipse fill="none" stroke="black" cx="514.31" cy="-575.42" rx="3.2" ry="3.2"/>
</g>
<!-- ad_user_roles -->
<g id="node5" class="node">
<title>ad_user_roles</title>
<g id="a_node5"><a xlink:href="../../tables/ad_user_roles.html" xlink:title="ad_user_roles" target="_top">
<polygon fill="#ffffff" stroke="transparent" points="1055,-59.79 1055,-323.79 1278,-323.79 1278,-59.79 1055,-59.79"/>
<polygon fill="#f5f5f5" stroke="transparent" points="1057.5,-299.79 1057.5,-321.79 1276.5,-321.79 1276.5,-299.79 1057.5,-299.79"/>
<polygon fill="none" stroke="black" points="1057.5,-299.79 1057.5,-321.79 1276.5,-321.79 1276.5,-299.79 1057.5,-299.79"/>
<text text-anchor="start" x="1062.5" y="-308.99" font-family="Helvetica,sans-Serif" font-weight="bold" font-size="11.00">ad_user_roles</text>
<text text-anchor="start" x="1241.5" y="-307.99" font-family="Helvetica,sans-Serif" font-size="11.00">[table]</text>
<polygon fill="none" stroke="black" points="1057.5,-277.79 1057.5,-299.79 1193.5,-299.79 1193.5,-277.79 1057.5,-277.79"/>
<image xlink:href="../../images/primaryKeys.png" width="11px" height="12px" preserveAspectRatio="xMinYMin meet" x="1062.5" y="-294.794"/>
<text text-anchor="start" x="1077.5" y="-285.99" font-family="Helvetica,sans-Serif" font-size="11.00">ad_user_id</text>
<polygon fill="none" stroke="black" points="1193.5,-277.79 1193.5,-299.79 1276.5,-299.79 1276.5,-277.79 1193.5,-277.79"/>
<text text-anchor="start" x="1196.5" y="-285.99" font-family="Helvetica,sans-Serif" font-size="11.00">numeric[10]</text>
<polygon fill="none" stroke="black" points="1057.5,-255.79 1057.5,-277.79 1193.5,-277.79 1193.5,-255.79 1057.5,-255.79"/>
<image xlink:href="../../images/primaryKeys.png" width="11px" height="12px" preserveAspectRatio="xMinYMin meet" x="1062.5" y="-272.794"/>
<text text-anchor="start" x="1077.5" y="-263.99" font-family="Helvetica,sans-Serif" font-size="11.00">ad_role_id</text>
<polygon fill="none" stroke="black" points="1193.5,-255.79 1193.5,-277.79 1276.5,-277.79 1276.5,-255.79 1193.5,-255.79"/>
<text text-anchor="start" x="1196.5" y="-263.99" font-family="Helvetica,sans-Serif" font-size="11.00">numeric[10]</text>
<polygon fill="#ffffff" stroke="transparent" points="1057.5,-233.79 1057.5,-255.79 1193.5,-255.79 1193.5,-233.79 1057.5,-233.79"/>
<polygon fill="none" stroke="black" points="1057.5,-233.79 1057.5,-255.79 1193.5,-255.79 1193.5,-233.79 1057.5,-233.79"/>
<image xlink:href="../../images/foreignKeys.png" width="11px" height="12px" preserveAspectRatio="xMinYMin meet" x="1062.5" y="-250.794"/>
<text text-anchor="start" x="1077.5" y="-241.99" font-family="Helvetica,sans-Serif" font-size="11.00">ad_client_id</text>
<polygon fill="none" stroke="black" points="1193.5,-233.79 1193.5,-255.79 1276.5,-255.79 1276.5,-233.79 1193.5,-233.79"/>
<text text-anchor="start" x="1196.5" y="-241.99" font-family="Helvetica,sans-Serif" font-size="11.00">numeric[10]</text>
<polygon fill="#ffffff" stroke="transparent" points="1057.5,-211.79 1057.5,-233.79 1193.5,-233.79 1193.5,-211.79 1057.5,-211.79"/>
<polygon fill="none" stroke="black" points="1057.5,-211.79 1057.5,-233.79 1193.5,-233.79 1193.5,-211.79 1057.5,-211.79"/>
<image xlink:href="../../images/foreignKeys.png" width="11px" height="12px" preserveAspectRatio="xMinYMin meet" x="1062.5" y="-228.794"/>
<text text-anchor="start" x="1077.5" y="-219.99" font-family="Helvetica,sans-Serif" font-size="11.00">ad_org_id</text>
<polygon fill="none" stroke="black" points="1193.5,-211.79 1193.5,-233.79 1276.5,-233.79 1276.5,-211.79 1193.5,-211.79"/>
<text text-anchor="start" x="1196.5" y="-219.99" font-family="Helvetica,sans-Serif" font-size="11.00">numeric[10]</text>
<polygon fill="#ffffff" stroke="transparent" points="1057.5,-189.79 1057.5,-211.79 1193.5,-211.79 1193.5,-189.79 1057.5,-189.79"/>
<polygon fill="none" stroke="black" points="1057.5,-189.79 1057.5,-211.79 1193.5,-211.79 1193.5,-189.79 1057.5,-189.79"/>
<text text-anchor="start" x="1077.5" y="-197.99" font-family="Helvetica,sans-Serif" font-size="11.00">isactive</text>
<polygon fill="none" stroke="black" points="1193.5,-189.79 1193.5,-211.79 1276.5,-211.79 1276.5,-189.79 1193.5,-189.79"/>
<text text-anchor="start" x="1196.5" y="-197.99" font-family="Helvetica,sans-Serif" font-size="11.00">bpchar[1]</text>
<polygon fill="none" stroke="black" points="1057.5,-167.79 1057.5,-189.79 1193.5,-189.79 1193.5,-167.79 1057.5,-167.79"/>
<text text-anchor="start" x="1077.5" y="-175.99" font-family="Helvetica,sans-Serif" font-size="11.00">created</text>
<polygon fill="none" stroke="black" points="1193.5,-167.79 1193.5,-189.79 1276.5,-189.79 1276.5,-167.79 1193.5,-167.79"/>
<text text-anchor="start" x="1196.5" y="-175.99" font-family="Helvetica,sans-Serif" font-size="11.00">timestamp[29,6]</text>
<polygon fill="none" stroke="black" points="1057.5,-145.79 1057.5,-167.79 1193.5,-167.79 1193.5,-145.79 1057.5,-145.79"/>
<text text-anchor="start" x="1077.5" y="-153.99" font-family="Helvetica,sans-Serif" font-size="11.00">createdby</text>
<polygon fill="none" stroke="black" points="1193.5,-145.79 1193.5,-167.79 1276.5,-167.79 1276.5,-145.79 1193.5,-145.79"/>
<text text-anchor="start" x="1196.5" y="-153.99" font-family="Helvetica,sans-Serif" font-size="11.00">numeric[10]</text>
<polygon fill="none" stroke="black" points="1057.5,-123.79 1057.5,-145.79 1193.5,-145.79 1193.5,-123.79 1057.5,-123.79"/>
<text text-anchor="start" x="1077.5" y="-131.99" font-family="Helvetica,sans-Serif" font-size="11.00">updated</text>
<polygon fill="none" stroke="black" points="1193.5,-123.79 1193.5,-145.79 1276.5,-145.79 1276.5,-123.79 1193.5,-123.79"/>
<text text-anchor="start" x="1196.5" y="-131.99" font-family="Helvetica,sans-Serif" font-size="11.00">timestamp[29,6]</text>
<polygon fill="none" stroke="black" points="1057.5,-101.79 1057.5,-123.79 1193.5,-123.79 1193.5,-101.79 1057.5,-101.79"/>
<text text-anchor="start" x="1077.5" y="-109.99" font-family="Helvetica,sans-Serif" font-size="11.00">updatedby</text>
<polygon fill="none" stroke="black" points="1193.5,-101.79 1193.5,-123.79 1276.5,-123.79 1276.5,-101.79 1193.5,-101.79"/>
<text text-anchor="start" x="1196.5" y="-109.99" font-family="Helvetica,sans-Serif" font-size="11.00">numeric[10]</text>
<polygon fill="#ffffff" stroke="transparent" points="1057.5,-79.79 1057.5,-101.79 1193.5,-101.79 1193.5,-79.79 1057.5,-79.79"/>
<polygon fill="none" stroke="black" points="1057.5,-79.79 1057.5,-101.79 1193.5,-101.79 1193.5,-79.79 1057.5,-79.79"/>
<text text-anchor="start" x="1077.5" y="-87.99" font-family="Helvetica,sans-Serif" font-size="11.00">ad_user_roles_uu</text>
<polygon fill="none" stroke="black" points="1193.5,-79.79 1193.5,-101.79 1276.5,-101.79 1276.5,-79.79 1193.5,-79.79"/>
<text text-anchor="start" x="1196.5" y="-87.99" font-family="Helvetica,sans-Serif" font-size="11.00">varchar[36]</text>
<polygon fill="#ffffff" stroke="transparent" points="1057.5,-61.79 1057.5,-79.79 1113.5,-79.79 1113.5,-61.79 1057.5,-61.79"/>
<polygon fill="none" stroke="black" points="1057.5,-61.79 1057.5,-79.79 1113.5,-79.79 1113.5,-61.79 1057.5,-61.79"/>
<text text-anchor="start" x="1060.5" y="-67.99" font-family="Helvetica,sans-Serif" font-size="11.00">&lt; 4</text>
<polygon fill="#ffffff" stroke="transparent" points="1113.5,-61.79 1113.5,-79.79 1193.5,-79.79 1193.5,-61.79 1113.5,-61.79"/>
<polygon fill="none" stroke="black" points="1113.5,-61.79 1113.5,-79.79 1193.5,-79.79 1193.5,-61.79 1113.5,-61.79"/>
<text text-anchor="start" x="1151.5" y="-67.99" font-family="Helvetica,sans-Serif" font-size="11.00">18 rows</text>
<polygon fill="#ffffff" stroke="transparent" points="1193.5,-61.79 1193.5,-79.79 1276.5,-79.79 1276.5,-61.79 1193.5,-61.79"/>
<polygon fill="none" stroke="black" points="1193.5,-61.79 1193.5,-79.79 1276.5,-79.79 1276.5,-61.79 1193.5,-61.79"/>
<text text-anchor="start" x="1257.5" y="-67.99" font-family="Helvetica,sans-Serif" font-size="11.00">0 &gt;</text>
<polygon fill="none" stroke="black" stroke-width="2" points="1056,-60.79 1056,-322.79 1277,-322.79 1277,-60.79 1056,-60.79"/>
</a>
</g>
</g>
<!-- ad_user_roles&#45;&gt;ad_org -->
<g id="edge9" class="edge">
<title>ad_user_roles:w&#45;&gt;ad_org:e</title>
<path fill="none" stroke="black" d="M1042.12,-221.37C963.72,-206.92 825.19,-87.11 757,-70.79 653.69,-46.08 597.51,-0.36 518,-70.79 462.87,-119.63 551.65,-399.79 478,-399.79"/>
<polygon fill="black" stroke="black" points="1048.54,-222 1056.14,-226.38 1052.52,-222.4 1056.5,-222.79 1056.5,-222.79 1056.5,-222.79 1052.52,-222.4 1056.86,-219.21 1048.54,-222 1048.54,-222"/>
<ellipse fill="none" stroke="black" cx="1045.35" cy="-221.69" rx="3.2" ry="3.2"/>
</g>
<!-- ad_user_roles&#45;&gt;ad_client -->
<g id="edge8" class="edge">
<title>ad_user_roles:w&#45;&gt;ad_client:e</title>
<path fill="none" stroke="black" d="M1042.2,-241.49C1032.08,-235.79 1028.36,-223.85 1014,-214.79 903.26,-144.95 883.68,-103.87 757,-70.79 654.22,-43.96 619.61,-39.82 518,-70.79 394.55,-108.43 347.93,-124.97 277,-232.79 250.41,-273.21 285.38,-446.79 237,-446.79"/>
<polygon fill="black" stroke="black" points="1048.71,-242.99 1055.69,-248.3 1052.6,-243.89 1056.5,-244.79 1056.5,-244.79 1056.5,-244.79 1052.6,-243.89 1057.31,-241.29 1048.71,-242.99 1048.71,-242.99"/>
<ellipse fill="none" stroke="black" cx="1045.59" cy="-242.27" rx="3.2" ry="3.2"/>
</g>
<!-- ad_user_roles&#45;&gt;ad_role -->
<g id="edge10" class="edge">
<title>ad_user_roles:w&#45;&gt;ad_role:e</title>
<path fill="none" stroke="black" d="M1042.15,-269.55C996.83,-290.67 1075.23,-425.79 1007,-425.79"/>
<polygon fill="black" stroke="black" points="1048.64,-268.3 1057.18,-270.33 1052.57,-267.55 1056.5,-266.79 1056.5,-266.79 1056.5,-266.79 1052.57,-267.55 1055.82,-263.26 1048.64,-268.3 1048.64,-268.3"/>
<ellipse fill="none" stroke="black" cx="1045.5" cy="-268.91" rx="3.2" ry="3.2"/>
</g>
<!-- ad_user_roles&#45;&gt;ad_user -->
<g id="edge11" class="edge">
<title>ad_user_roles:w&#45;&gt;ad_user:e</title>
<path fill="none" stroke="black" d="M1041.9,-290.37C985.74,-304.47 1062.08,-409.67 1014,-469.79 932.68,-571.47 880.7,-597.79 750.5,-597.79"/>
<polygon fill="black" stroke="black" points="1048.55,-289.65 1056.89,-292.37 1052.52,-289.22 1056.5,-288.79 1056.5,-288.79 1056.5,-288.79 1052.52,-289.22 1056.11,-285.21 1048.55,-289.65 1048.55,-289.65"/>
<ellipse fill="none" stroke="black" cx="1045.36" cy="-290" rx="3.2" ry="3.2"/>
</g>
</g>
</svg>
