<?xml version="1.0" encoding="UTF-8" standalone="no"?>
<!DOCTYPE svg PUBLIC "-//W3C//DTD SVG 1.1//EN"
 "http://www.w3.org/Graphics/SVG/1.1/DTD/svg11.dtd">
<!-- Generated by graphviz version 2.43.0 (0)
 -->
<!-- Title: oneDegreeRelationshipsDiagram Pages: 1 -->
<svg width="1032pt" height="1002pt"
 viewBox="0.00 0.00 1032.00 1002.00" xmlns="http://www.w3.org/2000/svg" xmlns:xlink="http://www.w3.org/1999/xlink">
<g id="graph0" class="graph" transform="scale(1 1) rotate(0) translate(4 998)">
<title>oneDegreeRelationshipsDiagram</title>
<polygon fill="#ffffff" stroke="transparent" points="-4,4 -4,-998 1028,-998 1028,4 -4,4"/>
<text text-anchor="middle" x="71.5" y="-7.2" font-family="Helvetica,sans-Serif" font-size="11.00">Generated by SchemaSpy</text>
<!-- ad_role -->
<g id="node1" class="node">
<title>ad_role</title>
<g id="a_node1"><a xlink:href="../../tables/ad_role.html" xlink:title="ad_role" target="_top">
<polygon fill="#ffffff" stroke="transparent" points="537,-646 537,-880 745,-880 745,-646 537,-646"/>
<polygon fill="#f5f5f5" stroke="transparent" points="537,-858 537,-880 745,-880 745,-858 537,-858"/>
<polygon fill="none" stroke="black" points="537,-858 537,-880 745,-880 745,-858 537,-858"/>
<text text-anchor="start" x="542" y="-867.2" font-family="Helvetica,sans-Serif" font-weight="bold" font-size="11.00">ad_role</text>
<text text-anchor="start" x="710" y="-866.2" font-family="Helvetica,sans-Serif" font-size="11.00">[table]</text>
<polygon fill="none" stroke="black" points="537,-836 537,-858 745,-858 745,-836 537,-836"/>
<image xlink:href="../../images/primaryKeys.png" width="11px" height="12px" preserveAspectRatio="xMinYMin meet" x="542" y="-853"/>
<text text-anchor="start" x="557" y="-844.2" font-family="Helvetica,sans-Serif" font-size="11.00">ad_role_id</text>
<polygon fill="none" stroke="black" points="537,-814 537,-836 745,-836 745,-814 537,-814"/>
<image xlink:href="../../images/foreignKeys.png" width="11px" height="12px" preserveAspectRatio="xMinYMin meet" x="542" y="-831"/>
<text text-anchor="start" x="557" y="-822.2" font-family="Helvetica,sans-Serif" font-size="11.00">ad_client_id</text>
<polygon fill="none" stroke="black" points="537,-792 537,-814 745,-814 745,-792 537,-792"/>
<image xlink:href="../../images/foreignKeys.png" width="11px" height="12px" preserveAspectRatio="xMinYMin meet" x="542" y="-809"/>
<text text-anchor="start" x="557" y="-800.2" font-family="Helvetica,sans-Serif" font-size="11.00">ad_org_id</text>
<polygon fill="none" stroke="black" points="537,-770 537,-792 745,-792 745,-770 537,-770"/>
<image xlink:href="../../images/foreignKeys.png" width="11px" height="12px" preserveAspectRatio="xMinYMin meet" x="542" y="-787"/>
<text text-anchor="start" x="557" y="-778.2" font-family="Helvetica,sans-Serif" font-size="11.00">c_currency_id</text>
<polygon fill="none" stroke="black" points="537,-748 537,-770 745,-770 745,-748 537,-748"/>
<image xlink:href="../../images/foreignKeys.png" width="11px" height="12px" preserveAspectRatio="xMinYMin meet" x="542" y="-765"/>
<text text-anchor="start" x="557" y="-756.2" font-family="Helvetica,sans-Serif" font-size="11.00">ad_tree_menu_id</text>
<polygon fill="none" stroke="black" points="537,-726 537,-748 745,-748 745,-726 537,-726"/>
<image xlink:href="../../images/foreignKeys.png" width="11px" height="12px" preserveAspectRatio="xMinYMin meet" x="542" y="-743"/>
<text text-anchor="start" x="557" y="-734.2" font-family="Helvetica,sans-Serif" font-size="11.00">supervisor_id</text>
<polygon fill="none" stroke="black" points="537,-704 537,-726 745,-726 745,-704 537,-704"/>
<image xlink:href="../../images/foreignKeys.png" width="11px" height="12px" preserveAspectRatio="xMinYMin meet" x="542" y="-721"/>
<text text-anchor="start" x="557" y="-712.2" font-family="Helvetica,sans-Serif" font-size="11.00">ad_tree_org_id</text>
<polygon fill="#ffffff" stroke="transparent" points="537,-682 537,-704 745,-704 745,-682 537,-682"/>
<polygon fill="none" stroke="black" points="537,-682 537,-704 745,-704 745,-682 537,-682"/>
<text text-anchor="start" x="557" y="-690.2" font-family="Helvetica,sans-Serif" font-size="11.00">ad_role_uu</text>
<polygon fill="none" stroke="black" points="537,-664 537,-682 745,-682 745,-664 537,-664"/>
<text text-anchor="start" x="540" y="-670.2" font-family="Helvetica,sans-Serif" font-size="11.00">...</text>
<polygon fill="#ffffff" stroke="transparent" points="537,-646 537,-664 615,-664 615,-646 537,-646"/>
<polygon fill="none" stroke="black" points="537,-646 537,-664 615,-664 615,-646 537,-646"/>
<text text-anchor="start" x="540" y="-652.2" font-family="Helvetica,sans-Serif" font-size="11.00">&lt; 6</text>
<polygon fill="#ffffff" stroke="transparent" points="615,-646 615,-664 688,-664 688,-646 615,-646"/>
<polygon fill="none" stroke="black" points="615,-646 615,-664 688,-664 688,-646 615,-646"/>
<text text-anchor="start" x="646" y="-652.2" font-family="Helvetica,sans-Serif" font-size="11.00">13 rows</text>
<polygon fill="#ffffff" stroke="transparent" points="688,-646 688,-664 745,-664 745,-646 688,-646"/>
<polygon fill="none" stroke="black" points="688,-646 688,-664 745,-664 745,-646 688,-646"/>
<text text-anchor="start" x="720" y="-652.2" font-family="Helvetica,sans-Serif" font-size="11.00">42 &gt;</text>
</a>
</g>
</g>
<!-- ad_user -->
<g id="node2" class="node">
<title>ad_user</title>
<g id="a_node2"><a xlink:href="../../tables/ad_user.html" xlink:title="ad_user" target="_top">
<polygon fill="#ffffff" stroke="transparent" points="265,-470 265,-990 488,-990 488,-470 265,-470"/>
<polygon fill="#f5f5f5" stroke="transparent" points="265.5,-968 265.5,-990 488.5,-990 488.5,-968 265.5,-968"/>
<polygon fill="none" stroke="black" points="265.5,-968 265.5,-990 488.5,-990 488.5,-968 265.5,-968"/>
<text text-anchor="start" x="270.5" y="-977.2" font-family="Helvetica,sans-Serif" font-weight="bold" font-size="11.00">ad_user</text>
<text text-anchor="start" x="453.5" y="-976.2" font-family="Helvetica,sans-Serif" font-size="11.00">[table]</text>
<polygon fill="none" stroke="black" points="265.5,-946 265.5,-968 488.5,-968 488.5,-946 265.5,-946"/>
<image xlink:href="../../images/primaryKeys.png" width="11px" height="12px" preserveAspectRatio="xMinYMin meet" x="270.5" y="-963"/>
<text text-anchor="start" x="285.5" y="-954.2" font-family="Helvetica,sans-Serif" font-size="11.00">ad_user_id</text>
<polygon fill="none" stroke="black" points="265.5,-924 265.5,-946 488.5,-946 488.5,-924 265.5,-924"/>
<image xlink:href="../../images/foreignKeys.png" width="11px" height="12px" preserveAspectRatio="xMinYMin meet" x="270.5" y="-941"/>
<text text-anchor="start" x="285.5" y="-932.2" font-family="Helvetica,sans-Serif" font-size="11.00">ad_client_id</text>
<polygon fill="none" stroke="black" points="265.5,-902 265.5,-924 488.5,-924 488.5,-902 265.5,-902"/>
<image xlink:href="../../images/foreignKeys.png" width="11px" height="12px" preserveAspectRatio="xMinYMin meet" x="270.5" y="-919"/>
<text text-anchor="start" x="285.5" y="-910.2" font-family="Helvetica,sans-Serif" font-size="11.00">ad_org_id</text>
<polygon fill="#ffffff" stroke="transparent" points="265.5,-880 265.5,-902 488.5,-902 488.5,-880 265.5,-880"/>
<polygon fill="none" stroke="black" points="265.5,-880 265.5,-902 488.5,-902 488.5,-880 265.5,-880"/>
<text text-anchor="start" x="285.5" y="-888.2" font-family="Helvetica,sans-Serif" font-size="11.00">name</text>
<polygon fill="#ffffff" stroke="transparent" points="265.5,-858 265.5,-880 488.5,-880 488.5,-858 265.5,-858"/>
<polygon fill="none" stroke="black" points="265.5,-858 265.5,-880 488.5,-880 488.5,-858 265.5,-858"/>
<text text-anchor="start" x="285.5" y="-866.2" font-family="Helvetica,sans-Serif" font-size="11.00">email</text>
<polygon fill="none" stroke="black" points="265.5,-836 265.5,-858 488.5,-858 488.5,-836 265.5,-836"/>
<image xlink:href="../../images/foreignKeys.png" width="11px" height="12px" preserveAspectRatio="xMinYMin meet" x="270.5" y="-853"/>
<text text-anchor="start" x="285.5" y="-844.2" font-family="Helvetica,sans-Serif" font-size="11.00">supervisor_id</text>
<polygon fill="#ffffff" stroke="transparent" points="265.5,-814 265.5,-836 488.5,-836 488.5,-814 265.5,-814"/>
<polygon fill="none" stroke="black" points="265.5,-814 265.5,-836 488.5,-836 488.5,-814 265.5,-814"/>
<image xlink:href="../../images/foreignKeys.png" width="11px" height="12px" preserveAspectRatio="xMinYMin meet" x="270.5" y="-831"/>
<text text-anchor="start" x="285.5" y="-822.2" font-family="Helvetica,sans-Serif" font-size="11.00">c_bpartner_id</text>
<polygon fill="none" stroke="black" points="265.5,-792 265.5,-814 488.5,-814 488.5,-792 265.5,-792"/>
<image xlink:href="../../images/foreignKeys.png" width="11px" height="12px" preserveAspectRatio="xMinYMin meet" x="270.5" y="-809"/>
<text text-anchor="start" x="285.5" y="-800.2" font-family="Helvetica,sans-Serif" font-size="11.00">c_bpartner_location_id</text>
<polygon fill="none" stroke="black" points="265.5,-770 265.5,-792 488.5,-792 488.5,-770 265.5,-770"/>
<image xlink:href="../../images/foreignKeys.png" width="11px" height="12px" preserveAspectRatio="xMinYMin meet" x="270.5" y="-787"/>
<text text-anchor="start" x="285.5" y="-778.2" font-family="Helvetica,sans-Serif" font-size="11.00">c_greeting_id</text>
<polygon fill="none" stroke="black" points="265.5,-748 265.5,-770 488.5,-770 488.5,-748 265.5,-748"/>
<image xlink:href="../../images/foreignKeys.png" width="11px" height="12px" preserveAspectRatio="xMinYMin meet" x="270.5" y="-765"/>
<text text-anchor="start" x="285.5" y="-756.2" font-family="Helvetica,sans-Serif" font-size="11.00">ad_orgtrx_id</text>
<polygon fill="none" stroke="black" points="265.5,-726 265.5,-748 488.5,-748 488.5,-726 265.5,-726"/>
<image xlink:href="../../images/foreignKeys.png" width="11px" height="12px" preserveAspectRatio="xMinYMin meet" x="270.5" y="-743"/>
<text text-anchor="start" x="285.5" y="-734.2" font-family="Helvetica,sans-Serif" font-size="11.00">c_job_id</text>
<polygon fill="#ffffff" stroke="transparent" points="265.5,-704 265.5,-726 488.5,-726 488.5,-704 265.5,-704"/>
<polygon fill="none" stroke="black" points="265.5,-704 265.5,-726 488.5,-726 488.5,-704 265.5,-704"/>
<text text-anchor="start" x="285.5" y="-712.2" font-family="Helvetica,sans-Serif" font-size="11.00">ad_user_uu</text>
<polygon fill="none" stroke="black" points="265.5,-682 265.5,-704 488.5,-704 488.5,-682 265.5,-682"/>
<image xlink:href="../../images/foreignKeys.png" width="11px" height="12px" preserveAspectRatio="xMinYMin meet" x="270.5" y="-699"/>
<text text-anchor="start" x="285.5" y="-690.2" font-family="Helvetica,sans-Serif" font-size="11.00">c_location_id</text>
<polygon fill="none" stroke="black" points="265.5,-660 265.5,-682 488.5,-682 488.5,-660 265.5,-660"/>
<image xlink:href="../../images/foreignKeys.png" width="11px" height="12px" preserveAspectRatio="xMinYMin meet" x="270.5" y="-677"/>
<text text-anchor="start" x="285.5" y="-668.2" font-family="Helvetica,sans-Serif" font-size="11.00">c_campaign_id</text>
<polygon fill="none" stroke="black" points="265.5,-638 265.5,-660 488.5,-660 488.5,-638 265.5,-638"/>
<image xlink:href="../../images/foreignKeys.png" width="11px" height="12px" preserveAspectRatio="xMinYMin meet" x="270.5" y="-655"/>
<text text-anchor="start" x="285.5" y="-646.2" font-family="Helvetica,sans-Serif" font-size="11.00">salesrep_id</text>
<polygon fill="none" stroke="black" points="265.5,-616 265.5,-638 488.5,-638 488.5,-616 265.5,-616"/>
<image xlink:href="../../images/foreignKeys.png" width="11px" height="12px" preserveAspectRatio="xMinYMin meet" x="270.5" y="-633"/>
<text text-anchor="start" x="285.5" y="-624.2" font-family="Helvetica,sans-Serif" font-size="11.00">bp_location_id</text>
<polygon fill="none" stroke="black" points="265.5,-594 265.5,-616 488.5,-616 488.5,-594 265.5,-594"/>
<image xlink:href="../../images/foreignKeys.png" width="11px" height="12px" preserveAspectRatio="xMinYMin meet" x="270.5" y="-611"/>
<text text-anchor="start" x="285.5" y="-602.2" font-family="Helvetica,sans-Serif" font-size="11.00">r_defaultmailtext_id</text>
<polygon fill="none" stroke="black" points="265.5,-572 265.5,-594 488.5,-594 488.5,-572 265.5,-572"/>
<image xlink:href="../../images/foreignKeys.png" width="11px" height="12px" preserveAspectRatio="xMinYMin meet" x="270.5" y="-589"/>
<text text-anchor="start" x="285.5" y="-580.2" font-family="Helvetica,sans-Serif" font-size="11.00">cof_c_marketsegment_id</text>
<polygon fill="none" stroke="black" points="265.5,-550 265.5,-572 488.5,-572 488.5,-550 265.5,-550"/>
<image xlink:href="../../images/foreignKeys.png" width="11px" height="12px" preserveAspectRatio="xMinYMin meet" x="270.5" y="-567"/>
<text text-anchor="start" x="285.5" y="-558.2" font-family="Helvetica,sans-Serif" font-size="11.00">cof_c_leadexpirationreason_id</text>
<polygon fill="none" stroke="black" points="265.5,-528 265.5,-550 488.5,-550 488.5,-528 265.5,-528"/>
<image xlink:href="../../images/foreignKeys.png" width="11px" height="12px" preserveAspectRatio="xMinYMin meet" x="270.5" y="-545"/>
<text text-anchor="start" x="285.5" y="-536.2" font-family="Helvetica,sans-Serif" font-size="11.00">ad_image_id</text>
<polygon fill="none" stroke="black" points="265.5,-506 265.5,-528 488.5,-528 488.5,-506 265.5,-506"/>
<image xlink:href="../../images/foreignKeys.png" width="11px" height="12px" preserveAspectRatio="xMinYMin meet" x="270.5" y="-523"/>
<text text-anchor="start" x="285.5" y="-514.2" font-family="Helvetica,sans-Serif" font-size="11.00">c_subscription_id</text>
<polygon fill="none" stroke="black" points="265.5,-488 265.5,-506 488.5,-506 488.5,-488 265.5,-488"/>
<text text-anchor="start" x="268.5" y="-494.2" font-family="Helvetica,sans-Serif" font-size="11.00">...</text>
<polygon fill="#ffffff" stroke="transparent" points="265.5,-470 265.5,-488 354.5,-488 354.5,-470 265.5,-470"/>
<polygon fill="none" stroke="black" points="265.5,-470 265.5,-488 354.5,-488 354.5,-470 265.5,-470"/>
<text text-anchor="start" x="268.5" y="-476.2" font-family="Helvetica,sans-Serif" font-size="11.00">&lt; 17</text>
<polygon fill="#ffffff" stroke="transparent" points="354.5,-470 354.5,-488 423.5,-488 423.5,-470 354.5,-470"/>
<polygon fill="none" stroke="black" points="354.5,-470 354.5,-488 423.5,-488 423.5,-470 354.5,-470"/>
<text text-anchor="start" x="387.5" y="-476.2" font-family="Helvetica,sans-Serif" font-size="11.00">8 rows</text>
<polygon fill="#ffffff" stroke="transparent" points="423.5,-470 423.5,-488 488.5,-488 488.5,-470 423.5,-470"/>
<polygon fill="none" stroke="black" points="423.5,-470 423.5,-488 488.5,-488 488.5,-470 423.5,-470"/>
<text text-anchor="start" x="457.5" y="-476.2" font-family="Helvetica,sans-Serif" font-size="11.00">316 &gt;</text>
</a>
</g>
</g>
<!-- ad_role&#45;&gt;ad_user -->
<g id="edge1" class="edge">
<title>ad_role:w&#45;&gt;ad_user:e</title>
<path fill="none" stroke="black" d="M521.36,-739.04C452.62,-761.22 583.78,-957 489.5,-957"/>
<polygon fill="black" stroke="black" points="528.08,-738.1 536.5,-740.57 532.04,-737.55 536,-737 536,-737 536,-737 532.04,-737.55 535.5,-733.43 528.08,-738.1 528.08,-738.1"/>
<ellipse fill="none" stroke="black" cx="524.91" cy="-738.54" rx="3.2" ry="3.2"/>
</g>
<!-- ad_tab -->
<g id="node3" class="node">
<title>ad_tab</title>
<g id="a_node3"><a xlink:href="../../tables/ad_tab.html" xlink:title="ad_tab" target="_top">
<polygon fill="#ffffff" stroke="transparent" points="550,-158 550,-546 732,-546 732,-158 550,-158"/>
<polygon fill="#f5f5f5" stroke="transparent" points="550,-524 550,-546 732,-546 732,-524 550,-524"/>
<polygon fill="none" stroke="black" points="550,-524 550,-546 732,-546 732,-524 550,-524"/>
<text text-anchor="start" x="555" y="-533.2" font-family="Helvetica,sans-Serif" font-weight="bold" font-size="11.00">ad_tab</text>
<text text-anchor="start" x="697" y="-532.2" font-family="Helvetica,sans-Serif" font-size="11.00">[table]</text>
<polygon fill="none" stroke="black" points="550,-502 550,-524 732,-524 732,-502 550,-502"/>
<image xlink:href="../../images/primaryKeys.png" width="11px" height="12px" preserveAspectRatio="xMinYMin meet" x="555" y="-519"/>
<text text-anchor="start" x="570" y="-510.2" font-family="Helvetica,sans-Serif" font-size="11.00">ad_tab_id</text>
<polygon fill="none" stroke="black" points="550,-480 550,-502 732,-502 732,-480 550,-480"/>
<image xlink:href="../../images/foreignKeys.png" width="11px" height="12px" preserveAspectRatio="xMinYMin meet" x="555" y="-497"/>
<text text-anchor="start" x="570" y="-488.2" font-family="Helvetica,sans-Serif" font-size="11.00">ad_client_id</text>
<polygon fill="none" stroke="black" points="550,-458 550,-480 732,-480 732,-458 550,-458"/>
<image xlink:href="../../images/foreignKeys.png" width="11px" height="12px" preserveAspectRatio="xMinYMin meet" x="555" y="-475"/>
<text text-anchor="start" x="570" y="-466.2" font-family="Helvetica,sans-Serif" font-size="11.00">ad_org_id</text>
<polygon fill="#ffffff" stroke="transparent" points="550,-436 550,-458 732,-458 732,-436 550,-436"/>
<polygon fill="none" stroke="black" points="550,-436 550,-458 732,-458 732,-436 550,-436"/>
<image xlink:href="../../images/foreignKeys.png" width="11px" height="12px" preserveAspectRatio="xMinYMin meet" x="555" y="-453"/>
<text text-anchor="start" x="570" y="-444.2" font-family="Helvetica,sans-Serif" font-size="11.00">ad_table_id</text>
<polygon fill="#ffffff" stroke="transparent" points="550,-414 550,-436 732,-436 732,-414 550,-414"/>
<polygon fill="none" stroke="black" points="550,-414 550,-436 732,-436 732,-414 550,-414"/>
<image xlink:href="../../images/foreignKeys.png" width="11px" height="12px" preserveAspectRatio="xMinYMin meet" x="555" y="-431"/>
<text text-anchor="start" x="570" y="-422.2" font-family="Helvetica,sans-Serif" font-size="11.00">ad_window_id</text>
<polygon fill="none" stroke="black" points="550,-392 550,-414 732,-414 732,-392 550,-392"/>
<image xlink:href="../../images/foreignKeys.png" width="11px" height="12px" preserveAspectRatio="xMinYMin meet" x="555" y="-409"/>
<text text-anchor="start" x="570" y="-400.2" font-family="Helvetica,sans-Serif" font-size="11.00">ad_column_id</text>
<polygon fill="none" stroke="black" points="550,-370 550,-392 732,-392 732,-370 550,-370"/>
<image xlink:href="../../images/foreignKeys.png" width="11px" height="12px" preserveAspectRatio="xMinYMin meet" x="555" y="-387"/>
<text text-anchor="start" x="570" y="-378.2" font-family="Helvetica,sans-Serif" font-size="11.00">ad_process_id</text>
<polygon fill="none" stroke="black" points="550,-348 550,-370 732,-370 732,-348 550,-348"/>
<image xlink:href="../../images/foreignKeys.png" width="11px" height="12px" preserveAspectRatio="xMinYMin meet" x="555" y="-365"/>
<text text-anchor="start" x="570" y="-356.2" font-family="Helvetica,sans-Serif" font-size="11.00">ad_image_id</text>
<polygon fill="none" stroke="black" points="550,-326 550,-348 732,-348 732,-326 550,-326"/>
<image xlink:href="../../images/foreignKeys.png" width="11px" height="12px" preserveAspectRatio="xMinYMin meet" x="555" y="-343"/>
<text text-anchor="start" x="570" y="-334.2" font-family="Helvetica,sans-Serif" font-size="11.00">ad_columnsortorder_id</text>
<polygon fill="none" stroke="black" points="550,-304 550,-326 732,-326 732,-304 550,-304"/>
<image xlink:href="../../images/foreignKeys.png" width="11px" height="12px" preserveAspectRatio="xMinYMin meet" x="555" y="-321"/>
<text text-anchor="start" x="570" y="-312.2" font-family="Helvetica,sans-Serif" font-size="11.00">ad_columnsortyesno_id</text>
<polygon fill="none" stroke="black" points="550,-282 550,-304 732,-304 732,-282 550,-282"/>
<image xlink:href="../../images/foreignKeys.png" width="11px" height="12px" preserveAspectRatio="xMinYMin meet" x="555" y="-299"/>
<text text-anchor="start" x="570" y="-290.2" font-family="Helvetica,sans-Serif" font-size="11.00">entitytype</text>
<polygon fill="none" stroke="black" points="550,-260 550,-282 732,-282 732,-260 550,-260"/>
<image xlink:href="../../images/foreignKeys.png" width="11px" height="12px" preserveAspectRatio="xMinYMin meet" x="555" y="-277"/>
<text text-anchor="start" x="570" y="-268.2" font-family="Helvetica,sans-Serif" font-size="11.00">included_tab_id</text>
<polygon fill="none" stroke="black" points="550,-238 550,-260 732,-260 732,-238 550,-238"/>
<image xlink:href="../../images/foreignKeys.png" width="11px" height="12px" preserveAspectRatio="xMinYMin meet" x="555" y="-255"/>
<text text-anchor="start" x="570" y="-246.2" font-family="Helvetica,sans-Serif" font-size="11.00">parent_column_id</text>
<polygon fill="#ffffff" stroke="transparent" points="550,-216 550,-238 732,-238 732,-216 550,-216"/>
<polygon fill="none" stroke="black" points="550,-216 550,-238 732,-238 732,-216 550,-216"/>
<text text-anchor="start" x="570" y="-224.2" font-family="Helvetica,sans-Serif" font-size="11.00">ad_tab_uu</text>
<polygon fill="none" stroke="black" points="550,-194 550,-216 732,-216 732,-194 550,-194"/>
<image xlink:href="../../images/foreignKeys.png" width="11px" height="12px" preserveAspectRatio="xMinYMin meet" x="555" y="-211"/>
<text text-anchor="start" x="570" y="-202.2" font-family="Helvetica,sans-Serif" font-size="11.00">ad_ctxhelp_id</text>
<polygon fill="none" stroke="black" points="550,-176 550,-194 732,-194 732,-176 550,-176"/>
<text text-anchor="start" x="553" y="-182.2" font-family="Helvetica,sans-Serif" font-size="11.00">...</text>
<polygon fill="#ffffff" stroke="transparent" points="550,-158 550,-176 611,-176 611,-158 550,-158"/>
<polygon fill="none" stroke="black" points="550,-158 550,-176 611,-176 611,-158 550,-158"/>
<text text-anchor="start" x="553" y="-164.2" font-family="Helvetica,sans-Serif" font-size="11.00">&lt; 13</text>
<polygon fill="#ffffff" stroke="transparent" points="611,-158 611,-176 687,-176 687,-158 611,-158"/>
<polygon fill="none" stroke="black" points="611,-158 611,-176 687,-176 687,-158 611,-158"/>
<text text-anchor="start" x="630" y="-164.2" font-family="Helvetica,sans-Serif" font-size="11.00">1.462 rows</text>
<polygon fill="#ffffff" stroke="transparent" points="687,-158 687,-176 732,-176 732,-158 687,-158"/>
<polygon fill="none" stroke="black" points="687,-158 687,-176 732,-176 732,-158 687,-158"/>
<text text-anchor="start" x="707" y="-164.2" font-family="Helvetica,sans-Serif" font-size="11.00">14 &gt;</text>
</a>
</g>
</g>
<!-- ad_table -->
<g id="node4" class="node">
<title>ad_table</title>
<g id="a_node4"><a xlink:href="../../tables/ad_table.html" xlink:title="ad_table" target="_top">
<polygon fill="#ffffff" stroke="transparent" points="277.5,-215 277.5,-449 475.5,-449 475.5,-215 277.5,-215"/>
<polygon fill="#f5f5f5" stroke="transparent" points="277.5,-427 277.5,-449 475.5,-449 475.5,-427 277.5,-427"/>
<polygon fill="none" stroke="black" points="277.5,-427 277.5,-449 475.5,-449 475.5,-427 277.5,-427"/>
<text text-anchor="start" x="282.5" y="-436.2" font-family="Helvetica,sans-Serif" font-weight="bold" font-size="11.00">ad_table</text>
<text text-anchor="start" x="440.5" y="-435.2" font-family="Helvetica,sans-Serif" font-size="11.00">[table]</text>
<polygon fill="none" stroke="black" points="277.5,-405 277.5,-427 475.5,-427 475.5,-405 277.5,-405"/>
<image xlink:href="../../images/primaryKeys.png" width="11px" height="12px" preserveAspectRatio="xMinYMin meet" x="282.5" y="-422"/>
<text text-anchor="start" x="297.5" y="-413.2" font-family="Helvetica,sans-Serif" font-size="11.00">ad_table_id</text>
<polygon fill="none" stroke="black" points="277.5,-383 277.5,-405 475.5,-405 475.5,-383 277.5,-383"/>
<image xlink:href="../../images/foreignKeys.png" width="11px" height="12px" preserveAspectRatio="xMinYMin meet" x="282.5" y="-400"/>
<text text-anchor="start" x="297.5" y="-391.2" font-family="Helvetica,sans-Serif" font-size="11.00">ad_client_id</text>
<polygon fill="none" stroke="black" points="277.5,-361 277.5,-383 475.5,-383 475.5,-361 277.5,-361"/>
<image xlink:href="../../images/foreignKeys.png" width="11px" height="12px" preserveAspectRatio="xMinYMin meet" x="282.5" y="-378"/>
<text text-anchor="start" x="297.5" y="-369.2" font-family="Helvetica,sans-Serif" font-size="11.00">ad_org_id</text>
<polygon fill="none" stroke="black" points="277.5,-339 277.5,-361 475.5,-361 475.5,-339 277.5,-339"/>
<image xlink:href="../../images/foreignKeys.png" width="11px" height="12px" preserveAspectRatio="xMinYMin meet" x="282.5" y="-356"/>
<text text-anchor="start" x="297.5" y="-347.2" font-family="Helvetica,sans-Serif" font-size="11.00">entitytype</text>
<polygon fill="none" stroke="black" points="277.5,-317 277.5,-339 475.5,-339 475.5,-317 277.5,-317"/>
<image xlink:href="../../images/foreignKeys.png" width="11px" height="12px" preserveAspectRatio="xMinYMin meet" x="282.5" y="-334"/>
<text text-anchor="start" x="297.5" y="-325.2" font-family="Helvetica,sans-Serif" font-size="11.00">ad_window_id</text>
<polygon fill="none" stroke="black" points="277.5,-295 277.5,-317 475.5,-317 475.5,-295 277.5,-295"/>
<image xlink:href="../../images/foreignKeys.png" width="11px" height="12px" preserveAspectRatio="xMinYMin meet" x="282.5" y="-312"/>
<text text-anchor="start" x="297.5" y="-303.2" font-family="Helvetica,sans-Serif" font-size="11.00">ad_val_rule_id</text>
<polygon fill="none" stroke="black" points="277.5,-273 277.5,-295 475.5,-295 475.5,-273 277.5,-273"/>
<image xlink:href="../../images/foreignKeys.png" width="11px" height="12px" preserveAspectRatio="xMinYMin meet" x="282.5" y="-290"/>
<text text-anchor="start" x="297.5" y="-281.2" font-family="Helvetica,sans-Serif" font-size="11.00">po_window_id</text>
<polygon fill="#ffffff" stroke="transparent" points="277.5,-251 277.5,-273 475.5,-273 475.5,-251 277.5,-251"/>
<polygon fill="none" stroke="black" points="277.5,-251 277.5,-273 475.5,-273 475.5,-251 277.5,-251"/>
<text text-anchor="start" x="297.5" y="-259.2" font-family="Helvetica,sans-Serif" font-size="11.00">ad_table_uu</text>
<polygon fill="none" stroke="black" points="277.5,-233 277.5,-251 475.5,-251 475.5,-233 277.5,-233"/>
<text text-anchor="start" x="280.5" y="-239.2" font-family="Helvetica,sans-Serif" font-size="11.00">...</text>
<polygon fill="#ffffff" stroke="transparent" points="277.5,-215 277.5,-233 343.5,-233 343.5,-215 277.5,-215"/>
<polygon fill="none" stroke="black" points="277.5,-215 277.5,-233 343.5,-233 343.5,-215 277.5,-215"/>
<text text-anchor="start" x="280.5" y="-221.2" font-family="Helvetica,sans-Serif" font-size="11.00">&lt; 6</text>
<polygon fill="#ffffff" stroke="transparent" points="343.5,-215 343.5,-233 425.5,-233 425.5,-215 343.5,-215"/>
<polygon fill="none" stroke="black" points="343.5,-215 343.5,-233 425.5,-233 425.5,-215 343.5,-215"/>
<text text-anchor="start" x="368.5" y="-221.2" font-family="Helvetica,sans-Serif" font-size="11.00">1.363 rows</text>
<polygon fill="#ffffff" stroke="transparent" points="425.5,-215 425.5,-233 475.5,-233 475.5,-215 425.5,-215"/>
<polygon fill="none" stroke="black" points="425.5,-215 425.5,-233 475.5,-233 475.5,-215 425.5,-215"/>
<text text-anchor="start" x="450.5" y="-221.2" font-family="Helvetica,sans-Serif" font-size="11.00">77 &gt;</text>
</a>
</g>
</g>
<!-- ad_tab&#45;&gt;ad_table -->
<g id="edge2" class="edge">
<title>ad_tab:w&#45;&gt;ad_table:e</title>
<path fill="none" stroke="black" d="M534.71,-444.97C512.41,-438.07 506.07,-416 476.5,-416"/>
<polygon fill="black" stroke="black" points="541.08,-445.87 548.49,-450.56 545.04,-446.44 549,-447 549,-447 549,-447 545.04,-446.44 549.51,-443.44 541.08,-445.87 541.08,-445.87"/>
<ellipse fill="none" stroke="black" cx="537.91" cy="-445.42" rx="3.2" ry="3.2"/>
</g>
<!-- ad_window -->
<g id="node5" class="node">
<title>ad_window</title>
<g id="a_node5"><a xlink:href="../../tables/ad_window.html" xlink:title="ad_window" target="_top">
<polygon fill="#ffffff" stroke="transparent" points="8,-37 8,-271 216,-271 216,-37 8,-37"/>
<polygon fill="#f5f5f5" stroke="transparent" points="8,-249 8,-271 216,-271 216,-249 8,-249"/>
<polygon fill="none" stroke="black" points="8,-249 8,-271 216,-271 216,-249 8,-249"/>
<text text-anchor="start" x="13" y="-258.2" font-family="Helvetica,sans-Serif" font-weight="bold" font-size="11.00">ad_window</text>
<text text-anchor="start" x="181" y="-257.2" font-family="Helvetica,sans-Serif" font-size="11.00">[table]</text>
<polygon fill="none" stroke="black" points="8,-227 8,-249 216,-249 216,-227 8,-227"/>
<image xlink:href="../../images/primaryKeys.png" width="11px" height="12px" preserveAspectRatio="xMinYMin meet" x="13" y="-244"/>
<text text-anchor="start" x="28" y="-235.2" font-family="Helvetica,sans-Serif" font-size="11.00">ad_window_id</text>
<polygon fill="#ffffff" stroke="transparent" points="8,-205 8,-227 216,-227 216,-205 8,-205"/>
<polygon fill="none" stroke="black" points="8,-205 8,-227 216,-227 216,-205 8,-205"/>
<image xlink:href="../../images/foreignKeys.png" width="11px" height="12px" preserveAspectRatio="xMinYMin meet" x="13" y="-222"/>
<text text-anchor="start" x="28" y="-213.2" font-family="Helvetica,sans-Serif" font-size="11.00">ad_client_id</text>
<polygon fill="none" stroke="black" points="8,-183 8,-205 216,-205 216,-183 8,-183"/>
<image xlink:href="../../images/foreignKeys.png" width="11px" height="12px" preserveAspectRatio="xMinYMin meet" x="13" y="-200"/>
<text text-anchor="start" x="28" y="-191.2" font-family="Helvetica,sans-Serif" font-size="11.00">ad_org_id</text>
<polygon fill="#ffffff" stroke="transparent" points="8,-161 8,-183 216,-183 216,-161 8,-161"/>
<polygon fill="none" stroke="black" points="8,-161 8,-183 216,-183 216,-161 8,-161"/>
<text text-anchor="start" x="28" y="-169.2" font-family="Helvetica,sans-Serif" font-size="11.00">name</text>
<polygon fill="none" stroke="black" points="8,-139 8,-161 216,-161 216,-139 8,-139"/>
<image xlink:href="../../images/foreignKeys.png" width="11px" height="12px" preserveAspectRatio="xMinYMin meet" x="13" y="-156"/>
<text text-anchor="start" x="28" y="-147.2" font-family="Helvetica,sans-Serif" font-size="11.00">entitytype</text>
<polygon fill="none" stroke="black" points="8,-117 8,-139 216,-139 216,-117 8,-117"/>
<image xlink:href="../../images/foreignKeys.png" width="11px" height="12px" preserveAspectRatio="xMinYMin meet" x="13" y="-134"/>
<text text-anchor="start" x="28" y="-125.2" font-family="Helvetica,sans-Serif" font-size="11.00">ad_image_id</text>
<polygon fill="none" stroke="black" points="8,-95 8,-117 216,-117 216,-95 8,-95"/>
<image xlink:href="../../images/foreignKeys.png" width="11px" height="12px" preserveAspectRatio="xMinYMin meet" x="13" y="-112"/>
<text text-anchor="start" x="28" y="-103.2" font-family="Helvetica,sans-Serif" font-size="11.00">ad_color_id</text>
<polygon fill="#ffffff" stroke="transparent" points="8,-73 8,-95 216,-95 216,-73 8,-73"/>
<polygon fill="none" stroke="black" points="8,-73 8,-95 216,-95 216,-73 8,-73"/>
<text text-anchor="start" x="28" y="-81.2" font-family="Helvetica,sans-Serif" font-size="11.00">ad_window_uu</text>
<polygon fill="none" stroke="black" points="8,-55 8,-73 216,-73 216,-55 8,-55"/>
<text text-anchor="start" x="11" y="-61.2" font-family="Helvetica,sans-Serif" font-size="11.00">...</text>
<polygon fill="#ffffff" stroke="transparent" points="8,-37 8,-55 83,-55 83,-37 8,-37"/>
<polygon fill="none" stroke="black" points="8,-37 8,-55 83,-55 83,-37 8,-37"/>
<text text-anchor="start" x="11" y="-43.2" font-family="Helvetica,sans-Serif" font-size="11.00">&lt; 5</text>
<polygon fill="#ffffff" stroke="transparent" points="83,-37 83,-55 161,-55 161,-37 83,-37"/>
<polygon fill="none" stroke="black" points="83,-37 83,-55 161,-55 161,-37 83,-37"/>
<text text-anchor="start" x="113" y="-43.2" font-family="Helvetica,sans-Serif" font-size="11.00">582 rows</text>
<polygon fill="#ffffff" stroke="transparent" points="161,-37 161,-55 216,-55 216,-37 161,-37"/>
<polygon fill="none" stroke="black" points="161,-37 161,-55 216,-55 216,-37 161,-37"/>
<text text-anchor="start" x="191" y="-43.2" font-family="Helvetica,sans-Serif" font-size="11.00">32 &gt;</text>
</a>
</g>
</g>
<!-- ad_tab&#45;&gt;ad_window -->
<g id="edge3" class="edge">
<title>ad_tab:w&#45;&gt;ad_window:e</title>
<path fill="none" stroke="black" d="M534.47,-423.63C461.66,-408.03 570.69,-263.83 496,-205 412.56,-139.27 356.97,-169.09 257,-205 235.31,-212.79 240.05,-238 217,-238"/>
<polygon fill="black" stroke="black" points="541.04,-424.25 548.66,-428.58 545.02,-424.62 549,-425 549,-425 549,-425 545.02,-424.62 549.34,-421.42 541.04,-424.25 541.04,-424.25"/>
<ellipse fill="none" stroke="black" cx="537.85" cy="-423.95" rx="3.2" ry="3.2"/>
</g>
<!-- ad_table&#45;&gt;ad_window -->
<g id="edge4" class="edge">
<title>ad_table:w&#45;&gt;ad_window:e</title>
<path fill="none" stroke="black" d="M262.49,-324.36C236.13,-307.52 259.14,-238 217,-238"/>
<polygon fill="black" stroke="black" points="268.76,-325.99 275.59,-331.48 272.63,-326.99 276.5,-328 276.5,-328 276.5,-328 272.63,-326.99 277.41,-324.52 268.76,-325.99 268.76,-325.99"/>
<ellipse fill="none" stroke="black" cx="265.66" cy="-325.18" rx="3.2" ry="3.2"/>
</g>
<!-- ad_table&#45;&gt;ad_window -->
<g id="edge5" class="edge">
<title>ad_table:w&#45;&gt;ad_window:e</title>
<path fill="none" stroke="black" d="M262.46,-280.39C244.4,-269.55 244.68,-238 217,-238"/>
<polygon fill="black" stroke="black" points="268.75,-282.01 275.6,-287.49 272.63,-283 276.5,-284 276.5,-284 276.5,-284 272.63,-283 277.4,-280.51 268.75,-282.01 268.75,-282.01"/>
<ellipse fill="none" stroke="black" cx="265.65" cy="-281.21" rx="3.2" ry="3.2"/>
</g>
<!-- ad_userquery -->
<g id="node6" class="node">
<title>ad_userquery</title>
<g id="a_node6"><a xlink:href="../../tables/ad_userquery.html" xlink:title="ad_userquery" target="_top">
<polygon fill="#ffffff" stroke="transparent" points="794,-407 794,-847 1016,-847 1016,-407 794,-407"/>
<polygon fill="#f5f5f5" stroke="transparent" points="796,-823 796,-845 1014,-845 1014,-823 796,-823"/>
<polygon fill="none" stroke="black" points="796,-823 796,-845 1014,-845 1014,-823 796,-823"/>
<text text-anchor="start" x="801" y="-832.2" font-family="Helvetica,sans-Serif" font-weight="bold" font-size="11.00">ad_userquery</text>
<text text-anchor="start" x="979" y="-831.2" font-family="Helvetica,sans-Serif" font-size="11.00">[table]</text>
<polygon fill="none" stroke="black" points="796,-801 796,-823 931,-823 931,-801 796,-801"/>
<image xlink:href="../../images/primaryKeys.png" width="11px" height="12px" preserveAspectRatio="xMinYMin meet" x="801" y="-818"/>
<text text-anchor="start" x="816" y="-809.2" font-family="Helvetica,sans-Serif" font-size="11.00">ad_userquery_id</text>
<polygon fill="none" stroke="black" points="931,-801 931,-823 1014,-823 1014,-801 931,-801"/>
<text text-anchor="start" x="934" y="-809.2" font-family="Helvetica,sans-Serif" font-size="11.00">numeric[10]</text>
<polygon fill="none" stroke="black" points="796,-779 796,-801 931,-801 931,-779 796,-779"/>
<text text-anchor="start" x="816" y="-787.2" font-family="Helvetica,sans-Serif" font-size="11.00">ad_client_id</text>
<polygon fill="none" stroke="black" points="931,-779 931,-801 1014,-801 1014,-779 931,-779"/>
<text text-anchor="start" x="934" y="-787.2" font-family="Helvetica,sans-Serif" font-size="11.00">numeric[10]</text>
<polygon fill="none" stroke="black" points="796,-757 796,-779 931,-779 931,-757 796,-757"/>
<text text-anchor="start" x="816" y="-765.2" font-family="Helvetica,sans-Serif" font-size="11.00">ad_org_id</text>
<polygon fill="none" stroke="black" points="931,-757 931,-779 1014,-779 1014,-757 931,-757"/>
<text text-anchor="start" x="934" y="-765.2" font-family="Helvetica,sans-Serif" font-size="11.00">numeric[10]</text>
<polygon fill="none" stroke="black" points="796,-735 796,-757 931,-757 931,-735 796,-735"/>
<text text-anchor="start" x="816" y="-743.2" font-family="Helvetica,sans-Serif" font-size="11.00">isactive</text>
<polygon fill="none" stroke="black" points="931,-735 931,-757 1014,-757 1014,-735 931,-735"/>
<text text-anchor="start" x="934" y="-743.2" font-family="Helvetica,sans-Serif" font-size="11.00">bpchar[1]</text>
<polygon fill="none" stroke="black" points="796,-713 796,-735 931,-735 931,-713 796,-713"/>
<text text-anchor="start" x="816" y="-721.2" font-family="Helvetica,sans-Serif" font-size="11.00">created</text>
<polygon fill="none" stroke="black" points="931,-713 931,-735 1014,-735 1014,-713 931,-713"/>
<text text-anchor="start" x="934" y="-721.2" font-family="Helvetica,sans-Serif" font-size="11.00">timestamp[29,6]</text>
<polygon fill="none" stroke="black" points="796,-691 796,-713 931,-713 931,-691 796,-691"/>
<text text-anchor="start" x="816" y="-699.2" font-family="Helvetica,sans-Serif" font-size="11.00">createdby</text>
<polygon fill="none" stroke="black" points="931,-691 931,-713 1014,-713 1014,-691 931,-691"/>
<text text-anchor="start" x="934" y="-699.2" font-family="Helvetica,sans-Serif" font-size="11.00">numeric[10]</text>
<polygon fill="none" stroke="black" points="796,-669 796,-691 931,-691 931,-669 796,-669"/>
<text text-anchor="start" x="816" y="-677.2" font-family="Helvetica,sans-Serif" font-size="11.00">updated</text>
<polygon fill="none" stroke="black" points="931,-669 931,-691 1014,-691 1014,-669 931,-669"/>
<text text-anchor="start" x="934" y="-677.2" font-family="Helvetica,sans-Serif" font-size="11.00">timestamp[29,6]</text>
<polygon fill="none" stroke="black" points="796,-647 796,-669 931,-669 931,-647 796,-647"/>
<text text-anchor="start" x="816" y="-655.2" font-family="Helvetica,sans-Serif" font-size="11.00">updatedby</text>
<polygon fill="none" stroke="black" points="931,-647 931,-669 1014,-669 1014,-647 931,-647"/>
<text text-anchor="start" x="934" y="-655.2" font-family="Helvetica,sans-Serif" font-size="11.00">numeric[10]</text>
<polygon fill="none" stroke="black" points="796,-625 796,-647 931,-647 931,-625 796,-625"/>
<text text-anchor="start" x="816" y="-633.2" font-family="Helvetica,sans-Serif" font-size="11.00">name</text>
<polygon fill="none" stroke="black" points="931,-625 931,-647 1014,-647 1014,-625 931,-625"/>
<text text-anchor="start" x="934" y="-633.2" font-family="Helvetica,sans-Serif" font-size="11.00">varchar[60]</text>
<polygon fill="none" stroke="black" points="796,-603 796,-625 931,-625 931,-603 796,-603"/>
<text text-anchor="start" x="816" y="-611.2" font-family="Helvetica,sans-Serif" font-size="11.00">description</text>
<polygon fill="none" stroke="black" points="931,-603 931,-625 1014,-625 1014,-603 931,-603"/>
<text text-anchor="start" x="934" y="-611.2" font-family="Helvetica,sans-Serif" font-size="11.00">varchar[255]</text>
<polygon fill="none" stroke="black" points="796,-581 796,-603 931,-603 931,-581 796,-581"/>
<image xlink:href="../../images/foreignKeys.png" width="11px" height="12px" preserveAspectRatio="xMinYMin meet" x="801" y="-598"/>
<text text-anchor="start" x="816" y="-589.2" font-family="Helvetica,sans-Serif" font-size="11.00">ad_user_id</text>
<polygon fill="none" stroke="black" points="931,-581 931,-603 1014,-603 1014,-581 931,-581"/>
<text text-anchor="start" x="934" y="-589.2" font-family="Helvetica,sans-Serif" font-size="11.00">numeric[10]</text>
<polygon fill="none" stroke="black" points="796,-559 796,-581 931,-581 931,-559 796,-559"/>
<image xlink:href="../../images/foreignKeys.png" width="11px" height="12px" preserveAspectRatio="xMinYMin meet" x="801" y="-576"/>
<text text-anchor="start" x="816" y="-567.2" font-family="Helvetica,sans-Serif" font-size="11.00">ad_table_id</text>
<polygon fill="none" stroke="black" points="931,-559 931,-581 1014,-581 1014,-559 931,-559"/>
<text text-anchor="start" x="934" y="-567.2" font-family="Helvetica,sans-Serif" font-size="11.00">numeric[10]</text>
<polygon fill="none" stroke="black" points="796,-537 796,-559 931,-559 931,-537 796,-537"/>
<text text-anchor="start" x="816" y="-545.2" font-family="Helvetica,sans-Serif" font-size="11.00">code</text>
<polygon fill="none" stroke="black" points="931,-537 931,-559 1014,-559 1014,-537 931,-537"/>
<text text-anchor="start" x="934" y="-545.2" font-family="Helvetica,sans-Serif" font-size="11.00">varchar[4000]</text>
<polygon fill="none" stroke="black" points="796,-515 796,-537 931,-537 931,-515 796,-515"/>
<image xlink:href="../../images/foreignKeys.png" width="11px" height="12px" preserveAspectRatio="xMinYMin meet" x="801" y="-532"/>
<text text-anchor="start" x="816" y="-523.2" font-family="Helvetica,sans-Serif" font-size="11.00">ad_tab_id</text>
<polygon fill="none" stroke="black" points="931,-515 931,-537 1014,-537 1014,-515 931,-515"/>
<text text-anchor="start" x="934" y="-523.2" font-family="Helvetica,sans-Serif" font-size="11.00">numeric[10]</text>
<polygon fill="#ffffff" stroke="transparent" points="796,-493 796,-515 931,-515 931,-493 796,-493"/>
<polygon fill="none" stroke="black" points="796,-493 796,-515 931,-515 931,-493 796,-493"/>
<text text-anchor="start" x="816" y="-501.2" font-family="Helvetica,sans-Serif" font-size="11.00">ad_userquery_uu</text>
<polygon fill="none" stroke="black" points="931,-493 931,-515 1014,-515 1014,-493 931,-493"/>
<text text-anchor="start" x="934" y="-501.2" font-family="Helvetica,sans-Serif" font-size="11.00">varchar[36]</text>
<polygon fill="none" stroke="black" points="796,-471 796,-493 931,-493 931,-471 796,-471"/>
<image xlink:href="../../images/foreignKeys.png" width="11px" height="12px" preserveAspectRatio="xMinYMin meet" x="801" y="-488"/>
<text text-anchor="start" x="816" y="-479.2" font-family="Helvetica,sans-Serif" font-size="11.00">ad_window_id</text>
<polygon fill="none" stroke="black" points="931,-471 931,-493 1014,-493 1014,-471 931,-471"/>
<text text-anchor="start" x="934" y="-479.2" font-family="Helvetica,sans-Serif" font-size="11.00">numeric[10]</text>
<polygon fill="none" stroke="black" points="796,-449 796,-471 931,-471 931,-449 796,-449"/>
<image xlink:href="../../images/foreignKeys.png" width="11px" height="12px" preserveAspectRatio="xMinYMin meet" x="801" y="-466"/>
<text text-anchor="start" x="816" y="-457.2" font-family="Helvetica,sans-Serif" font-size="11.00">ad_role_id</text>
<polygon fill="none" stroke="black" points="931,-449 931,-471 1014,-471 1014,-449 931,-449"/>
<text text-anchor="start" x="934" y="-457.2" font-family="Helvetica,sans-Serif" font-size="11.00">numeric[10]</text>
<polygon fill="none" stroke="black" points="796,-427 796,-449 931,-449 931,-427 796,-427"/>
<text text-anchor="start" x="816" y="-435.2" font-family="Helvetica,sans-Serif" font-size="11.00">isdefault</text>
<polygon fill="none" stroke="black" points="931,-427 931,-449 1014,-449 1014,-427 931,-427"/>
<text text-anchor="start" x="934" y="-435.2" font-family="Helvetica,sans-Serif" font-size="11.00">bpchar[1]</text>
<polygon fill="#ffffff" stroke="transparent" points="796,-409 796,-427 855,-427 855,-409 796,-409"/>
<polygon fill="none" stroke="black" points="796,-409 796,-427 855,-427 855,-409 796,-409"/>
<text text-anchor="start" x="799" y="-415.2" font-family="Helvetica,sans-Serif" font-size="11.00">&lt; 5</text>
<polygon fill="#ffffff" stroke="transparent" points="855,-409 855,-427 931,-427 931,-409 855,-409"/>
<polygon fill="none" stroke="black" points="855,-409 855,-427 931,-427 931,-409 855,-409"/>
<text text-anchor="start" x="895" y="-415.2" font-family="Helvetica,sans-Serif" font-size="11.00">0 rows</text>
<polygon fill="#ffffff" stroke="transparent" points="931,-409 931,-427 1014,-427 1014,-409 931,-409"/>
<polygon fill="none" stroke="black" points="931,-409 931,-427 1014,-427 1014,-409 931,-409"/>
<text text-anchor="start" x="995" y="-415.2" font-family="Helvetica,sans-Serif" font-size="11.00">0 &gt;</text>
<polygon fill="none" stroke="black" stroke-width="2" points="795,-408 795,-846 1015,-846 1015,-408 795,-408"/>
</a>
</g>
</g>
<!-- ad_userquery&#45;&gt;ad_role -->
<g id="edge6" class="edge">
<title>ad_userquery:w&#45;&gt;ad_role:e</title>
<path fill="none" stroke="black" d="M781.12,-464.35C723.04,-506.86 827.27,-847 746,-847"/>
<polygon fill="black" stroke="black" points="787.37,-462.39 796.08,-463.44 791.18,-461.2 795,-460 795,-460 795,-460 791.18,-461.2 793.92,-456.56 787.37,-462.39 787.37,-462.39"/>
<ellipse fill="none" stroke="black" cx="784.31" cy="-463.35" rx="3.2" ry="3.2"/>
</g>
<!-- ad_userquery&#45;&gt;ad_user -->
<g id="edge9" class="edge">
<title>ad_userquery:w&#45;&gt;ad_user:e</title>
<path fill="none" stroke="black" d="M781.12,-596.78C738.61,-631.53 794.19,-845.2 753,-891 672.27,-980.77 610.23,-957 489.5,-957"/>
<polygon fill="black" stroke="black" points="787.44,-594.6 796.17,-595.4 791.22,-593.3 795,-592 795,-592 795,-592 791.22,-593.3 793.83,-588.6 787.44,-594.6 787.44,-594.6"/>
<ellipse fill="none" stroke="black" cx="784.41" cy="-595.65" rx="3.2" ry="3.2"/>
</g>
<!-- ad_userquery&#45;&gt;ad_tab -->
<g id="edge7" class="edge">
<title>ad_userquery:w&#45;&gt;ad_tab:e</title>
<path fill="none" stroke="black" d="M780.25,-524.61C763.61,-521.26 755.44,-513 733,-513"/>
<polygon fill="black" stroke="black" points="787.04,-525.25 794.66,-529.58 791.02,-525.62 795,-526 795,-526 795,-526 791.02,-525.62 795.34,-522.42 787.04,-525.25 787.04,-525.25"/>
<ellipse fill="none" stroke="black" cx="783.85" cy="-524.95" rx="3.2" ry="3.2"/>
</g>
<!-- ad_userquery&#45;&gt;ad_table -->
<g id="edge8" class="edge">
<title>ad_userquery:w&#45;&gt;ad_table:e</title>
<path fill="none" stroke="black" d="M780.43,-570.29C672.1,-574.66 619.55,-625.25 529,-557 475.6,-516.75 543.37,-416 476.5,-416"/>
<polygon fill="black" stroke="black" points="787,-570.16 795.07,-573.6 791,-570.08 795,-570 795,-570 795,-570 791,-570.08 794.93,-566.4 787,-570.16 787,-570.16"/>
<ellipse fill="none" stroke="black" cx="783.8" cy="-570.23" rx="3.2" ry="3.2"/>
</g>
<!-- ad_userquery&#45;&gt;ad_window -->
<g id="edge10" class="edge">
<title>ad_userquery:w&#45;&gt;ad_window:e</title>
<path fill="none" stroke="black" d="M781.19,-477.73C732.12,-441.99 805.19,-193.06 753,-147 720.58,-118.39 266.27,-158.07 257,-164 225.5,-184.14 254.39,-238 217,-238"/>
<polygon fill="black" stroke="black" points="787.36,-479.63 793.94,-485.44 791.18,-480.82 795,-482 795,-482 795,-482 791.18,-480.82 796.06,-478.56 787.36,-479.63 787.36,-479.63"/>
<ellipse fill="none" stroke="black" cx="784.3" cy="-478.69" rx="3.2" ry="3.2"/>
</g>
</g>
</svg>
