<?xml version="1.0" encoding="UTF-8" standalone="no"?>
<!DOCTYPE svg PUBLIC "-//W3C//DTD SVG 1.1//EN"
 "http://www.w3.org/Graphics/SVG/1.1/DTD/svg11.dtd">
<!-- Generated by graphviz version 2.43.0 (0)
 -->
<!-- Title: oneDegreeRelationshipsDiagram Pages: 1 -->
<svg width="547pt" height="687pt"
 viewBox="0.00 0.00 547.00 687.00" xmlns="http://www.w3.org/2000/svg" xmlns:xlink="http://www.w3.org/1999/xlink">
<g id="graph0" class="graph" transform="scale(1 1) rotate(0) translate(4 683)">
<title>oneDegreeRelationshipsDiagram</title>
<polygon fill="#ffffff" stroke="transparent" points="-4,4 -4,-683 543,-683 543,4 -4,4"/>
<text text-anchor="middle" x="71.5" y="-7.2" font-family="Helvetica,sans-Serif" font-size="11.00">Generated by SchemaSpy</text>
<!-- ad_userdef_info_related -->
<g id="node1" class="node">
<title>ad_userdef_info_related</title>
<g id="a_node1"><a xlink:href="../../tables/ad_userdef_info_related.html" xlink:title="ad_userdef_info_related" target="_top">
<polygon fill="#ffffff" stroke="transparent" points="239,-279 239,-675 531,-675 531,-279 239,-279"/>
<polygon fill="#f5f5f5" stroke="transparent" points="241,-651 241,-673 529,-673 529,-651 241,-651"/>
<polygon fill="none" stroke="black" points="241,-651 241,-673 529,-673 529,-651 241,-651"/>
<text text-anchor="start" x="246" y="-660.2" font-family="Helvetica,sans-Serif" font-weight="bold" font-size="11.00">ad_userdef_info_related</text>
<text text-anchor="start" x="494" y="-659.2" font-family="Helvetica,sans-Serif" font-size="11.00">[table]</text>
<polygon fill="none" stroke="black" points="241,-629 241,-651 446,-651 446,-629 241,-629"/>
<image xlink:href="../../images/primaryKeys.png" width="11px" height="12px" preserveAspectRatio="xMinYMin meet" x="246" y="-646"/>
<text text-anchor="start" x="261" y="-637.2" font-family="Helvetica,sans-Serif" font-size="11.00">ad_userdef_info_related_id</text>
<polygon fill="none" stroke="black" points="446,-629 446,-651 529,-651 529,-629 446,-629"/>
<text text-anchor="start" x="449" y="-637.2" font-family="Helvetica,sans-Serif" font-size="11.00">numeric[10]</text>
<polygon fill="none" stroke="black" points="241,-607 241,-629 446,-629 446,-607 241,-607"/>
<text text-anchor="start" x="261" y="-615.2" font-family="Helvetica,sans-Serif" font-size="11.00">ad_client_id</text>
<polygon fill="none" stroke="black" points="446,-607 446,-629 529,-629 529,-607 446,-607"/>
<text text-anchor="start" x="449" y="-615.2" font-family="Helvetica,sans-Serif" font-size="11.00">numeric[10]</text>
<polygon fill="none" stroke="black" points="241,-585 241,-607 446,-607 446,-585 241,-585"/>
<text text-anchor="start" x="261" y="-593.2" font-family="Helvetica,sans-Serif" font-size="11.00">ad_org_id</text>
<polygon fill="none" stroke="black" points="446,-585 446,-607 529,-607 529,-585 446,-585"/>
<text text-anchor="start" x="449" y="-593.2" font-family="Helvetica,sans-Serif" font-size="11.00">numeric[10]</text>
<polygon fill="none" stroke="black" points="241,-563 241,-585 446,-585 446,-563 241,-563"/>
<text text-anchor="start" x="261" y="-571.2" font-family="Helvetica,sans-Serif" font-size="11.00">isactive</text>
<polygon fill="none" stroke="black" points="446,-563 446,-585 529,-585 529,-563 446,-563"/>
<text text-anchor="start" x="449" y="-571.2" font-family="Helvetica,sans-Serif" font-size="11.00">bpchar[1]</text>
<polygon fill="none" stroke="black" points="241,-541 241,-563 446,-563 446,-541 241,-541"/>
<text text-anchor="start" x="261" y="-549.2" font-family="Helvetica,sans-Serif" font-size="11.00">created</text>
<polygon fill="none" stroke="black" points="446,-541 446,-563 529,-563 529,-541 446,-541"/>
<text text-anchor="start" x="449" y="-549.2" font-family="Helvetica,sans-Serif" font-size="11.00">timestamp[29,6]</text>
<polygon fill="none" stroke="black" points="241,-519 241,-541 446,-541 446,-519 241,-519"/>
<text text-anchor="start" x="261" y="-527.2" font-family="Helvetica,sans-Serif" font-size="11.00">createdby</text>
<polygon fill="none" stroke="black" points="446,-519 446,-541 529,-541 529,-519 446,-519"/>
<text text-anchor="start" x="449" y="-527.2" font-family="Helvetica,sans-Serif" font-size="11.00">numeric[10]</text>
<polygon fill="none" stroke="black" points="241,-497 241,-519 446,-519 446,-497 241,-497"/>
<text text-anchor="start" x="261" y="-505.2" font-family="Helvetica,sans-Serif" font-size="11.00">updated</text>
<polygon fill="none" stroke="black" points="446,-497 446,-519 529,-519 529,-497 446,-497"/>
<text text-anchor="start" x="449" y="-505.2" font-family="Helvetica,sans-Serif" font-size="11.00">timestamp[29,6]</text>
<polygon fill="none" stroke="black" points="241,-475 241,-497 446,-497 446,-475 241,-475"/>
<text text-anchor="start" x="261" y="-483.2" font-family="Helvetica,sans-Serif" font-size="11.00">updatedby</text>
<polygon fill="none" stroke="black" points="446,-475 446,-497 529,-497 529,-475 446,-475"/>
<text text-anchor="start" x="449" y="-483.2" font-family="Helvetica,sans-Serif" font-size="11.00">numeric[10]</text>
<polygon fill="none" stroke="black" points="241,-453 241,-475 446,-475 446,-453 241,-453"/>
<image xlink:href="../../images/foreignKeys.png" width="11px" height="12px" preserveAspectRatio="xMinYMin meet" x="246" y="-470"/>
<text text-anchor="start" x="261" y="-461.2" font-family="Helvetica,sans-Serif" font-size="11.00">ad_userdef_info_id</text>
<polygon fill="none" stroke="black" points="446,-453 446,-475 529,-475 529,-453 446,-453"/>
<text text-anchor="start" x="449" y="-461.2" font-family="Helvetica,sans-Serif" font-size="11.00">numeric[10]</text>
<polygon fill="none" stroke="black" points="241,-431 241,-453 446,-453 446,-431 241,-431"/>
<image xlink:href="../../images/foreignKeys.png" width="11px" height="12px" preserveAspectRatio="xMinYMin meet" x="246" y="-448"/>
<text text-anchor="start" x="261" y="-439.2" font-family="Helvetica,sans-Serif" font-size="11.00">ad_inforelated_id</text>
<polygon fill="none" stroke="black" points="446,-431 446,-453 529,-453 529,-431 446,-431"/>
<text text-anchor="start" x="449" y="-439.2" font-family="Helvetica,sans-Serif" font-size="11.00">numeric[10]</text>
<polygon fill="none" stroke="black" points="241,-409 241,-431 446,-431 446,-409 241,-409"/>
<text text-anchor="start" x="261" y="-417.2" font-family="Helvetica,sans-Serif" font-size="11.00">name</text>
<polygon fill="none" stroke="black" points="446,-409 446,-431 529,-431 529,-409 446,-409"/>
<text text-anchor="start" x="449" y="-417.2" font-family="Helvetica,sans-Serif" font-size="11.00">varchar[60]</text>
<polygon fill="none" stroke="black" points="241,-387 241,-409 446,-409 446,-387 241,-387"/>
<text text-anchor="start" x="261" y="-395.2" font-family="Helvetica,sans-Serif" font-size="11.00">description</text>
<polygon fill="none" stroke="black" points="446,-387 446,-409 529,-409 529,-387 446,-387"/>
<text text-anchor="start" x="449" y="-395.2" font-family="Helvetica,sans-Serif" font-size="11.00">varchar[255]</text>
<polygon fill="none" stroke="black" points="241,-365 241,-387 446,-387 446,-365 241,-365"/>
<text text-anchor="start" x="261" y="-373.2" font-family="Helvetica,sans-Serif" font-size="11.00">help</text>
<polygon fill="none" stroke="black" points="446,-365 446,-387 529,-387 529,-365 446,-365"/>
<text text-anchor="start" x="449" y="-373.2" font-family="Helvetica,sans-Serif" font-size="11.00">varchar[2000]</text>
<polygon fill="#ffffff" stroke="transparent" points="241,-343 241,-365 446,-365 446,-343 241,-343"/>
<polygon fill="none" stroke="black" points="241,-343 241,-365 446,-365 446,-343 241,-343"/>
<text text-anchor="start" x="261" y="-351.2" font-family="Helvetica,sans-Serif" font-size="11.00">ad_userdef_info_related_uu</text>
<polygon fill="none" stroke="black" points="446,-343 446,-365 529,-365 529,-343 446,-343"/>
<text text-anchor="start" x="449" y="-351.2" font-family="Helvetica,sans-Serif" font-size="11.00">varchar[36]</text>
<polygon fill="none" stroke="black" points="241,-321 241,-343 446,-343 446,-321 241,-321"/>
<text text-anchor="start" x="261" y="-329.2" font-family="Helvetica,sans-Serif" font-size="11.00">displaylogic</text>
<polygon fill="none" stroke="black" points="446,-321 446,-343 529,-343 529,-321 446,-321"/>
<text text-anchor="start" x="449" y="-329.2" font-family="Helvetica,sans-Serif" font-size="11.00">varchar[2000]</text>
<polygon fill="none" stroke="black" points="241,-299 241,-321 446,-321 446,-299 241,-299"/>
<text text-anchor="start" x="261" y="-307.2" font-family="Helvetica,sans-Serif" font-size="11.00">seqno</text>
<polygon fill="none" stroke="black" points="446,-299 446,-321 529,-321 529,-299 446,-299"/>
<text text-anchor="start" x="449" y="-307.2" font-family="Helvetica,sans-Serif" font-size="11.00">numeric[10]</text>
<polygon fill="#ffffff" stroke="transparent" points="241,-281 241,-299 335,-299 335,-281 241,-281"/>
<polygon fill="none" stroke="black" points="241,-281 241,-299 335,-299 335,-281 241,-281"/>
<text text-anchor="start" x="244" y="-287.2" font-family="Helvetica,sans-Serif" font-size="11.00">&lt; 2</text>
<polygon fill="#ffffff" stroke="transparent" points="335,-281 335,-299 446,-299 446,-281 335,-281"/>
<polygon fill="none" stroke="black" points="335,-281 335,-299 446,-299 446,-281 335,-281"/>
<text text-anchor="start" x="410" y="-287.2" font-family="Helvetica,sans-Serif" font-size="11.00">0 rows</text>
<polygon fill="#ffffff" stroke="transparent" points="446,-281 446,-299 529,-299 529,-281 446,-281"/>
<polygon fill="none" stroke="black" points="446,-281 446,-299 529,-299 529,-281 446,-281"/>
<text text-anchor="start" x="510" y="-287.2" font-family="Helvetica,sans-Serif" font-size="11.00">0 &gt;</text>
<polygon fill="none" stroke="black" stroke-width="2" points="240,-280 240,-674 530,-674 530,-280 240,-280"/>
</a>
</g>
</g>
<!-- ad_inforelated -->
<g id="node2" class="node">
<title>ad_inforelated</title>
<g id="a_node2"><a xlink:href="../../tables/ad_inforelated.html" xlink:title="ad_inforelated" target="_top">
<polygon fill="#ffffff" stroke="transparent" points="8,-37 8,-337 190,-337 190,-37 8,-37"/>
<polygon fill="#f5f5f5" stroke="transparent" points="8,-315 8,-337 190,-337 190,-315 8,-315"/>
<polygon fill="none" stroke="black" points="8,-315 8,-337 190,-337 190,-315 8,-315"/>
<text text-anchor="start" x="13" y="-324.2" font-family="Helvetica,sans-Serif" font-weight="bold" font-size="11.00">ad_inforelated</text>
<text text-anchor="start" x="155" y="-323.2" font-family="Helvetica,sans-Serif" font-size="11.00">[table]</text>
<polygon fill="none" stroke="black" points="8,-293 8,-315 190,-315 190,-293 8,-293"/>
<image xlink:href="../../images/primaryKeys.png" width="11px" height="12px" preserveAspectRatio="xMinYMin meet" x="13" y="-310"/>
<text text-anchor="start" x="28" y="-301.2" font-family="Helvetica,sans-Serif" font-size="11.00">ad_inforelated_id</text>
<polygon fill="none" stroke="black" points="8,-271 8,-293 190,-293 190,-271 8,-271"/>
<image xlink:href="../../images/foreignKeys.png" width="11px" height="12px" preserveAspectRatio="xMinYMin meet" x="13" y="-288"/>
<text text-anchor="start" x="28" y="-279.2" font-family="Helvetica,sans-Serif" font-size="11.00">ad_client_id</text>
<polygon fill="none" stroke="black" points="8,-249 8,-271 190,-271 190,-249 8,-249"/>
<image xlink:href="../../images/foreignKeys.png" width="11px" height="12px" preserveAspectRatio="xMinYMin meet" x="13" y="-266"/>
<text text-anchor="start" x="28" y="-257.2" font-family="Helvetica,sans-Serif" font-size="11.00">ad_org_id</text>
<polygon fill="none" stroke="black" points="8,-227 8,-249 190,-249 190,-227 8,-227"/>
<image xlink:href="../../images/foreignKeys.png" width="11px" height="12px" preserveAspectRatio="xMinYMin meet" x="13" y="-244"/>
<text text-anchor="start" x="28" y="-235.2" font-family="Helvetica,sans-Serif" font-size="11.00">createdby</text>
<polygon fill="none" stroke="black" points="8,-205 8,-227 190,-227 190,-205 8,-205"/>
<image xlink:href="../../images/foreignKeys.png" width="11px" height="12px" preserveAspectRatio="xMinYMin meet" x="13" y="-222"/>
<text text-anchor="start" x="28" y="-213.2" font-family="Helvetica,sans-Serif" font-size="11.00">updatedby</text>
<polygon fill="none" stroke="black" points="8,-183 8,-205 190,-205 190,-183 8,-183"/>
<image xlink:href="../../images/foreignKeys.png" width="11px" height="12px" preserveAspectRatio="xMinYMin meet" x="13" y="-200"/>
<text text-anchor="start" x="28" y="-191.2" font-family="Helvetica,sans-Serif" font-size="11.00">ad_infowindow_id</text>
<polygon fill="none" stroke="black" points="8,-161 8,-183 190,-183 190,-161 8,-161"/>
<image xlink:href="../../images/foreignKeys.png" width="11px" height="12px" preserveAspectRatio="xMinYMin meet" x="13" y="-178"/>
<text text-anchor="start" x="28" y="-169.2" font-family="Helvetica,sans-Serif" font-size="11.00">relatedinfo_id</text>
<polygon fill="none" stroke="black" points="8,-139 8,-161 190,-161 190,-139 8,-139"/>
<image xlink:href="../../images/foreignKeys.png" width="11px" height="12px" preserveAspectRatio="xMinYMin meet" x="13" y="-156"/>
<text text-anchor="start" x="28" y="-147.2" font-family="Helvetica,sans-Serif" font-size="11.00">relatedcolumn_id</text>
<polygon fill="#ffffff" stroke="transparent" points="8,-117 8,-139 190,-139 190,-117 8,-117"/>
<polygon fill="none" stroke="black" points="8,-117 8,-139 190,-139 190,-117 8,-117"/>
<text text-anchor="start" x="28" y="-125.2" font-family="Helvetica,sans-Serif" font-size="11.00">ad_inforelated_uu</text>
<polygon fill="none" stroke="black" points="8,-95 8,-117 190,-117 190,-95 8,-95"/>
<image xlink:href="../../images/foreignKeys.png" width="11px" height="12px" preserveAspectRatio="xMinYMin meet" x="13" y="-112"/>
<text text-anchor="start" x="28" y="-103.2" font-family="Helvetica,sans-Serif" font-size="11.00">parentrelatedcolumn_id</text>
<polygon fill="none" stroke="black" points="8,-73 8,-95 190,-95 190,-73 8,-73"/>
<image xlink:href="../../images/foreignKeys.png" width="11px" height="12px" preserveAspectRatio="xMinYMin meet" x="13" y="-90"/>
<text text-anchor="start" x="28" y="-81.2" font-family="Helvetica,sans-Serif" font-size="11.00">entitytype</text>
<polygon fill="none" stroke="black" points="8,-55 8,-73 190,-73 190,-55 8,-55"/>
<text text-anchor="start" x="11" y="-61.2" font-family="Helvetica,sans-Serif" font-size="11.00">...</text>
<polygon fill="#ffffff" stroke="transparent" points="8,-37 8,-55 79,-55 79,-37 8,-37"/>
<polygon fill="none" stroke="black" points="8,-37 8,-55 79,-55 79,-37 8,-37"/>
<text text-anchor="start" x="11" y="-43.2" font-family="Helvetica,sans-Serif" font-size="11.00">&lt; 9</text>
<polygon fill="#ffffff" stroke="transparent" points="79,-37 79,-55 143,-55 143,-37 79,-37"/>
<polygon fill="none" stroke="black" points="79,-37 79,-55 143,-55 143,-37 79,-37"/>
<text text-anchor="start" x="107" y="-43.2" font-family="Helvetica,sans-Serif" font-size="11.00">9 rows</text>
<polygon fill="#ffffff" stroke="transparent" points="143,-37 143,-55 190,-55 190,-37 143,-37"/>
<polygon fill="none" stroke="black" points="143,-37 143,-55 190,-55 190,-37 143,-37"/>
<text text-anchor="start" x="171" y="-43.2" font-family="Helvetica,sans-Serif" font-size="11.00">1 &gt;</text>
</a>
</g>
</g>
<!-- ad_userdef_info_related&#45;&gt;ad_inforelated -->
<g id="edge1" class="edge">
<title>ad_userdef_info_related:w&#45;&gt;ad_inforelated:e</title>
<path fill="none" stroke="black" d="M225.79,-438.86C188.32,-418.32 250.24,-304 191,-304"/>
<polygon fill="black" stroke="black" points="232.19,-440.27 239.22,-445.52 236.09,-441.14 240,-442 240,-442 240,-442 236.09,-441.14 240.78,-438.48 232.19,-440.27 232.19,-440.27"/>
<ellipse fill="none" stroke="black" cx="229.06" cy="-439.58" rx="3.2" ry="3.2"/>
</g>
<!-- ad_userdef_info -->
<g id="node3" class="node">
<title>ad_userdef_info</title>
<g id="a_node3"><a xlink:href="../../tables/ad_userdef_info.html" xlink:title="ad_userdef_info" target="_top">
<polygon fill="#ffffff" stroke="transparent" points="23.5,-358 23.5,-636 174.5,-636 174.5,-358 23.5,-358"/>
<polygon fill="#f5f5f5" stroke="transparent" points="24,-614 24,-636 175,-636 175,-614 24,-614"/>
<polygon fill="none" stroke="black" points="24,-614 24,-636 175,-636 175,-614 24,-614"/>
<text text-anchor="start" x="29" y="-623.2" font-family="Helvetica,sans-Serif" font-weight="bold" font-size="11.00">ad_userdef_info</text>
<text text-anchor="start" x="140" y="-622.2" font-family="Helvetica,sans-Serif" font-size="11.00">[table]</text>
<polygon fill="none" stroke="black" points="24,-592 24,-614 175,-614 175,-592 24,-592"/>
<image xlink:href="../../images/primaryKeys.png" width="11px" height="12px" preserveAspectRatio="xMinYMin meet" x="29" y="-609"/>
<text text-anchor="start" x="44" y="-600.2" font-family="Helvetica,sans-Serif" font-size="11.00">ad_userdef_info_id</text>
<polygon fill="#ffffff" stroke="transparent" points="24,-570 24,-592 175,-592 175,-570 24,-570"/>
<polygon fill="none" stroke="black" points="24,-570 24,-592 175,-592 175,-570 24,-570"/>
<text text-anchor="start" x="44" y="-578.2" font-family="Helvetica,sans-Serif" font-size="11.00">ad_client_id</text>
<polygon fill="#ffffff" stroke="transparent" points="24,-548 24,-570 175,-570 175,-548 24,-548"/>
<polygon fill="none" stroke="black" points="24,-548 24,-570 175,-570 175,-548 24,-548"/>
<text text-anchor="start" x="44" y="-556.2" font-family="Helvetica,sans-Serif" font-size="11.00">ad_org_id</text>
<polygon fill="none" stroke="black" points="24,-526 24,-548 175,-548 175,-526 24,-526"/>
<image xlink:href="../../images/foreignKeys.png" width="11px" height="12px" preserveAspectRatio="xMinYMin meet" x="29" y="-543"/>
<text text-anchor="start" x="44" y="-534.2" font-family="Helvetica,sans-Serif" font-size="11.00">ad_role_id</text>
<polygon fill="none" stroke="black" points="24,-504 24,-526 175,-526 175,-504 24,-504"/>
<image xlink:href="../../images/foreignKeys.png" width="11px" height="12px" preserveAspectRatio="xMinYMin meet" x="29" y="-521"/>
<text text-anchor="start" x="44" y="-512.2" font-family="Helvetica,sans-Serif" font-size="11.00">ad_user_id</text>
<polygon fill="#ffffff" stroke="transparent" points="24,-482 24,-504 175,-504 175,-482 24,-482"/>
<polygon fill="none" stroke="black" points="24,-482 24,-504 175,-504 175,-482 24,-482"/>
<image xlink:href="../../images/foreignKeys.png" width="11px" height="12px" preserveAspectRatio="xMinYMin meet" x="29" y="-499"/>
<text text-anchor="start" x="44" y="-490.2" font-family="Helvetica,sans-Serif" font-size="11.00">ad_infowindow_id</text>
<polygon fill="none" stroke="black" points="24,-460 24,-482 175,-482 175,-460 24,-460"/>
<image xlink:href="../../images/foreignKeys.png" width="11px" height="12px" preserveAspectRatio="xMinYMin meet" x="29" y="-477"/>
<text text-anchor="start" x="44" y="-468.2" font-family="Helvetica,sans-Serif" font-size="11.00">ad_language</text>
<polygon fill="#ffffff" stroke="transparent" points="24,-438 24,-460 175,-460 175,-438 24,-438"/>
<polygon fill="none" stroke="black" points="24,-438 24,-460 175,-460 175,-438 24,-438"/>
<text text-anchor="start" x="44" y="-446.2" font-family="Helvetica,sans-Serif" font-size="11.00">ad_userdef_info_uu</text>
<polygon fill="none" stroke="black" points="24,-416 24,-438 175,-438 175,-416 24,-416"/>
<image xlink:href="../../images/foreignKeys.png" width="11px" height="12px" preserveAspectRatio="xMinYMin meet" x="29" y="-433"/>
<text text-anchor="start" x="44" y="-424.2" font-family="Helvetica,sans-Serif" font-size="11.00">ad_window_id</text>
<polygon fill="none" stroke="black" points="24,-394 24,-416 175,-416 175,-394 24,-394"/>
<image xlink:href="../../images/foreignKeys.png" width="11px" height="12px" preserveAspectRatio="xMinYMin meet" x="29" y="-411"/>
<text text-anchor="start" x="44" y="-402.2" font-family="Helvetica,sans-Serif" font-size="11.00">po_window_id</text>
<polygon fill="none" stroke="black" points="24,-376 24,-394 175,-394 175,-376 24,-376"/>
<text text-anchor="start" x="27" y="-382.2" font-family="Helvetica,sans-Serif" font-size="11.00">...</text>
<polygon fill="#ffffff" stroke="transparent" points="24,-358 24,-376 80,-376 80,-358 24,-358"/>
<polygon fill="none" stroke="black" points="24,-358 24,-376 80,-376 80,-358 24,-358"/>
<text text-anchor="start" x="27" y="-364.2" font-family="Helvetica,sans-Serif" font-size="11.00">&lt; 6</text>
<polygon fill="#ffffff" stroke="transparent" points="80,-358 80,-376 136,-376 136,-358 80,-358"/>
<polygon fill="none" stroke="black" points="80,-358 80,-376 136,-376 136,-358 80,-358"/>
<text text-anchor="start" x="100" y="-364.2" font-family="Helvetica,sans-Serif" font-size="11.00">0 rows</text>
<polygon fill="#ffffff" stroke="transparent" points="136,-358 136,-376 175,-376 175,-358 136,-358"/>
<polygon fill="none" stroke="black" points="136,-358 136,-376 175,-376 175,-358 136,-358"/>
<text text-anchor="start" x="156" y="-364.2" font-family="Helvetica,sans-Serif" font-size="11.00">2 &gt;</text>
</a>
</g>
</g>
<!-- ad_userdef_info_related&#45;&gt;ad_userdef_info -->
<g id="edge2" class="edge">
<title>ad_userdef_info_related:w&#45;&gt;ad_userdef_info:e</title>
<path fill="none" stroke="black" d="M225.66,-466.78C183.1,-486.37 238.3,-603 176,-603"/>
<polygon fill="black" stroke="black" points="232.15,-465.52 240.68,-467.53 236.07,-464.76 240,-464 240,-464 240,-464 236.07,-464.76 239.32,-460.47 232.15,-465.52 232.15,-465.52"/>
<ellipse fill="none" stroke="black" cx="229" cy="-466.13" rx="3.2" ry="3.2"/>
</g>
</g>
</svg>
