<?xml version="1.0" encoding="UTF-8" standalone="no"?>
<!DOCTYPE svg PUBLIC "-//W3C//DTD SVG 1.1//EN"
 "http://www.w3.org/Graphics/SVG/1.1/DTD/svg11.dtd">
<!-- Generated by graphviz version 2.43.0 (0)
 -->
<!-- Title: oneDegreeRelationshipsDiagram Pages: 1 -->
<svg width="872pt" height="823pt"
 viewBox="0.00 0.00 872.00 823.00" xmlns="http://www.w3.org/2000/svg" xmlns:xlink="http://www.w3.org/1999/xlink">
<g id="graph0" class="graph" transform="scale(1 1) rotate(0) translate(4 819)">
<title>oneDegreeRelationshipsDiagram</title>
<polygon fill="#ffffff" stroke="transparent" points="-4,4 -4,-819 868,-819 868,4 -4,4"/>
<text text-anchor="middle" x="71.5" y="-7.2" font-family="Helvetica,sans-Serif" font-size="11.00">Generated by SchemaSpy</text>
<!-- b_bid -->
<g id="node1" class="node">
<title>b_bid</title>
<g id="a_node1"><a xlink:href="../../tables/b_bid.html" xlink:title="b_bid" target="_top">
<polygon fill="#ffffff" stroke="transparent" points="714.5,-643 714.5,-811 855.5,-811 855.5,-643 714.5,-643"/>
<polygon fill="#f5f5f5" stroke="transparent" points="715,-789 715,-811 856,-811 856,-789 715,-789"/>
<polygon fill="none" stroke="black" points="715,-789 715,-811 856,-811 856,-789 715,-789"/>
<text text-anchor="start" x="720" y="-798.2" font-family="Helvetica,sans-Serif" font-weight="bold" font-size="11.00">b_bid</text>
<text text-anchor="start" x="821" y="-797.2" font-family="Helvetica,sans-Serif" font-size="11.00">[table]</text>
<polygon fill="none" stroke="black" points="715,-767 715,-789 856,-789 856,-767 715,-767"/>
<image xlink:href="../../images/primaryKeys.png" width="11px" height="12px" preserveAspectRatio="xMinYMin meet" x="720" y="-784"/>
<text text-anchor="start" x="735" y="-775.2" font-family="Helvetica,sans-Serif" font-size="11.00">b_bid_id</text>
<polygon fill="none" stroke="black" points="715,-745 715,-767 856,-767 856,-745 715,-745"/>
<image xlink:href="../../images/foreignKeys.png" width="11px" height="12px" preserveAspectRatio="xMinYMin meet" x="720" y="-762"/>
<text text-anchor="start" x="735" y="-753.2" font-family="Helvetica,sans-Serif" font-size="11.00">b_topic_id</text>
<polygon fill="none" stroke="black" points="715,-723 715,-745 856,-745 856,-723 715,-723"/>
<image xlink:href="../../images/foreignKeys.png" width="11px" height="12px" preserveAspectRatio="xMinYMin meet" x="720" y="-740"/>
<text text-anchor="start" x="735" y="-731.2" font-family="Helvetica,sans-Serif" font-size="11.00">ad_user_id</text>
<polygon fill="none" stroke="black" points="715,-701 715,-723 856,-723 856,-701 715,-701"/>
<image xlink:href="../../images/foreignKeys.png" width="11px" height="12px" preserveAspectRatio="xMinYMin meet" x="720" y="-718"/>
<text text-anchor="start" x="735" y="-709.2" font-family="Helvetica,sans-Serif" font-size="11.00">b_buyerfunds_id</text>
<polygon fill="#ffffff" stroke="transparent" points="715,-679 715,-701 856,-701 856,-679 715,-679"/>
<polygon fill="none" stroke="black" points="715,-679 715,-701 856,-701 856,-679 715,-679"/>
<text text-anchor="start" x="735" y="-687.2" font-family="Helvetica,sans-Serif" font-size="11.00">b_bid_uu</text>
<polygon fill="none" stroke="black" points="715,-661 715,-679 856,-679 856,-661 715,-661"/>
<text text-anchor="start" x="718" y="-667.2" font-family="Helvetica,sans-Serif" font-size="11.00">...</text>
<polygon fill="#ffffff" stroke="transparent" points="715,-643 715,-661 770,-661 770,-643 715,-643"/>
<polygon fill="none" stroke="black" points="715,-643 715,-661 770,-661 770,-643 715,-643"/>
<text text-anchor="start" x="718" y="-649.2" font-family="Helvetica,sans-Serif" font-size="11.00">&lt; 4</text>
<polygon fill="#ffffff" stroke="transparent" points="770,-643 770,-661 826,-661 826,-643 770,-643"/>
<polygon fill="none" stroke="black" points="770,-643 770,-661 826,-661 826,-643 770,-643"/>
<text text-anchor="start" x="790" y="-649.2" font-family="Helvetica,sans-Serif" font-size="11.00">0 rows</text>
<polygon fill="#ffffff" stroke="transparent" points="826,-643 826,-661 856,-661 856,-643 826,-643"/>
<polygon fill="none" stroke="black" points="826,-643 826,-661 856,-661 856,-643 826,-643"/>
<text text-anchor="start" x="846" y="-649.2" font-family="Helvetica,sans-Serif" font-size="11.00"> &#160;</text>
</a>
</g>
</g>
<!-- b_topic -->
<g id="node2" class="node">
<title>b_topic</title>
<g id="a_node2"><a xlink:href="../../tables/b_topic.html" xlink:title="b_topic" target="_top">
<polygon fill="#ffffff" stroke="transparent" points="424,-96 424,-624 665,-624 665,-96 424,-96"/>
<polygon fill="#f5f5f5" stroke="transparent" points="426.5,-600 426.5,-622 663.5,-622 663.5,-600 426.5,-600"/>
<polygon fill="none" stroke="black" points="426.5,-600 426.5,-622 663.5,-622 663.5,-600 426.5,-600"/>
<text text-anchor="start" x="431.5" y="-609.2" font-family="Helvetica,sans-Serif" font-weight="bold" font-size="11.00">b_topic</text>
<text text-anchor="start" x="628.5" y="-608.2" font-family="Helvetica,sans-Serif" font-size="11.00">[table]</text>
<polygon fill="none" stroke="black" points="426.5,-578 426.5,-600 573.5,-600 573.5,-578 426.5,-578"/>
<image xlink:href="../../images/primaryKeys.png" width="11px" height="12px" preserveAspectRatio="xMinYMin meet" x="431.5" y="-595"/>
<text text-anchor="start" x="446.5" y="-586.2" font-family="Helvetica,sans-Serif" font-size="11.00">b_topic_id</text>
<polygon fill="none" stroke="black" points="573.5,-578 573.5,-600 663.5,-600 663.5,-578 573.5,-578"/>
<text text-anchor="start" x="576.5" y="-586.2" font-family="Helvetica,sans-Serif" font-size="11.00">numeric[10]</text>
<polygon fill="none" stroke="black" points="426.5,-556 426.5,-578 573.5,-578 573.5,-556 426.5,-556"/>
<text text-anchor="start" x="446.5" y="-564.2" font-family="Helvetica,sans-Serif" font-size="11.00">ad_client_id</text>
<polygon fill="none" stroke="black" points="573.5,-556 573.5,-578 663.5,-578 663.5,-556 573.5,-556"/>
<text text-anchor="start" x="576.5" y="-564.2" font-family="Helvetica,sans-Serif" font-size="11.00">numeric[10]</text>
<polygon fill="none" stroke="black" points="426.5,-534 426.5,-556 573.5,-556 573.5,-534 426.5,-534"/>
<text text-anchor="start" x="446.5" y="-542.2" font-family="Helvetica,sans-Serif" font-size="11.00">ad_org_id</text>
<polygon fill="none" stroke="black" points="573.5,-534 573.5,-556 663.5,-556 663.5,-534 573.5,-534"/>
<text text-anchor="start" x="576.5" y="-542.2" font-family="Helvetica,sans-Serif" font-size="11.00">numeric[10]</text>
<polygon fill="none" stroke="black" points="426.5,-512 426.5,-534 573.5,-534 573.5,-512 426.5,-512"/>
<text text-anchor="start" x="446.5" y="-520.2" font-family="Helvetica,sans-Serif" font-size="11.00">isactive</text>
<polygon fill="none" stroke="black" points="573.5,-512 573.5,-534 663.5,-534 663.5,-512 573.5,-512"/>
<text text-anchor="start" x="576.5" y="-520.2" font-family="Helvetica,sans-Serif" font-size="11.00">bpchar[1]</text>
<polygon fill="none" stroke="black" points="426.5,-490 426.5,-512 573.5,-512 573.5,-490 426.5,-490"/>
<text text-anchor="start" x="446.5" y="-498.2" font-family="Helvetica,sans-Serif" font-size="11.00">created</text>
<polygon fill="none" stroke="black" points="573.5,-490 573.5,-512 663.5,-512 663.5,-490 573.5,-490"/>
<text text-anchor="start" x="576.5" y="-498.2" font-family="Helvetica,sans-Serif" font-size="11.00">timestamp[29,6]</text>
<polygon fill="none" stroke="black" points="426.5,-468 426.5,-490 573.5,-490 573.5,-468 426.5,-468"/>
<text text-anchor="start" x="446.5" y="-476.2" font-family="Helvetica,sans-Serif" font-size="11.00">createdby</text>
<polygon fill="none" stroke="black" points="573.5,-468 573.5,-490 663.5,-490 663.5,-468 573.5,-468"/>
<text text-anchor="start" x="576.5" y="-476.2" font-family="Helvetica,sans-Serif" font-size="11.00">numeric[10]</text>
<polygon fill="none" stroke="black" points="426.5,-446 426.5,-468 573.5,-468 573.5,-446 426.5,-446"/>
<text text-anchor="start" x="446.5" y="-454.2" font-family="Helvetica,sans-Serif" font-size="11.00">updated</text>
<polygon fill="none" stroke="black" points="573.5,-446 573.5,-468 663.5,-468 663.5,-446 573.5,-446"/>
<text text-anchor="start" x="576.5" y="-454.2" font-family="Helvetica,sans-Serif" font-size="11.00">timestamp[29,6]</text>
<polygon fill="none" stroke="black" points="426.5,-424 426.5,-446 573.5,-446 573.5,-424 426.5,-424"/>
<text text-anchor="start" x="446.5" y="-432.2" font-family="Helvetica,sans-Serif" font-size="11.00">updatedby</text>
<polygon fill="none" stroke="black" points="573.5,-424 573.5,-446 663.5,-446 663.5,-424 573.5,-424"/>
<text text-anchor="start" x="576.5" y="-432.2" font-family="Helvetica,sans-Serif" font-size="11.00">numeric[10]</text>
<polygon fill="none" stroke="black" points="426.5,-402 426.5,-424 573.5,-424 573.5,-402 426.5,-402"/>
<text text-anchor="start" x="446.5" y="-410.2" font-family="Helvetica,sans-Serif" font-size="11.00">documentno</text>
<polygon fill="none" stroke="black" points="573.5,-402 573.5,-424 663.5,-424 663.5,-402 573.5,-402"/>
<text text-anchor="start" x="576.5" y="-410.2" font-family="Helvetica,sans-Serif" font-size="11.00">varchar[30]</text>
<polygon fill="none" stroke="black" points="426.5,-380 426.5,-402 573.5,-402 573.5,-380 426.5,-380"/>
<text text-anchor="start" x="446.5" y="-388.2" font-family="Helvetica,sans-Serif" font-size="11.00">name</text>
<polygon fill="none" stroke="black" points="573.5,-380 573.5,-402 663.5,-402 663.5,-380 573.5,-380"/>
<text text-anchor="start" x="576.5" y="-388.2" font-family="Helvetica,sans-Serif" font-size="11.00">varchar[60]</text>
<polygon fill="none" stroke="black" points="426.5,-358 426.5,-380 573.5,-380 573.5,-358 426.5,-358"/>
<text text-anchor="start" x="446.5" y="-366.2" font-family="Helvetica,sans-Serif" font-size="11.00">description</text>
<polygon fill="none" stroke="black" points="573.5,-358 573.5,-380 663.5,-380 663.5,-358 573.5,-358"/>
<text text-anchor="start" x="576.5" y="-366.2" font-family="Helvetica,sans-Serif" font-size="11.00">varchar[255]</text>
<polygon fill="none" stroke="black" points="426.5,-336 426.5,-358 573.5,-358 573.5,-336 426.5,-336"/>
<text text-anchor="start" x="446.5" y="-344.2" font-family="Helvetica,sans-Serif" font-size="11.00">textmsg</text>
<polygon fill="none" stroke="black" points="573.5,-336 573.5,-358 663.5,-358 663.5,-336 573.5,-336"/>
<text text-anchor="start" x="576.5" y="-344.2" font-family="Helvetica,sans-Serif" font-size="11.00">varchar[2000]</text>
<polygon fill="none" stroke="black" points="426.5,-314 426.5,-336 573.5,-336 573.5,-314 426.5,-314"/>
<text text-anchor="start" x="446.5" y="-322.2" font-family="Helvetica,sans-Serif" font-size="11.00">topicstatus</text>
<polygon fill="none" stroke="black" points="573.5,-314 573.5,-336 663.5,-336 663.5,-314 573.5,-314"/>
<text text-anchor="start" x="576.5" y="-322.2" font-family="Helvetica,sans-Serif" font-size="11.00">bpchar[2]</text>
<polygon fill="none" stroke="black" points="426.5,-292 426.5,-314 573.5,-314 573.5,-292 426.5,-292"/>
<text text-anchor="start" x="446.5" y="-300.2" font-family="Helvetica,sans-Serif" font-size="11.00">topicaction</text>
<polygon fill="none" stroke="black" points="573.5,-292 573.5,-314 663.5,-314 663.5,-292 573.5,-292"/>
<text text-anchor="start" x="576.5" y="-300.2" font-family="Helvetica,sans-Serif" font-size="11.00">bpchar[2]</text>
<polygon fill="none" stroke="black" points="426.5,-270 426.5,-292 573.5,-292 573.5,-270 426.5,-270"/>
<text text-anchor="start" x="446.5" y="-278.2" font-family="Helvetica,sans-Serif" font-size="11.00">ispublished</text>
<polygon fill="none" stroke="black" points="573.5,-270 573.5,-292 663.5,-292 663.5,-270 573.5,-270"/>
<text text-anchor="start" x="576.5" y="-278.2" font-family="Helvetica,sans-Serif" font-size="11.00">bpchar[1]</text>
<polygon fill="none" stroke="black" points="426.5,-248 426.5,-270 573.5,-270 573.5,-248 426.5,-248"/>
<text text-anchor="start" x="446.5" y="-256.2" font-family="Helvetica,sans-Serif" font-size="11.00">textdetails</text>
<polygon fill="none" stroke="black" points="573.5,-248 573.5,-270 663.5,-270 663.5,-248 573.5,-248"/>
<text text-anchor="start" x="576.5" y="-256.2" font-family="Helvetica,sans-Serif" font-size="11.00">text[2147483647]</text>
<polygon fill="none" stroke="black" points="426.5,-226 426.5,-248 573.5,-248 573.5,-226 426.5,-226"/>
<text text-anchor="start" x="446.5" y="-234.2" font-family="Helvetica,sans-Serif" font-size="11.00">processing</text>
<polygon fill="none" stroke="black" points="573.5,-226 573.5,-248 663.5,-248 663.5,-226 573.5,-226"/>
<text text-anchor="start" x="576.5" y="-234.2" font-family="Helvetica,sans-Serif" font-size="11.00">bpchar[1]</text>
<polygon fill="none" stroke="black" points="426.5,-204 426.5,-226 573.5,-226 573.5,-204 426.5,-204"/>
<text text-anchor="start" x="446.5" y="-212.2" font-family="Helvetica,sans-Serif" font-size="11.00">processed</text>
<polygon fill="none" stroke="black" points="573.5,-204 573.5,-226 663.5,-226 663.5,-204 573.5,-204"/>
<text text-anchor="start" x="576.5" y="-212.2" font-family="Helvetica,sans-Serif" font-size="11.00">bpchar[1]</text>
<polygon fill="none" stroke="black" points="426.5,-182 426.5,-204 573.5,-204 573.5,-182 426.5,-182"/>
<image xlink:href="../../images/foreignKeys.png" width="11px" height="12px" preserveAspectRatio="xMinYMin meet" x="431.5" y="-199"/>
<text text-anchor="start" x="446.5" y="-190.2" font-family="Helvetica,sans-Serif" font-size="11.00">b_topictype_id</text>
<polygon fill="none" stroke="black" points="573.5,-182 573.5,-204 663.5,-204 663.5,-182 573.5,-182"/>
<text text-anchor="start" x="576.5" y="-190.2" font-family="Helvetica,sans-Serif" font-size="11.00">numeric[10]</text>
<polygon fill="none" stroke="black" points="426.5,-160 426.5,-182 573.5,-182 573.5,-160 426.5,-160"/>
<image xlink:href="../../images/foreignKeys.png" width="11px" height="12px" preserveAspectRatio="xMinYMin meet" x="431.5" y="-177"/>
<text text-anchor="start" x="446.5" y="-168.2" font-family="Helvetica,sans-Serif" font-size="11.00">b_topiccategory_id</text>
<polygon fill="none" stroke="black" points="573.5,-160 573.5,-182 663.5,-182 663.5,-160 573.5,-160"/>
<text text-anchor="start" x="576.5" y="-168.2" font-family="Helvetica,sans-Serif" font-size="11.00">numeric[10]</text>
<polygon fill="none" stroke="black" points="426.5,-138 426.5,-160 573.5,-160 573.5,-138 426.5,-138"/>
<text text-anchor="start" x="446.5" y="-146.2" font-family="Helvetica,sans-Serif" font-size="11.00">decisiondate</text>
<polygon fill="none" stroke="black" points="573.5,-138 573.5,-160 663.5,-160 663.5,-138 573.5,-138"/>
<text text-anchor="start" x="576.5" y="-146.2" font-family="Helvetica,sans-Serif" font-size="11.00">timestamp[29,6]</text>
<polygon fill="#ffffff" stroke="transparent" points="426.5,-116 426.5,-138 573.5,-138 573.5,-116 426.5,-116"/>
<polygon fill="none" stroke="black" points="426.5,-116 426.5,-138 573.5,-138 573.5,-116 426.5,-116"/>
<text text-anchor="start" x="446.5" y="-124.2" font-family="Helvetica,sans-Serif" font-size="11.00">b_topic_uu</text>
<polygon fill="none" stroke="black" points="573.5,-116 573.5,-138 663.5,-138 663.5,-116 573.5,-116"/>
<text text-anchor="start" x="576.5" y="-124.2" font-family="Helvetica,sans-Serif" font-size="11.00">varchar[36]</text>
<polygon fill="#ffffff" stroke="transparent" points="426.5,-98 426.5,-116 491.5,-116 491.5,-98 426.5,-98"/>
<polygon fill="none" stroke="black" points="426.5,-98 426.5,-116 491.5,-116 491.5,-98 426.5,-98"/>
<text text-anchor="start" x="429.5" y="-104.2" font-family="Helvetica,sans-Serif" font-size="11.00">&lt; 2</text>
<polygon fill="#ffffff" stroke="transparent" points="491.5,-98 491.5,-116 573.5,-116 573.5,-98 491.5,-98"/>
<polygon fill="none" stroke="black" points="491.5,-98 491.5,-116 573.5,-116 573.5,-98 491.5,-98"/>
<text text-anchor="start" x="537.5" y="-104.2" font-family="Helvetica,sans-Serif" font-size="11.00">0 rows</text>
<polygon fill="#ffffff" stroke="transparent" points="573.5,-98 573.5,-116 663.5,-116 663.5,-98 573.5,-98"/>
<polygon fill="none" stroke="black" points="573.5,-98 573.5,-116 663.5,-116 663.5,-98 573.5,-98"/>
<text text-anchor="start" x="644.5" y="-104.2" font-family="Helvetica,sans-Serif" font-size="11.00">3 &gt;</text>
<polygon fill="none" stroke="black" stroke-width="2" points="425,-97 425,-623 664,-623 664,-97 425,-97"/>
</a>
</g>
</g>
<!-- b_bid&#45;&gt;b_topic -->
<g id="edge1" class="edge">
<title>b_bid:w&#45;&gt;b_topic:e</title>
<path fill="none" stroke="black" d="M699.63,-753.38C651.21,-732.13 736.17,-589 664.5,-589"/>
<polygon fill="black" stroke="black" points="706.13,-754.56 713.35,-759.54 710.07,-755.28 714,-756 714,-756 714,-756 710.07,-755.28 714.65,-752.46 706.13,-754.56 706.13,-754.56"/>
<ellipse fill="none" stroke="black" cx="702.98" cy="-753.99" rx="3.2" ry="3.2"/>
</g>
<!-- b_topiccategory -->
<g id="node5" class="node">
<title>b_topiccategory</title>
<g id="a_node5"><a xlink:href="../../tables/b_topiccategory.html" xlink:title="b_topiccategory" target="_top">
<polygon fill="#ffffff" stroke="transparent" points="223,-63 223,-187 375,-187 375,-63 223,-63"/>
<polygon fill="#f5f5f5" stroke="transparent" points="223,-165 223,-187 375,-187 375,-165 223,-165"/>
<polygon fill="none" stroke="black" points="223,-165 223,-187 375,-187 375,-165 223,-165"/>
<text text-anchor="start" x="228" y="-174.2" font-family="Helvetica,sans-Serif" font-weight="bold" font-size="11.00">b_topiccategory</text>
<text text-anchor="start" x="340" y="-173.2" font-family="Helvetica,sans-Serif" font-size="11.00">[table]</text>
<polygon fill="none" stroke="black" points="223,-143 223,-165 375,-165 375,-143 223,-143"/>
<image xlink:href="../../images/primaryKeys.png" width="11px" height="12px" preserveAspectRatio="xMinYMin meet" x="228" y="-160"/>
<text text-anchor="start" x="243" y="-151.2" font-family="Helvetica,sans-Serif" font-size="11.00">b_topiccategory_id</text>
<polygon fill="none" stroke="black" points="223,-121 223,-143 375,-143 375,-121 223,-121"/>
<image xlink:href="../../images/foreignKeys.png" width="11px" height="12px" preserveAspectRatio="xMinYMin meet" x="228" y="-138"/>
<text text-anchor="start" x="243" y="-129.2" font-family="Helvetica,sans-Serif" font-size="11.00">b_topictype_id</text>
<polygon fill="#ffffff" stroke="transparent" points="223,-99 223,-121 375,-121 375,-99 223,-99"/>
<polygon fill="none" stroke="black" points="223,-99 223,-121 375,-121 375,-99 223,-99"/>
<text text-anchor="start" x="243" y="-107.2" font-family="Helvetica,sans-Serif" font-size="11.00">b_topiccategory_uu</text>
<polygon fill="none" stroke="black" points="223,-81 223,-99 375,-99 375,-81 223,-81"/>
<text text-anchor="start" x="226" y="-87.2" font-family="Helvetica,sans-Serif" font-size="11.00">...</text>
<polygon fill="#ffffff" stroke="transparent" points="223,-63 223,-81 279,-81 279,-63 223,-63"/>
<polygon fill="none" stroke="black" points="223,-63 223,-81 279,-81 279,-63 223,-63"/>
<text text-anchor="start" x="226" y="-69.2" font-family="Helvetica,sans-Serif" font-size="11.00">&lt; 1</text>
<polygon fill="#ffffff" stroke="transparent" points="279,-63 279,-81 335,-81 335,-63 279,-63"/>
<polygon fill="none" stroke="black" points="279,-63 279,-81 335,-81 335,-63 279,-63"/>
<text text-anchor="start" x="299" y="-69.2" font-family="Helvetica,sans-Serif" font-size="11.00">0 rows</text>
<polygon fill="#ffffff" stroke="transparent" points="335,-63 335,-81 375,-81 375,-63 335,-63"/>
<polygon fill="none" stroke="black" points="335,-63 335,-81 375,-81 375,-63 335,-63"/>
<text text-anchor="start" x="356" y="-69.2" font-family="Helvetica,sans-Serif" font-size="11.00">1 &gt;</text>
</a>
</g>
</g>
<!-- b_topic&#45;&gt;b_topiccategory -->
<g id="edge4" class="edge">
<title>b_topic:w&#45;&gt;b_topiccategory:e</title>
<path fill="none" stroke="black" d="M411.22,-168.34C399.48,-163.56 393.45,-154 376,-154"/>
<polygon fill="black" stroke="black" points="417.63,-169.54 424.84,-174.54 421.57,-170.27 425.5,-171 425.5,-171 425.5,-171 421.57,-170.27 426.16,-167.46 417.63,-169.54 417.63,-169.54"/>
<ellipse fill="none" stroke="black" cx="414.49" cy="-168.95" rx="3.2" ry="3.2"/>
</g>
<!-- b_topictype -->
<g id="node6" class="node">
<title>b_topictype</title>
<g id="a_node6"><a xlink:href="../../tables/b_topictype.html" xlink:title="b_topictype" target="_top">
<polygon fill="#ffffff" stroke="transparent" points="8,-37 8,-205 174,-205 174,-37 8,-37"/>
<polygon fill="#f5f5f5" stroke="transparent" points="8,-183 8,-205 174,-205 174,-183 8,-183"/>
<polygon fill="none" stroke="black" points="8,-183 8,-205 174,-205 174,-183 8,-183"/>
<text text-anchor="start" x="13" y="-192.2" font-family="Helvetica,sans-Serif" font-weight="bold" font-size="11.00">b_topictype</text>
<text text-anchor="start" x="139" y="-191.2" font-family="Helvetica,sans-Serif" font-size="11.00">[table]</text>
<polygon fill="none" stroke="black" points="8,-161 8,-183 174,-183 174,-161 8,-161"/>
<image xlink:href="../../images/primaryKeys.png" width="11px" height="12px" preserveAspectRatio="xMinYMin meet" x="13" y="-178"/>
<text text-anchor="start" x="28" y="-169.2" font-family="Helvetica,sans-Serif" font-size="11.00">b_topictype_id</text>
<polygon fill="none" stroke="black" points="8,-139 8,-161 174,-161 174,-139 8,-139"/>
<image xlink:href="../../images/foreignKeys.png" width="11px" height="12px" preserveAspectRatio="xMinYMin meet" x="13" y="-156"/>
<text text-anchor="start" x="28" y="-147.2" font-family="Helvetica,sans-Serif" font-size="11.00">m_pricelist_id</text>
<polygon fill="none" stroke="black" points="8,-117 8,-139 174,-139 174,-117 8,-117"/>
<image xlink:href="../../images/foreignKeys.png" width="11px" height="12px" preserveAspectRatio="xMinYMin meet" x="13" y="-134"/>
<text text-anchor="start" x="28" y="-125.2" font-family="Helvetica,sans-Serif" font-size="11.00">m_product_id</text>
<polygon fill="none" stroke="black" points="8,-95 8,-117 174,-117 174,-95 8,-95"/>
<image xlink:href="../../images/foreignKeys.png" width="11px" height="12px" preserveAspectRatio="xMinYMin meet" x="13" y="-112"/>
<text text-anchor="start" x="28" y="-103.2" font-family="Helvetica,sans-Serif" font-size="11.00">m_productmember_id</text>
<polygon fill="#ffffff" stroke="transparent" points="8,-73 8,-95 174,-95 174,-73 8,-73"/>
<polygon fill="none" stroke="black" points="8,-73 8,-95 174,-95 174,-73 8,-73"/>
<text text-anchor="start" x="28" y="-81.2" font-family="Helvetica,sans-Serif" font-size="11.00">b_topictype_uu</text>
<polygon fill="none" stroke="black" points="8,-55 8,-73 174,-73 174,-55 8,-55"/>
<text text-anchor="start" x="11" y="-61.2" font-family="Helvetica,sans-Serif" font-size="11.00">...</text>
<polygon fill="#ffffff" stroke="transparent" points="8,-37 8,-55 71,-55 71,-37 8,-37"/>
<polygon fill="none" stroke="black" points="8,-37 8,-55 71,-55 71,-37 8,-37"/>
<text text-anchor="start" x="11" y="-43.2" font-family="Helvetica,sans-Serif" font-size="11.00">&lt; 3</text>
<polygon fill="#ffffff" stroke="transparent" points="71,-37 71,-55 131,-55 131,-37 71,-37"/>
<polygon fill="none" stroke="black" points="71,-37 71,-55 131,-55 131,-37 71,-37"/>
<text text-anchor="start" x="95" y="-43.2" font-family="Helvetica,sans-Serif" font-size="11.00">0 rows</text>
<polygon fill="#ffffff" stroke="transparent" points="131,-37 131,-55 174,-55 174,-37 131,-37"/>
<polygon fill="none" stroke="black" points="131,-37 131,-55 174,-55 174,-37 131,-37"/>
<text text-anchor="start" x="155" y="-43.2" font-family="Helvetica,sans-Serif" font-size="11.00">2 &gt;</text>
</a>
</g>
</g>
<!-- b_topic&#45;&gt;b_topictype -->
<g id="edge5" class="edge">
<title>b_topic:w&#45;&gt;b_topictype:e</title>
<path fill="none" stroke="black" d="M411.04,-193.94C402.26,-195.16 396.05,-197.23 383,-198 308.46,-202.37 286.59,-219.22 215,-198 194.67,-191.97 196.2,-172 175,-172"/>
<polygon fill="black" stroke="black" points="417.52,-193.52 425.73,-196.59 421.51,-193.26 425.5,-193 425.5,-193 425.5,-193 421.51,-193.26 425.27,-189.41 417.52,-193.52 417.52,-193.52"/>
<ellipse fill="none" stroke="black" cx="414.32" cy="-193.72" rx="3.2" ry="3.2"/>
</g>
<!-- b_bidcomment -->
<g id="node3" class="node">
<title>b_bidcomment</title>
<g id="a_node3"><a xlink:href="../../tables/b_bidcomment.html" xlink:title="b_bidcomment" target="_top">
<polygon fill="#ffffff" stroke="transparent" points="714,-476 714,-622 856,-622 856,-476 714,-476"/>
<polygon fill="#f5f5f5" stroke="transparent" points="714,-600 714,-622 856,-622 856,-600 714,-600"/>
<polygon fill="none" stroke="black" points="714,-600 714,-622 856,-622 856,-600 714,-600"/>
<text text-anchor="start" x="719" y="-609.2" font-family="Helvetica,sans-Serif" font-weight="bold" font-size="11.00">b_bidcomment</text>
<text text-anchor="start" x="821" y="-608.2" font-family="Helvetica,sans-Serif" font-size="11.00">[table]</text>
<polygon fill="none" stroke="black" points="714,-578 714,-600 856,-600 856,-578 714,-578"/>
<image xlink:href="../../images/primaryKeys.png" width="11px" height="12px" preserveAspectRatio="xMinYMin meet" x="719" y="-595"/>
<text text-anchor="start" x="734" y="-586.2" font-family="Helvetica,sans-Serif" font-size="11.00">b_topic_id</text>
<polygon fill="none" stroke="black" points="714,-556 714,-578 856,-578 856,-556 714,-556"/>
<image xlink:href="../../images/primaryKeys.png" width="11px" height="12px" preserveAspectRatio="xMinYMin meet" x="719" y="-573"/>
<text text-anchor="start" x="734" y="-564.2" font-family="Helvetica,sans-Serif" font-size="11.00">b_bidcomment_id</text>
<polygon fill="none" stroke="black" points="714,-534 714,-556 856,-556 856,-534 714,-534"/>
<image xlink:href="../../images/foreignKeys.png" width="11px" height="12px" preserveAspectRatio="xMinYMin meet" x="719" y="-551"/>
<text text-anchor="start" x="734" y="-542.2" font-family="Helvetica,sans-Serif" font-size="11.00">ad_user_id</text>
<polygon fill="#ffffff" stroke="transparent" points="714,-512 714,-534 856,-534 856,-512 714,-512"/>
<polygon fill="none" stroke="black" points="714,-512 714,-534 856,-534 856,-512 714,-512"/>
<text text-anchor="start" x="734" y="-520.2" font-family="Helvetica,sans-Serif" font-size="11.00">b_bidcomment_uu</text>
<polygon fill="none" stroke="black" points="714,-494 714,-512 856,-512 856,-494 714,-494"/>
<text text-anchor="start" x="717" y="-500.2" font-family="Helvetica,sans-Serif" font-size="11.00">...</text>
<polygon fill="#ffffff" stroke="transparent" points="714,-476 714,-494 770,-494 770,-476 714,-476"/>
<polygon fill="none" stroke="black" points="714,-476 714,-494 770,-494 770,-476 714,-476"/>
<text text-anchor="start" x="717" y="-482.2" font-family="Helvetica,sans-Serif" font-size="11.00">&lt; 2</text>
<polygon fill="#ffffff" stroke="transparent" points="770,-476 770,-494 826,-494 826,-476 770,-476"/>
<polygon fill="none" stroke="black" points="770,-476 770,-494 826,-494 826,-476 770,-476"/>
<text text-anchor="start" x="790" y="-482.2" font-family="Helvetica,sans-Serif" font-size="11.00">0 rows</text>
<polygon fill="#ffffff" stroke="transparent" points="826,-476 826,-494 856,-494 856,-476 826,-476"/>
<polygon fill="none" stroke="black" points="826,-476 826,-494 856,-494 856,-476 826,-476"/>
<text text-anchor="start" x="846" y="-482.2" font-family="Helvetica,sans-Serif" font-size="11.00"> &#160;</text>
</a>
</g>
</g>
<!-- b_bidcomment&#45;&gt;b_topic -->
<g id="edge2" class="edge">
<title>b_bidcomment:w&#45;&gt;b_topic:e</title>
<path fill="none" stroke="black" d="M698.28,-589C687.29,-589 680.16,-589 664.5,-589"/>
<polygon fill="black" stroke="black" points="705,-589 713,-592.6 709,-589 713,-589 713,-589 713,-589 709,-589 713,-585.4 705,-589 705,-589"/>
<ellipse fill="none" stroke="black" cx="701.8" cy="-589" rx="3.2" ry="3.2"/>
</g>
<!-- b_offer -->
<g id="node4" class="node">
<title>b_offer</title>
<g id="a_node4"><a xlink:href="../../tables/b_offer.html" xlink:title="b_offer" target="_top">
<polygon fill="#ffffff" stroke="transparent" points="714.5,-287 714.5,-455 855.5,-455 855.5,-287 714.5,-287"/>
<polygon fill="#f5f5f5" stroke="transparent" points="715,-433 715,-455 856,-455 856,-433 715,-433"/>
<polygon fill="none" stroke="black" points="715,-433 715,-455 856,-455 856,-433 715,-433"/>
<text text-anchor="start" x="720" y="-442.2" font-family="Helvetica,sans-Serif" font-weight="bold" font-size="11.00">b_offer</text>
<text text-anchor="start" x="821" y="-441.2" font-family="Helvetica,sans-Serif" font-size="11.00">[table]</text>
<polygon fill="none" stroke="black" points="715,-411 715,-433 856,-433 856,-411 715,-411"/>
<image xlink:href="../../images/primaryKeys.png" width="11px" height="12px" preserveAspectRatio="xMinYMin meet" x="720" y="-428"/>
<text text-anchor="start" x="735" y="-419.2" font-family="Helvetica,sans-Serif" font-size="11.00">b_offer_id</text>
<polygon fill="none" stroke="black" points="715,-389 715,-411 856,-411 856,-389 715,-389"/>
<image xlink:href="../../images/foreignKeys.png" width="11px" height="12px" preserveAspectRatio="xMinYMin meet" x="720" y="-406"/>
<text text-anchor="start" x="735" y="-397.2" font-family="Helvetica,sans-Serif" font-size="11.00">b_topic_id</text>
<polygon fill="none" stroke="black" points="715,-367 715,-389 856,-389 856,-367 715,-367"/>
<image xlink:href="../../images/foreignKeys.png" width="11px" height="12px" preserveAspectRatio="xMinYMin meet" x="720" y="-384"/>
<text text-anchor="start" x="735" y="-375.2" font-family="Helvetica,sans-Serif" font-size="11.00">ad_user_id</text>
<polygon fill="none" stroke="black" points="715,-345 715,-367 856,-367 856,-345 715,-345"/>
<image xlink:href="../../images/foreignKeys.png" width="11px" height="12px" preserveAspectRatio="xMinYMin meet" x="720" y="-362"/>
<text text-anchor="start" x="735" y="-353.2" font-family="Helvetica,sans-Serif" font-size="11.00">b_sellerfunds_id</text>
<polygon fill="#ffffff" stroke="transparent" points="715,-323 715,-345 856,-345 856,-323 715,-323"/>
<polygon fill="none" stroke="black" points="715,-323 715,-345 856,-345 856,-323 715,-323"/>
<text text-anchor="start" x="735" y="-331.2" font-family="Helvetica,sans-Serif" font-size="11.00">b_offer_uu</text>
<polygon fill="none" stroke="black" points="715,-305 715,-323 856,-323 856,-305 715,-305"/>
<text text-anchor="start" x="718" y="-311.2" font-family="Helvetica,sans-Serif" font-size="11.00">...</text>
<polygon fill="#ffffff" stroke="transparent" points="715,-287 715,-305 770,-305 770,-287 715,-287"/>
<polygon fill="none" stroke="black" points="715,-287 715,-305 770,-305 770,-287 715,-287"/>
<text text-anchor="start" x="718" y="-293.2" font-family="Helvetica,sans-Serif" font-size="11.00">&lt; 4</text>
<polygon fill="#ffffff" stroke="transparent" points="770,-287 770,-305 826,-305 826,-287 770,-287"/>
<polygon fill="none" stroke="black" points="770,-287 770,-305 826,-305 826,-287 770,-287"/>
<text text-anchor="start" x="790" y="-293.2" font-family="Helvetica,sans-Serif" font-size="11.00">0 rows</text>
<polygon fill="#ffffff" stroke="transparent" points="826,-287 826,-305 856,-305 856,-287 826,-287"/>
<polygon fill="none" stroke="black" points="826,-287 826,-305 856,-305 856,-287 826,-287"/>
<text text-anchor="start" x="846" y="-293.2" font-family="Helvetica,sans-Serif" font-size="11.00"> &#160;</text>
</a>
</g>
</g>
<!-- b_offer&#45;&gt;b_topic -->
<g id="edge3" class="edge">
<title>b_offer:w&#45;&gt;b_topic:e</title>
<path fill="none" stroke="black" d="M699.73,-402.25C642.3,-423.58 745.74,-589 664.5,-589"/>
<polygon fill="black" stroke="black" points="706.1,-401.25 714.56,-403.56 710.05,-400.62 714,-400 714,-400 714,-400 710.05,-400.62 713.44,-396.44 706.1,-401.25 706.1,-401.25"/>
<ellipse fill="none" stroke="black" cx="702.94" cy="-401.75" rx="3.2" ry="3.2"/>
</g>
<!-- b_topiccategory&#45;&gt;b_topictype -->
<g id="edge6" class="edge">
<title>b_topiccategory:w&#45;&gt;b_topictype:e</title>
<path fill="none" stroke="black" d="M208.33,-136.9C196.32,-147.59 196.43,-172 175,-172"/>
<polygon fill="black" stroke="black" points="214.47,-134.7 223.22,-135.39 218.23,-133.35 222,-132 222,-132 222,-132 218.23,-133.35 220.78,-128.61 214.47,-134.7 214.47,-134.7"/>
<ellipse fill="none" stroke="black" cx="211.46" cy="-135.78" rx="3.2" ry="3.2"/>
</g>
</g>
</svg>
