<?xml version="1.0" encoding="UTF-8" standalone="no"?>
<!DOCTYPE svg PUBLIC "-//W3C//DTD SVG 1.1//EN"
 "http://www.w3.org/Graphics/SVG/1.1/DTD/svg11.dtd">
<!-- Generated by graphviz version 2.43.0 (0)
 -->
<!-- Title: oneDegreeRelationshipsDiagram Pages: 1 -->
<svg width="732pt" height="1644pt"
 viewBox="0.00 0.00 732.00 1644.00" xmlns="http://www.w3.org/2000/svg" xmlns:xlink="http://www.w3.org/1999/xlink">
<g id="graph0" class="graph" transform="scale(1 1) rotate(0) translate(4 1640)">
<title>oneDegreeRelationshipsDiagram</title>
<polygon fill="#ffffff" stroke="transparent" points="-4,4 -4,-1640 728,-1640 728,4 -4,4"/>
<text text-anchor="middle" x="71.5" y="-7.2" font-family="Helvetica,sans-Serif" font-size="11.00">Generated by SchemaSpy</text>
<!-- c_bpartner -->
<g id="node1" class="node">
<title>c_bpartner</title>
<g id="a_node1"><a xlink:href="../../tables/c_bpartner.html" xlink:title="c_bpartner" target="_top">
<polygon fill="#ffffff" stroke="transparent" points="259,-892 259,-1632 495,-1632 495,-892 259,-892"/>
<polygon fill="#f5f5f5" stroke="transparent" points="259,-1610 259,-1632 495,-1632 495,-1610 259,-1610"/>
<polygon fill="none" stroke="black" points="259,-1610 259,-1632 495,-1632 495,-1610 259,-1610"/>
<text text-anchor="start" x="264" y="-1619.2" font-family="Helvetica,sans-Serif" font-weight="bold" font-size="11.00">c_bpartner</text>
<text text-anchor="start" x="460" y="-1618.2" font-family="Helvetica,sans-Serif" font-size="11.00">[table]</text>
<polygon fill="none" stroke="black" points="259,-1588 259,-1610 495,-1610 495,-1588 259,-1588"/>
<image xlink:href="../../images/primaryKeys.png" width="11px" height="12px" preserveAspectRatio="xMinYMin meet" x="264" y="-1605"/>
<text text-anchor="start" x="279" y="-1596.2" font-family="Helvetica,sans-Serif" font-size="11.00">c_bpartner_id</text>
<polygon fill="#ffffff" stroke="transparent" points="259,-1566 259,-1588 495,-1588 495,-1566 259,-1566"/>
<polygon fill="none" stroke="black" points="259,-1566 259,-1588 495,-1588 495,-1566 259,-1566"/>
<image xlink:href="../../images/foreignKeys.png" width="11px" height="12px" preserveAspectRatio="xMinYMin meet" x="264" y="-1583"/>
<text text-anchor="start" x="279" y="-1574.2" font-family="Helvetica,sans-Serif" font-size="11.00">ad_client_id</text>
<polygon fill="none" stroke="black" points="259,-1544 259,-1566 495,-1566 495,-1544 259,-1544"/>
<image xlink:href="../../images/foreignKeys.png" width="11px" height="12px" preserveAspectRatio="xMinYMin meet" x="264" y="-1561"/>
<text text-anchor="start" x="279" y="-1552.2" font-family="Helvetica,sans-Serif" font-size="11.00">ad_org_id</text>
<polygon fill="#ffffff" stroke="transparent" points="259,-1522 259,-1544 495,-1544 495,-1522 259,-1522"/>
<polygon fill="none" stroke="black" points="259,-1522 259,-1544 495,-1544 495,-1522 259,-1522"/>
<text text-anchor="start" x="279" y="-1530.2" font-family="Helvetica,sans-Serif" font-size="11.00">value</text>
<polygon fill="#ffffff" stroke="transparent" points="259,-1500 259,-1522 495,-1522 495,-1500 259,-1500"/>
<polygon fill="none" stroke="black" points="259,-1500 259,-1522 495,-1522 495,-1500 259,-1500"/>
<text text-anchor="start" x="279" y="-1508.2" font-family="Helvetica,sans-Serif" font-size="11.00">name</text>
<polygon fill="none" stroke="black" points="259,-1478 259,-1500 495,-1500 495,-1478 259,-1478"/>
<image xlink:href="../../images/foreignKeys.png" width="11px" height="12px" preserveAspectRatio="xMinYMin meet" x="264" y="-1495"/>
<text text-anchor="start" x="279" y="-1486.2" font-family="Helvetica,sans-Serif" font-size="11.00">c_bp_group_id</text>
<polygon fill="none" stroke="black" points="259,-1456 259,-1478 495,-1478 495,-1456 259,-1456"/>
<image xlink:href="../../images/foreignKeys.png" width="11px" height="12px" preserveAspectRatio="xMinYMin meet" x="264" y="-1473"/>
<text text-anchor="start" x="279" y="-1464.2" font-family="Helvetica,sans-Serif" font-size="11.00">ad_language</text>
<polygon fill="none" stroke="black" points="259,-1434 259,-1456 495,-1456 495,-1434 259,-1434"/>
<image xlink:href="../../images/foreignKeys.png" width="11px" height="12px" preserveAspectRatio="xMinYMin meet" x="264" y="-1451"/>
<text text-anchor="start" x="279" y="-1442.2" font-family="Helvetica,sans-Serif" font-size="11.00">c_invoiceschedule_id</text>
<polygon fill="none" stroke="black" points="259,-1412 259,-1434 495,-1434 495,-1412 259,-1412"/>
<image xlink:href="../../images/foreignKeys.png" width="11px" height="12px" preserveAspectRatio="xMinYMin meet" x="264" y="-1429"/>
<text text-anchor="start" x="279" y="-1420.2" font-family="Helvetica,sans-Serif" font-size="11.00">c_paymentterm_id</text>
<polygon fill="none" stroke="black" points="259,-1390 259,-1412 495,-1412 495,-1390 259,-1390"/>
<image xlink:href="../../images/foreignKeys.png" width="11px" height="12px" preserveAspectRatio="xMinYMin meet" x="264" y="-1407"/>
<text text-anchor="start" x="279" y="-1398.2" font-family="Helvetica,sans-Serif" font-size="11.00">m_pricelist_id</text>
<polygon fill="none" stroke="black" points="259,-1368 259,-1390 495,-1390 495,-1368 259,-1368"/>
<image xlink:href="../../images/foreignKeys.png" width="11px" height="12px" preserveAspectRatio="xMinYMin meet" x="264" y="-1385"/>
<text text-anchor="start" x="279" y="-1376.2" font-family="Helvetica,sans-Serif" font-size="11.00">m_discountschema_id</text>
<polygon fill="none" stroke="black" points="259,-1346 259,-1368 495,-1368 495,-1346 259,-1346"/>
<image xlink:href="../../images/foreignKeys.png" width="11px" height="12px" preserveAspectRatio="xMinYMin meet" x="264" y="-1363"/>
<text text-anchor="start" x="279" y="-1354.2" font-family="Helvetica,sans-Serif" font-size="11.00">c_dunning_id</text>
<polygon fill="none" stroke="black" points="259,-1324 259,-1346 495,-1346 495,-1324 259,-1324"/>
<image xlink:href="../../images/foreignKeys.png" width="11px" height="12px" preserveAspectRatio="xMinYMin meet" x="264" y="-1341"/>
<text text-anchor="start" x="279" y="-1332.2" font-family="Helvetica,sans-Serif" font-size="11.00">po_pricelist_id</text>
<polygon fill="none" stroke="black" points="259,-1302 259,-1324 495,-1324 495,-1302 259,-1302"/>
<image xlink:href="../../images/foreignKeys.png" width="11px" height="12px" preserveAspectRatio="xMinYMin meet" x="264" y="-1319"/>
<text text-anchor="start" x="279" y="-1310.2" font-family="Helvetica,sans-Serif" font-size="11.00">po_discountschema_id</text>
<polygon fill="none" stroke="black" points="259,-1280 259,-1302 495,-1302 495,-1280 259,-1280"/>
<image xlink:href="../../images/foreignKeys.png" width="11px" height="12px" preserveAspectRatio="xMinYMin meet" x="264" y="-1297"/>
<text text-anchor="start" x="279" y="-1288.2" font-family="Helvetica,sans-Serif" font-size="11.00">po_paymentterm_id</text>
<polygon fill="none" stroke="black" points="259,-1258 259,-1280 495,-1280 495,-1258 259,-1258"/>
<image xlink:href="../../images/foreignKeys.png" width="11px" height="12px" preserveAspectRatio="xMinYMin meet" x="264" y="-1275"/>
<text text-anchor="start" x="279" y="-1266.2" font-family="Helvetica,sans-Serif" font-size="11.00">c_greeting_id</text>
<polygon fill="none" stroke="black" points="259,-1236 259,-1258 495,-1258 495,-1236 259,-1236"/>
<image xlink:href="../../images/foreignKeys.png" width="11px" height="12px" preserveAspectRatio="xMinYMin meet" x="264" y="-1253"/>
<text text-anchor="start" x="279" y="-1244.2" font-family="Helvetica,sans-Serif" font-size="11.00">salesrep_id</text>
<polygon fill="none" stroke="black" points="259,-1214 259,-1236 495,-1236 495,-1214 259,-1214"/>
<image xlink:href="../../images/foreignKeys.png" width="11px" height="12px" preserveAspectRatio="xMinYMin meet" x="264" y="-1231"/>
<text text-anchor="start" x="279" y="-1222.2" font-family="Helvetica,sans-Serif" font-size="11.00">bpartner_parent_id</text>
<polygon fill="none" stroke="black" points="259,-1192 259,-1214 495,-1214 495,-1192 259,-1192"/>
<image xlink:href="../../images/foreignKeys.png" width="11px" height="12px" preserveAspectRatio="xMinYMin meet" x="264" y="-1209"/>
<text text-anchor="start" x="279" y="-1200.2" font-family="Helvetica,sans-Serif" font-size="11.00">invoice_printformat_id</text>
<polygon fill="#ffffff" stroke="transparent" points="259,-1170 259,-1192 495,-1192 495,-1170 259,-1170"/>
<polygon fill="none" stroke="black" points="259,-1170 259,-1192 495,-1192 495,-1170 259,-1170"/>
<image xlink:href="../../images/foreignKeys.png" width="11px" height="12px" preserveAspectRatio="xMinYMin meet" x="264" y="-1187"/>
<text text-anchor="start" x="279" y="-1178.2" font-family="Helvetica,sans-Serif" font-size="11.00">ad_orgbp_id</text>
<polygon fill="none" stroke="black" points="259,-1148 259,-1170 495,-1170 495,-1148 259,-1148"/>
<image xlink:href="../../images/foreignKeys.png" width="11px" height="12px" preserveAspectRatio="xMinYMin meet" x="264" y="-1165"/>
<text text-anchor="start" x="279" y="-1156.2" font-family="Helvetica,sans-Serif" font-size="11.00">c_taxgroup_id</text>
<polygon fill="none" stroke="black" points="259,-1126 259,-1148 495,-1148 495,-1126 259,-1126"/>
<image xlink:href="../../images/foreignKeys.png" width="11px" height="12px" preserveAspectRatio="xMinYMin meet" x="264" y="-1143"/>
<text text-anchor="start" x="279" y="-1134.2" font-family="Helvetica,sans-Serif" font-size="11.00">logo_id</text>
<polygon fill="#ffffff" stroke="transparent" points="259,-1104 259,-1126 495,-1126 495,-1104 259,-1104"/>
<polygon fill="none" stroke="black" points="259,-1104 259,-1126 495,-1126 495,-1104 259,-1104"/>
<text text-anchor="start" x="279" y="-1112.2" font-family="Helvetica,sans-Serif" font-size="11.00">c_bpartner_uu</text>
<polygon fill="none" stroke="black" points="259,-1082 259,-1104 495,-1104 495,-1082 259,-1082"/>
<image xlink:href="../../images/foreignKeys.png" width="11px" height="12px" preserveAspectRatio="xMinYMin meet" x="264" y="-1099"/>
<text text-anchor="start" x="279" y="-1090.2" font-family="Helvetica,sans-Serif" font-size="11.00">default1099box_id</text>
<polygon fill="none" stroke="black" points="259,-1060 259,-1082 495,-1082 495,-1060 259,-1060"/>
<image xlink:href="../../images/foreignKeys.png" width="11px" height="12px" preserveAspectRatio="xMinYMin meet" x="264" y="-1077"/>
<text text-anchor="start" x="279" y="-1068.2" font-family="Helvetica,sans-Serif" font-size="11.00">cof_c_custody_id</text>
<polygon fill="none" stroke="black" points="259,-1038 259,-1060 495,-1060 495,-1038 259,-1038"/>
<image xlink:href="../../images/foreignKeys.png" width="11px" height="12px" preserveAspectRatio="xMinYMin meet" x="264" y="-1055"/>
<text text-anchor="start" x="279" y="-1046.2" font-family="Helvetica,sans-Serif" font-size="11.00">cof_doctypepurchase_id</text>
<polygon fill="none" stroke="black" points="259,-1016 259,-1038 495,-1038 495,-1016 259,-1016"/>
<image xlink:href="../../images/foreignKeys.png" width="11px" height="12px" preserveAspectRatio="xMinYMin meet" x="264" y="-1033"/>
<text text-anchor="start" x="279" y="-1024.2" font-family="Helvetica,sans-Serif" font-size="11.00">cof_doctypesale_id</text>
<polygon fill="none" stroke="black" points="259,-994 259,-1016 495,-1016 495,-994 259,-994"/>
<image xlink:href="../../images/foreignKeys.png" width="11px" height="12px" preserveAspectRatio="xMinYMin meet" x="264" y="-1011"/>
<text text-anchor="start" x="279" y="-1002.2" font-family="Helvetica,sans-Serif" font-size="11.00">cof_grupofornecedor_id</text>
<polygon fill="none" stroke="black" points="259,-972 259,-994 495,-994 495,-972 259,-972"/>
<image xlink:href="../../images/foreignKeys.png" width="11px" height="12px" preserveAspectRatio="xMinYMin meet" x="264" y="-989"/>
<text text-anchor="start" x="279" y="-980.2" font-family="Helvetica,sans-Serif" font-size="11.00">cof_vendedorinterno_id</text>
<polygon fill="none" stroke="black" points="259,-950 259,-972 495,-972 495,-950 259,-950"/>
<image xlink:href="../../images/foreignKeys.png" width="11px" height="12px" preserveAspectRatio="xMinYMin meet" x="264" y="-967"/>
<text text-anchor="start" x="279" y="-958.2" font-family="Helvetica,sans-Serif" font-size="11.00">cof_tipoparceiro_id</text>
<polygon fill="none" stroke="black" points="259,-928 259,-950 495,-950 495,-928 259,-928"/>
<image xlink:href="../../images/foreignKeys.png" width="11px" height="12px" preserveAspectRatio="xMinYMin meet" x="264" y="-945"/>
<text text-anchor="start" x="279" y="-936.2" font-family="Helvetica,sans-Serif" font-size="11.00">cof_classeparceiro_id</text>
<polygon fill="none" stroke="black" points="259,-910 259,-928 495,-928 495,-910 259,-910"/>
<text text-anchor="start" x="262" y="-916.2" font-family="Helvetica,sans-Serif" font-size="11.00">...</text>
<polygon fill="#ffffff" stroke="transparent" points="259,-892 259,-910 354,-910 354,-892 259,-892"/>
<polygon fill="none" stroke="black" points="259,-892 259,-910 354,-910 354,-892 259,-892"/>
<text text-anchor="start" x="262" y="-898.2" font-family="Helvetica,sans-Serif" font-size="11.00">&lt; 27</text>
<polygon fill="#ffffff" stroke="transparent" points="354,-892 354,-910 427,-910 427,-892 354,-892"/>
<polygon fill="none" stroke="black" points="354,-892 354,-910 427,-910 427,-892 354,-892"/>
<text text-anchor="start" x="391" y="-898.2" font-family="Helvetica,sans-Serif" font-size="11.00">4 rows</text>
<polygon fill="#ffffff" stroke="transparent" points="427,-892 427,-910 495,-910 495,-892 427,-892"/>
<polygon fill="none" stroke="black" points="427,-892 427,-910 495,-910 495,-892 427,-892"/>
<text text-anchor="start" x="464" y="-898.2" font-family="Helvetica,sans-Serif" font-size="11.00">164 &gt;</text>
</a>
</g>
</g>
<!-- c_1099box -->
<g id="node2" class="node">
<title>c_1099box</title>
<g id="a_node2"><a xlink:href="../../tables/c_1099box.html" xlink:title="c_1099box" target="_top">
<polygon fill="#ffffff" stroke="transparent" points="8,-37 8,-389 210,-389 210,-37 8,-37"/>
<polygon fill="#f5f5f5" stroke="transparent" points="10,-365 10,-387 208,-387 208,-365 10,-365"/>
<polygon fill="none" stroke="black" points="10,-365 10,-387 208,-387 208,-365 10,-365"/>
<text text-anchor="start" x="15" y="-374.2" font-family="Helvetica,sans-Serif" font-weight="bold" font-size="11.00">c_1099box</text>
<text text-anchor="start" x="173" y="-373.2" font-family="Helvetica,sans-Serif" font-size="11.00">[table]</text>
<polygon fill="none" stroke="black" points="10,-343 10,-365 125,-365 125,-343 10,-343"/>
<text text-anchor="start" x="30" y="-351.2" font-family="Helvetica,sans-Serif" font-size="11.00">ad_client_id</text>
<polygon fill="none" stroke="black" points="125,-343 125,-365 208,-365 208,-343 125,-343"/>
<text text-anchor="start" x="128" y="-351.2" font-family="Helvetica,sans-Serif" font-size="11.00">numeric[10]</text>
<polygon fill="none" stroke="black" points="10,-321 10,-343 125,-343 125,-321 10,-321"/>
<text text-anchor="start" x="30" y="-329.2" font-family="Helvetica,sans-Serif" font-size="11.00">ad_org_id</text>
<polygon fill="none" stroke="black" points="125,-321 125,-343 208,-343 208,-321 125,-321"/>
<text text-anchor="start" x="128" y="-329.2" font-family="Helvetica,sans-Serif" font-size="11.00">numeric[10]</text>
<polygon fill="none" stroke="black" points="10,-299 10,-321 125,-321 125,-299 10,-299"/>
<image xlink:href="../../images/primaryKeys.png" width="11px" height="12px" preserveAspectRatio="xMinYMin meet" x="15" y="-316"/>
<text text-anchor="start" x="30" y="-307.2" font-family="Helvetica,sans-Serif" font-size="11.00">c_1099box_id</text>
<polygon fill="none" stroke="black" points="125,-299 125,-321 208,-321 208,-299 125,-299"/>
<text text-anchor="start" x="128" y="-307.2" font-family="Helvetica,sans-Serif" font-size="11.00">numeric[10]</text>
<polygon fill="#ffffff" stroke="transparent" points="10,-277 10,-299 125,-299 125,-277 10,-277"/>
<polygon fill="none" stroke="black" points="10,-277 10,-299 125,-299 125,-277 10,-277"/>
<text text-anchor="start" x="30" y="-285.2" font-family="Helvetica,sans-Serif" font-size="11.00">c_1099box_uu</text>
<polygon fill="none" stroke="black" points="125,-277 125,-299 208,-299 208,-277 125,-277"/>
<text text-anchor="start" x="128" y="-285.2" font-family="Helvetica,sans-Serif" font-size="11.00">varchar[36]</text>
<polygon fill="none" stroke="black" points="10,-255 10,-277 125,-277 125,-255 10,-255"/>
<text text-anchor="start" x="30" y="-263.2" font-family="Helvetica,sans-Serif" font-size="11.00">bucket</text>
<polygon fill="none" stroke="black" points="125,-255 125,-277 208,-277 208,-255 125,-255"/>
<text text-anchor="start" x="128" y="-263.2" font-family="Helvetica,sans-Serif" font-size="11.00">numeric[10]</text>
<polygon fill="none" stroke="black" points="10,-233 10,-255 125,-255 125,-233 10,-233"/>
<text text-anchor="start" x="30" y="-241.2" font-family="Helvetica,sans-Serif" font-size="11.00">created</text>
<polygon fill="none" stroke="black" points="125,-233 125,-255 208,-255 208,-233 125,-233"/>
<text text-anchor="start" x="128" y="-241.2" font-family="Helvetica,sans-Serif" font-size="11.00">timestamp[29,6]</text>
<polygon fill="none" stroke="black" points="10,-211 10,-233 125,-233 125,-211 10,-211"/>
<text text-anchor="start" x="30" y="-219.2" font-family="Helvetica,sans-Serif" font-size="11.00">createdby</text>
<polygon fill="none" stroke="black" points="125,-211 125,-233 208,-233 208,-211 125,-211"/>
<text text-anchor="start" x="128" y="-219.2" font-family="Helvetica,sans-Serif" font-size="11.00">numeric[10]</text>
<polygon fill="none" stroke="black" points="10,-189 10,-211 125,-211 125,-189 10,-189"/>
<text text-anchor="start" x="30" y="-197.2" font-family="Helvetica,sans-Serif" font-size="11.00">description</text>
<polygon fill="none" stroke="black" points="125,-189 125,-211 208,-211 208,-189 125,-189"/>
<text text-anchor="start" x="128" y="-197.2" font-family="Helvetica,sans-Serif" font-size="11.00">varchar[255]</text>
<polygon fill="none" stroke="black" points="10,-167 10,-189 125,-189 125,-167 10,-167"/>
<text text-anchor="start" x="30" y="-175.2" font-family="Helvetica,sans-Serif" font-size="11.00">help</text>
<polygon fill="none" stroke="black" points="125,-167 125,-189 208,-189 208,-167 125,-167"/>
<text text-anchor="start" x="128" y="-175.2" font-family="Helvetica,sans-Serif" font-size="11.00">varchar[2000]</text>
<polygon fill="none" stroke="black" points="10,-145 10,-167 125,-167 125,-145 10,-145"/>
<text text-anchor="start" x="30" y="-153.2" font-family="Helvetica,sans-Serif" font-size="11.00">isactive</text>
<polygon fill="none" stroke="black" points="125,-145 125,-167 208,-167 208,-145 125,-145"/>
<text text-anchor="start" x="128" y="-153.2" font-family="Helvetica,sans-Serif" font-size="11.00">bpchar[1]</text>
<polygon fill="none" stroke="black" points="10,-123 10,-145 125,-145 125,-123 10,-123"/>
<text text-anchor="start" x="30" y="-131.2" font-family="Helvetica,sans-Serif" font-size="11.00">name</text>
<polygon fill="none" stroke="black" points="125,-123 125,-145 208,-145 208,-123 125,-123"/>
<text text-anchor="start" x="128" y="-131.2" font-family="Helvetica,sans-Serif" font-size="11.00">varchar[60]</text>
<polygon fill="none" stroke="black" points="10,-101 10,-123 125,-123 125,-101 10,-101"/>
<text text-anchor="start" x="30" y="-109.2" font-family="Helvetica,sans-Serif" font-size="11.00">updated</text>
<polygon fill="none" stroke="black" points="125,-101 125,-123 208,-123 208,-101 125,-101"/>
<text text-anchor="start" x="128" y="-109.2" font-family="Helvetica,sans-Serif" font-size="11.00">timestamp[29,6]</text>
<polygon fill="none" stroke="black" points="10,-79 10,-101 125,-101 125,-79 10,-79"/>
<text text-anchor="start" x="30" y="-87.2" font-family="Helvetica,sans-Serif" font-size="11.00">updatedby</text>
<polygon fill="none" stroke="black" points="125,-79 125,-101 208,-101 208,-79 125,-79"/>
<text text-anchor="start" x="128" y="-87.2" font-family="Helvetica,sans-Serif" font-size="11.00">numeric[10]</text>
<polygon fill="none" stroke="black" points="10,-57 10,-79 125,-79 125,-57 10,-57"/>
<text text-anchor="start" x="30" y="-65.2" font-family="Helvetica,sans-Serif" font-size="11.00">value</text>
<polygon fill="none" stroke="black" points="125,-57 125,-79 208,-79 208,-57 125,-57"/>
<text text-anchor="start" x="128" y="-65.2" font-family="Helvetica,sans-Serif" font-size="11.00">varchar[40]</text>
<polygon fill="#ffffff" stroke="transparent" points="10,-39 10,-57 59,-57 59,-39 10,-39"/>
<polygon fill="none" stroke="black" points="10,-39 10,-57 59,-57 59,-39 10,-39"/>
<text text-anchor="start" x="13" y="-45.2" font-family="Helvetica,sans-Serif" font-size="11.00">&lt; 0</text>
<polygon fill="#ffffff" stroke="transparent" points="59,-39 59,-57 125,-57 125,-39 59,-39"/>
<polygon fill="none" stroke="black" points="59,-39 59,-57 125,-57 125,-39 59,-39"/>
<text text-anchor="start" x="89" y="-45.2" font-family="Helvetica,sans-Serif" font-size="11.00">0 rows</text>
<polygon fill="#ffffff" stroke="transparent" points="125,-39 125,-57 208,-57 208,-39 125,-39"/>
<polygon fill="none" stroke="black" points="125,-39 125,-57 208,-57 208,-39 125,-39"/>
<text text-anchor="start" x="189" y="-45.2" font-family="Helvetica,sans-Serif" font-size="11.00">3 &gt;</text>
<polygon fill="none" stroke="black" stroke-width="2" points="9,-38 9,-388 209,-388 209,-38 9,-38"/>
</a>
</g>
</g>
<!-- c_bpartner&#45;&gt;c_1099box -->
<g id="edge1" class="edge">
<title>c_bpartner:w&#45;&gt;c_1099box:e</title>
<path fill="none" stroke="black" d="M245.16,-1085.75C184.35,-1006.81 291.23,-310 209,-310"/>
<polygon fill="black" stroke="black" points="251.03,-1089.07 256.23,-1096.13 254.52,-1091.03 258,-1093 258,-1093 258,-1093 254.52,-1091.03 259.77,-1089.87 251.03,-1089.07 251.03,-1089.07"/>
<ellipse fill="none" stroke="black" cx="248.25" cy="-1087.49" rx="3.2" ry="3.2"/>
</g>
<!-- c_invoiceline -->
<g id="node3" class="node">
<title>c_invoiceline</title>
<g id="a_node3"><a xlink:href="../../tables/c_invoiceline.html" xlink:title="c_invoiceline" target="_top">
<polygon fill="#ffffff" stroke="transparent" points="259.5,-131 259.5,-871 494.5,-871 494.5,-131 259.5,-131"/>
<polygon fill="#f5f5f5" stroke="transparent" points="260,-849 260,-871 495,-871 495,-849 260,-849"/>
<polygon fill="none" stroke="black" points="260,-849 260,-871 495,-871 495,-849 260,-849"/>
<text text-anchor="start" x="265" y="-858.2" font-family="Helvetica,sans-Serif" font-weight="bold" font-size="11.00">c_invoiceline</text>
<text text-anchor="start" x="460" y="-857.2" font-family="Helvetica,sans-Serif" font-size="11.00">[table]</text>
<polygon fill="none" stroke="black" points="260,-827 260,-849 495,-849 495,-827 260,-827"/>
<image xlink:href="../../images/primaryKeys.png" width="11px" height="12px" preserveAspectRatio="xMinYMin meet" x="265" y="-844"/>
<text text-anchor="start" x="280" y="-835.2" font-family="Helvetica,sans-Serif" font-size="11.00">c_invoiceline_id</text>
<polygon fill="none" stroke="black" points="260,-805 260,-827 495,-827 495,-805 260,-805"/>
<image xlink:href="../../images/foreignKeys.png" width="11px" height="12px" preserveAspectRatio="xMinYMin meet" x="265" y="-822"/>
<text text-anchor="start" x="280" y="-813.2" font-family="Helvetica,sans-Serif" font-size="11.00">ad_org_id</text>
<polygon fill="#ffffff" stroke="transparent" points="260,-783 260,-805 495,-805 495,-783 260,-783"/>
<polygon fill="none" stroke="black" points="260,-783 260,-805 495,-805 495,-783 260,-783"/>
<image xlink:href="../../images/foreignKeys.png" width="11px" height="12px" preserveAspectRatio="xMinYMin meet" x="265" y="-800"/>
<text text-anchor="start" x="280" y="-791.2" font-family="Helvetica,sans-Serif" font-size="11.00">c_invoice_id</text>
<polygon fill="#ffffff" stroke="transparent" points="260,-761 260,-783 495,-783 495,-761 260,-761"/>
<polygon fill="none" stroke="black" points="260,-761 260,-783 495,-783 495,-761 260,-761"/>
<image xlink:href="../../images/foreignKeys.png" width="11px" height="12px" preserveAspectRatio="xMinYMin meet" x="265" y="-778"/>
<text text-anchor="start" x="280" y="-769.2" font-family="Helvetica,sans-Serif" font-size="11.00">c_orderline_id</text>
<polygon fill="none" stroke="black" points="260,-739 260,-761 495,-761 495,-739 260,-739"/>
<image xlink:href="../../images/foreignKeys.png" width="11px" height="12px" preserveAspectRatio="xMinYMin meet" x="265" y="-756"/>
<text text-anchor="start" x="280" y="-747.2" font-family="Helvetica,sans-Serif" font-size="11.00">m_inoutline_id</text>
<polygon fill="#ffffff" stroke="transparent" points="260,-717 260,-739 495,-739 495,-717 260,-717"/>
<polygon fill="none" stroke="black" points="260,-717 260,-739 495,-739 495,-717 260,-717"/>
<image xlink:href="../../images/foreignKeys.png" width="11px" height="12px" preserveAspectRatio="xMinYMin meet" x="265" y="-734"/>
<text text-anchor="start" x="280" y="-725.2" font-family="Helvetica,sans-Serif" font-size="11.00">m_product_id</text>
<polygon fill="none" stroke="black" points="260,-695 260,-717 495,-717 495,-695 260,-695"/>
<image xlink:href="../../images/foreignKeys.png" width="11px" height="12px" preserveAspectRatio="xMinYMin meet" x="265" y="-712"/>
<text text-anchor="start" x="280" y="-703.2" font-family="Helvetica,sans-Serif" font-size="11.00">c_charge_id</text>
<polygon fill="none" stroke="black" points="260,-673 260,-695 495,-695 495,-673 260,-673"/>
<image xlink:href="../../images/foreignKeys.png" width="11px" height="12px" preserveAspectRatio="xMinYMin meet" x="265" y="-690"/>
<text text-anchor="start" x="280" y="-681.2" font-family="Helvetica,sans-Serif" font-size="11.00">c_uom_id</text>
<polygon fill="none" stroke="black" points="260,-651 260,-673 495,-673 495,-651 260,-651"/>
<image xlink:href="../../images/foreignKeys.png" width="11px" height="12px" preserveAspectRatio="xMinYMin meet" x="265" y="-668"/>
<text text-anchor="start" x="280" y="-659.2" font-family="Helvetica,sans-Serif" font-size="11.00">c_tax_id</text>
<polygon fill="none" stroke="black" points="260,-629 260,-651 495,-651 495,-629 260,-629"/>
<image xlink:href="../../images/foreignKeys.png" width="11px" height="12px" preserveAspectRatio="xMinYMin meet" x="265" y="-646"/>
<text text-anchor="start" x="280" y="-637.2" font-family="Helvetica,sans-Serif" font-size="11.00">s_resourceassignment_id</text>
<polygon fill="none" stroke="black" points="260,-607 260,-629 495,-629 495,-607 260,-607"/>
<image xlink:href="../../images/foreignKeys.png" width="11px" height="12px" preserveAspectRatio="xMinYMin meet" x="265" y="-624"/>
<text text-anchor="start" x="280" y="-615.2" font-family="Helvetica,sans-Serif" font-size="11.00">a_asset_id</text>
<polygon fill="none" stroke="black" points="260,-585 260,-607 495,-607 495,-585 260,-585"/>
<image xlink:href="../../images/foreignKeys.png" width="11px" height="12px" preserveAspectRatio="xMinYMin meet" x="265" y="-602"/>
<text text-anchor="start" x="280" y="-593.2" font-family="Helvetica,sans-Serif" font-size="11.00">m_attributesetinstance_id</text>
<polygon fill="none" stroke="black" points="260,-563 260,-585 495,-585 495,-563 260,-563"/>
<image xlink:href="../../images/foreignKeys.png" width="11px" height="12px" preserveAspectRatio="xMinYMin meet" x="265" y="-580"/>
<text text-anchor="start" x="280" y="-571.2" font-family="Helvetica,sans-Serif" font-size="11.00">ref_invoiceline_id</text>
<polygon fill="none" stroke="black" points="260,-541 260,-563 495,-563 495,-541 260,-541"/>
<image xlink:href="../../images/foreignKeys.png" width="11px" height="12px" preserveAspectRatio="xMinYMin meet" x="265" y="-558"/>
<text text-anchor="start" x="280" y="-549.2" font-family="Helvetica,sans-Serif" font-size="11.00">c_project_id</text>
<polygon fill="none" stroke="black" points="260,-519 260,-541 495,-541 495,-519 260,-519"/>
<image xlink:href="../../images/foreignKeys.png" width="11px" height="12px" preserveAspectRatio="xMinYMin meet" x="265" y="-536"/>
<text text-anchor="start" x="280" y="-527.2" font-family="Helvetica,sans-Serif" font-size="11.00">c_projectphase_id</text>
<polygon fill="none" stroke="black" points="260,-497 260,-519 495,-519 495,-497 260,-497"/>
<image xlink:href="../../images/foreignKeys.png" width="11px" height="12px" preserveAspectRatio="xMinYMin meet" x="265" y="-514"/>
<text text-anchor="start" x="280" y="-505.2" font-family="Helvetica,sans-Serif" font-size="11.00">c_projecttask_id</text>
<polygon fill="none" stroke="black" points="260,-475 260,-497 495,-497 495,-475 260,-475"/>
<image xlink:href="../../images/foreignKeys.png" width="11px" height="12px" preserveAspectRatio="xMinYMin meet" x="265" y="-492"/>
<text text-anchor="start" x="280" y="-483.2" font-family="Helvetica,sans-Serif" font-size="11.00">c_campaign_id</text>
<polygon fill="none" stroke="black" points="260,-453 260,-475 495,-475 495,-453 260,-453"/>
<image xlink:href="../../images/foreignKeys.png" width="11px" height="12px" preserveAspectRatio="xMinYMin meet" x="265" y="-470"/>
<text text-anchor="start" x="280" y="-461.2" font-family="Helvetica,sans-Serif" font-size="11.00">c_activity_id</text>
<polygon fill="none" stroke="black" points="260,-431 260,-453 495,-453 495,-431 260,-431"/>
<image xlink:href="../../images/foreignKeys.png" width="11px" height="12px" preserveAspectRatio="xMinYMin meet" x="265" y="-448"/>
<text text-anchor="start" x="280" y="-439.2" font-family="Helvetica,sans-Serif" font-size="11.00">user1_id</text>
<polygon fill="none" stroke="black" points="260,-409 260,-431 495,-431 495,-409 260,-409"/>
<image xlink:href="../../images/foreignKeys.png" width="11px" height="12px" preserveAspectRatio="xMinYMin meet" x="265" y="-426"/>
<text text-anchor="start" x="280" y="-417.2" font-family="Helvetica,sans-Serif" font-size="11.00">user2_id</text>
<polygon fill="none" stroke="black" points="260,-387 260,-409 495,-409 495,-387 260,-387"/>
<image xlink:href="../../images/foreignKeys.png" width="11px" height="12px" preserveAspectRatio="xMinYMin meet" x="265" y="-404"/>
<text text-anchor="start" x="280" y="-395.2" font-family="Helvetica,sans-Serif" font-size="11.00">ad_orgtrx_id</text>
<polygon fill="none" stroke="black" points="260,-365 260,-387 495,-387 495,-365 260,-365"/>
<image xlink:href="../../images/foreignKeys.png" width="11px" height="12px" preserveAspectRatio="xMinYMin meet" x="265" y="-382"/>
<text text-anchor="start" x="280" y="-373.2" font-family="Helvetica,sans-Serif" font-size="11.00">m_rmaline_id</text>
<polygon fill="none" stroke="black" points="260,-343 260,-365 495,-365 495,-343 260,-343"/>
<image xlink:href="../../images/foreignKeys.png" width="11px" height="12px" preserveAspectRatio="xMinYMin meet" x="265" y="-360"/>
<text text-anchor="start" x="280" y="-351.2" font-family="Helvetica,sans-Serif" font-size="11.00">a_asset_group_id</text>
<polygon fill="#ffffff" stroke="transparent" points="260,-321 260,-343 495,-343 495,-321 260,-321"/>
<polygon fill="none" stroke="black" points="260,-321 260,-343 495,-343 495,-321 260,-321"/>
<text text-anchor="start" x="280" y="-329.2" font-family="Helvetica,sans-Serif" font-size="11.00">c_invoiceline_uu</text>
<polygon fill="none" stroke="black" points="260,-299 260,-321 495,-321 495,-299 260,-299"/>
<image xlink:href="../../images/foreignKeys.png" width="11px" height="12px" preserveAspectRatio="xMinYMin meet" x="265" y="-316"/>
<text text-anchor="start" x="280" y="-307.2" font-family="Helvetica,sans-Serif" font-size="11.00">c_1099box_id</text>
<polygon fill="none" stroke="black" points="260,-277 260,-299 495,-299 495,-277 260,-277"/>
<image xlink:href="../../images/foreignKeys.png" width="11px" height="12px" preserveAspectRatio="xMinYMin meet" x="265" y="-294"/>
<text text-anchor="start" x="280" y="-285.2" font-family="Helvetica,sans-Serif" font-size="11.00">lbr_cfop_id</text>
<polygon fill="none" stroke="black" points="260,-255 260,-277 495,-277 495,-255 260,-255"/>
<image xlink:href="../../images/foreignKeys.png" width="11px" height="12px" preserveAspectRatio="xMinYMin meet" x="265" y="-272"/>
<text text-anchor="start" x="280" y="-263.2" font-family="Helvetica,sans-Serif" font-size="11.00">lbr_legalmessage_id</text>
<polygon fill="none" stroke="black" points="260,-233 260,-255 495,-255 495,-233 260,-233"/>
<image xlink:href="../../images/foreignKeys.png" width="11px" height="12px" preserveAspectRatio="xMinYMin meet" x="265" y="-250"/>
<text text-anchor="start" x="280" y="-241.2" font-family="Helvetica,sans-Serif" font-size="11.00">cof_invoiceline_id</text>
<polygon fill="none" stroke="black" points="260,-211 260,-233 495,-233 495,-211 260,-211"/>
<image xlink:href="../../images/foreignKeys.png" width="11px" height="12px" preserveAspectRatio="xMinYMin meet" x="265" y="-228"/>
<text text-anchor="start" x="280" y="-219.2" font-family="Helvetica,sans-Serif" font-size="11.00">cof_products_id</text>
<polygon fill="none" stroke="black" points="260,-189 260,-211 495,-211 495,-189 260,-189"/>
<image xlink:href="../../images/foreignKeys.png" width="11px" height="12px" preserveAspectRatio="xMinYMin meet" x="265" y="-206"/>
<text text-anchor="start" x="280" y="-197.2" font-family="Helvetica,sans-Serif" font-size="11.00">cof_linhaopindusprestador_id</text>
<polygon fill="none" stroke="black" points="260,-167 260,-189 495,-189 495,-167 260,-167"/>
<image xlink:href="../../images/foreignKeys.png" width="11px" height="12px" preserveAspectRatio="xMinYMin meet" x="265" y="-184"/>
<text text-anchor="start" x="280" y="-175.2" font-family="Helvetica,sans-Serif" font-size="11.00">cof_linhaopmataplicadoprest_id</text>
<polygon fill="none" stroke="black" points="260,-149 260,-167 495,-167 495,-149 260,-149"/>
<text text-anchor="start" x="263" y="-155.2" font-family="Helvetica,sans-Serif" font-size="11.00">...</text>
<polygon fill="#ffffff" stroke="transparent" points="260,-131 260,-149 358,-149 358,-131 260,-131"/>
<polygon fill="none" stroke="black" points="260,-131 260,-149 358,-149 358,-131 260,-131"/>
<text text-anchor="start" x="263" y="-137.2" font-family="Helvetica,sans-Serif" font-size="11.00">&lt; 28</text>
<polygon fill="#ffffff" stroke="transparent" points="358,-131 358,-149 432,-149 432,-131 358,-131"/>
<polygon fill="none" stroke="black" points="358,-131 358,-149 432,-149 432,-131 358,-131"/>
<text text-anchor="start" x="396" y="-137.2" font-family="Helvetica,sans-Serif" font-size="11.00">0 rows</text>
<polygon fill="#ffffff" stroke="transparent" points="432,-131 432,-149 495,-149 495,-131 432,-131"/>
<polygon fill="none" stroke="black" points="432,-131 432,-149 495,-149 495,-131 432,-131"/>
<text text-anchor="start" x="470" y="-137.2" font-family="Helvetica,sans-Serif" font-size="11.00">21 &gt;</text>
</a>
</g>
</g>
<!-- c_invoiceline&#45;&gt;c_1099box -->
<g id="edge2" class="edge">
<title>c_invoiceline:w&#45;&gt;c_1099box:e</title>
<path fill="none" stroke="black" d="M244.56,-310C232.81,-310 225.49,-310 209,-310"/>
<polygon fill="black" stroke="black" points="251,-310 259,-313.6 255,-310 259,-310 259,-310 259,-310 255,-310 259,-306.4 251,-310 251,-310"/>
<ellipse fill="none" stroke="black" cx="247.8" cy="-310" rx="3.2" ry="3.2"/>
</g>
<!-- i_invoice -->
<g id="node4" class="node">
<title>i_invoice</title>
<g id="a_node4"><a xlink:href="../../tables/i_invoice.html" xlink:title="i_invoice" target="_top">
<polygon fill="#ffffff" stroke="transparent" points="544,-681 544,-1311 716,-1311 716,-681 544,-681"/>
<polygon fill="#f5f5f5" stroke="transparent" points="544,-1289 544,-1311 716,-1311 716,-1289 544,-1289"/>
<polygon fill="none" stroke="black" points="544,-1289 544,-1311 716,-1311 716,-1289 544,-1289"/>
<text text-anchor="start" x="549" y="-1298.2" font-family="Helvetica,sans-Serif" font-weight="bold" font-size="11.00">i_invoice</text>
<text text-anchor="start" x="681" y="-1297.2" font-family="Helvetica,sans-Serif" font-size="11.00">[table]</text>
<polygon fill="none" stroke="black" points="544,-1267 544,-1289 716,-1289 716,-1267 544,-1267"/>
<image xlink:href="../../images/primaryKeys.png" width="11px" height="12px" preserveAspectRatio="xMinYMin meet" x="549" y="-1284"/>
<text text-anchor="start" x="564" y="-1275.2" font-family="Helvetica,sans-Serif" font-size="11.00">i_invoice_id</text>
<polygon fill="none" stroke="black" points="544,-1245 544,-1267 716,-1267 716,-1245 544,-1245"/>
<image xlink:href="../../images/foreignKeys.png" width="11px" height="12px" preserveAspectRatio="xMinYMin meet" x="549" y="-1262"/>
<text text-anchor="start" x="564" y="-1253.2" font-family="Helvetica,sans-Serif" font-size="11.00">ad_org_id</text>
<polygon fill="none" stroke="black" points="544,-1223 544,-1245 716,-1245 716,-1223 544,-1223"/>
<image xlink:href="../../images/foreignKeys.png" width="11px" height="12px" preserveAspectRatio="xMinYMin meet" x="549" y="-1240"/>
<text text-anchor="start" x="564" y="-1231.2" font-family="Helvetica,sans-Serif" font-size="11.00">ad_orgtrx_id</text>
<polygon fill="none" stroke="black" points="544,-1201 544,-1223 716,-1223 716,-1201 544,-1201"/>
<image xlink:href="../../images/foreignKeys.png" width="11px" height="12px" preserveAspectRatio="xMinYMin meet" x="549" y="-1218"/>
<text text-anchor="start" x="564" y="-1209.2" font-family="Helvetica,sans-Serif" font-size="11.00">m_pricelist_id</text>
<polygon fill="none" stroke="black" points="544,-1179 544,-1201 716,-1201 716,-1179 544,-1179"/>
<image xlink:href="../../images/foreignKeys.png" width="11px" height="12px" preserveAspectRatio="xMinYMin meet" x="549" y="-1196"/>
<text text-anchor="start" x="564" y="-1187.2" font-family="Helvetica,sans-Serif" font-size="11.00">c_currency_id</text>
<polygon fill="none" stroke="black" points="544,-1157 544,-1179 716,-1179 716,-1157 544,-1157"/>
<image xlink:href="../../images/foreignKeys.png" width="11px" height="12px" preserveAspectRatio="xMinYMin meet" x="549" y="-1174"/>
<text text-anchor="start" x="564" y="-1165.2" font-family="Helvetica,sans-Serif" font-size="11.00">salesrep_id</text>
<polygon fill="none" stroke="black" points="544,-1135 544,-1157 716,-1157 716,-1135 544,-1135"/>
<image xlink:href="../../images/foreignKeys.png" width="11px" height="12px" preserveAspectRatio="xMinYMin meet" x="549" y="-1152"/>
<text text-anchor="start" x="564" y="-1143.2" font-family="Helvetica,sans-Serif" font-size="11.00">c_bpartner_id</text>
<polygon fill="none" stroke="black" points="544,-1113 544,-1135 716,-1135 716,-1113 544,-1113"/>
<image xlink:href="../../images/foreignKeys.png" width="11px" height="12px" preserveAspectRatio="xMinYMin meet" x="549" y="-1130"/>
<text text-anchor="start" x="564" y="-1121.2" font-family="Helvetica,sans-Serif" font-size="11.00">c_bpartner_location_id</text>
<polygon fill="none" stroke="black" points="544,-1091 544,-1113 716,-1113 716,-1091 544,-1091"/>
<image xlink:href="../../images/foreignKeys.png" width="11px" height="12px" preserveAspectRatio="xMinYMin meet" x="549" y="-1108"/>
<text text-anchor="start" x="564" y="-1099.2" font-family="Helvetica,sans-Serif" font-size="11.00">c_location_id</text>
<polygon fill="none" stroke="black" points="544,-1069 544,-1091 716,-1091 716,-1069 544,-1069"/>
<image xlink:href="../../images/foreignKeys.png" width="11px" height="12px" preserveAspectRatio="xMinYMin meet" x="549" y="-1086"/>
<text text-anchor="start" x="564" y="-1077.2" font-family="Helvetica,sans-Serif" font-size="11.00">c_region_id</text>
<polygon fill="none" stroke="black" points="544,-1047 544,-1069 716,-1069 716,-1047 544,-1047"/>
<image xlink:href="../../images/foreignKeys.png" width="11px" height="12px" preserveAspectRatio="xMinYMin meet" x="549" y="-1064"/>
<text text-anchor="start" x="564" y="-1055.2" font-family="Helvetica,sans-Serif" font-size="11.00">ad_user_id</text>
<polygon fill="none" stroke="black" points="544,-1025 544,-1047 716,-1047 716,-1025 544,-1025"/>
<image xlink:href="../../images/foreignKeys.png" width="11px" height="12px" preserveAspectRatio="xMinYMin meet" x="549" y="-1042"/>
<text text-anchor="start" x="564" y="-1033.2" font-family="Helvetica,sans-Serif" font-size="11.00">c_country_id</text>
<polygon fill="none" stroke="black" points="544,-1003 544,-1025 716,-1025 716,-1003 544,-1003"/>
<image xlink:href="../../images/foreignKeys.png" width="11px" height="12px" preserveAspectRatio="xMinYMin meet" x="549" y="-1020"/>
<text text-anchor="start" x="564" y="-1011.2" font-family="Helvetica,sans-Serif" font-size="11.00">c_doctype_id</text>
<polygon fill="none" stroke="black" points="544,-981 544,-1003 716,-1003 716,-981 544,-981"/>
<image xlink:href="../../images/foreignKeys.png" width="11px" height="12px" preserveAspectRatio="xMinYMin meet" x="549" y="-998"/>
<text text-anchor="start" x="564" y="-989.2" font-family="Helvetica,sans-Serif" font-size="11.00">c_paymentterm_id</text>
<polygon fill="none" stroke="black" points="544,-959 544,-981 716,-981 716,-959 544,-959"/>
<image xlink:href="../../images/foreignKeys.png" width="11px" height="12px" preserveAspectRatio="xMinYMin meet" x="549" y="-976"/>
<text text-anchor="start" x="564" y="-967.2" font-family="Helvetica,sans-Serif" font-size="11.00">c_project_id</text>
<polygon fill="none" stroke="black" points="544,-937 544,-959 716,-959 716,-937 544,-937"/>
<image xlink:href="../../images/foreignKeys.png" width="11px" height="12px" preserveAspectRatio="xMinYMin meet" x="549" y="-954"/>
<text text-anchor="start" x="564" y="-945.2" font-family="Helvetica,sans-Serif" font-size="11.00">c_campaign_id</text>
<polygon fill="none" stroke="black" points="544,-915 544,-937 716,-937 716,-915 544,-915"/>
<image xlink:href="../../images/foreignKeys.png" width="11px" height="12px" preserveAspectRatio="xMinYMin meet" x="549" y="-932"/>
<text text-anchor="start" x="564" y="-923.2" font-family="Helvetica,sans-Serif" font-size="11.00">c_activity_id</text>
<polygon fill="none" stroke="black" points="544,-893 544,-915 716,-915 716,-893 544,-893"/>
<image xlink:href="../../images/foreignKeys.png" width="11px" height="12px" preserveAspectRatio="xMinYMin meet" x="549" y="-910"/>
<text text-anchor="start" x="564" y="-901.2" font-family="Helvetica,sans-Serif" font-size="11.00">c_invoice_id</text>
<polygon fill="none" stroke="black" points="544,-871 544,-893 716,-893 716,-871 544,-871"/>
<image xlink:href="../../images/foreignKeys.png" width="11px" height="12px" preserveAspectRatio="xMinYMin meet" x="549" y="-888"/>
<text text-anchor="start" x="564" y="-879.2" font-family="Helvetica,sans-Serif" font-size="11.00">m_product_id</text>
<polygon fill="none" stroke="black" points="544,-849 544,-871 716,-871 716,-849 544,-849"/>
<image xlink:href="../../images/foreignKeys.png" width="11px" height="12px" preserveAspectRatio="xMinYMin meet" x="549" y="-866"/>
<text text-anchor="start" x="564" y="-857.2" font-family="Helvetica,sans-Serif" font-size="11.00">c_tax_id</text>
<polygon fill="none" stroke="black" points="544,-827 544,-849 716,-849 716,-827 544,-827"/>
<image xlink:href="../../images/foreignKeys.png" width="11px" height="12px" preserveAspectRatio="xMinYMin meet" x="549" y="-844"/>
<text text-anchor="start" x="564" y="-835.2" font-family="Helvetica,sans-Serif" font-size="11.00">c_invoiceline_id</text>
<polygon fill="none" stroke="black" points="544,-805 544,-827 716,-827 716,-805 544,-805"/>
<image xlink:href="../../images/foreignKeys.png" width="11px" height="12px" preserveAspectRatio="xMinYMin meet" x="549" y="-822"/>
<text text-anchor="start" x="564" y="-813.2" font-family="Helvetica,sans-Serif" font-size="11.00">c_charge_id</text>
<polygon fill="#ffffff" stroke="transparent" points="544,-783 544,-805 716,-805 716,-783 544,-783"/>
<polygon fill="none" stroke="black" points="544,-783 544,-805 716,-805 716,-783 544,-783"/>
<text text-anchor="start" x="564" y="-791.2" font-family="Helvetica,sans-Serif" font-size="11.00">i_invoice_uu</text>
<polygon fill="none" stroke="black" points="544,-761 544,-783 716,-783 716,-761 544,-761"/>
<image xlink:href="../../images/foreignKeys.png" width="11px" height="12px" preserveAspectRatio="xMinYMin meet" x="549" y="-778"/>
<text text-anchor="start" x="564" y="-769.2" font-family="Helvetica,sans-Serif" font-size="11.00">c_1099box_id</text>
<polygon fill="none" stroke="black" points="544,-739 544,-761 716,-761 716,-739 544,-739"/>
<image xlink:href="../../images/foreignKeys.png" width="11px" height="12px" preserveAspectRatio="xMinYMin meet" x="549" y="-756"/>
<text text-anchor="start" x="564" y="-747.2" font-family="Helvetica,sans-Serif" font-size="11.00">lbr_cfop_id</text>
<polygon fill="none" stroke="black" points="544,-717 544,-739 716,-739 716,-717 544,-717"/>
<image xlink:href="../../images/foreignKeys.png" width="11px" height="12px" preserveAspectRatio="xMinYMin meet" x="549" y="-734"/>
<text text-anchor="start" x="564" y="-725.2" font-family="Helvetica,sans-Serif" font-size="11.00">cof_c_custody_id</text>
<polygon fill="none" stroke="black" points="544,-699 544,-717 716,-717 716,-699 544,-699"/>
<text text-anchor="start" x="547" y="-705.2" font-family="Helvetica,sans-Serif" font-size="11.00">...</text>
<polygon fill="#ffffff" stroke="transparent" points="544,-681 544,-699 618,-699 618,-681 544,-681"/>
<polygon fill="none" stroke="black" points="544,-681 544,-699 618,-699 618,-681 544,-681"/>
<text text-anchor="start" x="547" y="-687.2" font-family="Helvetica,sans-Serif" font-size="11.00">&lt; 24</text>
<polygon fill="#ffffff" stroke="transparent" points="618,-681 618,-699 680,-699 680,-681 618,-681"/>
<polygon fill="none" stroke="black" points="618,-681 618,-699 680,-699 680,-681 618,-681"/>
<text text-anchor="start" x="644" y="-687.2" font-family="Helvetica,sans-Serif" font-size="11.00">0 rows</text>
<polygon fill="#ffffff" stroke="transparent" points="680,-681 680,-699 716,-699 716,-681 680,-681"/>
<polygon fill="none" stroke="black" points="680,-681 680,-699 716,-699 716,-681 680,-681"/>
<text text-anchor="start" x="706" y="-687.2" font-family="Helvetica,sans-Serif" font-size="11.00"> &#160;</text>
</a>
</g>
</g>
<!-- i_invoice&#45;&gt;c_bpartner -->
<g id="edge4" class="edge">
<title>i_invoice:w&#45;&gt;c_bpartner:e</title>
<path fill="none" stroke="black" d="M528.39,-1146.89C358.73,-1169.14 693.18,-1599 496,-1599"/>
<polygon fill="black" stroke="black" points="535.01,-1146.49 543.22,-1149.59 539.01,-1146.24 543,-1146 543,-1146 543,-1146 539.01,-1146.24 542.78,-1142.41 535.01,-1146.49 535.01,-1146.49"/>
<ellipse fill="none" stroke="black" cx="531.82" cy="-1146.68" rx="3.2" ry="3.2"/>
</g>
<!-- i_invoice&#45;&gt;c_1099box -->
<g id="edge3" class="edge">
<title>i_invoice:w&#45;&gt;c_1099box:e</title>
<path fill="none" stroke="black" d="M530.56,-764.38C481.25,-694.57 552.29,-167.35 503,-121 421.41,-44.27 338.36,-50.92 251,-121 183.88,-174.84 295.05,-310 209,-310"/>
<polygon fill="black" stroke="black" points="536.18,-767.82 541.12,-775.07 539.59,-769.91 543,-772 543,-772 543,-772 539.59,-769.91 544.88,-768.93 536.18,-767.82 536.18,-767.82"/>
<ellipse fill="none" stroke="black" cx="533.45" cy="-766.15" rx="3.2" ry="3.2"/>
</g>
<!-- i_invoice&#45;&gt;c_invoiceline -->
<g id="edge5" class="edge">
<title>i_invoice:w&#45;&gt;c_invoiceline:e</title>
<path fill="none" stroke="black" d="M528.4,-838C517.93,-838 511.01,-838 496,-838"/>
<polygon fill="black" stroke="black" points="535,-838 543,-841.6 539,-838 543,-838 543,-838 543,-838 539,-838 543,-834.4 535,-838 535,-838"/>
<ellipse fill="none" stroke="black" cx="531.8" cy="-838" rx="3.2" ry="3.2"/>
</g>
</g>
</svg>
