<?xml version="1.0" encoding="UTF-8" standalone="no"?>
<!DOCTYPE svg PUBLIC "-//W3C//DTD SVG 1.1//EN"
 "http://www.w3.org/Graphics/SVG/1.1/DTD/svg11.dtd">
<!-- Generated by graphviz version 2.43.0 (0)
 -->
<!-- Title: oneDegreeRelationshipsDiagram Pages: 1 -->
<svg width="1002pt" height="881pt"
 viewBox="0.00 0.00 1002.00 881.00" xmlns="http://www.w3.org/2000/svg" xmlns:xlink="http://www.w3.org/1999/xlink">
<g id="graph0" class="graph" transform="scale(1 1) rotate(0) translate(4 877)">
<title>oneDegreeRelationshipsDiagram</title>
<polygon fill="#ffffff" stroke="transparent" points="-4,4 -4,-877 998,-877 998,4 -4,4"/>
<text text-anchor="middle" x="71.5" y="-7.2" font-family="Helvetica,sans-Serif" font-size="11.00">Generated by SchemaSpy</text>
<!-- c_bankstatement -->
<g id="node1" class="node">
<title>c_bankstatement</title>
<g id="a_node1"><a xlink:href="../../tables/c_bankstatement.html" xlink:title="c_bankstatement" target="_top">
<polygon fill="#ffffff" stroke="transparent" points="261,-37 261,-763 523,-763 523,-37 261,-37"/>
<polygon fill="#f5f5f5" stroke="transparent" points="263,-739 263,-761 521,-761 521,-739 263,-739"/>
<polygon fill="none" stroke="black" points="263,-739 263,-761 521,-761 521,-739 263,-739"/>
<text text-anchor="start" x="268" y="-748.2" font-family="Helvetica,sans-Serif" font-weight="bold" font-size="11.00">c_bankstatement</text>
<text text-anchor="start" x="486" y="-747.2" font-family="Helvetica,sans-Serif" font-size="11.00">[table]</text>
<polygon fill="none" stroke="black" points="263,-717 263,-739 438,-739 438,-717 263,-717"/>
<image xlink:href="../../images/primaryKeys.png" width="11px" height="12px" preserveAspectRatio="xMinYMin meet" x="268" y="-734"/>
<text text-anchor="start" x="283" y="-725.2" font-family="Helvetica,sans-Serif" font-size="11.00">c_bankstatement_id</text>
<polygon fill="none" stroke="black" points="438,-717 438,-739 521,-739 521,-717 438,-717"/>
<text text-anchor="start" x="441" y="-725.2" font-family="Helvetica,sans-Serif" font-size="11.00">numeric[10]</text>
<polygon fill="#ffffff" stroke="transparent" points="263,-695 263,-717 438,-717 438,-695 263,-695"/>
<polygon fill="none" stroke="black" points="263,-695 263,-717 438,-717 438,-695 263,-695"/>
<text text-anchor="start" x="283" y="-703.2" font-family="Helvetica,sans-Serif" font-size="11.00">ad_client_id</text>
<polygon fill="none" stroke="black" points="438,-695 438,-717 521,-717 521,-695 438,-695"/>
<text text-anchor="start" x="441" y="-703.2" font-family="Helvetica,sans-Serif" font-size="11.00">numeric[10]</text>
<polygon fill="none" stroke="black" points="263,-673 263,-695 438,-695 438,-673 263,-673"/>
<text text-anchor="start" x="283" y="-681.2" font-family="Helvetica,sans-Serif" font-size="11.00">ad_org_id</text>
<polygon fill="none" stroke="black" points="438,-673 438,-695 521,-695 521,-673 438,-673"/>
<text text-anchor="start" x="441" y="-681.2" font-family="Helvetica,sans-Serif" font-size="11.00">numeric[10]</text>
<polygon fill="none" stroke="black" points="263,-651 263,-673 438,-673 438,-651 263,-651"/>
<text text-anchor="start" x="283" y="-659.2" font-family="Helvetica,sans-Serif" font-size="11.00">isactive</text>
<polygon fill="none" stroke="black" points="438,-651 438,-673 521,-673 521,-651 438,-651"/>
<text text-anchor="start" x="441" y="-659.2" font-family="Helvetica,sans-Serif" font-size="11.00">bpchar[1]</text>
<polygon fill="none" stroke="black" points="263,-629 263,-651 438,-651 438,-629 263,-629"/>
<text text-anchor="start" x="283" y="-637.2" font-family="Helvetica,sans-Serif" font-size="11.00">created</text>
<polygon fill="none" stroke="black" points="438,-629 438,-651 521,-651 521,-629 438,-629"/>
<text text-anchor="start" x="441" y="-637.2" font-family="Helvetica,sans-Serif" font-size="11.00">timestamp[29,6]</text>
<polygon fill="none" stroke="black" points="263,-607 263,-629 438,-629 438,-607 263,-607"/>
<text text-anchor="start" x="283" y="-615.2" font-family="Helvetica,sans-Serif" font-size="11.00">createdby</text>
<polygon fill="none" stroke="black" points="438,-607 438,-629 521,-629 521,-607 438,-607"/>
<text text-anchor="start" x="441" y="-615.2" font-family="Helvetica,sans-Serif" font-size="11.00">numeric[10]</text>
<polygon fill="none" stroke="black" points="263,-585 263,-607 438,-607 438,-585 263,-585"/>
<text text-anchor="start" x="283" y="-593.2" font-family="Helvetica,sans-Serif" font-size="11.00">updated</text>
<polygon fill="none" stroke="black" points="438,-585 438,-607 521,-607 521,-585 438,-585"/>
<text text-anchor="start" x="441" y="-593.2" font-family="Helvetica,sans-Serif" font-size="11.00">timestamp[29,6]</text>
<polygon fill="none" stroke="black" points="263,-563 263,-585 438,-585 438,-563 263,-563"/>
<text text-anchor="start" x="283" y="-571.2" font-family="Helvetica,sans-Serif" font-size="11.00">updatedby</text>
<polygon fill="none" stroke="black" points="438,-563 438,-585 521,-585 521,-563 438,-563"/>
<text text-anchor="start" x="441" y="-571.2" font-family="Helvetica,sans-Serif" font-size="11.00">numeric[10]</text>
<polygon fill="none" stroke="black" points="263,-541 263,-563 438,-563 438,-541 263,-541"/>
<image xlink:href="../../images/foreignKeys.png" width="11px" height="12px" preserveAspectRatio="xMinYMin meet" x="268" y="-558"/>
<text text-anchor="start" x="283" y="-549.2" font-family="Helvetica,sans-Serif" font-size="11.00">c_bankaccount_id</text>
<polygon fill="none" stroke="black" points="438,-541 438,-563 521,-563 521,-541 438,-541"/>
<text text-anchor="start" x="441" y="-549.2" font-family="Helvetica,sans-Serif" font-size="11.00">numeric[10]</text>
<polygon fill="none" stroke="black" points="263,-519 263,-541 438,-541 438,-519 263,-519"/>
<text text-anchor="start" x="283" y="-527.2" font-family="Helvetica,sans-Serif" font-size="11.00">name</text>
<polygon fill="none" stroke="black" points="438,-519 438,-541 521,-541 521,-519 438,-519"/>
<text text-anchor="start" x="441" y="-527.2" font-family="Helvetica,sans-Serif" font-size="11.00">varchar[60]</text>
<polygon fill="none" stroke="black" points="263,-497 263,-519 438,-519 438,-497 263,-497"/>
<text text-anchor="start" x="283" y="-505.2" font-family="Helvetica,sans-Serif" font-size="11.00">description</text>
<polygon fill="none" stroke="black" points="438,-497 438,-519 521,-519 521,-497 438,-497"/>
<text text-anchor="start" x="441" y="-505.2" font-family="Helvetica,sans-Serif" font-size="11.00">varchar[255]</text>
<polygon fill="none" stroke="black" points="263,-475 263,-497 438,-497 438,-475 263,-475"/>
<text text-anchor="start" x="283" y="-483.2" font-family="Helvetica,sans-Serif" font-size="11.00">ismanual</text>
<polygon fill="none" stroke="black" points="438,-475 438,-497 521,-497 521,-475 438,-475"/>
<text text-anchor="start" x="441" y="-483.2" font-family="Helvetica,sans-Serif" font-size="11.00">bpchar[1]</text>
<polygon fill="none" stroke="black" points="263,-453 263,-475 438,-475 438,-453 263,-453"/>
<text text-anchor="start" x="283" y="-461.2" font-family="Helvetica,sans-Serif" font-size="11.00">statementdate</text>
<polygon fill="none" stroke="black" points="438,-453 438,-475 521,-475 521,-453 438,-453"/>
<text text-anchor="start" x="441" y="-461.2" font-family="Helvetica,sans-Serif" font-size="11.00">timestamp[29,6]</text>
<polygon fill="none" stroke="black" points="263,-431 263,-453 438,-453 438,-431 263,-431"/>
<text text-anchor="start" x="283" y="-439.2" font-family="Helvetica,sans-Serif" font-size="11.00">beginningbalance</text>
<polygon fill="none" stroke="black" points="438,-431 438,-453 521,-453 521,-431 438,-431"/>
<text text-anchor="start" x="441" y="-439.2" font-family="Helvetica,sans-Serif" font-size="11.00">numeric[0]</text>
<polygon fill="none" stroke="black" points="263,-409 263,-431 438,-431 438,-409 263,-409"/>
<text text-anchor="start" x="283" y="-417.2" font-family="Helvetica,sans-Serif" font-size="11.00">endingbalance</text>
<polygon fill="none" stroke="black" points="438,-409 438,-431 521,-431 521,-409 438,-409"/>
<text text-anchor="start" x="441" y="-417.2" font-family="Helvetica,sans-Serif" font-size="11.00">numeric[0]</text>
<polygon fill="none" stroke="black" points="263,-387 263,-409 438,-409 438,-387 263,-387"/>
<text text-anchor="start" x="283" y="-395.2" font-family="Helvetica,sans-Serif" font-size="11.00">statementdifference</text>
<polygon fill="none" stroke="black" points="438,-387 438,-409 521,-409 521,-387 438,-387"/>
<text text-anchor="start" x="441" y="-395.2" font-family="Helvetica,sans-Serif" font-size="11.00">numeric[0]</text>
<polygon fill="none" stroke="black" points="263,-365 263,-387 438,-387 438,-365 263,-365"/>
<text text-anchor="start" x="283" y="-373.2" font-family="Helvetica,sans-Serif" font-size="11.00">createfrom</text>
<polygon fill="none" stroke="black" points="438,-365 438,-387 521,-387 521,-365 438,-365"/>
<text text-anchor="start" x="441" y="-373.2" font-family="Helvetica,sans-Serif" font-size="11.00">bpchar[1]</text>
<polygon fill="none" stroke="black" points="263,-343 263,-365 438,-365 438,-343 263,-343"/>
<text text-anchor="start" x="283" y="-351.2" font-family="Helvetica,sans-Serif" font-size="11.00">processing</text>
<polygon fill="none" stroke="black" points="438,-343 438,-365 521,-365 521,-343 438,-343"/>
<text text-anchor="start" x="441" y="-351.2" font-family="Helvetica,sans-Serif" font-size="11.00">bpchar[1]</text>
<polygon fill="#ffffff" stroke="transparent" points="263,-321 263,-343 438,-343 438,-321 263,-321"/>
<polygon fill="none" stroke="black" points="263,-321 263,-343 438,-343 438,-321 263,-321"/>
<text text-anchor="start" x="283" y="-329.2" font-family="Helvetica,sans-Serif" font-size="11.00">processed</text>
<polygon fill="none" stroke="black" points="438,-321 438,-343 521,-343 521,-321 438,-321"/>
<text text-anchor="start" x="441" y="-329.2" font-family="Helvetica,sans-Serif" font-size="11.00">bpchar[1]</text>
<polygon fill="#ffffff" stroke="transparent" points="263,-299 263,-321 438,-321 438,-299 263,-299"/>
<polygon fill="none" stroke="black" points="263,-299 263,-321 438,-321 438,-299 263,-299"/>
<text text-anchor="start" x="283" y="-307.2" font-family="Helvetica,sans-Serif" font-size="11.00">posted</text>
<polygon fill="none" stroke="black" points="438,-299 438,-321 521,-321 521,-299 438,-299"/>
<text text-anchor="start" x="441" y="-307.2" font-family="Helvetica,sans-Serif" font-size="11.00">bpchar[1]</text>
<polygon fill="none" stroke="black" points="263,-277 263,-299 438,-299 438,-277 263,-277"/>
<text text-anchor="start" x="283" y="-285.2" font-family="Helvetica,sans-Serif" font-size="11.00">eftstatementreference</text>
<polygon fill="none" stroke="black" points="438,-277 438,-299 521,-299 521,-277 438,-277"/>
<text text-anchor="start" x="441" y="-285.2" font-family="Helvetica,sans-Serif" font-size="11.00">varchar[60]</text>
<polygon fill="none" stroke="black" points="263,-255 263,-277 438,-277 438,-255 263,-255"/>
<text text-anchor="start" x="283" y="-263.2" font-family="Helvetica,sans-Serif" font-size="11.00">eftstatementdate</text>
<polygon fill="none" stroke="black" points="438,-255 438,-277 521,-277 521,-255 438,-255"/>
<text text-anchor="start" x="441" y="-263.2" font-family="Helvetica,sans-Serif" font-size="11.00">timestamp[29,6]</text>
<polygon fill="none" stroke="black" points="263,-233 263,-255 438,-255 438,-233 263,-233"/>
<text text-anchor="start" x="283" y="-241.2" font-family="Helvetica,sans-Serif" font-size="11.00">matchstatement</text>
<polygon fill="none" stroke="black" points="438,-233 438,-255 521,-255 521,-233 438,-233"/>
<text text-anchor="start" x="441" y="-241.2" font-family="Helvetica,sans-Serif" font-size="11.00">bpchar[1]</text>
<polygon fill="none" stroke="black" points="263,-211 263,-233 438,-233 438,-211 263,-211"/>
<text text-anchor="start" x="283" y="-219.2" font-family="Helvetica,sans-Serif" font-size="11.00">isapproved</text>
<polygon fill="none" stroke="black" points="438,-211 438,-233 521,-233 521,-211 438,-211"/>
<text text-anchor="start" x="441" y="-219.2" font-family="Helvetica,sans-Serif" font-size="11.00">bpchar[1]</text>
<polygon fill="none" stroke="black" points="263,-189 263,-211 438,-211 438,-189 263,-189"/>
<text text-anchor="start" x="283" y="-197.2" font-family="Helvetica,sans-Serif" font-size="11.00">docstatus</text>
<polygon fill="none" stroke="black" points="438,-189 438,-211 521,-211 521,-189 438,-189"/>
<text text-anchor="start" x="441" y="-197.2" font-family="Helvetica,sans-Serif" font-size="11.00">bpchar[2]</text>
<polygon fill="none" stroke="black" points="263,-167 263,-189 438,-189 438,-167 263,-167"/>
<text text-anchor="start" x="283" y="-175.2" font-family="Helvetica,sans-Serif" font-size="11.00">docaction</text>
<polygon fill="none" stroke="black" points="438,-167 438,-189 521,-189 521,-167 438,-167"/>
<text text-anchor="start" x="441" y="-175.2" font-family="Helvetica,sans-Serif" font-size="11.00">bpchar[2]</text>
<polygon fill="#ffffff" stroke="transparent" points="263,-145 263,-167 438,-167 438,-145 263,-145"/>
<polygon fill="none" stroke="black" points="263,-145 263,-167 438,-167 438,-145 263,-145"/>
<text text-anchor="start" x="283" y="-153.2" font-family="Helvetica,sans-Serif" font-size="11.00">processedon</text>
<polygon fill="none" stroke="black" points="438,-145 438,-167 521,-167 521,-145 438,-145"/>
<text text-anchor="start" x="441" y="-153.2" font-family="Helvetica,sans-Serif" font-size="11.00">numeric[0]</text>
<polygon fill="#ffffff" stroke="transparent" points="263,-123 263,-145 438,-145 438,-123 263,-123"/>
<polygon fill="none" stroke="black" points="263,-123 263,-145 438,-145 438,-123 263,-123"/>
<text text-anchor="start" x="283" y="-131.2" font-family="Helvetica,sans-Serif" font-size="11.00">c_bankstatement_uu</text>
<polygon fill="none" stroke="black" points="438,-123 438,-145 521,-145 521,-123 438,-123"/>
<text text-anchor="start" x="441" y="-131.2" font-family="Helvetica,sans-Serif" font-size="11.00">varchar[36]</text>
<polygon fill="none" stroke="black" points="263,-101 263,-123 438,-123 438,-101 263,-101"/>
<text text-anchor="start" x="283" y="-109.2" font-family="Helvetica,sans-Serif" font-size="11.00">copyfrom</text>
<polygon fill="none" stroke="black" points="438,-101 438,-123 521,-123 521,-101 438,-101"/>
<text text-anchor="start" x="441" y="-109.2" font-family="Helvetica,sans-Serif" font-size="11.00">bpchar[1]</text>
<polygon fill="none" stroke="black" points="263,-79 263,-101 438,-101 438,-79 263,-79"/>
<text text-anchor="start" x="283" y="-87.2" font-family="Helvetica,sans-Serif" font-size="11.00">dateacct</text>
<polygon fill="none" stroke="black" points="438,-79 438,-101 521,-101 521,-79 438,-79"/>
<text text-anchor="start" x="441" y="-87.2" font-family="Helvetica,sans-Serif" font-size="11.00">timestamp[29,6]</text>
<polygon fill="none" stroke="black" points="263,-57 263,-79 438,-79 438,-57 263,-57"/>
<text text-anchor="start" x="283" y="-65.2" font-family="Helvetica,sans-Serif" font-size="11.00">createfrombatch</text>
<polygon fill="none" stroke="black" points="438,-57 438,-79 521,-79 521,-57 438,-57"/>
<text text-anchor="start" x="441" y="-65.2" font-family="Helvetica,sans-Serif" font-size="11.00">bpchar[1]</text>
<polygon fill="#ffffff" stroke="transparent" points="263,-39 263,-57 342,-57 342,-39 263,-39"/>
<polygon fill="none" stroke="black" points="263,-39 263,-57 342,-57 342,-39 263,-39"/>
<text text-anchor="start" x="266" y="-45.2" font-family="Helvetica,sans-Serif" font-size="11.00">&lt; 1</text>
<polygon fill="#ffffff" stroke="transparent" points="342,-39 342,-57 438,-57 438,-39 342,-39"/>
<polygon fill="none" stroke="black" points="342,-39 342,-57 438,-57 438,-39 342,-39"/>
<text text-anchor="start" x="402" y="-45.2" font-family="Helvetica,sans-Serif" font-size="11.00">0 rows</text>
<polygon fill="#ffffff" stroke="transparent" points="438,-39 438,-57 521,-57 521,-39 438,-39"/>
<polygon fill="none" stroke="black" points="438,-39 438,-57 521,-57 521,-39 438,-39"/>
<text text-anchor="start" x="502" y="-45.2" font-family="Helvetica,sans-Serif" font-size="11.00">2 &gt;</text>
<polygon fill="none" stroke="black" stroke-width="2" points="262,-38 262,-762 522,-762 522,-38 262,-38"/>
</a>
</g>
</g>
<!-- c_bankaccount -->
<g id="node2" class="node">
<title>c_bankaccount</title>
<g id="a_node2"><a xlink:href="../../tables/c_bankaccount.html" xlink:title="c_bankaccount" target="_top">
<polygon fill="#ffffff" stroke="transparent" points="8,-512 8,-702 212,-702 212,-512 8,-512"/>
<polygon fill="#f5f5f5" stroke="transparent" points="8,-680 8,-702 212,-702 212,-680 8,-680"/>
<polygon fill="none" stroke="black" points="8,-680 8,-702 212,-702 212,-680 8,-680"/>
<text text-anchor="start" x="13" y="-689.2" font-family="Helvetica,sans-Serif" font-weight="bold" font-size="11.00">c_bankaccount</text>
<text text-anchor="start" x="177" y="-688.2" font-family="Helvetica,sans-Serif" font-size="11.00">[table]</text>
<polygon fill="none" stroke="black" points="8,-658 8,-680 212,-680 212,-658 8,-658"/>
<image xlink:href="../../images/primaryKeys.png" width="11px" height="12px" preserveAspectRatio="xMinYMin meet" x="13" y="-675"/>
<text text-anchor="start" x="28" y="-666.2" font-family="Helvetica,sans-Serif" font-size="11.00">c_bankaccount_id</text>
<polygon fill="#ffffff" stroke="transparent" points="8,-636 8,-658 212,-658 212,-636 8,-636"/>
<polygon fill="none" stroke="black" points="8,-636 8,-658 212,-658 212,-636 8,-636"/>
<image xlink:href="../../images/foreignKeys.png" width="11px" height="12px" preserveAspectRatio="xMinYMin meet" x="13" y="-653"/>
<text text-anchor="start" x="28" y="-644.2" font-family="Helvetica,sans-Serif" font-size="11.00">c_bank_id</text>
<polygon fill="none" stroke="black" points="8,-614 8,-636 212,-636 212,-614 8,-614"/>
<image xlink:href="../../images/foreignKeys.png" width="11px" height="12px" preserveAspectRatio="xMinYMin meet" x="13" y="-631"/>
<text text-anchor="start" x="28" y="-622.2" font-family="Helvetica,sans-Serif" font-size="11.00">c_currency_id</text>
<polygon fill="#ffffff" stroke="transparent" points="8,-592 8,-614 212,-614 212,-592 8,-592"/>
<polygon fill="none" stroke="black" points="8,-592 8,-614 212,-614 212,-592 8,-592"/>
<text text-anchor="start" x="28" y="-600.2" font-family="Helvetica,sans-Serif" font-size="11.00">c_bankaccount_uu</text>
<polygon fill="none" stroke="black" points="8,-570 8,-592 212,-592 212,-570 8,-570"/>
<image xlink:href="../../images/foreignKeys.png" width="11px" height="12px" preserveAspectRatio="xMinYMin meet" x="13" y="-587"/>
<text text-anchor="start" x="28" y="-578.2" font-family="Helvetica,sans-Serif" font-size="11.00">user2_id</text>
<polygon fill="none" stroke="black" points="8,-548 8,-570 212,-570 212,-548 8,-548"/>
<image xlink:href="../../images/foreignKeys.png" width="11px" height="12px" preserveAspectRatio="xMinYMin meet" x="13" y="-565"/>
<text text-anchor="start" x="28" y="-556.2" font-family="Helvetica,sans-Serif" font-size="11.00">cof_user2_id</text>
<polygon fill="none" stroke="black" points="8,-530 8,-548 212,-548 212,-530 8,-530"/>
<text text-anchor="start" x="11" y="-536.2" font-family="Helvetica,sans-Serif" font-size="11.00">...</text>
<polygon fill="#ffffff" stroke="transparent" points="8,-512 8,-530 87,-530 87,-512 8,-512"/>
<polygon fill="none" stroke="black" points="8,-512 8,-530 87,-530 87,-512 8,-512"/>
<text text-anchor="start" x="11" y="-518.2" font-family="Helvetica,sans-Serif" font-size="11.00">&lt; 4</text>
<polygon fill="#ffffff" stroke="transparent" points="87,-512 87,-530 155,-530 155,-512 87,-512"/>
<polygon fill="none" stroke="black" points="87,-512 87,-530 155,-530 155,-512 87,-512"/>
<text text-anchor="start" x="119" y="-518.2" font-family="Helvetica,sans-Serif" font-size="11.00">6 rows</text>
<polygon fill="#ffffff" stroke="transparent" points="155,-512 155,-530 212,-530 212,-512 155,-512"/>
<polygon fill="none" stroke="black" points="155,-512 155,-530 212,-530 212,-512 155,-512"/>
<text text-anchor="start" x="187" y="-518.2" font-family="Helvetica,sans-Serif" font-size="11.00">27 &gt;</text>
</a>
</g>
</g>
<!-- c_bankstatement&#45;&gt;c_bankaccount -->
<g id="edge1" class="edge">
<title>c_bankstatement:w&#45;&gt;c_bankaccount:e</title>
<path fill="none" stroke="black" d="M247.89,-555.63C217.74,-575.38 263.43,-669 213,-669"/>
<polygon fill="black" stroke="black" points="254.25,-553.99 262.9,-555.49 258.13,-553 262,-552 262,-552 262,-552 258.13,-553 261.1,-548.51 254.25,-553.99 254.25,-553.99"/>
<ellipse fill="none" stroke="black" cx="251.15" cy="-554.79" rx="3.2" ry="3.2"/>
</g>
<!-- c_bankstatementline -->
<g id="node3" class="node">
<title>c_bankstatementline</title>
<g id="a_node3"><a xlink:href="../../tables/c_bankstatementline.html" xlink:title="c_bankstatementline" target="_top">
<polygon fill="#ffffff" stroke="transparent" points="572,-494 572,-728 757,-728 757,-494 572,-494"/>
<polygon fill="#f5f5f5" stroke="transparent" points="572.5,-706 572.5,-728 757.5,-728 757.5,-706 572.5,-706"/>
<polygon fill="none" stroke="black" points="572.5,-706 572.5,-728 757.5,-728 757.5,-706 572.5,-706"/>
<text text-anchor="start" x="577.5" y="-715.2" font-family="Helvetica,sans-Serif" font-weight="bold" font-size="11.00">c_bankstatementline</text>
<text text-anchor="start" x="722.5" y="-714.2" font-family="Helvetica,sans-Serif" font-size="11.00">[table]</text>
<polygon fill="none" stroke="black" points="572.5,-684 572.5,-706 757.5,-706 757.5,-684 572.5,-684"/>
<image xlink:href="../../images/primaryKeys.png" width="11px" height="12px" preserveAspectRatio="xMinYMin meet" x="577.5" y="-701"/>
<text text-anchor="start" x="592.5" y="-692.2" font-family="Helvetica,sans-Serif" font-size="11.00">c_bankstatementline_id</text>
<polygon fill="#ffffff" stroke="transparent" points="572.5,-662 572.5,-684 757.5,-684 757.5,-662 572.5,-662"/>
<polygon fill="none" stroke="black" points="572.5,-662 572.5,-684 757.5,-684 757.5,-662 572.5,-662"/>
<image xlink:href="../../images/foreignKeys.png" width="11px" height="12px" preserveAspectRatio="xMinYMin meet" x="577.5" y="-679"/>
<text text-anchor="start" x="592.5" y="-670.2" font-family="Helvetica,sans-Serif" font-size="11.00">c_bankstatement_id</text>
<polygon fill="none" stroke="black" points="572.5,-640 572.5,-662 757.5,-662 757.5,-640 572.5,-640"/>
<image xlink:href="../../images/foreignKeys.png" width="11px" height="12px" preserveAspectRatio="xMinYMin meet" x="577.5" y="-657"/>
<text text-anchor="start" x="592.5" y="-648.2" font-family="Helvetica,sans-Serif" font-size="11.00">c_payment_id</text>
<polygon fill="none" stroke="black" points="572.5,-618 572.5,-640 757.5,-640 757.5,-618 572.5,-618"/>
<image xlink:href="../../images/foreignKeys.png" width="11px" height="12px" preserveAspectRatio="xMinYMin meet" x="577.5" y="-635"/>
<text text-anchor="start" x="592.5" y="-626.2" font-family="Helvetica,sans-Serif" font-size="11.00">c_currency_id</text>
<polygon fill="none" stroke="black" points="572.5,-596 572.5,-618 757.5,-618 757.5,-596 572.5,-596"/>
<image xlink:href="../../images/foreignKeys.png" width="11px" height="12px" preserveAspectRatio="xMinYMin meet" x="577.5" y="-613"/>
<text text-anchor="start" x="592.5" y="-604.2" font-family="Helvetica,sans-Serif" font-size="11.00">c_charge_id</text>
<polygon fill="none" stroke="black" points="572.5,-574 572.5,-596 757.5,-596 757.5,-574 572.5,-574"/>
<image xlink:href="../../images/foreignKeys.png" width="11px" height="12px" preserveAspectRatio="xMinYMin meet" x="577.5" y="-591"/>
<text text-anchor="start" x="592.5" y="-582.2" font-family="Helvetica,sans-Serif" font-size="11.00">c_bpartner_id</text>
<polygon fill="none" stroke="black" points="572.5,-552 572.5,-574 757.5,-574 757.5,-552 572.5,-552"/>
<image xlink:href="../../images/foreignKeys.png" width="11px" height="12px" preserveAspectRatio="xMinYMin meet" x="577.5" y="-569"/>
<text text-anchor="start" x="592.5" y="-560.2" font-family="Helvetica,sans-Serif" font-size="11.00">c_invoice_id</text>
<polygon fill="#ffffff" stroke="transparent" points="572.5,-530 572.5,-552 757.5,-552 757.5,-530 572.5,-530"/>
<polygon fill="none" stroke="black" points="572.5,-530 572.5,-552 757.5,-552 757.5,-530 572.5,-530"/>
<text text-anchor="start" x="592.5" y="-538.2" font-family="Helvetica,sans-Serif" font-size="11.00">c_bankstatementline_uu</text>
<polygon fill="none" stroke="black" points="572.5,-512 572.5,-530 757.5,-530 757.5,-512 572.5,-512"/>
<text text-anchor="start" x="575.5" y="-518.2" font-family="Helvetica,sans-Serif" font-size="11.00">...</text>
<polygon fill="#ffffff" stroke="transparent" points="572.5,-494 572.5,-512 645.5,-512 645.5,-494 572.5,-494"/>
<polygon fill="none" stroke="black" points="572.5,-494 572.5,-512 645.5,-512 645.5,-494 572.5,-494"/>
<text text-anchor="start" x="575.5" y="-500.2" font-family="Helvetica,sans-Serif" font-size="11.00">&lt; 6</text>
<polygon fill="#ffffff" stroke="transparent" points="645.5,-494 645.5,-512 709.5,-512 709.5,-494 645.5,-494"/>
<polygon fill="none" stroke="black" points="645.5,-494 645.5,-512 709.5,-512 709.5,-494 645.5,-494"/>
<text text-anchor="start" x="673.5" y="-500.2" font-family="Helvetica,sans-Serif" font-size="11.00">0 rows</text>
<polygon fill="#ffffff" stroke="transparent" points="709.5,-494 709.5,-512 757.5,-512 757.5,-494 709.5,-494"/>
<polygon fill="none" stroke="black" points="709.5,-494 709.5,-512 757.5,-512 757.5,-494 709.5,-494"/>
<text text-anchor="start" x="738.5" y="-500.2" font-family="Helvetica,sans-Serif" font-size="11.00">1 &gt;</text>
</a>
</g>
</g>
<!-- c_bankstatementline&#45;&gt;c_bankstatement -->
<g id="edge2" class="edge">
<title>c_bankstatementline:w&#45;&gt;c_bankstatement:e</title>
<path fill="none" stroke="black" d="M557.54,-678.08C542.99,-691.69 548.72,-728 522,-728"/>
<polygon fill="black" stroke="black" points="563.98,-675.73 572.73,-676.38 567.74,-674.37 571.5,-673 571.5,-673 571.5,-673 567.74,-674.37 570.27,-669.62 563.98,-675.73 563.98,-675.73"/>
<ellipse fill="none" stroke="black" cx="560.97" cy="-676.83" rx="3.2" ry="3.2"/>
</g>
<!-- i_bankstatement -->
<g id="node4" class="node">
<title>i_bankstatement</title>
<g id="a_node4"><a xlink:href="../../tables/i_bankstatement.html" xlink:title="i_bankstatement" target="_top">
<polygon fill="#ffffff" stroke="transparent" points="806,-591 806,-869 986,-869 986,-591 806,-591"/>
<polygon fill="#f5f5f5" stroke="transparent" points="806,-847 806,-869 986,-869 986,-847 806,-847"/>
<polygon fill="none" stroke="black" points="806,-847 806,-869 986,-869 986,-847 806,-847"/>
<text text-anchor="start" x="811" y="-856.2" font-family="Helvetica,sans-Serif" font-weight="bold" font-size="11.00">i_bankstatement</text>
<text text-anchor="start" x="951" y="-855.2" font-family="Helvetica,sans-Serif" font-size="11.00">[table]</text>
<polygon fill="none" stroke="black" points="806,-825 806,-847 986,-847 986,-825 806,-825"/>
<image xlink:href="../../images/primaryKeys.png" width="11px" height="12px" preserveAspectRatio="xMinYMin meet" x="811" y="-842"/>
<text text-anchor="start" x="826" y="-833.2" font-family="Helvetica,sans-Serif" font-size="11.00">i_bankstatement_id</text>
<polygon fill="none" stroke="black" points="806,-803 806,-825 986,-825 986,-803 806,-803"/>
<image xlink:href="../../images/foreignKeys.png" width="11px" height="12px" preserveAspectRatio="xMinYMin meet" x="811" y="-820"/>
<text text-anchor="start" x="826" y="-811.2" font-family="Helvetica,sans-Serif" font-size="11.00">c_bankstatement_id</text>
<polygon fill="none" stroke="black" points="806,-781 806,-803 986,-803 986,-781 806,-781"/>
<image xlink:href="../../images/foreignKeys.png" width="11px" height="12px" preserveAspectRatio="xMinYMin meet" x="811" y="-798"/>
<text text-anchor="start" x="826" y="-789.2" font-family="Helvetica,sans-Serif" font-size="11.00">c_bankaccount_id</text>
<polygon fill="none" stroke="black" points="806,-759 806,-781 986,-781 986,-759 806,-759"/>
<image xlink:href="../../images/foreignKeys.png" width="11px" height="12px" preserveAspectRatio="xMinYMin meet" x="811" y="-776"/>
<text text-anchor="start" x="826" y="-767.2" font-family="Helvetica,sans-Serif" font-size="11.00">c_payment_id</text>
<polygon fill="none" stroke="black" points="806,-737 806,-759 986,-759 986,-737 806,-737"/>
<image xlink:href="../../images/foreignKeys.png" width="11px" height="12px" preserveAspectRatio="xMinYMin meet" x="811" y="-754"/>
<text text-anchor="start" x="826" y="-745.2" font-family="Helvetica,sans-Serif" font-size="11.00">c_currency_id</text>
<polygon fill="none" stroke="black" points="806,-715 806,-737 986,-737 986,-715 806,-715"/>
<image xlink:href="../../images/foreignKeys.png" width="11px" height="12px" preserveAspectRatio="xMinYMin meet" x="811" y="-732"/>
<text text-anchor="start" x="826" y="-723.2" font-family="Helvetica,sans-Serif" font-size="11.00">c_bpartner_id</text>
<polygon fill="none" stroke="black" points="806,-693 806,-715 986,-715 986,-693 806,-693"/>
<image xlink:href="../../images/foreignKeys.png" width="11px" height="12px" preserveAspectRatio="xMinYMin meet" x="811" y="-710"/>
<text text-anchor="start" x="826" y="-701.2" font-family="Helvetica,sans-Serif" font-size="11.00">c_invoice_id</text>
<polygon fill="none" stroke="black" points="806,-671 806,-693 986,-693 986,-671 806,-671"/>
<image xlink:href="../../images/foreignKeys.png" width="11px" height="12px" preserveAspectRatio="xMinYMin meet" x="811" y="-688"/>
<text text-anchor="start" x="826" y="-679.2" font-family="Helvetica,sans-Serif" font-size="11.00">c_charge_id</text>
<polygon fill="none" stroke="black" points="806,-649 806,-671 986,-671 986,-649 806,-649"/>
<image xlink:href="../../images/foreignKeys.png" width="11px" height="12px" preserveAspectRatio="xMinYMin meet" x="811" y="-666"/>
<text text-anchor="start" x="826" y="-657.2" font-family="Helvetica,sans-Serif" font-size="11.00">c_bankstatementline_id</text>
<polygon fill="#ffffff" stroke="transparent" points="806,-627 806,-649 986,-649 986,-627 806,-627"/>
<polygon fill="none" stroke="black" points="806,-627 806,-649 986,-649 986,-627 806,-627"/>
<text text-anchor="start" x="826" y="-635.2" font-family="Helvetica,sans-Serif" font-size="11.00">i_bankstatement_uu</text>
<polygon fill="none" stroke="black" points="806,-609 806,-627 986,-627 986,-609 806,-609"/>
<text text-anchor="start" x="809" y="-615.2" font-family="Helvetica,sans-Serif" font-size="11.00">...</text>
<polygon fill="#ffffff" stroke="transparent" points="806,-591 806,-609 881,-609 881,-591 806,-591"/>
<polygon fill="none" stroke="black" points="806,-591 806,-609 881,-609 881,-591 806,-591"/>
<text text-anchor="start" x="809" y="-597.2" font-family="Helvetica,sans-Serif" font-size="11.00">&lt; 8</text>
<polygon fill="#ffffff" stroke="transparent" points="881,-591 881,-609 946,-609 946,-591 881,-591"/>
<polygon fill="none" stroke="black" points="881,-591 881,-609 946,-609 946,-591 881,-591"/>
<text text-anchor="start" x="910" y="-597.2" font-family="Helvetica,sans-Serif" font-size="11.00">0 rows</text>
<polygon fill="#ffffff" stroke="transparent" points="946,-591 946,-609 986,-609 986,-591 946,-591"/>
<polygon fill="none" stroke="black" points="946,-591 946,-609 986,-609 986,-591 946,-591"/>
<text text-anchor="start" x="976" y="-597.2" font-family="Helvetica,sans-Serif" font-size="11.00"> &#160;</text>
</a>
</g>
</g>
<!-- i_bankstatement&#45;&gt;c_bankstatement -->
<g id="edge4" class="edge">
<title>i_bankstatement:w&#45;&gt;c_bankstatement:e</title>
<path fill="none" stroke="black" d="M790.72,-810.84C734.02,-795.32 536.54,-728 522,-728"/>
<polygon fill="black" stroke="black" points="797.19,-812.27 804.22,-817.51 801.09,-813.13 805,-814 805,-814 805,-814 801.09,-813.13 805.78,-810.49 797.19,-812.27 797.19,-812.27"/>
<ellipse fill="none" stroke="black" cx="794.07" cy="-811.58" rx="3.2" ry="3.2"/>
</g>
<!-- i_bankstatement&#45;&gt;c_bankaccount -->
<g id="edge3" class="edge">
<title>i_bankstatement:w&#45;&gt;c_bankaccount:e</title>
<path fill="none" stroke="black" d="M790.42,-792.15C555.23,-796.88 448.82,-913.71 253,-774 212.35,-745 262.94,-669 213,-669"/>
<polygon fill="black" stroke="black" points="797,-792.08 805.04,-795.6 801,-792.04 805,-792 805,-792 805,-792 801,-792.04 804.96,-788.4 797,-792.08 797,-792.08"/>
<ellipse fill="none" stroke="black" cx="793.8" cy="-792.11" rx="3.2" ry="3.2"/>
</g>
<!-- i_bankstatement&#45;&gt;c_bankstatementline -->
<g id="edge5" class="edge">
<title>i_bankstatement:w&#45;&gt;c_bankstatementline:e</title>
<path fill="none" stroke="black" d="M791.14,-664.87C779.88,-674.48 778.3,-695 758.5,-695"/>
<polygon fill="black" stroke="black" points="797.45,-662.65 806.19,-663.4 801.23,-661.32 805,-660 805,-660 805,-660 801.23,-661.32 803.81,-656.6 797.45,-662.65 797.45,-662.65"/>
<ellipse fill="none" stroke="black" cx="794.43" cy="-663.71" rx="3.2" ry="3.2"/>
</g>
</g>
</svg>
