<?xml version="1.0" encoding="UTF-8" standalone="no"?>
<!DOCTYPE svg PUBLIC "-//W3C//DTD SVG 1.1//EN"
 "http://www.w3.org/Graphics/SVG/1.1/DTD/svg11.dtd">
<!-- Generated by graphviz version 2.43.0 (0)
 -->
<!-- Title: oneDegreeRelationshipsDiagram Pages: 1 -->
<svg width="883pt" height="1160pt"
 viewBox="0.00 0.00 883.00 1160.00" xmlns="http://www.w3.org/2000/svg" xmlns:xlink="http://www.w3.org/1999/xlink">
<g id="graph0" class="graph" transform="scale(1 1) rotate(0) translate(4 1156)">
<title>oneDegreeRelationshipsDiagram</title>
<polygon fill="#ffffff" stroke="transparent" points="-4,4 -4,-1156 879,-1156 879,4 -4,4"/>
<text text-anchor="middle" x="71.5" y="-7.2" font-family="Helvetica,sans-Serif" font-size="11.00">Generated by SchemaSpy</text>
<!-- c_bp_relation -->
<g id="node1" class="node">
<title>c_bp_relation</title>
<g id="a_node1"><a xlink:href="../../tables/c_bp_relation.html" xlink:title="c_bp_relation" target="_top">
<polygon fill="#ffffff" stroke="transparent" points="555,-686 555,-1148 867,-1148 867,-686 555,-686"/>
<polygon fill="#f5f5f5" stroke="transparent" points="557,-1124 557,-1146 865,-1146 865,-1124 557,-1124"/>
<polygon fill="none" stroke="black" points="557,-1124 557,-1146 865,-1146 865,-1124 557,-1124"/>
<text text-anchor="start" x="562" y="-1133.2" font-family="Helvetica,sans-Serif" font-weight="bold" font-size="11.00">c_bp_relation</text>
<text text-anchor="start" x="830" y="-1132.2" font-family="Helvetica,sans-Serif" font-size="11.00">[table]</text>
<polygon fill="none" stroke="black" points="557,-1102 557,-1124 782,-1124 782,-1102 557,-1102"/>
<image xlink:href="../../images/primaryKeys.png" width="11px" height="12px" preserveAspectRatio="xMinYMin meet" x="562" y="-1119"/>
<text text-anchor="start" x="577" y="-1110.2" font-family="Helvetica,sans-Serif" font-size="11.00">c_bp_relation_id</text>
<polygon fill="none" stroke="black" points="782,-1102 782,-1124 865,-1124 865,-1102 782,-1102"/>
<text text-anchor="start" x="785" y="-1110.2" font-family="Helvetica,sans-Serif" font-size="11.00">numeric[10]</text>
<polygon fill="none" stroke="black" points="557,-1080 557,-1102 782,-1102 782,-1080 557,-1080"/>
<text text-anchor="start" x="577" y="-1088.2" font-family="Helvetica,sans-Serif" font-size="11.00">ad_client_id</text>
<polygon fill="none" stroke="black" points="782,-1080 782,-1102 865,-1102 865,-1080 782,-1080"/>
<text text-anchor="start" x="785" y="-1088.2" font-family="Helvetica,sans-Serif" font-size="11.00">numeric[10]</text>
<polygon fill="none" stroke="black" points="557,-1058 557,-1080 782,-1080 782,-1058 557,-1058"/>
<text text-anchor="start" x="577" y="-1066.2" font-family="Helvetica,sans-Serif" font-size="11.00">ad_org_id</text>
<polygon fill="none" stroke="black" points="782,-1058 782,-1080 865,-1080 865,-1058 782,-1058"/>
<text text-anchor="start" x="785" y="-1066.2" font-family="Helvetica,sans-Serif" font-size="11.00">numeric[10]</text>
<polygon fill="none" stroke="black" points="557,-1036 557,-1058 782,-1058 782,-1036 557,-1036"/>
<text text-anchor="start" x="577" y="-1044.2" font-family="Helvetica,sans-Serif" font-size="11.00">isactive</text>
<polygon fill="none" stroke="black" points="782,-1036 782,-1058 865,-1058 865,-1036 782,-1036"/>
<text text-anchor="start" x="785" y="-1044.2" font-family="Helvetica,sans-Serif" font-size="11.00">bpchar[1]</text>
<polygon fill="none" stroke="black" points="557,-1014 557,-1036 782,-1036 782,-1014 557,-1014"/>
<text text-anchor="start" x="577" y="-1022.2" font-family="Helvetica,sans-Serif" font-size="11.00">created</text>
<polygon fill="none" stroke="black" points="782,-1014 782,-1036 865,-1036 865,-1014 782,-1014"/>
<text text-anchor="start" x="785" y="-1022.2" font-family="Helvetica,sans-Serif" font-size="11.00">timestamp[29,6]</text>
<polygon fill="none" stroke="black" points="557,-992 557,-1014 782,-1014 782,-992 557,-992"/>
<text text-anchor="start" x="577" y="-1000.2" font-family="Helvetica,sans-Serif" font-size="11.00">createdby</text>
<polygon fill="none" stroke="black" points="782,-992 782,-1014 865,-1014 865,-992 782,-992"/>
<text text-anchor="start" x="785" y="-1000.2" font-family="Helvetica,sans-Serif" font-size="11.00">numeric[10]</text>
<polygon fill="none" stroke="black" points="557,-970 557,-992 782,-992 782,-970 557,-970"/>
<text text-anchor="start" x="577" y="-978.2" font-family="Helvetica,sans-Serif" font-size="11.00">updated</text>
<polygon fill="none" stroke="black" points="782,-970 782,-992 865,-992 865,-970 782,-970"/>
<text text-anchor="start" x="785" y="-978.2" font-family="Helvetica,sans-Serif" font-size="11.00">timestamp[29,6]</text>
<polygon fill="none" stroke="black" points="557,-948 557,-970 782,-970 782,-948 557,-948"/>
<text text-anchor="start" x="577" y="-956.2" font-family="Helvetica,sans-Serif" font-size="11.00">updatedby</text>
<polygon fill="none" stroke="black" points="782,-948 782,-970 865,-970 865,-948 782,-948"/>
<text text-anchor="start" x="785" y="-956.2" font-family="Helvetica,sans-Serif" font-size="11.00">numeric[10]</text>
<polygon fill="none" stroke="black" points="557,-926 557,-948 782,-948 782,-926 557,-926"/>
<text text-anchor="start" x="577" y="-934.2" font-family="Helvetica,sans-Serif" font-size="11.00">name</text>
<polygon fill="none" stroke="black" points="782,-926 782,-948 865,-948 865,-926 782,-926"/>
<text text-anchor="start" x="785" y="-934.2" font-family="Helvetica,sans-Serif" font-size="11.00">varchar[60]</text>
<polygon fill="none" stroke="black" points="557,-904 557,-926 782,-926 782,-904 557,-904"/>
<text text-anchor="start" x="577" y="-912.2" font-family="Helvetica,sans-Serif" font-size="11.00">description</text>
<polygon fill="none" stroke="black" points="782,-904 782,-926 865,-926 865,-904 782,-904"/>
<text text-anchor="start" x="785" y="-912.2" font-family="Helvetica,sans-Serif" font-size="11.00">varchar[255]</text>
<polygon fill="none" stroke="black" points="557,-882 557,-904 782,-904 782,-882 557,-882"/>
<image xlink:href="../../images/foreignKeys.png" width="11px" height="12px" preserveAspectRatio="xMinYMin meet" x="562" y="-899"/>
<text text-anchor="start" x="577" y="-890.2" font-family="Helvetica,sans-Serif" font-size="11.00">c_bpartner_id</text>
<polygon fill="none" stroke="black" points="782,-882 782,-904 865,-904 865,-882 782,-882"/>
<text text-anchor="start" x="785" y="-890.2" font-family="Helvetica,sans-Serif" font-size="11.00">numeric[10]</text>
<polygon fill="none" stroke="black" points="557,-860 557,-882 782,-882 782,-860 557,-860"/>
<image xlink:href="../../images/foreignKeys.png" width="11px" height="12px" preserveAspectRatio="xMinYMin meet" x="562" y="-877"/>
<text text-anchor="start" x="577" y="-868.2" font-family="Helvetica,sans-Serif" font-size="11.00">c_bpartner_location_id</text>
<polygon fill="none" stroke="black" points="782,-860 782,-882 865,-882 865,-860 782,-860"/>
<text text-anchor="start" x="785" y="-868.2" font-family="Helvetica,sans-Serif" font-size="11.00">numeric[10]</text>
<polygon fill="none" stroke="black" points="557,-838 557,-860 782,-860 782,-838 557,-838"/>
<text text-anchor="start" x="577" y="-846.2" font-family="Helvetica,sans-Serif" font-size="11.00">isshipto</text>
<polygon fill="none" stroke="black" points="782,-838 782,-860 865,-860 865,-838 782,-838"/>
<text text-anchor="start" x="785" y="-846.2" font-family="Helvetica,sans-Serif" font-size="11.00">bpchar[1]</text>
<polygon fill="none" stroke="black" points="557,-816 557,-838 782,-838 782,-816 557,-816"/>
<text text-anchor="start" x="577" y="-824.2" font-family="Helvetica,sans-Serif" font-size="11.00">isbillto</text>
<polygon fill="none" stroke="black" points="782,-816 782,-838 865,-838 865,-816 782,-816"/>
<text text-anchor="start" x="785" y="-824.2" font-family="Helvetica,sans-Serif" font-size="11.00">bpchar[1]</text>
<polygon fill="none" stroke="black" points="557,-794 557,-816 782,-816 782,-794 557,-794"/>
<text text-anchor="start" x="577" y="-802.2" font-family="Helvetica,sans-Serif" font-size="11.00">ispayfrom</text>
<polygon fill="none" stroke="black" points="782,-794 782,-816 865,-816 865,-794 782,-794"/>
<text text-anchor="start" x="785" y="-802.2" font-family="Helvetica,sans-Serif" font-size="11.00">bpchar[1]</text>
<polygon fill="none" stroke="black" points="557,-772 557,-794 782,-794 782,-772 557,-772"/>
<text text-anchor="start" x="577" y="-780.2" font-family="Helvetica,sans-Serif" font-size="11.00">isremitto</text>
<polygon fill="none" stroke="black" points="782,-772 782,-794 865,-794 865,-772 782,-772"/>
<text text-anchor="start" x="785" y="-780.2" font-family="Helvetica,sans-Serif" font-size="11.00">bpchar[1]</text>
<polygon fill="none" stroke="black" points="557,-750 557,-772 782,-772 782,-750 557,-750"/>
<image xlink:href="../../images/foreignKeys.png" width="11px" height="12px" preserveAspectRatio="xMinYMin meet" x="562" y="-767"/>
<text text-anchor="start" x="577" y="-758.2" font-family="Helvetica,sans-Serif" font-size="11.00">c_bpartnerrelation_id</text>
<polygon fill="none" stroke="black" points="782,-750 782,-772 865,-772 865,-750 782,-750"/>
<text text-anchor="start" x="785" y="-758.2" font-family="Helvetica,sans-Serif" font-size="11.00">numeric[10]</text>
<polygon fill="none" stroke="black" points="557,-728 557,-750 782,-750 782,-728 557,-728"/>
<image xlink:href="../../images/foreignKeys.png" width="11px" height="12px" preserveAspectRatio="xMinYMin meet" x="562" y="-745"/>
<text text-anchor="start" x="577" y="-736.2" font-family="Helvetica,sans-Serif" font-size="11.00">c_bpartnerrelation_location_id</text>
<polygon fill="none" stroke="black" points="782,-728 782,-750 865,-750 865,-728 782,-728"/>
<text text-anchor="start" x="785" y="-736.2" font-family="Helvetica,sans-Serif" font-size="11.00">numeric[10]</text>
<polygon fill="#ffffff" stroke="transparent" points="557,-706 557,-728 782,-728 782,-706 557,-706"/>
<polygon fill="none" stroke="black" points="557,-706 557,-728 782,-728 782,-706 557,-706"/>
<text text-anchor="start" x="577" y="-714.2" font-family="Helvetica,sans-Serif" font-size="11.00">c_bp_relation_uu</text>
<polygon fill="none" stroke="black" points="782,-706 782,-728 865,-728 865,-706 782,-706"/>
<text text-anchor="start" x="785" y="-714.2" font-family="Helvetica,sans-Serif" font-size="11.00">varchar[36]</text>
<polygon fill="#ffffff" stroke="transparent" points="557,-688 557,-706 661,-706 661,-688 557,-688"/>
<polygon fill="none" stroke="black" points="557,-688 557,-706 661,-706 661,-688 557,-688"/>
<text text-anchor="start" x="560" y="-694.2" font-family="Helvetica,sans-Serif" font-size="11.00">&lt; 4</text>
<polygon fill="#ffffff" stroke="transparent" points="661,-688 661,-706 782,-706 782,-688 661,-688"/>
<polygon fill="none" stroke="black" points="661,-688 661,-706 782,-706 782,-688 661,-688"/>
<text text-anchor="start" x="746" y="-694.2" font-family="Helvetica,sans-Serif" font-size="11.00">0 rows</text>
<polygon fill="#ffffff" stroke="transparent" points="782,-688 782,-706 865,-706 865,-688 782,-688"/>
<polygon fill="none" stroke="black" points="782,-688 782,-706 865,-706 865,-688 782,-688"/>
<text text-anchor="start" x="846" y="-694.2" font-family="Helvetica,sans-Serif" font-size="11.00">0 &gt;</text>
<polygon fill="none" stroke="black" stroke-width="2" points="556,-687 556,-1147 866,-1147 866,-687 556,-687"/>
</a>
</g>
</g>
<!-- c_bpartner -->
<g id="node2" class="node">
<title>c_bpartner</title>
<g id="a_node2"><a xlink:href="../../tables/c_bpartner.html" xlink:title="c_bpartner" target="_top">
<polygon fill="#ffffff" stroke="transparent" points="8,-37 8,-777 244,-777 244,-37 8,-37"/>
<polygon fill="#f5f5f5" stroke="transparent" points="8,-755 8,-777 244,-777 244,-755 8,-755"/>
<polygon fill="none" stroke="black" points="8,-755 8,-777 244,-777 244,-755 8,-755"/>
<text text-anchor="start" x="13" y="-764.2" font-family="Helvetica,sans-Serif" font-weight="bold" font-size="11.00">c_bpartner</text>
<text text-anchor="start" x="209" y="-763.2" font-family="Helvetica,sans-Serif" font-size="11.00">[table]</text>
<polygon fill="none" stroke="black" points="8,-733 8,-755 244,-755 244,-733 8,-733"/>
<image xlink:href="../../images/primaryKeys.png" width="11px" height="12px" preserveAspectRatio="xMinYMin meet" x="13" y="-750"/>
<text text-anchor="start" x="28" y="-741.2" font-family="Helvetica,sans-Serif" font-size="11.00">c_bpartner_id</text>
<polygon fill="#ffffff" stroke="transparent" points="8,-711 8,-733 244,-733 244,-711 8,-711"/>
<polygon fill="none" stroke="black" points="8,-711 8,-733 244,-733 244,-711 8,-711"/>
<image xlink:href="../../images/foreignKeys.png" width="11px" height="12px" preserveAspectRatio="xMinYMin meet" x="13" y="-728"/>
<text text-anchor="start" x="28" y="-719.2" font-family="Helvetica,sans-Serif" font-size="11.00">ad_client_id</text>
<polygon fill="none" stroke="black" points="8,-689 8,-711 244,-711 244,-689 8,-689"/>
<image xlink:href="../../images/foreignKeys.png" width="11px" height="12px" preserveAspectRatio="xMinYMin meet" x="13" y="-706"/>
<text text-anchor="start" x="28" y="-697.2" font-family="Helvetica,sans-Serif" font-size="11.00">ad_org_id</text>
<polygon fill="#ffffff" stroke="transparent" points="8,-667 8,-689 244,-689 244,-667 8,-667"/>
<polygon fill="none" stroke="black" points="8,-667 8,-689 244,-689 244,-667 8,-667"/>
<text text-anchor="start" x="28" y="-675.2" font-family="Helvetica,sans-Serif" font-size="11.00">value</text>
<polygon fill="#ffffff" stroke="transparent" points="8,-645 8,-667 244,-667 244,-645 8,-645"/>
<polygon fill="none" stroke="black" points="8,-645 8,-667 244,-667 244,-645 8,-645"/>
<text text-anchor="start" x="28" y="-653.2" font-family="Helvetica,sans-Serif" font-size="11.00">name</text>
<polygon fill="none" stroke="black" points="8,-623 8,-645 244,-645 244,-623 8,-623"/>
<image xlink:href="../../images/foreignKeys.png" width="11px" height="12px" preserveAspectRatio="xMinYMin meet" x="13" y="-640"/>
<text text-anchor="start" x="28" y="-631.2" font-family="Helvetica,sans-Serif" font-size="11.00">c_bp_group_id</text>
<polygon fill="none" stroke="black" points="8,-601 8,-623 244,-623 244,-601 8,-601"/>
<image xlink:href="../../images/foreignKeys.png" width="11px" height="12px" preserveAspectRatio="xMinYMin meet" x="13" y="-618"/>
<text text-anchor="start" x="28" y="-609.2" font-family="Helvetica,sans-Serif" font-size="11.00">ad_language</text>
<polygon fill="none" stroke="black" points="8,-579 8,-601 244,-601 244,-579 8,-579"/>
<image xlink:href="../../images/foreignKeys.png" width="11px" height="12px" preserveAspectRatio="xMinYMin meet" x="13" y="-596"/>
<text text-anchor="start" x="28" y="-587.2" font-family="Helvetica,sans-Serif" font-size="11.00">c_invoiceschedule_id</text>
<polygon fill="none" stroke="black" points="8,-557 8,-579 244,-579 244,-557 8,-557"/>
<image xlink:href="../../images/foreignKeys.png" width="11px" height="12px" preserveAspectRatio="xMinYMin meet" x="13" y="-574"/>
<text text-anchor="start" x="28" y="-565.2" font-family="Helvetica,sans-Serif" font-size="11.00">c_paymentterm_id</text>
<polygon fill="none" stroke="black" points="8,-535 8,-557 244,-557 244,-535 8,-535"/>
<image xlink:href="../../images/foreignKeys.png" width="11px" height="12px" preserveAspectRatio="xMinYMin meet" x="13" y="-552"/>
<text text-anchor="start" x="28" y="-543.2" font-family="Helvetica,sans-Serif" font-size="11.00">m_pricelist_id</text>
<polygon fill="none" stroke="black" points="8,-513 8,-535 244,-535 244,-513 8,-513"/>
<image xlink:href="../../images/foreignKeys.png" width="11px" height="12px" preserveAspectRatio="xMinYMin meet" x="13" y="-530"/>
<text text-anchor="start" x="28" y="-521.2" font-family="Helvetica,sans-Serif" font-size="11.00">m_discountschema_id</text>
<polygon fill="none" stroke="black" points="8,-491 8,-513 244,-513 244,-491 8,-491"/>
<image xlink:href="../../images/foreignKeys.png" width="11px" height="12px" preserveAspectRatio="xMinYMin meet" x="13" y="-508"/>
<text text-anchor="start" x="28" y="-499.2" font-family="Helvetica,sans-Serif" font-size="11.00">c_dunning_id</text>
<polygon fill="none" stroke="black" points="8,-469 8,-491 244,-491 244,-469 8,-469"/>
<image xlink:href="../../images/foreignKeys.png" width="11px" height="12px" preserveAspectRatio="xMinYMin meet" x="13" y="-486"/>
<text text-anchor="start" x="28" y="-477.2" font-family="Helvetica,sans-Serif" font-size="11.00">po_pricelist_id</text>
<polygon fill="none" stroke="black" points="8,-447 8,-469 244,-469 244,-447 8,-447"/>
<image xlink:href="../../images/foreignKeys.png" width="11px" height="12px" preserveAspectRatio="xMinYMin meet" x="13" y="-464"/>
<text text-anchor="start" x="28" y="-455.2" font-family="Helvetica,sans-Serif" font-size="11.00">po_discountschema_id</text>
<polygon fill="none" stroke="black" points="8,-425 8,-447 244,-447 244,-425 8,-425"/>
<image xlink:href="../../images/foreignKeys.png" width="11px" height="12px" preserveAspectRatio="xMinYMin meet" x="13" y="-442"/>
<text text-anchor="start" x="28" y="-433.2" font-family="Helvetica,sans-Serif" font-size="11.00">po_paymentterm_id</text>
<polygon fill="none" stroke="black" points="8,-403 8,-425 244,-425 244,-403 8,-403"/>
<image xlink:href="../../images/foreignKeys.png" width="11px" height="12px" preserveAspectRatio="xMinYMin meet" x="13" y="-420"/>
<text text-anchor="start" x="28" y="-411.2" font-family="Helvetica,sans-Serif" font-size="11.00">c_greeting_id</text>
<polygon fill="none" stroke="black" points="8,-381 8,-403 244,-403 244,-381 8,-381"/>
<image xlink:href="../../images/foreignKeys.png" width="11px" height="12px" preserveAspectRatio="xMinYMin meet" x="13" y="-398"/>
<text text-anchor="start" x="28" y="-389.2" font-family="Helvetica,sans-Serif" font-size="11.00">salesrep_id</text>
<polygon fill="none" stroke="black" points="8,-359 8,-381 244,-381 244,-359 8,-359"/>
<image xlink:href="../../images/foreignKeys.png" width="11px" height="12px" preserveAspectRatio="xMinYMin meet" x="13" y="-376"/>
<text text-anchor="start" x="28" y="-367.2" font-family="Helvetica,sans-Serif" font-size="11.00">bpartner_parent_id</text>
<polygon fill="none" stroke="black" points="8,-337 8,-359 244,-359 244,-337 8,-337"/>
<image xlink:href="../../images/foreignKeys.png" width="11px" height="12px" preserveAspectRatio="xMinYMin meet" x="13" y="-354"/>
<text text-anchor="start" x="28" y="-345.2" font-family="Helvetica,sans-Serif" font-size="11.00">invoice_printformat_id</text>
<polygon fill="#ffffff" stroke="transparent" points="8,-315 8,-337 244,-337 244,-315 8,-315"/>
<polygon fill="none" stroke="black" points="8,-315 8,-337 244,-337 244,-315 8,-315"/>
<image xlink:href="../../images/foreignKeys.png" width="11px" height="12px" preserveAspectRatio="xMinYMin meet" x="13" y="-332"/>
<text text-anchor="start" x="28" y="-323.2" font-family="Helvetica,sans-Serif" font-size="11.00">ad_orgbp_id</text>
<polygon fill="none" stroke="black" points="8,-293 8,-315 244,-315 244,-293 8,-293"/>
<image xlink:href="../../images/foreignKeys.png" width="11px" height="12px" preserveAspectRatio="xMinYMin meet" x="13" y="-310"/>
<text text-anchor="start" x="28" y="-301.2" font-family="Helvetica,sans-Serif" font-size="11.00">c_taxgroup_id</text>
<polygon fill="none" stroke="black" points="8,-271 8,-293 244,-293 244,-271 8,-271"/>
<image xlink:href="../../images/foreignKeys.png" width="11px" height="12px" preserveAspectRatio="xMinYMin meet" x="13" y="-288"/>
<text text-anchor="start" x="28" y="-279.2" font-family="Helvetica,sans-Serif" font-size="11.00">logo_id</text>
<polygon fill="#ffffff" stroke="transparent" points="8,-249 8,-271 244,-271 244,-249 8,-249"/>
<polygon fill="none" stroke="black" points="8,-249 8,-271 244,-271 244,-249 8,-249"/>
<text text-anchor="start" x="28" y="-257.2" font-family="Helvetica,sans-Serif" font-size="11.00">c_bpartner_uu</text>
<polygon fill="none" stroke="black" points="8,-227 8,-249 244,-249 244,-227 8,-227"/>
<image xlink:href="../../images/foreignKeys.png" width="11px" height="12px" preserveAspectRatio="xMinYMin meet" x="13" y="-244"/>
<text text-anchor="start" x="28" y="-235.2" font-family="Helvetica,sans-Serif" font-size="11.00">default1099box_id</text>
<polygon fill="none" stroke="black" points="8,-205 8,-227 244,-227 244,-205 8,-205"/>
<image xlink:href="../../images/foreignKeys.png" width="11px" height="12px" preserveAspectRatio="xMinYMin meet" x="13" y="-222"/>
<text text-anchor="start" x="28" y="-213.2" font-family="Helvetica,sans-Serif" font-size="11.00">cof_c_custody_id</text>
<polygon fill="none" stroke="black" points="8,-183 8,-205 244,-205 244,-183 8,-183"/>
<image xlink:href="../../images/foreignKeys.png" width="11px" height="12px" preserveAspectRatio="xMinYMin meet" x="13" y="-200"/>
<text text-anchor="start" x="28" y="-191.2" font-family="Helvetica,sans-Serif" font-size="11.00">cof_doctypepurchase_id</text>
<polygon fill="none" stroke="black" points="8,-161 8,-183 244,-183 244,-161 8,-161"/>
<image xlink:href="../../images/foreignKeys.png" width="11px" height="12px" preserveAspectRatio="xMinYMin meet" x="13" y="-178"/>
<text text-anchor="start" x="28" y="-169.2" font-family="Helvetica,sans-Serif" font-size="11.00">cof_doctypesale_id</text>
<polygon fill="none" stroke="black" points="8,-139 8,-161 244,-161 244,-139 8,-139"/>
<image xlink:href="../../images/foreignKeys.png" width="11px" height="12px" preserveAspectRatio="xMinYMin meet" x="13" y="-156"/>
<text text-anchor="start" x="28" y="-147.2" font-family="Helvetica,sans-Serif" font-size="11.00">cof_grupofornecedor_id</text>
<polygon fill="none" stroke="black" points="8,-117 8,-139 244,-139 244,-117 8,-117"/>
<image xlink:href="../../images/foreignKeys.png" width="11px" height="12px" preserveAspectRatio="xMinYMin meet" x="13" y="-134"/>
<text text-anchor="start" x="28" y="-125.2" font-family="Helvetica,sans-Serif" font-size="11.00">cof_vendedorinterno_id</text>
<polygon fill="none" stroke="black" points="8,-95 8,-117 244,-117 244,-95 8,-95"/>
<image xlink:href="../../images/foreignKeys.png" width="11px" height="12px" preserveAspectRatio="xMinYMin meet" x="13" y="-112"/>
<text text-anchor="start" x="28" y="-103.2" font-family="Helvetica,sans-Serif" font-size="11.00">cof_tipoparceiro_id</text>
<polygon fill="none" stroke="black" points="8,-73 8,-95 244,-95 244,-73 8,-73"/>
<image xlink:href="../../images/foreignKeys.png" width="11px" height="12px" preserveAspectRatio="xMinYMin meet" x="13" y="-90"/>
<text text-anchor="start" x="28" y="-81.2" font-family="Helvetica,sans-Serif" font-size="11.00">cof_classeparceiro_id</text>
<polygon fill="none" stroke="black" points="8,-55 8,-73 244,-73 244,-55 8,-55"/>
<text text-anchor="start" x="11" y="-61.2" font-family="Helvetica,sans-Serif" font-size="11.00">...</text>
<polygon fill="#ffffff" stroke="transparent" points="8,-37 8,-55 103,-55 103,-37 8,-37"/>
<polygon fill="none" stroke="black" points="8,-37 8,-55 103,-55 103,-37 8,-37"/>
<text text-anchor="start" x="11" y="-43.2" font-family="Helvetica,sans-Serif" font-size="11.00">&lt; 27</text>
<polygon fill="#ffffff" stroke="transparent" points="103,-37 103,-55 176,-55 176,-37 103,-37"/>
<polygon fill="none" stroke="black" points="103,-37 103,-55 176,-55 176,-37 103,-37"/>
<text text-anchor="start" x="140" y="-43.2" font-family="Helvetica,sans-Serif" font-size="11.00">4 rows</text>
<polygon fill="#ffffff" stroke="transparent" points="176,-37 176,-55 244,-55 244,-37 176,-37"/>
<polygon fill="none" stroke="black" points="176,-37 176,-55 244,-55 244,-37 176,-37"/>
<text text-anchor="start" x="213" y="-43.2" font-family="Helvetica,sans-Serif" font-size="11.00">164 &gt;</text>
</a>
</g>
</g>
<!-- c_bp_relation&#45;&gt;c_bpartner -->
<g id="edge1" class="edge">
<title>c_bp_relation:w&#45;&gt;c_bpartner:e</title>
<path fill="none" stroke="black" d="M541.41,-893.98C532.89,-895.21 526.75,-897.24 514,-898 412.4,-904.03 365.51,-960.27 285,-898 229.06,-854.74 315.72,-744 245,-744"/>
<polygon fill="black" stroke="black" points="548.02,-893.53 556.24,-896.59 552.01,-893.27 556,-893 556,-893 556,-893 552.01,-893.27 555.76,-889.41 548.02,-893.53 548.02,-893.53"/>
<ellipse fill="none" stroke="black" cx="544.83" cy="-893.75" rx="3.2" ry="3.2"/>
</g>
<!-- c_bp_relation&#45;&gt;c_bpartner -->
<g id="edge3" class="edge">
<title>c_bp_relation:w&#45;&gt;c_bpartner:e</title>
<path fill="none" stroke="black" d="M541.6,-758.65C503.2,-743.19 561.71,-655.57 514,-620 432.4,-559.17 367.28,-560.09 285,-620 238.19,-654.09 302.91,-744 245,-744"/>
<polygon fill="black" stroke="black" points="548.1,-759.71 555.42,-764.55 552.05,-760.36 556,-761 556,-761 556,-761 552.05,-760.36 556.58,-757.45 548.1,-759.71 548.1,-759.71"/>
<ellipse fill="none" stroke="black" cx="544.95" cy="-759.2" rx="3.2" ry="3.2"/>
</g>
<!-- c_bpartner_location -->
<g id="node3" class="node">
<title>c_bpartner_location</title>
<g id="a_node3"><a xlink:href="../../tables/c_bpartner_location.html" xlink:title="c_bpartner_location" target="_top">
<polygon fill="#ffffff" stroke="transparent" points="293,-631 293,-887 506,-887 506,-631 293,-631"/>
<polygon fill="#f5f5f5" stroke="transparent" points="293.5,-865 293.5,-887 506.5,-887 506.5,-865 293.5,-865"/>
<polygon fill="none" stroke="black" points="293.5,-865 293.5,-887 506.5,-887 506.5,-865 293.5,-865"/>
<text text-anchor="start" x="298.5" y="-874.2" font-family="Helvetica,sans-Serif" font-weight="bold" font-size="11.00">c_bpartner_location</text>
<text text-anchor="start" x="471.5" y="-873.2" font-family="Helvetica,sans-Serif" font-size="11.00">[table]</text>
<polygon fill="none" stroke="black" points="293.5,-843 293.5,-865 506.5,-865 506.5,-843 293.5,-843"/>
<image xlink:href="../../images/primaryKeys.png" width="11px" height="12px" preserveAspectRatio="xMinYMin meet" x="298.5" y="-860"/>
<text text-anchor="start" x="313.5" y="-851.2" font-family="Helvetica,sans-Serif" font-size="11.00">c_bpartner_location_id</text>
<polygon fill="none" stroke="black" points="293.5,-821 293.5,-843 506.5,-843 506.5,-821 293.5,-821"/>
<image xlink:href="../../images/foreignKeys.png" width="11px" height="12px" preserveAspectRatio="xMinYMin meet" x="298.5" y="-838"/>
<text text-anchor="start" x="313.5" y="-829.2" font-family="Helvetica,sans-Serif" font-size="11.00">ad_client_id</text>
<polygon fill="none" stroke="black" points="293.5,-799 293.5,-821 506.5,-821 506.5,-799 293.5,-799"/>
<image xlink:href="../../images/foreignKeys.png" width="11px" height="12px" preserveAspectRatio="xMinYMin meet" x="298.5" y="-816"/>
<text text-anchor="start" x="313.5" y="-807.2" font-family="Helvetica,sans-Serif" font-size="11.00">ad_org_id</text>
<polygon fill="#ffffff" stroke="transparent" points="293.5,-777 293.5,-799 506.5,-799 506.5,-777 293.5,-777"/>
<polygon fill="none" stroke="black" points="293.5,-777 293.5,-799 506.5,-799 506.5,-777 293.5,-777"/>
<text text-anchor="start" x="313.5" y="-785.2" font-family="Helvetica,sans-Serif" font-size="11.00">updated</text>
<polygon fill="none" stroke="black" points="293.5,-755 293.5,-777 506.5,-777 506.5,-755 293.5,-755"/>
<image xlink:href="../../images/foreignKeys.png" width="11px" height="12px" preserveAspectRatio="xMinYMin meet" x="298.5" y="-772"/>
<text text-anchor="start" x="313.5" y="-763.2" font-family="Helvetica,sans-Serif" font-size="11.00">c_salesregion_id</text>
<polygon fill="#ffffff" stroke="transparent" points="293.5,-733 293.5,-755 506.5,-755 506.5,-733 293.5,-733"/>
<polygon fill="none" stroke="black" points="293.5,-733 293.5,-755 506.5,-755 506.5,-733 293.5,-733"/>
<image xlink:href="../../images/foreignKeys.png" width="11px" height="12px" preserveAspectRatio="xMinYMin meet" x="298.5" y="-750"/>
<text text-anchor="start" x="313.5" y="-741.2" font-family="Helvetica,sans-Serif" font-size="11.00">c_bpartner_id</text>
<polygon fill="none" stroke="black" points="293.5,-711 293.5,-733 506.5,-733 506.5,-711 293.5,-711"/>
<image xlink:href="../../images/foreignKeys.png" width="11px" height="12px" preserveAspectRatio="xMinYMin meet" x="298.5" y="-728"/>
<text text-anchor="start" x="313.5" y="-719.2" font-family="Helvetica,sans-Serif" font-size="11.00">c_location_id</text>
<polygon fill="#ffffff" stroke="transparent" points="293.5,-689 293.5,-711 506.5,-711 506.5,-689 293.5,-689"/>
<polygon fill="none" stroke="black" points="293.5,-689 293.5,-711 506.5,-711 506.5,-689 293.5,-689"/>
<text text-anchor="start" x="313.5" y="-697.2" font-family="Helvetica,sans-Serif" font-size="11.00">c_bpartner_location_uu</text>
<polygon fill="none" stroke="black" points="293.5,-667 293.5,-689 506.5,-689 506.5,-667 293.5,-667"/>
<image xlink:href="../../images/foreignKeys.png" width="11px" height="12px" preserveAspectRatio="xMinYMin meet" x="298.5" y="-684"/>
<text text-anchor="start" x="313.5" y="-675.2" font-family="Helvetica,sans-Serif" font-size="11.00">cof_m_shipregion_id</text>
<polygon fill="none" stroke="black" points="293.5,-649 293.5,-667 506.5,-667 506.5,-649 293.5,-649"/>
<text text-anchor="start" x="296.5" y="-655.2" font-family="Helvetica,sans-Serif" font-size="11.00">...</text>
<polygon fill="#ffffff" stroke="transparent" points="293.5,-631 293.5,-649 377.5,-649 377.5,-631 293.5,-631"/>
<polygon fill="none" stroke="black" points="293.5,-631 293.5,-649 377.5,-649 377.5,-631 293.5,-631"/>
<text text-anchor="start" x="296.5" y="-637.2" font-family="Helvetica,sans-Serif" font-size="11.00">&lt; 6</text>
<polygon fill="#ffffff" stroke="transparent" points="377.5,-631 377.5,-649 447.5,-649 447.5,-631 377.5,-631"/>
<polygon fill="none" stroke="black" points="377.5,-631 377.5,-649 447.5,-649 447.5,-631 377.5,-631"/>
<text text-anchor="start" x="411.5" y="-637.2" font-family="Helvetica,sans-Serif" font-size="11.00">5 rows</text>
<polygon fill="#ffffff" stroke="transparent" points="447.5,-631 447.5,-649 506.5,-649 506.5,-631 447.5,-631"/>
<polygon fill="none" stroke="black" points="447.5,-631 447.5,-649 506.5,-649 506.5,-631 447.5,-631"/>
<text text-anchor="start" x="481.5" y="-637.2" font-family="Helvetica,sans-Serif" font-size="11.00">55 &gt;</text>
</a>
</g>
</g>
<!-- c_bp_relation&#45;&gt;c_bpartner_location -->
<g id="edge2" class="edge">
<title>c_bp_relation:w&#45;&gt;c_bpartner_location:e</title>
<path fill="none" stroke="black" d="M541.64,-868.19C530.38,-863.36 524.45,-854 507.5,-854"/>
<polygon fill="black" stroke="black" points="548.15,-869.47 555.31,-874.53 552.07,-870.23 556,-871 556,-871 556,-871 552.07,-870.23 556.69,-867.47 548.15,-869.47 548.15,-869.47"/>
<ellipse fill="none" stroke="black" cx="545.01" cy="-868.85" rx="3.2" ry="3.2"/>
</g>
<!-- c_bp_relation&#45;&gt;c_bpartner_location -->
<g id="edge4" class="edge">
<title>c_bp_relation:w&#45;&gt;c_bpartner_location:e</title>
<path fill="none" stroke="black" d="M541.72,-742.83C512.78,-762.78 556.9,-854 507.5,-854"/>
<polygon fill="black" stroke="black" points="548.27,-741.07 556.93,-742.48 552.14,-740.04 556,-739 556,-739 556,-739 552.14,-740.04 555.07,-735.52 548.27,-741.07 548.27,-741.07"/>
<ellipse fill="none" stroke="black" cx="545.18" cy="-741.9" rx="3.2" ry="3.2"/>
</g>
<!-- c_bpartner_location&#45;&gt;c_bpartner -->
<g id="edge5" class="edge">
<title>c_bpartner_location:w&#45;&gt;c_bpartner:e</title>
<path fill="none" stroke="black" d="M278.09,-744C267.32,-744 260.34,-744 245,-744"/>
<polygon fill="black" stroke="black" points="284.5,-744 292.5,-747.6 288.5,-744 292.5,-744 292.5,-744 292.5,-744 288.5,-744 292.5,-740.4 284.5,-744 284.5,-744"/>
<ellipse fill="none" stroke="black" cx="281.3" cy="-744" rx="3.2" ry="3.2"/>
</g>
</g>
</svg>
