<?xml version="1.0" encoding="UTF-8" standalone="no"?>
<!DOCTYPE svg PUBLIC "-//W3C//DTD SVG 1.1//EN"
 "http://www.w3.org/Graphics/SVG/1.1/DTD/svg11.dtd">
<!-- Generated by graphviz version 2.43.0 (0)
 -->
<!-- Title: oneDegreeRelationshipsDiagram Pages: 1 -->
<svg width="709pt" height="851pt"
 viewBox="0.00 0.00 709.00 851.00" xmlns="http://www.w3.org/2000/svg" xmlns:xlink="http://www.w3.org/1999/xlink">
<g id="graph0" class="graph" transform="scale(1 1) rotate(0) translate(4 847)">
<title>oneDegreeRelationshipsDiagram</title>
<polygon fill="#ffffff" stroke="transparent" points="-4,4 -4,-847 705,-847 705,4 -4,4"/>
<text text-anchor="middle" x="71.5" y="-7.2" font-family="Helvetica,sans-Serif" font-size="11.00">Generated by SchemaSpy</text>
<!-- c_charge_acct -->
<g id="node1" class="node">
<title>c_charge_acct</title>
<g id="a_node1"><a xlink:href="../../tables/c_charge_acct.html" xlink:title="c_charge_acct" target="_top">
<polygon fill="#ffffff" stroke="transparent" points="469,-460 469,-768 693,-768 693,-460 469,-460"/>
<polygon fill="#f5f5f5" stroke="transparent" points="471,-744 471,-766 691,-766 691,-744 471,-744"/>
<polygon fill="none" stroke="black" points="471,-744 471,-766 691,-766 691,-744 471,-744"/>
<text text-anchor="start" x="476" y="-753.2" font-family="Helvetica,sans-Serif" font-weight="bold" font-size="11.00">c_charge_acct</text>
<text text-anchor="start" x="656" y="-752.2" font-family="Helvetica,sans-Serif" font-size="11.00">[table]</text>
<polygon fill="none" stroke="black" points="471,-722 471,-744 608,-744 608,-722 471,-722"/>
<image xlink:href="../../images/primaryKeys.png" width="11px" height="12px" preserveAspectRatio="xMinYMin meet" x="476" y="-739"/>
<text text-anchor="start" x="491" y="-730.2" font-family="Helvetica,sans-Serif" font-size="11.00">c_charge_id</text>
<polygon fill="none" stroke="black" points="608,-722 608,-744 691,-744 691,-722 608,-722"/>
<text text-anchor="start" x="611" y="-730.2" font-family="Helvetica,sans-Serif" font-size="11.00">numeric[10]</text>
<polygon fill="none" stroke="black" points="471,-700 471,-722 608,-722 608,-700 471,-700"/>
<image xlink:href="../../images/primaryKeys.png" width="11px" height="12px" preserveAspectRatio="xMinYMin meet" x="476" y="-717"/>
<text text-anchor="start" x="491" y="-708.2" font-family="Helvetica,sans-Serif" font-size="11.00">c_acctschema_id</text>
<polygon fill="none" stroke="black" points="608,-700 608,-722 691,-722 691,-700 608,-700"/>
<text text-anchor="start" x="611" y="-708.2" font-family="Helvetica,sans-Serif" font-size="11.00">numeric[10]</text>
<polygon fill="none" stroke="black" points="471,-678 471,-700 608,-700 608,-678 471,-678"/>
<text text-anchor="start" x="491" y="-686.2" font-family="Helvetica,sans-Serif" font-size="11.00">ad_client_id</text>
<polygon fill="none" stroke="black" points="608,-678 608,-700 691,-700 691,-678 608,-678"/>
<text text-anchor="start" x="611" y="-686.2" font-family="Helvetica,sans-Serif" font-size="11.00">numeric[10]</text>
<polygon fill="none" stroke="black" points="471,-656 471,-678 608,-678 608,-656 471,-656"/>
<text text-anchor="start" x="491" y="-664.2" font-family="Helvetica,sans-Serif" font-size="11.00">ad_org_id</text>
<polygon fill="none" stroke="black" points="608,-656 608,-678 691,-678 691,-656 608,-656"/>
<text text-anchor="start" x="611" y="-664.2" font-family="Helvetica,sans-Serif" font-size="11.00">numeric[10]</text>
<polygon fill="none" stroke="black" points="471,-634 471,-656 608,-656 608,-634 471,-634"/>
<text text-anchor="start" x="491" y="-642.2" font-family="Helvetica,sans-Serif" font-size="11.00">isactive</text>
<polygon fill="none" stroke="black" points="608,-634 608,-656 691,-656 691,-634 608,-634"/>
<text text-anchor="start" x="611" y="-642.2" font-family="Helvetica,sans-Serif" font-size="11.00">bpchar[1]</text>
<polygon fill="none" stroke="black" points="471,-612 471,-634 608,-634 608,-612 471,-612"/>
<text text-anchor="start" x="491" y="-620.2" font-family="Helvetica,sans-Serif" font-size="11.00">created</text>
<polygon fill="none" stroke="black" points="608,-612 608,-634 691,-634 691,-612 608,-612"/>
<text text-anchor="start" x="611" y="-620.2" font-family="Helvetica,sans-Serif" font-size="11.00">timestamp[29,6]</text>
<polygon fill="none" stroke="black" points="471,-590 471,-612 608,-612 608,-590 471,-590"/>
<text text-anchor="start" x="491" y="-598.2" font-family="Helvetica,sans-Serif" font-size="11.00">createdby</text>
<polygon fill="none" stroke="black" points="608,-590 608,-612 691,-612 691,-590 608,-590"/>
<text text-anchor="start" x="611" y="-598.2" font-family="Helvetica,sans-Serif" font-size="11.00">numeric[10]</text>
<polygon fill="none" stroke="black" points="471,-568 471,-590 608,-590 608,-568 471,-568"/>
<text text-anchor="start" x="491" y="-576.2" font-family="Helvetica,sans-Serif" font-size="11.00">updated</text>
<polygon fill="none" stroke="black" points="608,-568 608,-590 691,-590 691,-568 608,-568"/>
<text text-anchor="start" x="611" y="-576.2" font-family="Helvetica,sans-Serif" font-size="11.00">timestamp[29,6]</text>
<polygon fill="none" stroke="black" points="471,-546 471,-568 608,-568 608,-546 471,-546"/>
<text text-anchor="start" x="491" y="-554.2" font-family="Helvetica,sans-Serif" font-size="11.00">updatedby</text>
<polygon fill="none" stroke="black" points="608,-546 608,-568 691,-568 691,-546 608,-546"/>
<text text-anchor="start" x="611" y="-554.2" font-family="Helvetica,sans-Serif" font-size="11.00">numeric[10]</text>
<polygon fill="none" stroke="black" points="471,-524 471,-546 608,-546 608,-524 471,-524"/>
<image xlink:href="../../images/foreignKeys.png" width="11px" height="12px" preserveAspectRatio="xMinYMin meet" x="476" y="-541"/>
<text text-anchor="start" x="491" y="-532.2" font-family="Helvetica,sans-Serif" font-size="11.00">ch_expense_acct</text>
<polygon fill="none" stroke="black" points="608,-524 608,-546 691,-546 691,-524 608,-524"/>
<text text-anchor="start" x="611" y="-532.2" font-family="Helvetica,sans-Serif" font-size="11.00">numeric[10]</text>
<polygon fill="none" stroke="black" points="471,-502 471,-524 608,-524 608,-502 471,-502"/>
<image xlink:href="../../images/foreignKeys.png" width="11px" height="12px" preserveAspectRatio="xMinYMin meet" x="476" y="-519"/>
<text text-anchor="start" x="491" y="-510.2" font-family="Helvetica,sans-Serif" font-size="11.00">ch_revenue_acct</text>
<polygon fill="none" stroke="black" points="608,-502 608,-524 691,-524 691,-502 608,-502"/>
<text text-anchor="start" x="611" y="-510.2" font-family="Helvetica,sans-Serif" font-size="11.00">numeric[10]</text>
<polygon fill="#ffffff" stroke="transparent" points="471,-480 471,-502 608,-502 608,-480 471,-480"/>
<polygon fill="none" stroke="black" points="471,-480 471,-502 608,-502 608,-480 471,-480"/>
<text text-anchor="start" x="491" y="-488.2" font-family="Helvetica,sans-Serif" font-size="11.00">c_charge_acct_uu</text>
<polygon fill="none" stroke="black" points="608,-480 608,-502 691,-502 691,-480 608,-480"/>
<text text-anchor="start" x="611" y="-488.2" font-family="Helvetica,sans-Serif" font-size="11.00">varchar[36]</text>
<polygon fill="#ffffff" stroke="transparent" points="471,-462 471,-480 525,-480 525,-462 471,-462"/>
<polygon fill="none" stroke="black" points="471,-462 471,-480 525,-480 525,-462 471,-462"/>
<text text-anchor="start" x="474" y="-468.2" font-family="Helvetica,sans-Serif" font-size="11.00">&lt; 4</text>
<polygon fill="#ffffff" stroke="transparent" points="525,-462 525,-480 608,-480 608,-462 525,-462"/>
<polygon fill="none" stroke="black" points="525,-462 525,-480 608,-480 608,-462 525,-462"/>
<text text-anchor="start" x="560" y="-468.2" font-family="Helvetica,sans-Serif" font-size="11.00">266 rows</text>
<polygon fill="#ffffff" stroke="transparent" points="608,-462 608,-480 691,-480 691,-462 608,-462"/>
<polygon fill="none" stroke="black" points="608,-462 608,-480 691,-480 691,-462 608,-462"/>
<text text-anchor="start" x="672" y="-468.2" font-family="Helvetica,sans-Serif" font-size="11.00">0 &gt;</text>
<polygon fill="none" stroke="black" stroke-width="2" points="470,-461 470,-767 692,-767 692,-461 470,-461"/>
</a>
</g>
</g>
<!-- c_acctschema -->
<g id="node2" class="node">
<title>c_acctschema</title>
<g id="a_node2"><a xlink:href="../../tables/c_acctschema.html" xlink:title="c_acctschema" target="_top">
<polygon fill="#ffffff" stroke="transparent" points="8,-285 8,-541 195,-541 195,-285 8,-285"/>
<polygon fill="#f5f5f5" stroke="transparent" points="8.5,-519 8.5,-541 195.5,-541 195.5,-519 8.5,-519"/>
<polygon fill="none" stroke="black" points="8.5,-519 8.5,-541 195.5,-541 195.5,-519 8.5,-519"/>
<text text-anchor="start" x="13.5" y="-528.2" font-family="Helvetica,sans-Serif" font-weight="bold" font-size="11.00">c_acctschema</text>
<text text-anchor="start" x="160.5" y="-527.2" font-family="Helvetica,sans-Serif" font-size="11.00">[table]</text>
<polygon fill="none" stroke="black" points="8.5,-497 8.5,-519 195.5,-519 195.5,-497 8.5,-497"/>
<image xlink:href="../../images/primaryKeys.png" width="11px" height="12px" preserveAspectRatio="xMinYMin meet" x="13.5" y="-514"/>
<text text-anchor="start" x="28.5" y="-505.2" font-family="Helvetica,sans-Serif" font-size="11.00">c_acctschema_id</text>
<polygon fill="#ffffff" stroke="transparent" points="8.5,-475 8.5,-497 195.5,-497 195.5,-475 8.5,-475"/>
<polygon fill="none" stroke="black" points="8.5,-475 8.5,-497 195.5,-497 195.5,-475 8.5,-475"/>
<image xlink:href="../../images/foreignKeys.png" width="11px" height="12px" preserveAspectRatio="xMinYMin meet" x="13.5" y="-492"/>
<text text-anchor="start" x="28.5" y="-483.2" font-family="Helvetica,sans-Serif" font-size="11.00">ad_client_id</text>
<polygon fill="none" stroke="black" points="8.5,-453 8.5,-475 195.5,-475 195.5,-453 8.5,-453"/>
<image xlink:href="../../images/foreignKeys.png" width="11px" height="12px" preserveAspectRatio="xMinYMin meet" x="13.5" y="-470"/>
<text text-anchor="start" x="28.5" y="-461.2" font-family="Helvetica,sans-Serif" font-size="11.00">ad_org_id</text>
<polygon fill="#ffffff" stroke="transparent" points="8.5,-431 8.5,-453 195.5,-453 195.5,-431 8.5,-431"/>
<polygon fill="none" stroke="black" points="8.5,-431 8.5,-453 195.5,-453 195.5,-431 8.5,-431"/>
<text text-anchor="start" x="28.5" y="-439.2" font-family="Helvetica,sans-Serif" font-size="11.00">name</text>
<polygon fill="none" stroke="black" points="8.5,-409 8.5,-431 195.5,-431 195.5,-409 8.5,-409"/>
<image xlink:href="../../images/foreignKeys.png" width="11px" height="12px" preserveAspectRatio="xMinYMin meet" x="13.5" y="-426"/>
<text text-anchor="start" x="28.5" y="-417.2" font-family="Helvetica,sans-Serif" font-size="11.00">c_currency_id</text>
<polygon fill="none" stroke="black" points="8.5,-387 8.5,-409 195.5,-409 195.5,-387 8.5,-387"/>
<image xlink:href="../../images/foreignKeys.png" width="11px" height="12px" preserveAspectRatio="xMinYMin meet" x="13.5" y="-404"/>
<text text-anchor="start" x="28.5" y="-395.2" font-family="Helvetica,sans-Serif" font-size="11.00">c_period_id</text>
<polygon fill="none" stroke="black" points="8.5,-365 8.5,-387 195.5,-387 195.5,-365 8.5,-365"/>
<image xlink:href="../../images/foreignKeys.png" width="11px" height="12px" preserveAspectRatio="xMinYMin meet" x="13.5" y="-382"/>
<text text-anchor="start" x="28.5" y="-373.2" font-family="Helvetica,sans-Serif" font-size="11.00">m_costtype_id</text>
<polygon fill="none" stroke="black" points="8.5,-343 8.5,-365 195.5,-365 195.5,-343 8.5,-343"/>
<image xlink:href="../../images/foreignKeys.png" width="11px" height="12px" preserveAspectRatio="xMinYMin meet" x="13.5" y="-360"/>
<text text-anchor="start" x="28.5" y="-351.2" font-family="Helvetica,sans-Serif" font-size="11.00">ad_orgonly_id</text>
<polygon fill="#ffffff" stroke="transparent" points="8.5,-321 8.5,-343 195.5,-343 195.5,-321 8.5,-321"/>
<polygon fill="none" stroke="black" points="8.5,-321 8.5,-343 195.5,-343 195.5,-321 8.5,-321"/>
<text text-anchor="start" x="28.5" y="-329.2" font-family="Helvetica,sans-Serif" font-size="11.00">c_acctschema_uu</text>
<polygon fill="none" stroke="black" points="8.5,-303 8.5,-321 195.5,-321 195.5,-303 8.5,-303"/>
<text text-anchor="start" x="11.5" y="-309.2" font-family="Helvetica,sans-Serif" font-size="11.00">...</text>
<polygon fill="#ffffff" stroke="transparent" points="8.5,-285 8.5,-303 81.5,-303 81.5,-285 8.5,-285"/>
<polygon fill="none" stroke="black" points="8.5,-285 8.5,-303 81.5,-303 81.5,-285 8.5,-285"/>
<text text-anchor="start" x="11.5" y="-291.2" font-family="Helvetica,sans-Serif" font-size="11.00">&lt; 6</text>
<polygon fill="#ffffff" stroke="transparent" points="81.5,-285 81.5,-303 141.5,-303 141.5,-285 81.5,-285"/>
<polygon fill="none" stroke="black" points="81.5,-285 81.5,-303 141.5,-303 141.5,-285 81.5,-285"/>
<text text-anchor="start" x="110.5" y="-291.2" font-family="Helvetica,sans-Serif" font-size="11.00">1 row</text>
<polygon fill="#ffffff" stroke="transparent" points="141.5,-285 141.5,-303 195.5,-303 195.5,-285 141.5,-285"/>
<polygon fill="none" stroke="black" points="141.5,-285 141.5,-303 195.5,-303 195.5,-285 141.5,-285"/>
<text text-anchor="start" x="170.5" y="-291.2" font-family="Helvetica,sans-Serif" font-size="11.00">55 &gt;</text>
</a>
</g>
</g>
<!-- c_charge_acct&#45;&gt;c_acctschema -->
<g id="edge1" class="edge">
<title>c_charge_acct:w&#45;&gt;c_acctschema:e</title>
<path fill="none" stroke="black" d="M455.69,-708.24C426.12,-693.74 465.92,-625.77 428,-595 361.08,-540.71 308.82,-614.08 236,-568 209.02,-550.93 228.43,-508 196.5,-508"/>
<polygon fill="black" stroke="black" points="462.14,-709.49 469.32,-714.54 466.07,-710.24 470,-711 470,-711 470,-711 466.07,-710.24 470.68,-707.46 462.14,-709.49 462.14,-709.49"/>
<ellipse fill="none" stroke="black" cx="459" cy="-708.88" rx="3.2" ry="3.2"/>
</g>
<!-- c_charge -->
<g id="node3" class="node">
<title>c_charge</title>
<g id="a_node3"><a xlink:href="../../tables/c_charge.html" xlink:title="c_charge" target="_top">
<polygon fill="#ffffff" stroke="transparent" points="244,-605 244,-839 420,-839 420,-605 244,-605"/>
<polygon fill="#f5f5f5" stroke="transparent" points="244,-817 244,-839 420,-839 420,-817 244,-817"/>
<polygon fill="none" stroke="black" points="244,-817 244,-839 420,-839 420,-817 244,-817"/>
<text text-anchor="start" x="249" y="-826.2" font-family="Helvetica,sans-Serif" font-weight="bold" font-size="11.00">c_charge</text>
<text text-anchor="start" x="385" y="-825.2" font-family="Helvetica,sans-Serif" font-size="11.00">[table]</text>
<polygon fill="none" stroke="black" points="244,-795 244,-817 420,-817 420,-795 244,-795"/>
<image xlink:href="../../images/primaryKeys.png" width="11px" height="12px" preserveAspectRatio="xMinYMin meet" x="249" y="-812"/>
<text text-anchor="start" x="264" y="-803.2" font-family="Helvetica,sans-Serif" font-size="11.00">c_charge_id</text>
<polygon fill="#ffffff" stroke="transparent" points="244,-773 244,-795 420,-795 420,-773 244,-773"/>
<polygon fill="none" stroke="black" points="244,-773 244,-795 420,-795 420,-773 244,-773"/>
<text text-anchor="start" x="264" y="-781.2" font-family="Helvetica,sans-Serif" font-size="11.00">ad_client_id</text>
<polygon fill="#ffffff" stroke="transparent" points="244,-751 244,-773 420,-773 420,-751 244,-751"/>
<polygon fill="none" stroke="black" points="244,-751 244,-773 420,-773 420,-751 244,-751"/>
<text text-anchor="start" x="264" y="-759.2" font-family="Helvetica,sans-Serif" font-size="11.00">name</text>
<polygon fill="none" stroke="black" points="244,-729 244,-751 420,-751 420,-729 244,-729"/>
<image xlink:href="../../images/foreignKeys.png" width="11px" height="12px" preserveAspectRatio="xMinYMin meet" x="249" y="-746"/>
<text text-anchor="start" x="264" y="-737.2" font-family="Helvetica,sans-Serif" font-size="11.00">c_taxcategory_id</text>
<polygon fill="none" stroke="black" points="244,-707 244,-729 420,-729 420,-707 244,-707"/>
<image xlink:href="../../images/foreignKeys.png" width="11px" height="12px" preserveAspectRatio="xMinYMin meet" x="249" y="-724"/>
<text text-anchor="start" x="264" y="-715.2" font-family="Helvetica,sans-Serif" font-size="11.00">c_bpartner_id</text>
<polygon fill="none" stroke="black" points="244,-685 244,-707 420,-707 420,-685 244,-685"/>
<image xlink:href="../../images/foreignKeys.png" width="11px" height="12px" preserveAspectRatio="xMinYMin meet" x="249" y="-702"/>
<text text-anchor="start" x="264" y="-693.2" font-family="Helvetica,sans-Serif" font-size="11.00">c_chargetype_id</text>
<polygon fill="#ffffff" stroke="transparent" points="244,-663 244,-685 420,-685 420,-663 244,-663"/>
<polygon fill="none" stroke="black" points="244,-663 244,-685 420,-685 420,-663 244,-663"/>
<text text-anchor="start" x="264" y="-671.2" font-family="Helvetica,sans-Serif" font-size="11.00">c_charge_uu</text>
<polygon fill="none" stroke="black" points="244,-641 244,-663 420,-663 420,-641 244,-641"/>
<image xlink:href="../../images/foreignKeys.png" width="11px" height="12px" preserveAspectRatio="xMinYMin meet" x="249" y="-658"/>
<text text-anchor="start" x="264" y="-649.2" font-family="Helvetica,sans-Serif" font-size="11.00">lbr_productcategory_id</text>
<polygon fill="none" stroke="black" points="244,-623 244,-641 420,-641 420,-623 244,-623"/>
<text text-anchor="start" x="247" y="-629.2" font-family="Helvetica,sans-Serif" font-size="11.00">...</text>
<polygon fill="#ffffff" stroke="transparent" points="244,-605 244,-623 303,-623 303,-605 244,-605"/>
<polygon fill="none" stroke="black" points="244,-605 244,-623 303,-623 303,-605 244,-605"/>
<text text-anchor="start" x="247" y="-611.2" font-family="Helvetica,sans-Serif" font-size="11.00">&lt; 3</text>
<polygon fill="#ffffff" stroke="transparent" points="303,-605 303,-623 373,-623 373,-605 303,-605"/>
<polygon fill="none" stroke="black" points="303,-605 303,-623 373,-623 373,-605 303,-605"/>
<text text-anchor="start" x="325" y="-611.2" font-family="Helvetica,sans-Serif" font-size="11.00">266 rows</text>
<polygon fill="#ffffff" stroke="transparent" points="373,-605 373,-623 420,-623 420,-605 373,-605"/>
<polygon fill="none" stroke="black" points="373,-605 373,-623 420,-623 420,-605 373,-605"/>
<text text-anchor="start" x="395" y="-611.2" font-family="Helvetica,sans-Serif" font-size="11.00">37 &gt;</text>
</a>
</g>
</g>
<!-- c_charge_acct&#45;&gt;c_charge -->
<g id="edge2" class="edge">
<title>c_charge_acct:w&#45;&gt;c_charge:e</title>
<path fill="none" stroke="black" d="M456.16,-737.79C438.37,-754.03 453.97,-806 421,-806"/>
<polygon fill="black" stroke="black" points="462.44,-735.62 471.18,-736.4 466.22,-734.31 470,-733 470,-733 470,-733 466.22,-734.31 468.82,-729.6 462.44,-735.62 462.44,-735.62"/>
<ellipse fill="none" stroke="black" cx="459.42" cy="-736.66" rx="3.2" ry="3.2"/>
</g>
<!-- c_validcombination -->
<g id="node4" class="node">
<title>c_validcombination</title>
<g id="a_node4"><a xlink:href="../../tables/c_validcombination.html" xlink:title="c_validcombination" target="_top">
<polygon fill="#ffffff" stroke="transparent" points="245.5,-37 245.5,-557 418.5,-557 418.5,-37 245.5,-37"/>
<polygon fill="#f5f5f5" stroke="transparent" points="246,-535 246,-557 419,-557 419,-535 246,-535"/>
<polygon fill="none" stroke="black" points="246,-535 246,-557 419,-557 419,-535 246,-535"/>
<text text-anchor="start" x="251" y="-544.2" font-family="Helvetica,sans-Serif" font-weight="bold" font-size="11.00">c_validcombination</text>
<text text-anchor="start" x="384" y="-543.2" font-family="Helvetica,sans-Serif" font-size="11.00">[table]</text>
<polygon fill="none" stroke="black" points="246,-513 246,-535 419,-535 419,-513 246,-513"/>
<image xlink:href="../../images/primaryKeys.png" width="11px" height="12px" preserveAspectRatio="xMinYMin meet" x="251" y="-530"/>
<text text-anchor="start" x="266" y="-521.2" font-family="Helvetica,sans-Serif" font-size="11.00">c_validcombination_id</text>
<polygon fill="#ffffff" stroke="transparent" points="246,-491 246,-513 419,-513 419,-491 246,-491"/>
<polygon fill="none" stroke="black" points="246,-491 246,-513 419,-513 419,-491 246,-491"/>
<image xlink:href="../../images/foreignKeys.png" width="11px" height="12px" preserveAspectRatio="xMinYMin meet" x="251" y="-508"/>
<text text-anchor="start" x="266" y="-499.2" font-family="Helvetica,sans-Serif" font-size="11.00">ad_client_id</text>
<polygon fill="#ffffff" stroke="transparent" points="246,-469 246,-491 419,-491 419,-469 246,-469"/>
<polygon fill="none" stroke="black" points="246,-469 246,-491 419,-491 419,-469 246,-469"/>
<image xlink:href="../../images/foreignKeys.png" width="11px" height="12px" preserveAspectRatio="xMinYMin meet" x="251" y="-486"/>
<text text-anchor="start" x="266" y="-477.2" font-family="Helvetica,sans-Serif" font-size="11.00">ad_org_id</text>
<polygon fill="#ffffff" stroke="transparent" points="246,-447 246,-469 419,-469 419,-447 246,-447"/>
<polygon fill="none" stroke="black" points="246,-447 246,-469 419,-469 419,-447 246,-447"/>
<text text-anchor="start" x="266" y="-455.2" font-family="Helvetica,sans-Serif" font-size="11.00">alias</text>
<polygon fill="#ffffff" stroke="transparent" points="246,-425 246,-447 419,-447 419,-425 246,-425"/>
<polygon fill="none" stroke="black" points="246,-425 246,-447 419,-447 419,-425 246,-425"/>
<image xlink:href="../../images/foreignKeys.png" width="11px" height="12px" preserveAspectRatio="xMinYMin meet" x="251" y="-442"/>
<text text-anchor="start" x="266" y="-433.2" font-family="Helvetica,sans-Serif" font-size="11.00">c_acctschema_id</text>
<polygon fill="#ffffff" stroke="transparent" points="246,-403 246,-425 419,-425 419,-403 246,-403"/>
<polygon fill="none" stroke="black" points="246,-403 246,-425 419,-425 419,-403 246,-403"/>
<image xlink:href="../../images/foreignKeys.png" width="11px" height="12px" preserveAspectRatio="xMinYMin meet" x="251" y="-420"/>
<text text-anchor="start" x="266" y="-411.2" font-family="Helvetica,sans-Serif" font-size="11.00">account_id</text>
<polygon fill="#ffffff" stroke="transparent" points="246,-381 246,-403 419,-403 419,-381 246,-381"/>
<polygon fill="none" stroke="black" points="246,-381 246,-403 419,-403 419,-381 246,-381"/>
<image xlink:href="../../images/foreignKeys.png" width="11px" height="12px" preserveAspectRatio="xMinYMin meet" x="251" y="-398"/>
<text text-anchor="start" x="266" y="-389.2" font-family="Helvetica,sans-Serif" font-size="11.00">m_product_id</text>
<polygon fill="#ffffff" stroke="transparent" points="246,-359 246,-381 419,-381 419,-359 246,-359"/>
<polygon fill="none" stroke="black" points="246,-359 246,-381 419,-381 419,-359 246,-359"/>
<image xlink:href="../../images/foreignKeys.png" width="11px" height="12px" preserveAspectRatio="xMinYMin meet" x="251" y="-376"/>
<text text-anchor="start" x="266" y="-367.2" font-family="Helvetica,sans-Serif" font-size="11.00">c_bpartner_id</text>
<polygon fill="#ffffff" stroke="transparent" points="246,-337 246,-359 419,-359 419,-337 246,-337"/>
<polygon fill="none" stroke="black" points="246,-337 246,-359 419,-359 419,-337 246,-337"/>
<image xlink:href="../../images/foreignKeys.png" width="11px" height="12px" preserveAspectRatio="xMinYMin meet" x="251" y="-354"/>
<text text-anchor="start" x="266" y="-345.2" font-family="Helvetica,sans-Serif" font-size="11.00">ad_orgtrx_id</text>
<polygon fill="#ffffff" stroke="transparent" points="246,-315 246,-337 419,-337 419,-315 246,-315"/>
<polygon fill="none" stroke="black" points="246,-315 246,-337 419,-337 419,-315 246,-315"/>
<image xlink:href="../../images/foreignKeys.png" width="11px" height="12px" preserveAspectRatio="xMinYMin meet" x="251" y="-332"/>
<text text-anchor="start" x="266" y="-323.2" font-family="Helvetica,sans-Serif" font-size="11.00">c_locfrom_id</text>
<polygon fill="#ffffff" stroke="transparent" points="246,-293 246,-315 419,-315 419,-293 246,-293"/>
<polygon fill="none" stroke="black" points="246,-293 246,-315 419,-315 419,-293 246,-293"/>
<image xlink:href="../../images/foreignKeys.png" width="11px" height="12px" preserveAspectRatio="xMinYMin meet" x="251" y="-310"/>
<text text-anchor="start" x="266" y="-301.2" font-family="Helvetica,sans-Serif" font-size="11.00">c_locto_id</text>
<polygon fill="#ffffff" stroke="transparent" points="246,-271 246,-293 419,-293 419,-271 246,-271"/>
<polygon fill="none" stroke="black" points="246,-271 246,-293 419,-293 419,-271 246,-271"/>
<image xlink:href="../../images/foreignKeys.png" width="11px" height="12px" preserveAspectRatio="xMinYMin meet" x="251" y="-288"/>
<text text-anchor="start" x="266" y="-279.2" font-family="Helvetica,sans-Serif" font-size="11.00">c_salesregion_id</text>
<polygon fill="#ffffff" stroke="transparent" points="246,-249 246,-271 419,-271 419,-249 246,-249"/>
<polygon fill="none" stroke="black" points="246,-249 246,-271 419,-271 419,-249 246,-249"/>
<image xlink:href="../../images/foreignKeys.png" width="11px" height="12px" preserveAspectRatio="xMinYMin meet" x="251" y="-266"/>
<text text-anchor="start" x="266" y="-257.2" font-family="Helvetica,sans-Serif" font-size="11.00">c_project_id</text>
<polygon fill="#ffffff" stroke="transparent" points="246,-227 246,-249 419,-249 419,-227 246,-227"/>
<polygon fill="none" stroke="black" points="246,-227 246,-249 419,-249 419,-227 246,-227"/>
<image xlink:href="../../images/foreignKeys.png" width="11px" height="12px" preserveAspectRatio="xMinYMin meet" x="251" y="-244"/>
<text text-anchor="start" x="266" y="-235.2" font-family="Helvetica,sans-Serif" font-size="11.00">c_campaign_id</text>
<polygon fill="#ffffff" stroke="transparent" points="246,-205 246,-227 419,-227 419,-205 246,-205"/>
<polygon fill="none" stroke="black" points="246,-205 246,-227 419,-227 419,-205 246,-205"/>
<image xlink:href="../../images/foreignKeys.png" width="11px" height="12px" preserveAspectRatio="xMinYMin meet" x="251" y="-222"/>
<text text-anchor="start" x="266" y="-213.2" font-family="Helvetica,sans-Serif" font-size="11.00">c_activity_id</text>
<polygon fill="#ffffff" stroke="transparent" points="246,-183 246,-205 419,-205 419,-183 246,-183"/>
<polygon fill="none" stroke="black" points="246,-183 246,-205 419,-205 419,-183 246,-183"/>
<image xlink:href="../../images/foreignKeys.png" width="11px" height="12px" preserveAspectRatio="xMinYMin meet" x="251" y="-200"/>
<text text-anchor="start" x="266" y="-191.2" font-family="Helvetica,sans-Serif" font-size="11.00">user1_id</text>
<polygon fill="#ffffff" stroke="transparent" points="246,-161 246,-183 419,-183 419,-161 246,-161"/>
<polygon fill="none" stroke="black" points="246,-161 246,-183 419,-183 419,-161 246,-161"/>
<image xlink:href="../../images/foreignKeys.png" width="11px" height="12px" preserveAspectRatio="xMinYMin meet" x="251" y="-178"/>
<text text-anchor="start" x="266" y="-169.2" font-family="Helvetica,sans-Serif" font-size="11.00">user2_id</text>
<polygon fill="#ffffff" stroke="transparent" points="246,-139 246,-161 419,-161 419,-139 246,-139"/>
<polygon fill="none" stroke="black" points="246,-139 246,-161 419,-161 419,-139 246,-139"/>
<image xlink:href="../../images/foreignKeys.png" width="11px" height="12px" preserveAspectRatio="xMinYMin meet" x="251" y="-156"/>
<text text-anchor="start" x="266" y="-147.2" font-family="Helvetica,sans-Serif" font-size="11.00">c_subacct_id</text>
<polygon fill="#ffffff" stroke="transparent" points="246,-117 246,-139 419,-139 419,-117 246,-117"/>
<polygon fill="none" stroke="black" points="246,-117 246,-139 419,-139 419,-117 246,-117"/>
<text text-anchor="start" x="266" y="-125.2" font-family="Helvetica,sans-Serif" font-size="11.00">userelement1_id</text>
<polygon fill="#ffffff" stroke="transparent" points="246,-95 246,-117 419,-117 419,-95 246,-95"/>
<polygon fill="none" stroke="black" points="246,-95 246,-117 419,-117 419,-95 246,-95"/>
<text text-anchor="start" x="266" y="-103.2" font-family="Helvetica,sans-Serif" font-size="11.00">userelement2_id</text>
<polygon fill="#ffffff" stroke="transparent" points="246,-73 246,-95 419,-95 419,-73 246,-73"/>
<polygon fill="none" stroke="black" points="246,-73 246,-95 419,-95 419,-73 246,-73"/>
<text text-anchor="start" x="266" y="-81.2" font-family="Helvetica,sans-Serif" font-size="11.00">c_validcombination_uu</text>
<polygon fill="none" stroke="black" points="246,-55 246,-73 419,-73 419,-55 246,-55"/>
<text text-anchor="start" x="249" y="-61.2" font-family="Helvetica,sans-Serif" font-size="11.00">...</text>
<polygon fill="#ffffff" stroke="transparent" points="246,-37 246,-55 304,-55 304,-37 246,-37"/>
<polygon fill="none" stroke="black" points="246,-37 246,-55 304,-55 304,-37 246,-37"/>
<text text-anchor="start" x="249" y="-43.2" font-family="Helvetica,sans-Serif" font-size="11.00">&lt; 16</text>
<polygon fill="#ffffff" stroke="transparent" points="304,-37 304,-55 370,-55 370,-37 304,-37"/>
<polygon fill="none" stroke="black" points="304,-37 304,-55 370,-55 370,-37 304,-37"/>
<text text-anchor="start" x="322" y="-43.2" font-family="Helvetica,sans-Serif" font-size="11.00">784 rows</text>
<polygon fill="#ffffff" stroke="transparent" points="370,-37 370,-55 419,-55 419,-37 370,-37"/>
<polygon fill="none" stroke="black" points="370,-37 370,-55 419,-55 419,-37 370,-37"/>
<text text-anchor="start" x="388" y="-43.2" font-family="Helvetica,sans-Serif" font-size="11.00">262 &gt;</text>
</a>
</g>
</g>
<!-- c_charge_acct&#45;&gt;c_validcombination -->
<g id="edge3" class="edge">
<title>c_charge_acct:w&#45;&gt;c_validcombination:e</title>
<path fill="none" stroke="black" d="M455.42,-533.18C443.72,-530.06 436.89,-524 420,-524"/>
<polygon fill="black" stroke="black" points="462.06,-534.01 469.56,-538.57 466.03,-534.51 470,-535 470,-535 470,-535 466.03,-534.51 470.44,-531.43 462.06,-534.01 462.06,-534.01"/>
<ellipse fill="none" stroke="black" cx="458.89" cy="-533.62" rx="3.2" ry="3.2"/>
</g>
<!-- c_charge_acct&#45;&gt;c_validcombination -->
<g id="edge4" class="edge">
<title>c_charge_acct:w&#45;&gt;c_validcombination:e</title>
<path fill="none" stroke="black" d="M455.42,-514.82C443.72,-517.94 436.89,-524 420,-524"/>
<polygon fill="black" stroke="black" points="462.06,-513.99 470.44,-516.57 466.03,-513.49 470,-513 470,-513 470,-513 466.03,-513.49 469.56,-509.43 462.06,-513.99 462.06,-513.99"/>
<ellipse fill="none" stroke="black" cx="458.89" cy="-514.38" rx="3.2" ry="3.2"/>
</g>
<!-- c_validcombination&#45;&gt;c_acctschema -->
<g id="edge5" class="edge">
<title>c_validcombination:w&#45;&gt;c_acctschema:e</title>
<path fill="none" stroke="black" d="M231.33,-440.72C213.73,-456.74 229.05,-508 196.5,-508"/>
<polygon fill="black" stroke="black" points="237.44,-438.61 246.18,-439.4 241.22,-437.31 245,-436 245,-436 245,-436 241.22,-437.31 243.82,-432.6 237.44,-438.61 237.44,-438.61"/>
<ellipse fill="none" stroke="black" cx="234.41" cy="-439.66" rx="3.2" ry="3.2"/>
</g>
</g>
</svg>
