<?xml version="1.0" encoding="UTF-8" standalone="no"?>
<!DOCTYPE svg PUBLIC "-//W3C//DTD SVG 1.1//EN"
 "http://www.w3.org/Graphics/SVG/1.1/DTD/svg11.dtd">
<!-- Generated by graphviz version 2.43.0 (0)
 -->
<!-- Title: oneDegreeRelationshipsDiagram Pages: 1 -->
<svg width="592pt" height="481pt"
 viewBox="0.00 0.00 592.00 481.00" xmlns="http://www.w3.org/2000/svg" xmlns:xlink="http://www.w3.org/1999/xlink">
<g id="graph0" class="graph" transform="scale(1 1) rotate(0) translate(4 477)">
<title>oneDegreeRelationshipsDiagram</title>
<polygon fill="#ffffff" stroke="transparent" points="-4,4 -4,-477 588,-477 588,4 -4,4"/>
<text text-anchor="middle" x="71.5" y="-7.2" font-family="Helvetica,sans-Serif" font-size="11.00">Generated by SchemaSpy</text>
<!-- c_campaign -->
<g id="node1" class="node">
<title>c_campaign</title>
<g id="a_node1"><a xlink:href="../../tables/c_campaign.html" xlink:title="c_campaign" target="_top">
<polygon fill="#ffffff" stroke="transparent" points="454,-301 454,-469 576,-469 576,-301 454,-301"/>
<polygon fill="#f5f5f5" stroke="transparent" points="454,-447 454,-469 576,-469 576,-447 454,-447"/>
<polygon fill="none" stroke="black" points="454,-447 454,-469 576,-469 576,-447 454,-447"/>
<text text-anchor="start" x="459" y="-456.2" font-family="Helvetica,sans-Serif" font-weight="bold" font-size="11.00">c_campaign</text>
<text text-anchor="start" x="541" y="-455.2" font-family="Helvetica,sans-Serif" font-size="11.00">[table]</text>
<polygon fill="none" stroke="black" points="454,-425 454,-447 576,-447 576,-425 454,-425"/>
<image xlink:href="../../images/primaryKeys.png" width="11px" height="12px" preserveAspectRatio="xMinYMin meet" x="459" y="-442"/>
<text text-anchor="start" x="474" y="-433.2" font-family="Helvetica,sans-Serif" font-size="11.00">c_campaign_id</text>
<polygon fill="#ffffff" stroke="transparent" points="454,-403 454,-425 576,-425 576,-403 454,-403"/>
<polygon fill="none" stroke="black" points="454,-403 454,-425 576,-425 576,-403 454,-403"/>
<text text-anchor="start" x="474" y="-411.2" font-family="Helvetica,sans-Serif" font-size="11.00">ad_client_id</text>
<polygon fill="#ffffff" stroke="transparent" points="454,-381 454,-403 576,-403 576,-381 454,-381"/>
<polygon fill="none" stroke="black" points="454,-381 454,-403 576,-403 576,-381 454,-381"/>
<text text-anchor="start" x="474" y="-389.2" font-family="Helvetica,sans-Serif" font-size="11.00">value</text>
<polygon fill="none" stroke="black" points="454,-359 454,-381 576,-381 576,-359 454,-359"/>
<image xlink:href="../../images/foreignKeys.png" width="11px" height="12px" preserveAspectRatio="xMinYMin meet" x="459" y="-376"/>
<text text-anchor="start" x="474" y="-367.2" font-family="Helvetica,sans-Serif" font-size="11.00">c_channel_id</text>
<polygon fill="#ffffff" stroke="transparent" points="454,-337 454,-359 576,-359 576,-337 454,-337"/>
<polygon fill="none" stroke="black" points="454,-337 454,-359 576,-359 576,-337 454,-337"/>
<text text-anchor="start" x="474" y="-345.2" font-family="Helvetica,sans-Serif" font-size="11.00">c_campaign_uu</text>
<polygon fill="none" stroke="black" points="454,-319 454,-337 576,-337 576,-319 454,-319"/>
<text text-anchor="start" x="457" y="-325.2" font-family="Helvetica,sans-Serif" font-size="11.00">...</text>
<polygon fill="#ffffff" stroke="transparent" points="454,-301 454,-319 495,-319 495,-301 454,-301"/>
<polygon fill="none" stroke="black" points="454,-301 454,-319 495,-319 495,-301 454,-301"/>
<text text-anchor="start" x="457" y="-307.2" font-family="Helvetica,sans-Serif" font-size="11.00">&lt; 1</text>
<polygon fill="#ffffff" stroke="transparent" points="495,-301 495,-319 538,-319 538,-301 495,-301"/>
<polygon fill="none" stroke="black" points="495,-301 495,-319 538,-319 538,-301 495,-301"/>
<text text-anchor="start" x="507" y="-307.2" font-family="Helvetica,sans-Serif" font-size="11.00">1 row</text>
<polygon fill="#ffffff" stroke="transparent" points="538,-301 538,-319 576,-319 576,-301 538,-301"/>
<polygon fill="none" stroke="black" points="538,-301 538,-319 576,-319 576,-301 538,-301"/>
<text text-anchor="start" x="551" y="-307.2" font-family="Helvetica,sans-Serif" font-size="11.00">49 &gt;</text>
</a>
</g>
</g>
<!-- c_channel -->
<g id="node2" class="node">
<title>c_channel</title>
<g id="a_node2"><a xlink:href="../../tables/c_channel.html" xlink:title="c_channel" target="_top">
<polygon fill="#ffffff" stroke="transparent" points="190,-97 190,-405 405,-405 405,-97 190,-97"/>
<polygon fill="#f5f5f5" stroke="transparent" points="192.5,-381 192.5,-403 403.5,-403 403.5,-381 192.5,-381"/>
<polygon fill="none" stroke="black" points="192.5,-381 192.5,-403 403.5,-403 403.5,-381 192.5,-381"/>
<text text-anchor="start" x="197.5" y="-390.2" font-family="Helvetica,sans-Serif" font-weight="bold" font-size="11.00">c_channel</text>
<text text-anchor="start" x="368.5" y="-389.2" font-family="Helvetica,sans-Serif" font-size="11.00">[table]</text>
<polygon fill="none" stroke="black" points="192.5,-359 192.5,-381 320.5,-381 320.5,-359 192.5,-359"/>
<image xlink:href="../../images/primaryKeys.png" width="11px" height="12px" preserveAspectRatio="xMinYMin meet" x="197.5" y="-376"/>
<text text-anchor="start" x="212.5" y="-367.2" font-family="Helvetica,sans-Serif" font-size="11.00">c_channel_id</text>
<polygon fill="none" stroke="black" points="320.5,-359 320.5,-381 403.5,-381 403.5,-359 320.5,-359"/>
<text text-anchor="start" x="323.5" y="-367.2" font-family="Helvetica,sans-Serif" font-size="11.00">numeric[10]</text>
<polygon fill="#ffffff" stroke="transparent" points="192.5,-337 192.5,-359 320.5,-359 320.5,-337 192.5,-337"/>
<polygon fill="none" stroke="black" points="192.5,-337 192.5,-359 320.5,-359 320.5,-337 192.5,-337"/>
<text text-anchor="start" x="212.5" y="-345.2" font-family="Helvetica,sans-Serif" font-size="11.00">ad_client_id</text>
<polygon fill="none" stroke="black" points="320.5,-337 320.5,-359 403.5,-359 403.5,-337 320.5,-337"/>
<text text-anchor="start" x="323.5" y="-345.2" font-family="Helvetica,sans-Serif" font-size="11.00">numeric[10]</text>
<polygon fill="none" stroke="black" points="192.5,-315 192.5,-337 320.5,-337 320.5,-315 192.5,-315"/>
<text text-anchor="start" x="212.5" y="-323.2" font-family="Helvetica,sans-Serif" font-size="11.00">ad_org_id</text>
<polygon fill="none" stroke="black" points="320.5,-315 320.5,-337 403.5,-337 403.5,-315 320.5,-315"/>
<text text-anchor="start" x="323.5" y="-323.2" font-family="Helvetica,sans-Serif" font-size="11.00">numeric[10]</text>
<polygon fill="none" stroke="black" points="192.5,-293 192.5,-315 320.5,-315 320.5,-293 192.5,-293"/>
<text text-anchor="start" x="212.5" y="-301.2" font-family="Helvetica,sans-Serif" font-size="11.00">isactive</text>
<polygon fill="none" stroke="black" points="320.5,-293 320.5,-315 403.5,-315 403.5,-293 320.5,-293"/>
<text text-anchor="start" x="323.5" y="-301.2" font-family="Helvetica,sans-Serif" font-size="11.00">bpchar[1]</text>
<polygon fill="none" stroke="black" points="192.5,-271 192.5,-293 320.5,-293 320.5,-271 192.5,-271"/>
<text text-anchor="start" x="212.5" y="-279.2" font-family="Helvetica,sans-Serif" font-size="11.00">created</text>
<polygon fill="none" stroke="black" points="320.5,-271 320.5,-293 403.5,-293 403.5,-271 320.5,-271"/>
<text text-anchor="start" x="323.5" y="-279.2" font-family="Helvetica,sans-Serif" font-size="11.00">timestamp[29,6]</text>
<polygon fill="none" stroke="black" points="192.5,-249 192.5,-271 320.5,-271 320.5,-249 192.5,-249"/>
<text text-anchor="start" x="212.5" y="-257.2" font-family="Helvetica,sans-Serif" font-size="11.00">createdby</text>
<polygon fill="none" stroke="black" points="320.5,-249 320.5,-271 403.5,-271 403.5,-249 320.5,-249"/>
<text text-anchor="start" x="323.5" y="-257.2" font-family="Helvetica,sans-Serif" font-size="11.00">numeric[10]</text>
<polygon fill="none" stroke="black" points="192.5,-227 192.5,-249 320.5,-249 320.5,-227 192.5,-227"/>
<text text-anchor="start" x="212.5" y="-235.2" font-family="Helvetica,sans-Serif" font-size="11.00">updated</text>
<polygon fill="none" stroke="black" points="320.5,-227 320.5,-249 403.5,-249 403.5,-227 320.5,-227"/>
<text text-anchor="start" x="323.5" y="-235.2" font-family="Helvetica,sans-Serif" font-size="11.00">timestamp[29,6]</text>
<polygon fill="none" stroke="black" points="192.5,-205 192.5,-227 320.5,-227 320.5,-205 192.5,-205"/>
<text text-anchor="start" x="212.5" y="-213.2" font-family="Helvetica,sans-Serif" font-size="11.00">updatedby</text>
<polygon fill="none" stroke="black" points="320.5,-205 320.5,-227 403.5,-227 403.5,-205 320.5,-205"/>
<text text-anchor="start" x="323.5" y="-213.2" font-family="Helvetica,sans-Serif" font-size="11.00">numeric[10]</text>
<polygon fill="#ffffff" stroke="transparent" points="192.5,-183 192.5,-205 320.5,-205 320.5,-183 192.5,-183"/>
<polygon fill="none" stroke="black" points="192.5,-183 192.5,-205 320.5,-205 320.5,-183 192.5,-183"/>
<text text-anchor="start" x="212.5" y="-191.2" font-family="Helvetica,sans-Serif" font-size="11.00">name</text>
<polygon fill="none" stroke="black" points="320.5,-183 320.5,-205 403.5,-205 403.5,-183 320.5,-183"/>
<text text-anchor="start" x="323.5" y="-191.2" font-family="Helvetica,sans-Serif" font-size="11.00">varchar[60]</text>
<polygon fill="none" stroke="black" points="192.5,-161 192.5,-183 320.5,-183 320.5,-161 192.5,-161"/>
<text text-anchor="start" x="212.5" y="-169.2" font-family="Helvetica,sans-Serif" font-size="11.00">description</text>
<polygon fill="none" stroke="black" points="320.5,-161 320.5,-183 403.5,-183 403.5,-161 320.5,-161"/>
<text text-anchor="start" x="323.5" y="-169.2" font-family="Helvetica,sans-Serif" font-size="11.00">varchar[255]</text>
<polygon fill="none" stroke="black" points="192.5,-139 192.5,-161 320.5,-161 320.5,-139 192.5,-139"/>
<image xlink:href="../../images/foreignKeys.png" width="11px" height="12px" preserveAspectRatio="xMinYMin meet" x="197.5" y="-156"/>
<text text-anchor="start" x="212.5" y="-147.2" font-family="Helvetica,sans-Serif" font-size="11.00">ad_printcolor_id</text>
<polygon fill="none" stroke="black" points="320.5,-139 320.5,-161 403.5,-161 403.5,-139 320.5,-139"/>
<text text-anchor="start" x="323.5" y="-147.2" font-family="Helvetica,sans-Serif" font-size="11.00">numeric[10]</text>
<polygon fill="#ffffff" stroke="transparent" points="192.5,-117 192.5,-139 320.5,-139 320.5,-117 192.5,-117"/>
<polygon fill="none" stroke="black" points="192.5,-117 192.5,-139 320.5,-139 320.5,-117 192.5,-117"/>
<text text-anchor="start" x="212.5" y="-125.2" font-family="Helvetica,sans-Serif" font-size="11.00">c_channel_uu</text>
<polygon fill="none" stroke="black" points="320.5,-117 320.5,-139 403.5,-139 403.5,-117 320.5,-117"/>
<text text-anchor="start" x="323.5" y="-125.2" font-family="Helvetica,sans-Serif" font-size="11.00">varchar[36]</text>
<polygon fill="#ffffff" stroke="transparent" points="192.5,-99 192.5,-117 250.5,-117 250.5,-99 192.5,-99"/>
<polygon fill="none" stroke="black" points="192.5,-99 192.5,-117 250.5,-117 250.5,-99 192.5,-99"/>
<text text-anchor="start" x="195.5" y="-105.2" font-family="Helvetica,sans-Serif" font-size="11.00">&lt; 1</text>
<polygon fill="#ffffff" stroke="transparent" points="250.5,-99 250.5,-117 320.5,-117 320.5,-99 250.5,-99"/>
<polygon fill="none" stroke="black" points="250.5,-99 250.5,-117 320.5,-117 320.5,-99 250.5,-99"/>
<text text-anchor="start" x="289.5" y="-105.2" font-family="Helvetica,sans-Serif" font-size="11.00">1 row</text>
<polygon fill="#ffffff" stroke="transparent" points="320.5,-99 320.5,-117 403.5,-117 403.5,-99 320.5,-99"/>
<polygon fill="none" stroke="black" points="320.5,-99 320.5,-117 403.5,-117 403.5,-99 320.5,-99"/>
<text text-anchor="start" x="384.5" y="-105.2" font-family="Helvetica,sans-Serif" font-size="11.00">1 &gt;</text>
<polygon fill="none" stroke="black" stroke-width="2" points="191,-98 191,-404 404,-404 404,-98 191,-98"/>
</a>
</g>
</g>
<!-- c_campaign&#45;&gt;c_channel -->
<g id="edge1" class="edge">
<title>c_campaign:w&#45;&gt;c_channel:e</title>
<path fill="none" stroke="black" d="M438.28,-370C427.29,-370 420.16,-370 404.5,-370"/>
<polygon fill="black" stroke="black" points="445,-370 453,-373.6 449,-370 453,-370 453,-370 453,-370 449,-370 453,-366.4 445,-370 445,-370"/>
<ellipse fill="none" stroke="black" cx="441.8" cy="-370" rx="3.2" ry="3.2"/>
</g>
<!-- ad_printcolor -->
<g id="node3" class="node">
<title>ad_printcolor</title>
<g id="a_node3"><a xlink:href="../../tables/ad_printcolor.html" xlink:title="ad_printcolor" target="_top">
<polygon fill="#ffffff" stroke="transparent" points="8,-37 8,-183 141,-183 141,-37 8,-37"/>
<polygon fill="#f5f5f5" stroke="transparent" points="8.5,-161 8.5,-183 141.5,-183 141.5,-161 8.5,-161"/>
<polygon fill="none" stroke="black" points="8.5,-161 8.5,-183 141.5,-183 141.5,-161 8.5,-161"/>
<text text-anchor="start" x="13.5" y="-170.2" font-family="Helvetica,sans-Serif" font-weight="bold" font-size="11.00">ad_printcolor</text>
<text text-anchor="start" x="106.5" y="-169.2" font-family="Helvetica,sans-Serif" font-size="11.00">[table]</text>
<polygon fill="none" stroke="black" points="8.5,-139 8.5,-161 141.5,-161 141.5,-139 8.5,-139"/>
<image xlink:href="../../images/primaryKeys.png" width="11px" height="12px" preserveAspectRatio="xMinYMin meet" x="13.5" y="-156"/>
<text text-anchor="start" x="28.5" y="-147.2" font-family="Helvetica,sans-Serif" font-size="11.00">ad_printcolor_id</text>
<polygon fill="#ffffff" stroke="transparent" points="8.5,-117 8.5,-139 141.5,-139 141.5,-117 8.5,-117"/>
<polygon fill="none" stroke="black" points="8.5,-117 8.5,-139 141.5,-139 141.5,-117 8.5,-117"/>
<text text-anchor="start" x="28.5" y="-125.2" font-family="Helvetica,sans-Serif" font-size="11.00">ad_client_id</text>
<polygon fill="#ffffff" stroke="transparent" points="8.5,-95 8.5,-117 141.5,-117 141.5,-95 8.5,-95"/>
<polygon fill="none" stroke="black" points="8.5,-95 8.5,-117 141.5,-117 141.5,-95 8.5,-95"/>
<text text-anchor="start" x="28.5" y="-103.2" font-family="Helvetica,sans-Serif" font-size="11.00">name</text>
<polygon fill="#ffffff" stroke="transparent" points="8.5,-73 8.5,-95 141.5,-95 141.5,-73 8.5,-73"/>
<polygon fill="none" stroke="black" points="8.5,-73 8.5,-95 141.5,-95 141.5,-73 8.5,-73"/>
<text text-anchor="start" x="28.5" y="-81.2" font-family="Helvetica,sans-Serif" font-size="11.00">ad_printcolor_uu</text>
<polygon fill="none" stroke="black" points="8.5,-55 8.5,-73 141.5,-73 141.5,-55 8.5,-55"/>
<text text-anchor="start" x="11.5" y="-61.2" font-family="Helvetica,sans-Serif" font-size="11.00">...</text>
<polygon fill="#ffffff" stroke="transparent" points="8.5,-37 8.5,-55 44.5,-55 44.5,-37 8.5,-37"/>
<polygon fill="none" stroke="black" points="8.5,-37 8.5,-55 44.5,-55 44.5,-37 8.5,-37"/>
<text text-anchor="start" x="11.5" y="-43.2" font-family="Helvetica,sans-Serif" font-size="11.00"> &#160;</text>
<polygon fill="#ffffff" stroke="transparent" points="44.5,-37 44.5,-55 101.5,-55 101.5,-37 44.5,-37"/>
<polygon fill="none" stroke="black" points="44.5,-37 44.5,-55 101.5,-55 101.5,-37 44.5,-37"/>
<text text-anchor="start" x="59.5" y="-43.2" font-family="Helvetica,sans-Serif" font-size="11.00">23 rows</text>
<polygon fill="#ffffff" stroke="transparent" points="101.5,-37 101.5,-55 141.5,-55 141.5,-37 101.5,-37"/>
<polygon fill="none" stroke="black" points="101.5,-37 101.5,-55 141.5,-55 141.5,-37 101.5,-37"/>
<text text-anchor="start" x="116.5" y="-43.2" font-family="Helvetica,sans-Serif" font-size="11.00">21 &gt;</text>
</a>
</g>
</g>
<!-- c_channel&#45;&gt;ad_printcolor -->
<g id="edge2" class="edge">
<title>c_channel:w&#45;&gt;ad_printcolor:e</title>
<path fill="none" stroke="black" d="M176.99,-150C165.68,-150 158.49,-150 142.5,-150"/>
<polygon fill="black" stroke="black" points="183.5,-150 191.5,-153.6 187.5,-150 191.5,-150 191.5,-150 191.5,-150 187.5,-150 191.5,-146.4 183.5,-150 183.5,-150"/>
<ellipse fill="none" stroke="black" cx="180.3" cy="-150" rx="3.2" ry="3.2"/>
</g>
</g>
</svg>
