<?xml version="1.0" encoding="UTF-8" standalone="no"?>
<!DOCTYPE svg PUBLIC "-//W3C//DTD SVG 1.1//EN"
 "http://www.w3.org/Graphics/SVG/1.1/DTD/svg11.dtd">
<!-- Generated by graphviz version 2.43.0 (0)
 -->
<!-- Title: oneDegreeRelationshipsDiagram Pages: 1 -->
<svg width="441pt" height="461pt"
 viewBox="0.00 0.00 441.00 461.00" xmlns="http://www.w3.org/2000/svg" xmlns:xlink="http://www.w3.org/1999/xlink">
<g id="graph0" class="graph" transform="scale(1 1) rotate(0) translate(4 457)">
<title>oneDegreeRelationshipsDiagram</title>
<polygon fill="#ffffff" stroke="transparent" points="-4,4 -4,-457 437,-457 437,4 -4,4"/>
<text text-anchor="middle" x="71.5" y="-7.2" font-family="Helvetica,sans-Serif" font-size="11.00">Generated by SchemaSpy</text>
<!-- c_currency_trl -->
<g id="node1" class="node">
<title>c_currency_trl</title>
<g id="a_node1"><a xlink:href="../../tables/c_currency_trl.html" xlink:title="c_currency_trl" target="_top">
<polygon fill="#ffffff" stroke="transparent" points="200,-37 200,-367 425,-367 425,-37 200,-37"/>
<polygon fill="#f5f5f5" stroke="transparent" points="202.5,-343 202.5,-365 423.5,-365 423.5,-343 202.5,-343"/>
<polygon fill="none" stroke="black" points="202.5,-343 202.5,-365 423.5,-365 423.5,-343 202.5,-343"/>
<text text-anchor="start" x="207.5" y="-352.2" font-family="Helvetica,sans-Serif" font-weight="bold" font-size="11.00">c_currency_trl</text>
<text text-anchor="start" x="388.5" y="-351.2" font-family="Helvetica,sans-Serif" font-size="11.00">[table]</text>
<polygon fill="none" stroke="black" points="202.5,-321 202.5,-343 340.5,-343 340.5,-321 202.5,-321"/>
<image xlink:href="../../images/primaryKeys.png" width="11px" height="12px" preserveAspectRatio="xMinYMin meet" x="207.5" y="-338"/>
<text text-anchor="start" x="222.5" y="-329.2" font-family="Helvetica,sans-Serif" font-size="11.00">c_currency_id</text>
<polygon fill="none" stroke="black" points="340.5,-321 340.5,-343 423.5,-343 423.5,-321 340.5,-321"/>
<text text-anchor="start" x="343.5" y="-329.2" font-family="Helvetica,sans-Serif" font-size="11.00">numeric[10]</text>
<polygon fill="none" stroke="black" points="202.5,-299 202.5,-321 340.5,-321 340.5,-299 202.5,-299"/>
<image xlink:href="../../images/primaryKeys.png" width="11px" height="12px" preserveAspectRatio="xMinYMin meet" x="207.5" y="-316"/>
<text text-anchor="start" x="222.5" y="-307.2" font-family="Helvetica,sans-Serif" font-size="11.00">ad_language</text>
<polygon fill="none" stroke="black" points="340.5,-299 340.5,-321 423.5,-321 423.5,-299 340.5,-299"/>
<text text-anchor="start" x="343.5" y="-307.2" font-family="Helvetica,sans-Serif" font-size="11.00">varchar[6]</text>
<polygon fill="none" stroke="black" points="202.5,-277 202.5,-299 340.5,-299 340.5,-277 202.5,-277"/>
<text text-anchor="start" x="222.5" y="-285.2" font-family="Helvetica,sans-Serif" font-size="11.00">ad_client_id</text>
<polygon fill="none" stroke="black" points="340.5,-277 340.5,-299 423.5,-299 423.5,-277 340.5,-277"/>
<text text-anchor="start" x="343.5" y="-285.2" font-family="Helvetica,sans-Serif" font-size="11.00">numeric[10]</text>
<polygon fill="none" stroke="black" points="202.5,-255 202.5,-277 340.5,-277 340.5,-255 202.5,-255"/>
<text text-anchor="start" x="222.5" y="-263.2" font-family="Helvetica,sans-Serif" font-size="11.00">ad_org_id</text>
<polygon fill="none" stroke="black" points="340.5,-255 340.5,-277 423.5,-277 423.5,-255 340.5,-255"/>
<text text-anchor="start" x="343.5" y="-263.2" font-family="Helvetica,sans-Serif" font-size="11.00">numeric[10]</text>
<polygon fill="none" stroke="black" points="202.5,-233 202.5,-255 340.5,-255 340.5,-233 202.5,-233"/>
<text text-anchor="start" x="222.5" y="-241.2" font-family="Helvetica,sans-Serif" font-size="11.00">isactive</text>
<polygon fill="none" stroke="black" points="340.5,-233 340.5,-255 423.5,-255 423.5,-233 340.5,-233"/>
<text text-anchor="start" x="343.5" y="-241.2" font-family="Helvetica,sans-Serif" font-size="11.00">bpchar[1]</text>
<polygon fill="none" stroke="black" points="202.5,-211 202.5,-233 340.5,-233 340.5,-211 202.5,-211"/>
<text text-anchor="start" x="222.5" y="-219.2" font-family="Helvetica,sans-Serif" font-size="11.00">created</text>
<polygon fill="none" stroke="black" points="340.5,-211 340.5,-233 423.5,-233 423.5,-211 340.5,-211"/>
<text text-anchor="start" x="343.5" y="-219.2" font-family="Helvetica,sans-Serif" font-size="11.00">timestamp[29,6]</text>
<polygon fill="none" stroke="black" points="202.5,-189 202.5,-211 340.5,-211 340.5,-189 202.5,-189"/>
<text text-anchor="start" x="222.5" y="-197.2" font-family="Helvetica,sans-Serif" font-size="11.00">createdby</text>
<polygon fill="none" stroke="black" points="340.5,-189 340.5,-211 423.5,-211 423.5,-189 340.5,-189"/>
<text text-anchor="start" x="343.5" y="-197.2" font-family="Helvetica,sans-Serif" font-size="11.00">numeric[10]</text>
<polygon fill="none" stroke="black" points="202.5,-167 202.5,-189 340.5,-189 340.5,-167 202.5,-167"/>
<text text-anchor="start" x="222.5" y="-175.2" font-family="Helvetica,sans-Serif" font-size="11.00">updated</text>
<polygon fill="none" stroke="black" points="340.5,-167 340.5,-189 423.5,-189 423.5,-167 340.5,-167"/>
<text text-anchor="start" x="343.5" y="-175.2" font-family="Helvetica,sans-Serif" font-size="11.00">timestamp[29,6]</text>
<polygon fill="none" stroke="black" points="202.5,-145 202.5,-167 340.5,-167 340.5,-145 202.5,-145"/>
<text text-anchor="start" x="222.5" y="-153.2" font-family="Helvetica,sans-Serif" font-size="11.00">updatedby</text>
<polygon fill="none" stroke="black" points="340.5,-145 340.5,-167 423.5,-167 423.5,-145 340.5,-145"/>
<text text-anchor="start" x="343.5" y="-153.2" font-family="Helvetica,sans-Serif" font-size="11.00">numeric[10]</text>
<polygon fill="none" stroke="black" points="202.5,-123 202.5,-145 340.5,-145 340.5,-123 202.5,-123"/>
<text text-anchor="start" x="222.5" y="-131.2" font-family="Helvetica,sans-Serif" font-size="11.00">istranslated</text>
<polygon fill="none" stroke="black" points="340.5,-123 340.5,-145 423.5,-145 423.5,-123 340.5,-123"/>
<text text-anchor="start" x="343.5" y="-131.2" font-family="Helvetica,sans-Serif" font-size="11.00">bpchar[1]</text>
<polygon fill="none" stroke="black" points="202.5,-101 202.5,-123 340.5,-123 340.5,-101 202.5,-101"/>
<text text-anchor="start" x="222.5" y="-109.2" font-family="Helvetica,sans-Serif" font-size="11.00">cursymbol</text>
<polygon fill="none" stroke="black" points="340.5,-101 340.5,-123 423.5,-123 423.5,-101 340.5,-101"/>
<text text-anchor="start" x="343.5" y="-109.2" font-family="Helvetica,sans-Serif" font-size="11.00">varchar[10]</text>
<polygon fill="none" stroke="black" points="202.5,-79 202.5,-101 340.5,-101 340.5,-79 202.5,-79"/>
<text text-anchor="start" x="222.5" y="-87.2" font-family="Helvetica,sans-Serif" font-size="11.00">description</text>
<polygon fill="none" stroke="black" points="340.5,-79 340.5,-101 423.5,-101 423.5,-79 340.5,-79"/>
<text text-anchor="start" x="343.5" y="-87.2" font-family="Helvetica,sans-Serif" font-size="11.00">varchar[255]</text>
<polygon fill="#ffffff" stroke="transparent" points="202.5,-57 202.5,-79 340.5,-79 340.5,-57 202.5,-57"/>
<polygon fill="none" stroke="black" points="202.5,-57 202.5,-79 340.5,-79 340.5,-57 202.5,-57"/>
<text text-anchor="start" x="222.5" y="-65.2" font-family="Helvetica,sans-Serif" font-size="11.00">c_currency_trl_uu</text>
<polygon fill="none" stroke="black" points="340.5,-57 340.5,-79 423.5,-79 423.5,-57 340.5,-57"/>
<text text-anchor="start" x="343.5" y="-65.2" font-family="Helvetica,sans-Serif" font-size="11.00">varchar[36]</text>
<polygon fill="#ffffff" stroke="transparent" points="202.5,-39 202.5,-57 256.5,-57 256.5,-39 202.5,-39"/>
<polygon fill="none" stroke="black" points="202.5,-39 202.5,-57 256.5,-57 256.5,-39 202.5,-39"/>
<text text-anchor="start" x="205.5" y="-45.2" font-family="Helvetica,sans-Serif" font-size="11.00">&lt; 2</text>
<polygon fill="#ffffff" stroke="transparent" points="256.5,-39 256.5,-57 340.5,-57 340.5,-39 256.5,-39"/>
<polygon fill="none" stroke="black" points="256.5,-39 256.5,-57 340.5,-57 340.5,-39 256.5,-39"/>
<text text-anchor="start" x="292.5" y="-45.2" font-family="Helvetica,sans-Serif" font-size="11.00">349 rows</text>
<polygon fill="#ffffff" stroke="transparent" points="340.5,-39 340.5,-57 423.5,-57 423.5,-39 340.5,-39"/>
<polygon fill="none" stroke="black" points="340.5,-39 340.5,-57 423.5,-57 423.5,-39 340.5,-39"/>
<text text-anchor="start" x="404.5" y="-45.2" font-family="Helvetica,sans-Serif" font-size="11.00">0 &gt;</text>
<polygon fill="none" stroke="black" stroke-width="2" points="201,-38 201,-366 424,-366 424,-38 201,-38"/>
</a>
</g>
</g>
<!-- ad_language -->
<g id="node2" class="node">
<title>ad_language</title>
<g id="a_node2"><a xlink:href="../../tables/ad_language.html" xlink:title="ad_language" target="_top">
<polygon fill="#ffffff" stroke="transparent" points="8,-70 8,-260 151,-260 151,-70 8,-70"/>
<polygon fill="#f5f5f5" stroke="transparent" points="8.5,-238 8.5,-260 151.5,-260 151.5,-238 8.5,-238"/>
<polygon fill="none" stroke="black" points="8.5,-238 8.5,-260 151.5,-260 151.5,-238 8.5,-238"/>
<text text-anchor="start" x="13.5" y="-247.2" font-family="Helvetica,sans-Serif" font-weight="bold" font-size="11.00">ad_language</text>
<text text-anchor="start" x="116.5" y="-246.2" font-family="Helvetica,sans-Serif" font-size="11.00">[table]</text>
<polygon fill="none" stroke="black" points="8.5,-216 8.5,-238 151.5,-238 151.5,-216 8.5,-216"/>
<image xlink:href="../../images/primaryKeys.png" width="11px" height="12px" preserveAspectRatio="xMinYMin meet" x="13.5" y="-233"/>
<text text-anchor="start" x="28.5" y="-224.2" font-family="Helvetica,sans-Serif" font-size="11.00">ad_language</text>
<polygon fill="none" stroke="black" points="8.5,-194 8.5,-216 151.5,-216 151.5,-194 8.5,-194"/>
<image xlink:href="../../images/foreignKeys.png" width="11px" height="12px" preserveAspectRatio="xMinYMin meet" x="13.5" y="-211"/>
<text text-anchor="start" x="28.5" y="-202.2" font-family="Helvetica,sans-Serif" font-size="11.00">ad_client_id</text>
<polygon fill="none" stroke="black" points="8.5,-172 8.5,-194 151.5,-194 151.5,-172 8.5,-172"/>
<image xlink:href="../../images/foreignKeys.png" width="11px" height="12px" preserveAspectRatio="xMinYMin meet" x="13.5" y="-189"/>
<text text-anchor="start" x="28.5" y="-180.2" font-family="Helvetica,sans-Serif" font-size="11.00">ad_org_id</text>
<polygon fill="#ffffff" stroke="transparent" points="8.5,-150 8.5,-172 151.5,-172 151.5,-150 8.5,-150"/>
<polygon fill="none" stroke="black" points="8.5,-150 8.5,-172 151.5,-172 151.5,-150 8.5,-150"/>
<text text-anchor="start" x="28.5" y="-158.2" font-family="Helvetica,sans-Serif" font-size="11.00">ad_language_id</text>
<polygon fill="#ffffff" stroke="transparent" points="8.5,-128 8.5,-150 151.5,-150 151.5,-128 8.5,-128"/>
<polygon fill="none" stroke="black" points="8.5,-128 8.5,-150 151.5,-150 151.5,-128 8.5,-128"/>
<text text-anchor="start" x="28.5" y="-136.2" font-family="Helvetica,sans-Serif" font-size="11.00">ad_language_uu</text>
<polygon fill="none" stroke="black" points="8.5,-106 8.5,-128 151.5,-128 151.5,-106 8.5,-106"/>
<image xlink:href="../../images/foreignKeys.png" width="11px" height="12px" preserveAspectRatio="xMinYMin meet" x="13.5" y="-123"/>
<text text-anchor="start" x="28.5" y="-114.2" font-family="Helvetica,sans-Serif" font-size="11.00">ad_printpaper_id</text>
<polygon fill="none" stroke="black" points="8.5,-88 8.5,-106 151.5,-106 151.5,-88 8.5,-88"/>
<text text-anchor="start" x="11.5" y="-94.2" font-family="Helvetica,sans-Serif" font-size="11.00">...</text>
<polygon fill="#ffffff" stroke="transparent" points="8.5,-70 8.5,-88 51.5,-88 51.5,-70 8.5,-70"/>
<polygon fill="none" stroke="black" points="8.5,-70 8.5,-88 51.5,-88 51.5,-70 8.5,-70"/>
<text text-anchor="start" x="11.5" y="-76.2" font-family="Helvetica,sans-Serif" font-size="11.00">&lt; 3</text>
<polygon fill="#ffffff" stroke="transparent" points="51.5,-70 51.5,-88 112.5,-88 112.5,-70 51.5,-70"/>
<polygon fill="none" stroke="black" points="51.5,-70 51.5,-88 112.5,-88 112.5,-70 51.5,-70"/>
<text text-anchor="start" x="64.5" y="-76.2" font-family="Helvetica,sans-Serif" font-size="11.00">109 rows</text>
<polygon fill="#ffffff" stroke="transparent" points="112.5,-70 112.5,-88 151.5,-88 151.5,-70 112.5,-70"/>
<polygon fill="none" stroke="black" points="112.5,-70 112.5,-88 151.5,-88 151.5,-70 112.5,-70"/>
<text text-anchor="start" x="126.5" y="-76.2" font-family="Helvetica,sans-Serif" font-size="11.00">86 &gt;</text>
</a>
</g>
</g>
<!-- c_currency_trl&#45;&gt;ad_language -->
<g id="edge1" class="edge">
<title>c_currency_trl:w&#45;&gt;ad_language:e</title>
<path fill="none" stroke="black" d="M187.7,-305.54C167.4,-288.3 189.31,-227 152.5,-227"/>
<polygon fill="black" stroke="black" points="193.89,-307.54 200.39,-313.43 197.69,-308.77 201.5,-310 201.5,-310 201.5,-310 197.69,-308.77 202.61,-306.57 193.89,-307.54 193.89,-307.54"/>
<ellipse fill="none" stroke="black" cx="190.84" cy="-306.55" rx="3.2" ry="3.2"/>
</g>
<!-- c_currency -->
<g id="node3" class="node">
<title>c_currency</title>
<g id="a_node3"><a xlink:href="../../tables/c_currency.html" xlink:title="c_currency" target="_top">
<polygon fill="#ffffff" stroke="transparent" points="8.5,-281 8.5,-449 150.5,-449 150.5,-281 8.5,-281"/>
<polygon fill="#f5f5f5" stroke="transparent" points="8.5,-427 8.5,-449 150.5,-449 150.5,-427 8.5,-427"/>
<polygon fill="none" stroke="black" points="8.5,-427 8.5,-449 150.5,-449 150.5,-427 8.5,-427"/>
<text text-anchor="start" x="13.5" y="-436.2" font-family="Helvetica,sans-Serif" font-weight="bold" font-size="11.00">c_currency</text>
<text text-anchor="start" x="115.5" y="-435.2" font-family="Helvetica,sans-Serif" font-size="11.00">[table]</text>
<polygon fill="none" stroke="black" points="8.5,-405 8.5,-427 150.5,-427 150.5,-405 8.5,-405"/>
<image xlink:href="../../images/primaryKeys.png" width="11px" height="12px" preserveAspectRatio="xMinYMin meet" x="13.5" y="-422"/>
<text text-anchor="start" x="28.5" y="-413.2" font-family="Helvetica,sans-Serif" font-size="11.00">c_currency_id</text>
<polygon fill="none" stroke="black" points="8.5,-383 8.5,-405 150.5,-405 150.5,-383 8.5,-383"/>
<image xlink:href="../../images/foreignKeys.png" width="11px" height="12px" preserveAspectRatio="xMinYMin meet" x="13.5" y="-400"/>
<text text-anchor="start" x="28.5" y="-391.2" font-family="Helvetica,sans-Serif" font-size="11.00">ad_client_id</text>
<polygon fill="none" stroke="black" points="8.5,-361 8.5,-383 150.5,-383 150.5,-361 8.5,-361"/>
<image xlink:href="../../images/foreignKeys.png" width="11px" height="12px" preserveAspectRatio="xMinYMin meet" x="13.5" y="-378"/>
<text text-anchor="start" x="28.5" y="-369.2" font-family="Helvetica,sans-Serif" font-size="11.00">ad_org_id</text>
<polygon fill="#ffffff" stroke="transparent" points="8.5,-339 8.5,-361 150.5,-361 150.5,-339 8.5,-339"/>
<polygon fill="none" stroke="black" points="8.5,-339 8.5,-361 150.5,-361 150.5,-339 8.5,-339"/>
<text text-anchor="start" x="28.5" y="-347.2" font-family="Helvetica,sans-Serif" font-size="11.00">iso_code</text>
<polygon fill="#ffffff" stroke="transparent" points="8.5,-317 8.5,-339 150.5,-339 150.5,-317 8.5,-317"/>
<polygon fill="none" stroke="black" points="8.5,-317 8.5,-339 150.5,-339 150.5,-317 8.5,-317"/>
<text text-anchor="start" x="28.5" y="-325.2" font-family="Helvetica,sans-Serif" font-size="11.00">c_currency_uu</text>
<polygon fill="none" stroke="black" points="8.5,-299 8.5,-317 150.5,-317 150.5,-299 8.5,-299"/>
<text text-anchor="start" x="11.5" y="-305.2" font-family="Helvetica,sans-Serif" font-size="11.00">...</text>
<polygon fill="#ffffff" stroke="transparent" points="8.5,-281 8.5,-299 50.5,-299 50.5,-281 8.5,-281"/>
<polygon fill="none" stroke="black" points="8.5,-281 8.5,-299 50.5,-299 50.5,-281 8.5,-281"/>
<text text-anchor="start" x="11.5" y="-287.2" font-family="Helvetica,sans-Serif" font-size="11.00">&lt; 2</text>
<polygon fill="#ffffff" stroke="transparent" points="50.5,-281 50.5,-299 111.5,-299 111.5,-281 50.5,-281"/>
<polygon fill="none" stroke="black" points="50.5,-281 50.5,-299 111.5,-299 111.5,-281 50.5,-281"/>
<text text-anchor="start" x="63.5" y="-287.2" font-family="Helvetica,sans-Serif" font-size="11.00">175 rows</text>
<polygon fill="#ffffff" stroke="transparent" points="111.5,-281 111.5,-299 150.5,-299 150.5,-281 111.5,-281"/>
<polygon fill="none" stroke="black" points="111.5,-281 111.5,-299 150.5,-299 150.5,-281 111.5,-281"/>
<text text-anchor="start" x="125.5" y="-287.2" font-family="Helvetica,sans-Serif" font-size="11.00">67 &gt;</text>
</a>
</g>
</g>
<!-- c_currency_trl&#45;&gt;c_currency -->
<g id="edge2" class="edge">
<title>c_currency_trl:w&#45;&gt;c_currency:e</title>
<path fill="none" stroke="black" d="M187.49,-336.52C166.84,-353.96 188.84,-416 151.5,-416"/>
<polygon fill="black" stroke="black" points="193.89,-334.45 202.6,-335.43 197.69,-333.23 201.5,-332 201.5,-332 201.5,-332 197.69,-333.23 200.4,-328.57 193.89,-334.45 193.89,-334.45"/>
<ellipse fill="none" stroke="black" cx="190.84" cy="-335.44" rx="3.2" ry="3.2"/>
</g>
</g>
</svg>
