<?xml version="1.0" encoding="UTF-8" standalone="no"?>
<!DOCTYPE svg PUBLIC "-//W3C//DTD SVG 1.1//EN"
 "http://www.w3.org/Graphics/SVG/1.1/DTD/svg11.dtd">
<!-- Generated by graphviz version 2.43.0 (0)
 -->
<!-- Title: oneDegreeRelationshipsDiagram Pages: 1 -->
<svg width="422pt" height="384pt"
 viewBox="0.00 0.00 422.00 384.00" xmlns="http://www.w3.org/2000/svg" xmlns:xlink="http://www.w3.org/1999/xlink">
<g id="graph0" class="graph" transform="scale(1 1) rotate(0) translate(4 380)">
<title>oneDegreeRelationshipsDiagram</title>
<polygon fill="#ffffff" stroke="transparent" points="-4,4 -4,-380 418,-380 418,4 -4,4"/>
<text text-anchor="middle" x="71.5" y="-7.2" font-family="Helvetica,sans-Serif" font-size="11.00">Generated by SchemaSpy</text>
<!-- c_cyclephase -->
<g id="node1" class="node">
<title>c_cyclephase</title>
<g id="a_node1"><a xlink:href="../../tables/c_cyclephase.html" xlink:title="c_cyclephase" target="_top">
<polygon fill="#ffffff" stroke="transparent" points="187,-37 187,-301 406,-301 406,-37 187,-37"/>
<polygon fill="#f5f5f5" stroke="transparent" points="189.5,-277 189.5,-299 404.5,-299 404.5,-277 189.5,-277"/>
<polygon fill="none" stroke="black" points="189.5,-277 189.5,-299 404.5,-299 404.5,-277 189.5,-277"/>
<text text-anchor="start" x="194.5" y="-286.2" font-family="Helvetica,sans-Serif" font-weight="bold" font-size="11.00">c_cyclephase</text>
<text text-anchor="start" x="369.5" y="-285.2" font-family="Helvetica,sans-Serif" font-size="11.00">[table]</text>
<polygon fill="none" stroke="black" points="189.5,-255 189.5,-277 321.5,-277 321.5,-255 189.5,-255"/>
<image xlink:href="../../images/primaryKeys.png" width="11px" height="12px" preserveAspectRatio="xMinYMin meet" x="194.5" y="-272"/>
<text text-anchor="start" x="209.5" y="-263.2" font-family="Helvetica,sans-Serif" font-size="11.00">c_cyclestep_id</text>
<polygon fill="none" stroke="black" points="321.5,-255 321.5,-277 404.5,-277 404.5,-255 321.5,-255"/>
<text text-anchor="start" x="324.5" y="-263.2" font-family="Helvetica,sans-Serif" font-size="11.00">numeric[10]</text>
<polygon fill="none" stroke="black" points="189.5,-233 189.5,-255 321.5,-255 321.5,-233 189.5,-233"/>
<image xlink:href="../../images/primaryKeys.png" width="11px" height="12px" preserveAspectRatio="xMinYMin meet" x="194.5" y="-250"/>
<text text-anchor="start" x="209.5" y="-241.2" font-family="Helvetica,sans-Serif" font-size="11.00">c_phase_id</text>
<polygon fill="none" stroke="black" points="321.5,-233 321.5,-255 404.5,-255 404.5,-233 321.5,-233"/>
<text text-anchor="start" x="324.5" y="-241.2" font-family="Helvetica,sans-Serif" font-size="11.00">numeric[10]</text>
<polygon fill="none" stroke="black" points="189.5,-211 189.5,-233 321.5,-233 321.5,-211 189.5,-211"/>
<text text-anchor="start" x="209.5" y="-219.2" font-family="Helvetica,sans-Serif" font-size="11.00">ad_client_id</text>
<polygon fill="none" stroke="black" points="321.5,-211 321.5,-233 404.5,-233 404.5,-211 321.5,-211"/>
<text text-anchor="start" x="324.5" y="-219.2" font-family="Helvetica,sans-Serif" font-size="11.00">numeric[10]</text>
<polygon fill="none" stroke="black" points="189.5,-189 189.5,-211 321.5,-211 321.5,-189 189.5,-189"/>
<text text-anchor="start" x="209.5" y="-197.2" font-family="Helvetica,sans-Serif" font-size="11.00">ad_org_id</text>
<polygon fill="none" stroke="black" points="321.5,-189 321.5,-211 404.5,-211 404.5,-189 321.5,-189"/>
<text text-anchor="start" x="324.5" y="-197.2" font-family="Helvetica,sans-Serif" font-size="11.00">numeric[10]</text>
<polygon fill="none" stroke="black" points="189.5,-167 189.5,-189 321.5,-189 321.5,-167 189.5,-167"/>
<text text-anchor="start" x="209.5" y="-175.2" font-family="Helvetica,sans-Serif" font-size="11.00">isactive</text>
<polygon fill="none" stroke="black" points="321.5,-167 321.5,-189 404.5,-189 404.5,-167 321.5,-167"/>
<text text-anchor="start" x="324.5" y="-175.2" font-family="Helvetica,sans-Serif" font-size="11.00">bpchar[1]</text>
<polygon fill="none" stroke="black" points="189.5,-145 189.5,-167 321.5,-167 321.5,-145 189.5,-145"/>
<text text-anchor="start" x="209.5" y="-153.2" font-family="Helvetica,sans-Serif" font-size="11.00">created</text>
<polygon fill="none" stroke="black" points="321.5,-145 321.5,-167 404.5,-167 404.5,-145 321.5,-145"/>
<text text-anchor="start" x="324.5" y="-153.2" font-family="Helvetica,sans-Serif" font-size="11.00">timestamp[29,6]</text>
<polygon fill="none" stroke="black" points="189.5,-123 189.5,-145 321.5,-145 321.5,-123 189.5,-123"/>
<text text-anchor="start" x="209.5" y="-131.2" font-family="Helvetica,sans-Serif" font-size="11.00">createdby</text>
<polygon fill="none" stroke="black" points="321.5,-123 321.5,-145 404.5,-145 404.5,-123 321.5,-123"/>
<text text-anchor="start" x="324.5" y="-131.2" font-family="Helvetica,sans-Serif" font-size="11.00">numeric[10]</text>
<polygon fill="none" stroke="black" points="189.5,-101 189.5,-123 321.5,-123 321.5,-101 189.5,-101"/>
<text text-anchor="start" x="209.5" y="-109.2" font-family="Helvetica,sans-Serif" font-size="11.00">updated</text>
<polygon fill="none" stroke="black" points="321.5,-101 321.5,-123 404.5,-123 404.5,-101 321.5,-101"/>
<text text-anchor="start" x="324.5" y="-109.2" font-family="Helvetica,sans-Serif" font-size="11.00">timestamp[29,6]</text>
<polygon fill="none" stroke="black" points="189.5,-79 189.5,-101 321.5,-101 321.5,-79 189.5,-79"/>
<text text-anchor="start" x="209.5" y="-87.2" font-family="Helvetica,sans-Serif" font-size="11.00">updatedby</text>
<polygon fill="none" stroke="black" points="321.5,-79 321.5,-101 404.5,-101 404.5,-79 321.5,-79"/>
<text text-anchor="start" x="324.5" y="-87.2" font-family="Helvetica,sans-Serif" font-size="11.00">numeric[10]</text>
<polygon fill="#ffffff" stroke="transparent" points="189.5,-57 189.5,-79 321.5,-79 321.5,-57 189.5,-57"/>
<polygon fill="none" stroke="black" points="189.5,-57 189.5,-79 321.5,-79 321.5,-57 189.5,-57"/>
<text text-anchor="start" x="209.5" y="-65.2" font-family="Helvetica,sans-Serif" font-size="11.00">c_cyclephase_uu</text>
<polygon fill="none" stroke="black" points="321.5,-57 321.5,-79 404.5,-79 404.5,-57 321.5,-57"/>
<text text-anchor="start" x="324.5" y="-65.2" font-family="Helvetica,sans-Serif" font-size="11.00">varchar[36]</text>
<polygon fill="#ffffff" stroke="transparent" points="189.5,-39 189.5,-57 246.5,-57 246.5,-39 189.5,-39"/>
<polygon fill="none" stroke="black" points="189.5,-39 189.5,-57 246.5,-57 246.5,-39 189.5,-39"/>
<text text-anchor="start" x="192.5" y="-45.2" font-family="Helvetica,sans-Serif" font-size="11.00">&lt; 2</text>
<polygon fill="#ffffff" stroke="transparent" points="246.5,-39 246.5,-57 321.5,-57 321.5,-39 246.5,-39"/>
<polygon fill="none" stroke="black" points="246.5,-39 246.5,-57 321.5,-57 321.5,-39 246.5,-39"/>
<text text-anchor="start" x="285.5" y="-45.2" font-family="Helvetica,sans-Serif" font-size="11.00">0 rows</text>
<polygon fill="#ffffff" stroke="transparent" points="321.5,-39 321.5,-57 404.5,-57 404.5,-39 321.5,-39"/>
<polygon fill="none" stroke="black" points="321.5,-39 321.5,-57 404.5,-57 404.5,-39 321.5,-39"/>
<text text-anchor="start" x="385.5" y="-45.2" font-family="Helvetica,sans-Serif" font-size="11.00">0 &gt;</text>
<polygon fill="none" stroke="black" stroke-width="2" points="188,-38 188,-300 405,-300 405,-38 188,-38"/>
</a>
</g>
</g>
<!-- c_cyclestep -->
<g id="node2" class="node">
<title>c_cyclestep</title>
<g id="a_node2"><a xlink:href="../../tables/c_cyclestep.html" xlink:title="c_cyclestep" target="_top">
<polygon fill="#ffffff" stroke="transparent" points="12.5,-248 12.5,-372 133.5,-372 133.5,-248 12.5,-248"/>
<polygon fill="#f5f5f5" stroke="transparent" points="13,-350 13,-372 134,-372 134,-350 13,-350"/>
<polygon fill="none" stroke="black" points="13,-350 13,-372 134,-372 134,-350 13,-350"/>
<text text-anchor="start" x="18" y="-359.2" font-family="Helvetica,sans-Serif" font-weight="bold" font-size="11.00">c_cyclestep</text>
<text text-anchor="start" x="99" y="-358.2" font-family="Helvetica,sans-Serif" font-size="11.00">[table]</text>
<polygon fill="none" stroke="black" points="13,-328 13,-350 134,-350 134,-328 13,-328"/>
<image xlink:href="../../images/primaryKeys.png" width="11px" height="12px" preserveAspectRatio="xMinYMin meet" x="18" y="-345"/>
<text text-anchor="start" x="33" y="-336.2" font-family="Helvetica,sans-Serif" font-size="11.00">c_cyclestep_id</text>
<polygon fill="none" stroke="black" points="13,-306 13,-328 134,-328 134,-306 13,-306"/>
<image xlink:href="../../images/foreignKeys.png" width="11px" height="12px" preserveAspectRatio="xMinYMin meet" x="18" y="-323"/>
<text text-anchor="start" x="33" y="-314.2" font-family="Helvetica,sans-Serif" font-size="11.00">c_cycle_id</text>
<polygon fill="#ffffff" stroke="transparent" points="13,-284 13,-306 134,-306 134,-284 13,-284"/>
<polygon fill="none" stroke="black" points="13,-284 13,-306 134,-306 134,-284 13,-284"/>
<text text-anchor="start" x="33" y="-292.2" font-family="Helvetica,sans-Serif" font-size="11.00">c_cyclestep_uu</text>
<polygon fill="none" stroke="black" points="13,-266 13,-284 134,-284 134,-266 13,-266"/>
<text text-anchor="start" x="16" y="-272.2" font-family="Helvetica,sans-Serif" font-size="11.00">...</text>
<polygon fill="#ffffff" stroke="transparent" points="13,-248 13,-266 54,-266 54,-248 13,-248"/>
<polygon fill="none" stroke="black" points="13,-248 13,-266 54,-266 54,-248 13,-248"/>
<text text-anchor="start" x="16" y="-254.2" font-family="Helvetica,sans-Serif" font-size="11.00">&lt; 1</text>
<polygon fill="#ffffff" stroke="transparent" points="54,-248 54,-266 102,-266 102,-248 54,-248"/>
<polygon fill="none" stroke="black" points="54,-248 54,-266 102,-266 102,-248 54,-248"/>
<text text-anchor="start" x="66" y="-254.2" font-family="Helvetica,sans-Serif" font-size="11.00">0 rows</text>
<polygon fill="#ffffff" stroke="transparent" points="102,-248 102,-266 134,-266 134,-248 102,-248"/>
<polygon fill="none" stroke="black" points="102,-248 102,-266 134,-266 134,-248 102,-248"/>
<text text-anchor="start" x="115" y="-254.2" font-family="Helvetica,sans-Serif" font-size="11.00">1 &gt;</text>
</a>
</g>
</g>
<!-- c_cyclephase&#45;&gt;c_cyclestep -->
<g id="edge1" class="edge">
<title>c_cyclephase:w&#45;&gt;c_cyclestep:e</title>
<path fill="none" stroke="black" d="M174.59,-270.35C154.8,-286.06 169.25,-339 135,-339"/>
<polygon fill="black" stroke="black" points="180.86,-268.39 189.57,-269.44 184.68,-267.19 188.5,-266 188.5,-266 188.5,-266 184.68,-267.19 187.43,-262.56 180.86,-268.39 180.86,-268.39"/>
<ellipse fill="none" stroke="black" cx="177.81" cy="-269.34" rx="3.2" ry="3.2"/>
</g>
<!-- c_phase -->
<g id="node3" class="node">
<title>c_phase</title>
<g id="a_node3"><a xlink:href="../../tables/c_phase.html" xlink:title="c_phase" target="_top">
<polygon fill="#ffffff" stroke="transparent" points="8,-81 8,-227 138,-227 138,-81 8,-81"/>
<polygon fill="#f5f5f5" stroke="transparent" points="8,-205 8,-227 138,-227 138,-205 8,-205"/>
<polygon fill="none" stroke="black" points="8,-205 8,-227 138,-227 138,-205 8,-205"/>
<text text-anchor="start" x="13" y="-214.2" font-family="Helvetica,sans-Serif" font-weight="bold" font-size="11.00">c_phase</text>
<text text-anchor="start" x="103" y="-213.2" font-family="Helvetica,sans-Serif" font-size="11.00">[table]</text>
<polygon fill="none" stroke="black" points="8,-183 8,-205 138,-205 138,-183 8,-183"/>
<image xlink:href="../../images/foreignKeys.png" width="11px" height="12px" preserveAspectRatio="xMinYMin meet" x="13" y="-200"/>
<text text-anchor="start" x="28" y="-191.2" font-family="Helvetica,sans-Serif" font-size="11.00">c_projecttype_id</text>
<polygon fill="none" stroke="black" points="8,-161 8,-183 138,-183 138,-161 8,-161"/>
<image xlink:href="../../images/primaryKeys.png" width="11px" height="12px" preserveAspectRatio="xMinYMin meet" x="13" y="-178"/>
<text text-anchor="start" x="28" y="-169.2" font-family="Helvetica,sans-Serif" font-size="11.00">c_phase_id</text>
<polygon fill="none" stroke="black" points="8,-139 8,-161 138,-161 138,-139 8,-139"/>
<image xlink:href="../../images/foreignKeys.png" width="11px" height="12px" preserveAspectRatio="xMinYMin meet" x="13" y="-156"/>
<text text-anchor="start" x="28" y="-147.2" font-family="Helvetica,sans-Serif" font-size="11.00">m_product_id</text>
<polygon fill="#ffffff" stroke="transparent" points="8,-117 8,-139 138,-139 138,-117 8,-117"/>
<polygon fill="none" stroke="black" points="8,-117 8,-139 138,-139 138,-117 8,-117"/>
<text text-anchor="start" x="28" y="-125.2" font-family="Helvetica,sans-Serif" font-size="11.00">c_phase_uu</text>
<polygon fill="none" stroke="black" points="8,-99 8,-117 138,-117 138,-99 8,-99"/>
<text text-anchor="start" x="11" y="-105.2" font-family="Helvetica,sans-Serif" font-size="11.00">...</text>
<polygon fill="#ffffff" stroke="transparent" points="8,-81 8,-99 53,-99 53,-81 8,-81"/>
<polygon fill="none" stroke="black" points="8,-81 8,-99 53,-99 53,-81 8,-81"/>
<text text-anchor="start" x="11" y="-87.2" font-family="Helvetica,sans-Serif" font-size="11.00">&lt; 2</text>
<polygon fill="#ffffff" stroke="transparent" points="53,-81 53,-99 104,-99 104,-81 53,-81"/>
<polygon fill="none" stroke="black" points="53,-81 53,-99 104,-99 104,-81 53,-81"/>
<text text-anchor="start" x="68" y="-87.2" font-family="Helvetica,sans-Serif" font-size="11.00">0 rows</text>
<polygon fill="#ffffff" stroke="transparent" points="104,-81 104,-99 138,-99 138,-81 104,-81"/>
<polygon fill="none" stroke="black" points="104,-81 104,-99 138,-99 138,-81 104,-81"/>
<text text-anchor="start" x="119" y="-87.2" font-family="Helvetica,sans-Serif" font-size="11.00">4 &gt;</text>
</a>
</g>
</g>
<!-- c_cyclephase&#45;&gt;c_phase -->
<g id="edge2" class="edge">
<title>c_cyclephase:w&#45;&gt;c_phase:e</title>
<path fill="none" stroke="black" d="M174.69,-239.28C156.83,-223.26 171.77,-172 139,-172"/>
<polygon fill="black" stroke="black" points="180.93,-241.41 187.33,-247.41 184.72,-242.71 188.5,-244 188.5,-244 188.5,-244 184.72,-242.71 189.67,-240.59 180.93,-241.41 180.93,-241.41"/>
<ellipse fill="none" stroke="black" cx="177.9" cy="-240.37" rx="3.2" ry="3.2"/>
</g>
</g>
</svg>
