<?xml version="1.0" encoding="UTF-8" standalone="no"?>
<!DOCTYPE svg PUBLIC "-//W3C//DTD SVG 1.1//EN"
 "http://www.w3.org/Graphics/SVG/1.1/DTD/svg11.dtd">
<!-- Generated by graphviz version 2.43.0 (0)
 -->
<!-- Title: oneDegreeRelationshipsDiagram Pages: 1 -->
<svg width="935pt" height="584pt"
 viewBox="0.00 0.00 935.00 584.00" xmlns="http://www.w3.org/2000/svg" xmlns:xlink="http://www.w3.org/1999/xlink">
<g id="graph0" class="graph" transform="scale(1 1) rotate(0) translate(4 580)">
<title>oneDegreeRelationshipsDiagram</title>
<polygon fill="#ffffff" stroke="transparent" points="-4,4 -4,-580 931,-580 931,4 -4,4"/>
<text text-anchor="middle" x="71.5" y="-7.2" font-family="Helvetica,sans-Serif" font-size="11.00">Generated by SchemaSpy</text>
<!-- c_dunninglevel -->
<g id="node1" class="node">
<title>c_dunninglevel</title>
<g id="a_node1"><a xlink:href="../../tables/c_dunninglevel.html" xlink:title="c_dunninglevel" target="_top">
<polygon fill="#ffffff" stroke="transparent" points="243,-37 243,-205 422,-205 422,-37 243,-37"/>
<polygon fill="#f5f5f5" stroke="transparent" points="243.5,-183 243.5,-205 422.5,-205 422.5,-183 243.5,-183"/>
<polygon fill="none" stroke="black" points="243.5,-183 243.5,-205 422.5,-205 422.5,-183 243.5,-183"/>
<text text-anchor="start" x="248.5" y="-192.2" font-family="Helvetica,sans-Serif" font-weight="bold" font-size="11.00">c_dunninglevel</text>
<text text-anchor="start" x="387.5" y="-191.2" font-family="Helvetica,sans-Serif" font-size="11.00">[table]</text>
<polygon fill="none" stroke="black" points="243.5,-161 243.5,-183 422.5,-183 422.5,-161 243.5,-161"/>
<image xlink:href="../../images/primaryKeys.png" width="11px" height="12px" preserveAspectRatio="xMinYMin meet" x="248.5" y="-178"/>
<text text-anchor="start" x="263.5" y="-169.2" font-family="Helvetica,sans-Serif" font-size="11.00">c_dunninglevel_id</text>
<polygon fill="none" stroke="black" points="243.5,-139 243.5,-161 422.5,-161 422.5,-139 243.5,-139"/>
<image xlink:href="../../images/foreignKeys.png" width="11px" height="12px" preserveAspectRatio="xMinYMin meet" x="248.5" y="-156"/>
<text text-anchor="start" x="263.5" y="-147.2" font-family="Helvetica,sans-Serif" font-size="11.00">c_dunning_id</text>
<polygon fill="none" stroke="black" points="243.5,-117 243.5,-139 422.5,-139 422.5,-117 243.5,-117"/>
<image xlink:href="../../images/foreignKeys.png" width="11px" height="12px" preserveAspectRatio="xMinYMin meet" x="248.5" y="-134"/>
<text text-anchor="start" x="263.5" y="-125.2" font-family="Helvetica,sans-Serif" font-size="11.00">dunning_printformat_id</text>
<polygon fill="none" stroke="black" points="243.5,-95 243.5,-117 422.5,-117 422.5,-95 243.5,-95"/>
<image xlink:href="../../images/foreignKeys.png" width="11px" height="12px" preserveAspectRatio="xMinYMin meet" x="248.5" y="-112"/>
<text text-anchor="start" x="263.5" y="-103.2" font-family="Helvetica,sans-Serif" font-size="11.00">c_paymentterm_id</text>
<polygon fill="#ffffff" stroke="transparent" points="243.5,-73 243.5,-95 422.5,-95 422.5,-73 243.5,-73"/>
<polygon fill="none" stroke="black" points="243.5,-73 243.5,-95 422.5,-95 422.5,-73 243.5,-73"/>
<text text-anchor="start" x="263.5" y="-81.2" font-family="Helvetica,sans-Serif" font-size="11.00">c_dunninglevel_uu</text>
<polygon fill="none" stroke="black" points="243.5,-55 243.5,-73 422.5,-73 422.5,-55 243.5,-55"/>
<text text-anchor="start" x="246.5" y="-61.2" font-family="Helvetica,sans-Serif" font-size="11.00">...</text>
<polygon fill="#ffffff" stroke="transparent" points="243.5,-37 243.5,-55 313.5,-55 313.5,-37 243.5,-37"/>
<polygon fill="none" stroke="black" points="243.5,-37 243.5,-55 313.5,-55 313.5,-37 243.5,-37"/>
<text text-anchor="start" x="246.5" y="-43.2" font-family="Helvetica,sans-Serif" font-size="11.00">&lt; 3</text>
<polygon fill="#ffffff" stroke="transparent" points="313.5,-37 313.5,-55 376.5,-55 376.5,-37 313.5,-37"/>
<polygon fill="none" stroke="black" points="313.5,-37 313.5,-55 376.5,-55 376.5,-37 313.5,-37"/>
<text text-anchor="start" x="340.5" y="-43.2" font-family="Helvetica,sans-Serif" font-size="11.00">0 rows</text>
<polygon fill="#ffffff" stroke="transparent" points="376.5,-37 376.5,-55 422.5,-55 422.5,-37 376.5,-37"/>
<polygon fill="none" stroke="black" points="376.5,-37 376.5,-55 422.5,-55 422.5,-37 376.5,-37"/>
<text text-anchor="start" x="403.5" y="-43.2" font-family="Helvetica,sans-Serif" font-size="11.00">4 &gt;</text>
</a>
</g>
</g>
<!-- c_dunning -->
<g id="node2" class="node">
<title>c_dunning</title>
<g id="a_node2"><a xlink:href="../../tables/c_dunning.html" xlink:title="c_dunning" target="_top">
<polygon fill="#ffffff" stroke="transparent" points="8,-120 8,-222 194,-222 194,-120 8,-120"/>
<polygon fill="#f5f5f5" stroke="transparent" points="8,-200 8,-222 194,-222 194,-200 8,-200"/>
<polygon fill="none" stroke="black" points="8,-200 8,-222 194,-222 194,-200 8,-200"/>
<text text-anchor="start" x="13" y="-209.2" font-family="Helvetica,sans-Serif" font-weight="bold" font-size="11.00">c_dunning</text>
<text text-anchor="start" x="159" y="-208.2" font-family="Helvetica,sans-Serif" font-size="11.00">[table]</text>
<polygon fill="none" stroke="black" points="8,-178 8,-200 194,-200 194,-178 8,-178"/>
<image xlink:href="../../images/primaryKeys.png" width="11px" height="12px" preserveAspectRatio="xMinYMin meet" x="13" y="-195"/>
<text text-anchor="start" x="28" y="-186.2" font-family="Helvetica,sans-Serif" font-size="11.00">c_dunning_id</text>
<polygon fill="#ffffff" stroke="transparent" points="8,-156 8,-178 194,-178 194,-156 8,-156"/>
<polygon fill="none" stroke="black" points="8,-156 8,-178 194,-178 194,-156 8,-156"/>
<text text-anchor="start" x="28" y="-164.2" font-family="Helvetica,sans-Serif" font-size="11.00">c_dunning_uu</text>
<polygon fill="none" stroke="black" points="8,-138 8,-156 194,-156 194,-138 8,-138"/>
<text text-anchor="start" x="11" y="-144.2" font-family="Helvetica,sans-Serif" font-size="11.00">...</text>
<polygon fill="#ffffff" stroke="transparent" points="8,-120 8,-138 77,-138 77,-120 8,-120"/>
<polygon fill="none" stroke="black" points="8,-120 8,-138 77,-138 77,-120 8,-120"/>
<text text-anchor="start" x="11" y="-126.2" font-family="Helvetica,sans-Serif" font-size="11.00"> &#160;</text>
<polygon fill="#ffffff" stroke="transparent" points="77,-120 77,-138 144,-138 144,-120 77,-120"/>
<polygon fill="none" stroke="black" points="77,-120 77,-138 144,-138 144,-120 77,-120"/>
<text text-anchor="start" x="108" y="-126.2" font-family="Helvetica,sans-Serif" font-size="11.00">0 rows</text>
<polygon fill="#ffffff" stroke="transparent" points="144,-120 144,-138 194,-138 194,-120 144,-120"/>
<polygon fill="none" stroke="black" points="144,-120 144,-138 194,-138 194,-120 144,-120"/>
<text text-anchor="start" x="175" y="-126.2" font-family="Helvetica,sans-Serif" font-size="11.00">4 &gt;</text>
</a>
</g>
</g>
<!-- c_dunninglevel&#45;&gt;c_dunning -->
<g id="edge1" class="edge">
<title>c_dunninglevel:w&#45;&gt;c_dunning:e</title>
<path fill="none" stroke="black" d="M228.8,-154.78C216.66,-165.2 216.34,-189 195,-189"/>
<polygon fill="black" stroke="black" points="234.95,-152.64 243.69,-153.4 238.72,-151.32 242.5,-150 242.5,-150 242.5,-150 238.72,-151.32 241.31,-146.6 234.95,-152.64 234.95,-152.64"/>
<ellipse fill="none" stroke="black" cx="231.93" cy="-153.69" rx="3.2" ry="3.2"/>
</g>
<!-- c_dunningrun -->
<g id="node3" class="node">
<title>c_dunningrun</title>
<g id="a_node3"><a xlink:href="../../tables/c_dunningrun.html" xlink:title="c_dunningrun" target="_top">
<polygon fill="#ffffff" stroke="transparent" points="471,-154 471,-572 698,-572 698,-154 471,-154"/>
<polygon fill="#f5f5f5" stroke="transparent" points="473.5,-548 473.5,-570 696.5,-570 696.5,-548 473.5,-548"/>
<polygon fill="none" stroke="black" points="473.5,-548 473.5,-570 696.5,-570 696.5,-548 473.5,-548"/>
<text text-anchor="start" x="478.5" y="-557.2" font-family="Helvetica,sans-Serif" font-weight="bold" font-size="11.00">c_dunningrun</text>
<text text-anchor="start" x="661.5" y="-556.2" font-family="Helvetica,sans-Serif" font-size="11.00">[table]</text>
<polygon fill="none" stroke="black" points="473.5,-526 473.5,-548 613.5,-548 613.5,-526 473.5,-526"/>
<image xlink:href="../../images/primaryKeys.png" width="11px" height="12px" preserveAspectRatio="xMinYMin meet" x="478.5" y="-543"/>
<text text-anchor="start" x="493.5" y="-534.2" font-family="Helvetica,sans-Serif" font-size="11.00">c_dunningrun_id</text>
<polygon fill="none" stroke="black" points="613.5,-526 613.5,-548 696.5,-548 696.5,-526 613.5,-526"/>
<text text-anchor="start" x="616.5" y="-534.2" font-family="Helvetica,sans-Serif" font-size="11.00">numeric[10]</text>
<polygon fill="none" stroke="black" points="473.5,-504 473.5,-526 613.5,-526 613.5,-504 473.5,-504"/>
<text text-anchor="start" x="493.5" y="-512.2" font-family="Helvetica,sans-Serif" font-size="11.00">ad_client_id</text>
<polygon fill="none" stroke="black" points="613.5,-504 613.5,-526 696.5,-526 696.5,-504 613.5,-504"/>
<text text-anchor="start" x="616.5" y="-512.2" font-family="Helvetica,sans-Serif" font-size="11.00">numeric[10]</text>
<polygon fill="none" stroke="black" points="473.5,-482 473.5,-504 613.5,-504 613.5,-482 473.5,-482"/>
<text text-anchor="start" x="493.5" y="-490.2" font-family="Helvetica,sans-Serif" font-size="11.00">ad_org_id</text>
<polygon fill="none" stroke="black" points="613.5,-482 613.5,-504 696.5,-504 696.5,-482 613.5,-482"/>
<text text-anchor="start" x="616.5" y="-490.2" font-family="Helvetica,sans-Serif" font-size="11.00">numeric[10]</text>
<polygon fill="none" stroke="black" points="473.5,-460 473.5,-482 613.5,-482 613.5,-460 473.5,-460"/>
<text text-anchor="start" x="493.5" y="-468.2" font-family="Helvetica,sans-Serif" font-size="11.00">isactive</text>
<polygon fill="none" stroke="black" points="613.5,-460 613.5,-482 696.5,-482 696.5,-460 613.5,-460"/>
<text text-anchor="start" x="616.5" y="-468.2" font-family="Helvetica,sans-Serif" font-size="11.00">bpchar[1]</text>
<polygon fill="none" stroke="black" points="473.5,-438 473.5,-460 613.5,-460 613.5,-438 473.5,-438"/>
<text text-anchor="start" x="493.5" y="-446.2" font-family="Helvetica,sans-Serif" font-size="11.00">created</text>
<polygon fill="none" stroke="black" points="613.5,-438 613.5,-460 696.5,-460 696.5,-438 613.5,-438"/>
<text text-anchor="start" x="616.5" y="-446.2" font-family="Helvetica,sans-Serif" font-size="11.00">timestamp[29,6]</text>
<polygon fill="none" stroke="black" points="473.5,-416 473.5,-438 613.5,-438 613.5,-416 473.5,-416"/>
<text text-anchor="start" x="493.5" y="-424.2" font-family="Helvetica,sans-Serif" font-size="11.00">createdby</text>
<polygon fill="none" stroke="black" points="613.5,-416 613.5,-438 696.5,-438 696.5,-416 613.5,-416"/>
<text text-anchor="start" x="616.5" y="-424.2" font-family="Helvetica,sans-Serif" font-size="11.00">numeric[10]</text>
<polygon fill="none" stroke="black" points="473.5,-394 473.5,-416 613.5,-416 613.5,-394 473.5,-394"/>
<text text-anchor="start" x="493.5" y="-402.2" font-family="Helvetica,sans-Serif" font-size="11.00">updated</text>
<polygon fill="none" stroke="black" points="613.5,-394 613.5,-416 696.5,-416 696.5,-394 613.5,-394"/>
<text text-anchor="start" x="616.5" y="-402.2" font-family="Helvetica,sans-Serif" font-size="11.00">timestamp[29,6]</text>
<polygon fill="none" stroke="black" points="473.5,-372 473.5,-394 613.5,-394 613.5,-372 473.5,-372"/>
<text text-anchor="start" x="493.5" y="-380.2" font-family="Helvetica,sans-Serif" font-size="11.00">updatedby</text>
<polygon fill="none" stroke="black" points="613.5,-372 613.5,-394 696.5,-394 696.5,-372 613.5,-372"/>
<text text-anchor="start" x="616.5" y="-380.2" font-family="Helvetica,sans-Serif" font-size="11.00">numeric[10]</text>
<polygon fill="none" stroke="black" points="473.5,-350 473.5,-372 613.5,-372 613.5,-350 473.5,-350"/>
<text text-anchor="start" x="493.5" y="-358.2" font-family="Helvetica,sans-Serif" font-size="11.00">dunningdate</text>
<polygon fill="none" stroke="black" points="613.5,-350 613.5,-372 696.5,-372 696.5,-350 613.5,-350"/>
<text text-anchor="start" x="616.5" y="-358.2" font-family="Helvetica,sans-Serif" font-size="11.00">timestamp[29,6]</text>
<polygon fill="none" stroke="black" points="473.5,-328 473.5,-350 613.5,-350 613.5,-328 473.5,-328"/>
<image xlink:href="../../images/foreignKeys.png" width="11px" height="12px" preserveAspectRatio="xMinYMin meet" x="478.5" y="-345"/>
<text text-anchor="start" x="493.5" y="-336.2" font-family="Helvetica,sans-Serif" font-size="11.00">c_dunninglevel_id</text>
<polygon fill="none" stroke="black" points="613.5,-328 613.5,-350 696.5,-350 696.5,-328 613.5,-328"/>
<text text-anchor="start" x="616.5" y="-336.2" font-family="Helvetica,sans-Serif" font-size="11.00">numeric[10]</text>
<polygon fill="none" stroke="black" points="473.5,-306 473.5,-328 613.5,-328 613.5,-306 473.5,-306"/>
<text text-anchor="start" x="493.5" y="-314.2" font-family="Helvetica,sans-Serif" font-size="11.00">processed</text>
<polygon fill="none" stroke="black" points="613.5,-306 613.5,-328 696.5,-328 696.5,-306 613.5,-306"/>
<text text-anchor="start" x="616.5" y="-314.2" font-family="Helvetica,sans-Serif" font-size="11.00">bpchar[1]</text>
<polygon fill="none" stroke="black" points="473.5,-284 473.5,-306 613.5,-306 613.5,-284 473.5,-284"/>
<text text-anchor="start" x="493.5" y="-292.2" font-family="Helvetica,sans-Serif" font-size="11.00">processing</text>
<polygon fill="none" stroke="black" points="613.5,-284 613.5,-306 696.5,-306 696.5,-284 613.5,-284"/>
<text text-anchor="start" x="616.5" y="-292.2" font-family="Helvetica,sans-Serif" font-size="11.00">bpchar[1]</text>
<polygon fill="none" stroke="black" points="473.5,-262 473.5,-284 613.5,-284 613.5,-262 473.5,-262"/>
<text text-anchor="start" x="493.5" y="-270.2" font-family="Helvetica,sans-Serif" font-size="11.00">sendit</text>
<polygon fill="none" stroke="black" points="613.5,-262 613.5,-284 696.5,-284 696.5,-262 613.5,-262"/>
<text text-anchor="start" x="616.5" y="-270.2" font-family="Helvetica,sans-Serif" font-size="11.00">bpchar[1]</text>
<polygon fill="none" stroke="black" points="473.5,-240 473.5,-262 613.5,-262 613.5,-240 473.5,-240"/>
<text text-anchor="start" x="493.5" y="-248.2" font-family="Helvetica,sans-Serif" font-size="11.00">description</text>
<polygon fill="none" stroke="black" points="613.5,-240 613.5,-262 696.5,-262 696.5,-240 613.5,-240"/>
<text text-anchor="start" x="616.5" y="-248.2" font-family="Helvetica,sans-Serif" font-size="11.00">varchar[255]</text>
<polygon fill="none" stroke="black" points="473.5,-218 473.5,-240 613.5,-240 613.5,-218 473.5,-218"/>
<image xlink:href="../../images/foreignKeys.png" width="11px" height="12px" preserveAspectRatio="xMinYMin meet" x="478.5" y="-235"/>
<text text-anchor="start" x="493.5" y="-226.2" font-family="Helvetica,sans-Serif" font-size="11.00">c_dunning_id</text>
<polygon fill="none" stroke="black" points="613.5,-218 613.5,-240 696.5,-240 696.5,-218 613.5,-218"/>
<text text-anchor="start" x="616.5" y="-226.2" font-family="Helvetica,sans-Serif" font-size="11.00">numeric[10]</text>
<polygon fill="#ffffff" stroke="transparent" points="473.5,-196 473.5,-218 613.5,-218 613.5,-196 473.5,-196"/>
<polygon fill="none" stroke="black" points="473.5,-196 473.5,-218 613.5,-218 613.5,-196 473.5,-196"/>
<text text-anchor="start" x="493.5" y="-204.2" font-family="Helvetica,sans-Serif" font-size="11.00">c_dunningrun_uu</text>
<polygon fill="none" stroke="black" points="613.5,-196 613.5,-218 696.5,-218 696.5,-196 613.5,-196"/>
<text text-anchor="start" x="616.5" y="-204.2" font-family="Helvetica,sans-Serif" font-size="11.00">varchar[36]</text>
<polygon fill="none" stroke="black" points="473.5,-174 473.5,-196 613.5,-196 613.5,-174 473.5,-174"/>
<text text-anchor="start" x="493.5" y="-182.2" font-family="Helvetica,sans-Serif" font-size="11.00">cof_processed</text>
<polygon fill="none" stroke="black" points="613.5,-174 613.5,-196 696.5,-196 696.5,-174 613.5,-174"/>
<text text-anchor="start" x="616.5" y="-182.2" font-family="Helvetica,sans-Serif" font-size="11.00">bpchar[1]</text>
<polygon fill="#ffffff" stroke="transparent" points="473.5,-156 473.5,-174 534.5,-174 534.5,-156 473.5,-156"/>
<polygon fill="none" stroke="black" points="473.5,-156 473.5,-174 534.5,-174 534.5,-156 473.5,-156"/>
<text text-anchor="start" x="476.5" y="-162.2" font-family="Helvetica,sans-Serif" font-size="11.00">&lt; 2</text>
<polygon fill="#ffffff" stroke="transparent" points="534.5,-156 534.5,-174 613.5,-174 613.5,-156 534.5,-156"/>
<polygon fill="none" stroke="black" points="534.5,-156 534.5,-174 613.5,-174 613.5,-156 534.5,-156"/>
<text text-anchor="start" x="577.5" y="-162.2" font-family="Helvetica,sans-Serif" font-size="11.00">0 rows</text>
<polygon fill="#ffffff" stroke="transparent" points="613.5,-156 613.5,-174 696.5,-174 696.5,-156 613.5,-156"/>
<polygon fill="none" stroke="black" points="613.5,-156 613.5,-174 696.5,-174 696.5,-156 613.5,-156"/>
<text text-anchor="start" x="677.5" y="-162.2" font-family="Helvetica,sans-Serif" font-size="11.00">1 &gt;</text>
<polygon fill="none" stroke="black" stroke-width="2" points="472,-155 472,-571 697,-571 697,-155 472,-155"/>
</a>
</g>
</g>
<!-- c_dunningrun&#45;&gt;c_dunninglevel -->
<g id="edge3" class="edge">
<title>c_dunningrun:w&#45;&gt;c_dunninglevel:e</title>
<path fill="none" stroke="black" d="M458.15,-336.38C409.83,-315.13 495.11,-172 423.5,-172"/>
<polygon fill="black" stroke="black" points="464.63,-337.56 471.85,-342.54 468.57,-338.28 472.5,-339 472.5,-339 472.5,-339 468.57,-338.28 473.15,-335.46 464.63,-337.56 464.63,-337.56"/>
<ellipse fill="none" stroke="black" cx="461.48" cy="-336.99" rx="3.2" ry="3.2"/>
</g>
<!-- c_dunningrun&#45;&gt;c_dunning -->
<g id="edge2" class="edge">
<title>c_dunningrun:w&#45;&gt;c_dunning:e</title>
<path fill="none" stroke="black" d="M457.82,-229.13C363.61,-230.85 330.41,-248.07 235,-216 214.67,-209.17 216.45,-189 195,-189"/>
<polygon fill="black" stroke="black" points="464.5,-229.07 472.53,-232.6 468.5,-229.04 472.5,-229 472.5,-229 472.5,-229 468.5,-229.04 472.47,-225.4 464.5,-229.07 464.5,-229.07"/>
<ellipse fill="none" stroke="black" cx="461.3" cy="-229.1" rx="3.2" ry="3.2"/>
</g>
<!-- c_dunningrunentry -->
<g id="node4" class="node">
<title>c_dunningrunentry</title>
<g id="a_node4"><a xlink:href="../../tables/c_dunningrunentry.html" xlink:title="c_dunningrunentry" target="_top">
<polygon fill="#ffffff" stroke="transparent" points="747,-231 747,-487 919,-487 919,-231 747,-231"/>
<polygon fill="#f5f5f5" stroke="transparent" points="747,-465 747,-487 919,-487 919,-465 747,-465"/>
<polygon fill="none" stroke="black" points="747,-465 747,-487 919,-487 919,-465 747,-465"/>
<text text-anchor="start" x="752" y="-474.2" font-family="Helvetica,sans-Serif" font-weight="bold" font-size="11.00">c_dunningrunentry</text>
<text text-anchor="start" x="884" y="-473.2" font-family="Helvetica,sans-Serif" font-size="11.00">[table]</text>
<polygon fill="none" stroke="black" points="747,-443 747,-465 919,-465 919,-443 747,-443"/>
<image xlink:href="../../images/primaryKeys.png" width="11px" height="12px" preserveAspectRatio="xMinYMin meet" x="752" y="-460"/>
<text text-anchor="start" x="767" y="-451.2" font-family="Helvetica,sans-Serif" font-size="11.00">c_dunningrunentry_id</text>
<polygon fill="none" stroke="black" points="747,-421 747,-443 919,-443 919,-421 747,-421"/>
<image xlink:href="../../images/foreignKeys.png" width="11px" height="12px" preserveAspectRatio="xMinYMin meet" x="752" y="-438"/>
<text text-anchor="start" x="767" y="-429.2" font-family="Helvetica,sans-Serif" font-size="11.00">c_bpartner_id</text>
<polygon fill="none" stroke="black" points="747,-399 747,-421 919,-421 919,-399 747,-399"/>
<image xlink:href="../../images/foreignKeys.png" width="11px" height="12px" preserveAspectRatio="xMinYMin meet" x="752" y="-416"/>
<text text-anchor="start" x="767" y="-407.2" font-family="Helvetica,sans-Serif" font-size="11.00">c_bpartner_location_id</text>
<polygon fill="none" stroke="black" points="747,-377 747,-399 919,-399 919,-377 747,-377"/>
<image xlink:href="../../images/foreignKeys.png" width="11px" height="12px" preserveAspectRatio="xMinYMin meet" x="752" y="-394"/>
<text text-anchor="start" x="767" y="-385.2" font-family="Helvetica,sans-Serif" font-size="11.00">ad_user_id</text>
<polygon fill="none" stroke="black" points="747,-355 747,-377 919,-377 919,-355 747,-355"/>
<image xlink:href="../../images/foreignKeys.png" width="11px" height="12px" preserveAspectRatio="xMinYMin meet" x="752" y="-372"/>
<text text-anchor="start" x="767" y="-363.2" font-family="Helvetica,sans-Serif" font-size="11.00">c_dunningrun_id</text>
<polygon fill="none" stroke="black" points="747,-333 747,-355 919,-355 919,-333 747,-333"/>
<image xlink:href="../../images/foreignKeys.png" width="11px" height="12px" preserveAspectRatio="xMinYMin meet" x="752" y="-350"/>
<text text-anchor="start" x="767" y="-341.2" font-family="Helvetica,sans-Serif" font-size="11.00">c_currency_id</text>
<polygon fill="none" stroke="black" points="747,-311 747,-333 919,-333 919,-311 747,-311"/>
<image xlink:href="../../images/foreignKeys.png" width="11px" height="12px" preserveAspectRatio="xMinYMin meet" x="752" y="-328"/>
<text text-anchor="start" x="767" y="-319.2" font-family="Helvetica,sans-Serif" font-size="11.00">salesrep_id</text>
<polygon fill="none" stroke="black" points="747,-289 747,-311 919,-311 919,-289 747,-289"/>
<image xlink:href="../../images/foreignKeys.png" width="11px" height="12px" preserveAspectRatio="xMinYMin meet" x="752" y="-306"/>
<text text-anchor="start" x="767" y="-297.2" font-family="Helvetica,sans-Serif" font-size="11.00">c_dunninglevel_id</text>
<polygon fill="#ffffff" stroke="transparent" points="747,-267 747,-289 919,-289 919,-267 747,-267"/>
<polygon fill="none" stroke="black" points="747,-267 747,-289 919,-289 919,-267 747,-267"/>
<text text-anchor="start" x="767" y="-275.2" font-family="Helvetica,sans-Serif" font-size="11.00">c_dunningrunentry_uu</text>
<polygon fill="none" stroke="black" points="747,-249 747,-267 919,-267 919,-249 747,-249"/>
<text text-anchor="start" x="750" y="-255.2" font-family="Helvetica,sans-Serif" font-size="11.00">...</text>
<polygon fill="#ffffff" stroke="transparent" points="747,-231 747,-249 813,-249 813,-231 747,-231"/>
<polygon fill="none" stroke="black" points="747,-231 747,-249 813,-249 813,-231 747,-231"/>
<text text-anchor="start" x="750" y="-237.2" font-family="Helvetica,sans-Serif" font-size="11.00">&lt; 7</text>
<polygon fill="#ffffff" stroke="transparent" points="813,-231 813,-249 874,-249 874,-231 813,-231"/>
<polygon fill="none" stroke="black" points="813,-231 813,-249 874,-249 874,-231 813,-231"/>
<text text-anchor="start" x="838" y="-237.2" font-family="Helvetica,sans-Serif" font-size="11.00">0 rows</text>
<polygon fill="#ffffff" stroke="transparent" points="874,-231 874,-249 919,-249 919,-231 874,-231"/>
<polygon fill="none" stroke="black" points="874,-231 874,-249 919,-249 919,-231 874,-231"/>
<text text-anchor="start" x="900" y="-237.2" font-family="Helvetica,sans-Serif" font-size="11.00">1 &gt;</text>
</a>
</g>
</g>
<!-- c_dunningrunentry&#45;&gt;c_dunninglevel -->
<g id="edge4" class="edge">
<title>c_dunningrunentry:w&#45;&gt;c_dunninglevel:e</title>
<path fill="none" stroke="black" d="M731.72,-297.94C687.61,-282.48 758.02,-184.37 706,-144 620.67,-77.79 565.91,-111.23 463,-144 442.5,-150.53 445.02,-172 423.5,-172"/>
<polygon fill="black" stroke="black" points="738.08,-298.86 745.48,-303.56 742.04,-299.43 746,-300 746,-300 746,-300 742.04,-299.43 746.52,-296.44 738.08,-298.86 738.08,-298.86"/>
<ellipse fill="none" stroke="black" cx="734.92" cy="-298.4" rx="3.2" ry="3.2"/>
</g>
<!-- c_dunningrunentry&#45;&gt;c_dunningrun -->
<g id="edge5" class="edge">
<title>c_dunningrunentry:w&#45;&gt;c_dunningrun:e</title>
<path fill="none" stroke="black" d="M731.68,-368.55C681.84,-389.82 770.79,-537 697.5,-537"/>
<polygon fill="black" stroke="black" points="738.12,-367.4 746.63,-369.54 742.06,-366.7 746,-366 746,-366 746,-366 742.06,-366.7 745.37,-362.46 738.12,-367.4 738.12,-367.4"/>
<ellipse fill="none" stroke="black" cx="734.97" cy="-367.96" rx="3.2" ry="3.2"/>
</g>
</g>
</svg>
