<?xml version="1.0" encoding="UTF-8" standalone="no"?>
<!DOCTYPE svg PUBLIC "-//W3C//DTD SVG 1.1//EN"
 "http://www.w3.org/Graphics/SVG/1.1/DTD/svg11.dtd">
<!-- Generated by graphviz version 2.43.0 (0)
 -->
<!-- Title: oneDegreeRelationshipsDiagram Pages: 1 -->
<svg width="499pt" height="538pt"
 viewBox="0.00 0.00 499.00 538.00" xmlns="http://www.w3.org/2000/svg" xmlns:xlink="http://www.w3.org/1999/xlink">
<g id="graph0" class="graph" transform="scale(1 1) rotate(0) translate(4 534)">
<title>oneDegreeRelationshipsDiagram</title>
<polygon fill="#ffffff" stroke="transparent" points="-4,4 -4,-534 495,-534 495,4 -4,4"/>
<text text-anchor="middle" x="71.5" y="-7.2" font-family="Helvetica,sans-Serif" font-size="11.00">Generated by SchemaSpy</text>
<!-- c_elementvalue_trl -->
<g id="node1" class="node">
<title>c_elementvalue_trl</title>
<g id="a_node1"><a xlink:href="../../tables/c_elementvalue_trl.html" xlink:title="c_elementvalue_trl" target="_top">
<polygon fill="#ffffff" stroke="transparent" points="226,-59 226,-389 483,-389 483,-59 226,-59"/>
<polygon fill="#f5f5f5" stroke="transparent" points="228.5,-365 228.5,-387 481.5,-387 481.5,-365 228.5,-365"/>
<polygon fill="none" stroke="black" points="228.5,-365 228.5,-387 481.5,-387 481.5,-365 228.5,-365"/>
<text text-anchor="start" x="233.5" y="-374.2" font-family="Helvetica,sans-Serif" font-weight="bold" font-size="11.00">c_elementvalue_trl</text>
<text text-anchor="start" x="446.5" y="-373.2" font-family="Helvetica,sans-Serif" font-size="11.00">[table]</text>
<polygon fill="none" stroke="black" points="228.5,-343 228.5,-365 398.5,-365 398.5,-343 228.5,-343"/>
<image xlink:href="../../images/primaryKeys.png" width="11px" height="12px" preserveAspectRatio="xMinYMin meet" x="233.5" y="-360"/>
<text text-anchor="start" x="248.5" y="-351.2" font-family="Helvetica,sans-Serif" font-size="11.00">c_elementvalue_id</text>
<polygon fill="none" stroke="black" points="398.5,-343 398.5,-365 481.5,-365 481.5,-343 398.5,-343"/>
<text text-anchor="start" x="401.5" y="-351.2" font-family="Helvetica,sans-Serif" font-size="11.00">numeric[10]</text>
<polygon fill="none" stroke="black" points="228.5,-321 228.5,-343 398.5,-343 398.5,-321 228.5,-321"/>
<image xlink:href="../../images/primaryKeys.png" width="11px" height="12px" preserveAspectRatio="xMinYMin meet" x="233.5" y="-338"/>
<text text-anchor="start" x="248.5" y="-329.2" font-family="Helvetica,sans-Serif" font-size="11.00">ad_language</text>
<polygon fill="none" stroke="black" points="398.5,-321 398.5,-343 481.5,-343 481.5,-321 398.5,-321"/>
<text text-anchor="start" x="401.5" y="-329.2" font-family="Helvetica,sans-Serif" font-size="11.00">varchar[6]</text>
<polygon fill="none" stroke="black" points="228.5,-299 228.5,-321 398.5,-321 398.5,-299 228.5,-299"/>
<text text-anchor="start" x="248.5" y="-307.2" font-family="Helvetica,sans-Serif" font-size="11.00">ad_client_id</text>
<polygon fill="none" stroke="black" points="398.5,-299 398.5,-321 481.5,-321 481.5,-299 398.5,-299"/>
<text text-anchor="start" x="401.5" y="-307.2" font-family="Helvetica,sans-Serif" font-size="11.00">numeric[10]</text>
<polygon fill="none" stroke="black" points="228.5,-277 228.5,-299 398.5,-299 398.5,-277 228.5,-277"/>
<text text-anchor="start" x="248.5" y="-285.2" font-family="Helvetica,sans-Serif" font-size="11.00">ad_org_id</text>
<polygon fill="none" stroke="black" points="398.5,-277 398.5,-299 481.5,-299 481.5,-277 398.5,-277"/>
<text text-anchor="start" x="401.5" y="-285.2" font-family="Helvetica,sans-Serif" font-size="11.00">numeric[10]</text>
<polygon fill="none" stroke="black" points="228.5,-255 228.5,-277 398.5,-277 398.5,-255 228.5,-255"/>
<text text-anchor="start" x="248.5" y="-263.2" font-family="Helvetica,sans-Serif" font-size="11.00">isactive</text>
<polygon fill="none" stroke="black" points="398.5,-255 398.5,-277 481.5,-277 481.5,-255 398.5,-255"/>
<text text-anchor="start" x="401.5" y="-263.2" font-family="Helvetica,sans-Serif" font-size="11.00">bpchar[1]</text>
<polygon fill="none" stroke="black" points="228.5,-233 228.5,-255 398.5,-255 398.5,-233 228.5,-233"/>
<text text-anchor="start" x="248.5" y="-241.2" font-family="Helvetica,sans-Serif" font-size="11.00">created</text>
<polygon fill="none" stroke="black" points="398.5,-233 398.5,-255 481.5,-255 481.5,-233 398.5,-233"/>
<text text-anchor="start" x="401.5" y="-241.2" font-family="Helvetica,sans-Serif" font-size="11.00">timestamp[29,6]</text>
<polygon fill="none" stroke="black" points="228.5,-211 228.5,-233 398.5,-233 398.5,-211 228.5,-211"/>
<text text-anchor="start" x="248.5" y="-219.2" font-family="Helvetica,sans-Serif" font-size="11.00">createdby</text>
<polygon fill="none" stroke="black" points="398.5,-211 398.5,-233 481.5,-233 481.5,-211 398.5,-211"/>
<text text-anchor="start" x="401.5" y="-219.2" font-family="Helvetica,sans-Serif" font-size="11.00">numeric[10]</text>
<polygon fill="none" stroke="black" points="228.5,-189 228.5,-211 398.5,-211 398.5,-189 228.5,-189"/>
<text text-anchor="start" x="248.5" y="-197.2" font-family="Helvetica,sans-Serif" font-size="11.00">updated</text>
<polygon fill="none" stroke="black" points="398.5,-189 398.5,-211 481.5,-211 481.5,-189 398.5,-189"/>
<text text-anchor="start" x="401.5" y="-197.2" font-family="Helvetica,sans-Serif" font-size="11.00">timestamp[29,6]</text>
<polygon fill="none" stroke="black" points="228.5,-167 228.5,-189 398.5,-189 398.5,-167 228.5,-167"/>
<text text-anchor="start" x="248.5" y="-175.2" font-family="Helvetica,sans-Serif" font-size="11.00">updatedby</text>
<polygon fill="none" stroke="black" points="398.5,-167 398.5,-189 481.5,-189 481.5,-167 398.5,-167"/>
<text text-anchor="start" x="401.5" y="-175.2" font-family="Helvetica,sans-Serif" font-size="11.00">numeric[10]</text>
<polygon fill="none" stroke="black" points="228.5,-145 228.5,-167 398.5,-167 398.5,-145 228.5,-145"/>
<text text-anchor="start" x="248.5" y="-153.2" font-family="Helvetica,sans-Serif" font-size="11.00">name</text>
<polygon fill="none" stroke="black" points="398.5,-145 398.5,-167 481.5,-167 481.5,-145 398.5,-145"/>
<text text-anchor="start" x="401.5" y="-153.2" font-family="Helvetica,sans-Serif" font-size="11.00">varchar[120]</text>
<polygon fill="none" stroke="black" points="228.5,-123 228.5,-145 398.5,-145 398.5,-123 228.5,-123"/>
<text text-anchor="start" x="248.5" y="-131.2" font-family="Helvetica,sans-Serif" font-size="11.00">description</text>
<polygon fill="none" stroke="black" points="398.5,-123 398.5,-145 481.5,-145 481.5,-123 398.5,-123"/>
<text text-anchor="start" x="401.5" y="-131.2" font-family="Helvetica,sans-Serif" font-size="11.00">varchar[255]</text>
<polygon fill="none" stroke="black" points="228.5,-101 228.5,-123 398.5,-123 398.5,-101 228.5,-101"/>
<text text-anchor="start" x="248.5" y="-109.2" font-family="Helvetica,sans-Serif" font-size="11.00">istranslated</text>
<polygon fill="none" stroke="black" points="398.5,-101 398.5,-123 481.5,-123 481.5,-101 398.5,-101"/>
<text text-anchor="start" x="401.5" y="-109.2" font-family="Helvetica,sans-Serif" font-size="11.00">bpchar[1]</text>
<polygon fill="#ffffff" stroke="transparent" points="228.5,-79 228.5,-101 398.5,-101 398.5,-79 228.5,-79"/>
<polygon fill="none" stroke="black" points="228.5,-79 228.5,-101 398.5,-101 398.5,-79 228.5,-79"/>
<text text-anchor="start" x="248.5" y="-87.2" font-family="Helvetica,sans-Serif" font-size="11.00">c_elementvalue_trl_uu</text>
<polygon fill="none" stroke="black" points="398.5,-79 398.5,-101 481.5,-101 481.5,-79 398.5,-79"/>
<text text-anchor="start" x="401.5" y="-87.2" font-family="Helvetica,sans-Serif" font-size="11.00">varchar[36]</text>
<polygon fill="#ffffff" stroke="transparent" points="228.5,-61 228.5,-79 294.5,-79 294.5,-61 228.5,-61"/>
<polygon fill="none" stroke="black" points="228.5,-61 228.5,-79 294.5,-79 294.5,-61 228.5,-61"/>
<text text-anchor="start" x="231.5" y="-67.2" font-family="Helvetica,sans-Serif" font-size="11.00">&lt; 2</text>
<polygon fill="#ffffff" stroke="transparent" points="294.5,-61 294.5,-79 398.5,-79 398.5,-61 294.5,-61"/>
<polygon fill="none" stroke="black" points="294.5,-61 294.5,-79 398.5,-79 398.5,-61 294.5,-61"/>
<text text-anchor="start" x="341.5" y="-67.2" font-family="Helvetica,sans-Serif" font-size="11.00">3.670 rows</text>
<polygon fill="#ffffff" stroke="transparent" points="398.5,-61 398.5,-79 481.5,-79 481.5,-61 398.5,-61"/>
<polygon fill="none" stroke="black" points="398.5,-61 398.5,-79 481.5,-79 481.5,-61 398.5,-61"/>
<text text-anchor="start" x="462.5" y="-67.2" font-family="Helvetica,sans-Serif" font-size="11.00">0 &gt;</text>
<polygon fill="none" stroke="black" stroke-width="2" points="227,-60 227,-388 482,-388 482,-60 227,-60"/>
</a>
</g>
</g>
<!-- ad_language -->
<g id="node2" class="node">
<title>ad_language</title>
<g id="a_node2"><a xlink:href="../../tables/ad_language.html" xlink:title="ad_language" target="_top">
<polygon fill="#ffffff" stroke="transparent" points="21,-37 21,-227 164,-227 164,-37 21,-37"/>
<polygon fill="#f5f5f5" stroke="transparent" points="21.5,-205 21.5,-227 164.5,-227 164.5,-205 21.5,-205"/>
<polygon fill="none" stroke="black" points="21.5,-205 21.5,-227 164.5,-227 164.5,-205 21.5,-205"/>
<text text-anchor="start" x="26.5" y="-214.2" font-family="Helvetica,sans-Serif" font-weight="bold" font-size="11.00">ad_language</text>
<text text-anchor="start" x="129.5" y="-213.2" font-family="Helvetica,sans-Serif" font-size="11.00">[table]</text>
<polygon fill="none" stroke="black" points="21.5,-183 21.5,-205 164.5,-205 164.5,-183 21.5,-183"/>
<image xlink:href="../../images/primaryKeys.png" width="11px" height="12px" preserveAspectRatio="xMinYMin meet" x="26.5" y="-200"/>
<text text-anchor="start" x="41.5" y="-191.2" font-family="Helvetica,sans-Serif" font-size="11.00">ad_language</text>
<polygon fill="none" stroke="black" points="21.5,-161 21.5,-183 164.5,-183 164.5,-161 21.5,-161"/>
<image xlink:href="../../images/foreignKeys.png" width="11px" height="12px" preserveAspectRatio="xMinYMin meet" x="26.5" y="-178"/>
<text text-anchor="start" x="41.5" y="-169.2" font-family="Helvetica,sans-Serif" font-size="11.00">ad_client_id</text>
<polygon fill="none" stroke="black" points="21.5,-139 21.5,-161 164.5,-161 164.5,-139 21.5,-139"/>
<image xlink:href="../../images/foreignKeys.png" width="11px" height="12px" preserveAspectRatio="xMinYMin meet" x="26.5" y="-156"/>
<text text-anchor="start" x="41.5" y="-147.2" font-family="Helvetica,sans-Serif" font-size="11.00">ad_org_id</text>
<polygon fill="#ffffff" stroke="transparent" points="21.5,-117 21.5,-139 164.5,-139 164.5,-117 21.5,-117"/>
<polygon fill="none" stroke="black" points="21.5,-117 21.5,-139 164.5,-139 164.5,-117 21.5,-117"/>
<text text-anchor="start" x="41.5" y="-125.2" font-family="Helvetica,sans-Serif" font-size="11.00">ad_language_id</text>
<polygon fill="#ffffff" stroke="transparent" points="21.5,-95 21.5,-117 164.5,-117 164.5,-95 21.5,-95"/>
<polygon fill="none" stroke="black" points="21.5,-95 21.5,-117 164.5,-117 164.5,-95 21.5,-95"/>
<text text-anchor="start" x="41.5" y="-103.2" font-family="Helvetica,sans-Serif" font-size="11.00">ad_language_uu</text>
<polygon fill="none" stroke="black" points="21.5,-73 21.5,-95 164.5,-95 164.5,-73 21.5,-73"/>
<image xlink:href="../../images/foreignKeys.png" width="11px" height="12px" preserveAspectRatio="xMinYMin meet" x="26.5" y="-90"/>
<text text-anchor="start" x="41.5" y="-81.2" font-family="Helvetica,sans-Serif" font-size="11.00">ad_printpaper_id</text>
<polygon fill="none" stroke="black" points="21.5,-55 21.5,-73 164.5,-73 164.5,-55 21.5,-55"/>
<text text-anchor="start" x="24.5" y="-61.2" font-family="Helvetica,sans-Serif" font-size="11.00">...</text>
<polygon fill="#ffffff" stroke="transparent" points="21.5,-37 21.5,-55 64.5,-55 64.5,-37 21.5,-37"/>
<polygon fill="none" stroke="black" points="21.5,-37 21.5,-55 64.5,-55 64.5,-37 21.5,-37"/>
<text text-anchor="start" x="24.5" y="-43.2" font-family="Helvetica,sans-Serif" font-size="11.00">&lt; 3</text>
<polygon fill="#ffffff" stroke="transparent" points="64.5,-37 64.5,-55 125.5,-55 125.5,-37 64.5,-37"/>
<polygon fill="none" stroke="black" points="64.5,-37 64.5,-55 125.5,-55 125.5,-37 64.5,-37"/>
<text text-anchor="start" x="77.5" y="-43.2" font-family="Helvetica,sans-Serif" font-size="11.00">109 rows</text>
<polygon fill="#ffffff" stroke="transparent" points="125.5,-37 125.5,-55 164.5,-55 164.5,-37 125.5,-37"/>
<polygon fill="none" stroke="black" points="125.5,-37 125.5,-55 164.5,-55 164.5,-37 125.5,-37"/>
<text text-anchor="start" x="139.5" y="-43.2" font-family="Helvetica,sans-Serif" font-size="11.00">86 &gt;</text>
</a>
</g>
</g>
<!-- c_elementvalue_trl&#45;&gt;ad_language -->
<g id="edge1" class="edge">
<title>c_elementvalue_trl:w&#45;&gt;ad_language:e</title>
<path fill="none" stroke="black" d="M213.35,-329.24C171.45,-309.79 227.09,-194 165.5,-194"/>
<polygon fill="black" stroke="black" points="219.65,-330.47 226.81,-335.53 223.57,-331.24 227.5,-332 227.5,-332 227.5,-332 223.57,-331.24 228.19,-328.47 219.65,-330.47 219.65,-330.47"/>
<ellipse fill="none" stroke="black" cx="216.51" cy="-329.86" rx="3.2" ry="3.2"/>
</g>
<!-- c_elementvalue -->
<g id="node3" class="node">
<title>c_elementvalue</title>
<g id="a_node3"><a xlink:href="../../tables/c_elementvalue.html" xlink:title="c_elementvalue" target="_top">
<polygon fill="#ffffff" stroke="transparent" points="8,-248 8,-526 177,-526 177,-248 8,-248"/>
<polygon fill="#f5f5f5" stroke="transparent" points="8.5,-504 8.5,-526 177.5,-526 177.5,-504 8.5,-504"/>
<polygon fill="none" stroke="black" points="8.5,-504 8.5,-526 177.5,-526 177.5,-504 8.5,-504"/>
<text text-anchor="start" x="13.5" y="-513.2" font-family="Helvetica,sans-Serif" font-weight="bold" font-size="11.00">c_elementvalue</text>
<text text-anchor="start" x="142.5" y="-512.2" font-family="Helvetica,sans-Serif" font-size="11.00">[table]</text>
<polygon fill="none" stroke="black" points="8.5,-482 8.5,-504 177.5,-504 177.5,-482 8.5,-482"/>
<image xlink:href="../../images/primaryKeys.png" width="11px" height="12px" preserveAspectRatio="xMinYMin meet" x="13.5" y="-499"/>
<text text-anchor="start" x="28.5" y="-490.2" font-family="Helvetica,sans-Serif" font-size="11.00">c_elementvalue_id</text>
<polygon fill="none" stroke="black" points="8.5,-460 8.5,-482 177.5,-482 177.5,-460 8.5,-460"/>
<image xlink:href="../../images/foreignKeys.png" width="11px" height="12px" preserveAspectRatio="xMinYMin meet" x="13.5" y="-477"/>
<text text-anchor="start" x="28.5" y="-468.2" font-family="Helvetica,sans-Serif" font-size="11.00">ad_client_id</text>
<polygon fill="none" stroke="black" points="8.5,-438 8.5,-460 177.5,-460 177.5,-438 8.5,-438"/>
<image xlink:href="../../images/foreignKeys.png" width="11px" height="12px" preserveAspectRatio="xMinYMin meet" x="13.5" y="-455"/>
<text text-anchor="start" x="28.5" y="-446.2" font-family="Helvetica,sans-Serif" font-size="11.00">ad_org_id</text>
<polygon fill="#ffffff" stroke="transparent" points="8.5,-416 8.5,-438 177.5,-438 177.5,-416 8.5,-416"/>
<polygon fill="none" stroke="black" points="8.5,-416 8.5,-438 177.5,-438 177.5,-416 8.5,-416"/>
<text text-anchor="start" x="28.5" y="-424.2" font-family="Helvetica,sans-Serif" font-size="11.00">value</text>
<polygon fill="#ffffff" stroke="transparent" points="8.5,-394 8.5,-416 177.5,-416 177.5,-394 8.5,-394"/>
<polygon fill="none" stroke="black" points="8.5,-394 8.5,-416 177.5,-416 177.5,-394 8.5,-394"/>
<text text-anchor="start" x="28.5" y="-402.2" font-family="Helvetica,sans-Serif" font-size="11.00">name</text>
<polygon fill="#ffffff" stroke="transparent" points="8.5,-372 8.5,-394 177.5,-394 177.5,-372 8.5,-372"/>
<polygon fill="none" stroke="black" points="8.5,-372 8.5,-394 177.5,-394 177.5,-372 8.5,-372"/>
<image xlink:href="../../images/foreignKeys.png" width="11px" height="12px" preserveAspectRatio="xMinYMin meet" x="13.5" y="-389"/>
<text text-anchor="start" x="28.5" y="-380.2" font-family="Helvetica,sans-Serif" font-size="11.00">c_element_id</text>
<polygon fill="none" stroke="black" points="8.5,-350 8.5,-372 177.5,-372 177.5,-350 8.5,-350"/>
<image xlink:href="../../images/foreignKeys.png" width="11px" height="12px" preserveAspectRatio="xMinYMin meet" x="13.5" y="-367"/>
<text text-anchor="start" x="28.5" y="-358.2" font-family="Helvetica,sans-Serif" font-size="11.00">c_bankaccount_id</text>
<polygon fill="none" stroke="black" points="8.5,-328 8.5,-350 177.5,-350 177.5,-328 8.5,-328"/>
<image xlink:href="../../images/foreignKeys.png" width="11px" height="12px" preserveAspectRatio="xMinYMin meet" x="13.5" y="-345"/>
<text text-anchor="start" x="28.5" y="-336.2" font-family="Helvetica,sans-Serif" font-size="11.00">c_currency_id</text>
<polygon fill="#ffffff" stroke="transparent" points="8.5,-306 8.5,-328 177.5,-328 177.5,-306 8.5,-306"/>
<polygon fill="none" stroke="black" points="8.5,-306 8.5,-328 177.5,-328 177.5,-306 8.5,-306"/>
<text text-anchor="start" x="28.5" y="-314.2" font-family="Helvetica,sans-Serif" font-size="11.00">c_elementvalue_uu</text>
<polygon fill="none" stroke="black" points="8.5,-284 8.5,-306 177.5,-306 177.5,-284 8.5,-284"/>
<image xlink:href="../../images/foreignKeys.png" width="11px" height="12px" preserveAspectRatio="xMinYMin meet" x="13.5" y="-301"/>
<text text-anchor="start" x="28.5" y="-292.2" font-family="Helvetica,sans-Serif" font-size="11.00">cof_codagl_id</text>
<polygon fill="none" stroke="black" points="8.5,-266 8.5,-284 177.5,-284 177.5,-266 8.5,-266"/>
<text text-anchor="start" x="11.5" y="-272.2" font-family="Helvetica,sans-Serif" font-size="11.00">...</text>
<polygon fill="#ffffff" stroke="transparent" points="8.5,-248 8.5,-266 56.5,-266 56.5,-248 8.5,-248"/>
<polygon fill="none" stroke="black" points="8.5,-248 8.5,-266 56.5,-266 56.5,-248 8.5,-248"/>
<text text-anchor="start" x="11.5" y="-254.2" font-family="Helvetica,sans-Serif" font-size="11.00">&lt; 6</text>
<polygon fill="#ffffff" stroke="transparent" points="56.5,-248 56.5,-266 129.5,-266 129.5,-248 56.5,-248"/>
<polygon fill="none" stroke="black" points="56.5,-248 56.5,-266 129.5,-266 129.5,-248 56.5,-248"/>
<text text-anchor="start" x="72.5" y="-254.2" font-family="Helvetica,sans-Serif" font-size="11.00">1.835 rows</text>
<polygon fill="#ffffff" stroke="transparent" points="129.5,-248 129.5,-266 177.5,-266 177.5,-248 129.5,-248"/>
<polygon fill="none" stroke="black" points="129.5,-248 129.5,-266 177.5,-266 177.5,-248 129.5,-248"/>
<text text-anchor="start" x="146.5" y="-254.2" font-family="Helvetica,sans-Serif" font-size="11.00">108 &gt;</text>
</a>
</g>
</g>
<!-- c_elementvalue_trl&#45;&gt;c_elementvalue -->
<g id="edge2" class="edge">
<title>c_elementvalue_trl:w&#45;&gt;c_elementvalue:e</title>
<path fill="none" stroke="black" d="M213.2,-357.16C175.54,-377.85 238.12,-493 178.5,-493"/>
<polygon fill="black" stroke="black" points="219.69,-355.73 228.28,-357.51 223.59,-354.86 227.5,-354 227.5,-354 227.5,-354 223.59,-354.86 226.72,-350.49 219.69,-355.73 219.69,-355.73"/>
<ellipse fill="none" stroke="black" cx="216.56" cy="-356.42" rx="3.2" ry="3.2"/>
</g>
</g>
</svg>
