<?xml version="1.0" encoding="UTF-8" standalone="no"?>
<!DOCTYPE svg PUBLIC "-//W3C//DTD SVG 1.1//EN"
 "http://www.w3.org/Graphics/SVG/1.1/DTD/svg11.dtd">
<!-- Generated by graphviz version 2.43.0 (0)
 -->
<!-- Title: oneDegreeRelationshipsDiagram Pages: 1 -->
<svg width="296pt" height="1197pt"
 viewBox="0.00 0.00 296.00 1197.00" xmlns="http://www.w3.org/2000/svg" xmlns:xlink="http://www.w3.org/1999/xlink">
<g id="graph0" class="graph" transform="scale(1 1) rotate(0) translate(4 1193)">
<title>oneDegreeRelationshipsDiagram</title>
<polygon fill="#ffffff" stroke="transparent" points="-4,4 -4,-1193 292,-1193 292,4 -4,4"/>
<text text-anchor="middle" x="71.5" y="-7.2" font-family="Helvetica,sans-Serif" font-size="11.00">Generated by SchemaSpy</text>
<!-- c_invoice_v1 -->
<g id="node1" class="node">
<title>c_invoice_v1</title>
<g id="a_node1"><a xlink:href="../../tables/c_invoice_v1.html" xlink:title="c_invoice_v1" target="_top">
<polygon fill="#ffffff" stroke="transparent" points="8,-37 8,-1185 280,-1185 280,-37 8,-37"/>
<polygon fill="#f5f5f5" stroke="transparent" points="10,-1161 10,-1183 278,-1183 278,-1161 10,-1161"/>
<polygon fill="none" stroke="black" points="10,-1161 10,-1183 278,-1183 278,-1161 10,-1161"/>
<text text-anchor="start" x="15" y="-1170.2" font-family="Helvetica,sans-Serif" font-weight="bold" font-size="11.00">c_invoice_v1</text>
<text text-anchor="start" x="245" y="-1169.2" font-family="Helvetica,sans-Serif" font-size="11.00">[view]</text>
<polygon fill="none" stroke="black" points="10,-1139 10,-1161 195,-1161 195,-1139 10,-1139"/>
<image xlink:href="../../images/foreignKeys.png" width="11px" height="12px" preserveAspectRatio="xMinYMin meet" x="15" y="-1156"/>
<text text-anchor="start" x="30" y="-1147.2" font-family="Helvetica,sans-Serif" font-size="11.00">c_invoice_id</text>
<polygon fill="none" stroke="black" points="195,-1139 195,-1161 278,-1161 278,-1139 195,-1139"/>
<text text-anchor="start" x="198" y="-1147.2" font-family="Helvetica,sans-Serif" font-size="11.00">numeric[10]</text>
<polygon fill="none" stroke="black" points="10,-1117 10,-1139 195,-1139 195,-1117 10,-1117"/>
<text text-anchor="start" x="30" y="-1125.2" font-family="Helvetica,sans-Serif" font-size="11.00">ad_client_id</text>
<polygon fill="none" stroke="black" points="195,-1117 195,-1139 278,-1139 278,-1117 195,-1117"/>
<text text-anchor="start" x="198" y="-1125.2" font-family="Helvetica,sans-Serif" font-size="11.00">numeric[10]</text>
<polygon fill="none" stroke="black" points="10,-1095 10,-1117 195,-1117 195,-1095 10,-1095"/>
<text text-anchor="start" x="30" y="-1103.2" font-family="Helvetica,sans-Serif" font-size="11.00">ad_org_id</text>
<polygon fill="none" stroke="black" points="195,-1095 195,-1117 278,-1117 278,-1095 195,-1095"/>
<text text-anchor="start" x="198" y="-1103.2" font-family="Helvetica,sans-Serif" font-size="11.00">numeric[10]</text>
<polygon fill="none" stroke="black" points="10,-1073 10,-1095 195,-1095 195,-1073 10,-1073"/>
<text text-anchor="start" x="30" y="-1081.2" font-family="Helvetica,sans-Serif" font-size="11.00">isactive</text>
<polygon fill="none" stroke="black" points="195,-1073 195,-1095 278,-1095 278,-1073 195,-1073"/>
<text text-anchor="start" x="198" y="-1081.2" font-family="Helvetica,sans-Serif" font-size="11.00">bpchar[1]</text>
<polygon fill="none" stroke="black" points="10,-1051 10,-1073 195,-1073 195,-1051 10,-1051"/>
<text text-anchor="start" x="30" y="-1059.2" font-family="Helvetica,sans-Serif" font-size="11.00">created</text>
<polygon fill="none" stroke="black" points="195,-1051 195,-1073 278,-1073 278,-1051 195,-1051"/>
<text text-anchor="start" x="198" y="-1059.2" font-family="Helvetica,sans-Serif" font-size="11.00">timestamp[29,6]</text>
<polygon fill="none" stroke="black" points="10,-1029 10,-1051 195,-1051 195,-1029 10,-1029"/>
<text text-anchor="start" x="30" y="-1037.2" font-family="Helvetica,sans-Serif" font-size="11.00">createdby</text>
<polygon fill="none" stroke="black" points="195,-1029 195,-1051 278,-1051 278,-1029 195,-1029"/>
<text text-anchor="start" x="198" y="-1037.2" font-family="Helvetica,sans-Serif" font-size="11.00">numeric[10]</text>
<polygon fill="none" stroke="black" points="10,-1007 10,-1029 195,-1029 195,-1007 10,-1007"/>
<text text-anchor="start" x="30" y="-1015.2" font-family="Helvetica,sans-Serif" font-size="11.00">updated</text>
<polygon fill="none" stroke="black" points="195,-1007 195,-1029 278,-1029 278,-1007 195,-1007"/>
<text text-anchor="start" x="198" y="-1015.2" font-family="Helvetica,sans-Serif" font-size="11.00">timestamp[29,6]</text>
<polygon fill="none" stroke="black" points="10,-985 10,-1007 195,-1007 195,-985 10,-985"/>
<text text-anchor="start" x="30" y="-993.2" font-family="Helvetica,sans-Serif" font-size="11.00">updatedby</text>
<polygon fill="none" stroke="black" points="195,-985 195,-1007 278,-1007 278,-985 195,-985"/>
<text text-anchor="start" x="198" y="-993.2" font-family="Helvetica,sans-Serif" font-size="11.00">numeric[10]</text>
<polygon fill="none" stroke="black" points="10,-963 10,-985 195,-985 195,-963 10,-963"/>
<text text-anchor="start" x="30" y="-971.2" font-family="Helvetica,sans-Serif" font-size="11.00">issotrx</text>
<polygon fill="none" stroke="black" points="195,-963 195,-985 278,-985 278,-963 195,-963"/>
<text text-anchor="start" x="198" y="-971.2" font-family="Helvetica,sans-Serif" font-size="11.00">bpchar[1]</text>
<polygon fill="none" stroke="black" points="10,-941 10,-963 195,-963 195,-941 10,-941"/>
<text text-anchor="start" x="30" y="-949.2" font-family="Helvetica,sans-Serif" font-size="11.00">documentno</text>
<polygon fill="none" stroke="black" points="195,-941 195,-963 278,-963 278,-941 195,-941"/>
<text text-anchor="start" x="198" y="-949.2" font-family="Helvetica,sans-Serif" font-size="11.00">varchar[30]</text>
<polygon fill="none" stroke="black" points="10,-919 10,-941 195,-941 195,-919 10,-919"/>
<text text-anchor="start" x="30" y="-927.2" font-family="Helvetica,sans-Serif" font-size="11.00">docstatus</text>
<polygon fill="none" stroke="black" points="195,-919 195,-941 278,-941 278,-919 195,-919"/>
<text text-anchor="start" x="198" y="-927.2" font-family="Helvetica,sans-Serif" font-size="11.00">bpchar[2]</text>
<polygon fill="none" stroke="black" points="10,-897 10,-919 195,-919 195,-897 10,-897"/>
<text text-anchor="start" x="30" y="-905.2" font-family="Helvetica,sans-Serif" font-size="11.00">docaction</text>
<polygon fill="none" stroke="black" points="195,-897 195,-919 278,-919 278,-897 195,-897"/>
<text text-anchor="start" x="198" y="-905.2" font-family="Helvetica,sans-Serif" font-size="11.00">bpchar[2]</text>
<polygon fill="none" stroke="black" points="10,-875 10,-897 195,-897 195,-875 10,-875"/>
<text text-anchor="start" x="30" y="-883.2" font-family="Helvetica,sans-Serif" font-size="11.00">processing</text>
<polygon fill="none" stroke="black" points="195,-875 195,-897 278,-897 278,-875 195,-875"/>
<text text-anchor="start" x="198" y="-883.2" font-family="Helvetica,sans-Serif" font-size="11.00">bpchar[1]</text>
<polygon fill="none" stroke="black" points="10,-853 10,-875 195,-875 195,-853 10,-853"/>
<text text-anchor="start" x="30" y="-861.2" font-family="Helvetica,sans-Serif" font-size="11.00">processed</text>
<polygon fill="none" stroke="black" points="195,-853 195,-875 278,-875 278,-853 195,-853"/>
<text text-anchor="start" x="198" y="-861.2" font-family="Helvetica,sans-Serif" font-size="11.00">bpchar[1]</text>
<polygon fill="none" stroke="black" points="10,-831 10,-853 195,-853 195,-831 10,-831"/>
<image xlink:href="../../images/foreignKeys.png" width="11px" height="12px" preserveAspectRatio="xMinYMin meet" x="15" y="-848"/>
<text text-anchor="start" x="30" y="-839.2" font-family="Helvetica,sans-Serif" font-size="11.00">c_doctype_id</text>
<polygon fill="none" stroke="black" points="195,-831 195,-853 278,-853 278,-831 195,-831"/>
<text text-anchor="start" x="198" y="-839.2" font-family="Helvetica,sans-Serif" font-size="11.00">numeric[10]</text>
<polygon fill="none" stroke="black" points="10,-809 10,-831 195,-831 195,-809 10,-809"/>
<text text-anchor="start" x="30" y="-817.2" font-family="Helvetica,sans-Serif" font-size="11.00">c_doctypetarget_id</text>
<polygon fill="none" stroke="black" points="195,-809 195,-831 278,-831 278,-809 195,-809"/>
<text text-anchor="start" x="198" y="-817.2" font-family="Helvetica,sans-Serif" font-size="11.00">numeric[10]</text>
<polygon fill="none" stroke="black" points="10,-787 10,-809 195,-809 195,-787 10,-787"/>
<image xlink:href="../../images/foreignKeys.png" width="11px" height="12px" preserveAspectRatio="xMinYMin meet" x="15" y="-804"/>
<text text-anchor="start" x="30" y="-795.2" font-family="Helvetica,sans-Serif" font-size="11.00">c_order_id</text>
<polygon fill="none" stroke="black" points="195,-787 195,-809 278,-809 278,-787 195,-787"/>
<text text-anchor="start" x="198" y="-795.2" font-family="Helvetica,sans-Serif" font-size="11.00">numeric[10]</text>
<polygon fill="none" stroke="black" points="10,-765 10,-787 195,-787 195,-765 10,-765"/>
<text text-anchor="start" x="30" y="-773.2" font-family="Helvetica,sans-Serif" font-size="11.00">description</text>
<polygon fill="none" stroke="black" points="195,-765 195,-787 278,-787 278,-765 195,-765"/>
<text text-anchor="start" x="198" y="-773.2" font-family="Helvetica,sans-Serif" font-size="11.00">varchar[500]</text>
<polygon fill="none" stroke="black" points="10,-743 10,-765 195,-765 195,-743 10,-743"/>
<text text-anchor="start" x="30" y="-751.2" font-family="Helvetica,sans-Serif" font-size="11.00">isapproved</text>
<polygon fill="none" stroke="black" points="195,-743 195,-765 278,-765 278,-743 195,-743"/>
<text text-anchor="start" x="198" y="-751.2" font-family="Helvetica,sans-Serif" font-size="11.00">bpchar[1]</text>
<polygon fill="none" stroke="black" points="10,-721 10,-743 195,-743 195,-721 10,-721"/>
<text text-anchor="start" x="30" y="-729.2" font-family="Helvetica,sans-Serif" font-size="11.00">istransferred</text>
<polygon fill="none" stroke="black" points="195,-721 195,-743 278,-743 278,-721 195,-721"/>
<text text-anchor="start" x="198" y="-729.2" font-family="Helvetica,sans-Serif" font-size="11.00">bpchar[1]</text>
<polygon fill="none" stroke="black" points="10,-699 10,-721 195,-721 195,-699 10,-699"/>
<text text-anchor="start" x="30" y="-707.2" font-family="Helvetica,sans-Serif" font-size="11.00">salesrep_id</text>
<polygon fill="none" stroke="black" points="195,-699 195,-721 278,-721 278,-699 195,-699"/>
<text text-anchor="start" x="198" y="-707.2" font-family="Helvetica,sans-Serif" font-size="11.00">numeric[10]</text>
<polygon fill="none" stroke="black" points="10,-677 10,-699 195,-699 195,-677 10,-677"/>
<text text-anchor="start" x="30" y="-685.2" font-family="Helvetica,sans-Serif" font-size="11.00">dateinvoiced</text>
<polygon fill="none" stroke="black" points="195,-677 195,-699 278,-699 278,-677 195,-677"/>
<text text-anchor="start" x="198" y="-685.2" font-family="Helvetica,sans-Serif" font-size="11.00">timestamp[29,6]</text>
<polygon fill="none" stroke="black" points="10,-655 10,-677 195,-677 195,-655 10,-655"/>
<text text-anchor="start" x="30" y="-663.2" font-family="Helvetica,sans-Serif" font-size="11.00">dateprinted</text>
<polygon fill="none" stroke="black" points="195,-655 195,-677 278,-677 278,-655 195,-655"/>
<text text-anchor="start" x="198" y="-663.2" font-family="Helvetica,sans-Serif" font-size="11.00">timestamp[29,6]</text>
<polygon fill="none" stroke="black" points="10,-633 10,-655 195,-655 195,-633 10,-633"/>
<text text-anchor="start" x="30" y="-641.2" font-family="Helvetica,sans-Serif" font-size="11.00">dateacct</text>
<polygon fill="none" stroke="black" points="195,-633 195,-655 278,-655 278,-633 195,-633"/>
<text text-anchor="start" x="198" y="-641.2" font-family="Helvetica,sans-Serif" font-size="11.00">timestamp[29,6]</text>
<polygon fill="none" stroke="black" points="10,-611 10,-633 195,-633 195,-611 10,-611"/>
<image xlink:href="../../images/foreignKeys.png" width="11px" height="12px" preserveAspectRatio="xMinYMin meet" x="15" y="-628"/>
<text text-anchor="start" x="30" y="-619.2" font-family="Helvetica,sans-Serif" font-size="11.00">c_bpartner_id</text>
<polygon fill="none" stroke="black" points="195,-611 195,-633 278,-633 278,-611 195,-611"/>
<text text-anchor="start" x="198" y="-619.2" font-family="Helvetica,sans-Serif" font-size="11.00">numeric[10]</text>
<polygon fill="none" stroke="black" points="10,-589 10,-611 195,-611 195,-589 10,-589"/>
<image xlink:href="../../images/foreignKeys.png" width="11px" height="12px" preserveAspectRatio="xMinYMin meet" x="15" y="-606"/>
<text text-anchor="start" x="30" y="-597.2" font-family="Helvetica,sans-Serif" font-size="11.00">c_bpartner_location_id</text>
<polygon fill="none" stroke="black" points="195,-589 195,-611 278,-611 278,-589 195,-589"/>
<text text-anchor="start" x="198" y="-597.2" font-family="Helvetica,sans-Serif" font-size="11.00">numeric[10]</text>
<polygon fill="none" stroke="black" points="10,-567 10,-589 195,-589 195,-567 10,-567"/>
<text text-anchor="start" x="30" y="-575.2" font-family="Helvetica,sans-Serif" font-size="11.00">ad_user_id</text>
<polygon fill="none" stroke="black" points="195,-567 195,-589 278,-589 278,-567 195,-567"/>
<text text-anchor="start" x="198" y="-575.2" font-family="Helvetica,sans-Serif" font-size="11.00">numeric[10]</text>
<polygon fill="none" stroke="black" points="10,-545 10,-567 195,-567 195,-545 10,-545"/>
<text text-anchor="start" x="30" y="-553.2" font-family="Helvetica,sans-Serif" font-size="11.00">poreference</text>
<polygon fill="none" stroke="black" points="195,-545 195,-567 278,-567 278,-545 195,-545"/>
<text text-anchor="start" x="198" y="-553.2" font-family="Helvetica,sans-Serif" font-size="11.00">varchar[20]</text>
<polygon fill="none" stroke="black" points="10,-523 10,-545 195,-545 195,-523 10,-523"/>
<text text-anchor="start" x="30" y="-531.2" font-family="Helvetica,sans-Serif" font-size="11.00">dateordered</text>
<polygon fill="none" stroke="black" points="195,-523 195,-545 278,-545 278,-523 195,-523"/>
<text text-anchor="start" x="198" y="-531.2" font-family="Helvetica,sans-Serif" font-size="11.00">timestamp[29,6]</text>
<polygon fill="none" stroke="black" points="10,-501 10,-523 195,-523 195,-501 10,-501"/>
<image xlink:href="../../images/foreignKeys.png" width="11px" height="12px" preserveAspectRatio="xMinYMin meet" x="15" y="-518"/>
<text text-anchor="start" x="30" y="-509.2" font-family="Helvetica,sans-Serif" font-size="11.00">c_currency_id</text>
<polygon fill="none" stroke="black" points="195,-501 195,-523 278,-523 278,-501 195,-501"/>
<text text-anchor="start" x="198" y="-509.2" font-family="Helvetica,sans-Serif" font-size="11.00">numeric[10]</text>
<polygon fill="none" stroke="black" points="10,-479 10,-501 195,-501 195,-479 10,-479"/>
<image xlink:href="../../images/foreignKeys.png" width="11px" height="12px" preserveAspectRatio="xMinYMin meet" x="15" y="-496"/>
<text text-anchor="start" x="30" y="-487.2" font-family="Helvetica,sans-Serif" font-size="11.00">c_conversiontype_id</text>
<polygon fill="none" stroke="black" points="195,-479 195,-501 278,-501 278,-479 195,-479"/>
<text text-anchor="start" x="198" y="-487.2" font-family="Helvetica,sans-Serif" font-size="11.00">numeric[10]</text>
<polygon fill="none" stroke="black" points="10,-457 10,-479 195,-479 195,-457 10,-457"/>
<text text-anchor="start" x="30" y="-465.2" font-family="Helvetica,sans-Serif" font-size="11.00">paymentrule</text>
<polygon fill="none" stroke="black" points="195,-457 195,-479 278,-479 278,-457 195,-457"/>
<text text-anchor="start" x="198" y="-465.2" font-family="Helvetica,sans-Serif" font-size="11.00">bpchar[1]</text>
<polygon fill="none" stroke="black" points="10,-435 10,-457 195,-457 195,-435 10,-435"/>
<image xlink:href="../../images/foreignKeys.png" width="11px" height="12px" preserveAspectRatio="xMinYMin meet" x="15" y="-452"/>
<text text-anchor="start" x="30" y="-443.2" font-family="Helvetica,sans-Serif" font-size="11.00">c_paymentterm_id</text>
<polygon fill="none" stroke="black" points="195,-435 195,-457 278,-457 278,-435 195,-435"/>
<text text-anchor="start" x="198" y="-443.2" font-family="Helvetica,sans-Serif" font-size="11.00">numeric[10]</text>
<polygon fill="none" stroke="black" points="10,-413 10,-435 195,-435 195,-413 10,-413"/>
<image xlink:href="../../images/foreignKeys.png" width="11px" height="12px" preserveAspectRatio="xMinYMin meet" x="15" y="-430"/>
<text text-anchor="start" x="30" y="-421.2" font-family="Helvetica,sans-Serif" font-size="11.00">c_charge_id</text>
<polygon fill="none" stroke="black" points="195,-413 195,-435 278,-435 278,-413 195,-413"/>
<text text-anchor="start" x="198" y="-421.2" font-family="Helvetica,sans-Serif" font-size="11.00">numeric[10]</text>
<polygon fill="none" stroke="black" points="10,-391 10,-413 195,-413 195,-391 10,-391"/>
<image xlink:href="../../images/foreignKeys.png" width="11px" height="12px" preserveAspectRatio="xMinYMin meet" x="15" y="-408"/>
<text text-anchor="start" x="30" y="-399.2" font-family="Helvetica,sans-Serif" font-size="11.00">m_pricelist_id</text>
<polygon fill="none" stroke="black" points="195,-391 195,-413 278,-413 278,-391 195,-391"/>
<text text-anchor="start" x="198" y="-399.2" font-family="Helvetica,sans-Serif" font-size="11.00">numeric[10]</text>
<polygon fill="none" stroke="black" points="10,-369 10,-391 195,-391 195,-369 10,-369"/>
<image xlink:href="../../images/foreignKeys.png" width="11px" height="12px" preserveAspectRatio="xMinYMin meet" x="15" y="-386"/>
<text text-anchor="start" x="30" y="-377.2" font-family="Helvetica,sans-Serif" font-size="11.00">c_campaign_id</text>
<polygon fill="none" stroke="black" points="195,-369 195,-391 278,-391 278,-369 195,-369"/>
<text text-anchor="start" x="198" y="-377.2" font-family="Helvetica,sans-Serif" font-size="11.00">numeric[10]</text>
<polygon fill="none" stroke="black" points="10,-347 10,-369 195,-369 195,-347 10,-347"/>
<image xlink:href="../../images/foreignKeys.png" width="11px" height="12px" preserveAspectRatio="xMinYMin meet" x="15" y="-364"/>
<text text-anchor="start" x="30" y="-355.2" font-family="Helvetica,sans-Serif" font-size="11.00">c_project_id</text>
<polygon fill="none" stroke="black" points="195,-347 195,-369 278,-369 278,-347 195,-347"/>
<text text-anchor="start" x="198" y="-355.2" font-family="Helvetica,sans-Serif" font-size="11.00">numeric[10]</text>
<polygon fill="none" stroke="black" points="10,-325 10,-347 195,-347 195,-325 10,-325"/>
<image xlink:href="../../images/foreignKeys.png" width="11px" height="12px" preserveAspectRatio="xMinYMin meet" x="15" y="-342"/>
<text text-anchor="start" x="30" y="-333.2" font-family="Helvetica,sans-Serif" font-size="11.00">c_activity_id</text>
<polygon fill="none" stroke="black" points="195,-325 195,-347 278,-347 278,-325 195,-325"/>
<text text-anchor="start" x="198" y="-333.2" font-family="Helvetica,sans-Serif" font-size="11.00">numeric[10]</text>
<polygon fill="none" stroke="black" points="10,-303 10,-325 195,-325 195,-303 10,-303"/>
<text text-anchor="start" x="30" y="-311.2" font-family="Helvetica,sans-Serif" font-size="11.00">isprinted</text>
<polygon fill="none" stroke="black" points="195,-303 195,-325 278,-325 278,-303 195,-303"/>
<text text-anchor="start" x="198" y="-311.2" font-family="Helvetica,sans-Serif" font-size="11.00">bpchar[1]</text>
<polygon fill="none" stroke="black" points="10,-281 10,-303 195,-303 195,-281 10,-281"/>
<text text-anchor="start" x="30" y="-289.2" font-family="Helvetica,sans-Serif" font-size="11.00">isdiscountprinted</text>
<polygon fill="none" stroke="black" points="195,-281 195,-303 278,-303 278,-281 195,-281"/>
<text text-anchor="start" x="198" y="-289.2" font-family="Helvetica,sans-Serif" font-size="11.00">bpchar[1]</text>
<polygon fill="none" stroke="black" points="10,-259 10,-281 195,-281 195,-259 10,-259"/>
<text text-anchor="start" x="30" y="-267.2" font-family="Helvetica,sans-Serif" font-size="11.00">ispaid</text>
<polygon fill="none" stroke="black" points="195,-259 195,-281 278,-281 278,-259 195,-259"/>
<text text-anchor="start" x="198" y="-267.2" font-family="Helvetica,sans-Serif" font-size="11.00">bpchar[1]</text>
<polygon fill="none" stroke="black" points="10,-237 10,-259 195,-259 195,-237 10,-237"/>
<text text-anchor="start" x="30" y="-245.2" font-family="Helvetica,sans-Serif" font-size="11.00">isindispute</text>
<polygon fill="none" stroke="black" points="195,-237 195,-259 278,-259 278,-237 195,-237"/>
<text text-anchor="start" x="198" y="-245.2" font-family="Helvetica,sans-Serif" font-size="11.00">bpchar[1]</text>
<polygon fill="none" stroke="black" points="10,-215 10,-237 195,-237 195,-215 10,-215"/>
<text text-anchor="start" x="30" y="-223.2" font-family="Helvetica,sans-Serif" font-size="11.00">ispayschedulevalid</text>
<polygon fill="none" stroke="black" points="195,-215 195,-237 278,-237 278,-215 195,-215"/>
<text text-anchor="start" x="198" y="-223.2" font-family="Helvetica,sans-Serif" font-size="11.00">bpchar[1]</text>
<polygon fill="none" stroke="black" points="10,-193 10,-215 195,-215 195,-193 10,-193"/>
<text text-anchor="start" x="30" y="-201.2" font-family="Helvetica,sans-Serif" font-size="11.00">c_invoicepayschedule_id</text>
<polygon fill="none" stroke="black" points="195,-193 195,-215 278,-215 278,-193 195,-193"/>
<text text-anchor="start" x="198" y="-201.2" font-family="Helvetica,sans-Serif" font-size="11.00">numeric[0]</text>
<polygon fill="none" stroke="black" points="10,-171 10,-193 195,-193 195,-171 10,-171"/>
<text text-anchor="start" x="30" y="-179.2" font-family="Helvetica,sans-Serif" font-size="11.00">invoicecollectiontype</text>
<polygon fill="none" stroke="black" points="195,-171 195,-193 278,-193 278,-171 195,-171"/>
<text text-anchor="start" x="198" y="-179.2" font-family="Helvetica,sans-Serif" font-size="11.00">bpchar[1]</text>
<polygon fill="none" stroke="black" points="10,-149 10,-171 195,-171 195,-149 10,-149"/>
<text text-anchor="start" x="30" y="-157.2" font-family="Helvetica,sans-Serif" font-size="11.00">chargeamt</text>
<polygon fill="none" stroke="black" points="195,-149 195,-171 278,-171 278,-149 195,-149"/>
<text text-anchor="start" x="198" y="-157.2" font-family="Helvetica,sans-Serif" font-size="11.00">numeric[0]</text>
<polygon fill="none" stroke="black" points="10,-127 10,-149 195,-149 195,-127 10,-127"/>
<text text-anchor="start" x="30" y="-135.2" font-family="Helvetica,sans-Serif" font-size="11.00">totallines</text>
<polygon fill="none" stroke="black" points="195,-127 195,-149 278,-149 278,-127 195,-127"/>
<text text-anchor="start" x="198" y="-135.2" font-family="Helvetica,sans-Serif" font-size="11.00">numeric[0]</text>
<polygon fill="none" stroke="black" points="10,-105 10,-127 195,-127 195,-105 10,-105"/>
<text text-anchor="start" x="30" y="-113.2" font-family="Helvetica,sans-Serif" font-size="11.00">grandtotal</text>
<polygon fill="none" stroke="black" points="195,-105 195,-127 278,-127 278,-105 195,-105"/>
<text text-anchor="start" x="198" y="-113.2" font-family="Helvetica,sans-Serif" font-size="11.00">numeric[0]</text>
<polygon fill="none" stroke="black" points="10,-83 10,-105 195,-105 195,-83 10,-83"/>
<text text-anchor="start" x="30" y="-91.2" font-family="Helvetica,sans-Serif" font-size="11.00">multiplier</text>
<polygon fill="none" stroke="black" points="195,-83 195,-105 278,-105 278,-83 195,-83"/>
<text text-anchor="start" x="198" y="-91.2" font-family="Helvetica,sans-Serif" font-size="11.00">int4[10]</text>
<polygon fill="none" stroke="black" points="10,-61 10,-83 195,-83 195,-61 10,-61"/>
<text text-anchor="start" x="30" y="-69.2" font-family="Helvetica,sans-Serif" font-size="11.00">multiplierap</text>
<polygon fill="none" stroke="black" points="195,-61 195,-83 278,-83 278,-61 195,-61"/>
<text text-anchor="start" x="198" y="-69.2" font-family="Helvetica,sans-Serif" font-size="11.00">int4[10]</text>
<polygon fill="none" stroke="black" points="10,-39 10,-61 195,-61 195,-39 10,-39"/>
<text text-anchor="start" x="30" y="-47.2" font-family="Helvetica,sans-Serif" font-size="11.00">docbasetype</text>
<polygon fill="none" stroke="black" points="195,-39 195,-61 278,-61 278,-39 195,-39"/>
<text text-anchor="start" x="198" y="-47.2" font-family="Helvetica,sans-Serif" font-size="11.00">bpchar[3]</text>
<polygon fill="none" stroke="black" stroke-width="2" points="9,-38 9,-1184 279,-1184 279,-38 9,-38"/>
</a>
</g>
</g>
</g>
</svg>
