<?xml version="1.0" encoding="UTF-8" standalone="no"?>
<!DOCTYPE svg PUBLIC "-//W3C//DTD SVG 1.1//EN"
 "http://www.w3.org/Graphics/SVG/1.1/DTD/svg11.dtd">
<!-- Generated by graphviz version 2.43.0 (0)
 -->
<!-- Title: oneDegreeRelationshipsDiagramImplied Pages: 1 -->
<svg width="617pt" height="1050pt"
 viewBox="0.00 0.00 617.00 1050.00" xmlns="http://www.w3.org/2000/svg" xmlns:xlink="http://www.w3.org/1999/xlink">
<g id="graph0" class="graph" transform="scale(1 1) rotate(0) translate(4 1046)">
<title>oneDegreeRelationshipsDiagramImplied</title>
<polygon fill="#ffffff" stroke="transparent" points="-4,4 -4,-1046 613,-1046 613,4 -4,4"/>
<text text-anchor="middle" x="71.5" y="-7.2" font-family="Helvetica,sans-Serif" font-size="11.00">Generated by SchemaSpy</text>
<!-- c_invoice_createfrom_v -->
<g id="node1" class="node">
<title>c_invoice_createfrom_v</title>
<g id="a_node1"><a xlink:href="../../tables/c_invoice_createfrom_v.html" xlink:title="c_invoice_createfrom_v" target="_top">
<polygon fill="#ffffff" stroke="transparent" points="293,-550 293,-1038 601,-1038 601,-550 293,-550"/>
<polygon fill="#f5f5f5" stroke="transparent" points="295,-1014 295,-1036 599,-1036 599,-1014 295,-1014"/>
<polygon fill="none" stroke="black" points="295,-1014 295,-1036 599,-1036 599,-1014 295,-1014"/>
<text text-anchor="start" x="300" y="-1023.2" font-family="Helvetica,sans-Serif" font-weight="bold" font-size="11.00">c_invoice_createfrom_v</text>
<text text-anchor="start" x="566" y="-1022.2" font-family="Helvetica,sans-Serif" font-size="11.00">[view]</text>
<polygon fill="none" stroke="black" points="295,-992 295,-1014 490,-1014 490,-992 295,-992"/>
<text text-anchor="start" x="315" y="-1000.2" font-family="Helvetica,sans-Serif" font-size="11.00">creditqty</text>
<polygon fill="none" stroke="black" points="490,-992 490,-1014 599,-1014 599,-992 490,-992"/>
<text text-anchor="start" x="493" y="-1000.2" font-family="Helvetica,sans-Serif" font-size="11.00">numeric[0]</text>
<polygon fill="none" stroke="black" points="295,-970 295,-992 490,-992 490,-970 295,-970"/>
<text text-anchor="start" x="315" y="-978.2" font-family="Helvetica,sans-Serif" font-size="11.00">qty</text>
<polygon fill="none" stroke="black" points="490,-970 490,-992 599,-992 599,-970 490,-970"/>
<text text-anchor="start" x="493" y="-978.2" font-family="Helvetica,sans-Serif" font-size="11.00">numeric[0]</text>
<polygon fill="none" stroke="black" points="295,-948 295,-970 490,-970 490,-948 295,-948"/>
<text text-anchor="start" x="315" y="-956.2" font-family="Helvetica,sans-Serif" font-size="11.00">multiplier</text>
<polygon fill="none" stroke="black" points="490,-948 490,-970 599,-970 599,-948 490,-948"/>
<text text-anchor="start" x="493" y="-956.2" font-family="Helvetica,sans-Serif" font-size="11.00">numeric[0]</text>
<polygon fill="none" stroke="black" points="295,-926 295,-948 490,-948 490,-926 295,-926"/>
<image xlink:href="../../images/foreignKeys.png" width="11px" height="12px" preserveAspectRatio="xMinYMin meet" x="300" y="-943"/>
<text text-anchor="start" x="315" y="-934.2" font-family="Helvetica,sans-Serif" font-size="11.00">c_uom_id</text>
<polygon fill="none" stroke="black" points="490,-926 490,-948 599,-948 599,-926 490,-926"/>
<text text-anchor="start" x="493" y="-934.2" font-family="Helvetica,sans-Serif" font-size="11.00">numeric[10]</text>
<polygon fill="none" stroke="black" points="295,-904 295,-926 490,-926 490,-904 295,-904"/>
<text text-anchor="start" x="315" y="-912.2" font-family="Helvetica,sans-Serif" font-size="11.00">m_product_id</text>
<polygon fill="none" stroke="black" points="490,-904 490,-926 599,-926 599,-904 490,-904"/>
<text text-anchor="start" x="493" y="-912.2" font-family="Helvetica,sans-Serif" font-size="11.00">numeric[0]</text>
<polygon fill="none" stroke="black" points="295,-882 295,-904 490,-904 490,-882 295,-882"/>
<text text-anchor="start" x="315" y="-890.2" font-family="Helvetica,sans-Serif" font-size="11.00">c_charge_id</text>
<polygon fill="none" stroke="black" points="490,-882 490,-904 599,-904 599,-882 490,-882"/>
<text text-anchor="start" x="493" y="-890.2" font-family="Helvetica,sans-Serif" font-size="11.00">numeric[0]</text>
<polygon fill="none" stroke="black" points="295,-860 295,-882 490,-882 490,-860 295,-860"/>
<text text-anchor="start" x="315" y="-868.2" font-family="Helvetica,sans-Serif" font-size="11.00">vendorproductno</text>
<polygon fill="none" stroke="black" points="490,-860 490,-882 599,-882 599,-860 490,-860"/>
<text text-anchor="start" x="493" y="-868.2" font-family="Helvetica,sans-Serif" font-size="11.00">varchar[2147483647]</text>
<polygon fill="none" stroke="black" points="295,-838 295,-860 490,-860 490,-838 295,-838"/>
<text text-anchor="start" x="315" y="-846.2" font-family="Helvetica,sans-Serif" font-size="11.00">line</text>
<polygon fill="none" stroke="black" points="490,-838 490,-860 599,-860 599,-838 490,-838"/>
<text text-anchor="start" x="493" y="-846.2" font-family="Helvetica,sans-Serif" font-size="11.00">numeric[10]</text>
<polygon fill="none" stroke="black" points="295,-816 295,-838 490,-838 490,-816 295,-816"/>
<text text-anchor="start" x="315" y="-824.2" font-family="Helvetica,sans-Serif" font-size="11.00">c_orderline_id</text>
<polygon fill="none" stroke="black" points="490,-816 490,-838 599,-838 599,-816 490,-816"/>
<text text-anchor="start" x="493" y="-824.2" font-family="Helvetica,sans-Serif" font-size="11.00">numeric[0]</text>
<polygon fill="none" stroke="black" points="295,-794 295,-816 490,-816 490,-794 295,-794"/>
<text text-anchor="start" x="315" y="-802.2" font-family="Helvetica,sans-Serif" font-size="11.00">m_inoutline_id</text>
<polygon fill="none" stroke="black" points="490,-794 490,-816 599,-816 599,-794 490,-794"/>
<text text-anchor="start" x="493" y="-802.2" font-family="Helvetica,sans-Serif" font-size="11.00">numeric[0]</text>
<polygon fill="none" stroke="black" points="295,-772 295,-794 490,-794 490,-772 295,-772"/>
<text text-anchor="start" x="315" y="-780.2" font-family="Helvetica,sans-Serif" font-size="11.00">m_rmaline_id</text>
<polygon fill="none" stroke="black" points="490,-772 490,-794 599,-794 599,-772 490,-772"/>
<text text-anchor="start" x="493" y="-780.2" font-family="Helvetica,sans-Serif" font-size="11.00">numeric[0]</text>
<polygon fill="none" stroke="black" points="295,-750 295,-772 490,-772 490,-750 295,-750"/>
<image xlink:href="../../images/foreignKeys.png" width="11px" height="12px" preserveAspectRatio="xMinYMin meet" x="300" y="-767"/>
<text text-anchor="start" x="315" y="-758.2" font-family="Helvetica,sans-Serif" font-size="11.00">c_bpartner_id</text>
<polygon fill="none" stroke="black" points="490,-750 490,-772 599,-772 599,-750 490,-750"/>
<text text-anchor="start" x="493" y="-758.2" font-family="Helvetica,sans-Serif" font-size="11.00">numeric[10]</text>
<polygon fill="none" stroke="black" points="295,-728 295,-750 490,-750 490,-728 295,-728"/>
<text text-anchor="start" x="315" y="-736.2" font-family="Helvetica,sans-Serif" font-size="11.00">c_order_id</text>
<polygon fill="none" stroke="black" points="490,-728 490,-750 599,-750 599,-728 490,-728"/>
<text text-anchor="start" x="493" y="-736.2" font-family="Helvetica,sans-Serif" font-size="11.00">numeric[0]</text>
<polygon fill="none" stroke="black" points="295,-706 295,-728 490,-728 490,-706 295,-706"/>
<text text-anchor="start" x="315" y="-714.2" font-family="Helvetica,sans-Serif" font-size="11.00">m_inout_id</text>
<polygon fill="none" stroke="black" points="490,-706 490,-728 599,-728 599,-706 490,-706"/>
<text text-anchor="start" x="493" y="-714.2" font-family="Helvetica,sans-Serif" font-size="11.00">numeric[0]</text>
<polygon fill="none" stroke="black" points="295,-684 295,-706 490,-706 490,-684 295,-684"/>
<text text-anchor="start" x="315" y="-692.2" font-family="Helvetica,sans-Serif" font-size="11.00">m_rma_id</text>
<polygon fill="none" stroke="black" points="490,-684 490,-706 599,-706 599,-684 490,-684"/>
<text text-anchor="start" x="493" y="-692.2" font-family="Helvetica,sans-Serif" font-size="11.00">numeric[0]</text>
<polygon fill="none" stroke="black" points="295,-662 295,-684 490,-684 490,-662 295,-662"/>
<text text-anchor="start" x="315" y="-670.2" font-family="Helvetica,sans-Serif" font-size="11.00">c_invoice_createfrom_v_id</text>
<polygon fill="none" stroke="black" points="490,-662 490,-684 599,-684 599,-662 490,-662"/>
<text text-anchor="start" x="493" y="-670.2" font-family="Helvetica,sans-Serif" font-size="11.00">numeric[10]</text>
<polygon fill="none" stroke="black" points="295,-640 295,-662 490,-662 490,-640 295,-640"/>
<text text-anchor="start" x="315" y="-648.2" font-family="Helvetica,sans-Serif" font-size="11.00">ad_client_id</text>
<polygon fill="none" stroke="black" points="490,-640 490,-662 599,-662 599,-640 490,-640"/>
<text text-anchor="start" x="493" y="-648.2" font-family="Helvetica,sans-Serif" font-size="11.00">numeric[10]</text>
<polygon fill="none" stroke="black" points="295,-618 295,-640 490,-640 490,-618 295,-618"/>
<text text-anchor="start" x="315" y="-626.2" font-family="Helvetica,sans-Serif" font-size="11.00">ad_org_id</text>
<polygon fill="none" stroke="black" points="490,-618 490,-640 599,-640 599,-618 490,-618"/>
<text text-anchor="start" x="493" y="-626.2" font-family="Helvetica,sans-Serif" font-size="11.00">numeric[10]</text>
<polygon fill="none" stroke="black" points="295,-596 295,-618 490,-618 490,-596 295,-596"/>
<text text-anchor="start" x="315" y="-604.2" font-family="Helvetica,sans-Serif" font-size="11.00">isactive</text>
<polygon fill="none" stroke="black" points="490,-596 490,-618 599,-618 599,-596 490,-596"/>
<text text-anchor="start" x="493" y="-604.2" font-family="Helvetica,sans-Serif" font-size="11.00">bpchar[1]</text>
<polygon fill="none" stroke="black" points="295,-574 295,-596 490,-596 490,-574 295,-574"/>
<text text-anchor="start" x="315" y="-582.2" font-family="Helvetica,sans-Serif" font-size="11.00">issotrx</text>
<polygon fill="none" stroke="black" points="490,-574 490,-596 599,-596 599,-574 490,-574"/>
<text text-anchor="start" x="493" y="-582.2" font-family="Helvetica,sans-Serif" font-size="11.00">bpchar[1]</text>
<polygon fill="none" stroke="black" points="295,-552 295,-574 490,-574 490,-552 295,-552"/>
<text text-anchor="start" x="315" y="-560.2" font-family="Helvetica,sans-Serif" font-size="11.00">ad_table_id</text>
<polygon fill="none" stroke="black" points="490,-552 490,-574 599,-574 599,-552 490,-552"/>
<text text-anchor="start" x="493" y="-560.2" font-family="Helvetica,sans-Serif" font-size="11.00">int4[10]</text>
<polygon fill="none" stroke="black" stroke-width="2" points="294,-551 294,-1037 600,-1037 600,-551 294,-551"/>
</a>
</g>
</g>
<!-- c_bpartner -->
<g id="node2" class="node">
<title>c_bpartner</title>
<g id="a_node2"><a xlink:href="../../tables/c_bpartner.html" xlink:title="c_bpartner" target="_top">
<polygon fill="#ffffff" stroke="transparent" points="8,-37 8,-777 244,-777 244,-37 8,-37"/>
<polygon fill="#f5f5f5" stroke="transparent" points="8,-755 8,-777 244,-777 244,-755 8,-755"/>
<polygon fill="none" stroke="black" points="8,-755 8,-777 244,-777 244,-755 8,-755"/>
<text text-anchor="start" x="13" y="-764.2" font-family="Helvetica,sans-Serif" font-weight="bold" font-size="11.00">c_bpartner</text>
<text text-anchor="start" x="209" y="-763.2" font-family="Helvetica,sans-Serif" font-size="11.00">[table]</text>
<polygon fill="none" stroke="black" points="8,-733 8,-755 244,-755 244,-733 8,-733"/>
<image xlink:href="../../images/primaryKeys.png" width="11px" height="12px" preserveAspectRatio="xMinYMin meet" x="13" y="-750"/>
<text text-anchor="start" x="28" y="-741.2" font-family="Helvetica,sans-Serif" font-size="11.00">c_bpartner_id</text>
<polygon fill="#ffffff" stroke="transparent" points="8,-711 8,-733 244,-733 244,-711 8,-711"/>
<polygon fill="none" stroke="black" points="8,-711 8,-733 244,-733 244,-711 8,-711"/>
<image xlink:href="../../images/foreignKeys.png" width="11px" height="12px" preserveAspectRatio="xMinYMin meet" x="13" y="-728"/>
<text text-anchor="start" x="28" y="-719.2" font-family="Helvetica,sans-Serif" font-size="11.00">ad_client_id</text>
<polygon fill="none" stroke="black" points="8,-689 8,-711 244,-711 244,-689 8,-689"/>
<image xlink:href="../../images/foreignKeys.png" width="11px" height="12px" preserveAspectRatio="xMinYMin meet" x="13" y="-706"/>
<text text-anchor="start" x="28" y="-697.2" font-family="Helvetica,sans-Serif" font-size="11.00">ad_org_id</text>
<polygon fill="#ffffff" stroke="transparent" points="8,-667 8,-689 244,-689 244,-667 8,-667"/>
<polygon fill="none" stroke="black" points="8,-667 8,-689 244,-689 244,-667 8,-667"/>
<text text-anchor="start" x="28" y="-675.2" font-family="Helvetica,sans-Serif" font-size="11.00">value</text>
<polygon fill="#ffffff" stroke="transparent" points="8,-645 8,-667 244,-667 244,-645 8,-645"/>
<polygon fill="none" stroke="black" points="8,-645 8,-667 244,-667 244,-645 8,-645"/>
<text text-anchor="start" x="28" y="-653.2" font-family="Helvetica,sans-Serif" font-size="11.00">name</text>
<polygon fill="none" stroke="black" points="8,-623 8,-645 244,-645 244,-623 8,-623"/>
<image xlink:href="../../images/foreignKeys.png" width="11px" height="12px" preserveAspectRatio="xMinYMin meet" x="13" y="-640"/>
<text text-anchor="start" x="28" y="-631.2" font-family="Helvetica,sans-Serif" font-size="11.00">c_bp_group_id</text>
<polygon fill="none" stroke="black" points="8,-601 8,-623 244,-623 244,-601 8,-601"/>
<image xlink:href="../../images/foreignKeys.png" width="11px" height="12px" preserveAspectRatio="xMinYMin meet" x="13" y="-618"/>
<text text-anchor="start" x="28" y="-609.2" font-family="Helvetica,sans-Serif" font-size="11.00">ad_language</text>
<polygon fill="none" stroke="black" points="8,-579 8,-601 244,-601 244,-579 8,-579"/>
<image xlink:href="../../images/foreignKeys.png" width="11px" height="12px" preserveAspectRatio="xMinYMin meet" x="13" y="-596"/>
<text text-anchor="start" x="28" y="-587.2" font-family="Helvetica,sans-Serif" font-size="11.00">c_invoiceschedule_id</text>
<polygon fill="none" stroke="black" points="8,-557 8,-579 244,-579 244,-557 8,-557"/>
<image xlink:href="../../images/foreignKeys.png" width="11px" height="12px" preserveAspectRatio="xMinYMin meet" x="13" y="-574"/>
<text text-anchor="start" x="28" y="-565.2" font-family="Helvetica,sans-Serif" font-size="11.00">c_paymentterm_id</text>
<polygon fill="none" stroke="black" points="8,-535 8,-557 244,-557 244,-535 8,-535"/>
<image xlink:href="../../images/foreignKeys.png" width="11px" height="12px" preserveAspectRatio="xMinYMin meet" x="13" y="-552"/>
<text text-anchor="start" x="28" y="-543.2" font-family="Helvetica,sans-Serif" font-size="11.00">m_pricelist_id</text>
<polygon fill="none" stroke="black" points="8,-513 8,-535 244,-535 244,-513 8,-513"/>
<image xlink:href="../../images/foreignKeys.png" width="11px" height="12px" preserveAspectRatio="xMinYMin meet" x="13" y="-530"/>
<text text-anchor="start" x="28" y="-521.2" font-family="Helvetica,sans-Serif" font-size="11.00">m_discountschema_id</text>
<polygon fill="none" stroke="black" points="8,-491 8,-513 244,-513 244,-491 8,-491"/>
<image xlink:href="../../images/foreignKeys.png" width="11px" height="12px" preserveAspectRatio="xMinYMin meet" x="13" y="-508"/>
<text text-anchor="start" x="28" y="-499.2" font-family="Helvetica,sans-Serif" font-size="11.00">c_dunning_id</text>
<polygon fill="none" stroke="black" points="8,-469 8,-491 244,-491 244,-469 8,-469"/>
<image xlink:href="../../images/foreignKeys.png" width="11px" height="12px" preserveAspectRatio="xMinYMin meet" x="13" y="-486"/>
<text text-anchor="start" x="28" y="-477.2" font-family="Helvetica,sans-Serif" font-size="11.00">po_pricelist_id</text>
<polygon fill="none" stroke="black" points="8,-447 8,-469 244,-469 244,-447 8,-447"/>
<image xlink:href="../../images/foreignKeys.png" width="11px" height="12px" preserveAspectRatio="xMinYMin meet" x="13" y="-464"/>
<text text-anchor="start" x="28" y="-455.2" font-family="Helvetica,sans-Serif" font-size="11.00">po_discountschema_id</text>
<polygon fill="none" stroke="black" points="8,-425 8,-447 244,-447 244,-425 8,-425"/>
<image xlink:href="../../images/foreignKeys.png" width="11px" height="12px" preserveAspectRatio="xMinYMin meet" x="13" y="-442"/>
<text text-anchor="start" x="28" y="-433.2" font-family="Helvetica,sans-Serif" font-size="11.00">po_paymentterm_id</text>
<polygon fill="none" stroke="black" points="8,-403 8,-425 244,-425 244,-403 8,-403"/>
<image xlink:href="../../images/foreignKeys.png" width="11px" height="12px" preserveAspectRatio="xMinYMin meet" x="13" y="-420"/>
<text text-anchor="start" x="28" y="-411.2" font-family="Helvetica,sans-Serif" font-size="11.00">c_greeting_id</text>
<polygon fill="none" stroke="black" points="8,-381 8,-403 244,-403 244,-381 8,-381"/>
<image xlink:href="../../images/foreignKeys.png" width="11px" height="12px" preserveAspectRatio="xMinYMin meet" x="13" y="-398"/>
<text text-anchor="start" x="28" y="-389.2" font-family="Helvetica,sans-Serif" font-size="11.00">salesrep_id</text>
<polygon fill="none" stroke="black" points="8,-359 8,-381 244,-381 244,-359 8,-359"/>
<image xlink:href="../../images/foreignKeys.png" width="11px" height="12px" preserveAspectRatio="xMinYMin meet" x="13" y="-376"/>
<text text-anchor="start" x="28" y="-367.2" font-family="Helvetica,sans-Serif" font-size="11.00">bpartner_parent_id</text>
<polygon fill="none" stroke="black" points="8,-337 8,-359 244,-359 244,-337 8,-337"/>
<image xlink:href="../../images/foreignKeys.png" width="11px" height="12px" preserveAspectRatio="xMinYMin meet" x="13" y="-354"/>
<text text-anchor="start" x="28" y="-345.2" font-family="Helvetica,sans-Serif" font-size="11.00">invoice_printformat_id</text>
<polygon fill="#ffffff" stroke="transparent" points="8,-315 8,-337 244,-337 244,-315 8,-315"/>
<polygon fill="none" stroke="black" points="8,-315 8,-337 244,-337 244,-315 8,-315"/>
<image xlink:href="../../images/foreignKeys.png" width="11px" height="12px" preserveAspectRatio="xMinYMin meet" x="13" y="-332"/>
<text text-anchor="start" x="28" y="-323.2" font-family="Helvetica,sans-Serif" font-size="11.00">ad_orgbp_id</text>
<polygon fill="none" stroke="black" points="8,-293 8,-315 244,-315 244,-293 8,-293"/>
<image xlink:href="../../images/foreignKeys.png" width="11px" height="12px" preserveAspectRatio="xMinYMin meet" x="13" y="-310"/>
<text text-anchor="start" x="28" y="-301.2" font-family="Helvetica,sans-Serif" font-size="11.00">c_taxgroup_id</text>
<polygon fill="none" stroke="black" points="8,-271 8,-293 244,-293 244,-271 8,-271"/>
<image xlink:href="../../images/foreignKeys.png" width="11px" height="12px" preserveAspectRatio="xMinYMin meet" x="13" y="-288"/>
<text text-anchor="start" x="28" y="-279.2" font-family="Helvetica,sans-Serif" font-size="11.00">logo_id</text>
<polygon fill="#ffffff" stroke="transparent" points="8,-249 8,-271 244,-271 244,-249 8,-249"/>
<polygon fill="none" stroke="black" points="8,-249 8,-271 244,-271 244,-249 8,-249"/>
<text text-anchor="start" x="28" y="-257.2" font-family="Helvetica,sans-Serif" font-size="11.00">c_bpartner_uu</text>
<polygon fill="none" stroke="black" points="8,-227 8,-249 244,-249 244,-227 8,-227"/>
<image xlink:href="../../images/foreignKeys.png" width="11px" height="12px" preserveAspectRatio="xMinYMin meet" x="13" y="-244"/>
<text text-anchor="start" x="28" y="-235.2" font-family="Helvetica,sans-Serif" font-size="11.00">default1099box_id</text>
<polygon fill="none" stroke="black" points="8,-205 8,-227 244,-227 244,-205 8,-205"/>
<image xlink:href="../../images/foreignKeys.png" width="11px" height="12px" preserveAspectRatio="xMinYMin meet" x="13" y="-222"/>
<text text-anchor="start" x="28" y="-213.2" font-family="Helvetica,sans-Serif" font-size="11.00">cof_c_custody_id</text>
<polygon fill="none" stroke="black" points="8,-183 8,-205 244,-205 244,-183 8,-183"/>
<image xlink:href="../../images/foreignKeys.png" width="11px" height="12px" preserveAspectRatio="xMinYMin meet" x="13" y="-200"/>
<text text-anchor="start" x="28" y="-191.2" font-family="Helvetica,sans-Serif" font-size="11.00">cof_doctypepurchase_id</text>
<polygon fill="none" stroke="black" points="8,-161 8,-183 244,-183 244,-161 8,-161"/>
<image xlink:href="../../images/foreignKeys.png" width="11px" height="12px" preserveAspectRatio="xMinYMin meet" x="13" y="-178"/>
<text text-anchor="start" x="28" y="-169.2" font-family="Helvetica,sans-Serif" font-size="11.00">cof_doctypesale_id</text>
<polygon fill="none" stroke="black" points="8,-139 8,-161 244,-161 244,-139 8,-139"/>
<image xlink:href="../../images/foreignKeys.png" width="11px" height="12px" preserveAspectRatio="xMinYMin meet" x="13" y="-156"/>
<text text-anchor="start" x="28" y="-147.2" font-family="Helvetica,sans-Serif" font-size="11.00">cof_grupofornecedor_id</text>
<polygon fill="none" stroke="black" points="8,-117 8,-139 244,-139 244,-117 8,-117"/>
<image xlink:href="../../images/foreignKeys.png" width="11px" height="12px" preserveAspectRatio="xMinYMin meet" x="13" y="-134"/>
<text text-anchor="start" x="28" y="-125.2" font-family="Helvetica,sans-Serif" font-size="11.00">cof_vendedorinterno_id</text>
<polygon fill="none" stroke="black" points="8,-95 8,-117 244,-117 244,-95 8,-95"/>
<image xlink:href="../../images/foreignKeys.png" width="11px" height="12px" preserveAspectRatio="xMinYMin meet" x="13" y="-112"/>
<text text-anchor="start" x="28" y="-103.2" font-family="Helvetica,sans-Serif" font-size="11.00">cof_tipoparceiro_id</text>
<polygon fill="none" stroke="black" points="8,-73 8,-95 244,-95 244,-73 8,-73"/>
<image xlink:href="../../images/foreignKeys.png" width="11px" height="12px" preserveAspectRatio="xMinYMin meet" x="13" y="-90"/>
<text text-anchor="start" x="28" y="-81.2" font-family="Helvetica,sans-Serif" font-size="11.00">cof_classeparceiro_id</text>
<polygon fill="none" stroke="black" points="8,-55 8,-73 244,-73 244,-55 8,-55"/>
<text text-anchor="start" x="11" y="-61.2" font-family="Helvetica,sans-Serif" font-size="11.00">...</text>
<polygon fill="#ffffff" stroke="transparent" points="8,-37 8,-55 103,-55 103,-37 8,-37"/>
<polygon fill="none" stroke="black" points="8,-37 8,-55 103,-55 103,-37 8,-37"/>
<text text-anchor="start" x="11" y="-43.2" font-family="Helvetica,sans-Serif" font-size="11.00">&lt; 27</text>
<polygon fill="#ffffff" stroke="transparent" points="103,-37 103,-55 176,-55 176,-37 103,-37"/>
<polygon fill="none" stroke="black" points="103,-37 103,-55 176,-55 176,-37 103,-37"/>
<text text-anchor="start" x="140" y="-43.2" font-family="Helvetica,sans-Serif" font-size="11.00">4 rows</text>
<polygon fill="#ffffff" stroke="transparent" points="176,-37 176,-55 244,-55 244,-37 176,-37"/>
<polygon fill="none" stroke="black" points="176,-37 176,-55 244,-55 244,-37 176,-37"/>
<text text-anchor="start" x="213" y="-43.2" font-family="Helvetica,sans-Serif" font-size="11.00">325 &gt;</text>
</a>
</g>
</g>
<!-- c_invoice_createfrom_v&#45;&gt;c_bpartner -->
<g id="edge1" class="edge">
<title>c_invoice_createfrom_v:w&#45;&gt;c_bpartner:e</title>
<path fill="none" stroke="black" stroke-dasharray="5,2" d="M279.5,-758.19C268.12,-753.36 262.11,-744 245,-744"/>
<polygon fill="black" stroke="black" points="286.15,-759.48 293.32,-764.53 290.07,-760.24 294,-761 294,-761 294,-761 290.07,-760.24 294.68,-757.47 286.15,-759.48 286.15,-759.48"/>
<ellipse fill="none" stroke="black" cx="283" cy="-758.87" rx="3.2" ry="3.2"/>
</g>
<!-- c_uom -->
<g id="node3" class="node">
<title>c_uom</title>
<g id="a_node3"><a xlink:href="../../tables/c_uom.html" xlink:title="c_uom" target="_top">
<polygon fill="#ffffff" stroke="transparent" points="60,-798 60,-988 192,-988 192,-798 60,-798"/>
<polygon fill="#f5f5f5" stroke="transparent" points="60,-966 60,-988 192,-988 192,-966 60,-966"/>
<polygon fill="none" stroke="black" points="60,-966 60,-988 192,-988 192,-966 60,-966"/>
<text text-anchor="start" x="65" y="-975.2" font-family="Helvetica,sans-Serif" font-weight="bold" font-size="11.00">c_uom</text>
<text text-anchor="start" x="157" y="-974.2" font-family="Helvetica,sans-Serif" font-size="11.00">[table]</text>
<polygon fill="none" stroke="black" points="60,-944 60,-966 192,-966 192,-944 60,-944"/>
<image xlink:href="../../images/primaryKeys.png" width="11px" height="12px" preserveAspectRatio="xMinYMin meet" x="65" y="-961"/>
<text text-anchor="start" x="80" y="-952.2" font-family="Helvetica,sans-Serif" font-size="11.00">c_uom_id</text>
<polygon fill="#ffffff" stroke="transparent" points="60,-922 60,-944 192,-944 192,-922 60,-922"/>
<polygon fill="none" stroke="black" points="60,-922 60,-944 192,-944 192,-922 60,-922"/>
<image xlink:href="../../images/foreignKeys.png" width="11px" height="12px" preserveAspectRatio="xMinYMin meet" x="65" y="-939"/>
<text text-anchor="start" x="80" y="-930.2" font-family="Helvetica,sans-Serif" font-size="11.00">ad_client_id</text>
<polygon fill="none" stroke="black" points="60,-900 60,-922 192,-922 192,-900 60,-900"/>
<image xlink:href="../../images/foreignKeys.png" width="11px" height="12px" preserveAspectRatio="xMinYMin meet" x="65" y="-917"/>
<text text-anchor="start" x="80" y="-908.2" font-family="Helvetica,sans-Serif" font-size="11.00">ad_org_id</text>
<polygon fill="#ffffff" stroke="transparent" points="60,-878 60,-900 192,-900 192,-878 60,-878"/>
<polygon fill="none" stroke="black" points="60,-878 60,-900 192,-900 192,-878 60,-878"/>
<text text-anchor="start" x="80" y="-886.2" font-family="Helvetica,sans-Serif" font-size="11.00">x12de355</text>
<polygon fill="#ffffff" stroke="transparent" points="60,-856 60,-878 192,-878 192,-856 60,-856"/>
<polygon fill="none" stroke="black" points="60,-856 60,-878 192,-878 192,-856 60,-856"/>
<text text-anchor="start" x="80" y="-864.2" font-family="Helvetica,sans-Serif" font-size="11.00">name</text>
<polygon fill="#ffffff" stroke="transparent" points="60,-834 60,-856 192,-856 192,-834 60,-834"/>
<polygon fill="none" stroke="black" points="60,-834 60,-856 192,-856 192,-834 60,-834"/>
<text text-anchor="start" x="80" y="-842.2" font-family="Helvetica,sans-Serif" font-size="11.00">c_uom_uu</text>
<polygon fill="none" stroke="black" points="60,-816 60,-834 192,-834 192,-816 60,-816"/>
<text text-anchor="start" x="63" y="-822.2" font-family="Helvetica,sans-Serif" font-size="11.00">...</text>
<polygon fill="#ffffff" stroke="transparent" points="60,-798 60,-816 97,-816 97,-798 60,-798"/>
<polygon fill="none" stroke="black" points="60,-798 60,-816 97,-816 97,-798 60,-798"/>
<text text-anchor="start" x="63" y="-804.2" font-family="Helvetica,sans-Serif" font-size="11.00">&lt; 2</text>
<polygon fill="#ffffff" stroke="transparent" points="97,-798 97,-816 150,-816 150,-798 97,-798"/>
<polygon fill="none" stroke="black" points="97,-798 97,-816 150,-816 150,-798 97,-798"/>
<text text-anchor="start" x="108" y="-804.2" font-family="Helvetica,sans-Serif" font-size="11.00">72 rows</text>
<polygon fill="#ffffff" stroke="transparent" points="150,-798 150,-816 192,-816 192,-798 150,-798"/>
<polygon fill="none" stroke="black" points="150,-798 150,-816 192,-816 192,-798 150,-798"/>
<text text-anchor="start" x="161" y="-804.2" font-family="Helvetica,sans-Serif" font-size="11.00">112 &gt;</text>
</a>
</g>
</g>
<!-- c_invoice_createfrom_v&#45;&gt;c_uom -->
<g id="edge2" class="edge">
<title>c_invoice_createfrom_v:w&#45;&gt;c_uom:e</title>
<path fill="none" stroke="black" stroke-dasharray="5,2" d="M279.33,-937.68C245.61,-940.97 233.25,-955 193,-955"/>
<polygon fill="black" stroke="black" points="286.01,-937.37 294.17,-940.6 290,-937.19 294,-937 294,-937 294,-937 290,-937.19 293.83,-933.4 286.01,-937.37 286.01,-937.37"/>
<ellipse fill="none" stroke="black" cx="282.81" cy="-937.52" rx="3.2" ry="3.2"/>
</g>
</g>
</svg>
