<?xml version="1.0" encoding="UTF-8" standalone="no"?>
<!DOCTYPE svg PUBLIC "-//W3C//DTD SVG 1.1//EN"
 "http://www.w3.org/Graphics/SVG/1.1/DTD/svg11.dtd">
<!-- Generated by graphviz version 2.43.0 (0)
 -->
<!-- Title: oneDegreeRelationshipsDiagram Pages: 1 -->
<svg width="318pt" height="1461pt"
 viewBox="0.00 0.00 318.00 1461.00" xmlns="http://www.w3.org/2000/svg" xmlns:xlink="http://www.w3.org/1999/xlink">
<g id="graph0" class="graph" transform="scale(1 1) rotate(0) translate(4 1457)">
<title>oneDegreeRelationshipsDiagram</title>
<polygon fill="#ffffff" stroke="transparent" points="-4,4 -4,-1457 314,-1457 314,4 -4,4"/>
<text text-anchor="middle" x="71.5" y="-7.2" font-family="Helvetica,sans-Serif" font-size="11.00">Generated by SchemaSpy</text>
<!-- c_invoice_v -->
<g id="node1" class="node">
<title>c_invoice_v</title>
<g id="a_node1"><a xlink:href="../../tables/c_invoice_v.html" xlink:title="c_invoice_v" target="_top">
<polygon fill="#ffffff" stroke="transparent" points="8,-37 8,-1449 302,-1449 302,-37 8,-37"/>
<polygon fill="#f5f5f5" stroke="transparent" points="10,-1425 10,-1447 300,-1447 300,-1425 10,-1425"/>
<polygon fill="none" stroke="black" points="10,-1425 10,-1447 300,-1447 300,-1425 10,-1425"/>
<text text-anchor="start" x="15" y="-1434.2" font-family="Helvetica,sans-Serif" font-weight="bold" font-size="11.00">c_invoice_v</text>
<text text-anchor="start" x="267" y="-1433.2" font-family="Helvetica,sans-Serif" font-size="11.00">[view]</text>
<polygon fill="none" stroke="black" points="10,-1403 10,-1425 209,-1425 209,-1403 10,-1403"/>
<image xlink:href="../../images/foreignKeys.png" width="11px" height="12px" preserveAspectRatio="xMinYMin meet" x="15" y="-1420"/>
<text text-anchor="start" x="30" y="-1411.2" font-family="Helvetica,sans-Serif" font-size="11.00">c_invoice_id</text>
<polygon fill="none" stroke="black" points="209,-1403 209,-1425 300,-1425 300,-1403 209,-1403"/>
<text text-anchor="start" x="212" y="-1411.2" font-family="Helvetica,sans-Serif" font-size="11.00">numeric[10]</text>
<polygon fill="none" stroke="black" points="10,-1381 10,-1403 209,-1403 209,-1381 10,-1381"/>
<text text-anchor="start" x="30" y="-1389.2" font-family="Helvetica,sans-Serif" font-size="11.00">ad_client_id</text>
<polygon fill="none" stroke="black" points="209,-1381 209,-1403 300,-1403 300,-1381 209,-1381"/>
<text text-anchor="start" x="212" y="-1389.2" font-family="Helvetica,sans-Serif" font-size="11.00">numeric[10]</text>
<polygon fill="none" stroke="black" points="10,-1359 10,-1381 209,-1381 209,-1359 10,-1359"/>
<text text-anchor="start" x="30" y="-1367.2" font-family="Helvetica,sans-Serif" font-size="11.00">ad_org_id</text>
<polygon fill="none" stroke="black" points="209,-1359 209,-1381 300,-1381 300,-1359 209,-1359"/>
<text text-anchor="start" x="212" y="-1367.2" font-family="Helvetica,sans-Serif" font-size="11.00">numeric[10]</text>
<polygon fill="none" stroke="black" points="10,-1337 10,-1359 209,-1359 209,-1337 10,-1337"/>
<text text-anchor="start" x="30" y="-1345.2" font-family="Helvetica,sans-Serif" font-size="11.00">isactive</text>
<polygon fill="none" stroke="black" points="209,-1337 209,-1359 300,-1359 300,-1337 209,-1337"/>
<text text-anchor="start" x="212" y="-1345.2" font-family="Helvetica,sans-Serif" font-size="11.00">bpchar[1]</text>
<polygon fill="none" stroke="black" points="10,-1315 10,-1337 209,-1337 209,-1315 10,-1315"/>
<text text-anchor="start" x="30" y="-1323.2" font-family="Helvetica,sans-Serif" font-size="11.00">created</text>
<polygon fill="none" stroke="black" points="209,-1315 209,-1337 300,-1337 300,-1315 209,-1315"/>
<text text-anchor="start" x="212" y="-1323.2" font-family="Helvetica,sans-Serif" font-size="11.00">timestamp[29,6]</text>
<polygon fill="none" stroke="black" points="10,-1293 10,-1315 209,-1315 209,-1293 10,-1293"/>
<text text-anchor="start" x="30" y="-1301.2" font-family="Helvetica,sans-Serif" font-size="11.00">createdby</text>
<polygon fill="none" stroke="black" points="209,-1293 209,-1315 300,-1315 300,-1293 209,-1293"/>
<text text-anchor="start" x="212" y="-1301.2" font-family="Helvetica,sans-Serif" font-size="11.00">numeric[10]</text>
<polygon fill="none" stroke="black" points="10,-1271 10,-1293 209,-1293 209,-1271 10,-1271"/>
<text text-anchor="start" x="30" y="-1279.2" font-family="Helvetica,sans-Serif" font-size="11.00">updated</text>
<polygon fill="none" stroke="black" points="209,-1271 209,-1293 300,-1293 300,-1271 209,-1271"/>
<text text-anchor="start" x="212" y="-1279.2" font-family="Helvetica,sans-Serif" font-size="11.00">timestamp[29,6]</text>
<polygon fill="none" stroke="black" points="10,-1249 10,-1271 209,-1271 209,-1249 10,-1249"/>
<text text-anchor="start" x="30" y="-1257.2" font-family="Helvetica,sans-Serif" font-size="11.00">updatedby</text>
<polygon fill="none" stroke="black" points="209,-1249 209,-1271 300,-1271 300,-1249 209,-1249"/>
<text text-anchor="start" x="212" y="-1257.2" font-family="Helvetica,sans-Serif" font-size="11.00">numeric[10]</text>
<polygon fill="none" stroke="black" points="10,-1227 10,-1249 209,-1249 209,-1227 10,-1227"/>
<text text-anchor="start" x="30" y="-1235.2" font-family="Helvetica,sans-Serif" font-size="11.00">issotrx</text>
<polygon fill="none" stroke="black" points="209,-1227 209,-1249 300,-1249 300,-1227 209,-1227"/>
<text text-anchor="start" x="212" y="-1235.2" font-family="Helvetica,sans-Serif" font-size="11.00">bpchar[1]</text>
<polygon fill="none" stroke="black" points="10,-1205 10,-1227 209,-1227 209,-1205 10,-1205"/>
<text text-anchor="start" x="30" y="-1213.2" font-family="Helvetica,sans-Serif" font-size="11.00">documentno</text>
<polygon fill="none" stroke="black" points="209,-1205 209,-1227 300,-1227 300,-1205 209,-1205"/>
<text text-anchor="start" x="212" y="-1213.2" font-family="Helvetica,sans-Serif" font-size="11.00">varchar[30]</text>
<polygon fill="none" stroke="black" points="10,-1183 10,-1205 209,-1205 209,-1183 10,-1183"/>
<text text-anchor="start" x="30" y="-1191.2" font-family="Helvetica,sans-Serif" font-size="11.00">docstatus</text>
<polygon fill="none" stroke="black" points="209,-1183 209,-1205 300,-1205 300,-1183 209,-1183"/>
<text text-anchor="start" x="212" y="-1191.2" font-family="Helvetica,sans-Serif" font-size="11.00">bpchar[2]</text>
<polygon fill="none" stroke="black" points="10,-1161 10,-1183 209,-1183 209,-1161 10,-1161"/>
<text text-anchor="start" x="30" y="-1169.2" font-family="Helvetica,sans-Serif" font-size="11.00">docaction</text>
<polygon fill="none" stroke="black" points="209,-1161 209,-1183 300,-1183 300,-1161 209,-1161"/>
<text text-anchor="start" x="212" y="-1169.2" font-family="Helvetica,sans-Serif" font-size="11.00">bpchar[2]</text>
<polygon fill="none" stroke="black" points="10,-1139 10,-1161 209,-1161 209,-1139 10,-1139"/>
<text text-anchor="start" x="30" y="-1147.2" font-family="Helvetica,sans-Serif" font-size="11.00">processing</text>
<polygon fill="none" stroke="black" points="209,-1139 209,-1161 300,-1161 300,-1139 209,-1139"/>
<text text-anchor="start" x="212" y="-1147.2" font-family="Helvetica,sans-Serif" font-size="11.00">bpchar[1]</text>
<polygon fill="none" stroke="black" points="10,-1117 10,-1139 209,-1139 209,-1117 10,-1117"/>
<text text-anchor="start" x="30" y="-1125.2" font-family="Helvetica,sans-Serif" font-size="11.00">processed</text>
<polygon fill="none" stroke="black" points="209,-1117 209,-1139 300,-1139 300,-1117 209,-1117"/>
<text text-anchor="start" x="212" y="-1125.2" font-family="Helvetica,sans-Serif" font-size="11.00">bpchar[1]</text>
<polygon fill="none" stroke="black" points="10,-1095 10,-1117 209,-1117 209,-1095 10,-1095"/>
<image xlink:href="../../images/foreignKeys.png" width="11px" height="12px" preserveAspectRatio="xMinYMin meet" x="15" y="-1112"/>
<text text-anchor="start" x="30" y="-1103.2" font-family="Helvetica,sans-Serif" font-size="11.00">c_doctype_id</text>
<polygon fill="none" stroke="black" points="209,-1095 209,-1117 300,-1117 300,-1095 209,-1095"/>
<text text-anchor="start" x="212" y="-1103.2" font-family="Helvetica,sans-Serif" font-size="11.00">numeric[10]</text>
<polygon fill="none" stroke="black" points="10,-1073 10,-1095 209,-1095 209,-1073 10,-1073"/>
<text text-anchor="start" x="30" y="-1081.2" font-family="Helvetica,sans-Serif" font-size="11.00">c_doctypetarget_id</text>
<polygon fill="none" stroke="black" points="209,-1073 209,-1095 300,-1095 300,-1073 209,-1073"/>
<text text-anchor="start" x="212" y="-1081.2" font-family="Helvetica,sans-Serif" font-size="11.00">numeric[10]</text>
<polygon fill="none" stroke="black" points="10,-1051 10,-1073 209,-1073 209,-1051 10,-1051"/>
<image xlink:href="../../images/foreignKeys.png" width="11px" height="12px" preserveAspectRatio="xMinYMin meet" x="15" y="-1068"/>
<text text-anchor="start" x="30" y="-1059.2" font-family="Helvetica,sans-Serif" font-size="11.00">c_order_id</text>
<polygon fill="none" stroke="black" points="209,-1051 209,-1073 300,-1073 300,-1051 209,-1051"/>
<text text-anchor="start" x="212" y="-1059.2" font-family="Helvetica,sans-Serif" font-size="11.00">numeric[10]</text>
<polygon fill="none" stroke="black" points="10,-1029 10,-1051 209,-1051 209,-1029 10,-1029"/>
<text text-anchor="start" x="30" y="-1037.2" font-family="Helvetica,sans-Serif" font-size="11.00">description</text>
<polygon fill="none" stroke="black" points="209,-1029 209,-1051 300,-1051 300,-1029 209,-1029"/>
<text text-anchor="start" x="212" y="-1037.2" font-family="Helvetica,sans-Serif" font-size="11.00">varchar[500]</text>
<polygon fill="none" stroke="black" points="10,-1007 10,-1029 209,-1029 209,-1007 10,-1007"/>
<text text-anchor="start" x="30" y="-1015.2" font-family="Helvetica,sans-Serif" font-size="11.00">isapproved</text>
<polygon fill="none" stroke="black" points="209,-1007 209,-1029 300,-1029 300,-1007 209,-1007"/>
<text text-anchor="start" x="212" y="-1015.2" font-family="Helvetica,sans-Serif" font-size="11.00">bpchar[1]</text>
<polygon fill="none" stroke="black" points="10,-985 10,-1007 209,-1007 209,-985 10,-985"/>
<text text-anchor="start" x="30" y="-993.2" font-family="Helvetica,sans-Serif" font-size="11.00">istransferred</text>
<polygon fill="none" stroke="black" points="209,-985 209,-1007 300,-1007 300,-985 209,-985"/>
<text text-anchor="start" x="212" y="-993.2" font-family="Helvetica,sans-Serif" font-size="11.00">bpchar[1]</text>
<polygon fill="none" stroke="black" points="10,-963 10,-985 209,-985 209,-963 10,-963"/>
<text text-anchor="start" x="30" y="-971.2" font-family="Helvetica,sans-Serif" font-size="11.00">salesrep_id</text>
<polygon fill="none" stroke="black" points="209,-963 209,-985 300,-985 300,-963 209,-963"/>
<text text-anchor="start" x="212" y="-971.2" font-family="Helvetica,sans-Serif" font-size="11.00">numeric[10]</text>
<polygon fill="none" stroke="black" points="10,-941 10,-963 209,-963 209,-941 10,-941"/>
<text text-anchor="start" x="30" y="-949.2" font-family="Helvetica,sans-Serif" font-size="11.00">dateinvoiced</text>
<polygon fill="none" stroke="black" points="209,-941 209,-963 300,-963 300,-941 209,-941"/>
<text text-anchor="start" x="212" y="-949.2" font-family="Helvetica,sans-Serif" font-size="11.00">timestamp[29,6]</text>
<polygon fill="none" stroke="black" points="10,-919 10,-941 209,-941 209,-919 10,-919"/>
<text text-anchor="start" x="30" y="-927.2" font-family="Helvetica,sans-Serif" font-size="11.00">dateprinted</text>
<polygon fill="none" stroke="black" points="209,-919 209,-941 300,-941 300,-919 209,-919"/>
<text text-anchor="start" x="212" y="-927.2" font-family="Helvetica,sans-Serif" font-size="11.00">timestamp[29,6]</text>
<polygon fill="none" stroke="black" points="10,-897 10,-919 209,-919 209,-897 10,-897"/>
<text text-anchor="start" x="30" y="-905.2" font-family="Helvetica,sans-Serif" font-size="11.00">dateacct</text>
<polygon fill="none" stroke="black" points="209,-897 209,-919 300,-919 300,-897 209,-897"/>
<text text-anchor="start" x="212" y="-905.2" font-family="Helvetica,sans-Serif" font-size="11.00">timestamp[29,6]</text>
<polygon fill="none" stroke="black" points="10,-875 10,-897 209,-897 209,-875 10,-875"/>
<image xlink:href="../../images/foreignKeys.png" width="11px" height="12px" preserveAspectRatio="xMinYMin meet" x="15" y="-892"/>
<text text-anchor="start" x="30" y="-883.2" font-family="Helvetica,sans-Serif" font-size="11.00">c_bpartner_id</text>
<polygon fill="none" stroke="black" points="209,-875 209,-897 300,-897 300,-875 209,-875"/>
<text text-anchor="start" x="212" y="-883.2" font-family="Helvetica,sans-Serif" font-size="11.00">numeric[10]</text>
<polygon fill="none" stroke="black" points="10,-853 10,-875 209,-875 209,-853 10,-853"/>
<image xlink:href="../../images/foreignKeys.png" width="11px" height="12px" preserveAspectRatio="xMinYMin meet" x="15" y="-870"/>
<text text-anchor="start" x="30" y="-861.2" font-family="Helvetica,sans-Serif" font-size="11.00">c_bpartner_location_id</text>
<polygon fill="none" stroke="black" points="209,-853 209,-875 300,-875 300,-853 209,-853"/>
<text text-anchor="start" x="212" y="-861.2" font-family="Helvetica,sans-Serif" font-size="11.00">numeric[10]</text>
<polygon fill="none" stroke="black" points="10,-831 10,-853 209,-853 209,-831 10,-831"/>
<text text-anchor="start" x="30" y="-839.2" font-family="Helvetica,sans-Serif" font-size="11.00">ad_user_id</text>
<polygon fill="none" stroke="black" points="209,-831 209,-853 300,-853 300,-831 209,-831"/>
<text text-anchor="start" x="212" y="-839.2" font-family="Helvetica,sans-Serif" font-size="11.00">numeric[10]</text>
<polygon fill="none" stroke="black" points="10,-809 10,-831 209,-831 209,-809 10,-809"/>
<text text-anchor="start" x="30" y="-817.2" font-family="Helvetica,sans-Serif" font-size="11.00">poreference</text>
<polygon fill="none" stroke="black" points="209,-809 209,-831 300,-831 300,-809 209,-809"/>
<text text-anchor="start" x="212" y="-817.2" font-family="Helvetica,sans-Serif" font-size="11.00">varchar[20]</text>
<polygon fill="none" stroke="black" points="10,-787 10,-809 209,-809 209,-787 10,-787"/>
<text text-anchor="start" x="30" y="-795.2" font-family="Helvetica,sans-Serif" font-size="11.00">dateordered</text>
<polygon fill="none" stroke="black" points="209,-787 209,-809 300,-809 300,-787 209,-787"/>
<text text-anchor="start" x="212" y="-795.2" font-family="Helvetica,sans-Serif" font-size="11.00">timestamp[29,6]</text>
<polygon fill="none" stroke="black" points="10,-765 10,-787 209,-787 209,-765 10,-765"/>
<image xlink:href="../../images/foreignKeys.png" width="11px" height="12px" preserveAspectRatio="xMinYMin meet" x="15" y="-782"/>
<text text-anchor="start" x="30" y="-773.2" font-family="Helvetica,sans-Serif" font-size="11.00">c_currency_id</text>
<polygon fill="none" stroke="black" points="209,-765 209,-787 300,-787 300,-765 209,-765"/>
<text text-anchor="start" x="212" y="-773.2" font-family="Helvetica,sans-Serif" font-size="11.00">numeric[10]</text>
<polygon fill="none" stroke="black" points="10,-743 10,-765 209,-765 209,-743 10,-743"/>
<image xlink:href="../../images/foreignKeys.png" width="11px" height="12px" preserveAspectRatio="xMinYMin meet" x="15" y="-760"/>
<text text-anchor="start" x="30" y="-751.2" font-family="Helvetica,sans-Serif" font-size="11.00">c_conversiontype_id</text>
<polygon fill="none" stroke="black" points="209,-743 209,-765 300,-765 300,-743 209,-743"/>
<text text-anchor="start" x="212" y="-751.2" font-family="Helvetica,sans-Serif" font-size="11.00">numeric[10]</text>
<polygon fill="none" stroke="black" points="10,-721 10,-743 209,-743 209,-721 10,-721"/>
<text text-anchor="start" x="30" y="-729.2" font-family="Helvetica,sans-Serif" font-size="11.00">paymentrule</text>
<polygon fill="none" stroke="black" points="209,-721 209,-743 300,-743 300,-721 209,-721"/>
<text text-anchor="start" x="212" y="-729.2" font-family="Helvetica,sans-Serif" font-size="11.00">bpchar[1]</text>
<polygon fill="none" stroke="black" points="10,-699 10,-721 209,-721 209,-699 10,-699"/>
<image xlink:href="../../images/foreignKeys.png" width="11px" height="12px" preserveAspectRatio="xMinYMin meet" x="15" y="-716"/>
<text text-anchor="start" x="30" y="-707.2" font-family="Helvetica,sans-Serif" font-size="11.00">c_paymentterm_id</text>
<polygon fill="none" stroke="black" points="209,-699 209,-721 300,-721 300,-699 209,-699"/>
<text text-anchor="start" x="212" y="-707.2" font-family="Helvetica,sans-Serif" font-size="11.00">numeric[10]</text>
<polygon fill="none" stroke="black" points="10,-677 10,-699 209,-699 209,-677 10,-677"/>
<image xlink:href="../../images/foreignKeys.png" width="11px" height="12px" preserveAspectRatio="xMinYMin meet" x="15" y="-694"/>
<text text-anchor="start" x="30" y="-685.2" font-family="Helvetica,sans-Serif" font-size="11.00">c_charge_id</text>
<polygon fill="none" stroke="black" points="209,-677 209,-699 300,-699 300,-677 209,-677"/>
<text text-anchor="start" x="212" y="-685.2" font-family="Helvetica,sans-Serif" font-size="11.00">numeric[10]</text>
<polygon fill="none" stroke="black" points="10,-655 10,-677 209,-677 209,-655 10,-655"/>
<image xlink:href="../../images/foreignKeys.png" width="11px" height="12px" preserveAspectRatio="xMinYMin meet" x="15" y="-672"/>
<text text-anchor="start" x="30" y="-663.2" font-family="Helvetica,sans-Serif" font-size="11.00">m_pricelist_id</text>
<polygon fill="none" stroke="black" points="209,-655 209,-677 300,-677 300,-655 209,-655"/>
<text text-anchor="start" x="212" y="-663.2" font-family="Helvetica,sans-Serif" font-size="11.00">numeric[10]</text>
<polygon fill="none" stroke="black" points="10,-633 10,-655 209,-655 209,-633 10,-633"/>
<image xlink:href="../../images/foreignKeys.png" width="11px" height="12px" preserveAspectRatio="xMinYMin meet" x="15" y="-650"/>
<text text-anchor="start" x="30" y="-641.2" font-family="Helvetica,sans-Serif" font-size="11.00">c_campaign_id</text>
<polygon fill="none" stroke="black" points="209,-633 209,-655 300,-655 300,-633 209,-633"/>
<text text-anchor="start" x="212" y="-641.2" font-family="Helvetica,sans-Serif" font-size="11.00">numeric[10]</text>
<polygon fill="none" stroke="black" points="10,-611 10,-633 209,-633 209,-611 10,-611"/>
<image xlink:href="../../images/foreignKeys.png" width="11px" height="12px" preserveAspectRatio="xMinYMin meet" x="15" y="-628"/>
<text text-anchor="start" x="30" y="-619.2" font-family="Helvetica,sans-Serif" font-size="11.00">c_project_id</text>
<polygon fill="none" stroke="black" points="209,-611 209,-633 300,-633 300,-611 209,-611"/>
<text text-anchor="start" x="212" y="-619.2" font-family="Helvetica,sans-Serif" font-size="11.00">numeric[10]</text>
<polygon fill="none" stroke="black" points="10,-589 10,-611 209,-611 209,-589 10,-589"/>
<image xlink:href="../../images/foreignKeys.png" width="11px" height="12px" preserveAspectRatio="xMinYMin meet" x="15" y="-606"/>
<text text-anchor="start" x="30" y="-597.2" font-family="Helvetica,sans-Serif" font-size="11.00">c_activity_id</text>
<polygon fill="none" stroke="black" points="209,-589 209,-611 300,-611 300,-589 209,-589"/>
<text text-anchor="start" x="212" y="-597.2" font-family="Helvetica,sans-Serif" font-size="11.00">numeric[10]</text>
<polygon fill="none" stroke="black" points="10,-567 10,-589 209,-589 209,-567 10,-567"/>
<text text-anchor="start" x="30" y="-575.2" font-family="Helvetica,sans-Serif" font-size="11.00">isprinted</text>
<polygon fill="none" stroke="black" points="209,-567 209,-589 300,-589 300,-567 209,-567"/>
<text text-anchor="start" x="212" y="-575.2" font-family="Helvetica,sans-Serif" font-size="11.00">bpchar[1]</text>
<polygon fill="none" stroke="black" points="10,-545 10,-567 209,-567 209,-545 10,-545"/>
<text text-anchor="start" x="30" y="-553.2" font-family="Helvetica,sans-Serif" font-size="11.00">isdiscountprinted</text>
<polygon fill="none" stroke="black" points="209,-545 209,-567 300,-567 300,-545 209,-545"/>
<text text-anchor="start" x="212" y="-553.2" font-family="Helvetica,sans-Serif" font-size="11.00">bpchar[1]</text>
<polygon fill="none" stroke="black" points="10,-523 10,-545 209,-545 209,-523 10,-523"/>
<text text-anchor="start" x="30" y="-531.2" font-family="Helvetica,sans-Serif" font-size="11.00">ispaid</text>
<polygon fill="none" stroke="black" points="209,-523 209,-545 300,-545 300,-523 209,-523"/>
<text text-anchor="start" x="212" y="-531.2" font-family="Helvetica,sans-Serif" font-size="11.00">bpchar[1]</text>
<polygon fill="none" stroke="black" points="10,-501 10,-523 209,-523 209,-501 10,-501"/>
<text text-anchor="start" x="30" y="-509.2" font-family="Helvetica,sans-Serif" font-size="11.00">isindispute</text>
<polygon fill="none" stroke="black" points="209,-501 209,-523 300,-523 300,-501 209,-501"/>
<text text-anchor="start" x="212" y="-509.2" font-family="Helvetica,sans-Serif" font-size="11.00">bpchar[1]</text>
<polygon fill="none" stroke="black" points="10,-479 10,-501 209,-501 209,-479 10,-479"/>
<text text-anchor="start" x="30" y="-487.2" font-family="Helvetica,sans-Serif" font-size="11.00">ispayschedulevalid</text>
<polygon fill="none" stroke="black" points="209,-479 209,-501 300,-501 300,-479 209,-479"/>
<text text-anchor="start" x="212" y="-487.2" font-family="Helvetica,sans-Serif" font-size="11.00">bpchar[1]</text>
<polygon fill="none" stroke="black" points="10,-457 10,-479 209,-479 209,-457 10,-457"/>
<text text-anchor="start" x="30" y="-465.2" font-family="Helvetica,sans-Serif" font-size="11.00">c_invoicepayschedule_id</text>
<polygon fill="none" stroke="black" points="209,-457 209,-479 300,-479 300,-457 209,-457"/>
<text text-anchor="start" x="212" y="-465.2" font-family="Helvetica,sans-Serif" font-size="11.00">numeric[0]</text>
<polygon fill="none" stroke="black" points="10,-435 10,-457 209,-457 209,-435 10,-435"/>
<text text-anchor="start" x="30" y="-443.2" font-family="Helvetica,sans-Serif" font-size="11.00">invoicecollectiontype</text>
<polygon fill="none" stroke="black" points="209,-435 209,-457 300,-457 300,-435 209,-435"/>
<text text-anchor="start" x="212" y="-443.2" font-family="Helvetica,sans-Serif" font-size="11.00">bpchar[1]</text>
<polygon fill="none" stroke="black" points="10,-413 10,-435 209,-435 209,-413 10,-413"/>
<text text-anchor="start" x="30" y="-421.2" font-family="Helvetica,sans-Serif" font-size="11.00">dunninggrace</text>
<polygon fill="none" stroke="black" points="209,-413 209,-435 300,-435 300,-413 209,-413"/>
<text text-anchor="start" x="212" y="-421.2" font-family="Helvetica,sans-Serif" font-size="11.00">timestamp[29,6]</text>
<polygon fill="none" stroke="black" points="10,-391 10,-413 209,-413 209,-391 10,-391"/>
<text text-anchor="start" x="30" y="-399.2" font-family="Helvetica,sans-Serif" font-size="11.00">chargeamt</text>
<polygon fill="none" stroke="black" points="209,-391 209,-413 300,-413 300,-391 209,-391"/>
<text text-anchor="start" x="212" y="-399.2" font-family="Helvetica,sans-Serif" font-size="11.00">numeric[0]</text>
<polygon fill="none" stroke="black" points="10,-369 10,-391 209,-391 209,-369 10,-369"/>
<text text-anchor="start" x="30" y="-377.2" font-family="Helvetica,sans-Serif" font-size="11.00">totallines</text>
<polygon fill="none" stroke="black" points="209,-369 209,-391 300,-391 300,-369 209,-369"/>
<text text-anchor="start" x="212" y="-377.2" font-family="Helvetica,sans-Serif" font-size="11.00">numeric[0]</text>
<polygon fill="none" stroke="black" points="10,-347 10,-369 209,-369 209,-347 10,-347"/>
<text text-anchor="start" x="30" y="-355.2" font-family="Helvetica,sans-Serif" font-size="11.00">grandtotal</text>
<polygon fill="none" stroke="black" points="209,-347 209,-369 300,-369 300,-347 209,-347"/>
<text text-anchor="start" x="212" y="-355.2" font-family="Helvetica,sans-Serif" font-size="11.00">numeric[0]</text>
<polygon fill="none" stroke="black" points="10,-325 10,-347 209,-347 209,-325 10,-325"/>
<text text-anchor="start" x="30" y="-333.2" font-family="Helvetica,sans-Serif" font-size="11.00">multiplier</text>
<polygon fill="none" stroke="black" points="209,-325 209,-347 300,-347 300,-325 209,-325"/>
<text text-anchor="start" x="212" y="-333.2" font-family="Helvetica,sans-Serif" font-size="11.00">numeric[0]</text>
<polygon fill="none" stroke="black" points="10,-303 10,-325 209,-325 209,-303 10,-303"/>
<text text-anchor="start" x="30" y="-311.2" font-family="Helvetica,sans-Serif" font-size="11.00">multiplierap</text>
<polygon fill="none" stroke="black" points="209,-303 209,-325 300,-325 300,-303 209,-303"/>
<text text-anchor="start" x="212" y="-311.2" font-family="Helvetica,sans-Serif" font-size="11.00">numeric[0]</text>
<polygon fill="none" stroke="black" points="10,-281 10,-303 209,-303 209,-281 10,-281"/>
<text text-anchor="start" x="30" y="-289.2" font-family="Helvetica,sans-Serif" font-size="11.00">docbasetype</text>
<polygon fill="none" stroke="black" points="209,-281 209,-303 300,-303 300,-281 209,-281"/>
<text text-anchor="start" x="212" y="-289.2" font-family="Helvetica,sans-Serif" font-size="11.00">bpchar[3]</text>
<polygon fill="none" stroke="black" points="10,-259 10,-281 209,-281 209,-259 10,-259"/>
<text text-anchor="start" x="30" y="-267.2" font-family="Helvetica,sans-Serif" font-size="11.00">duedate</text>
<polygon fill="none" stroke="black" points="209,-259 209,-281 300,-281 300,-259 209,-259"/>
<text text-anchor="start" x="212" y="-267.2" font-family="Helvetica,sans-Serif" font-size="11.00">timestamptz[35,6]</text>
<polygon fill="none" stroke="black" points="10,-237 10,-259 209,-259 209,-237 10,-237"/>
<text text-anchor="start" x="30" y="-245.2" font-family="Helvetica,sans-Serif" font-size="11.00">ad_orgtrx_id</text>
<polygon fill="none" stroke="black" points="209,-237 209,-259 300,-259 300,-237 209,-237"/>
<text text-anchor="start" x="212" y="-245.2" font-family="Helvetica,sans-Serif" font-size="11.00">numeric[10]</text>
<polygon fill="none" stroke="black" points="10,-215 10,-237 209,-237 209,-215 10,-215"/>
<image xlink:href="../../images/foreignKeys.png" width="11px" height="12px" preserveAspectRatio="xMinYMin meet" x="15" y="-232"/>
<text text-anchor="start" x="30" y="-223.2" font-family="Helvetica,sans-Serif" font-size="11.00">c_payment_id</text>
<polygon fill="none" stroke="black" points="209,-215 209,-237 300,-237 300,-215 209,-215"/>
<text text-anchor="start" x="212" y="-223.2" font-family="Helvetica,sans-Serif" font-size="11.00">numeric[10]</text>
<polygon fill="none" stroke="black" points="10,-193 10,-215 209,-215 209,-193 10,-193"/>
<text text-anchor="start" x="30" y="-201.2" font-family="Helvetica,sans-Serif" font-size="11.00">isselfservice</text>
<polygon fill="none" stroke="black" points="209,-193 209,-215 300,-215 300,-193 209,-193"/>
<text text-anchor="start" x="212" y="-201.2" font-family="Helvetica,sans-Serif" font-size="11.00">bpchar[1]</text>
<polygon fill="none" stroke="black" points="10,-171 10,-193 209,-193 209,-171 10,-171"/>
<text text-anchor="start" x="30" y="-179.2" font-family="Helvetica,sans-Serif" font-size="11.00">posted</text>
<polygon fill="none" stroke="black" points="209,-171 209,-193 300,-193 300,-171 209,-171"/>
<text text-anchor="start" x="212" y="-179.2" font-family="Helvetica,sans-Serif" font-size="11.00">bpchar[1]</text>
<polygon fill="none" stroke="black" points="10,-149 10,-171 209,-171 209,-149 10,-149"/>
<text text-anchor="start" x="30" y="-157.2" font-family="Helvetica,sans-Serif" font-size="11.00">processedon</text>
<polygon fill="none" stroke="black" points="209,-149 209,-171 300,-171 300,-149 209,-149"/>
<text text-anchor="start" x="212" y="-157.2" font-family="Helvetica,sans-Serif" font-size="11.00">numeric[0]</text>
<polygon fill="none" stroke="black" points="10,-127 10,-149 209,-149 209,-127 10,-127"/>
<text text-anchor="start" x="30" y="-135.2" font-family="Helvetica,sans-Serif" font-size="11.00">reversal_id</text>
<polygon fill="none" stroke="black" points="209,-127 209,-149 300,-149 300,-127 209,-127"/>
<text text-anchor="start" x="212" y="-135.2" font-family="Helvetica,sans-Serif" font-size="11.00">numeric[10]</text>
<polygon fill="none" stroke="black" points="10,-105 10,-127 209,-127 209,-105 10,-105"/>
<image xlink:href="../../images/foreignKeys.png" width="11px" height="12px" preserveAspectRatio="xMinYMin meet" x="15" y="-122"/>
<text text-anchor="start" x="30" y="-113.2" font-family="Helvetica,sans-Serif" font-size="11.00">cof_c_custody_id</text>
<polygon fill="none" stroke="black" points="209,-105 209,-127 300,-127 300,-105 209,-105"/>
<text text-anchor="start" x="212" y="-113.2" font-family="Helvetica,sans-Serif" font-size="11.00">numeric[10]</text>
<polygon fill="none" stroke="black" points="10,-83 10,-105 209,-105 209,-83 10,-83"/>
<text text-anchor="start" x="30" y="-91.2" font-family="Helvetica,sans-Serif" font-size="11.00">cof_datescheduled</text>
<polygon fill="none" stroke="black" points="209,-83 209,-105 300,-105 300,-83 209,-83"/>
<text text-anchor="start" x="212" y="-91.2" font-family="Helvetica,sans-Serif" font-size="11.00">timestamp[29,6]</text>
<polygon fill="none" stroke="black" points="10,-61 10,-83 209,-83 209,-61 10,-61"/>
<text text-anchor="start" x="30" y="-69.2" font-family="Helvetica,sans-Serif" font-size="11.00">c_invoice_v_id</text>
<polygon fill="none" stroke="black" points="209,-61 209,-83 300,-83 300,-61 209,-61"/>
<text text-anchor="start" x="212" y="-69.2" font-family="Helvetica,sans-Serif" font-size="11.00">numeric[0]</text>
<polygon fill="none" stroke="black" points="10,-39 10,-61 209,-61 209,-39 10,-39"/>
<text text-anchor="start" x="30" y="-47.2" font-family="Helvetica,sans-Serif" font-size="11.00">cof_isentradampprestador</text>
<polygon fill="none" stroke="black" points="209,-39 209,-61 300,-61 300,-39 209,-39"/>
<text text-anchor="start" x="212" y="-47.2" font-family="Helvetica,sans-Serif" font-size="11.00">bpchar[1]</text>
<polygon fill="none" stroke="black" stroke-width="2" points="9,-38 9,-1448 301,-1448 301,-38 9,-38"/>
</a>
</g>
</g>
</g>
</svg>
