<?xml version="1.0" encoding="UTF-8" standalone="no"?>
<!DOCTYPE svg PUBLIC "-//W3C//DTD SVG 1.1//EN"
 "http://www.w3.org/Graphics/SVG/1.1/DTD/svg11.dtd">
<!-- Generated by graphviz version 2.43.0 (0)
 -->
<!-- Title: oneDegreeRelationshipsDiagram Pages: 1 -->
<svg width="1044pt" height="555pt"
 viewBox="0.00 0.00 1044.00 555.00" xmlns="http://www.w3.org/2000/svg" xmlns:xlink="http://www.w3.org/1999/xlink">
<g id="graph0" class="graph" transform="scale(1 1) rotate(0) translate(4 551)">
<title>oneDegreeRelationshipsDiagram</title>
<polygon fill="#ffffff" stroke="transparent" points="-4,4 -4,-551 1040,-551 1040,4 -4,4"/>
<text text-anchor="middle" x="71.5" y="-7.2" font-family="Helvetica,sans-Serif" font-size="11.00">Generated by SchemaSpy</text>
<!-- ad_org -->
<g id="node1" class="node">
<title>ad_org</title>
<g id="a_node1"><a xlink:href="../../tables/ad_org.html" xlink:title="ad_org" target="_top">
<polygon fill="#ffffff" stroke="transparent" points="285,-211 285,-401 477,-401 477,-211 285,-211"/>
<polygon fill="#f5f5f5" stroke="transparent" points="285,-379 285,-401 477,-401 477,-379 285,-379"/>
<polygon fill="none" stroke="black" points="285,-379 285,-401 477,-401 477,-379 285,-379"/>
<text text-anchor="start" x="290" y="-388.2" font-family="Helvetica,sans-Serif" font-weight="bold" font-size="11.00">ad_org</text>
<text text-anchor="start" x="442" y="-387.2" font-family="Helvetica,sans-Serif" font-size="11.00">[table]</text>
<polygon fill="none" stroke="black" points="285,-357 285,-379 477,-379 477,-357 285,-357"/>
<image xlink:href="../../images/primaryKeys.png" width="11px" height="12px" preserveAspectRatio="xMinYMin meet" x="290" y="-374"/>
<text text-anchor="start" x="305" y="-365.2" font-family="Helvetica,sans-Serif" font-size="11.00">ad_org_id</text>
<polygon fill="#ffffff" stroke="transparent" points="285,-335 285,-357 477,-357 477,-335 285,-335"/>
<polygon fill="none" stroke="black" points="285,-335 285,-357 477,-357 477,-335 285,-335"/>
<image xlink:href="../../images/foreignKeys.png" width="11px" height="12px" preserveAspectRatio="xMinYMin meet" x="290" y="-352"/>
<text text-anchor="start" x="305" y="-343.2" font-family="Helvetica,sans-Serif" font-size="11.00">ad_client_id</text>
<polygon fill="#ffffff" stroke="transparent" points="285,-313 285,-335 477,-335 477,-313 285,-313"/>
<polygon fill="none" stroke="black" points="285,-313 285,-335 477,-335 477,-313 285,-313"/>
<text text-anchor="start" x="305" y="-321.2" font-family="Helvetica,sans-Serif" font-size="11.00">value</text>
<polygon fill="none" stroke="black" points="285,-291 285,-313 477,-313 477,-291 285,-291"/>
<image xlink:href="../../images/foreignKeys.png" width="11px" height="12px" preserveAspectRatio="xMinYMin meet" x="290" y="-308"/>
<text text-anchor="start" x="305" y="-299.2" font-family="Helvetica,sans-Serif" font-size="11.00">ad_replicationstrategy_id</text>
<polygon fill="#ffffff" stroke="transparent" points="285,-269 285,-291 477,-291 477,-269 285,-269"/>
<polygon fill="none" stroke="black" points="285,-269 285,-291 477,-291 477,-269 285,-269"/>
<text text-anchor="start" x="305" y="-277.2" font-family="Helvetica,sans-Serif" font-size="11.00">ad_org_uu</text>
<polygon fill="none" stroke="black" points="285,-247 285,-269 477,-269 477,-247 285,-247"/>
<image xlink:href="../../images/foreignKeys.png" width="11px" height="12px" preserveAspectRatio="xMinYMin meet" x="290" y="-264"/>
<text text-anchor="start" x="305" y="-255.2" font-family="Helvetica,sans-Serif" font-size="11.00">cof_c_snrange_id</text>
<polygon fill="none" stroke="black" points="285,-229 285,-247 477,-247 477,-229 285,-229"/>
<text text-anchor="start" x="288" y="-235.2" font-family="Helvetica,sans-Serif" font-size="11.00">...</text>
<polygon fill="#ffffff" stroke="transparent" points="285,-211 285,-229 355,-229 355,-211 285,-211"/>
<polygon fill="none" stroke="black" points="285,-211 285,-229 355,-229 355,-211 285,-211"/>
<text text-anchor="start" x="288" y="-217.2" font-family="Helvetica,sans-Serif" font-size="11.00">&lt; 3</text>
<polygon fill="#ffffff" stroke="transparent" points="355,-211 355,-229 418,-229 418,-211 355,-211"/>
<polygon fill="none" stroke="black" points="355,-211 355,-229 418,-229 418,-211 355,-211"/>
<text text-anchor="start" x="382" y="-217.2" font-family="Helvetica,sans-Serif" font-size="11.00">3 rows</text>
<polygon fill="#ffffff" stroke="transparent" points="418,-211 418,-229 477,-229 477,-211 418,-211"/>
<polygon fill="none" stroke="black" points="418,-211 418,-229 477,-229 477,-211 418,-211"/>
<text text-anchor="start" x="446" y="-217.2" font-family="Helvetica,sans-Serif" font-size="11.00">224 &gt;</text>
</a>
</g>
</g>
<!-- ad_client -->
<g id="node2" class="node">
<title>ad_client</title>
<g id="a_node2"><a xlink:href="../../tables/ad_client.html" xlink:title="ad_client" target="_top">
<polygon fill="#ffffff" stroke="transparent" points="8,-206 8,-418 236,-418 236,-206 8,-206"/>
<polygon fill="#f5f5f5" stroke="transparent" points="8,-396 8,-418 236,-418 236,-396 8,-396"/>
<polygon fill="none" stroke="black" points="8,-396 8,-418 236,-418 236,-396 8,-396"/>
<text text-anchor="start" x="13" y="-405.2" font-family="Helvetica,sans-Serif" font-weight="bold" font-size="11.00">ad_client</text>
<text text-anchor="start" x="201" y="-404.2" font-family="Helvetica,sans-Serif" font-size="11.00">[table]</text>
<polygon fill="none" stroke="black" points="8,-374 8,-396 236,-396 236,-374 8,-374"/>
<image xlink:href="../../images/primaryKeys.png" width="11px" height="12px" preserveAspectRatio="xMinYMin meet" x="13" y="-391"/>
<text text-anchor="start" x="28" y="-382.2" font-family="Helvetica,sans-Serif" font-size="11.00">ad_client_id</text>
<polygon fill="#ffffff" stroke="transparent" points="8,-352 8,-374 236,-374 236,-352 8,-352"/>
<polygon fill="none" stroke="black" points="8,-352 8,-374 236,-374 236,-352 8,-352"/>
<text text-anchor="start" x="28" y="-360.2" font-family="Helvetica,sans-Serif" font-size="11.00">value</text>
<polygon fill="none" stroke="black" points="8,-330 8,-352 236,-352 236,-330 8,-330"/>
<image xlink:href="../../images/foreignKeys.png" width="11px" height="12px" preserveAspectRatio="xMinYMin meet" x="13" y="-347"/>
<text text-anchor="start" x="28" y="-338.2" font-family="Helvetica,sans-Serif" font-size="11.00">ad_language</text>
<polygon fill="none" stroke="black" points="8,-308 8,-330 236,-330 236,-308 8,-308"/>
<image xlink:href="../../images/foreignKeys.png" width="11px" height="12px" preserveAspectRatio="xMinYMin meet" x="13" y="-325"/>
<text text-anchor="start" x="28" y="-316.2" font-family="Helvetica,sans-Serif" font-size="11.00">ad_replicationstrategy_id</text>
<polygon fill="#ffffff" stroke="transparent" points="8,-286 8,-308 236,-308 236,-286 8,-286"/>
<polygon fill="none" stroke="black" points="8,-286 8,-308 236,-308 236,-286 8,-286"/>
<text text-anchor="start" x="28" y="-294.2" font-family="Helvetica,sans-Serif" font-size="11.00">ad_client_uu</text>
<polygon fill="none" stroke="black" points="8,-264 8,-286 236,-286 236,-264 8,-264"/>
<image xlink:href="../../images/foreignKeys.png" width="11px" height="12px" preserveAspectRatio="xMinYMin meet" x="13" y="-281"/>
<text text-anchor="start" x="28" y="-272.2" font-family="Helvetica,sans-Serif" font-size="11.00">ad_passwordrule_id</text>
<polygon fill="#ffffff" stroke="transparent" points="8,-242 8,-264 236,-264 236,-242 8,-242"/>
<polygon fill="none" stroke="black" points="8,-242 8,-264 236,-264 236,-242 8,-242"/>
<text text-anchor="start" x="28" y="-250.2" font-family="Helvetica,sans-Serif" font-size="11.00">loginprefix</text>
<polygon fill="none" stroke="black" points="8,-224 8,-242 236,-242 236,-224 8,-224"/>
<text text-anchor="start" x="11" y="-230.2" font-family="Helvetica,sans-Serif" font-size="11.00">...</text>
<polygon fill="#ffffff" stroke="transparent" points="8,-206 8,-224 96,-224 96,-206 8,-206"/>
<polygon fill="none" stroke="black" points="8,-206 8,-224 96,-224 96,-206 8,-206"/>
<text text-anchor="start" x="11" y="-212.2" font-family="Helvetica,sans-Serif" font-size="11.00">&lt; 3</text>
<polygon fill="#ffffff" stroke="transparent" points="96,-206 96,-224 168,-224 168,-206 96,-206"/>
<polygon fill="none" stroke="black" points="96,-206 96,-224 168,-224 168,-206 96,-206"/>
<text text-anchor="start" x="132" y="-212.2" font-family="Helvetica,sans-Serif" font-size="11.00">2 rows</text>
<polygon fill="#ffffff" stroke="transparent" points="168,-206 168,-224 236,-224 236,-206 168,-206"/>
<polygon fill="none" stroke="black" points="168,-206 168,-224 236,-224 236,-206 168,-206"/>
<text text-anchor="start" x="205" y="-212.2" font-family="Helvetica,sans-Serif" font-size="11.00">145 &gt;</text>
</a>
</g>
</g>
<!-- ad_org&#45;&gt;ad_client -->
<g id="edge1" class="edge">
<title>ad_org:w&#45;&gt;ad_client:e</title>
<path fill="none" stroke="black" d="M270.41,-350.78C258.4,-361.2 258.21,-385 237,-385"/>
<polygon fill="black" stroke="black" points="276.45,-348.66 285.19,-349.4 280.23,-347.33 284,-346 284,-346 284,-346 280.23,-347.33 282.81,-342.6 276.45,-348.66 276.45,-348.66"/>
<ellipse fill="none" stroke="black" cx="273.43" cy="-349.72" rx="3.2" ry="3.2"/>
</g>
<!-- c_calendar -->
<g id="node3" class="node">
<title>c_calendar</title>
<g id="a_node3"><a xlink:href="../../tables/c_calendar.html" xlink:title="c_calendar" target="_top">
<polygon fill="#ffffff" stroke="transparent" points="568.5,-270 568.5,-438 683.5,-438 683.5,-270 568.5,-270"/>
<polygon fill="#f5f5f5" stroke="transparent" points="569,-416 569,-438 684,-438 684,-416 569,-416"/>
<polygon fill="none" stroke="black" points="569,-416 569,-438 684,-438 684,-416 569,-416"/>
<text text-anchor="start" x="574" y="-425.2" font-family="Helvetica,sans-Serif" font-weight="bold" font-size="11.00">c_calendar</text>
<text text-anchor="start" x="649" y="-424.2" font-family="Helvetica,sans-Serif" font-size="11.00">[table]</text>
<polygon fill="none" stroke="black" points="569,-394 569,-416 684,-416 684,-394 569,-394"/>
<image xlink:href="../../images/primaryKeys.png" width="11px" height="12px" preserveAspectRatio="xMinYMin meet" x="574" y="-411"/>
<text text-anchor="start" x="589" y="-402.2" font-family="Helvetica,sans-Serif" font-size="11.00">c_calendar_id</text>
<polygon fill="#ffffff" stroke="transparent" points="569,-372 569,-394 684,-394 684,-372 569,-372"/>
<polygon fill="none" stroke="black" points="569,-372 569,-394 684,-394 684,-372 569,-372"/>
<image xlink:href="../../images/foreignKeys.png" width="11px" height="12px" preserveAspectRatio="xMinYMin meet" x="574" y="-389"/>
<text text-anchor="start" x="589" y="-380.2" font-family="Helvetica,sans-Serif" font-size="11.00">ad_client_id</text>
<polygon fill="none" stroke="black" points="569,-350 569,-372 684,-372 684,-350 569,-350"/>
<image xlink:href="../../images/foreignKeys.png" width="11px" height="12px" preserveAspectRatio="xMinYMin meet" x="574" y="-367"/>
<text text-anchor="start" x="589" y="-358.2" font-family="Helvetica,sans-Serif" font-size="11.00">ad_org_id</text>
<polygon fill="#ffffff" stroke="transparent" points="569,-328 569,-350 684,-350 684,-328 569,-328"/>
<polygon fill="none" stroke="black" points="569,-328 569,-350 684,-350 684,-328 569,-328"/>
<text text-anchor="start" x="589" y="-336.2" font-family="Helvetica,sans-Serif" font-size="11.00">name</text>
<polygon fill="#ffffff" stroke="transparent" points="569,-306 569,-328 684,-328 684,-306 569,-306"/>
<polygon fill="none" stroke="black" points="569,-306 569,-328 684,-328 684,-306 569,-306"/>
<text text-anchor="start" x="589" y="-314.2" font-family="Helvetica,sans-Serif" font-size="11.00">c_calendar_uu</text>
<polygon fill="none" stroke="black" points="569,-288 569,-306 684,-306 684,-288 569,-288"/>
<text text-anchor="start" x="572" y="-294.2" font-family="Helvetica,sans-Serif" font-size="11.00">...</text>
<polygon fill="#ffffff" stroke="transparent" points="569,-270 569,-288 609,-288 609,-270 569,-270"/>
<polygon fill="none" stroke="black" points="569,-270 569,-288 609,-288 609,-270 569,-270"/>
<text text-anchor="start" x="572" y="-276.2" font-family="Helvetica,sans-Serif" font-size="11.00">&lt; 2</text>
<polygon fill="#ffffff" stroke="transparent" points="609,-270 609,-288 652,-288 652,-270 609,-270"/>
<polygon fill="none" stroke="black" points="609,-270 609,-288 652,-288 652,-270 609,-270"/>
<text text-anchor="start" x="621" y="-276.2" font-family="Helvetica,sans-Serif" font-size="11.00">1 row</text>
<polygon fill="#ffffff" stroke="transparent" points="652,-270 652,-288 684,-288 684,-270 652,-270"/>
<polygon fill="none" stroke="black" points="652,-270 652,-288 684,-288 684,-270 652,-270"/>
<text text-anchor="start" x="665" y="-276.2" font-family="Helvetica,sans-Serif" font-size="11.00">8 &gt;</text>
</a>
</g>
</g>
<!-- c_calendar&#45;&gt;ad_org -->
<g id="edge3" class="edge">
<title>c_calendar:w&#45;&gt;ad_org:e</title>
<path fill="none" stroke="black" d="M553.48,-361.34C524.75,-362.74 512.79,-368 478,-368"/>
<polygon fill="black" stroke="black" points="560,-361.19 568.08,-364.6 564,-361.09 568,-361 568,-361 568,-361 564,-361.09 567.92,-357.4 560,-361.19 560,-361.19"/>
<ellipse fill="none" stroke="black" cx="556.8" cy="-361.26" rx="3.2" ry="3.2"/>
</g>
<!-- c_calendar&#45;&gt;ad_client -->
<g id="edge2" class="edge">
<title>c_calendar:w&#45;&gt;ad_client:e</title>
<path fill="none" stroke="black" d="M553.33,-384.23C526.75,-389 518.11,-406.38 485,-412 393.86,-427.46 365.4,-439.04 277,-412 256.49,-405.73 258.45,-385 237,-385"/>
<polygon fill="black" stroke="black" points="560.03,-383.67 568.3,-386.59 564.01,-383.33 568,-383 568,-383 568,-383 564.01,-383.33 567.7,-379.41 560.03,-383.67 560.03,-383.67"/>
<ellipse fill="none" stroke="black" cx="556.84" cy="-383.93" rx="3.2" ry="3.2"/>
</g>
<!-- c_country -->
<g id="node4" class="node">
<title>c_country</title>
<g id="a_node4"><a xlink:href="../../tables/c_country.html" xlink:title="c_country" target="_top">
<polygon fill="#ffffff" stroke="transparent" points="526,-37 526,-249 726,-249 726,-37 526,-37"/>
<polygon fill="#f5f5f5" stroke="transparent" points="526,-227 526,-249 726,-249 726,-227 526,-227"/>
<polygon fill="none" stroke="black" points="526,-227 526,-249 726,-249 726,-227 526,-227"/>
<text text-anchor="start" x="531" y="-236.2" font-family="Helvetica,sans-Serif" font-weight="bold" font-size="11.00">c_country</text>
<text text-anchor="start" x="691" y="-235.2" font-family="Helvetica,sans-Serif" font-size="11.00">[table]</text>
<polygon fill="none" stroke="black" points="526,-205 526,-227 726,-227 726,-205 526,-205"/>
<image xlink:href="../../images/primaryKeys.png" width="11px" height="12px" preserveAspectRatio="xMinYMin meet" x="531" y="-222"/>
<text text-anchor="start" x="546" y="-213.2" font-family="Helvetica,sans-Serif" font-size="11.00">c_country_id</text>
<polygon fill="none" stroke="black" points="526,-183 526,-205 726,-205 726,-183 526,-183"/>
<image xlink:href="../../images/foreignKeys.png" width="11px" height="12px" preserveAspectRatio="xMinYMin meet" x="531" y="-200"/>
<text text-anchor="start" x="546" y="-191.2" font-family="Helvetica,sans-Serif" font-size="11.00">ad_client_id</text>
<polygon fill="none" stroke="black" points="526,-161 526,-183 726,-183 726,-161 526,-161"/>
<image xlink:href="../../images/foreignKeys.png" width="11px" height="12px" preserveAspectRatio="xMinYMin meet" x="531" y="-178"/>
<text text-anchor="start" x="546" y="-169.2" font-family="Helvetica,sans-Serif" font-size="11.00">ad_org_id</text>
<polygon fill="#ffffff" stroke="transparent" points="526,-139 526,-161 726,-161 726,-139 526,-139"/>
<polygon fill="none" stroke="black" points="526,-139 526,-161 726,-161 726,-139 526,-139"/>
<text text-anchor="start" x="546" y="-147.2" font-family="Helvetica,sans-Serif" font-size="11.00">countrycode</text>
<polygon fill="none" stroke="black" points="526,-117 526,-139 726,-139 726,-117 526,-117"/>
<image xlink:href="../../images/foreignKeys.png" width="11px" height="12px" preserveAspectRatio="xMinYMin meet" x="531" y="-134"/>
<text text-anchor="start" x="546" y="-125.2" font-family="Helvetica,sans-Serif" font-size="11.00">ad_language</text>
<polygon fill="none" stroke="black" points="526,-95 526,-117 726,-117 726,-95 526,-95"/>
<image xlink:href="../../images/foreignKeys.png" width="11px" height="12px" preserveAspectRatio="xMinYMin meet" x="531" y="-112"/>
<text text-anchor="start" x="546" y="-103.2" font-family="Helvetica,sans-Serif" font-size="11.00">c_currency_id</text>
<polygon fill="#ffffff" stroke="transparent" points="526,-73 526,-95 726,-95 726,-73 526,-73"/>
<polygon fill="none" stroke="black" points="526,-73 526,-95 726,-95 726,-73 526,-73"/>
<text text-anchor="start" x="546" y="-81.2" font-family="Helvetica,sans-Serif" font-size="11.00">c_country_uu</text>
<polygon fill="none" stroke="black" points="526,-55 526,-73 726,-73 726,-55 526,-55"/>
<text text-anchor="start" x="529" y="-61.2" font-family="Helvetica,sans-Serif" font-size="11.00">...</text>
<polygon fill="#ffffff" stroke="transparent" points="526,-37 526,-55 597,-55 597,-37 526,-37"/>
<polygon fill="none" stroke="black" points="526,-37 526,-55 597,-55 597,-37 526,-37"/>
<text text-anchor="start" x="529" y="-43.2" font-family="Helvetica,sans-Serif" font-size="11.00">&lt; 5</text>
<polygon fill="#ffffff" stroke="transparent" points="597,-37 597,-55 673,-55 673,-37 597,-37"/>
<polygon fill="none" stroke="black" points="597,-37 597,-55 673,-55 673,-37 597,-37"/>
<text text-anchor="start" x="625" y="-43.2" font-family="Helvetica,sans-Serif" font-size="11.00">251 rows</text>
<polygon fill="#ffffff" stroke="transparent" points="673,-37 673,-55 726,-55 726,-37 673,-37"/>
<polygon fill="none" stroke="black" points="673,-37 673,-55 726,-55 726,-37 673,-37"/>
<text text-anchor="start" x="701" y="-43.2" font-family="Helvetica,sans-Serif" font-size="11.00">18 &gt;</text>
</a>
</g>
</g>
<!-- c_country&#45;&gt;ad_org -->
<g id="edge5" class="edge">
<title>c_country:w&#45;&gt;ad_org:e</title>
<path fill="none" stroke="black" d="M510.69,-174.2C451.07,-195.73 561.98,-368 478,-368"/>
<polygon fill="black" stroke="black" points="517.09,-173.22 525.55,-175.56 521.05,-172.61 525,-172 525,-172 525,-172 521.05,-172.61 524.45,-168.44 517.09,-173.22 517.09,-173.22"/>
<ellipse fill="none" stroke="black" cx="513.93" cy="-173.7" rx="3.2" ry="3.2"/>
</g>
<!-- c_country&#45;&gt;ad_client -->
<g id="edge4" class="edge">
<title>c_country:w&#45;&gt;ad_client:e</title>
<path fill="none" stroke="black" d="M510.48,-193.63C409.92,-188.57 358.06,-133.76 277,-201 212.59,-254.43 320.69,-385 237,-385"/>
<polygon fill="black" stroke="black" points="517,-193.8 524.91,-197.6 521,-193.9 525,-194 525,-194 525,-194 521,-193.9 525.09,-190.4 517,-193.8 517,-193.8"/>
<ellipse fill="none" stroke="black" cx="513.8" cy="-193.72" rx="3.2" ry="3.2"/>
</g>
<!-- c_nonbusinessday -->
<g id="node5" class="node">
<title>c_nonbusinessday</title>
<g id="a_node5"><a xlink:href="../../tables/c_nonbusinessday.html" xlink:title="c_nonbusinessday" target="_top">
<polygon fill="#ffffff" stroke="transparent" points="775,-213 775,-543 1028,-543 1028,-213 775,-213"/>
<polygon fill="#f5f5f5" stroke="transparent" points="777.5,-519 777.5,-541 1026.5,-541 1026.5,-519 777.5,-519"/>
<polygon fill="none" stroke="black" points="777.5,-519 777.5,-541 1026.5,-541 1026.5,-519 777.5,-519"/>
<text text-anchor="start" x="782.5" y="-528.2" font-family="Helvetica,sans-Serif" font-weight="bold" font-size="11.00">c_nonbusinessday</text>
<text text-anchor="start" x="991.5" y="-527.2" font-family="Helvetica,sans-Serif" font-size="11.00">[table]</text>
<polygon fill="none" stroke="black" points="777.5,-497 777.5,-519 943.5,-519 943.5,-497 777.5,-497"/>
<image xlink:href="../../images/primaryKeys.png" width="11px" height="12px" preserveAspectRatio="xMinYMin meet" x="782.5" y="-514"/>
<text text-anchor="start" x="797.5" y="-505.2" font-family="Helvetica,sans-Serif" font-size="11.00">c_nonbusinessday_id</text>
<polygon fill="none" stroke="black" points="943.5,-497 943.5,-519 1026.5,-519 1026.5,-497 943.5,-497"/>
<text text-anchor="start" x="946.5" y="-505.2" font-family="Helvetica,sans-Serif" font-size="11.00">numeric[10]</text>
<polygon fill="none" stroke="black" points="777.5,-475 777.5,-497 943.5,-497 943.5,-475 777.5,-475"/>
<image xlink:href="../../images/foreignKeys.png" width="11px" height="12px" preserveAspectRatio="xMinYMin meet" x="782.5" y="-492"/>
<text text-anchor="start" x="797.5" y="-483.2" font-family="Helvetica,sans-Serif" font-size="11.00">ad_client_id</text>
<polygon fill="none" stroke="black" points="943.5,-475 943.5,-497 1026.5,-497 1026.5,-475 943.5,-475"/>
<text text-anchor="start" x="946.5" y="-483.2" font-family="Helvetica,sans-Serif" font-size="11.00">numeric[10]</text>
<polygon fill="none" stroke="black" points="777.5,-453 777.5,-475 943.5,-475 943.5,-453 777.5,-453"/>
<image xlink:href="../../images/foreignKeys.png" width="11px" height="12px" preserveAspectRatio="xMinYMin meet" x="782.5" y="-470"/>
<text text-anchor="start" x="797.5" y="-461.2" font-family="Helvetica,sans-Serif" font-size="11.00">ad_org_id</text>
<polygon fill="none" stroke="black" points="943.5,-453 943.5,-475 1026.5,-475 1026.5,-453 943.5,-453"/>
<text text-anchor="start" x="946.5" y="-461.2" font-family="Helvetica,sans-Serif" font-size="11.00">numeric[10]</text>
<polygon fill="none" stroke="black" points="777.5,-431 777.5,-453 943.5,-453 943.5,-431 777.5,-431"/>
<text text-anchor="start" x="797.5" y="-439.2" font-family="Helvetica,sans-Serif" font-size="11.00">isactive</text>
<polygon fill="none" stroke="black" points="943.5,-431 943.5,-453 1026.5,-453 1026.5,-431 943.5,-431"/>
<text text-anchor="start" x="946.5" y="-439.2" font-family="Helvetica,sans-Serif" font-size="11.00">bpchar[1]</text>
<polygon fill="none" stroke="black" points="777.5,-409 777.5,-431 943.5,-431 943.5,-409 777.5,-409"/>
<text text-anchor="start" x="797.5" y="-417.2" font-family="Helvetica,sans-Serif" font-size="11.00">created</text>
<polygon fill="none" stroke="black" points="943.5,-409 943.5,-431 1026.5,-431 1026.5,-409 943.5,-409"/>
<text text-anchor="start" x="946.5" y="-417.2" font-family="Helvetica,sans-Serif" font-size="11.00">timestamp[29,6]</text>
<polygon fill="none" stroke="black" points="777.5,-387 777.5,-409 943.5,-409 943.5,-387 777.5,-387"/>
<text text-anchor="start" x="797.5" y="-395.2" font-family="Helvetica,sans-Serif" font-size="11.00">createdby</text>
<polygon fill="none" stroke="black" points="943.5,-387 943.5,-409 1026.5,-409 1026.5,-387 943.5,-387"/>
<text text-anchor="start" x="946.5" y="-395.2" font-family="Helvetica,sans-Serif" font-size="11.00">numeric[10]</text>
<polygon fill="none" stroke="black" points="777.5,-365 777.5,-387 943.5,-387 943.5,-365 777.5,-365"/>
<text text-anchor="start" x="797.5" y="-373.2" font-family="Helvetica,sans-Serif" font-size="11.00">updated</text>
<polygon fill="none" stroke="black" points="943.5,-365 943.5,-387 1026.5,-387 1026.5,-365 943.5,-365"/>
<text text-anchor="start" x="946.5" y="-373.2" font-family="Helvetica,sans-Serif" font-size="11.00">timestamp[29,6]</text>
<polygon fill="none" stroke="black" points="777.5,-343 777.5,-365 943.5,-365 943.5,-343 777.5,-343"/>
<text text-anchor="start" x="797.5" y="-351.2" font-family="Helvetica,sans-Serif" font-size="11.00">updatedby</text>
<polygon fill="none" stroke="black" points="943.5,-343 943.5,-365 1026.5,-365 1026.5,-343 943.5,-343"/>
<text text-anchor="start" x="946.5" y="-351.2" font-family="Helvetica,sans-Serif" font-size="11.00">numeric[10]</text>
<polygon fill="none" stroke="black" points="777.5,-321 777.5,-343 943.5,-343 943.5,-321 777.5,-321"/>
<text text-anchor="start" x="797.5" y="-329.2" font-family="Helvetica,sans-Serif" font-size="11.00">name</text>
<polygon fill="none" stroke="black" points="943.5,-321 943.5,-343 1026.5,-343 1026.5,-321 943.5,-321"/>
<text text-anchor="start" x="946.5" y="-329.2" font-family="Helvetica,sans-Serif" font-size="11.00">varchar[60]</text>
<polygon fill="none" stroke="black" points="777.5,-299 777.5,-321 943.5,-321 943.5,-299 777.5,-299"/>
<text text-anchor="start" x="797.5" y="-307.2" font-family="Helvetica,sans-Serif" font-size="11.00">date1</text>
<polygon fill="none" stroke="black" points="943.5,-299 943.5,-321 1026.5,-321 1026.5,-299 943.5,-299"/>
<text text-anchor="start" x="946.5" y="-307.2" font-family="Helvetica,sans-Serif" font-size="11.00">timestamp[29,6]</text>
<polygon fill="none" stroke="black" points="777.5,-277 777.5,-299 943.5,-299 943.5,-277 777.5,-277"/>
<image xlink:href="../../images/foreignKeys.png" width="11px" height="12px" preserveAspectRatio="xMinYMin meet" x="782.5" y="-294"/>
<text text-anchor="start" x="797.5" y="-285.2" font-family="Helvetica,sans-Serif" font-size="11.00">c_calendar_id</text>
<polygon fill="none" stroke="black" points="943.5,-277 943.5,-299 1026.5,-299 1026.5,-277 943.5,-277"/>
<text text-anchor="start" x="946.5" y="-285.2" font-family="Helvetica,sans-Serif" font-size="11.00">numeric[10]</text>
<polygon fill="#ffffff" stroke="transparent" points="777.5,-255 777.5,-277 943.5,-277 943.5,-255 777.5,-255"/>
<polygon fill="none" stroke="black" points="777.5,-255 777.5,-277 943.5,-277 943.5,-255 777.5,-255"/>
<text text-anchor="start" x="797.5" y="-263.2" font-family="Helvetica,sans-Serif" font-size="11.00">c_nonbusinessday_uu</text>
<polygon fill="none" stroke="black" points="943.5,-255 943.5,-277 1026.5,-277 1026.5,-255 943.5,-255"/>
<text text-anchor="start" x="946.5" y="-263.2" font-family="Helvetica,sans-Serif" font-size="11.00">varchar[36]</text>
<polygon fill="none" stroke="black" points="777.5,-233 777.5,-255 943.5,-255 943.5,-233 777.5,-233"/>
<image xlink:href="../../images/foreignKeys.png" width="11px" height="12px" preserveAspectRatio="xMinYMin meet" x="782.5" y="-250"/>
<text text-anchor="start" x="797.5" y="-241.2" font-family="Helvetica,sans-Serif" font-size="11.00">c_country_id</text>
<polygon fill="none" stroke="black" points="943.5,-233 943.5,-255 1026.5,-255 1026.5,-233 943.5,-233"/>
<text text-anchor="start" x="946.5" y="-241.2" font-family="Helvetica,sans-Serif" font-size="11.00">numeric[10]</text>
<polygon fill="#ffffff" stroke="transparent" points="777.5,-215 777.5,-233 851.5,-233 851.5,-215 777.5,-215"/>
<polygon fill="none" stroke="black" points="777.5,-215 777.5,-233 851.5,-233 851.5,-215 777.5,-215"/>
<text text-anchor="start" x="780.5" y="-221.2" font-family="Helvetica,sans-Serif" font-size="11.00">&lt; 4</text>
<polygon fill="#ffffff" stroke="transparent" points="851.5,-215 851.5,-233 943.5,-233 943.5,-215 851.5,-215"/>
<polygon fill="none" stroke="black" points="851.5,-215 851.5,-233 943.5,-233 943.5,-215 851.5,-215"/>
<text text-anchor="start" x="907.5" y="-221.2" font-family="Helvetica,sans-Serif" font-size="11.00">0 rows</text>
<polygon fill="#ffffff" stroke="transparent" points="943.5,-215 943.5,-233 1026.5,-233 1026.5,-215 943.5,-215"/>
<polygon fill="none" stroke="black" points="943.5,-215 943.5,-233 1026.5,-233 1026.5,-215 943.5,-215"/>
<text text-anchor="start" x="1007.5" y="-221.2" font-family="Helvetica,sans-Serif" font-size="11.00">0 &gt;</text>
<polygon fill="none" stroke="black" stroke-width="2" points="776,-214 776,-542 1027,-542 1027,-214 776,-214"/>
</a>
</g>
</g>
<!-- c_nonbusinessday&#45;&gt;ad_org -->
<g id="edge7" class="edge">
<title>c_nonbusinessday:w&#45;&gt;ad_org:e</title>
<path fill="none" stroke="black" d="M761.78,-464.26C696.26,-466.27 562.32,-478.36 518,-449 484.53,-426.83 518.15,-368 478,-368"/>
<polygon fill="black" stroke="black" points="768.5,-464.14 776.56,-467.6 772.5,-464.07 776.5,-464 776.5,-464 776.5,-464 772.5,-464.07 776.44,-460.4 768.5,-464.14 768.5,-464.14"/>
<ellipse fill="none" stroke="black" cx="765.3" cy="-464.2" rx="3.2" ry="3.2"/>
</g>
<!-- c_nonbusinessday&#45;&gt;ad_client -->
<g id="edge6" class="edge">
<title>c_nonbusinessday:w&#45;&gt;ad_client:e</title>
<path fill="none" stroke="black" d="M761.98,-486.07C549.53,-488.17 468.71,-534.8 277,-430 253.52,-417.16 263.76,-385 237,-385"/>
<polygon fill="black" stroke="black" points="768.5,-486.04 776.52,-489.6 772.5,-486.02 776.5,-486 776.5,-486 776.5,-486 772.5,-486.02 776.48,-482.4 768.5,-486.04 768.5,-486.04"/>
<ellipse fill="none" stroke="black" cx="765.3" cy="-486.06" rx="3.2" ry="3.2"/>
</g>
<!-- c_nonbusinessday&#45;&gt;c_calendar -->
<g id="edge8" class="edge">
<title>c_nonbusinessday:w&#45;&gt;c_calendar:e</title>
<path fill="none" stroke="black" d="M762,-290.34C716.54,-306.83 745.47,-405 685,-405"/>
<polygon fill="black" stroke="black" points="768.6,-289.27 777.07,-291.55 772.55,-288.64 776.5,-288 776.5,-288 776.5,-288 772.55,-288.64 775.93,-284.45 768.6,-289.27 768.6,-289.27"/>
<ellipse fill="none" stroke="black" cx="765.44" cy="-289.78" rx="3.2" ry="3.2"/>
</g>
<!-- c_nonbusinessday&#45;&gt;c_country -->
<g id="edge9" class="edge">
<title>c_nonbusinessday:w&#45;&gt;c_country:e</title>
<path fill="none" stroke="black" d="M762.39,-240.11C750.27,-232.41 746.35,-216 727,-216"/>
<polygon fill="black" stroke="black" points="768.79,-241.87 775.54,-247.47 772.64,-242.94 776.5,-244 776.5,-244 776.5,-244 772.64,-242.94 777.46,-240.53 768.79,-241.87 768.79,-241.87"/>
<ellipse fill="none" stroke="black" cx="765.7" cy="-241.02" rx="3.2" ry="3.2"/>
</g>
</g>
</svg>
