<?xml version="1.0" encoding="UTF-8" standalone="no"?>
<!DOCTYPE svg PUBLIC "-//W3C//DTD SVG 1.1//EN"
 "http://www.w3.org/Graphics/SVG/1.1/DTD/svg11.dtd">
<!-- Generated by graphviz version 2.43.0 (0)
 -->
<!-- Title: oneDegreeRelationshipsDiagram Pages: 1 -->
<svg width="782pt" height="728pt"
 viewBox="0.00 0.00 782.00 728.00" xmlns="http://www.w3.org/2000/svg" xmlns:xlink="http://www.w3.org/1999/xlink">
<g id="graph0" class="graph" transform="scale(1 1) rotate(0) translate(4 724)">
<title>oneDegreeRelationshipsDiagram</title>
<polygon fill="#ffffff" stroke="transparent" points="-4,4 -4,-724 778,-724 778,4 -4,4"/>
<text text-anchor="middle" x="71.5" y="-7.2" font-family="Helvetica,sans-Serif" font-size="11.00">Generated by SchemaSpy</text>
<!-- ad_user -->
<g id="node1" class="node">
<title>ad_user</title>
<g id="a_node1"><a xlink:href="../../tables/ad_user.html" xlink:title="ad_user" target="_top">
<polygon fill="#ffffff" stroke="transparent" points="249,-37 249,-557 472,-557 472,-37 249,-37"/>
<polygon fill="#f5f5f5" stroke="transparent" points="249.5,-535 249.5,-557 472.5,-557 472.5,-535 249.5,-535"/>
<polygon fill="none" stroke="black" points="249.5,-535 249.5,-557 472.5,-557 472.5,-535 249.5,-535"/>
<text text-anchor="start" x="254.5" y="-544.2" font-family="Helvetica,sans-Serif" font-weight="bold" font-size="11.00">ad_user</text>
<text text-anchor="start" x="437.5" y="-543.2" font-family="Helvetica,sans-Serif" font-size="11.00">[table]</text>
<polygon fill="none" stroke="black" points="249.5,-513 249.5,-535 472.5,-535 472.5,-513 249.5,-513"/>
<image xlink:href="../../images/primaryKeys.png" width="11px" height="12px" preserveAspectRatio="xMinYMin meet" x="254.5" y="-530"/>
<text text-anchor="start" x="269.5" y="-521.2" font-family="Helvetica,sans-Serif" font-size="11.00">ad_user_id</text>
<polygon fill="none" stroke="black" points="249.5,-491 249.5,-513 472.5,-513 472.5,-491 249.5,-491"/>
<image xlink:href="../../images/foreignKeys.png" width="11px" height="12px" preserveAspectRatio="xMinYMin meet" x="254.5" y="-508"/>
<text text-anchor="start" x="269.5" y="-499.2" font-family="Helvetica,sans-Serif" font-size="11.00">ad_client_id</text>
<polygon fill="none" stroke="black" points="249.5,-469 249.5,-491 472.5,-491 472.5,-469 249.5,-469"/>
<image xlink:href="../../images/foreignKeys.png" width="11px" height="12px" preserveAspectRatio="xMinYMin meet" x="254.5" y="-486"/>
<text text-anchor="start" x="269.5" y="-477.2" font-family="Helvetica,sans-Serif" font-size="11.00">ad_org_id</text>
<polygon fill="#ffffff" stroke="transparent" points="249.5,-447 249.5,-469 472.5,-469 472.5,-447 249.5,-447"/>
<polygon fill="none" stroke="black" points="249.5,-447 249.5,-469 472.5,-469 472.5,-447 249.5,-447"/>
<text text-anchor="start" x="269.5" y="-455.2" font-family="Helvetica,sans-Serif" font-size="11.00">name</text>
<polygon fill="#ffffff" stroke="transparent" points="249.5,-425 249.5,-447 472.5,-447 472.5,-425 249.5,-425"/>
<polygon fill="none" stroke="black" points="249.5,-425 249.5,-447 472.5,-447 472.5,-425 249.5,-425"/>
<text text-anchor="start" x="269.5" y="-433.2" font-family="Helvetica,sans-Serif" font-size="11.00">email</text>
<polygon fill="none" stroke="black" points="249.5,-403 249.5,-425 472.5,-425 472.5,-403 249.5,-403"/>
<image xlink:href="../../images/foreignKeys.png" width="11px" height="12px" preserveAspectRatio="xMinYMin meet" x="254.5" y="-420"/>
<text text-anchor="start" x="269.5" y="-411.2" font-family="Helvetica,sans-Serif" font-size="11.00">supervisor_id</text>
<polygon fill="#ffffff" stroke="transparent" points="249.5,-381 249.5,-403 472.5,-403 472.5,-381 249.5,-381"/>
<polygon fill="none" stroke="black" points="249.5,-381 249.5,-403 472.5,-403 472.5,-381 249.5,-381"/>
<image xlink:href="../../images/foreignKeys.png" width="11px" height="12px" preserveAspectRatio="xMinYMin meet" x="254.5" y="-398"/>
<text text-anchor="start" x="269.5" y="-389.2" font-family="Helvetica,sans-Serif" font-size="11.00">c_bpartner_id</text>
<polygon fill="none" stroke="black" points="249.5,-359 249.5,-381 472.5,-381 472.5,-359 249.5,-359"/>
<image xlink:href="../../images/foreignKeys.png" width="11px" height="12px" preserveAspectRatio="xMinYMin meet" x="254.5" y="-376"/>
<text text-anchor="start" x="269.5" y="-367.2" font-family="Helvetica,sans-Serif" font-size="11.00">c_bpartner_location_id</text>
<polygon fill="none" stroke="black" points="249.5,-337 249.5,-359 472.5,-359 472.5,-337 249.5,-337"/>
<image xlink:href="../../images/foreignKeys.png" width="11px" height="12px" preserveAspectRatio="xMinYMin meet" x="254.5" y="-354"/>
<text text-anchor="start" x="269.5" y="-345.2" font-family="Helvetica,sans-Serif" font-size="11.00">c_greeting_id</text>
<polygon fill="none" stroke="black" points="249.5,-315 249.5,-337 472.5,-337 472.5,-315 249.5,-315"/>
<image xlink:href="../../images/foreignKeys.png" width="11px" height="12px" preserveAspectRatio="xMinYMin meet" x="254.5" y="-332"/>
<text text-anchor="start" x="269.5" y="-323.2" font-family="Helvetica,sans-Serif" font-size="11.00">ad_orgtrx_id</text>
<polygon fill="none" stroke="black" points="249.5,-293 249.5,-315 472.5,-315 472.5,-293 249.5,-293"/>
<image xlink:href="../../images/foreignKeys.png" width="11px" height="12px" preserveAspectRatio="xMinYMin meet" x="254.5" y="-310"/>
<text text-anchor="start" x="269.5" y="-301.2" font-family="Helvetica,sans-Serif" font-size="11.00">c_job_id</text>
<polygon fill="#ffffff" stroke="transparent" points="249.5,-271 249.5,-293 472.5,-293 472.5,-271 249.5,-271"/>
<polygon fill="none" stroke="black" points="249.5,-271 249.5,-293 472.5,-293 472.5,-271 249.5,-271"/>
<text text-anchor="start" x="269.5" y="-279.2" font-family="Helvetica,sans-Serif" font-size="11.00">ad_user_uu</text>
<polygon fill="none" stroke="black" points="249.5,-249 249.5,-271 472.5,-271 472.5,-249 249.5,-249"/>
<image xlink:href="../../images/foreignKeys.png" width="11px" height="12px" preserveAspectRatio="xMinYMin meet" x="254.5" y="-266"/>
<text text-anchor="start" x="269.5" y="-257.2" font-family="Helvetica,sans-Serif" font-size="11.00">c_location_id</text>
<polygon fill="none" stroke="black" points="249.5,-227 249.5,-249 472.5,-249 472.5,-227 249.5,-227"/>
<image xlink:href="../../images/foreignKeys.png" width="11px" height="12px" preserveAspectRatio="xMinYMin meet" x="254.5" y="-244"/>
<text text-anchor="start" x="269.5" y="-235.2" font-family="Helvetica,sans-Serif" font-size="11.00">c_campaign_id</text>
<polygon fill="none" stroke="black" points="249.5,-205 249.5,-227 472.5,-227 472.5,-205 249.5,-205"/>
<image xlink:href="../../images/foreignKeys.png" width="11px" height="12px" preserveAspectRatio="xMinYMin meet" x="254.5" y="-222"/>
<text text-anchor="start" x="269.5" y="-213.2" font-family="Helvetica,sans-Serif" font-size="11.00">salesrep_id</text>
<polygon fill="none" stroke="black" points="249.5,-183 249.5,-205 472.5,-205 472.5,-183 249.5,-183"/>
<image xlink:href="../../images/foreignKeys.png" width="11px" height="12px" preserveAspectRatio="xMinYMin meet" x="254.5" y="-200"/>
<text text-anchor="start" x="269.5" y="-191.2" font-family="Helvetica,sans-Serif" font-size="11.00">bp_location_id</text>
<polygon fill="none" stroke="black" points="249.5,-161 249.5,-183 472.5,-183 472.5,-161 249.5,-161"/>
<image xlink:href="../../images/foreignKeys.png" width="11px" height="12px" preserveAspectRatio="xMinYMin meet" x="254.5" y="-178"/>
<text text-anchor="start" x="269.5" y="-169.2" font-family="Helvetica,sans-Serif" font-size="11.00">r_defaultmailtext_id</text>
<polygon fill="none" stroke="black" points="249.5,-139 249.5,-161 472.5,-161 472.5,-139 249.5,-139"/>
<image xlink:href="../../images/foreignKeys.png" width="11px" height="12px" preserveAspectRatio="xMinYMin meet" x="254.5" y="-156"/>
<text text-anchor="start" x="269.5" y="-147.2" font-family="Helvetica,sans-Serif" font-size="11.00">cof_c_marketsegment_id</text>
<polygon fill="none" stroke="black" points="249.5,-117 249.5,-139 472.5,-139 472.5,-117 249.5,-117"/>
<image xlink:href="../../images/foreignKeys.png" width="11px" height="12px" preserveAspectRatio="xMinYMin meet" x="254.5" y="-134"/>
<text text-anchor="start" x="269.5" y="-125.2" font-family="Helvetica,sans-Serif" font-size="11.00">cof_c_leadexpirationreason_id</text>
<polygon fill="none" stroke="black" points="249.5,-95 249.5,-117 472.5,-117 472.5,-95 249.5,-95"/>
<image xlink:href="../../images/foreignKeys.png" width="11px" height="12px" preserveAspectRatio="xMinYMin meet" x="254.5" y="-112"/>
<text text-anchor="start" x="269.5" y="-103.2" font-family="Helvetica,sans-Serif" font-size="11.00">ad_image_id</text>
<polygon fill="none" stroke="black" points="249.5,-73 249.5,-95 472.5,-95 472.5,-73 249.5,-73"/>
<image xlink:href="../../images/foreignKeys.png" width="11px" height="12px" preserveAspectRatio="xMinYMin meet" x="254.5" y="-90"/>
<text text-anchor="start" x="269.5" y="-81.2" font-family="Helvetica,sans-Serif" font-size="11.00">c_subscription_id</text>
<polygon fill="none" stroke="black" points="249.5,-55 249.5,-73 472.5,-73 472.5,-55 249.5,-55"/>
<text text-anchor="start" x="252.5" y="-61.2" font-family="Helvetica,sans-Serif" font-size="11.00">...</text>
<polygon fill="#ffffff" stroke="transparent" points="249.5,-37 249.5,-55 338.5,-55 338.5,-37 249.5,-37"/>
<polygon fill="none" stroke="black" points="249.5,-37 249.5,-55 338.5,-55 338.5,-37 249.5,-37"/>
<text text-anchor="start" x="252.5" y="-43.2" font-family="Helvetica,sans-Serif" font-size="11.00">&lt; 17</text>
<polygon fill="#ffffff" stroke="transparent" points="338.5,-37 338.5,-55 407.5,-55 407.5,-37 338.5,-37"/>
<polygon fill="none" stroke="black" points="338.5,-37 338.5,-55 407.5,-55 407.5,-37 338.5,-37"/>
<text text-anchor="start" x="371.5" y="-43.2" font-family="Helvetica,sans-Serif" font-size="11.00">8 rows</text>
<polygon fill="#ffffff" stroke="transparent" points="407.5,-37 407.5,-55 472.5,-55 472.5,-37 407.5,-37"/>
<polygon fill="none" stroke="black" points="407.5,-37 407.5,-55 472.5,-55 472.5,-37 407.5,-37"/>
<text text-anchor="start" x="441.5" y="-43.2" font-family="Helvetica,sans-Serif" font-size="11.00">316 &gt;</text>
</a>
</g>
</g>
<!-- ad_org -->
<g id="node2" class="node">
<title>ad_org</title>
<g id="a_node2"><a xlink:href="../../tables/ad_org.html" xlink:title="ad_org" target="_top">
<polygon fill="#ffffff" stroke="transparent" points="8,-323 8,-513 200,-513 200,-323 8,-323"/>
<polygon fill="#f5f5f5" stroke="transparent" points="8,-491 8,-513 200,-513 200,-491 8,-491"/>
<polygon fill="none" stroke="black" points="8,-491 8,-513 200,-513 200,-491 8,-491"/>
<text text-anchor="start" x="13" y="-500.2" font-family="Helvetica,sans-Serif" font-weight="bold" font-size="11.00">ad_org</text>
<text text-anchor="start" x="165" y="-499.2" font-family="Helvetica,sans-Serif" font-size="11.00">[table]</text>
<polygon fill="none" stroke="black" points="8,-469 8,-491 200,-491 200,-469 8,-469"/>
<image xlink:href="../../images/primaryKeys.png" width="11px" height="12px" preserveAspectRatio="xMinYMin meet" x="13" y="-486"/>
<text text-anchor="start" x="28" y="-477.2" font-family="Helvetica,sans-Serif" font-size="11.00">ad_org_id</text>
<polygon fill="#ffffff" stroke="transparent" points="8,-447 8,-469 200,-469 200,-447 8,-447"/>
<polygon fill="none" stroke="black" points="8,-447 8,-469 200,-469 200,-447 8,-447"/>
<image xlink:href="../../images/foreignKeys.png" width="11px" height="12px" preserveAspectRatio="xMinYMin meet" x="13" y="-464"/>
<text text-anchor="start" x="28" y="-455.2" font-family="Helvetica,sans-Serif" font-size="11.00">ad_client_id</text>
<polygon fill="#ffffff" stroke="transparent" points="8,-425 8,-447 200,-447 200,-425 8,-425"/>
<polygon fill="none" stroke="black" points="8,-425 8,-447 200,-447 200,-425 8,-425"/>
<text text-anchor="start" x="28" y="-433.2" font-family="Helvetica,sans-Serif" font-size="11.00">value</text>
<polygon fill="none" stroke="black" points="8,-403 8,-425 200,-425 200,-403 8,-403"/>
<image xlink:href="../../images/foreignKeys.png" width="11px" height="12px" preserveAspectRatio="xMinYMin meet" x="13" y="-420"/>
<text text-anchor="start" x="28" y="-411.2" font-family="Helvetica,sans-Serif" font-size="11.00">ad_replicationstrategy_id</text>
<polygon fill="#ffffff" stroke="transparent" points="8,-381 8,-403 200,-403 200,-381 8,-381"/>
<polygon fill="none" stroke="black" points="8,-381 8,-403 200,-403 200,-381 8,-381"/>
<text text-anchor="start" x="28" y="-389.2" font-family="Helvetica,sans-Serif" font-size="11.00">ad_org_uu</text>
<polygon fill="none" stroke="black" points="8,-359 8,-381 200,-381 200,-359 8,-359"/>
<image xlink:href="../../images/foreignKeys.png" width="11px" height="12px" preserveAspectRatio="xMinYMin meet" x="13" y="-376"/>
<text text-anchor="start" x="28" y="-367.2" font-family="Helvetica,sans-Serif" font-size="11.00">cof_c_snrange_id</text>
<polygon fill="none" stroke="black" points="8,-341 8,-359 200,-359 200,-341 8,-341"/>
<text text-anchor="start" x="11" y="-347.2" font-family="Helvetica,sans-Serif" font-size="11.00">...</text>
<polygon fill="#ffffff" stroke="transparent" points="8,-323 8,-341 78,-341 78,-323 8,-323"/>
<polygon fill="none" stroke="black" points="8,-323 8,-341 78,-341 78,-323 8,-323"/>
<text text-anchor="start" x="11" y="-329.2" font-family="Helvetica,sans-Serif" font-size="11.00">&lt; 3</text>
<polygon fill="#ffffff" stroke="transparent" points="78,-323 78,-341 141,-341 141,-323 78,-323"/>
<polygon fill="none" stroke="black" points="78,-323 78,-341 141,-341 141,-323 78,-323"/>
<text text-anchor="start" x="105" y="-329.2" font-family="Helvetica,sans-Serif" font-size="11.00">3 rows</text>
<polygon fill="#ffffff" stroke="transparent" points="141,-323 141,-341 200,-341 200,-323 141,-323"/>
<polygon fill="none" stroke="black" points="141,-323 141,-341 200,-341 200,-323 141,-323"/>
<text text-anchor="start" x="169" y="-329.2" font-family="Helvetica,sans-Serif" font-size="11.00">224 &gt;</text>
</a>
</g>
</g>
<!-- ad_user&#45;&gt;ad_org -->
<g id="edge1" class="edge">
<title>ad_user:w&#45;&gt;ad_org:e</title>
<path fill="none" stroke="black" d="M234.09,-480C223.32,-480 216.34,-480 201,-480"/>
<polygon fill="black" stroke="black" points="240.5,-480 248.5,-483.6 244.5,-480 248.5,-480 248.5,-480 248.5,-480 244.5,-480 248.5,-476.4 240.5,-480 240.5,-480"/>
<ellipse fill="none" stroke="black" cx="237.3" cy="-480" rx="3.2" ry="3.2"/>
</g>
<!-- ad_user&#45;&gt;ad_org -->
<g id="edge2" class="edge">
<title>ad_user:w&#45;&gt;ad_org:e</title>
<path fill="none" stroke="black" d="M234.34,-328.8C191.14,-349.68 266.89,-480 201,-480"/>
<polygon fill="black" stroke="black" points="240.65,-327.55 249.2,-329.53 244.58,-326.78 248.5,-326 248.5,-326 248.5,-326 244.58,-326.78 247.8,-322.47 240.65,-327.55 240.65,-327.55"/>
<ellipse fill="none" stroke="black" cx="237.51" cy="-328.18" rx="3.2" ry="3.2"/>
</g>
<!-- c_orgassignment -->
<g id="node3" class="node">
<title>c_orgassignment</title>
<g id="a_node3"><a xlink:href="../../tables/c_orgassignment.html" xlink:title="c_orgassignment" target="_top">
<polygon fill="#ffffff" stroke="transparent" points="521,-386 521,-716 766,-716 766,-386 521,-386"/>
<polygon fill="#f5f5f5" stroke="transparent" points="523.5,-692 523.5,-714 764.5,-714 764.5,-692 523.5,-692"/>
<polygon fill="none" stroke="black" points="523.5,-692 523.5,-714 764.5,-714 764.5,-692 523.5,-692"/>
<text text-anchor="start" x="528.5" y="-701.2" font-family="Helvetica,sans-Serif" font-weight="bold" font-size="11.00">c_orgassignment</text>
<text text-anchor="start" x="729.5" y="-700.2" font-family="Helvetica,sans-Serif" font-size="11.00">[table]</text>
<polygon fill="none" stroke="black" points="523.5,-670 523.5,-692 681.5,-692 681.5,-670 523.5,-670"/>
<image xlink:href="../../images/primaryKeys.png" width="11px" height="12px" preserveAspectRatio="xMinYMin meet" x="528.5" y="-687"/>
<text text-anchor="start" x="543.5" y="-678.2" font-family="Helvetica,sans-Serif" font-size="11.00">c_orgassignment_id</text>
<polygon fill="none" stroke="black" points="681.5,-670 681.5,-692 764.5,-692 764.5,-670 681.5,-670"/>
<text text-anchor="start" x="684.5" y="-678.2" font-family="Helvetica,sans-Serif" font-size="11.00">numeric[10]</text>
<polygon fill="none" stroke="black" points="523.5,-648 523.5,-670 681.5,-670 681.5,-648 523.5,-648"/>
<text text-anchor="start" x="543.5" y="-656.2" font-family="Helvetica,sans-Serif" font-size="11.00">ad_client_id</text>
<polygon fill="none" stroke="black" points="681.5,-648 681.5,-670 764.5,-670 764.5,-648 681.5,-648"/>
<text text-anchor="start" x="684.5" y="-656.2" font-family="Helvetica,sans-Serif" font-size="11.00">numeric[10]</text>
<polygon fill="none" stroke="black" points="523.5,-626 523.5,-648 681.5,-648 681.5,-626 523.5,-626"/>
<image xlink:href="../../images/foreignKeys.png" width="11px" height="12px" preserveAspectRatio="xMinYMin meet" x="528.5" y="-643"/>
<text text-anchor="start" x="543.5" y="-634.2" font-family="Helvetica,sans-Serif" font-size="11.00">ad_org_id</text>
<polygon fill="none" stroke="black" points="681.5,-626 681.5,-648 764.5,-648 764.5,-626 681.5,-626"/>
<text text-anchor="start" x="684.5" y="-634.2" font-family="Helvetica,sans-Serif" font-size="11.00">numeric[10]</text>
<polygon fill="none" stroke="black" points="523.5,-604 523.5,-626 681.5,-626 681.5,-604 523.5,-604"/>
<text text-anchor="start" x="543.5" y="-612.2" font-family="Helvetica,sans-Serif" font-size="11.00">isactive</text>
<polygon fill="none" stroke="black" points="681.5,-604 681.5,-626 764.5,-626 764.5,-604 681.5,-604"/>
<text text-anchor="start" x="684.5" y="-612.2" font-family="Helvetica,sans-Serif" font-size="11.00">bpchar[1]</text>
<polygon fill="none" stroke="black" points="523.5,-582 523.5,-604 681.5,-604 681.5,-582 523.5,-582"/>
<text text-anchor="start" x="543.5" y="-590.2" font-family="Helvetica,sans-Serif" font-size="11.00">created</text>
<polygon fill="none" stroke="black" points="681.5,-582 681.5,-604 764.5,-604 764.5,-582 681.5,-582"/>
<text text-anchor="start" x="684.5" y="-590.2" font-family="Helvetica,sans-Serif" font-size="11.00">timestamp[29,6]</text>
<polygon fill="none" stroke="black" points="523.5,-560 523.5,-582 681.5,-582 681.5,-560 523.5,-560"/>
<text text-anchor="start" x="543.5" y="-568.2" font-family="Helvetica,sans-Serif" font-size="11.00">createdby</text>
<polygon fill="none" stroke="black" points="681.5,-560 681.5,-582 764.5,-582 764.5,-560 681.5,-560"/>
<text text-anchor="start" x="684.5" y="-568.2" font-family="Helvetica,sans-Serif" font-size="11.00">numeric[10]</text>
<polygon fill="none" stroke="black" points="523.5,-538 523.5,-560 681.5,-560 681.5,-538 523.5,-538"/>
<text text-anchor="start" x="543.5" y="-546.2" font-family="Helvetica,sans-Serif" font-size="11.00">updated</text>
<polygon fill="none" stroke="black" points="681.5,-538 681.5,-560 764.5,-560 764.5,-538 681.5,-538"/>
<text text-anchor="start" x="684.5" y="-546.2" font-family="Helvetica,sans-Serif" font-size="11.00">timestamp[29,6]</text>
<polygon fill="none" stroke="black" points="523.5,-516 523.5,-538 681.5,-538 681.5,-516 523.5,-516"/>
<text text-anchor="start" x="543.5" y="-524.2" font-family="Helvetica,sans-Serif" font-size="11.00">updatedby</text>
<polygon fill="none" stroke="black" points="681.5,-516 681.5,-538 764.5,-538 764.5,-516 681.5,-516"/>
<text text-anchor="start" x="684.5" y="-524.2" font-family="Helvetica,sans-Serif" font-size="11.00">numeric[10]</text>
<polygon fill="none" stroke="black" points="523.5,-494 523.5,-516 681.5,-516 681.5,-494 523.5,-494"/>
<image xlink:href="../../images/foreignKeys.png" width="11px" height="12px" preserveAspectRatio="xMinYMin meet" x="528.5" y="-511"/>
<text text-anchor="start" x="543.5" y="-502.2" font-family="Helvetica,sans-Serif" font-size="11.00">ad_user_id</text>
<polygon fill="none" stroke="black" points="681.5,-494 681.5,-516 764.5,-516 764.5,-494 681.5,-494"/>
<text text-anchor="start" x="684.5" y="-502.2" font-family="Helvetica,sans-Serif" font-size="11.00">numeric[10]</text>
<polygon fill="none" stroke="black" points="523.5,-472 523.5,-494 681.5,-494 681.5,-472 523.5,-472"/>
<text text-anchor="start" x="543.5" y="-480.2" font-family="Helvetica,sans-Serif" font-size="11.00">validfrom</text>
<polygon fill="none" stroke="black" points="681.5,-472 681.5,-494 764.5,-494 764.5,-472 681.5,-472"/>
<text text-anchor="start" x="684.5" y="-480.2" font-family="Helvetica,sans-Serif" font-size="11.00">timestamp[29,6]</text>
<polygon fill="none" stroke="black" points="523.5,-450 523.5,-472 681.5,-472 681.5,-450 523.5,-450"/>
<text text-anchor="start" x="543.5" y="-458.2" font-family="Helvetica,sans-Serif" font-size="11.00">validto</text>
<polygon fill="none" stroke="black" points="681.5,-450 681.5,-472 764.5,-472 764.5,-450 681.5,-450"/>
<text text-anchor="start" x="684.5" y="-458.2" font-family="Helvetica,sans-Serif" font-size="11.00">timestamp[29,6]</text>
<polygon fill="none" stroke="black" points="523.5,-428 523.5,-450 681.5,-450 681.5,-428 523.5,-428"/>
<text text-anchor="start" x="543.5" y="-436.2" font-family="Helvetica,sans-Serif" font-size="11.00">description</text>
<polygon fill="none" stroke="black" points="681.5,-428 681.5,-450 764.5,-450 764.5,-428 681.5,-428"/>
<text text-anchor="start" x="684.5" y="-436.2" font-family="Helvetica,sans-Serif" font-size="11.00">varchar[255]</text>
<polygon fill="#ffffff" stroke="transparent" points="523.5,-406 523.5,-428 681.5,-428 681.5,-406 523.5,-406"/>
<polygon fill="none" stroke="black" points="523.5,-406 523.5,-428 681.5,-428 681.5,-406 523.5,-406"/>
<text text-anchor="start" x="543.5" y="-414.2" font-family="Helvetica,sans-Serif" font-size="11.00">c_orgassignment_uu</text>
<polygon fill="none" stroke="black" points="681.5,-406 681.5,-428 764.5,-428 764.5,-406 681.5,-406"/>
<text text-anchor="start" x="684.5" y="-414.2" font-family="Helvetica,sans-Serif" font-size="11.00">varchar[36]</text>
<polygon fill="#ffffff" stroke="transparent" points="523.5,-388 523.5,-406 593.5,-406 593.5,-388 523.5,-388"/>
<polygon fill="none" stroke="black" points="523.5,-388 523.5,-406 593.5,-406 593.5,-388 523.5,-388"/>
<text text-anchor="start" x="526.5" y="-394.2" font-family="Helvetica,sans-Serif" font-size="11.00">&lt; 2</text>
<polygon fill="#ffffff" stroke="transparent" points="593.5,-388 593.5,-406 681.5,-406 681.5,-388 593.5,-388"/>
<polygon fill="none" stroke="black" points="593.5,-388 593.5,-406 681.5,-406 681.5,-388 593.5,-388"/>
<text text-anchor="start" x="645.5" y="-394.2" font-family="Helvetica,sans-Serif" font-size="11.00">0 rows</text>
<polygon fill="#ffffff" stroke="transparent" points="681.5,-388 681.5,-406 764.5,-406 764.5,-388 681.5,-388"/>
<polygon fill="none" stroke="black" points="681.5,-388 681.5,-406 764.5,-406 764.5,-388 681.5,-388"/>
<text text-anchor="start" x="745.5" y="-394.2" font-family="Helvetica,sans-Serif" font-size="11.00">0 &gt;</text>
<polygon fill="none" stroke="black" stroke-width="2" points="522,-387 522,-715 765,-715 765,-387 522,-387"/>
</a>
</g>
</g>
<!-- c_orgassignment&#45;&gt;ad_user -->
<g id="edge4" class="edge">
<title>c_orgassignment:w&#45;&gt;ad_user:e</title>
<path fill="none" stroke="black" d="M508.27,-507.97C496.68,-513.31 491.02,-524 473.5,-524"/>
<polygon fill="black" stroke="black" points="514.67,-506.63 523.24,-508.52 518.58,-505.82 522.5,-505 522.5,-505 522.5,-505 518.58,-505.82 521.76,-501.48 514.67,-506.63 514.67,-506.63"/>
<ellipse fill="none" stroke="black" cx="511.54" cy="-507.29" rx="3.2" ry="3.2"/>
</g>
<!-- c_orgassignment&#45;&gt;ad_org -->
<g id="edge3" class="edge">
<title>c_orgassignment:w&#45;&gt;ad_org:e</title>
<path fill="none" stroke="black" d="M507.74,-637.05C389.43,-637.89 336.29,-647.01 241,-568 207.93,-540.58 243.96,-480 201,-480"/>
<polygon fill="black" stroke="black" points="514.5,-637.03 522.51,-640.6 518.5,-637.01 522.5,-637 522.5,-637 522.5,-637 518.5,-637.01 522.49,-633.4 514.5,-637.03 514.5,-637.03"/>
<ellipse fill="none" stroke="black" cx="511.3" cy="-637.04" rx="3.2" ry="3.2"/>
</g>
</g>
</svg>
