<?xml version="1.0" encoding="UTF-8" standalone="no"?>
<!DOCTYPE svg PUBLIC "-//W3C//DTD SVG 1.1//EN"
 "http://www.w3.org/Graphics/SVG/1.1/DTD/svg11.dtd">
<!-- Generated by graphviz version 2.43.0 (0)
 -->
<!-- Title: oneDegreeRelationshipsDiagram Pages: 1 -->
<svg width="605pt" height="969pt"
 viewBox="0.00 0.00 605.00 969.00" xmlns="http://www.w3.org/2000/svg" xmlns:xlink="http://www.w3.org/1999/xlink">
<g id="graph0" class="graph" transform="scale(1 1) rotate(0) translate(4 965)">
<title>oneDegreeRelationshipsDiagram</title>
<polygon fill="#ffffff" stroke="transparent" points="-4,4 -4,-965 601,-965 601,4 -4,4"/>
<text text-anchor="middle" x="71.5" y="-7.2" font-family="Helvetica,sans-Serif" font-size="11.00">Generated by SchemaSpy</text>
<!-- c_revenuerecognition_run -->
<g id="node1" class="node">
<title>c_revenuerecognition_run</title>
<g id="a_node1"><a xlink:href="../../tables/c_revenuerecognition_run.html" xlink:title="c_revenuerecognition_run" target="_top">
<polygon fill="#ffffff" stroke="transparent" points="282,-550 282,-902 589,-902 589,-550 282,-550"/>
<polygon fill="#f5f5f5" stroke="transparent" points="284.5,-878 284.5,-900 587.5,-900 587.5,-878 284.5,-878"/>
<polygon fill="none" stroke="black" points="284.5,-878 284.5,-900 587.5,-900 587.5,-878 284.5,-878"/>
<text text-anchor="start" x="289.5" y="-887.2" font-family="Helvetica,sans-Serif" font-weight="bold" font-size="11.00">c_revenuerecognition_run</text>
<text text-anchor="start" x="552.5" y="-886.2" font-family="Helvetica,sans-Serif" font-size="11.00">[table]</text>
<polygon fill="none" stroke="black" points="284.5,-856 284.5,-878 504.5,-878 504.5,-856 284.5,-856"/>
<image xlink:href="../../images/primaryKeys.png" width="11px" height="12px" preserveAspectRatio="xMinYMin meet" x="289.5" y="-873"/>
<text text-anchor="start" x="304.5" y="-864.2" font-family="Helvetica,sans-Serif" font-size="11.00">c_revenuerecognition_run_id</text>
<polygon fill="none" stroke="black" points="504.5,-856 504.5,-878 587.5,-878 587.5,-856 504.5,-856"/>
<text text-anchor="start" x="507.5" y="-864.2" font-family="Helvetica,sans-Serif" font-size="11.00">numeric[10]</text>
<polygon fill="none" stroke="black" points="284.5,-834 284.5,-856 504.5,-856 504.5,-834 284.5,-834"/>
<text text-anchor="start" x="304.5" y="-842.2" font-family="Helvetica,sans-Serif" font-size="11.00">ad_client_id</text>
<polygon fill="none" stroke="black" points="504.5,-834 504.5,-856 587.5,-856 587.5,-834 504.5,-834"/>
<text text-anchor="start" x="507.5" y="-842.2" font-family="Helvetica,sans-Serif" font-size="11.00">numeric[10]</text>
<polygon fill="none" stroke="black" points="284.5,-812 284.5,-834 504.5,-834 504.5,-812 284.5,-812"/>
<text text-anchor="start" x="304.5" y="-820.2" font-family="Helvetica,sans-Serif" font-size="11.00">ad_org_id</text>
<polygon fill="none" stroke="black" points="504.5,-812 504.5,-834 587.5,-834 587.5,-812 504.5,-812"/>
<text text-anchor="start" x="507.5" y="-820.2" font-family="Helvetica,sans-Serif" font-size="11.00">numeric[10]</text>
<polygon fill="none" stroke="black" points="284.5,-790 284.5,-812 504.5,-812 504.5,-790 284.5,-790"/>
<text text-anchor="start" x="304.5" y="-798.2" font-family="Helvetica,sans-Serif" font-size="11.00">isactive</text>
<polygon fill="none" stroke="black" points="504.5,-790 504.5,-812 587.5,-812 587.5,-790 504.5,-790"/>
<text text-anchor="start" x="507.5" y="-798.2" font-family="Helvetica,sans-Serif" font-size="11.00">bpchar[1]</text>
<polygon fill="none" stroke="black" points="284.5,-768 284.5,-790 504.5,-790 504.5,-768 284.5,-768"/>
<text text-anchor="start" x="304.5" y="-776.2" font-family="Helvetica,sans-Serif" font-size="11.00">created</text>
<polygon fill="none" stroke="black" points="504.5,-768 504.5,-790 587.5,-790 587.5,-768 504.5,-768"/>
<text text-anchor="start" x="507.5" y="-776.2" font-family="Helvetica,sans-Serif" font-size="11.00">timestamp[29,6]</text>
<polygon fill="none" stroke="black" points="284.5,-746 284.5,-768 504.5,-768 504.5,-746 284.5,-746"/>
<text text-anchor="start" x="304.5" y="-754.2" font-family="Helvetica,sans-Serif" font-size="11.00">createdby</text>
<polygon fill="none" stroke="black" points="504.5,-746 504.5,-768 587.5,-768 587.5,-746 504.5,-746"/>
<text text-anchor="start" x="507.5" y="-754.2" font-family="Helvetica,sans-Serif" font-size="11.00">numeric[10]</text>
<polygon fill="none" stroke="black" points="284.5,-724 284.5,-746 504.5,-746 504.5,-724 284.5,-724"/>
<text text-anchor="start" x="304.5" y="-732.2" font-family="Helvetica,sans-Serif" font-size="11.00">updated</text>
<polygon fill="none" stroke="black" points="504.5,-724 504.5,-746 587.5,-746 587.5,-724 504.5,-724"/>
<text text-anchor="start" x="507.5" y="-732.2" font-family="Helvetica,sans-Serif" font-size="11.00">timestamp[29,6]</text>
<polygon fill="none" stroke="black" points="284.5,-702 284.5,-724 504.5,-724 504.5,-702 284.5,-702"/>
<text text-anchor="start" x="304.5" y="-710.2" font-family="Helvetica,sans-Serif" font-size="11.00">updatedby</text>
<polygon fill="none" stroke="black" points="504.5,-702 504.5,-724 587.5,-724 587.5,-702 504.5,-702"/>
<text text-anchor="start" x="507.5" y="-710.2" font-family="Helvetica,sans-Serif" font-size="11.00">numeric[10]</text>
<polygon fill="none" stroke="black" points="284.5,-680 284.5,-702 504.5,-702 504.5,-680 284.5,-680"/>
<image xlink:href="../../images/foreignKeys.png" width="11px" height="12px" preserveAspectRatio="xMinYMin meet" x="289.5" y="-697"/>
<text text-anchor="start" x="304.5" y="-688.2" font-family="Helvetica,sans-Serif" font-size="11.00">c_revenuerecognition_plan_id</text>
<polygon fill="none" stroke="black" points="504.5,-680 504.5,-702 587.5,-702 587.5,-680 504.5,-680"/>
<text text-anchor="start" x="507.5" y="-688.2" font-family="Helvetica,sans-Serif" font-size="11.00">numeric[10]</text>
<polygon fill="none" stroke="black" points="284.5,-658 284.5,-680 504.5,-680 504.5,-658 284.5,-658"/>
<image xlink:href="../../images/foreignKeys.png" width="11px" height="12px" preserveAspectRatio="xMinYMin meet" x="289.5" y="-675"/>
<text text-anchor="start" x="304.5" y="-666.2" font-family="Helvetica,sans-Serif" font-size="11.00">gl_journal_id</text>
<polygon fill="none" stroke="black" points="504.5,-658 504.5,-680 587.5,-680 587.5,-658 504.5,-658"/>
<text text-anchor="start" x="507.5" y="-666.2" font-family="Helvetica,sans-Serif" font-size="11.00">numeric[10]</text>
<polygon fill="none" stroke="black" points="284.5,-636 284.5,-658 504.5,-658 504.5,-636 284.5,-636"/>
<text text-anchor="start" x="304.5" y="-644.2" font-family="Helvetica,sans-Serif" font-size="11.00">recognizedamt</text>
<polygon fill="none" stroke="black" points="504.5,-636 504.5,-658 587.5,-658 587.5,-636 504.5,-636"/>
<text text-anchor="start" x="507.5" y="-644.2" font-family="Helvetica,sans-Serif" font-size="11.00">numeric[0]</text>
<polygon fill="#ffffff" stroke="transparent" points="284.5,-614 284.5,-636 504.5,-636 504.5,-614 284.5,-614"/>
<polygon fill="none" stroke="black" points="284.5,-614 284.5,-636 504.5,-636 504.5,-614 284.5,-614"/>
<text text-anchor="start" x="304.5" y="-622.2" font-family="Helvetica,sans-Serif" font-size="11.00">c_revenuerecognition_run_uu</text>
<polygon fill="none" stroke="black" points="504.5,-614 504.5,-636 587.5,-636 587.5,-614 504.5,-614"/>
<text text-anchor="start" x="507.5" y="-622.2" font-family="Helvetica,sans-Serif" font-size="11.00">varchar[36]</text>
<polygon fill="none" stroke="black" points="284.5,-592 284.5,-614 504.5,-614 504.5,-592 284.5,-592"/>
<text text-anchor="start" x="304.5" y="-600.2" font-family="Helvetica,sans-Serif" font-size="11.00">daterecognized</text>
<polygon fill="none" stroke="black" points="504.5,-592 504.5,-614 587.5,-614 587.5,-592 504.5,-592"/>
<text text-anchor="start" x="507.5" y="-600.2" font-family="Helvetica,sans-Serif" font-size="11.00">timestamp[29,6]</text>
<polygon fill="none" stroke="black" points="284.5,-570 284.5,-592 504.5,-592 504.5,-570 284.5,-570"/>
<image xlink:href="../../images/foreignKeys.png" width="11px" height="12px" preserveAspectRatio="xMinYMin meet" x="289.5" y="-587"/>
<text text-anchor="start" x="304.5" y="-578.2" font-family="Helvetica,sans-Serif" font-size="11.00">c_revenuerecog_service_id</text>
<polygon fill="none" stroke="black" points="504.5,-570 504.5,-592 587.5,-592 587.5,-570 504.5,-570"/>
<text text-anchor="start" x="507.5" y="-578.2" font-family="Helvetica,sans-Serif" font-size="11.00">numeric[10]</text>
<polygon fill="#ffffff" stroke="transparent" points="284.5,-552 284.5,-570 385.5,-570 385.5,-552 284.5,-552"/>
<polygon fill="none" stroke="black" points="284.5,-552 284.5,-570 385.5,-570 385.5,-552 284.5,-552"/>
<text text-anchor="start" x="287.5" y="-558.2" font-family="Helvetica,sans-Serif" font-size="11.00">&lt; 3</text>
<polygon fill="#ffffff" stroke="transparent" points="385.5,-552 385.5,-570 504.5,-570 504.5,-552 385.5,-552"/>
<polygon fill="none" stroke="black" points="385.5,-552 385.5,-570 504.5,-570 504.5,-552 385.5,-552"/>
<text text-anchor="start" x="468.5" y="-558.2" font-family="Helvetica,sans-Serif" font-size="11.00">0 rows</text>
<polygon fill="#ffffff" stroke="transparent" points="504.5,-552 504.5,-570 587.5,-570 587.5,-552 504.5,-552"/>
<polygon fill="none" stroke="black" points="504.5,-552 504.5,-570 587.5,-570 587.5,-552 504.5,-552"/>
<text text-anchor="start" x="568.5" y="-558.2" font-family="Helvetica,sans-Serif" font-size="11.00">0 &gt;</text>
<polygon fill="none" stroke="black" stroke-width="2" points="283,-551 283,-901 588,-901 588,-551 283,-551"/>
</a>
</g>
</g>
<!-- c_revenuerecog_service -->
<g id="node2" class="node">
<title>c_revenuerecog_service</title>
<g id="a_node2"><a xlink:href="../../tables/c_revenuerecog_service.html" xlink:title="c_revenuerecog_service" target="_top">
<polygon fill="#ffffff" stroke="transparent" points="18.5,-37 18.5,-249 222.5,-249 222.5,-37 18.5,-37"/>
<polygon fill="#f5f5f5" stroke="transparent" points="18.5,-227 18.5,-249 222.5,-249 222.5,-227 18.5,-227"/>
<polygon fill="none" stroke="black" points="18.5,-227 18.5,-249 222.5,-249 222.5,-227 18.5,-227"/>
<text text-anchor="start" x="23.5" y="-236.2" font-family="Helvetica,sans-Serif" font-weight="bold" font-size="11.00">c_revenuerecog_service</text>
<text text-anchor="start" x="187.5" y="-235.2" font-family="Helvetica,sans-Serif" font-size="11.00">[table]</text>
<polygon fill="none" stroke="black" points="18.5,-205 18.5,-227 222.5,-227 222.5,-205 18.5,-205"/>
<image xlink:href="../../images/foreignKeys.png" width="11px" height="12px" preserveAspectRatio="xMinYMin meet" x="23.5" y="-222"/>
<text text-anchor="start" x="38.5" y="-213.2" font-family="Helvetica,sans-Serif" font-size="11.00">ad_client_id</text>
<polygon fill="none" stroke="black" points="18.5,-183 18.5,-205 222.5,-205 222.5,-183 18.5,-183"/>
<image xlink:href="../../images/foreignKeys.png" width="11px" height="12px" preserveAspectRatio="xMinYMin meet" x="23.5" y="-200"/>
<text text-anchor="start" x="38.5" y="-191.2" font-family="Helvetica,sans-Serif" font-size="11.00">ad_org_id</text>
<polygon fill="none" stroke="black" points="18.5,-161 18.5,-183 222.5,-183 222.5,-161 18.5,-161"/>
<image xlink:href="../../images/foreignKeys.png" width="11px" height="12px" preserveAspectRatio="xMinYMin meet" x="23.5" y="-178"/>
<text text-anchor="start" x="38.5" y="-169.2" font-family="Helvetica,sans-Serif" font-size="11.00">createdby</text>
<polygon fill="none" stroke="black" points="18.5,-139 18.5,-161 222.5,-161 222.5,-139 18.5,-139"/>
<image xlink:href="../../images/foreignKeys.png" width="11px" height="12px" preserveAspectRatio="xMinYMin meet" x="23.5" y="-156"/>
<text text-anchor="start" x="38.5" y="-147.2" font-family="Helvetica,sans-Serif" font-size="11.00">c_revenuerecognition_id</text>
<polygon fill="none" stroke="black" points="18.5,-117 18.5,-139 222.5,-139 222.5,-117 18.5,-117"/>
<image xlink:href="../../images/primaryKeys.png" width="11px" height="12px" preserveAspectRatio="xMinYMin meet" x="23.5" y="-134"/>
<text text-anchor="start" x="38.5" y="-125.2" font-family="Helvetica,sans-Serif" font-size="11.00">c_revenuerecog_service_id</text>
<polygon fill="none" stroke="black" points="18.5,-95 18.5,-117 222.5,-117 222.5,-95 18.5,-95"/>
<image xlink:href="../../images/foreignKeys.png" width="11px" height="12px" preserveAspectRatio="xMinYMin meet" x="23.5" y="-112"/>
<text text-anchor="start" x="38.5" y="-103.2" font-family="Helvetica,sans-Serif" font-size="11.00">updatedby</text>
<polygon fill="#ffffff" stroke="transparent" points="18.5,-73 18.5,-95 222.5,-95 222.5,-73 18.5,-73"/>
<polygon fill="none" stroke="black" points="18.5,-73 18.5,-95 222.5,-95 222.5,-73 18.5,-73"/>
<text text-anchor="start" x="38.5" y="-81.2" font-family="Helvetica,sans-Serif" font-size="11.00">c_revenuerecog_service_uu</text>
<polygon fill="none" stroke="black" points="18.5,-55 18.5,-73 222.5,-73 222.5,-55 18.5,-55"/>
<text text-anchor="start" x="21.5" y="-61.2" font-family="Helvetica,sans-Serif" font-size="11.00">...</text>
<polygon fill="#ffffff" stroke="transparent" points="18.5,-37 18.5,-55 100.5,-55 100.5,-37 18.5,-37"/>
<polygon fill="none" stroke="black" points="18.5,-37 18.5,-55 100.5,-55 100.5,-37 18.5,-37"/>
<text text-anchor="start" x="21.5" y="-43.2" font-family="Helvetica,sans-Serif" font-size="11.00">&lt; 5</text>
<polygon fill="#ffffff" stroke="transparent" points="100.5,-37 100.5,-55 169.5,-55 169.5,-37 100.5,-37"/>
<polygon fill="none" stroke="black" points="100.5,-37 100.5,-55 169.5,-55 169.5,-37 100.5,-37"/>
<text text-anchor="start" x="133.5" y="-43.2" font-family="Helvetica,sans-Serif" font-size="11.00">0 rows</text>
<polygon fill="#ffffff" stroke="transparent" points="169.5,-37 169.5,-55 222.5,-55 222.5,-37 169.5,-37"/>
<polygon fill="none" stroke="black" points="169.5,-37 169.5,-55 222.5,-55 222.5,-37 169.5,-37"/>
<text text-anchor="start" x="203.5" y="-43.2" font-family="Helvetica,sans-Serif" font-size="11.00">1 &gt;</text>
</a>
</g>
</g>
<!-- c_revenuerecognition_run&#45;&gt;c_revenuerecog_service -->
<g id="edge1" class="edge">
<title>c_revenuerecognition_run:w&#45;&gt;c_revenuerecog_service:e</title>
<path fill="none" stroke="black" d="M269.4,-577.35C196.37,-534.48 319.69,-128 223.5,-128"/>
<polygon fill="black" stroke="black" points="275.75,-579 282.6,-584.49 279.63,-580 283.5,-581 283.5,-581 283.5,-581 279.63,-580 284.4,-577.51 275.75,-579 275.75,-579"/>
<ellipse fill="none" stroke="black" cx="272.66" cy="-578.19" rx="3.2" ry="3.2"/>
</g>
<!-- c_revenuerecognition_plan -->
<g id="node3" class="node">
<title>c_revenuerecognition_plan</title>
<g id="a_node3"><a xlink:href="../../tables/c_revenuerecognition_plan.html" xlink:title="c_revenuerecognition_plan" target="_top">
<polygon fill="#ffffff" stroke="transparent" points="8,-723 8,-957 233,-957 233,-723 8,-723"/>
<polygon fill="#f5f5f5" stroke="transparent" points="8.5,-935 8.5,-957 233.5,-957 233.5,-935 8.5,-935"/>
<polygon fill="none" stroke="black" points="8.5,-935 8.5,-957 233.5,-957 233.5,-935 8.5,-935"/>
<text text-anchor="start" x="13.5" y="-944.2" font-family="Helvetica,sans-Serif" font-weight="bold" font-size="11.00">c_revenuerecognition_plan</text>
<text text-anchor="start" x="198.5" y="-943.2" font-family="Helvetica,sans-Serif" font-size="11.00">[table]</text>
<polygon fill="none" stroke="black" points="8.5,-913 8.5,-935 233.5,-935 233.5,-913 8.5,-913"/>
<image xlink:href="../../images/primaryKeys.png" width="11px" height="12px" preserveAspectRatio="xMinYMin meet" x="13.5" y="-930"/>
<text text-anchor="start" x="28.5" y="-921.2" font-family="Helvetica,sans-Serif" font-size="11.00">c_revenuerecognition_plan_id</text>
<polygon fill="none" stroke="black" points="8.5,-891 8.5,-913 233.5,-913 233.5,-891 8.5,-891"/>
<image xlink:href="../../images/foreignKeys.png" width="11px" height="12px" preserveAspectRatio="xMinYMin meet" x="13.5" y="-908"/>
<text text-anchor="start" x="28.5" y="-899.2" font-family="Helvetica,sans-Serif" font-size="11.00">c_acctschema_id</text>
<polygon fill="none" stroke="black" points="8.5,-869 8.5,-891 233.5,-891 233.5,-869 8.5,-869"/>
<image xlink:href="../../images/foreignKeys.png" width="11px" height="12px" preserveAspectRatio="xMinYMin meet" x="13.5" y="-886"/>
<text text-anchor="start" x="28.5" y="-877.2" font-family="Helvetica,sans-Serif" font-size="11.00">c_revenuerecognition_id</text>
<polygon fill="none" stroke="black" points="8.5,-847 8.5,-869 233.5,-869 233.5,-847 8.5,-847"/>
<image xlink:href="../../images/foreignKeys.png" width="11px" height="12px" preserveAspectRatio="xMinYMin meet" x="13.5" y="-864"/>
<text text-anchor="start" x="28.5" y="-855.2" font-family="Helvetica,sans-Serif" font-size="11.00">c_invoiceline_id</text>
<polygon fill="none" stroke="black" points="8.5,-825 8.5,-847 233.5,-847 233.5,-825 8.5,-825"/>
<image xlink:href="../../images/foreignKeys.png" width="11px" height="12px" preserveAspectRatio="xMinYMin meet" x="13.5" y="-842"/>
<text text-anchor="start" x="28.5" y="-833.2" font-family="Helvetica,sans-Serif" font-size="11.00">unearnedrevenue_acct</text>
<polygon fill="none" stroke="black" points="8.5,-803 8.5,-825 233.5,-825 233.5,-803 8.5,-803"/>
<image xlink:href="../../images/foreignKeys.png" width="11px" height="12px" preserveAspectRatio="xMinYMin meet" x="13.5" y="-820"/>
<text text-anchor="start" x="28.5" y="-811.2" font-family="Helvetica,sans-Serif" font-size="11.00">p_revenue_acct</text>
<polygon fill="none" stroke="black" points="8.5,-781 8.5,-803 233.5,-803 233.5,-781 8.5,-781"/>
<image xlink:href="../../images/foreignKeys.png" width="11px" height="12px" preserveAspectRatio="xMinYMin meet" x="13.5" y="-798"/>
<text text-anchor="start" x="28.5" y="-789.2" font-family="Helvetica,sans-Serif" font-size="11.00">c_currency_id</text>
<polygon fill="#ffffff" stroke="transparent" points="8.5,-759 8.5,-781 233.5,-781 233.5,-759 8.5,-759"/>
<polygon fill="none" stroke="black" points="8.5,-759 8.5,-781 233.5,-781 233.5,-759 8.5,-759"/>
<text text-anchor="start" x="28.5" y="-767.2" font-family="Helvetica,sans-Serif" font-size="11.00">c_revenuerecognition_plan_uu</text>
<polygon fill="none" stroke="black" points="8.5,-741 8.5,-759 233.5,-759 233.5,-741 8.5,-741"/>
<text text-anchor="start" x="11.5" y="-747.2" font-family="Helvetica,sans-Serif" font-size="11.00">...</text>
<polygon fill="#ffffff" stroke="transparent" points="8.5,-723 8.5,-741 101.5,-741 101.5,-723 8.5,-723"/>
<polygon fill="none" stroke="black" points="8.5,-723 8.5,-741 101.5,-741 101.5,-723 8.5,-723"/>
<text text-anchor="start" x="11.5" y="-729.2" font-family="Helvetica,sans-Serif" font-size="11.00">&lt; 6</text>
<polygon fill="#ffffff" stroke="transparent" points="101.5,-723 101.5,-741 175.5,-741 175.5,-723 101.5,-723"/>
<polygon fill="none" stroke="black" points="101.5,-723 101.5,-741 175.5,-741 175.5,-723 101.5,-723"/>
<text text-anchor="start" x="139.5" y="-729.2" font-family="Helvetica,sans-Serif" font-size="11.00">0 rows</text>
<polygon fill="#ffffff" stroke="transparent" points="175.5,-723 175.5,-741 233.5,-741 233.5,-723 175.5,-723"/>
<polygon fill="none" stroke="black" points="175.5,-723 175.5,-741 233.5,-741 233.5,-723 175.5,-723"/>
<text text-anchor="start" x="214.5" y="-729.2" font-family="Helvetica,sans-Serif" font-size="11.00">2 &gt;</text>
</a>
</g>
</g>
<!-- c_revenuerecognition_run&#45;&gt;c_revenuerecognition_plan -->
<g id="edge2" class="edge">
<title>c_revenuerecognition_run:w&#45;&gt;c_revenuerecognition_plan:e</title>
<path fill="none" stroke="black" d="M268.92,-692.88C194.09,-714.93 334.74,-924 234.5,-924"/>
<polygon fill="black" stroke="black" points="275.57,-692.02 283.96,-694.57 279.53,-691.51 283.5,-691 283.5,-691 283.5,-691 279.53,-691.51 283.04,-687.43 275.57,-692.02 275.57,-692.02"/>
<ellipse fill="none" stroke="black" cx="272.39" cy="-692.43" rx="3.2" ry="3.2"/>
</g>
<!-- gl_journal -->
<g id="node4" class="node">
<title>gl_journal</title>
<g id="a_node4"><a xlink:href="../../tables/gl_journal.html" xlink:title="gl_journal" target="_top">
<polygon fill="#ffffff" stroke="transparent" points="42.5,-270 42.5,-702 198.5,-702 198.5,-270 42.5,-270"/>
<polygon fill="#f5f5f5" stroke="transparent" points="42.5,-680 42.5,-702 198.5,-702 198.5,-680 42.5,-680"/>
<polygon fill="none" stroke="black" points="42.5,-680 42.5,-702 198.5,-702 198.5,-680 42.5,-680"/>
<text text-anchor="start" x="47.5" y="-689.2" font-family="Helvetica,sans-Serif" font-weight="bold" font-size="11.00">gl_journal</text>
<text text-anchor="start" x="163.5" y="-688.2" font-family="Helvetica,sans-Serif" font-size="11.00">[table]</text>
<polygon fill="none" stroke="black" points="42.5,-658 42.5,-680 198.5,-680 198.5,-658 42.5,-658"/>
<image xlink:href="../../images/primaryKeys.png" width="11px" height="12px" preserveAspectRatio="xMinYMin meet" x="47.5" y="-675"/>
<text text-anchor="start" x="62.5" y="-666.2" font-family="Helvetica,sans-Serif" font-size="11.00">gl_journal_id</text>
<polygon fill="#ffffff" stroke="transparent" points="42.5,-636 42.5,-658 198.5,-658 198.5,-636 42.5,-636"/>
<polygon fill="none" stroke="black" points="42.5,-636 42.5,-658 198.5,-658 198.5,-636 42.5,-636"/>
<text text-anchor="start" x="62.5" y="-644.2" font-family="Helvetica,sans-Serif" font-size="11.00">ad_client_id</text>
<polygon fill="#ffffff" stroke="transparent" points="42.5,-614 42.5,-636 198.5,-636 198.5,-614 42.5,-614"/>
<polygon fill="none" stroke="black" points="42.5,-614 42.5,-636 198.5,-636 198.5,-614 42.5,-614"/>
<text text-anchor="start" x="62.5" y="-622.2" font-family="Helvetica,sans-Serif" font-size="11.00">ad_org_id</text>
<polygon fill="none" stroke="black" points="42.5,-592 42.5,-614 198.5,-614 198.5,-592 42.5,-592"/>
<image xlink:href="../../images/foreignKeys.png" width="11px" height="12px" preserveAspectRatio="xMinYMin meet" x="47.5" y="-609"/>
<text text-anchor="start" x="62.5" y="-600.2" font-family="Helvetica,sans-Serif" font-size="11.00">c_acctschema_id</text>
<polygon fill="none" stroke="black" points="42.5,-570 42.5,-592 198.5,-592 198.5,-570 42.5,-570"/>
<image xlink:href="../../images/foreignKeys.png" width="11px" height="12px" preserveAspectRatio="xMinYMin meet" x="47.5" y="-587"/>
<text text-anchor="start" x="62.5" y="-578.2" font-family="Helvetica,sans-Serif" font-size="11.00">c_doctype_id</text>
<polygon fill="#ffffff" stroke="transparent" points="42.5,-548 42.5,-570 198.5,-570 198.5,-548 42.5,-548"/>
<polygon fill="none" stroke="black" points="42.5,-548 42.5,-570 198.5,-570 198.5,-548 42.5,-548"/>
<text text-anchor="start" x="62.5" y="-556.2" font-family="Helvetica,sans-Serif" font-size="11.00">documentno</text>
<polygon fill="none" stroke="black" points="42.5,-526 42.5,-548 198.5,-548 198.5,-526 42.5,-526"/>
<image xlink:href="../../images/foreignKeys.png" width="11px" height="12px" preserveAspectRatio="xMinYMin meet" x="47.5" y="-543"/>
<text text-anchor="start" x="62.5" y="-534.2" font-family="Helvetica,sans-Serif" font-size="11.00">gl_budget_id</text>
<polygon fill="none" stroke="black" points="42.5,-504 42.5,-526 198.5,-526 198.5,-504 42.5,-504"/>
<image xlink:href="../../images/foreignKeys.png" width="11px" height="12px" preserveAspectRatio="xMinYMin meet" x="47.5" y="-521"/>
<text text-anchor="start" x="62.5" y="-512.2" font-family="Helvetica,sans-Serif" font-size="11.00">gl_category_id</text>
<polygon fill="#ffffff" stroke="transparent" points="42.5,-482 42.5,-504 198.5,-504 198.5,-482 42.5,-482"/>
<polygon fill="none" stroke="black" points="42.5,-482 42.5,-504 198.5,-504 198.5,-482 42.5,-482"/>
<image xlink:href="../../images/foreignKeys.png" width="11px" height="12px" preserveAspectRatio="xMinYMin meet" x="47.5" y="-499"/>
<text text-anchor="start" x="62.5" y="-490.2" font-family="Helvetica,sans-Serif" font-size="11.00">c_period_id</text>
<polygon fill="none" stroke="black" points="42.5,-460 42.5,-482 198.5,-482 198.5,-460 42.5,-460"/>
<image xlink:href="../../images/foreignKeys.png" width="11px" height="12px" preserveAspectRatio="xMinYMin meet" x="47.5" y="-477"/>
<text text-anchor="start" x="62.5" y="-468.2" font-family="Helvetica,sans-Serif" font-size="11.00">c_currency_id</text>
<polygon fill="none" stroke="black" points="42.5,-438 42.5,-460 198.5,-460 198.5,-438 42.5,-438"/>
<image xlink:href="../../images/foreignKeys.png" width="11px" height="12px" preserveAspectRatio="xMinYMin meet" x="47.5" y="-455"/>
<text text-anchor="start" x="62.5" y="-446.2" font-family="Helvetica,sans-Serif" font-size="11.00">gl_journalbatch_id</text>
<polygon fill="#ffffff" stroke="transparent" points="42.5,-416 42.5,-438 198.5,-438 198.5,-416 42.5,-416"/>
<polygon fill="none" stroke="black" points="42.5,-416 42.5,-438 198.5,-438 198.5,-416 42.5,-416"/>
<text text-anchor="start" x="62.5" y="-424.2" font-family="Helvetica,sans-Serif" font-size="11.00">processed</text>
<polygon fill="#ffffff" stroke="transparent" points="42.5,-394 42.5,-416 198.5,-416 198.5,-394 42.5,-394"/>
<polygon fill="none" stroke="black" points="42.5,-394 42.5,-416 198.5,-416 198.5,-394 42.5,-394"/>
<text text-anchor="start" x="62.5" y="-402.2" font-family="Helvetica,sans-Serif" font-size="11.00">posted</text>
<polygon fill="none" stroke="black" points="42.5,-372 42.5,-394 198.5,-394 198.5,-372 42.5,-372"/>
<image xlink:href="../../images/foreignKeys.png" width="11px" height="12px" preserveAspectRatio="xMinYMin meet" x="47.5" y="-389"/>
<text text-anchor="start" x="62.5" y="-380.2" font-family="Helvetica,sans-Serif" font-size="11.00">c_conversiontype_id</text>
<polygon fill="none" stroke="black" points="42.5,-350 42.5,-372 198.5,-372 198.5,-350 42.5,-350"/>
<image xlink:href="../../images/foreignKeys.png" width="11px" height="12px" preserveAspectRatio="xMinYMin meet" x="47.5" y="-367"/>
<text text-anchor="start" x="62.5" y="-358.2" font-family="Helvetica,sans-Serif" font-size="11.00">reversal_id</text>
<polygon fill="#ffffff" stroke="transparent" points="42.5,-328 42.5,-350 198.5,-350 198.5,-328 42.5,-328"/>
<polygon fill="none" stroke="black" points="42.5,-328 42.5,-350 198.5,-350 198.5,-328 42.5,-328"/>
<text text-anchor="start" x="62.5" y="-336.2" font-family="Helvetica,sans-Serif" font-size="11.00">processedon</text>
<polygon fill="#ffffff" stroke="transparent" points="42.5,-306 42.5,-328 198.5,-328 198.5,-306 42.5,-306"/>
<polygon fill="none" stroke="black" points="42.5,-306 42.5,-328 198.5,-328 198.5,-306 42.5,-306"/>
<text text-anchor="start" x="62.5" y="-314.2" font-family="Helvetica,sans-Serif" font-size="11.00">gl_journal_uu</text>
<polygon fill="none" stroke="black" points="42.5,-288 42.5,-306 198.5,-306 198.5,-288 42.5,-288"/>
<text text-anchor="start" x="45.5" y="-294.2" font-family="Helvetica,sans-Serif" font-size="11.00">...</text>
<polygon fill="#ffffff" stroke="transparent" points="42.5,-270 42.5,-288 100.5,-288 100.5,-270 42.5,-270"/>
<polygon fill="none" stroke="black" points="42.5,-270 42.5,-288 100.5,-288 100.5,-270 42.5,-270"/>
<text text-anchor="start" x="45.5" y="-276.2" font-family="Helvetica,sans-Serif" font-size="11.00">&lt; 9</text>
<polygon fill="#ffffff" stroke="transparent" points="100.5,-270 100.5,-288 157.5,-288 157.5,-270 100.5,-270"/>
<polygon fill="none" stroke="black" points="100.5,-270 100.5,-288 157.5,-288 157.5,-270 100.5,-270"/>
<text text-anchor="start" x="121.5" y="-276.2" font-family="Helvetica,sans-Serif" font-size="11.00">0 rows</text>
<polygon fill="#ffffff" stroke="transparent" points="157.5,-270 157.5,-288 198.5,-288 198.5,-270 157.5,-270"/>
<polygon fill="none" stroke="black" points="157.5,-270 157.5,-288 198.5,-288 198.5,-270 157.5,-270"/>
<text text-anchor="start" x="179.5" y="-276.2" font-family="Helvetica,sans-Serif" font-size="11.00">5 &gt;</text>
</a>
</g>
</g>
<!-- c_revenuerecognition_run&#45;&gt;gl_journal -->
<g id="edge3" class="edge">
<title>c_revenuerecognition_run:w&#45;&gt;gl_journal:e</title>
<path fill="none" stroke="black" d="M268.9,-669C242.88,-669 231.44,-669 199.5,-669"/>
<polygon fill="black" stroke="black" points="275.5,-669 283.5,-672.6 279.5,-669 283.5,-669 283.5,-669 283.5,-669 279.5,-669 283.5,-665.4 275.5,-669 275.5,-669"/>
<ellipse fill="none" stroke="black" cx="272.3" cy="-669" rx="3.2" ry="3.2"/>
</g>
</g>
</svg>
