<?xml version="1.0" encoding="UTF-8" standalone="no"?>
<!DOCTYPE svg PUBLIC "-//W3C//DTD SVG 1.1//EN"
 "http://www.w3.org/Graphics/SVG/1.1/DTD/svg11.dtd">
<!-- Generated by graphviz version 2.43.0 (0)
 -->
<!-- Title: oneDegreeRelationshipsDiagram Pages: 1 -->
<svg width="721pt" height="796pt"
 viewBox="0.00 0.00 721.00 796.00" xmlns="http://www.w3.org/2000/svg" xmlns:xlink="http://www.w3.org/1999/xlink">
<g id="graph0" class="graph" transform="scale(1 1) rotate(0) translate(4 792)">
<title>oneDegreeRelationshipsDiagram</title>
<polygon fill="#ffffff" stroke="transparent" points="-4,4 -4,-792 717,-792 717,4 -4,4"/>
<text text-anchor="middle" x="71.5" y="-7.2" font-family="Helvetica,sans-Serif" font-size="11.00">Generated by SchemaSpy</text>
<!-- c_rfq -->
<g id="node1" class="node">
<title>c_rfq</title>
<g id="a_node1"><a xlink:href="../../tables/c_rfq.html" xlink:title="c_rfq" target="_top">
<polygon fill="#ffffff" stroke="transparent" points="524,-528 524,-784 699,-784 699,-528 524,-528"/>
<polygon fill="#f5f5f5" stroke="transparent" points="524.5,-762 524.5,-784 699.5,-784 699.5,-762 524.5,-762"/>
<polygon fill="none" stroke="black" points="524.5,-762 524.5,-784 699.5,-784 699.5,-762 524.5,-762"/>
<text text-anchor="start" x="529.5" y="-771.2" font-family="Helvetica,sans-Serif" font-weight="bold" font-size="11.00">c_rfq</text>
<text text-anchor="start" x="664.5" y="-770.2" font-family="Helvetica,sans-Serif" font-size="11.00">[table]</text>
<polygon fill="none" stroke="black" points="524.5,-740 524.5,-762 699.5,-762 699.5,-740 524.5,-740"/>
<image xlink:href="../../images/primaryKeys.png" width="11px" height="12px" preserveAspectRatio="xMinYMin meet" x="529.5" y="-757"/>
<text text-anchor="start" x="544.5" y="-748.2" font-family="Helvetica,sans-Serif" font-size="11.00">c_rfq_id</text>
<polygon fill="none" stroke="black" points="524.5,-718 524.5,-740 699.5,-740 699.5,-718 524.5,-718"/>
<image xlink:href="../../images/foreignKeys.png" width="11px" height="12px" preserveAspectRatio="xMinYMin meet" x="529.5" y="-735"/>
<text text-anchor="start" x="544.5" y="-726.2" font-family="Helvetica,sans-Serif" font-size="11.00">c_rfq_topic_id</text>
<polygon fill="none" stroke="black" points="524.5,-696 524.5,-718 699.5,-718 699.5,-696 524.5,-696"/>
<image xlink:href="../../images/foreignKeys.png" width="11px" height="12px" preserveAspectRatio="xMinYMin meet" x="529.5" y="-713"/>
<text text-anchor="start" x="544.5" y="-704.2" font-family="Helvetica,sans-Serif" font-size="11.00">c_currency_id</text>
<polygon fill="none" stroke="black" points="524.5,-674 524.5,-696 699.5,-696 699.5,-674 524.5,-674"/>
<image xlink:href="../../images/foreignKeys.png" width="11px" height="12px" preserveAspectRatio="xMinYMin meet" x="529.5" y="-691"/>
<text text-anchor="start" x="544.5" y="-682.2" font-family="Helvetica,sans-Serif" font-size="11.00">c_bpartner_id</text>
<polygon fill="none" stroke="black" points="524.5,-652 524.5,-674 699.5,-674 699.5,-652 524.5,-652"/>
<image xlink:href="../../images/foreignKeys.png" width="11px" height="12px" preserveAspectRatio="xMinYMin meet" x="529.5" y="-669"/>
<text text-anchor="start" x="544.5" y="-660.2" font-family="Helvetica,sans-Serif" font-size="11.00">c_bpartner_location_id</text>
<polygon fill="none" stroke="black" points="524.5,-630 524.5,-652 699.5,-652 699.5,-630 524.5,-630"/>
<image xlink:href="../../images/foreignKeys.png" width="11px" height="12px" preserveAspectRatio="xMinYMin meet" x="529.5" y="-647"/>
<text text-anchor="start" x="544.5" y="-638.2" font-family="Helvetica,sans-Serif" font-size="11.00">ad_user_id</text>
<polygon fill="none" stroke="black" points="524.5,-608 524.5,-630 699.5,-630 699.5,-608 524.5,-608"/>
<image xlink:href="../../images/foreignKeys.png" width="11px" height="12px" preserveAspectRatio="xMinYMin meet" x="529.5" y="-625"/>
<text text-anchor="start" x="544.5" y="-616.2" font-family="Helvetica,sans-Serif" font-size="11.00">salesrep_id</text>
<polygon fill="none" stroke="black" points="524.5,-586 524.5,-608 699.5,-608 699.5,-586 524.5,-586"/>
<image xlink:href="../../images/foreignKeys.png" width="11px" height="12px" preserveAspectRatio="xMinYMin meet" x="529.5" y="-603"/>
<text text-anchor="start" x="544.5" y="-594.2" font-family="Helvetica,sans-Serif" font-size="11.00">c_order_id</text>
<polygon fill="#ffffff" stroke="transparent" points="524.5,-564 524.5,-586 699.5,-586 699.5,-564 524.5,-564"/>
<polygon fill="none" stroke="black" points="524.5,-564 524.5,-586 699.5,-586 699.5,-564 524.5,-564"/>
<text text-anchor="start" x="544.5" y="-572.2" font-family="Helvetica,sans-Serif" font-size="11.00">c_rfq_uu</text>
<polygon fill="none" stroke="black" points="524.5,-546 524.5,-564 699.5,-564 699.5,-546 524.5,-546"/>
<text text-anchor="start" x="527.5" y="-552.2" font-family="Helvetica,sans-Serif" font-size="11.00">...</text>
<polygon fill="#ffffff" stroke="transparent" points="524.5,-528 524.5,-546 592.5,-546 592.5,-528 524.5,-528"/>
<polygon fill="none" stroke="black" points="524.5,-528 524.5,-546 592.5,-546 592.5,-528 524.5,-528"/>
<text text-anchor="start" x="527.5" y="-534.2" font-family="Helvetica,sans-Serif" font-size="11.00">&lt; 7</text>
<polygon fill="#ffffff" stroke="transparent" points="592.5,-528 592.5,-546 654.5,-546 654.5,-528 592.5,-528"/>
<polygon fill="none" stroke="black" points="592.5,-528 592.5,-546 654.5,-546 654.5,-528 592.5,-528"/>
<text text-anchor="start" x="618.5" y="-534.2" font-family="Helvetica,sans-Serif" font-size="11.00">0 rows</text>
<polygon fill="#ffffff" stroke="transparent" points="654.5,-528 654.5,-546 699.5,-546 699.5,-528 654.5,-528"/>
<polygon fill="none" stroke="black" points="654.5,-528 654.5,-546 699.5,-546 699.5,-528 654.5,-528"/>
<text text-anchor="start" x="680.5" y="-534.2" font-family="Helvetica,sans-Serif" font-size="11.00">2 &gt;</text>
</a>
</g>
</g>
<!-- c_rfq_topic -->
<g id="node2" class="node">
<title>c_rfq_topic</title>
<g id="a_node2"><a xlink:href="../../tables/c_rfq_topic.html" xlink:title="c_rfq_topic" target="_top">
<polygon fill="#ffffff" stroke="transparent" points="241,-295 241,-625 469,-625 469,-295 241,-295"/>
<polygon fill="#f5f5f5" stroke="transparent" points="243,-601 243,-623 467,-623 467,-601 243,-601"/>
<polygon fill="none" stroke="black" points="243,-601 243,-623 467,-623 467,-601 243,-601"/>
<text text-anchor="start" x="248" y="-610.2" font-family="Helvetica,sans-Serif" font-weight="bold" font-size="11.00">c_rfq_topic</text>
<text text-anchor="start" x="432" y="-609.2" font-family="Helvetica,sans-Serif" font-size="11.00">[table]</text>
<polygon fill="none" stroke="black" points="243,-579 243,-601 384,-601 384,-579 243,-579"/>
<image xlink:href="../../images/primaryKeys.png" width="11px" height="12px" preserveAspectRatio="xMinYMin meet" x="248" y="-596"/>
<text text-anchor="start" x="263" y="-587.2" font-family="Helvetica,sans-Serif" font-size="11.00">c_rfq_topic_id</text>
<polygon fill="none" stroke="black" points="384,-579 384,-601 467,-601 467,-579 384,-579"/>
<text text-anchor="start" x="387" y="-587.2" font-family="Helvetica,sans-Serif" font-size="11.00">numeric[10]</text>
<polygon fill="none" stroke="black" points="243,-557 243,-579 384,-579 384,-557 243,-557"/>
<text text-anchor="start" x="263" y="-565.2" font-family="Helvetica,sans-Serif" font-size="11.00">ad_client_id</text>
<polygon fill="none" stroke="black" points="384,-557 384,-579 467,-579 467,-557 384,-557"/>
<text text-anchor="start" x="387" y="-565.2" font-family="Helvetica,sans-Serif" font-size="11.00">numeric[10]</text>
<polygon fill="none" stroke="black" points="243,-535 243,-557 384,-557 384,-535 243,-535"/>
<text text-anchor="start" x="263" y="-543.2" font-family="Helvetica,sans-Serif" font-size="11.00">ad_org_id</text>
<polygon fill="none" stroke="black" points="384,-535 384,-557 467,-557 467,-535 384,-535"/>
<text text-anchor="start" x="387" y="-543.2" font-family="Helvetica,sans-Serif" font-size="11.00">numeric[10]</text>
<polygon fill="none" stroke="black" points="243,-513 243,-535 384,-535 384,-513 243,-513"/>
<text text-anchor="start" x="263" y="-521.2" font-family="Helvetica,sans-Serif" font-size="11.00">isactive</text>
<polygon fill="none" stroke="black" points="384,-513 384,-535 467,-535 467,-513 384,-513"/>
<text text-anchor="start" x="387" y="-521.2" font-family="Helvetica,sans-Serif" font-size="11.00">bpchar[1]</text>
<polygon fill="none" stroke="black" points="243,-491 243,-513 384,-513 384,-491 243,-491"/>
<text text-anchor="start" x="263" y="-499.2" font-family="Helvetica,sans-Serif" font-size="11.00">created</text>
<polygon fill="none" stroke="black" points="384,-491 384,-513 467,-513 467,-491 384,-491"/>
<text text-anchor="start" x="387" y="-499.2" font-family="Helvetica,sans-Serif" font-size="11.00">timestamp[29,6]</text>
<polygon fill="none" stroke="black" points="243,-469 243,-491 384,-491 384,-469 243,-469"/>
<text text-anchor="start" x="263" y="-477.2" font-family="Helvetica,sans-Serif" font-size="11.00">createdby</text>
<polygon fill="none" stroke="black" points="384,-469 384,-491 467,-491 467,-469 384,-469"/>
<text text-anchor="start" x="387" y="-477.2" font-family="Helvetica,sans-Serif" font-size="11.00">numeric[10]</text>
<polygon fill="none" stroke="black" points="243,-447 243,-469 384,-469 384,-447 243,-447"/>
<text text-anchor="start" x="263" y="-455.2" font-family="Helvetica,sans-Serif" font-size="11.00">updated</text>
<polygon fill="none" stroke="black" points="384,-447 384,-469 467,-469 467,-447 384,-447"/>
<text text-anchor="start" x="387" y="-455.2" font-family="Helvetica,sans-Serif" font-size="11.00">timestamp[29,6]</text>
<polygon fill="none" stroke="black" points="243,-425 243,-447 384,-447 384,-425 243,-425"/>
<text text-anchor="start" x="263" y="-433.2" font-family="Helvetica,sans-Serif" font-size="11.00">updatedby</text>
<polygon fill="none" stroke="black" points="384,-425 384,-447 467,-447 467,-425 384,-425"/>
<text text-anchor="start" x="387" y="-433.2" font-family="Helvetica,sans-Serif" font-size="11.00">numeric[10]</text>
<polygon fill="none" stroke="black" points="243,-403 243,-425 384,-425 384,-403 243,-403"/>
<text text-anchor="start" x="263" y="-411.2" font-family="Helvetica,sans-Serif" font-size="11.00">name</text>
<polygon fill="none" stroke="black" points="384,-403 384,-425 467,-425 467,-403 384,-403"/>
<text text-anchor="start" x="387" y="-411.2" font-family="Helvetica,sans-Serif" font-size="11.00">varchar[60]</text>
<polygon fill="none" stroke="black" points="243,-381 243,-403 384,-403 384,-381 243,-381"/>
<text text-anchor="start" x="263" y="-389.2" font-family="Helvetica,sans-Serif" font-size="11.00">description</text>
<polygon fill="none" stroke="black" points="384,-381 384,-403 467,-403 467,-381 384,-381"/>
<text text-anchor="start" x="387" y="-389.2" font-family="Helvetica,sans-Serif" font-size="11.00">varchar[255]</text>
<polygon fill="none" stroke="black" points="243,-359 243,-381 384,-381 384,-359 243,-359"/>
<text text-anchor="start" x="263" y="-367.2" font-family="Helvetica,sans-Serif" font-size="11.00">isselfservice</text>
<polygon fill="none" stroke="black" points="384,-359 384,-381 467,-381 467,-359 384,-359"/>
<text text-anchor="start" x="387" y="-367.2" font-family="Helvetica,sans-Serif" font-size="11.00">bpchar[1]</text>
<polygon fill="none" stroke="black" points="243,-337 243,-359 384,-359 384,-337 243,-337"/>
<image xlink:href="../../images/foreignKeys.png" width="11px" height="12px" preserveAspectRatio="xMinYMin meet" x="248" y="-354"/>
<text text-anchor="start" x="263" y="-345.2" font-family="Helvetica,sans-Serif" font-size="11.00">ad_printformat_id</text>
<polygon fill="none" stroke="black" points="384,-337 384,-359 467,-359 467,-337 384,-337"/>
<text text-anchor="start" x="387" y="-345.2" font-family="Helvetica,sans-Serif" font-size="11.00">numeric[10]</text>
<polygon fill="#ffffff" stroke="transparent" points="243,-315 243,-337 384,-337 384,-315 243,-315"/>
<polygon fill="none" stroke="black" points="243,-315 243,-337 384,-337 384,-315 243,-315"/>
<text text-anchor="start" x="263" y="-323.2" font-family="Helvetica,sans-Serif" font-size="11.00">c_rfq_topic_uu</text>
<polygon fill="none" stroke="black" points="384,-315 384,-337 467,-337 467,-315 384,-315"/>
<text text-anchor="start" x="387" y="-323.2" font-family="Helvetica,sans-Serif" font-size="11.00">varchar[36]</text>
<polygon fill="#ffffff" stroke="transparent" points="243,-297 243,-315 305,-315 305,-297 243,-297"/>
<polygon fill="none" stroke="black" points="243,-297 243,-315 305,-315 305,-297 243,-297"/>
<text text-anchor="start" x="246" y="-303.2" font-family="Helvetica,sans-Serif" font-size="11.00">&lt; 1</text>
<polygon fill="#ffffff" stroke="transparent" points="305,-297 305,-315 384,-315 384,-297 305,-297"/>
<polygon fill="none" stroke="black" points="305,-297 305,-315 384,-315 384,-297 305,-297"/>
<text text-anchor="start" x="348" y="-303.2" font-family="Helvetica,sans-Serif" font-size="11.00">0 rows</text>
<polygon fill="#ffffff" stroke="transparent" points="384,-297 384,-315 467,-315 467,-297 384,-297"/>
<polygon fill="none" stroke="black" points="384,-297 384,-315 467,-315 467,-297 384,-297"/>
<text text-anchor="start" x="448" y="-303.2" font-family="Helvetica,sans-Serif" font-size="11.00">2 &gt;</text>
<polygon fill="none" stroke="black" stroke-width="2" points="242,-296 242,-624 468,-624 468,-296 242,-296"/>
</a>
</g>
</g>
<!-- c_rfq&#45;&gt;c_rfq_topic -->
<g id="edge1" class="edge">
<title>c_rfq:w&#45;&gt;c_rfq_topic:e</title>
<path fill="none" stroke="black" d="M509.36,-726.1C469.24,-706.14 528.8,-590 468,-590"/>
<polygon fill="black" stroke="black" points="515.66,-727.39 522.78,-732.53 519.58,-728.2 523.5,-729 523.5,-729 523.5,-729 519.58,-728.2 524.22,-725.47 515.66,-727.39 515.66,-727.39"/>
<ellipse fill="none" stroke="black" cx="512.53" cy="-726.75" rx="3.2" ry="3.2"/>
</g>
<!-- ad_printformat -->
<g id="node3" class="node">
<title>ad_printformat</title>
<g id="a_node3"><a xlink:href="../../tables/ad_printformat.html" xlink:title="ad_printformat" target="_top">
<polygon fill="#ffffff" stroke="transparent" points="8,-37 8,-381 192,-381 192,-37 8,-37"/>
<polygon fill="#f5f5f5" stroke="transparent" points="8,-359 8,-381 192,-381 192,-359 8,-359"/>
<polygon fill="none" stroke="black" points="8,-359 8,-381 192,-381 192,-359 8,-359"/>
<text text-anchor="start" x="13" y="-368.2" font-family="Helvetica,sans-Serif" font-weight="bold" font-size="11.00">ad_printformat</text>
<text text-anchor="start" x="157" y="-367.2" font-family="Helvetica,sans-Serif" font-size="11.00">[table]</text>
<polygon fill="none" stroke="black" points="8,-337 8,-359 192,-359 192,-337 8,-337"/>
<image xlink:href="../../images/primaryKeys.png" width="11px" height="12px" preserveAspectRatio="xMinYMin meet" x="13" y="-354"/>
<text text-anchor="start" x="28" y="-345.2" font-family="Helvetica,sans-Serif" font-size="11.00">ad_printformat_id</text>
<polygon fill="#ffffff" stroke="transparent" points="8,-315 8,-337 192,-337 192,-315 8,-315"/>
<polygon fill="none" stroke="black" points="8,-315 8,-337 192,-337 192,-315 8,-315"/>
<text text-anchor="start" x="28" y="-323.2" font-family="Helvetica,sans-Serif" font-size="11.00">ad_client_id</text>
<polygon fill="#ffffff" stroke="transparent" points="8,-293 8,-315 192,-315 192,-293 8,-293"/>
<polygon fill="none" stroke="black" points="8,-293 8,-315 192,-315 192,-293 8,-293"/>
<text text-anchor="start" x="28" y="-301.2" font-family="Helvetica,sans-Serif" font-size="11.00">name</text>
<polygon fill="#ffffff" stroke="transparent" points="8,-271 8,-293 192,-293 192,-271 8,-271"/>
<polygon fill="none" stroke="black" points="8,-271 8,-293 192,-293 192,-271 8,-271"/>
<image xlink:href="../../images/foreignKeys.png" width="11px" height="12px" preserveAspectRatio="xMinYMin meet" x="13" y="-288"/>
<text text-anchor="start" x="28" y="-279.2" font-family="Helvetica,sans-Serif" font-size="11.00">ad_table_id</text>
<polygon fill="none" stroke="black" points="8,-249 8,-271 192,-271 192,-249 8,-249"/>
<image xlink:href="../../images/foreignKeys.png" width="11px" height="12px" preserveAspectRatio="xMinYMin meet" x="13" y="-266"/>
<text text-anchor="start" x="28" y="-257.2" font-family="Helvetica,sans-Serif" font-size="11.00">ad_printpaper_id</text>
<polygon fill="none" stroke="black" points="8,-227 8,-249 192,-249 192,-227 8,-227"/>
<image xlink:href="../../images/foreignKeys.png" width="11px" height="12px" preserveAspectRatio="xMinYMin meet" x="13" y="-244"/>
<text text-anchor="start" x="28" y="-235.2" font-family="Helvetica,sans-Serif" font-size="11.00">ad_printcolor_id</text>
<polygon fill="none" stroke="black" points="8,-205 8,-227 192,-227 192,-205 8,-205"/>
<image xlink:href="../../images/foreignKeys.png" width="11px" height="12px" preserveAspectRatio="xMinYMin meet" x="13" y="-222"/>
<text text-anchor="start" x="28" y="-213.2" font-family="Helvetica,sans-Serif" font-size="11.00">ad_printfont_id</text>
<polygon fill="none" stroke="black" points="8,-183 8,-205 192,-205 192,-183 8,-183"/>
<image xlink:href="../../images/foreignKeys.png" width="11px" height="12px" preserveAspectRatio="xMinYMin meet" x="13" y="-200"/>
<text text-anchor="start" x="28" y="-191.2" font-family="Helvetica,sans-Serif" font-size="11.00">ad_reportview_id</text>
<polygon fill="none" stroke="black" points="8,-161 8,-183 192,-183 192,-161 8,-161"/>
<image xlink:href="../../images/foreignKeys.png" width="11px" height="12px" preserveAspectRatio="xMinYMin meet" x="13" y="-178"/>
<text text-anchor="start" x="28" y="-169.2" font-family="Helvetica,sans-Serif" font-size="11.00">ad_printtableformat_id</text>
<polygon fill="none" stroke="black" points="8,-139 8,-161 192,-161 192,-139 8,-139"/>
<image xlink:href="../../images/foreignKeys.png" width="11px" height="12px" preserveAspectRatio="xMinYMin meet" x="13" y="-156"/>
<text text-anchor="start" x="28" y="-147.2" font-family="Helvetica,sans-Serif" font-size="11.00">jasperprocess_id</text>
<polygon fill="#ffffff" stroke="transparent" points="8,-117 8,-139 192,-139 192,-117 8,-117"/>
<polygon fill="none" stroke="black" points="8,-117 8,-139 192,-139 192,-117 8,-117"/>
<text text-anchor="start" x="28" y="-125.2" font-family="Helvetica,sans-Serif" font-size="11.00">ad_printformat_uu</text>
<polygon fill="none" stroke="black" points="8,-95 8,-117 192,-117 192,-95 8,-95"/>
<image xlink:href="../../images/foreignKeys.png" width="11px" height="12px" preserveAspectRatio="xMinYMin meet" x="13" y="-112"/>
<text text-anchor="start" x="28" y="-103.2" font-family="Helvetica,sans-Serif" font-size="11.00">ad_window_id</text>
<polygon fill="none" stroke="black" points="8,-73 8,-95 192,-95 192,-73 8,-73"/>
<image xlink:href="../../images/foreignKeys.png" width="11px" height="12px" preserveAspectRatio="xMinYMin meet" x="13" y="-90"/>
<text text-anchor="start" x="28" y="-81.2" font-family="Helvetica,sans-Serif" font-size="11.00">ad_printheaderfooter_id</text>
<polygon fill="none" stroke="black" points="8,-55 8,-73 192,-73 192,-55 8,-55"/>
<text text-anchor="start" x="11" y="-61.2" font-family="Helvetica,sans-Serif" font-size="11.00">...</text>
<polygon fill="#ffffff" stroke="transparent" points="8,-37 8,-55 71,-55 71,-37 8,-37"/>
<polygon fill="none" stroke="black" points="8,-37 8,-55 71,-55 71,-37 8,-37"/>
<text text-anchor="start" x="11" y="-43.2" font-family="Helvetica,sans-Serif" font-size="11.00">&lt; 9</text>
<polygon fill="#ffffff" stroke="transparent" points="71,-37 71,-55 143,-55 143,-37 71,-37"/>
<polygon fill="none" stroke="black" points="71,-37 71,-55 143,-55 143,-37 71,-37"/>
<text text-anchor="start" x="95" y="-43.2" font-family="Helvetica,sans-Serif" font-size="11.00">336 rows</text>
<polygon fill="#ffffff" stroke="transparent" points="143,-37 143,-55 192,-55 192,-37 143,-37"/>
<polygon fill="none" stroke="black" points="143,-37 143,-55 192,-55 192,-37 143,-37"/>
<text text-anchor="start" x="167" y="-43.2" font-family="Helvetica,sans-Serif" font-size="11.00">25 &gt;</text>
</a>
</g>
</g>
<!-- c_rfq_topic&#45;&gt;ad_printformat -->
<g id="edge2" class="edge">
<title>c_rfq_topic:w&#45;&gt;ad_printformat:e</title>
<path fill="none" stroke="black" d="M227.49,-348C216.18,-348 208.99,-348 193,-348"/>
<polygon fill="black" stroke="black" points="234,-348 242,-351.6 238,-348 242,-348 242,-348 242,-348 238,-348 242,-344.4 234,-348 234,-348"/>
<ellipse fill="none" stroke="black" cx="230.8" cy="-348" rx="3.2" ry="3.2"/>
</g>
<!-- c_rfq_topicsubscriber -->
<g id="node4" class="node">
<title>c_rfq_topicsubscriber</title>
<g id="a_node4"><a xlink:href="../../tables/c_rfq_topicsubscriber.html" xlink:title="c_rfq_topicsubscriber" target="_top">
<polygon fill="#ffffff" stroke="transparent" points="518,-317 518,-507 705,-507 705,-317 518,-317"/>
<polygon fill="#f5f5f5" stroke="transparent" points="518.5,-485 518.5,-507 705.5,-507 705.5,-485 518.5,-485"/>
<polygon fill="none" stroke="black" points="518.5,-485 518.5,-507 705.5,-507 705.5,-485 518.5,-485"/>
<text text-anchor="start" x="523.5" y="-494.2" font-family="Helvetica,sans-Serif" font-weight="bold" font-size="11.00">c_rfq_topicsubscriber</text>
<text text-anchor="start" x="670.5" y="-493.2" font-family="Helvetica,sans-Serif" font-size="11.00">[table]</text>
<polygon fill="none" stroke="black" points="518.5,-463 518.5,-485 705.5,-485 705.5,-463 518.5,-463"/>
<image xlink:href="../../images/primaryKeys.png" width="11px" height="12px" preserveAspectRatio="xMinYMin meet" x="523.5" y="-480"/>
<text text-anchor="start" x="538.5" y="-471.2" font-family="Helvetica,sans-Serif" font-size="11.00">c_rfq_topicsubscriber_id</text>
<polygon fill="none" stroke="black" points="518.5,-441 518.5,-463 705.5,-463 705.5,-441 518.5,-441"/>
<image xlink:href="../../images/foreignKeys.png" width="11px" height="12px" preserveAspectRatio="xMinYMin meet" x="523.5" y="-458"/>
<text text-anchor="start" x="538.5" y="-449.2" font-family="Helvetica,sans-Serif" font-size="11.00">c_rfq_topic_id</text>
<polygon fill="none" stroke="black" points="518.5,-419 518.5,-441 705.5,-441 705.5,-419 518.5,-419"/>
<image xlink:href="../../images/foreignKeys.png" width="11px" height="12px" preserveAspectRatio="xMinYMin meet" x="523.5" y="-436"/>
<text text-anchor="start" x="538.5" y="-427.2" font-family="Helvetica,sans-Serif" font-size="11.00">c_bpartner_id</text>
<polygon fill="none" stroke="black" points="518.5,-397 518.5,-419 705.5,-419 705.5,-397 518.5,-397"/>
<image xlink:href="../../images/foreignKeys.png" width="11px" height="12px" preserveAspectRatio="xMinYMin meet" x="523.5" y="-414"/>
<text text-anchor="start" x="538.5" y="-405.2" font-family="Helvetica,sans-Serif" font-size="11.00">c_bpartner_location_id</text>
<polygon fill="none" stroke="black" points="518.5,-375 518.5,-397 705.5,-397 705.5,-375 518.5,-375"/>
<image xlink:href="../../images/foreignKeys.png" width="11px" height="12px" preserveAspectRatio="xMinYMin meet" x="523.5" y="-392"/>
<text text-anchor="start" x="538.5" y="-383.2" font-family="Helvetica,sans-Serif" font-size="11.00">ad_user_id</text>
<polygon fill="#ffffff" stroke="transparent" points="518.5,-353 518.5,-375 705.5,-375 705.5,-353 518.5,-353"/>
<polygon fill="none" stroke="black" points="518.5,-353 518.5,-375 705.5,-375 705.5,-353 518.5,-353"/>
<text text-anchor="start" x="538.5" y="-361.2" font-family="Helvetica,sans-Serif" font-size="11.00">c_rfq_topicsubscriber_uu</text>
<polygon fill="none" stroke="black" points="518.5,-335 518.5,-353 705.5,-353 705.5,-335 518.5,-335"/>
<text text-anchor="start" x="521.5" y="-341.2" font-family="Helvetica,sans-Serif" font-size="11.00">...</text>
<polygon fill="#ffffff" stroke="transparent" points="518.5,-317 518.5,-335 592.5,-335 592.5,-317 518.5,-317"/>
<polygon fill="none" stroke="black" points="518.5,-317 518.5,-335 592.5,-335 592.5,-317 518.5,-317"/>
<text text-anchor="start" x="521.5" y="-323.2" font-family="Helvetica,sans-Serif" font-size="11.00">&lt; 4</text>
<polygon fill="#ffffff" stroke="transparent" points="592.5,-317 592.5,-335 657.5,-335 657.5,-317 592.5,-317"/>
<polygon fill="none" stroke="black" points="592.5,-317 592.5,-335 657.5,-335 657.5,-317 592.5,-317"/>
<text text-anchor="start" x="621.5" y="-323.2" font-family="Helvetica,sans-Serif" font-size="11.00">0 rows</text>
<polygon fill="#ffffff" stroke="transparent" points="657.5,-317 657.5,-335 705.5,-335 705.5,-317 657.5,-317"/>
<polygon fill="none" stroke="black" points="657.5,-317 657.5,-335 705.5,-335 705.5,-317 657.5,-317"/>
<text text-anchor="start" x="686.5" y="-323.2" font-family="Helvetica,sans-Serif" font-size="11.00">1 &gt;</text>
</a>
</g>
</g>
<!-- c_rfq_topicsubscriber&#45;&gt;c_rfq_topic -->
<g id="edge3" class="edge">
<title>c_rfq_topicsubscriber:w&#45;&gt;c_rfq_topic:e</title>
<path fill="none" stroke="black" d="M503.26,-455.14C465.68,-475.68 527.31,-590 468,-590"/>
<polygon fill="black" stroke="black" points="509.69,-453.72 518.28,-455.52 513.59,-452.86 517.5,-452 517.5,-452 517.5,-452 513.59,-452.86 516.72,-448.48 509.69,-453.72 509.69,-453.72"/>
<ellipse fill="none" stroke="black" cx="506.56" cy="-454.41" rx="3.2" ry="3.2"/>
</g>
</g>
</svg>
