<?xml version="1.0" encoding="UTF-8" standalone="no"?>
<!DOCTYPE svg PUBLIC "-//W3C//DTD SVG 1.1//EN"
 "http://www.w3.org/Graphics/SVG/1.1/DTD/svg11.dtd">
<!-- Generated by graphviz version 2.43.0 (0)
 -->
<!-- Title: oneDegreeRelationshipsDiagram Pages: 1 -->
<svg width="781pt" height="941pt"
 viewBox="0.00 0.00 781.00 941.00" xmlns="http://www.w3.org/2000/svg" xmlns:xlink="http://www.w3.org/1999/xlink">
<g id="graph0" class="graph" transform="scale(1 1) rotate(0) translate(4 937)">
<title>oneDegreeRelationshipsDiagram</title>
<polygon fill="#ffffff" stroke="transparent" points="-4,4 -4,-937 777,-937 777,4 -4,4"/>
<text text-anchor="middle" x="71.5" y="-7.2" font-family="Helvetica,sans-Serif" font-size="11.00">Generated by SchemaSpy</text>
<!-- c_subscription -->
<g id="node1" class="node">
<title>c_subscription</title>
<g id="a_node1"><a xlink:href="../../tables/c_subscription.html" xlink:title="c_subscription" target="_top">
<polygon fill="#ffffff" stroke="transparent" points="599,-450 599,-618 765,-618 765,-450 599,-450"/>
<polygon fill="#f5f5f5" stroke="transparent" points="599,-596 599,-618 765,-618 765,-596 599,-596"/>
<polygon fill="none" stroke="black" points="599,-596 599,-618 765,-618 765,-596 599,-596"/>
<text text-anchor="start" x="604" y="-605.2" font-family="Helvetica,sans-Serif" font-weight="bold" font-size="11.00">c_subscription</text>
<text text-anchor="start" x="730" y="-604.2" font-family="Helvetica,sans-Serif" font-size="11.00">[table]</text>
<polygon fill="none" stroke="black" points="599,-574 599,-596 765,-596 765,-574 599,-574"/>
<image xlink:href="../../images/primaryKeys.png" width="11px" height="12px" preserveAspectRatio="xMinYMin meet" x="604" y="-591"/>
<text text-anchor="start" x="619" y="-582.2" font-family="Helvetica,sans-Serif" font-size="11.00">c_subscription_id</text>
<polygon fill="none" stroke="black" points="599,-552 599,-574 765,-574 765,-552 599,-552"/>
<image xlink:href="../../images/foreignKeys.png" width="11px" height="12px" preserveAspectRatio="xMinYMin meet" x="604" y="-569"/>
<text text-anchor="start" x="619" y="-560.2" font-family="Helvetica,sans-Serif" font-size="11.00">c_bpartner_id</text>
<polygon fill="none" stroke="black" points="599,-530 599,-552 765,-552 765,-530 599,-530"/>
<image xlink:href="../../images/foreignKeys.png" width="11px" height="12px" preserveAspectRatio="xMinYMin meet" x="604" y="-547"/>
<text text-anchor="start" x="619" y="-538.2" font-family="Helvetica,sans-Serif" font-size="11.00">m_product_id</text>
<polygon fill="none" stroke="black" points="599,-508 599,-530 765,-530 765,-508 599,-508"/>
<image xlink:href="../../images/foreignKeys.png" width="11px" height="12px" preserveAspectRatio="xMinYMin meet" x="604" y="-525"/>
<text text-anchor="start" x="619" y="-516.2" font-family="Helvetica,sans-Serif" font-size="11.00">c_subscriptiontype_id</text>
<polygon fill="#ffffff" stroke="transparent" points="599,-486 599,-508 765,-508 765,-486 599,-486"/>
<polygon fill="none" stroke="black" points="599,-486 599,-508 765,-508 765,-486 599,-486"/>
<text text-anchor="start" x="619" y="-494.2" font-family="Helvetica,sans-Serif" font-size="11.00">c_subscription_uu</text>
<polygon fill="none" stroke="black" points="599,-468 599,-486 765,-486 765,-468 599,-468"/>
<text text-anchor="start" x="602" y="-474.2" font-family="Helvetica,sans-Serif" font-size="11.00">...</text>
<polygon fill="#ffffff" stroke="transparent" points="599,-450 599,-468 662,-468 662,-450 599,-450"/>
<polygon fill="none" stroke="black" points="599,-450 599,-468 662,-468 662,-450 599,-450"/>
<text text-anchor="start" x="602" y="-456.2" font-family="Helvetica,sans-Serif" font-size="11.00">&lt; 3</text>
<polygon fill="#ffffff" stroke="transparent" points="662,-450 662,-468 722,-468 722,-450 662,-450"/>
<polygon fill="none" stroke="black" points="662,-450 662,-468 722,-468 722,-450 662,-450"/>
<text text-anchor="start" x="686" y="-456.2" font-family="Helvetica,sans-Serif" font-size="11.00">0 rows</text>
<polygon fill="#ffffff" stroke="transparent" points="722,-450 722,-468 765,-468 765,-450 722,-450"/>
<polygon fill="none" stroke="black" points="722,-450 722,-468 765,-468 765,-450 722,-450"/>
<text text-anchor="start" x="746" y="-456.2" font-family="Helvetica,sans-Serif" font-size="11.00">3 &gt;</text>
</a>
</g>
</g>
<!-- c_subscriptiontype -->
<g id="node2" class="node">
<title>c_subscriptiontype</title>
<g id="a_node2"><a xlink:href="../../tables/c_subscriptiontype.html" xlink:title="c_subscriptiontype" target="_top">
<polygon fill="#ffffff" stroke="transparent" points="8,-37 8,-367 266,-367 266,-37 8,-37"/>
<polygon fill="#f5f5f5" stroke="transparent" points="10,-343 10,-365 264,-365 264,-343 10,-343"/>
<polygon fill="none" stroke="black" points="10,-343 10,-365 264,-365 264,-343 10,-343"/>
<text text-anchor="start" x="15" y="-352.2" font-family="Helvetica,sans-Serif" font-weight="bold" font-size="11.00">c_subscriptiontype</text>
<text text-anchor="start" x="229" y="-351.2" font-family="Helvetica,sans-Serif" font-size="11.00">[table]</text>
<polygon fill="none" stroke="black" points="10,-321 10,-343 181,-343 181,-321 10,-321"/>
<image xlink:href="../../images/primaryKeys.png" width="11px" height="12px" preserveAspectRatio="xMinYMin meet" x="15" y="-338"/>
<text text-anchor="start" x="30" y="-329.2" font-family="Helvetica,sans-Serif" font-size="11.00">c_subscriptiontype_id</text>
<polygon fill="none" stroke="black" points="181,-321 181,-343 264,-343 264,-321 181,-321"/>
<text text-anchor="start" x="184" y="-329.2" font-family="Helvetica,sans-Serif" font-size="11.00">numeric[10]</text>
<polygon fill="none" stroke="black" points="10,-299 10,-321 181,-321 181,-299 10,-299"/>
<text text-anchor="start" x="30" y="-307.2" font-family="Helvetica,sans-Serif" font-size="11.00">ad_client_id</text>
<polygon fill="none" stroke="black" points="181,-299 181,-321 264,-321 264,-299 181,-299"/>
<text text-anchor="start" x="184" y="-307.2" font-family="Helvetica,sans-Serif" font-size="11.00">numeric[10]</text>
<polygon fill="none" stroke="black" points="10,-277 10,-299 181,-299 181,-277 10,-277"/>
<text text-anchor="start" x="30" y="-285.2" font-family="Helvetica,sans-Serif" font-size="11.00">isactive</text>
<polygon fill="none" stroke="black" points="181,-277 181,-299 264,-299 264,-277 181,-277"/>
<text text-anchor="start" x="184" y="-285.2" font-family="Helvetica,sans-Serif" font-size="11.00">bpchar[1]</text>
<polygon fill="none" stroke="black" points="10,-255 10,-277 181,-277 181,-255 10,-255"/>
<text text-anchor="start" x="30" y="-263.2" font-family="Helvetica,sans-Serif" font-size="11.00">created</text>
<polygon fill="none" stroke="black" points="181,-255 181,-277 264,-277 264,-255 181,-255"/>
<text text-anchor="start" x="184" y="-263.2" font-family="Helvetica,sans-Serif" font-size="11.00">timestamp[29,6]</text>
<polygon fill="none" stroke="black" points="10,-233 10,-255 181,-255 181,-233 10,-233"/>
<text text-anchor="start" x="30" y="-241.2" font-family="Helvetica,sans-Serif" font-size="11.00">createdby</text>
<polygon fill="none" stroke="black" points="181,-233 181,-255 264,-255 264,-233 181,-233"/>
<text text-anchor="start" x="184" y="-241.2" font-family="Helvetica,sans-Serif" font-size="11.00">numeric[10]</text>
<polygon fill="none" stroke="black" points="10,-211 10,-233 181,-233 181,-211 10,-211"/>
<text text-anchor="start" x="30" y="-219.2" font-family="Helvetica,sans-Serif" font-size="11.00">updated</text>
<polygon fill="none" stroke="black" points="181,-211 181,-233 264,-233 264,-211 181,-211"/>
<text text-anchor="start" x="184" y="-219.2" font-family="Helvetica,sans-Serif" font-size="11.00">timestamp[29,6]</text>
<polygon fill="none" stroke="black" points="10,-189 10,-211 181,-211 181,-189 10,-189"/>
<text text-anchor="start" x="30" y="-197.2" font-family="Helvetica,sans-Serif" font-size="11.00">updatedby</text>
<polygon fill="none" stroke="black" points="181,-189 181,-211 264,-211 264,-189 181,-189"/>
<text text-anchor="start" x="184" y="-197.2" font-family="Helvetica,sans-Serif" font-size="11.00">numeric[10]</text>
<polygon fill="none" stroke="black" points="10,-167 10,-189 181,-189 181,-167 10,-167"/>
<text text-anchor="start" x="30" y="-175.2" font-family="Helvetica,sans-Serif" font-size="11.00">name</text>
<polygon fill="none" stroke="black" points="181,-167 181,-189 264,-189 264,-167 181,-167"/>
<text text-anchor="start" x="184" y="-175.2" font-family="Helvetica,sans-Serif" font-size="11.00">varchar[60]</text>
<polygon fill="none" stroke="black" points="10,-145 10,-167 181,-167 181,-145 10,-145"/>
<text text-anchor="start" x="30" y="-153.2" font-family="Helvetica,sans-Serif" font-size="11.00">description</text>
<polygon fill="none" stroke="black" points="181,-145 181,-167 264,-167 264,-145 181,-145"/>
<text text-anchor="start" x="184" y="-153.2" font-family="Helvetica,sans-Serif" font-size="11.00">varchar[255]</text>
<polygon fill="none" stroke="black" points="10,-123 10,-145 181,-145 181,-123 10,-123"/>
<text text-anchor="start" x="30" y="-131.2" font-family="Helvetica,sans-Serif" font-size="11.00">frequencytype</text>
<polygon fill="none" stroke="black" points="181,-123 181,-145 264,-145 264,-123 181,-123"/>
<text text-anchor="start" x="184" y="-131.2" font-family="Helvetica,sans-Serif" font-size="11.00">bpchar[1]</text>
<polygon fill="none" stroke="black" points="10,-101 10,-123 181,-123 181,-101 10,-101"/>
<text text-anchor="start" x="30" y="-109.2" font-family="Helvetica,sans-Serif" font-size="11.00">frequency</text>
<polygon fill="none" stroke="black" points="181,-101 181,-123 264,-123 264,-101 181,-101"/>
<text text-anchor="start" x="184" y="-109.2" font-family="Helvetica,sans-Serif" font-size="11.00">numeric[10]</text>
<polygon fill="none" stroke="black" points="10,-79 10,-101 181,-101 181,-79 10,-79"/>
<text text-anchor="start" x="30" y="-87.2" font-family="Helvetica,sans-Serif" font-size="11.00">ad_org_id</text>
<polygon fill="none" stroke="black" points="181,-79 181,-101 264,-101 264,-79 181,-79"/>
<text text-anchor="start" x="184" y="-87.2" font-family="Helvetica,sans-Serif" font-size="11.00">numeric[10]</text>
<polygon fill="#ffffff" stroke="transparent" points="10,-57 10,-79 181,-79 181,-57 10,-57"/>
<polygon fill="none" stroke="black" points="10,-57 10,-79 181,-79 181,-57 10,-57"/>
<text text-anchor="start" x="30" y="-65.2" font-family="Helvetica,sans-Serif" font-size="11.00">c_subscriptiontype_uu</text>
<polygon fill="none" stroke="black" points="181,-57 181,-79 264,-79 264,-57 181,-57"/>
<text text-anchor="start" x="184" y="-65.2" font-family="Helvetica,sans-Serif" font-size="11.00">varchar[36]</text>
<polygon fill="#ffffff" stroke="transparent" points="10,-39 10,-57 87,-57 87,-39 10,-39"/>
<polygon fill="none" stroke="black" points="10,-39 10,-57 87,-57 87,-39 10,-39"/>
<text text-anchor="start" x="13" y="-45.2" font-family="Helvetica,sans-Serif" font-size="11.00">&lt; 0</text>
<polygon fill="#ffffff" stroke="transparent" points="87,-39 87,-57 181,-57 181,-39 87,-39"/>
<polygon fill="none" stroke="black" points="87,-39 87,-57 181,-57 181,-39 87,-39"/>
<text text-anchor="start" x="145" y="-45.2" font-family="Helvetica,sans-Serif" font-size="11.00">0 rows</text>
<polygon fill="#ffffff" stroke="transparent" points="181,-39 181,-57 264,-57 264,-39 181,-39"/>
<polygon fill="none" stroke="black" points="181,-39 181,-57 264,-57 264,-39 181,-39"/>
<text text-anchor="start" x="245" y="-45.2" font-family="Helvetica,sans-Serif" font-size="11.00">2 &gt;</text>
<polygon fill="none" stroke="black" stroke-width="2" points="9,-38 9,-366 265,-366 265,-38 9,-38"/>
</a>
</g>
</g>
<!-- c_subscription&#45;&gt;c_subscriptiontype -->
<g id="edge1" class="edge">
<title>c_subscription:w&#45;&gt;c_subscriptiontype:e</title>
<path fill="none" stroke="black" d="M584.03,-514.66C534.57,-478.41 610.74,-225.9 558,-179 474.64,-104.87 395.71,-111.36 307,-179 250.93,-221.76 335.52,-332 265,-332"/>
<polygon fill="black" stroke="black" points="590.36,-516.63 596.93,-522.44 594.18,-517.81 598,-519 598,-519 598,-519 594.18,-517.81 599.07,-515.56 590.36,-516.63 590.36,-516.63"/>
<ellipse fill="none" stroke="black" cx="587.3" cy="-515.68" rx="3.2" ry="3.2"/>
</g>
<!-- m_product -->
<g id="node3" class="node">
<title>m_product</title>
<g id="a_node3"><a xlink:href="../../tables/m_product.html" xlink:title="m_product" target="_top">
<polygon fill="#ffffff" stroke="transparent" points="315,-189 315,-929 550,-929 550,-189 315,-189"/>
<polygon fill="#f5f5f5" stroke="transparent" points="315.5,-907 315.5,-929 550.5,-929 550.5,-907 315.5,-907"/>
<polygon fill="none" stroke="black" points="315.5,-907 315.5,-929 550.5,-929 550.5,-907 315.5,-907"/>
<text text-anchor="start" x="320.5" y="-916.2" font-family="Helvetica,sans-Serif" font-weight="bold" font-size="11.00">m_product</text>
<text text-anchor="start" x="515.5" y="-915.2" font-family="Helvetica,sans-Serif" font-size="11.00">[table]</text>
<polygon fill="none" stroke="black" points="315.5,-885 315.5,-907 550.5,-907 550.5,-885 315.5,-885"/>
<image xlink:href="../../images/primaryKeys.png" width="11px" height="12px" preserveAspectRatio="xMinYMin meet" x="320.5" y="-902"/>
<text text-anchor="start" x="335.5" y="-893.2" font-family="Helvetica,sans-Serif" font-size="11.00">m_product_id</text>
<polygon fill="#ffffff" stroke="transparent" points="315.5,-863 315.5,-885 550.5,-885 550.5,-863 315.5,-863"/>
<polygon fill="none" stroke="black" points="315.5,-863 315.5,-885 550.5,-885 550.5,-863 315.5,-863"/>
<image xlink:href="../../images/foreignKeys.png" width="11px" height="12px" preserveAspectRatio="xMinYMin meet" x="320.5" y="-880"/>
<text text-anchor="start" x="335.5" y="-871.2" font-family="Helvetica,sans-Serif" font-size="11.00">ad_client_id</text>
<polygon fill="none" stroke="black" points="315.5,-841 315.5,-863 550.5,-863 550.5,-841 315.5,-841"/>
<image xlink:href="../../images/foreignKeys.png" width="11px" height="12px" preserveAspectRatio="xMinYMin meet" x="320.5" y="-858"/>
<text text-anchor="start" x="335.5" y="-849.2" font-family="Helvetica,sans-Serif" font-size="11.00">ad_org_id</text>
<polygon fill="#ffffff" stroke="transparent" points="315.5,-819 315.5,-841 550.5,-841 550.5,-819 315.5,-819"/>
<polygon fill="none" stroke="black" points="315.5,-819 315.5,-841 550.5,-841 550.5,-819 315.5,-819"/>
<text text-anchor="start" x="335.5" y="-827.2" font-family="Helvetica,sans-Serif" font-size="11.00">value</text>
<polygon fill="#ffffff" stroke="transparent" points="315.5,-797 315.5,-819 550.5,-819 550.5,-797 315.5,-797"/>
<polygon fill="none" stroke="black" points="315.5,-797 315.5,-819 550.5,-819 550.5,-797 315.5,-797"/>
<text text-anchor="start" x="335.5" y="-805.2" font-family="Helvetica,sans-Serif" font-size="11.00">name</text>
<polygon fill="#ffffff" stroke="transparent" points="315.5,-775 315.5,-797 550.5,-797 550.5,-775 315.5,-775"/>
<polygon fill="none" stroke="black" points="315.5,-775 315.5,-797 550.5,-797 550.5,-775 315.5,-775"/>
<text text-anchor="start" x="335.5" y="-783.2" font-family="Helvetica,sans-Serif" font-size="11.00">upc</text>
<polygon fill="none" stroke="black" points="315.5,-753 315.5,-775 550.5,-775 550.5,-753 315.5,-753"/>
<image xlink:href="../../images/foreignKeys.png" width="11px" height="12px" preserveAspectRatio="xMinYMin meet" x="320.5" y="-770"/>
<text text-anchor="start" x="335.5" y="-761.2" font-family="Helvetica,sans-Serif" font-size="11.00">c_uom_id</text>
<polygon fill="none" stroke="black" points="315.5,-731 315.5,-753 550.5,-753 550.5,-731 315.5,-731"/>
<image xlink:href="../../images/foreignKeys.png" width="11px" height="12px" preserveAspectRatio="xMinYMin meet" x="320.5" y="-748"/>
<text text-anchor="start" x="335.5" y="-739.2" font-family="Helvetica,sans-Serif" font-size="11.00">salesrep_id</text>
<polygon fill="none" stroke="black" points="315.5,-709 315.5,-731 550.5,-731 550.5,-709 315.5,-709"/>
<image xlink:href="../../images/foreignKeys.png" width="11px" height="12px" preserveAspectRatio="xMinYMin meet" x="320.5" y="-726"/>
<text text-anchor="start" x="335.5" y="-717.2" font-family="Helvetica,sans-Serif" font-size="11.00">c_revenuerecognition_id</text>
<polygon fill="#ffffff" stroke="transparent" points="315.5,-687 315.5,-709 550.5,-709 550.5,-687 315.5,-687"/>
<polygon fill="none" stroke="black" points="315.5,-687 315.5,-709 550.5,-709 550.5,-687 315.5,-687"/>
<image xlink:href="../../images/foreignKeys.png" width="11px" height="12px" preserveAspectRatio="xMinYMin meet" x="320.5" y="-704"/>
<text text-anchor="start" x="335.5" y="-695.2" font-family="Helvetica,sans-Serif" font-size="11.00">m_product_category_id</text>
<polygon fill="none" stroke="black" points="315.5,-665 315.5,-687 550.5,-687 550.5,-665 315.5,-665"/>
<image xlink:href="../../images/foreignKeys.png" width="11px" height="12px" preserveAspectRatio="xMinYMin meet" x="320.5" y="-682"/>
<text text-anchor="start" x="335.5" y="-673.2" font-family="Helvetica,sans-Serif" font-size="11.00">c_taxcategory_id</text>
<polygon fill="#ffffff" stroke="transparent" points="315.5,-643 315.5,-665 550.5,-665 550.5,-643 315.5,-643"/>
<polygon fill="none" stroke="black" points="315.5,-643 315.5,-665 550.5,-665 550.5,-643 315.5,-643"/>
<image xlink:href="../../images/foreignKeys.png" width="11px" height="12px" preserveAspectRatio="xMinYMin meet" x="320.5" y="-660"/>
<text text-anchor="start" x="335.5" y="-651.2" font-family="Helvetica,sans-Serif" font-size="11.00">s_resource_id</text>
<polygon fill="#ffffff" stroke="transparent" points="315.5,-621 315.5,-643 550.5,-643 550.5,-621 315.5,-621"/>
<polygon fill="none" stroke="black" points="315.5,-621 315.5,-643 550.5,-643 550.5,-621 315.5,-621"/>
<image xlink:href="../../images/foreignKeys.png" width="11px" height="12px" preserveAspectRatio="xMinYMin meet" x="320.5" y="-638"/>
<text text-anchor="start" x="335.5" y="-629.2" font-family="Helvetica,sans-Serif" font-size="11.00">s_expensetype_id</text>
<polygon fill="none" stroke="black" points="315.5,-599 315.5,-621 550.5,-621 550.5,-599 315.5,-599"/>
<image xlink:href="../../images/foreignKeys.png" width="11px" height="12px" preserveAspectRatio="xMinYMin meet" x="320.5" y="-616"/>
<text text-anchor="start" x="335.5" y="-607.2" font-family="Helvetica,sans-Serif" font-size="11.00">r_mailtext_id</text>
<polygon fill="none" stroke="black" points="315.5,-577 315.5,-599 550.5,-599 550.5,-577 315.5,-577"/>
<image xlink:href="../../images/foreignKeys.png" width="11px" height="12px" preserveAspectRatio="xMinYMin meet" x="320.5" y="-594"/>
<text text-anchor="start" x="335.5" y="-585.2" font-family="Helvetica,sans-Serif" font-size="11.00">m_attributeset_id</text>
<polygon fill="none" stroke="black" points="315.5,-555 315.5,-577 550.5,-577 550.5,-555 315.5,-555"/>
<image xlink:href="../../images/foreignKeys.png" width="11px" height="12px" preserveAspectRatio="xMinYMin meet" x="320.5" y="-572"/>
<text text-anchor="start" x="335.5" y="-563.2" font-family="Helvetica,sans-Serif" font-size="11.00">m_attributesetinstance_id</text>
<polygon fill="none" stroke="black" points="315.5,-533 315.5,-555 550.5,-555 550.5,-533 315.5,-533"/>
<image xlink:href="../../images/foreignKeys.png" width="11px" height="12px" preserveAspectRatio="xMinYMin meet" x="320.5" y="-550"/>
<text text-anchor="start" x="335.5" y="-541.2" font-family="Helvetica,sans-Serif" font-size="11.00">m_freightcategory_id</text>
<polygon fill="none" stroke="black" points="315.5,-511 315.5,-533 550.5,-533 550.5,-511 315.5,-511"/>
<image xlink:href="../../images/foreignKeys.png" width="11px" height="12px" preserveAspectRatio="xMinYMin meet" x="320.5" y="-528"/>
<text text-anchor="start" x="335.5" y="-519.2" font-family="Helvetica,sans-Serif" font-size="11.00">m_locator_id</text>
<polygon fill="none" stroke="black" points="315.5,-489 315.5,-511 550.5,-511 550.5,-489 315.5,-489"/>
<image xlink:href="../../images/foreignKeys.png" width="11px" height="12px" preserveAspectRatio="xMinYMin meet" x="320.5" y="-506"/>
<text text-anchor="start" x="335.5" y="-497.2" font-family="Helvetica,sans-Serif" font-size="11.00">c_subscriptiontype_id</text>
<polygon fill="#ffffff" stroke="transparent" points="315.5,-467 315.5,-489 550.5,-489 550.5,-467 315.5,-467"/>
<polygon fill="none" stroke="black" points="315.5,-467 315.5,-489 550.5,-489 550.5,-467 315.5,-467"/>
<text text-anchor="start" x="335.5" y="-475.2" font-family="Helvetica,sans-Serif" font-size="11.00">m_product_uu</text>
<polygon fill="none" stroke="black" points="315.5,-445 315.5,-467 550.5,-467 550.5,-445 315.5,-445"/>
<image xlink:href="../../images/foreignKeys.png" width="11px" height="12px" preserveAspectRatio="xMinYMin meet" x="320.5" y="-462"/>
<text text-anchor="start" x="335.5" y="-453.2" font-family="Helvetica,sans-Serif" font-size="11.00">m_parttype_id</text>
<polygon fill="none" stroke="black" points="315.5,-423 315.5,-445 550.5,-445 550.5,-423 315.5,-423"/>
<image xlink:href="../../images/foreignKeys.png" width="11px" height="12px" preserveAspectRatio="xMinYMin meet" x="320.5" y="-440"/>
<text text-anchor="start" x="335.5" y="-431.2" font-family="Helvetica,sans-Serif" font-size="11.00">lbr_productcategory_id</text>
<polygon fill="none" stroke="black" points="315.5,-401 315.5,-423 550.5,-423 550.5,-401 315.5,-401"/>
<image xlink:href="../../images/foreignKeys.png" width="11px" height="12px" preserveAspectRatio="xMinYMin meet" x="320.5" y="-418"/>
<text text-anchor="start" x="335.5" y="-409.2" font-family="Helvetica,sans-Serif" font-size="11.00">lbr_ncm_id</text>
<polygon fill="none" stroke="black" points="315.5,-379 315.5,-401 550.5,-401 550.5,-379 315.5,-379"/>
<image xlink:href="../../images/foreignKeys.png" width="11px" height="12px" preserveAspectRatio="xMinYMin meet" x="320.5" y="-396"/>
<text text-anchor="start" x="335.5" y="-387.2" font-family="Helvetica,sans-Serif" font-size="11.00">lbr_fiscalgroup_product_id</text>
<polygon fill="none" stroke="black" points="315.5,-357 315.5,-379 550.5,-379 550.5,-357 315.5,-357"/>
<image xlink:href="../../images/foreignKeys.png" width="11px" height="12px" preserveAspectRatio="xMinYMin meet" x="320.5" y="-374"/>
<text text-anchor="start" x="335.5" y="-365.2" font-family="Helvetica,sans-Serif" font-size="11.00">cof_cest_id</text>
<polygon fill="none" stroke="black" points="315.5,-335 315.5,-357 550.5,-357 550.5,-335 315.5,-335"/>
<image xlink:href="../../images/foreignKeys.png" width="11px" height="12px" preserveAspectRatio="xMinYMin meet" x="320.5" y="-352"/>
<text text-anchor="start" x="335.5" y="-343.2" font-family="Helvetica,sans-Serif" font-size="11.00">cof_c_generoitem_sped_id</text>
<polygon fill="none" stroke="black" points="315.5,-313 315.5,-335 550.5,-335 550.5,-313 315.5,-313"/>
<image xlink:href="../../images/foreignKeys.png" width="11px" height="12px" preserveAspectRatio="xMinYMin meet" x="320.5" y="-330"/>
<text text-anchor="start" x="335.5" y="-321.2" font-family="Helvetica,sans-Serif" font-size="11.00">cof_producttype_id</text>
<polygon fill="none" stroke="black" points="315.5,-291 315.5,-313 550.5,-313 550.5,-291 315.5,-291"/>
<image xlink:href="../../images/foreignKeys.png" width="11px" height="12px" preserveAspectRatio="xMinYMin meet" x="320.5" y="-308"/>
<text text-anchor="start" x="335.5" y="-299.2" font-family="Helvetica,sans-Serif" font-size="11.00">cof_productclass_id</text>
<polygon fill="none" stroke="black" points="315.5,-269 315.5,-291 550.5,-291 550.5,-269 315.5,-269"/>
<image xlink:href="../../images/foreignKeys.png" width="11px" height="12px" preserveAspectRatio="xMinYMin meet" x="320.5" y="-286"/>
<text text-anchor="start" x="335.5" y="-277.2" font-family="Helvetica,sans-Serif" font-size="11.00">cof_productgroup_id</text>
<polygon fill="none" stroke="black" points="315.5,-247 315.5,-269 550.5,-269 550.5,-247 315.5,-247"/>
<image xlink:href="../../images/foreignKeys.png" width="11px" height="12px" preserveAspectRatio="xMinYMin meet" x="320.5" y="-264"/>
<text text-anchor="start" x="335.5" y="-255.2" font-family="Helvetica,sans-Serif" font-size="11.00">cof_nbs_id</text>
<polygon fill="none" stroke="black" points="315.5,-225 315.5,-247 550.5,-247 550.5,-225 315.5,-225"/>
<image xlink:href="../../images/foreignKeys.png" width="11px" height="12px" preserveAspectRatio="xMinYMin meet" x="320.5" y="-242"/>
<text text-anchor="start" x="335.5" y="-233.2" font-family="Helvetica,sans-Serif" font-size="11.00">cof_grupofornecedor_id</text>
<polygon fill="none" stroke="black" points="315.5,-207 315.5,-225 550.5,-225 550.5,-207 315.5,-207"/>
<text text-anchor="start" x="318.5" y="-213.2" font-family="Helvetica,sans-Serif" font-size="11.00">...</text>
<polygon fill="#ffffff" stroke="transparent" points="315.5,-189 315.5,-207 412.5,-207 412.5,-189 315.5,-189"/>
<polygon fill="none" stroke="black" points="315.5,-189 315.5,-207 412.5,-207 412.5,-189 315.5,-189"/>
<text text-anchor="start" x="318.5" y="-195.2" font-family="Helvetica,sans-Serif" font-size="11.00">&lt; 22</text>
<polygon fill="#ffffff" stroke="transparent" points="412.5,-189 412.5,-207 481.5,-207 481.5,-189 412.5,-189"/>
<polygon fill="none" stroke="black" points="412.5,-189 412.5,-207 481.5,-207 481.5,-189 412.5,-189"/>
<text text-anchor="start" x="450.5" y="-195.2" font-family="Helvetica,sans-Serif" font-size="11.00">1 row</text>
<polygon fill="#ffffff" stroke="transparent" points="481.5,-189 481.5,-207 550.5,-207 550.5,-189 481.5,-189"/>
<polygon fill="none" stroke="black" points="481.5,-189 481.5,-207 550.5,-207 550.5,-189 481.5,-189"/>
<text text-anchor="start" x="519.5" y="-195.2" font-family="Helvetica,sans-Serif" font-size="11.00">172 &gt;</text>
</a>
</g>
</g>
<!-- c_subscription&#45;&gt;m_product -->
<g id="edge2" class="edge">
<title>c_subscription:w&#45;&gt;m_product:e</title>
<path fill="none" stroke="black" d="M583.54,-542.15C456.45,-564.18 705.34,-896 551.5,-896"/>
<polygon fill="black" stroke="black" points="590.03,-541.63 598.29,-544.59 594.01,-541.32 598,-541 598,-541 598,-541 594.01,-541.32 597.71,-537.41 590.03,-541.63 590.03,-541.63"/>
<ellipse fill="none" stroke="black" cx="586.84" cy="-541.89" rx="3.2" ry="3.2"/>
</g>
<!-- m_product&#45;&gt;c_subscriptiontype -->
<g id="edge3" class="edge">
<title>m_product:w&#45;&gt;c_subscriptiontype:e</title>
<path fill="none" stroke="black" d="M300.06,-497.36C251.41,-475.99 337.06,-332 265,-332"/>
<polygon fill="black" stroke="black" points="306.63,-498.56 313.85,-503.54 310.57,-499.28 314.5,-500 314.5,-500 314.5,-500 310.57,-499.28 315.15,-496.46 306.63,-498.56 306.63,-498.56"/>
<ellipse fill="none" stroke="black" cx="303.48" cy="-497.99" rx="3.2" ry="3.2"/>
</g>
</g>
</svg>
