<?xml version="1.0" encoding="UTF-8" standalone="no"?>
<!DOCTYPE svg PUBLIC "-//W3C//DTD SVG 1.1//EN"
 "http://www.w3.org/Graphics/SVG/1.1/DTD/svg11.dtd">
<!-- Generated by graphviz version 2.43.0 (0)
 -->
<!-- Title: oneDegreeRelationshipsDiagram Pages: 1 -->
<svg width="1259pt" height="816pt"
 viewBox="0.00 0.00 1259.00 816.49" xmlns="http://www.w3.org/2000/svg" xmlns:xlink="http://www.w3.org/1999/xlink">
<g id="graph0" class="graph" transform="scale(1 1) rotate(0) translate(4 812.49)">
<title>oneDegreeRelationshipsDiagram</title>
<polygon fill="#ffffff" stroke="transparent" points="-4,4 -4,-812.49 1255,-812.49 1255,4 -4,4"/>
<text text-anchor="middle" x="71.5" y="-7.2" font-family="Helvetica,sans-Serif" font-size="11.00">Generated by SchemaSpy</text>
<!-- ad_org -->
<g id="node1" class="node">
<title>ad_org</title>
<g id="a_node1"><a xlink:href="../../tables/ad_org.html" xlink:title="ad_org" target="_top">
<polygon fill="#ffffff" stroke="transparent" points="285,-526 285,-716 477,-716 477,-526 285,-526"/>
<polygon fill="#f5f5f5" stroke="transparent" points="285,-694 285,-716 477,-716 477,-694 285,-694"/>
<polygon fill="none" stroke="black" points="285,-694 285,-716 477,-716 477,-694 285,-694"/>
<text text-anchor="start" x="290" y="-703.2" font-family="Helvetica,sans-Serif" font-weight="bold" font-size="11.00">ad_org</text>
<text text-anchor="start" x="442" y="-702.2" font-family="Helvetica,sans-Serif" font-size="11.00">[table]</text>
<polygon fill="none" stroke="black" points="285,-672 285,-694 477,-694 477,-672 285,-672"/>
<image xlink:href="../../images/primaryKeys.png" width="11px" height="12px" preserveAspectRatio="xMinYMin meet" x="290" y="-689"/>
<text text-anchor="start" x="305" y="-680.2" font-family="Helvetica,sans-Serif" font-size="11.00">ad_org_id</text>
<polygon fill="#ffffff" stroke="transparent" points="285,-650 285,-672 477,-672 477,-650 285,-650"/>
<polygon fill="none" stroke="black" points="285,-650 285,-672 477,-672 477,-650 285,-650"/>
<image xlink:href="../../images/foreignKeys.png" width="11px" height="12px" preserveAspectRatio="xMinYMin meet" x="290" y="-667"/>
<text text-anchor="start" x="305" y="-658.2" font-family="Helvetica,sans-Serif" font-size="11.00">ad_client_id</text>
<polygon fill="#ffffff" stroke="transparent" points="285,-628 285,-650 477,-650 477,-628 285,-628"/>
<polygon fill="none" stroke="black" points="285,-628 285,-650 477,-650 477,-628 285,-628"/>
<text text-anchor="start" x="305" y="-636.2" font-family="Helvetica,sans-Serif" font-size="11.00">value</text>
<polygon fill="none" stroke="black" points="285,-606 285,-628 477,-628 477,-606 285,-606"/>
<image xlink:href="../../images/foreignKeys.png" width="11px" height="12px" preserveAspectRatio="xMinYMin meet" x="290" y="-623"/>
<text text-anchor="start" x="305" y="-614.2" font-family="Helvetica,sans-Serif" font-size="11.00">ad_replicationstrategy_id</text>
<polygon fill="#ffffff" stroke="transparent" points="285,-584 285,-606 477,-606 477,-584 285,-584"/>
<polygon fill="none" stroke="black" points="285,-584 285,-606 477,-606 477,-584 285,-584"/>
<text text-anchor="start" x="305" y="-592.2" font-family="Helvetica,sans-Serif" font-size="11.00">ad_org_uu</text>
<polygon fill="none" stroke="black" points="285,-562 285,-584 477,-584 477,-562 285,-562"/>
<image xlink:href="../../images/foreignKeys.png" width="11px" height="12px" preserveAspectRatio="xMinYMin meet" x="290" y="-579"/>
<text text-anchor="start" x="305" y="-570.2" font-family="Helvetica,sans-Serif" font-size="11.00">cof_c_snrange_id</text>
<polygon fill="none" stroke="black" points="285,-544 285,-562 477,-562 477,-544 285,-544"/>
<text text-anchor="start" x="288" y="-550.2" font-family="Helvetica,sans-Serif" font-size="11.00">...</text>
<polygon fill="#ffffff" stroke="transparent" points="285,-526 285,-544 355,-544 355,-526 285,-526"/>
<polygon fill="none" stroke="black" points="285,-526 285,-544 355,-544 355,-526 285,-526"/>
<text text-anchor="start" x="288" y="-532.2" font-family="Helvetica,sans-Serif" font-size="11.00">&lt; 3</text>
<polygon fill="#ffffff" stroke="transparent" points="355,-526 355,-544 418,-544 418,-526 355,-526"/>
<polygon fill="none" stroke="black" points="355,-526 355,-544 418,-544 418,-526 355,-526"/>
<text text-anchor="start" x="382" y="-532.2" font-family="Helvetica,sans-Serif" font-size="11.00">3 rows</text>
<polygon fill="#ffffff" stroke="transparent" points="418,-526 418,-544 477,-544 477,-526 418,-526"/>
<polygon fill="none" stroke="black" points="418,-526 418,-544 477,-544 477,-526 418,-526"/>
<text text-anchor="start" x="446" y="-532.2" font-family="Helvetica,sans-Serif" font-size="11.00">224 &gt;</text>
</a>
</g>
</g>
<!-- ad_client -->
<g id="node2" class="node">
<title>ad_client</title>
<g id="a_node2"><a xlink:href="../../tables/ad_client.html" xlink:title="ad_client" target="_top">
<polygon fill="#ffffff" stroke="transparent" points="8,-521 8,-733 236,-733 236,-521 8,-521"/>
<polygon fill="#f5f5f5" stroke="transparent" points="8,-711 8,-733 236,-733 236,-711 8,-711"/>
<polygon fill="none" stroke="black" points="8,-711 8,-733 236,-733 236,-711 8,-711"/>
<text text-anchor="start" x="13" y="-720.2" font-family="Helvetica,sans-Serif" font-weight="bold" font-size="11.00">ad_client</text>
<text text-anchor="start" x="201" y="-719.2" font-family="Helvetica,sans-Serif" font-size="11.00">[table]</text>
<polygon fill="none" stroke="black" points="8,-689 8,-711 236,-711 236,-689 8,-689"/>
<image xlink:href="../../images/primaryKeys.png" width="11px" height="12px" preserveAspectRatio="xMinYMin meet" x="13" y="-706"/>
<text text-anchor="start" x="28" y="-697.2" font-family="Helvetica,sans-Serif" font-size="11.00">ad_client_id</text>
<polygon fill="#ffffff" stroke="transparent" points="8,-667 8,-689 236,-689 236,-667 8,-667"/>
<polygon fill="none" stroke="black" points="8,-667 8,-689 236,-689 236,-667 8,-667"/>
<text text-anchor="start" x="28" y="-675.2" font-family="Helvetica,sans-Serif" font-size="11.00">value</text>
<polygon fill="none" stroke="black" points="8,-645 8,-667 236,-667 236,-645 8,-645"/>
<image xlink:href="../../images/foreignKeys.png" width="11px" height="12px" preserveAspectRatio="xMinYMin meet" x="13" y="-662"/>
<text text-anchor="start" x="28" y="-653.2" font-family="Helvetica,sans-Serif" font-size="11.00">ad_language</text>
<polygon fill="none" stroke="black" points="8,-623 8,-645 236,-645 236,-623 8,-623"/>
<image xlink:href="../../images/foreignKeys.png" width="11px" height="12px" preserveAspectRatio="xMinYMin meet" x="13" y="-640"/>
<text text-anchor="start" x="28" y="-631.2" font-family="Helvetica,sans-Serif" font-size="11.00">ad_replicationstrategy_id</text>
<polygon fill="#ffffff" stroke="transparent" points="8,-601 8,-623 236,-623 236,-601 8,-601"/>
<polygon fill="none" stroke="black" points="8,-601 8,-623 236,-623 236,-601 8,-601"/>
<text text-anchor="start" x="28" y="-609.2" font-family="Helvetica,sans-Serif" font-size="11.00">ad_client_uu</text>
<polygon fill="none" stroke="black" points="8,-579 8,-601 236,-601 236,-579 8,-579"/>
<image xlink:href="../../images/foreignKeys.png" width="11px" height="12px" preserveAspectRatio="xMinYMin meet" x="13" y="-596"/>
<text text-anchor="start" x="28" y="-587.2" font-family="Helvetica,sans-Serif" font-size="11.00">ad_passwordrule_id</text>
<polygon fill="#ffffff" stroke="transparent" points="8,-557 8,-579 236,-579 236,-557 8,-557"/>
<polygon fill="none" stroke="black" points="8,-557 8,-579 236,-579 236,-557 8,-557"/>
<text text-anchor="start" x="28" y="-565.2" font-family="Helvetica,sans-Serif" font-size="11.00">loginprefix</text>
<polygon fill="none" stroke="black" points="8,-539 8,-557 236,-557 236,-539 8,-539"/>
<text text-anchor="start" x="11" y="-545.2" font-family="Helvetica,sans-Serif" font-size="11.00">...</text>
<polygon fill="#ffffff" stroke="transparent" points="8,-521 8,-539 96,-539 96,-521 8,-521"/>
<polygon fill="none" stroke="black" points="8,-521 8,-539 96,-539 96,-521 8,-521"/>
<text text-anchor="start" x="11" y="-527.2" font-family="Helvetica,sans-Serif" font-size="11.00">&lt; 3</text>
<polygon fill="#ffffff" stroke="transparent" points="96,-521 96,-539 168,-539 168,-521 96,-521"/>
<polygon fill="none" stroke="black" points="96,-521 96,-539 168,-539 168,-521 96,-521"/>
<text text-anchor="start" x="132" y="-527.2" font-family="Helvetica,sans-Serif" font-size="11.00">2 rows</text>
<polygon fill="#ffffff" stroke="transparent" points="168,-521 168,-539 236,-539 236,-521 168,-521"/>
<polygon fill="none" stroke="black" points="168,-521 168,-539 236,-539 236,-521 168,-521"/>
<text text-anchor="start" x="205" y="-527.2" font-family="Helvetica,sans-Serif" font-size="11.00">145 &gt;</text>
</a>
</g>
</g>
<!-- ad_org&#45;&gt;ad_client -->
<g id="edge1" class="edge">
<title>ad_org:w&#45;&gt;ad_client:e</title>
<path fill="none" stroke="black" d="M270.41,-665.78C258.4,-676.2 258.21,-700 237,-700"/>
<polygon fill="black" stroke="black" points="276.45,-663.66 285.19,-664.4 280.23,-662.33 284,-661 284,-661 284,-661 280.23,-662.33 282.81,-657.6 276.45,-663.66 276.45,-663.66"/>
<ellipse fill="none" stroke="black" cx="273.43" cy="-664.72" rx="3.2" ry="3.2"/>
</g>
<!-- ad_user -->
<g id="node3" class="node">
<title>ad_user</title>
<g id="a_node3"><a xlink:href="../../tables/ad_user.html" xlink:title="ad_user" target="_top">
<polygon fill="#ffffff" stroke="transparent" points="526,-37 526,-557 749,-557 749,-37 526,-37"/>
<polygon fill="#f5f5f5" stroke="transparent" points="526.5,-535 526.5,-557 749.5,-557 749.5,-535 526.5,-535"/>
<polygon fill="none" stroke="black" points="526.5,-535 526.5,-557 749.5,-557 749.5,-535 526.5,-535"/>
<text text-anchor="start" x="531.5" y="-544.2" font-family="Helvetica,sans-Serif" font-weight="bold" font-size="11.00">ad_user</text>
<text text-anchor="start" x="714.5" y="-543.2" font-family="Helvetica,sans-Serif" font-size="11.00">[table]</text>
<polygon fill="none" stroke="black" points="526.5,-513 526.5,-535 749.5,-535 749.5,-513 526.5,-513"/>
<image xlink:href="../../images/primaryKeys.png" width="11px" height="12px" preserveAspectRatio="xMinYMin meet" x="531.5" y="-530"/>
<text text-anchor="start" x="546.5" y="-521.2" font-family="Helvetica,sans-Serif" font-size="11.00">ad_user_id</text>
<polygon fill="none" stroke="black" points="526.5,-491 526.5,-513 749.5,-513 749.5,-491 526.5,-491"/>
<image xlink:href="../../images/foreignKeys.png" width="11px" height="12px" preserveAspectRatio="xMinYMin meet" x="531.5" y="-508"/>
<text text-anchor="start" x="546.5" y="-499.2" font-family="Helvetica,sans-Serif" font-size="11.00">ad_client_id</text>
<polygon fill="none" stroke="black" points="526.5,-469 526.5,-491 749.5,-491 749.5,-469 526.5,-469"/>
<image xlink:href="../../images/foreignKeys.png" width="11px" height="12px" preserveAspectRatio="xMinYMin meet" x="531.5" y="-486"/>
<text text-anchor="start" x="546.5" y="-477.2" font-family="Helvetica,sans-Serif" font-size="11.00">ad_org_id</text>
<polygon fill="#ffffff" stroke="transparent" points="526.5,-447 526.5,-469 749.5,-469 749.5,-447 526.5,-447"/>
<polygon fill="none" stroke="black" points="526.5,-447 526.5,-469 749.5,-469 749.5,-447 526.5,-447"/>
<text text-anchor="start" x="546.5" y="-455.2" font-family="Helvetica,sans-Serif" font-size="11.00">name</text>
<polygon fill="#ffffff" stroke="transparent" points="526.5,-425 526.5,-447 749.5,-447 749.5,-425 526.5,-425"/>
<polygon fill="none" stroke="black" points="526.5,-425 526.5,-447 749.5,-447 749.5,-425 526.5,-425"/>
<text text-anchor="start" x="546.5" y="-433.2" font-family="Helvetica,sans-Serif" font-size="11.00">email</text>
<polygon fill="none" stroke="black" points="526.5,-403 526.5,-425 749.5,-425 749.5,-403 526.5,-403"/>
<image xlink:href="../../images/foreignKeys.png" width="11px" height="12px" preserveAspectRatio="xMinYMin meet" x="531.5" y="-420"/>
<text text-anchor="start" x="546.5" y="-411.2" font-family="Helvetica,sans-Serif" font-size="11.00">supervisor_id</text>
<polygon fill="#ffffff" stroke="transparent" points="526.5,-381 526.5,-403 749.5,-403 749.5,-381 526.5,-381"/>
<polygon fill="none" stroke="black" points="526.5,-381 526.5,-403 749.5,-403 749.5,-381 526.5,-381"/>
<image xlink:href="../../images/foreignKeys.png" width="11px" height="12px" preserveAspectRatio="xMinYMin meet" x="531.5" y="-398"/>
<text text-anchor="start" x="546.5" y="-389.2" font-family="Helvetica,sans-Serif" font-size="11.00">c_bpartner_id</text>
<polygon fill="none" stroke="black" points="526.5,-359 526.5,-381 749.5,-381 749.5,-359 526.5,-359"/>
<image xlink:href="../../images/foreignKeys.png" width="11px" height="12px" preserveAspectRatio="xMinYMin meet" x="531.5" y="-376"/>
<text text-anchor="start" x="546.5" y="-367.2" font-family="Helvetica,sans-Serif" font-size="11.00">c_bpartner_location_id</text>
<polygon fill="none" stroke="black" points="526.5,-337 526.5,-359 749.5,-359 749.5,-337 526.5,-337"/>
<image xlink:href="../../images/foreignKeys.png" width="11px" height="12px" preserveAspectRatio="xMinYMin meet" x="531.5" y="-354"/>
<text text-anchor="start" x="546.5" y="-345.2" font-family="Helvetica,sans-Serif" font-size="11.00">c_greeting_id</text>
<polygon fill="none" stroke="black" points="526.5,-315 526.5,-337 749.5,-337 749.5,-315 526.5,-315"/>
<image xlink:href="../../images/foreignKeys.png" width="11px" height="12px" preserveAspectRatio="xMinYMin meet" x="531.5" y="-332"/>
<text text-anchor="start" x="546.5" y="-323.2" font-family="Helvetica,sans-Serif" font-size="11.00">ad_orgtrx_id</text>
<polygon fill="none" stroke="black" points="526.5,-293 526.5,-315 749.5,-315 749.5,-293 526.5,-293"/>
<image xlink:href="../../images/foreignKeys.png" width="11px" height="12px" preserveAspectRatio="xMinYMin meet" x="531.5" y="-310"/>
<text text-anchor="start" x="546.5" y="-301.2" font-family="Helvetica,sans-Serif" font-size="11.00">c_job_id</text>
<polygon fill="#ffffff" stroke="transparent" points="526.5,-271 526.5,-293 749.5,-293 749.5,-271 526.5,-271"/>
<polygon fill="none" stroke="black" points="526.5,-271 526.5,-293 749.5,-293 749.5,-271 526.5,-271"/>
<text text-anchor="start" x="546.5" y="-279.2" font-family="Helvetica,sans-Serif" font-size="11.00">ad_user_uu</text>
<polygon fill="none" stroke="black" points="526.5,-249 526.5,-271 749.5,-271 749.5,-249 526.5,-249"/>
<image xlink:href="../../images/foreignKeys.png" width="11px" height="12px" preserveAspectRatio="xMinYMin meet" x="531.5" y="-266"/>
<text text-anchor="start" x="546.5" y="-257.2" font-family="Helvetica,sans-Serif" font-size="11.00">c_location_id</text>
<polygon fill="none" stroke="black" points="526.5,-227 526.5,-249 749.5,-249 749.5,-227 526.5,-227"/>
<image xlink:href="../../images/foreignKeys.png" width="11px" height="12px" preserveAspectRatio="xMinYMin meet" x="531.5" y="-244"/>
<text text-anchor="start" x="546.5" y="-235.2" font-family="Helvetica,sans-Serif" font-size="11.00">c_campaign_id</text>
<polygon fill="none" stroke="black" points="526.5,-205 526.5,-227 749.5,-227 749.5,-205 526.5,-205"/>
<image xlink:href="../../images/foreignKeys.png" width="11px" height="12px" preserveAspectRatio="xMinYMin meet" x="531.5" y="-222"/>
<text text-anchor="start" x="546.5" y="-213.2" font-family="Helvetica,sans-Serif" font-size="11.00">salesrep_id</text>
<polygon fill="none" stroke="black" points="526.5,-183 526.5,-205 749.5,-205 749.5,-183 526.5,-183"/>
<image xlink:href="../../images/foreignKeys.png" width="11px" height="12px" preserveAspectRatio="xMinYMin meet" x="531.5" y="-200"/>
<text text-anchor="start" x="546.5" y="-191.2" font-family="Helvetica,sans-Serif" font-size="11.00">bp_location_id</text>
<polygon fill="none" stroke="black" points="526.5,-161 526.5,-183 749.5,-183 749.5,-161 526.5,-161"/>
<image xlink:href="../../images/foreignKeys.png" width="11px" height="12px" preserveAspectRatio="xMinYMin meet" x="531.5" y="-178"/>
<text text-anchor="start" x="546.5" y="-169.2" font-family="Helvetica,sans-Serif" font-size="11.00">r_defaultmailtext_id</text>
<polygon fill="none" stroke="black" points="526.5,-139 526.5,-161 749.5,-161 749.5,-139 526.5,-139"/>
<image xlink:href="../../images/foreignKeys.png" width="11px" height="12px" preserveAspectRatio="xMinYMin meet" x="531.5" y="-156"/>
<text text-anchor="start" x="546.5" y="-147.2" font-family="Helvetica,sans-Serif" font-size="11.00">cof_c_marketsegment_id</text>
<polygon fill="none" stroke="black" points="526.5,-117 526.5,-139 749.5,-139 749.5,-117 526.5,-117"/>
<image xlink:href="../../images/foreignKeys.png" width="11px" height="12px" preserveAspectRatio="xMinYMin meet" x="531.5" y="-134"/>
<text text-anchor="start" x="546.5" y="-125.2" font-family="Helvetica,sans-Serif" font-size="11.00">cof_c_leadexpirationreason_id</text>
<polygon fill="none" stroke="black" points="526.5,-95 526.5,-117 749.5,-117 749.5,-95 526.5,-95"/>
<image xlink:href="../../images/foreignKeys.png" width="11px" height="12px" preserveAspectRatio="xMinYMin meet" x="531.5" y="-112"/>
<text text-anchor="start" x="546.5" y="-103.2" font-family="Helvetica,sans-Serif" font-size="11.00">ad_image_id</text>
<polygon fill="none" stroke="black" points="526.5,-73 526.5,-95 749.5,-95 749.5,-73 526.5,-73"/>
<image xlink:href="../../images/foreignKeys.png" width="11px" height="12px" preserveAspectRatio="xMinYMin meet" x="531.5" y="-90"/>
<text text-anchor="start" x="546.5" y="-81.2" font-family="Helvetica,sans-Serif" font-size="11.00">c_subscription_id</text>
<polygon fill="none" stroke="black" points="526.5,-55 526.5,-73 749.5,-73 749.5,-55 526.5,-55"/>
<text text-anchor="start" x="529.5" y="-61.2" font-family="Helvetica,sans-Serif" font-size="11.00">...</text>
<polygon fill="#ffffff" stroke="transparent" points="526.5,-37 526.5,-55 615.5,-55 615.5,-37 526.5,-37"/>
<polygon fill="none" stroke="black" points="526.5,-37 526.5,-55 615.5,-55 615.5,-37 526.5,-37"/>
<text text-anchor="start" x="529.5" y="-43.2" font-family="Helvetica,sans-Serif" font-size="11.00">&lt; 17</text>
<polygon fill="#ffffff" stroke="transparent" points="615.5,-37 615.5,-55 684.5,-55 684.5,-37 615.5,-37"/>
<polygon fill="none" stroke="black" points="615.5,-37 615.5,-55 684.5,-55 684.5,-37 615.5,-37"/>
<text text-anchor="start" x="648.5" y="-43.2" font-family="Helvetica,sans-Serif" font-size="11.00">8 rows</text>
<polygon fill="#ffffff" stroke="transparent" points="684.5,-37 684.5,-55 749.5,-55 749.5,-37 684.5,-37"/>
<polygon fill="none" stroke="black" points="684.5,-37 684.5,-55 749.5,-55 749.5,-37 684.5,-37"/>
<text text-anchor="start" x="718.5" y="-43.2" font-family="Helvetica,sans-Serif" font-size="11.00">316 &gt;</text>
</a>
</g>
</g>
<!-- ad_user&#45;&gt;ad_org -->
<g id="edge3" class="edge">
<title>ad_user:w&#45;&gt;ad_org:e</title>
<path fill="none" stroke="black" d="M511.1,-482.14C448.68,-503.84 565.05,-683 478,-683"/>
<polygon fill="black" stroke="black" points="517.59,-481.18 526.03,-483.56 521.54,-480.59 525.5,-480 525.5,-480 525.5,-480 521.54,-480.59 524.97,-476.44 517.59,-481.18 517.59,-481.18"/>
<ellipse fill="none" stroke="black" cx="514.42" cy="-481.65" rx="3.2" ry="3.2"/>
</g>
<!-- ad_user&#45;&gt;ad_org -->
<g id="edge4" class="edge">
<title>ad_user:w&#45;&gt;ad_org:e</title>
<path fill="none" stroke="black" d="M511.66,-330.78C459.96,-373.14 552.56,-683 478,-683"/>
<polygon fill="black" stroke="black" points="517.94,-328.61 526.67,-329.4 521.72,-327.31 525.5,-326 525.5,-326 525.5,-326 521.72,-327.31 524.33,-322.6 517.94,-328.61 517.94,-328.61"/>
<ellipse fill="none" stroke="black" cx="514.91" cy="-329.66" rx="3.2" ry="3.2"/>
</g>
<!-- ad_user&#45;&gt;ad_client -->
<g id="edge2" class="edge">
<title>ad_user:w&#45;&gt;ad_client:e</title>
<path fill="none" stroke="black" d="M510.93,-501.66C410.02,-496.99 357.44,-446.54 277,-515 212.93,-569.52 321.12,-700 237,-700"/>
<polygon fill="black" stroke="black" points="517.5,-501.81 525.42,-505.6 521.5,-501.91 525.5,-502 525.5,-502 525.5,-502 521.5,-501.91 525.58,-498.4 517.5,-501.81 517.5,-501.81"/>
<ellipse fill="none" stroke="black" cx="514.3" cy="-501.74" rx="3.2" ry="3.2"/>
</g>
<!-- c_taxprovider -->
<g id="node4" class="node">
<title>c_taxprovider</title>
<g id="a_node4"><a xlink:href="../../tables/c_taxprovider.html" xlink:title="c_taxprovider" target="_top">
<polygon fill="#ffffff" stroke="transparent" points="1091,-589 1091,-801 1243,-801 1243,-589 1091,-589"/>
<polygon fill="#f5f5f5" stroke="transparent" points="1091,-779 1091,-801 1243,-801 1243,-779 1091,-779"/>
<polygon fill="none" stroke="black" points="1091,-779 1091,-801 1243,-801 1243,-779 1091,-779"/>
<text text-anchor="start" x="1096" y="-788.2" font-family="Helvetica,sans-Serif" font-weight="bold" font-size="11.00">c_taxprovider</text>
<text text-anchor="start" x="1208" y="-787.2" font-family="Helvetica,sans-Serif" font-size="11.00">[table]</text>
<polygon fill="none" stroke="black" points="1091,-757 1091,-779 1243,-779 1243,-757 1091,-757"/>
<image xlink:href="../../images/foreignKeys.png" width="11px" height="12px" preserveAspectRatio="xMinYMin meet" x="1096" y="-774"/>
<text text-anchor="start" x="1111" y="-765.2" font-family="Helvetica,sans-Serif" font-size="11.00">ad_client_id</text>
<polygon fill="none" stroke="black" points="1091,-735 1091,-757 1243,-757 1243,-735 1091,-735"/>
<image xlink:href="../../images/foreignKeys.png" width="11px" height="12px" preserveAspectRatio="xMinYMin meet" x="1096" y="-752"/>
<text text-anchor="start" x="1111" y="-743.2" font-family="Helvetica,sans-Serif" font-size="11.00">ad_org_id</text>
<polygon fill="none" stroke="black" points="1091,-713 1091,-735 1243,-735 1243,-713 1091,-713"/>
<image xlink:href="../../images/primaryKeys.png" width="11px" height="12px" preserveAspectRatio="xMinYMin meet" x="1096" y="-730"/>
<text text-anchor="start" x="1111" y="-721.2" font-family="Helvetica,sans-Serif" font-size="11.00">c_taxprovider_id</text>
<polygon fill="#ffffff" stroke="transparent" points="1091,-691 1091,-713 1243,-713 1243,-691 1091,-691"/>
<polygon fill="none" stroke="black" points="1091,-691 1091,-713 1243,-713 1243,-691 1091,-691"/>
<text text-anchor="start" x="1111" y="-699.2" font-family="Helvetica,sans-Serif" font-size="11.00">c_taxprovider_uu</text>
<polygon fill="none" stroke="black" points="1091,-669 1091,-691 1243,-691 1243,-669 1091,-669"/>
<image xlink:href="../../images/foreignKeys.png" width="11px" height="12px" preserveAspectRatio="xMinYMin meet" x="1096" y="-686"/>
<text text-anchor="start" x="1111" y="-677.2" font-family="Helvetica,sans-Serif" font-size="11.00">c_taxprovidercfg_id</text>
<polygon fill="none" stroke="black" points="1091,-647 1091,-669 1243,-669 1243,-647 1091,-647"/>
<image xlink:href="../../images/foreignKeys.png" width="11px" height="12px" preserveAspectRatio="xMinYMin meet" x="1096" y="-664"/>
<text text-anchor="start" x="1111" y="-655.2" font-family="Helvetica,sans-Serif" font-size="11.00">createdby</text>
<polygon fill="none" stroke="black" points="1091,-625 1091,-647 1243,-647 1243,-625 1091,-625"/>
<image xlink:href="../../images/foreignKeys.png" width="11px" height="12px" preserveAspectRatio="xMinYMin meet" x="1096" y="-642"/>
<text text-anchor="start" x="1111" y="-633.2" font-family="Helvetica,sans-Serif" font-size="11.00">updatedby</text>
<polygon fill="none" stroke="black" points="1091,-607 1091,-625 1243,-625 1243,-607 1091,-607"/>
<text text-anchor="start" x="1094" y="-613.2" font-family="Helvetica,sans-Serif" font-size="11.00">...</text>
<polygon fill="#ffffff" stroke="transparent" points="1091,-589 1091,-607 1150,-607 1150,-589 1091,-589"/>
<polygon fill="none" stroke="black" points="1091,-589 1091,-607 1150,-607 1150,-589 1091,-589"/>
<text text-anchor="start" x="1094" y="-595.2" font-family="Helvetica,sans-Serif" font-size="11.00">&lt; 5</text>
<polygon fill="#ffffff" stroke="transparent" points="1150,-589 1150,-607 1202,-607 1202,-589 1150,-589"/>
<polygon fill="none" stroke="black" points="1150,-589 1150,-607 1202,-607 1202,-589 1150,-589"/>
<text text-anchor="start" x="1171" y="-595.2" font-family="Helvetica,sans-Serif" font-size="11.00">1 row</text>
<polygon fill="#ffffff" stroke="transparent" points="1202,-589 1202,-607 1243,-607 1243,-589 1202,-589"/>
<polygon fill="none" stroke="black" points="1202,-589 1202,-607 1243,-607 1243,-589 1202,-589"/>
<text text-anchor="start" x="1224" y="-595.2" font-family="Helvetica,sans-Serif" font-size="11.00">4 &gt;</text>
</a>
</g>
</g>
<!-- c_taxprovider&#45;&gt;ad_org -->
<g id="edge6" class="edge">
<title>c_taxprovider:w&#45;&gt;ad_org:e</title>
<path fill="none" stroke="black" d="M1075.9,-750.08C1067.82,-755.64 1063.78,-765.32 1050,-769 938.36,-798.81 904.74,-782.72 790,-769 666.48,-754.23 634.82,-745.75 518,-703 499.33,-696.17 497.88,-683 478,-683"/>
<polygon fill="black" stroke="black" points="1082.32,-748.22 1091,-749.46 1086.16,-747.11 1090,-746 1090,-746 1090,-746 1086.16,-747.11 1089,-742.54 1082.32,-748.22 1082.32,-748.22"/>
<ellipse fill="none" stroke="black" cx="1079.24" cy="-749.11" rx="3.2" ry="3.2"/>
</g>
<!-- c_taxprovider&#45;&gt;ad_client -->
<g id="edge5" class="edge">
<title>c_taxprovider:w&#45;&gt;ad_client:e</title>
<path fill="none" stroke="black" d="M1075.81,-771.72C1067.82,-776.58 1063.3,-784.86 1050,-788 937.54,-814.55 905.48,-792.16 790,-788 561.56,-779.77 478.82,-858.35 277,-751 251.57,-737.47 265.81,-700 237,-700"/>
<polygon fill="black" stroke="black" points="1082.26,-770.03 1090.91,-771.48 1086.13,-769.01 1090,-768 1090,-768 1090,-768 1086.13,-769.01 1089.09,-764.52 1082.26,-770.03 1082.26,-770.03"/>
<ellipse fill="none" stroke="black" cx="1079.17" cy="-770.84" rx="3.2" ry="3.2"/>
</g>
<!-- c_taxprovider&#45;&gt;ad_user -->
<g id="edge8" class="edge">
<title>c_taxprovider:w&#45;&gt;ad_user:e</title>
<path fill="none" stroke="black" d="M1076.7,-652.05C1046.17,-618.1 1087.07,-449.4 1050,-418 1005.91,-380.65 837.45,-385.04 790,-418 748.71,-446.68 800.78,-524 750.5,-524"/>
<polygon fill="black" stroke="black" points="1082.7,-654.73 1088.53,-661.29 1086.35,-656.37 1090,-658 1090,-658 1090,-658 1086.35,-656.37 1091.47,-654.71 1082.7,-654.73 1082.7,-654.73"/>
<ellipse fill="none" stroke="black" cx="1079.78" cy="-653.43" rx="3.2" ry="3.2"/>
</g>
<!-- c_taxprovider&#45;&gt;ad_user -->
<g id="edge9" class="edge">
<title>c_taxprovider:w&#45;&gt;ad_user:e</title>
<path fill="none" stroke="black" d="M1076.76,-630.32C1044.76,-596.46 1088.21,-421.52 1050,-389 962,-314.11 882.47,-319.71 790,-389 739.97,-426.49 813.02,-524 750.5,-524"/>
<polygon fill="black" stroke="black" points="1082.65,-632.85 1088.58,-639.31 1086.32,-634.42 1090,-636 1090,-636 1090,-636 1086.32,-634.42 1091.42,-632.69 1082.65,-632.85 1082.65,-632.85"/>
<ellipse fill="none" stroke="black" cx="1079.71" cy="-631.59" rx="3.2" ry="3.2"/>
</g>
<!-- c_taxprovidercfg -->
<g id="node5" class="node">
<title>c_taxprovidercfg</title>
<g id="a_node5"><a xlink:href="../../tables/c_taxprovidercfg.html" xlink:title="c_taxprovidercfg" target="_top">
<polygon fill="#ffffff" stroke="transparent" points="798,-429 798,-759 1042,-759 1042,-429 798,-429"/>
<polygon fill="#f5f5f5" stroke="transparent" points="800,-735 800,-757 1040,-757 1040,-735 800,-735"/>
<polygon fill="none" stroke="black" points="800,-735 800,-757 1040,-757 1040,-735 800,-735"/>
<text text-anchor="start" x="805" y="-744.2" font-family="Helvetica,sans-Serif" font-weight="bold" font-size="11.00">c_taxprovidercfg</text>
<text text-anchor="start" x="1005" y="-743.2" font-family="Helvetica,sans-Serif" font-size="11.00">[table]</text>
<polygon fill="none" stroke="black" points="800,-713 800,-735 957,-735 957,-713 800,-713"/>
<image xlink:href="../../images/foreignKeys.png" width="11px" height="12px" preserveAspectRatio="xMinYMin meet" x="805" y="-730"/>
<text text-anchor="start" x="820" y="-721.2" font-family="Helvetica,sans-Serif" font-size="11.00">ad_client_id</text>
<polygon fill="none" stroke="black" points="957,-713 957,-735 1040,-735 1040,-713 957,-713"/>
<text text-anchor="start" x="960" y="-721.2" font-family="Helvetica,sans-Serif" font-size="11.00">numeric[10]</text>
<polygon fill="none" stroke="black" points="800,-691 800,-713 957,-713 957,-691 800,-691"/>
<image xlink:href="../../images/foreignKeys.png" width="11px" height="12px" preserveAspectRatio="xMinYMin meet" x="805" y="-708"/>
<text text-anchor="start" x="820" y="-699.2" font-family="Helvetica,sans-Serif" font-size="11.00">ad_org_id</text>
<polygon fill="none" stroke="black" points="957,-691 957,-713 1040,-713 1040,-691 957,-691"/>
<text text-anchor="start" x="960" y="-699.2" font-family="Helvetica,sans-Serif" font-size="11.00">numeric[10]</text>
<polygon fill="none" stroke="black" points="800,-669 800,-691 957,-691 957,-669 800,-669"/>
<image xlink:href="../../images/primaryKeys.png" width="11px" height="12px" preserveAspectRatio="xMinYMin meet" x="805" y="-686"/>
<text text-anchor="start" x="820" y="-677.2" font-family="Helvetica,sans-Serif" font-size="11.00">c_taxprovidercfg_id</text>
<polygon fill="none" stroke="black" points="957,-669 957,-691 1040,-691 1040,-669 957,-669"/>
<text text-anchor="start" x="960" y="-677.2" font-family="Helvetica,sans-Serif" font-size="11.00">numeric[10]</text>
<polygon fill="#ffffff" stroke="transparent" points="800,-647 800,-669 957,-669 957,-647 800,-647"/>
<polygon fill="none" stroke="black" points="800,-647 800,-669 957,-669 957,-647 800,-647"/>
<text text-anchor="start" x="820" y="-655.2" font-family="Helvetica,sans-Serif" font-size="11.00">c_taxprovidercfg_uu</text>
<polygon fill="none" stroke="black" points="957,-647 957,-669 1040,-669 1040,-647 957,-647"/>
<text text-anchor="start" x="960" y="-655.2" font-family="Helvetica,sans-Serif" font-size="11.00">varchar[36]</text>
<polygon fill="none" stroke="black" points="800,-625 800,-647 957,-647 957,-625 800,-625"/>
<text text-anchor="start" x="820" y="-633.2" font-family="Helvetica,sans-Serif" font-size="11.00">created</text>
<polygon fill="none" stroke="black" points="957,-625 957,-647 1040,-647 1040,-625 957,-625"/>
<text text-anchor="start" x="960" y="-633.2" font-family="Helvetica,sans-Serif" font-size="11.00">timestamp[29,6]</text>
<polygon fill="none" stroke="black" points="800,-603 800,-625 957,-625 957,-603 800,-603"/>
<image xlink:href="../../images/foreignKeys.png" width="11px" height="12px" preserveAspectRatio="xMinYMin meet" x="805" y="-620"/>
<text text-anchor="start" x="820" y="-611.2" font-family="Helvetica,sans-Serif" font-size="11.00">createdby</text>
<polygon fill="none" stroke="black" points="957,-603 957,-625 1040,-625 1040,-603 957,-603"/>
<text text-anchor="start" x="960" y="-611.2" font-family="Helvetica,sans-Serif" font-size="11.00">numeric[10]</text>
<polygon fill="none" stroke="black" points="800,-581 800,-603 957,-603 957,-581 800,-581"/>
<text text-anchor="start" x="820" y="-589.2" font-family="Helvetica,sans-Serif" font-size="11.00">description</text>
<polygon fill="none" stroke="black" points="957,-581 957,-603 1040,-603 1040,-581 957,-581"/>
<text text-anchor="start" x="960" y="-589.2" font-family="Helvetica,sans-Serif" font-size="11.00">varchar[255]</text>
<polygon fill="none" stroke="black" points="800,-559 800,-581 957,-581 957,-559 800,-559"/>
<text text-anchor="start" x="820" y="-567.2" font-family="Helvetica,sans-Serif" font-size="11.00">isactive</text>
<polygon fill="none" stroke="black" points="957,-559 957,-581 1040,-581 1040,-559 957,-559"/>
<text text-anchor="start" x="960" y="-567.2" font-family="Helvetica,sans-Serif" font-size="11.00">bpchar[1]</text>
<polygon fill="none" stroke="black" points="800,-537 800,-559 957,-559 957,-537 800,-537"/>
<text text-anchor="start" x="820" y="-545.2" font-family="Helvetica,sans-Serif" font-size="11.00">name</text>
<polygon fill="none" stroke="black" points="957,-537 957,-559 1040,-559 1040,-537 957,-537"/>
<text text-anchor="start" x="960" y="-545.2" font-family="Helvetica,sans-Serif" font-size="11.00">varchar[120]</text>
<polygon fill="none" stroke="black" points="800,-515 800,-537 957,-537 957,-515 800,-515"/>
<text text-anchor="start" x="820" y="-523.2" font-family="Helvetica,sans-Serif" font-size="11.00">taxproviderclass</text>
<polygon fill="none" stroke="black" points="957,-515 957,-537 1040,-537 1040,-515 957,-515"/>
<text text-anchor="start" x="960" y="-523.2" font-family="Helvetica,sans-Serif" font-size="11.00">varchar[60]</text>
<polygon fill="none" stroke="black" points="800,-493 800,-515 957,-515 957,-493 800,-493"/>
<text text-anchor="start" x="820" y="-501.2" font-family="Helvetica,sans-Serif" font-size="11.00">updated</text>
<polygon fill="none" stroke="black" points="957,-493 957,-515 1040,-515 1040,-493 957,-493"/>
<text text-anchor="start" x="960" y="-501.2" font-family="Helvetica,sans-Serif" font-size="11.00">timestamp[29,6]</text>
<polygon fill="none" stroke="black" points="800,-471 800,-493 957,-493 957,-471 800,-471"/>
<image xlink:href="../../images/foreignKeys.png" width="11px" height="12px" preserveAspectRatio="xMinYMin meet" x="805" y="-488"/>
<text text-anchor="start" x="820" y="-479.2" font-family="Helvetica,sans-Serif" font-size="11.00">updatedby</text>
<polygon fill="none" stroke="black" points="957,-471 957,-493 1040,-493 1040,-471 957,-471"/>
<text text-anchor="start" x="960" y="-479.2" font-family="Helvetica,sans-Serif" font-size="11.00">numeric[10]</text>
<polygon fill="none" stroke="black" points="800,-449 800,-471 957,-471 957,-449 800,-449"/>
<text text-anchor="start" x="820" y="-457.2" font-family="Helvetica,sans-Serif" font-size="11.00">url</text>
<polygon fill="none" stroke="black" points="957,-449 957,-471 1040,-471 1040,-449 957,-449"/>
<text text-anchor="start" x="960" y="-457.2" font-family="Helvetica,sans-Serif" font-size="11.00">varchar[120]</text>
<polygon fill="#ffffff" stroke="transparent" points="800,-431 800,-449 872,-449 872,-431 800,-431"/>
<polygon fill="none" stroke="black" points="800,-431 800,-449 872,-449 872,-431 800,-431"/>
<text text-anchor="start" x="803" y="-437.2" font-family="Helvetica,sans-Serif" font-size="11.00">&lt; 4</text>
<polygon fill="#ffffff" stroke="transparent" points="872,-431 872,-449 957,-449 957,-431 872,-431"/>
<polygon fill="none" stroke="black" points="872,-431 872,-449 957,-449 957,-431 872,-431"/>
<text text-anchor="start" x="926" y="-437.2" font-family="Helvetica,sans-Serif" font-size="11.00">1 row</text>
<polygon fill="#ffffff" stroke="transparent" points="957,-431 957,-449 1040,-449 1040,-431 957,-431"/>
<polygon fill="none" stroke="black" points="957,-431 957,-449 1040,-449 1040,-431 957,-431"/>
<text text-anchor="start" x="1021" y="-437.2" font-family="Helvetica,sans-Serif" font-size="11.00">1 &gt;</text>
<polygon fill="none" stroke="black" stroke-width="2" points="799,-430 799,-758 1041,-758 1041,-430 799,-430"/>
</a>
</g>
</g>
<!-- c_taxprovider&#45;&gt;c_taxprovidercfg -->
<g id="edge7" class="edge">
<title>c_taxprovider:w&#45;&gt;c_taxprovidercfg:e</title>
<path fill="none" stroke="black" d="M1075.49,-680C1064.18,-680 1056.99,-680 1041,-680"/>
<polygon fill="black" stroke="black" points="1082,-680 1090,-683.6 1086,-680 1090,-680 1090,-680 1090,-680 1086,-680 1090,-676.4 1082,-680 1082,-680"/>
<ellipse fill="none" stroke="black" cx="1078.8" cy="-680" rx="3.2" ry="3.2"/>
</g>
<!-- c_taxprovidercfg&#45;&gt;ad_org -->
<g id="edge11" class="edge">
<title>c_taxprovidercfg:w&#45;&gt;ad_org:e</title>
<path fill="none" stroke="black" d="M784.32,-701.93C653.48,-700.69 615.89,-683 478,-683"/>
<polygon fill="black" stroke="black" points="791,-701.96 798.98,-705.6 795,-701.98 799,-702 799,-702 799,-702 795,-701.98 799.02,-698.4 791,-701.96 791,-701.96"/>
<ellipse fill="none" stroke="black" cx="787.8" cy="-701.95" rx="3.2" ry="3.2"/>
</g>
<!-- c_taxprovidercfg&#45;&gt;ad_client -->
<g id="edge10" class="edge">
<title>c_taxprovidercfg:w&#45;&gt;ad_client:e</title>
<path fill="none" stroke="black" d="M784.27,-724.09C564.02,-726.86 494.66,-790.52 277,-726 256.67,-719.97 258.2,-700 237,-700"/>
<polygon fill="black" stroke="black" points="791,-724.05 799.02,-727.6 795,-724.03 799,-724 799,-724 799,-724 795,-724.03 798.98,-720.4 791,-724.05 791,-724.05"/>
<ellipse fill="none" stroke="black" cx="787.8" cy="-724.07" rx="3.2" ry="3.2"/>
</g>
<!-- c_taxprovidercfg&#45;&gt;ad_user -->
<g id="edge12" class="edge">
<title>c_taxprovidercfg:w&#45;&gt;ad_user:e</title>
<path fill="none" stroke="black" d="M785.13,-609.66C763.27,-591.68 789.9,-524 750.5,-524"/>
<polygon fill="black" stroke="black" points="791.37,-611.61 797.92,-617.44 795.18,-612.81 799,-614 799,-614 799,-614 795.18,-612.81 800.08,-610.56 791.37,-611.61 791.37,-611.61"/>
<ellipse fill="none" stroke="black" cx="788.31" cy="-610.65" rx="3.2" ry="3.2"/>
</g>
<!-- c_taxprovidercfg&#45;&gt;ad_user -->
<g id="edge13" class="edge">
<title>c_taxprovidercfg:w&#45;&gt;ad_user:e</title>
<path fill="none" stroke="black" d="M785.2,-486.82C772.44,-497.85 773,-524 750.5,-524"/>
<polygon fill="black" stroke="black" points="791.45,-484.64 800.19,-485.4 795.22,-483.32 799,-482 799,-482 799,-482 795.22,-483.32 797.81,-478.6 791.45,-484.64 791.45,-484.64"/>
<ellipse fill="none" stroke="black" cx="788.43" cy="-485.69" rx="3.2" ry="3.2"/>
</g>
</g>
</svg>
