<?xml version="1.0" encoding="UTF-8" standalone="no"?>
<!DOCTYPE svg PUBLIC "-//W3C//DTD SVG 1.1//EN"
 "http://www.w3.org/Graphics/SVG/1.1/DTD/svg11.dtd">
<!-- Generated by graphviz version 2.43.0 (0)
 -->
<!-- Title: oneDegreeRelationshipsDiagram Pages: 1 -->
<svg width="496pt" height="362pt"
 viewBox="0.00 0.00 496.00 362.00" xmlns="http://www.w3.org/2000/svg" xmlns:xlink="http://www.w3.org/1999/xlink">
<g id="graph0" class="graph" transform="scale(1 1) rotate(0) translate(4 358)">
<title>oneDegreeRelationshipsDiagram</title>
<polygon fill="#ffffff" stroke="transparent" points="-4,4 -4,-358 492,-358 492,4 -4,4"/>
<text text-anchor="middle" x="71.5" y="-7.2" font-family="Helvetica,sans-Serif" font-size="11.00">Generated by SchemaSpy</text>
<!-- cm_accesscontainer -->
<g id="node1" class="node">
<title>cm_accesscontainer</title>
<g id="a_node1"><a xlink:href="../../tables/cm_accesscontainer.html" xlink:title="cm_accesscontainer" target="_top">
<polygon fill="#ffffff" stroke="transparent" points="215,-37 215,-301 480,-301 480,-37 215,-37"/>
<polygon fill="#f5f5f5" stroke="transparent" points="217.5,-277 217.5,-299 478.5,-299 478.5,-277 217.5,-277"/>
<polygon fill="none" stroke="black" points="217.5,-277 217.5,-299 478.5,-299 478.5,-277 217.5,-277"/>
<text text-anchor="start" x="222.5" y="-286.2" font-family="Helvetica,sans-Serif" font-weight="bold" font-size="11.00">cm_accesscontainer</text>
<text text-anchor="start" x="443.5" y="-285.2" font-family="Helvetica,sans-Serif" font-size="11.00">[table]</text>
<polygon fill="none" stroke="black" points="217.5,-255 217.5,-277 395.5,-277 395.5,-255 217.5,-255"/>
<image xlink:href="../../images/primaryKeys.png" width="11px" height="12px" preserveAspectRatio="xMinYMin meet" x="222.5" y="-272"/>
<text text-anchor="start" x="237.5" y="-263.2" font-family="Helvetica,sans-Serif" font-size="11.00">cm_accessprofile_id</text>
<polygon fill="none" stroke="black" points="395.5,-255 395.5,-277 478.5,-277 478.5,-255 395.5,-255"/>
<text text-anchor="start" x="398.5" y="-263.2" font-family="Helvetica,sans-Serif" font-size="11.00">numeric[10]</text>
<polygon fill="none" stroke="black" points="217.5,-233 217.5,-255 395.5,-255 395.5,-233 217.5,-233"/>
<image xlink:href="../../images/primaryKeys.png" width="11px" height="12px" preserveAspectRatio="xMinYMin meet" x="222.5" y="-250"/>
<text text-anchor="start" x="237.5" y="-241.2" font-family="Helvetica,sans-Serif" font-size="11.00">cm_container_id</text>
<polygon fill="none" stroke="black" points="395.5,-233 395.5,-255 478.5,-255 478.5,-233 395.5,-233"/>
<text text-anchor="start" x="398.5" y="-241.2" font-family="Helvetica,sans-Serif" font-size="11.00">numeric[10]</text>
<polygon fill="none" stroke="black" points="217.5,-211 217.5,-233 395.5,-233 395.5,-211 217.5,-211"/>
<text text-anchor="start" x="237.5" y="-219.2" font-family="Helvetica,sans-Serif" font-size="11.00">ad_client_id</text>
<polygon fill="none" stroke="black" points="395.5,-211 395.5,-233 478.5,-233 478.5,-211 395.5,-211"/>
<text text-anchor="start" x="398.5" y="-219.2" font-family="Helvetica,sans-Serif" font-size="11.00">numeric[10]</text>
<polygon fill="none" stroke="black" points="217.5,-189 217.5,-211 395.5,-211 395.5,-189 217.5,-189"/>
<text text-anchor="start" x="237.5" y="-197.2" font-family="Helvetica,sans-Serif" font-size="11.00">ad_org_id</text>
<polygon fill="none" stroke="black" points="395.5,-189 395.5,-211 478.5,-211 478.5,-189 395.5,-189"/>
<text text-anchor="start" x="398.5" y="-197.2" font-family="Helvetica,sans-Serif" font-size="11.00">numeric[10]</text>
<polygon fill="none" stroke="black" points="217.5,-167 217.5,-189 395.5,-189 395.5,-167 217.5,-167"/>
<text text-anchor="start" x="237.5" y="-175.2" font-family="Helvetica,sans-Serif" font-size="11.00">isactive</text>
<polygon fill="none" stroke="black" points="395.5,-167 395.5,-189 478.5,-189 478.5,-167 395.5,-167"/>
<text text-anchor="start" x="398.5" y="-175.2" font-family="Helvetica,sans-Serif" font-size="11.00">bpchar[1]</text>
<polygon fill="none" stroke="black" points="217.5,-145 217.5,-167 395.5,-167 395.5,-145 217.5,-145"/>
<text text-anchor="start" x="237.5" y="-153.2" font-family="Helvetica,sans-Serif" font-size="11.00">created</text>
<polygon fill="none" stroke="black" points="395.5,-145 395.5,-167 478.5,-167 478.5,-145 395.5,-145"/>
<text text-anchor="start" x="398.5" y="-153.2" font-family="Helvetica,sans-Serif" font-size="11.00">timestamp[29,6]</text>
<polygon fill="none" stroke="black" points="217.5,-123 217.5,-145 395.5,-145 395.5,-123 217.5,-123"/>
<text text-anchor="start" x="237.5" y="-131.2" font-family="Helvetica,sans-Serif" font-size="11.00">createdby</text>
<polygon fill="none" stroke="black" points="395.5,-123 395.5,-145 478.5,-145 478.5,-123 395.5,-123"/>
<text text-anchor="start" x="398.5" y="-131.2" font-family="Helvetica,sans-Serif" font-size="11.00">numeric[10]</text>
<polygon fill="none" stroke="black" points="217.5,-101 217.5,-123 395.5,-123 395.5,-101 217.5,-101"/>
<text text-anchor="start" x="237.5" y="-109.2" font-family="Helvetica,sans-Serif" font-size="11.00">updated</text>
<polygon fill="none" stroke="black" points="395.5,-101 395.5,-123 478.5,-123 478.5,-101 395.5,-101"/>
<text text-anchor="start" x="398.5" y="-109.2" font-family="Helvetica,sans-Serif" font-size="11.00">timestamp[29,6]</text>
<polygon fill="none" stroke="black" points="217.5,-79 217.5,-101 395.5,-101 395.5,-79 217.5,-79"/>
<text text-anchor="start" x="237.5" y="-87.2" font-family="Helvetica,sans-Serif" font-size="11.00">updatedby</text>
<polygon fill="none" stroke="black" points="395.5,-79 395.5,-101 478.5,-101 478.5,-79 395.5,-79"/>
<text text-anchor="start" x="398.5" y="-87.2" font-family="Helvetica,sans-Serif" font-size="11.00">numeric[10]</text>
<polygon fill="#ffffff" stroke="transparent" points="217.5,-57 217.5,-79 395.5,-79 395.5,-57 217.5,-57"/>
<polygon fill="none" stroke="black" points="217.5,-57 217.5,-79 395.5,-79 395.5,-57 217.5,-57"/>
<text text-anchor="start" x="237.5" y="-65.2" font-family="Helvetica,sans-Serif" font-size="11.00">cm_accesscontainer_uu</text>
<polygon fill="none" stroke="black" points="395.5,-57 395.5,-79 478.5,-79 478.5,-57 395.5,-57"/>
<text text-anchor="start" x="398.5" y="-65.2" font-family="Helvetica,sans-Serif" font-size="11.00">varchar[36]</text>
<polygon fill="#ffffff" stroke="transparent" points="217.5,-39 217.5,-57 297.5,-57 297.5,-39 217.5,-39"/>
<polygon fill="none" stroke="black" points="217.5,-39 217.5,-57 297.5,-57 297.5,-39 217.5,-39"/>
<text text-anchor="start" x="220.5" y="-45.2" font-family="Helvetica,sans-Serif" font-size="11.00">&lt; 2</text>
<polygon fill="#ffffff" stroke="transparent" points="297.5,-39 297.5,-57 395.5,-57 395.5,-39 297.5,-39"/>
<polygon fill="none" stroke="black" points="297.5,-39 297.5,-57 395.5,-57 395.5,-39 297.5,-39"/>
<text text-anchor="start" x="359.5" y="-45.2" font-family="Helvetica,sans-Serif" font-size="11.00">0 rows</text>
<polygon fill="#ffffff" stroke="transparent" points="395.5,-39 395.5,-57 478.5,-57 478.5,-39 395.5,-39"/>
<polygon fill="none" stroke="black" points="395.5,-39 395.5,-57 478.5,-57 478.5,-39 395.5,-39"/>
<text text-anchor="start" x="459.5" y="-45.2" font-family="Helvetica,sans-Serif" font-size="11.00">0 &gt;</text>
<polygon fill="none" stroke="black" stroke-width="2" points="216,-38 216,-300 479,-300 479,-38 216,-38"/>
</a>
</g>
</g>
<!-- cm_accessprofile -->
<g id="node2" class="node">
<title>cm_accessprofile</title>
<g id="a_node2"><a xlink:href="../../tables/cm_accessprofile.html" xlink:title="cm_accessprofile" target="_top">
<polygon fill="#ffffff" stroke="transparent" points="8,-248 8,-350 166,-350 166,-248 8,-248"/>
<polygon fill="#f5f5f5" stroke="transparent" points="8,-328 8,-350 166,-350 166,-328 8,-328"/>
<polygon fill="none" stroke="black" points="8,-328 8,-350 166,-350 166,-328 8,-328"/>
<text text-anchor="start" x="13" y="-337.2" font-family="Helvetica,sans-Serif" font-weight="bold" font-size="11.00">cm_accessprofile</text>
<text text-anchor="start" x="131" y="-336.2" font-family="Helvetica,sans-Serif" font-size="11.00">[table]</text>
<polygon fill="none" stroke="black" points="8,-306 8,-328 166,-328 166,-306 8,-306"/>
<image xlink:href="../../images/primaryKeys.png" width="11px" height="12px" preserveAspectRatio="xMinYMin meet" x="13" y="-323"/>
<text text-anchor="start" x="28" y="-314.2" font-family="Helvetica,sans-Serif" font-size="11.00">cm_accessprofile_id</text>
<polygon fill="#ffffff" stroke="transparent" points="8,-284 8,-306 166,-306 166,-284 8,-284"/>
<polygon fill="none" stroke="black" points="8,-284 8,-306 166,-306 166,-284 8,-284"/>
<text text-anchor="start" x="28" y="-292.2" font-family="Helvetica,sans-Serif" font-size="11.00">cm_accessprofile_uu</text>
<polygon fill="none" stroke="black" points="8,-266 8,-284 166,-284 166,-266 8,-266"/>
<text text-anchor="start" x="11" y="-272.2" font-family="Helvetica,sans-Serif" font-size="11.00">...</text>
<polygon fill="#ffffff" stroke="transparent" points="8,-248 8,-266 63,-266 63,-248 8,-248"/>
<polygon fill="none" stroke="black" points="8,-248 8,-266 63,-266 63,-248 8,-248"/>
<text text-anchor="start" x="11" y="-254.2" font-family="Helvetica,sans-Serif" font-size="11.00"> &#160;</text>
<polygon fill="#ffffff" stroke="transparent" points="63,-248 63,-266 123,-266 123,-248 63,-248"/>
<polygon fill="none" stroke="black" points="63,-248 63,-266 123,-266 123,-248 63,-248"/>
<text text-anchor="start" x="87" y="-254.2" font-family="Helvetica,sans-Serif" font-size="11.00">0 rows</text>
<polygon fill="#ffffff" stroke="transparent" points="123,-248 123,-266 166,-266 166,-248 123,-248"/>
<polygon fill="none" stroke="black" points="123,-248 123,-266 166,-266 166,-248 123,-248"/>
<text text-anchor="start" x="147" y="-254.2" font-family="Helvetica,sans-Serif" font-size="11.00">6 &gt;</text>
</a>
</g>
</g>
<!-- cm_accesscontainer&#45;&gt;cm_accessprofile -->
<g id="edge1" class="edge">
<title>cm_accesscontainer:w&#45;&gt;cm_accessprofile:e</title>
<path fill="none" stroke="black" d="M202.5,-271.08C188.53,-283.98 192.42,-317 167,-317"/>
<polygon fill="black" stroke="black" points="208.98,-268.73 217.73,-269.38 212.74,-267.36 216.5,-266 216.5,-266 216.5,-266 212.74,-267.36 215.27,-262.62 208.98,-268.73 208.98,-268.73"/>
<ellipse fill="none" stroke="black" cx="205.97" cy="-269.82" rx="3.2" ry="3.2"/>
</g>
<!-- cm_container -->
<g id="node3" class="node">
<title>cm_container</title>
<g id="a_node3"><a xlink:href="../../tables/cm_container.html" xlink:title="cm_container" target="_top">
<polygon fill="#ffffff" stroke="transparent" points="10,-59 10,-227 164,-227 164,-59 10,-59"/>
<polygon fill="#f5f5f5" stroke="transparent" points="10,-205 10,-227 164,-227 164,-205 10,-205"/>
<polygon fill="none" stroke="black" points="10,-205 10,-227 164,-227 164,-205 10,-205"/>
<text text-anchor="start" x="15" y="-214.2" font-family="Helvetica,sans-Serif" font-weight="bold" font-size="11.00">cm_container</text>
<text text-anchor="start" x="129" y="-213.2" font-family="Helvetica,sans-Serif" font-size="11.00">[table]</text>
<polygon fill="none" stroke="black" points="10,-183 10,-205 164,-205 164,-183 10,-183"/>
<image xlink:href="../../images/primaryKeys.png" width="11px" height="12px" preserveAspectRatio="xMinYMin meet" x="15" y="-200"/>
<text text-anchor="start" x="30" y="-191.2" font-family="Helvetica,sans-Serif" font-size="11.00">cm_container_id</text>
<polygon fill="none" stroke="black" points="10,-161 10,-183 164,-183 164,-161 10,-161"/>
<image xlink:href="../../images/foreignKeys.png" width="11px" height="12px" preserveAspectRatio="xMinYMin meet" x="15" y="-178"/>
<text text-anchor="start" x="30" y="-169.2" font-family="Helvetica,sans-Serif" font-size="11.00">cm_webproject_id</text>
<polygon fill="none" stroke="black" points="10,-139 10,-161 164,-161 164,-139 10,-139"/>
<image xlink:href="../../images/foreignKeys.png" width="11px" height="12px" preserveAspectRatio="xMinYMin meet" x="15" y="-156"/>
<text text-anchor="start" x="30" y="-147.2" font-family="Helvetica,sans-Serif" font-size="11.00">cm_template_id</text>
<polygon fill="none" stroke="black" points="10,-117 10,-139 164,-139 164,-117 10,-117"/>
<image xlink:href="../../images/foreignKeys.png" width="11px" height="12px" preserveAspectRatio="xMinYMin meet" x="15" y="-134"/>
<text text-anchor="start" x="30" y="-125.2" font-family="Helvetica,sans-Serif" font-size="11.00">cm_containerlink_id</text>
<polygon fill="#ffffff" stroke="transparent" points="10,-95 10,-117 164,-117 164,-95 10,-95"/>
<polygon fill="none" stroke="black" points="10,-95 10,-117 164,-117 164,-95 10,-95"/>
<text text-anchor="start" x="30" y="-103.2" font-family="Helvetica,sans-Serif" font-size="11.00">cm_container_uu</text>
<polygon fill="none" stroke="black" points="10,-77 10,-95 164,-95 164,-77 10,-77"/>
<text text-anchor="start" x="13" y="-83.2" font-family="Helvetica,sans-Serif" font-size="11.00">...</text>
<polygon fill="#ffffff" stroke="transparent" points="10,-59 10,-77 67,-77 67,-59 10,-59"/>
<polygon fill="none" stroke="black" points="10,-59 10,-77 67,-77 67,-59 10,-59"/>
<text text-anchor="start" x="13" y="-65.2" font-family="Helvetica,sans-Serif" font-size="11.00">&lt; 3</text>
<polygon fill="#ffffff" stroke="transparent" points="67,-59 67,-77 124,-77 124,-59 67,-59"/>
<polygon fill="none" stroke="black" points="67,-59 67,-77 124,-77 124,-59 67,-59"/>
<text text-anchor="start" x="88" y="-65.2" font-family="Helvetica,sans-Serif" font-size="11.00">0 rows</text>
<polygon fill="#ffffff" stroke="transparent" points="124,-59 124,-77 164,-77 164,-59 124,-59"/>
<polygon fill="none" stroke="black" points="124,-59 124,-77 164,-77 164,-59 124,-59"/>
<text text-anchor="start" x="145" y="-65.2" font-family="Helvetica,sans-Serif" font-size="11.00">7 &gt;</text>
</a>
</g>
</g>
<!-- cm_accesscontainer&#45;&gt;cm_container -->
<g id="edge2" class="edge">
<title>cm_accesscontainer:w&#45;&gt;cm_container:e</title>
<path fill="none" stroke="black" d="M202.63,-239.39C187.66,-227.01 190.92,-194 165,-194"/>
<polygon fill="black" stroke="black" points="208.91,-241.47 215.36,-247.42 212.7,-242.74 216.5,-244 216.5,-244 216.5,-244 212.7,-242.74 217.64,-240.58 208.91,-241.47 208.91,-241.47"/>
<ellipse fill="none" stroke="black" cx="205.87" cy="-240.46" rx="3.2" ry="3.2"/>
</g>
</g>
</svg>
