<?xml version="1.0" encoding="UTF-8" standalone="no"?>
<!DOCTYPE svg PUBLIC "-//W3C//DTD SVG 1.1//EN"
 "http://www.w3.org/Graphics/SVG/1.1/DTD/svg11.dtd">
<!-- Generated by graphviz version 2.43.0 (0)
 -->
<!-- Title: oneDegreeRelationshipsDiagram Pages: 1 -->
<svg width="529pt" height="406pt"
 viewBox="0.00 0.00 529.00 406.00" xmlns="http://www.w3.org/2000/svg" xmlns:xlink="http://www.w3.org/1999/xlink">
<g id="graph0" class="graph" transform="scale(1 1) rotate(0) translate(4 402)">
<title>oneDegreeRelationshipsDiagram</title>
<polygon fill="#ffffff" stroke="transparent" points="-4,4 -4,-402 525,-402 525,4 -4,4"/>
<text text-anchor="middle" x="71.5" y="-7.2" font-family="Helvetica,sans-Serif" font-size="11.00">Generated by SchemaSpy</text>
<!-- cm_accesslistrole -->
<g id="node1" class="node">
<title>cm_accesslistrole</title>
<g id="a_node1"><a xlink:href="../../tables/cm_accesslistrole.html" xlink:title="cm_accesslistrole" target="_top">
<polygon fill="#ffffff" stroke="transparent" points="265,-81 265,-345 513,-345 513,-81 265,-81"/>
<polygon fill="#f5f5f5" stroke="transparent" points="267,-321 267,-343 511,-343 511,-321 267,-321"/>
<polygon fill="none" stroke="black" points="267,-321 267,-343 511,-343 511,-321 267,-321"/>
<text text-anchor="start" x="272" y="-330.2" font-family="Helvetica,sans-Serif" font-weight="bold" font-size="11.00">cm_accesslistrole</text>
<text text-anchor="start" x="476" y="-329.2" font-family="Helvetica,sans-Serif" font-size="11.00">[table]</text>
<polygon fill="none" stroke="black" points="267,-299 267,-321 428,-321 428,-299 267,-299"/>
<image xlink:href="../../images/primaryKeys.png" width="11px" height="12px" preserveAspectRatio="xMinYMin meet" x="272" y="-316"/>
<text text-anchor="start" x="287" y="-307.2" font-family="Helvetica,sans-Serif" font-size="11.00">cm_accessprofile_id</text>
<polygon fill="none" stroke="black" points="428,-299 428,-321 511,-321 511,-299 428,-299"/>
<text text-anchor="start" x="431" y="-307.2" font-family="Helvetica,sans-Serif" font-size="11.00">numeric[10]</text>
<polygon fill="none" stroke="black" points="267,-277 267,-299 428,-299 428,-277 267,-277"/>
<image xlink:href="../../images/primaryKeys.png" width="11px" height="12px" preserveAspectRatio="xMinYMin meet" x="272" y="-294"/>
<text text-anchor="start" x="287" y="-285.2" font-family="Helvetica,sans-Serif" font-size="11.00">ad_role_id</text>
<polygon fill="none" stroke="black" points="428,-277 428,-299 511,-299 511,-277 428,-277"/>
<text text-anchor="start" x="431" y="-285.2" font-family="Helvetica,sans-Serif" font-size="11.00">numeric[10]</text>
<polygon fill="none" stroke="black" points="267,-255 267,-277 428,-277 428,-255 267,-255"/>
<text text-anchor="start" x="287" y="-263.2" font-family="Helvetica,sans-Serif" font-size="11.00">ad_client_id</text>
<polygon fill="none" stroke="black" points="428,-255 428,-277 511,-277 511,-255 428,-255"/>
<text text-anchor="start" x="431" y="-263.2" font-family="Helvetica,sans-Serif" font-size="11.00">numeric[10]</text>
<polygon fill="none" stroke="black" points="267,-233 267,-255 428,-255 428,-233 267,-233"/>
<text text-anchor="start" x="287" y="-241.2" font-family="Helvetica,sans-Serif" font-size="11.00">ad_org_id</text>
<polygon fill="none" stroke="black" points="428,-233 428,-255 511,-255 511,-233 428,-233"/>
<text text-anchor="start" x="431" y="-241.2" font-family="Helvetica,sans-Serif" font-size="11.00">numeric[10]</text>
<polygon fill="none" stroke="black" points="267,-211 267,-233 428,-233 428,-211 267,-211"/>
<text text-anchor="start" x="287" y="-219.2" font-family="Helvetica,sans-Serif" font-size="11.00">isactive</text>
<polygon fill="none" stroke="black" points="428,-211 428,-233 511,-233 511,-211 428,-211"/>
<text text-anchor="start" x="431" y="-219.2" font-family="Helvetica,sans-Serif" font-size="11.00">bpchar[1]</text>
<polygon fill="none" stroke="black" points="267,-189 267,-211 428,-211 428,-189 267,-189"/>
<text text-anchor="start" x="287" y="-197.2" font-family="Helvetica,sans-Serif" font-size="11.00">created</text>
<polygon fill="none" stroke="black" points="428,-189 428,-211 511,-211 511,-189 428,-189"/>
<text text-anchor="start" x="431" y="-197.2" font-family="Helvetica,sans-Serif" font-size="11.00">timestamp[29,6]</text>
<polygon fill="none" stroke="black" points="267,-167 267,-189 428,-189 428,-167 267,-167"/>
<text text-anchor="start" x="287" y="-175.2" font-family="Helvetica,sans-Serif" font-size="11.00">createdby</text>
<polygon fill="none" stroke="black" points="428,-167 428,-189 511,-189 511,-167 428,-167"/>
<text text-anchor="start" x="431" y="-175.2" font-family="Helvetica,sans-Serif" font-size="11.00">numeric[10]</text>
<polygon fill="none" stroke="black" points="267,-145 267,-167 428,-167 428,-145 267,-145"/>
<text text-anchor="start" x="287" y="-153.2" font-family="Helvetica,sans-Serif" font-size="11.00">updated</text>
<polygon fill="none" stroke="black" points="428,-145 428,-167 511,-167 511,-145 428,-145"/>
<text text-anchor="start" x="431" y="-153.2" font-family="Helvetica,sans-Serif" font-size="11.00">timestamp[29,6]</text>
<polygon fill="none" stroke="black" points="267,-123 267,-145 428,-145 428,-123 267,-123"/>
<text text-anchor="start" x="287" y="-131.2" font-family="Helvetica,sans-Serif" font-size="11.00">updatedby</text>
<polygon fill="none" stroke="black" points="428,-123 428,-145 511,-145 511,-123 428,-123"/>
<text text-anchor="start" x="431" y="-131.2" font-family="Helvetica,sans-Serif" font-size="11.00">numeric[10]</text>
<polygon fill="#ffffff" stroke="transparent" points="267,-101 267,-123 428,-123 428,-101 267,-101"/>
<polygon fill="none" stroke="black" points="267,-101 267,-123 428,-123 428,-101 267,-101"/>
<text text-anchor="start" x="287" y="-109.2" font-family="Helvetica,sans-Serif" font-size="11.00">cm_accesslistrole_uu</text>
<polygon fill="none" stroke="black" points="428,-101 428,-123 511,-123 511,-101 428,-101"/>
<text text-anchor="start" x="431" y="-109.2" font-family="Helvetica,sans-Serif" font-size="11.00">varchar[36]</text>
<polygon fill="#ffffff" stroke="transparent" points="267,-83 267,-101 339,-101 339,-83 267,-83"/>
<polygon fill="none" stroke="black" points="267,-83 267,-101 339,-101 339,-83 267,-83"/>
<text text-anchor="start" x="270" y="-89.2" font-family="Helvetica,sans-Serif" font-size="11.00">&lt; 2</text>
<polygon fill="#ffffff" stroke="transparent" points="339,-83 339,-101 428,-101 428,-83 339,-83"/>
<polygon fill="none" stroke="black" points="339,-83 339,-101 428,-101 428,-83 339,-83"/>
<text text-anchor="start" x="392" y="-89.2" font-family="Helvetica,sans-Serif" font-size="11.00">0 rows</text>
<polygon fill="#ffffff" stroke="transparent" points="428,-83 428,-101 511,-101 511,-83 428,-83"/>
<polygon fill="none" stroke="black" points="428,-83 428,-101 511,-101 511,-83 428,-83"/>
<text text-anchor="start" x="492" y="-89.2" font-family="Helvetica,sans-Serif" font-size="11.00">0 &gt;</text>
<polygon fill="none" stroke="black" stroke-width="2" points="266,-82 266,-344 512,-344 512,-82 266,-82"/>
</a>
</g>
</g>
<!-- ad_role -->
<g id="node2" class="node">
<title>ad_role</title>
<g id="a_node2"><a xlink:href="../../tables/ad_role.html" xlink:title="ad_role" target="_top">
<polygon fill="#ffffff" stroke="transparent" points="8,-37 8,-271 216,-271 216,-37 8,-37"/>
<polygon fill="#f5f5f5" stroke="transparent" points="8,-249 8,-271 216,-271 216,-249 8,-249"/>
<polygon fill="none" stroke="black" points="8,-249 8,-271 216,-271 216,-249 8,-249"/>
<text text-anchor="start" x="13" y="-258.2" font-family="Helvetica,sans-Serif" font-weight="bold" font-size="11.00">ad_role</text>
<text text-anchor="start" x="181" y="-257.2" font-family="Helvetica,sans-Serif" font-size="11.00">[table]</text>
<polygon fill="none" stroke="black" points="8,-227 8,-249 216,-249 216,-227 8,-227"/>
<image xlink:href="../../images/primaryKeys.png" width="11px" height="12px" preserveAspectRatio="xMinYMin meet" x="13" y="-244"/>
<text text-anchor="start" x="28" y="-235.2" font-family="Helvetica,sans-Serif" font-size="11.00">ad_role_id</text>
<polygon fill="none" stroke="black" points="8,-205 8,-227 216,-227 216,-205 8,-205"/>
<image xlink:href="../../images/foreignKeys.png" width="11px" height="12px" preserveAspectRatio="xMinYMin meet" x="13" y="-222"/>
<text text-anchor="start" x="28" y="-213.2" font-family="Helvetica,sans-Serif" font-size="11.00">ad_client_id</text>
<polygon fill="none" stroke="black" points="8,-183 8,-205 216,-205 216,-183 8,-183"/>
<image xlink:href="../../images/foreignKeys.png" width="11px" height="12px" preserveAspectRatio="xMinYMin meet" x="13" y="-200"/>
<text text-anchor="start" x="28" y="-191.2" font-family="Helvetica,sans-Serif" font-size="11.00">ad_org_id</text>
<polygon fill="none" stroke="black" points="8,-161 8,-183 216,-183 216,-161 8,-161"/>
<image xlink:href="../../images/foreignKeys.png" width="11px" height="12px" preserveAspectRatio="xMinYMin meet" x="13" y="-178"/>
<text text-anchor="start" x="28" y="-169.2" font-family="Helvetica,sans-Serif" font-size="11.00">c_currency_id</text>
<polygon fill="none" stroke="black" points="8,-139 8,-161 216,-161 216,-139 8,-139"/>
<image xlink:href="../../images/foreignKeys.png" width="11px" height="12px" preserveAspectRatio="xMinYMin meet" x="13" y="-156"/>
<text text-anchor="start" x="28" y="-147.2" font-family="Helvetica,sans-Serif" font-size="11.00">ad_tree_menu_id</text>
<polygon fill="none" stroke="black" points="8,-117 8,-139 216,-139 216,-117 8,-117"/>
<image xlink:href="../../images/foreignKeys.png" width="11px" height="12px" preserveAspectRatio="xMinYMin meet" x="13" y="-134"/>
<text text-anchor="start" x="28" y="-125.2" font-family="Helvetica,sans-Serif" font-size="11.00">supervisor_id</text>
<polygon fill="none" stroke="black" points="8,-95 8,-117 216,-117 216,-95 8,-95"/>
<image xlink:href="../../images/foreignKeys.png" width="11px" height="12px" preserveAspectRatio="xMinYMin meet" x="13" y="-112"/>
<text text-anchor="start" x="28" y="-103.2" font-family="Helvetica,sans-Serif" font-size="11.00">ad_tree_org_id</text>
<polygon fill="#ffffff" stroke="transparent" points="8,-73 8,-95 216,-95 216,-73 8,-73"/>
<polygon fill="none" stroke="black" points="8,-73 8,-95 216,-95 216,-73 8,-73"/>
<text text-anchor="start" x="28" y="-81.2" font-family="Helvetica,sans-Serif" font-size="11.00">ad_role_uu</text>
<polygon fill="none" stroke="black" points="8,-55 8,-73 216,-73 216,-55 8,-55"/>
<text text-anchor="start" x="11" y="-61.2" font-family="Helvetica,sans-Serif" font-size="11.00">...</text>
<polygon fill="#ffffff" stroke="transparent" points="8,-37 8,-55 86,-55 86,-37 8,-37"/>
<polygon fill="none" stroke="black" points="8,-37 8,-55 86,-55 86,-37 8,-37"/>
<text text-anchor="start" x="11" y="-43.2" font-family="Helvetica,sans-Serif" font-size="11.00">&lt; 6</text>
<polygon fill="#ffffff" stroke="transparent" points="86,-37 86,-55 159,-55 159,-37 86,-37"/>
<polygon fill="none" stroke="black" points="86,-37 86,-55 159,-55 159,-37 86,-37"/>
<text text-anchor="start" x="117" y="-43.2" font-family="Helvetica,sans-Serif" font-size="11.00">13 rows</text>
<polygon fill="#ffffff" stroke="transparent" points="159,-37 159,-55 216,-55 216,-37 159,-37"/>
<polygon fill="none" stroke="black" points="159,-37 159,-55 216,-55 216,-37 159,-37"/>
<text text-anchor="start" x="191" y="-43.2" font-family="Helvetica,sans-Serif" font-size="11.00">42 &gt;</text>
</a>
</g>
</g>
<!-- cm_accesslistrole&#45;&gt;ad_role -->
<g id="edge1" class="edge">
<title>cm_accesslistrole:w&#45;&gt;ad_role:e</title>
<path fill="none" stroke="black" d="M252.18,-283.02C238.36,-270.38 242.04,-238 217,-238"/>
<polygon fill="black" stroke="black" points="258.47,-285.29 264.78,-291.39 262.24,-286.64 266,-288 266,-288 266,-288 262.24,-286.64 267.22,-284.61 258.47,-285.29 258.47,-285.29"/>
<ellipse fill="none" stroke="black" cx="255.46" cy="-284.2" rx="3.2" ry="3.2"/>
</g>
<!-- cm_accessprofile -->
<g id="node3" class="node">
<title>cm_accessprofile</title>
<g id="a_node3"><a xlink:href="../../tables/cm_accessprofile.html" xlink:title="cm_accessprofile" target="_top">
<polygon fill="#ffffff" stroke="transparent" points="33,-292 33,-394 191,-394 191,-292 33,-292"/>
<polygon fill="#f5f5f5" stroke="transparent" points="33,-372 33,-394 191,-394 191,-372 33,-372"/>
<polygon fill="none" stroke="black" points="33,-372 33,-394 191,-394 191,-372 33,-372"/>
<text text-anchor="start" x="38" y="-381.2" font-family="Helvetica,sans-Serif" font-weight="bold" font-size="11.00">cm_accessprofile</text>
<text text-anchor="start" x="156" y="-380.2" font-family="Helvetica,sans-Serif" font-size="11.00">[table]</text>
<polygon fill="none" stroke="black" points="33,-350 33,-372 191,-372 191,-350 33,-350"/>
<image xlink:href="../../images/primaryKeys.png" width="11px" height="12px" preserveAspectRatio="xMinYMin meet" x="38" y="-367"/>
<text text-anchor="start" x="53" y="-358.2" font-family="Helvetica,sans-Serif" font-size="11.00">cm_accessprofile_id</text>
<polygon fill="#ffffff" stroke="transparent" points="33,-328 33,-350 191,-350 191,-328 33,-328"/>
<polygon fill="none" stroke="black" points="33,-328 33,-350 191,-350 191,-328 33,-328"/>
<text text-anchor="start" x="53" y="-336.2" font-family="Helvetica,sans-Serif" font-size="11.00">cm_accessprofile_uu</text>
<polygon fill="none" stroke="black" points="33,-310 33,-328 191,-328 191,-310 33,-310"/>
<text text-anchor="start" x="36" y="-316.2" font-family="Helvetica,sans-Serif" font-size="11.00">...</text>
<polygon fill="#ffffff" stroke="transparent" points="33,-292 33,-310 88,-310 88,-292 33,-292"/>
<polygon fill="none" stroke="black" points="33,-292 33,-310 88,-310 88,-292 33,-292"/>
<text text-anchor="start" x="36" y="-298.2" font-family="Helvetica,sans-Serif" font-size="11.00"> &#160;</text>
<polygon fill="#ffffff" stroke="transparent" points="88,-292 88,-310 148,-310 148,-292 88,-292"/>
<polygon fill="none" stroke="black" points="88,-292 88,-310 148,-310 148,-292 88,-292"/>
<text text-anchor="start" x="112" y="-298.2" font-family="Helvetica,sans-Serif" font-size="11.00">0 rows</text>
<polygon fill="#ffffff" stroke="transparent" points="148,-292 148,-310 191,-310 191,-292 148,-292"/>
<polygon fill="none" stroke="black" points="148,-292 148,-310 191,-310 191,-292 148,-292"/>
<text text-anchor="start" x="172" y="-298.2" font-family="Helvetica,sans-Serif" font-size="11.00">6 &gt;</text>
</a>
</g>
</g>
<!-- cm_accesslistrole&#45;&gt;cm_accessprofile -->
<g id="edge2" class="edge">
<title>cm_accesslistrole:w&#45;&gt;cm_accessprofile:e</title>
<path fill="none" stroke="black" d="M251.61,-312.74C226.81,-323.34 226.33,-361 192,-361"/>
<polygon fill="black" stroke="black" points="258.14,-311.5 266.67,-313.54 262.07,-310.75 266,-310 266,-310 266,-310 262.07,-310.75 265.33,-306.46 258.14,-311.5 258.14,-311.5"/>
<ellipse fill="none" stroke="black" cx="255" cy="-312.1" rx="3.2" ry="3.2"/>
</g>
</g>
</svg>
