<?xml version="1.0" encoding="UTF-8" standalone="no"?>
<!DOCTYPE svg PUBLIC "-//W3C//DTD SVG 1.1//EN"
 "http://www.w3.org/Graphics/SVG/1.1/DTD/svg11.dtd">
<!-- Generated by graphviz version 2.43.0 (0)
 -->
<!-- Title: oneDegreeRelationshipsDiagram Pages: 1 -->
<svg width="678pt" height="614pt"
 viewBox="0.00 0.00 678.00 614.00" xmlns="http://www.w3.org/2000/svg" xmlns:xlink="http://www.w3.org/1999/xlink">
<g id="graph0" class="graph" transform="scale(1 1) rotate(0) translate(4 610)">
<title>oneDegreeRelationshipsDiagram</title>
<polygon fill="#ffffff" stroke="transparent" points="-4,4 -4,-610 674,-610 674,4 -4,4"/>
<text text-anchor="middle" x="71.5" y="-7.2" font-family="Helvetica,sans-Serif" font-size="11.00">Generated by SchemaSpy</text>
<!-- cof_c_sped_fiscal -->
<g id="node1" class="node">
<title>cof_c_sped_fiscal</title>
<g id="a_node1"><a xlink:href="../../tables/cof_c_sped_fiscal.html" xlink:title="cof_c_sped_fiscal" target="_top">
<polygon fill="#ffffff" stroke="transparent" points="403,-324 403,-602 662,-602 662,-324 403,-324"/>
<polygon fill="#f5f5f5" stroke="transparent" points="403.5,-580 403.5,-602 662.5,-602 662.5,-580 403.5,-580"/>
<polygon fill="none" stroke="black" points="403.5,-580 403.5,-602 662.5,-602 662.5,-580 403.5,-580"/>
<text text-anchor="start" x="408.5" y="-589.2" font-family="Helvetica,sans-Serif" font-weight="bold" font-size="11.00">cof_c_sped_fiscal</text>
<text text-anchor="start" x="627.5" y="-588.2" font-family="Helvetica,sans-Serif" font-size="11.00">[table]</text>
<polygon fill="none" stroke="black" points="403.5,-558 403.5,-580 662.5,-580 662.5,-558 403.5,-558"/>
<image xlink:href="../../images/primaryKeys.png" width="11px" height="12px" preserveAspectRatio="xMinYMin meet" x="408.5" y="-575"/>
<text text-anchor="start" x="423.5" y="-566.2" font-family="Helvetica,sans-Serif" font-size="11.00">cof_c_sped_fiscal_id</text>
<polygon fill="#ffffff" stroke="transparent" points="403.5,-536 403.5,-558 662.5,-558 662.5,-536 403.5,-536"/>
<polygon fill="none" stroke="black" points="403.5,-536 403.5,-558 662.5,-558 662.5,-536 403.5,-536"/>
<text text-anchor="start" x="423.5" y="-544.2" font-family="Helvetica,sans-Serif" font-size="11.00">cof_c_sped_fiscal_uu</text>
<polygon fill="none" stroke="black" points="403.5,-514 403.5,-536 662.5,-536 662.5,-514 403.5,-514"/>
<image xlink:href="../../images/foreignKeys.png" width="11px" height="12px" preserveAspectRatio="xMinYMin meet" x="408.5" y="-531"/>
<text text-anchor="start" x="423.5" y="-522.2" font-family="Helvetica,sans-Serif" font-size="11.00">c_acctschema_id</text>
<polygon fill="none" stroke="black" points="403.5,-492 403.5,-514 662.5,-514 662.5,-492 403.5,-492"/>
<image xlink:href="../../images/foreignKeys.png" width="11px" height="12px" preserveAspectRatio="xMinYMin meet" x="408.5" y="-509"/>
<text text-anchor="start" x="423.5" y="-500.2" font-family="Helvetica,sans-Serif" font-size="11.00">user2_id</text>
<polygon fill="none" stroke="black" points="403.5,-470 403.5,-492 662.5,-492 662.5,-470 403.5,-470"/>
<image xlink:href="../../images/foreignKeys.png" width="11px" height="12px" preserveAspectRatio="xMinYMin meet" x="408.5" y="-487"/>
<text text-anchor="start" x="423.5" y="-478.2" font-family="Helvetica,sans-Serif" font-size="11.00">m_costtype_id</text>
<polygon fill="none" stroke="black" points="403.5,-448 403.5,-470 662.5,-470 662.5,-448 403.5,-448"/>
<image xlink:href="../../images/foreignKeys.png" width="11px" height="12px" preserveAspectRatio="xMinYMin meet" x="408.5" y="-465"/>
<text text-anchor="start" x="423.5" y="-456.2" font-family="Helvetica,sans-Serif" font-size="11.00">m_costelement_id</text>
<polygon fill="none" stroke="black" points="403.5,-426 403.5,-448 662.5,-448 662.5,-426 403.5,-426"/>
<image xlink:href="../../images/foreignKeys.png" width="11px" height="12px" preserveAspectRatio="xMinYMin meet" x="408.5" y="-443"/>
<text text-anchor="start" x="423.5" y="-434.2" font-family="Helvetica,sans-Serif" font-size="11.00">cof_excludeuser2_id</text>
<polygon fill="none" stroke="black" points="403.5,-404 403.5,-426 662.5,-426 662.5,-404 403.5,-404"/>
<image xlink:href="../../images/foreignKeys.png" width="11px" height="12px" preserveAspectRatio="xMinYMin meet" x="408.5" y="-421"/>
<text text-anchor="start" x="423.5" y="-412.2" font-family="Helvetica,sans-Serif" font-size="11.00">cof_fechamentoestoqueblocok_id</text>
<polygon fill="none" stroke="black" points="403.5,-382 403.5,-404 662.5,-404 662.5,-382 403.5,-382"/>
<image xlink:href="../../images/foreignKeys.png" width="11px" height="12px" preserveAspectRatio="xMinYMin meet" x="408.5" y="-399"/>
<text text-anchor="start" x="423.5" y="-390.2" font-family="Helvetica,sans-Serif" font-size="11.00">cof_correcaoapontamentoblocok_id</text>
<polygon fill="none" stroke="black" points="403.5,-360 403.5,-382 662.5,-382 662.5,-360 403.5,-360"/>
<image xlink:href="../../images/foreignKeys.png" width="11px" height="12px" preserveAspectRatio="xMinYMin meet" x="408.5" y="-377"/>
<text text-anchor="start" x="423.5" y="-368.2" font-family="Helvetica,sans-Serif" font-size="11.00">cof_encerramentoblocoh_id</text>
<polygon fill="none" stroke="black" points="403.5,-342 403.5,-360 662.5,-360 662.5,-342 403.5,-342"/>
<text text-anchor="start" x="406.5" y="-348.2" font-family="Helvetica,sans-Serif" font-size="11.00">...</text>
<polygon fill="#ffffff" stroke="transparent" points="403.5,-324 403.5,-342 515.5,-342 515.5,-324 403.5,-324"/>
<polygon fill="none" stroke="black" points="403.5,-324 403.5,-342 515.5,-342 515.5,-324 403.5,-324"/>
<text text-anchor="start" x="406.5" y="-330.2" font-family="Helvetica,sans-Serif" font-size="11.00">&lt; 8</text>
<polygon fill="#ffffff" stroke="transparent" points="515.5,-324 515.5,-342 594.5,-342 594.5,-324 515.5,-324"/>
<polygon fill="none" stroke="black" points="515.5,-324 515.5,-342 594.5,-342 594.5,-324 515.5,-324"/>
<text text-anchor="start" x="563.5" y="-330.2" font-family="Helvetica,sans-Serif" font-size="11.00">1 row</text>
<polygon fill="#ffffff" stroke="transparent" points="594.5,-324 594.5,-342 662.5,-342 662.5,-324 594.5,-324"/>
<polygon fill="none" stroke="black" points="594.5,-324 594.5,-342 662.5,-342 662.5,-324 594.5,-324"/>
<text text-anchor="start" x="643.5" y="-330.2" font-family="Helvetica,sans-Serif" font-size="11.00">1 &gt;</text>
</a>
</g>
</g>
<!-- cof_correcaoapontamentoblocok -->
<g id="node2" class="node">
<title>cof_correcaoapontamentoblocok</title>
<g id="a_node2"><a xlink:href="../../tables/cof_correcaoapontamentoblocok.html" xlink:title="cof_correcaoapontamentoblocok" target="_top">
<polygon fill="#ffffff" stroke="transparent" points="8,-37 8,-345 354,-345 354,-37 8,-37"/>
<polygon fill="#f5f5f5" stroke="transparent" points="10,-321 10,-343 352,-343 352,-321 10,-321"/>
<polygon fill="none" stroke="black" points="10,-321 10,-343 352,-343 352,-321 10,-321"/>
<text text-anchor="start" x="15" y="-330.2" font-family="Helvetica,sans-Serif" font-weight="bold" font-size="11.00">cof_correcaoapontamentoblocok</text>
<text text-anchor="start" x="317" y="-329.2" font-family="Helvetica,sans-Serif" font-size="11.00">[table]</text>
<polygon fill="none" stroke="black" points="10,-299 10,-321 269,-321 269,-299 10,-299"/>
<image xlink:href="../../images/primaryKeys.png" width="11px" height="12px" preserveAspectRatio="xMinYMin meet" x="15" y="-316"/>
<text text-anchor="start" x="30" y="-307.2" font-family="Helvetica,sans-Serif" font-size="11.00">cof_correcaoapontamentoblocok_id</text>
<polygon fill="none" stroke="black" points="269,-299 269,-321 352,-321 352,-299 269,-299"/>
<text text-anchor="start" x="272" y="-307.2" font-family="Helvetica,sans-Serif" font-size="11.00">numeric[10]</text>
<polygon fill="#ffffff" stroke="transparent" points="10,-277 10,-299 269,-299 269,-277 10,-277"/>
<polygon fill="none" stroke="black" points="10,-277 10,-299 269,-299 269,-277 10,-277"/>
<text text-anchor="start" x="30" y="-285.2" font-family="Helvetica,sans-Serif" font-size="11.00">cof_correcaoapontamentobloc_uu</text>
<polygon fill="none" stroke="black" points="269,-277 269,-299 352,-299 352,-277 269,-277"/>
<text text-anchor="start" x="272" y="-285.2" font-family="Helvetica,sans-Serif" font-size="11.00">varchar[36]</text>
<polygon fill="none" stroke="black" points="10,-255 10,-277 269,-277 269,-255 10,-255"/>
<text text-anchor="start" x="30" y="-263.2" font-family="Helvetica,sans-Serif" font-size="11.00">ad_client_id</text>
<polygon fill="none" stroke="black" points="269,-255 269,-277 352,-277 352,-255 269,-255"/>
<text text-anchor="start" x="272" y="-263.2" font-family="Helvetica,sans-Serif" font-size="11.00">numeric[10]</text>
<polygon fill="none" stroke="black" points="10,-233 10,-255 269,-255 269,-233 10,-233"/>
<text text-anchor="start" x="30" y="-241.2" font-family="Helvetica,sans-Serif" font-size="11.00">ad_org_id</text>
<polygon fill="none" stroke="black" points="269,-233 269,-255 352,-255 352,-233 269,-233"/>
<text text-anchor="start" x="272" y="-241.2" font-family="Helvetica,sans-Serif" font-size="11.00">numeric[10]</text>
<polygon fill="none" stroke="black" points="10,-211 10,-233 269,-233 269,-211 10,-211"/>
<text text-anchor="start" x="30" y="-219.2" font-family="Helvetica,sans-Serif" font-size="11.00">isactive</text>
<polygon fill="none" stroke="black" points="269,-211 269,-233 352,-233 352,-211 269,-211"/>
<text text-anchor="start" x="272" y="-219.2" font-family="Helvetica,sans-Serif" font-size="11.00">bpchar[1]</text>
<polygon fill="none" stroke="black" points="10,-189 10,-211 269,-211 269,-189 10,-189"/>
<text text-anchor="start" x="30" y="-197.2" font-family="Helvetica,sans-Serif" font-size="11.00">created</text>
<polygon fill="none" stroke="black" points="269,-189 269,-211 352,-211 352,-189 269,-189"/>
<text text-anchor="start" x="272" y="-197.2" font-family="Helvetica,sans-Serif" font-size="11.00">timestamp[29,6]</text>
<polygon fill="none" stroke="black" points="10,-167 10,-189 269,-189 269,-167 10,-167"/>
<text text-anchor="start" x="30" y="-175.2" font-family="Helvetica,sans-Serif" font-size="11.00">createdby</text>
<polygon fill="none" stroke="black" points="269,-167 269,-189 352,-189 352,-167 269,-167"/>
<text text-anchor="start" x="272" y="-175.2" font-family="Helvetica,sans-Serif" font-size="11.00">numeric[10]</text>
<polygon fill="none" stroke="black" points="10,-145 10,-167 269,-167 269,-145 10,-145"/>
<text text-anchor="start" x="30" y="-153.2" font-family="Helvetica,sans-Serif" font-size="11.00">updated</text>
<polygon fill="none" stroke="black" points="269,-145 269,-167 352,-167 352,-145 269,-145"/>
<text text-anchor="start" x="272" y="-153.2" font-family="Helvetica,sans-Serif" font-size="11.00">timestamp[29,6]</text>
<polygon fill="none" stroke="black" points="10,-123 10,-145 269,-145 269,-123 10,-123"/>
<text text-anchor="start" x="30" y="-131.2" font-family="Helvetica,sans-Serif" font-size="11.00">updatedby</text>
<polygon fill="none" stroke="black" points="269,-123 269,-145 352,-145 352,-123 269,-123"/>
<text text-anchor="start" x="272" y="-131.2" font-family="Helvetica,sans-Serif" font-size="11.00">numeric[10]</text>
<polygon fill="none" stroke="black" points="10,-101 10,-123 269,-123 269,-101 10,-101"/>
<text text-anchor="start" x="30" y="-109.2" font-family="Helvetica,sans-Serif" font-size="11.00">documentno</text>
<polygon fill="none" stroke="black" points="269,-101 269,-123 352,-123 352,-101 269,-101"/>
<text text-anchor="start" x="272" y="-109.2" font-family="Helvetica,sans-Serif" font-size="11.00">varchar[30]</text>
<polygon fill="none" stroke="black" points="10,-79 10,-101 269,-101 269,-79 10,-79"/>
<text text-anchor="start" x="30" y="-87.2" font-family="Helvetica,sans-Serif" font-size="11.00">datefrom</text>
<polygon fill="none" stroke="black" points="269,-79 269,-101 352,-101 352,-79 269,-79"/>
<text text-anchor="start" x="272" y="-87.2" font-family="Helvetica,sans-Serif" font-size="11.00">timestamp[29,6]</text>
<polygon fill="none" stroke="black" points="10,-57 10,-79 269,-79 269,-57 10,-57"/>
<text text-anchor="start" x="30" y="-65.2" font-family="Helvetica,sans-Serif" font-size="11.00">dateto</text>
<polygon fill="none" stroke="black" points="269,-57 269,-79 352,-79 352,-57 269,-57"/>
<text text-anchor="start" x="272" y="-65.2" font-family="Helvetica,sans-Serif" font-size="11.00">timestamp[29,6]</text>
<polygon fill="#ffffff" stroke="transparent" points="10,-39 10,-57 131,-57 131,-39 10,-39"/>
<polygon fill="none" stroke="black" points="10,-39 10,-57 131,-57 131,-39 10,-39"/>
<text text-anchor="start" x="13" y="-45.2" font-family="Helvetica,sans-Serif" font-size="11.00">&lt; 0</text>
<polygon fill="#ffffff" stroke="transparent" points="131,-39 131,-57 269,-57 269,-39 131,-39"/>
<polygon fill="none" stroke="black" points="131,-39 131,-57 269,-57 269,-39 131,-39"/>
<text text-anchor="start" x="233" y="-45.2" font-family="Helvetica,sans-Serif" font-size="11.00">0 rows</text>
<polygon fill="#ffffff" stroke="transparent" points="269,-39 269,-57 352,-57 352,-39 269,-39"/>
<polygon fill="none" stroke="black" points="269,-39 269,-57 352,-57 352,-39 269,-39"/>
<text text-anchor="start" x="333" y="-45.2" font-family="Helvetica,sans-Serif" font-size="11.00">2 &gt;</text>
<polygon fill="none" stroke="black" stroke-width="2" points="9,-38 9,-344 353,-344 353,-38 9,-38"/>
</a>
</g>
</g>
<!-- cof_c_sped_fiscal&#45;&gt;cof_correcaoapontamentoblocok -->
<g id="edge1" class="edge">
<title>cof_c_sped_fiscal:w&#45;&gt;cof_correcaoapontamentoblocok:e</title>
<path fill="none" stroke="black" d="M388.65,-388.54C368.22,-371.3 389.91,-310 353,-310"/>
<polygon fill="black" stroke="black" points="394.89,-390.55 401.4,-396.43 398.69,-391.77 402.5,-393 402.5,-393 402.5,-393 398.69,-391.77 403.6,-389.57 394.89,-390.55 394.89,-390.55"/>
<ellipse fill="none" stroke="black" cx="391.84" cy="-389.57" rx="3.2" ry="3.2"/>
</g>
<!-- cof_registrocorrecaoblocok270 -->
<g id="node3" class="node">
<title>cof_registrocorrecaoblocok270</title>
<g id="a_node3"><a xlink:href="../../tables/cof_registrocorrecaoblocok270.html" xlink:title="cof_registrocorrecaoblocok270" target="_top">
<polygon fill="#ffffff" stroke="transparent" points="403,-157 403,-303 662,-303 662,-157 403,-157"/>
<polygon fill="#f5f5f5" stroke="transparent" points="403.5,-281 403.5,-303 662.5,-303 662.5,-281 403.5,-281"/>
<polygon fill="none" stroke="black" points="403.5,-281 403.5,-303 662.5,-303 662.5,-281 403.5,-281"/>
<text text-anchor="start" x="408.5" y="-290.2" font-family="Helvetica,sans-Serif" font-weight="bold" font-size="11.00">cof_registrocorrecaoblocok270</text>
<text text-anchor="start" x="627.5" y="-289.2" font-family="Helvetica,sans-Serif" font-size="11.00">[table]</text>
<polygon fill="none" stroke="black" points="403.5,-259 403.5,-281 662.5,-281 662.5,-259 403.5,-259"/>
<image xlink:href="../../images/primaryKeys.png" width="11px" height="12px" preserveAspectRatio="xMinYMin meet" x="408.5" y="-276"/>
<text text-anchor="start" x="423.5" y="-267.2" font-family="Helvetica,sans-Serif" font-size="11.00">cof_registrocorrecaoblocok270_id</text>
<polygon fill="#ffffff" stroke="transparent" points="403.5,-237 403.5,-259 662.5,-259 662.5,-237 403.5,-237"/>
<polygon fill="none" stroke="black" points="403.5,-237 403.5,-259 662.5,-259 662.5,-237 403.5,-237"/>
<text text-anchor="start" x="423.5" y="-245.2" font-family="Helvetica,sans-Serif" font-size="11.00">cof_registrocorrecaoblocok270_uu</text>
<polygon fill="none" stroke="black" points="403.5,-215 403.5,-237 662.5,-237 662.5,-215 403.5,-215"/>
<image xlink:href="../../images/foreignKeys.png" width="11px" height="12px" preserveAspectRatio="xMinYMin meet" x="408.5" y="-232"/>
<text text-anchor="start" x="423.5" y="-223.2" font-family="Helvetica,sans-Serif" font-size="11.00">cof_correcaoapontamentoblocok_id</text>
<polygon fill="none" stroke="black" points="403.5,-193 403.5,-215 662.5,-215 662.5,-193 403.5,-193"/>
<image xlink:href="../../images/foreignKeys.png" width="11px" height="12px" preserveAspectRatio="xMinYMin meet" x="408.5" y="-210"/>
<text text-anchor="start" x="423.5" y="-201.2" font-family="Helvetica,sans-Serif" font-size="11.00">m_product_id</text>
<polygon fill="none" stroke="black" points="403.5,-175 403.5,-193 662.5,-193 662.5,-175 403.5,-175"/>
<text text-anchor="start" x="406.5" y="-181.2" font-family="Helvetica,sans-Serif" font-size="11.00">...</text>
<polygon fill="#ffffff" stroke="transparent" points="403.5,-157 403.5,-175 513.5,-175 513.5,-157 403.5,-157"/>
<polygon fill="none" stroke="black" points="403.5,-157 403.5,-175 513.5,-175 513.5,-157 403.5,-157"/>
<text text-anchor="start" x="406.5" y="-163.2" font-family="Helvetica,sans-Serif" font-size="11.00">&lt; 2</text>
<polygon fill="#ffffff" stroke="transparent" points="513.5,-157 513.5,-175 596.5,-175 596.5,-157 513.5,-157"/>
<polygon fill="none" stroke="black" points="513.5,-157 513.5,-175 596.5,-175 596.5,-157 513.5,-157"/>
<text text-anchor="start" x="560.5" y="-163.2" font-family="Helvetica,sans-Serif" font-size="11.00">0 rows</text>
<polygon fill="#ffffff" stroke="transparent" points="596.5,-157 596.5,-175 662.5,-175 662.5,-157 596.5,-157"/>
<polygon fill="none" stroke="black" points="596.5,-157 596.5,-175 662.5,-175 662.5,-157 596.5,-157"/>
<text text-anchor="start" x="643.5" y="-163.2" font-family="Helvetica,sans-Serif" font-size="11.00">1 &gt;</text>
</a>
</g>
</g>
<!-- cof_registrocorrecaoblocok270&#45;&gt;cof_correcaoapontamentoblocok -->
<g id="edge2" class="edge">
<title>cof_registrocorrecaoblocok270:w&#45;&gt;cof_correcaoapontamentoblocok:e</title>
<path fill="none" stroke="black" d="M388.55,-230.52C368.03,-247.96 390.24,-310 353,-310"/>
<polygon fill="black" stroke="black" points="394.89,-228.46 403.61,-229.43 398.69,-227.23 402.5,-226 402.5,-226 402.5,-226 398.69,-227.23 401.39,-222.57 394.89,-228.46 394.89,-228.46"/>
<ellipse fill="none" stroke="black" cx="391.84" cy="-229.45" rx="3.2" ry="3.2"/>
</g>
</g>
</svg>
