<?xml version="1.0" encoding="UTF-8" standalone="no"?>
<!DOCTYPE svg PUBLIC "-//W3C//DTD SVG 1.1//EN"
 "http://www.w3.org/Graphics/SVG/1.1/DTD/svg11.dtd">
<!-- Generated by graphviz version 2.43.0 (0)
 -->
<!-- Title: oneDegreeRelationshipsDiagram Pages: 1 -->
<svg width="1094pt" height="1090pt"
 viewBox="0.00 0.00 1094.00 1090.00" xmlns="http://www.w3.org/2000/svg" xmlns:xlink="http://www.w3.org/1999/xlink">
<g id="graph0" class="graph" transform="scale(1 1) rotate(0) translate(4 1086)">
<title>oneDegreeRelationshipsDiagram</title>
<polygon fill="#ffffff" stroke="transparent" points="-4,4 -4,-1086 1090,-1086 1090,4 -4,4"/>
<text text-anchor="middle" x="71.5" y="-7.2" font-family="Helvetica,sans-Serif" font-size="11.00">Generated by SchemaSpy</text>
<!-- cof_fci -->
<g id="node1" class="node">
<title>cof_fci</title>
<g id="a_node1"><a xlink:href="../../tables/cof_fci.html" xlink:title="cof_fci" target="_top">
<polygon fill="#ffffff" stroke="transparent" points="568,-594 568,-1078 831,-1078 831,-594 568,-594"/>
<polygon fill="#f5f5f5" stroke="transparent" points="570.5,-1054 570.5,-1076 829.5,-1076 829.5,-1054 570.5,-1054"/>
<polygon fill="none" stroke="black" points="570.5,-1054 570.5,-1076 829.5,-1076 829.5,-1054 570.5,-1054"/>
<text text-anchor="start" x="575.5" y="-1063.2" font-family="Helvetica,sans-Serif" font-weight="bold" font-size="11.00">cof_fci</text>
<text text-anchor="start" x="794.5" y="-1062.2" font-family="Helvetica,sans-Serif" font-size="11.00">[table]</text>
<polygon fill="none" stroke="black" points="570.5,-1032 570.5,-1054 746.5,-1054 746.5,-1032 570.5,-1032"/>
<image xlink:href="../../images/primaryKeys.png" width="11px" height="12px" preserveAspectRatio="xMinYMin meet" x="575.5" y="-1049"/>
<text text-anchor="start" x="590.5" y="-1040.2" font-family="Helvetica,sans-Serif" font-size="11.00">cof_fci_id</text>
<polygon fill="none" stroke="black" points="746.5,-1032 746.5,-1054 829.5,-1054 829.5,-1032 746.5,-1032"/>
<text text-anchor="start" x="749.5" y="-1040.2" font-family="Helvetica,sans-Serif" font-size="11.00">numeric[10]</text>
<polygon fill="#ffffff" stroke="transparent" points="570.5,-1010 570.5,-1032 746.5,-1032 746.5,-1010 570.5,-1010"/>
<polygon fill="none" stroke="black" points="570.5,-1010 570.5,-1032 746.5,-1032 746.5,-1010 570.5,-1010"/>
<text text-anchor="start" x="590.5" y="-1018.2" font-family="Helvetica,sans-Serif" font-size="11.00">cof_fci_uu</text>
<polygon fill="none" stroke="black" points="746.5,-1010 746.5,-1032 829.5,-1032 829.5,-1010 746.5,-1010"/>
<text text-anchor="start" x="749.5" y="-1018.2" font-family="Helvetica,sans-Serif" font-size="11.00">varchar[36]</text>
<polygon fill="none" stroke="black" points="570.5,-988 570.5,-1010 746.5,-1010 746.5,-988 570.5,-988"/>
<text text-anchor="start" x="590.5" y="-996.2" font-family="Helvetica,sans-Serif" font-size="11.00">ad_client_id</text>
<polygon fill="none" stroke="black" points="746.5,-988 746.5,-1010 829.5,-1010 829.5,-988 746.5,-988"/>
<text text-anchor="start" x="749.5" y="-996.2" font-family="Helvetica,sans-Serif" font-size="11.00">numeric[10]</text>
<polygon fill="none" stroke="black" points="570.5,-966 570.5,-988 746.5,-988 746.5,-966 570.5,-966"/>
<text text-anchor="start" x="590.5" y="-974.2" font-family="Helvetica,sans-Serif" font-size="11.00">ad_org_id</text>
<polygon fill="none" stroke="black" points="746.5,-966 746.5,-988 829.5,-988 829.5,-966 746.5,-966"/>
<text text-anchor="start" x="749.5" y="-974.2" font-family="Helvetica,sans-Serif" font-size="11.00">numeric[10]</text>
<polygon fill="none" stroke="black" points="570.5,-944 570.5,-966 746.5,-966 746.5,-944 570.5,-944"/>
<text text-anchor="start" x="590.5" y="-952.2" font-family="Helvetica,sans-Serif" font-size="11.00">isactive</text>
<polygon fill="none" stroke="black" points="746.5,-944 746.5,-966 829.5,-966 829.5,-944 746.5,-944"/>
<text text-anchor="start" x="749.5" y="-952.2" font-family="Helvetica,sans-Serif" font-size="11.00">bpchar[1]</text>
<polygon fill="none" stroke="black" points="570.5,-922 570.5,-944 746.5,-944 746.5,-922 570.5,-922"/>
<text text-anchor="start" x="590.5" y="-930.2" font-family="Helvetica,sans-Serif" font-size="11.00">created</text>
<polygon fill="none" stroke="black" points="746.5,-922 746.5,-944 829.5,-944 829.5,-922 746.5,-922"/>
<text text-anchor="start" x="749.5" y="-930.2" font-family="Helvetica,sans-Serif" font-size="11.00">timestamp[29,6]</text>
<polygon fill="none" stroke="black" points="570.5,-900 570.5,-922 746.5,-922 746.5,-900 570.5,-900"/>
<text text-anchor="start" x="590.5" y="-908.2" font-family="Helvetica,sans-Serif" font-size="11.00">createdby</text>
<polygon fill="none" stroke="black" points="746.5,-900 746.5,-922 829.5,-922 829.5,-900 746.5,-900"/>
<text text-anchor="start" x="749.5" y="-908.2" font-family="Helvetica,sans-Serif" font-size="11.00">numeric[10]</text>
<polygon fill="none" stroke="black" points="570.5,-878 570.5,-900 746.5,-900 746.5,-878 570.5,-878"/>
<text text-anchor="start" x="590.5" y="-886.2" font-family="Helvetica,sans-Serif" font-size="11.00">updated</text>
<polygon fill="none" stroke="black" points="746.5,-878 746.5,-900 829.5,-900 829.5,-878 746.5,-878"/>
<text text-anchor="start" x="749.5" y="-886.2" font-family="Helvetica,sans-Serif" font-size="11.00">timestamp[29,6]</text>
<polygon fill="none" stroke="black" points="570.5,-856 570.5,-878 746.5,-878 746.5,-856 570.5,-856"/>
<text text-anchor="start" x="590.5" y="-864.2" font-family="Helvetica,sans-Serif" font-size="11.00">updatedby</text>
<polygon fill="none" stroke="black" points="746.5,-856 746.5,-878 829.5,-878 829.5,-856 746.5,-856"/>
<text text-anchor="start" x="749.5" y="-864.2" font-family="Helvetica,sans-Serif" font-size="11.00">numeric[10]</text>
<polygon fill="none" stroke="black" points="570.5,-834 570.5,-856 746.5,-856 746.5,-834 570.5,-834"/>
<text text-anchor="start" x="590.5" y="-842.2" font-family="Helvetica,sans-Serif" font-size="11.00">cof_numerorecibo</text>
<polygon fill="none" stroke="black" points="746.5,-834 746.5,-856 829.5,-856 829.5,-834 746.5,-834"/>
<text text-anchor="start" x="749.5" y="-842.2" font-family="Helvetica,sans-Serif" font-size="11.00">varchar[36]</text>
<polygon fill="none" stroke="black" points="570.5,-812 570.5,-834 746.5,-834 746.5,-812 570.5,-812"/>
<image xlink:href="../../images/foreignKeys.png" width="11px" height="12px" preserveAspectRatio="xMinYMin meet" x="575.5" y="-829"/>
<text text-anchor="start" x="590.5" y="-820.2" font-family="Helvetica,sans-Serif" font-size="11.00">m_product_id</text>
<polygon fill="none" stroke="black" points="746.5,-812 746.5,-834 829.5,-834 829.5,-812 746.5,-812"/>
<text text-anchor="start" x="749.5" y="-820.2" font-family="Helvetica,sans-Serif" font-size="11.00">numeric[10]</text>
<polygon fill="none" stroke="black" points="570.5,-790 570.5,-812 746.5,-812 746.5,-790 570.5,-790"/>
<image xlink:href="../../images/foreignKeys.png" width="11px" height="12px" preserveAspectRatio="xMinYMin meet" x="575.5" y="-807"/>
<text text-anchor="start" x="590.5" y="-798.2" font-family="Helvetica,sans-Serif" font-size="11.00">m_product_category_id</text>
<polygon fill="none" stroke="black" points="746.5,-790 746.5,-812 829.5,-812 829.5,-790 746.5,-790"/>
<text text-anchor="start" x="749.5" y="-798.2" font-family="Helvetica,sans-Serif" font-size="11.00">numeric[10]</text>
<polygon fill="none" stroke="black" points="570.5,-768 570.5,-790 746.5,-790 746.5,-768 570.5,-768"/>
<text text-anchor="start" x="590.5" y="-776.2" font-family="Helvetica,sans-Serif" font-size="11.00">cof_dataentradade</text>
<polygon fill="none" stroke="black" points="746.5,-768 746.5,-790 829.5,-790 829.5,-768 746.5,-768"/>
<text text-anchor="start" x="749.5" y="-776.2" font-family="Helvetica,sans-Serif" font-size="11.00">timestamp[29,6]</text>
<polygon fill="none" stroke="black" points="570.5,-746 570.5,-768 746.5,-768 746.5,-746 570.5,-746"/>
<text text-anchor="start" x="590.5" y="-754.2" font-family="Helvetica,sans-Serif" font-size="11.00">cof_dataentradaate</text>
<polygon fill="none" stroke="black" points="746.5,-746 746.5,-768 829.5,-768 829.5,-746 746.5,-746"/>
<text text-anchor="start" x="749.5" y="-754.2" font-family="Helvetica,sans-Serif" font-size="11.00">timestamp[29,6]</text>
<polygon fill="none" stroke="black" points="570.5,-724 570.5,-746 746.5,-746 746.5,-724 570.5,-724"/>
<text text-anchor="start" x="590.5" y="-732.2" font-family="Helvetica,sans-Serif" font-size="11.00">cof_datasaidade</text>
<polygon fill="none" stroke="black" points="746.5,-724 746.5,-746 829.5,-746 829.5,-724 746.5,-724"/>
<text text-anchor="start" x="749.5" y="-732.2" font-family="Helvetica,sans-Serif" font-size="11.00">timestamp[29,6]</text>
<polygon fill="none" stroke="black" points="570.5,-702 570.5,-724 746.5,-724 746.5,-702 570.5,-702"/>
<text text-anchor="start" x="590.5" y="-710.2" font-family="Helvetica,sans-Serif" font-size="11.00">cof_datasaidaate</text>
<polygon fill="none" stroke="black" points="746.5,-702 746.5,-724 829.5,-724 829.5,-702 746.5,-702"/>
<text text-anchor="start" x="749.5" y="-710.2" font-family="Helvetica,sans-Serif" font-size="11.00">timestamp[29,6]</text>
<polygon fill="none" stroke="black" points="570.5,-680 570.5,-702 746.5,-702 746.5,-680 570.5,-680"/>
<text text-anchor="start" x="590.5" y="-688.2" font-family="Helvetica,sans-Serif" font-size="11.00">cof_processed</text>
<polygon fill="none" stroke="black" points="746.5,-680 746.5,-702 829.5,-702 829.5,-680 746.5,-680"/>
<text text-anchor="start" x="749.5" y="-688.2" font-family="Helvetica,sans-Serif" font-size="11.00">bpchar[1]</text>
<polygon fill="none" stroke="black" points="570.5,-658 570.5,-680 746.5,-680 746.5,-658 570.5,-658"/>
<text text-anchor="start" x="590.5" y="-666.2" font-family="Helvetica,sans-Serif" font-size="11.00">cof_processing</text>
<polygon fill="none" stroke="black" points="746.5,-658 746.5,-680 829.5,-680 829.5,-658 746.5,-658"/>
<text text-anchor="start" x="749.5" y="-666.2" font-family="Helvetica,sans-Serif" font-size="11.00">bpchar[1]</text>
<polygon fill="none" stroke="black" points="570.5,-636 570.5,-658 746.5,-658 746.5,-636 570.5,-636"/>
<text text-anchor="start" x="590.5" y="-644.2" font-family="Helvetica,sans-Serif" font-size="11.00">cof_processed2</text>
<polygon fill="none" stroke="black" points="746.5,-636 746.5,-658 829.5,-658 829.5,-636 746.5,-636"/>
<text text-anchor="start" x="749.5" y="-644.2" font-family="Helvetica,sans-Serif" font-size="11.00">bpchar[1]</text>
<polygon fill="none" stroke="black" points="570.5,-614 570.5,-636 746.5,-636 746.5,-614 570.5,-614"/>
<text text-anchor="start" x="590.5" y="-622.2" font-family="Helvetica,sans-Serif" font-size="11.00">cof_codversao</text>
<polygon fill="none" stroke="black" points="746.5,-614 746.5,-636 829.5,-636 829.5,-614 746.5,-614"/>
<text text-anchor="start" x="749.5" y="-622.2" font-family="Helvetica,sans-Serif" font-size="11.00">varchar[3]</text>
<polygon fill="#ffffff" stroke="transparent" points="570.5,-596 570.5,-614 649.5,-614 649.5,-596 570.5,-596"/>
<polygon fill="none" stroke="black" points="570.5,-596 570.5,-614 649.5,-614 649.5,-596 570.5,-596"/>
<text text-anchor="start" x="573.5" y="-602.2" font-family="Helvetica,sans-Serif" font-size="11.00">&lt; 2</text>
<polygon fill="#ffffff" stroke="transparent" points="649.5,-596 649.5,-614 746.5,-614 746.5,-596 649.5,-596"/>
<polygon fill="none" stroke="black" points="649.5,-596 649.5,-614 746.5,-614 746.5,-596 649.5,-596"/>
<text text-anchor="start" x="710.5" y="-602.2" font-family="Helvetica,sans-Serif" font-size="11.00">0 rows</text>
<polygon fill="#ffffff" stroke="transparent" points="746.5,-596 746.5,-614 829.5,-614 829.5,-596 746.5,-596"/>
<polygon fill="none" stroke="black" points="746.5,-596 746.5,-614 829.5,-614 829.5,-596 746.5,-596"/>
<text text-anchor="start" x="810.5" y="-602.2" font-family="Helvetica,sans-Serif" font-size="11.00">1 &gt;</text>
<polygon fill="none" stroke="black" stroke-width="2" points="569,-595 569,-1077 830,-1077 830,-595 569,-595"/>
</a>
</g>
</g>
<!-- m_product_category -->
<g id="node2" class="node">
<title>m_product_category</title>
<g id="a_node2"><a xlink:href="../../tables/m_product_category.html" xlink:title="m_product_category" target="_top">
<polygon fill="#ffffff" stroke="transparent" points="8,-472 8,-706 235,-706 235,-472 8,-472"/>
<polygon fill="#f5f5f5" stroke="transparent" points="8.5,-684 8.5,-706 235.5,-706 235.5,-684 8.5,-684"/>
<polygon fill="none" stroke="black" points="8.5,-684 8.5,-706 235.5,-706 235.5,-684 8.5,-684"/>
<text text-anchor="start" x="13.5" y="-693.2" font-family="Helvetica,sans-Serif" font-weight="bold" font-size="11.00">m_product_category</text>
<text text-anchor="start" x="200.5" y="-692.2" font-family="Helvetica,sans-Serif" font-size="11.00">[table]</text>
<polygon fill="none" stroke="black" points="8.5,-662 8.5,-684 235.5,-684 235.5,-662 8.5,-662"/>
<image xlink:href="../../images/primaryKeys.png" width="11px" height="12px" preserveAspectRatio="xMinYMin meet" x="13.5" y="-679"/>
<text text-anchor="start" x="28.5" y="-670.2" font-family="Helvetica,sans-Serif" font-size="11.00">m_product_category_id</text>
<polygon fill="#ffffff" stroke="transparent" points="8.5,-640 8.5,-662 235.5,-662 235.5,-640 8.5,-640"/>
<polygon fill="none" stroke="black" points="8.5,-640 8.5,-662 235.5,-662 235.5,-640 8.5,-640"/>
<text text-anchor="start" x="28.5" y="-648.2" font-family="Helvetica,sans-Serif" font-size="11.00">ad_client_id</text>
<polygon fill="#ffffff" stroke="transparent" points="8.5,-618 8.5,-640 235.5,-640 235.5,-618 8.5,-618"/>
<polygon fill="none" stroke="black" points="8.5,-618 8.5,-640 235.5,-640 235.5,-618 8.5,-618"/>
<text text-anchor="start" x="28.5" y="-626.2" font-family="Helvetica,sans-Serif" font-size="11.00">value</text>
<polygon fill="none" stroke="black" points="8.5,-596 8.5,-618 235.5,-618 235.5,-596 8.5,-596"/>
<image xlink:href="../../images/foreignKeys.png" width="11px" height="12px" preserveAspectRatio="xMinYMin meet" x="13.5" y="-613"/>
<text text-anchor="start" x="28.5" y="-604.2" font-family="Helvetica,sans-Serif" font-size="11.00">a_asset_group_id</text>
<polygon fill="none" stroke="black" points="8.5,-574 8.5,-596 235.5,-596 235.5,-574 8.5,-574"/>
<image xlink:href="../../images/foreignKeys.png" width="11px" height="12px" preserveAspectRatio="xMinYMin meet" x="13.5" y="-591"/>
<text text-anchor="start" x="28.5" y="-582.2" font-family="Helvetica,sans-Serif" font-size="11.00">ad_printcolor_id</text>
<polygon fill="none" stroke="black" points="8.5,-552 8.5,-574 235.5,-574 235.5,-552 8.5,-552"/>
<image xlink:href="../../images/foreignKeys.png" width="11px" height="12px" preserveAspectRatio="xMinYMin meet" x="13.5" y="-569"/>
<text text-anchor="start" x="28.5" y="-560.2" font-family="Helvetica,sans-Serif" font-size="11.00">m_product_category_parent_id</text>
<polygon fill="#ffffff" stroke="transparent" points="8.5,-530 8.5,-552 235.5,-552 235.5,-530 8.5,-530"/>
<polygon fill="none" stroke="black" points="8.5,-530 8.5,-552 235.5,-552 235.5,-530 8.5,-530"/>
<text text-anchor="start" x="28.5" y="-538.2" font-family="Helvetica,sans-Serif" font-size="11.00">m_product_category_uu</text>
<polygon fill="none" stroke="black" points="8.5,-508 8.5,-530 235.5,-530 235.5,-508 8.5,-508"/>
<image xlink:href="../../images/foreignKeys.png" width="11px" height="12px" preserveAspectRatio="xMinYMin meet" x="13.5" y="-525"/>
<text text-anchor="start" x="28.5" y="-516.2" font-family="Helvetica,sans-Serif" font-size="11.00">m_attributeset_id</text>
<polygon fill="none" stroke="black" points="8.5,-490 8.5,-508 235.5,-508 235.5,-490 8.5,-490"/>
<text text-anchor="start" x="11.5" y="-496.2" font-family="Helvetica,sans-Serif" font-size="11.00">...</text>
<polygon fill="#ffffff" stroke="transparent" points="8.5,-472 8.5,-490 99.5,-490 99.5,-472 8.5,-472"/>
<polygon fill="none" stroke="black" points="8.5,-472 8.5,-490 99.5,-490 99.5,-472 8.5,-472"/>
<text text-anchor="start" x="11.5" y="-478.2" font-family="Helvetica,sans-Serif" font-size="11.00">&lt; 3</text>
<polygon fill="#ffffff" stroke="transparent" points="99.5,-472 99.5,-490 172.5,-490 172.5,-472 99.5,-472"/>
<polygon fill="none" stroke="black" points="99.5,-472 99.5,-490 172.5,-490 172.5,-472 99.5,-472"/>
<text text-anchor="start" x="136.5" y="-478.2" font-family="Helvetica,sans-Serif" font-size="11.00">5 rows</text>
<polygon fill="#ffffff" stroke="transparent" points="172.5,-472 172.5,-490 235.5,-490 235.5,-472 172.5,-472"/>
<polygon fill="none" stroke="black" points="172.5,-472 172.5,-490 235.5,-490 235.5,-472 172.5,-472"/>
<text text-anchor="start" x="210.5" y="-478.2" font-family="Helvetica,sans-Serif" font-size="11.00">24 &gt;</text>
</a>
</g>
</g>
<!-- cof_fci&#45;&gt;m_product_category -->
<g id="edge1" class="edge">
<title>cof_fci:w&#45;&gt;m_product_category:e</title>
<path fill="none" stroke="black" d="M554.89,-801.27C434.4,-805.69 376.57,-862.27 276,-787 233.07,-754.87 290.12,-673 236.5,-673"/>
<polygon fill="black" stroke="black" points="561.5,-801.15 569.57,-804.6 565.5,-801.07 569.5,-801 569.5,-801 569.5,-801 565.5,-801.07 569.43,-797.4 561.5,-801.15 561.5,-801.15"/>
<ellipse fill="none" stroke="black" cx="558.3" cy="-801.21" rx="3.2" ry="3.2"/>
</g>
<!-- m_product -->
<g id="node3" class="node">
<title>m_product</title>
<g id="a_node3"><a xlink:href="../../tables/m_product.html" xlink:title="m_product" target="_top">
<polygon fill="#ffffff" stroke="transparent" points="284,-37 284,-777 519,-777 519,-37 284,-37"/>
<polygon fill="#f5f5f5" stroke="transparent" points="284.5,-755 284.5,-777 519.5,-777 519.5,-755 284.5,-755"/>
<polygon fill="none" stroke="black" points="284.5,-755 284.5,-777 519.5,-777 519.5,-755 284.5,-755"/>
<text text-anchor="start" x="289.5" y="-764.2" font-family="Helvetica,sans-Serif" font-weight="bold" font-size="11.00">m_product</text>
<text text-anchor="start" x="484.5" y="-763.2" font-family="Helvetica,sans-Serif" font-size="11.00">[table]</text>
<polygon fill="none" stroke="black" points="284.5,-733 284.5,-755 519.5,-755 519.5,-733 284.5,-733"/>
<image xlink:href="../../images/primaryKeys.png" width="11px" height="12px" preserveAspectRatio="xMinYMin meet" x="289.5" y="-750"/>
<text text-anchor="start" x="304.5" y="-741.2" font-family="Helvetica,sans-Serif" font-size="11.00">m_product_id</text>
<polygon fill="#ffffff" stroke="transparent" points="284.5,-711 284.5,-733 519.5,-733 519.5,-711 284.5,-711"/>
<polygon fill="none" stroke="black" points="284.5,-711 284.5,-733 519.5,-733 519.5,-711 284.5,-711"/>
<image xlink:href="../../images/foreignKeys.png" width="11px" height="12px" preserveAspectRatio="xMinYMin meet" x="289.5" y="-728"/>
<text text-anchor="start" x="304.5" y="-719.2" font-family="Helvetica,sans-Serif" font-size="11.00">ad_client_id</text>
<polygon fill="none" stroke="black" points="284.5,-689 284.5,-711 519.5,-711 519.5,-689 284.5,-689"/>
<image xlink:href="../../images/foreignKeys.png" width="11px" height="12px" preserveAspectRatio="xMinYMin meet" x="289.5" y="-706"/>
<text text-anchor="start" x="304.5" y="-697.2" font-family="Helvetica,sans-Serif" font-size="11.00">ad_org_id</text>
<polygon fill="#ffffff" stroke="transparent" points="284.5,-667 284.5,-689 519.5,-689 519.5,-667 284.5,-667"/>
<polygon fill="none" stroke="black" points="284.5,-667 284.5,-689 519.5,-689 519.5,-667 284.5,-667"/>
<text text-anchor="start" x="304.5" y="-675.2" font-family="Helvetica,sans-Serif" font-size="11.00">value</text>
<polygon fill="#ffffff" stroke="transparent" points="284.5,-645 284.5,-667 519.5,-667 519.5,-645 284.5,-645"/>
<polygon fill="none" stroke="black" points="284.5,-645 284.5,-667 519.5,-667 519.5,-645 284.5,-645"/>
<text text-anchor="start" x="304.5" y="-653.2" font-family="Helvetica,sans-Serif" font-size="11.00">name</text>
<polygon fill="#ffffff" stroke="transparent" points="284.5,-623 284.5,-645 519.5,-645 519.5,-623 284.5,-623"/>
<polygon fill="none" stroke="black" points="284.5,-623 284.5,-645 519.5,-645 519.5,-623 284.5,-623"/>
<text text-anchor="start" x="304.5" y="-631.2" font-family="Helvetica,sans-Serif" font-size="11.00">upc</text>
<polygon fill="none" stroke="black" points="284.5,-601 284.5,-623 519.5,-623 519.5,-601 284.5,-601"/>
<image xlink:href="../../images/foreignKeys.png" width="11px" height="12px" preserveAspectRatio="xMinYMin meet" x="289.5" y="-618"/>
<text text-anchor="start" x="304.5" y="-609.2" font-family="Helvetica,sans-Serif" font-size="11.00">c_uom_id</text>
<polygon fill="none" stroke="black" points="284.5,-579 284.5,-601 519.5,-601 519.5,-579 284.5,-579"/>
<image xlink:href="../../images/foreignKeys.png" width="11px" height="12px" preserveAspectRatio="xMinYMin meet" x="289.5" y="-596"/>
<text text-anchor="start" x="304.5" y="-587.2" font-family="Helvetica,sans-Serif" font-size="11.00">salesrep_id</text>
<polygon fill="none" stroke="black" points="284.5,-557 284.5,-579 519.5,-579 519.5,-557 284.5,-557"/>
<image xlink:href="../../images/foreignKeys.png" width="11px" height="12px" preserveAspectRatio="xMinYMin meet" x="289.5" y="-574"/>
<text text-anchor="start" x="304.5" y="-565.2" font-family="Helvetica,sans-Serif" font-size="11.00">c_revenuerecognition_id</text>
<polygon fill="#ffffff" stroke="transparent" points="284.5,-535 284.5,-557 519.5,-557 519.5,-535 284.5,-535"/>
<polygon fill="none" stroke="black" points="284.5,-535 284.5,-557 519.5,-557 519.5,-535 284.5,-535"/>
<image xlink:href="../../images/foreignKeys.png" width="11px" height="12px" preserveAspectRatio="xMinYMin meet" x="289.5" y="-552"/>
<text text-anchor="start" x="304.5" y="-543.2" font-family="Helvetica,sans-Serif" font-size="11.00">m_product_category_id</text>
<polygon fill="none" stroke="black" points="284.5,-513 284.5,-535 519.5,-535 519.5,-513 284.5,-513"/>
<image xlink:href="../../images/foreignKeys.png" width="11px" height="12px" preserveAspectRatio="xMinYMin meet" x="289.5" y="-530"/>
<text text-anchor="start" x="304.5" y="-521.2" font-family="Helvetica,sans-Serif" font-size="11.00">c_taxcategory_id</text>
<polygon fill="#ffffff" stroke="transparent" points="284.5,-491 284.5,-513 519.5,-513 519.5,-491 284.5,-491"/>
<polygon fill="none" stroke="black" points="284.5,-491 284.5,-513 519.5,-513 519.5,-491 284.5,-491"/>
<image xlink:href="../../images/foreignKeys.png" width="11px" height="12px" preserveAspectRatio="xMinYMin meet" x="289.5" y="-508"/>
<text text-anchor="start" x="304.5" y="-499.2" font-family="Helvetica,sans-Serif" font-size="11.00">s_resource_id</text>
<polygon fill="#ffffff" stroke="transparent" points="284.5,-469 284.5,-491 519.5,-491 519.5,-469 284.5,-469"/>
<polygon fill="none" stroke="black" points="284.5,-469 284.5,-491 519.5,-491 519.5,-469 284.5,-469"/>
<image xlink:href="../../images/foreignKeys.png" width="11px" height="12px" preserveAspectRatio="xMinYMin meet" x="289.5" y="-486"/>
<text text-anchor="start" x="304.5" y="-477.2" font-family="Helvetica,sans-Serif" font-size="11.00">s_expensetype_id</text>
<polygon fill="none" stroke="black" points="284.5,-447 284.5,-469 519.5,-469 519.5,-447 284.5,-447"/>
<image xlink:href="../../images/foreignKeys.png" width="11px" height="12px" preserveAspectRatio="xMinYMin meet" x="289.5" y="-464"/>
<text text-anchor="start" x="304.5" y="-455.2" font-family="Helvetica,sans-Serif" font-size="11.00">r_mailtext_id</text>
<polygon fill="none" stroke="black" points="284.5,-425 284.5,-447 519.5,-447 519.5,-425 284.5,-425"/>
<image xlink:href="../../images/foreignKeys.png" width="11px" height="12px" preserveAspectRatio="xMinYMin meet" x="289.5" y="-442"/>
<text text-anchor="start" x="304.5" y="-433.2" font-family="Helvetica,sans-Serif" font-size="11.00">m_attributeset_id</text>
<polygon fill="none" stroke="black" points="284.5,-403 284.5,-425 519.5,-425 519.5,-403 284.5,-403"/>
<image xlink:href="../../images/foreignKeys.png" width="11px" height="12px" preserveAspectRatio="xMinYMin meet" x="289.5" y="-420"/>
<text text-anchor="start" x="304.5" y="-411.2" font-family="Helvetica,sans-Serif" font-size="11.00">m_attributesetinstance_id</text>
<polygon fill="none" stroke="black" points="284.5,-381 284.5,-403 519.5,-403 519.5,-381 284.5,-381"/>
<image xlink:href="../../images/foreignKeys.png" width="11px" height="12px" preserveAspectRatio="xMinYMin meet" x="289.5" y="-398"/>
<text text-anchor="start" x="304.5" y="-389.2" font-family="Helvetica,sans-Serif" font-size="11.00">m_freightcategory_id</text>
<polygon fill="none" stroke="black" points="284.5,-359 284.5,-381 519.5,-381 519.5,-359 284.5,-359"/>
<image xlink:href="../../images/foreignKeys.png" width="11px" height="12px" preserveAspectRatio="xMinYMin meet" x="289.5" y="-376"/>
<text text-anchor="start" x="304.5" y="-367.2" font-family="Helvetica,sans-Serif" font-size="11.00">m_locator_id</text>
<polygon fill="none" stroke="black" points="284.5,-337 284.5,-359 519.5,-359 519.5,-337 284.5,-337"/>
<image xlink:href="../../images/foreignKeys.png" width="11px" height="12px" preserveAspectRatio="xMinYMin meet" x="289.5" y="-354"/>
<text text-anchor="start" x="304.5" y="-345.2" font-family="Helvetica,sans-Serif" font-size="11.00">c_subscriptiontype_id</text>
<polygon fill="#ffffff" stroke="transparent" points="284.5,-315 284.5,-337 519.5,-337 519.5,-315 284.5,-315"/>
<polygon fill="none" stroke="black" points="284.5,-315 284.5,-337 519.5,-337 519.5,-315 284.5,-315"/>
<text text-anchor="start" x="304.5" y="-323.2" font-family="Helvetica,sans-Serif" font-size="11.00">m_product_uu</text>
<polygon fill="none" stroke="black" points="284.5,-293 284.5,-315 519.5,-315 519.5,-293 284.5,-293"/>
<image xlink:href="../../images/foreignKeys.png" width="11px" height="12px" preserveAspectRatio="xMinYMin meet" x="289.5" y="-310"/>
<text text-anchor="start" x="304.5" y="-301.2" font-family="Helvetica,sans-Serif" font-size="11.00">m_parttype_id</text>
<polygon fill="none" stroke="black" points="284.5,-271 284.5,-293 519.5,-293 519.5,-271 284.5,-271"/>
<image xlink:href="../../images/foreignKeys.png" width="11px" height="12px" preserveAspectRatio="xMinYMin meet" x="289.5" y="-288"/>
<text text-anchor="start" x="304.5" y="-279.2" font-family="Helvetica,sans-Serif" font-size="11.00">lbr_productcategory_id</text>
<polygon fill="none" stroke="black" points="284.5,-249 284.5,-271 519.5,-271 519.5,-249 284.5,-249"/>
<image xlink:href="../../images/foreignKeys.png" width="11px" height="12px" preserveAspectRatio="xMinYMin meet" x="289.5" y="-266"/>
<text text-anchor="start" x="304.5" y="-257.2" font-family="Helvetica,sans-Serif" font-size="11.00">lbr_ncm_id</text>
<polygon fill="none" stroke="black" points="284.5,-227 284.5,-249 519.5,-249 519.5,-227 284.5,-227"/>
<image xlink:href="../../images/foreignKeys.png" width="11px" height="12px" preserveAspectRatio="xMinYMin meet" x="289.5" y="-244"/>
<text text-anchor="start" x="304.5" y="-235.2" font-family="Helvetica,sans-Serif" font-size="11.00">lbr_fiscalgroup_product_id</text>
<polygon fill="none" stroke="black" points="284.5,-205 284.5,-227 519.5,-227 519.5,-205 284.5,-205"/>
<image xlink:href="../../images/foreignKeys.png" width="11px" height="12px" preserveAspectRatio="xMinYMin meet" x="289.5" y="-222"/>
<text text-anchor="start" x="304.5" y="-213.2" font-family="Helvetica,sans-Serif" font-size="11.00">cof_cest_id</text>
<polygon fill="none" stroke="black" points="284.5,-183 284.5,-205 519.5,-205 519.5,-183 284.5,-183"/>
<image xlink:href="../../images/foreignKeys.png" width="11px" height="12px" preserveAspectRatio="xMinYMin meet" x="289.5" y="-200"/>
<text text-anchor="start" x="304.5" y="-191.2" font-family="Helvetica,sans-Serif" font-size="11.00">cof_c_generoitem_sped_id</text>
<polygon fill="none" stroke="black" points="284.5,-161 284.5,-183 519.5,-183 519.5,-161 284.5,-161"/>
<image xlink:href="../../images/foreignKeys.png" width="11px" height="12px" preserveAspectRatio="xMinYMin meet" x="289.5" y="-178"/>
<text text-anchor="start" x="304.5" y="-169.2" font-family="Helvetica,sans-Serif" font-size="11.00">cof_producttype_id</text>
<polygon fill="none" stroke="black" points="284.5,-139 284.5,-161 519.5,-161 519.5,-139 284.5,-139"/>
<image xlink:href="../../images/foreignKeys.png" width="11px" height="12px" preserveAspectRatio="xMinYMin meet" x="289.5" y="-156"/>
<text text-anchor="start" x="304.5" y="-147.2" font-family="Helvetica,sans-Serif" font-size="11.00">cof_productclass_id</text>
<polygon fill="none" stroke="black" points="284.5,-117 284.5,-139 519.5,-139 519.5,-117 284.5,-117"/>
<image xlink:href="../../images/foreignKeys.png" width="11px" height="12px" preserveAspectRatio="xMinYMin meet" x="289.5" y="-134"/>
<text text-anchor="start" x="304.5" y="-125.2" font-family="Helvetica,sans-Serif" font-size="11.00">cof_productgroup_id</text>
<polygon fill="none" stroke="black" points="284.5,-95 284.5,-117 519.5,-117 519.5,-95 284.5,-95"/>
<image xlink:href="../../images/foreignKeys.png" width="11px" height="12px" preserveAspectRatio="xMinYMin meet" x="289.5" y="-112"/>
<text text-anchor="start" x="304.5" y="-103.2" font-family="Helvetica,sans-Serif" font-size="11.00">cof_nbs_id</text>
<polygon fill="none" stroke="black" points="284.5,-73 284.5,-95 519.5,-95 519.5,-73 284.5,-73"/>
<image xlink:href="../../images/foreignKeys.png" width="11px" height="12px" preserveAspectRatio="xMinYMin meet" x="289.5" y="-90"/>
<text text-anchor="start" x="304.5" y="-81.2" font-family="Helvetica,sans-Serif" font-size="11.00">cof_grupofornecedor_id</text>
<polygon fill="none" stroke="black" points="284.5,-55 284.5,-73 519.5,-73 519.5,-55 284.5,-55"/>
<text text-anchor="start" x="287.5" y="-61.2" font-family="Helvetica,sans-Serif" font-size="11.00">...</text>
<polygon fill="#ffffff" stroke="transparent" points="284.5,-37 284.5,-55 381.5,-55 381.5,-37 284.5,-37"/>
<polygon fill="none" stroke="black" points="284.5,-37 284.5,-55 381.5,-55 381.5,-37 284.5,-37"/>
<text text-anchor="start" x="287.5" y="-43.2" font-family="Helvetica,sans-Serif" font-size="11.00">&lt; 22</text>
<polygon fill="#ffffff" stroke="transparent" points="381.5,-37 381.5,-55 450.5,-55 450.5,-37 381.5,-37"/>
<polygon fill="none" stroke="black" points="381.5,-37 381.5,-55 450.5,-55 450.5,-37 381.5,-37"/>
<text text-anchor="start" x="419.5" y="-43.2" font-family="Helvetica,sans-Serif" font-size="11.00">1 row</text>
<polygon fill="#ffffff" stroke="transparent" points="450.5,-37 450.5,-55 519.5,-55 519.5,-37 450.5,-37"/>
<polygon fill="none" stroke="black" points="450.5,-37 450.5,-55 519.5,-55 519.5,-37 450.5,-37"/>
<text text-anchor="start" x="488.5" y="-43.2" font-family="Helvetica,sans-Serif" font-size="11.00">172 &gt;</text>
</a>
</g>
</g>
<!-- cof_fci&#45;&gt;m_product -->
<g id="edge2" class="edge">
<title>cof_fci:w&#45;&gt;m_product:e</title>
<path fill="none" stroke="black" d="M555.57,-818.29C536.52,-801.29 555.68,-744 520.5,-744"/>
<polygon fill="black" stroke="black" points="561.92,-820.44 568.35,-826.41 565.71,-821.72 569.5,-823 569.5,-823 569.5,-823 565.71,-821.72 570.65,-819.59 561.92,-820.44 561.92,-820.44"/>
<ellipse fill="none" stroke="black" cx="558.89" cy="-819.42" rx="3.2" ry="3.2"/>
</g>
<!-- m_product&#45;&gt;m_product_category -->
<g id="edge5" class="edge">
<title>m_product:w&#45;&gt;m_product_category:e</title>
<path fill="none" stroke="black" d="M269.44,-549.4C236.37,-569.59 290.81,-673 236.5,-673"/>
<polygon fill="black" stroke="black" points="275.72,-547.88 284.35,-549.5 279.61,-546.94 283.5,-546 283.5,-546 283.5,-546 279.61,-546.94 282.65,-542.5 275.72,-547.88 275.72,-547.88"/>
<ellipse fill="none" stroke="black" cx="272.61" cy="-548.63" rx="3.2" ry="3.2"/>
</g>
<!-- cof_fciline -->
<g id="node4" class="node">
<title>cof_fciline</title>
<g id="a_node4"><a xlink:href="../../tables/cof_fciline.html" xlink:title="cof_fciline" target="_top">
<polygon fill="#ffffff" stroke="transparent" points="880,-693 880,-927 1078,-927 1078,-693 880,-693"/>
<polygon fill="#f5f5f5" stroke="transparent" points="880,-905 880,-927 1078,-927 1078,-905 880,-905"/>
<polygon fill="none" stroke="black" points="880,-905 880,-927 1078,-927 1078,-905 880,-905"/>
<text text-anchor="start" x="885" y="-914.2" font-family="Helvetica,sans-Serif" font-weight="bold" font-size="11.00">cof_fciline</text>
<text text-anchor="start" x="1043" y="-913.2" font-family="Helvetica,sans-Serif" font-size="11.00">[table]</text>
<polygon fill="none" stroke="black" points="880,-883 880,-905 1078,-905 1078,-883 880,-883"/>
<image xlink:href="../../images/primaryKeys.png" width="11px" height="12px" preserveAspectRatio="xMinYMin meet" x="885" y="-900"/>
<text text-anchor="start" x="900" y="-891.2" font-family="Helvetica,sans-Serif" font-size="11.00">cof_fciline_id</text>
<polygon fill="#ffffff" stroke="transparent" points="880,-861 880,-883 1078,-883 1078,-861 880,-861"/>
<polygon fill="none" stroke="black" points="880,-861 880,-883 1078,-883 1078,-861 880,-861"/>
<text text-anchor="start" x="900" y="-869.2" font-family="Helvetica,sans-Serif" font-size="11.00">cof_fciline_uu</text>
<polygon fill="none" stroke="black" points="880,-839 880,-861 1078,-861 1078,-839 880,-839"/>
<image xlink:href="../../images/foreignKeys.png" width="11px" height="12px" preserveAspectRatio="xMinYMin meet" x="885" y="-856"/>
<text text-anchor="start" x="900" y="-847.2" font-family="Helvetica,sans-Serif" font-size="11.00">lbr_ncm_id</text>
<polygon fill="none" stroke="black" points="880,-817 880,-839 1078,-839 1078,-817 880,-817"/>
<image xlink:href="../../images/foreignKeys.png" width="11px" height="12px" preserveAspectRatio="xMinYMin meet" x="885" y="-834"/>
<text text-anchor="start" x="900" y="-825.2" font-family="Helvetica,sans-Serif" font-size="11.00">cof_fci_id</text>
<polygon fill="none" stroke="black" points="880,-795 880,-817 1078,-817 1078,-795 880,-795"/>
<image xlink:href="../../images/foreignKeys.png" width="11px" height="12px" preserveAspectRatio="xMinYMin meet" x="885" y="-812"/>
<text text-anchor="start" x="900" y="-803.2" font-family="Helvetica,sans-Serif" font-size="11.00">c_uom_id</text>
<polygon fill="none" stroke="black" points="880,-773 880,-795 1078,-795 1078,-773 880,-773"/>
<image xlink:href="../../images/foreignKeys.png" width="11px" height="12px" preserveAspectRatio="xMinYMin meet" x="885" y="-790"/>
<text text-anchor="start" x="900" y="-781.2" font-family="Helvetica,sans-Serif" font-size="11.00">m_product_id</text>
<polygon fill="none" stroke="black" points="880,-751 880,-773 1078,-773 1078,-751 880,-751"/>
<image xlink:href="../../images/foreignKeys.png" width="11px" height="12px" preserveAspectRatio="xMinYMin meet" x="885" y="-768"/>
<text text-anchor="start" x="900" y="-759.2" font-family="Helvetica,sans-Serif" font-size="11.00">lbr_productcategory_id</text>
<polygon fill="none" stroke="black" points="880,-729 880,-751 1078,-751 1078,-729 880,-729"/>
<image xlink:href="../../images/foreignKeys.png" width="11px" height="12px" preserveAspectRatio="xMinYMin meet" x="885" y="-746"/>
<text text-anchor="start" x="900" y="-737.2" font-family="Helvetica,sans-Serif" font-size="11.00">lbr_fiscalgroup_product_id</text>
<polygon fill="none" stroke="black" points="880,-711 880,-729 1078,-729 1078,-711 880,-711"/>
<text text-anchor="start" x="883" y="-717.2" font-family="Helvetica,sans-Serif" font-size="11.00">...</text>
<polygon fill="#ffffff" stroke="transparent" points="880,-693 880,-711 959,-711 959,-693 880,-693"/>
<polygon fill="none" stroke="black" points="880,-693 880,-711 959,-711 959,-693 880,-693"/>
<text text-anchor="start" x="883" y="-699.2" font-family="Helvetica,sans-Serif" font-size="11.00">&lt; 6</text>
<polygon fill="#ffffff" stroke="transparent" points="959,-693 959,-711 1027,-711 1027,-693 959,-693"/>
<polygon fill="none" stroke="black" points="959,-693 959,-711 1027,-711 1027,-693 959,-693"/>
<text text-anchor="start" x="991" y="-699.2" font-family="Helvetica,sans-Serif" font-size="11.00">0 rows</text>
<polygon fill="#ffffff" stroke="transparent" points="1027,-693 1027,-711 1078,-711 1078,-693 1027,-693"/>
<polygon fill="none" stroke="black" points="1027,-693 1027,-711 1078,-711 1078,-693 1027,-693"/>
<text text-anchor="start" x="1059" y="-699.2" font-family="Helvetica,sans-Serif" font-size="11.00">1 &gt;</text>
</a>
</g>
</g>
<!-- cof_fciline&#45;&gt;cof_fci -->
<g id="edge3" class="edge">
<title>cof_fciline:w&#45;&gt;cof_fci:e</title>
<path fill="none" stroke="black" d="M864.63,-829.99C796.96,-851.67 922.91,-1043 830.5,-1043"/>
<polygon fill="black" stroke="black" points="871.08,-829.1 879.49,-831.57 875.04,-828.55 879,-828 879,-828 879,-828 875.04,-828.55 878.51,-824.43 871.08,-829.1 871.08,-829.1"/>
<ellipse fill="none" stroke="black" cx="867.91" cy="-829.54" rx="3.2" ry="3.2"/>
</g>
<!-- cof_fciline&#45;&gt;m_product -->
<g id="edge4" class="edge">
<title>cof_fciline:w&#45;&gt;m_product:e</title>
<path fill="none" stroke="black" d="M864.38,-782.39C802.7,-766.52 904.72,-637.88 839,-584 743.11,-505.39 657.63,-507.55 560,-584 502.33,-629.16 593.75,-744 520.5,-744"/>
<polygon fill="black" stroke="black" points="871.05,-783.12 878.6,-787.58 875.02,-783.56 879,-784 879,-784 879,-784 875.02,-783.56 879.4,-780.42 871.05,-783.12 871.05,-783.12"/>
<ellipse fill="none" stroke="black" cx="867.87" cy="-782.77" rx="3.2" ry="3.2"/>
</g>
</g>
</svg>
