<?xml version="1.0" encoding="UTF-8" standalone="no"?>
<!DOCTYPE svg PUBLIC "-//W3C//DTD SVG 1.1//EN"
 "http://www.w3.org/Graphics/SVG/1.1/DTD/svg11.dtd">
<!-- Generated by graphviz version 2.43.0 (0)
 -->
<!-- Title: oneDegreeRelationshipsDiagram Pages: 1 -->
<svg width="599pt" height="423pt"
 viewBox="0.00 0.00 599.00 423.00" xmlns="http://www.w3.org/2000/svg" xmlns:xlink="http://www.w3.org/1999/xlink">
<g id="graph0" class="graph" transform="scale(1 1) rotate(0) translate(4 419)">
<title>oneDegreeRelationshipsDiagram</title>
<polygon fill="#ffffff" stroke="transparent" points="-4,4 -4,-419 595,-419 595,4 -4,4"/>
<text text-anchor="middle" x="71.5" y="-7.2" font-family="Helvetica,sans-Serif" font-size="11.00">Generated by SchemaSpy</text>
<!-- cof_guarantors -->
<g id="node1" class="node">
<title>cof_guarantors</title>
<g id="a_node1"><a xlink:href="../../tables/cof_guarantors.html" xlink:title="cof_guarantors" target="_top">
<polygon fill="#ffffff" stroke="transparent" points="336,-37 336,-411 583,-411 583,-37 336,-37"/>
<polygon fill="#f5f5f5" stroke="transparent" points="338.5,-387 338.5,-409 581.5,-409 581.5,-387 338.5,-387"/>
<polygon fill="none" stroke="black" points="338.5,-387 338.5,-409 581.5,-409 581.5,-387 338.5,-387"/>
<text text-anchor="start" x="343.5" y="-396.2" font-family="Helvetica,sans-Serif" font-weight="bold" font-size="11.00">cof_guarantors</text>
<text text-anchor="start" x="546.5" y="-395.2" font-family="Helvetica,sans-Serif" font-size="11.00">[table]</text>
<polygon fill="none" stroke="black" points="338.5,-365 338.5,-387 498.5,-387 498.5,-365 338.5,-365"/>
<image xlink:href="../../images/primaryKeys.png" width="11px" height="12px" preserveAspectRatio="xMinYMin meet" x="343.5" y="-382"/>
<text text-anchor="start" x="358.5" y="-373.2" font-family="Helvetica,sans-Serif" font-size="11.00">cof_guarantors_id</text>
<polygon fill="none" stroke="black" points="498.5,-365 498.5,-387 581.5,-387 581.5,-365 498.5,-365"/>
<text text-anchor="start" x="501.5" y="-373.2" font-family="Helvetica,sans-Serif" font-size="11.00">numeric[10]</text>
<polygon fill="#ffffff" stroke="transparent" points="338.5,-343 338.5,-365 498.5,-365 498.5,-343 338.5,-343"/>
<polygon fill="none" stroke="black" points="338.5,-343 338.5,-365 498.5,-365 498.5,-343 338.5,-343"/>
<text text-anchor="start" x="358.5" y="-351.2" font-family="Helvetica,sans-Serif" font-size="11.00">cof_guarantors_uu</text>
<polygon fill="none" stroke="black" points="498.5,-343 498.5,-365 581.5,-365 581.5,-343 498.5,-343"/>
<text text-anchor="start" x="501.5" y="-351.2" font-family="Helvetica,sans-Serif" font-size="11.00">varchar[36]</text>
<polygon fill="none" stroke="black" points="338.5,-321 338.5,-343 498.5,-343 498.5,-321 338.5,-321"/>
<text text-anchor="start" x="358.5" y="-329.2" font-family="Helvetica,sans-Serif" font-size="11.00">ad_client_id</text>
<polygon fill="none" stroke="black" points="498.5,-321 498.5,-343 581.5,-343 581.5,-321 498.5,-321"/>
<text text-anchor="start" x="501.5" y="-329.2" font-family="Helvetica,sans-Serif" font-size="11.00">numeric[10]</text>
<polygon fill="none" stroke="black" points="338.5,-299 338.5,-321 498.5,-321 498.5,-299 338.5,-299"/>
<text text-anchor="start" x="358.5" y="-307.2" font-family="Helvetica,sans-Serif" font-size="11.00">ad_org_id</text>
<polygon fill="none" stroke="black" points="498.5,-299 498.5,-321 581.5,-321 581.5,-299 498.5,-299"/>
<text text-anchor="start" x="501.5" y="-307.2" font-family="Helvetica,sans-Serif" font-size="11.00">numeric[10]</text>
<polygon fill="none" stroke="black" points="338.5,-277 338.5,-299 498.5,-299 498.5,-277 338.5,-277"/>
<text text-anchor="start" x="358.5" y="-285.2" font-family="Helvetica,sans-Serif" font-size="11.00">isactive</text>
<polygon fill="none" stroke="black" points="498.5,-277 498.5,-299 581.5,-299 581.5,-277 498.5,-277"/>
<text text-anchor="start" x="501.5" y="-285.2" font-family="Helvetica,sans-Serif" font-size="11.00">bpchar[1]</text>
<polygon fill="none" stroke="black" points="338.5,-255 338.5,-277 498.5,-277 498.5,-255 338.5,-255"/>
<text text-anchor="start" x="358.5" y="-263.2" font-family="Helvetica,sans-Serif" font-size="11.00">created</text>
<polygon fill="none" stroke="black" points="498.5,-255 498.5,-277 581.5,-277 581.5,-255 498.5,-255"/>
<text text-anchor="start" x="501.5" y="-263.2" font-family="Helvetica,sans-Serif" font-size="11.00">timestamp[29,6]</text>
<polygon fill="none" stroke="black" points="338.5,-233 338.5,-255 498.5,-255 498.5,-233 338.5,-233"/>
<text text-anchor="start" x="358.5" y="-241.2" font-family="Helvetica,sans-Serif" font-size="11.00">createdby</text>
<polygon fill="none" stroke="black" points="498.5,-233 498.5,-255 581.5,-255 581.5,-233 498.5,-233"/>
<text text-anchor="start" x="501.5" y="-241.2" font-family="Helvetica,sans-Serif" font-size="11.00">numeric[10]</text>
<polygon fill="none" stroke="black" points="338.5,-211 338.5,-233 498.5,-233 498.5,-211 338.5,-211"/>
<text text-anchor="start" x="358.5" y="-219.2" font-family="Helvetica,sans-Serif" font-size="11.00">updated</text>
<polygon fill="none" stroke="black" points="498.5,-211 498.5,-233 581.5,-233 581.5,-211 498.5,-211"/>
<text text-anchor="start" x="501.5" y="-219.2" font-family="Helvetica,sans-Serif" font-size="11.00">timestamp[29,6]</text>
<polygon fill="none" stroke="black" points="338.5,-189 338.5,-211 498.5,-211 498.5,-189 338.5,-189"/>
<text text-anchor="start" x="358.5" y="-197.2" font-family="Helvetica,sans-Serif" font-size="11.00">updatedby</text>
<polygon fill="none" stroke="black" points="498.5,-189 498.5,-211 581.5,-211 581.5,-189 498.5,-189"/>
<text text-anchor="start" x="501.5" y="-197.2" font-family="Helvetica,sans-Serif" font-size="11.00">numeric[10]</text>
<polygon fill="none" stroke="black" points="338.5,-167 338.5,-189 498.5,-189 498.5,-167 338.5,-167"/>
<image xlink:href="../../images/foreignKeys.png" width="11px" height="12px" preserveAspectRatio="xMinYMin meet" x="343.5" y="-184"/>
<text text-anchor="start" x="358.5" y="-175.2" font-family="Helvetica,sans-Serif" font-size="11.00">cof_creditanalysis_id</text>
<polygon fill="none" stroke="black" points="498.5,-167 498.5,-189 581.5,-189 581.5,-167 498.5,-167"/>
<text text-anchor="start" x="501.5" y="-175.2" font-family="Helvetica,sans-Serif" font-size="11.00">numeric[10]</text>
<polygon fill="none" stroke="black" points="338.5,-145 338.5,-167 498.5,-167 498.5,-145 338.5,-145"/>
<text text-anchor="start" x="358.5" y="-153.2" font-family="Helvetica,sans-Serif" font-size="11.00">name</text>
<polygon fill="none" stroke="black" points="498.5,-145 498.5,-167 581.5,-167 581.5,-145 498.5,-145"/>
<text text-anchor="start" x="501.5" y="-153.2" font-family="Helvetica,sans-Serif" font-size="11.00">varchar[60]</text>
<polygon fill="none" stroke="black" points="338.5,-123 338.5,-145 498.5,-145 498.5,-123 338.5,-123"/>
<text text-anchor="start" x="358.5" y="-131.2" font-family="Helvetica,sans-Serif" font-size="11.00">lbr_cpf</text>
<polygon fill="none" stroke="black" points="498.5,-123 498.5,-145 581.5,-145 581.5,-123 498.5,-123"/>
<text text-anchor="start" x="501.5" y="-131.2" font-family="Helvetica,sans-Serif" font-size="11.00">varchar[14]</text>
<polygon fill="none" stroke="black" points="338.5,-101 338.5,-123 498.5,-123 498.5,-101 338.5,-101"/>
<text text-anchor="start" x="358.5" y="-109.2" font-family="Helvetica,sans-Serif" font-size="11.00">lbr_rg</text>
<polygon fill="none" stroke="black" points="498.5,-101 498.5,-123 581.5,-123 581.5,-101 498.5,-101"/>
<text text-anchor="start" x="501.5" y="-109.2" font-family="Helvetica,sans-Serif" font-size="11.00">varchar[30]</text>
<polygon fill="none" stroke="black" points="338.5,-79 338.5,-101 498.5,-101 498.5,-79 338.5,-79"/>
<text text-anchor="start" x="358.5" y="-87.2" font-family="Helvetica,sans-Serif" font-size="11.00">description</text>
<polygon fill="none" stroke="black" points="498.5,-79 498.5,-101 581.5,-101 581.5,-79 498.5,-79"/>
<text text-anchor="start" x="501.5" y="-87.2" font-family="Helvetica,sans-Serif" font-size="11.00">varchar[255]</text>
<polygon fill="none" stroke="black" points="338.5,-57 338.5,-79 498.5,-79 498.5,-57 338.5,-57"/>
<text text-anchor="start" x="358.5" y="-65.2" font-family="Helvetica,sans-Serif" font-size="11.00">cof_profession</text>
<polygon fill="none" stroke="black" points="498.5,-57 498.5,-79 581.5,-79 581.5,-57 498.5,-57"/>
<text text-anchor="start" x="501.5" y="-65.2" font-family="Helvetica,sans-Serif" font-size="11.00">varchar[60]</text>
<polygon fill="#ffffff" stroke="transparent" points="338.5,-39 338.5,-57 409.5,-57 409.5,-39 338.5,-39"/>
<polygon fill="none" stroke="black" points="338.5,-39 338.5,-57 409.5,-57 409.5,-39 338.5,-39"/>
<text text-anchor="start" x="341.5" y="-45.2" font-family="Helvetica,sans-Serif" font-size="11.00">&lt; 1</text>
<polygon fill="#ffffff" stroke="transparent" points="409.5,-39 409.5,-57 498.5,-57 498.5,-39 409.5,-39"/>
<polygon fill="none" stroke="black" points="409.5,-39 409.5,-57 498.5,-57 498.5,-39 409.5,-39"/>
<text text-anchor="start" x="462.5" y="-45.2" font-family="Helvetica,sans-Serif" font-size="11.00">0 rows</text>
<polygon fill="#ffffff" stroke="transparent" points="498.5,-39 498.5,-57 581.5,-57 581.5,-39 498.5,-39"/>
<polygon fill="none" stroke="black" points="498.5,-39 498.5,-57 581.5,-57 581.5,-39 498.5,-39"/>
<text text-anchor="start" x="562.5" y="-45.2" font-family="Helvetica,sans-Serif" font-size="11.00">0 &gt;</text>
<polygon fill="none" stroke="black" stroke-width="2" points="337,-38 337,-410 582,-410 582,-38 337,-38"/>
</a>
</g>
</g>
<!-- cof_creditanalysis -->
<g id="node2" class="node">
<title>cof_creditanalysis</title>
<g id="a_node2"><a xlink:href="../../tables/cof_creditanalysis.html" xlink:title="cof_creditanalysis" target="_top">
<polygon fill="#ffffff" stroke="transparent" points="8,-43 8,-211 287,-211 287,-43 8,-43"/>
<polygon fill="#f5f5f5" stroke="transparent" points="8.5,-189 8.5,-211 287.5,-211 287.5,-189 8.5,-189"/>
<polygon fill="none" stroke="black" points="8.5,-189 8.5,-211 287.5,-211 287.5,-189 8.5,-189"/>
<text text-anchor="start" x="13.5" y="-198.2" font-family="Helvetica,sans-Serif" font-weight="bold" font-size="11.00">cof_creditanalysis</text>
<text text-anchor="start" x="252.5" y="-197.2" font-family="Helvetica,sans-Serif" font-size="11.00">[table]</text>
<polygon fill="none" stroke="black" points="8.5,-167 8.5,-189 287.5,-189 287.5,-167 8.5,-167"/>
<image xlink:href="../../images/primaryKeys.png" width="11px" height="12px" preserveAspectRatio="xMinYMin meet" x="13.5" y="-184"/>
<text text-anchor="start" x="28.5" y="-175.2" font-family="Helvetica,sans-Serif" font-size="11.00">cof_creditanalysis_id</text>
<polygon fill="#ffffff" stroke="transparent" points="8.5,-145 8.5,-167 287.5,-167 287.5,-145 8.5,-145"/>
<polygon fill="none" stroke="black" points="8.5,-145 8.5,-167 287.5,-167 287.5,-145 8.5,-145"/>
<text text-anchor="start" x="28.5" y="-153.2" font-family="Helvetica,sans-Serif" font-size="11.00">cof_creditanalysis_uu</text>
<polygon fill="none" stroke="black" points="8.5,-123 8.5,-145 287.5,-145 287.5,-123 8.5,-123"/>
<image xlink:href="../../images/foreignKeys.png" width="11px" height="12px" preserveAspectRatio="xMinYMin meet" x="13.5" y="-140"/>
<text text-anchor="start" x="28.5" y="-131.2" font-family="Helvetica,sans-Serif" font-size="11.00">cof_c_dossier_id</text>
<polygon fill="none" stroke="black" points="8.5,-101 8.5,-123 287.5,-123 287.5,-101 8.5,-101"/>
<image xlink:href="../../images/foreignKeys.png" width="11px" height="12px" preserveAspectRatio="xMinYMin meet" x="13.5" y="-118"/>
<text text-anchor="start" x="28.5" y="-109.2" font-family="Helvetica,sans-Serif" font-size="11.00">c_bpartner_id</text>
<polygon fill="none" stroke="black" points="8.5,-79 8.5,-101 287.5,-101 287.5,-79 8.5,-79"/>
<image xlink:href="../../images/foreignKeys.png" width="11px" height="12px" preserveAspectRatio="xMinYMin meet" x="13.5" y="-96"/>
<text text-anchor="start" x="28.5" y="-87.2" font-family="Helvetica,sans-Serif" font-size="11.00">c_bpartner_location_id</text>
<polygon fill="none" stroke="black" points="8.5,-61 8.5,-79 287.5,-79 287.5,-61 8.5,-61"/>
<text text-anchor="start" x="11.5" y="-67.2" font-family="Helvetica,sans-Serif" font-size="11.00">...</text>
<polygon fill="#ffffff" stroke="transparent" points="8.5,-43 8.5,-61 128.5,-61 128.5,-43 8.5,-43"/>
<polygon fill="none" stroke="black" points="8.5,-43 8.5,-61 128.5,-61 128.5,-43 8.5,-43"/>
<text text-anchor="start" x="11.5" y="-49.2" font-family="Helvetica,sans-Serif" font-size="11.00">&lt; 3</text>
<polygon fill="#ffffff" stroke="transparent" points="128.5,-43 128.5,-61 216.5,-61 216.5,-43 128.5,-43"/>
<polygon fill="none" stroke="black" points="128.5,-43 128.5,-61 216.5,-61 216.5,-43 128.5,-43"/>
<text text-anchor="start" x="180.5" y="-49.2" font-family="Helvetica,sans-Serif" font-size="11.00">0 rows</text>
<polygon fill="#ffffff" stroke="transparent" points="216.5,-43 216.5,-61 287.5,-61 287.5,-43 216.5,-43"/>
<polygon fill="none" stroke="black" points="216.5,-43 216.5,-61 287.5,-61 287.5,-43 216.5,-43"/>
<text text-anchor="start" x="268.5" y="-49.2" font-family="Helvetica,sans-Serif" font-size="11.00">5 &gt;</text>
</a>
</g>
</g>
<!-- cof_guarantors&#45;&gt;cof_creditanalysis -->
<g id="edge1" class="edge">
<title>cof_guarantors:w&#45;&gt;cof_creditanalysis:e</title>
<path fill="none" stroke="black" d="M322.99,-178C311.68,-178 304.49,-178 288.5,-178"/>
<polygon fill="black" stroke="black" points="329.5,-178 337.5,-181.6 333.5,-178 337.5,-178 337.5,-178 337.5,-178 333.5,-178 337.5,-174.4 329.5,-178 329.5,-178"/>
<ellipse fill="none" stroke="black" cx="326.3" cy="-178" rx="3.2" ry="3.2"/>
</g>
</g>
</svg>
