<?xml version="1.0" encoding="UTF-8" standalone="no"?>
<!DOCTYPE svg PUBLIC "-//W3C//DTD SVG 1.1//EN"
 "http://www.w3.org/Graphics/SVG/1.1/DTD/svg11.dtd">
<!-- Generated by graphviz version 2.43.0 (0)
 -->
<!-- Title: oneDegreeRelationshipsDiagram Pages: 1 -->
<svg width="1316pt" height="1407pt"
 viewBox="0.00 0.00 1316.00 1407.00" xmlns="http://www.w3.org/2000/svg" xmlns:xlink="http://www.w3.org/1999/xlink">
<g id="graph0" class="graph" transform="scale(1 1) rotate(0) translate(4 1403)">
<title>oneDegreeRelationshipsDiagram</title>
<polygon fill="#ffffff" stroke="transparent" points="-4,4 -4,-1403 1312,-1403 1312,4 -4,4"/>
<text text-anchor="middle" x="71.5" y="-7.2" font-family="Helvetica,sans-Serif" font-size="11.00">Generated by SchemaSpy</text>
<!-- cof_pmp_apontamento_producao_manual -->
<g id="node1" class="node">
<title>cof_pmp_apontamento_producao_manual</title>
<g id="a_node1"><a xlink:href="../../tables/cof_pmp_apontamento_producao_manual.html" xlink:title="cof_pmp_apontamento_producao_manual" target="_top">
<polygon fill="#ffffff" stroke="transparent" points="896,-889 896,-1395 1300,-1395 1300,-889 896,-889"/>
<polygon fill="#f5f5f5" stroke="transparent" points="898,-1371 898,-1393 1298,-1393 1298,-1371 898,-1371"/>
<polygon fill="none" stroke="black" points="898,-1371 898,-1393 1298,-1393 1298,-1371 898,-1371"/>
<text text-anchor="start" x="903" y="-1380.2" font-family="Helvetica,sans-Serif" font-weight="bold" font-size="11.00">cof_pmp_apontamento_producao_manual</text>
<text text-anchor="start" x="1263" y="-1379.2" font-family="Helvetica,sans-Serif" font-size="11.00">[table]</text>
<polygon fill="none" stroke="black" points="898,-1349 898,-1371 1215,-1371 1215,-1349 898,-1349"/>
<image xlink:href="../../images/primaryKeys.png" width="11px" height="12px" preserveAspectRatio="xMinYMin meet" x="903" y="-1366"/>
<text text-anchor="start" x="918" y="-1357.2" font-family="Helvetica,sans-Serif" font-size="11.00">cof_pmp_apontamento_producao_manual_id</text>
<polygon fill="none" stroke="black" points="1215,-1349 1215,-1371 1298,-1371 1298,-1349 1215,-1349"/>
<text text-anchor="start" x="1218" y="-1357.2" font-family="Helvetica,sans-Serif" font-size="11.00">numeric[10]</text>
<polygon fill="#ffffff" stroke="transparent" points="898,-1327 898,-1349 1215,-1349 1215,-1327 898,-1327"/>
<polygon fill="none" stroke="black" points="898,-1327 898,-1349 1215,-1349 1215,-1327 898,-1327"/>
<text text-anchor="start" x="918" y="-1335.2" font-family="Helvetica,sans-Serif" font-size="11.00">cof_pmp_apontamento_produca_uu</text>
<polygon fill="none" stroke="black" points="1215,-1327 1215,-1349 1298,-1349 1298,-1327 1215,-1327"/>
<text text-anchor="start" x="1218" y="-1335.2" font-family="Helvetica,sans-Serif" font-size="11.00">varchar[36]</text>
<polygon fill="none" stroke="black" points="898,-1305 898,-1327 1215,-1327 1215,-1305 898,-1305"/>
<text text-anchor="start" x="918" y="-1313.2" font-family="Helvetica,sans-Serif" font-size="11.00">ad_client_id</text>
<polygon fill="none" stroke="black" points="1215,-1305 1215,-1327 1298,-1327 1298,-1305 1215,-1305"/>
<text text-anchor="start" x="1218" y="-1313.2" font-family="Helvetica,sans-Serif" font-size="11.00">numeric[10]</text>
<polygon fill="none" stroke="black" points="898,-1283 898,-1305 1215,-1305 1215,-1283 898,-1283"/>
<text text-anchor="start" x="918" y="-1291.2" font-family="Helvetica,sans-Serif" font-size="11.00">ad_org_id</text>
<polygon fill="none" stroke="black" points="1215,-1283 1215,-1305 1298,-1305 1298,-1283 1215,-1283"/>
<text text-anchor="start" x="1218" y="-1291.2" font-family="Helvetica,sans-Serif" font-size="11.00">numeric[10]</text>
<polygon fill="none" stroke="black" points="898,-1261 898,-1283 1215,-1283 1215,-1261 898,-1261"/>
<text text-anchor="start" x="918" y="-1269.2" font-family="Helvetica,sans-Serif" font-size="11.00">isactive</text>
<polygon fill="none" stroke="black" points="1215,-1261 1215,-1283 1298,-1283 1298,-1261 1215,-1261"/>
<text text-anchor="start" x="1218" y="-1269.2" font-family="Helvetica,sans-Serif" font-size="11.00">bpchar[1]</text>
<polygon fill="none" stroke="black" points="898,-1239 898,-1261 1215,-1261 1215,-1239 898,-1239"/>
<text text-anchor="start" x="918" y="-1247.2" font-family="Helvetica,sans-Serif" font-size="11.00">created</text>
<polygon fill="none" stroke="black" points="1215,-1239 1215,-1261 1298,-1261 1298,-1239 1215,-1239"/>
<text text-anchor="start" x="1218" y="-1247.2" font-family="Helvetica,sans-Serif" font-size="11.00">timestamp[29,6]</text>
<polygon fill="none" stroke="black" points="898,-1217 898,-1239 1215,-1239 1215,-1217 898,-1217"/>
<text text-anchor="start" x="918" y="-1225.2" font-family="Helvetica,sans-Serif" font-size="11.00">createdby</text>
<polygon fill="none" stroke="black" points="1215,-1217 1215,-1239 1298,-1239 1298,-1217 1215,-1217"/>
<text text-anchor="start" x="1218" y="-1225.2" font-family="Helvetica,sans-Serif" font-size="11.00">numeric[10]</text>
<polygon fill="none" stroke="black" points="898,-1195 898,-1217 1215,-1217 1215,-1195 898,-1195"/>
<text text-anchor="start" x="918" y="-1203.2" font-family="Helvetica,sans-Serif" font-size="11.00">updated</text>
<polygon fill="none" stroke="black" points="1215,-1195 1215,-1217 1298,-1217 1298,-1195 1215,-1195"/>
<text text-anchor="start" x="1218" y="-1203.2" font-family="Helvetica,sans-Serif" font-size="11.00">timestamp[29,6]</text>
<polygon fill="none" stroke="black" points="898,-1173 898,-1195 1215,-1195 1215,-1173 898,-1173"/>
<text text-anchor="start" x="918" y="-1181.2" font-family="Helvetica,sans-Serif" font-size="11.00">updatedby</text>
<polygon fill="none" stroke="black" points="1215,-1173 1215,-1195 1298,-1195 1298,-1173 1215,-1173"/>
<text text-anchor="start" x="1218" y="-1181.2" font-family="Helvetica,sans-Serif" font-size="11.00">numeric[10]</text>
<polygon fill="none" stroke="black" points="898,-1151 898,-1173 1215,-1173 1215,-1151 898,-1151"/>
<text text-anchor="start" x="918" y="-1159.2" font-family="Helvetica,sans-Serif" font-size="11.00">productionqty</text>
<polygon fill="none" stroke="black" points="1215,-1151 1215,-1173 1298,-1173 1298,-1151 1215,-1151"/>
<text text-anchor="start" x="1218" y="-1159.2" font-family="Helvetica,sans-Serif" font-size="11.00">numeric[0]</text>
<polygon fill="none" stroke="black" points="898,-1129 898,-1151 1215,-1151 1215,-1129 898,-1129"/>
<text text-anchor="start" x="918" y="-1137.2" font-family="Helvetica,sans-Serif" font-size="11.00">movementdate</text>
<polygon fill="none" stroke="black" points="1215,-1129 1215,-1151 1298,-1151 1298,-1129 1215,-1129"/>
<text text-anchor="start" x="1218" y="-1137.2" font-family="Helvetica,sans-Serif" font-size="11.00">timestamp[29,6]</text>
<polygon fill="none" stroke="black" points="898,-1107 898,-1129 1215,-1129 1215,-1107 898,-1107"/>
<text text-anchor="start" x="918" y="-1115.2" font-family="Helvetica,sans-Serif" font-size="11.00">cof_isbyproduct</text>
<polygon fill="none" stroke="black" points="1215,-1107 1215,-1129 1298,-1129 1298,-1107 1215,-1107"/>
<text text-anchor="start" x="1218" y="-1115.2" font-family="Helvetica,sans-Serif" font-size="11.00">bpchar[1]</text>
<polygon fill="none" stroke="black" points="898,-1085 898,-1107 1215,-1107 1215,-1085 898,-1085"/>
<text text-anchor="start" x="918" y="-1093.2" font-family="Helvetica,sans-Serif" font-size="11.00">cof_iscoproduct</text>
<polygon fill="none" stroke="black" points="1215,-1085 1215,-1107 1298,-1107 1298,-1085 1215,-1085"/>
<text text-anchor="start" x="1218" y="-1093.2" font-family="Helvetica,sans-Serif" font-size="11.00">bpchar[1]</text>
<polygon fill="none" stroke="black" points="898,-1063 898,-1085 1215,-1085 1215,-1063 898,-1063"/>
<text text-anchor="start" x="918" y="-1071.2" font-family="Helvetica,sans-Serif" font-size="11.00">cof_processed</text>
<polygon fill="none" stroke="black" points="1215,-1063 1215,-1085 1298,-1085 1298,-1063 1215,-1063"/>
<text text-anchor="start" x="1218" y="-1071.2" font-family="Helvetica,sans-Serif" font-size="11.00">bpchar[1]</text>
<polygon fill="none" stroke="black" points="898,-1041 898,-1063 1215,-1063 1215,-1041 898,-1041"/>
<image xlink:href="../../images/foreignKeys.png" width="11px" height="12px" preserveAspectRatio="xMinYMin meet" x="903" y="-1058"/>
<text text-anchor="start" x="918" y="-1049.2" font-family="Helvetica,sans-Serif" font-size="11.00">m_product_id</text>
<polygon fill="none" stroke="black" points="1215,-1041 1215,-1063 1298,-1063 1298,-1041 1215,-1041"/>
<text text-anchor="start" x="1218" y="-1049.2" font-family="Helvetica,sans-Serif" font-size="11.00">numeric[10]</text>
<polygon fill="none" stroke="black" points="898,-1019 898,-1041 1215,-1041 1215,-1019 898,-1019"/>
<image xlink:href="../../images/foreignKeys.png" width="11px" height="12px" preserveAspectRatio="xMinYMin meet" x="903" y="-1036"/>
<text text-anchor="start" x="918" y="-1027.2" font-family="Helvetica,sans-Serif" font-size="11.00">m_production_id</text>
<polygon fill="none" stroke="black" points="1215,-1019 1215,-1041 1298,-1041 1298,-1019 1215,-1019"/>
<text text-anchor="start" x="1218" y="-1027.2" font-family="Helvetica,sans-Serif" font-size="11.00">numeric[10]</text>
<polygon fill="none" stroke="black" points="898,-997 898,-1019 1215,-1019 1215,-997 898,-997"/>
<text text-anchor="start" x="918" y="-1005.2" font-family="Helvetica,sans-Serif" font-size="11.00">iscof_pa</text>
<polygon fill="none" stroke="black" points="1215,-997 1215,-1019 1298,-1019 1298,-997 1215,-997"/>
<text text-anchor="start" x="1218" y="-1005.2" font-family="Helvetica,sans-Serif" font-size="11.00">bpchar[1]</text>
<polygon fill="none" stroke="black" points="898,-975 898,-997 1215,-997 1215,-975 898,-975"/>
<image xlink:href="../../images/foreignKeys.png" width="11px" height="12px" preserveAspectRatio="xMinYMin meet" x="903" y="-992"/>
<text text-anchor="start" x="918" y="-983.2" font-family="Helvetica,sans-Serif" font-size="11.00">cof_pp_planomestreprod_id</text>
<polygon fill="none" stroke="black" points="1215,-975 1215,-997 1298,-997 1298,-975 1215,-975"/>
<text text-anchor="start" x="1218" y="-983.2" font-family="Helvetica,sans-Serif" font-size="11.00">numeric[10]</text>
<polygon fill="none" stroke="black" points="898,-953 898,-975 1215,-975 1215,-953 898,-953"/>
<text text-anchor="start" x="918" y="-961.2" font-family="Helvetica,sans-Serif" font-size="11.00">isprocessing</text>
<polygon fill="none" stroke="black" points="1215,-953 1215,-975 1298,-975 1298,-953 1215,-953"/>
<text text-anchor="start" x="1218" y="-961.2" font-family="Helvetica,sans-Serif" font-size="11.00">bpchar[1]</text>
<polygon fill="none" stroke="black" points="898,-931 898,-953 1215,-953 1215,-931 898,-931"/>
<text text-anchor="start" x="918" y="-939.2" font-family="Helvetica,sans-Serif" font-size="11.00">processed</text>
<polygon fill="none" stroke="black" points="1215,-931 1215,-953 1298,-953 1298,-931 1215,-931"/>
<text text-anchor="start" x="1218" y="-939.2" font-family="Helvetica,sans-Serif" font-size="11.00">bpchar[1]</text>
<polygon fill="none" stroke="black" points="898,-909 898,-931 1215,-931 1215,-909 898,-909"/>
<text text-anchor="start" x="918" y="-917.2" font-family="Helvetica,sans-Serif" font-size="11.00">isendproduct</text>
<polygon fill="none" stroke="black" points="1215,-909 1215,-931 1298,-931 1298,-909 1215,-909"/>
<text text-anchor="start" x="1218" y="-917.2" font-family="Helvetica,sans-Serif" font-size="11.00">bpchar[1]</text>
<polygon fill="#ffffff" stroke="transparent" points="898,-891 898,-909 1048,-909 1048,-891 898,-891"/>
<polygon fill="none" stroke="black" points="898,-891 898,-909 1048,-909 1048,-891 898,-891"/>
<text text-anchor="start" x="901" y="-897.2" font-family="Helvetica,sans-Serif" font-size="11.00">&lt; 3</text>
<polygon fill="#ffffff" stroke="transparent" points="1048,-891 1048,-909 1215,-909 1215,-891 1048,-891"/>
<polygon fill="none" stroke="black" points="1048,-891 1048,-909 1215,-909 1215,-891 1048,-891"/>
<text text-anchor="start" x="1179" y="-897.2" font-family="Helvetica,sans-Serif" font-size="11.00">0 rows</text>
<polygon fill="#ffffff" stroke="transparent" points="1215,-891 1215,-909 1298,-909 1298,-891 1215,-891"/>
<polygon fill="none" stroke="black" points="1215,-891 1215,-909 1298,-909 1298,-891 1215,-891"/>
<text text-anchor="start" x="1279" y="-897.2" font-family="Helvetica,sans-Serif" font-size="11.00">0 &gt;</text>
<polygon fill="none" stroke="black" stroke-width="2" points="897,-890 897,-1394 1299,-1394 1299,-890 897,-890"/>
</a>
</g>
</g>
<!-- cof_pp_planomestreprod -->
<g id="node2" class="node">
<title>cof_pp_planomestreprod</title>
<g id="a_node2"><a xlink:href="../../tables/cof_pp_planomestreprod.html" xlink:title="cof_pp_planomestreprod" target="_top">
<polygon fill="#ffffff" stroke="transparent" points="292,-323 292,-623 559,-623 559,-323 292,-323"/>
<polygon fill="#f5f5f5" stroke="transparent" points="292.5,-601 292.5,-623 559.5,-623 559.5,-601 292.5,-601"/>
<polygon fill="none" stroke="black" points="292.5,-601 292.5,-623 559.5,-623 559.5,-601 292.5,-601"/>
<text text-anchor="start" x="297.5" y="-610.2" font-family="Helvetica,sans-Serif" font-weight="bold" font-size="11.00">cof_pp_planomestreprod</text>
<text text-anchor="start" x="524.5" y="-609.2" font-family="Helvetica,sans-Serif" font-size="11.00">[table]</text>
<polygon fill="none" stroke="black" points="292.5,-579 292.5,-601 559.5,-601 559.5,-579 292.5,-579"/>
<image xlink:href="../../images/primaryKeys.png" width="11px" height="12px" preserveAspectRatio="xMinYMin meet" x="297.5" y="-596"/>
<text text-anchor="start" x="312.5" y="-587.2" font-family="Helvetica,sans-Serif" font-size="11.00">cof_pp_planomestreprod_id</text>
<polygon fill="#ffffff" stroke="transparent" points="292.5,-557 292.5,-579 559.5,-579 559.5,-557 292.5,-557"/>
<polygon fill="none" stroke="black" points="292.5,-557 292.5,-579 559.5,-579 559.5,-557 292.5,-557"/>
<text text-anchor="start" x="312.5" y="-565.2" font-family="Helvetica,sans-Serif" font-size="11.00">cof_pp_planomestreprod_uu</text>
<polygon fill="none" stroke="black" points="292.5,-535 292.5,-557 559.5,-557 559.5,-535 292.5,-535"/>
<image xlink:href="../../images/foreignKeys.png" width="11px" height="12px" preserveAspectRatio="xMinYMin meet" x="297.5" y="-552"/>
<text text-anchor="start" x="312.5" y="-543.2" font-family="Helvetica,sans-Serif" font-size="11.00">m_locator_id</text>
<polygon fill="none" stroke="black" points="292.5,-513 292.5,-535 559.5,-535 559.5,-513 292.5,-513"/>
<image xlink:href="../../images/foreignKeys.png" width="11px" height="12px" preserveAspectRatio="xMinYMin meet" x="297.5" y="-530"/>
<text text-anchor="start" x="312.5" y="-521.2" font-family="Helvetica,sans-Serif" font-size="11.00">user1_id</text>
<polygon fill="none" stroke="black" points="292.5,-491 292.5,-513 559.5,-513 559.5,-491 292.5,-491"/>
<image xlink:href="../../images/foreignKeys.png" width="11px" height="12px" preserveAspectRatio="xMinYMin meet" x="297.5" y="-508"/>
<text text-anchor="start" x="312.5" y="-499.2" font-family="Helvetica,sans-Serif" font-size="11.00">c_activity_id</text>
<polygon fill="none" stroke="black" points="292.5,-469 292.5,-491 559.5,-491 559.5,-469 292.5,-469"/>
<image xlink:href="../../images/foreignKeys.png" width="11px" height="12px" preserveAspectRatio="xMinYMin meet" x="297.5" y="-486"/>
<text text-anchor="start" x="312.5" y="-477.2" font-family="Helvetica,sans-Serif" font-size="11.00">c_campaign_id</text>
<polygon fill="none" stroke="black" points="292.5,-447 292.5,-469 559.5,-469 559.5,-447 292.5,-447"/>
<image xlink:href="../../images/foreignKeys.png" width="11px" height="12px" preserveAspectRatio="xMinYMin meet" x="297.5" y="-464"/>
<text text-anchor="start" x="312.5" y="-455.2" font-family="Helvetica,sans-Serif" font-size="11.00">cof_pp_roteiroprod_id</text>
<polygon fill="none" stroke="black" points="292.5,-425 292.5,-447 559.5,-447 559.5,-425 292.5,-425"/>
<image xlink:href="../../images/foreignKeys.png" width="11px" height="12px" preserveAspectRatio="xMinYMin meet" x="297.5" y="-442"/>
<text text-anchor="start" x="312.5" y="-433.2" font-family="Helvetica,sans-Serif" font-size="11.00">m_product_id</text>
<polygon fill="none" stroke="black" points="292.5,-403 292.5,-425 559.5,-425 559.5,-403 292.5,-403"/>
<image xlink:href="../../images/foreignKeys.png" width="11px" height="12px" preserveAspectRatio="xMinYMin meet" x="297.5" y="-420"/>
<text text-anchor="start" x="312.5" y="-411.2" font-family="Helvetica,sans-Serif" font-size="11.00">c_doctype_id</text>
<polygon fill="none" stroke="black" points="292.5,-381 292.5,-403 559.5,-403 559.5,-381 292.5,-381"/>
<image xlink:href="../../images/foreignKeys.png" width="11px" height="12px" preserveAspectRatio="xMinYMin meet" x="297.5" y="-398"/>
<text text-anchor="start" x="312.5" y="-389.2" font-family="Helvetica,sans-Serif" font-size="11.00">cof_pp_pmppredecessor_id</text>
<polygon fill="none" stroke="black" points="292.5,-359 292.5,-381 559.5,-381 559.5,-359 292.5,-359"/>
<image xlink:href="../../images/foreignKeys.png" width="11px" height="12px" preserveAspectRatio="xMinYMin meet" x="297.5" y="-376"/>
<text text-anchor="start" x="312.5" y="-367.2" font-family="Helvetica,sans-Serif" font-size="11.00">pp_product_bom_id</text>
<polygon fill="none" stroke="black" points="292.5,-341 292.5,-359 559.5,-359 559.5,-341 292.5,-341"/>
<text text-anchor="start" x="295.5" y="-347.2" font-family="Helvetica,sans-Serif" font-size="11.00">...</text>
<polygon fill="#ffffff" stroke="transparent" points="292.5,-323 292.5,-341 406.5,-341 406.5,-323 292.5,-323"/>
<polygon fill="none" stroke="black" points="292.5,-323 292.5,-341 406.5,-341 406.5,-323 292.5,-323"/>
<text text-anchor="start" x="295.5" y="-329.2" font-family="Helvetica,sans-Serif" font-size="11.00">&lt; 9</text>
<polygon fill="#ffffff" stroke="transparent" points="406.5,-323 406.5,-341 491.5,-341 491.5,-323 406.5,-323"/>
<polygon fill="none" stroke="black" points="406.5,-323 406.5,-341 491.5,-341 491.5,-323 406.5,-323"/>
<text text-anchor="start" x="455.5" y="-329.2" font-family="Helvetica,sans-Serif" font-size="11.00">0 rows</text>
<polygon fill="#ffffff" stroke="transparent" points="491.5,-323 491.5,-341 559.5,-341 559.5,-323 491.5,-323"/>
<polygon fill="none" stroke="black" points="491.5,-323 491.5,-341 559.5,-341 559.5,-323 491.5,-323"/>
<text text-anchor="start" x="540.5" y="-329.2" font-family="Helvetica,sans-Serif" font-size="11.00">9 &gt;</text>
</a>
</g>
</g>
<!-- cof_pmp_apontamento_producao_manual&#45;&gt;cof_pp_planomestreprod -->
<g id="edge1" class="edge">
<title>cof_pmp_apontamento_producao_manual:w&#45;&gt;cof_pp_planomestreprod:e</title>
<path fill="none" stroke="black" d="M885.2,-977.23C847.77,-911.84 894.19,-502.16 855,-466 771.7,-389.15 691.5,-399.12 600,-466 553.31,-500.13 618.34,-590 560.5,-590"/>
<polygon fill="black" stroke="black" points="890.58,-981.23 894.85,-988.89 893.79,-983.61 897,-986 897,-986 897,-986 893.79,-983.61 899.15,-983.11 890.58,-981.23 890.58,-981.23"/>
<ellipse fill="none" stroke="black" cx="888.01" cy="-979.32" rx="3.2" ry="3.2"/>
</g>
<!-- m_product -->
<g id="node3" class="node">
<title>m_product</title>
<g id="a_node3"><a xlink:href="../../tables/m_product.html" xlink:title="m_product" target="_top">
<polygon fill="#ffffff" stroke="transparent" points="8,-37 8,-777 243,-777 243,-37 8,-37"/>
<polygon fill="#f5f5f5" stroke="transparent" points="8.5,-755 8.5,-777 243.5,-777 243.5,-755 8.5,-755"/>
<polygon fill="none" stroke="black" points="8.5,-755 8.5,-777 243.5,-777 243.5,-755 8.5,-755"/>
<text text-anchor="start" x="13.5" y="-764.2" font-family="Helvetica,sans-Serif" font-weight="bold" font-size="11.00">m_product</text>
<text text-anchor="start" x="208.5" y="-763.2" font-family="Helvetica,sans-Serif" font-size="11.00">[table]</text>
<polygon fill="none" stroke="black" points="8.5,-733 8.5,-755 243.5,-755 243.5,-733 8.5,-733"/>
<image xlink:href="../../images/primaryKeys.png" width="11px" height="12px" preserveAspectRatio="xMinYMin meet" x="13.5" y="-750"/>
<text text-anchor="start" x="28.5" y="-741.2" font-family="Helvetica,sans-Serif" font-size="11.00">m_product_id</text>
<polygon fill="#ffffff" stroke="transparent" points="8.5,-711 8.5,-733 243.5,-733 243.5,-711 8.5,-711"/>
<polygon fill="none" stroke="black" points="8.5,-711 8.5,-733 243.5,-733 243.5,-711 8.5,-711"/>
<image xlink:href="../../images/foreignKeys.png" width="11px" height="12px" preserveAspectRatio="xMinYMin meet" x="13.5" y="-728"/>
<text text-anchor="start" x="28.5" y="-719.2" font-family="Helvetica,sans-Serif" font-size="11.00">ad_client_id</text>
<polygon fill="none" stroke="black" points="8.5,-689 8.5,-711 243.5,-711 243.5,-689 8.5,-689"/>
<image xlink:href="../../images/foreignKeys.png" width="11px" height="12px" preserveAspectRatio="xMinYMin meet" x="13.5" y="-706"/>
<text text-anchor="start" x="28.5" y="-697.2" font-family="Helvetica,sans-Serif" font-size="11.00">ad_org_id</text>
<polygon fill="#ffffff" stroke="transparent" points="8.5,-667 8.5,-689 243.5,-689 243.5,-667 8.5,-667"/>
<polygon fill="none" stroke="black" points="8.5,-667 8.5,-689 243.5,-689 243.5,-667 8.5,-667"/>
<text text-anchor="start" x="28.5" y="-675.2" font-family="Helvetica,sans-Serif" font-size="11.00">value</text>
<polygon fill="#ffffff" stroke="transparent" points="8.5,-645 8.5,-667 243.5,-667 243.5,-645 8.5,-645"/>
<polygon fill="none" stroke="black" points="8.5,-645 8.5,-667 243.5,-667 243.5,-645 8.5,-645"/>
<text text-anchor="start" x="28.5" y="-653.2" font-family="Helvetica,sans-Serif" font-size="11.00">name</text>
<polygon fill="#ffffff" stroke="transparent" points="8.5,-623 8.5,-645 243.5,-645 243.5,-623 8.5,-623"/>
<polygon fill="none" stroke="black" points="8.5,-623 8.5,-645 243.5,-645 243.5,-623 8.5,-623"/>
<text text-anchor="start" x="28.5" y="-631.2" font-family="Helvetica,sans-Serif" font-size="11.00">upc</text>
<polygon fill="none" stroke="black" points="8.5,-601 8.5,-623 243.5,-623 243.5,-601 8.5,-601"/>
<image xlink:href="../../images/foreignKeys.png" width="11px" height="12px" preserveAspectRatio="xMinYMin meet" x="13.5" y="-618"/>
<text text-anchor="start" x="28.5" y="-609.2" font-family="Helvetica,sans-Serif" font-size="11.00">c_uom_id</text>
<polygon fill="none" stroke="black" points="8.5,-579 8.5,-601 243.5,-601 243.5,-579 8.5,-579"/>
<image xlink:href="../../images/foreignKeys.png" width="11px" height="12px" preserveAspectRatio="xMinYMin meet" x="13.5" y="-596"/>
<text text-anchor="start" x="28.5" y="-587.2" font-family="Helvetica,sans-Serif" font-size="11.00">salesrep_id</text>
<polygon fill="none" stroke="black" points="8.5,-557 8.5,-579 243.5,-579 243.5,-557 8.5,-557"/>
<image xlink:href="../../images/foreignKeys.png" width="11px" height="12px" preserveAspectRatio="xMinYMin meet" x="13.5" y="-574"/>
<text text-anchor="start" x="28.5" y="-565.2" font-family="Helvetica,sans-Serif" font-size="11.00">c_revenuerecognition_id</text>
<polygon fill="#ffffff" stroke="transparent" points="8.5,-535 8.5,-557 243.5,-557 243.5,-535 8.5,-535"/>
<polygon fill="none" stroke="black" points="8.5,-535 8.5,-557 243.5,-557 243.5,-535 8.5,-535"/>
<image xlink:href="../../images/foreignKeys.png" width="11px" height="12px" preserveAspectRatio="xMinYMin meet" x="13.5" y="-552"/>
<text text-anchor="start" x="28.5" y="-543.2" font-family="Helvetica,sans-Serif" font-size="11.00">m_product_category_id</text>
<polygon fill="none" stroke="black" points="8.5,-513 8.5,-535 243.5,-535 243.5,-513 8.5,-513"/>
<image xlink:href="../../images/foreignKeys.png" width="11px" height="12px" preserveAspectRatio="xMinYMin meet" x="13.5" y="-530"/>
<text text-anchor="start" x="28.5" y="-521.2" font-family="Helvetica,sans-Serif" font-size="11.00">c_taxcategory_id</text>
<polygon fill="#ffffff" stroke="transparent" points="8.5,-491 8.5,-513 243.5,-513 243.5,-491 8.5,-491"/>
<polygon fill="none" stroke="black" points="8.5,-491 8.5,-513 243.5,-513 243.5,-491 8.5,-491"/>
<image xlink:href="../../images/foreignKeys.png" width="11px" height="12px" preserveAspectRatio="xMinYMin meet" x="13.5" y="-508"/>
<text text-anchor="start" x="28.5" y="-499.2" font-family="Helvetica,sans-Serif" font-size="11.00">s_resource_id</text>
<polygon fill="#ffffff" stroke="transparent" points="8.5,-469 8.5,-491 243.5,-491 243.5,-469 8.5,-469"/>
<polygon fill="none" stroke="black" points="8.5,-469 8.5,-491 243.5,-491 243.5,-469 8.5,-469"/>
<image xlink:href="../../images/foreignKeys.png" width="11px" height="12px" preserveAspectRatio="xMinYMin meet" x="13.5" y="-486"/>
<text text-anchor="start" x="28.5" y="-477.2" font-family="Helvetica,sans-Serif" font-size="11.00">s_expensetype_id</text>
<polygon fill="none" stroke="black" points="8.5,-447 8.5,-469 243.5,-469 243.5,-447 8.5,-447"/>
<image xlink:href="../../images/foreignKeys.png" width="11px" height="12px" preserveAspectRatio="xMinYMin meet" x="13.5" y="-464"/>
<text text-anchor="start" x="28.5" y="-455.2" font-family="Helvetica,sans-Serif" font-size="11.00">r_mailtext_id</text>
<polygon fill="none" stroke="black" points="8.5,-425 8.5,-447 243.5,-447 243.5,-425 8.5,-425"/>
<image xlink:href="../../images/foreignKeys.png" width="11px" height="12px" preserveAspectRatio="xMinYMin meet" x="13.5" y="-442"/>
<text text-anchor="start" x="28.5" y="-433.2" font-family="Helvetica,sans-Serif" font-size="11.00">m_attributeset_id</text>
<polygon fill="none" stroke="black" points="8.5,-403 8.5,-425 243.5,-425 243.5,-403 8.5,-403"/>
<image xlink:href="../../images/foreignKeys.png" width="11px" height="12px" preserveAspectRatio="xMinYMin meet" x="13.5" y="-420"/>
<text text-anchor="start" x="28.5" y="-411.2" font-family="Helvetica,sans-Serif" font-size="11.00">m_attributesetinstance_id</text>
<polygon fill="none" stroke="black" points="8.5,-381 8.5,-403 243.5,-403 243.5,-381 8.5,-381"/>
<image xlink:href="../../images/foreignKeys.png" width="11px" height="12px" preserveAspectRatio="xMinYMin meet" x="13.5" y="-398"/>
<text text-anchor="start" x="28.5" y="-389.2" font-family="Helvetica,sans-Serif" font-size="11.00">m_freightcategory_id</text>
<polygon fill="none" stroke="black" points="8.5,-359 8.5,-381 243.5,-381 243.5,-359 8.5,-359"/>
<image xlink:href="../../images/foreignKeys.png" width="11px" height="12px" preserveAspectRatio="xMinYMin meet" x="13.5" y="-376"/>
<text text-anchor="start" x="28.5" y="-367.2" font-family="Helvetica,sans-Serif" font-size="11.00">m_locator_id</text>
<polygon fill="none" stroke="black" points="8.5,-337 8.5,-359 243.5,-359 243.5,-337 8.5,-337"/>
<image xlink:href="../../images/foreignKeys.png" width="11px" height="12px" preserveAspectRatio="xMinYMin meet" x="13.5" y="-354"/>
<text text-anchor="start" x="28.5" y="-345.2" font-family="Helvetica,sans-Serif" font-size="11.00">c_subscriptiontype_id</text>
<polygon fill="#ffffff" stroke="transparent" points="8.5,-315 8.5,-337 243.5,-337 243.5,-315 8.5,-315"/>
<polygon fill="none" stroke="black" points="8.5,-315 8.5,-337 243.5,-337 243.5,-315 8.5,-315"/>
<text text-anchor="start" x="28.5" y="-323.2" font-family="Helvetica,sans-Serif" font-size="11.00">m_product_uu</text>
<polygon fill="none" stroke="black" points="8.5,-293 8.5,-315 243.5,-315 243.5,-293 8.5,-293"/>
<image xlink:href="../../images/foreignKeys.png" width="11px" height="12px" preserveAspectRatio="xMinYMin meet" x="13.5" y="-310"/>
<text text-anchor="start" x="28.5" y="-301.2" font-family="Helvetica,sans-Serif" font-size="11.00">m_parttype_id</text>
<polygon fill="none" stroke="black" points="8.5,-271 8.5,-293 243.5,-293 243.5,-271 8.5,-271"/>
<image xlink:href="../../images/foreignKeys.png" width="11px" height="12px" preserveAspectRatio="xMinYMin meet" x="13.5" y="-288"/>
<text text-anchor="start" x="28.5" y="-279.2" font-family="Helvetica,sans-Serif" font-size="11.00">lbr_productcategory_id</text>
<polygon fill="none" stroke="black" points="8.5,-249 8.5,-271 243.5,-271 243.5,-249 8.5,-249"/>
<image xlink:href="../../images/foreignKeys.png" width="11px" height="12px" preserveAspectRatio="xMinYMin meet" x="13.5" y="-266"/>
<text text-anchor="start" x="28.5" y="-257.2" font-family="Helvetica,sans-Serif" font-size="11.00">lbr_ncm_id</text>
<polygon fill="none" stroke="black" points="8.5,-227 8.5,-249 243.5,-249 243.5,-227 8.5,-227"/>
<image xlink:href="../../images/foreignKeys.png" width="11px" height="12px" preserveAspectRatio="xMinYMin meet" x="13.5" y="-244"/>
<text text-anchor="start" x="28.5" y="-235.2" font-family="Helvetica,sans-Serif" font-size="11.00">lbr_fiscalgroup_product_id</text>
<polygon fill="none" stroke="black" points="8.5,-205 8.5,-227 243.5,-227 243.5,-205 8.5,-205"/>
<image xlink:href="../../images/foreignKeys.png" width="11px" height="12px" preserveAspectRatio="xMinYMin meet" x="13.5" y="-222"/>
<text text-anchor="start" x="28.5" y="-213.2" font-family="Helvetica,sans-Serif" font-size="11.00">cof_cest_id</text>
<polygon fill="none" stroke="black" points="8.5,-183 8.5,-205 243.5,-205 243.5,-183 8.5,-183"/>
<image xlink:href="../../images/foreignKeys.png" width="11px" height="12px" preserveAspectRatio="xMinYMin meet" x="13.5" y="-200"/>
<text text-anchor="start" x="28.5" y="-191.2" font-family="Helvetica,sans-Serif" font-size="11.00">cof_c_generoitem_sped_id</text>
<polygon fill="none" stroke="black" points="8.5,-161 8.5,-183 243.5,-183 243.5,-161 8.5,-161"/>
<image xlink:href="../../images/foreignKeys.png" width="11px" height="12px" preserveAspectRatio="xMinYMin meet" x="13.5" y="-178"/>
<text text-anchor="start" x="28.5" y="-169.2" font-family="Helvetica,sans-Serif" font-size="11.00">cof_producttype_id</text>
<polygon fill="none" stroke="black" points="8.5,-139 8.5,-161 243.5,-161 243.5,-139 8.5,-139"/>
<image xlink:href="../../images/foreignKeys.png" width="11px" height="12px" preserveAspectRatio="xMinYMin meet" x="13.5" y="-156"/>
<text text-anchor="start" x="28.5" y="-147.2" font-family="Helvetica,sans-Serif" font-size="11.00">cof_productclass_id</text>
<polygon fill="none" stroke="black" points="8.5,-117 8.5,-139 243.5,-139 243.5,-117 8.5,-117"/>
<image xlink:href="../../images/foreignKeys.png" width="11px" height="12px" preserveAspectRatio="xMinYMin meet" x="13.5" y="-134"/>
<text text-anchor="start" x="28.5" y="-125.2" font-family="Helvetica,sans-Serif" font-size="11.00">cof_productgroup_id</text>
<polygon fill="none" stroke="black" points="8.5,-95 8.5,-117 243.5,-117 243.5,-95 8.5,-95"/>
<image xlink:href="../../images/foreignKeys.png" width="11px" height="12px" preserveAspectRatio="xMinYMin meet" x="13.5" y="-112"/>
<text text-anchor="start" x="28.5" y="-103.2" font-family="Helvetica,sans-Serif" font-size="11.00">cof_nbs_id</text>
<polygon fill="none" stroke="black" points="8.5,-73 8.5,-95 243.5,-95 243.5,-73 8.5,-73"/>
<image xlink:href="../../images/foreignKeys.png" width="11px" height="12px" preserveAspectRatio="xMinYMin meet" x="13.5" y="-90"/>
<text text-anchor="start" x="28.5" y="-81.2" font-family="Helvetica,sans-Serif" font-size="11.00">cof_grupofornecedor_id</text>
<polygon fill="none" stroke="black" points="8.5,-55 8.5,-73 243.5,-73 243.5,-55 8.5,-55"/>
<text text-anchor="start" x="11.5" y="-61.2" font-family="Helvetica,sans-Serif" font-size="11.00">...</text>
<polygon fill="#ffffff" stroke="transparent" points="8.5,-37 8.5,-55 105.5,-55 105.5,-37 8.5,-37"/>
<polygon fill="none" stroke="black" points="8.5,-37 8.5,-55 105.5,-55 105.5,-37 8.5,-37"/>
<text text-anchor="start" x="11.5" y="-43.2" font-family="Helvetica,sans-Serif" font-size="11.00">&lt; 22</text>
<polygon fill="#ffffff" stroke="transparent" points="105.5,-37 105.5,-55 174.5,-55 174.5,-37 105.5,-37"/>
<polygon fill="none" stroke="black" points="105.5,-37 105.5,-55 174.5,-55 174.5,-37 105.5,-37"/>
<text text-anchor="start" x="143.5" y="-43.2" font-family="Helvetica,sans-Serif" font-size="11.00">1 row</text>
<polygon fill="#ffffff" stroke="transparent" points="174.5,-37 174.5,-55 243.5,-55 243.5,-37 174.5,-37"/>
<polygon fill="none" stroke="black" points="174.5,-37 174.5,-55 243.5,-55 243.5,-37 174.5,-37"/>
<text text-anchor="start" x="212.5" y="-43.2" font-family="Helvetica,sans-Serif" font-size="11.00">172 &gt;</text>
</a>
</g>
</g>
<!-- cof_pmp_apontamento_producao_manual&#45;&gt;m_product -->
<g id="edge2" class="edge">
<title>cof_pmp_apontamento_producao_manual:w&#45;&gt;m_product:e</title>
<path fill="none" stroke="black" d="M882.91,-1055.55C873.99,-1060.81 869.55,-1070.42 855,-1074 744.95,-1101.08 705.49,-1115.42 600,-1074 499.67,-1034.61 352.29,-744 244.5,-744"/>
<polygon fill="black" stroke="black" points="889.24,-1053.96 897.88,-1055.49 893.12,-1052.98 897,-1052 897,-1052 897,-1052 893.12,-1052.98 896.12,-1048.51 889.24,-1053.96 889.24,-1053.96"/>
<ellipse fill="none" stroke="black" cx="886.14" cy="-1054.74" rx="3.2" ry="3.2"/>
</g>
<!-- m_production -->
<g id="node4" class="node">
<title>m_production</title>
<g id="a_node4"><a xlink:href="../../tables/m_production.html" xlink:title="m_production" target="_top">
<polygon fill="#ffffff" stroke="transparent" points="608,-477 608,-1063 847,-1063 847,-477 608,-477"/>
<polygon fill="#f5f5f5" stroke="transparent" points="608.5,-1041 608.5,-1063 847.5,-1063 847.5,-1041 608.5,-1041"/>
<polygon fill="none" stroke="black" points="608.5,-1041 608.5,-1063 847.5,-1063 847.5,-1041 608.5,-1041"/>
<text text-anchor="start" x="613.5" y="-1050.2" font-family="Helvetica,sans-Serif" font-weight="bold" font-size="11.00">m_production</text>
<text text-anchor="start" x="812.5" y="-1049.2" font-family="Helvetica,sans-Serif" font-size="11.00">[table]</text>
<polygon fill="none" stroke="black" points="608.5,-1019 608.5,-1041 847.5,-1041 847.5,-1019 608.5,-1019"/>
<image xlink:href="../../images/primaryKeys.png" width="11px" height="12px" preserveAspectRatio="xMinYMin meet" x="613.5" y="-1036"/>
<text text-anchor="start" x="628.5" y="-1027.2" font-family="Helvetica,sans-Serif" font-size="11.00">m_production_id</text>
<polygon fill="#ffffff" stroke="transparent" points="608.5,-997 608.5,-1019 847.5,-1019 847.5,-997 608.5,-997"/>
<polygon fill="none" stroke="black" points="608.5,-997 608.5,-1019 847.5,-1019 847.5,-997 608.5,-997"/>
<text text-anchor="start" x="628.5" y="-1005.2" font-family="Helvetica,sans-Serif" font-size="11.00">ad_client_id</text>
<polygon fill="none" stroke="black" points="608.5,-975 608.5,-997 847.5,-997 847.5,-975 608.5,-975"/>
<image xlink:href="../../images/foreignKeys.png" width="11px" height="12px" preserveAspectRatio="xMinYMin meet" x="613.5" y="-992"/>
<text text-anchor="start" x="628.5" y="-983.2" font-family="Helvetica,sans-Serif" font-size="11.00">ad_org_id</text>
<polygon fill="#ffffff" stroke="transparent" points="608.5,-953 608.5,-975 847.5,-975 847.5,-953 608.5,-953"/>
<polygon fill="none" stroke="black" points="608.5,-953 608.5,-975 847.5,-975 847.5,-953 608.5,-953"/>
<text text-anchor="start" x="628.5" y="-961.2" font-family="Helvetica,sans-Serif" font-size="11.00">posted</text>
<polygon fill="#ffffff" stroke="transparent" points="608.5,-931 608.5,-953 847.5,-953 847.5,-931 608.5,-931"/>
<polygon fill="none" stroke="black" points="608.5,-931 608.5,-953 847.5,-953 847.5,-931 608.5,-931"/>
<text text-anchor="start" x="628.5" y="-939.2" font-family="Helvetica,sans-Serif" font-size="11.00">processed</text>
<polygon fill="none" stroke="black" points="608.5,-909 608.5,-931 847.5,-931 847.5,-909 608.5,-909"/>
<image xlink:href="../../images/foreignKeys.png" width="11px" height="12px" preserveAspectRatio="xMinYMin meet" x="613.5" y="-926"/>
<text text-anchor="start" x="628.5" y="-917.2" font-family="Helvetica,sans-Serif" font-size="11.00">ad_orgtrx_id</text>
<polygon fill="none" stroke="black" points="608.5,-887 608.5,-909 847.5,-909 847.5,-887 608.5,-887"/>
<image xlink:href="../../images/foreignKeys.png" width="11px" height="12px" preserveAspectRatio="xMinYMin meet" x="613.5" y="-904"/>
<text text-anchor="start" x="628.5" y="-895.2" font-family="Helvetica,sans-Serif" font-size="11.00">c_project_id</text>
<polygon fill="none" stroke="black" points="608.5,-865 608.5,-887 847.5,-887 847.5,-865 608.5,-865"/>
<image xlink:href="../../images/foreignKeys.png" width="11px" height="12px" preserveAspectRatio="xMinYMin meet" x="613.5" y="-882"/>
<text text-anchor="start" x="628.5" y="-873.2" font-family="Helvetica,sans-Serif" font-size="11.00">c_campaign_id</text>
<polygon fill="none" stroke="black" points="608.5,-843 608.5,-865 847.5,-865 847.5,-843 608.5,-843"/>
<image xlink:href="../../images/foreignKeys.png" width="11px" height="12px" preserveAspectRatio="xMinYMin meet" x="613.5" y="-860"/>
<text text-anchor="start" x="628.5" y="-851.2" font-family="Helvetica,sans-Serif" font-size="11.00">c_activity_id</text>
<polygon fill="none" stroke="black" points="608.5,-821 608.5,-843 847.5,-843 847.5,-821 608.5,-821"/>
<image xlink:href="../../images/foreignKeys.png" width="11px" height="12px" preserveAspectRatio="xMinYMin meet" x="613.5" y="-838"/>
<text text-anchor="start" x="628.5" y="-829.2" font-family="Helvetica,sans-Serif" font-size="11.00">user1_id</text>
<polygon fill="none" stroke="black" points="608.5,-799 608.5,-821 847.5,-821 847.5,-799 608.5,-799"/>
<image xlink:href="../../images/foreignKeys.png" width="11px" height="12px" preserveAspectRatio="xMinYMin meet" x="613.5" y="-816"/>
<text text-anchor="start" x="628.5" y="-807.2" font-family="Helvetica,sans-Serif" font-size="11.00">user2_id</text>
<polygon fill="#ffffff" stroke="transparent" points="608.5,-777 608.5,-799 847.5,-799 847.5,-777 608.5,-777"/>
<polygon fill="none" stroke="black" points="608.5,-777 608.5,-799 847.5,-799 847.5,-777 608.5,-777"/>
<text text-anchor="start" x="628.5" y="-785.2" font-family="Helvetica,sans-Serif" font-size="11.00">processedon</text>
<polygon fill="#ffffff" stroke="transparent" points="608.5,-755 608.5,-777 847.5,-777 847.5,-755 608.5,-755"/>
<polygon fill="none" stroke="black" points="608.5,-755 608.5,-777 847.5,-777 847.5,-755 608.5,-755"/>
<text text-anchor="start" x="628.5" y="-763.2" font-family="Helvetica,sans-Serif" font-size="11.00">m_production_uu</text>
<polygon fill="none" stroke="black" points="608.5,-733 608.5,-755 847.5,-755 847.5,-733 608.5,-733"/>
<image xlink:href="../../images/foreignKeys.png" width="11px" height="12px" preserveAspectRatio="xMinYMin meet" x="613.5" y="-750"/>
<text text-anchor="start" x="628.5" y="-741.2" font-family="Helvetica,sans-Serif" font-size="11.00">m_product_id</text>
<polygon fill="none" stroke="black" points="608.5,-711 608.5,-733 847.5,-733 847.5,-711 608.5,-711"/>
<image xlink:href="../../images/foreignKeys.png" width="11px" height="12px" preserveAspectRatio="xMinYMin meet" x="613.5" y="-728"/>
<text text-anchor="start" x="628.5" y="-719.2" font-family="Helvetica,sans-Serif" font-size="11.00">m_locator_id</text>
<polygon fill="none" stroke="black" points="608.5,-689 608.5,-711 847.5,-711 847.5,-689 608.5,-689"/>
<image xlink:href="../../images/foreignKeys.png" width="11px" height="12px" preserveAspectRatio="xMinYMin meet" x="613.5" y="-706"/>
<text text-anchor="start" x="628.5" y="-697.2" font-family="Helvetica,sans-Serif" font-size="11.00">c_orderline_id</text>
<polygon fill="none" stroke="black" points="608.5,-667 608.5,-689 847.5,-689 847.5,-667 608.5,-667"/>
<image xlink:href="../../images/foreignKeys.png" width="11px" height="12px" preserveAspectRatio="xMinYMin meet" x="613.5" y="-684"/>
<text text-anchor="start" x="628.5" y="-675.2" font-family="Helvetica,sans-Serif" font-size="11.00">reversal_id</text>
<polygon fill="none" stroke="black" points="608.5,-645 608.5,-667 847.5,-667 847.5,-645 608.5,-645"/>
<image xlink:href="../../images/foreignKeys.png" width="11px" height="12px" preserveAspectRatio="xMinYMin meet" x="613.5" y="-662"/>
<text text-anchor="start" x="628.5" y="-653.2" font-family="Helvetica,sans-Serif" font-size="11.00">c_bpartner_id</text>
<polygon fill="none" stroke="black" points="608.5,-623 608.5,-645 847.5,-645 847.5,-623 608.5,-623"/>
<image xlink:href="../../images/foreignKeys.png" width="11px" height="12px" preserveAspectRatio="xMinYMin meet" x="613.5" y="-640"/>
<text text-anchor="start" x="628.5" y="-631.2" font-family="Helvetica,sans-Serif" font-size="11.00">c_projectphase_id</text>
<polygon fill="none" stroke="black" points="608.5,-601 608.5,-623 847.5,-623 847.5,-601 608.5,-601"/>
<image xlink:href="../../images/foreignKeys.png" width="11px" height="12px" preserveAspectRatio="xMinYMin meet" x="613.5" y="-618"/>
<text text-anchor="start" x="628.5" y="-609.2" font-family="Helvetica,sans-Serif" font-size="11.00">c_projecttask_id</text>
<polygon fill="none" stroke="black" points="608.5,-579 608.5,-601 847.5,-601 847.5,-579 608.5,-579"/>
<image xlink:href="../../images/foreignKeys.png" width="11px" height="12px" preserveAspectRatio="xMinYMin meet" x="613.5" y="-596"/>
<text text-anchor="start" x="628.5" y="-587.2" font-family="Helvetica,sans-Serif" font-size="11.00">cof_pp_planomestreprod_id</text>
<polygon fill="none" stroke="black" points="608.5,-557 608.5,-579 847.5,-579 847.5,-557 608.5,-557"/>
<image xlink:href="../../images/foreignKeys.png" width="11px" height="12px" preserveAspectRatio="xMinYMin meet" x="613.5" y="-574"/>
<text text-anchor="start" x="628.5" y="-565.2" font-family="Helvetica,sans-Serif" font-size="11.00">pp_product_bom_id</text>
<polygon fill="none" stroke="black" points="608.5,-535 608.5,-557 847.5,-557 847.5,-535 608.5,-535"/>
<image xlink:href="../../images/foreignKeys.png" width="11px" height="12px" preserveAspectRatio="xMinYMin meet" x="613.5" y="-552"/>
<text text-anchor="start" x="628.5" y="-543.2" font-family="Helvetica,sans-Serif" font-size="11.00">m_inoutline_id</text>
<polygon fill="none" stroke="black" points="608.5,-513 608.5,-535 847.5,-535 847.5,-513 608.5,-513"/>
<image xlink:href="../../images/foreignKeys.png" width="11px" height="12px" preserveAspectRatio="xMinYMin meet" x="613.5" y="-530"/>
<text text-anchor="start" x="628.5" y="-521.2" font-family="Helvetica,sans-Serif" font-size="11.00">cof_pncontratante_id</text>
<polygon fill="none" stroke="black" points="608.5,-495 608.5,-513 847.5,-513 847.5,-495 608.5,-495"/>
<text text-anchor="start" x="611.5" y="-501.2" font-family="Helvetica,sans-Serif" font-size="11.00">...</text>
<polygon fill="#ffffff" stroke="transparent" points="608.5,-477 608.5,-495 711.5,-495 711.5,-477 608.5,-477"/>
<polygon fill="none" stroke="black" points="608.5,-477 608.5,-495 711.5,-495 711.5,-477 608.5,-477"/>
<text text-anchor="start" x="611.5" y="-483.2" font-family="Helvetica,sans-Serif" font-size="11.00">&lt; 18</text>
<polygon fill="#ffffff" stroke="transparent" points="711.5,-477 711.5,-495 787.5,-495 787.5,-477 711.5,-477"/>
<polygon fill="none" stroke="black" points="711.5,-477 711.5,-495 787.5,-495 787.5,-477 711.5,-477"/>
<text text-anchor="start" x="751.5" y="-483.2" font-family="Helvetica,sans-Serif" font-size="11.00">0 rows</text>
<polygon fill="#ffffff" stroke="transparent" points="787.5,-477 787.5,-495 847.5,-495 847.5,-477 787.5,-477"/>
<polygon fill="none" stroke="black" points="787.5,-477 787.5,-495 847.5,-495 847.5,-477 787.5,-477"/>
<text text-anchor="start" x="828.5" y="-483.2" font-family="Helvetica,sans-Serif" font-size="11.00">6 &gt;</text>
</a>
</g>
</g>
<!-- cof_pmp_apontamento_producao_manual&#45;&gt;m_production -->
<g id="edge3" class="edge">
<title>cof_pmp_apontamento_producao_manual:w&#45;&gt;m_production:e</title>
<path fill="none" stroke="black" d="M882.28,-1030C871.29,-1030 864.16,-1030 848.5,-1030"/>
<polygon fill="black" stroke="black" points="889,-1030 897,-1033.6 893,-1030 897,-1030 897,-1030 897,-1030 893,-1030 897,-1026.4 889,-1030 889,-1030"/>
<ellipse fill="none" stroke="black" cx="885.8" cy="-1030" rx="3.2" ry="3.2"/>
</g>
<!-- cof_pp_planomestreprod&#45;&gt;m_product -->
<g id="edge4" class="edge">
<title>cof_pp_planomestreprod:w&#45;&gt;m_product:e</title>
<path fill="none" stroke="black" d="M276.92,-437.37C170.43,-459.59 377.56,-744 244.5,-744"/>
<polygon fill="black" stroke="black" points="283.54,-436.75 291.84,-439.58 287.52,-436.37 291.5,-436 291.5,-436 291.5,-436 287.52,-436.37 291.16,-432.42 283.54,-436.75 283.54,-436.75"/>
<ellipse fill="none" stroke="black" cx="280.35" cy="-437.05" rx="3.2" ry="3.2"/>
</g>
<!-- m_production&#45;&gt;cof_pp_planomestreprod -->
<g id="edge5" class="edge">
<title>m_production:w&#45;&gt;cof_pp_planomestreprod:e</title>
<path fill="none" stroke="black" d="M592.9,-590C582.43,-590 575.51,-590 560.5,-590"/>
<polygon fill="black" stroke="black" points="599.5,-590 607.5,-593.6 603.5,-590 607.5,-590 607.5,-590 607.5,-590 603.5,-590 607.5,-586.4 599.5,-590 599.5,-590"/>
<ellipse fill="none" stroke="black" cx="596.3" cy="-590" rx="3.2" ry="3.2"/>
</g>
<!-- m_production&#45;&gt;m_product -->
<g id="edge6" class="edge">
<title>m_production:w&#45;&gt;m_product:e</title>
<path fill="none" stroke="black" d="M592.72,-744C443.53,-744 400.79,-744 244.5,-744"/>
<polygon fill="black" stroke="black" points="599.5,-744 607.5,-747.6 603.5,-744 607.5,-744 607.5,-744 607.5,-744 603.5,-744 607.5,-740.4 599.5,-744 599.5,-744"/>
<ellipse fill="none" stroke="black" cx="596.3" cy="-744" rx="3.2" ry="3.2"/>
</g>
</g>
</svg>
