<?xml version="1.0" encoding="UTF-8" standalone="no"?>
<!DOCTYPE svg PUBLIC "-//W3C//DTD SVG 1.1//EN"
 "http://www.w3.org/Graphics/SVG/1.1/DTD/svg11.dtd">
<!-- Generated by graphviz version 2.43.0 (0)
 -->
<!-- Title: oneDegreeRelationshipsDiagram Pages: 1 -->
<svg width="336pt" height="357pt"
 viewBox="0.00 0.00 336.00 357.00" xmlns="http://www.w3.org/2000/svg" xmlns:xlink="http://www.w3.org/1999/xlink">
<g id="graph0" class="graph" transform="scale(1 1) rotate(0) translate(4 353)">
<title>oneDegreeRelationshipsDiagram</title>
<polygon fill="#ffffff" stroke="transparent" points="-4,4 -4,-353 332,-353 332,4 -4,4"/>
<text text-anchor="middle" x="71.5" y="-7.2" font-family="Helvetica,sans-Serif" font-size="11.00">Generated by SchemaSpy</text>
<!-- cof_cte_compcomp -->
<g id="node1" class="node">
<title>cof_cte_compcomp</title>
<g id="a_node1"><a xlink:href="../../tables/cof_cte_compcomp.html" xlink:title="cof_cte_compcomp" target="_top">
<polygon fill="#ffffff" stroke="transparent" points="8,-37 8,-345 320,-345 320,-37 8,-37"/>
<polygon fill="#f5f5f5" stroke="transparent" points="10,-321 10,-343 318,-343 318,-321 10,-321"/>
<polygon fill="none" stroke="black" points="10,-321 10,-343 318,-343 318,-321 10,-321"/>
<text text-anchor="start" x="15" y="-330.2" font-family="Helvetica,sans-Serif" font-weight="bold" font-size="11.00">cof_cte_compcomp</text>
<text text-anchor="start" x="283" y="-329.2" font-family="Helvetica,sans-Serif" font-size="11.00">[table]</text>
<polygon fill="none" stroke="black" points="10,-299 10,-321 235,-321 235,-299 10,-299"/>
<image xlink:href="../../images/primaryKeys.png" width="11px" height="12px" preserveAspectRatio="xMinYMin meet" x="15" y="-316"/>
<text text-anchor="start" x="30" y="-307.2" font-family="Helvetica,sans-Serif" font-size="11.00">cof_cte_compcomp_id</text>
<polygon fill="none" stroke="black" points="235,-299 235,-321 318,-321 318,-299 235,-299"/>
<text text-anchor="start" x="238" y="-307.2" font-family="Helvetica,sans-Serif" font-size="11.00">numeric[10]</text>
<polygon fill="none" stroke="black" points="10,-277 10,-299 235,-299 235,-277 10,-277"/>
<text text-anchor="start" x="30" y="-285.2" font-family="Helvetica,sans-Serif" font-size="11.00">ad_client_id</text>
<polygon fill="none" stroke="black" points="235,-277 235,-299 318,-299 318,-277 235,-277"/>
<text text-anchor="start" x="238" y="-285.2" font-family="Helvetica,sans-Serif" font-size="11.00">numeric[10]</text>
<polygon fill="none" stroke="black" points="10,-255 10,-277 235,-277 235,-255 10,-255"/>
<text text-anchor="start" x="30" y="-263.2" font-family="Helvetica,sans-Serif" font-size="11.00">ad_org_id</text>
<polygon fill="none" stroke="black" points="235,-255 235,-277 318,-277 318,-255 235,-255"/>
<text text-anchor="start" x="238" y="-263.2" font-family="Helvetica,sans-Serif" font-size="11.00">numeric[10]</text>
<polygon fill="none" stroke="black" points="10,-233 10,-255 235,-255 235,-233 10,-233"/>
<text text-anchor="start" x="30" y="-241.2" font-family="Helvetica,sans-Serif" font-size="11.00">isactive</text>
<polygon fill="none" stroke="black" points="235,-233 235,-255 318,-255 318,-233 235,-233"/>
<text text-anchor="start" x="238" y="-241.2" font-family="Helvetica,sans-Serif" font-size="11.00">bpchar[1]</text>
<polygon fill="none" stroke="black" points="10,-211 10,-233 235,-233 235,-211 10,-211"/>
<text text-anchor="start" x="30" y="-219.2" font-family="Helvetica,sans-Serif" font-size="11.00">created</text>
<polygon fill="none" stroke="black" points="235,-211 235,-233 318,-233 318,-211 235,-211"/>
<text text-anchor="start" x="238" y="-219.2" font-family="Helvetica,sans-Serif" font-size="11.00">timestamp[29,6]</text>
<polygon fill="none" stroke="black" points="10,-189 10,-211 235,-211 235,-189 10,-189"/>
<text text-anchor="start" x="30" y="-197.2" font-family="Helvetica,sans-Serif" font-size="11.00">createdby</text>
<polygon fill="none" stroke="black" points="235,-189 235,-211 318,-211 318,-189 235,-189"/>
<text text-anchor="start" x="238" y="-197.2" font-family="Helvetica,sans-Serif" font-size="11.00">numeric[10]</text>
<polygon fill="none" stroke="black" points="10,-167 10,-189 235,-189 235,-167 10,-167"/>
<text text-anchor="start" x="30" y="-175.2" font-family="Helvetica,sans-Serif" font-size="11.00">updated</text>
<polygon fill="none" stroke="black" points="235,-167 235,-189 318,-189 318,-167 235,-167"/>
<text text-anchor="start" x="238" y="-175.2" font-family="Helvetica,sans-Serif" font-size="11.00">timestamp[29,6]</text>
<polygon fill="none" stroke="black" points="10,-145 10,-167 235,-167 235,-145 10,-145"/>
<text text-anchor="start" x="30" y="-153.2" font-family="Helvetica,sans-Serif" font-size="11.00">updatedby</text>
<polygon fill="none" stroke="black" points="235,-145 235,-167 318,-167 318,-145 235,-145"/>
<text text-anchor="start" x="238" y="-153.2" font-family="Helvetica,sans-Serif" font-size="11.00">numeric[10]</text>
<polygon fill="none" stroke="black" points="10,-123 10,-145 235,-145 235,-123 10,-123"/>
<image xlink:href="../../images/foreignKeys.png" width="11px" height="12px" preserveAspectRatio="xMinYMin meet" x="15" y="-140"/>
<text text-anchor="start" x="30" y="-131.2" font-family="Helvetica,sans-Serif" font-size="11.00">cof_cte_infctecomp_id</text>
<polygon fill="none" stroke="black" points="235,-123 235,-145 318,-145 318,-123 235,-123"/>
<text text-anchor="start" x="238" y="-131.2" font-family="Helvetica,sans-Serif" font-size="11.00">numeric[10]</text>
<polygon fill="none" stroke="black" points="10,-101 10,-123 235,-123 235,-101 10,-101"/>
<text text-anchor="start" x="30" y="-109.2" font-family="Helvetica,sans-Serif" font-size="11.00">vprescomp_compcomp_xnome</text>
<polygon fill="none" stroke="black" points="235,-101 235,-123 318,-123 318,-101 235,-101"/>
<text text-anchor="start" x="238" y="-109.2" font-family="Helvetica,sans-Serif" font-size="11.00">varchar[15]</text>
<polygon fill="none" stroke="black" points="10,-79 10,-101 235,-101 235,-79 10,-79"/>
<text text-anchor="start" x="30" y="-87.2" font-family="Helvetica,sans-Serif" font-size="11.00">vprescomp_compcomp_vcomp</text>
<polygon fill="none" stroke="black" points="235,-79 235,-101 318,-101 318,-79 235,-79"/>
<text text-anchor="start" x="238" y="-87.2" font-family="Helvetica,sans-Serif" font-size="11.00">numeric[0]</text>
<polygon fill="#ffffff" stroke="transparent" points="10,-57 10,-79 235,-79 235,-57 10,-57"/>
<polygon fill="none" stroke="black" points="10,-57 10,-79 235,-79 235,-57 10,-57"/>
<text text-anchor="start" x="30" y="-65.2" font-family="Helvetica,sans-Serif" font-size="11.00">cof_cte_compcomp_uu</text>
<polygon fill="none" stroke="black" points="235,-57 235,-79 318,-79 318,-57 235,-57"/>
<text text-anchor="start" x="238" y="-65.2" font-family="Helvetica,sans-Serif" font-size="11.00">varchar[36]</text>
<polygon fill="#ffffff" stroke="transparent" points="10,-39 10,-57 114,-57 114,-39 10,-39"/>
<polygon fill="none" stroke="black" points="10,-39 10,-57 114,-57 114,-39 10,-39"/>
<text text-anchor="start" x="13" y="-45.2" font-family="Helvetica,sans-Serif" font-size="11.00">&lt; 0</text>
<polygon fill="#ffffff" stroke="transparent" points="114,-39 114,-57 235,-57 235,-39 114,-39"/>
<polygon fill="none" stroke="black" points="114,-39 114,-57 235,-57 235,-39 114,-39"/>
<text text-anchor="start" x="199" y="-45.2" font-family="Helvetica,sans-Serif" font-size="11.00">0 rows</text>
<polygon fill="#ffffff" stroke="transparent" points="235,-39 235,-57 318,-57 318,-39 235,-39"/>
<polygon fill="none" stroke="black" points="235,-39 235,-57 318,-57 318,-39 235,-39"/>
<text text-anchor="start" x="299" y="-45.2" font-family="Helvetica,sans-Serif" font-size="11.00">0 &gt;</text>
<polygon fill="none" stroke="black" stroke-width="2" points="9,-38 9,-344 319,-344 319,-38 9,-38"/>
</a>
</g>
</g>
</g>
</svg>
