<?xml version="1.0" encoding="UTF-8" standalone="no"?>
<!DOCTYPE svg PUBLIC "-//W3C//DTD SVG 1.1//EN"
 "http://www.w3.org/Graphics/SVG/1.1/DTD/svg11.dtd">
<!-- Generated by graphviz version 2.43.0 (0)
 -->
<!-- Title: oneDegreeRelationshipsDiagram Pages: 1 -->
<svg width="1272pt" height="1242pt"
 viewBox="0.00 0.00 1272.00 1242.00" xmlns="http://www.w3.org/2000/svg" xmlns:xlink="http://www.w3.org/1999/xlink">
<g id="graph0" class="graph" transform="scale(1 1) rotate(0) translate(4 1238)">
<title>oneDegreeRelationshipsDiagram</title>
<polygon fill="#ffffff" stroke="transparent" points="-4,4 -4,-1238 1268,-1238 1268,4 -4,4"/>
<text text-anchor="middle" x="71.5" y="-7.2" font-family="Helvetica,sans-Serif" font-size="11.00">Generated by SchemaSpy</text>
<!-- c_bpartner -->
<g id="node1" class="node">
<title>c_bpartner</title>
<g id="a_node1"><a xlink:href="../../tables/c_bpartner.html" xlink:title="c_bpartner" target="_top">
<polygon fill="#ffffff" stroke="transparent" points="735,-490 735,-1230 971,-1230 971,-490 735,-490"/>
<polygon fill="#f5f5f5" stroke="transparent" points="735,-1208 735,-1230 971,-1230 971,-1208 735,-1208"/>
<polygon fill="none" stroke="black" points="735,-1208 735,-1230 971,-1230 971,-1208 735,-1208"/>
<text text-anchor="start" x="740" y="-1217.2" font-family="Helvetica,sans-Serif" font-weight="bold" font-size="11.00">c_bpartner</text>
<text text-anchor="start" x="936" y="-1216.2" font-family="Helvetica,sans-Serif" font-size="11.00">[table]</text>
<polygon fill="none" stroke="black" points="735,-1186 735,-1208 971,-1208 971,-1186 735,-1186"/>
<image xlink:href="../../images/primaryKeys.png" width="11px" height="12px" preserveAspectRatio="xMinYMin meet" x="740" y="-1203"/>
<text text-anchor="start" x="755" y="-1194.2" font-family="Helvetica,sans-Serif" font-size="11.00">c_bpartner_id</text>
<polygon fill="#ffffff" stroke="transparent" points="735,-1164 735,-1186 971,-1186 971,-1164 735,-1164"/>
<polygon fill="none" stroke="black" points="735,-1164 735,-1186 971,-1186 971,-1164 735,-1164"/>
<image xlink:href="../../images/foreignKeys.png" width="11px" height="12px" preserveAspectRatio="xMinYMin meet" x="740" y="-1181"/>
<text text-anchor="start" x="755" y="-1172.2" font-family="Helvetica,sans-Serif" font-size="11.00">ad_client_id</text>
<polygon fill="none" stroke="black" points="735,-1142 735,-1164 971,-1164 971,-1142 735,-1142"/>
<image xlink:href="../../images/foreignKeys.png" width="11px" height="12px" preserveAspectRatio="xMinYMin meet" x="740" y="-1159"/>
<text text-anchor="start" x="755" y="-1150.2" font-family="Helvetica,sans-Serif" font-size="11.00">ad_org_id</text>
<polygon fill="#ffffff" stroke="transparent" points="735,-1120 735,-1142 971,-1142 971,-1120 735,-1120"/>
<polygon fill="none" stroke="black" points="735,-1120 735,-1142 971,-1142 971,-1120 735,-1120"/>
<text text-anchor="start" x="755" y="-1128.2" font-family="Helvetica,sans-Serif" font-size="11.00">value</text>
<polygon fill="#ffffff" stroke="transparent" points="735,-1098 735,-1120 971,-1120 971,-1098 735,-1098"/>
<polygon fill="none" stroke="black" points="735,-1098 735,-1120 971,-1120 971,-1098 735,-1098"/>
<text text-anchor="start" x="755" y="-1106.2" font-family="Helvetica,sans-Serif" font-size="11.00">name</text>
<polygon fill="none" stroke="black" points="735,-1076 735,-1098 971,-1098 971,-1076 735,-1076"/>
<image xlink:href="../../images/foreignKeys.png" width="11px" height="12px" preserveAspectRatio="xMinYMin meet" x="740" y="-1093"/>
<text text-anchor="start" x="755" y="-1084.2" font-family="Helvetica,sans-Serif" font-size="11.00">c_bp_group_id</text>
<polygon fill="none" stroke="black" points="735,-1054 735,-1076 971,-1076 971,-1054 735,-1054"/>
<image xlink:href="../../images/foreignKeys.png" width="11px" height="12px" preserveAspectRatio="xMinYMin meet" x="740" y="-1071"/>
<text text-anchor="start" x="755" y="-1062.2" font-family="Helvetica,sans-Serif" font-size="11.00">ad_language</text>
<polygon fill="none" stroke="black" points="735,-1032 735,-1054 971,-1054 971,-1032 735,-1032"/>
<image xlink:href="../../images/foreignKeys.png" width="11px" height="12px" preserveAspectRatio="xMinYMin meet" x="740" y="-1049"/>
<text text-anchor="start" x="755" y="-1040.2" font-family="Helvetica,sans-Serif" font-size="11.00">c_invoiceschedule_id</text>
<polygon fill="none" stroke="black" points="735,-1010 735,-1032 971,-1032 971,-1010 735,-1010"/>
<image xlink:href="../../images/foreignKeys.png" width="11px" height="12px" preserveAspectRatio="xMinYMin meet" x="740" y="-1027"/>
<text text-anchor="start" x="755" y="-1018.2" font-family="Helvetica,sans-Serif" font-size="11.00">c_paymentterm_id</text>
<polygon fill="none" stroke="black" points="735,-988 735,-1010 971,-1010 971,-988 735,-988"/>
<image xlink:href="../../images/foreignKeys.png" width="11px" height="12px" preserveAspectRatio="xMinYMin meet" x="740" y="-1005"/>
<text text-anchor="start" x="755" y="-996.2" font-family="Helvetica,sans-Serif" font-size="11.00">m_pricelist_id</text>
<polygon fill="none" stroke="black" points="735,-966 735,-988 971,-988 971,-966 735,-966"/>
<image xlink:href="../../images/foreignKeys.png" width="11px" height="12px" preserveAspectRatio="xMinYMin meet" x="740" y="-983"/>
<text text-anchor="start" x="755" y="-974.2" font-family="Helvetica,sans-Serif" font-size="11.00">m_discountschema_id</text>
<polygon fill="none" stroke="black" points="735,-944 735,-966 971,-966 971,-944 735,-944"/>
<image xlink:href="../../images/foreignKeys.png" width="11px" height="12px" preserveAspectRatio="xMinYMin meet" x="740" y="-961"/>
<text text-anchor="start" x="755" y="-952.2" font-family="Helvetica,sans-Serif" font-size="11.00">c_dunning_id</text>
<polygon fill="none" stroke="black" points="735,-922 735,-944 971,-944 971,-922 735,-922"/>
<image xlink:href="../../images/foreignKeys.png" width="11px" height="12px" preserveAspectRatio="xMinYMin meet" x="740" y="-939"/>
<text text-anchor="start" x="755" y="-930.2" font-family="Helvetica,sans-Serif" font-size="11.00">po_pricelist_id</text>
<polygon fill="none" stroke="black" points="735,-900 735,-922 971,-922 971,-900 735,-900"/>
<image xlink:href="../../images/foreignKeys.png" width="11px" height="12px" preserveAspectRatio="xMinYMin meet" x="740" y="-917"/>
<text text-anchor="start" x="755" y="-908.2" font-family="Helvetica,sans-Serif" font-size="11.00">po_discountschema_id</text>
<polygon fill="none" stroke="black" points="735,-878 735,-900 971,-900 971,-878 735,-878"/>
<image xlink:href="../../images/foreignKeys.png" width="11px" height="12px" preserveAspectRatio="xMinYMin meet" x="740" y="-895"/>
<text text-anchor="start" x="755" y="-886.2" font-family="Helvetica,sans-Serif" font-size="11.00">po_paymentterm_id</text>
<polygon fill="none" stroke="black" points="735,-856 735,-878 971,-878 971,-856 735,-856"/>
<image xlink:href="../../images/foreignKeys.png" width="11px" height="12px" preserveAspectRatio="xMinYMin meet" x="740" y="-873"/>
<text text-anchor="start" x="755" y="-864.2" font-family="Helvetica,sans-Serif" font-size="11.00">c_greeting_id</text>
<polygon fill="none" stroke="black" points="735,-834 735,-856 971,-856 971,-834 735,-834"/>
<image xlink:href="../../images/foreignKeys.png" width="11px" height="12px" preserveAspectRatio="xMinYMin meet" x="740" y="-851"/>
<text text-anchor="start" x="755" y="-842.2" font-family="Helvetica,sans-Serif" font-size="11.00">salesrep_id</text>
<polygon fill="none" stroke="black" points="735,-812 735,-834 971,-834 971,-812 735,-812"/>
<image xlink:href="../../images/foreignKeys.png" width="11px" height="12px" preserveAspectRatio="xMinYMin meet" x="740" y="-829"/>
<text text-anchor="start" x="755" y="-820.2" font-family="Helvetica,sans-Serif" font-size="11.00">bpartner_parent_id</text>
<polygon fill="none" stroke="black" points="735,-790 735,-812 971,-812 971,-790 735,-790"/>
<image xlink:href="../../images/foreignKeys.png" width="11px" height="12px" preserveAspectRatio="xMinYMin meet" x="740" y="-807"/>
<text text-anchor="start" x="755" y="-798.2" font-family="Helvetica,sans-Serif" font-size="11.00">invoice_printformat_id</text>
<polygon fill="#ffffff" stroke="transparent" points="735,-768 735,-790 971,-790 971,-768 735,-768"/>
<polygon fill="none" stroke="black" points="735,-768 735,-790 971,-790 971,-768 735,-768"/>
<image xlink:href="../../images/foreignKeys.png" width="11px" height="12px" preserveAspectRatio="xMinYMin meet" x="740" y="-785"/>
<text text-anchor="start" x="755" y="-776.2" font-family="Helvetica,sans-Serif" font-size="11.00">ad_orgbp_id</text>
<polygon fill="none" stroke="black" points="735,-746 735,-768 971,-768 971,-746 735,-746"/>
<image xlink:href="../../images/foreignKeys.png" width="11px" height="12px" preserveAspectRatio="xMinYMin meet" x="740" y="-763"/>
<text text-anchor="start" x="755" y="-754.2" font-family="Helvetica,sans-Serif" font-size="11.00">c_taxgroup_id</text>
<polygon fill="none" stroke="black" points="735,-724 735,-746 971,-746 971,-724 735,-724"/>
<image xlink:href="../../images/foreignKeys.png" width="11px" height="12px" preserveAspectRatio="xMinYMin meet" x="740" y="-741"/>
<text text-anchor="start" x="755" y="-732.2" font-family="Helvetica,sans-Serif" font-size="11.00">logo_id</text>
<polygon fill="#ffffff" stroke="transparent" points="735,-702 735,-724 971,-724 971,-702 735,-702"/>
<polygon fill="none" stroke="black" points="735,-702 735,-724 971,-724 971,-702 735,-702"/>
<text text-anchor="start" x="755" y="-710.2" font-family="Helvetica,sans-Serif" font-size="11.00">c_bpartner_uu</text>
<polygon fill="none" stroke="black" points="735,-680 735,-702 971,-702 971,-680 735,-680"/>
<image xlink:href="../../images/foreignKeys.png" width="11px" height="12px" preserveAspectRatio="xMinYMin meet" x="740" y="-697"/>
<text text-anchor="start" x="755" y="-688.2" font-family="Helvetica,sans-Serif" font-size="11.00">default1099box_id</text>
<polygon fill="none" stroke="black" points="735,-658 735,-680 971,-680 971,-658 735,-658"/>
<image xlink:href="../../images/foreignKeys.png" width="11px" height="12px" preserveAspectRatio="xMinYMin meet" x="740" y="-675"/>
<text text-anchor="start" x="755" y="-666.2" font-family="Helvetica,sans-Serif" font-size="11.00">cof_c_custody_id</text>
<polygon fill="none" stroke="black" points="735,-636 735,-658 971,-658 971,-636 735,-636"/>
<image xlink:href="../../images/foreignKeys.png" width="11px" height="12px" preserveAspectRatio="xMinYMin meet" x="740" y="-653"/>
<text text-anchor="start" x="755" y="-644.2" font-family="Helvetica,sans-Serif" font-size="11.00">cof_doctypepurchase_id</text>
<polygon fill="none" stroke="black" points="735,-614 735,-636 971,-636 971,-614 735,-614"/>
<image xlink:href="../../images/foreignKeys.png" width="11px" height="12px" preserveAspectRatio="xMinYMin meet" x="740" y="-631"/>
<text text-anchor="start" x="755" y="-622.2" font-family="Helvetica,sans-Serif" font-size="11.00">cof_doctypesale_id</text>
<polygon fill="none" stroke="black" points="735,-592 735,-614 971,-614 971,-592 735,-592"/>
<image xlink:href="../../images/foreignKeys.png" width="11px" height="12px" preserveAspectRatio="xMinYMin meet" x="740" y="-609"/>
<text text-anchor="start" x="755" y="-600.2" font-family="Helvetica,sans-Serif" font-size="11.00">cof_grupofornecedor_id</text>
<polygon fill="none" stroke="black" points="735,-570 735,-592 971,-592 971,-570 735,-570"/>
<image xlink:href="../../images/foreignKeys.png" width="11px" height="12px" preserveAspectRatio="xMinYMin meet" x="740" y="-587"/>
<text text-anchor="start" x="755" y="-578.2" font-family="Helvetica,sans-Serif" font-size="11.00">cof_vendedorinterno_id</text>
<polygon fill="none" stroke="black" points="735,-548 735,-570 971,-570 971,-548 735,-548"/>
<image xlink:href="../../images/foreignKeys.png" width="11px" height="12px" preserveAspectRatio="xMinYMin meet" x="740" y="-565"/>
<text text-anchor="start" x="755" y="-556.2" font-family="Helvetica,sans-Serif" font-size="11.00">cof_tipoparceiro_id</text>
<polygon fill="none" stroke="black" points="735,-526 735,-548 971,-548 971,-526 735,-526"/>
<image xlink:href="../../images/foreignKeys.png" width="11px" height="12px" preserveAspectRatio="xMinYMin meet" x="740" y="-543"/>
<text text-anchor="start" x="755" y="-534.2" font-family="Helvetica,sans-Serif" font-size="11.00">cof_classeparceiro_id</text>
<polygon fill="none" stroke="black" points="735,-508 735,-526 971,-526 971,-508 735,-508"/>
<text text-anchor="start" x="738" y="-514.2" font-family="Helvetica,sans-Serif" font-size="11.00">...</text>
<polygon fill="#ffffff" stroke="transparent" points="735,-490 735,-508 830,-508 830,-490 735,-490"/>
<polygon fill="none" stroke="black" points="735,-490 735,-508 830,-508 830,-490 735,-490"/>
<text text-anchor="start" x="738" y="-496.2" font-family="Helvetica,sans-Serif" font-size="11.00">&lt; 27</text>
<polygon fill="#ffffff" stroke="transparent" points="830,-490 830,-508 903,-508 903,-490 830,-490"/>
<polygon fill="none" stroke="black" points="830,-490 830,-508 903,-508 903,-490 830,-490"/>
<text text-anchor="start" x="867" y="-496.2" font-family="Helvetica,sans-Serif" font-size="11.00">4 rows</text>
<polygon fill="#ffffff" stroke="transparent" points="903,-490 903,-508 971,-508 971,-490 903,-490"/>
<polygon fill="none" stroke="black" points="903,-490 903,-508 971,-508 971,-490 903,-490"/>
<text text-anchor="start" x="940" y="-496.2" font-family="Helvetica,sans-Serif" font-size="11.00">164 &gt;</text>
</a>
</g>
</g>
<!-- c_bp_group -->
<g id="node2" class="node">
<title>c_bp_group</title>
<g id="a_node2"><a xlink:href="../../tables/c_bp_group.html" xlink:title="c_bp_group" target="_top">
<polygon fill="#ffffff" stroke="transparent" points="8,-191 8,-469 180,-469 180,-191 8,-191"/>
<polygon fill="#f5f5f5" stroke="transparent" points="8,-447 8,-469 180,-469 180,-447 8,-447"/>
<polygon fill="none" stroke="black" points="8,-447 8,-469 180,-469 180,-447 8,-447"/>
<text text-anchor="start" x="13" y="-456.2" font-family="Helvetica,sans-Serif" font-weight="bold" font-size="11.00">c_bp_group</text>
<text text-anchor="start" x="145" y="-455.2" font-family="Helvetica,sans-Serif" font-size="11.00">[table]</text>
<polygon fill="none" stroke="black" points="8,-425 8,-447 180,-447 180,-425 8,-425"/>
<image xlink:href="../../images/primaryKeys.png" width="11px" height="12px" preserveAspectRatio="xMinYMin meet" x="13" y="-442"/>
<text text-anchor="start" x="28" y="-433.2" font-family="Helvetica,sans-Serif" font-size="11.00">c_bp_group_id</text>
<polygon fill="#ffffff" stroke="transparent" points="8,-403 8,-425 180,-425 180,-403 8,-403"/>
<polygon fill="none" stroke="black" points="8,-403 8,-425 180,-425 180,-403 8,-403"/>
<text text-anchor="start" x="28" y="-411.2" font-family="Helvetica,sans-Serif" font-size="11.00">ad_client_id</text>
<polygon fill="#ffffff" stroke="transparent" points="8,-381 8,-403 180,-403 180,-381 8,-381"/>
<polygon fill="none" stroke="black" points="8,-381 8,-403 180,-403 180,-381 8,-381"/>
<text text-anchor="start" x="28" y="-389.2" font-family="Helvetica,sans-Serif" font-size="11.00">value</text>
<polygon fill="none" stroke="black" points="8,-359 8,-381 180,-381 180,-359 8,-359"/>
<image xlink:href="../../images/foreignKeys.png" width="11px" height="12px" preserveAspectRatio="xMinYMin meet" x="13" y="-376"/>
<text text-anchor="start" x="28" y="-367.2" font-family="Helvetica,sans-Serif" font-size="11.00">ad_printcolor_id</text>
<polygon fill="none" stroke="black" points="8,-337 8,-359 180,-359 180,-337 8,-337"/>
<image xlink:href="../../images/foreignKeys.png" width="11px" height="12px" preserveAspectRatio="xMinYMin meet" x="13" y="-354"/>
<text text-anchor="start" x="28" y="-345.2" font-family="Helvetica,sans-Serif" font-size="11.00">m_pricelist_id</text>
<polygon fill="none" stroke="black" points="8,-315 8,-337 180,-337 180,-315 8,-315"/>
<image xlink:href="../../images/foreignKeys.png" width="11px" height="12px" preserveAspectRatio="xMinYMin meet" x="13" y="-332"/>
<text text-anchor="start" x="28" y="-323.2" font-family="Helvetica,sans-Serif" font-size="11.00">po_pricelist_id</text>
<polygon fill="none" stroke="black" points="8,-293 8,-315 180,-315 180,-293 8,-293"/>
<image xlink:href="../../images/foreignKeys.png" width="11px" height="12px" preserveAspectRatio="xMinYMin meet" x="13" y="-310"/>
<text text-anchor="start" x="28" y="-301.2" font-family="Helvetica,sans-Serif" font-size="11.00">m_discountschema_id</text>
<polygon fill="none" stroke="black" points="8,-271 8,-293 180,-293 180,-271 8,-271"/>
<image xlink:href="../../images/foreignKeys.png" width="11px" height="12px" preserveAspectRatio="xMinYMin meet" x="13" y="-288"/>
<text text-anchor="start" x="28" y="-279.2" font-family="Helvetica,sans-Serif" font-size="11.00">po_discountschema_id</text>
<polygon fill="none" stroke="black" points="8,-249 8,-271 180,-271 180,-249 8,-249"/>
<image xlink:href="../../images/foreignKeys.png" width="11px" height="12px" preserveAspectRatio="xMinYMin meet" x="13" y="-266"/>
<text text-anchor="start" x="28" y="-257.2" font-family="Helvetica,sans-Serif" font-size="11.00">c_dunning_id</text>
<polygon fill="#ffffff" stroke="transparent" points="8,-227 8,-249 180,-249 180,-227 8,-227"/>
<polygon fill="none" stroke="black" points="8,-227 8,-249 180,-249 180,-227 8,-227"/>
<text text-anchor="start" x="28" y="-235.2" font-family="Helvetica,sans-Serif" font-size="11.00">c_bp_group_uu</text>
<polygon fill="none" stroke="black" points="8,-209 8,-227 180,-227 180,-209 8,-209"/>
<text text-anchor="start" x="11" y="-215.2" font-family="Helvetica,sans-Serif" font-size="11.00">...</text>
<polygon fill="#ffffff" stroke="transparent" points="8,-191 8,-209 71,-209 71,-191 8,-191"/>
<polygon fill="none" stroke="black" points="8,-191 8,-209 71,-209 71,-191 8,-191"/>
<text text-anchor="start" x="11" y="-197.2" font-family="Helvetica,sans-Serif" font-size="11.00">&lt; 6</text>
<polygon fill="#ffffff" stroke="transparent" points="71,-191 71,-209 131,-209 131,-191 71,-191"/>
<polygon fill="none" stroke="black" points="71,-191 71,-209 131,-209 131,-191 71,-191"/>
<text text-anchor="start" x="95" y="-197.2" font-family="Helvetica,sans-Serif" font-size="11.00">5 rows</text>
<polygon fill="#ffffff" stroke="transparent" points="131,-191 131,-209 180,-209 180,-191 131,-191"/>
<polygon fill="none" stroke="black" points="131,-191 131,-209 180,-209 180,-191 131,-191"/>
<text text-anchor="start" x="155" y="-197.2" font-family="Helvetica,sans-Serif" font-size="11.00">14 &gt;</text>
</a>
</g>
</g>
<!-- c_bpartner&#45;&gt;c_bp_group -->
<g id="edge1" class="edge">
<title>c_bpartner:w&#45;&gt;c_bp_group:e</title>
<path fill="none" stroke="black" d="M723.47,-1077.03C647.38,-995.13 191.99,-436 181,-436"/>
<polygon fill="black" stroke="black" points="728.19,-1081.5 731.53,-1089.61 731.1,-1084.25 734,-1087 734,-1087 734,-1087 731.1,-1084.25 736.47,-1084.39 728.19,-1081.5 728.19,-1081.5"/>
<ellipse fill="none" stroke="black" cx="725.87" cy="-1079.3" rx="3.2" ry="3.2"/>
</g>
<!-- cof_classeparceiro -->
<g id="node3" class="node">
<title>cof_classeparceiro</title>
<g id="a_node3"><a xlink:href="../../tables/cof_classeparceiro.html" xlink:title="cof_classeparceiro" target="_top">
<polygon fill="#ffffff" stroke="transparent" points="518,-269 518,-415 686,-415 686,-269 518,-269"/>
<polygon fill="#f5f5f5" stroke="transparent" points="518,-393 518,-415 686,-415 686,-393 518,-393"/>
<polygon fill="none" stroke="black" points="518,-393 518,-415 686,-415 686,-393 518,-393"/>
<text text-anchor="start" x="523" y="-402.2" font-family="Helvetica,sans-Serif" font-weight="bold" font-size="11.00">cof_classeparceiro</text>
<text text-anchor="start" x="651" y="-401.2" font-family="Helvetica,sans-Serif" font-size="11.00">[table]</text>
<polygon fill="none" stroke="black" points="518,-371 518,-393 686,-393 686,-371 518,-371"/>
<image xlink:href="../../images/primaryKeys.png" width="11px" height="12px" preserveAspectRatio="xMinYMin meet" x="523" y="-388"/>
<text text-anchor="start" x="538" y="-379.2" font-family="Helvetica,sans-Serif" font-size="11.00">cof_classeparceiro_id</text>
<polygon fill="#ffffff" stroke="transparent" points="518,-349 518,-371 686,-371 686,-349 518,-349"/>
<polygon fill="none" stroke="black" points="518,-349 518,-371 686,-371 686,-349 518,-349"/>
<text text-anchor="start" x="538" y="-357.2" font-family="Helvetica,sans-Serif" font-size="11.00">cof_classeparceiro_uu</text>
<polygon fill="none" stroke="black" points="518,-327 518,-349 686,-349 686,-327 518,-327"/>
<image xlink:href="../../images/foreignKeys.png" width="11px" height="12px" preserveAspectRatio="xMinYMin meet" x="523" y="-344"/>
<text text-anchor="start" x="538" y="-335.2" font-family="Helvetica,sans-Serif" font-size="11.00">c_bp_group_id</text>
<polygon fill="none" stroke="black" points="518,-305 518,-327 686,-327 686,-305 518,-305"/>
<image xlink:href="../../images/foreignKeys.png" width="11px" height="12px" preserveAspectRatio="xMinYMin meet" x="523" y="-322"/>
<text text-anchor="start" x="538" y="-313.2" font-family="Helvetica,sans-Serif" font-size="11.00">cof_tipoparceiro_id</text>
<polygon fill="none" stroke="black" points="518,-287 518,-305 686,-305 686,-287 518,-287"/>
<text text-anchor="start" x="521" y="-293.2" font-family="Helvetica,sans-Serif" font-size="11.00">...</text>
<polygon fill="#ffffff" stroke="transparent" points="518,-269 518,-287 582,-287 582,-269 518,-269"/>
<polygon fill="none" stroke="black" points="518,-269 518,-287 582,-287 582,-269 518,-269"/>
<text text-anchor="start" x="521" y="-275.2" font-family="Helvetica,sans-Serif" font-size="11.00">&lt; 2</text>
<polygon fill="#ffffff" stroke="transparent" points="582,-269 582,-287 642,-287 642,-269 582,-269"/>
<polygon fill="none" stroke="black" points="582,-269 582,-287 642,-287 642,-269 582,-269"/>
<text text-anchor="start" x="606" y="-275.2" font-family="Helvetica,sans-Serif" font-size="11.00">0 rows</text>
<polygon fill="#ffffff" stroke="transparent" points="642,-269 642,-287 686,-287 686,-269 642,-269"/>
<polygon fill="none" stroke="black" points="642,-269 642,-287 686,-287 686,-269 642,-269"/>
<text text-anchor="start" x="667" y="-275.2" font-family="Helvetica,sans-Serif" font-size="11.00">2 &gt;</text>
</a>
</g>
</g>
<!-- c_bpartner&#45;&gt;cof_classeparceiro -->
<g id="edge2" class="edge">
<title>c_bpartner:w&#45;&gt;cof_classeparceiro:e</title>
<path fill="none" stroke="black" d="M719.78,-534.18C676.46,-513.17 753.22,-382 687,-382"/>
<polygon fill="black" stroke="black" points="726.15,-535.44 733.3,-540.53 730.08,-536.22 734,-537 734,-537 734,-537 730.08,-536.22 734.7,-533.47 726.15,-535.44 726.15,-535.44"/>
<ellipse fill="none" stroke="black" cx="723.01" cy="-534.82" rx="3.2" ry="3.2"/>
</g>
<!-- cof_tipoparceiro -->
<g id="node4" class="node">
<title>cof_tipoparceiro</title>
<g id="a_node4"><a xlink:href="../../tables/cof_tipoparceiro.html" xlink:title="cof_tipoparceiro" target="_top">
<polygon fill="#ffffff" stroke="transparent" points="229,-37 229,-367 469,-367 469,-37 229,-37"/>
<polygon fill="#f5f5f5" stroke="transparent" points="231,-343 231,-365 467,-365 467,-343 231,-343"/>
<polygon fill="none" stroke="black" points="231,-343 231,-365 467,-365 467,-343 231,-343"/>
<text text-anchor="start" x="236" y="-352.2" font-family="Helvetica,sans-Serif" font-weight="bold" font-size="11.00">cof_tipoparceiro</text>
<text text-anchor="start" x="432" y="-351.2" font-family="Helvetica,sans-Serif" font-size="11.00">[table]</text>
<polygon fill="none" stroke="black" points="231,-321 231,-343 384,-343 384,-321 231,-321"/>
<image xlink:href="../../images/primaryKeys.png" width="11px" height="12px" preserveAspectRatio="xMinYMin meet" x="236" y="-338"/>
<text text-anchor="start" x="251" y="-329.2" font-family="Helvetica,sans-Serif" font-size="11.00">cof_tipoparceiro_id</text>
<polygon fill="none" stroke="black" points="384,-321 384,-343 467,-343 467,-321 384,-321"/>
<text text-anchor="start" x="387" y="-329.2" font-family="Helvetica,sans-Serif" font-size="11.00">numeric[10]</text>
<polygon fill="#ffffff" stroke="transparent" points="231,-299 231,-321 384,-321 384,-299 231,-299"/>
<polygon fill="none" stroke="black" points="231,-299 231,-321 384,-321 384,-299 231,-299"/>
<text text-anchor="start" x="251" y="-307.2" font-family="Helvetica,sans-Serif" font-size="11.00">cof_tipoparceiro_uu</text>
<polygon fill="none" stroke="black" points="384,-299 384,-321 467,-321 467,-299 384,-299"/>
<text text-anchor="start" x="387" y="-307.2" font-family="Helvetica,sans-Serif" font-size="11.00">varchar[36]</text>
<polygon fill="none" stroke="black" points="231,-277 231,-299 384,-299 384,-277 231,-277"/>
<text text-anchor="start" x="251" y="-285.2" font-family="Helvetica,sans-Serif" font-size="11.00">ad_client_id</text>
<polygon fill="none" stroke="black" points="384,-277 384,-299 467,-299 467,-277 384,-277"/>
<text text-anchor="start" x="387" y="-285.2" font-family="Helvetica,sans-Serif" font-size="11.00">numeric[10]</text>
<polygon fill="none" stroke="black" points="231,-255 231,-277 384,-277 384,-255 231,-255"/>
<text text-anchor="start" x="251" y="-263.2" font-family="Helvetica,sans-Serif" font-size="11.00">ad_org_id</text>
<polygon fill="none" stroke="black" points="384,-255 384,-277 467,-277 467,-255 384,-255"/>
<text text-anchor="start" x="387" y="-263.2" font-family="Helvetica,sans-Serif" font-size="11.00">numeric[10]</text>
<polygon fill="none" stroke="black" points="231,-233 231,-255 384,-255 384,-233 231,-233"/>
<text text-anchor="start" x="251" y="-241.2" font-family="Helvetica,sans-Serif" font-size="11.00">isactive</text>
<polygon fill="none" stroke="black" points="384,-233 384,-255 467,-255 467,-233 384,-233"/>
<text text-anchor="start" x="387" y="-241.2" font-family="Helvetica,sans-Serif" font-size="11.00">bpchar[1]</text>
<polygon fill="none" stroke="black" points="231,-211 231,-233 384,-233 384,-211 231,-211"/>
<text text-anchor="start" x="251" y="-219.2" font-family="Helvetica,sans-Serif" font-size="11.00">created</text>
<polygon fill="none" stroke="black" points="384,-211 384,-233 467,-233 467,-211 384,-211"/>
<text text-anchor="start" x="387" y="-219.2" font-family="Helvetica,sans-Serif" font-size="11.00">timestamp[29,6]</text>
<polygon fill="none" stroke="black" points="231,-189 231,-211 384,-211 384,-189 231,-189"/>
<text text-anchor="start" x="251" y="-197.2" font-family="Helvetica,sans-Serif" font-size="11.00">createdby</text>
<polygon fill="none" stroke="black" points="384,-189 384,-211 467,-211 467,-189 384,-189"/>
<text text-anchor="start" x="387" y="-197.2" font-family="Helvetica,sans-Serif" font-size="11.00">numeric[10]</text>
<polygon fill="none" stroke="black" points="231,-167 231,-189 384,-189 384,-167 231,-167"/>
<text text-anchor="start" x="251" y="-175.2" font-family="Helvetica,sans-Serif" font-size="11.00">updated</text>
<polygon fill="none" stroke="black" points="384,-167 384,-189 467,-189 467,-167 384,-167"/>
<text text-anchor="start" x="387" y="-175.2" font-family="Helvetica,sans-Serif" font-size="11.00">timestamp[29,6]</text>
<polygon fill="none" stroke="black" points="231,-145 231,-167 384,-167 384,-145 231,-145"/>
<text text-anchor="start" x="251" y="-153.2" font-family="Helvetica,sans-Serif" font-size="11.00">updatedby</text>
<polygon fill="none" stroke="black" points="384,-145 384,-167 467,-167 467,-145 384,-145"/>
<text text-anchor="start" x="387" y="-153.2" font-family="Helvetica,sans-Serif" font-size="11.00">numeric[10]</text>
<polygon fill="none" stroke="black" points="231,-123 231,-145 384,-145 384,-123 231,-123"/>
<text text-anchor="start" x="251" y="-131.2" font-family="Helvetica,sans-Serif" font-size="11.00">value</text>
<polygon fill="none" stroke="black" points="384,-123 384,-145 467,-145 467,-123 384,-123"/>
<text text-anchor="start" x="387" y="-131.2" font-family="Helvetica,sans-Serif" font-size="11.00">varchar[40]</text>
<polygon fill="none" stroke="black" points="231,-101 231,-123 384,-123 384,-101 231,-101"/>
<text text-anchor="start" x="251" y="-109.2" font-family="Helvetica,sans-Serif" font-size="11.00">name</text>
<polygon fill="none" stroke="black" points="384,-101 384,-123 467,-123 467,-101 384,-101"/>
<text text-anchor="start" x="387" y="-109.2" font-family="Helvetica,sans-Serif" font-size="11.00">varchar[60]</text>
<polygon fill="none" stroke="black" points="231,-79 231,-101 384,-101 384,-79 231,-79"/>
<text text-anchor="start" x="251" y="-87.2" font-family="Helvetica,sans-Serif" font-size="11.00">description</text>
<polygon fill="none" stroke="black" points="384,-79 384,-101 467,-101 467,-79 384,-79"/>
<text text-anchor="start" x="387" y="-87.2" font-family="Helvetica,sans-Serif" font-size="11.00">varchar[255]</text>
<polygon fill="none" stroke="black" points="231,-57 231,-79 384,-79 384,-57 231,-57"/>
<image xlink:href="../../images/foreignKeys.png" width="11px" height="12px" preserveAspectRatio="xMinYMin meet" x="236" y="-74"/>
<text text-anchor="start" x="251" y="-65.2" font-family="Helvetica,sans-Serif" font-size="11.00">c_bp_group_id</text>
<polygon fill="none" stroke="black" points="384,-57 384,-79 467,-79 467,-57 384,-57"/>
<text text-anchor="start" x="387" y="-65.2" font-family="Helvetica,sans-Serif" font-size="11.00">numeric[10]</text>
<polygon fill="#ffffff" stroke="transparent" points="231,-39 231,-57 299,-57 299,-39 231,-39"/>
<polygon fill="none" stroke="black" points="231,-39 231,-57 299,-57 299,-39 231,-39"/>
<text text-anchor="start" x="234" y="-45.2" font-family="Helvetica,sans-Serif" font-size="11.00">&lt; 1</text>
<polygon fill="#ffffff" stroke="transparent" points="299,-39 299,-57 384,-57 384,-39 299,-39"/>
<polygon fill="none" stroke="black" points="299,-39 299,-57 384,-57 384,-39 299,-39"/>
<text text-anchor="start" x="348" y="-45.2" font-family="Helvetica,sans-Serif" font-size="11.00">0 rows</text>
<polygon fill="#ffffff" stroke="transparent" points="384,-39 384,-57 467,-57 467,-39 384,-39"/>
<polygon fill="none" stroke="black" points="384,-39 384,-57 467,-57 467,-39 384,-39"/>
<text text-anchor="start" x="448" y="-45.2" font-family="Helvetica,sans-Serif" font-size="11.00">3 &gt;</text>
<polygon fill="none" stroke="black" stroke-width="2" points="230,-38 230,-366 468,-366 468,-38 230,-38"/>
</a>
</g>
</g>
<!-- c_bpartner&#45;&gt;cof_tipoparceiro -->
<g id="edge3" class="edge">
<title>c_bpartner:w&#45;&gt;cof_tipoparceiro:e</title>
<path fill="none" stroke="black" d="M719.53,-558.74C615.45,-554.93 583.69,-508.75 510,-426 479.57,-391.83 513.76,-332 468,-332"/>
<polygon fill="black" stroke="black" points="726,-558.86 733.94,-562.6 730,-558.93 734,-559 734,-559 734,-559 730,-558.93 734.06,-555.4 726,-558.86 726,-558.86"/>
<ellipse fill="none" stroke="black" cx="722.8" cy="-558.8" rx="3.2" ry="3.2"/>
</g>
<!-- cof_classeparceiro&#45;&gt;c_bp_group -->
<g id="edge4" class="edge">
<title>cof_classeparceiro:w&#45;&gt;c_bp_group:e</title>
<path fill="none" stroke="black" d="M503.07,-342.73C493.76,-351.09 493.3,-368.41 477,-377 358.31,-439.51 315.14,-436 181,-436"/>
<polygon fill="black" stroke="black" points="509.42,-340.57 518.16,-341.41 513.21,-339.29 517,-338 517,-338 517,-338 513.21,-339.29 515.84,-334.59 509.42,-340.57 509.42,-340.57"/>
<ellipse fill="none" stroke="black" cx="506.39" cy="-341.6" rx="3.2" ry="3.2"/>
</g>
<!-- cof_classeparceiro&#45;&gt;cof_tipoparceiro -->
<g id="edge5" class="edge">
<title>cof_classeparceiro:w&#45;&gt;cof_tipoparceiro:e</title>
<path fill="none" stroke="black" d="M502.54,-318.64C491.14,-323.19 485,-332 468,-332"/>
<polygon fill="black" stroke="black" points="509.13,-317.44 517.65,-319.54 513.07,-316.72 517,-316 517,-316 517,-316 513.07,-316.72 516.35,-312.46 509.13,-317.44 509.13,-317.44"/>
<ellipse fill="none" stroke="black" cx="505.98" cy="-318.01" rx="3.2" ry="3.2"/>
</g>
<!-- cof_tipoparceiro&#45;&gt;c_bp_group -->
<g id="edge6" class="edge">
<title>cof_tipoparceiro:w&#45;&gt;c_bp_group:e</title>
<path fill="none" stroke="black" d="M216.07,-72.65C162.03,-115.25 258.02,-436 181,-436"/>
<polygon fill="black" stroke="black" points="222.41,-70.54 231.14,-71.41 226.21,-69.27 230,-68 230,-68 230,-68 226.21,-69.27 228.86,-64.59 222.41,-70.54 222.41,-70.54"/>
<ellipse fill="none" stroke="black" cx="219.38" cy="-71.55" rx="3.2" ry="3.2"/>
</g>
<!-- t_itensnaovendidosaclientes -->
<g id="node5" class="node">
<title>t_itensnaovendidosaclientes</title>
<g id="a_node5"><a xlink:href="../../tables/t_itensnaovendidosaclientes.html" xlink:title="t_itensnaovendidosaclientes" target="_top">
<polygon fill="#ffffff" stroke="transparent" points="1020,-223 1020,-589 1256,-589 1256,-223 1020,-223"/>
<polygon fill="#f5f5f5" stroke="transparent" points="1020,-567 1020,-589 1256,-589 1256,-567 1020,-567"/>
<polygon fill="none" stroke="black" points="1020,-567 1020,-589 1256,-589 1256,-567 1020,-567"/>
<text text-anchor="start" x="1025" y="-576.2" font-family="Helvetica,sans-Serif" font-weight="bold" font-size="11.00">t_itensnaovendidosaclientes</text>
<text text-anchor="start" x="1221" y="-575.2" font-family="Helvetica,sans-Serif" font-size="11.00">[table]</text>
<polygon fill="none" stroke="black" points="1020,-545 1020,-567 1256,-567 1256,-545 1020,-545"/>
<image xlink:href="../../images/foreignKeys.png" width="11px" height="12px" preserveAspectRatio="xMinYMin meet" x="1025" y="-562"/>
<text text-anchor="start" x="1040" y="-553.2" font-family="Helvetica,sans-Serif" font-size="11.00">m_product_id</text>
<polygon fill="none" stroke="black" points="1020,-523 1020,-545 1256,-545 1256,-523 1020,-523"/>
<image xlink:href="../../images/foreignKeys.png" width="11px" height="12px" preserveAspectRatio="xMinYMin meet" x="1025" y="-540"/>
<text text-anchor="start" x="1040" y="-531.2" font-family="Helvetica,sans-Serif" font-size="11.00">m_product_category_id</text>
<polygon fill="none" stroke="black" points="1020,-501 1020,-523 1256,-523 1256,-501 1020,-501"/>
<image xlink:href="../../images/foreignKeys.png" width="11px" height="12px" preserveAspectRatio="xMinYMin meet" x="1025" y="-518"/>
<text text-anchor="start" x="1040" y="-509.2" font-family="Helvetica,sans-Serif" font-size="11.00">c_bpartner_id</text>
<polygon fill="none" stroke="black" points="1020,-479 1020,-501 1256,-501 1256,-479 1020,-479"/>
<image xlink:href="../../images/foreignKeys.png" width="11px" height="12px" preserveAspectRatio="xMinYMin meet" x="1025" y="-496"/>
<text text-anchor="start" x="1040" y="-487.2" font-family="Helvetica,sans-Serif" font-size="11.00">salesrep_id</text>
<polygon fill="none" stroke="black" points="1020,-457 1020,-479 1256,-479 1256,-457 1020,-457"/>
<image xlink:href="../../images/foreignKeys.png" width="11px" height="12px" preserveAspectRatio="xMinYMin meet" x="1025" y="-474"/>
<text text-anchor="start" x="1040" y="-465.2" font-family="Helvetica,sans-Serif" font-size="11.00">c_bp_group_id</text>
<polygon fill="none" stroke="black" points="1020,-435 1020,-457 1256,-457 1256,-435 1020,-435"/>
<image xlink:href="../../images/foreignKeys.png" width="11px" height="12px" preserveAspectRatio="xMinYMin meet" x="1025" y="-452"/>
<text text-anchor="start" x="1040" y="-443.2" font-family="Helvetica,sans-Serif" font-size="11.00">cof_producttype_id</text>
<polygon fill="none" stroke="black" points="1020,-413 1020,-435 1256,-435 1256,-413 1020,-413"/>
<image xlink:href="../../images/foreignKeys.png" width="11px" height="12px" preserveAspectRatio="xMinYMin meet" x="1025" y="-430"/>
<text text-anchor="start" x="1040" y="-421.2" font-family="Helvetica,sans-Serif" font-size="11.00">cof_productclass_id</text>
<polygon fill="none" stroke="black" points="1020,-391 1020,-413 1256,-413 1256,-391 1020,-391"/>
<image xlink:href="../../images/foreignKeys.png" width="11px" height="12px" preserveAspectRatio="xMinYMin meet" x="1025" y="-408"/>
<text text-anchor="start" x="1040" y="-399.2" font-family="Helvetica,sans-Serif" font-size="11.00">cof_productgroup_id</text>
<polygon fill="none" stroke="black" points="1020,-369 1020,-391 1256,-391 1256,-369 1020,-369"/>
<image xlink:href="../../images/foreignKeys.png" width="11px" height="12px" preserveAspectRatio="xMinYMin meet" x="1025" y="-386"/>
<text text-anchor="start" x="1040" y="-377.2" font-family="Helvetica,sans-Serif" font-size="11.00">ad_pinstance_id</text>
<polygon fill="none" stroke="black" points="1020,-347 1020,-369 1256,-369 1256,-347 1020,-347"/>
<image xlink:href="../../images/foreignKeys.png" width="11px" height="12px" preserveAspectRatio="xMinYMin meet" x="1025" y="-364"/>
<text text-anchor="start" x="1040" y="-355.2" font-family="Helvetica,sans-Serif" font-size="11.00">c_uom_id</text>
<polygon fill="#ffffff" stroke="transparent" points="1020,-325 1020,-347 1256,-347 1256,-325 1020,-325"/>
<polygon fill="none" stroke="black" points="1020,-325 1020,-347 1256,-347 1256,-325 1020,-325"/>
<text text-anchor="start" x="1040" y="-333.2" font-family="Helvetica,sans-Serif" font-size="11.00">t_itensnaovendidosaclientes_uu</text>
<polygon fill="none" stroke="black" points="1020,-303 1020,-325 1256,-325 1256,-303 1020,-303"/>
<image xlink:href="../../images/foreignKeys.png" width="11px" height="12px" preserveAspectRatio="xMinYMin meet" x="1025" y="-320"/>
<text text-anchor="start" x="1040" y="-311.2" font-family="Helvetica,sans-Serif" font-size="11.00">cof_grupofornecedor_id</text>
<polygon fill="none" stroke="black" points="1020,-281 1020,-303 1256,-303 1256,-281 1020,-281"/>
<image xlink:href="../../images/foreignKeys.png" width="11px" height="12px" preserveAspectRatio="xMinYMin meet" x="1025" y="-298"/>
<text text-anchor="start" x="1040" y="-289.2" font-family="Helvetica,sans-Serif" font-size="11.00">cof_tipoparceiro_id</text>
<polygon fill="none" stroke="black" points="1020,-259 1020,-281 1256,-281 1256,-259 1020,-259"/>
<image xlink:href="../../images/foreignKeys.png" width="11px" height="12px" preserveAspectRatio="xMinYMin meet" x="1025" y="-276"/>
<text text-anchor="start" x="1040" y="-267.2" font-family="Helvetica,sans-Serif" font-size="11.00">cof_classeparceiro_id</text>
<polygon fill="none" stroke="black" points="1020,-241 1020,-259 1256,-259 1256,-241 1020,-241"/>
<text text-anchor="start" x="1023" y="-247.2" font-family="Helvetica,sans-Serif" font-size="11.00">...</text>
<polygon fill="#ffffff" stroke="transparent" points="1020,-223 1020,-241 1126,-241 1126,-223 1020,-223"/>
<polygon fill="none" stroke="black" points="1020,-223 1020,-241 1126,-241 1126,-223 1020,-223"/>
<text text-anchor="start" x="1023" y="-229.2" font-family="Helvetica,sans-Serif" font-size="11.00">&lt; 13</text>
<polygon fill="#ffffff" stroke="transparent" points="1126,-223 1126,-241 1204,-241 1204,-223 1126,-223"/>
<polygon fill="none" stroke="black" points="1126,-223 1126,-241 1204,-241 1204,-223 1126,-223"/>
<text text-anchor="start" x="1168" y="-229.2" font-family="Helvetica,sans-Serif" font-size="11.00">0 rows</text>
<polygon fill="#ffffff" stroke="transparent" points="1204,-223 1204,-241 1256,-241 1256,-223 1204,-223"/>
<polygon fill="none" stroke="black" points="1204,-223 1204,-241 1256,-241 1256,-223 1204,-223"/>
<text text-anchor="start" x="1246" y="-229.2" font-family="Helvetica,sans-Serif" font-size="11.00"> &#160;</text>
</a>
</g>
</g>
<!-- t_itensnaovendidosaclientes&#45;&gt;c_bpartner -->
<g id="edge8" class="edge">
<title>t_itensnaovendidosaclientes:w&#45;&gt;c_bpartner:e</title>
<path fill="none" stroke="black" d="M1004.51,-512.56C732.3,-534.56 1272.09,-1197 972,-1197"/>
<polygon fill="black" stroke="black" points="1011.01,-512.31 1019.14,-515.6 1015,-512.15 1019,-512 1019,-512 1019,-512 1015,-512.15 1018.86,-508.4 1011.01,-512.31 1011.01,-512.31"/>
<ellipse fill="none" stroke="black" cx="1007.81" cy="-512.43" rx="3.2" ry="3.2"/>
</g>
<!-- t_itensnaovendidosaclientes&#45;&gt;c_bp_group -->
<g id="edge7" class="edge">
<title>t_itensnaovendidosaclientes:w&#45;&gt;c_bp_group:e</title>
<path fill="none" stroke="black" d="M1004.4,-467.98C643.79,-467.16 548.8,-436 181,-436"/>
<polygon fill="black" stroke="black" points="1011,-467.99 1019,-471.6 1015,-468 1019,-468 1019,-468 1019,-468 1015,-468 1019,-464.4 1011,-467.99 1011,-467.99"/>
<ellipse fill="none" stroke="black" cx="1007.8" cy="-467.99" rx="3.2" ry="3.2"/>
</g>
<!-- t_itensnaovendidosaclientes&#45;&gt;cof_classeparceiro -->
<g id="edge9" class="edge">
<title>t_itensnaovendidosaclientes:w&#45;&gt;cof_classeparceiro:e</title>
<path fill="none" stroke="black" d="M1004.36,-270.34C861.81,-277.1 837.71,-382 687,-382"/>
<polygon fill="black" stroke="black" points="1011,-270.19 1019.08,-273.6 1015,-270.09 1019,-270 1019,-270 1019,-270 1015,-270.09 1018.92,-266.4 1011,-270.19 1011,-270.19"/>
<ellipse fill="none" stroke="black" cx="1007.8" cy="-270.26" rx="3.2" ry="3.2"/>
</g>
<!-- t_itensnaovendidosaclientes&#45;&gt;cof_tipoparceiro -->
<g id="edge10" class="edge">
<title>t_itensnaovendidosaclientes:w&#45;&gt;cof_tipoparceiro:e</title>
<path fill="none" stroke="black" d="M1004.94,-288.17C996.81,-282.93 992.59,-273.77 979,-270 856.86,-236.1 820.74,-261.44 694,-259 612.24,-257.42 580.79,-218.06 510,-259 477.6,-277.74 505.43,-332 468,-332"/>
<polygon fill="black" stroke="black" points="1011.28,-289.9 1018.05,-295.47 1015.14,-290.95 1019,-292 1019,-292 1019,-292 1015.14,-290.95 1019.95,-288.53 1011.28,-289.9 1011.28,-289.9"/>
<ellipse fill="none" stroke="black" cx="1008.19" cy="-289.05" rx="3.2" ry="3.2"/>
</g>
</g>
</svg>
