<?xml version="1.0" encoding="UTF-8" standalone="no"?>
<!DOCTYPE svg PUBLIC "-//W3C//DTD SVG 1.1//EN"
 "http://www.w3.org/Graphics/SVG/1.1/DTD/svg11.dtd">
<!-- Generated by graphviz version 2.43.0 (0)
 -->
<!-- Title: oneDegreeRelationshipsDiagram Pages: 1 -->
<svg width="671pt" height="483pt"
 viewBox="0.00 0.00 671.00 483.00" xmlns="http://www.w3.org/2000/svg" xmlns:xlink="http://www.w3.org/1999/xlink">
<g id="graph0" class="graph" transform="scale(1 1) rotate(0) translate(4 479)">
<title>oneDegreeRelationshipsDiagram</title>
<polygon fill="#ffffff" stroke="transparent" points="-4,4 -4,-479 667,-479 667,4 -4,4"/>
<text text-anchor="middle" x="71.5" y="-7.2" font-family="Helvetica,sans-Serif" font-size="11.00">Generated by SchemaSpy</text>
<!-- cof_registrocorrecaoblocok275 -->
<g id="node1" class="node">
<title>cof_registrocorrecaoblocok275</title>
<g id="a_node1"><a xlink:href="../../tables/cof_registrocorrecaoblocok275.html" xlink:title="cof_registrocorrecaoblocok275" target="_top">
<polygon fill="#ffffff" stroke="transparent" points="316,-97 316,-471 655,-471 655,-97 316,-97"/>
<polygon fill="#f5f5f5" stroke="transparent" points="318.5,-447 318.5,-469 653.5,-469 653.5,-447 318.5,-447"/>
<polygon fill="none" stroke="black" points="318.5,-447 318.5,-469 653.5,-469 653.5,-447 318.5,-447"/>
<text text-anchor="start" x="323.5" y="-456.2" font-family="Helvetica,sans-Serif" font-weight="bold" font-size="11.00">cof_registrocorrecaoblocok275</text>
<text text-anchor="start" x="618.5" y="-455.2" font-family="Helvetica,sans-Serif" font-size="11.00">[table]</text>
<polygon fill="none" stroke="black" points="318.5,-425 318.5,-447 570.5,-447 570.5,-425 318.5,-425"/>
<image xlink:href="../../images/primaryKeys.png" width="11px" height="12px" preserveAspectRatio="xMinYMin meet" x="323.5" y="-442"/>
<text text-anchor="start" x="338.5" y="-433.2" font-family="Helvetica,sans-Serif" font-size="11.00">cof_registrocorrecaoblocok275_id</text>
<polygon fill="none" stroke="black" points="570.5,-425 570.5,-447 653.5,-447 653.5,-425 570.5,-425"/>
<text text-anchor="start" x="573.5" y="-433.2" font-family="Helvetica,sans-Serif" font-size="11.00">numeric[10]</text>
<polygon fill="#ffffff" stroke="transparent" points="318.5,-403 318.5,-425 570.5,-425 570.5,-403 318.5,-403"/>
<polygon fill="none" stroke="black" points="318.5,-403 318.5,-425 570.5,-425 570.5,-403 318.5,-403"/>
<text text-anchor="start" x="338.5" y="-411.2" font-family="Helvetica,sans-Serif" font-size="11.00">cof_registrocorrecaoblocok275_uu</text>
<polygon fill="none" stroke="black" points="570.5,-403 570.5,-425 653.5,-425 653.5,-403 570.5,-403"/>
<text text-anchor="start" x="573.5" y="-411.2" font-family="Helvetica,sans-Serif" font-size="11.00">varchar[36]</text>
<polygon fill="none" stroke="black" points="318.5,-381 318.5,-403 570.5,-403 570.5,-381 318.5,-381"/>
<text text-anchor="start" x="338.5" y="-389.2" font-family="Helvetica,sans-Serif" font-size="11.00">ad_client_id</text>
<polygon fill="none" stroke="black" points="570.5,-381 570.5,-403 653.5,-403 653.5,-381 570.5,-381"/>
<text text-anchor="start" x="573.5" y="-389.2" font-family="Helvetica,sans-Serif" font-size="11.00">numeric[10]</text>
<polygon fill="none" stroke="black" points="318.5,-359 318.5,-381 570.5,-381 570.5,-359 318.5,-359"/>
<text text-anchor="start" x="338.5" y="-367.2" font-family="Helvetica,sans-Serif" font-size="11.00">ad_org_id</text>
<polygon fill="none" stroke="black" points="570.5,-359 570.5,-381 653.5,-381 653.5,-359 570.5,-359"/>
<text text-anchor="start" x="573.5" y="-367.2" font-family="Helvetica,sans-Serif" font-size="11.00">numeric[10]</text>
<polygon fill="none" stroke="black" points="318.5,-337 318.5,-359 570.5,-359 570.5,-337 318.5,-337"/>
<text text-anchor="start" x="338.5" y="-345.2" font-family="Helvetica,sans-Serif" font-size="11.00">isactive</text>
<polygon fill="none" stroke="black" points="570.5,-337 570.5,-359 653.5,-359 653.5,-337 570.5,-337"/>
<text text-anchor="start" x="573.5" y="-345.2" font-family="Helvetica,sans-Serif" font-size="11.00">bpchar[1]</text>
<polygon fill="none" stroke="black" points="318.5,-315 318.5,-337 570.5,-337 570.5,-315 318.5,-315"/>
<text text-anchor="start" x="338.5" y="-323.2" font-family="Helvetica,sans-Serif" font-size="11.00">created</text>
<polygon fill="none" stroke="black" points="570.5,-315 570.5,-337 653.5,-337 653.5,-315 570.5,-315"/>
<text text-anchor="start" x="573.5" y="-323.2" font-family="Helvetica,sans-Serif" font-size="11.00">timestamp[29,6]</text>
<polygon fill="none" stroke="black" points="318.5,-293 318.5,-315 570.5,-315 570.5,-293 318.5,-293"/>
<text text-anchor="start" x="338.5" y="-301.2" font-family="Helvetica,sans-Serif" font-size="11.00">createdby</text>
<polygon fill="none" stroke="black" points="570.5,-293 570.5,-315 653.5,-315 653.5,-293 570.5,-293"/>
<text text-anchor="start" x="573.5" y="-301.2" font-family="Helvetica,sans-Serif" font-size="11.00">numeric[10]</text>
<polygon fill="none" stroke="black" points="318.5,-271 318.5,-293 570.5,-293 570.5,-271 318.5,-271"/>
<text text-anchor="start" x="338.5" y="-279.2" font-family="Helvetica,sans-Serif" font-size="11.00">updated</text>
<polygon fill="none" stroke="black" points="570.5,-271 570.5,-293 653.5,-293 653.5,-271 570.5,-271"/>
<text text-anchor="start" x="573.5" y="-279.2" font-family="Helvetica,sans-Serif" font-size="11.00">timestamp[29,6]</text>
<polygon fill="none" stroke="black" points="318.5,-249 318.5,-271 570.5,-271 570.5,-249 318.5,-249"/>
<text text-anchor="start" x="338.5" y="-257.2" font-family="Helvetica,sans-Serif" font-size="11.00">updatedby</text>
<polygon fill="none" stroke="black" points="570.5,-249 570.5,-271 653.5,-271 653.5,-249 570.5,-249"/>
<text text-anchor="start" x="573.5" y="-257.2" font-family="Helvetica,sans-Serif" font-size="11.00">numeric[10]</text>
<polygon fill="none" stroke="black" points="318.5,-227 318.5,-249 570.5,-249 570.5,-227 318.5,-227"/>
<text text-anchor="start" x="338.5" y="-235.2" font-family="Helvetica,sans-Serif" font-size="11.00">k275_cod_item</text>
<polygon fill="none" stroke="black" points="570.5,-227 570.5,-249 653.5,-249 653.5,-227 570.5,-227"/>
<text text-anchor="start" x="573.5" y="-235.2" font-family="Helvetica,sans-Serif" font-size="11.00">varchar[60]</text>
<polygon fill="none" stroke="black" points="318.5,-205 318.5,-227 570.5,-227 570.5,-205 318.5,-205"/>
<text text-anchor="start" x="338.5" y="-213.2" font-family="Helvetica,sans-Serif" font-size="11.00">k275_qtd_cor_pos</text>
<polygon fill="none" stroke="black" points="570.5,-205 570.5,-227 653.5,-227 653.5,-205 570.5,-205"/>
<text text-anchor="start" x="573.5" y="-213.2" font-family="Helvetica,sans-Serif" font-size="11.00">numeric[0]</text>
<polygon fill="none" stroke="black" points="318.5,-183 318.5,-205 570.5,-205 570.5,-183 318.5,-183"/>
<text text-anchor="start" x="338.5" y="-191.2" font-family="Helvetica,sans-Serif" font-size="11.00">k275_qtd_cor_neg</text>
<polygon fill="none" stroke="black" points="570.5,-183 570.5,-205 653.5,-205 653.5,-183 570.5,-183"/>
<text text-anchor="start" x="573.5" y="-191.2" font-family="Helvetica,sans-Serif" font-size="11.00">numeric[0]</text>
<polygon fill="none" stroke="black" points="318.5,-161 318.5,-183 570.5,-183 570.5,-161 318.5,-161"/>
<text text-anchor="start" x="338.5" y="-169.2" font-family="Helvetica,sans-Serif" font-size="11.00">k275_cod_ins_subst</text>
<polygon fill="none" stroke="black" points="570.5,-161 570.5,-183 653.5,-183 653.5,-161 570.5,-161"/>
<text text-anchor="start" x="573.5" y="-169.2" font-family="Helvetica,sans-Serif" font-size="11.00">varchar[60]</text>
<polygon fill="none" stroke="black" points="318.5,-139 318.5,-161 570.5,-161 570.5,-139 318.5,-139"/>
<image xlink:href="../../images/foreignKeys.png" width="11px" height="12px" preserveAspectRatio="xMinYMin meet" x="323.5" y="-156"/>
<text text-anchor="start" x="338.5" y="-147.2" font-family="Helvetica,sans-Serif" font-size="11.00">cof_registrocorrecaoblocok270_id</text>
<polygon fill="none" stroke="black" points="570.5,-139 570.5,-161 653.5,-161 653.5,-139 570.5,-139"/>
<text text-anchor="start" x="573.5" y="-147.2" font-family="Helvetica,sans-Serif" font-size="11.00">numeric[10]</text>
<polygon fill="none" stroke="black" points="318.5,-117 318.5,-139 570.5,-139 570.5,-117 318.5,-117"/>
<text text-anchor="start" x="338.5" y="-125.2" font-family="Helvetica,sans-Serif" font-size="11.00">cof_registrocorrecaoblocok2_uu</text>
<polygon fill="none" stroke="black" points="570.5,-117 570.5,-139 653.5,-139 653.5,-117 570.5,-117"/>
<text text-anchor="start" x="573.5" y="-125.2" font-family="Helvetica,sans-Serif" font-size="11.00">varchar[36]</text>
<polygon fill="#ffffff" stroke="transparent" points="318.5,-99 318.5,-117 435.5,-117 435.5,-99 318.5,-99"/>
<polygon fill="none" stroke="black" points="318.5,-99 318.5,-117 435.5,-117 435.5,-99 318.5,-99"/>
<text text-anchor="start" x="321.5" y="-105.2" font-family="Helvetica,sans-Serif" font-size="11.00">&lt; 1</text>
<polygon fill="#ffffff" stroke="transparent" points="435.5,-99 435.5,-117 570.5,-117 570.5,-99 435.5,-99"/>
<polygon fill="none" stroke="black" points="435.5,-99 435.5,-117 570.5,-117 570.5,-99 435.5,-99"/>
<text text-anchor="start" x="534.5" y="-105.2" font-family="Helvetica,sans-Serif" font-size="11.00">0 rows</text>
<polygon fill="#ffffff" stroke="transparent" points="570.5,-99 570.5,-117 653.5,-117 653.5,-99 570.5,-99"/>
<polygon fill="none" stroke="black" points="570.5,-99 570.5,-117 653.5,-117 653.5,-99 570.5,-99"/>
<text text-anchor="start" x="634.5" y="-105.2" font-family="Helvetica,sans-Serif" font-size="11.00">0 &gt;</text>
<polygon fill="none" stroke="black" stroke-width="2" points="317,-98 317,-470 654,-470 654,-98 317,-98"/>
</a>
</g>
</g>
<!-- cof_registrocorrecaoblocok270 -->
<g id="node2" class="node">
<title>cof_registrocorrecaoblocok270</title>
<g id="a_node2"><a xlink:href="../../tables/cof_registrocorrecaoblocok270.html" xlink:title="cof_registrocorrecaoblocok270" target="_top">
<polygon fill="#ffffff" stroke="transparent" points="8,-37 8,-183 267,-183 267,-37 8,-37"/>
<polygon fill="#f5f5f5" stroke="transparent" points="8.5,-161 8.5,-183 267.5,-183 267.5,-161 8.5,-161"/>
<polygon fill="none" stroke="black" points="8.5,-161 8.5,-183 267.5,-183 267.5,-161 8.5,-161"/>
<text text-anchor="start" x="13.5" y="-170.2" font-family="Helvetica,sans-Serif" font-weight="bold" font-size="11.00">cof_registrocorrecaoblocok270</text>
<text text-anchor="start" x="232.5" y="-169.2" font-family="Helvetica,sans-Serif" font-size="11.00">[table]</text>
<polygon fill="none" stroke="black" points="8.5,-139 8.5,-161 267.5,-161 267.5,-139 8.5,-139"/>
<image xlink:href="../../images/primaryKeys.png" width="11px" height="12px" preserveAspectRatio="xMinYMin meet" x="13.5" y="-156"/>
<text text-anchor="start" x="28.5" y="-147.2" font-family="Helvetica,sans-Serif" font-size="11.00">cof_registrocorrecaoblocok270_id</text>
<polygon fill="#ffffff" stroke="transparent" points="8.5,-117 8.5,-139 267.5,-139 267.5,-117 8.5,-117"/>
<polygon fill="none" stroke="black" points="8.5,-117 8.5,-139 267.5,-139 267.5,-117 8.5,-117"/>
<text text-anchor="start" x="28.5" y="-125.2" font-family="Helvetica,sans-Serif" font-size="11.00">cof_registrocorrecaoblocok270_uu</text>
<polygon fill="none" stroke="black" points="8.5,-95 8.5,-117 267.5,-117 267.5,-95 8.5,-95"/>
<image xlink:href="../../images/foreignKeys.png" width="11px" height="12px" preserveAspectRatio="xMinYMin meet" x="13.5" y="-112"/>
<text text-anchor="start" x="28.5" y="-103.2" font-family="Helvetica,sans-Serif" font-size="11.00">cof_correcaoapontamentoblocok_id</text>
<polygon fill="none" stroke="black" points="8.5,-73 8.5,-95 267.5,-95 267.5,-73 8.5,-73"/>
<image xlink:href="../../images/foreignKeys.png" width="11px" height="12px" preserveAspectRatio="xMinYMin meet" x="13.5" y="-90"/>
<text text-anchor="start" x="28.5" y="-81.2" font-family="Helvetica,sans-Serif" font-size="11.00">m_product_id</text>
<polygon fill="none" stroke="black" points="8.5,-55 8.5,-73 267.5,-73 267.5,-55 8.5,-55"/>
<text text-anchor="start" x="11.5" y="-61.2" font-family="Helvetica,sans-Serif" font-size="11.00">...</text>
<polygon fill="#ffffff" stroke="transparent" points="8.5,-37 8.5,-55 118.5,-55 118.5,-37 8.5,-37"/>
<polygon fill="none" stroke="black" points="8.5,-37 8.5,-55 118.5,-55 118.5,-37 8.5,-37"/>
<text text-anchor="start" x="11.5" y="-43.2" font-family="Helvetica,sans-Serif" font-size="11.00">&lt; 2</text>
<polygon fill="#ffffff" stroke="transparent" points="118.5,-37 118.5,-55 201.5,-55 201.5,-37 118.5,-37"/>
<polygon fill="none" stroke="black" points="118.5,-37 118.5,-55 201.5,-55 201.5,-37 118.5,-37"/>
<text text-anchor="start" x="165.5" y="-43.2" font-family="Helvetica,sans-Serif" font-size="11.00">0 rows</text>
<polygon fill="#ffffff" stroke="transparent" points="201.5,-37 201.5,-55 267.5,-55 267.5,-37 201.5,-37"/>
<polygon fill="none" stroke="black" points="201.5,-37 201.5,-55 267.5,-55 267.5,-37 201.5,-37"/>
<text text-anchor="start" x="248.5" y="-43.2" font-family="Helvetica,sans-Serif" font-size="11.00">1 &gt;</text>
</a>
</g>
</g>
<!-- cof_registrocorrecaoblocok275&#45;&gt;cof_registrocorrecaoblocok270 -->
<g id="edge1" class="edge">
<title>cof_registrocorrecaoblocok275:w&#45;&gt;cof_registrocorrecaoblocok270:e</title>
<path fill="none" stroke="black" d="M302.99,-150C291.68,-150 284.49,-150 268.5,-150"/>
<polygon fill="black" stroke="black" points="309.5,-150 317.5,-153.6 313.5,-150 317.5,-150 317.5,-150 317.5,-150 313.5,-150 317.5,-146.4 309.5,-150 309.5,-150"/>
<ellipse fill="none" stroke="black" cx="306.3" cy="-150" rx="3.2" ry="3.2"/>
</g>
</g>
</svg>
