<?xml version="1.0" encoding="UTF-8" standalone="no"?>
<!DOCTYPE svg PUBLIC "-//W3C//DTD SVG 1.1//EN"
 "http://www.w3.org/Graphics/SVG/1.1/DTD/svg11.dtd">
<!-- Generated by graphviz version 2.43.0 (0)
 -->
<!-- Title: oneDegreeRelationshipsDiagram Pages: 1 -->
<svg width="300pt" height="801pt"
 viewBox="0.00 0.00 300.00 801.00" xmlns="http://www.w3.org/2000/svg" xmlns:xlink="http://www.w3.org/1999/xlink">
<g id="graph0" class="graph" transform="scale(1 1) rotate(0) translate(4 797)">
<title>oneDegreeRelationshipsDiagram</title>
<polygon fill="#ffffff" stroke="transparent" points="-4,4 -4,-797 296,-797 296,4 -4,4"/>
<text text-anchor="middle" x="71.5" y="-7.2" font-family="Helvetica,sans-Serif" font-size="11.00">Generated by SchemaSpy</text>
<!-- cof_access -->
<g id="node1" class="node">
<title>cof_access</title>
<g id="a_node1"><a xlink:href="../../tables/cof_access.html" xlink:title="cof_access" target="_top">
<polygon fill="#ffffff" stroke="transparent" points="8,-37 8,-789 284,-789 284,-37 8,-37"/>
<polygon fill="#f5f5f5" stroke="transparent" points="10,-765 10,-787 282,-787 282,-765 10,-765"/>
<polygon fill="none" stroke="black" points="10,-765 10,-787 282,-787 282,-765 10,-765"/>
<text text-anchor="start" x="15" y="-774.2" font-family="Helvetica,sans-Serif" font-weight="bold" font-size="11.00">cof_access</text>
<text text-anchor="start" x="249" y="-773.2" font-family="Helvetica,sans-Serif" font-size="11.00">[view]</text>
<polygon fill="none" stroke="black" points="10,-743 10,-765 173,-765 173,-743 10,-743"/>
<text text-anchor="start" x="30" y="-751.2" font-family="Helvetica,sans-Serif" font-size="11.00">ad_client_id</text>
<polygon fill="none" stroke="black" points="173,-743 173,-765 282,-765 282,-743 173,-743"/>
<text text-anchor="start" x="176" y="-751.2" font-family="Helvetica,sans-Serif" font-size="11.00">numeric[10]</text>
<polygon fill="none" stroke="black" points="10,-721 10,-743 173,-743 173,-721 10,-721"/>
<text text-anchor="start" x="30" y="-729.2" font-family="Helvetica,sans-Serif" font-size="11.00">ad_org_id</text>
<polygon fill="none" stroke="black" points="173,-721 173,-743 282,-743 282,-721 173,-721"/>
<text text-anchor="start" x="176" y="-729.2" font-family="Helvetica,sans-Serif" font-size="11.00">numeric[10]</text>
<polygon fill="none" stroke="black" points="10,-699 10,-721 173,-721 173,-699 10,-699"/>
<image xlink:href="../../images/foreignKeys.png" width="11px" height="12px" preserveAspectRatio="xMinYMin meet" x="15" y="-716"/>
<text text-anchor="start" x="30" y="-707.2" font-family="Helvetica,sans-Serif" font-size="11.00">ad_role_id</text>
<polygon fill="none" stroke="black" points="173,-699 173,-721 282,-721 282,-699 173,-699"/>
<text text-anchor="start" x="176" y="-707.2" font-family="Helvetica,sans-Serif" font-size="11.00">numeric[10]</text>
<polygon fill="none" stroke="black" points="10,-677 10,-699 173,-699 173,-677 10,-677"/>
<text text-anchor="start" x="30" y="-685.2" font-family="Helvetica,sans-Serif" font-size="11.00">cof_tipoacesso</text>
<polygon fill="none" stroke="black" points="173,-677 173,-699 282,-699 282,-677 173,-677"/>
<text text-anchor="start" x="176" y="-685.2" font-family="Helvetica,sans-Serif" font-size="11.00">text[2147483647]</text>
<polygon fill="none" stroke="black" points="10,-655 10,-677 173,-677 173,-655 10,-655"/>
<text text-anchor="start" x="30" y="-663.2" font-family="Helvetica,sans-Serif" font-size="11.00">value</text>
<polygon fill="none" stroke="black" points="173,-655 173,-677 282,-677 282,-655 173,-655"/>
<text text-anchor="start" x="176" y="-663.2" font-family="Helvetica,sans-Serif" font-size="11.00">varchar[2147483647]</text>
<polygon fill="none" stroke="black" points="10,-633 10,-655 173,-655 173,-633 10,-633"/>
<image xlink:href="../../images/foreignKeys.png" width="11px" height="12px" preserveAspectRatio="xMinYMin meet" x="15" y="-650"/>
<text text-anchor="start" x="30" y="-641.2" font-family="Helvetica,sans-Serif" font-size="11.00">name</text>
<polygon fill="none" stroke="black" points="173,-633 173,-655 282,-655 282,-633 173,-633"/>
<text text-anchor="start" x="176" y="-641.2" font-family="Helvetica,sans-Serif" font-size="11.00">varchar[2147483647]</text>
<polygon fill="none" stroke="black" points="10,-611 10,-633 173,-633 173,-611 10,-611"/>
<text text-anchor="start" x="30" y="-619.2" font-family="Helvetica,sans-Serif" font-size="11.00">isactive</text>
<polygon fill="none" stroke="black" points="173,-611 173,-633 282,-633 282,-611 173,-611"/>
<text text-anchor="start" x="176" y="-619.2" font-family="Helvetica,sans-Serif" font-size="11.00">bpchar[1]</text>
<polygon fill="none" stroke="black" points="10,-589 10,-611 173,-611 173,-589 10,-589"/>
<text text-anchor="start" x="30" y="-597.2" font-family="Helvetica,sans-Serif" font-size="11.00">isreadwrite</text>
<polygon fill="none" stroke="black" points="173,-589 173,-611 282,-611 282,-589 173,-589"/>
<text text-anchor="start" x="176" y="-597.2" font-family="Helvetica,sans-Serif" font-size="11.00">bpchar[2147483647]</text>
<polygon fill="none" stroke="black" points="10,-567 10,-589 173,-589 173,-567 10,-567"/>
<text text-anchor="start" x="30" y="-575.2" font-family="Helvetica,sans-Serif" font-size="11.00">ismasterrole</text>
<polygon fill="none" stroke="black" points="173,-567 173,-589 282,-589 282,-567 173,-567"/>
<text text-anchor="start" x="176" y="-575.2" font-family="Helvetica,sans-Serif" font-size="11.00">bpchar[1]</text>
<polygon fill="none" stroke="black" points="10,-545 10,-567 173,-567 173,-545 10,-545"/>
<text text-anchor="start" x="30" y="-553.2" font-family="Helvetica,sans-Serif" font-size="11.00">ismanual</text>
<polygon fill="none" stroke="black" points="173,-545 173,-567 282,-567 282,-545 173,-545"/>
<text text-anchor="start" x="176" y="-553.2" font-family="Helvetica,sans-Serif" font-size="11.00">bpchar[1]</text>
<polygon fill="none" stroke="black" points="10,-523 10,-545 173,-545 173,-523 10,-523"/>
<text text-anchor="start" x="30" y="-531.2" font-family="Helvetica,sans-Serif" font-size="11.00">iscanapproveowndoc</text>
<polygon fill="none" stroke="black" points="173,-523 173,-545 282,-545 282,-523 173,-523"/>
<text text-anchor="start" x="176" y="-531.2" font-family="Helvetica,sans-Serif" font-size="11.00">bpchar[1]</text>
<polygon fill="none" stroke="black" points="10,-501 10,-523 173,-523 173,-501 10,-501"/>
<text text-anchor="start" x="30" y="-509.2" font-family="Helvetica,sans-Serif" font-size="11.00">isshowacct</text>
<polygon fill="none" stroke="black" points="173,-501 173,-523 282,-523 282,-501 173,-501"/>
<text text-anchor="start" x="176" y="-509.2" font-family="Helvetica,sans-Serif" font-size="11.00">bpchar[1]</text>
<polygon fill="none" stroke="black" points="10,-479 10,-501 173,-501 173,-479 10,-479"/>
<text text-anchor="start" x="30" y="-487.2" font-family="Helvetica,sans-Serif" font-size="11.00">iscanreport</text>
<polygon fill="none" stroke="black" points="173,-479 173,-501 282,-501 282,-479 173,-479"/>
<text text-anchor="start" x="176" y="-487.2" font-family="Helvetica,sans-Serif" font-size="11.00">bpchar[1]</text>
<polygon fill="none" stroke="black" points="10,-457 10,-479 173,-479 173,-457 10,-457"/>
<text text-anchor="start" x="30" y="-465.2" font-family="Helvetica,sans-Serif" font-size="11.00">ispersonallock</text>
<polygon fill="none" stroke="black" points="173,-457 173,-479 282,-479 282,-457 173,-457"/>
<text text-anchor="start" x="176" y="-465.2" font-family="Helvetica,sans-Serif" font-size="11.00">bpchar[1]</text>
<polygon fill="none" stroke="black" points="10,-435 10,-457 173,-457 173,-435 10,-435"/>
<text text-anchor="start" x="30" y="-443.2" font-family="Helvetica,sans-Serif" font-size="11.00">isaccessadvanced</text>
<polygon fill="none" stroke="black" points="173,-435 173,-457 282,-457 282,-435 173,-435"/>
<text text-anchor="start" x="176" y="-443.2" font-family="Helvetica,sans-Serif" font-size="11.00">bpchar[1]</text>
<polygon fill="none" stroke="black" points="10,-413 10,-435 173,-435 173,-413 10,-413"/>
<text text-anchor="start" x="30" y="-421.2" font-family="Helvetica,sans-Serif" font-size="11.00">overwritepricelimit</text>
<polygon fill="none" stroke="black" points="173,-413 173,-435 282,-435 282,-413 173,-413"/>
<text text-anchor="start" x="176" y="-421.2" font-family="Helvetica,sans-Serif" font-size="11.00">bpchar[1]</text>
<polygon fill="none" stroke="black" points="10,-391 10,-413 173,-413 173,-391 10,-391"/>
<text text-anchor="start" x="30" y="-399.2" font-family="Helvetica,sans-Serif" font-size="11.00">ischangelog</text>
<polygon fill="none" stroke="black" points="173,-391 173,-413 282,-413 282,-391 173,-391"/>
<text text-anchor="start" x="176" y="-399.2" font-family="Helvetica,sans-Serif" font-size="11.00">bpchar[1]</text>
<polygon fill="none" stroke="black" points="10,-369 10,-391 173,-391 173,-369 10,-369"/>
<text text-anchor="start" x="30" y="-377.2" font-family="Helvetica,sans-Serif" font-size="11.00">isaccessallorgs</text>
<polygon fill="none" stroke="black" points="173,-369 173,-391 282,-391 282,-369 173,-369"/>
<text text-anchor="start" x="176" y="-377.2" font-family="Helvetica,sans-Serif" font-size="11.00">bpchar[1]</text>
<polygon fill="none" stroke="black" points="10,-347 10,-369 173,-369 173,-347 10,-347"/>
<text text-anchor="start" x="30" y="-355.2" font-family="Helvetica,sans-Serif" font-size="11.00">isuseuserorgaccess</text>
<polygon fill="none" stroke="black" points="173,-347 173,-369 282,-369 282,-347 173,-347"/>
<text text-anchor="start" x="176" y="-355.2" font-family="Helvetica,sans-Serif" font-size="11.00">bpchar[1]</text>
<polygon fill="none" stroke="black" points="10,-325 10,-347 173,-347 173,-325 10,-325"/>
<text text-anchor="start" x="30" y="-333.2" font-family="Helvetica,sans-Serif" font-size="11.00">iscanexport</text>
<polygon fill="none" stroke="black" points="173,-325 173,-347 282,-347 282,-325 173,-325"/>
<text text-anchor="start" x="176" y="-333.2" font-family="Helvetica,sans-Serif" font-size="11.00">bpchar[1]</text>
<polygon fill="none" stroke="black" points="10,-303 10,-325 173,-325 173,-303 10,-303"/>
<text text-anchor="start" x="30" y="-311.2" font-family="Helvetica,sans-Serif" font-size="11.00">ispersonalaccess</text>
<polygon fill="none" stroke="black" points="173,-303 173,-325 282,-325 282,-303 173,-303"/>
<text text-anchor="start" x="176" y="-311.2" font-family="Helvetica,sans-Serif" font-size="11.00">bpchar[1]</text>
<polygon fill="none" stroke="black" points="10,-281 10,-303 173,-303 173,-281 10,-281"/>
<text text-anchor="start" x="30" y="-289.2" font-family="Helvetica,sans-Serif" font-size="11.00">ismenuautoexpand</text>
<polygon fill="none" stroke="black" points="173,-281 173,-303 282,-303 282,-281 173,-281"/>
<text text-anchor="start" x="176" y="-289.2" font-family="Helvetica,sans-Serif" font-size="11.00">bpchar[1]</text>
<polygon fill="none" stroke="black" points="10,-259 10,-281 173,-281 173,-259 10,-259"/>
<text text-anchor="start" x="30" y="-267.2" font-family="Helvetica,sans-Serif" font-size="11.00">allow_info_account</text>
<polygon fill="none" stroke="black" points="173,-259 173,-281 282,-281 282,-259 173,-259"/>
<text text-anchor="start" x="176" y="-267.2" font-family="Helvetica,sans-Serif" font-size="11.00">bpchar[1]</text>
<polygon fill="none" stroke="black" points="10,-237 10,-259 173,-259 173,-237 10,-237"/>
<text text-anchor="start" x="30" y="-245.2" font-family="Helvetica,sans-Serif" font-size="11.00">allow_info_schedule</text>
<polygon fill="none" stroke="black" points="173,-237 173,-259 282,-259 282,-237 173,-237"/>
<text text-anchor="start" x="176" y="-245.2" font-family="Helvetica,sans-Serif" font-size="11.00">bpchar[1]</text>
<polygon fill="none" stroke="black" points="10,-215 10,-237 173,-237 173,-215 10,-215"/>
<text text-anchor="start" x="30" y="-223.2" font-family="Helvetica,sans-Serif" font-size="11.00">cof_rolelevel</text>
<polygon fill="none" stroke="black" points="173,-215 173,-237 282,-237 282,-215 173,-215"/>
<text text-anchor="start" x="176" y="-223.2" font-family="Helvetica,sans-Serif" font-size="11.00">varchar[3]</text>
<polygon fill="none" stroke="black" points="10,-193 10,-215 173,-215 173,-193 10,-193"/>
<text text-anchor="start" x="30" y="-201.2" font-family="Helvetica,sans-Serif" font-size="11.00">ad_user_id</text>
<polygon fill="none" stroke="black" points="173,-193 173,-215 282,-215 282,-193 173,-193"/>
<text text-anchor="start" x="176" y="-201.2" font-family="Helvetica,sans-Serif" font-size="11.00">numeric[0]</text>
<polygon fill="none" stroke="black" points="10,-171 10,-193 173,-193 173,-171 10,-171"/>
<text text-anchor="start" x="30" y="-179.2" font-family="Helvetica,sans-Serif" font-size="11.00">ad_window_id</text>
<polygon fill="none" stroke="black" points="173,-171 173,-193 282,-193 282,-171 173,-171"/>
<text text-anchor="start" x="176" y="-179.2" font-family="Helvetica,sans-Serif" font-size="11.00">numeric[0]</text>
<polygon fill="none" stroke="black" points="10,-149 10,-171 173,-171 173,-149 10,-149"/>
<text text-anchor="start" x="30" y="-157.2" font-family="Helvetica,sans-Serif" font-size="11.00">ad_process_id</text>
<polygon fill="none" stroke="black" points="173,-149 173,-171 282,-171 282,-149 173,-149"/>
<text text-anchor="start" x="176" y="-157.2" font-family="Helvetica,sans-Serif" font-size="11.00">numeric[0]</text>
<polygon fill="none" stroke="black" points="10,-127 10,-149 173,-149 173,-127 10,-127"/>
<text text-anchor="start" x="30" y="-135.2" font-family="Helvetica,sans-Serif" font-size="11.00">ad_form_id</text>
<polygon fill="none" stroke="black" points="173,-127 173,-149 282,-149 282,-127 173,-127"/>
<text text-anchor="start" x="176" y="-135.2" font-family="Helvetica,sans-Serif" font-size="11.00">numeric[0]</text>
<polygon fill="none" stroke="black" points="10,-105 10,-127 173,-127 173,-105 10,-105"/>
<text text-anchor="start" x="30" y="-113.2" font-family="Helvetica,sans-Serif" font-size="11.00">ad_infowindow_id</text>
<polygon fill="none" stroke="black" points="173,-105 173,-127 282,-127 282,-105 173,-105"/>
<text text-anchor="start" x="176" y="-113.2" font-family="Helvetica,sans-Serif" font-size="11.00">numeric[0]</text>
<polygon fill="none" stroke="black" points="10,-83 10,-105 173,-105 173,-83 10,-83"/>
<text text-anchor="start" x="30" y="-91.2" font-family="Helvetica,sans-Serif" font-size="11.00">ad_workflow_id</text>
<polygon fill="none" stroke="black" points="173,-83 173,-105 282,-105 282,-83 173,-83"/>
<text text-anchor="start" x="176" y="-91.2" font-family="Helvetica,sans-Serif" font-size="11.00">numeric[0]</text>
<polygon fill="none" stroke="black" points="10,-61 10,-83 173,-83 173,-61 10,-61"/>
<text text-anchor="start" x="30" y="-69.2" font-family="Helvetica,sans-Serif" font-size="11.00">ad_task_id</text>
<polygon fill="none" stroke="black" points="173,-61 173,-83 282,-83 282,-61 173,-61"/>
<text text-anchor="start" x="176" y="-69.2" font-family="Helvetica,sans-Serif" font-size="11.00">numeric[0]</text>
<polygon fill="none" stroke="black" points="10,-39 10,-61 173,-61 173,-39 10,-39"/>
<text text-anchor="start" x="30" y="-47.2" font-family="Helvetica,sans-Serif" font-size="11.00">c_doctype_id</text>
<polygon fill="none" stroke="black" points="173,-39 173,-61 282,-61 282,-39 173,-39"/>
<text text-anchor="start" x="176" y="-47.2" font-family="Helvetica,sans-Serif" font-size="11.00">numeric[0]</text>
<polygon fill="none" stroke="black" stroke-width="2" points="9,-38 9,-788 283,-788 283,-38 9,-38"/>
</a>
</g>
</g>
</g>
</svg>
