<?xml version="1.0" encoding="UTF-8" standalone="no"?>
<!DOCTYPE svg PUBLIC "-//W3C//DTD SVG 1.1//EN"
 "http://www.w3.org/Graphics/SVG/1.1/DTD/svg11.dtd">
<!-- Generated by graphviz version 2.43.0 (0)
 -->
<!-- Title: oneDegreeRelationshipsDiagram Pages: 1 -->
<svg width="607pt" height="656pt"
 viewBox="0.00 0.00 607.00 656.00" xmlns="http://www.w3.org/2000/svg" xmlns:xlink="http://www.w3.org/1999/xlink">
<g id="graph0" class="graph" transform="scale(1 1) rotate(0) translate(4 652)">
<title>oneDegreeRelationshipsDiagram</title>
<polygon fill="#ffffff" stroke="transparent" points="-4,4 -4,-652 603,-652 603,4 -4,4"/>
<text text-anchor="middle" x="71.5" y="-7.2" font-family="Helvetica,sans-Serif" font-size="11.00">Generated by SchemaSpy</text>
<!-- cof_c_taxclassificationline -->
<g id="node1" class="node">
<title>cof_c_taxclassificationline</title>
<g id="a_node1"><a xlink:href="../../tables/cof_c_taxclassificationline.html" xlink:title="cof_c_taxclassificationline" target="_top">
<polygon fill="#ffffff" stroke="transparent" points="283,-270 283,-644 591,-644 591,-270 283,-270"/>
<polygon fill="#f5f5f5" stroke="transparent" points="285,-620 285,-642 589,-642 589,-620 285,-620"/>
<polygon fill="none" stroke="black" points="285,-620 285,-642 589,-642 589,-620 285,-620"/>
<text text-anchor="start" x="290" y="-629.2" font-family="Helvetica,sans-Serif" font-weight="bold" font-size="11.00">cof_c_taxclassificationline</text>
<text text-anchor="start" x="554" y="-628.2" font-family="Helvetica,sans-Serif" font-size="11.00">[table]</text>
<polygon fill="none" stroke="black" points="285,-598 285,-620 506,-620 506,-598 285,-598"/>
<image xlink:href="../../images/primaryKeys.png" width="11px" height="12px" preserveAspectRatio="xMinYMin meet" x="290" y="-615"/>
<text text-anchor="start" x="305" y="-606.2" font-family="Helvetica,sans-Serif" font-size="11.00">cof_c_taxclassificationline_id</text>
<polygon fill="none" stroke="black" points="506,-598 506,-620 589,-620 589,-598 506,-598"/>
<text text-anchor="start" x="509" y="-606.2" font-family="Helvetica,sans-Serif" font-size="11.00">numeric[10]</text>
<polygon fill="#ffffff" stroke="transparent" points="285,-576 285,-598 506,-598 506,-576 285,-576"/>
<polygon fill="none" stroke="black" points="285,-576 285,-598 506,-598 506,-576 285,-576"/>
<text text-anchor="start" x="305" y="-584.2" font-family="Helvetica,sans-Serif" font-size="11.00">cof_c_taxclassificationline_uu</text>
<polygon fill="none" stroke="black" points="506,-576 506,-598 589,-598 589,-576 506,-576"/>
<text text-anchor="start" x="509" y="-584.2" font-family="Helvetica,sans-Serif" font-size="11.00">varchar[36]</text>
<polygon fill="none" stroke="black" points="285,-554 285,-576 506,-576 506,-554 285,-554"/>
<text text-anchor="start" x="305" y="-562.2" font-family="Helvetica,sans-Serif" font-size="11.00">ad_client_id</text>
<polygon fill="none" stroke="black" points="506,-554 506,-576 589,-576 589,-554 506,-554"/>
<text text-anchor="start" x="509" y="-562.2" font-family="Helvetica,sans-Serif" font-size="11.00">numeric[10]</text>
<polygon fill="none" stroke="black" points="285,-532 285,-554 506,-554 506,-532 285,-532"/>
<text text-anchor="start" x="305" y="-540.2" font-family="Helvetica,sans-Serif" font-size="11.00">ad_org_id</text>
<polygon fill="none" stroke="black" points="506,-532 506,-554 589,-554 589,-532 506,-532"/>
<text text-anchor="start" x="509" y="-540.2" font-family="Helvetica,sans-Serif" font-size="11.00">numeric[10]</text>
<polygon fill="none" stroke="black" points="285,-510 285,-532 506,-532 506,-510 285,-510"/>
<text text-anchor="start" x="305" y="-518.2" font-family="Helvetica,sans-Serif" font-size="11.00">isactive</text>
<polygon fill="none" stroke="black" points="506,-510 506,-532 589,-532 589,-510 506,-510"/>
<text text-anchor="start" x="509" y="-518.2" font-family="Helvetica,sans-Serif" font-size="11.00">bpchar[1]</text>
<polygon fill="none" stroke="black" points="285,-488 285,-510 506,-510 506,-488 285,-488"/>
<text text-anchor="start" x="305" y="-496.2" font-family="Helvetica,sans-Serif" font-size="11.00">created</text>
<polygon fill="none" stroke="black" points="506,-488 506,-510 589,-510 589,-488 506,-488"/>
<text text-anchor="start" x="509" y="-496.2" font-family="Helvetica,sans-Serif" font-size="11.00">timestamp[29,6]</text>
<polygon fill="none" stroke="black" points="285,-466 285,-488 506,-488 506,-466 285,-466"/>
<text text-anchor="start" x="305" y="-474.2" font-family="Helvetica,sans-Serif" font-size="11.00">createdby</text>
<polygon fill="none" stroke="black" points="506,-466 506,-488 589,-488 589,-466 506,-466"/>
<text text-anchor="start" x="509" y="-474.2" font-family="Helvetica,sans-Serif" font-size="11.00">numeric[10]</text>
<polygon fill="none" stroke="black" points="285,-444 285,-466 506,-466 506,-444 285,-444"/>
<text text-anchor="start" x="305" y="-452.2" font-family="Helvetica,sans-Serif" font-size="11.00">updated</text>
<polygon fill="none" stroke="black" points="506,-444 506,-466 589,-466 589,-444 506,-444"/>
<text text-anchor="start" x="509" y="-452.2" font-family="Helvetica,sans-Serif" font-size="11.00">timestamp[29,6]</text>
<polygon fill="none" stroke="black" points="285,-422 285,-444 506,-444 506,-422 285,-422"/>
<text text-anchor="start" x="305" y="-430.2" font-family="Helvetica,sans-Serif" font-size="11.00">updatedby</text>
<polygon fill="none" stroke="black" points="506,-422 506,-444 589,-444 589,-422 506,-422"/>
<text text-anchor="start" x="509" y="-430.2" font-family="Helvetica,sans-Serif" font-size="11.00">numeric[10]</text>
<polygon fill="none" stroke="black" points="285,-400 285,-422 506,-422 506,-400 285,-400"/>
<image xlink:href="../../images/foreignKeys.png" width="11px" height="12px" preserveAspectRatio="xMinYMin meet" x="290" y="-417"/>
<text text-anchor="start" x="305" y="-408.2" font-family="Helvetica,sans-Serif" font-size="11.00">cof_c_taxclassification_id</text>
<polygon fill="none" stroke="black" points="506,-400 506,-422 589,-422 589,-400 506,-400"/>
<text text-anchor="start" x="509" y="-408.2" font-family="Helvetica,sans-Serif" font-size="11.00">numeric[10]</text>
<polygon fill="none" stroke="black" points="285,-378 285,-400 506,-400 506,-378 285,-378"/>
<image xlink:href="../../images/foreignKeys.png" width="11px" height="12px" preserveAspectRatio="xMinYMin meet" x="290" y="-395"/>
<text text-anchor="start" x="305" y="-386.2" font-family="Helvetica,sans-Serif" font-size="11.00">lbr_taxstatus_id</text>
<polygon fill="none" stroke="black" points="506,-378 506,-400 589,-400 589,-378 506,-378"/>
<text text-anchor="start" x="509" y="-386.2" font-family="Helvetica,sans-Serif" font-size="11.00">numeric[10]</text>
<polygon fill="none" stroke="black" points="285,-356 285,-378 506,-378 506,-356 285,-356"/>
<text text-anchor="start" x="305" y="-364.2" font-family="Helvetica,sans-Serif" font-size="11.00">cof_operationtype</text>
<polygon fill="none" stroke="black" points="506,-356 506,-378 589,-378 589,-356 506,-356"/>
<text text-anchor="start" x="509" y="-364.2" font-family="Helvetica,sans-Serif" font-size="11.00">bpchar[1]</text>
<polygon fill="none" stroke="black" points="285,-334 285,-356 506,-356 506,-334 285,-334"/>
<text text-anchor="start" x="305" y="-342.2" font-family="Helvetica,sans-Serif" font-size="11.00">cof_classification</text>
<polygon fill="none" stroke="black" points="506,-334 506,-356 589,-356 589,-334 506,-334"/>
<text text-anchor="start" x="509" y="-342.2" font-family="Helvetica,sans-Serif" font-size="11.00">varchar[2]</text>
<polygon fill="none" stroke="black" points="285,-312 285,-334 506,-334 506,-312 285,-312"/>
<image xlink:href="../../images/foreignKeys.png" width="11px" height="12px" preserveAspectRatio="xMinYMin meet" x="290" y="-329"/>
<text text-anchor="start" x="305" y="-320.2" font-family="Helvetica,sans-Serif" font-size="11.00">lbr_cfop_id</text>
<polygon fill="none" stroke="black" points="506,-312 506,-334 589,-334 589,-312 506,-312"/>
<text text-anchor="start" x="509" y="-320.2" font-family="Helvetica,sans-Serif" font-size="11.00">numeric[10]</text>
<polygon fill="none" stroke="black" points="285,-290 285,-312 506,-312 506,-290 285,-290"/>
<image xlink:href="../../images/foreignKeys.png" width="11px" height="12px" preserveAspectRatio="xMinYMin meet" x="290" y="-307"/>
<text text-anchor="start" x="305" y="-298.2" font-family="Helvetica,sans-Serif" font-size="11.00">cof_c_determination_group_id</text>
<polygon fill="none" stroke="black" points="506,-290 506,-312 589,-312 589,-290 506,-290"/>
<text text-anchor="start" x="509" y="-298.2" font-family="Helvetica,sans-Serif" font-size="11.00">numeric[10]</text>
<polygon fill="#ffffff" stroke="transparent" points="285,-272 285,-290 381,-290 381,-272 285,-272"/>
<polygon fill="none" stroke="black" points="285,-272 285,-290 381,-290 381,-272 285,-272"/>
<text text-anchor="start" x="288" y="-278.2" font-family="Helvetica,sans-Serif" font-size="11.00">&lt; 4</text>
<polygon fill="#ffffff" stroke="transparent" points="381,-272 381,-290 506,-290 506,-272 381,-272"/>
<polygon fill="none" stroke="black" points="381,-272 381,-290 506,-290 506,-272 381,-272"/>
<text text-anchor="start" x="458" y="-278.2" font-family="Helvetica,sans-Serif" font-size="11.00">222 rows</text>
<polygon fill="#ffffff" stroke="transparent" points="506,-272 506,-290 589,-290 589,-272 506,-272"/>
<polygon fill="none" stroke="black" points="506,-272 506,-290 589,-290 589,-272 506,-272"/>
<text text-anchor="start" x="570" y="-278.2" font-family="Helvetica,sans-Serif" font-size="11.00">0 &gt;</text>
<polygon fill="none" stroke="black" stroke-width="2" points="284,-271 284,-643 590,-643 590,-271 284,-271"/>
</a>
</g>
</g>
<!-- cof_c_determination_group -->
<g id="node2" class="node">
<title>cof_c_determination_group</title>
<g id="a_node2"><a xlink:href="../../tables/cof_c_determination_group.html" xlink:title="cof_c_determination_group" target="_top">
<polygon fill="#ffffff" stroke="transparent" points="8,-37 8,-161 234,-161 234,-37 8,-37"/>
<polygon fill="#f5f5f5" stroke="transparent" points="8,-139 8,-161 234,-161 234,-139 8,-139"/>
<polygon fill="none" stroke="black" points="8,-139 8,-161 234,-161 234,-139 8,-139"/>
<text text-anchor="start" x="13" y="-148.2" font-family="Helvetica,sans-Serif" font-weight="bold" font-size="11.00">cof_c_determination_group</text>
<text text-anchor="start" x="199" y="-147.2" font-family="Helvetica,sans-Serif" font-size="11.00">[table]</text>
<polygon fill="none" stroke="black" points="8,-117 8,-139 234,-139 234,-117 8,-117"/>
<image xlink:href="../../images/primaryKeys.png" width="11px" height="12px" preserveAspectRatio="xMinYMin meet" x="13" y="-134"/>
<text text-anchor="start" x="28" y="-125.2" font-family="Helvetica,sans-Serif" font-size="11.00">cof_c_determination_group_id</text>
<polygon fill="#ffffff" stroke="transparent" points="8,-95 8,-117 234,-117 234,-95 8,-95"/>
<polygon fill="none" stroke="black" points="8,-95 8,-117 234,-117 234,-95 8,-95"/>
<text text-anchor="start" x="28" y="-103.2" font-family="Helvetica,sans-Serif" font-size="11.00">cof_c_determination_group_uu</text>
<polygon fill="none" stroke="black" points="8,-73 8,-95 234,-95 234,-73 8,-73"/>
<image xlink:href="../../images/foreignKeys.png" width="11px" height="12px" preserveAspectRatio="xMinYMin meet" x="13" y="-90"/>
<text text-anchor="start" x="28" y="-81.2" font-family="Helvetica,sans-Serif" font-size="11.00">lbr_taxname_id</text>
<polygon fill="none" stroke="black" points="8,-55 8,-73 234,-73 234,-55 8,-55"/>
<text text-anchor="start" x="11" y="-61.2" font-family="Helvetica,sans-Serif" font-size="11.00">...</text>
<polygon fill="#ffffff" stroke="transparent" points="8,-37 8,-55 98,-55 98,-37 8,-37"/>
<polygon fill="none" stroke="black" points="8,-37 8,-55 98,-55 98,-37 8,-37"/>
<text text-anchor="start" x="11" y="-43.2" font-family="Helvetica,sans-Serif" font-size="11.00">&lt; 1</text>
<polygon fill="#ffffff" stroke="transparent" points="98,-37 98,-55 177,-55 177,-37 98,-37"/>
<polygon fill="none" stroke="black" points="98,-37 98,-55 177,-55 177,-37 98,-37"/>
<text text-anchor="start" x="135" y="-43.2" font-family="Helvetica,sans-Serif" font-size="11.00">12 rows</text>
<polygon fill="#ffffff" stroke="transparent" points="177,-37 177,-55 234,-55 234,-37 177,-37"/>
<polygon fill="none" stroke="black" points="177,-37 177,-55 234,-55 234,-37 177,-37"/>
<text text-anchor="start" x="215" y="-43.2" font-family="Helvetica,sans-Serif" font-size="11.00">1 &gt;</text>
</a>
</g>
</g>
<!-- cof_c_taxclassificationline&#45;&gt;cof_c_determination_group -->
<g id="edge1" class="edge">
<title>cof_c_taxclassificationline:w&#45;&gt;cof_c_determination_group:e</title>
<path fill="none" stroke="black" d="M269.52,-298.42C219.11,-276.9 309.14,-128 235,-128"/>
<polygon fill="black" stroke="black" points="276.12,-299.6 283.37,-304.54 280.06,-300.3 284,-301 284,-301 284,-301 280.06,-300.3 284.63,-297.46 276.12,-299.6 276.12,-299.6"/>
<ellipse fill="none" stroke="black" cx="272.97" cy="-299.04" rx="3.2" ry="3.2"/>
</g>
<!-- cof_c_taxclassification -->
<g id="node3" class="node">
<title>cof_c_taxclassification</title>
<g id="a_node3"><a xlink:href="../../tables/cof_c_taxclassification.html" xlink:title="cof_c_taxclassification" target="_top">
<polygon fill="#ffffff" stroke="transparent" points="24,-494 24,-618 218,-618 218,-494 24,-494"/>
<polygon fill="#f5f5f5" stroke="transparent" points="24,-596 24,-618 218,-618 218,-596 24,-596"/>
<polygon fill="none" stroke="black" points="24,-596 24,-618 218,-618 218,-596 24,-596"/>
<text text-anchor="start" x="29" y="-605.2" font-family="Helvetica,sans-Serif" font-weight="bold" font-size="11.00">cof_c_taxclassification</text>
<text text-anchor="start" x="183" y="-604.2" font-family="Helvetica,sans-Serif" font-size="11.00">[table]</text>
<polygon fill="none" stroke="black" points="24,-574 24,-596 218,-596 218,-574 24,-574"/>
<image xlink:href="../../images/primaryKeys.png" width="11px" height="12px" preserveAspectRatio="xMinYMin meet" x="29" y="-591"/>
<text text-anchor="start" x="44" y="-582.2" font-family="Helvetica,sans-Serif" font-size="11.00">cof_c_taxclassification_id</text>
<polygon fill="#ffffff" stroke="transparent" points="24,-552 24,-574 218,-574 218,-552 24,-552"/>
<polygon fill="none" stroke="black" points="24,-552 24,-574 218,-574 218,-552 24,-552"/>
<text text-anchor="start" x="44" y="-560.2" font-family="Helvetica,sans-Serif" font-size="11.00">cof_c_taxclassification_uu</text>
<polygon fill="none" stroke="black" points="24,-530 24,-552 218,-552 218,-530 24,-530"/>
<image xlink:href="../../images/foreignKeys.png" width="11px" height="12px" preserveAspectRatio="xMinYMin meet" x="29" y="-547"/>
<text text-anchor="start" x="44" y="-538.2" font-family="Helvetica,sans-Serif" font-size="11.00">lbr_taxname_id</text>
<polygon fill="none" stroke="black" points="24,-512 24,-530 218,-530 218,-512 24,-512"/>
<text text-anchor="start" x="27" y="-518.2" font-family="Helvetica,sans-Serif" font-size="11.00">...</text>
<polygon fill="#ffffff" stroke="transparent" points="24,-494 24,-512 101,-512 101,-494 24,-494"/>
<polygon fill="none" stroke="black" points="24,-494 24,-512 101,-512 101,-494 24,-494"/>
<text text-anchor="start" x="27" y="-500.2" font-family="Helvetica,sans-Serif" font-size="11.00">&lt; 1</text>
<polygon fill="#ffffff" stroke="transparent" points="101,-494 101,-512 168,-512 168,-494 101,-494"/>
<polygon fill="none" stroke="black" points="101,-494 101,-512 168,-512 168,-494 101,-494"/>
<text text-anchor="start" x="132" y="-500.2" font-family="Helvetica,sans-Serif" font-size="11.00">7 rows</text>
<polygon fill="#ffffff" stroke="transparent" points="168,-494 168,-512 218,-512 218,-494 168,-494"/>
<polygon fill="none" stroke="black" points="168,-494 168,-512 218,-512 218,-494 168,-494"/>
<text text-anchor="start" x="199" y="-500.2" font-family="Helvetica,sans-Serif" font-size="11.00">1 &gt;</text>
</a>
</g>
</g>
<!-- cof_c_taxclassificationline&#45;&gt;cof_c_taxclassification -->
<g id="edge2" class="edge">
<title>cof_c_taxclassificationline:w&#45;&gt;cof_c_taxclassification:e</title>
<path fill="none" stroke="black" d="M269.51,-413.33C214.28,-433.98 295.91,-585 219,-585"/>
<polygon fill="black" stroke="black" points="276.1,-412.27 284.57,-414.55 280.05,-411.63 284,-411 284,-411 284,-411 280.05,-411.63 283.43,-407.45 276.1,-412.27 276.1,-412.27"/>
<ellipse fill="none" stroke="black" cx="272.94" cy="-412.78" rx="3.2" ry="3.2"/>
</g>
<!-- lbr_cfop -->
<g id="node4" class="node">
<title>lbr_cfop</title>
<g id="a_node4"><a xlink:href="../../tables/lbr_cfop.html" xlink:title="lbr_cfop" target="_top">
<polygon fill="#ffffff" stroke="transparent" points="42.5,-182 42.5,-328 199.5,-328 199.5,-182 42.5,-182"/>
<polygon fill="#f5f5f5" stroke="transparent" points="43,-306 43,-328 200,-328 200,-306 43,-306"/>
<polygon fill="none" stroke="black" points="43,-306 43,-328 200,-328 200,-306 43,-306"/>
<text text-anchor="start" x="48" y="-315.2" font-family="Helvetica,sans-Serif" font-weight="bold" font-size="11.00">lbr_cfop</text>
<text text-anchor="start" x="165" y="-314.2" font-family="Helvetica,sans-Serif" font-size="11.00">[table]</text>
<polygon fill="none" stroke="black" points="43,-284 43,-306 200,-306 200,-284 43,-284"/>
<image xlink:href="../../images/primaryKeys.png" width="11px" height="12px" preserveAspectRatio="xMinYMin meet" x="48" y="-301"/>
<text text-anchor="start" x="63" y="-292.2" font-family="Helvetica,sans-Serif" font-size="11.00">lbr_cfop_id</text>
<polygon fill="#ffffff" stroke="transparent" points="43,-262 43,-284 200,-284 200,-262 43,-262"/>
<polygon fill="none" stroke="black" points="43,-262 43,-284 200,-284 200,-262 43,-262"/>
<text text-anchor="start" x="63" y="-270.2" font-family="Helvetica,sans-Serif" font-size="11.00">ad_client_id</text>
<polygon fill="#ffffff" stroke="transparent" points="43,-240 43,-262 200,-262 200,-240 43,-240"/>
<polygon fill="none" stroke="black" points="43,-240 43,-262 200,-262 200,-240 43,-240"/>
<text text-anchor="start" x="63" y="-248.2" font-family="Helvetica,sans-Serif" font-size="11.00">value</text>
<polygon fill="#ffffff" stroke="transparent" points="43,-218 43,-240 200,-240 200,-218 43,-218"/>
<polygon fill="none" stroke="black" points="43,-218 43,-240 200,-240 200,-218 43,-218"/>
<text text-anchor="start" x="63" y="-226.2" font-family="Helvetica,sans-Serif" font-size="11.00">lbr_cfop_uu</text>
<polygon fill="none" stroke="black" points="43,-200 43,-218 200,-218 200,-200 43,-200"/>
<text text-anchor="start" x="46" y="-206.2" font-family="Helvetica,sans-Serif" font-size="11.00">...</text>
<polygon fill="#ffffff" stroke="transparent" points="43,-182 43,-200 88,-200 88,-182 43,-182"/>
<polygon fill="none" stroke="black" points="43,-182 43,-200 88,-200 88,-182 43,-182"/>
<text text-anchor="start" x="46" y="-188.2" font-family="Helvetica,sans-Serif" font-size="11.00"> &#160;</text>
<polygon fill="#ffffff" stroke="transparent" points="88,-182 88,-200 155,-200 155,-182 88,-182"/>
<polygon fill="none" stroke="black" points="88,-182 88,-200 155,-200 155,-182 88,-182"/>
<text text-anchor="start" x="107" y="-188.2" font-family="Helvetica,sans-Serif" font-size="11.00">622 rows</text>
<polygon fill="#ffffff" stroke="transparent" points="155,-182 155,-200 200,-200 200,-182 155,-182"/>
<polygon fill="none" stroke="black" points="155,-182 155,-200 200,-200 200,-182 155,-182"/>
<text text-anchor="start" x="175" y="-188.2" font-family="Helvetica,sans-Serif" font-size="11.00">13 &gt;</text>
</a>
</g>
</g>
<!-- cof_c_taxclassificationline&#45;&gt;lbr_cfop -->
<g id="edge3" class="edge">
<title>cof_c_taxclassificationline:w&#45;&gt;lbr_cfop:e</title>
<path fill="none" stroke="black" d="M269.39,-321.49C242.96,-315.68 234.46,-295 201,-295"/>
<polygon fill="black" stroke="black" points="276.04,-322.18 283.63,-326.58 280.02,-322.59 284,-323 284,-323 284,-323 280.02,-322.59 284.37,-319.42 276.04,-322.18 276.04,-322.18"/>
<ellipse fill="none" stroke="black" cx="272.86" cy="-321.85" rx="3.2" ry="3.2"/>
</g>
<!-- lbr_taxstatus -->
<g id="node5" class="node">
<title>lbr_taxstatus</title>
<g id="a_node5"><a xlink:href="../../tables/lbr_taxstatus.html" xlink:title="lbr_taxstatus" target="_top">
<polygon fill="#ffffff" stroke="transparent" points="55,-349 55,-473 187,-473 187,-349 55,-349"/>
<polygon fill="#f5f5f5" stroke="transparent" points="55,-451 55,-473 187,-473 187,-451 55,-451"/>
<polygon fill="none" stroke="black" points="55,-451 55,-473 187,-473 187,-451 55,-451"/>
<text text-anchor="start" x="60" y="-460.2" font-family="Helvetica,sans-Serif" font-weight="bold" font-size="11.00">lbr_taxstatus</text>
<text text-anchor="start" x="152" y="-459.2" font-family="Helvetica,sans-Serif" font-size="11.00">[table]</text>
<polygon fill="none" stroke="black" points="55,-429 55,-451 187,-451 187,-429 55,-429"/>
<image xlink:href="../../images/foreignKeys.png" width="11px" height="12px" preserveAspectRatio="xMinYMin meet" x="60" y="-446"/>
<text text-anchor="start" x="75" y="-437.2" font-family="Helvetica,sans-Serif" font-size="11.00">lbr_taxname_id</text>
<polygon fill="none" stroke="black" points="55,-407 55,-429 187,-429 187,-407 55,-407"/>
<image xlink:href="../../images/primaryKeys.png" width="11px" height="12px" preserveAspectRatio="xMinYMin meet" x="60" y="-424"/>
<text text-anchor="start" x="75" y="-415.2" font-family="Helvetica,sans-Serif" font-size="11.00">lbr_taxstatus_id</text>
<polygon fill="#ffffff" stroke="transparent" points="55,-385 55,-407 187,-407 187,-385 55,-385"/>
<polygon fill="none" stroke="black" points="55,-385 55,-407 187,-407 187,-385 55,-385"/>
<text text-anchor="start" x="75" y="-393.2" font-family="Helvetica,sans-Serif" font-size="11.00">lbr_taxstatus_uu</text>
<polygon fill="none" stroke="black" points="55,-367 55,-385 187,-385 187,-367 55,-367"/>
<text text-anchor="start" x="58" y="-373.2" font-family="Helvetica,sans-Serif" font-size="11.00">...</text>
<polygon fill="#ffffff" stroke="transparent" points="55,-349 55,-367 91,-367 91,-349 55,-349"/>
<polygon fill="none" stroke="black" points="55,-349 55,-367 91,-367 91,-349 55,-349"/>
<text text-anchor="start" x="58" y="-355.2" font-family="Helvetica,sans-Serif" font-size="11.00"> &#160;</text>
<polygon fill="#ffffff" stroke="transparent" points="91,-349 91,-367 153,-367 153,-349 91,-349"/>
<polygon fill="none" stroke="black" points="91,-349 91,-367 153,-367 153,-349 91,-349"/>
<text text-anchor="start" x="105" y="-355.2" font-family="Helvetica,sans-Serif" font-size="11.00">106 rows</text>
<polygon fill="#ffffff" stroke="transparent" points="153,-349 153,-367 187,-367 187,-349 153,-349"/>
<polygon fill="none" stroke="black" points="153,-349 153,-367 187,-367 187,-349 153,-349"/>
<text text-anchor="start" x="168" y="-355.2" font-family="Helvetica,sans-Serif" font-size="11.00">6 &gt;</text>
</a>
</g>
</g>
<!-- cof_c_taxclassificationline&#45;&gt;lbr_taxstatus -->
<g id="edge4" class="edge">
<title>cof_c_taxclassificationline:w&#45;&gt;lbr_taxstatus:e</title>
<path fill="none" stroke="black" d="M269.33,-390.17C237.22,-395.6 227.17,-418 188,-418"/>
<polygon fill="black" stroke="black" points="276.03,-389.64 284.29,-392.59 280.01,-389.32 284,-389 284,-389 284,-389 280.01,-389.32 283.71,-385.41 276.03,-389.64 276.03,-389.64"/>
<ellipse fill="none" stroke="black" cx="272.84" cy="-389.89" rx="3.2" ry="3.2"/>
</g>
</g>
</svg>
