<?xml version="1.0" encoding="UTF-8" standalone="no"?>
<!DOCTYPE svg PUBLIC "-//W3C//DTD SVG 1.1//EN"
 "http://www.w3.org/Graphics/SVG/1.1/DTD/svg11.dtd">
<!-- Generated by graphviz version 2.43.0 (0)
 -->
<!-- Title: oneDegreeRelationshipsDiagram Pages: 1 -->
<svg width="543pt" height="335pt"
 viewBox="0.00 0.00 543.00 335.00" xmlns="http://www.w3.org/2000/svg" xmlns:xlink="http://www.w3.org/1999/xlink">
<g id="graph0" class="graph" transform="scale(1 1) rotate(0) translate(4 331)">
<title>oneDegreeRelationshipsDiagram</title>
<polygon fill="#ffffff" stroke="transparent" points="-4,4 -4,-331 539,-331 539,4 -4,4"/>
<text text-anchor="middle" x="71.5" y="-7.2" font-family="Helvetica,sans-Serif" font-size="11.00">Generated by SchemaSpy</text>
<!-- cof_mdfe_infpercurso -->
<g id="node1" class="node">
<title>cof_mdfe_infpercurso</title>
<g id="a_node1"><a xlink:href="../../tables/cof_mdfe_infpercurso.html" xlink:title="cof_mdfe_infpercurso" target="_top">
<polygon fill="#ffffff" stroke="transparent" points="252,-37 252,-323 527,-323 527,-37 252,-37"/>
<polygon fill="#f5f5f5" stroke="transparent" points="254.5,-299 254.5,-321 525.5,-321 525.5,-299 254.5,-299"/>
<polygon fill="none" stroke="black" points="254.5,-299 254.5,-321 525.5,-321 525.5,-299 254.5,-299"/>
<text text-anchor="start" x="259.5" y="-308.2" font-family="Helvetica,sans-Serif" font-weight="bold" font-size="11.00">cof_mdfe_infpercurso</text>
<text text-anchor="start" x="490.5" y="-307.2" font-family="Helvetica,sans-Serif" font-size="11.00">[table]</text>
<polygon fill="none" stroke="black" points="254.5,-277 254.5,-299 442.5,-299 442.5,-277 254.5,-277"/>
<image xlink:href="../../images/foreignKeys.png" width="11px" height="12px" preserveAspectRatio="xMinYMin meet" x="259.5" y="-294"/>
<text text-anchor="start" x="274.5" y="-285.2" font-family="Helvetica,sans-Serif" font-size="11.00">cof_mdfe_id</text>
<polygon fill="none" stroke="black" points="442.5,-277 442.5,-299 525.5,-299 525.5,-277 442.5,-277"/>
<text text-anchor="start" x="445.5" y="-285.2" font-family="Helvetica,sans-Serif" font-size="11.00">numeric[10]</text>
<polygon fill="none" stroke="black" points="254.5,-255 254.5,-277 442.5,-277 442.5,-255 254.5,-255"/>
<image xlink:href="../../images/primaryKeys.png" width="11px" height="12px" preserveAspectRatio="xMinYMin meet" x="259.5" y="-272"/>
<text text-anchor="start" x="274.5" y="-263.2" font-family="Helvetica,sans-Serif" font-size="11.00">cof_mdfe_infpercurso_id</text>
<polygon fill="none" stroke="black" points="442.5,-255 442.5,-277 525.5,-277 525.5,-255 442.5,-255"/>
<text text-anchor="start" x="445.5" y="-263.2" font-family="Helvetica,sans-Serif" font-size="11.00">numeric[10]</text>
<polygon fill="none" stroke="black" points="254.5,-233 254.5,-255 442.5,-255 442.5,-233 254.5,-233"/>
<text text-anchor="start" x="274.5" y="-241.2" font-family="Helvetica,sans-Serif" font-size="11.00">infpercurso_ufper</text>
<polygon fill="none" stroke="black" points="442.5,-233 442.5,-255 525.5,-255 525.5,-233 442.5,-233"/>
<text text-anchor="start" x="445.5" y="-241.2" font-family="Helvetica,sans-Serif" font-size="11.00">varchar[2]</text>
<polygon fill="#ffffff" stroke="transparent" points="254.5,-211 254.5,-233 442.5,-233 442.5,-211 254.5,-211"/>
<polygon fill="none" stroke="black" points="254.5,-211 254.5,-233 442.5,-233 442.5,-211 254.5,-211"/>
<text text-anchor="start" x="274.5" y="-219.2" font-family="Helvetica,sans-Serif" font-size="11.00">cof_mdfe_infpercurso_uu</text>
<polygon fill="none" stroke="black" points="442.5,-211 442.5,-233 525.5,-233 525.5,-211 442.5,-211"/>
<text text-anchor="start" x="445.5" y="-219.2" font-family="Helvetica,sans-Serif" font-size="11.00">varchar[36]</text>
<polygon fill="none" stroke="black" points="254.5,-189 254.5,-211 442.5,-211 442.5,-189 254.5,-189"/>
<text text-anchor="start" x="274.5" y="-197.2" font-family="Helvetica,sans-Serif" font-size="11.00">ad_client_id</text>
<polygon fill="none" stroke="black" points="442.5,-189 442.5,-211 525.5,-211 525.5,-189 442.5,-189"/>
<text text-anchor="start" x="445.5" y="-197.2" font-family="Helvetica,sans-Serif" font-size="11.00">numeric[10]</text>
<polygon fill="none" stroke="black" points="254.5,-167 254.5,-189 442.5,-189 442.5,-167 254.5,-167"/>
<text text-anchor="start" x="274.5" y="-175.2" font-family="Helvetica,sans-Serif" font-size="11.00">ad_org_id</text>
<polygon fill="none" stroke="black" points="442.5,-167 442.5,-189 525.5,-189 525.5,-167 442.5,-167"/>
<text text-anchor="start" x="445.5" y="-175.2" font-family="Helvetica,sans-Serif" font-size="11.00">numeric[10]</text>
<polygon fill="none" stroke="black" points="254.5,-145 254.5,-167 442.5,-167 442.5,-145 254.5,-145"/>
<text text-anchor="start" x="274.5" y="-153.2" font-family="Helvetica,sans-Serif" font-size="11.00">isactive</text>
<polygon fill="none" stroke="black" points="442.5,-145 442.5,-167 525.5,-167 525.5,-145 442.5,-145"/>
<text text-anchor="start" x="445.5" y="-153.2" font-family="Helvetica,sans-Serif" font-size="11.00">bpchar[1]</text>
<polygon fill="none" stroke="black" points="254.5,-123 254.5,-145 442.5,-145 442.5,-123 254.5,-123"/>
<text text-anchor="start" x="274.5" y="-131.2" font-family="Helvetica,sans-Serif" font-size="11.00">created</text>
<polygon fill="none" stroke="black" points="442.5,-123 442.5,-145 525.5,-145 525.5,-123 442.5,-123"/>
<text text-anchor="start" x="445.5" y="-131.2" font-family="Helvetica,sans-Serif" font-size="11.00">timestamp[29,6]</text>
<polygon fill="none" stroke="black" points="254.5,-101 254.5,-123 442.5,-123 442.5,-101 254.5,-101"/>
<text text-anchor="start" x="274.5" y="-109.2" font-family="Helvetica,sans-Serif" font-size="11.00">createdby</text>
<polygon fill="none" stroke="black" points="442.5,-101 442.5,-123 525.5,-123 525.5,-101 442.5,-101"/>
<text text-anchor="start" x="445.5" y="-109.2" font-family="Helvetica,sans-Serif" font-size="11.00">numeric[10]</text>
<polygon fill="none" stroke="black" points="254.5,-79 254.5,-101 442.5,-101 442.5,-79 254.5,-79"/>
<text text-anchor="start" x="274.5" y="-87.2" font-family="Helvetica,sans-Serif" font-size="11.00">updated</text>
<polygon fill="none" stroke="black" points="442.5,-79 442.5,-101 525.5,-101 525.5,-79 442.5,-79"/>
<text text-anchor="start" x="445.5" y="-87.2" font-family="Helvetica,sans-Serif" font-size="11.00">timestamp[29,6]</text>
<polygon fill="none" stroke="black" points="254.5,-57 254.5,-79 442.5,-79 442.5,-57 254.5,-57"/>
<text text-anchor="start" x="274.5" y="-65.2" font-family="Helvetica,sans-Serif" font-size="11.00">updatedby</text>
<polygon fill="none" stroke="black" points="442.5,-57 442.5,-79 525.5,-79 525.5,-57 442.5,-57"/>
<text text-anchor="start" x="445.5" y="-65.2" font-family="Helvetica,sans-Serif" font-size="11.00">numeric[10]</text>
<polygon fill="#ffffff" stroke="transparent" points="254.5,-39 254.5,-57 339.5,-57 339.5,-39 254.5,-39"/>
<polygon fill="none" stroke="black" points="254.5,-39 254.5,-57 339.5,-57 339.5,-39 254.5,-39"/>
<text text-anchor="start" x="257.5" y="-45.2" font-family="Helvetica,sans-Serif" font-size="11.00">&lt; 1</text>
<polygon fill="#ffffff" stroke="transparent" points="339.5,-39 339.5,-57 442.5,-57 442.5,-39 339.5,-39"/>
<polygon fill="none" stroke="black" points="339.5,-39 339.5,-57 442.5,-57 442.5,-39 339.5,-39"/>
<text text-anchor="start" x="406.5" y="-45.2" font-family="Helvetica,sans-Serif" font-size="11.00">0 rows</text>
<polygon fill="#ffffff" stroke="transparent" points="442.5,-39 442.5,-57 525.5,-57 525.5,-39 442.5,-39"/>
<polygon fill="none" stroke="black" points="442.5,-39 442.5,-57 525.5,-57 525.5,-39 442.5,-39"/>
<text text-anchor="start" x="506.5" y="-45.2" font-family="Helvetica,sans-Serif" font-size="11.00">0 &gt;</text>
<polygon fill="none" stroke="black" stroke-width="2" points="253,-38 253,-322 526,-322 526,-38 253,-38"/>
</a>
</g>
</g>
<!-- cof_mdfe -->
<g id="node2" class="node">
<title>cof_mdfe</title>
<g id="a_node2"><a xlink:href="../../tables/cof_mdfe.html" xlink:title="cof_mdfe" target="_top">
<polygon fill="#ffffff" stroke="transparent" points="8,-175 8,-321 203,-321 203,-175 8,-175"/>
<polygon fill="#f5f5f5" stroke="transparent" points="8.5,-299 8.5,-321 203.5,-321 203.5,-299 8.5,-299"/>
<polygon fill="none" stroke="black" points="8.5,-299 8.5,-321 203.5,-321 203.5,-299 8.5,-299"/>
<text text-anchor="start" x="13.5" y="-308.2" font-family="Helvetica,sans-Serif" font-weight="bold" font-size="11.00">cof_mdfe</text>
<text text-anchor="start" x="168.5" y="-307.2" font-family="Helvetica,sans-Serif" font-size="11.00">[table]</text>
<polygon fill="none" stroke="black" points="8.5,-277 8.5,-299 203.5,-299 203.5,-277 8.5,-277"/>
<image xlink:href="../../images/primaryKeys.png" width="11px" height="12px" preserveAspectRatio="xMinYMin meet" x="13.5" y="-294"/>
<text text-anchor="start" x="28.5" y="-285.2" font-family="Helvetica,sans-Serif" font-size="11.00">cof_mdfe_id</text>
<polygon fill="#ffffff" stroke="transparent" points="8.5,-255 8.5,-277 203.5,-277 203.5,-255 8.5,-255"/>
<polygon fill="none" stroke="black" points="8.5,-255 8.5,-277 203.5,-277 203.5,-255 8.5,-255"/>
<text text-anchor="start" x="28.5" y="-263.2" font-family="Helvetica,sans-Serif" font-size="11.00">cof_mdfe_uu</text>
<polygon fill="none" stroke="black" points="8.5,-233 8.5,-255 203.5,-255 203.5,-233 8.5,-233"/>
<image xlink:href="../../images/foreignKeys.png" width="11px" height="12px" preserveAspectRatio="xMinYMin meet" x="13.5" y="-250"/>
<text text-anchor="start" x="28.5" y="-241.2" font-family="Helvetica,sans-Serif" font-size="11.00">emit_bpartner_location_id</text>
<polygon fill="none" stroke="black" points="8.5,-211 8.5,-233 203.5,-233 203.5,-211 8.5,-211"/>
<image xlink:href="../../images/foreignKeys.png" width="11px" height="12px" preserveAspectRatio="xMinYMin meet" x="13.5" y="-228"/>
<text text-anchor="start" x="28.5" y="-219.2" font-family="Helvetica,sans-Serif" font-size="11.00">emit_bpartner_id</text>
<polygon fill="none" stroke="black" points="8.5,-193 8.5,-211 203.5,-211 203.5,-193 8.5,-193"/>
<text text-anchor="start" x="11.5" y="-199.2" font-family="Helvetica,sans-Serif" font-size="11.00">...</text>
<polygon fill="#ffffff" stroke="transparent" points="8.5,-175 8.5,-193 83.5,-193 83.5,-175 8.5,-175"/>
<polygon fill="none" stroke="black" points="8.5,-175 8.5,-193 83.5,-193 83.5,-175 8.5,-175"/>
<text text-anchor="start" x="11.5" y="-181.2" font-family="Helvetica,sans-Serif" font-size="11.00">&lt; 2</text>
<polygon fill="#ffffff" stroke="transparent" points="83.5,-175 83.5,-193 148.5,-193 148.5,-175 83.5,-175"/>
<polygon fill="none" stroke="black" points="83.5,-175 83.5,-193 148.5,-193 148.5,-175 83.5,-175"/>
<text text-anchor="start" x="112.5" y="-181.2" font-family="Helvetica,sans-Serif" font-size="11.00">0 rows</text>
<polygon fill="#ffffff" stroke="transparent" points="148.5,-175 148.5,-193 203.5,-193 203.5,-175 148.5,-175"/>
<polygon fill="none" stroke="black" points="148.5,-175 148.5,-193 203.5,-193 203.5,-175 148.5,-175"/>
<text text-anchor="start" x="178.5" y="-181.2" font-family="Helvetica,sans-Serif" font-size="11.00">13 &gt;</text>
</a>
</g>
</g>
<!-- cof_mdfe_infpercurso&#45;&gt;cof_mdfe -->
<g id="edge1" class="edge">
<title>cof_mdfe_infpercurso:w&#45;&gt;cof_mdfe:e</title>
<path fill="none" stroke="black" d="M238.99,-288C227.68,-288 220.49,-288 204.5,-288"/>
<polygon fill="black" stroke="black" points="245.5,-288 253.5,-291.6 249.5,-288 253.5,-288 253.5,-288 253.5,-288 249.5,-288 253.5,-284.4 245.5,-288 245.5,-288"/>
<ellipse fill="none" stroke="black" cx="242.3" cy="-288" rx="3.2" ry="3.2"/>
</g>
</g>
</svg>
