<?xml version="1.0" encoding="UTF-8" standalone="no"?>
<!DOCTYPE svg PUBLIC "-//W3C//DTD SVG 1.1//EN"
 "http://www.w3.org/Graphics/SVG/1.1/DTD/svg11.dtd">
<!-- Generated by graphviz version 2.43.0 (0)
 -->
<!-- Title: oneDegreeRelationshipsDiagram Pages: 1 -->
<svg width="342pt" height="581pt"
 viewBox="0.00 0.00 342.00 581.00" xmlns="http://www.w3.org/2000/svg" xmlns:xlink="http://www.w3.org/1999/xlink">
<g id="graph0" class="graph" transform="scale(1 1) rotate(0) translate(4 577)">
<title>oneDegreeRelationshipsDiagram</title>
<polygon fill="#ffffff" stroke="transparent" points="-4,4 -4,-577 338,-577 338,4 -4,4"/>
<text text-anchor="middle" x="71.5" y="-7.2" font-family="Helvetica,sans-Serif" font-size="11.00">Generated by SchemaSpy</text>
<!-- cof_rv_gestaoxconsumo -->
<g id="node1" class="node">
<title>cof_rv_gestaoxconsumo</title>
<g id="a_node1"><a xlink:href="../../tables/cof_rv_gestaoxconsumo.html" xlink:title="cof_rv_gestaoxconsumo" target="_top">
<polygon fill="#ffffff" stroke="transparent" points="8,-37 8,-569 326,-569 326,-37 8,-37"/>
<polygon fill="#f5f5f5" stroke="transparent" points="10,-545 10,-567 324,-567 324,-545 10,-545"/>
<polygon fill="none" stroke="black" points="10,-545 10,-567 324,-567 324,-545 10,-545"/>
<text text-anchor="start" x="15" y="-554.2" font-family="Helvetica,sans-Serif" font-weight="bold" font-size="11.00">cof_rv_gestaoxconsumo</text>
<text text-anchor="start" x="291" y="-553.2" font-family="Helvetica,sans-Serif" font-size="11.00">[view]</text>
<polygon fill="none" stroke="black" points="10,-523 10,-545 215,-545 215,-523 10,-523"/>
<image xlink:href="../../images/foreignKeys.png" width="11px" height="12px" preserveAspectRatio="xMinYMin meet" x="15" y="-540"/>
<text text-anchor="start" x="30" y="-531.2" font-family="Helvetica,sans-Serif" font-size="11.00">cof_pp_planomestreprod_id</text>
<polygon fill="none" stroke="black" points="215,-523 215,-545 324,-545 324,-523 215,-523"/>
<text text-anchor="start" x="218" y="-531.2" font-family="Helvetica,sans-Serif" font-size="11.00">numeric[10]</text>
<polygon fill="none" stroke="black" points="10,-501 10,-523 215,-523 215,-501 10,-501"/>
<text text-anchor="start" x="30" y="-509.2" font-family="Helvetica,sans-Serif" font-size="11.00">data</text>
<polygon fill="none" stroke="black" points="215,-501 215,-523 324,-523 324,-501 215,-501"/>
<text text-anchor="start" x="218" y="-509.2" font-family="Helvetica,sans-Serif" font-size="11.00">timestamp[29,6]</text>
<polygon fill="none" stroke="black" points="10,-479 10,-501 215,-501 215,-479 10,-479"/>
<text text-anchor="start" x="30" y="-487.2" font-family="Helvetica,sans-Serif" font-size="11.00">produto_pmp</text>
<polygon fill="none" stroke="black" points="215,-479 215,-501 324,-501 324,-479 215,-479"/>
<text text-anchor="start" x="218" y="-487.2" font-family="Helvetica,sans-Serif" font-size="11.00">varchar[255]</text>
<polygon fill="none" stroke="black" points="10,-457 10,-479 215,-479 215,-457 10,-457"/>
<image xlink:href="../../images/foreignKeys.png" width="11px" height="12px" preserveAspectRatio="xMinYMin meet" x="15" y="-474"/>
<text text-anchor="start" x="30" y="-465.2" font-family="Helvetica,sans-Serif" font-size="11.00">cof_producttype_id</text>
<polygon fill="none" stroke="black" points="215,-457 215,-479 324,-479 324,-457 215,-457"/>
<text text-anchor="start" x="218" y="-465.2" font-family="Helvetica,sans-Serif" font-size="11.00">numeric[10]</text>
<polygon fill="none" stroke="black" points="10,-435 10,-457 215,-457 215,-435 10,-435"/>
<text text-anchor="start" x="30" y="-443.2" font-family="Helvetica,sans-Serif" font-size="11.00">tipo</text>
<polygon fill="none" stroke="black" points="215,-435 215,-457 324,-457 324,-435 215,-435"/>
<text text-anchor="start" x="218" y="-443.2" font-family="Helvetica,sans-Serif" font-size="11.00">varchar[60]</text>
<polygon fill="none" stroke="black" points="10,-413 10,-435 215,-435 215,-413 10,-413"/>
<image xlink:href="../../images/foreignKeys.png" width="11px" height="12px" preserveAspectRatio="xMinYMin meet" x="15" y="-430"/>
<text text-anchor="start" x="30" y="-421.2" font-family="Helvetica,sans-Serif" font-size="11.00">cof_productclass_id</text>
<polygon fill="none" stroke="black" points="215,-413 215,-435 324,-435 324,-413 215,-413"/>
<text text-anchor="start" x="218" y="-421.2" font-family="Helvetica,sans-Serif" font-size="11.00">numeric[10]</text>
<polygon fill="none" stroke="black" points="10,-391 10,-413 215,-413 215,-391 10,-391"/>
<text text-anchor="start" x="30" y="-399.2" font-family="Helvetica,sans-Serif" font-size="11.00">classe</text>
<polygon fill="none" stroke="black" points="215,-391 215,-413 324,-413 324,-391 215,-391"/>
<text text-anchor="start" x="218" y="-399.2" font-family="Helvetica,sans-Serif" font-size="11.00">varchar[60]</text>
<polygon fill="none" stroke="black" points="10,-369 10,-391 215,-391 215,-369 10,-369"/>
<image xlink:href="../../images/foreignKeys.png" width="11px" height="12px" preserveAspectRatio="xMinYMin meet" x="15" y="-386"/>
<text text-anchor="start" x="30" y="-377.2" font-family="Helvetica,sans-Serif" font-size="11.00">cof_productgroup_id</text>
<polygon fill="none" stroke="black" points="215,-369 215,-391 324,-391 324,-369 215,-369"/>
<text text-anchor="start" x="218" y="-377.2" font-family="Helvetica,sans-Serif" font-size="11.00">numeric[10]</text>
<polygon fill="none" stroke="black" points="10,-347 10,-369 215,-369 215,-347 10,-347"/>
<text text-anchor="start" x="30" y="-355.2" font-family="Helvetica,sans-Serif" font-size="11.00">grupo</text>
<polygon fill="none" stroke="black" points="215,-347 215,-369 324,-369 324,-347 215,-347"/>
<text text-anchor="start" x="218" y="-355.2" font-family="Helvetica,sans-Serif" font-size="11.00">varchar[60]</text>
<polygon fill="none" stroke="black" points="10,-325 10,-347 215,-347 215,-325 10,-325"/>
<text text-anchor="start" x="30" y="-333.2" font-family="Helvetica,sans-Serif" font-size="11.00">materia_prima</text>
<polygon fill="none" stroke="black" points="215,-325 215,-347 324,-347 324,-325 215,-325"/>
<text text-anchor="start" x="218" y="-333.2" font-family="Helvetica,sans-Serif" font-size="11.00">varchar[255]</text>
<polygon fill="none" stroke="black" points="10,-303 10,-325 215,-325 215,-303 10,-303"/>
<text text-anchor="start" x="30" y="-311.2" font-family="Helvetica,sans-Serif" font-size="11.00">quantidade</text>
<polygon fill="none" stroke="black" points="215,-303 215,-325 324,-325 324,-303 215,-303"/>
<text text-anchor="start" x="218" y="-311.2" font-family="Helvetica,sans-Serif" font-size="11.00">numeric[0]</text>
<polygon fill="none" stroke="black" points="10,-281 10,-303 215,-303 215,-281 10,-281"/>
<text text-anchor="start" x="30" y="-289.2" font-family="Helvetica,sans-Serif" font-size="11.00">tipo_movimento</text>
<polygon fill="none" stroke="black" points="215,-281 215,-303 324,-303 324,-281 215,-281"/>
<text text-anchor="start" x="218" y="-289.2" font-family="Helvetica,sans-Serif" font-size="11.00">text[2147483647]</text>
<polygon fill="none" stroke="black" points="10,-259 10,-281 215,-281 215,-259 10,-259"/>
<text text-anchor="start" x="30" y="-267.2" font-family="Helvetica,sans-Serif" font-size="11.00">m_movementline_id</text>
<polygon fill="none" stroke="black" points="215,-259 215,-281 324,-281 324,-259 215,-259"/>
<text text-anchor="start" x="218" y="-267.2" font-family="Helvetica,sans-Serif" font-size="11.00">numeric[0]</text>
<polygon fill="none" stroke="black" points="10,-237 10,-259 215,-259 215,-237 10,-237"/>
<text text-anchor="start" x="30" y="-245.2" font-family="Helvetica,sans-Serif" font-size="11.00">ordem_producao</text>
<polygon fill="none" stroke="black" points="215,-237 215,-259 324,-259 324,-237 215,-237"/>
<text text-anchor="start" x="218" y="-245.2" font-family="Helvetica,sans-Serif" font-size="11.00">varchar[2147483647]</text>
<polygon fill="none" stroke="black" points="10,-215 10,-237 215,-237 215,-215 10,-215"/>
<text text-anchor="start" x="30" y="-223.2" font-family="Helvetica,sans-Serif" font-size="11.00">ad_org_id</text>
<polygon fill="none" stroke="black" points="215,-215 215,-237 324,-237 324,-215 215,-215"/>
<text text-anchor="start" x="218" y="-223.2" font-family="Helvetica,sans-Serif" font-size="11.00">numeric[10]</text>
<polygon fill="none" stroke="black" points="10,-193 10,-215 215,-215 215,-193 10,-193"/>
<text text-anchor="start" x="30" y="-201.2" font-family="Helvetica,sans-Serif" font-size="11.00">ad_client_id</text>
<polygon fill="none" stroke="black" points="215,-193 215,-215 324,-215 324,-193 215,-193"/>
<text text-anchor="start" x="218" y="-201.2" font-family="Helvetica,sans-Serif" font-size="11.00">numeric[10]</text>
<polygon fill="none" stroke="black" points="10,-171 10,-193 215,-193 215,-171 10,-171"/>
<text text-anchor="start" x="30" y="-179.2" font-family="Helvetica,sans-Serif" font-size="11.00">created</text>
<polygon fill="none" stroke="black" points="215,-171 215,-193 324,-193 324,-171 215,-171"/>
<text text-anchor="start" x="218" y="-179.2" font-family="Helvetica,sans-Serif" font-size="11.00">timestamp[29,6]</text>
<polygon fill="none" stroke="black" points="10,-149 10,-171 215,-171 215,-149 10,-149"/>
<text text-anchor="start" x="30" y="-157.2" font-family="Helvetica,sans-Serif" font-size="11.00">createdby</text>
<polygon fill="none" stroke="black" points="215,-149 215,-171 324,-171 324,-149 215,-149"/>
<text text-anchor="start" x="218" y="-157.2" font-family="Helvetica,sans-Serif" font-size="11.00">numeric[10]</text>
<polygon fill="none" stroke="black" points="10,-127 10,-149 215,-149 215,-127 10,-127"/>
<text text-anchor="start" x="30" y="-135.2" font-family="Helvetica,sans-Serif" font-size="11.00">updated</text>
<polygon fill="none" stroke="black" points="215,-127 215,-149 324,-149 324,-127 215,-127"/>
<text text-anchor="start" x="218" y="-135.2" font-family="Helvetica,sans-Serif" font-size="11.00">timestamp[29,6]</text>
<polygon fill="none" stroke="black" points="10,-105 10,-127 215,-127 215,-105 10,-105"/>
<text text-anchor="start" x="30" y="-113.2" font-family="Helvetica,sans-Serif" font-size="11.00">updatedby</text>
<polygon fill="none" stroke="black" points="215,-105 215,-127 324,-127 324,-105 215,-105"/>
<text text-anchor="start" x="218" y="-113.2" font-family="Helvetica,sans-Serif" font-size="11.00">numeric[10]</text>
<polygon fill="none" stroke="black" points="10,-83 10,-105 215,-105 215,-83 10,-83"/>
<text text-anchor="start" x="30" y="-91.2" font-family="Helvetica,sans-Serif" font-size="11.00">isactive</text>
<polygon fill="none" stroke="black" points="215,-83 215,-105 324,-105 324,-83 215,-83"/>
<text text-anchor="start" x="218" y="-91.2" font-family="Helvetica,sans-Serif" font-size="11.00">bpchar[1]</text>
<polygon fill="none" stroke="black" points="10,-61 10,-83 215,-83 215,-61 10,-61"/>
<text text-anchor="start" x="30" y="-69.2" font-family="Helvetica,sans-Serif" font-size="11.00">pa_id</text>
<polygon fill="none" stroke="black" points="215,-61 215,-83 324,-83 324,-61 215,-61"/>
<text text-anchor="start" x="218" y="-69.2" font-family="Helvetica,sans-Serif" font-size="11.00">numeric[10]</text>
<polygon fill="none" stroke="black" points="10,-39 10,-61 215,-61 215,-39 10,-39"/>
<text text-anchor="start" x="30" y="-47.2" font-family="Helvetica,sans-Serif" font-size="11.00">mp_id</text>
<polygon fill="none" stroke="black" points="215,-39 215,-61 324,-61 324,-39 215,-39"/>
<text text-anchor="start" x="218" y="-47.2" font-family="Helvetica,sans-Serif" font-size="11.00">numeric[10]</text>
<polygon fill="none" stroke="black" stroke-width="2" points="9,-38 9,-568 325,-568 325,-38 9,-38"/>
</a>
</g>
</g>
</g>
</svg>
