<?xml version="1.0" encoding="UTF-8" standalone="no"?>
<!DOCTYPE svg PUBLIC "-//W3C//DTD SVG 1.1//EN"
 "http://www.w3.org/Graphics/SVG/1.1/DTD/svg11.dtd">
<!-- Generated by graphviz version 2.43.0 (0)
 -->
<!-- Title: oneDegreeRelationshipsDiagram Pages: 1 -->
<svg width="888pt" height="975pt"
 viewBox="0.00 0.00 888.00 975.00" xmlns="http://www.w3.org/2000/svg" xmlns:xlink="http://www.w3.org/1999/xlink">
<g id="graph0" class="graph" transform="scale(1 1) rotate(0) translate(4 971)">
<title>oneDegreeRelationshipsDiagram</title>
<polygon fill="#ffffff" stroke="transparent" points="-4,4 -4,-971 884,-971 884,4 -4,4"/>
<text text-anchor="middle" x="71.5" y="-7.2" font-family="Helvetica,sans-Serif" font-size="11.00">Generated by SchemaSpy</text>
<!-- ad_role -->
<g id="node1" class="node">
<title>ad_role</title>
<g id="a_node1"><a xlink:href="../../tables/ad_role.html" xlink:title="ad_role" target="_top">
<polygon fill="#ffffff" stroke="transparent" points="320.5,-728 320.5,-962 528.5,-962 528.5,-728 320.5,-728"/>
<polygon fill="#f5f5f5" stroke="transparent" points="320.5,-940 320.5,-962 528.5,-962 528.5,-940 320.5,-940"/>
<polygon fill="none" stroke="black" points="320.5,-940 320.5,-962 528.5,-962 528.5,-940 320.5,-940"/>
<text text-anchor="start" x="325.5" y="-949.2" font-family="Helvetica,sans-Serif" font-weight="bold" font-size="11.00">ad_role</text>
<text text-anchor="start" x="493.5" y="-948.2" font-family="Helvetica,sans-Serif" font-size="11.00">[table]</text>
<polygon fill="none" stroke="black" points="320.5,-918 320.5,-940 528.5,-940 528.5,-918 320.5,-918"/>
<image xlink:href="../../images/primaryKeys.png" width="11px" height="12px" preserveAspectRatio="xMinYMin meet" x="325.5" y="-935"/>
<text text-anchor="start" x="340.5" y="-926.2" font-family="Helvetica,sans-Serif" font-size="11.00">ad_role_id</text>
<polygon fill="none" stroke="black" points="320.5,-896 320.5,-918 528.5,-918 528.5,-896 320.5,-896"/>
<image xlink:href="../../images/foreignKeys.png" width="11px" height="12px" preserveAspectRatio="xMinYMin meet" x="325.5" y="-913"/>
<text text-anchor="start" x="340.5" y="-904.2" font-family="Helvetica,sans-Serif" font-size="11.00">ad_client_id</text>
<polygon fill="none" stroke="black" points="320.5,-874 320.5,-896 528.5,-896 528.5,-874 320.5,-874"/>
<image xlink:href="../../images/foreignKeys.png" width="11px" height="12px" preserveAspectRatio="xMinYMin meet" x="325.5" y="-891"/>
<text text-anchor="start" x="340.5" y="-882.2" font-family="Helvetica,sans-Serif" font-size="11.00">ad_org_id</text>
<polygon fill="none" stroke="black" points="320.5,-852 320.5,-874 528.5,-874 528.5,-852 320.5,-852"/>
<image xlink:href="../../images/foreignKeys.png" width="11px" height="12px" preserveAspectRatio="xMinYMin meet" x="325.5" y="-869"/>
<text text-anchor="start" x="340.5" y="-860.2" font-family="Helvetica,sans-Serif" font-size="11.00">c_currency_id</text>
<polygon fill="none" stroke="black" points="320.5,-830 320.5,-852 528.5,-852 528.5,-830 320.5,-830"/>
<image xlink:href="../../images/foreignKeys.png" width="11px" height="12px" preserveAspectRatio="xMinYMin meet" x="325.5" y="-847"/>
<text text-anchor="start" x="340.5" y="-838.2" font-family="Helvetica,sans-Serif" font-size="11.00">ad_tree_menu_id</text>
<polygon fill="none" stroke="black" points="320.5,-808 320.5,-830 528.5,-830 528.5,-808 320.5,-808"/>
<image xlink:href="../../images/foreignKeys.png" width="11px" height="12px" preserveAspectRatio="xMinYMin meet" x="325.5" y="-825"/>
<text text-anchor="start" x="340.5" y="-816.2" font-family="Helvetica,sans-Serif" font-size="11.00">supervisor_id</text>
<polygon fill="none" stroke="black" points="320.5,-786 320.5,-808 528.5,-808 528.5,-786 320.5,-786"/>
<image xlink:href="../../images/foreignKeys.png" width="11px" height="12px" preserveAspectRatio="xMinYMin meet" x="325.5" y="-803"/>
<text text-anchor="start" x="340.5" y="-794.2" font-family="Helvetica,sans-Serif" font-size="11.00">ad_tree_org_id</text>
<polygon fill="#ffffff" stroke="transparent" points="320.5,-764 320.5,-786 528.5,-786 528.5,-764 320.5,-764"/>
<polygon fill="none" stroke="black" points="320.5,-764 320.5,-786 528.5,-786 528.5,-764 320.5,-764"/>
<text text-anchor="start" x="340.5" y="-772.2" font-family="Helvetica,sans-Serif" font-size="11.00">ad_role_uu</text>
<polygon fill="none" stroke="black" points="320.5,-746 320.5,-764 528.5,-764 528.5,-746 320.5,-746"/>
<text text-anchor="start" x="323.5" y="-752.2" font-family="Helvetica,sans-Serif" font-size="11.00">...</text>
<polygon fill="#ffffff" stroke="transparent" points="320.5,-728 320.5,-746 398.5,-746 398.5,-728 320.5,-728"/>
<polygon fill="none" stroke="black" points="320.5,-728 320.5,-746 398.5,-746 398.5,-728 320.5,-728"/>
<text text-anchor="start" x="323.5" y="-734.2" font-family="Helvetica,sans-Serif" font-size="11.00">&lt; 6</text>
<polygon fill="#ffffff" stroke="transparent" points="398.5,-728 398.5,-746 471.5,-746 471.5,-728 398.5,-728"/>
<polygon fill="none" stroke="black" points="398.5,-728 398.5,-746 471.5,-746 471.5,-728 398.5,-728"/>
<text text-anchor="start" x="429.5" y="-734.2" font-family="Helvetica,sans-Serif" font-size="11.00">13 rows</text>
<polygon fill="#ffffff" stroke="transparent" points="471.5,-728 471.5,-746 528.5,-746 528.5,-728 471.5,-728"/>
<polygon fill="none" stroke="black" points="471.5,-728 471.5,-746 528.5,-746 528.5,-728 471.5,-728"/>
<text text-anchor="start" x="503.5" y="-734.2" font-family="Helvetica,sans-Serif" font-size="11.00">42 &gt;</text>
</a>
</g>
</g>
<!-- ad_user -->
<g id="node2" class="node">
<title>ad_user</title>
<g id="a_node2"><a xlink:href="../../tables/ad_user.html" xlink:title="ad_user" target="_top">
<polygon fill="#ffffff" stroke="transparent" points="8,-274 8,-794 231,-794 231,-274 8,-274"/>
<polygon fill="#f5f5f5" stroke="transparent" points="8.5,-772 8.5,-794 231.5,-794 231.5,-772 8.5,-772"/>
<polygon fill="none" stroke="black" points="8.5,-772 8.5,-794 231.5,-794 231.5,-772 8.5,-772"/>
<text text-anchor="start" x="13.5" y="-781.2" font-family="Helvetica,sans-Serif" font-weight="bold" font-size="11.00">ad_user</text>
<text text-anchor="start" x="196.5" y="-780.2" font-family="Helvetica,sans-Serif" font-size="11.00">[table]</text>
<polygon fill="none" stroke="black" points="8.5,-750 8.5,-772 231.5,-772 231.5,-750 8.5,-750"/>
<image xlink:href="../../images/primaryKeys.png" width="11px" height="12px" preserveAspectRatio="xMinYMin meet" x="13.5" y="-767"/>
<text text-anchor="start" x="28.5" y="-758.2" font-family="Helvetica,sans-Serif" font-size="11.00">ad_user_id</text>
<polygon fill="none" stroke="black" points="8.5,-728 8.5,-750 231.5,-750 231.5,-728 8.5,-728"/>
<image xlink:href="../../images/foreignKeys.png" width="11px" height="12px" preserveAspectRatio="xMinYMin meet" x="13.5" y="-745"/>
<text text-anchor="start" x="28.5" y="-736.2" font-family="Helvetica,sans-Serif" font-size="11.00">ad_client_id</text>
<polygon fill="none" stroke="black" points="8.5,-706 8.5,-728 231.5,-728 231.5,-706 8.5,-706"/>
<image xlink:href="../../images/foreignKeys.png" width="11px" height="12px" preserveAspectRatio="xMinYMin meet" x="13.5" y="-723"/>
<text text-anchor="start" x="28.5" y="-714.2" font-family="Helvetica,sans-Serif" font-size="11.00">ad_org_id</text>
<polygon fill="#ffffff" stroke="transparent" points="8.5,-684 8.5,-706 231.5,-706 231.5,-684 8.5,-684"/>
<polygon fill="none" stroke="black" points="8.5,-684 8.5,-706 231.5,-706 231.5,-684 8.5,-684"/>
<text text-anchor="start" x="28.5" y="-692.2" font-family="Helvetica,sans-Serif" font-size="11.00">name</text>
<polygon fill="#ffffff" stroke="transparent" points="8.5,-662 8.5,-684 231.5,-684 231.5,-662 8.5,-662"/>
<polygon fill="none" stroke="black" points="8.5,-662 8.5,-684 231.5,-684 231.5,-662 8.5,-662"/>
<text text-anchor="start" x="28.5" y="-670.2" font-family="Helvetica,sans-Serif" font-size="11.00">email</text>
<polygon fill="none" stroke="black" points="8.5,-640 8.5,-662 231.5,-662 231.5,-640 8.5,-640"/>
<image xlink:href="../../images/foreignKeys.png" width="11px" height="12px" preserveAspectRatio="xMinYMin meet" x="13.5" y="-657"/>
<text text-anchor="start" x="28.5" y="-648.2" font-family="Helvetica,sans-Serif" font-size="11.00">supervisor_id</text>
<polygon fill="#ffffff" stroke="transparent" points="8.5,-618 8.5,-640 231.5,-640 231.5,-618 8.5,-618"/>
<polygon fill="none" stroke="black" points="8.5,-618 8.5,-640 231.5,-640 231.5,-618 8.5,-618"/>
<image xlink:href="../../images/foreignKeys.png" width="11px" height="12px" preserveAspectRatio="xMinYMin meet" x="13.5" y="-635"/>
<text text-anchor="start" x="28.5" y="-626.2" font-family="Helvetica,sans-Serif" font-size="11.00">c_bpartner_id</text>
<polygon fill="none" stroke="black" points="8.5,-596 8.5,-618 231.5,-618 231.5,-596 8.5,-596"/>
<image xlink:href="../../images/foreignKeys.png" width="11px" height="12px" preserveAspectRatio="xMinYMin meet" x="13.5" y="-613"/>
<text text-anchor="start" x="28.5" y="-604.2" font-family="Helvetica,sans-Serif" font-size="11.00">c_bpartner_location_id</text>
<polygon fill="none" stroke="black" points="8.5,-574 8.5,-596 231.5,-596 231.5,-574 8.5,-574"/>
<image xlink:href="../../images/foreignKeys.png" width="11px" height="12px" preserveAspectRatio="xMinYMin meet" x="13.5" y="-591"/>
<text text-anchor="start" x="28.5" y="-582.2" font-family="Helvetica,sans-Serif" font-size="11.00">c_greeting_id</text>
<polygon fill="none" stroke="black" points="8.5,-552 8.5,-574 231.5,-574 231.5,-552 8.5,-552"/>
<image xlink:href="../../images/foreignKeys.png" width="11px" height="12px" preserveAspectRatio="xMinYMin meet" x="13.5" y="-569"/>
<text text-anchor="start" x="28.5" y="-560.2" font-family="Helvetica,sans-Serif" font-size="11.00">ad_orgtrx_id</text>
<polygon fill="none" stroke="black" points="8.5,-530 8.5,-552 231.5,-552 231.5,-530 8.5,-530"/>
<image xlink:href="../../images/foreignKeys.png" width="11px" height="12px" preserveAspectRatio="xMinYMin meet" x="13.5" y="-547"/>
<text text-anchor="start" x="28.5" y="-538.2" font-family="Helvetica,sans-Serif" font-size="11.00">c_job_id</text>
<polygon fill="#ffffff" stroke="transparent" points="8.5,-508 8.5,-530 231.5,-530 231.5,-508 8.5,-508"/>
<polygon fill="none" stroke="black" points="8.5,-508 8.5,-530 231.5,-530 231.5,-508 8.5,-508"/>
<text text-anchor="start" x="28.5" y="-516.2" font-family="Helvetica,sans-Serif" font-size="11.00">ad_user_uu</text>
<polygon fill="none" stroke="black" points="8.5,-486 8.5,-508 231.5,-508 231.5,-486 8.5,-486"/>
<image xlink:href="../../images/foreignKeys.png" width="11px" height="12px" preserveAspectRatio="xMinYMin meet" x="13.5" y="-503"/>
<text text-anchor="start" x="28.5" y="-494.2" font-family="Helvetica,sans-Serif" font-size="11.00">c_location_id</text>
<polygon fill="none" stroke="black" points="8.5,-464 8.5,-486 231.5,-486 231.5,-464 8.5,-464"/>
<image xlink:href="../../images/foreignKeys.png" width="11px" height="12px" preserveAspectRatio="xMinYMin meet" x="13.5" y="-481"/>
<text text-anchor="start" x="28.5" y="-472.2" font-family="Helvetica,sans-Serif" font-size="11.00">c_campaign_id</text>
<polygon fill="none" stroke="black" points="8.5,-442 8.5,-464 231.5,-464 231.5,-442 8.5,-442"/>
<image xlink:href="../../images/foreignKeys.png" width="11px" height="12px" preserveAspectRatio="xMinYMin meet" x="13.5" y="-459"/>
<text text-anchor="start" x="28.5" y="-450.2" font-family="Helvetica,sans-Serif" font-size="11.00">salesrep_id</text>
<polygon fill="none" stroke="black" points="8.5,-420 8.5,-442 231.5,-442 231.5,-420 8.5,-420"/>
<image xlink:href="../../images/foreignKeys.png" width="11px" height="12px" preserveAspectRatio="xMinYMin meet" x="13.5" y="-437"/>
<text text-anchor="start" x="28.5" y="-428.2" font-family="Helvetica,sans-Serif" font-size="11.00">bp_location_id</text>
<polygon fill="none" stroke="black" points="8.5,-398 8.5,-420 231.5,-420 231.5,-398 8.5,-398"/>
<image xlink:href="../../images/foreignKeys.png" width="11px" height="12px" preserveAspectRatio="xMinYMin meet" x="13.5" y="-415"/>
<text text-anchor="start" x="28.5" y="-406.2" font-family="Helvetica,sans-Serif" font-size="11.00">r_defaultmailtext_id</text>
<polygon fill="none" stroke="black" points="8.5,-376 8.5,-398 231.5,-398 231.5,-376 8.5,-376"/>
<image xlink:href="../../images/foreignKeys.png" width="11px" height="12px" preserveAspectRatio="xMinYMin meet" x="13.5" y="-393"/>
<text text-anchor="start" x="28.5" y="-384.2" font-family="Helvetica,sans-Serif" font-size="11.00">cof_c_marketsegment_id</text>
<polygon fill="none" stroke="black" points="8.5,-354 8.5,-376 231.5,-376 231.5,-354 8.5,-354"/>
<image xlink:href="../../images/foreignKeys.png" width="11px" height="12px" preserveAspectRatio="xMinYMin meet" x="13.5" y="-371"/>
<text text-anchor="start" x="28.5" y="-362.2" font-family="Helvetica,sans-Serif" font-size="11.00">cof_c_leadexpirationreason_id</text>
<polygon fill="none" stroke="black" points="8.5,-332 8.5,-354 231.5,-354 231.5,-332 8.5,-332"/>
<image xlink:href="../../images/foreignKeys.png" width="11px" height="12px" preserveAspectRatio="xMinYMin meet" x="13.5" y="-349"/>
<text text-anchor="start" x="28.5" y="-340.2" font-family="Helvetica,sans-Serif" font-size="11.00">ad_image_id</text>
<polygon fill="none" stroke="black" points="8.5,-310 8.5,-332 231.5,-332 231.5,-310 8.5,-310"/>
<image xlink:href="../../images/foreignKeys.png" width="11px" height="12px" preserveAspectRatio="xMinYMin meet" x="13.5" y="-327"/>
<text text-anchor="start" x="28.5" y="-318.2" font-family="Helvetica,sans-Serif" font-size="11.00">c_subscription_id</text>
<polygon fill="none" stroke="black" points="8.5,-292 8.5,-310 231.5,-310 231.5,-292 8.5,-292"/>
<text text-anchor="start" x="11.5" y="-298.2" font-family="Helvetica,sans-Serif" font-size="11.00">...</text>
<polygon fill="#ffffff" stroke="transparent" points="8.5,-274 8.5,-292 97.5,-292 97.5,-274 8.5,-274"/>
<polygon fill="none" stroke="black" points="8.5,-274 8.5,-292 97.5,-292 97.5,-274 8.5,-274"/>
<text text-anchor="start" x="11.5" y="-280.2" font-family="Helvetica,sans-Serif" font-size="11.00">&lt; 17</text>
<polygon fill="#ffffff" stroke="transparent" points="97.5,-274 97.5,-292 166.5,-292 166.5,-274 97.5,-274"/>
<polygon fill="none" stroke="black" points="97.5,-274 97.5,-292 166.5,-292 166.5,-274 97.5,-274"/>
<text text-anchor="start" x="130.5" y="-280.2" font-family="Helvetica,sans-Serif" font-size="11.00">8 rows</text>
<polygon fill="#ffffff" stroke="transparent" points="166.5,-274 166.5,-292 231.5,-292 231.5,-274 166.5,-274"/>
<polygon fill="none" stroke="black" points="166.5,-274 166.5,-292 231.5,-292 231.5,-274 166.5,-274"/>
<text text-anchor="start" x="200.5" y="-280.2" font-family="Helvetica,sans-Serif" font-size="11.00">316 &gt;</text>
</a>
</g>
</g>
<!-- ad_role&#45;&gt;ad_user -->
<g id="edge1" class="edge">
<title>ad_role:w&#45;&gt;ad_user:e</title>
<path fill="none" stroke="black" d="M305.15,-816.8C273.7,-806.2 273.53,-761 232.5,-761"/>
<polygon fill="black" stroke="black" points="311.59,-817.79 318.95,-822.56 315.55,-818.39 319.5,-819 319.5,-819 319.5,-819 315.55,-818.39 320.05,-815.44 311.59,-817.79 311.59,-817.79"/>
<ellipse fill="none" stroke="black" cx="308.43" cy="-817.3" rx="3.2" ry="3.2"/>
</g>
<!-- cof_configovs -->
<g id="node3" class="node">
<title>cof_configovs</title>
<g id="a_node3"><a xlink:href="../../tables/cof_configovs.html" xlink:title="cof_configovs" target="_top">
<polygon fill="#ffffff" stroke="transparent" points="618,-457 618,-963 872,-963 872,-457 618,-457"/>
<polygon fill="#f5f5f5" stroke="transparent" points="620,-939 620,-961 870,-961 870,-939 620,-939"/>
<polygon fill="none" stroke="black" points="620,-939 620,-961 870,-961 870,-939 620,-939"/>
<text text-anchor="start" x="625" y="-948.2" font-family="Helvetica,sans-Serif" font-weight="bold" font-size="11.00">cof_configovs</text>
<text text-anchor="start" x="835" y="-947.2" font-family="Helvetica,sans-Serif" font-size="11.00">[table]</text>
<polygon fill="none" stroke="black" points="620,-917 620,-939 787,-939 787,-917 620,-917"/>
<image xlink:href="../../images/primaryKeys.png" width="11px" height="12px" preserveAspectRatio="xMinYMin meet" x="625" y="-934"/>
<text text-anchor="start" x="640" y="-925.2" font-family="Helvetica,sans-Serif" font-size="11.00">cof_configovs_id</text>
<polygon fill="none" stroke="black" points="787,-917 787,-939 870,-939 870,-917 787,-917"/>
<text text-anchor="start" x="790" y="-925.2" font-family="Helvetica,sans-Serif" font-size="11.00">numeric[10]</text>
<polygon fill="#ffffff" stroke="transparent" points="620,-895 620,-917 787,-917 787,-895 620,-895"/>
<polygon fill="none" stroke="black" points="620,-895 620,-917 787,-917 787,-895 620,-895"/>
<text text-anchor="start" x="640" y="-903.2" font-family="Helvetica,sans-Serif" font-size="11.00">cof_configovs_uu</text>
<polygon fill="none" stroke="black" points="787,-895 787,-917 870,-917 870,-895 787,-895"/>
<text text-anchor="start" x="790" y="-903.2" font-family="Helvetica,sans-Serif" font-size="11.00">varchar[36]</text>
<polygon fill="none" stroke="black" points="620,-873 620,-895 787,-895 787,-873 620,-873"/>
<text text-anchor="start" x="640" y="-881.2" font-family="Helvetica,sans-Serif" font-size="11.00">ad_client_id</text>
<polygon fill="none" stroke="black" points="787,-873 787,-895 870,-895 870,-873 787,-873"/>
<text text-anchor="start" x="790" y="-881.2" font-family="Helvetica,sans-Serif" font-size="11.00">numeric[10]</text>
<polygon fill="none" stroke="black" points="620,-851 620,-873 787,-873 787,-851 620,-851"/>
<text text-anchor="start" x="640" y="-859.2" font-family="Helvetica,sans-Serif" font-size="11.00">ad_org_id</text>
<polygon fill="none" stroke="black" points="787,-851 787,-873 870,-873 870,-851 787,-851"/>
<text text-anchor="start" x="790" y="-859.2" font-family="Helvetica,sans-Serif" font-size="11.00">numeric[10]</text>
<polygon fill="none" stroke="black" points="620,-829 620,-851 787,-851 787,-829 620,-829"/>
<text text-anchor="start" x="640" y="-837.2" font-family="Helvetica,sans-Serif" font-size="11.00">isactive</text>
<polygon fill="none" stroke="black" points="787,-829 787,-851 870,-851 870,-829 787,-829"/>
<text text-anchor="start" x="790" y="-837.2" font-family="Helvetica,sans-Serif" font-size="11.00">bpchar[1]</text>
<polygon fill="none" stroke="black" points="620,-807 620,-829 787,-829 787,-807 620,-807"/>
<text text-anchor="start" x="640" y="-815.2" font-family="Helvetica,sans-Serif" font-size="11.00">created</text>
<polygon fill="none" stroke="black" points="787,-807 787,-829 870,-829 870,-807 787,-807"/>
<text text-anchor="start" x="790" y="-815.2" font-family="Helvetica,sans-Serif" font-size="11.00">timestamp[29,6]</text>
<polygon fill="none" stroke="black" points="620,-785 620,-807 787,-807 787,-785 620,-785"/>
<text text-anchor="start" x="640" y="-793.2" font-family="Helvetica,sans-Serif" font-size="11.00">createdby</text>
<polygon fill="none" stroke="black" points="787,-785 787,-807 870,-807 870,-785 787,-785"/>
<text text-anchor="start" x="790" y="-793.2" font-family="Helvetica,sans-Serif" font-size="11.00">numeric[10]</text>
<polygon fill="none" stroke="black" points="620,-763 620,-785 787,-785 787,-763 620,-763"/>
<text text-anchor="start" x="640" y="-771.2" font-family="Helvetica,sans-Serif" font-size="11.00">updated</text>
<polygon fill="none" stroke="black" points="787,-763 787,-785 870,-785 870,-763 787,-763"/>
<text text-anchor="start" x="790" y="-771.2" font-family="Helvetica,sans-Serif" font-size="11.00">timestamp[29,6]</text>
<polygon fill="none" stroke="black" points="620,-741 620,-763 787,-763 787,-741 620,-741"/>
<text text-anchor="start" x="640" y="-749.2" font-family="Helvetica,sans-Serif" font-size="11.00">updatedby</text>
<polygon fill="none" stroke="black" points="787,-741 787,-763 870,-763 870,-741 787,-741"/>
<text text-anchor="start" x="790" y="-749.2" font-family="Helvetica,sans-Serif" font-size="11.00">numeric[10]</text>
<polygon fill="none" stroke="black" points="620,-719 620,-741 787,-741 787,-719 620,-719"/>
<text text-anchor="start" x="640" y="-727.2" font-family="Helvetica,sans-Serif" font-size="11.00">priority</text>
<polygon fill="none" stroke="black" points="787,-719 787,-741 870,-741 870,-719 787,-719"/>
<text text-anchor="start" x="790" y="-727.2" font-family="Helvetica,sans-Serif" font-size="11.00">numeric[10]</text>
<polygon fill="none" stroke="black" points="620,-697 620,-719 787,-719 787,-697 620,-697"/>
<image xlink:href="../../images/foreignKeys.png" width="11px" height="12px" preserveAspectRatio="xMinYMin meet" x="625" y="-714"/>
<text text-anchor="start" x="640" y="-705.2" font-family="Helvetica,sans-Serif" font-size="11.00">cof_role_id</text>
<polygon fill="none" stroke="black" points="787,-697 787,-719 870,-719 870,-697 787,-697"/>
<text text-anchor="start" x="790" y="-705.2" font-family="Helvetica,sans-Serif" font-size="11.00">numeric[10]</text>
<polygon fill="none" stroke="black" points="620,-675 620,-697 787,-697 787,-675 620,-675"/>
<image xlink:href="../../images/foreignKeys.png" width="11px" height="12px" preserveAspectRatio="xMinYMin meet" x="625" y="-692"/>
<text text-anchor="start" x="640" y="-683.2" font-family="Helvetica,sans-Serif" font-size="11.00">ad_user_id</text>
<polygon fill="none" stroke="black" points="787,-675 787,-697 870,-697 870,-675 787,-675"/>
<text text-anchor="start" x="790" y="-683.2" font-family="Helvetica,sans-Serif" font-size="11.00">numeric[10]</text>
<polygon fill="none" stroke="black" points="620,-653 620,-675 787,-675 787,-653 620,-653"/>
<image xlink:href="../../images/foreignKeys.png" width="11px" height="12px" preserveAspectRatio="xMinYMin meet" x="625" y="-670"/>
<text text-anchor="start" x="640" y="-661.2" font-family="Helvetica,sans-Serif" font-size="11.00">c_doctypetarget_id</text>
<polygon fill="none" stroke="black" points="787,-653 787,-675 870,-675 870,-653 787,-653"/>
<text text-anchor="start" x="790" y="-661.2" font-family="Helvetica,sans-Serif" font-size="11.00">numeric[10]</text>
<polygon fill="none" stroke="black" points="620,-631 620,-653 787,-653 787,-631 620,-631"/>
<text text-anchor="start" x="640" y="-639.2" font-family="Helvetica,sans-Serif" font-size="11.00">lbr_transactiontype</text>
<polygon fill="none" stroke="black" points="787,-631 787,-653 870,-653 870,-631 787,-631"/>
<text text-anchor="start" x="790" y="-639.2" font-family="Helvetica,sans-Serif" font-size="11.00">varchar[3]</text>
<polygon fill="none" stroke="black" points="620,-609 620,-631 787,-631 787,-609 620,-609"/>
<image xlink:href="../../images/foreignKeys.png" width="11px" height="12px" preserveAspectRatio="xMinYMin meet" x="625" y="-626"/>
<text text-anchor="start" x="640" y="-617.2" font-family="Helvetica,sans-Serif" font-size="11.00">m_pricelist_id</text>
<polygon fill="none" stroke="black" points="787,-609 787,-631 870,-631 870,-609 787,-609"/>
<text text-anchor="start" x="790" y="-617.2" font-family="Helvetica,sans-Serif" font-size="11.00">numeric[10]</text>
<polygon fill="none" stroke="black" points="620,-587 620,-609 787,-609 787,-587 620,-587"/>
<text text-anchor="start" x="640" y="-595.2" font-family="Helvetica,sans-Serif" font-size="11.00">docaction</text>
<polygon fill="none" stroke="black" points="787,-587 787,-609 870,-609 870,-587 787,-587"/>
<text text-anchor="start" x="790" y="-595.2" font-family="Helvetica,sans-Serif" font-size="11.00">varchar[2]</text>
<polygon fill="none" stroke="black" points="620,-565 620,-587 787,-587 787,-565 620,-565"/>
<text text-anchor="start" x="640" y="-573.2" font-family="Helvetica,sans-Serif" font-size="11.00">name</text>
<polygon fill="none" stroke="black" points="787,-565 787,-587 870,-587 870,-565 787,-565"/>
<text text-anchor="start" x="790" y="-573.2" font-family="Helvetica,sans-Serif" font-size="11.00">varchar[60]</text>
<polygon fill="none" stroke="black" points="620,-543 620,-565 787,-565 787,-543 620,-543"/>
<text text-anchor="start" x="640" y="-551.2" font-family="Helvetica,sans-Serif" font-size="11.00">description</text>
<polygon fill="none" stroke="black" points="787,-543 787,-565 870,-565 870,-543 787,-543"/>
<text text-anchor="start" x="790" y="-551.2" font-family="Helvetica,sans-Serif" font-size="11.00">varchar[255]</text>
<polygon fill="none" stroke="black" points="620,-521 620,-543 787,-543 787,-521 620,-521"/>
<text text-anchor="start" x="640" y="-529.2" font-family="Helvetica,sans-Serif" font-size="11.00">cof_ativartdd</text>
<polygon fill="none" stroke="black" points="787,-521 787,-543 870,-543 870,-521 787,-521"/>
<text text-anchor="start" x="790" y="-529.2" font-family="Helvetica,sans-Serif" font-size="11.00">bpchar[1]</text>
<polygon fill="none" stroke="black" points="620,-499 620,-521 787,-521 787,-499 620,-499"/>
<text text-anchor="start" x="640" y="-507.2" font-family="Helvetica,sans-Serif" font-size="11.00">cof_alterarpreco</text>
<polygon fill="none" stroke="black" points="787,-499 787,-521 870,-521 870,-499 787,-499"/>
<text text-anchor="start" x="790" y="-507.2" font-family="Helvetica,sans-Serif" font-size="11.00">bpchar[1]</text>
<polygon fill="none" stroke="black" points="620,-477 620,-499 787,-499 787,-477 620,-477"/>
<text text-anchor="start" x="640" y="-485.2" font-family="Helvetica,sans-Serif" font-size="11.00">cof_pesquisarproduto</text>
<polygon fill="none" stroke="black" points="787,-477 787,-499 870,-499 870,-477 787,-477"/>
<text text-anchor="start" x="790" y="-485.2" font-family="Helvetica,sans-Serif" font-size="11.00">bpchar[1]</text>
<polygon fill="#ffffff" stroke="transparent" points="620,-459 620,-477 695,-477 695,-459 620,-459"/>
<polygon fill="none" stroke="black" points="620,-459 620,-477 695,-477 695,-459 620,-459"/>
<text text-anchor="start" x="623" y="-465.2" font-family="Helvetica,sans-Serif" font-size="11.00">&lt; 4</text>
<polygon fill="#ffffff" stroke="transparent" points="695,-459 695,-477 787,-477 787,-459 695,-459"/>
<polygon fill="none" stroke="black" points="695,-459 695,-477 787,-477 787,-459 695,-459"/>
<text text-anchor="start" x="751" y="-465.2" font-family="Helvetica,sans-Serif" font-size="11.00">0 rows</text>
<polygon fill="#ffffff" stroke="transparent" points="787,-459 787,-477 870,-477 870,-459 787,-459"/>
<polygon fill="none" stroke="black" points="787,-459 787,-477 870,-477 870,-459 787,-459"/>
<text text-anchor="start" x="851" y="-465.2" font-family="Helvetica,sans-Serif" font-size="11.00">0 &gt;</text>
<polygon fill="none" stroke="black" stroke-width="2" points="619,-458 619,-962 871,-962 871,-458 619,-458"/>
</a>
</g>
</g>
<!-- cof_configovs&#45;&gt;ad_role -->
<g id="edge4" class="edge">
<title>cof_configovs:w&#45;&gt;ad_role:e</title>
<path fill="none" stroke="black" d="M604.56,-709.65C524.88,-729.88 630.09,-929 529.5,-929"/>
<polygon fill="black" stroke="black" points="611.05,-708.91 619.41,-711.58 615.03,-708.45 619,-708 619,-708 619,-708 615.03,-708.45 618.59,-704.42 611.05,-708.91 611.05,-708.91"/>
<ellipse fill="none" stroke="black" cx="607.87" cy="-709.27" rx="3.2" ry="3.2"/>
</g>
<!-- cof_configovs&#45;&gt;ad_user -->
<g id="edge2" class="edge">
<title>cof_configovs:w&#45;&gt;ad_user:e</title>
<path fill="none" stroke="black" d="M604.4,-686.8C595.86,-687.85 589.71,-689.68 577,-691 509.32,-698.02 333.03,-687.91 272,-718 248.72,-729.48 258.45,-761 232.5,-761"/>
<polygon fill="black" stroke="black" points="611.01,-686.44 619.2,-689.59 615.01,-686.22 619,-686 619,-686 619,-686 615.01,-686.22 618.8,-682.41 611.01,-686.44 611.01,-686.44"/>
<ellipse fill="none" stroke="black" cx="607.82" cy="-686.62" rx="3.2" ry="3.2"/>
</g>
<!-- c_doctype -->
<g id="node4" class="node">
<title>c_doctype</title>
<g id="a_node4"><a xlink:href="../../tables/c_doctype.html" xlink:title="c_doctype" target="_top">
<polygon fill="#ffffff" stroke="transparent" points="280,-248 280,-680 569,-680 569,-248 280,-248"/>
<polygon fill="#f5f5f5" stroke="transparent" points="280.5,-658 280.5,-680 569.5,-680 569.5,-658 280.5,-658"/>
<polygon fill="none" stroke="black" points="280.5,-658 280.5,-680 569.5,-680 569.5,-658 280.5,-658"/>
<text text-anchor="start" x="285.5" y="-667.2" font-family="Helvetica,sans-Serif" font-weight="bold" font-size="11.00">c_doctype</text>
<text text-anchor="start" x="534.5" y="-666.2" font-family="Helvetica,sans-Serif" font-size="11.00">[table]</text>
<polygon fill="none" stroke="black" points="280.5,-636 280.5,-658 569.5,-658 569.5,-636 280.5,-636"/>
<image xlink:href="../../images/primaryKeys.png" width="11px" height="12px" preserveAspectRatio="xMinYMin meet" x="285.5" y="-653"/>
<text text-anchor="start" x="300.5" y="-644.2" font-family="Helvetica,sans-Serif" font-size="11.00">c_doctype_id</text>
<polygon fill="#ffffff" stroke="transparent" points="280.5,-614 280.5,-636 569.5,-636 569.5,-614 280.5,-614"/>
<polygon fill="none" stroke="black" points="280.5,-614 280.5,-636 569.5,-636 569.5,-614 280.5,-614"/>
<text text-anchor="start" x="300.5" y="-622.2" font-family="Helvetica,sans-Serif" font-size="11.00">ad_client_id</text>
<polygon fill="#ffffff" stroke="transparent" points="280.5,-592 280.5,-614 569.5,-614 569.5,-592 280.5,-592"/>
<polygon fill="none" stroke="black" points="280.5,-592 280.5,-614 569.5,-614 569.5,-592 280.5,-592"/>
<text text-anchor="start" x="300.5" y="-600.2" font-family="Helvetica,sans-Serif" font-size="11.00">name</text>
<polygon fill="none" stroke="black" points="280.5,-570 280.5,-592 569.5,-592 569.5,-570 280.5,-570"/>
<image xlink:href="../../images/foreignKeys.png" width="11px" height="12px" preserveAspectRatio="xMinYMin meet" x="285.5" y="-587"/>
<text text-anchor="start" x="300.5" y="-578.2" font-family="Helvetica,sans-Serif" font-size="11.00">c_doctypeproforma_id</text>
<polygon fill="none" stroke="black" points="280.5,-548 280.5,-570 569.5,-570 569.5,-548 280.5,-548"/>
<image xlink:href="../../images/foreignKeys.png" width="11px" height="12px" preserveAspectRatio="xMinYMin meet" x="285.5" y="-565"/>
<text text-anchor="start" x="300.5" y="-556.2" font-family="Helvetica,sans-Serif" font-size="11.00">c_doctypeshipment_id</text>
<polygon fill="none" stroke="black" points="280.5,-526 280.5,-548 569.5,-548 569.5,-526 280.5,-526"/>
<image xlink:href="../../images/foreignKeys.png" width="11px" height="12px" preserveAspectRatio="xMinYMin meet" x="285.5" y="-543"/>
<text text-anchor="start" x="300.5" y="-534.2" font-family="Helvetica,sans-Serif" font-size="11.00">c_doctypeinvoice_id</text>
<polygon fill="none" stroke="black" points="280.5,-504 280.5,-526 569.5,-526 569.5,-504 280.5,-504"/>
<image xlink:href="../../images/foreignKeys.png" width="11px" height="12px" preserveAspectRatio="xMinYMin meet" x="285.5" y="-521"/>
<text text-anchor="start" x="300.5" y="-512.2" font-family="Helvetica,sans-Serif" font-size="11.00">docnosequence_id</text>
<polygon fill="none" stroke="black" points="280.5,-482 280.5,-504 569.5,-504 569.5,-482 280.5,-482"/>
<image xlink:href="../../images/foreignKeys.png" width="11px" height="12px" preserveAspectRatio="xMinYMin meet" x="285.5" y="-499"/>
<text text-anchor="start" x="300.5" y="-490.2" font-family="Helvetica,sans-Serif" font-size="11.00">gl_category_id</text>
<polygon fill="none" stroke="black" points="280.5,-460 280.5,-482 569.5,-482 569.5,-460 280.5,-460"/>
<image xlink:href="../../images/foreignKeys.png" width="11px" height="12px" preserveAspectRatio="xMinYMin meet" x="285.5" y="-477"/>
<text text-anchor="start" x="300.5" y="-468.2" font-family="Helvetica,sans-Serif" font-size="11.00">ad_printformat_id</text>
<polygon fill="none" stroke="black" points="280.5,-438 280.5,-460 569.5,-460 569.5,-438 280.5,-438"/>
<image xlink:href="../../images/foreignKeys.png" width="11px" height="12px" preserveAspectRatio="xMinYMin meet" x="285.5" y="-455"/>
<text text-anchor="start" x="300.5" y="-446.2" font-family="Helvetica,sans-Serif" font-size="11.00">c_doctypedifference_id</text>
<polygon fill="none" stroke="black" points="280.5,-416 280.5,-438 569.5,-438 569.5,-416 280.5,-416"/>
<image xlink:href="../../images/foreignKeys.png" width="11px" height="12px" preserveAspectRatio="xMinYMin meet" x="285.5" y="-433"/>
<text text-anchor="start" x="300.5" y="-424.2" font-family="Helvetica,sans-Serif" font-size="11.00">definitesequence_id</text>
<polygon fill="#ffffff" stroke="transparent" points="280.5,-394 280.5,-416 569.5,-416 569.5,-394 280.5,-394"/>
<polygon fill="none" stroke="black" points="280.5,-394 280.5,-416 569.5,-416 569.5,-394 280.5,-394"/>
<text text-anchor="start" x="300.5" y="-402.2" font-family="Helvetica,sans-Serif" font-size="11.00">c_doctype_uu</text>
<polygon fill="none" stroke="black" points="280.5,-372 280.5,-394 569.5,-394 569.5,-372 280.5,-372"/>
<image xlink:href="../../images/foreignKeys.png" width="11px" height="12px" preserveAspectRatio="xMinYMin meet" x="285.5" y="-389"/>
<text text-anchor="start" x="300.5" y="-380.2" font-family="Helvetica,sans-Serif" font-size="11.00">m_warehouse_id</text>
<polygon fill="none" stroke="black" points="280.5,-350 280.5,-372 569.5,-372 569.5,-350 280.5,-350"/>
<image xlink:href="../../images/foreignKeys.png" width="11px" height="12px" preserveAspectRatio="xMinYMin meet" x="285.5" y="-367"/>
<text text-anchor="start" x="300.5" y="-358.2" font-family="Helvetica,sans-Serif" font-size="11.00">user1_id</text>
<polygon fill="none" stroke="black" points="280.5,-328 280.5,-350 569.5,-350 569.5,-328 280.5,-328"/>
<image xlink:href="../../images/foreignKeys.png" width="11px" height="12px" preserveAspectRatio="xMinYMin meet" x="285.5" y="-345"/>
<text text-anchor="start" x="300.5" y="-336.2" font-family="Helvetica,sans-Serif" font-size="11.00">c_activity_id</text>
<polygon fill="none" stroke="black" points="280.5,-306 280.5,-328 569.5,-328 569.5,-306 280.5,-306"/>
<image xlink:href="../../images/foreignKeys.png" width="11px" height="12px" preserveAspectRatio="xMinYMin meet" x="285.5" y="-323"/>
<text text-anchor="start" x="300.5" y="-314.2" font-family="Helvetica,sans-Serif" font-size="11.00">user2_id</text>
<polygon fill="none" stroke="black" points="280.5,-284 280.5,-306 569.5,-306 569.5,-284 280.5,-284"/>
<image xlink:href="../../images/foreignKeys.png" width="11px" height="12px" preserveAspectRatio="xMinYMin meet" x="285.5" y="-301"/>
<text text-anchor="start" x="300.5" y="-292.2" font-family="Helvetica,sans-Serif" font-size="11.00">cof_charge_id</text>
<polygon fill="none" stroke="black" points="280.5,-266 280.5,-284 569.5,-284 569.5,-266 280.5,-266"/>
<text text-anchor="start" x="283.5" y="-272.2" font-family="Helvetica,sans-Serif" font-size="11.00">...</text>
<polygon fill="#ffffff" stroke="transparent" points="280.5,-248 280.5,-266 399.5,-266 399.5,-248 280.5,-248"/>
<polygon fill="none" stroke="black" points="280.5,-248 280.5,-266 399.5,-266 399.5,-248 280.5,-248"/>
<text text-anchor="start" x="283.5" y="-254.2" font-family="Helvetica,sans-Serif" font-size="11.00">&lt; 13</text>
<polygon fill="#ffffff" stroke="transparent" points="399.5,-248 399.5,-266 495.5,-266 495.5,-248 399.5,-248"/>
<polygon fill="none" stroke="black" points="399.5,-248 399.5,-266 495.5,-266 495.5,-248 399.5,-248"/>
<text text-anchor="start" x="447.5" y="-254.2" font-family="Helvetica,sans-Serif" font-size="11.00">133 rows</text>
<polygon fill="#ffffff" stroke="transparent" points="495.5,-248 495.5,-266 569.5,-266 569.5,-248 495.5,-248"/>
<polygon fill="none" stroke="black" points="495.5,-248 495.5,-266 569.5,-266 569.5,-248 495.5,-248"/>
<text text-anchor="start" x="544.5" y="-254.2" font-family="Helvetica,sans-Serif" font-size="11.00">68 &gt;</text>
</a>
</g>
</g>
<!-- cof_configovs&#45;&gt;c_doctype -->
<g id="edge3" class="edge">
<title>cof_configovs:w&#45;&gt;c_doctype:e</title>
<path fill="none" stroke="black" d="M604.64,-661.19C593.38,-656.36 587.45,-647 570.5,-647"/>
<polygon fill="black" stroke="black" points="611.15,-662.47 618.31,-667.53 615.07,-663.23 619,-664 619,-664 619,-664 615.07,-663.23 619.69,-660.47 611.15,-662.47 611.15,-662.47"/>
<ellipse fill="none" stroke="black" cx="608.01" cy="-661.85" rx="3.2" ry="3.2"/>
</g>
<!-- m_pricelist -->
<g id="node5" class="node">
<title>m_pricelist</title>
<g id="a_node5"><a xlink:href="../../tables/m_pricelist.html" xlink:title="m_pricelist" target="_top">
<polygon fill="#ffffff" stroke="transparent" points="346.5,-37 346.5,-227 502.5,-227 502.5,-37 346.5,-37"/>
<polygon fill="#f5f5f5" stroke="transparent" points="346.5,-205 346.5,-227 502.5,-227 502.5,-205 346.5,-205"/>
<polygon fill="none" stroke="black" points="346.5,-205 346.5,-227 502.5,-227 502.5,-205 346.5,-205"/>
<text text-anchor="start" x="351.5" y="-214.2" font-family="Helvetica,sans-Serif" font-weight="bold" font-size="11.00">m_pricelist</text>
<text text-anchor="start" x="467.5" y="-213.2" font-family="Helvetica,sans-Serif" font-size="11.00">[table]</text>
<polygon fill="none" stroke="black" points="346.5,-183 346.5,-205 502.5,-205 502.5,-183 346.5,-183"/>
<image xlink:href="../../images/primaryKeys.png" width="11px" height="12px" preserveAspectRatio="xMinYMin meet" x="351.5" y="-200"/>
<text text-anchor="start" x="366.5" y="-191.2" font-family="Helvetica,sans-Serif" font-size="11.00">m_pricelist_id</text>
<polygon fill="#ffffff" stroke="transparent" points="346.5,-161 346.5,-183 502.5,-183 502.5,-161 346.5,-161"/>
<polygon fill="none" stroke="black" points="346.5,-161 346.5,-183 502.5,-183 502.5,-161 346.5,-161"/>
<text text-anchor="start" x="366.5" y="-169.2" font-family="Helvetica,sans-Serif" font-size="11.00">ad_client_id</text>
<polygon fill="#ffffff" stroke="transparent" points="346.5,-139 346.5,-161 502.5,-161 502.5,-139 346.5,-139"/>
<polygon fill="none" stroke="black" points="346.5,-139 346.5,-161 502.5,-161 502.5,-139 346.5,-139"/>
<text text-anchor="start" x="366.5" y="-147.2" font-family="Helvetica,sans-Serif" font-size="11.00">name</text>
<polygon fill="none" stroke="black" points="346.5,-117 346.5,-139 502.5,-139 502.5,-117 346.5,-117"/>
<image xlink:href="../../images/foreignKeys.png" width="11px" height="12px" preserveAspectRatio="xMinYMin meet" x="351.5" y="-134"/>
<text text-anchor="start" x="366.5" y="-125.2" font-family="Helvetica,sans-Serif" font-size="11.00">basepricelist_id</text>
<polygon fill="none" stroke="black" points="346.5,-95 346.5,-117 502.5,-117 502.5,-95 346.5,-95"/>
<image xlink:href="../../images/foreignKeys.png" width="11px" height="12px" preserveAspectRatio="xMinYMin meet" x="351.5" y="-112"/>
<text text-anchor="start" x="366.5" y="-103.2" font-family="Helvetica,sans-Serif" font-size="11.00">c_currency_id</text>
<polygon fill="#ffffff" stroke="transparent" points="346.5,-73 346.5,-95 502.5,-95 502.5,-73 346.5,-73"/>
<polygon fill="none" stroke="black" points="346.5,-73 346.5,-95 502.5,-95 502.5,-73 346.5,-73"/>
<text text-anchor="start" x="366.5" y="-81.2" font-family="Helvetica,sans-Serif" font-size="11.00">m_pricelist_uu</text>
<polygon fill="none" stroke="black" points="346.5,-55 346.5,-73 502.5,-73 502.5,-55 346.5,-55"/>
<text text-anchor="start" x="349.5" y="-61.2" font-family="Helvetica,sans-Serif" font-size="11.00">...</text>
<polygon fill="#ffffff" stroke="transparent" points="346.5,-37 346.5,-55 401.5,-55 401.5,-37 346.5,-37"/>
<polygon fill="none" stroke="black" points="346.5,-37 346.5,-55 401.5,-55 401.5,-37 346.5,-37"/>
<text text-anchor="start" x="349.5" y="-43.2" font-family="Helvetica,sans-Serif" font-size="11.00">&lt; 2</text>
<polygon fill="#ffffff" stroke="transparent" points="401.5,-37 401.5,-55 457.5,-55 457.5,-37 401.5,-37"/>
<polygon fill="none" stroke="black" points="401.5,-37 401.5,-55 457.5,-55 457.5,-37 401.5,-37"/>
<text text-anchor="start" x="421.5" y="-43.2" font-family="Helvetica,sans-Serif" font-size="11.00">3 rows</text>
<polygon fill="#ffffff" stroke="transparent" points="457.5,-37 457.5,-55 502.5,-55 502.5,-37 457.5,-37"/>
<polygon fill="none" stroke="black" points="457.5,-37 457.5,-55 502.5,-55 502.5,-37 457.5,-37"/>
<text text-anchor="start" x="477.5" y="-43.2" font-family="Helvetica,sans-Serif" font-size="11.00">30 &gt;</text>
</a>
</g>
</g>
<!-- cof_configovs&#45;&gt;m_pricelist -->
<g id="edge5" class="edge">
<title>cof_configovs:w&#45;&gt;m_pricelist:e</title>
<path fill="none" stroke="black" d="M604.93,-616.49C544.12,-582.04 620.68,-304.35 577,-237 556.41,-205.25 541.35,-194 503.5,-194"/>
<polygon fill="black" stroke="black" points="611.24,-618.06 618.13,-623.49 615.12,-619.03 619,-620 619,-620 619,-620 615.12,-619.03 619.87,-616.51 611.24,-618.06 611.24,-618.06"/>
<ellipse fill="none" stroke="black" cx="608.13" cy="-617.29" rx="3.2" ry="3.2"/>
</g>
</g>
</svg>
