<?xml version="1.0" encoding="UTF-8" standalone="no"?>
<!DOCTYPE svg PUBLIC "-//W3C//DTD SVG 1.1//EN"
 "http://www.w3.org/Graphics/SVG/1.1/DTD/svg11.dtd">
<!-- Generated by graphviz version 2.43.0 (0)
 -->
<!-- Title: oneDegreeRelationshipsDiagramImplied Pages: 1 -->
<svg width="603pt" height="357pt"
 viewBox="0.00 0.00 603.00 357.00" xmlns="http://www.w3.org/2000/svg" xmlns:xlink="http://www.w3.org/1999/xlink">
<g id="graph0" class="graph" transform="scale(1 1) rotate(0) translate(4 353)">
<title>oneDegreeRelationshipsDiagramImplied</title>
<polygon fill="#ffffff" stroke="transparent" points="-4,4 -4,-353 599,-353 599,4 -4,4"/>
<text text-anchor="middle" x="71.5" y="-7.2" font-family="Helvetica,sans-Serif" font-size="11.00">Generated by SchemaSpy</text>
<!-- cof_cte_compl_obsfisco -->
<g id="node1" class="node">
<title>cof_cte_compl_obsfisco</title>
<g id="a_node1"><a xlink:href="../../tables/cof_cte_compl_obsfisco.html" xlink:title="cof_cte_compl_obsfisco" target="_top">
<polygon fill="#ffffff" stroke="transparent" points="300,-37 300,-345 587,-345 587,-37 300,-37"/>
<polygon fill="#f5f5f5" stroke="transparent" points="302.5,-321 302.5,-343 585.5,-343 585.5,-321 302.5,-321"/>
<polygon fill="none" stroke="black" points="302.5,-321 302.5,-343 585.5,-343 585.5,-321 302.5,-321"/>
<text text-anchor="start" x="307.5" y="-330.2" font-family="Helvetica,sans-Serif" font-weight="bold" font-size="11.00">cof_cte_compl_obsfisco</text>
<text text-anchor="start" x="550.5" y="-329.2" font-family="Helvetica,sans-Serif" font-size="11.00">[table]</text>
<polygon fill="none" stroke="black" points="302.5,-299 302.5,-321 502.5,-321 502.5,-299 302.5,-299"/>
<image xlink:href="../../images/primaryKeys.png" width="11px" height="12px" preserveAspectRatio="xMinYMin meet" x="307.5" y="-316"/>
<text text-anchor="start" x="322.5" y="-307.2" font-family="Helvetica,sans-Serif" font-size="11.00">cof_cte_compl_obsfisco_id</text>
<polygon fill="none" stroke="black" points="502.5,-299 502.5,-321 585.5,-321 585.5,-299 502.5,-299"/>
<text text-anchor="start" x="505.5" y="-307.2" font-family="Helvetica,sans-Serif" font-size="11.00">numeric[10]</text>
<polygon fill="none" stroke="black" points="302.5,-277 302.5,-299 502.5,-299 502.5,-277 302.5,-277"/>
<text text-anchor="start" x="322.5" y="-285.2" font-family="Helvetica,sans-Serif" font-size="11.00">ad_client_id</text>
<polygon fill="none" stroke="black" points="502.5,-277 502.5,-299 585.5,-299 585.5,-277 502.5,-277"/>
<text text-anchor="start" x="505.5" y="-285.2" font-family="Helvetica,sans-Serif" font-size="11.00">numeric[10]</text>
<polygon fill="none" stroke="black" points="302.5,-255 302.5,-277 502.5,-277 502.5,-255 302.5,-255"/>
<text text-anchor="start" x="322.5" y="-263.2" font-family="Helvetica,sans-Serif" font-size="11.00">ad_org_id</text>
<polygon fill="none" stroke="black" points="502.5,-255 502.5,-277 585.5,-277 585.5,-255 502.5,-255"/>
<text text-anchor="start" x="505.5" y="-263.2" font-family="Helvetica,sans-Serif" font-size="11.00">numeric[10]</text>
<polygon fill="none" stroke="black" points="302.5,-233 302.5,-255 502.5,-255 502.5,-233 302.5,-233"/>
<text text-anchor="start" x="322.5" y="-241.2" font-family="Helvetica,sans-Serif" font-size="11.00">isactive</text>
<polygon fill="none" stroke="black" points="502.5,-233 502.5,-255 585.5,-255 585.5,-233 502.5,-233"/>
<text text-anchor="start" x="505.5" y="-241.2" font-family="Helvetica,sans-Serif" font-size="11.00">bpchar[1]</text>
<polygon fill="none" stroke="black" points="302.5,-211 302.5,-233 502.5,-233 502.5,-211 302.5,-211"/>
<text text-anchor="start" x="322.5" y="-219.2" font-family="Helvetica,sans-Serif" font-size="11.00">created</text>
<polygon fill="none" stroke="black" points="502.5,-211 502.5,-233 585.5,-233 585.5,-211 502.5,-211"/>
<text text-anchor="start" x="505.5" y="-219.2" font-family="Helvetica,sans-Serif" font-size="11.00">timestamp[29,6]</text>
<polygon fill="none" stroke="black" points="302.5,-189 302.5,-211 502.5,-211 502.5,-189 302.5,-189"/>
<text text-anchor="start" x="322.5" y="-197.2" font-family="Helvetica,sans-Serif" font-size="11.00">createdby</text>
<polygon fill="none" stroke="black" points="502.5,-189 502.5,-211 585.5,-211 585.5,-189 502.5,-189"/>
<text text-anchor="start" x="505.5" y="-197.2" font-family="Helvetica,sans-Serif" font-size="11.00">numeric[10]</text>
<polygon fill="none" stroke="black" points="302.5,-167 302.5,-189 502.5,-189 502.5,-167 302.5,-167"/>
<text text-anchor="start" x="322.5" y="-175.2" font-family="Helvetica,sans-Serif" font-size="11.00">updated</text>
<polygon fill="none" stroke="black" points="502.5,-167 502.5,-189 585.5,-189 585.5,-167 502.5,-167"/>
<text text-anchor="start" x="505.5" y="-175.2" font-family="Helvetica,sans-Serif" font-size="11.00">timestamp[29,6]</text>
<polygon fill="none" stroke="black" points="302.5,-145 302.5,-167 502.5,-167 502.5,-145 302.5,-145"/>
<text text-anchor="start" x="322.5" y="-153.2" font-family="Helvetica,sans-Serif" font-size="11.00">updatedby</text>
<polygon fill="none" stroke="black" points="502.5,-145 502.5,-167 585.5,-167 585.5,-145 502.5,-145"/>
<text text-anchor="start" x="505.5" y="-153.2" font-family="Helvetica,sans-Serif" font-size="11.00">numeric[10]</text>
<polygon fill="none" stroke="black" points="302.5,-123 302.5,-145 502.5,-145 502.5,-123 302.5,-123"/>
<image xlink:href="../../images/foreignKeys.png" width="11px" height="12px" preserveAspectRatio="xMinYMin meet" x="307.5" y="-140"/>
<text text-anchor="start" x="322.5" y="-131.2" font-family="Helvetica,sans-Serif" font-size="11.00">cof_cte_id</text>
<polygon fill="none" stroke="black" points="502.5,-123 502.5,-145 585.5,-145 585.5,-123 502.5,-123"/>
<text text-anchor="start" x="505.5" y="-131.2" font-family="Helvetica,sans-Serif" font-size="11.00">numeric[10]</text>
<polygon fill="none" stroke="black" points="302.5,-101 302.5,-123 502.5,-123 502.5,-101 302.5,-101"/>
<text text-anchor="start" x="322.5" y="-109.2" font-family="Helvetica,sans-Serif" font-size="11.00">compl_obsfisco_xcampo</text>
<polygon fill="none" stroke="black" points="502.5,-101 502.5,-123 585.5,-123 585.5,-101 502.5,-101"/>
<text text-anchor="start" x="505.5" y="-109.2" font-family="Helvetica,sans-Serif" font-size="11.00">varchar[20]</text>
<polygon fill="none" stroke="black" points="302.5,-79 302.5,-101 502.5,-101 502.5,-79 302.5,-79"/>
<text text-anchor="start" x="322.5" y="-87.2" font-family="Helvetica,sans-Serif" font-size="11.00">compl_obsfisco_xtexto</text>
<polygon fill="none" stroke="black" points="502.5,-79 502.5,-101 585.5,-101 585.5,-79 502.5,-79"/>
<text text-anchor="start" x="505.5" y="-87.2" font-family="Helvetica,sans-Serif" font-size="11.00">varchar[60]</text>
<polygon fill="#ffffff" stroke="transparent" points="302.5,-57 302.5,-79 502.5,-79 502.5,-57 302.5,-57"/>
<polygon fill="none" stroke="black" points="302.5,-57 302.5,-79 502.5,-79 502.5,-57 302.5,-57"/>
<text text-anchor="start" x="322.5" y="-65.2" font-family="Helvetica,sans-Serif" font-size="11.00">cof_cte_compl_obsfisco_uu</text>
<polygon fill="none" stroke="black" points="502.5,-57 502.5,-79 585.5,-79 585.5,-57 502.5,-57"/>
<text text-anchor="start" x="505.5" y="-65.2" font-family="Helvetica,sans-Serif" font-size="11.00">varchar[36]</text>
<polygon fill="#ffffff" stroke="transparent" points="302.5,-39 302.5,-57 393.5,-57 393.5,-39 302.5,-39"/>
<polygon fill="none" stroke="black" points="302.5,-39 302.5,-57 393.5,-57 393.5,-39 302.5,-39"/>
<text text-anchor="start" x="305.5" y="-45.2" font-family="Helvetica,sans-Serif" font-size="11.00">&lt; 1</text>
<polygon fill="#ffffff" stroke="transparent" points="393.5,-39 393.5,-57 502.5,-57 502.5,-39 393.5,-39"/>
<polygon fill="none" stroke="black" points="393.5,-39 393.5,-57 502.5,-57 502.5,-39 393.5,-39"/>
<text text-anchor="start" x="466.5" y="-45.2" font-family="Helvetica,sans-Serif" font-size="11.00">0 rows</text>
<polygon fill="#ffffff" stroke="transparent" points="502.5,-39 502.5,-57 585.5,-57 585.5,-39 502.5,-39"/>
<polygon fill="none" stroke="black" points="502.5,-39 502.5,-57 585.5,-57 585.5,-39 502.5,-39"/>
<text text-anchor="start" x="566.5" y="-45.2" font-family="Helvetica,sans-Serif" font-size="11.00">0 &gt;</text>
<polygon fill="none" stroke="black" stroke-width="2" points="301,-38 301,-344 586,-344 586,-38 301,-38"/>
</a>
</g>
</g>
<!-- cof_cte -->
<g id="node2" class="node">
<title>cof_cte</title>
<g id="a_node2"><a xlink:href="../../tables/cof_cte.html" xlink:title="cof_cte" target="_top">
<polygon fill="#ffffff" stroke="transparent" points="8,-65 8,-167 251,-167 251,-65 8,-65"/>
<polygon fill="#f5f5f5" stroke="transparent" points="8.5,-145 8.5,-167 251.5,-167 251.5,-145 8.5,-145"/>
<polygon fill="none" stroke="black" points="8.5,-145 8.5,-167 251.5,-167 251.5,-145 8.5,-145"/>
<text text-anchor="start" x="13.5" y="-154.2" font-family="Helvetica,sans-Serif" font-weight="bold" font-size="11.00">cof_cte</text>
<text text-anchor="start" x="216.5" y="-153.2" font-family="Helvetica,sans-Serif" font-size="11.00">[table]</text>
<polygon fill="none" stroke="black" points="8.5,-123 8.5,-145 251.5,-145 251.5,-123 8.5,-123"/>
<image xlink:href="../../images/primaryKeys.png" width="11px" height="12px" preserveAspectRatio="xMinYMin meet" x="13.5" y="-140"/>
<text text-anchor="start" x="28.5" y="-131.2" font-family="Helvetica,sans-Serif" font-size="11.00">cof_cte_id</text>
<polygon fill="#ffffff" stroke="transparent" points="8.5,-101 8.5,-123 251.5,-123 251.5,-101 8.5,-101"/>
<polygon fill="none" stroke="black" points="8.5,-101 8.5,-123 251.5,-123 251.5,-101 8.5,-101"/>
<text text-anchor="start" x="28.5" y="-109.2" font-family="Helvetica,sans-Serif" font-size="11.00">cof_cte_uu</text>
<polygon fill="none" stroke="black" points="8.5,-83 8.5,-101 251.5,-101 251.5,-83 8.5,-83"/>
<text text-anchor="start" x="11.5" y="-89.2" font-family="Helvetica,sans-Serif" font-size="11.00">...</text>
<polygon fill="#ffffff" stroke="transparent" points="8.5,-65 8.5,-83 102.5,-83 102.5,-65 8.5,-65"/>
<polygon fill="none" stroke="black" points="8.5,-65 8.5,-83 102.5,-83 102.5,-65 8.5,-65"/>
<text text-anchor="start" x="11.5" y="-71.2" font-family="Helvetica,sans-Serif" font-size="11.00"> &#160;</text>
<polygon fill="#ffffff" stroke="transparent" points="102.5,-65 102.5,-83 182.5,-83 182.5,-65 102.5,-65"/>
<polygon fill="none" stroke="black" points="102.5,-65 102.5,-83 182.5,-83 182.5,-65 102.5,-65"/>
<text text-anchor="start" x="146.5" y="-71.2" font-family="Helvetica,sans-Serif" font-size="11.00">0 rows</text>
<polygon fill="#ffffff" stroke="transparent" points="182.5,-65 182.5,-83 251.5,-83 251.5,-65 182.5,-65"/>
<polygon fill="none" stroke="black" points="182.5,-65 182.5,-83 251.5,-83 251.5,-65 182.5,-65"/>
<text text-anchor="start" x="226.5" y="-71.2" font-family="Helvetica,sans-Serif" font-size="11.00">15 &gt;</text>
</a>
</g>
</g>
<!-- cof_cte_compl_obsfisco&#45;&gt;cof_cte -->
<g id="edge1" class="edge">
<title>cof_cte_compl_obsfisco:w&#45;&gt;cof_cte:e</title>
<path fill="none" stroke="black" stroke-dasharray="5,2" d="M286.99,-134C275.68,-134 268.49,-134 252.5,-134"/>
<polygon fill="black" stroke="black" points="293.5,-134 301.5,-137.6 297.5,-134 301.5,-134 301.5,-134 301.5,-134 297.5,-134 301.5,-130.4 293.5,-134 293.5,-134"/>
<ellipse fill="none" stroke="black" cx="290.3" cy="-134" rx="3.2" ry="3.2"/>
</g>
</g>
</svg>
