<?xml version="1.0" encoding="UTF-8" standalone="no"?>
<!DOCTYPE svg PUBLIC "-//W3C//DTD SVG 1.1//EN"
 "http://www.w3.org/Graphics/SVG/1.1/DTD/svg11.dtd">
<!-- Generated by graphviz version 2.43.0 (0)
 -->
<!-- Title: oneDegreeRelationshipsDiagramImplied Pages: 1 -->
<svg width="616pt" height="467pt"
 viewBox="0.00 0.00 616.00 467.00" xmlns="http://www.w3.org/2000/svg" xmlns:xlink="http://www.w3.org/1999/xlink">
<g id="graph0" class="graph" transform="scale(1 1) rotate(0) translate(4 463)">
<title>oneDegreeRelationshipsDiagramImplied</title>
<polygon fill="#ffffff" stroke="transparent" points="-4,4 -4,-463 612,-463 612,4 -4,4"/>
<text text-anchor="middle" x="71.5" y="-7.2" font-family="Helvetica,sans-Serif" font-size="11.00">Generated by SchemaSpy</text>
<!-- cof_cte_peri -->
<g id="node1" class="node">
<title>cof_cte_peri</title>
<g id="a_node1"><a xlink:href="../../tables/cof_cte_peri.html" xlink:title="cof_cte_peri" target="_top">
<polygon fill="#ffffff" stroke="transparent" points="300,-37 300,-455 600,-455 600,-37 300,-37"/>
<polygon fill="#f5f5f5" stroke="transparent" points="302,-431 302,-453 598,-453 598,-431 302,-431"/>
<polygon fill="none" stroke="black" points="302,-431 302,-453 598,-453 598,-431 302,-431"/>
<text text-anchor="start" x="307" y="-440.2" font-family="Helvetica,sans-Serif" font-weight="bold" font-size="11.00">cof_cte_peri</text>
<text text-anchor="start" x="563" y="-439.2" font-family="Helvetica,sans-Serif" font-size="11.00">[table]</text>
<polygon fill="none" stroke="black" points="302,-409 302,-431 515,-431 515,-409 302,-409"/>
<image xlink:href="../../images/primaryKeys.png" width="11px" height="12px" preserveAspectRatio="xMinYMin meet" x="307" y="-426"/>
<text text-anchor="start" x="322" y="-417.2" font-family="Helvetica,sans-Serif" font-size="11.00">cof_cte_peri_id</text>
<polygon fill="none" stroke="black" points="515,-409 515,-431 598,-431 598,-409 515,-409"/>
<text text-anchor="start" x="518" y="-417.2" font-family="Helvetica,sans-Serif" font-size="11.00">numeric[10]</text>
<polygon fill="none" stroke="black" points="302,-387 302,-409 515,-409 515,-387 302,-387"/>
<text text-anchor="start" x="322" y="-395.2" font-family="Helvetica,sans-Serif" font-size="11.00">ad_client_id</text>
<polygon fill="none" stroke="black" points="515,-387 515,-409 598,-409 598,-387 515,-387"/>
<text text-anchor="start" x="518" y="-395.2" font-family="Helvetica,sans-Serif" font-size="11.00">numeric[10]</text>
<polygon fill="none" stroke="black" points="302,-365 302,-387 515,-387 515,-365 302,-365"/>
<text text-anchor="start" x="322" y="-373.2" font-family="Helvetica,sans-Serif" font-size="11.00">ad_org_id</text>
<polygon fill="none" stroke="black" points="515,-365 515,-387 598,-387 598,-365 515,-365"/>
<text text-anchor="start" x="518" y="-373.2" font-family="Helvetica,sans-Serif" font-size="11.00">numeric[10]</text>
<polygon fill="none" stroke="black" points="302,-343 302,-365 515,-365 515,-343 302,-343"/>
<text text-anchor="start" x="322" y="-351.2" font-family="Helvetica,sans-Serif" font-size="11.00">isactive</text>
<polygon fill="none" stroke="black" points="515,-343 515,-365 598,-365 598,-343 515,-343"/>
<text text-anchor="start" x="518" y="-351.2" font-family="Helvetica,sans-Serif" font-size="11.00">bpchar[1]</text>
<polygon fill="none" stroke="black" points="302,-321 302,-343 515,-343 515,-321 302,-321"/>
<text text-anchor="start" x="322" y="-329.2" font-family="Helvetica,sans-Serif" font-size="11.00">created</text>
<polygon fill="none" stroke="black" points="515,-321 515,-343 598,-343 598,-321 515,-321"/>
<text text-anchor="start" x="518" y="-329.2" font-family="Helvetica,sans-Serif" font-size="11.00">timestamp[29,6]</text>
<polygon fill="none" stroke="black" points="302,-299 302,-321 515,-321 515,-299 302,-299"/>
<text text-anchor="start" x="322" y="-307.2" font-family="Helvetica,sans-Serif" font-size="11.00">createdby</text>
<polygon fill="none" stroke="black" points="515,-299 515,-321 598,-321 598,-299 515,-299"/>
<text text-anchor="start" x="518" y="-307.2" font-family="Helvetica,sans-Serif" font-size="11.00">numeric[10]</text>
<polygon fill="none" stroke="black" points="302,-277 302,-299 515,-299 515,-277 302,-277"/>
<text text-anchor="start" x="322" y="-285.2" font-family="Helvetica,sans-Serif" font-size="11.00">updated</text>
<polygon fill="none" stroke="black" points="515,-277 515,-299 598,-299 598,-277 515,-277"/>
<text text-anchor="start" x="518" y="-285.2" font-family="Helvetica,sans-Serif" font-size="11.00">timestamp[29,6]</text>
<polygon fill="none" stroke="black" points="302,-255 302,-277 515,-277 515,-255 302,-255"/>
<text text-anchor="start" x="322" y="-263.2" font-family="Helvetica,sans-Serif" font-size="11.00">updatedby</text>
<polygon fill="none" stroke="black" points="515,-255 515,-277 598,-277 598,-255 515,-255"/>
<text text-anchor="start" x="518" y="-263.2" font-family="Helvetica,sans-Serif" font-size="11.00">numeric[10]</text>
<polygon fill="none" stroke="black" points="302,-233 302,-255 515,-255 515,-233 302,-233"/>
<image xlink:href="../../images/foreignKeys.png" width="11px" height="12px" preserveAspectRatio="xMinYMin meet" x="307" y="-250"/>
<text text-anchor="start" x="322" y="-241.2" font-family="Helvetica,sans-Serif" font-size="11.00">cof_cte_id</text>
<polygon fill="none" stroke="black" points="515,-233 515,-255 598,-255 598,-233 515,-233"/>
<text text-anchor="start" x="518" y="-241.2" font-family="Helvetica,sans-Serif" font-size="11.00">numeric[10]</text>
<polygon fill="none" stroke="black" points="302,-211 302,-233 515,-233 515,-211 302,-211"/>
<text text-anchor="start" x="322" y="-219.2" font-family="Helvetica,sans-Serif" font-size="11.00">infctenorm_peri_nonu</text>
<polygon fill="none" stroke="black" points="515,-211 515,-233 598,-233 598,-211 515,-211"/>
<text text-anchor="start" x="518" y="-219.2" font-family="Helvetica,sans-Serif" font-size="11.00">varchar[4]</text>
<polygon fill="none" stroke="black" points="302,-189 302,-211 515,-211 515,-189 302,-189"/>
<text text-anchor="start" x="322" y="-197.2" font-family="Helvetica,sans-Serif" font-size="11.00">infctenorm_peri_xnomeae</text>
<polygon fill="none" stroke="black" points="515,-189 515,-211 598,-211 598,-189 515,-189"/>
<text text-anchor="start" x="518" y="-197.2" font-family="Helvetica,sans-Serif" font-size="11.00">varchar[150]</text>
<polygon fill="none" stroke="black" points="302,-167 302,-189 515,-189 515,-167 302,-167"/>
<text text-anchor="start" x="322" y="-175.2" font-family="Helvetica,sans-Serif" font-size="11.00">infctenorm_peri_xclarisco</text>
<polygon fill="none" stroke="black" points="515,-167 515,-189 598,-189 598,-167 515,-167"/>
<text text-anchor="start" x="518" y="-175.2" font-family="Helvetica,sans-Serif" font-size="11.00">varchar[40]</text>
<polygon fill="none" stroke="black" points="302,-145 302,-167 515,-167 515,-145 302,-145"/>
<text text-anchor="start" x="322" y="-153.2" font-family="Helvetica,sans-Serif" font-size="11.00">infctenorm_peri_gremb</text>
<polygon fill="none" stroke="black" points="515,-145 515,-167 598,-167 598,-145 515,-145"/>
<text text-anchor="start" x="518" y="-153.2" font-family="Helvetica,sans-Serif" font-size="11.00">varchar[6]</text>
<polygon fill="none" stroke="black" points="302,-123 302,-145 515,-145 515,-123 302,-123"/>
<text text-anchor="start" x="322" y="-131.2" font-family="Helvetica,sans-Serif" font-size="11.00">infctenorm_peri_qtotprod</text>
<polygon fill="none" stroke="black" points="515,-123 515,-145 598,-145 598,-123 515,-123"/>
<text text-anchor="start" x="518" y="-131.2" font-family="Helvetica,sans-Serif" font-size="11.00">varchar[20]</text>
<polygon fill="none" stroke="black" points="302,-101 302,-123 515,-123 515,-101 302,-101"/>
<text text-anchor="start" x="322" y="-109.2" font-family="Helvetica,sans-Serif" font-size="11.00">infctenorm_peri_qvoltipo</text>
<polygon fill="none" stroke="black" points="515,-101 515,-123 598,-123 598,-101 515,-101"/>
<text text-anchor="start" x="518" y="-109.2" font-family="Helvetica,sans-Serif" font-size="11.00">varchar[60]</text>
<polygon fill="none" stroke="black" points="302,-79 302,-101 515,-101 515,-79 302,-79"/>
<text text-anchor="start" x="322" y="-87.2" font-family="Helvetica,sans-Serif" font-size="11.00">infctenorm_peri_pontofulgor</text>
<polygon fill="none" stroke="black" points="515,-79 515,-101 598,-101 598,-79 515,-79"/>
<text text-anchor="start" x="518" y="-87.2" font-family="Helvetica,sans-Serif" font-size="11.00">varchar[6]</text>
<polygon fill="#ffffff" stroke="transparent" points="302,-57 302,-79 515,-79 515,-57 302,-57"/>
<polygon fill="none" stroke="black" points="302,-57 302,-79 515,-79 515,-57 302,-57"/>
<text text-anchor="start" x="322" y="-65.2" font-family="Helvetica,sans-Serif" font-size="11.00">cof_cte_peri_uu</text>
<polygon fill="none" stroke="black" points="515,-57 515,-79 598,-79 598,-57 515,-57"/>
<text text-anchor="start" x="518" y="-65.2" font-family="Helvetica,sans-Serif" font-size="11.00">varchar[36]</text>
<polygon fill="#ffffff" stroke="transparent" points="302,-39 302,-57 400,-57 400,-39 302,-39"/>
<polygon fill="none" stroke="black" points="302,-39 302,-57 400,-57 400,-39 302,-39"/>
<text text-anchor="start" x="305" y="-45.2" font-family="Helvetica,sans-Serif" font-size="11.00">&lt; 1</text>
<polygon fill="#ffffff" stroke="transparent" points="400,-39 400,-57 515,-57 515,-39 400,-39"/>
<polygon fill="none" stroke="black" points="400,-39 400,-57 515,-57 515,-39 400,-39"/>
<text text-anchor="start" x="479" y="-45.2" font-family="Helvetica,sans-Serif" font-size="11.00">0 rows</text>
<polygon fill="#ffffff" stroke="transparent" points="515,-39 515,-57 598,-57 598,-39 515,-39"/>
<polygon fill="none" stroke="black" points="515,-39 515,-57 598,-57 598,-39 515,-39"/>
<text text-anchor="start" x="579" y="-45.2" font-family="Helvetica,sans-Serif" font-size="11.00">0 &gt;</text>
<polygon fill="none" stroke="black" stroke-width="2" points="301,-38 301,-454 599,-454 599,-38 301,-38"/>
</a>
</g>
</g>
<!-- cof_cte -->
<g id="node2" class="node">
<title>cof_cte</title>
<g id="a_node2"><a xlink:href="../../tables/cof_cte.html" xlink:title="cof_cte" target="_top">
<polygon fill="#ffffff" stroke="transparent" points="8,-175 8,-277 251,-277 251,-175 8,-175"/>
<polygon fill="#f5f5f5" stroke="transparent" points="8.5,-255 8.5,-277 251.5,-277 251.5,-255 8.5,-255"/>
<polygon fill="none" stroke="black" points="8.5,-255 8.5,-277 251.5,-277 251.5,-255 8.5,-255"/>
<text text-anchor="start" x="13.5" y="-264.2" font-family="Helvetica,sans-Serif" font-weight="bold" font-size="11.00">cof_cte</text>
<text text-anchor="start" x="216.5" y="-263.2" font-family="Helvetica,sans-Serif" font-size="11.00">[table]</text>
<polygon fill="none" stroke="black" points="8.5,-233 8.5,-255 251.5,-255 251.5,-233 8.5,-233"/>
<image xlink:href="../../images/primaryKeys.png" width="11px" height="12px" preserveAspectRatio="xMinYMin meet" x="13.5" y="-250"/>
<text text-anchor="start" x="28.5" y="-241.2" font-family="Helvetica,sans-Serif" font-size="11.00">cof_cte_id</text>
<polygon fill="#ffffff" stroke="transparent" points="8.5,-211 8.5,-233 251.5,-233 251.5,-211 8.5,-211"/>
<polygon fill="none" stroke="black" points="8.5,-211 8.5,-233 251.5,-233 251.5,-211 8.5,-211"/>
<text text-anchor="start" x="28.5" y="-219.2" font-family="Helvetica,sans-Serif" font-size="11.00">cof_cte_uu</text>
<polygon fill="none" stroke="black" points="8.5,-193 8.5,-211 251.5,-211 251.5,-193 8.5,-193"/>
<text text-anchor="start" x="11.5" y="-199.2" font-family="Helvetica,sans-Serif" font-size="11.00">...</text>
<polygon fill="#ffffff" stroke="transparent" points="8.5,-175 8.5,-193 102.5,-193 102.5,-175 8.5,-175"/>
<polygon fill="none" stroke="black" points="8.5,-175 8.5,-193 102.5,-193 102.5,-175 8.5,-175"/>
<text text-anchor="start" x="11.5" y="-181.2" font-family="Helvetica,sans-Serif" font-size="11.00"> &#160;</text>
<polygon fill="#ffffff" stroke="transparent" points="102.5,-175 102.5,-193 182.5,-193 182.5,-175 102.5,-175"/>
<polygon fill="none" stroke="black" points="102.5,-175 102.5,-193 182.5,-193 182.5,-175 102.5,-175"/>
<text text-anchor="start" x="146.5" y="-181.2" font-family="Helvetica,sans-Serif" font-size="11.00">0 rows</text>
<polygon fill="#ffffff" stroke="transparent" points="182.5,-175 182.5,-193 251.5,-193 251.5,-175 182.5,-175"/>
<polygon fill="none" stroke="black" points="182.5,-175 182.5,-193 251.5,-193 251.5,-175 182.5,-175"/>
<text text-anchor="start" x="226.5" y="-181.2" font-family="Helvetica,sans-Serif" font-size="11.00">15 &gt;</text>
</a>
</g>
</g>
<!-- cof_cte_peri&#45;&gt;cof_cte -->
<g id="edge1" class="edge">
<title>cof_cte_peri:w&#45;&gt;cof_cte:e</title>
<path fill="none" stroke="black" stroke-dasharray="5,2" d="M286.28,-244C275.29,-244 268.16,-244 252.5,-244"/>
<polygon fill="black" stroke="black" points="293,-244 301,-247.6 297,-244 301,-244 301,-244 301,-244 297,-244 301,-240.4 293,-244 293,-244"/>
<ellipse fill="none" stroke="black" cx="289.8" cy="-244" rx="3.2" ry="3.2"/>
</g>
</g>
</svg>
