<?xml version="1.0" encoding="UTF-8" standalone="no"?>
<!DOCTYPE svg PUBLIC "-//W3C//DTD SVG 1.1//EN"
 "http://www.w3.org/Graphics/SVG/1.1/DTD/svg11.dtd">
<!-- Generated by graphviz version 2.43.0 (0)
 -->
<!-- Title: oneDegreeRelationshipsDiagramImplied Pages: 1 -->
<svg width="924pt" height="1045pt"
 viewBox="0.00 0.00 924.00 1045.00" xmlns="http://www.w3.org/2000/svg" xmlns:xlink="http://www.w3.org/1999/xlink">
<g id="graph0" class="graph" transform="scale(1 1) rotate(0) translate(4 1041)">
<title>oneDegreeRelationshipsDiagramImplied</title>
<polygon fill="#ffffff" stroke="transparent" points="-4,4 -4,-1041 920,-1041 920,4 -4,4"/>
<text text-anchor="middle" x="71.5" y="-7.2" font-family="Helvetica,sans-Serif" font-size="11.00">Generated by SchemaSpy</text>
<!-- cof_ajusteestoqueprvstline -->
<g id="node1" class="node">
<title>cof_ajusteestoqueprvstline</title>
<g id="a_node1"><a xlink:href="../../tables/cof_ajusteestoqueprvstline.html" xlink:title="cof_ajusteestoqueprvstline" target="_top">
<polygon fill="#ffffff" stroke="transparent" points="292,-402 292,-798 606,-798 606,-402 292,-402"/>
<polygon fill="#f5f5f5" stroke="transparent" points="294,-774 294,-796 604,-796 604,-774 294,-774"/>
<polygon fill="none" stroke="black" points="294,-774 294,-796 604,-796 604,-774 294,-774"/>
<text text-anchor="start" x="299" y="-783.2" font-family="Helvetica,sans-Serif" font-weight="bold" font-size="11.00">cof_ajusteestoqueprvstline</text>
<text text-anchor="start" x="569" y="-782.2" font-family="Helvetica,sans-Serif" font-size="11.00">[table]</text>
<polygon fill="none" stroke="black" points="294,-752 294,-774 521,-774 521,-752 294,-752"/>
<image xlink:href="../../images/primaryKeys.png" width="11px" height="12px" preserveAspectRatio="xMinYMin meet" x="299" y="-769"/>
<text text-anchor="start" x="314" y="-760.2" font-family="Helvetica,sans-Serif" font-size="11.00">cof_ajusteestoqueprvstline_id</text>
<polygon fill="none" stroke="black" points="521,-752 521,-774 604,-774 604,-752 521,-752"/>
<text text-anchor="start" x="524" y="-760.2" font-family="Helvetica,sans-Serif" font-size="11.00">numeric[10]</text>
<polygon fill="#ffffff" stroke="transparent" points="294,-730 294,-752 521,-752 521,-730 294,-730"/>
<polygon fill="none" stroke="black" points="294,-730 294,-752 521,-752 521,-730 294,-730"/>
<text text-anchor="start" x="314" y="-738.2" font-family="Helvetica,sans-Serif" font-size="11.00">cof_ajusteestoqueprvstline_uu</text>
<polygon fill="none" stroke="black" points="521,-730 521,-752 604,-752 604,-730 521,-730"/>
<text text-anchor="start" x="524" y="-738.2" font-family="Helvetica,sans-Serif" font-size="11.00">varchar[36]</text>
<polygon fill="none" stroke="black" points="294,-708 294,-730 521,-730 521,-708 294,-708"/>
<text text-anchor="start" x="314" y="-716.2" font-family="Helvetica,sans-Serif" font-size="11.00">ad_client_id</text>
<polygon fill="none" stroke="black" points="521,-708 521,-730 604,-730 604,-708 521,-708"/>
<text text-anchor="start" x="524" y="-716.2" font-family="Helvetica,sans-Serif" font-size="11.00">numeric[10]</text>
<polygon fill="none" stroke="black" points="294,-686 294,-708 521,-708 521,-686 294,-686"/>
<text text-anchor="start" x="314" y="-694.2" font-family="Helvetica,sans-Serif" font-size="11.00">ad_org_id</text>
<polygon fill="none" stroke="black" points="521,-686 521,-708 604,-708 604,-686 521,-686"/>
<text text-anchor="start" x="524" y="-694.2" font-family="Helvetica,sans-Serif" font-size="11.00">numeric[10]</text>
<polygon fill="none" stroke="black" points="294,-664 294,-686 521,-686 521,-664 294,-664"/>
<text text-anchor="start" x="314" y="-672.2" font-family="Helvetica,sans-Serif" font-size="11.00">isactive</text>
<polygon fill="none" stroke="black" points="521,-664 521,-686 604,-686 604,-664 521,-664"/>
<text text-anchor="start" x="524" y="-672.2" font-family="Helvetica,sans-Serif" font-size="11.00">bpchar[1]</text>
<polygon fill="none" stroke="black" points="294,-642 294,-664 521,-664 521,-642 294,-642"/>
<text text-anchor="start" x="314" y="-650.2" font-family="Helvetica,sans-Serif" font-size="11.00">created</text>
<polygon fill="none" stroke="black" points="521,-642 521,-664 604,-664 604,-642 521,-642"/>
<text text-anchor="start" x="524" y="-650.2" font-family="Helvetica,sans-Serif" font-size="11.00">timestamp[29,6]</text>
<polygon fill="none" stroke="black" points="294,-620 294,-642 521,-642 521,-620 294,-620"/>
<text text-anchor="start" x="314" y="-628.2" font-family="Helvetica,sans-Serif" font-size="11.00">createdby</text>
<polygon fill="none" stroke="black" points="521,-620 521,-642 604,-642 604,-620 521,-620"/>
<text text-anchor="start" x="524" y="-628.2" font-family="Helvetica,sans-Serif" font-size="11.00">numeric[10]</text>
<polygon fill="none" stroke="black" points="294,-598 294,-620 521,-620 521,-598 294,-598"/>
<text text-anchor="start" x="314" y="-606.2" font-family="Helvetica,sans-Serif" font-size="11.00">updated</text>
<polygon fill="none" stroke="black" points="521,-598 521,-620 604,-620 604,-598 521,-598"/>
<text text-anchor="start" x="524" y="-606.2" font-family="Helvetica,sans-Serif" font-size="11.00">timestamp[29,6]</text>
<polygon fill="none" stroke="black" points="294,-576 294,-598 521,-598 521,-576 294,-576"/>
<text text-anchor="start" x="314" y="-584.2" font-family="Helvetica,sans-Serif" font-size="11.00">updatedby</text>
<polygon fill="none" stroke="black" points="521,-576 521,-598 604,-598 604,-576 521,-576"/>
<text text-anchor="start" x="524" y="-584.2" font-family="Helvetica,sans-Serif" font-size="11.00">numeric[10]</text>
<polygon fill="none" stroke="black" points="294,-554 294,-576 521,-576 521,-554 294,-554"/>
<image xlink:href="../../images/foreignKeys.png" width="11px" height="12px" preserveAspectRatio="xMinYMin meet" x="299" y="-571"/>
<text text-anchor="start" x="314" y="-562.2" font-family="Helvetica,sans-Serif" font-size="11.00">m_product_id</text>
<polygon fill="none" stroke="black" points="521,-554 521,-576 604,-576 604,-554 521,-554"/>
<text text-anchor="start" x="524" y="-562.2" font-family="Helvetica,sans-Serif" font-size="11.00">numeric[10]</text>
<polygon fill="none" stroke="black" points="294,-532 294,-554 521,-554 521,-532 294,-532"/>
<text text-anchor="start" x="314" y="-540.2" font-family="Helvetica,sans-Serif" font-size="11.00">qty</text>
<polygon fill="none" stroke="black" points="521,-532 521,-554 604,-554 604,-532 521,-532"/>
<text text-anchor="start" x="524" y="-540.2" font-family="Helvetica,sans-Serif" font-size="11.00">numeric[0]</text>
<polygon fill="none" stroke="black" points="294,-510 294,-532 521,-532 521,-510 294,-510"/>
<text text-anchor="start" x="314" y="-518.2" font-family="Helvetica,sans-Serif" font-size="11.00">description</text>
<polygon fill="none" stroke="black" points="521,-510 521,-532 604,-532 604,-510 521,-510"/>
<text text-anchor="start" x="524" y="-518.2" font-family="Helvetica,sans-Serif" font-size="11.00">varchar[255]</text>
<polygon fill="none" stroke="black" points="294,-488 294,-510 521,-510 521,-488 294,-488"/>
<image xlink:href="../../images/foreignKeys.png" width="11px" height="12px" preserveAspectRatio="xMinYMin meet" x="299" y="-505"/>
<text text-anchor="start" x="314" y="-496.2" font-family="Helvetica,sans-Serif" font-size="11.00">cof_ajusteestoqueprevisto_id</text>
<polygon fill="none" stroke="black" points="521,-488 521,-510 604,-510 604,-488 521,-488"/>
<text text-anchor="start" x="524" y="-496.2" font-family="Helvetica,sans-Serif" font-size="11.00">numeric[10]</text>
<polygon fill="none" stroke="black" points="294,-466 294,-488 521,-488 521,-466 294,-466"/>
<text text-anchor="start" x="314" y="-474.2" font-family="Helvetica,sans-Serif" font-size="11.00">currentcostprice</text>
<polygon fill="none" stroke="black" points="521,-466 521,-488 604,-488 604,-466 521,-466"/>
<text text-anchor="start" x="524" y="-474.2" font-family="Helvetica,sans-Serif" font-size="11.00">numeric[0]</text>
<polygon fill="none" stroke="black" points="294,-444 294,-466 521,-466 521,-444 294,-444"/>
<text text-anchor="start" x="314" y="-452.2" font-family="Helvetica,sans-Serif" font-size="11.00">newcostprice</text>
<polygon fill="none" stroke="black" points="521,-444 521,-466 604,-466 604,-444 521,-444"/>
<text text-anchor="start" x="524" y="-452.2" font-family="Helvetica,sans-Serif" font-size="11.00">numeric[0]</text>
<polygon fill="none" stroke="black" points="294,-422 294,-444 521,-444 521,-422 294,-422"/>
<text text-anchor="start" x="314" y="-430.2" font-family="Helvetica,sans-Serif" font-size="11.00">lineno</text>
<polygon fill="none" stroke="black" points="521,-422 521,-444 604,-444 604,-422 521,-422"/>
<text text-anchor="start" x="524" y="-430.2" font-family="Helvetica,sans-Serif" font-size="11.00">numeric[10]</text>
<polygon fill="#ffffff" stroke="transparent" points="294,-404 294,-422 399,-422 399,-404 294,-404"/>
<polygon fill="none" stroke="black" points="294,-404 294,-422 399,-422 399,-404 294,-404"/>
<text text-anchor="start" x="297" y="-410.2" font-family="Helvetica,sans-Serif" font-size="11.00">&lt; 2</text>
<polygon fill="#ffffff" stroke="transparent" points="399,-404 399,-422 521,-422 521,-404 399,-404"/>
<polygon fill="none" stroke="black" points="399,-404 399,-422 521,-422 521,-404 399,-404"/>
<text text-anchor="start" x="485" y="-410.2" font-family="Helvetica,sans-Serif" font-size="11.00">0 rows</text>
<polygon fill="#ffffff" stroke="transparent" points="521,-404 521,-422 604,-422 604,-404 521,-404"/>
<polygon fill="none" stroke="black" points="521,-404 521,-422 604,-422 604,-404 521,-404"/>
<text text-anchor="start" x="585" y="-410.2" font-family="Helvetica,sans-Serif" font-size="11.00">2 &gt;</text>
<polygon fill="none" stroke="black" stroke-width="2" points="293,-403 293,-797 605,-797 605,-403 293,-403"/>
</a>
</g>
</g>
<!-- cof_ajusteestoqueprevisto -->
<g id="node2" class="node">
<title>cof_ajusteestoqueprevisto</title>
<g id="a_node2"><a xlink:href="../../tables/cof_ajusteestoqueprevisto.html" xlink:title="cof_ajusteestoqueprevisto" target="_top">
<polygon fill="#ffffff" stroke="transparent" points="14.5,-37 14.5,-161 236.5,-161 236.5,-37 14.5,-37"/>
<polygon fill="#f5f5f5" stroke="transparent" points="14.5,-139 14.5,-161 236.5,-161 236.5,-139 14.5,-139"/>
<polygon fill="none" stroke="black" points="14.5,-139 14.5,-161 236.5,-161 236.5,-139 14.5,-139"/>
<text text-anchor="start" x="19.5" y="-148.2" font-family="Helvetica,sans-Serif" font-weight="bold" font-size="11.00">cof_ajusteestoqueprevisto</text>
<text text-anchor="start" x="201.5" y="-147.2" font-family="Helvetica,sans-Serif" font-size="11.00">[table]</text>
<polygon fill="none" stroke="black" points="14.5,-117 14.5,-139 236.5,-139 236.5,-117 14.5,-117"/>
<image xlink:href="../../images/primaryKeys.png" width="11px" height="12px" preserveAspectRatio="xMinYMin meet" x="19.5" y="-134"/>
<text text-anchor="start" x="34.5" y="-125.2" font-family="Helvetica,sans-Serif" font-size="11.00">cof_ajusteestoqueprevisto_id</text>
<polygon fill="#ffffff" stroke="transparent" points="14.5,-95 14.5,-117 236.5,-117 236.5,-95 14.5,-95"/>
<polygon fill="none" stroke="black" points="14.5,-95 14.5,-117 236.5,-117 236.5,-95 14.5,-95"/>
<text text-anchor="start" x="34.5" y="-103.2" font-family="Helvetica,sans-Serif" font-size="11.00">cof_ajusteestoqueprevisto_uu</text>
<polygon fill="none" stroke="black" points="14.5,-73 14.5,-95 236.5,-95 236.5,-73 14.5,-73"/>
<image xlink:href="../../images/foreignKeys.png" width="11px" height="12px" preserveAspectRatio="xMinYMin meet" x="19.5" y="-90"/>
<text text-anchor="start" x="34.5" y="-81.2" font-family="Helvetica,sans-Serif" font-size="11.00">c_doctypetarget_id</text>
<polygon fill="none" stroke="black" points="14.5,-55 14.5,-73 236.5,-73 236.5,-55 14.5,-55"/>
<text text-anchor="start" x="17.5" y="-61.2" font-family="Helvetica,sans-Serif" font-size="11.00">...</text>
<polygon fill="#ffffff" stroke="transparent" points="14.5,-37 14.5,-55 105.5,-55 105.5,-37 14.5,-37"/>
<polygon fill="none" stroke="black" points="14.5,-37 14.5,-55 105.5,-55 105.5,-37 14.5,-37"/>
<text text-anchor="start" x="17.5" y="-43.2" font-family="Helvetica,sans-Serif" font-size="11.00">&lt; 1</text>
<polygon fill="#ffffff" stroke="transparent" points="105.5,-37 105.5,-55 179.5,-55 179.5,-37 105.5,-37"/>
<polygon fill="none" stroke="black" points="105.5,-37 105.5,-55 179.5,-55 179.5,-37 105.5,-37"/>
<text text-anchor="start" x="143.5" y="-43.2" font-family="Helvetica,sans-Serif" font-size="11.00">0 rows</text>
<polygon fill="#ffffff" stroke="transparent" points="179.5,-37 179.5,-55 236.5,-55 236.5,-37 179.5,-37"/>
<polygon fill="none" stroke="black" points="179.5,-37 179.5,-55 236.5,-55 236.5,-37 179.5,-37"/>
<text text-anchor="start" x="217.5" y="-43.2" font-family="Helvetica,sans-Serif" font-size="11.00">1 &gt;</text>
</a>
</g>
</g>
<!-- cof_ajusteestoqueprvstline&#45;&gt;cof_ajusteestoqueprevisto -->
<g id="edge1" class="edge">
<title>cof_ajusteestoqueprvstline:w&#45;&gt;cof_ajusteestoqueprevisto:e</title>
<path fill="none" stroke="black" d="M279.2,-494.58C223.17,-452.72 315.49,-128 237.5,-128"/>
<polygon fill="black" stroke="black" points="285.38,-496.56 291.9,-502.43 289.19,-497.78 293,-499 293,-499 293,-499 289.19,-497.78 294.1,-495.57 285.38,-496.56 285.38,-496.56"/>
<ellipse fill="none" stroke="black" cx="282.34" cy="-495.58" rx="3.2" ry="3.2"/>
</g>
<!-- m_product -->
<g id="node3" class="node">
<title>m_product</title>
<g id="a_node3"><a xlink:href="../../tables/m_product.html" xlink:title="m_product" target="_top">
<polygon fill="#ffffff" stroke="transparent" points="8,-182 8,-922 243,-922 243,-182 8,-182"/>
<polygon fill="#f5f5f5" stroke="transparent" points="8.5,-900 8.5,-922 243.5,-922 243.5,-900 8.5,-900"/>
<polygon fill="none" stroke="black" points="8.5,-900 8.5,-922 243.5,-922 243.5,-900 8.5,-900"/>
<text text-anchor="start" x="13.5" y="-909.2" font-family="Helvetica,sans-Serif" font-weight="bold" font-size="11.00">m_product</text>
<text text-anchor="start" x="208.5" y="-908.2" font-family="Helvetica,sans-Serif" font-size="11.00">[table]</text>
<polygon fill="none" stroke="black" points="8.5,-878 8.5,-900 243.5,-900 243.5,-878 8.5,-878"/>
<image xlink:href="../../images/primaryKeys.png" width="11px" height="12px" preserveAspectRatio="xMinYMin meet" x="13.5" y="-895"/>
<text text-anchor="start" x="28.5" y="-886.2" font-family="Helvetica,sans-Serif" font-size="11.00">m_product_id</text>
<polygon fill="#ffffff" stroke="transparent" points="8.5,-856 8.5,-878 243.5,-878 243.5,-856 8.5,-856"/>
<polygon fill="none" stroke="black" points="8.5,-856 8.5,-878 243.5,-878 243.5,-856 8.5,-856"/>
<image xlink:href="../../images/foreignKeys.png" width="11px" height="12px" preserveAspectRatio="xMinYMin meet" x="13.5" y="-873"/>
<text text-anchor="start" x="28.5" y="-864.2" font-family="Helvetica,sans-Serif" font-size="11.00">ad_client_id</text>
<polygon fill="none" stroke="black" points="8.5,-834 8.5,-856 243.5,-856 243.5,-834 8.5,-834"/>
<image xlink:href="../../images/foreignKeys.png" width="11px" height="12px" preserveAspectRatio="xMinYMin meet" x="13.5" y="-851"/>
<text text-anchor="start" x="28.5" y="-842.2" font-family="Helvetica,sans-Serif" font-size="11.00">ad_org_id</text>
<polygon fill="#ffffff" stroke="transparent" points="8.5,-812 8.5,-834 243.5,-834 243.5,-812 8.5,-812"/>
<polygon fill="none" stroke="black" points="8.5,-812 8.5,-834 243.5,-834 243.5,-812 8.5,-812"/>
<text text-anchor="start" x="28.5" y="-820.2" font-family="Helvetica,sans-Serif" font-size="11.00">value</text>
<polygon fill="#ffffff" stroke="transparent" points="8.5,-790 8.5,-812 243.5,-812 243.5,-790 8.5,-790"/>
<polygon fill="none" stroke="black" points="8.5,-790 8.5,-812 243.5,-812 243.5,-790 8.5,-790"/>
<text text-anchor="start" x="28.5" y="-798.2" font-family="Helvetica,sans-Serif" font-size="11.00">name</text>
<polygon fill="#ffffff" stroke="transparent" points="8.5,-768 8.5,-790 243.5,-790 243.5,-768 8.5,-768"/>
<polygon fill="none" stroke="black" points="8.5,-768 8.5,-790 243.5,-790 243.5,-768 8.5,-768"/>
<text text-anchor="start" x="28.5" y="-776.2" font-family="Helvetica,sans-Serif" font-size="11.00">upc</text>
<polygon fill="none" stroke="black" points="8.5,-746 8.5,-768 243.5,-768 243.5,-746 8.5,-746"/>
<image xlink:href="../../images/foreignKeys.png" width="11px" height="12px" preserveAspectRatio="xMinYMin meet" x="13.5" y="-763"/>
<text text-anchor="start" x="28.5" y="-754.2" font-family="Helvetica,sans-Serif" font-size="11.00">c_uom_id</text>
<polygon fill="none" stroke="black" points="8.5,-724 8.5,-746 243.5,-746 243.5,-724 8.5,-724"/>
<image xlink:href="../../images/foreignKeys.png" width="11px" height="12px" preserveAspectRatio="xMinYMin meet" x="13.5" y="-741"/>
<text text-anchor="start" x="28.5" y="-732.2" font-family="Helvetica,sans-Serif" font-size="11.00">salesrep_id</text>
<polygon fill="none" stroke="black" points="8.5,-702 8.5,-724 243.5,-724 243.5,-702 8.5,-702"/>
<image xlink:href="../../images/foreignKeys.png" width="11px" height="12px" preserveAspectRatio="xMinYMin meet" x="13.5" y="-719"/>
<text text-anchor="start" x="28.5" y="-710.2" font-family="Helvetica,sans-Serif" font-size="11.00">c_revenuerecognition_id</text>
<polygon fill="#ffffff" stroke="transparent" points="8.5,-680 8.5,-702 243.5,-702 243.5,-680 8.5,-680"/>
<polygon fill="none" stroke="black" points="8.5,-680 8.5,-702 243.5,-702 243.5,-680 8.5,-680"/>
<image xlink:href="../../images/foreignKeys.png" width="11px" height="12px" preserveAspectRatio="xMinYMin meet" x="13.5" y="-697"/>
<text text-anchor="start" x="28.5" y="-688.2" font-family="Helvetica,sans-Serif" font-size="11.00">m_product_category_id</text>
<polygon fill="none" stroke="black" points="8.5,-658 8.5,-680 243.5,-680 243.5,-658 8.5,-658"/>
<image xlink:href="../../images/foreignKeys.png" width="11px" height="12px" preserveAspectRatio="xMinYMin meet" x="13.5" y="-675"/>
<text text-anchor="start" x="28.5" y="-666.2" font-family="Helvetica,sans-Serif" font-size="11.00">c_taxcategory_id</text>
<polygon fill="#ffffff" stroke="transparent" points="8.5,-636 8.5,-658 243.5,-658 243.5,-636 8.5,-636"/>
<polygon fill="none" stroke="black" points="8.5,-636 8.5,-658 243.5,-658 243.5,-636 8.5,-636"/>
<image xlink:href="../../images/foreignKeys.png" width="11px" height="12px" preserveAspectRatio="xMinYMin meet" x="13.5" y="-653"/>
<text text-anchor="start" x="28.5" y="-644.2" font-family="Helvetica,sans-Serif" font-size="11.00">s_resource_id</text>
<polygon fill="#ffffff" stroke="transparent" points="8.5,-614 8.5,-636 243.5,-636 243.5,-614 8.5,-614"/>
<polygon fill="none" stroke="black" points="8.5,-614 8.5,-636 243.5,-636 243.5,-614 8.5,-614"/>
<image xlink:href="../../images/foreignKeys.png" width="11px" height="12px" preserveAspectRatio="xMinYMin meet" x="13.5" y="-631"/>
<text text-anchor="start" x="28.5" y="-622.2" font-family="Helvetica,sans-Serif" font-size="11.00">s_expensetype_id</text>
<polygon fill="none" stroke="black" points="8.5,-592 8.5,-614 243.5,-614 243.5,-592 8.5,-592"/>
<image xlink:href="../../images/foreignKeys.png" width="11px" height="12px" preserveAspectRatio="xMinYMin meet" x="13.5" y="-609"/>
<text text-anchor="start" x="28.5" y="-600.2" font-family="Helvetica,sans-Serif" font-size="11.00">r_mailtext_id</text>
<polygon fill="none" stroke="black" points="8.5,-570 8.5,-592 243.5,-592 243.5,-570 8.5,-570"/>
<image xlink:href="../../images/foreignKeys.png" width="11px" height="12px" preserveAspectRatio="xMinYMin meet" x="13.5" y="-587"/>
<text text-anchor="start" x="28.5" y="-578.2" font-family="Helvetica,sans-Serif" font-size="11.00">m_attributeset_id</text>
<polygon fill="none" stroke="black" points="8.5,-548 8.5,-570 243.5,-570 243.5,-548 8.5,-548"/>
<image xlink:href="../../images/foreignKeys.png" width="11px" height="12px" preserveAspectRatio="xMinYMin meet" x="13.5" y="-565"/>
<text text-anchor="start" x="28.5" y="-556.2" font-family="Helvetica,sans-Serif" font-size="11.00">m_attributesetinstance_id</text>
<polygon fill="none" stroke="black" points="8.5,-526 8.5,-548 243.5,-548 243.5,-526 8.5,-526"/>
<image xlink:href="../../images/foreignKeys.png" width="11px" height="12px" preserveAspectRatio="xMinYMin meet" x="13.5" y="-543"/>
<text text-anchor="start" x="28.5" y="-534.2" font-family="Helvetica,sans-Serif" font-size="11.00">m_freightcategory_id</text>
<polygon fill="none" stroke="black" points="8.5,-504 8.5,-526 243.5,-526 243.5,-504 8.5,-504"/>
<image xlink:href="../../images/foreignKeys.png" width="11px" height="12px" preserveAspectRatio="xMinYMin meet" x="13.5" y="-521"/>
<text text-anchor="start" x="28.5" y="-512.2" font-family="Helvetica,sans-Serif" font-size="11.00">m_locator_id</text>
<polygon fill="none" stroke="black" points="8.5,-482 8.5,-504 243.5,-504 243.5,-482 8.5,-482"/>
<image xlink:href="../../images/foreignKeys.png" width="11px" height="12px" preserveAspectRatio="xMinYMin meet" x="13.5" y="-499"/>
<text text-anchor="start" x="28.5" y="-490.2" font-family="Helvetica,sans-Serif" font-size="11.00">c_subscriptiontype_id</text>
<polygon fill="#ffffff" stroke="transparent" points="8.5,-460 8.5,-482 243.5,-482 243.5,-460 8.5,-460"/>
<polygon fill="none" stroke="black" points="8.5,-460 8.5,-482 243.5,-482 243.5,-460 8.5,-460"/>
<text text-anchor="start" x="28.5" y="-468.2" font-family="Helvetica,sans-Serif" font-size="11.00">m_product_uu</text>
<polygon fill="none" stroke="black" points="8.5,-438 8.5,-460 243.5,-460 243.5,-438 8.5,-438"/>
<image xlink:href="../../images/foreignKeys.png" width="11px" height="12px" preserveAspectRatio="xMinYMin meet" x="13.5" y="-455"/>
<text text-anchor="start" x="28.5" y="-446.2" font-family="Helvetica,sans-Serif" font-size="11.00">m_parttype_id</text>
<polygon fill="none" stroke="black" points="8.5,-416 8.5,-438 243.5,-438 243.5,-416 8.5,-416"/>
<image xlink:href="../../images/foreignKeys.png" width="11px" height="12px" preserveAspectRatio="xMinYMin meet" x="13.5" y="-433"/>
<text text-anchor="start" x="28.5" y="-424.2" font-family="Helvetica,sans-Serif" font-size="11.00">lbr_productcategory_id</text>
<polygon fill="none" stroke="black" points="8.5,-394 8.5,-416 243.5,-416 243.5,-394 8.5,-394"/>
<image xlink:href="../../images/foreignKeys.png" width="11px" height="12px" preserveAspectRatio="xMinYMin meet" x="13.5" y="-411"/>
<text text-anchor="start" x="28.5" y="-402.2" font-family="Helvetica,sans-Serif" font-size="11.00">lbr_ncm_id</text>
<polygon fill="none" stroke="black" points="8.5,-372 8.5,-394 243.5,-394 243.5,-372 8.5,-372"/>
<image xlink:href="../../images/foreignKeys.png" width="11px" height="12px" preserveAspectRatio="xMinYMin meet" x="13.5" y="-389"/>
<text text-anchor="start" x="28.5" y="-380.2" font-family="Helvetica,sans-Serif" font-size="11.00">lbr_fiscalgroup_product_id</text>
<polygon fill="none" stroke="black" points="8.5,-350 8.5,-372 243.5,-372 243.5,-350 8.5,-350"/>
<image xlink:href="../../images/foreignKeys.png" width="11px" height="12px" preserveAspectRatio="xMinYMin meet" x="13.5" y="-367"/>
<text text-anchor="start" x="28.5" y="-358.2" font-family="Helvetica,sans-Serif" font-size="11.00">cof_cest_id</text>
<polygon fill="none" stroke="black" points="8.5,-328 8.5,-350 243.5,-350 243.5,-328 8.5,-328"/>
<image xlink:href="../../images/foreignKeys.png" width="11px" height="12px" preserveAspectRatio="xMinYMin meet" x="13.5" y="-345"/>
<text text-anchor="start" x="28.5" y="-336.2" font-family="Helvetica,sans-Serif" font-size="11.00">cof_c_generoitem_sped_id</text>
<polygon fill="none" stroke="black" points="8.5,-306 8.5,-328 243.5,-328 243.5,-306 8.5,-306"/>
<image xlink:href="../../images/foreignKeys.png" width="11px" height="12px" preserveAspectRatio="xMinYMin meet" x="13.5" y="-323"/>
<text text-anchor="start" x="28.5" y="-314.2" font-family="Helvetica,sans-Serif" font-size="11.00">cof_producttype_id</text>
<polygon fill="none" stroke="black" points="8.5,-284 8.5,-306 243.5,-306 243.5,-284 8.5,-284"/>
<image xlink:href="../../images/foreignKeys.png" width="11px" height="12px" preserveAspectRatio="xMinYMin meet" x="13.5" y="-301"/>
<text text-anchor="start" x="28.5" y="-292.2" font-family="Helvetica,sans-Serif" font-size="11.00">cof_productclass_id</text>
<polygon fill="none" stroke="black" points="8.5,-262 8.5,-284 243.5,-284 243.5,-262 8.5,-262"/>
<image xlink:href="../../images/foreignKeys.png" width="11px" height="12px" preserveAspectRatio="xMinYMin meet" x="13.5" y="-279"/>
<text text-anchor="start" x="28.5" y="-270.2" font-family="Helvetica,sans-Serif" font-size="11.00">cof_productgroup_id</text>
<polygon fill="none" stroke="black" points="8.5,-240 8.5,-262 243.5,-262 243.5,-240 8.5,-240"/>
<image xlink:href="../../images/foreignKeys.png" width="11px" height="12px" preserveAspectRatio="xMinYMin meet" x="13.5" y="-257"/>
<text text-anchor="start" x="28.5" y="-248.2" font-family="Helvetica,sans-Serif" font-size="11.00">cof_nbs_id</text>
<polygon fill="none" stroke="black" points="8.5,-218 8.5,-240 243.5,-240 243.5,-218 8.5,-218"/>
<image xlink:href="../../images/foreignKeys.png" width="11px" height="12px" preserveAspectRatio="xMinYMin meet" x="13.5" y="-235"/>
<text text-anchor="start" x="28.5" y="-226.2" font-family="Helvetica,sans-Serif" font-size="11.00">cof_grupofornecedor_id</text>
<polygon fill="none" stroke="black" points="8.5,-200 8.5,-218 243.5,-218 243.5,-200 8.5,-200"/>
<text text-anchor="start" x="11.5" y="-206.2" font-family="Helvetica,sans-Serif" font-size="11.00">...</text>
<polygon fill="#ffffff" stroke="transparent" points="8.5,-182 8.5,-200 105.5,-200 105.5,-182 8.5,-182"/>
<polygon fill="none" stroke="black" points="8.5,-182 8.5,-200 105.5,-200 105.5,-182 8.5,-182"/>
<text text-anchor="start" x="11.5" y="-188.2" font-family="Helvetica,sans-Serif" font-size="11.00">&lt; 26</text>
<polygon fill="#ffffff" stroke="transparent" points="105.5,-182 105.5,-200 174.5,-200 174.5,-182 105.5,-182"/>
<polygon fill="none" stroke="black" points="105.5,-182 105.5,-200 174.5,-200 174.5,-182 105.5,-182"/>
<text text-anchor="start" x="143.5" y="-188.2" font-family="Helvetica,sans-Serif" font-size="11.00">1 row</text>
<polygon fill="#ffffff" stroke="transparent" points="174.5,-182 174.5,-200 243.5,-200 243.5,-182 174.5,-182"/>
<polygon fill="none" stroke="black" points="174.5,-182 174.5,-200 243.5,-200 243.5,-182 174.5,-182"/>
<text text-anchor="start" x="212.5" y="-188.2" font-family="Helvetica,sans-Serif" font-size="11.00">288 &gt;</text>
</a>
</g>
</g>
<!-- cof_ajusteestoqueprvstline&#45;&gt;m_product -->
<g id="edge2" class="edge">
<title>cof_ajusteestoqueprvstline:w&#45;&gt;m_product:e</title>
<path fill="none" stroke="black" d="M279.46,-570.09C233.68,-611.31 311.9,-889 244.5,-889"/>
<polygon fill="black" stroke="black" points="285.51,-567.81 294.27,-568.37 289.26,-566.41 293,-565 293,-565 293,-565 289.26,-566.41 291.73,-561.63 285.51,-567.81 285.51,-567.81"/>
<ellipse fill="none" stroke="black" cx="282.52" cy="-568.94" rx="3.2" ry="3.2"/>
</g>
<!-- cof_rv_detalhesestoqueprevisto -->
<g id="node4" class="node">
<title>cof_rv_detalhesestoqueprevisto</title>
<g id="a_node4"><a xlink:href="../../tables/cof_rv_detalhesestoqueprevisto.html" xlink:title="cof_rv_detalhesestoqueprevisto" target="_top">
<polygon fill="#ffffff" stroke="transparent" points="655,-606 655,-822 908,-822 908,-606 655,-606"/>
<polygon fill="#f5f5f5" stroke="transparent" points="655.5,-800 655.5,-822 908.5,-822 908.5,-800 655.5,-800"/>
<polygon fill="none" stroke="black" points="655.5,-800 655.5,-822 908.5,-822 908.5,-800 655.5,-800"/>
<text text-anchor="start" x="660.5" y="-809.2" font-family="Helvetica,sans-Serif" font-weight="bold" font-size="11.00">cof_rv_detalhesestoqueprevisto</text>
<text text-anchor="start" x="875.5" y="-808.2" font-family="Helvetica,sans-Serif" font-size="11.00">[view]</text>
<polygon fill="none" stroke="black" points="655.5,-778 655.5,-800 908.5,-800 908.5,-778 655.5,-778"/>
<image xlink:href="../../images/foreignKeys.png" width="11px" height="12px" preserveAspectRatio="xMinYMin meet" x="660.5" y="-795"/>
<text text-anchor="start" x="684.5" y="-786.2" font-family="Helvetica,sans-Serif" font-size="11.00">m_product_id</text>
<polygon fill="none" stroke="black" points="655.5,-756 655.5,-778 908.5,-778 908.5,-756 655.5,-756"/>
<image xlink:href="../../images/foreignKeys.png" width="11px" height="12px" preserveAspectRatio="xMinYMin meet" x="660.5" y="-773"/>
<text text-anchor="start" x="684.5" y="-764.2" font-family="Helvetica,sans-Serif" font-size="11.00">cof_producttype_id</text>
<polygon fill="none" stroke="black" points="655.5,-734 655.5,-756 908.5,-756 908.5,-734 655.5,-734"/>
<image xlink:href="../../images/foreignKeys.png" width="11px" height="12px" preserveAspectRatio="xMinYMin meet" x="660.5" y="-751"/>
<text text-anchor="start" x="684.5" y="-742.2" font-family="Helvetica,sans-Serif" font-size="11.00">cof_productclass_id</text>
<polygon fill="none" stroke="black" points="655.5,-712 655.5,-734 908.5,-734 908.5,-712 655.5,-712"/>
<image xlink:href="../../images/foreignKeys.png" width="11px" height="12px" preserveAspectRatio="xMinYMin meet" x="660.5" y="-729"/>
<text text-anchor="start" x="684.5" y="-720.2" font-family="Helvetica,sans-Serif" font-size="11.00">cof_productgroup_id</text>
<polygon fill="none" stroke="black" points="655.5,-690 655.5,-712 908.5,-712 908.5,-690 655.5,-690"/>
<image xlink:href="../../images/foreignKeys.png" width="11px" height="12px" preserveAspectRatio="xMinYMin meet" x="660.5" y="-707"/>
<text text-anchor="start" x="684.5" y="-698.2" font-family="Helvetica,sans-Serif" font-size="11.00">lbr_docfiscal_line_id</text>
<polygon fill="none" stroke="black" points="655.5,-668 655.5,-690 908.5,-690 908.5,-668 655.5,-668"/>
<image xlink:href="../../images/foreignKeys.png" width="11px" height="12px" preserveAspectRatio="xMinYMin meet" x="660.5" y="-685"/>
<text text-anchor="start" x="684.5" y="-676.2" font-family="Helvetica,sans-Serif" font-size="11.00">m_productionline_id</text>
<polygon fill="none" stroke="black" points="655.5,-646 655.5,-668 908.5,-668 908.5,-646 655.5,-646"/>
<image xlink:href="../../images/foreignKeys.png" width="11px" height="12px" preserveAspectRatio="xMinYMin meet" x="660.5" y="-663"/>
<text text-anchor="start" x="684.5" y="-654.2" font-family="Helvetica,sans-Serif" font-size="11.00">cof_ajusteestoqueprvstline_id</text>
<polygon fill="none" stroke="black" points="655.5,-624 655.5,-646 908.5,-646 908.5,-624 655.5,-624"/>
<image xlink:href="../../images/foreignKeys.png" width="11px" height="12px" preserveAspectRatio="xMinYMin meet" x="660.5" y="-641"/>
<text text-anchor="start" x="684.5" y="-632.2" font-family="Helvetica,sans-Serif" font-size="11.00">lbr_cfop_id</text>
<polygon fill="none" stroke="black" points="655.5,-606 655.5,-624 908.5,-624 908.5,-606 655.5,-606"/>
<text text-anchor="start" x="658.5" y="-612.2" font-family="Helvetica,sans-Serif" font-size="11.00">...</text>
</a>
</g>
</g>
<!-- cof_rv_detalhesestoqueprevisto&#45;&gt;cof_ajusteestoqueprvstline -->
<g id="edge3" class="edge">
<title>cof_rv_detalhesestoqueprevisto:w&#45;&gt;cof_ajusteestoqueprvstline:e</title>
<path fill="none" stroke="black" stroke-dasharray="5,2" d="M640.26,-661.03C613.81,-680.39 650.9,-763 605,-763"/>
<polygon fill="black" stroke="black" points="646.8,-659.18 655.48,-660.46 650.65,-658.09 654.5,-657 654.5,-657 654.5,-657 650.65,-658.09 653.52,-653.54 646.8,-659.18 646.8,-659.18"/>
<ellipse fill="none" stroke="black" cx="643.72" cy="-660.05" rx="3.2" ry="3.2"/>
</g>
<!-- cof_rv_detalhesestoqueprevisto&#45;&gt;m_product -->
<g id="edge4" class="edge">
<title>cof_rv_detalhesestoqueprevisto:w&#45;&gt;m_product:e</title>
<path fill="none" stroke="black" stroke-dasharray="5,2" d="M640.31,-792.16C631.91,-796.53 627.18,-804.4 614,-809 455.37,-864.39 412.53,-889 244.5,-889"/>
<polygon fill="black" stroke="black" points="646.69,-790.74 655.28,-792.51 650.6,-789.87 654.5,-789 654.5,-789 654.5,-789 650.6,-789.87 653.72,-785.49 646.69,-790.74 646.69,-790.74"/>
<ellipse fill="none" stroke="black" cx="643.57" cy="-791.43" rx="3.2" ry="3.2"/>
</g>
<!-- cof_trxestoqueprevisto -->
<g id="node5" class="node">
<title>cof_trxestoqueprevisto</title>
<g id="a_node5"><a xlink:href="../../tables/cof_trxestoqueprevisto.html" xlink:title="cof_trxestoqueprevisto" target="_top">
<polygon fill="#ffffff" stroke="transparent" points="670.5,-843 670.5,-1033 892.5,-1033 892.5,-843 670.5,-843"/>
<polygon fill="#f5f5f5" stroke="transparent" points="670.5,-1011 670.5,-1033 892.5,-1033 892.5,-1011 670.5,-1011"/>
<polygon fill="none" stroke="black" points="670.5,-1011 670.5,-1033 892.5,-1033 892.5,-1011 670.5,-1011"/>
<text text-anchor="start" x="675.5" y="-1020.2" font-family="Helvetica,sans-Serif" font-weight="bold" font-size="11.00">cof_trxestoqueprevisto</text>
<text text-anchor="start" x="857.5" y="-1019.2" font-family="Helvetica,sans-Serif" font-size="11.00">[table]</text>
<polygon fill="none" stroke="black" points="670.5,-989 670.5,-1011 892.5,-1011 892.5,-989 670.5,-989"/>
<image xlink:href="../../images/primaryKeys.png" width="11px" height="12px" preserveAspectRatio="xMinYMin meet" x="675.5" y="-1006"/>
<text text-anchor="start" x="690.5" y="-997.2" font-family="Helvetica,sans-Serif" font-size="11.00">cof_trxestoqueprevisto_id</text>
<polygon fill="#ffffff" stroke="transparent" points="670.5,-967 670.5,-989 892.5,-989 892.5,-967 670.5,-967"/>
<polygon fill="none" stroke="black" points="670.5,-967 670.5,-989 892.5,-989 892.5,-967 670.5,-967"/>
<text text-anchor="start" x="690.5" y="-975.2" font-family="Helvetica,sans-Serif" font-size="11.00">cof_trxestoqueprevisto_uu</text>
<polygon fill="none" stroke="black" points="670.5,-945 670.5,-967 892.5,-967 892.5,-945 670.5,-945"/>
<image xlink:href="../../images/foreignKeys.png" width="11px" height="12px" preserveAspectRatio="xMinYMin meet" x="675.5" y="-962"/>
<text text-anchor="start" x="690.5" y="-953.2" font-family="Helvetica,sans-Serif" font-size="11.00">m_product_id</text>
<polygon fill="none" stroke="black" points="670.5,-923 670.5,-945 892.5,-945 892.5,-923 670.5,-923"/>
<image xlink:href="../../images/foreignKeys.png" width="11px" height="12px" preserveAspectRatio="xMinYMin meet" x="675.5" y="-940"/>
<text text-anchor="start" x="690.5" y="-931.2" font-family="Helvetica,sans-Serif" font-size="11.00">m_productionline_id</text>
<polygon fill="none" stroke="black" points="670.5,-901 670.5,-923 892.5,-923 892.5,-901 670.5,-901"/>
<image xlink:href="../../images/foreignKeys.png" width="11px" height="12px" preserveAspectRatio="xMinYMin meet" x="675.5" y="-918"/>
<text text-anchor="start" x="690.5" y="-909.2" font-family="Helvetica,sans-Serif" font-size="11.00">cof_ajusteestoqueprvstline_id</text>
<polygon fill="none" stroke="black" points="670.5,-879 670.5,-901 892.5,-901 892.5,-879 670.5,-879"/>
<image xlink:href="../../images/foreignKeys.png" width="11px" height="12px" preserveAspectRatio="xMinYMin meet" x="675.5" y="-896"/>
<text text-anchor="start" x="690.5" y="-887.2" font-family="Helvetica,sans-Serif" font-size="11.00">lbr_docfiscal_line_id</text>
<polygon fill="none" stroke="black" points="670.5,-861 670.5,-879 892.5,-879 892.5,-861 670.5,-861"/>
<text text-anchor="start" x="673.5" y="-867.2" font-family="Helvetica,sans-Serif" font-size="11.00">...</text>
<polygon fill="#ffffff" stroke="transparent" points="670.5,-843 670.5,-861 766.5,-861 766.5,-843 670.5,-843"/>
<polygon fill="none" stroke="black" points="670.5,-843 670.5,-861 766.5,-861 766.5,-843 670.5,-843"/>
<text text-anchor="start" x="673.5" y="-849.2" font-family="Helvetica,sans-Serif" font-size="11.00">&lt; 4</text>
<polygon fill="#ffffff" stroke="transparent" points="766.5,-843 766.5,-861 842.5,-861 842.5,-843 766.5,-843"/>
<polygon fill="none" stroke="black" points="766.5,-843 766.5,-861 842.5,-861 842.5,-843 766.5,-843"/>
<text text-anchor="start" x="806.5" y="-849.2" font-family="Helvetica,sans-Serif" font-size="11.00">0 rows</text>
<polygon fill="#ffffff" stroke="transparent" points="842.5,-843 842.5,-861 892.5,-861 892.5,-843 842.5,-843"/>
<polygon fill="none" stroke="black" points="842.5,-843 842.5,-861 892.5,-861 892.5,-843 842.5,-843"/>
<text text-anchor="start" x="882.5" y="-849.2" font-family="Helvetica,sans-Serif" font-size="11.00"> &#160;</text>
</a>
</g>
</g>
<!-- cof_trxestoqueprevisto&#45;&gt;cof_ajusteestoqueprvstline -->
<g id="edge5" class="edge">
<title>cof_trxestoqueprevisto:w&#45;&gt;cof_ajusteestoqueprvstline:e</title>
<path fill="none" stroke="black" d="M655.23,-909.41C608.88,-889.63 671.52,-763 605,-763"/>
<polygon fill="black" stroke="black" points="661.63,-910.57 668.86,-915.54 665.56,-911.29 669.5,-912 669.5,-912 669.5,-912 665.56,-911.29 670.14,-908.46 661.63,-910.57 661.63,-910.57"/>
<ellipse fill="none" stroke="black" cx="658.48" cy="-910" rx="3.2" ry="3.2"/>
</g>
<!-- cof_trxestoqueprevisto&#45;&gt;m_product -->
<g id="edge6" class="edge">
<title>cof_trxestoqueprevisto:w&#45;&gt;m_product:e</title>
<path fill="none" stroke="black" d="M654.95,-955.87C475.98,-952.58 430.77,-889 244.5,-889"/>
<polygon fill="black" stroke="black" points="661.5,-955.93 669.47,-959.6 665.5,-955.96 669.5,-956 669.5,-956 669.5,-956 665.5,-955.96 669.53,-952.4 661.5,-955.93 661.5,-955.93"/>
<ellipse fill="none" stroke="black" cx="658.3" cy="-955.9" rx="3.2" ry="3.2"/>
</g>
</g>
</svg>
