<?xml version="1.0" encoding="UTF-8" standalone="no"?>
<!DOCTYPE svg PUBLIC "-//W3C//DTD SVG 1.1//EN"
 "http://www.w3.org/Graphics/SVG/1.1/DTD/svg11.dtd">
<!-- Generated by graphviz version 2.43.0 (0)
 -->
<!-- Title: oneDegreeRelationshipsDiagram Pages: 1 -->
<svg width="309pt" height="493pt"
 viewBox="0.00 0.00 309.00 493.00" xmlns="http://www.w3.org/2000/svg" xmlns:xlink="http://www.w3.org/1999/xlink">
<g id="graph0" class="graph" transform="scale(1 1) rotate(0) translate(4 489)">
<title>oneDegreeRelationshipsDiagram</title>
<polygon fill="#ffffff" stroke="transparent" points="-4,4 -4,-489 305,-489 305,4 -4,4"/>
<text text-anchor="middle" x="71.5" y="-7.2" font-family="Helvetica,sans-Serif" font-size="11.00">Generated by SchemaSpy</text>
<!-- cof_rv_detalhesorcamento -->
<g id="node1" class="node">
<title>cof_rv_detalhesorcamento</title>
<g id="a_node1"><a xlink:href="../../tables/cof_rv_detalhesorcamento.html" xlink:title="cof_rv_detalhesorcamento" target="_top">
<polygon fill="#ffffff" stroke="transparent" points="8,-37 8,-481 293,-481 293,-37 8,-37"/>
<polygon fill="#f5f5f5" stroke="transparent" points="10.5,-457 10.5,-479 291.5,-479 291.5,-457 10.5,-457"/>
<polygon fill="none" stroke="black" points="10.5,-457 10.5,-479 291.5,-479 291.5,-457 10.5,-457"/>
<text text-anchor="start" x="15.5" y="-466.2" font-family="Helvetica,sans-Serif" font-weight="bold" font-size="11.00">cof_rv_detalhesorcamento</text>
<text text-anchor="start" x="258.5" y="-465.2" font-family="Helvetica,sans-Serif" font-size="11.00">[view]</text>
<polygon fill="none" stroke="black" points="10.5,-435 10.5,-457 208.5,-457 208.5,-435 10.5,-435"/>
<text text-anchor="start" x="30.5" y="-443.2" font-family="Helvetica,sans-Serif" font-size="11.00">ad_org_id</text>
<polygon fill="none" stroke="black" points="208.5,-435 208.5,-457 291.5,-457 291.5,-435 208.5,-435"/>
<text text-anchor="start" x="211.5" y="-443.2" font-family="Helvetica,sans-Serif" font-size="11.00">numeric[10]</text>
<polygon fill="none" stroke="black" points="10.5,-413 10.5,-435 208.5,-435 208.5,-413 10.5,-413"/>
<text text-anchor="start" x="30.5" y="-421.2" font-family="Helvetica,sans-Serif" font-size="11.00">ad_client_id</text>
<polygon fill="none" stroke="black" points="208.5,-413 208.5,-435 291.5,-435 291.5,-413 208.5,-413"/>
<text text-anchor="start" x="211.5" y="-421.2" font-family="Helvetica,sans-Serif" font-size="11.00">numeric[10]</text>
<polygon fill="none" stroke="black" points="10.5,-391 10.5,-413 208.5,-413 208.5,-391 10.5,-391"/>
<image xlink:href="../../images/foreignKeys.png" width="11px" height="12px" preserveAspectRatio="xMinYMin meet" x="15.5" y="-408"/>
<text text-anchor="start" x="30.5" y="-399.2" font-family="Helvetica,sans-Serif" font-size="11.00">cof_orcamento_id</text>
<polygon fill="none" stroke="black" points="208.5,-391 208.5,-413 291.5,-413 291.5,-391 208.5,-391"/>
<text text-anchor="start" x="211.5" y="-399.2" font-family="Helvetica,sans-Serif" font-size="11.00">numeric[10]</text>
<polygon fill="none" stroke="black" points="10.5,-369 10.5,-391 208.5,-391 208.5,-369 10.5,-369"/>
<text text-anchor="start" x="30.5" y="-377.2" font-family="Helvetica,sans-Serif" font-size="11.00">orcamentovalue</text>
<polygon fill="none" stroke="black" points="208.5,-369 208.5,-391 291.5,-391 291.5,-369 208.5,-369"/>
<text text-anchor="start" x="211.5" y="-377.2" font-family="Helvetica,sans-Serif" font-size="11.00">varchar[40]</text>
<polygon fill="none" stroke="black" points="10.5,-347 10.5,-369 208.5,-369 208.5,-347 10.5,-347"/>
<text text-anchor="start" x="30.5" y="-355.2" font-family="Helvetica,sans-Serif" font-size="11.00">orcamentoemvigor</text>
<polygon fill="none" stroke="black" points="208.5,-347 208.5,-369 291.5,-369 291.5,-347 208.5,-347"/>
<text text-anchor="start" x="211.5" y="-355.2" font-family="Helvetica,sans-Serif" font-size="11.00">bpchar[1]</text>
<polygon fill="none" stroke="black" points="10.5,-325 10.5,-347 208.5,-347 208.5,-325 10.5,-325"/>
<text text-anchor="start" x="30.5" y="-333.2" font-family="Helvetica,sans-Serif" font-size="11.00">tipoorcamento</text>
<polygon fill="none" stroke="black" points="208.5,-325 208.5,-347 291.5,-347 291.5,-325 208.5,-325"/>
<text text-anchor="start" x="211.5" y="-333.2" font-family="Helvetica,sans-Serif" font-size="11.00">varchar[2]</text>
<polygon fill="none" stroke="black" points="10.5,-303 10.5,-325 208.5,-325 208.5,-303 10.5,-303"/>
<text text-anchor="start" x="30.5" y="-311.2" font-family="Helvetica,sans-Serif" font-size="11.00">orcamentodatefrom</text>
<polygon fill="none" stroke="black" points="208.5,-303 208.5,-325 291.5,-325 291.5,-303 208.5,-303"/>
<text text-anchor="start" x="211.5" y="-311.2" font-family="Helvetica,sans-Serif" font-size="11.00">timestamp[29,6]</text>
<polygon fill="none" stroke="black" points="10.5,-281 10.5,-303 208.5,-303 208.5,-281 10.5,-281"/>
<text text-anchor="start" x="30.5" y="-289.2" font-family="Helvetica,sans-Serif" font-size="11.00">orcamentodateto</text>
<polygon fill="none" stroke="black" points="208.5,-281 208.5,-303 291.5,-303 291.5,-281 208.5,-281"/>
<text text-anchor="start" x="211.5" y="-289.2" font-family="Helvetica,sans-Serif" font-size="11.00">timestamp[29,6]</text>
<polygon fill="none" stroke="black" points="10.5,-259 10.5,-281 208.5,-281 208.5,-259 10.5,-259"/>
<image xlink:href="../../images/foreignKeys.png" width="11px" height="12px" preserveAspectRatio="xMinYMin meet" x="15.5" y="-276"/>
<text text-anchor="start" x="30.5" y="-267.2" font-family="Helvetica,sans-Serif" font-size="11.00">cof_orcamentoperiodo_id</text>
<polygon fill="none" stroke="black" points="208.5,-259 208.5,-281 291.5,-281 291.5,-259 208.5,-259"/>
<text text-anchor="start" x="211.5" y="-267.2" font-family="Helvetica,sans-Serif" font-size="11.00">numeric[10]</text>
<polygon fill="none" stroke="black" points="10.5,-237 10.5,-259 208.5,-259 208.5,-237 10.5,-237"/>
<text text-anchor="start" x="30.5" y="-245.2" font-family="Helvetica,sans-Serif" font-size="11.00">periodovalue</text>
<polygon fill="none" stroke="black" points="208.5,-237 208.5,-259 291.5,-259 291.5,-237 208.5,-237"/>
<text text-anchor="start" x="211.5" y="-245.2" font-family="Helvetica,sans-Serif" font-size="11.00">varchar[40]</text>
<polygon fill="none" stroke="black" points="10.5,-215 10.5,-237 208.5,-237 208.5,-215 10.5,-215"/>
<text text-anchor="start" x="30.5" y="-223.2" font-family="Helvetica,sans-Serif" font-size="11.00">periododatefrom</text>
<polygon fill="none" stroke="black" points="208.5,-215 208.5,-237 291.5,-237 291.5,-215 208.5,-215"/>
<text text-anchor="start" x="211.5" y="-223.2" font-family="Helvetica,sans-Serif" font-size="11.00">timestamp[29,6]</text>
<polygon fill="none" stroke="black" points="10.5,-193 10.5,-215 208.5,-215 208.5,-193 10.5,-193"/>
<text text-anchor="start" x="30.5" y="-201.2" font-family="Helvetica,sans-Serif" font-size="11.00">periododateto</text>
<polygon fill="none" stroke="black" points="208.5,-193 208.5,-215 291.5,-215 291.5,-193 208.5,-193"/>
<text text-anchor="start" x="211.5" y="-201.2" font-family="Helvetica,sans-Serif" font-size="11.00">timestamp[29,6]</text>
<polygon fill="none" stroke="black" points="10.5,-171 10.5,-193 208.5,-193 208.5,-171 10.5,-171"/>
<text text-anchor="start" x="30.5" y="-179.2" font-family="Helvetica,sans-Serif" font-size="11.00">orcgrupovalue</text>
<polygon fill="none" stroke="black" points="208.5,-171 208.5,-193 291.5,-193 291.5,-171 208.5,-171"/>
<text text-anchor="start" x="211.5" y="-179.2" font-family="Helvetica,sans-Serif" font-size="11.00">varchar[40]</text>
<polygon fill="none" stroke="black" points="10.5,-149 10.5,-171 208.5,-171 208.5,-149 10.5,-149"/>
<text text-anchor="start" x="30.5" y="-157.2" font-family="Helvetica,sans-Serif" font-size="11.00">orcgrupodescription</text>
<polygon fill="none" stroke="black" points="208.5,-149 208.5,-171 291.5,-171 291.5,-149 208.5,-149"/>
<text text-anchor="start" x="211.5" y="-157.2" font-family="Helvetica,sans-Serif" font-size="11.00">varchar[255]</text>
<polygon fill="none" stroke="black" points="10.5,-127 10.5,-149 208.5,-149 208.5,-127 10.5,-127"/>
<text text-anchor="start" x="30.5" y="-135.2" font-family="Helvetica,sans-Serif" font-size="11.00">itemvalue</text>
<polygon fill="none" stroke="black" points="208.5,-127 208.5,-149 291.5,-149 291.5,-127 208.5,-127"/>
<text text-anchor="start" x="211.5" y="-135.2" font-family="Helvetica,sans-Serif" font-size="11.00">varchar[40]</text>
<polygon fill="none" stroke="black" points="10.5,-105 10.5,-127 208.5,-127 208.5,-105 10.5,-105"/>
<text text-anchor="start" x="30.5" y="-113.2" font-family="Helvetica,sans-Serif" font-size="11.00">itemultimaatualizacao</text>
<polygon fill="none" stroke="black" points="208.5,-105 208.5,-127 291.5,-127 291.5,-105 208.5,-105"/>
<text text-anchor="start" x="211.5" y="-113.2" font-family="Helvetica,sans-Serif" font-size="11.00">timestamp[29,6]</text>
<polygon fill="none" stroke="black" points="10.5,-83 10.5,-105 208.5,-105 208.5,-83 10.5,-83"/>
<text text-anchor="start" x="30.5" y="-91.2" font-family="Helvetica,sans-Serif" font-size="11.00">itemvalororcado</text>
<polygon fill="none" stroke="black" points="208.5,-83 208.5,-105 291.5,-105 291.5,-83 208.5,-83"/>
<text text-anchor="start" x="211.5" y="-91.2" font-family="Helvetica,sans-Serif" font-size="11.00">numeric[0]</text>
<polygon fill="none" stroke="black" points="10.5,-61 10.5,-83 208.5,-83 208.5,-61 10.5,-61"/>
<text text-anchor="start" x="30.5" y="-69.2" font-family="Helvetica,sans-Serif" font-size="11.00">itemvalorcalculado</text>
<polygon fill="none" stroke="black" points="208.5,-61 208.5,-83 291.5,-83 291.5,-61 208.5,-61"/>
<text text-anchor="start" x="211.5" y="-69.2" font-family="Helvetica,sans-Serif" font-size="11.00">numeric[0]</text>
<polygon fill="none" stroke="black" points="10.5,-39 10.5,-61 208.5,-61 208.5,-39 10.5,-39"/>
<image xlink:href="../../images/foreignKeys.png" width="11px" height="12px" preserveAspectRatio="xMinYMin meet" x="15.5" y="-56"/>
<text text-anchor="start" x="30.5" y="-47.2" font-family="Helvetica,sans-Serif" font-size="11.00">cof_orcamentogrupo_id</text>
<polygon fill="none" stroke="black" points="208.5,-39 208.5,-61 291.5,-61 291.5,-39 208.5,-39"/>
<text text-anchor="start" x="211.5" y="-47.2" font-family="Helvetica,sans-Serif" font-size="11.00">numeric[10]</text>
<polygon fill="none" stroke="black" stroke-width="2" points="9,-38 9,-480 292,-480 292,-38 9,-38"/>
</a>
</g>
</g>
</g>
</svg>
