<?xml version="1.0" encoding="UTF-8" standalone="no"?>
<!DOCTYPE svg PUBLIC "-//W3C//DTD SVG 1.1//EN"
 "http://www.w3.org/Graphics/SVG/1.1/DTD/svg11.dtd">
<!-- Generated by graphviz version 2.43.0 (0)
 -->
<!-- Title: oneDegreeRelationshipsDiagram Pages: 1 -->
<svg width="802pt" height="505pt"
 viewBox="0.00 0.00 802.00 505.00" xmlns="http://www.w3.org/2000/svg" xmlns:xlink="http://www.w3.org/1999/xlink">
<g id="graph0" class="graph" transform="scale(1 1) rotate(0) translate(4 501)">
<title>oneDegreeRelationshipsDiagram</title>
<polygon fill="#ffffff" stroke="transparent" points="-4,4 -4,-501 798,-501 798,4 -4,4"/>
<text text-anchor="middle" x="71.5" y="-7.2" font-family="Helvetica,sans-Serif" font-size="11.00">Generated by SchemaSpy</text>
<!-- gl_journalgeneratorline -->
<g id="node1" class="node">
<title>gl_journalgeneratorline</title>
<g id="a_node1"><a xlink:href="../../tables/gl_journalgeneratorline.html" xlink:title="gl_journalgeneratorline" target="_top">
<polygon fill="#ffffff" stroke="transparent" points="226,-257 226,-447 428,-447 428,-257 226,-257"/>
<polygon fill="#f5f5f5" stroke="transparent" points="226,-425 226,-447 428,-447 428,-425 226,-425"/>
<polygon fill="none" stroke="black" points="226,-425 226,-447 428,-447 428,-425 226,-425"/>
<text text-anchor="start" x="231" y="-434.2" font-family="Helvetica,sans-Serif" font-weight="bold" font-size="11.00">gl_journalgeneratorline</text>
<text text-anchor="start" x="393" y="-433.2" font-family="Helvetica,sans-Serif" font-size="11.00">[table]</text>
<polygon fill="none" stroke="black" points="226,-403 226,-425 428,-425 428,-403 226,-403"/>
<image xlink:href="../../images/primaryKeys.png" width="11px" height="12px" preserveAspectRatio="xMinYMin meet" x="231" y="-420"/>
<text text-anchor="start" x="246" y="-411.2" font-family="Helvetica,sans-Serif" font-size="11.00">gl_journalgeneratorline_id</text>
<polygon fill="none" stroke="black" points="226,-381 226,-403 428,-403 428,-381 226,-381"/>
<image xlink:href="../../images/foreignKeys.png" width="11px" height="12px" preserveAspectRatio="xMinYMin meet" x="231" y="-398"/>
<text text-anchor="start" x="246" y="-389.2" font-family="Helvetica,sans-Serif" font-size="11.00">gl_journalgenerator_id</text>
<polygon fill="none" stroke="black" points="226,-359 226,-381 428,-381 428,-359 226,-359"/>
<image xlink:href="../../images/foreignKeys.png" width="11px" height="12px" preserveAspectRatio="xMinYMin meet" x="231" y="-376"/>
<text text-anchor="start" x="246" y="-367.2" font-family="Helvetica,sans-Serif" font-size="11.00">c_elementvaluedr_id</text>
<polygon fill="none" stroke="black" points="226,-337 226,-359 428,-359 428,-337 226,-337"/>
<image xlink:href="../../images/foreignKeys.png" width="11px" height="12px" preserveAspectRatio="xMinYMin meet" x="231" y="-354"/>
<text text-anchor="start" x="246" y="-345.2" font-family="Helvetica,sans-Serif" font-size="11.00">c_elementvaluecr_id</text>
<polygon fill="none" stroke="black" points="226,-315 226,-337 428,-337 428,-315 226,-315"/>
<image xlink:href="../../images/foreignKeys.png" width="11px" height="12px" preserveAspectRatio="xMinYMin meet" x="231" y="-332"/>
<text text-anchor="start" x="246" y="-323.2" font-family="Helvetica,sans-Serif" font-size="11.00">c_bpartner_id</text>
<polygon fill="#ffffff" stroke="transparent" points="226,-293 226,-315 428,-315 428,-293 226,-293"/>
<polygon fill="none" stroke="black" points="226,-293 226,-315 428,-315 428,-293 226,-293"/>
<text text-anchor="start" x="246" y="-301.2" font-family="Helvetica,sans-Serif" font-size="11.00">gl_journalgeneratorline_uu</text>
<polygon fill="none" stroke="black" points="226,-275 226,-293 428,-293 428,-275 226,-275"/>
<text text-anchor="start" x="229" y="-281.2" font-family="Helvetica,sans-Serif" font-size="11.00">...</text>
<polygon fill="#ffffff" stroke="transparent" points="226,-257 226,-275 307,-275 307,-257 226,-257"/>
<polygon fill="none" stroke="black" points="226,-257 226,-275 307,-275 307,-257 226,-257"/>
<text text-anchor="start" x="229" y="-263.2" font-family="Helvetica,sans-Serif" font-size="11.00">&lt; 4</text>
<polygon fill="#ffffff" stroke="transparent" points="307,-257 307,-275 376,-275 376,-257 307,-257"/>
<polygon fill="none" stroke="black" points="307,-257 307,-275 376,-275 376,-257 307,-257"/>
<text text-anchor="start" x="340" y="-263.2" font-family="Helvetica,sans-Serif" font-size="11.00">0 rows</text>
<polygon fill="#ffffff" stroke="transparent" points="376,-257 376,-275 428,-275 428,-257 376,-257"/>
<polygon fill="none" stroke="black" points="376,-257 376,-275 428,-275 428,-257 376,-257"/>
<text text-anchor="start" x="409" y="-263.2" font-family="Helvetica,sans-Serif" font-size="11.00">1 &gt;</text>
</a>
</g>
</g>
<!-- c_elementvalue -->
<g id="node2" class="node">
<title>c_elementvalue</title>
<g id="a_node2"><a xlink:href="../../tables/c_elementvalue.html" xlink:title="c_elementvalue" target="_top">
<polygon fill="#ffffff" stroke="transparent" points="8,-103 8,-381 177,-381 177,-103 8,-103"/>
<polygon fill="#f5f5f5" stroke="transparent" points="8.5,-359 8.5,-381 177.5,-381 177.5,-359 8.5,-359"/>
<polygon fill="none" stroke="black" points="8.5,-359 8.5,-381 177.5,-381 177.5,-359 8.5,-359"/>
<text text-anchor="start" x="13.5" y="-368.2" font-family="Helvetica,sans-Serif" font-weight="bold" font-size="11.00">c_elementvalue</text>
<text text-anchor="start" x="142.5" y="-367.2" font-family="Helvetica,sans-Serif" font-size="11.00">[table]</text>
<polygon fill="none" stroke="black" points="8.5,-337 8.5,-359 177.5,-359 177.5,-337 8.5,-337"/>
<image xlink:href="../../images/primaryKeys.png" width="11px" height="12px" preserveAspectRatio="xMinYMin meet" x="13.5" y="-354"/>
<text text-anchor="start" x="28.5" y="-345.2" font-family="Helvetica,sans-Serif" font-size="11.00">c_elementvalue_id</text>
<polygon fill="none" stroke="black" points="8.5,-315 8.5,-337 177.5,-337 177.5,-315 8.5,-315"/>
<image xlink:href="../../images/foreignKeys.png" width="11px" height="12px" preserveAspectRatio="xMinYMin meet" x="13.5" y="-332"/>
<text text-anchor="start" x="28.5" y="-323.2" font-family="Helvetica,sans-Serif" font-size="11.00">ad_client_id</text>
<polygon fill="none" stroke="black" points="8.5,-293 8.5,-315 177.5,-315 177.5,-293 8.5,-293"/>
<image xlink:href="../../images/foreignKeys.png" width="11px" height="12px" preserveAspectRatio="xMinYMin meet" x="13.5" y="-310"/>
<text text-anchor="start" x="28.5" y="-301.2" font-family="Helvetica,sans-Serif" font-size="11.00">ad_org_id</text>
<polygon fill="#ffffff" stroke="transparent" points="8.5,-271 8.5,-293 177.5,-293 177.5,-271 8.5,-271"/>
<polygon fill="none" stroke="black" points="8.5,-271 8.5,-293 177.5,-293 177.5,-271 8.5,-271"/>
<text text-anchor="start" x="28.5" y="-279.2" font-family="Helvetica,sans-Serif" font-size="11.00">value</text>
<polygon fill="#ffffff" stroke="transparent" points="8.5,-249 8.5,-271 177.5,-271 177.5,-249 8.5,-249"/>
<polygon fill="none" stroke="black" points="8.5,-249 8.5,-271 177.5,-271 177.5,-249 8.5,-249"/>
<text text-anchor="start" x="28.5" y="-257.2" font-family="Helvetica,sans-Serif" font-size="11.00">name</text>
<polygon fill="#ffffff" stroke="transparent" points="8.5,-227 8.5,-249 177.5,-249 177.5,-227 8.5,-227"/>
<polygon fill="none" stroke="black" points="8.5,-227 8.5,-249 177.5,-249 177.5,-227 8.5,-227"/>
<image xlink:href="../../images/foreignKeys.png" width="11px" height="12px" preserveAspectRatio="xMinYMin meet" x="13.5" y="-244"/>
<text text-anchor="start" x="28.5" y="-235.2" font-family="Helvetica,sans-Serif" font-size="11.00">c_element_id</text>
<polygon fill="none" stroke="black" points="8.5,-205 8.5,-227 177.5,-227 177.5,-205 8.5,-205"/>
<image xlink:href="../../images/foreignKeys.png" width="11px" height="12px" preserveAspectRatio="xMinYMin meet" x="13.5" y="-222"/>
<text text-anchor="start" x="28.5" y="-213.2" font-family="Helvetica,sans-Serif" font-size="11.00">c_bankaccount_id</text>
<polygon fill="none" stroke="black" points="8.5,-183 8.5,-205 177.5,-205 177.5,-183 8.5,-183"/>
<image xlink:href="../../images/foreignKeys.png" width="11px" height="12px" preserveAspectRatio="xMinYMin meet" x="13.5" y="-200"/>
<text text-anchor="start" x="28.5" y="-191.2" font-family="Helvetica,sans-Serif" font-size="11.00">c_currency_id</text>
<polygon fill="#ffffff" stroke="transparent" points="8.5,-161 8.5,-183 177.5,-183 177.5,-161 8.5,-161"/>
<polygon fill="none" stroke="black" points="8.5,-161 8.5,-183 177.5,-183 177.5,-161 8.5,-161"/>
<text text-anchor="start" x="28.5" y="-169.2" font-family="Helvetica,sans-Serif" font-size="11.00">c_elementvalue_uu</text>
<polygon fill="none" stroke="black" points="8.5,-139 8.5,-161 177.5,-161 177.5,-139 8.5,-139"/>
<image xlink:href="../../images/foreignKeys.png" width="11px" height="12px" preserveAspectRatio="xMinYMin meet" x="13.5" y="-156"/>
<text text-anchor="start" x="28.5" y="-147.2" font-family="Helvetica,sans-Serif" font-size="11.00">cof_codagl_id</text>
<polygon fill="none" stroke="black" points="8.5,-121 8.5,-139 177.5,-139 177.5,-121 8.5,-121"/>
<text text-anchor="start" x="11.5" y="-127.2" font-family="Helvetica,sans-Serif" font-size="11.00">...</text>
<polygon fill="#ffffff" stroke="transparent" points="8.5,-103 8.5,-121 56.5,-121 56.5,-103 8.5,-103"/>
<polygon fill="none" stroke="black" points="8.5,-103 8.5,-121 56.5,-121 56.5,-103 8.5,-103"/>
<text text-anchor="start" x="11.5" y="-109.2" font-family="Helvetica,sans-Serif" font-size="11.00">&lt; 6</text>
<polygon fill="#ffffff" stroke="transparent" points="56.5,-103 56.5,-121 129.5,-121 129.5,-103 56.5,-103"/>
<polygon fill="none" stroke="black" points="56.5,-103 56.5,-121 129.5,-121 129.5,-103 56.5,-103"/>
<text text-anchor="start" x="72.5" y="-109.2" font-family="Helvetica,sans-Serif" font-size="11.00">1.835 rows</text>
<polygon fill="#ffffff" stroke="transparent" points="129.5,-103 129.5,-121 177.5,-121 177.5,-103 129.5,-103"/>
<polygon fill="none" stroke="black" points="129.5,-103 129.5,-121 177.5,-121 177.5,-103 129.5,-103"/>
<text text-anchor="start" x="146.5" y="-109.2" font-family="Helvetica,sans-Serif" font-size="11.00">108 &gt;</text>
</a>
</g>
</g>
<!-- gl_journalgeneratorline&#45;&gt;c_elementvalue -->
<g id="edge1" class="edge">
<title>gl_journalgeneratorline:w&#45;&gt;c_elementvalue:e</title>
<path fill="none" stroke="black" d="M210.55,-348C200.2,-348 193.35,-348 178.5,-348"/>
<polygon fill="black" stroke="black" points="217,-348 225,-351.6 221,-348 225,-348 225,-348 225,-348 221,-348 225,-344.4 217,-348 217,-348"/>
<ellipse fill="none" stroke="black" cx="213.8" cy="-348" rx="3.2" ry="3.2"/>
</g>
<!-- gl_journalgeneratorline&#45;&gt;c_elementvalue -->
<g id="edge2" class="edge">
<title>gl_journalgeneratorline:w&#45;&gt;c_elementvalue:e</title>
<path fill="none" stroke="black" d="M210.96,-366.37C200.27,-360.12 195.47,-348 178.5,-348"/>
<polygon fill="black" stroke="black" points="217.26,-368 224.1,-373.49 221.13,-369 225,-370 225,-370 225,-370 221.13,-369 225.9,-366.51 217.26,-368 217.26,-368"/>
<ellipse fill="none" stroke="black" cx="214.16" cy="-367.19" rx="3.2" ry="3.2"/>
</g>
<!-- gl_journalgeneratorsource -->
<g id="node3" class="node">
<title>gl_journalgeneratorsource</title>
<g id="a_node3"><a xlink:href="../../tables/gl_journalgeneratorsource.html" xlink:title="gl_journalgeneratorsource" target="_top">
<polygon fill="#ffffff" stroke="transparent" points="477,-119 477,-493 786,-493 786,-119 477,-119"/>
<polygon fill="#f5f5f5" stroke="transparent" points="479.5,-469 479.5,-491 784.5,-491 784.5,-469 479.5,-469"/>
<polygon fill="none" stroke="black" points="479.5,-469 479.5,-491 784.5,-491 784.5,-469 479.5,-469"/>
<text text-anchor="start" x="484.5" y="-478.2" font-family="Helvetica,sans-Serif" font-weight="bold" font-size="11.00">gl_journalgeneratorsource</text>
<text text-anchor="start" x="749.5" y="-477.2" font-family="Helvetica,sans-Serif" font-size="11.00">[table]</text>
<polygon fill="none" stroke="black" points="479.5,-447 479.5,-469 701.5,-469 701.5,-447 479.5,-447"/>
<image xlink:href="../../images/primaryKeys.png" width="11px" height="12px" preserveAspectRatio="xMinYMin meet" x="484.5" y="-464"/>
<text text-anchor="start" x="499.5" y="-455.2" font-family="Helvetica,sans-Serif" font-size="11.00">gl_journalgeneratorsource_id</text>
<polygon fill="none" stroke="black" points="701.5,-447 701.5,-469 784.5,-469 784.5,-447 701.5,-447"/>
<text text-anchor="start" x="704.5" y="-455.2" font-family="Helvetica,sans-Serif" font-size="11.00">numeric[10]</text>
<polygon fill="none" stroke="black" points="479.5,-425 479.5,-447 701.5,-447 701.5,-425 479.5,-425"/>
<text text-anchor="start" x="499.5" y="-433.2" font-family="Helvetica,sans-Serif" font-size="11.00">ad_client_id</text>
<polygon fill="none" stroke="black" points="701.5,-425 701.5,-447 784.5,-447 784.5,-425 701.5,-425"/>
<text text-anchor="start" x="704.5" y="-433.2" font-family="Helvetica,sans-Serif" font-size="11.00">numeric[10]</text>
<polygon fill="none" stroke="black" points="479.5,-403 479.5,-425 701.5,-425 701.5,-403 479.5,-403"/>
<text text-anchor="start" x="499.5" y="-411.2" font-family="Helvetica,sans-Serif" font-size="11.00">ad_org_id</text>
<polygon fill="none" stroke="black" points="701.5,-403 701.5,-425 784.5,-425 784.5,-403 701.5,-403"/>
<text text-anchor="start" x="704.5" y="-411.2" font-family="Helvetica,sans-Serif" font-size="11.00">numeric[10]</text>
<polygon fill="none" stroke="black" points="479.5,-381 479.5,-403 701.5,-403 701.5,-381 479.5,-381"/>
<text text-anchor="start" x="499.5" y="-389.2" font-family="Helvetica,sans-Serif" font-size="11.00">created</text>
<polygon fill="none" stroke="black" points="701.5,-381 701.5,-403 784.5,-403 784.5,-381 701.5,-381"/>
<text text-anchor="start" x="704.5" y="-389.2" font-family="Helvetica,sans-Serif" font-size="11.00">timestamp[29,6]</text>
<polygon fill="none" stroke="black" points="479.5,-359 479.5,-381 701.5,-381 701.5,-359 479.5,-359"/>
<text text-anchor="start" x="499.5" y="-367.2" font-family="Helvetica,sans-Serif" font-size="11.00">createdby</text>
<polygon fill="none" stroke="black" points="701.5,-359 701.5,-381 784.5,-381 784.5,-359 701.5,-359"/>
<text text-anchor="start" x="704.5" y="-367.2" font-family="Helvetica,sans-Serif" font-size="11.00">numeric[10]</text>
<polygon fill="none" stroke="black" points="479.5,-337 479.5,-359 701.5,-359 701.5,-337 479.5,-337"/>
<text text-anchor="start" x="499.5" y="-345.2" font-family="Helvetica,sans-Serif" font-size="11.00">help</text>
<polygon fill="none" stroke="black" points="701.5,-337 701.5,-359 784.5,-359 784.5,-337 701.5,-337"/>
<text text-anchor="start" x="704.5" y="-345.2" font-family="Helvetica,sans-Serif" font-size="11.00">varchar[2000]</text>
<polygon fill="none" stroke="black" points="479.5,-315 479.5,-337 701.5,-337 701.5,-315 479.5,-315"/>
<text text-anchor="start" x="499.5" y="-323.2" font-family="Helvetica,sans-Serif" font-size="11.00">isactive</text>
<polygon fill="none" stroke="black" points="701.5,-315 701.5,-337 784.5,-337 784.5,-315 701.5,-315"/>
<text text-anchor="start" x="704.5" y="-323.2" font-family="Helvetica,sans-Serif" font-size="11.00">bpchar[1]</text>
<polygon fill="none" stroke="black" points="479.5,-293 479.5,-315 701.5,-315 701.5,-293 479.5,-293"/>
<text text-anchor="start" x="499.5" y="-301.2" font-family="Helvetica,sans-Serif" font-size="11.00">updated</text>
<polygon fill="none" stroke="black" points="701.5,-293 701.5,-315 784.5,-315 784.5,-293 701.5,-293"/>
<text text-anchor="start" x="704.5" y="-301.2" font-family="Helvetica,sans-Serif" font-size="11.00">timestamp[29,6]</text>
<polygon fill="none" stroke="black" points="479.5,-271 479.5,-293 701.5,-293 701.5,-271 479.5,-271"/>
<text text-anchor="start" x="499.5" y="-279.2" font-family="Helvetica,sans-Serif" font-size="11.00">updatedby</text>
<polygon fill="none" stroke="black" points="701.5,-271 701.5,-293 784.5,-293 784.5,-271 701.5,-271"/>
<text text-anchor="start" x="704.5" y="-279.2" font-family="Helvetica,sans-Serif" font-size="11.00">numeric[10]</text>
<polygon fill="none" stroke="black" points="479.5,-249 479.5,-271 701.5,-271 701.5,-249 479.5,-249"/>
<image xlink:href="../../images/foreignKeys.png" width="11px" height="12px" preserveAspectRatio="xMinYMin meet" x="484.5" y="-266"/>
<text text-anchor="start" x="499.5" y="-257.2" font-family="Helvetica,sans-Serif" font-size="11.00">gl_journalgeneratorline_id</text>
<polygon fill="none" stroke="black" points="701.5,-249 701.5,-271 784.5,-271 784.5,-249 701.5,-249"/>
<text text-anchor="start" x="704.5" y="-257.2" font-family="Helvetica,sans-Serif" font-size="11.00">numeric[10]</text>
<polygon fill="none" stroke="black" points="479.5,-227 479.5,-249 701.5,-249 701.5,-227 479.5,-227"/>
<image xlink:href="../../images/foreignKeys.png" width="11px" height="12px" preserveAspectRatio="xMinYMin meet" x="484.5" y="-244"/>
<text text-anchor="start" x="499.5" y="-235.2" font-family="Helvetica,sans-Serif" font-size="11.00">c_elementvalue_id</text>
<polygon fill="none" stroke="black" points="701.5,-227 701.5,-249 784.5,-249 784.5,-227 701.5,-227"/>
<text text-anchor="start" x="704.5" y="-235.2" font-family="Helvetica,sans-Serif" font-size="11.00">numeric[10]</text>
<polygon fill="none" stroke="black" points="479.5,-205 479.5,-227 701.5,-227 701.5,-205 479.5,-205"/>
<text text-anchor="start" x="499.5" y="-213.2" font-family="Helvetica,sans-Serif" font-size="11.00">amtmultiplier</text>
<polygon fill="none" stroke="black" points="701.5,-205 701.5,-227 784.5,-227 784.5,-205 701.5,-205"/>
<text text-anchor="start" x="704.5" y="-213.2" font-family="Helvetica,sans-Serif" font-size="11.00">numeric[0]</text>
<polygon fill="none" stroke="black" points="479.5,-183 479.5,-205 701.5,-205 701.5,-183 479.5,-183"/>
<text text-anchor="start" x="499.5" y="-191.2" font-family="Helvetica,sans-Serif" font-size="11.00">roundfactor</text>
<polygon fill="none" stroke="black" points="701.5,-183 701.5,-205 784.5,-205 784.5,-183 701.5,-183"/>
<text text-anchor="start" x="704.5" y="-191.2" font-family="Helvetica,sans-Serif" font-size="11.00">numeric[10]</text>
<polygon fill="none" stroke="black" points="479.5,-161 479.5,-183 701.5,-183 701.5,-161 479.5,-161"/>
<image xlink:href="../../images/foreignKeys.png" width="11px" height="12px" preserveAspectRatio="xMinYMin meet" x="484.5" y="-178"/>
<text text-anchor="start" x="499.5" y="-169.2" font-family="Helvetica,sans-Serif" font-size="11.00">gl_category_id</text>
<polygon fill="none" stroke="black" points="701.5,-161 701.5,-183 784.5,-183 784.5,-161 701.5,-161"/>
<text text-anchor="start" x="704.5" y="-169.2" font-family="Helvetica,sans-Serif" font-size="11.00">numeric[10]</text>
<polygon fill="#ffffff" stroke="transparent" points="479.5,-139 479.5,-161 701.5,-161 701.5,-139 479.5,-139"/>
<polygon fill="none" stroke="black" points="479.5,-139 479.5,-161 701.5,-161 701.5,-139 479.5,-139"/>
<text text-anchor="start" x="499.5" y="-147.2" font-family="Helvetica,sans-Serif" font-size="11.00">gl_journalgeneratorsource_uu</text>
<polygon fill="none" stroke="black" points="701.5,-139 701.5,-161 784.5,-161 784.5,-139 701.5,-139"/>
<text text-anchor="start" x="704.5" y="-147.2" font-family="Helvetica,sans-Serif" font-size="11.00">varchar[36]</text>
<polygon fill="#ffffff" stroke="transparent" points="479.5,-121 479.5,-139 581.5,-139 581.5,-121 479.5,-121"/>
<polygon fill="none" stroke="black" points="479.5,-121 479.5,-139 581.5,-139 581.5,-121 479.5,-121"/>
<text text-anchor="start" x="482.5" y="-127.2" font-family="Helvetica,sans-Serif" font-size="11.00">&lt; 3</text>
<polygon fill="#ffffff" stroke="transparent" points="581.5,-121 581.5,-139 701.5,-139 701.5,-121 581.5,-121"/>
<polygon fill="none" stroke="black" points="581.5,-121 581.5,-139 701.5,-139 701.5,-121 581.5,-121"/>
<text text-anchor="start" x="665.5" y="-127.2" font-family="Helvetica,sans-Serif" font-size="11.00">0 rows</text>
<polygon fill="#ffffff" stroke="transparent" points="701.5,-121 701.5,-139 784.5,-139 784.5,-121 701.5,-121"/>
<polygon fill="none" stroke="black" points="701.5,-121 701.5,-139 784.5,-139 784.5,-121 701.5,-121"/>
<text text-anchor="start" x="765.5" y="-127.2" font-family="Helvetica,sans-Serif" font-size="11.00">0 &gt;</text>
<polygon fill="none" stroke="black" stroke-width="2" points="478,-120 478,-492 785,-492 785,-120 478,-120"/>
</a>
</g>
</g>
<!-- gl_journalgeneratorsource&#45;&gt;gl_journalgeneratorline -->
<g id="edge5" class="edge">
<title>gl_journalgeneratorsource:w&#45;&gt;gl_journalgeneratorline:e</title>
<path fill="none" stroke="black" d="M464.25,-262.8C420.64,-283.68 495.14,-414 429,-414"/>
<polygon fill="black" stroke="black" points="470.65,-261.55 479.2,-263.53 474.58,-260.77 478.5,-260 478.5,-260 478.5,-260 474.58,-260.77 477.8,-256.47 470.65,-261.55 470.65,-261.55"/>
<ellipse fill="none" stroke="black" cx="467.51" cy="-262.16" rx="3.2" ry="3.2"/>
</g>
<!-- gl_journalgeneratorsource&#45;&gt;c_elementvalue -->
<g id="edge3" class="edge">
<title>gl_journalgeneratorsource:w&#45;&gt;c_elementvalue:e</title>
<path fill="none" stroke="black" d="M464.08,-237.63C398.12,-234.69 261.76,-216.01 218,-247 178.67,-274.86 226.7,-348 178.5,-348"/>
<polygon fill="black" stroke="black" points="470.5,-237.79 478.41,-241.6 474.5,-237.9 478.5,-238 478.5,-238 478.5,-238 474.5,-237.9 478.59,-234.4 470.5,-237.79 470.5,-237.79"/>
<ellipse fill="none" stroke="black" cx="467.3" cy="-237.71" rx="3.2" ry="3.2"/>
</g>
<!-- gl_category -->
<g id="node4" class="node">
<title>gl_category</title>
<g id="a_node4"><a xlink:href="../../tables/gl_category.html" xlink:title="gl_category" target="_top">
<polygon fill="#ffffff" stroke="transparent" points="266,-37 266,-205 388,-205 388,-37 266,-37"/>
<polygon fill="#f5f5f5" stroke="transparent" points="266,-183 266,-205 388,-205 388,-183 266,-183"/>
<polygon fill="none" stroke="black" points="266,-183 266,-205 388,-205 388,-183 266,-183"/>
<text text-anchor="start" x="271" y="-192.2" font-family="Helvetica,sans-Serif" font-weight="bold" font-size="11.00">gl_category</text>
<text text-anchor="start" x="353" y="-191.2" font-family="Helvetica,sans-Serif" font-size="11.00">[table]</text>
<polygon fill="none" stroke="black" points="266,-161 266,-183 388,-183 388,-161 266,-161"/>
<image xlink:href="../../images/primaryKeys.png" width="11px" height="12px" preserveAspectRatio="xMinYMin meet" x="271" y="-178"/>
<text text-anchor="start" x="286" y="-169.2" font-family="Helvetica,sans-Serif" font-size="11.00">gl_category_id</text>
<polygon fill="#ffffff" stroke="transparent" points="266,-139 266,-161 388,-161 388,-139 266,-139"/>
<polygon fill="none" stroke="black" points="266,-139 266,-161 388,-161 388,-139 266,-139"/>
<text text-anchor="start" x="286" y="-147.2" font-family="Helvetica,sans-Serif" font-size="11.00">ad_client_id</text>
<polygon fill="#ffffff" stroke="transparent" points="266,-117 266,-139 388,-139 388,-117 266,-117"/>
<polygon fill="none" stroke="black" points="266,-117 266,-139 388,-139 388,-117 266,-117"/>
<text text-anchor="start" x="286" y="-125.2" font-family="Helvetica,sans-Serif" font-size="11.00">name</text>
<polygon fill="#ffffff" stroke="transparent" points="266,-95 266,-117 388,-117 388,-95 266,-95"/>
<polygon fill="none" stroke="black" points="266,-95 266,-117 388,-117 388,-95 266,-95"/>
<text text-anchor="start" x="286" y="-103.2" font-family="Helvetica,sans-Serif" font-size="11.00">gl_category_uu</text>
<polygon fill="#ffffff" stroke="transparent" points="266,-73 266,-95 388,-95 388,-73 266,-73"/>
<polygon fill="none" stroke="black" points="266,-73 266,-95 388,-95 388,-73 266,-73"/>
<text text-anchor="start" x="286" y="-81.2" font-family="Helvetica,sans-Serif" font-size="11.00">value</text>
<polygon fill="none" stroke="black" points="266,-55 266,-73 388,-73 388,-55 266,-55"/>
<text text-anchor="start" x="269" y="-61.2" font-family="Helvetica,sans-Serif" font-size="11.00">...</text>
<polygon fill="#ffffff" stroke="transparent" points="266,-37 266,-55 297,-55 297,-37 266,-37"/>
<polygon fill="none" stroke="black" points="266,-37 266,-55 297,-55 297,-37 266,-37"/>
<text text-anchor="start" x="269" y="-43.2" font-family="Helvetica,sans-Serif" font-size="11.00"> &#160;</text>
<polygon fill="#ffffff" stroke="transparent" points="297,-37 297,-55 351,-55 351,-37 297,-37"/>
<polygon fill="none" stroke="black" points="297,-37 297,-55 351,-55 351,-37 297,-37"/>
<text text-anchor="start" x="309" y="-43.2" font-family="Helvetica,sans-Serif" font-size="11.00">47 rows</text>
<polygon fill="#ffffff" stroke="transparent" points="351,-37 351,-55 388,-55 388,-37 351,-37"/>
<polygon fill="none" stroke="black" points="351,-37 351,-55 388,-55 388,-37 351,-37"/>
<text text-anchor="start" x="363" y="-43.2" font-family="Helvetica,sans-Serif" font-size="11.00">12 &gt;</text>
</a>
</g>
</g>
<!-- gl_journalgeneratorsource&#45;&gt;gl_category -->
<g id="edge4" class="edge">
<title>gl_journalgeneratorsource:w&#45;&gt;gl_category:e</title>
<path fill="none" stroke="black" d="M464.09,-172C435.55,-172 423.49,-172 389,-172"/>
<polygon fill="black" stroke="black" points="470.5,-172 478.5,-175.6 474.5,-172 478.5,-172 478.5,-172 478.5,-172 474.5,-172 478.5,-168.4 470.5,-172 470.5,-172"/>
<ellipse fill="none" stroke="black" cx="467.3" cy="-172" rx="3.2" ry="3.2"/>
</g>
</g>
</svg>
