<?xml version="1.0" encoding="UTF-8" standalone="no"?>
<!DOCTYPE svg PUBLIC "-//W3C//DTD SVG 1.1//EN"
 "http://www.w3.org/Graphics/SVG/1.1/DTD/svg11.dtd">
<!-- Generated by graphviz version 2.43.0 (0)
 -->
<!-- Title: oneDegreeRelationshipsDiagram Pages: 1 -->
<svg width="817pt" height="527pt"
 viewBox="0.00 0.00 817.00 527.03" xmlns="http://www.w3.org/2000/svg" xmlns:xlink="http://www.w3.org/1999/xlink">
<g id="graph0" class="graph" transform="scale(1 1) rotate(0) translate(4 523.03)">
<title>oneDegreeRelationshipsDiagram</title>
<polygon fill="#ffffff" stroke="transparent" points="-4,4 -4,-523.03 813,-523.03 813,4 -4,4"/>
<text text-anchor="middle" x="71.5" y="-7.2" font-family="Helvetica,sans-Serif" font-size="11.00">Generated by SchemaSpy</text>
<!-- hr_employee -->
<g id="node1" class="node">
<title>hr_employee</title>
<g id="a_node1"><a xlink:href="../../tables/hr_employee.html" xlink:title="hr_employee" target="_top">
<polygon fill="#ffffff" stroke="transparent" points="201,-270 201,-482 341,-482 341,-270 201,-270"/>
<polygon fill="#f5f5f5" stroke="transparent" points="201,-460 201,-482 341,-482 341,-460 201,-460"/>
<polygon fill="none" stroke="black" points="201,-460 201,-482 341,-482 341,-460 201,-460"/>
<text text-anchor="start" x="206" y="-469.2" font-family="Helvetica,sans-Serif" font-weight="bold" font-size="11.00">hr_employee</text>
<text text-anchor="start" x="306" y="-468.2" font-family="Helvetica,sans-Serif" font-size="11.00">[table]</text>
<polygon fill="none" stroke="black" points="201,-438 201,-460 341,-460 341,-438 201,-438"/>
<image xlink:href="../../images/foreignKeys.png" width="11px" height="12px" preserveAspectRatio="xMinYMin meet" x="206" y="-455"/>
<text text-anchor="start" x="221" y="-446.2" font-family="Helvetica,sans-Serif" font-size="11.00">c_activity_id</text>
<polygon fill="none" stroke="black" points="201,-416 201,-438 341,-438 341,-416 201,-416"/>
<image xlink:href="../../images/foreignKeys.png" width="11px" height="12px" preserveAspectRatio="xMinYMin meet" x="206" y="-433"/>
<text text-anchor="start" x="221" y="-424.2" font-family="Helvetica,sans-Serif" font-size="11.00">c_bpartner_id</text>
<polygon fill="none" stroke="black" points="201,-394 201,-416 341,-416 341,-394 201,-394"/>
<image xlink:href="../../images/foreignKeys.png" width="11px" height="12px" preserveAspectRatio="xMinYMin meet" x="206" y="-411"/>
<text text-anchor="start" x="221" y="-402.2" font-family="Helvetica,sans-Serif" font-size="11.00">hr_department_id</text>
<polygon fill="none" stroke="black" points="201,-372 201,-394 341,-394 341,-372 201,-372"/>
<image xlink:href="../../images/primaryKeys.png" width="11px" height="12px" preserveAspectRatio="xMinYMin meet" x="206" y="-389"/>
<text text-anchor="start" x="221" y="-380.2" font-family="Helvetica,sans-Serif" font-size="11.00">hr_employee_id</text>
<polygon fill="none" stroke="black" points="201,-350 201,-372 341,-372 341,-350 201,-350"/>
<image xlink:href="../../images/foreignKeys.png" width="11px" height="12px" preserveAspectRatio="xMinYMin meet" x="206" y="-367"/>
<text text-anchor="start" x="221" y="-358.2" font-family="Helvetica,sans-Serif" font-size="11.00">hr_job_id</text>
<polygon fill="none" stroke="black" points="201,-328 201,-350 341,-350 341,-328 201,-328"/>
<image xlink:href="../../images/foreignKeys.png" width="11px" height="12px" preserveAspectRatio="xMinYMin meet" x="206" y="-345"/>
<text text-anchor="start" x="221" y="-336.2" font-family="Helvetica,sans-Serif" font-size="11.00">hr_payroll_id</text>
<polygon fill="#ffffff" stroke="transparent" points="201,-306 201,-328 341,-328 341,-306 201,-306"/>
<polygon fill="none" stroke="black" points="201,-306 201,-328 341,-328 341,-306 201,-306"/>
<text text-anchor="start" x="221" y="-314.2" font-family="Helvetica,sans-Serif" font-size="11.00">hr_employee_uu</text>
<polygon fill="none" stroke="black" points="201,-288 201,-306 341,-306 341,-288 201,-288"/>
<text text-anchor="start" x="204" y="-294.2" font-family="Helvetica,sans-Serif" font-size="11.00">...</text>
<polygon fill="#ffffff" stroke="transparent" points="201,-270 201,-288 251,-288 251,-270 201,-270"/>
<polygon fill="none" stroke="black" points="201,-270 201,-288 251,-288 251,-270 201,-270"/>
<text text-anchor="start" x="204" y="-276.2" font-family="Helvetica,sans-Serif" font-size="11.00">&lt; 5</text>
<polygon fill="#ffffff" stroke="transparent" points="251,-270 251,-288 304,-288 304,-270 251,-270"/>
<polygon fill="none" stroke="black" points="251,-270 251,-288 304,-288 304,-270 251,-270"/>
<text text-anchor="start" x="268" y="-276.2" font-family="Helvetica,sans-Serif" font-size="11.00">0 rows</text>
<polygon fill="#ffffff" stroke="transparent" points="304,-270 304,-288 341,-288 341,-270 304,-270"/>
<polygon fill="none" stroke="black" points="304,-270 304,-288 341,-288 341,-270 304,-270"/>
<text text-anchor="start" x="322" y="-276.2" font-family="Helvetica,sans-Serif" font-size="11.00">3 &gt;</text>
</a>
</g>
</g>
<!-- hr_department -->
<g id="node2" class="node">
<title>hr_department</title>
<g id="a_node2"><a xlink:href="../../tables/hr_department.html" xlink:title="hr_department" target="_top">
<polygon fill="#ffffff" stroke="transparent" points="8,-320 8,-488 152,-488 152,-320 8,-320"/>
<polygon fill="#f5f5f5" stroke="transparent" points="8,-466 8,-488 152,-488 152,-466 8,-466"/>
<polygon fill="none" stroke="black" points="8,-466 8,-488 152,-488 152,-466 8,-466"/>
<text text-anchor="start" x="13" y="-475.2" font-family="Helvetica,sans-Serif" font-weight="bold" font-size="11.00">hr_department</text>
<text text-anchor="start" x="117" y="-474.2" font-family="Helvetica,sans-Serif" font-size="11.00">[table]</text>
<polygon fill="none" stroke="black" points="8,-444 8,-466 152,-466 152,-444 8,-444"/>
<image xlink:href="../../images/primaryKeys.png" width="11px" height="12px" preserveAspectRatio="xMinYMin meet" x="13" y="-461"/>
<text text-anchor="start" x="28" y="-452.2" font-family="Helvetica,sans-Serif" font-size="11.00">hr_department_id</text>
<polygon fill="#ffffff" stroke="transparent" points="8,-422 8,-444 152,-444 152,-422 8,-422"/>
<polygon fill="none" stroke="black" points="8,-422 8,-444 152,-444 152,-422 8,-422"/>
<text text-anchor="start" x="28" y="-430.2" font-family="Helvetica,sans-Serif" font-size="11.00">ad_client_id</text>
<polygon fill="#ffffff" stroke="transparent" points="8,-400 8,-422 152,-422 152,-400 8,-400"/>
<polygon fill="none" stroke="black" points="8,-400 8,-422 152,-422 152,-400 8,-400"/>
<text text-anchor="start" x="28" y="-408.2" font-family="Helvetica,sans-Serif" font-size="11.00">value</text>
<polygon fill="none" stroke="black" points="8,-378 8,-400 152,-400 152,-378 8,-378"/>
<image xlink:href="../../images/foreignKeys.png" width="11px" height="12px" preserveAspectRatio="xMinYMin meet" x="13" y="-395"/>
<text text-anchor="start" x="28" y="-386.2" font-family="Helvetica,sans-Serif" font-size="11.00">c_activity_id</text>
<polygon fill="#ffffff" stroke="transparent" points="8,-356 8,-378 152,-378 152,-356 8,-356"/>
<polygon fill="none" stroke="black" points="8,-356 8,-378 152,-378 152,-356 8,-356"/>
<text text-anchor="start" x="28" y="-364.2" font-family="Helvetica,sans-Serif" font-size="11.00">hr_department_uu</text>
<polygon fill="none" stroke="black" points="8,-338 8,-356 152,-356 152,-338 8,-338"/>
<text text-anchor="start" x="11" y="-344.2" font-family="Helvetica,sans-Serif" font-size="11.00">...</text>
<polygon fill="#ffffff" stroke="transparent" points="8,-320 8,-338 60,-338 60,-320 8,-320"/>
<polygon fill="none" stroke="black" points="8,-320 8,-338 60,-338 60,-320 8,-320"/>
<text text-anchor="start" x="11" y="-326.2" font-family="Helvetica,sans-Serif" font-size="11.00">&lt; 1</text>
<polygon fill="#ffffff" stroke="transparent" points="60,-320 60,-338 114,-338 114,-320 60,-320"/>
<polygon fill="none" stroke="black" points="60,-320 60,-338 114,-338 114,-320 60,-320"/>
<text text-anchor="start" x="78" y="-326.2" font-family="Helvetica,sans-Serif" font-size="11.00">0 rows</text>
<polygon fill="#ffffff" stroke="transparent" points="114,-320 114,-338 152,-338 152,-320 114,-320"/>
<polygon fill="none" stroke="black" points="114,-320 114,-338 152,-338 152,-320 114,-320"/>
<text text-anchor="start" x="133" y="-326.2" font-family="Helvetica,sans-Serif" font-size="11.00">7 &gt;</text>
</a>
</g>
</g>
<!-- hr_employee&#45;&gt;hr_department -->
<g id="edge1" class="edge">
<title>hr_employee:w&#45;&gt;hr_department:e</title>
<path fill="none" stroke="black" d="M186.18,-410.35C173.35,-423.25 177.3,-455 153,-455"/>
<polygon fill="black" stroke="black" points="192.54,-407.89 201.3,-408.36 196.27,-406.44 200,-405 200,-405 200,-405 196.27,-406.44 198.7,-401.64 192.54,-407.89 192.54,-407.89"/>
<ellipse fill="none" stroke="black" cx="189.56" cy="-409.04" rx="3.2" ry="3.2"/>
</g>
<!-- hr_payroll -->
<g id="node3" class="node">
<title>hr_payroll</title>
<g id="a_node3"><a xlink:href="../../tables/hr_payroll.html" xlink:title="hr_payroll" target="_top">
<polygon fill="#ffffff" stroke="transparent" points="9.5,-118 9.5,-286 150.5,-286 150.5,-118 9.5,-118"/>
<polygon fill="#f5f5f5" stroke="transparent" points="10,-264 10,-286 151,-286 151,-264 10,-264"/>
<polygon fill="none" stroke="black" points="10,-264 10,-286 151,-286 151,-264 10,-264"/>
<text text-anchor="start" x="15" y="-273.2" font-family="Helvetica,sans-Serif" font-weight="bold" font-size="11.00">hr_payroll</text>
<text text-anchor="start" x="116" y="-272.2" font-family="Helvetica,sans-Serif" font-size="11.00">[table]</text>
<polygon fill="none" stroke="black" points="10,-242 10,-264 151,-264 151,-242 10,-242"/>
<image xlink:href="../../images/foreignKeys.png" width="11px" height="12px" preserveAspectRatio="xMinYMin meet" x="15" y="-259"/>
<text text-anchor="start" x="30" y="-250.2" font-family="Helvetica,sans-Serif" font-size="11.00">ad_printformat_id</text>
<polygon fill="none" stroke="black" points="10,-220 10,-242 151,-242 151,-220 10,-220"/>
<image xlink:href="../../images/foreignKeys.png" width="11px" height="12px" preserveAspectRatio="xMinYMin meet" x="15" y="-237"/>
<text text-anchor="start" x="30" y="-228.2" font-family="Helvetica,sans-Serif" font-size="11.00">c_charge_id</text>
<polygon fill="none" stroke="black" points="10,-198 10,-220 151,-220 151,-198 10,-198"/>
<image xlink:href="../../images/foreignKeys.png" width="11px" height="12px" preserveAspectRatio="xMinYMin meet" x="15" y="-215"/>
<text text-anchor="start" x="30" y="-206.2" font-family="Helvetica,sans-Serif" font-size="11.00">hr_contract_id</text>
<polygon fill="none" stroke="black" points="10,-176 10,-198 151,-198 151,-176 10,-176"/>
<image xlink:href="../../images/primaryKeys.png" width="11px" height="12px" preserveAspectRatio="xMinYMin meet" x="15" y="-193"/>
<text text-anchor="start" x="30" y="-184.2" font-family="Helvetica,sans-Serif" font-size="11.00">hr_payroll_id</text>
<polygon fill="#ffffff" stroke="transparent" points="10,-154 10,-176 151,-176 151,-154 10,-154"/>
<polygon fill="none" stroke="black" points="10,-154 10,-176 151,-176 151,-154 10,-154"/>
<text text-anchor="start" x="30" y="-162.2" font-family="Helvetica,sans-Serif" font-size="11.00">hr_payroll_uu</text>
<polygon fill="none" stroke="black" points="10,-136 10,-154 151,-154 151,-136 10,-136"/>
<text text-anchor="start" x="13" y="-142.2" font-family="Helvetica,sans-Serif" font-size="11.00">...</text>
<polygon fill="#ffffff" stroke="transparent" points="10,-118 10,-136 61,-136 61,-118 10,-118"/>
<polygon fill="none" stroke="black" points="10,-118 10,-136 61,-136 61,-118 10,-118"/>
<text text-anchor="start" x="13" y="-124.2" font-family="Helvetica,sans-Serif" font-size="11.00">&lt; 3</text>
<polygon fill="#ffffff" stroke="transparent" points="61,-118 61,-136 114,-136 114,-118 61,-118"/>
<polygon fill="none" stroke="black" points="61,-118 61,-136 114,-136 114,-118 61,-118"/>
<text text-anchor="start" x="78" y="-124.2" font-family="Helvetica,sans-Serif" font-size="11.00">0 rows</text>
<polygon fill="#ffffff" stroke="transparent" points="114,-118 114,-136 151,-136 151,-118 114,-118"/>
<polygon fill="none" stroke="black" points="114,-118 114,-136 151,-136 151,-118 114,-118"/>
<text text-anchor="start" x="132" y="-124.2" font-family="Helvetica,sans-Serif" font-size="11.00">8 &gt;</text>
</a>
</g>
</g>
<!-- hr_employee&#45;&gt;hr_payroll -->
<g id="edge2" class="edge">
<title>hr_employee:w&#45;&gt;hr_payroll:e</title>
<path fill="none" stroke="black" d="M185.71,-336.1C143.42,-315.09 217.03,-187 152,-187"/>
<polygon fill="black" stroke="black" points="192.16,-337.41 199.28,-342.53 196.08,-338.2 200,-339 200,-339 200,-339 196.08,-338.2 200.72,-335.47 192.16,-337.41 192.16,-337.41"/>
<ellipse fill="none" stroke="black" cx="189.02" cy="-336.77" rx="3.2" ry="3.2"/>
</g>
<!-- hr_list -->
<g id="node4" class="node">
<title>hr_list</title>
<g id="a_node4"><a xlink:href="../../tables/hr_list.html" xlink:title="hr_list" target="_top">
<polygon fill="#ffffff" stroke="transparent" points="390,-37 390,-477 617,-477 617,-37 390,-37"/>
<polygon fill="#f5f5f5" stroke="transparent" points="392.5,-453 392.5,-475 615.5,-475 615.5,-453 392.5,-453"/>
<polygon fill="none" stroke="black" points="392.5,-453 392.5,-475 615.5,-475 615.5,-453 392.5,-453"/>
<text text-anchor="start" x="397.5" y="-462.2" font-family="Helvetica,sans-Serif" font-weight="bold" font-size="11.00">hr_list</text>
<text text-anchor="start" x="580.5" y="-461.2" font-family="Helvetica,sans-Serif" font-size="11.00">[table]</text>
<polygon fill="none" stroke="black" points="392.5,-431 392.5,-453 532.5,-453 532.5,-431 392.5,-431"/>
<text text-anchor="start" x="412.5" y="-439.2" font-family="Helvetica,sans-Serif" font-size="11.00">name</text>
<polygon fill="none" stroke="black" points="532.5,-431 532.5,-453 615.5,-453 615.5,-431 532.5,-431"/>
<text text-anchor="start" x="535.5" y="-439.2" font-family="Helvetica,sans-Serif" font-size="11.00">varchar[60]</text>
<polygon fill="none" stroke="black" points="392.5,-409 392.5,-431 532.5,-431 532.5,-409 392.5,-409"/>
<text text-anchor="start" x="412.5" y="-417.2" font-family="Helvetica,sans-Serif" font-size="11.00">ad_org_id</text>
<polygon fill="none" stroke="black" points="532.5,-409 532.5,-431 615.5,-431 615.5,-409 532.5,-409"/>
<text text-anchor="start" x="535.5" y="-417.2" font-family="Helvetica,sans-Serif" font-size="11.00">numeric[10]</text>
<polygon fill="none" stroke="black" points="392.5,-387 392.5,-409 532.5,-409 532.5,-387 392.5,-387"/>
<text text-anchor="start" x="412.5" y="-395.2" font-family="Helvetica,sans-Serif" font-size="11.00">created</text>
<polygon fill="none" stroke="black" points="532.5,-387 532.5,-409 615.5,-409 615.5,-387 532.5,-387"/>
<text text-anchor="start" x="535.5" y="-395.2" font-family="Helvetica,sans-Serif" font-size="11.00">timestamp[29,6]</text>
<polygon fill="none" stroke="black" points="392.5,-365 392.5,-387 532.5,-387 532.5,-365 392.5,-365"/>
<text text-anchor="start" x="412.5" y="-373.2" font-family="Helvetica,sans-Serif" font-size="11.00">createdby</text>
<polygon fill="none" stroke="black" points="532.5,-365 532.5,-387 615.5,-387 615.5,-365 532.5,-365"/>
<text text-anchor="start" x="535.5" y="-373.2" font-family="Helvetica,sans-Serif" font-size="11.00">numeric[10]</text>
<polygon fill="none" stroke="black" points="392.5,-343 392.5,-365 532.5,-365 532.5,-343 392.5,-343"/>
<text text-anchor="start" x="412.5" y="-351.2" font-family="Helvetica,sans-Serif" font-size="11.00">description</text>
<polygon fill="none" stroke="black" points="532.5,-343 532.5,-365 615.5,-365 615.5,-343 532.5,-343"/>
<text text-anchor="start" x="535.5" y="-351.2" font-family="Helvetica,sans-Serif" font-size="11.00">varchar[255]</text>
<polygon fill="none" stroke="black" points="392.5,-321 392.5,-343 532.5,-343 532.5,-321 392.5,-321"/>
<image xlink:href="../../images/foreignKeys.png" width="11px" height="12px" preserveAspectRatio="xMinYMin meet" x="397.5" y="-338"/>
<text text-anchor="start" x="412.5" y="-329.2" font-family="Helvetica,sans-Serif" font-size="11.00">hr_department_id</text>
<polygon fill="none" stroke="black" points="532.5,-321 532.5,-343 615.5,-343 615.5,-321 532.5,-321"/>
<text text-anchor="start" x="535.5" y="-329.2" font-family="Helvetica,sans-Serif" font-size="11.00">numeric[10]</text>
<polygon fill="none" stroke="black" points="392.5,-299 392.5,-321 532.5,-321 532.5,-299 392.5,-299"/>
<image xlink:href="../../images/foreignKeys.png" width="11px" height="12px" preserveAspectRatio="xMinYMin meet" x="397.5" y="-316"/>
<text text-anchor="start" x="412.5" y="-307.2" font-family="Helvetica,sans-Serif" font-size="11.00">hr_employee_id</text>
<polygon fill="none" stroke="black" points="532.5,-299 532.5,-321 615.5,-321 615.5,-299 532.5,-299"/>
<text text-anchor="start" x="535.5" y="-307.2" font-family="Helvetica,sans-Serif" font-size="11.00">numeric[10]</text>
<polygon fill="none" stroke="black" points="392.5,-277 392.5,-299 532.5,-299 532.5,-277 392.5,-277"/>
<image xlink:href="../../images/foreignKeys.png" width="11px" height="12px" preserveAspectRatio="xMinYMin meet" x="397.5" y="-294"/>
<text text-anchor="start" x="412.5" y="-285.2" font-family="Helvetica,sans-Serif" font-size="11.00">hr_listtype_id</text>
<polygon fill="none" stroke="black" points="532.5,-277 532.5,-299 615.5,-299 615.5,-277 532.5,-277"/>
<text text-anchor="start" x="535.5" y="-285.2" font-family="Helvetica,sans-Serif" font-size="11.00">numeric[10]</text>
<polygon fill="none" stroke="black" points="392.5,-255 392.5,-277 532.5,-277 532.5,-255 392.5,-255"/>
<image xlink:href="../../images/primaryKeys.png" width="11px" height="12px" preserveAspectRatio="xMinYMin meet" x="397.5" y="-272"/>
<text text-anchor="start" x="412.5" y="-263.2" font-family="Helvetica,sans-Serif" font-size="11.00">hr_list_id</text>
<polygon fill="none" stroke="black" points="532.5,-255 532.5,-277 615.5,-277 615.5,-255 532.5,-255"/>
<text text-anchor="start" x="535.5" y="-263.2" font-family="Helvetica,sans-Serif" font-size="11.00">numeric[10]</text>
<polygon fill="none" stroke="black" points="392.5,-233 392.5,-255 532.5,-255 532.5,-233 392.5,-233"/>
<image xlink:href="../../images/foreignKeys.png" width="11px" height="12px" preserveAspectRatio="xMinYMin meet" x="397.5" y="-250"/>
<text text-anchor="start" x="412.5" y="-241.2" font-family="Helvetica,sans-Serif" font-size="11.00">hr_payroll_id</text>
<polygon fill="none" stroke="black" points="532.5,-233 532.5,-255 615.5,-255 615.5,-233 532.5,-233"/>
<text text-anchor="start" x="535.5" y="-241.2" font-family="Helvetica,sans-Serif" font-size="11.00">numeric[10]</text>
<polygon fill="none" stroke="black" points="392.5,-211 392.5,-233 532.5,-233 532.5,-211 392.5,-211"/>
<text text-anchor="start" x="412.5" y="-219.2" font-family="Helvetica,sans-Serif" font-size="11.00">isactive</text>
<polygon fill="none" stroke="black" points="532.5,-211 532.5,-233 615.5,-233 615.5,-211 532.5,-211"/>
<text text-anchor="start" x="535.5" y="-219.2" font-family="Helvetica,sans-Serif" font-size="11.00">bpchar[1]</text>
<polygon fill="none" stroke="black" points="392.5,-189 392.5,-211 532.5,-211 532.5,-189 392.5,-189"/>
<text text-anchor="start" x="412.5" y="-197.2" font-family="Helvetica,sans-Serif" font-size="11.00">isemployee</text>
<polygon fill="none" stroke="black" points="532.5,-189 532.5,-211 615.5,-211 615.5,-189 532.5,-189"/>
<text text-anchor="start" x="535.5" y="-197.2" font-family="Helvetica,sans-Serif" font-size="11.00">bpchar[1]</text>
<polygon fill="none" stroke="black" points="392.5,-167 392.5,-189 532.5,-189 532.5,-167 392.5,-167"/>
<text text-anchor="start" x="412.5" y="-175.2" font-family="Helvetica,sans-Serif" font-size="11.00">updated</text>
<polygon fill="none" stroke="black" points="532.5,-167 532.5,-189 615.5,-189 615.5,-167 532.5,-167"/>
<text text-anchor="start" x="535.5" y="-175.2" font-family="Helvetica,sans-Serif" font-size="11.00">timestamp[29,6]</text>
<polygon fill="none" stroke="black" points="392.5,-145 392.5,-167 532.5,-167 532.5,-145 392.5,-145"/>
<text text-anchor="start" x="412.5" y="-153.2" font-family="Helvetica,sans-Serif" font-size="11.00">updatedby</text>
<polygon fill="none" stroke="black" points="532.5,-145 532.5,-167 615.5,-167 615.5,-145 532.5,-145"/>
<text text-anchor="start" x="535.5" y="-153.2" font-family="Helvetica,sans-Serif" font-size="11.00">numeric[10]</text>
<polygon fill="none" stroke="black" points="392.5,-123 392.5,-145 532.5,-145 532.5,-123 392.5,-123"/>
<text text-anchor="start" x="412.5" y="-131.2" font-family="Helvetica,sans-Serif" font-size="11.00">validfrom</text>
<polygon fill="none" stroke="black" points="532.5,-123 532.5,-145 615.5,-145 615.5,-123 532.5,-123"/>
<text text-anchor="start" x="535.5" y="-131.2" font-family="Helvetica,sans-Serif" font-size="11.00">timestamp[29,6]</text>
<polygon fill="none" stroke="black" points="392.5,-101 392.5,-123 532.5,-123 532.5,-101 392.5,-101"/>
<text text-anchor="start" x="412.5" y="-109.2" font-family="Helvetica,sans-Serif" font-size="11.00">ad_client_id</text>
<polygon fill="none" stroke="black" points="532.5,-101 532.5,-123 615.5,-123 615.5,-101 532.5,-101"/>
<text text-anchor="start" x="535.5" y="-109.2" font-family="Helvetica,sans-Serif" font-size="11.00">numeric[10]</text>
<polygon fill="none" stroke="black" points="392.5,-79 392.5,-101 532.5,-101 532.5,-79 392.5,-79"/>
<text text-anchor="start" x="412.5" y="-87.2" font-family="Helvetica,sans-Serif" font-size="11.00">value</text>
<polygon fill="none" stroke="black" points="532.5,-79 532.5,-101 615.5,-101 615.5,-79 532.5,-79"/>
<text text-anchor="start" x="535.5" y="-87.2" font-family="Helvetica,sans-Serif" font-size="11.00">varchar[40]</text>
<polygon fill="#ffffff" stroke="transparent" points="392.5,-57 392.5,-79 532.5,-79 532.5,-57 392.5,-57"/>
<polygon fill="none" stroke="black" points="392.5,-57 392.5,-79 532.5,-79 532.5,-57 392.5,-57"/>
<text text-anchor="start" x="412.5" y="-65.2" font-family="Helvetica,sans-Serif" font-size="11.00">hr_list_uu</text>
<polygon fill="none" stroke="black" points="532.5,-57 532.5,-79 615.5,-79 615.5,-57 532.5,-57"/>
<text text-anchor="start" x="535.5" y="-65.2" font-family="Helvetica,sans-Serif" font-size="11.00">varchar[36]</text>
<polygon fill="#ffffff" stroke="transparent" points="392.5,-39 392.5,-57 453.5,-57 453.5,-39 392.5,-39"/>
<polygon fill="none" stroke="black" points="392.5,-39 392.5,-57 453.5,-57 453.5,-39 392.5,-39"/>
<text text-anchor="start" x="395.5" y="-45.2" font-family="Helvetica,sans-Serif" font-size="11.00">&lt; 4</text>
<polygon fill="#ffffff" stroke="transparent" points="453.5,-39 453.5,-57 532.5,-57 532.5,-39 453.5,-39"/>
<polygon fill="none" stroke="black" points="453.5,-39 453.5,-57 532.5,-57 532.5,-39 453.5,-39"/>
<text text-anchor="start" x="496.5" y="-45.2" font-family="Helvetica,sans-Serif" font-size="11.00">0 rows</text>
<polygon fill="#ffffff" stroke="transparent" points="532.5,-39 532.5,-57 615.5,-57 615.5,-39 532.5,-39"/>
<polygon fill="none" stroke="black" points="532.5,-39 532.5,-57 615.5,-57 615.5,-39 532.5,-39"/>
<text text-anchor="start" x="596.5" y="-45.2" font-family="Helvetica,sans-Serif" font-size="11.00">2 &gt;</text>
<polygon fill="none" stroke="black" stroke-width="2" points="391,-38 391,-476 616,-476 616,-38 391,-38"/>
</a>
</g>
</g>
<!-- hr_list&#45;&gt;hr_employee -->
<g id="edge4" class="edge">
<title>hr_list:w&#45;&gt;hr_employee:e</title>
<path fill="none" stroke="black" d="M377.59,-314.79C359.67,-331.03 375.08,-383 342,-383"/>
<polygon fill="black" stroke="black" points="383.94,-312.61 392.67,-313.4 387.72,-311.3 391.5,-310 391.5,-310 391.5,-310 387.72,-311.3 390.33,-306.6 383.94,-312.61 383.94,-312.61"/>
<ellipse fill="none" stroke="black" cx="380.91" cy="-313.65" rx="3.2" ry="3.2"/>
</g>
<!-- hr_list&#45;&gt;hr_department -->
<g id="edge3" class="edge">
<title>hr_list:w&#45;&gt;hr_department:e</title>
<path fill="none" stroke="black" d="M377.01,-334.03C330.67,-349.67 403.05,-451.37 349,-493 294.07,-535.31 257.39,-518.71 193,-493 170.23,-483.91 177.52,-455 153,-455"/>
<polygon fill="black" stroke="black" points="383.58,-333.11 392,-335.57 387.54,-332.56 391.5,-332 391.5,-332 391.5,-332 387.54,-332.56 391,-328.43 383.58,-333.11 383.58,-333.11"/>
<ellipse fill="none" stroke="black" cx="380.41" cy="-333.56" rx="3.2" ry="3.2"/>
</g>
<!-- hr_list&#45;&gt;hr_payroll -->
<g id="edge6" class="edge">
<title>hr_list:w&#45;&gt;hr_payroll:e</title>
<path fill="none" stroke="black" d="M377.3,-240.95C350.74,-226.18 386.64,-161.64 349,-136 291.7,-96.97 255.53,-106.04 193,-136 166.77,-148.57 181.08,-187 152,-187"/>
<polygon fill="black" stroke="black" points="383.68,-242.32 390.74,-247.52 387.59,-243.16 391.5,-244 391.5,-244 391.5,-244 387.59,-243.16 392.26,-240.48 383.68,-242.32 383.68,-242.32"/>
<ellipse fill="none" stroke="black" cx="380.55" cy="-241.65" rx="3.2" ry="3.2"/>
</g>
<!-- hr_listtype -->
<g id="node5" class="node">
<title>hr_listtype</title>
<g id="a_node5"><a xlink:href="../../tables/hr_listtype.html" xlink:title="hr_listtype" target="_top">
<polygon fill="#ffffff" stroke="transparent" points="213.5,-147 213.5,-249 328.5,-249 328.5,-147 213.5,-147"/>
<polygon fill="#f5f5f5" stroke="transparent" points="214,-227 214,-249 329,-249 329,-227 214,-227"/>
<polygon fill="none" stroke="black" points="214,-227 214,-249 329,-249 329,-227 214,-227"/>
<text text-anchor="start" x="219" y="-236.2" font-family="Helvetica,sans-Serif" font-weight="bold" font-size="11.00">hr_listtype</text>
<text text-anchor="start" x="294" y="-235.2" font-family="Helvetica,sans-Serif" font-size="11.00">[table]</text>
<polygon fill="none" stroke="black" points="214,-205 214,-227 329,-227 329,-205 214,-205"/>
<image xlink:href="../../images/primaryKeys.png" width="11px" height="12px" preserveAspectRatio="xMinYMin meet" x="219" y="-222"/>
<text text-anchor="start" x="234" y="-213.2" font-family="Helvetica,sans-Serif" font-size="11.00">hr_listtype_id</text>
<polygon fill="#ffffff" stroke="transparent" points="214,-183 214,-205 329,-205 329,-183 214,-183"/>
<polygon fill="none" stroke="black" points="214,-183 214,-205 329,-205 329,-183 214,-183"/>
<text text-anchor="start" x="234" y="-191.2" font-family="Helvetica,sans-Serif" font-size="11.00">hr_listtype_uu</text>
<polygon fill="none" stroke="black" points="214,-165 214,-183 329,-183 329,-165 214,-165"/>
<text text-anchor="start" x="217" y="-171.2" font-family="Helvetica,sans-Serif" font-size="11.00">...</text>
<polygon fill="#ffffff" stroke="transparent" points="214,-147 214,-165 247,-165 247,-147 214,-147"/>
<polygon fill="none" stroke="black" points="214,-147 214,-165 247,-165 247,-147 214,-147"/>
<text text-anchor="start" x="217" y="-153.2" font-family="Helvetica,sans-Serif" font-size="11.00"> &#160;</text>
<polygon fill="#ffffff" stroke="transparent" points="247,-147 247,-165 296,-165 296,-147 247,-147"/>
<polygon fill="none" stroke="black" points="247,-147 247,-165 296,-165 296,-147 247,-147"/>
<text text-anchor="start" x="260" y="-153.2" font-family="Helvetica,sans-Serif" font-size="11.00">0 rows</text>
<polygon fill="#ffffff" stroke="transparent" points="296,-147 296,-165 329,-165 329,-147 296,-147"/>
<polygon fill="none" stroke="black" points="296,-147 296,-165 329,-165 329,-147 296,-147"/>
<text text-anchor="start" x="310" y="-153.2" font-family="Helvetica,sans-Serif" font-size="11.00">1 &gt;</text>
</a>
</g>
</g>
<!-- hr_list&#45;&gt;hr_listtype -->
<g id="edge5" class="edge">
<title>hr_list:w&#45;&gt;hr_listtype:e</title>
<path fill="none" stroke="black" d="M377.54,-284.33C354.4,-269.66 366.33,-216 330,-216"/>
<polygon fill="black" stroke="black" points="383.76,-285.97 390.58,-291.48 387.63,-286.98 391.5,-288 391.5,-288 391.5,-288 387.63,-286.98 392.42,-284.52 383.76,-285.97 383.76,-285.97"/>
<ellipse fill="none" stroke="black" cx="380.67" cy="-285.15" rx="3.2" ry="3.2"/>
</g>
<!-- hr_listversion -->
<g id="node6" class="node">
<title>hr_listversion</title>
<g id="a_node6"><a xlink:href="../../tables/hr_listversion.html" xlink:title="hr_listversion" target="_top">
<polygon fill="#ffffff" stroke="transparent" points="666,-175 666,-321 801,-321 801,-175 666,-175"/>
<polygon fill="#f5f5f5" stroke="transparent" points="666.5,-299 666.5,-321 801.5,-321 801.5,-299 666.5,-299"/>
<polygon fill="none" stroke="black" points="666.5,-299 666.5,-321 801.5,-321 801.5,-299 666.5,-299"/>
<text text-anchor="start" x="671.5" y="-308.2" font-family="Helvetica,sans-Serif" font-weight="bold" font-size="11.00">hr_listversion</text>
<text text-anchor="start" x="766.5" y="-307.2" font-family="Helvetica,sans-Serif" font-size="11.00">[table]</text>
<polygon fill="none" stroke="black" points="666.5,-277 666.5,-299 801.5,-299 801.5,-277 666.5,-277"/>
<image xlink:href="../../images/foreignKeys.png" width="11px" height="12px" preserveAspectRatio="xMinYMin meet" x="671.5" y="-294"/>
<text text-anchor="start" x="686.5" y="-285.2" font-family="Helvetica,sans-Serif" font-size="11.00">hr_listbase_id</text>
<polygon fill="none" stroke="black" points="666.5,-255 666.5,-277 801.5,-277 801.5,-255 666.5,-255"/>
<image xlink:href="../../images/primaryKeys.png" width="11px" height="12px" preserveAspectRatio="xMinYMin meet" x="671.5" y="-272"/>
<text text-anchor="start" x="686.5" y="-263.2" font-family="Helvetica,sans-Serif" font-size="11.00">hr_listversion_id</text>
<polygon fill="none" stroke="black" points="666.5,-233 666.5,-255 801.5,-255 801.5,-233 666.5,-233"/>
<image xlink:href="../../images/foreignKeys.png" width="11px" height="12px" preserveAspectRatio="xMinYMin meet" x="671.5" y="-250"/>
<text text-anchor="start" x="686.5" y="-241.2" font-family="Helvetica,sans-Serif" font-size="11.00">hr_list_id</text>
<polygon fill="#ffffff" stroke="transparent" points="666.5,-211 666.5,-233 801.5,-233 801.5,-211 666.5,-211"/>
<polygon fill="none" stroke="black" points="666.5,-211 666.5,-233 801.5,-233 801.5,-211 666.5,-211"/>
<text text-anchor="start" x="686.5" y="-219.2" font-family="Helvetica,sans-Serif" font-size="11.00">hr_listversion_uu</text>
<polygon fill="none" stroke="black" points="666.5,-193 666.5,-211 801.5,-211 801.5,-193 666.5,-193"/>
<text text-anchor="start" x="669.5" y="-199.2" font-family="Helvetica,sans-Serif" font-size="11.00">...</text>
<polygon fill="#ffffff" stroke="transparent" points="666.5,-175 666.5,-193 714.5,-193 714.5,-175 666.5,-175"/>
<polygon fill="none" stroke="black" points="666.5,-175 666.5,-193 714.5,-193 714.5,-175 666.5,-175"/>
<text text-anchor="start" x="669.5" y="-181.2" font-family="Helvetica,sans-Serif" font-size="11.00">&lt; 2</text>
<polygon fill="#ffffff" stroke="transparent" points="714.5,-175 714.5,-193 766.5,-193 766.5,-175 714.5,-175"/>
<polygon fill="none" stroke="black" points="714.5,-175 714.5,-193 766.5,-193 766.5,-175 714.5,-175"/>
<text text-anchor="start" x="730.5" y="-181.2" font-family="Helvetica,sans-Serif" font-size="11.00">0 rows</text>
<polygon fill="#ffffff" stroke="transparent" points="766.5,-175 766.5,-193 801.5,-193 801.5,-175 766.5,-175"/>
<polygon fill="none" stroke="black" points="766.5,-175 766.5,-193 801.5,-193 801.5,-175 766.5,-175"/>
<text text-anchor="start" x="782.5" y="-181.2" font-family="Helvetica,sans-Serif" font-size="11.00">1 &gt;</text>
</a>
</g>
</g>
<!-- hr_listversion&#45;&gt;hr_list -->
<g id="edge7" class="edge">
<title>hr_listversion:w&#45;&gt;hr_list:e</title>
<path fill="none" stroke="black" d="M651.13,-247.44C639.59,-253.62 634.4,-266 616.5,-266"/>
<polygon fill="black" stroke="black" points="657.72,-245.86 666.34,-247.5 661.61,-244.93 665.5,-244 665.5,-244 665.5,-244 661.61,-244.93 664.66,-240.5 657.72,-245.86 657.72,-245.86"/>
<ellipse fill="none" stroke="black" cx="654.61" cy="-246.61" rx="3.2" ry="3.2"/>
</g>
<!-- hr_listversion&#45;&gt;hr_list -->
<g id="edge8" class="edge">
<title>hr_listversion:w&#45;&gt;hr_list:e</title>
<path fill="none" stroke="black" d="M651.13,-284.56C639.59,-278.38 634.4,-266 616.5,-266"/>
<polygon fill="black" stroke="black" points="657.72,-286.14 664.66,-291.5 661.61,-287.07 665.5,-288 665.5,-288 665.5,-288 661.61,-287.07 666.34,-284.5 657.72,-286.14 657.72,-286.14"/>
<ellipse fill="none" stroke="black" cx="654.61" cy="-285.39" rx="3.2" ry="3.2"/>
</g>
</g>
</svg>
