<?xml version="1.0" encoding="UTF-8" standalone="no"?>
<!DOCTYPE svg PUBLIC "-//W3C//DTD SVG 1.1//EN"
 "http://www.w3.org/Graphics/SVG/1.1/DTD/svg11.dtd">
<!-- Generated by graphviz version 2.43.0 (0)
 -->
<!-- Title: oneDegreeRelationshipsDiagram Pages: 1 -->
<svg width="565pt" height="589pt"
 viewBox="0.00 0.00 565.00 589.00" xmlns="http://www.w3.org/2000/svg" xmlns:xlink="http://www.w3.org/1999/xlink">
<g id="graph0" class="graph" transform="scale(1 1) rotate(0) translate(4 585)">
<title>oneDegreeRelationshipsDiagram</title>
<polygon fill="#ffffff" stroke="transparent" points="-4,4 -4,-585 561,-585 561,4 -4,4"/>
<text text-anchor="middle" x="71.5" y="-7.2" font-family="Helvetica,sans-Serif" font-size="11.00">Generated by SchemaSpy</text>
<!-- hr_period -->
<g id="node1" class="node">
<title>hr_period</title>
<g id="a_node1"><a xlink:href="../../tables/hr_period.html" xlink:title="hr_period" target="_top">
<polygon fill="#ffffff" stroke="transparent" points="441,-344 441,-534 549,-534 549,-344 441,-344"/>
<polygon fill="#f5f5f5" stroke="transparent" points="441,-512 441,-534 549,-534 549,-512 441,-512"/>
<polygon fill="none" stroke="black" points="441,-512 441,-534 549,-534 549,-512 441,-512"/>
<text text-anchor="start" x="446" y="-521.2" font-family="Helvetica,sans-Serif" font-weight="bold" font-size="11.00">hr_period</text>
<text text-anchor="start" x="514" y="-520.2" font-family="Helvetica,sans-Serif" font-size="11.00">[table]</text>
<polygon fill="none" stroke="black" points="441,-490 441,-512 549,-512 549,-490 441,-490"/>
<image xlink:href="../../images/foreignKeys.png" width="11px" height="12px" preserveAspectRatio="xMinYMin meet" x="446" y="-507"/>
<text text-anchor="start" x="461" y="-498.2" font-family="Helvetica,sans-Serif" font-size="11.00">c_period_id</text>
<polygon fill="none" stroke="black" points="441,-468 441,-490 549,-490 549,-468 441,-468"/>
<image xlink:href="../../images/foreignKeys.png" width="11px" height="12px" preserveAspectRatio="xMinYMin meet" x="446" y="-485"/>
<text text-anchor="start" x="461" y="-476.2" font-family="Helvetica,sans-Serif" font-size="11.00">c_year_id</text>
<polygon fill="none" stroke="black" points="441,-446 441,-468 549,-468 549,-446 441,-446"/>
<image xlink:href="../../images/foreignKeys.png" width="11px" height="12px" preserveAspectRatio="xMinYMin meet" x="446" y="-463"/>
<text text-anchor="start" x="461" y="-454.2" font-family="Helvetica,sans-Serif" font-size="11.00">hr_payroll_id</text>
<polygon fill="none" stroke="black" points="441,-424 441,-446 549,-446 549,-424 441,-424"/>
<image xlink:href="../../images/primaryKeys.png" width="11px" height="12px" preserveAspectRatio="xMinYMin meet" x="446" y="-441"/>
<text text-anchor="start" x="461" y="-432.2" font-family="Helvetica,sans-Serif" font-size="11.00">hr_period_id</text>
<polygon fill="none" stroke="black" points="441,-402 441,-424 549,-424 549,-402 441,-402"/>
<image xlink:href="../../images/foreignKeys.png" width="11px" height="12px" preserveAspectRatio="xMinYMin meet" x="446" y="-419"/>
<text text-anchor="start" x="461" y="-410.2" font-family="Helvetica,sans-Serif" font-size="11.00">hr_year_id</text>
<polygon fill="#ffffff" stroke="transparent" points="441,-380 441,-402 549,-402 549,-380 441,-380"/>
<polygon fill="none" stroke="black" points="441,-380 441,-402 549,-402 549,-380 441,-380"/>
<text text-anchor="start" x="461" y="-388.2" font-family="Helvetica,sans-Serif" font-size="11.00">hr_period_uu</text>
<polygon fill="none" stroke="black" points="441,-362 441,-380 549,-380 549,-362 441,-362"/>
<text text-anchor="start" x="444" y="-368.2" font-family="Helvetica,sans-Serif" font-size="11.00">...</text>
<polygon fill="#ffffff" stroke="transparent" points="441,-344 441,-362 475,-362 475,-344 441,-344"/>
<polygon fill="none" stroke="black" points="441,-344 441,-362 475,-362 475,-344 441,-344"/>
<text text-anchor="start" x="444" y="-350.2" font-family="Helvetica,sans-Serif" font-size="11.00">&lt; 4</text>
<polygon fill="#ffffff" stroke="transparent" points="475,-344 475,-362 520,-362 520,-344 475,-344"/>
<polygon fill="none" stroke="black" points="475,-344 475,-362 520,-362 520,-344 475,-344"/>
<text text-anchor="start" x="484" y="-350.2" font-family="Helvetica,sans-Serif" font-size="11.00">0 rows</text>
<polygon fill="#ffffff" stroke="transparent" points="520,-344 520,-362 549,-362 549,-344 520,-344"/>
<polygon fill="none" stroke="black" points="520,-344 520,-362 549,-362 549,-344 520,-344"/>
<text text-anchor="start" x="530" y="-350.2" font-family="Helvetica,sans-Serif" font-size="11.00">1 &gt;</text>
</a>
</g>
</g>
<!-- c_year -->
<g id="node2" class="node">
<title>c_year</title>
<g id="a_node2"><a xlink:href="../../tables/c_year.html" xlink:title="c_year" target="_top">
<polygon fill="#ffffff" stroke="transparent" points="23,-387 23,-577 134,-577 134,-387 23,-387"/>
<polygon fill="#f5f5f5" stroke="transparent" points="23.5,-555 23.5,-577 134.5,-577 134.5,-555 23.5,-555"/>
<polygon fill="none" stroke="black" points="23.5,-555 23.5,-577 134.5,-577 134.5,-555 23.5,-555"/>
<text text-anchor="start" x="28.5" y="-564.2" font-family="Helvetica,sans-Serif" font-weight="bold" font-size="11.00">c_year</text>
<text text-anchor="start" x="99.5" y="-563.2" font-family="Helvetica,sans-Serif" font-size="11.00">[table]</text>
<polygon fill="none" stroke="black" points="23.5,-533 23.5,-555 134.5,-555 134.5,-533 23.5,-533"/>
<image xlink:href="../../images/primaryKeys.png" width="11px" height="12px" preserveAspectRatio="xMinYMin meet" x="28.5" y="-550"/>
<text text-anchor="start" x="43.5" y="-541.2" font-family="Helvetica,sans-Serif" font-size="11.00">c_year_id</text>
<polygon fill="none" stroke="black" points="23.5,-511 23.5,-533 134.5,-533 134.5,-511 23.5,-511"/>
<image xlink:href="../../images/foreignKeys.png" width="11px" height="12px" preserveAspectRatio="xMinYMin meet" x="28.5" y="-528"/>
<text text-anchor="start" x="43.5" y="-519.2" font-family="Helvetica,sans-Serif" font-size="11.00">ad_client_id</text>
<polygon fill="none" stroke="black" points="23.5,-489 23.5,-511 134.5,-511 134.5,-489 23.5,-489"/>
<image xlink:href="../../images/foreignKeys.png" width="11px" height="12px" preserveAspectRatio="xMinYMin meet" x="28.5" y="-506"/>
<text text-anchor="start" x="43.5" y="-497.2" font-family="Helvetica,sans-Serif" font-size="11.00">ad_org_id</text>
<polygon fill="#ffffff" stroke="transparent" points="23.5,-467 23.5,-489 134.5,-489 134.5,-467 23.5,-467"/>
<polygon fill="none" stroke="black" points="23.5,-467 23.5,-489 134.5,-489 134.5,-467 23.5,-467"/>
<text text-anchor="start" x="43.5" y="-475.2" font-family="Helvetica,sans-Serif" font-size="11.00">fiscalyear</text>
<polygon fill="#ffffff" stroke="transparent" points="23.5,-445 23.5,-467 134.5,-467 134.5,-445 23.5,-445"/>
<polygon fill="none" stroke="black" points="23.5,-445 23.5,-467 134.5,-467 134.5,-445 23.5,-445"/>
<image xlink:href="../../images/foreignKeys.png" width="11px" height="12px" preserveAspectRatio="xMinYMin meet" x="28.5" y="-462"/>
<text text-anchor="start" x="43.5" y="-453.2" font-family="Helvetica,sans-Serif" font-size="11.00">c_calendar_id</text>
<polygon fill="#ffffff" stroke="transparent" points="23.5,-423 23.5,-445 134.5,-445 134.5,-423 23.5,-423"/>
<polygon fill="none" stroke="black" points="23.5,-423 23.5,-445 134.5,-445 134.5,-423 23.5,-423"/>
<text text-anchor="start" x="43.5" y="-431.2" font-family="Helvetica,sans-Serif" font-size="11.00">c_year_uu</text>
<polygon fill="none" stroke="black" points="23.5,-405 23.5,-423 134.5,-423 134.5,-405 23.5,-405"/>
<text text-anchor="start" x="26.5" y="-411.2" font-family="Helvetica,sans-Serif" font-size="11.00">...</text>
<polygon fill="#ffffff" stroke="transparent" points="23.5,-387 23.5,-405 56.5,-405 56.5,-387 23.5,-387"/>
<polygon fill="none" stroke="black" points="23.5,-387 23.5,-405 56.5,-405 56.5,-387 23.5,-387"/>
<text text-anchor="start" x="26.5" y="-393.2" font-family="Helvetica,sans-Serif" font-size="11.00">&lt; 3</text>
<polygon fill="#ffffff" stroke="transparent" points="56.5,-387 56.5,-405 106.5,-405 106.5,-387 56.5,-387"/>
<polygon fill="none" stroke="black" points="56.5,-387 56.5,-405 106.5,-405 106.5,-387 56.5,-387"/>
<text text-anchor="start" x="64.5" y="-393.2" font-family="Helvetica,sans-Serif" font-size="11.00">16 rows</text>
<polygon fill="#ffffff" stroke="transparent" points="106.5,-387 106.5,-405 134.5,-405 134.5,-387 106.5,-387"/>
<polygon fill="none" stroke="black" points="106.5,-387 106.5,-405 134.5,-405 134.5,-387 106.5,-387"/>
<text text-anchor="start" x="115.5" y="-393.2" font-family="Helvetica,sans-Serif" font-size="11.00">5 &gt;</text>
</a>
</g>
</g>
<!-- hr_period&#45;&gt;c_year -->
<g id="edge1" class="edge">
<title>hr_period:w&#45;&gt;c_year:e</title>
<path fill="none" stroke="black" d="M425.42,-479.25C299.47,-483.61 268.88,-544 135.5,-544"/>
<polygon fill="black" stroke="black" points="432,-479.14 440.06,-482.6 436,-479.07 440,-479 440,-479 440,-479 436,-479.07 439.94,-475.4 432,-479.14 432,-479.14"/>
<ellipse fill="none" stroke="black" cx="428.8" cy="-479.19" rx="3.2" ry="3.2"/>
</g>
<!-- hr_payroll -->
<g id="node3" class="node">
<title>hr_payroll</title>
<g id="a_node3"><a xlink:href="../../tables/hr_payroll.html" xlink:title="hr_payroll" target="_top">
<polygon fill="#ffffff" stroke="transparent" points="8,-198 8,-366 149,-366 149,-198 8,-198"/>
<polygon fill="#f5f5f5" stroke="transparent" points="8.5,-344 8.5,-366 149.5,-366 149.5,-344 8.5,-344"/>
<polygon fill="none" stroke="black" points="8.5,-344 8.5,-366 149.5,-366 149.5,-344 8.5,-344"/>
<text text-anchor="start" x="13.5" y="-353.2" font-family="Helvetica,sans-Serif" font-weight="bold" font-size="11.00">hr_payroll</text>
<text text-anchor="start" x="114.5" y="-352.2" font-family="Helvetica,sans-Serif" font-size="11.00">[table]</text>
<polygon fill="none" stroke="black" points="8.5,-322 8.5,-344 149.5,-344 149.5,-322 8.5,-322"/>
<image xlink:href="../../images/foreignKeys.png" width="11px" height="12px" preserveAspectRatio="xMinYMin meet" x="13.5" y="-339"/>
<text text-anchor="start" x="28.5" y="-330.2" font-family="Helvetica,sans-Serif" font-size="11.00">ad_printformat_id</text>
<polygon fill="none" stroke="black" points="8.5,-300 8.5,-322 149.5,-322 149.5,-300 8.5,-300"/>
<image xlink:href="../../images/foreignKeys.png" width="11px" height="12px" preserveAspectRatio="xMinYMin meet" x="13.5" y="-317"/>
<text text-anchor="start" x="28.5" y="-308.2" font-family="Helvetica,sans-Serif" font-size="11.00">c_charge_id</text>
<polygon fill="none" stroke="black" points="8.5,-278 8.5,-300 149.5,-300 149.5,-278 8.5,-278"/>
<image xlink:href="../../images/foreignKeys.png" width="11px" height="12px" preserveAspectRatio="xMinYMin meet" x="13.5" y="-295"/>
<text text-anchor="start" x="28.5" y="-286.2" font-family="Helvetica,sans-Serif" font-size="11.00">hr_contract_id</text>
<polygon fill="none" stroke="black" points="8.5,-256 8.5,-278 149.5,-278 149.5,-256 8.5,-256"/>
<image xlink:href="../../images/primaryKeys.png" width="11px" height="12px" preserveAspectRatio="xMinYMin meet" x="13.5" y="-273"/>
<text text-anchor="start" x="28.5" y="-264.2" font-family="Helvetica,sans-Serif" font-size="11.00">hr_payroll_id</text>
<polygon fill="#ffffff" stroke="transparent" points="8.5,-234 8.5,-256 149.5,-256 149.5,-234 8.5,-234"/>
<polygon fill="none" stroke="black" points="8.5,-234 8.5,-256 149.5,-256 149.5,-234 8.5,-234"/>
<text text-anchor="start" x="28.5" y="-242.2" font-family="Helvetica,sans-Serif" font-size="11.00">hr_payroll_uu</text>
<polygon fill="none" stroke="black" points="8.5,-216 8.5,-234 149.5,-234 149.5,-216 8.5,-216"/>
<text text-anchor="start" x="11.5" y="-222.2" font-family="Helvetica,sans-Serif" font-size="11.00">...</text>
<polygon fill="#ffffff" stroke="transparent" points="8.5,-198 8.5,-216 59.5,-216 59.5,-198 8.5,-198"/>
<polygon fill="none" stroke="black" points="8.5,-198 8.5,-216 59.5,-216 59.5,-198 8.5,-198"/>
<text text-anchor="start" x="11.5" y="-204.2" font-family="Helvetica,sans-Serif" font-size="11.00">&lt; 3</text>
<polygon fill="#ffffff" stroke="transparent" points="59.5,-198 59.5,-216 112.5,-216 112.5,-198 59.5,-198"/>
<polygon fill="none" stroke="black" points="59.5,-198 59.5,-216 112.5,-216 112.5,-198 59.5,-198"/>
<text text-anchor="start" x="76.5" y="-204.2" font-family="Helvetica,sans-Serif" font-size="11.00">0 rows</text>
<polygon fill="#ffffff" stroke="transparent" points="112.5,-198 112.5,-216 149.5,-216 149.5,-198 112.5,-198"/>
<polygon fill="none" stroke="black" points="112.5,-198 112.5,-216 149.5,-216 149.5,-198 112.5,-198"/>
<text text-anchor="start" x="130.5" y="-204.2" font-family="Helvetica,sans-Serif" font-size="11.00">8 &gt;</text>
</a>
</g>
</g>
<!-- hr_period&#45;&gt;hr_payroll -->
<g id="edge2" class="edge">
<title>hr_period:w&#45;&gt;hr_payroll:e</title>
<path fill="none" stroke="black" d="M425.3,-457.38C361.31,-460.22 229.17,-477.1 190,-444 128.44,-391.98 231.1,-267 150.5,-267"/>
<polygon fill="black" stroke="black" points="432,-457.21 440.09,-460.6 436,-457.1 440,-457 440,-457 440,-457 436,-457.1 439.91,-453.4 432,-457.21 432,-457.21"/>
<ellipse fill="none" stroke="black" cx="428.8" cy="-457.29" rx="3.2" ry="3.2"/>
</g>
<!-- hr_year -->
<g id="node4" class="node">
<title>hr_year</title>
<g id="a_node4"><a xlink:href="../../tables/hr_year.html" xlink:title="hr_year" target="_top">
<polygon fill="#ffffff" stroke="transparent" points="198,-37 198,-433 392,-433 392,-37 198,-37"/>
<polygon fill="#f5f5f5" stroke="transparent" points="200,-409 200,-431 390,-431 390,-409 200,-409"/>
<polygon fill="none" stroke="black" points="200,-409 200,-431 390,-431 390,-409 200,-409"/>
<text text-anchor="start" x="205" y="-418.2" font-family="Helvetica,sans-Serif" font-weight="bold" font-size="11.00">hr_year</text>
<text text-anchor="start" x="355" y="-417.2" font-family="Helvetica,sans-Serif" font-size="11.00">[table]</text>
<polygon fill="none" stroke="black" points="200,-387 200,-409 307,-409 307,-387 200,-387"/>
<text text-anchor="start" x="220" y="-395.2" font-family="Helvetica,sans-Serif" font-size="11.00">ad_client_id</text>
<polygon fill="none" stroke="black" points="307,-387 307,-409 390,-409 390,-387 307,-387"/>
<text text-anchor="start" x="310" y="-395.2" font-family="Helvetica,sans-Serif" font-size="11.00">numeric[10]</text>
<polygon fill="none" stroke="black" points="200,-365 200,-387 307,-387 307,-365 200,-365"/>
<text text-anchor="start" x="220" y="-373.2" font-family="Helvetica,sans-Serif" font-size="11.00">ad_org_id</text>
<polygon fill="none" stroke="black" points="307,-365 307,-387 390,-387 390,-365 307,-365"/>
<text text-anchor="start" x="310" y="-373.2" font-family="Helvetica,sans-Serif" font-size="11.00">numeric[10]</text>
<polygon fill="none" stroke="black" points="200,-343 200,-365 307,-365 307,-343 200,-343"/>
<image xlink:href="../../images/foreignKeys.png" width="11px" height="12px" preserveAspectRatio="xMinYMin meet" x="205" y="-360"/>
<text text-anchor="start" x="220" y="-351.2" font-family="Helvetica,sans-Serif" font-size="11.00">c_year_id</text>
<polygon fill="none" stroke="black" points="307,-343 307,-365 390,-365 390,-343 307,-343"/>
<text text-anchor="start" x="310" y="-351.2" font-family="Helvetica,sans-Serif" font-size="11.00">numeric[10]</text>
<polygon fill="none" stroke="black" points="200,-321 200,-343 307,-343 307,-321 200,-321"/>
<text text-anchor="start" x="220" y="-329.2" font-family="Helvetica,sans-Serif" font-size="11.00">created</text>
<polygon fill="none" stroke="black" points="307,-321 307,-343 390,-343 390,-321 307,-321"/>
<text text-anchor="start" x="310" y="-329.2" font-family="Helvetica,sans-Serif" font-size="11.00">timestamp[29,6]</text>
<polygon fill="none" stroke="black" points="200,-299 200,-321 307,-321 307,-299 200,-299"/>
<text text-anchor="start" x="220" y="-307.2" font-family="Helvetica,sans-Serif" font-size="11.00">createdby</text>
<polygon fill="none" stroke="black" points="307,-299 307,-321 390,-321 390,-299 307,-299"/>
<text text-anchor="start" x="310" y="-307.2" font-family="Helvetica,sans-Serif" font-size="11.00">numeric[10]</text>
<polygon fill="none" stroke="black" points="200,-277 200,-299 307,-299 307,-277 200,-277"/>
<image xlink:href="../../images/foreignKeys.png" width="11px" height="12px" preserveAspectRatio="xMinYMin meet" x="205" y="-294"/>
<text text-anchor="start" x="220" y="-285.2" font-family="Helvetica,sans-Serif" font-size="11.00">hr_payroll_id</text>
<polygon fill="none" stroke="black" points="307,-277 307,-299 390,-299 390,-277 307,-277"/>
<text text-anchor="start" x="310" y="-285.2" font-family="Helvetica,sans-Serif" font-size="11.00">numeric[10]</text>
<polygon fill="none" stroke="black" points="200,-255 200,-277 307,-277 307,-255 200,-255"/>
<image xlink:href="../../images/primaryKeys.png" width="11px" height="12px" preserveAspectRatio="xMinYMin meet" x="205" y="-272"/>
<text text-anchor="start" x="220" y="-263.2" font-family="Helvetica,sans-Serif" font-size="11.00">hr_year_id</text>
<polygon fill="none" stroke="black" points="307,-255 307,-277 390,-277 390,-255 307,-255"/>
<text text-anchor="start" x="310" y="-263.2" font-family="Helvetica,sans-Serif" font-size="11.00">numeric[10]</text>
<polygon fill="none" stroke="black" points="200,-233 200,-255 307,-255 307,-233 200,-233"/>
<text text-anchor="start" x="220" y="-241.2" font-family="Helvetica,sans-Serif" font-size="11.00">isactive</text>
<polygon fill="none" stroke="black" points="307,-233 307,-255 390,-255 390,-233 307,-233"/>
<text text-anchor="start" x="310" y="-241.2" font-family="Helvetica,sans-Serif" font-size="11.00">bpchar[1]</text>
<polygon fill="none" stroke="black" points="200,-211 200,-233 307,-233 307,-211 200,-211"/>
<text text-anchor="start" x="220" y="-219.2" font-family="Helvetica,sans-Serif" font-size="11.00">netdays</text>
<polygon fill="none" stroke="black" points="307,-211 307,-233 390,-233 390,-211 307,-211"/>
<text text-anchor="start" x="310" y="-219.2" font-family="Helvetica,sans-Serif" font-size="11.00">numeric[10]</text>
<polygon fill="none" stroke="black" points="200,-189 200,-211 307,-211 307,-189 200,-189"/>
<text text-anchor="start" x="220" y="-197.2" font-family="Helvetica,sans-Serif" font-size="11.00">processed</text>
<polygon fill="none" stroke="black" points="307,-189 307,-211 390,-211 390,-189 307,-189"/>
<text text-anchor="start" x="310" y="-197.2" font-family="Helvetica,sans-Serif" font-size="11.00">bpchar[1]</text>
<polygon fill="none" stroke="black" points="200,-167 200,-189 307,-189 307,-167 200,-167"/>
<text text-anchor="start" x="220" y="-175.2" font-family="Helvetica,sans-Serif" font-size="11.00">processing</text>
<polygon fill="none" stroke="black" points="307,-167 307,-189 390,-189 390,-167 307,-167"/>
<text text-anchor="start" x="310" y="-175.2" font-family="Helvetica,sans-Serif" font-size="11.00">bpchar[1]</text>
<polygon fill="none" stroke="black" points="200,-145 200,-167 307,-167 307,-145 200,-145"/>
<text text-anchor="start" x="220" y="-153.2" font-family="Helvetica,sans-Serif" font-size="11.00">qty</text>
<polygon fill="none" stroke="black" points="307,-145 307,-167 390,-167 390,-145 307,-145"/>
<text text-anchor="start" x="310" y="-153.2" font-family="Helvetica,sans-Serif" font-size="11.00">numeric[10]</text>
<polygon fill="none" stroke="black" points="200,-123 200,-145 307,-145 307,-123 200,-123"/>
<text text-anchor="start" x="220" y="-131.2" font-family="Helvetica,sans-Serif" font-size="11.00">startdate</text>
<polygon fill="none" stroke="black" points="307,-123 307,-145 390,-145 390,-123 307,-123"/>
<text text-anchor="start" x="310" y="-131.2" font-family="Helvetica,sans-Serif" font-size="11.00">timestamp[29,6]</text>
<polygon fill="none" stroke="black" points="200,-101 200,-123 307,-123 307,-101 200,-101"/>
<text text-anchor="start" x="220" y="-109.2" font-family="Helvetica,sans-Serif" font-size="11.00">updated</text>
<polygon fill="none" stroke="black" points="307,-101 307,-123 390,-123 390,-101 307,-101"/>
<text text-anchor="start" x="310" y="-109.2" font-family="Helvetica,sans-Serif" font-size="11.00">timestamp[29,6]</text>
<polygon fill="none" stroke="black" points="200,-79 200,-101 307,-101 307,-79 200,-79"/>
<text text-anchor="start" x="220" y="-87.2" font-family="Helvetica,sans-Serif" font-size="11.00">updatedby</text>
<polygon fill="none" stroke="black" points="307,-79 307,-101 390,-101 390,-79 307,-79"/>
<text text-anchor="start" x="310" y="-87.2" font-family="Helvetica,sans-Serif" font-size="11.00">numeric[10]</text>
<polygon fill="#ffffff" stroke="transparent" points="200,-57 200,-79 307,-79 307,-57 200,-57"/>
<polygon fill="none" stroke="black" points="200,-57 200,-79 307,-79 307,-57 200,-57"/>
<text text-anchor="start" x="220" y="-65.2" font-family="Helvetica,sans-Serif" font-size="11.00">hr_year_uu</text>
<polygon fill="none" stroke="black" points="307,-57 307,-79 390,-79 390,-57 307,-57"/>
<text text-anchor="start" x="310" y="-65.2" font-family="Helvetica,sans-Serif" font-size="11.00">varchar[36]</text>
<polygon fill="#ffffff" stroke="transparent" points="200,-39 200,-57 245,-57 245,-39 200,-39"/>
<polygon fill="none" stroke="black" points="200,-39 200,-57 245,-57 245,-39 200,-39"/>
<text text-anchor="start" x="203" y="-45.2" font-family="Helvetica,sans-Serif" font-size="11.00">&lt; 2</text>
<polygon fill="#ffffff" stroke="transparent" points="245,-39 245,-57 307,-57 307,-39 245,-39"/>
<polygon fill="none" stroke="black" points="245,-39 245,-57 307,-57 307,-39 245,-39"/>
<text text-anchor="start" x="271" y="-45.2" font-family="Helvetica,sans-Serif" font-size="11.00">0 rows</text>
<polygon fill="#ffffff" stroke="transparent" points="307,-39 307,-57 390,-57 390,-39 307,-39"/>
<polygon fill="none" stroke="black" points="307,-39 307,-57 390,-57 390,-39 307,-39"/>
<text text-anchor="start" x="371" y="-45.2" font-family="Helvetica,sans-Serif" font-size="11.00">1 &gt;</text>
<polygon fill="none" stroke="black" stroke-width="2" points="199,-38 199,-432 391,-432 391,-38 199,-38"/>
</a>
</g>
</g>
<!-- hr_period&#45;&gt;hr_year -->
<g id="edge3" class="edge">
<title>hr_period:w&#45;&gt;hr_year:e</title>
<path fill="none" stroke="black" d="M425.8,-410.06C384.93,-389.35 454.08,-266 391,-266"/>
<polygon fill="black" stroke="black" points="432.17,-411.38 439.27,-416.53 436.08,-412.19 440,-413 440,-413 440,-413 436.08,-412.19 440.73,-409.47 432.17,-411.38 432.17,-411.38"/>
<ellipse fill="none" stroke="black" cx="429.03" cy="-410.73" rx="3.2" ry="3.2"/>
</g>
<!-- hr_year&#45;&gt;c_year -->
<g id="edge4" class="edge">
<title>hr_year:w&#45;&gt;c_year:e</title>
<path fill="none" stroke="black" d="M184.59,-356.13C123.49,-377.01 218.97,-544 135.5,-544"/>
<polygon fill="black" stroke="black" points="191.09,-355.17 199.53,-357.56 195.04,-354.59 199,-354 199,-354 199,-354 195.04,-354.59 198.47,-350.44 191.09,-355.17 191.09,-355.17"/>
<ellipse fill="none" stroke="black" cx="187.92" cy="-355.64" rx="3.2" ry="3.2"/>
</g>
<!-- hr_year&#45;&gt;hr_payroll -->
<g id="edge5" class="edge">
<title>hr_year:w&#45;&gt;hr_payroll:e</title>
<path fill="none" stroke="black" d="M184.82,-284.72C173.38,-278.81 168.12,-267 150.5,-267"/>
<polygon fill="black" stroke="black" points="191.21,-286.2 198.19,-291.51 195.1,-287.1 199,-288 199,-288 199,-288 195.1,-287.1 199.81,-284.49 191.21,-286.2 191.21,-286.2"/>
<ellipse fill="none" stroke="black" cx="188.09" cy="-285.48" rx="3.2" ry="3.2"/>
</g>
</g>
</svg>
