<?xml version="1.0" encoding="UTF-8" standalone="no"?>
<!DOCTYPE svg PUBLIC "-//W3C//DTD SVG 1.1//EN"
 "http://www.w3.org/Graphics/SVG/1.1/DTD/svg11.dtd">
<!-- Generated by graphviz version 2.43.0 (0)
 -->
<!-- Title: oneDegreeRelationshipsDiagram Pages: 1 -->
<svg width="772pt" height="713pt"
 viewBox="0.00 0.00 772.00 713.00" xmlns="http://www.w3.org/2000/svg" xmlns:xlink="http://www.w3.org/1999/xlink">
<g id="graph0" class="graph" transform="scale(1 1) rotate(0) translate(4 709)">
<title>oneDegreeRelationshipsDiagram</title>
<polygon fill="#ffffff" stroke="transparent" points="-4,4 -4,-709 768,-709 768,4 -4,4"/>
<text text-anchor="middle" x="71.5" y="-7.2" font-family="Helvetica,sans-Serif" font-size="11.00">Generated by SchemaSpy</text>
<!-- imp_processor -->
<g id="node1" class="node">
<title>imp_processor</title>
<g id="a_node1"><a xlink:href="../../tables/imp_processor.html" xlink:title="imp_processor" target="_top">
<polygon fill="#ffffff" stroke="transparent" points="235,-37 235,-609 495,-609 495,-37 235,-37"/>
<polygon fill="#f5f5f5" stroke="transparent" points="237,-585 237,-607 493,-607 493,-585 237,-585"/>
<polygon fill="none" stroke="black" points="237,-585 237,-607 493,-607 493,-585 237,-585"/>
<text text-anchor="start" x="242" y="-594.2" font-family="Helvetica,sans-Serif" font-weight="bold" font-size="11.00">imp_processor</text>
<text text-anchor="start" x="458" y="-593.2" font-family="Helvetica,sans-Serif" font-size="11.00">[table]</text>
<polygon fill="none" stroke="black" points="237,-563 237,-585 410,-585 410,-563 237,-563"/>
<image xlink:href="../../images/primaryKeys.png" width="11px" height="12px" preserveAspectRatio="xMinYMin meet" x="242" y="-580"/>
<text text-anchor="start" x="257" y="-571.2" font-family="Helvetica,sans-Serif" font-size="11.00">imp_processor_id</text>
<polygon fill="none" stroke="black" points="410,-563 410,-585 493,-585 493,-563 410,-563"/>
<text text-anchor="start" x="413" y="-571.2" font-family="Helvetica,sans-Serif" font-size="11.00">numeric[10]</text>
<polygon fill="none" stroke="black" points="237,-541 237,-563 410,-563 410,-541 237,-541"/>
<image xlink:href="../../images/foreignKeys.png" width="11px" height="12px" preserveAspectRatio="xMinYMin meet" x="242" y="-558"/>
<text text-anchor="start" x="257" y="-549.2" font-family="Helvetica,sans-Serif" font-size="11.00">imp_processor_type_id</text>
<polygon fill="none" stroke="black" points="410,-541 410,-563 493,-563 493,-541 410,-541"/>
<text text-anchor="start" x="413" y="-549.2" font-family="Helvetica,sans-Serif" font-size="11.00">numeric[10]</text>
<polygon fill="none" stroke="black" points="237,-519 237,-541 410,-541 410,-519 237,-519"/>
<text text-anchor="start" x="257" y="-527.2" font-family="Helvetica,sans-Serif" font-size="11.00">ad_client_id</text>
<polygon fill="none" stroke="black" points="410,-519 410,-541 493,-541 493,-519 410,-519"/>
<text text-anchor="start" x="413" y="-527.2" font-family="Helvetica,sans-Serif" font-size="11.00">numeric[10]</text>
<polygon fill="none" stroke="black" points="237,-497 237,-519 410,-519 410,-497 237,-497"/>
<text text-anchor="start" x="257" y="-505.2" font-family="Helvetica,sans-Serif" font-size="11.00">ad_org_id</text>
<polygon fill="none" stroke="black" points="410,-497 410,-519 493,-519 493,-497 410,-497"/>
<text text-anchor="start" x="413" y="-505.2" font-family="Helvetica,sans-Serif" font-size="11.00">numeric[10]</text>
<polygon fill="none" stroke="black" points="237,-475 237,-497 410,-497 410,-475 237,-475"/>
<text text-anchor="start" x="257" y="-483.2" font-family="Helvetica,sans-Serif" font-size="11.00">isactive</text>
<polygon fill="none" stroke="black" points="410,-475 410,-497 493,-497 493,-475 410,-475"/>
<text text-anchor="start" x="413" y="-483.2" font-family="Helvetica,sans-Serif" font-size="11.00">bpchar[1]</text>
<polygon fill="none" stroke="black" points="237,-453 237,-475 410,-475 410,-453 237,-453"/>
<text text-anchor="start" x="257" y="-461.2" font-family="Helvetica,sans-Serif" font-size="11.00">created</text>
<polygon fill="none" stroke="black" points="410,-453 410,-475 493,-475 493,-453 410,-453"/>
<text text-anchor="start" x="413" y="-461.2" font-family="Helvetica,sans-Serif" font-size="11.00">timestamp[29,6]</text>
<polygon fill="none" stroke="black" points="237,-431 237,-453 410,-453 410,-431 237,-431"/>
<text text-anchor="start" x="257" y="-439.2" font-family="Helvetica,sans-Serif" font-size="11.00">createdby</text>
<polygon fill="none" stroke="black" points="410,-431 410,-453 493,-453 493,-431 410,-431"/>
<text text-anchor="start" x="413" y="-439.2" font-family="Helvetica,sans-Serif" font-size="11.00">numeric[10]</text>
<polygon fill="none" stroke="black" points="237,-409 237,-431 410,-431 410,-409 237,-409"/>
<text text-anchor="start" x="257" y="-417.2" font-family="Helvetica,sans-Serif" font-size="11.00">updated</text>
<polygon fill="none" stroke="black" points="410,-409 410,-431 493,-431 493,-409 410,-409"/>
<text text-anchor="start" x="413" y="-417.2" font-family="Helvetica,sans-Serif" font-size="11.00">timestamp[29,6]</text>
<polygon fill="none" stroke="black" points="237,-387 237,-409 410,-409 410,-387 237,-387"/>
<text text-anchor="start" x="257" y="-395.2" font-family="Helvetica,sans-Serif" font-size="11.00">updatedby</text>
<polygon fill="none" stroke="black" points="410,-387 410,-409 493,-409 493,-387 410,-387"/>
<text text-anchor="start" x="413" y="-395.2" font-family="Helvetica,sans-Serif" font-size="11.00">numeric[10]</text>
<polygon fill="none" stroke="black" points="237,-365 237,-387 410,-387 410,-365 237,-365"/>
<text text-anchor="start" x="257" y="-373.2" font-family="Helvetica,sans-Serif" font-size="11.00">value</text>
<polygon fill="none" stroke="black" points="410,-365 410,-387 493,-387 493,-365 410,-365"/>
<text text-anchor="start" x="413" y="-373.2" font-family="Helvetica,sans-Serif" font-size="11.00">varchar[40]</text>
<polygon fill="none" stroke="black" points="237,-343 237,-365 410,-365 410,-343 237,-343"/>
<text text-anchor="start" x="257" y="-351.2" font-family="Helvetica,sans-Serif" font-size="11.00">name</text>
<polygon fill="none" stroke="black" points="410,-343 410,-365 493,-365 493,-343 410,-343"/>
<text text-anchor="start" x="413" y="-351.2" font-family="Helvetica,sans-Serif" font-size="11.00">varchar[60]</text>
<polygon fill="none" stroke="black" points="237,-321 237,-343 410,-343 410,-321 237,-321"/>
<text text-anchor="start" x="257" y="-329.2" font-family="Helvetica,sans-Serif" font-size="11.00">description</text>
<polygon fill="none" stroke="black" points="410,-321 410,-343 493,-343 493,-321 410,-321"/>
<text text-anchor="start" x="413" y="-329.2" font-family="Helvetica,sans-Serif" font-size="11.00">varchar[255]</text>
<polygon fill="none" stroke="black" points="237,-299 237,-321 410,-321 410,-299 237,-299"/>
<text text-anchor="start" x="257" y="-307.2" font-family="Helvetica,sans-Serif" font-size="11.00">help</text>
<polygon fill="none" stroke="black" points="410,-299 410,-321 493,-321 493,-299 410,-299"/>
<text text-anchor="start" x="413" y="-307.2" font-family="Helvetica,sans-Serif" font-size="11.00">varchar[2000]</text>
<polygon fill="none" stroke="black" points="237,-277 237,-299 410,-299 410,-277 237,-277"/>
<text text-anchor="start" x="257" y="-285.2" font-family="Helvetica,sans-Serif" font-size="11.00">frequencytype</text>
<polygon fill="none" stroke="black" points="410,-277 410,-299 493,-299 493,-277 410,-277"/>
<text text-anchor="start" x="413" y="-285.2" font-family="Helvetica,sans-Serif" font-size="11.00">bpchar[1]</text>
<polygon fill="none" stroke="black" points="237,-255 237,-277 410,-277 410,-255 237,-255"/>
<text text-anchor="start" x="257" y="-263.2" font-family="Helvetica,sans-Serif" font-size="11.00">frequency</text>
<polygon fill="none" stroke="black" points="410,-255 410,-277 493,-277 493,-255 410,-255"/>
<text text-anchor="start" x="413" y="-263.2" font-family="Helvetica,sans-Serif" font-size="11.00">numeric[10]</text>
<polygon fill="none" stroke="black" points="237,-233 237,-255 410,-255 410,-233 237,-233"/>
<text text-anchor="start" x="257" y="-241.2" font-family="Helvetica,sans-Serif" font-size="11.00">datelastrun</text>
<polygon fill="none" stroke="black" points="410,-233 410,-255 493,-255 493,-233 410,-233"/>
<text text-anchor="start" x="413" y="-241.2" font-family="Helvetica,sans-Serif" font-size="11.00">timestamp[29,6]</text>
<polygon fill="none" stroke="black" points="237,-211 237,-233 410,-233 410,-211 237,-211"/>
<text text-anchor="start" x="257" y="-219.2" font-family="Helvetica,sans-Serif" font-size="11.00">datenextrun</text>
<polygon fill="none" stroke="black" points="410,-211 410,-233 493,-233 493,-211 410,-211"/>
<text text-anchor="start" x="413" y="-219.2" font-family="Helvetica,sans-Serif" font-size="11.00">timestamp[29,6]</text>
<polygon fill="none" stroke="black" points="237,-189 237,-211 410,-211 410,-189 237,-189"/>
<text text-anchor="start" x="257" y="-197.2" font-family="Helvetica,sans-Serif" font-size="11.00">keeplogdays</text>
<polygon fill="none" stroke="black" points="410,-189 410,-211 493,-211 493,-189 410,-189"/>
<text text-anchor="start" x="413" y="-197.2" font-family="Helvetica,sans-Serif" font-size="11.00">numeric[10]</text>
<polygon fill="none" stroke="black" points="237,-167 237,-189 410,-189 410,-167 237,-167"/>
<text text-anchor="start" x="257" y="-175.2" font-family="Helvetica,sans-Serif" font-size="11.00">processing</text>
<polygon fill="none" stroke="black" points="410,-167 410,-189 493,-189 493,-167 410,-167"/>
<text text-anchor="start" x="413" y="-175.2" font-family="Helvetica,sans-Serif" font-size="11.00">bpchar[1]</text>
<polygon fill="none" stroke="black" points="237,-145 237,-167 410,-167 410,-145 237,-145"/>
<text text-anchor="start" x="257" y="-153.2" font-family="Helvetica,sans-Serif" font-size="11.00">host</text>
<polygon fill="none" stroke="black" points="410,-145 410,-167 493,-167 493,-145 410,-145"/>
<text text-anchor="start" x="413" y="-153.2" font-family="Helvetica,sans-Serif" font-size="11.00">varchar[255]</text>
<polygon fill="none" stroke="black" points="237,-123 237,-145 410,-145 410,-123 237,-123"/>
<text text-anchor="start" x="257" y="-131.2" font-family="Helvetica,sans-Serif" font-size="11.00">port</text>
<polygon fill="none" stroke="black" points="410,-123 410,-145 493,-145 493,-123 410,-123"/>
<text text-anchor="start" x="413" y="-131.2" font-family="Helvetica,sans-Serif" font-size="11.00">numeric[10]</text>
<polygon fill="none" stroke="black" points="237,-101 237,-123 410,-123 410,-101 237,-101"/>
<text text-anchor="start" x="257" y="-109.2" font-family="Helvetica,sans-Serif" font-size="11.00">account</text>
<polygon fill="none" stroke="black" points="410,-101 410,-123 493,-123 493,-101 410,-101"/>
<text text-anchor="start" x="413" y="-109.2" font-family="Helvetica,sans-Serif" font-size="11.00">varchar[255]</text>
<polygon fill="none" stroke="black" points="237,-79 237,-101 410,-101 410,-79 237,-79"/>
<text text-anchor="start" x="257" y="-87.2" font-family="Helvetica,sans-Serif" font-size="11.00">passwordinfo</text>
<polygon fill="none" stroke="black" points="410,-79 410,-101 493,-101 493,-79 410,-79"/>
<text text-anchor="start" x="413" y="-87.2" font-family="Helvetica,sans-Serif" font-size="11.00">varchar[255]</text>
<polygon fill="#ffffff" stroke="transparent" points="237,-57 237,-79 410,-79 410,-57 237,-57"/>
<polygon fill="none" stroke="black" points="237,-57 237,-79 410,-79 410,-57 237,-57"/>
<text text-anchor="start" x="257" y="-65.2" font-family="Helvetica,sans-Serif" font-size="11.00">imp_processor_uu</text>
<polygon fill="none" stroke="black" points="410,-57 410,-79 493,-79 493,-57 410,-57"/>
<text text-anchor="start" x="413" y="-65.2" font-family="Helvetica,sans-Serif" font-size="11.00">varchar[36]</text>
<polygon fill="#ffffff" stroke="transparent" points="237,-39 237,-57 315,-57 315,-39 237,-39"/>
<polygon fill="none" stroke="black" points="237,-39 237,-57 315,-57 315,-39 237,-39"/>
<text text-anchor="start" x="240" y="-45.2" font-family="Helvetica,sans-Serif" font-size="11.00">&lt; 1</text>
<polygon fill="#ffffff" stroke="transparent" points="315,-39 315,-57 410,-57 410,-39 315,-39"/>
<polygon fill="none" stroke="black" points="315,-39 315,-57 410,-57 410,-39 315,-39"/>
<text text-anchor="start" x="374" y="-45.2" font-family="Helvetica,sans-Serif" font-size="11.00">0 rows</text>
<polygon fill="#ffffff" stroke="transparent" points="410,-39 410,-57 493,-57 493,-39 410,-39"/>
<polygon fill="none" stroke="black" points="410,-39 410,-57 493,-57 493,-39 410,-39"/>
<text text-anchor="start" x="474" y="-45.2" font-family="Helvetica,sans-Serif" font-size="11.00">2 &gt;</text>
<polygon fill="none" stroke="black" stroke-width="2" points="236,-38 236,-608 494,-608 494,-38 236,-38"/>
</a>
</g>
</g>
<!-- imp_processor_type -->
<g id="node2" class="node">
<title>imp_processor_type</title>
<g id="a_node2"><a xlink:href="../../tables/imp_processor_type.html" xlink:title="imp_processor_type" target="_top">
<polygon fill="#ffffff" stroke="transparent" points="8,-483 8,-585 186,-585 186,-483 8,-483"/>
<polygon fill="#f5f5f5" stroke="transparent" points="8,-563 8,-585 186,-585 186,-563 8,-563"/>
<polygon fill="none" stroke="black" points="8,-563 8,-585 186,-585 186,-563 8,-563"/>
<text text-anchor="start" x="13" y="-572.2" font-family="Helvetica,sans-Serif" font-weight="bold" font-size="11.00">imp_processor_type</text>
<text text-anchor="start" x="151" y="-571.2" font-family="Helvetica,sans-Serif" font-size="11.00">[table]</text>
<polygon fill="none" stroke="black" points="8,-541 8,-563 186,-563 186,-541 8,-541"/>
<image xlink:href="../../images/primaryKeys.png" width="11px" height="12px" preserveAspectRatio="xMinYMin meet" x="13" y="-558"/>
<text text-anchor="start" x="28" y="-549.2" font-family="Helvetica,sans-Serif" font-size="11.00">imp_processor_type_id</text>
<polygon fill="#ffffff" stroke="transparent" points="8,-519 8,-541 186,-541 186,-519 8,-519"/>
<polygon fill="none" stroke="black" points="8,-519 8,-541 186,-541 186,-519 8,-519"/>
<text text-anchor="start" x="28" y="-527.2" font-family="Helvetica,sans-Serif" font-size="11.00">imp_processor_type_uu</text>
<polygon fill="none" stroke="black" points="8,-501 8,-519 186,-519 186,-501 8,-501"/>
<text text-anchor="start" x="11" y="-507.2" font-family="Helvetica,sans-Serif" font-size="11.00">...</text>
<polygon fill="#ffffff" stroke="transparent" points="8,-483 8,-501 73,-501 73,-483 8,-483"/>
<polygon fill="none" stroke="black" points="8,-483 8,-501 73,-501 73,-483 8,-483"/>
<text text-anchor="start" x="11" y="-489.2" font-family="Helvetica,sans-Serif" font-size="11.00"> &#160;</text>
<polygon fill="#ffffff" stroke="transparent" points="73,-483 73,-501 138,-501 138,-483 73,-483"/>
<polygon fill="none" stroke="black" points="73,-483 73,-501 138,-501 138,-483 73,-483"/>
<text text-anchor="start" x="102" y="-489.2" font-family="Helvetica,sans-Serif" font-size="11.00">0 rows</text>
<polygon fill="#ffffff" stroke="transparent" points="138,-483 138,-501 186,-501 186,-483 138,-483"/>
<polygon fill="none" stroke="black" points="138,-483 138,-501 186,-501 186,-483 138,-483"/>
<text text-anchor="start" x="167" y="-489.2" font-family="Helvetica,sans-Serif" font-size="11.00">1 &gt;</text>
</a>
</g>
</g>
<!-- imp_processor&#45;&gt;imp_processor_type -->
<g id="edge1" class="edge">
<title>imp_processor:w&#45;&gt;imp_processor_type:e</title>
<path fill="none" stroke="black" d="M221.49,-552C210.18,-552 202.99,-552 187,-552"/>
<polygon fill="black" stroke="black" points="228,-552 236,-555.6 232,-552 236,-552 236,-552 236,-552 232,-552 236,-548.4 228,-552 228,-552"/>
<ellipse fill="none" stroke="black" cx="224.8" cy="-552" rx="3.2" ry="3.2"/>
</g>
<!-- imp_processorlog -->
<g id="node3" class="node">
<title>imp_processorlog</title>
<g id="a_node3"><a xlink:href="../../tables/imp_processorlog.html" xlink:title="imp_processorlog" target="_top">
<polygon fill="#ffffff" stroke="transparent" points="569,-577 569,-701 731,-701 731,-577 569,-577"/>
<polygon fill="#f5f5f5" stroke="transparent" points="569,-679 569,-701 731,-701 731,-679 569,-679"/>
<polygon fill="none" stroke="black" points="569,-679 569,-701 731,-701 731,-679 569,-679"/>
<text text-anchor="start" x="574" y="-688.2" font-family="Helvetica,sans-Serif" font-weight="bold" font-size="11.00">imp_processorlog</text>
<text text-anchor="start" x="696" y="-687.2" font-family="Helvetica,sans-Serif" font-size="11.00">[table]</text>
<polygon fill="none" stroke="black" points="569,-657 569,-679 731,-679 731,-657 569,-657"/>
<image xlink:href="../../images/primaryKeys.png" width="11px" height="12px" preserveAspectRatio="xMinYMin meet" x="574" y="-674"/>
<text text-anchor="start" x="589" y="-665.2" font-family="Helvetica,sans-Serif" font-size="11.00">imp_processorlog_id</text>
<polygon fill="none" stroke="black" points="569,-635 569,-657 731,-657 731,-635 569,-635"/>
<image xlink:href="../../images/foreignKeys.png" width="11px" height="12px" preserveAspectRatio="xMinYMin meet" x="574" y="-652"/>
<text text-anchor="start" x="589" y="-643.2" font-family="Helvetica,sans-Serif" font-size="11.00">imp_processor_id</text>
<polygon fill="#ffffff" stroke="transparent" points="569,-613 569,-635 731,-635 731,-613 569,-613"/>
<polygon fill="none" stroke="black" points="569,-613 569,-635 731,-635 731,-613 569,-613"/>
<text text-anchor="start" x="589" y="-621.2" font-family="Helvetica,sans-Serif" font-size="11.00">imp_processorlog_uu</text>
<polygon fill="none" stroke="black" points="569,-595 569,-613 731,-613 731,-595 569,-595"/>
<text text-anchor="start" x="572" y="-601.2" font-family="Helvetica,sans-Serif" font-size="11.00">...</text>
<polygon fill="#ffffff" stroke="transparent" points="569,-577 569,-595 635,-595 635,-577 569,-577"/>
<polygon fill="none" stroke="black" points="569,-577 569,-595 635,-595 635,-577 569,-577"/>
<text text-anchor="start" x="572" y="-583.2" font-family="Helvetica,sans-Serif" font-size="11.00">&lt; 1</text>
<polygon fill="#ffffff" stroke="transparent" points="635,-577 635,-595 696,-595 696,-577 635,-577"/>
<polygon fill="none" stroke="black" points="635,-577 635,-595 696,-595 696,-577 635,-577"/>
<text text-anchor="start" x="660" y="-583.2" font-family="Helvetica,sans-Serif" font-size="11.00">0 rows</text>
<polygon fill="#ffffff" stroke="transparent" points="696,-577 696,-595 731,-595 731,-577 696,-577"/>
<polygon fill="none" stroke="black" points="696,-577 696,-595 731,-595 731,-577 696,-577"/>
<text text-anchor="start" x="721" y="-583.2" font-family="Helvetica,sans-Serif" font-size="11.00"> &#160;</text>
</a>
</g>
</g>
<!-- imp_processorlog&#45;&gt;imp_processor -->
<g id="edge2" class="edge">
<title>imp_processorlog:w&#45;&gt;imp_processor:e</title>
<path fill="none" stroke="black" d="M553.53,-642.91C525.56,-629.12 534.15,-574 494,-574"/>
<polygon fill="black" stroke="black" points="560.18,-644.33 567.25,-649.52 564.09,-645.16 568,-646 568,-646 568,-646 564.09,-645.16 568.75,-642.48 560.18,-644.33 560.18,-644.33"/>
<ellipse fill="none" stroke="black" cx="557.05" cy="-643.66" rx="3.2" ry="3.2"/>
</g>
<!-- imp_processorparameter -->
<g id="node4" class="node">
<title>imp_processorparameter</title>
<g id="a_node4"><a xlink:href="../../tables/imp_processorparameter.html" xlink:title="imp_processorparameter" target="_top">
<polygon fill="#ffffff" stroke="transparent" points="544,-432 544,-556 756,-556 756,-432 544,-432"/>
<polygon fill="#f5f5f5" stroke="transparent" points="544,-534 544,-556 756,-556 756,-534 544,-534"/>
<polygon fill="none" stroke="black" points="544,-534 544,-556 756,-556 756,-534 544,-534"/>
<text text-anchor="start" x="549" y="-543.2" font-family="Helvetica,sans-Serif" font-weight="bold" font-size="11.00">imp_processorparameter</text>
<text text-anchor="start" x="721" y="-542.2" font-family="Helvetica,sans-Serif" font-size="11.00">[table]</text>
<polygon fill="none" stroke="black" points="544,-512 544,-534 756,-534 756,-512 544,-512"/>
<image xlink:href="../../images/primaryKeys.png" width="11px" height="12px" preserveAspectRatio="xMinYMin meet" x="549" y="-529"/>
<text text-anchor="start" x="564" y="-520.2" font-family="Helvetica,sans-Serif" font-size="11.00">imp_processorparameter_id</text>
<polygon fill="none" stroke="black" points="544,-490 544,-512 756,-512 756,-490 544,-490"/>
<image xlink:href="../../images/foreignKeys.png" width="11px" height="12px" preserveAspectRatio="xMinYMin meet" x="549" y="-507"/>
<text text-anchor="start" x="564" y="-498.2" font-family="Helvetica,sans-Serif" font-size="11.00">imp_processor_id</text>
<polygon fill="#ffffff" stroke="transparent" points="544,-468 544,-490 756,-490 756,-468 544,-468"/>
<polygon fill="none" stroke="black" points="544,-468 544,-490 756,-490 756,-468 544,-468"/>
<text text-anchor="start" x="564" y="-476.2" font-family="Helvetica,sans-Serif" font-size="11.00">imp_processorparameter_uu</text>
<polygon fill="none" stroke="black" points="544,-450 544,-468 756,-468 756,-450 544,-450"/>
<text text-anchor="start" x="547" y="-456.2" font-family="Helvetica,sans-Serif" font-size="11.00">...</text>
<polygon fill="#ffffff" stroke="transparent" points="544,-432 544,-450 635,-450 635,-432 544,-432"/>
<polygon fill="none" stroke="black" points="544,-432 544,-450 635,-450 635,-432 544,-432"/>
<text text-anchor="start" x="547" y="-438.2" font-family="Helvetica,sans-Serif" font-size="11.00">&lt; 1</text>
<polygon fill="#ffffff" stroke="transparent" points="635,-432 635,-450 708,-450 708,-432 635,-432"/>
<polygon fill="none" stroke="black" points="635,-432 635,-450 708,-450 708,-432 635,-432"/>
<text text-anchor="start" x="672" y="-438.2" font-family="Helvetica,sans-Serif" font-size="11.00">0 rows</text>
<polygon fill="#ffffff" stroke="transparent" points="708,-432 708,-450 756,-450 756,-432 708,-432"/>
<polygon fill="none" stroke="black" points="708,-432 708,-450 756,-450 756,-432 708,-432"/>
<text text-anchor="start" x="746" y="-438.2" font-family="Helvetica,sans-Serif" font-size="11.00"> &#160;</text>
</a>
</g>
</g>
<!-- imp_processorparameter&#45;&gt;imp_processor -->
<g id="edge3" class="edge">
<title>imp_processorparameter:w&#45;&gt;imp_processor:e</title>
<path fill="none" stroke="black" d="M529.16,-505.79C511.37,-522.03 526.97,-574 494,-574"/>
<polygon fill="black" stroke="black" points="535.44,-503.62 544.18,-504.4 539.22,-502.31 543,-501 543,-501 543,-501 539.22,-502.31 541.82,-497.6 535.44,-503.62 535.44,-503.62"/>
<ellipse fill="none" stroke="black" cx="532.42" cy="-504.66" rx="3.2" ry="3.2"/>
</g>
</g>
</svg>
