<?xml version="1.0" encoding="UTF-8" standalone="no"?>
<!DOCTYPE svg PUBLIC "-//W3C//DTD SVG 1.1//EN"
 "http://www.w3.org/Graphics/SVG/1.1/DTD/svg11.dtd">
<!-- Generated by graphviz version 2.43.0 (0)
 -->
<!-- Title: oneDegreeRelationshipsDiagram Pages: 1 -->
<svg width="247pt" height="357pt"
 viewBox="0.00 0.00 247.00 357.00" xmlns="http://www.w3.org/2000/svg" xmlns:xlink="http://www.w3.org/1999/xlink">
<g id="graph0" class="graph" transform="scale(1 1) rotate(0) translate(4 353)">
<title>oneDegreeRelationshipsDiagram</title>
<polygon fill="#ffffff" stroke="transparent" points="-4,4 -4,-353 243,-353 243,4 -4,4"/>
<text text-anchor="middle" x="71.5" y="-7.2" font-family="Helvetica,sans-Serif" font-size="11.00">Generated by SchemaSpy</text>
<!-- k_indexlog -->
<g id="node1" class="node">
<title>k_indexlog</title>
<g id="a_node1"><a xlink:href="../../tables/k_indexlog.html" xlink:title="k_indexlog" target="_top">
<polygon fill="#ffffff" stroke="transparent" points="8,-37 8,-345 231,-345 231,-37 8,-37"/>
<polygon fill="#f5f5f5" stroke="transparent" points="10.5,-321 10.5,-343 229.5,-343 229.5,-321 10.5,-321"/>
<polygon fill="none" stroke="black" points="10.5,-321 10.5,-343 229.5,-343 229.5,-321 10.5,-321"/>
<text text-anchor="start" x="15.5" y="-330.2" font-family="Helvetica,sans-Serif" font-weight="bold" font-size="11.00">k_indexlog</text>
<text text-anchor="start" x="194.5" y="-329.2" font-family="Helvetica,sans-Serif" font-size="11.00">[table]</text>
<polygon fill="none" stroke="black" points="10.5,-299 10.5,-321 146.5,-321 146.5,-299 10.5,-299"/>
<image xlink:href="../../images/primaryKeys.png" width="11px" height="12px" preserveAspectRatio="xMinYMin meet" x="15.5" y="-316"/>
<text text-anchor="start" x="30.5" y="-307.2" font-family="Helvetica,sans-Serif" font-size="11.00">k_indexlog_id</text>
<polygon fill="none" stroke="black" points="146.5,-299 146.5,-321 229.5,-321 229.5,-299 146.5,-299"/>
<text text-anchor="start" x="149.5" y="-307.2" font-family="Helvetica,sans-Serif" font-size="11.00">numeric[10]</text>
<polygon fill="none" stroke="black" points="10.5,-277 10.5,-299 146.5,-299 146.5,-277 10.5,-277"/>
<text text-anchor="start" x="30.5" y="-285.2" font-family="Helvetica,sans-Serif" font-size="11.00">ad_client_id</text>
<polygon fill="none" stroke="black" points="146.5,-277 146.5,-299 229.5,-299 229.5,-277 146.5,-277"/>
<text text-anchor="start" x="149.5" y="-285.2" font-family="Helvetica,sans-Serif" font-size="11.00">numeric[10]</text>
<polygon fill="none" stroke="black" points="10.5,-255 10.5,-277 146.5,-277 146.5,-255 10.5,-255"/>
<text text-anchor="start" x="30.5" y="-263.2" font-family="Helvetica,sans-Serif" font-size="11.00">ad_org_id</text>
<polygon fill="none" stroke="black" points="146.5,-255 146.5,-277 229.5,-277 229.5,-255 146.5,-255"/>
<text text-anchor="start" x="149.5" y="-263.2" font-family="Helvetica,sans-Serif" font-size="11.00">numeric[10]</text>
<polygon fill="none" stroke="black" points="10.5,-233 10.5,-255 146.5,-255 146.5,-233 10.5,-233"/>
<text text-anchor="start" x="30.5" y="-241.2" font-family="Helvetica,sans-Serif" font-size="11.00">isactive</text>
<polygon fill="none" stroke="black" points="146.5,-233 146.5,-255 229.5,-255 229.5,-233 146.5,-233"/>
<text text-anchor="start" x="149.5" y="-241.2" font-family="Helvetica,sans-Serif" font-size="11.00">bpchar[1]</text>
<polygon fill="none" stroke="black" points="10.5,-211 10.5,-233 146.5,-233 146.5,-211 10.5,-211"/>
<text text-anchor="start" x="30.5" y="-219.2" font-family="Helvetica,sans-Serif" font-size="11.00">created</text>
<polygon fill="none" stroke="black" points="146.5,-211 146.5,-233 229.5,-233 229.5,-211 146.5,-211"/>
<text text-anchor="start" x="149.5" y="-219.2" font-family="Helvetica,sans-Serif" font-size="11.00">timestamp[29,6]</text>
<polygon fill="none" stroke="black" points="10.5,-189 10.5,-211 146.5,-211 146.5,-189 10.5,-189"/>
<text text-anchor="start" x="30.5" y="-197.2" font-family="Helvetica,sans-Serif" font-size="11.00">createdby</text>
<polygon fill="none" stroke="black" points="146.5,-189 146.5,-211 229.5,-211 229.5,-189 146.5,-189"/>
<text text-anchor="start" x="149.5" y="-197.2" font-family="Helvetica,sans-Serif" font-size="11.00">numeric[10]</text>
<polygon fill="none" stroke="black" points="10.5,-167 10.5,-189 146.5,-189 146.5,-167 10.5,-167"/>
<text text-anchor="start" x="30.5" y="-175.2" font-family="Helvetica,sans-Serif" font-size="11.00">updated</text>
<polygon fill="none" stroke="black" points="146.5,-167 146.5,-189 229.5,-189 229.5,-167 146.5,-167"/>
<text text-anchor="start" x="149.5" y="-175.2" font-family="Helvetica,sans-Serif" font-size="11.00">timestamp[29,6]</text>
<polygon fill="none" stroke="black" points="10.5,-145 10.5,-167 146.5,-167 146.5,-145 10.5,-145"/>
<text text-anchor="start" x="30.5" y="-153.2" font-family="Helvetica,sans-Serif" font-size="11.00">updatedby</text>
<polygon fill="none" stroke="black" points="146.5,-145 146.5,-167 229.5,-167 229.5,-145 146.5,-145"/>
<text text-anchor="start" x="149.5" y="-153.2" font-family="Helvetica,sans-Serif" font-size="11.00">numeric[10]</text>
<polygon fill="none" stroke="black" points="10.5,-123 10.5,-145 146.5,-145 146.5,-123 10.5,-123"/>
<text text-anchor="start" x="30.5" y="-131.2" font-family="Helvetica,sans-Serif" font-size="11.00">indexquery</text>
<polygon fill="none" stroke="black" points="146.5,-123 146.5,-145 229.5,-145 229.5,-123 146.5,-123"/>
<text text-anchor="start" x="149.5" y="-131.2" font-family="Helvetica,sans-Serif" font-size="11.00">varchar[255]</text>
<polygon fill="none" stroke="black" points="10.5,-101 10.5,-123 146.5,-123 146.5,-101 10.5,-101"/>
<text text-anchor="start" x="30.5" y="-109.2" font-family="Helvetica,sans-Serif" font-size="11.00">indexqueryresult</text>
<polygon fill="none" stroke="black" points="146.5,-101 146.5,-123 229.5,-123 229.5,-101 146.5,-101"/>
<text text-anchor="start" x="149.5" y="-109.2" font-family="Helvetica,sans-Serif" font-size="11.00">numeric[10]</text>
<polygon fill="none" stroke="black" points="10.5,-79 10.5,-101 146.5,-101 146.5,-79 10.5,-79"/>
<text text-anchor="start" x="30.5" y="-87.2" font-family="Helvetica,sans-Serif" font-size="11.00">querysource</text>
<polygon fill="none" stroke="black" points="146.5,-79 146.5,-101 229.5,-101 229.5,-79 146.5,-79"/>
<text text-anchor="start" x="149.5" y="-87.2" font-family="Helvetica,sans-Serif" font-size="11.00">bpchar[1]</text>
<polygon fill="#ffffff" stroke="transparent" points="10.5,-57 10.5,-79 146.5,-79 146.5,-57 10.5,-57"/>
<polygon fill="none" stroke="black" points="10.5,-57 10.5,-79 146.5,-79 146.5,-57 10.5,-57"/>
<text text-anchor="start" x="30.5" y="-65.2" font-family="Helvetica,sans-Serif" font-size="11.00">k_indexlog_uu</text>
<polygon fill="none" stroke="black" points="146.5,-57 146.5,-79 229.5,-79 229.5,-57 146.5,-57"/>
<text text-anchor="start" x="149.5" y="-65.2" font-family="Helvetica,sans-Serif" font-size="11.00">varchar[36]</text>
<polygon fill="#ffffff" stroke="transparent" points="10.5,-39 10.5,-57 69.5,-57 69.5,-39 10.5,-39"/>
<polygon fill="none" stroke="black" points="10.5,-39 10.5,-57 69.5,-57 69.5,-39 10.5,-39"/>
<text text-anchor="start" x="13.5" y="-45.2" font-family="Helvetica,sans-Serif" font-size="11.00">&lt; 0</text>
<polygon fill="#ffffff" stroke="transparent" points="69.5,-39 69.5,-57 146.5,-57 146.5,-39 69.5,-39"/>
<polygon fill="none" stroke="black" points="69.5,-39 69.5,-57 146.5,-57 146.5,-39 69.5,-39"/>
<text text-anchor="start" x="110.5" y="-45.2" font-family="Helvetica,sans-Serif" font-size="11.00">0 rows</text>
<polygon fill="#ffffff" stroke="transparent" points="146.5,-39 146.5,-57 229.5,-57 229.5,-39 146.5,-39"/>
<polygon fill="none" stroke="black" points="146.5,-39 146.5,-57 229.5,-57 229.5,-39 146.5,-39"/>
<text text-anchor="start" x="210.5" y="-45.2" font-family="Helvetica,sans-Serif" font-size="11.00">0 &gt;</text>
<polygon fill="none" stroke="black" stroke-width="2" points="9,-38 9,-344 230,-344 230,-38 9,-38"/>
</a>
</g>
</g>
</g>
</svg>
