<?xml version="1.0" encoding="UTF-8" standalone="no"?>
<!DOCTYPE svg PUBLIC "-//W3C//DTD SVG 1.1//EN"
 "http://www.w3.org/Graphics/SVG/1.1/DTD/svg11.dtd">
<!-- Generated by graphviz version 2.43.0 (0)
 -->
<!-- Title: oneDegreeRelationshipsDiagram Pages: 1 -->
<svg width="1126pt" height="1059pt"
 viewBox="0.00 0.00 1126.00 1059.00" xmlns="http://www.w3.org/2000/svg" xmlns:xlink="http://www.w3.org/1999/xlink">
<g id="graph0" class="graph" transform="scale(1 1) rotate(0) translate(4 1055)">
<title>oneDegreeRelationshipsDiagram</title>
<polygon fill="#ffffff" stroke="transparent" points="-4,4 -4,-1055 1122,-1055 1122,4 -4,4"/>
<text text-anchor="middle" x="71.5" y="-7.2" font-family="Helvetica,sans-Serif" font-size="11.00">Generated by SchemaSpy</text>
<!-- ad_org -->
<g id="node1" class="node">
<title>ad_org</title>
<g id="a_node1"><a xlink:href="../../tables/ad_org.html" xlink:title="ad_org" target="_top">
<polygon fill="#ffffff" stroke="transparent" points="285,-732 285,-922 477,-922 477,-732 285,-732"/>
<polygon fill="#f5f5f5" stroke="transparent" points="285,-900 285,-922 477,-922 477,-900 285,-900"/>
<polygon fill="none" stroke="black" points="285,-900 285,-922 477,-922 477,-900 285,-900"/>
<text text-anchor="start" x="290" y="-909.2" font-family="Helvetica,sans-Serif" font-weight="bold" font-size="11.00">ad_org</text>
<text text-anchor="start" x="442" y="-908.2" font-family="Helvetica,sans-Serif" font-size="11.00">[table]</text>
<polygon fill="none" stroke="black" points="285,-878 285,-900 477,-900 477,-878 285,-878"/>
<image xlink:href="../../images/primaryKeys.png" width="11px" height="12px" preserveAspectRatio="xMinYMin meet" x="290" y="-895"/>
<text text-anchor="start" x="305" y="-886.2" font-family="Helvetica,sans-Serif" font-size="11.00">ad_org_id</text>
<polygon fill="#ffffff" stroke="transparent" points="285,-856 285,-878 477,-878 477,-856 285,-856"/>
<polygon fill="none" stroke="black" points="285,-856 285,-878 477,-878 477,-856 285,-856"/>
<image xlink:href="../../images/foreignKeys.png" width="11px" height="12px" preserveAspectRatio="xMinYMin meet" x="290" y="-873"/>
<text text-anchor="start" x="305" y="-864.2" font-family="Helvetica,sans-Serif" font-size="11.00">ad_client_id</text>
<polygon fill="#ffffff" stroke="transparent" points="285,-834 285,-856 477,-856 477,-834 285,-834"/>
<polygon fill="none" stroke="black" points="285,-834 285,-856 477,-856 477,-834 285,-834"/>
<text text-anchor="start" x="305" y="-842.2" font-family="Helvetica,sans-Serif" font-size="11.00">value</text>
<polygon fill="none" stroke="black" points="285,-812 285,-834 477,-834 477,-812 285,-812"/>
<image xlink:href="../../images/foreignKeys.png" width="11px" height="12px" preserveAspectRatio="xMinYMin meet" x="290" y="-829"/>
<text text-anchor="start" x="305" y="-820.2" font-family="Helvetica,sans-Serif" font-size="11.00">ad_replicationstrategy_id</text>
<polygon fill="#ffffff" stroke="transparent" points="285,-790 285,-812 477,-812 477,-790 285,-790"/>
<polygon fill="none" stroke="black" points="285,-790 285,-812 477,-812 477,-790 285,-790"/>
<text text-anchor="start" x="305" y="-798.2" font-family="Helvetica,sans-Serif" font-size="11.00">ad_org_uu</text>
<polygon fill="none" stroke="black" points="285,-768 285,-790 477,-790 477,-768 285,-768"/>
<image xlink:href="../../images/foreignKeys.png" width="11px" height="12px" preserveAspectRatio="xMinYMin meet" x="290" y="-785"/>
<text text-anchor="start" x="305" y="-776.2" font-family="Helvetica,sans-Serif" font-size="11.00">cof_c_snrange_id</text>
<polygon fill="none" stroke="black" points="285,-750 285,-768 477,-768 477,-750 285,-750"/>
<text text-anchor="start" x="288" y="-756.2" font-family="Helvetica,sans-Serif" font-size="11.00">...</text>
<polygon fill="#ffffff" stroke="transparent" points="285,-732 285,-750 355,-750 355,-732 285,-732"/>
<polygon fill="none" stroke="black" points="285,-732 285,-750 355,-750 355,-732 285,-732"/>
<text text-anchor="start" x="288" y="-738.2" font-family="Helvetica,sans-Serif" font-size="11.00">&lt; 3</text>
<polygon fill="#ffffff" stroke="transparent" points="355,-732 355,-750 418,-750 418,-732 355,-732"/>
<polygon fill="none" stroke="black" points="355,-732 355,-750 418,-750 418,-732 355,-732"/>
<text text-anchor="start" x="382" y="-738.2" font-family="Helvetica,sans-Serif" font-size="11.00">3 rows</text>
<polygon fill="#ffffff" stroke="transparent" points="418,-732 418,-750 477,-750 477,-732 418,-732"/>
<polygon fill="none" stroke="black" points="418,-732 418,-750 477,-750 477,-732 418,-732"/>
<text text-anchor="start" x="446" y="-738.2" font-family="Helvetica,sans-Serif" font-size="11.00">224 &gt;</text>
</a>
</g>
</g>
<!-- ad_client -->
<g id="node2" class="node">
<title>ad_client</title>
<g id="a_node2"><a xlink:href="../../tables/ad_client.html" xlink:title="ad_client" target="_top">
<polygon fill="#ffffff" stroke="transparent" points="8,-767 8,-979 236,-979 236,-767 8,-767"/>
<polygon fill="#f5f5f5" stroke="transparent" points="8,-957 8,-979 236,-979 236,-957 8,-957"/>
<polygon fill="none" stroke="black" points="8,-957 8,-979 236,-979 236,-957 8,-957"/>
<text text-anchor="start" x="13" y="-966.2" font-family="Helvetica,sans-Serif" font-weight="bold" font-size="11.00">ad_client</text>
<text text-anchor="start" x="201" y="-965.2" font-family="Helvetica,sans-Serif" font-size="11.00">[table]</text>
<polygon fill="none" stroke="black" points="8,-935 8,-957 236,-957 236,-935 8,-935"/>
<image xlink:href="../../images/primaryKeys.png" width="11px" height="12px" preserveAspectRatio="xMinYMin meet" x="13" y="-952"/>
<text text-anchor="start" x="28" y="-943.2" font-family="Helvetica,sans-Serif" font-size="11.00">ad_client_id</text>
<polygon fill="#ffffff" stroke="transparent" points="8,-913 8,-935 236,-935 236,-913 8,-913"/>
<polygon fill="none" stroke="black" points="8,-913 8,-935 236,-935 236,-913 8,-913"/>
<text text-anchor="start" x="28" y="-921.2" font-family="Helvetica,sans-Serif" font-size="11.00">value</text>
<polygon fill="none" stroke="black" points="8,-891 8,-913 236,-913 236,-891 8,-891"/>
<image xlink:href="../../images/foreignKeys.png" width="11px" height="12px" preserveAspectRatio="xMinYMin meet" x="13" y="-908"/>
<text text-anchor="start" x="28" y="-899.2" font-family="Helvetica,sans-Serif" font-size="11.00">ad_language</text>
<polygon fill="none" stroke="black" points="8,-869 8,-891 236,-891 236,-869 8,-869"/>
<image xlink:href="../../images/foreignKeys.png" width="11px" height="12px" preserveAspectRatio="xMinYMin meet" x="13" y="-886"/>
<text text-anchor="start" x="28" y="-877.2" font-family="Helvetica,sans-Serif" font-size="11.00">ad_replicationstrategy_id</text>
<polygon fill="#ffffff" stroke="transparent" points="8,-847 8,-869 236,-869 236,-847 8,-847"/>
<polygon fill="none" stroke="black" points="8,-847 8,-869 236,-869 236,-847 8,-847"/>
<text text-anchor="start" x="28" y="-855.2" font-family="Helvetica,sans-Serif" font-size="11.00">ad_client_uu</text>
<polygon fill="none" stroke="black" points="8,-825 8,-847 236,-847 236,-825 8,-825"/>
<image xlink:href="../../images/foreignKeys.png" width="11px" height="12px" preserveAspectRatio="xMinYMin meet" x="13" y="-842"/>
<text text-anchor="start" x="28" y="-833.2" font-family="Helvetica,sans-Serif" font-size="11.00">ad_passwordrule_id</text>
<polygon fill="#ffffff" stroke="transparent" points="8,-803 8,-825 236,-825 236,-803 8,-803"/>
<polygon fill="none" stroke="black" points="8,-803 8,-825 236,-825 236,-803 8,-803"/>
<text text-anchor="start" x="28" y="-811.2" font-family="Helvetica,sans-Serif" font-size="11.00">loginprefix</text>
<polygon fill="none" stroke="black" points="8,-785 8,-803 236,-803 236,-785 8,-785"/>
<text text-anchor="start" x="11" y="-791.2" font-family="Helvetica,sans-Serif" font-size="11.00">...</text>
<polygon fill="#ffffff" stroke="transparent" points="8,-767 8,-785 96,-785 96,-767 8,-767"/>
<polygon fill="none" stroke="black" points="8,-767 8,-785 96,-785 96,-767 8,-767"/>
<text text-anchor="start" x="11" y="-773.2" font-family="Helvetica,sans-Serif" font-size="11.00">&lt; 3</text>
<polygon fill="#ffffff" stroke="transparent" points="96,-767 96,-785 168,-785 168,-767 96,-767"/>
<polygon fill="none" stroke="black" points="96,-767 96,-785 168,-785 168,-767 96,-767"/>
<text text-anchor="start" x="132" y="-773.2" font-family="Helvetica,sans-Serif" font-size="11.00">2 rows</text>
<polygon fill="#ffffff" stroke="transparent" points="168,-767 168,-785 236,-785 236,-767 168,-767"/>
<polygon fill="none" stroke="black" points="168,-767 168,-785 236,-785 236,-767 168,-767"/>
<text text-anchor="start" x="205" y="-773.2" font-family="Helvetica,sans-Serif" font-size="11.00">145 &gt;</text>
</a>
</g>
</g>
<!-- ad_org&#45;&gt;ad_client -->
<g id="edge1" class="edge">
<title>ad_org:w&#45;&gt;ad_client:e</title>
<path fill="none" stroke="black" d="M270.31,-871.71C251.78,-888.71 271.79,-946 237,-946"/>
<polygon fill="black" stroke="black" points="276.43,-869.6 285.17,-870.4 280.22,-868.3 284,-867 284,-867 284,-867 280.22,-868.3 282.83,-863.6 276.43,-869.6 276.43,-869.6"/>
<ellipse fill="none" stroke="black" cx="273.41" cy="-870.64" rx="3.2" ry="3.2"/>
</g>
<!-- ad_user -->
<g id="node3" class="node">
<title>ad_user</title>
<g id="a_node3"><a xlink:href="../../tables/ad_user.html" xlink:title="ad_user" target="_top">
<polygon fill="#ffffff" stroke="transparent" points="539,-446 539,-966 762,-966 762,-446 539,-446"/>
<polygon fill="#f5f5f5" stroke="transparent" points="539.5,-944 539.5,-966 762.5,-966 762.5,-944 539.5,-944"/>
<polygon fill="none" stroke="black" points="539.5,-944 539.5,-966 762.5,-966 762.5,-944 539.5,-944"/>
<text text-anchor="start" x="544.5" y="-953.2" font-family="Helvetica,sans-Serif" font-weight="bold" font-size="11.00">ad_user</text>
<text text-anchor="start" x="727.5" y="-952.2" font-family="Helvetica,sans-Serif" font-size="11.00">[table]</text>
<polygon fill="none" stroke="black" points="539.5,-922 539.5,-944 762.5,-944 762.5,-922 539.5,-922"/>
<image xlink:href="../../images/primaryKeys.png" width="11px" height="12px" preserveAspectRatio="xMinYMin meet" x="544.5" y="-939"/>
<text text-anchor="start" x="559.5" y="-930.2" font-family="Helvetica,sans-Serif" font-size="11.00">ad_user_id</text>
<polygon fill="none" stroke="black" points="539.5,-900 539.5,-922 762.5,-922 762.5,-900 539.5,-900"/>
<image xlink:href="../../images/foreignKeys.png" width="11px" height="12px" preserveAspectRatio="xMinYMin meet" x="544.5" y="-917"/>
<text text-anchor="start" x="559.5" y="-908.2" font-family="Helvetica,sans-Serif" font-size="11.00">ad_client_id</text>
<polygon fill="none" stroke="black" points="539.5,-878 539.5,-900 762.5,-900 762.5,-878 539.5,-878"/>
<image xlink:href="../../images/foreignKeys.png" width="11px" height="12px" preserveAspectRatio="xMinYMin meet" x="544.5" y="-895"/>
<text text-anchor="start" x="559.5" y="-886.2" font-family="Helvetica,sans-Serif" font-size="11.00">ad_org_id</text>
<polygon fill="#ffffff" stroke="transparent" points="539.5,-856 539.5,-878 762.5,-878 762.5,-856 539.5,-856"/>
<polygon fill="none" stroke="black" points="539.5,-856 539.5,-878 762.5,-878 762.5,-856 539.5,-856"/>
<text text-anchor="start" x="559.5" y="-864.2" font-family="Helvetica,sans-Serif" font-size="11.00">name</text>
<polygon fill="#ffffff" stroke="transparent" points="539.5,-834 539.5,-856 762.5,-856 762.5,-834 539.5,-834"/>
<polygon fill="none" stroke="black" points="539.5,-834 539.5,-856 762.5,-856 762.5,-834 539.5,-834"/>
<text text-anchor="start" x="559.5" y="-842.2" font-family="Helvetica,sans-Serif" font-size="11.00">email</text>
<polygon fill="none" stroke="black" points="539.5,-812 539.5,-834 762.5,-834 762.5,-812 539.5,-812"/>
<image xlink:href="../../images/foreignKeys.png" width="11px" height="12px" preserveAspectRatio="xMinYMin meet" x="544.5" y="-829"/>
<text text-anchor="start" x="559.5" y="-820.2" font-family="Helvetica,sans-Serif" font-size="11.00">supervisor_id</text>
<polygon fill="#ffffff" stroke="transparent" points="539.5,-790 539.5,-812 762.5,-812 762.5,-790 539.5,-790"/>
<polygon fill="none" stroke="black" points="539.5,-790 539.5,-812 762.5,-812 762.5,-790 539.5,-790"/>
<image xlink:href="../../images/foreignKeys.png" width="11px" height="12px" preserveAspectRatio="xMinYMin meet" x="544.5" y="-807"/>
<text text-anchor="start" x="559.5" y="-798.2" font-family="Helvetica,sans-Serif" font-size="11.00">c_bpartner_id</text>
<polygon fill="none" stroke="black" points="539.5,-768 539.5,-790 762.5,-790 762.5,-768 539.5,-768"/>
<image xlink:href="../../images/foreignKeys.png" width="11px" height="12px" preserveAspectRatio="xMinYMin meet" x="544.5" y="-785"/>
<text text-anchor="start" x="559.5" y="-776.2" font-family="Helvetica,sans-Serif" font-size="11.00">c_bpartner_location_id</text>
<polygon fill="none" stroke="black" points="539.5,-746 539.5,-768 762.5,-768 762.5,-746 539.5,-746"/>
<image xlink:href="../../images/foreignKeys.png" width="11px" height="12px" preserveAspectRatio="xMinYMin meet" x="544.5" y="-763"/>
<text text-anchor="start" x="559.5" y="-754.2" font-family="Helvetica,sans-Serif" font-size="11.00">c_greeting_id</text>
<polygon fill="none" stroke="black" points="539.5,-724 539.5,-746 762.5,-746 762.5,-724 539.5,-724"/>
<image xlink:href="../../images/foreignKeys.png" width="11px" height="12px" preserveAspectRatio="xMinYMin meet" x="544.5" y="-741"/>
<text text-anchor="start" x="559.5" y="-732.2" font-family="Helvetica,sans-Serif" font-size="11.00">ad_orgtrx_id</text>
<polygon fill="none" stroke="black" points="539.5,-702 539.5,-724 762.5,-724 762.5,-702 539.5,-702"/>
<image xlink:href="../../images/foreignKeys.png" width="11px" height="12px" preserveAspectRatio="xMinYMin meet" x="544.5" y="-719"/>
<text text-anchor="start" x="559.5" y="-710.2" font-family="Helvetica,sans-Serif" font-size="11.00">c_job_id</text>
<polygon fill="#ffffff" stroke="transparent" points="539.5,-680 539.5,-702 762.5,-702 762.5,-680 539.5,-680"/>
<polygon fill="none" stroke="black" points="539.5,-680 539.5,-702 762.5,-702 762.5,-680 539.5,-680"/>
<text text-anchor="start" x="559.5" y="-688.2" font-family="Helvetica,sans-Serif" font-size="11.00">ad_user_uu</text>
<polygon fill="none" stroke="black" points="539.5,-658 539.5,-680 762.5,-680 762.5,-658 539.5,-658"/>
<image xlink:href="../../images/foreignKeys.png" width="11px" height="12px" preserveAspectRatio="xMinYMin meet" x="544.5" y="-675"/>
<text text-anchor="start" x="559.5" y="-666.2" font-family="Helvetica,sans-Serif" font-size="11.00">c_location_id</text>
<polygon fill="none" stroke="black" points="539.5,-636 539.5,-658 762.5,-658 762.5,-636 539.5,-636"/>
<image xlink:href="../../images/foreignKeys.png" width="11px" height="12px" preserveAspectRatio="xMinYMin meet" x="544.5" y="-653"/>
<text text-anchor="start" x="559.5" y="-644.2" font-family="Helvetica,sans-Serif" font-size="11.00">c_campaign_id</text>
<polygon fill="none" stroke="black" points="539.5,-614 539.5,-636 762.5,-636 762.5,-614 539.5,-614"/>
<image xlink:href="../../images/foreignKeys.png" width="11px" height="12px" preserveAspectRatio="xMinYMin meet" x="544.5" y="-631"/>
<text text-anchor="start" x="559.5" y="-622.2" font-family="Helvetica,sans-Serif" font-size="11.00">salesrep_id</text>
<polygon fill="none" stroke="black" points="539.5,-592 539.5,-614 762.5,-614 762.5,-592 539.5,-592"/>
<image xlink:href="../../images/foreignKeys.png" width="11px" height="12px" preserveAspectRatio="xMinYMin meet" x="544.5" y="-609"/>
<text text-anchor="start" x="559.5" y="-600.2" font-family="Helvetica,sans-Serif" font-size="11.00">bp_location_id</text>
<polygon fill="none" stroke="black" points="539.5,-570 539.5,-592 762.5,-592 762.5,-570 539.5,-570"/>
<image xlink:href="../../images/foreignKeys.png" width="11px" height="12px" preserveAspectRatio="xMinYMin meet" x="544.5" y="-587"/>
<text text-anchor="start" x="559.5" y="-578.2" font-family="Helvetica,sans-Serif" font-size="11.00">r_defaultmailtext_id</text>
<polygon fill="none" stroke="black" points="539.5,-548 539.5,-570 762.5,-570 762.5,-548 539.5,-548"/>
<image xlink:href="../../images/foreignKeys.png" width="11px" height="12px" preserveAspectRatio="xMinYMin meet" x="544.5" y="-565"/>
<text text-anchor="start" x="559.5" y="-556.2" font-family="Helvetica,sans-Serif" font-size="11.00">cof_c_marketsegment_id</text>
<polygon fill="none" stroke="black" points="539.5,-526 539.5,-548 762.5,-548 762.5,-526 539.5,-526"/>
<image xlink:href="../../images/foreignKeys.png" width="11px" height="12px" preserveAspectRatio="xMinYMin meet" x="544.5" y="-543"/>
<text text-anchor="start" x="559.5" y="-534.2" font-family="Helvetica,sans-Serif" font-size="11.00">cof_c_leadexpirationreason_id</text>
<polygon fill="none" stroke="black" points="539.5,-504 539.5,-526 762.5,-526 762.5,-504 539.5,-504"/>
<image xlink:href="../../images/foreignKeys.png" width="11px" height="12px" preserveAspectRatio="xMinYMin meet" x="544.5" y="-521"/>
<text text-anchor="start" x="559.5" y="-512.2" font-family="Helvetica,sans-Serif" font-size="11.00">ad_image_id</text>
<polygon fill="none" stroke="black" points="539.5,-482 539.5,-504 762.5,-504 762.5,-482 539.5,-482"/>
<image xlink:href="../../images/foreignKeys.png" width="11px" height="12px" preserveAspectRatio="xMinYMin meet" x="544.5" y="-499"/>
<text text-anchor="start" x="559.5" y="-490.2" font-family="Helvetica,sans-Serif" font-size="11.00">c_subscription_id</text>
<polygon fill="none" stroke="black" points="539.5,-464 539.5,-482 762.5,-482 762.5,-464 539.5,-464"/>
<text text-anchor="start" x="542.5" y="-470.2" font-family="Helvetica,sans-Serif" font-size="11.00">...</text>
<polygon fill="#ffffff" stroke="transparent" points="539.5,-446 539.5,-464 628.5,-464 628.5,-446 539.5,-446"/>
<polygon fill="none" stroke="black" points="539.5,-446 539.5,-464 628.5,-464 628.5,-446 539.5,-446"/>
<text text-anchor="start" x="542.5" y="-452.2" font-family="Helvetica,sans-Serif" font-size="11.00">&lt; 17</text>
<polygon fill="#ffffff" stroke="transparent" points="628.5,-446 628.5,-464 697.5,-464 697.5,-446 628.5,-446"/>
<polygon fill="none" stroke="black" points="628.5,-446 628.5,-464 697.5,-464 697.5,-446 628.5,-446"/>
<text text-anchor="start" x="661.5" y="-452.2" font-family="Helvetica,sans-Serif" font-size="11.00">8 rows</text>
<polygon fill="#ffffff" stroke="transparent" points="697.5,-446 697.5,-464 762.5,-464 762.5,-446 697.5,-446"/>
<polygon fill="none" stroke="black" points="697.5,-446 697.5,-464 762.5,-464 762.5,-446 697.5,-446"/>
<text text-anchor="start" x="731.5" y="-452.2" font-family="Helvetica,sans-Serif" font-size="11.00">316 &gt;</text>
</a>
</g>
</g>
<!-- ad_user&#45;&gt;ad_org -->
<g id="edge3" class="edge">
<title>ad_user:w&#45;&gt;ad_org:e</title>
<path fill="none" stroke="black" d="M523.8,-889C507.88,-889 499.22,-889 478,-889"/>
<polygon fill="black" stroke="black" points="530.5,-889 538.5,-892.6 534.5,-889 538.5,-889 538.5,-889 538.5,-889 534.5,-889 538.5,-885.4 530.5,-889 530.5,-889"/>
<ellipse fill="none" stroke="black" cx="527.3" cy="-889" rx="3.2" ry="3.2"/>
</g>
<!-- ad_user&#45;&gt;ad_org -->
<g id="edge4" class="edge">
<title>ad_user:w&#45;&gt;ad_org:e</title>
<path fill="none" stroke="black" d="M524.04,-737.67C477.51,-758.12 545.79,-889 478,-889"/>
<polygon fill="black" stroke="black" points="530.63,-736.45 539.15,-738.54 534.57,-735.73 538.5,-735 538.5,-735 538.5,-735 534.57,-735.73 537.85,-731.46 530.63,-736.45 530.63,-736.45"/>
<ellipse fill="none" stroke="black" cx="527.49" cy="-737.04" rx="3.2" ry="3.2"/>
</g>
<!-- ad_user&#45;&gt;ad_client -->
<g id="edge2" class="edge">
<title>ad_user:w&#45;&gt;ad_client:e</title>
<path fill="none" stroke="black" d="M524.04,-913.2C510.41,-917.86 504.4,-928.64 485,-933 377.32,-957.22 347.37,-946 237,-946"/>
<polygon fill="black" stroke="black" points="530.59,-912.21 539.04,-914.56 534.55,-911.6 538.5,-911 538.5,-911 538.5,-911 534.55,-911.6 537.96,-907.44 530.59,-912.21 530.59,-912.21"/>
<ellipse fill="none" stroke="black" cx="527.43" cy="-912.69" rx="3.2" ry="3.2"/>
</g>
<!-- lbr_docfiscal_line_arma -->
<g id="node4" class="node">
<title>lbr_docfiscal_line_arma</title>
<g id="a_node4"><a xlink:href="../../tables/lbr_docfiscal_line_arma.html" xlink:title="lbr_docfiscal_line_arma" target="_top">
<polygon fill="#ffffff" stroke="transparent" points="824,-695 824,-1047 1110,-1047 1110,-695 824,-695"/>
<polygon fill="#f5f5f5" stroke="transparent" points="826,-1023 826,-1045 1108,-1045 1108,-1023 826,-1023"/>
<polygon fill="none" stroke="black" points="826,-1023 826,-1045 1108,-1045 1108,-1023 826,-1023"/>
<text text-anchor="start" x="831" y="-1032.2" font-family="Helvetica,sans-Serif" font-weight="bold" font-size="11.00">lbr_docfiscal_line_arma</text>
<text text-anchor="start" x="1073" y="-1031.2" font-family="Helvetica,sans-Serif" font-size="11.00">[table]</text>
<polygon fill="none" stroke="black" points="826,-1001 826,-1023 1025,-1023 1025,-1001 826,-1001"/>
<image xlink:href="../../images/foreignKeys.png" width="11px" height="12px" preserveAspectRatio="xMinYMin meet" x="831" y="-1018"/>
<text text-anchor="start" x="846" y="-1009.2" font-family="Helvetica,sans-Serif" font-size="11.00">ad_client_id</text>
<polygon fill="none" stroke="black" points="1025,-1001 1025,-1023 1108,-1023 1108,-1001 1025,-1001"/>
<text text-anchor="start" x="1028" y="-1009.2" font-family="Helvetica,sans-Serif" font-size="11.00">numeric[10]</text>
<polygon fill="none" stroke="black" points="826,-979 826,-1001 1025,-1001 1025,-979 826,-979"/>
<image xlink:href="../../images/foreignKeys.png" width="11px" height="12px" preserveAspectRatio="xMinYMin meet" x="831" y="-996"/>
<text text-anchor="start" x="846" y="-987.2" font-family="Helvetica,sans-Serif" font-size="11.00">ad_org_id</text>
<polygon fill="none" stroke="black" points="1025,-979 1025,-1001 1108,-1001 1108,-979 1025,-979"/>
<text text-anchor="start" x="1028" y="-987.2" font-family="Helvetica,sans-Serif" font-size="11.00">numeric[10]</text>
<polygon fill="none" stroke="black" points="826,-957 826,-979 1025,-979 1025,-957 826,-957"/>
<text text-anchor="start" x="846" y="-965.2" font-family="Helvetica,sans-Serif" font-size="11.00">created</text>
<polygon fill="none" stroke="black" points="1025,-957 1025,-979 1108,-979 1108,-957 1025,-957"/>
<text text-anchor="start" x="1028" y="-965.2" font-family="Helvetica,sans-Serif" font-size="11.00">timestamp[29,6]</text>
<polygon fill="none" stroke="black" points="826,-935 826,-957 1025,-957 1025,-935 826,-935"/>
<image xlink:href="../../images/foreignKeys.png" width="11px" height="12px" preserveAspectRatio="xMinYMin meet" x="831" y="-952"/>
<text text-anchor="start" x="846" y="-943.2" font-family="Helvetica,sans-Serif" font-size="11.00">createdby</text>
<polygon fill="none" stroke="black" points="1025,-935 1025,-957 1108,-957 1108,-935 1025,-935"/>
<text text-anchor="start" x="1028" y="-943.2" font-family="Helvetica,sans-Serif" font-size="11.00">numeric[10]</text>
<polygon fill="none" stroke="black" points="826,-913 826,-935 1025,-935 1025,-913 826,-913"/>
<text text-anchor="start" x="846" y="-921.2" font-family="Helvetica,sans-Serif" font-size="11.00">isactive</text>
<polygon fill="none" stroke="black" points="1025,-913 1025,-935 1108,-935 1108,-913 1025,-913"/>
<text text-anchor="start" x="1028" y="-921.2" font-family="Helvetica,sans-Serif" font-size="11.00">bpchar[1]</text>
<polygon fill="none" stroke="black" points="826,-891 826,-913 1025,-913 1025,-891 826,-891"/>
<image xlink:href="../../images/primaryKeys.png" width="11px" height="12px" preserveAspectRatio="xMinYMin meet" x="831" y="-908"/>
<text text-anchor="start" x="846" y="-899.2" font-family="Helvetica,sans-Serif" font-size="11.00">lbr_docfiscal_line_arma_id</text>
<polygon fill="none" stroke="black" points="1025,-891 1025,-913 1108,-913 1108,-891 1025,-891"/>
<text text-anchor="start" x="1028" y="-899.2" font-family="Helvetica,sans-Serif" font-size="11.00">numeric[10]</text>
<polygon fill="none" stroke="black" points="826,-869 826,-891 1025,-891 1025,-869 826,-869"/>
<image xlink:href="../../images/foreignKeys.png" width="11px" height="12px" preserveAspectRatio="xMinYMin meet" x="831" y="-886"/>
<text text-anchor="start" x="846" y="-877.2" font-family="Helvetica,sans-Serif" font-size="11.00">lbr_docfiscal_line_id</text>
<polygon fill="none" stroke="black" points="1025,-869 1025,-891 1108,-891 1108,-869 1025,-869"/>
<text text-anchor="start" x="1028" y="-877.2" font-family="Helvetica,sans-Serif" font-size="11.00">numeric[10]</text>
<polygon fill="none" stroke="black" points="826,-847 826,-869 1025,-869 1025,-847 826,-847"/>
<text text-anchor="start" x="846" y="-855.2" font-family="Helvetica,sans-Serif" font-size="11.00">updated</text>
<polygon fill="none" stroke="black" points="1025,-847 1025,-869 1108,-869 1108,-847 1025,-847"/>
<text text-anchor="start" x="1028" y="-855.2" font-family="Helvetica,sans-Serif" font-size="11.00">timestamp[29,6]</text>
<polygon fill="none" stroke="black" points="826,-825 826,-847 1025,-847 1025,-825 826,-825"/>
<image xlink:href="../../images/foreignKeys.png" width="11px" height="12px" preserveAspectRatio="xMinYMin meet" x="831" y="-842"/>
<text text-anchor="start" x="846" y="-833.2" font-family="Helvetica,sans-Serif" font-size="11.00">updatedby</text>
<polygon fill="none" stroke="black" points="1025,-825 1025,-847 1108,-847 1108,-825 1025,-825"/>
<text text-anchor="start" x="1028" y="-833.2" font-family="Helvetica,sans-Serif" font-size="11.00">numeric[10]</text>
<polygon fill="none" stroke="black" points="826,-803 826,-825 1025,-825 1025,-803 826,-803"/>
<text text-anchor="start" x="846" y="-811.2" font-family="Helvetica,sans-Serif" font-size="11.00">det_prod_arma_tparma</text>
<polygon fill="none" stroke="black" points="1025,-803 1025,-825 1108,-825 1108,-803 1025,-803"/>
<text text-anchor="start" x="1028" y="-811.2" font-family="Helvetica,sans-Serif" font-size="11.00">bpchar[1]</text>
<polygon fill="none" stroke="black" points="826,-781 826,-803 1025,-803 1025,-781 826,-781"/>
<text text-anchor="start" x="846" y="-789.2" font-family="Helvetica,sans-Serif" font-size="11.00">det_prod_arma_nserie</text>
<polygon fill="none" stroke="black" points="1025,-781 1025,-803 1108,-803 1108,-781 1025,-781"/>
<text text-anchor="start" x="1028" y="-789.2" font-family="Helvetica,sans-Serif" font-size="11.00">varchar[15]</text>
<polygon fill="none" stroke="black" points="826,-759 826,-781 1025,-781 1025,-759 826,-759"/>
<text text-anchor="start" x="846" y="-767.2" font-family="Helvetica,sans-Serif" font-size="11.00">det_prod_arma_ncano</text>
<polygon fill="none" stroke="black" points="1025,-759 1025,-781 1108,-781 1108,-759 1025,-759"/>
<text text-anchor="start" x="1028" y="-767.2" font-family="Helvetica,sans-Serif" font-size="11.00">varchar[15]</text>
<polygon fill="none" stroke="black" points="826,-737 826,-759 1025,-759 1025,-737 826,-737"/>
<text text-anchor="start" x="846" y="-745.2" font-family="Helvetica,sans-Serif" font-size="11.00">det_prod_arma_descr</text>
<polygon fill="none" stroke="black" points="1025,-737 1025,-759 1108,-759 1108,-737 1025,-737"/>
<text text-anchor="start" x="1028" y="-745.2" font-family="Helvetica,sans-Serif" font-size="11.00">varchar[256]</text>
<polygon fill="#ffffff" stroke="transparent" points="826,-715 826,-737 1025,-737 1025,-715 826,-715"/>
<polygon fill="none" stroke="black" points="826,-715 826,-737 1025,-737 1025,-715 826,-715"/>
<text text-anchor="start" x="846" y="-723.2" font-family="Helvetica,sans-Serif" font-size="11.00">lbr_docfiscal_line_arma_uu</text>
<polygon fill="none" stroke="black" points="1025,-715 1025,-737 1108,-737 1108,-715 1025,-715"/>
<text text-anchor="start" x="1028" y="-723.2" font-family="Helvetica,sans-Serif" font-size="11.00">varchar[36]</text>
<polygon fill="#ffffff" stroke="transparent" points="826,-697 826,-715 917,-715 917,-697 826,-697"/>
<polygon fill="none" stroke="black" points="826,-697 826,-715 917,-715 917,-697 826,-697"/>
<text text-anchor="start" x="829" y="-703.2" font-family="Helvetica,sans-Serif" font-size="11.00">&lt; 5</text>
<polygon fill="#ffffff" stroke="transparent" points="917,-697 917,-715 1025,-715 1025,-697 917,-697"/>
<polygon fill="none" stroke="black" points="917,-697 917,-715 1025,-715 1025,-697 917,-697"/>
<text text-anchor="start" x="989" y="-703.2" font-family="Helvetica,sans-Serif" font-size="11.00">0 rows</text>
<polygon fill="#ffffff" stroke="transparent" points="1025,-697 1025,-715 1108,-715 1108,-697 1025,-697"/>
<polygon fill="none" stroke="black" points="1025,-697 1025,-715 1108,-715 1108,-697 1025,-697"/>
<text text-anchor="start" x="1089" y="-703.2" font-family="Helvetica,sans-Serif" font-size="11.00">0 &gt;</text>
<polygon fill="none" stroke="black" stroke-width="2" points="825,-696 825,-1046 1109,-1046 1109,-696 825,-696"/>
</a>
</g>
</g>
<!-- lbr_docfiscal_line_arma&#45;&gt;ad_org -->
<g id="edge6" class="edge">
<title>lbr_docfiscal_line_arma:w&#45;&gt;ad_org:e</title>
<path fill="none" stroke="black" d="M810.44,-990.29C733.76,-992.98 570.97,-1012.71 518,-977 482.38,-952.98 520.96,-889 478,-889"/>
<polygon fill="black" stroke="black" points="817,-990.16 825.07,-993.6 821,-990.08 825,-990 825,-990 825,-990 821,-990.08 824.93,-986.4 817,-990.16 817,-990.16"/>
<ellipse fill="none" stroke="black" cx="813.8" cy="-990.22" rx="3.2" ry="3.2"/>
</g>
<!-- lbr_docfiscal_line_arma&#45;&gt;ad_client -->
<g id="edge5" class="edge">
<title>lbr_docfiscal_line_arma:w&#45;&gt;ad_client:e</title>
<path fill="none" stroke="black" d="M810.58,-1012C685.76,-1012.02 648.81,-1012 518,-997 486.47,-993.38 268.73,-946 237,-946"/>
<polygon fill="black" stroke="black" points="817,-1012 825,-1015.6 821,-1012 825,-1012 825,-1012 825,-1012 821,-1012 825,-1008.4 817,-1012 817,-1012"/>
<ellipse fill="none" stroke="black" cx="813.8" cy="-1012" rx="3.2" ry="3.2"/>
</g>
<!-- lbr_docfiscal_line_arma&#45;&gt;ad_user -->
<g id="edge7" class="edge">
<title>lbr_docfiscal_line_arma:w&#45;&gt;ad_user:e</title>
<path fill="none" stroke="black" d="M810.36,-944.61C793.86,-941.26 785.76,-933 763.5,-933"/>
<polygon fill="black" stroke="black" points="817.04,-945.24 824.66,-949.58 821.02,-945.62 825,-946 825,-946 825,-946 821.02,-945.62 825.34,-942.42 817.04,-945.24 817.04,-945.24"/>
<ellipse fill="none" stroke="black" cx="813.85" cy="-944.94" rx="3.2" ry="3.2"/>
</g>
<!-- lbr_docfiscal_line_arma&#45;&gt;ad_user -->
<g id="edge9" class="edge">
<title>lbr_docfiscal_line_arma:w&#45;&gt;ad_user:e</title>
<path fill="none" stroke="black" d="M810.91,-839.45C781.97,-856.73 808.76,-933 763.5,-933"/>
<polygon fill="black" stroke="black" points="817.23,-837.9 825.86,-839.5 821.11,-836.95 825,-836 825,-836 825,-836 821.11,-836.95 824.14,-832.5 817.23,-837.9 817.23,-837.9"/>
<ellipse fill="none" stroke="black" cx="814.12" cy="-838.67" rx="3.2" ry="3.2"/>
</g>
<!-- lbr_docfiscal_line -->
<g id="node5" class="node">
<title>lbr_docfiscal_line</title>
<g id="a_node5"><a xlink:href="../../tables/lbr_docfiscal_line.html" xlink:title="lbr_docfiscal_line" target="_top">
<polygon fill="#ffffff" stroke="transparent" points="526,-37 526,-425 775,-425 775,-37 526,-37"/>
<polygon fill="#f5f5f5" stroke="transparent" points="526.5,-403 526.5,-425 775.5,-425 775.5,-403 526.5,-403"/>
<polygon fill="none" stroke="black" points="526.5,-403 526.5,-425 775.5,-425 775.5,-403 526.5,-403"/>
<text text-anchor="start" x="531.5" y="-412.2" font-family="Helvetica,sans-Serif" font-weight="bold" font-size="11.00">lbr_docfiscal_line</text>
<text text-anchor="start" x="740.5" y="-411.2" font-family="Helvetica,sans-Serif" font-size="11.00">[table]</text>
<polygon fill="none" stroke="black" points="526.5,-381 526.5,-403 775.5,-403 775.5,-381 526.5,-381"/>
<image xlink:href="../../images/primaryKeys.png" width="11px" height="12px" preserveAspectRatio="xMinYMin meet" x="531.5" y="-398"/>
<text text-anchor="start" x="546.5" y="-389.2" font-family="Helvetica,sans-Serif" font-size="11.00">lbr_docfiscal_line_id</text>
<polygon fill="none" stroke="black" points="526.5,-359 526.5,-381 775.5,-381 775.5,-359 526.5,-359"/>
<image xlink:href="../../images/foreignKeys.png" width="11px" height="12px" preserveAspectRatio="xMinYMin meet" x="531.5" y="-376"/>
<text text-anchor="start" x="546.5" y="-367.2" font-family="Helvetica,sans-Serif" font-size="11.00">lbr_docfiscal_id</text>
<polygon fill="none" stroke="black" points="526.5,-337 526.5,-359 775.5,-359 775.5,-337 526.5,-337"/>
<image xlink:href="../../images/foreignKeys.png" width="11px" height="12px" preserveAspectRatio="xMinYMin meet" x="531.5" y="-354"/>
<text text-anchor="start" x="546.5" y="-345.2" font-family="Helvetica,sans-Serif" font-size="11.00">m_product_id</text>
<polygon fill="none" stroke="black" points="526.5,-315 526.5,-337 775.5,-337 775.5,-315 526.5,-315"/>
<image xlink:href="../../images/foreignKeys.png" width="11px" height="12px" preserveAspectRatio="xMinYMin meet" x="531.5" y="-332"/>
<text text-anchor="start" x="546.5" y="-323.2" font-family="Helvetica,sans-Serif" font-size="11.00">c_charge_id</text>
<polygon fill="none" stroke="black" points="526.5,-293 526.5,-315 775.5,-315 775.5,-293 526.5,-293"/>
<image xlink:href="../../images/foreignKeys.png" width="11px" height="12px" preserveAspectRatio="xMinYMin meet" x="531.5" y="-310"/>
<text text-anchor="start" x="546.5" y="-301.2" font-family="Helvetica,sans-Serif" font-size="11.00">m_attributesetinstance_id</text>
<polygon fill="none" stroke="black" points="526.5,-271 526.5,-293 775.5,-293 775.5,-271 526.5,-271"/>
<image xlink:href="../../images/foreignKeys.png" width="11px" height="12px" preserveAspectRatio="xMinYMin meet" x="531.5" y="-288"/>
<text text-anchor="start" x="546.5" y="-279.2" font-family="Helvetica,sans-Serif" font-size="11.00">lbr_cfop_id</text>
<polygon fill="none" stroke="black" points="526.5,-249 526.5,-271 775.5,-271 775.5,-249 526.5,-249"/>
<image xlink:href="../../images/foreignKeys.png" width="11px" height="12px" preserveAspectRatio="xMinYMin meet" x="531.5" y="-266"/>
<text text-anchor="start" x="546.5" y="-257.2" font-family="Helvetica,sans-Serif" font-size="11.00">c_invoiceline_id</text>
<polygon fill="none" stroke="black" points="526.5,-227 526.5,-249 775.5,-249 775.5,-227 526.5,-227"/>
<image xlink:href="../../images/foreignKeys.png" width="11px" height="12px" preserveAspectRatio="xMinYMin meet" x="531.5" y="-244"/>
<text text-anchor="start" x="546.5" y="-235.2" font-family="Helvetica,sans-Serif" font-size="11.00">c_uom_id</text>
<polygon fill="#ffffff" stroke="transparent" points="526.5,-205 526.5,-227 775.5,-227 775.5,-205 526.5,-205"/>
<polygon fill="none" stroke="black" points="526.5,-205 526.5,-227 775.5,-227 775.5,-205 526.5,-205"/>
<text text-anchor="start" x="546.5" y="-213.2" font-family="Helvetica,sans-Serif" font-size="11.00">lbr_docfiscal_line_uu</text>
<polygon fill="none" stroke="black" points="526.5,-183 526.5,-205 775.5,-205 775.5,-183 526.5,-183"/>
<image xlink:href="../../images/foreignKeys.png" width="11px" height="12px" preserveAspectRatio="xMinYMin meet" x="531.5" y="-200"/>
<text text-anchor="start" x="546.5" y="-191.2" font-family="Helvetica,sans-Serif" font-size="11.00">m_inoutline_id</text>
<polygon fill="none" stroke="black" points="526.5,-161 526.5,-183 775.5,-183 775.5,-161 526.5,-161"/>
<image xlink:href="../../images/foreignKeys.png" width="11px" height="12px" preserveAspectRatio="xMinYMin meet" x="531.5" y="-178"/>
<text text-anchor="start" x="546.5" y="-169.2" font-family="Helvetica,sans-Serif" font-size="11.00">m_movementline_id</text>
<polygon fill="none" stroke="black" points="526.5,-139 526.5,-161 775.5,-161 775.5,-139 526.5,-139"/>
<image xlink:href="../../images/foreignKeys.png" width="11px" height="12px" preserveAspectRatio="xMinYMin meet" x="531.5" y="-156"/>
<text text-anchor="start" x="546.5" y="-147.2" font-family="Helvetica,sans-Serif" font-size="11.00">lbr_ncm_id</text>
<polygon fill="none" stroke="black" points="526.5,-117 526.5,-139 775.5,-139 775.5,-117 526.5,-117"/>
<image xlink:href="../../images/foreignKeys.png" width="11px" height="12px" preserveAspectRatio="xMinYMin meet" x="531.5" y="-134"/>
<text text-anchor="start" x="546.5" y="-125.2" font-family="Helvetica,sans-Serif" font-size="11.00">cof_invoiceline_id</text>
<polygon fill="none" stroke="black" points="526.5,-95 526.5,-117 775.5,-117 775.5,-95 526.5,-95"/>
<image xlink:href="../../images/foreignKeys.png" width="11px" height="12px" preserveAspectRatio="xMinYMin meet" x="531.5" y="-112"/>
<text text-anchor="start" x="546.5" y="-103.2" font-family="Helvetica,sans-Serif" font-size="11.00">c_orderline_id</text>
<polygon fill="none" stroke="black" points="526.5,-73 526.5,-95 775.5,-95 775.5,-73 526.5,-73"/>
<image xlink:href="../../images/foreignKeys.png" width="11px" height="12px" preserveAspectRatio="xMinYMin meet" x="531.5" y="-90"/>
<text text-anchor="start" x="546.5" y="-81.2" font-family="Helvetica,sans-Serif" font-size="11.00">cof_cbenef_config_id</text>
<polygon fill="none" stroke="black" points="526.5,-55 526.5,-73 775.5,-73 775.5,-55 526.5,-55"/>
<text text-anchor="start" x="529.5" y="-61.2" font-family="Helvetica,sans-Serif" font-size="11.00">...</text>
<polygon fill="#ffffff" stroke="transparent" points="526.5,-37 526.5,-55 631.5,-55 631.5,-37 526.5,-37"/>
<polygon fill="none" stroke="black" points="526.5,-37 526.5,-55 631.5,-55 631.5,-37 526.5,-37"/>
<text text-anchor="start" x="529.5" y="-43.2" font-family="Helvetica,sans-Serif" font-size="11.00">&lt; 7</text>
<polygon fill="#ffffff" stroke="transparent" points="631.5,-37 631.5,-55 711.5,-55 711.5,-37 631.5,-37"/>
<polygon fill="none" stroke="black" points="631.5,-37 631.5,-55 711.5,-55 711.5,-37 631.5,-37"/>
<text text-anchor="start" x="675.5" y="-43.2" font-family="Helvetica,sans-Serif" font-size="11.00">0 rows</text>
<polygon fill="#ffffff" stroke="transparent" points="711.5,-37 711.5,-55 775.5,-55 775.5,-37 711.5,-37"/>
<polygon fill="none" stroke="black" points="711.5,-37 711.5,-55 775.5,-55 775.5,-37 711.5,-37"/>
<text text-anchor="start" x="756.5" y="-43.2" font-family="Helvetica,sans-Serif" font-size="11.00">8 &gt;</text>
</a>
</g>
</g>
<!-- lbr_docfiscal_line_arma&#45;&gt;lbr_docfiscal_line -->
<g id="edge8" class="edge">
<title>lbr_docfiscal_line_arma:w&#45;&gt;lbr_docfiscal_line:e</title>
<path fill="none" stroke="black" d="M810.96,-876.62C731.91,-833.51 880.16,-392 776.5,-392"/>
<polygon fill="black" stroke="black" points="817.22,-878.13 824.16,-883.5 821.11,-879.06 825,-880 825,-880 825,-880 821.11,-879.06 825.84,-876.5 817.22,-878.13 817.22,-878.13"/>
<ellipse fill="none" stroke="black" cx="814.11" cy="-877.38" rx="3.2" ry="3.2"/>
</g>
</g>
</svg>
