<?xml version="1.0" encoding="UTF-8" standalone="no"?>
<!DOCTYPE svg PUBLIC "-//W3C//DTD SVG 1.1//EN"
 "http://www.w3.org/Graphics/SVG/1.1/DTD/svg11.dtd">
<!-- Generated by graphviz version 2.43.0 (0)
 -->
<!-- Title: oneDegreeRelationshipsDiagramImplied Pages: 1 -->
<svg width="828pt" height="529pt"
 viewBox="0.00 0.00 828.00 529.00" xmlns="http://www.w3.org/2000/svg" xmlns:xlink="http://www.w3.org/1999/xlink">
<g id="graph0" class="graph" transform="scale(1 1) rotate(0) translate(4 525)">
<title>oneDegreeRelationshipsDiagramImplied</title>
<polygon fill="#ffffff" stroke="transparent" points="-4,4 -4,-525 824,-525 824,4 -4,4"/>
<text text-anchor="middle" x="71.5" y="-7.2" font-family="Helvetica,sans-Serif" font-size="11.00">Generated by SchemaSpy</text>
<!-- cof_rv_confimpostos -->
<g id="node1" class="node">
<title>cof_rv_confimpostos</title>
<g id="a_node1"><a xlink:href="../../tables/cof_rv_confimpostos.html" xlink:title="cof_rv_confimpostos" target="_top">
<polygon fill="#ffffff" stroke="transparent" points="607,-37 607,-517 812,-517 812,-37 607,-37"/>
<polygon fill="#f5f5f5" stroke="transparent" points="607.5,-495 607.5,-517 812.5,-517 812.5,-495 607.5,-495"/>
<polygon fill="none" stroke="black" points="607.5,-495 607.5,-517 812.5,-517 812.5,-495 607.5,-495"/>
<text text-anchor="start" x="612.5" y="-504.2" font-family="Helvetica,sans-Serif" font-weight="bold" font-size="11.00">cof_rv_confimpostos</text>
<text text-anchor="start" x="779.5" y="-503.2" font-family="Helvetica,sans-Serif" font-size="11.00">[view]</text>
<polygon fill="none" stroke="black" points="607.5,-473 607.5,-495 812.5,-495 812.5,-473 607.5,-473"/>
<image xlink:href="../../images/foreignKeys.png" width="11px" height="12px" preserveAspectRatio="xMinYMin meet" x="612.5" y="-490"/>
<text text-anchor="start" x="627.5" y="-481.2" font-family="Helvetica,sans-Serif" font-size="11.00">c_bpartner_id</text>
<polygon fill="none" stroke="black" points="607.5,-451 607.5,-473 812.5,-473 812.5,-451 607.5,-451"/>
<image xlink:href="../../images/foreignKeys.png" width="11px" height="12px" preserveAspectRatio="xMinYMin meet" x="612.5" y="-468"/>
<text text-anchor="start" x="627.5" y="-459.2" font-family="Helvetica,sans-Serif" font-size="11.00">c_doctype_id</text>
<polygon fill="none" stroke="black" points="607.5,-429 607.5,-451 812.5,-451 812.5,-429 607.5,-429"/>
<image xlink:href="../../images/foreignKeys.png" width="11px" height="12px" preserveAspectRatio="xMinYMin meet" x="612.5" y="-446"/>
<text text-anchor="start" x="627.5" y="-437.2" font-family="Helvetica,sans-Serif" font-size="11.00">c_region_id</text>
<polygon fill="none" stroke="black" points="607.5,-407 607.5,-429 812.5,-429 812.5,-407 607.5,-407"/>
<image xlink:href="../../images/foreignKeys.png" width="11px" height="12px" preserveAspectRatio="xMinYMin meet" x="612.5" y="-424"/>
<text text-anchor="start" x="627.5" y="-415.2" font-family="Helvetica,sans-Serif" font-size="11.00">lbr_bpartnercategory_id</text>
<polygon fill="none" stroke="black" points="607.5,-385 607.5,-407 812.5,-407 812.5,-385 607.5,-385"/>
<image xlink:href="../../images/foreignKeys.png" width="11px" height="12px" preserveAspectRatio="xMinYMin meet" x="612.5" y="-402"/>
<text text-anchor="start" x="627.5" y="-393.2" font-family="Helvetica,sans-Serif" font-size="11.00">lbr_fiscalgroup_bpartner_id</text>
<polygon fill="none" stroke="black" points="607.5,-363 607.5,-385 812.5,-385 812.5,-363 607.5,-363"/>
<image xlink:href="../../images/foreignKeys.png" width="11px" height="12px" preserveAspectRatio="xMinYMin meet" x="612.5" y="-380"/>
<text text-anchor="start" x="627.5" y="-371.2" font-family="Helvetica,sans-Serif" font-size="11.00">lbr_fiscalgroup_product_id</text>
<polygon fill="none" stroke="black" points="607.5,-341 607.5,-363 812.5,-363 812.5,-341 607.5,-341"/>
<image xlink:href="../../images/foreignKeys.png" width="11px" height="12px" preserveAspectRatio="xMinYMin meet" x="612.5" y="-358"/>
<text text-anchor="start" x="627.5" y="-349.2" font-family="Helvetica,sans-Serif" font-size="11.00">lbr_ncm_id</text>
<polygon fill="none" stroke="black" points="607.5,-319 607.5,-341 812.5,-341 812.5,-319 607.5,-319"/>
<image xlink:href="../../images/foreignKeys.png" width="11px" height="12px" preserveAspectRatio="xMinYMin meet" x="612.5" y="-336"/>
<text text-anchor="start" x="627.5" y="-327.2" font-family="Helvetica,sans-Serif" font-size="11.00">lbr_productcategory_id</text>
<polygon fill="none" stroke="black" points="607.5,-297 607.5,-319 812.5,-319 812.5,-297 607.5,-297"/>
<image xlink:href="../../images/foreignKeys.png" width="11px" height="12px" preserveAspectRatio="xMinYMin meet" x="612.5" y="-314"/>
<text text-anchor="start" x="627.5" y="-305.2" font-family="Helvetica,sans-Serif" font-size="11.00">lbr_taxdefinition_id</text>
<polygon fill="none" stroke="black" points="607.5,-275 607.5,-297 812.5,-297 812.5,-275 607.5,-275"/>
<image xlink:href="../../images/foreignKeys.png" width="11px" height="12px" preserveAspectRatio="xMinYMin meet" x="612.5" y="-292"/>
<text text-anchor="start" x="627.5" y="-283.2" font-family="Helvetica,sans-Serif" font-size="11.00">lbr_tax_id</text>
<polygon fill="none" stroke="black" points="607.5,-253 607.5,-275 812.5,-275 812.5,-253 607.5,-253"/>
<image xlink:href="../../images/foreignKeys.png" width="11px" height="12px" preserveAspectRatio="xMinYMin meet" x="612.5" y="-270"/>
<text text-anchor="start" x="627.5" y="-261.2" font-family="Helvetica,sans-Serif" font-size="11.00">m_product_id</text>
<polygon fill="none" stroke="black" points="607.5,-231 607.5,-253 812.5,-253 812.5,-231 607.5,-231"/>
<image xlink:href="../../images/foreignKeys.png" width="11px" height="12px" preserveAspectRatio="xMinYMin meet" x="612.5" y="-248"/>
<text text-anchor="start" x="627.5" y="-239.2" font-family="Helvetica,sans-Serif" font-size="11.00">lbr_cfop_id</text>
<polygon fill="none" stroke="black" points="607.5,-209 607.5,-231 812.5,-231 812.5,-209 607.5,-209"/>
<image xlink:href="../../images/foreignKeys.png" width="11px" height="12px" preserveAspectRatio="xMinYMin meet" x="612.5" y="-226"/>
<text text-anchor="start" x="627.5" y="-217.2" font-family="Helvetica,sans-Serif" font-size="11.00">cof_taxdefinition_group_id</text>
<polygon fill="none" stroke="black" points="607.5,-187 607.5,-209 812.5,-209 812.5,-187 607.5,-187"/>
<image xlink:href="../../images/foreignKeys.png" width="11px" height="12px" preserveAspectRatio="xMinYMin meet" x="612.5" y="-204"/>
<text text-anchor="start" x="627.5" y="-195.2" font-family="Helvetica,sans-Serif" font-size="11.00">c_city_id</text>
<polygon fill="none" stroke="black" points="607.5,-165 607.5,-187 812.5,-187 812.5,-165 607.5,-165"/>
<image xlink:href="../../images/foreignKeys.png" width="11px" height="12px" preserveAspectRatio="xMinYMin meet" x="612.5" y="-182"/>
<text text-anchor="start" x="627.5" y="-173.2" font-family="Helvetica,sans-Serif" font-size="11.00">lbr_taxname_id</text>
<polygon fill="none" stroke="black" points="607.5,-143 607.5,-165 812.5,-165 812.5,-143 607.5,-143"/>
<image xlink:href="../../images/foreignKeys.png" width="11px" height="12px" preserveAspectRatio="xMinYMin meet" x="612.5" y="-160"/>
<text text-anchor="start" x="627.5" y="-151.2" font-family="Helvetica,sans-Serif" font-size="11.00">lbr_taxstatus_id</text>
<polygon fill="none" stroke="black" points="607.5,-121 607.5,-143 812.5,-143 812.5,-121 607.5,-121"/>
<image xlink:href="../../images/foreignKeys.png" width="11px" height="12px" preserveAspectRatio="xMinYMin meet" x="612.5" y="-138"/>
<text text-anchor="start" x="627.5" y="-129.2" font-family="Helvetica,sans-Serif" font-size="11.00">cof_modbc_id</text>
<polygon fill="none" stroke="black" points="607.5,-99 607.5,-121 812.5,-121 812.5,-99 607.5,-99"/>
<image xlink:href="../../images/foreignKeys.png" width="11px" height="12px" preserveAspectRatio="xMinYMin meet" x="612.5" y="-116"/>
<text text-anchor="start" x="627.5" y="-107.2" font-family="Helvetica,sans-Serif" font-size="11.00">cof_cenq_id</text>
<polygon fill="none" stroke="black" points="607.5,-77 607.5,-99 812.5,-99 812.5,-77 607.5,-77"/>
<image xlink:href="../../images/foreignKeys.png" width="11px" height="12px" preserveAspectRatio="xMinYMin meet" x="612.5" y="-94"/>
<text text-anchor="start" x="627.5" y="-85.2" font-family="Helvetica,sans-Serif" font-size="11.00">lbr_formula_id</text>
<polygon fill="none" stroke="black" points="607.5,-55 607.5,-77 812.5,-77 812.5,-55 607.5,-55"/>
<image xlink:href="../../images/foreignKeys.png" width="11px" height="12px" preserveAspectRatio="xMinYMin meet" x="612.5" y="-72"/>
<text text-anchor="start" x="627.5" y="-63.2" font-family="Helvetica,sans-Serif" font-size="11.00">cof_motdeson_id</text>
<polygon fill="none" stroke="black" points="607.5,-37 607.5,-55 812.5,-55 812.5,-37 607.5,-37"/>
<text text-anchor="start" x="610.5" y="-43.2" font-family="Helvetica,sans-Serif" font-size="11.00">...</text>
</a>
</g>
</g>
<!-- lbr_fiscalgroup_bpartner -->
<g id="node2" class="node">
<title>lbr_fiscalgroup_bpartner</title>
<g id="a_node2"><a xlink:href="../../tables/lbr_fiscalgroup_bpartner.html" xlink:title="lbr_fiscalgroup_bpartner" target="_top">
<polygon fill="#ffffff" stroke="transparent" points="8,-156 8,-442 304,-442 304,-156 8,-156"/>
<polygon fill="#f5f5f5" stroke="transparent" points="10,-418 10,-440 302,-440 302,-418 10,-418"/>
<polygon fill="none" stroke="black" points="10,-418 10,-440 302,-440 302,-418 10,-418"/>
<text text-anchor="start" x="15" y="-427.2" font-family="Helvetica,sans-Serif" font-weight="bold" font-size="11.00">lbr_fiscalgroup_bpartner</text>
<text text-anchor="start" x="267" y="-426.2" font-family="Helvetica,sans-Serif" font-size="11.00">[table]</text>
<polygon fill="none" stroke="black" points="10,-396 10,-418 219,-418 219,-396 10,-396"/>
<image xlink:href="../../images/primaryKeys.png" width="11px" height="12px" preserveAspectRatio="xMinYMin meet" x="15" y="-413"/>
<text text-anchor="start" x="30" y="-404.2" font-family="Helvetica,sans-Serif" font-size="11.00">lbr_fiscalgroup_bpartner_id</text>
<polygon fill="none" stroke="black" points="219,-396 219,-418 302,-418 302,-396 219,-396"/>
<text text-anchor="start" x="222" y="-404.2" font-family="Helvetica,sans-Serif" font-size="11.00">numeric[10]</text>
<polygon fill="none" stroke="black" points="10,-374 10,-396 219,-396 219,-374 10,-374"/>
<text text-anchor="start" x="30" y="-382.2" font-family="Helvetica,sans-Serif" font-size="11.00">ad_org_id</text>
<polygon fill="none" stroke="black" points="219,-374 219,-396 302,-396 302,-374 219,-374"/>
<text text-anchor="start" x="222" y="-382.2" font-family="Helvetica,sans-Serif" font-size="11.00">numeric[10]</text>
<polygon fill="none" stroke="black" points="10,-352 10,-374 219,-374 219,-352 10,-352"/>
<text text-anchor="start" x="30" y="-360.2" font-family="Helvetica,sans-Serif" font-size="11.00">ad_client_id</text>
<polygon fill="none" stroke="black" points="219,-352 219,-374 302,-374 302,-352 219,-352"/>
<text text-anchor="start" x="222" y="-360.2" font-family="Helvetica,sans-Serif" font-size="11.00">numeric[10]</text>
<polygon fill="none" stroke="black" points="10,-330 10,-352 219,-352 219,-330 10,-330"/>
<text text-anchor="start" x="30" y="-338.2" font-family="Helvetica,sans-Serif" font-size="11.00">isactive</text>
<polygon fill="none" stroke="black" points="219,-330 219,-352 302,-352 302,-330 219,-330"/>
<text text-anchor="start" x="222" y="-338.2" font-family="Helvetica,sans-Serif" font-size="11.00">bpchar[1]</text>
<polygon fill="none" stroke="black" points="10,-308 10,-330 219,-330 219,-308 10,-308"/>
<text text-anchor="start" x="30" y="-316.2" font-family="Helvetica,sans-Serif" font-size="11.00">created</text>
<polygon fill="none" stroke="black" points="219,-308 219,-330 302,-330 302,-308 219,-308"/>
<text text-anchor="start" x="222" y="-316.2" font-family="Helvetica,sans-Serif" font-size="11.00">timestamp[29,6]</text>
<polygon fill="none" stroke="black" points="10,-286 10,-308 219,-308 219,-286 10,-286"/>
<text text-anchor="start" x="30" y="-294.2" font-family="Helvetica,sans-Serif" font-size="11.00">createdby</text>
<polygon fill="none" stroke="black" points="219,-286 219,-308 302,-308 302,-286 219,-286"/>
<text text-anchor="start" x="222" y="-294.2" font-family="Helvetica,sans-Serif" font-size="11.00">numeric[10]</text>
<polygon fill="none" stroke="black" points="10,-264 10,-286 219,-286 219,-264 10,-264"/>
<text text-anchor="start" x="30" y="-272.2" font-family="Helvetica,sans-Serif" font-size="11.00">updated</text>
<polygon fill="none" stroke="black" points="219,-264 219,-286 302,-286 302,-264 219,-264"/>
<text text-anchor="start" x="222" y="-272.2" font-family="Helvetica,sans-Serif" font-size="11.00">timestamp[29,6]</text>
<polygon fill="none" stroke="black" points="10,-242 10,-264 219,-264 219,-242 10,-242"/>
<text text-anchor="start" x="30" y="-250.2" font-family="Helvetica,sans-Serif" font-size="11.00">updatedby</text>
<polygon fill="none" stroke="black" points="219,-242 219,-264 302,-264 302,-242 219,-242"/>
<text text-anchor="start" x="222" y="-250.2" font-family="Helvetica,sans-Serif" font-size="11.00">numeric[10]</text>
<polygon fill="none" stroke="black" points="10,-220 10,-242 219,-242 219,-220 10,-220"/>
<text text-anchor="start" x="30" y="-228.2" font-family="Helvetica,sans-Serif" font-size="11.00">name</text>
<polygon fill="none" stroke="black" points="219,-220 219,-242 302,-242 302,-220 219,-220"/>
<text text-anchor="start" x="222" y="-228.2" font-family="Helvetica,sans-Serif" font-size="11.00">varchar[60]</text>
<polygon fill="none" stroke="black" points="10,-198 10,-220 219,-220 219,-198 10,-198"/>
<text text-anchor="start" x="30" y="-206.2" font-family="Helvetica,sans-Serif" font-size="11.00">description</text>
<polygon fill="none" stroke="black" points="219,-198 219,-220 302,-220 302,-198 219,-198"/>
<text text-anchor="start" x="222" y="-206.2" font-family="Helvetica,sans-Serif" font-size="11.00">varchar[255]</text>
<polygon fill="#ffffff" stroke="transparent" points="10,-176 10,-198 219,-198 219,-176 10,-176"/>
<polygon fill="none" stroke="black" points="10,-176 10,-198 219,-198 219,-176 10,-176"/>
<text text-anchor="start" x="30" y="-184.2" font-family="Helvetica,sans-Serif" font-size="11.00">lbr_fiscalgroup_bpartner_uu</text>
<polygon fill="none" stroke="black" points="219,-176 219,-198 302,-198 302,-176 219,-176"/>
<text text-anchor="start" x="222" y="-184.2" font-family="Helvetica,sans-Serif" font-size="11.00">varchar[36]</text>
<polygon fill="#ffffff" stroke="transparent" points="10,-158 10,-176 106,-176 106,-158 10,-158"/>
<polygon fill="none" stroke="black" points="10,-158 10,-176 106,-176 106,-158 10,-158"/>
<text text-anchor="start" x="13" y="-164.2" font-family="Helvetica,sans-Serif" font-size="11.00">&lt; 0</text>
<polygon fill="#ffffff" stroke="transparent" points="106,-158 106,-176 219,-176 219,-158 106,-158"/>
<polygon fill="none" stroke="black" points="106,-158 106,-176 219,-176 219,-158 106,-158"/>
<text text-anchor="start" x="183" y="-164.2" font-family="Helvetica,sans-Serif" font-size="11.00">0 rows</text>
<polygon fill="#ffffff" stroke="transparent" points="219,-158 219,-176 302,-176 302,-158 219,-158"/>
<polygon fill="none" stroke="black" points="219,-158 219,-176 302,-176 302,-158 219,-158"/>
<text text-anchor="start" x="283" y="-164.2" font-family="Helvetica,sans-Serif" font-size="11.00">2 &gt;</text>
<polygon fill="none" stroke="black" stroke-width="2" points="9,-157 9,-441 303,-441 303,-157 9,-157"/>
</a>
</g>
</g>
<!-- cof_rv_confimpostos&#45;&gt;lbr_fiscalgroup_bpartner -->
<g id="edge1" class="edge">
<title>cof_rv_confimpostos:w&#45;&gt;lbr_fiscalgroup_bpartner:e</title>
<path fill="none" stroke="black" stroke-dasharray="5,2" d="M592.37,-400.6C578.07,-413.84 591.77,-452.03 566,-467 481.07,-516.33 432.12,-512.36 345,-467 316.13,-451.97 335.55,-407 303,-407"/>
<polygon fill="black" stroke="black" points="598.89,-398.48 607.61,-399.42 602.7,-397.24 606.5,-396 606.5,-396 606.5,-396 602.7,-397.24 605.39,-392.58 598.89,-398.48 598.89,-398.48"/>
<ellipse fill="none" stroke="black" cx="595.85" cy="-399.47" rx="3.2" ry="3.2"/>
</g>
<!-- lbr_taxdefinition -->
<g id="node3" class="node">
<title>lbr_taxdefinition</title>
<g id="a_node3"><a xlink:href="../../tables/lbr_taxdefinition.html" xlink:title="lbr_taxdefinition" target="_top">
<polygon fill="#ffffff" stroke="transparent" points="353,-46 353,-456 558,-456 558,-46 353,-46"/>
<polygon fill="#f5f5f5" stroke="transparent" points="353.5,-434 353.5,-456 558.5,-456 558.5,-434 353.5,-434"/>
<polygon fill="none" stroke="black" points="353.5,-434 353.5,-456 558.5,-456 558.5,-434 353.5,-434"/>
<text text-anchor="start" x="358.5" y="-443.2" font-family="Helvetica,sans-Serif" font-weight="bold" font-size="11.00">lbr_taxdefinition</text>
<text text-anchor="start" x="523.5" y="-442.2" font-family="Helvetica,sans-Serif" font-size="11.00">[table]</text>
<polygon fill="none" stroke="black" points="353.5,-412 353.5,-434 558.5,-434 558.5,-412 353.5,-412"/>
<image xlink:href="../../images/foreignKeys.png" width="11px" height="12px" preserveAspectRatio="xMinYMin meet" x="358.5" y="-429"/>
<text text-anchor="start" x="373.5" y="-420.2" font-family="Helvetica,sans-Serif" font-size="11.00">c_bpartner_id</text>
<polygon fill="none" stroke="black" points="353.5,-390 353.5,-412 558.5,-412 558.5,-390 353.5,-390"/>
<image xlink:href="../../images/foreignKeys.png" width="11px" height="12px" preserveAspectRatio="xMinYMin meet" x="358.5" y="-407"/>
<text text-anchor="start" x="373.5" y="-398.2" font-family="Helvetica,sans-Serif" font-size="11.00">c_doctype_id</text>
<polygon fill="none" stroke="black" points="353.5,-368 353.5,-390 558.5,-390 558.5,-368 353.5,-368"/>
<image xlink:href="../../images/foreignKeys.png" width="11px" height="12px" preserveAspectRatio="xMinYMin meet" x="358.5" y="-385"/>
<text text-anchor="start" x="373.5" y="-376.2" font-family="Helvetica,sans-Serif" font-size="11.00">c_region_id</text>
<polygon fill="none" stroke="black" points="353.5,-346 353.5,-368 558.5,-368 558.5,-346 353.5,-346"/>
<image xlink:href="../../images/foreignKeys.png" width="11px" height="12px" preserveAspectRatio="xMinYMin meet" x="358.5" y="-363"/>
<text text-anchor="start" x="373.5" y="-354.2" font-family="Helvetica,sans-Serif" font-size="11.00">lbr_bpartnercategory_id</text>
<polygon fill="none" stroke="black" points="353.5,-324 353.5,-346 558.5,-346 558.5,-324 353.5,-324"/>
<image xlink:href="../../images/foreignKeys.png" width="11px" height="12px" preserveAspectRatio="xMinYMin meet" x="358.5" y="-341"/>
<text text-anchor="start" x="373.5" y="-332.2" font-family="Helvetica,sans-Serif" font-size="11.00">lbr_fiscalgroup_bpartner_id</text>
<polygon fill="none" stroke="black" points="353.5,-302 353.5,-324 558.5,-324 558.5,-302 353.5,-302"/>
<image xlink:href="../../images/foreignKeys.png" width="11px" height="12px" preserveAspectRatio="xMinYMin meet" x="358.5" y="-319"/>
<text text-anchor="start" x="373.5" y="-310.2" font-family="Helvetica,sans-Serif" font-size="11.00">lbr_fiscalgroup_product_id</text>
<polygon fill="none" stroke="black" points="353.5,-280 353.5,-302 558.5,-302 558.5,-280 353.5,-280"/>
<image xlink:href="../../images/foreignKeys.png" width="11px" height="12px" preserveAspectRatio="xMinYMin meet" x="358.5" y="-297"/>
<text text-anchor="start" x="373.5" y="-288.2" font-family="Helvetica,sans-Serif" font-size="11.00">lbr_legalmessage_id</text>
<polygon fill="none" stroke="black" points="353.5,-258 353.5,-280 558.5,-280 558.5,-258 353.5,-258"/>
<image xlink:href="../../images/foreignKeys.png" width="11px" height="12px" preserveAspectRatio="xMinYMin meet" x="358.5" y="-275"/>
<text text-anchor="start" x="373.5" y="-266.2" font-family="Helvetica,sans-Serif" font-size="11.00">lbr_ncm_id</text>
<polygon fill="none" stroke="black" points="353.5,-236 353.5,-258 558.5,-258 558.5,-236 353.5,-236"/>
<image xlink:href="../../images/foreignKeys.png" width="11px" height="12px" preserveAspectRatio="xMinYMin meet" x="358.5" y="-253"/>
<text text-anchor="start" x="373.5" y="-244.2" font-family="Helvetica,sans-Serif" font-size="11.00">lbr_productcategory_id</text>
<polygon fill="none" stroke="black" points="353.5,-214 353.5,-236 558.5,-236 558.5,-214 353.5,-214"/>
<image xlink:href="../../images/primaryKeys.png" width="11px" height="12px" preserveAspectRatio="xMinYMin meet" x="358.5" y="-231"/>
<text text-anchor="start" x="373.5" y="-222.2" font-family="Helvetica,sans-Serif" font-size="11.00">lbr_taxdefinition_id</text>
<polygon fill="none" stroke="black" points="353.5,-192 353.5,-214 558.5,-214 558.5,-192 353.5,-192"/>
<image xlink:href="../../images/foreignKeys.png" width="11px" height="12px" preserveAspectRatio="xMinYMin meet" x="358.5" y="-209"/>
<text text-anchor="start" x="373.5" y="-200.2" font-family="Helvetica,sans-Serif" font-size="11.00">lbr_tax_id</text>
<polygon fill="none" stroke="black" points="353.5,-170 353.5,-192 558.5,-192 558.5,-170 353.5,-170"/>
<image xlink:href="../../images/foreignKeys.png" width="11px" height="12px" preserveAspectRatio="xMinYMin meet" x="358.5" y="-187"/>
<text text-anchor="start" x="373.5" y="-178.2" font-family="Helvetica,sans-Serif" font-size="11.00">m_product_id</text>
<polygon fill="none" stroke="black" points="353.5,-148 353.5,-170 558.5,-170 558.5,-148 353.5,-148"/>
<image xlink:href="../../images/foreignKeys.png" width="11px" height="12px" preserveAspectRatio="xMinYMin meet" x="358.5" y="-165"/>
<text text-anchor="start" x="373.5" y="-156.2" font-family="Helvetica,sans-Serif" font-size="11.00">lbr_cfop_id</text>
<polygon fill="#ffffff" stroke="transparent" points="353.5,-126 353.5,-148 558.5,-148 558.5,-126 353.5,-126"/>
<polygon fill="none" stroke="black" points="353.5,-126 353.5,-148 558.5,-148 558.5,-126 353.5,-126"/>
<text text-anchor="start" x="373.5" y="-134.2" font-family="Helvetica,sans-Serif" font-size="11.00">lbr_taxdefinition_uu</text>
<polygon fill="none" stroke="black" points="353.5,-104 353.5,-126 558.5,-126 558.5,-104 353.5,-104"/>
<image xlink:href="../../images/foreignKeys.png" width="11px" height="12px" preserveAspectRatio="xMinYMin meet" x="358.5" y="-121"/>
<text text-anchor="start" x="373.5" y="-112.2" font-family="Helvetica,sans-Serif" font-size="11.00">cof_taxdefinition_group_id</text>
<polygon fill="none" stroke="black" points="353.5,-82 353.5,-104 558.5,-104 558.5,-82 353.5,-82"/>
<image xlink:href="../../images/foreignKeys.png" width="11px" height="12px" preserveAspectRatio="xMinYMin meet" x="358.5" y="-99"/>
<text text-anchor="start" x="373.5" y="-90.2" font-family="Helvetica,sans-Serif" font-size="11.00">c_city_id</text>
<polygon fill="none" stroke="black" points="353.5,-64 353.5,-82 558.5,-82 558.5,-64 353.5,-64"/>
<text text-anchor="start" x="356.5" y="-70.2" font-family="Helvetica,sans-Serif" font-size="11.00">...</text>
<polygon fill="#ffffff" stroke="transparent" points="353.5,-46 353.5,-64 439.5,-64 439.5,-46 353.5,-46"/>
<polygon fill="none" stroke="black" points="353.5,-46 353.5,-64 439.5,-64 439.5,-46 353.5,-46"/>
<text text-anchor="start" x="356.5" y="-52.2" font-family="Helvetica,sans-Serif" font-size="11.00">&lt; 14</text>
<polygon fill="#ffffff" stroke="transparent" points="439.5,-46 439.5,-64 507.5,-64 507.5,-46 439.5,-46"/>
<polygon fill="none" stroke="black" points="439.5,-46 439.5,-64 507.5,-64 507.5,-46 439.5,-46"/>
<text text-anchor="start" x="471.5" y="-52.2" font-family="Helvetica,sans-Serif" font-size="11.00">9 rows</text>
<polygon fill="#ffffff" stroke="transparent" points="507.5,-46 507.5,-64 558.5,-64 558.5,-46 507.5,-46"/>
<polygon fill="none" stroke="black" points="507.5,-46 507.5,-64 558.5,-64 558.5,-46 507.5,-46"/>
<text text-anchor="start" x="539.5" y="-52.2" font-family="Helvetica,sans-Serif" font-size="11.00">1 &gt;</text>
</a>
</g>
</g>
<!-- cof_rv_confimpostos&#45;&gt;lbr_taxdefinition -->
<g id="edge2" class="edge">
<title>cof_rv_confimpostos:w&#45;&gt;lbr_taxdefinition:e</title>
<path fill="none" stroke="black" stroke-dasharray="5,2" d="M592.66,-303.3C573.35,-285.74 595.77,-225 559.5,-225"/>
<polygon fill="black" stroke="black" points="598.92,-305.43 605.34,-311.41 602.71,-306.71 606.5,-308 606.5,-308 606.5,-308 602.71,-306.71 607.66,-304.59 598.92,-305.43 598.92,-305.43"/>
<ellipse fill="none" stroke="black" cx="595.89" cy="-304.4" rx="3.2" ry="3.2"/>
</g>
<!-- lbr_taxdefinition&#45;&gt;lbr_fiscalgroup_bpartner -->
<g id="edge3" class="edge">
<title>lbr_taxdefinition:w&#45;&gt;lbr_fiscalgroup_bpartner:e</title>
<path fill="none" stroke="black" stroke-dasharray="5,2" d="M338.69,-339.72C320.83,-355.74 335.77,-407 303,-407"/>
<polygon fill="black" stroke="black" points="344.93,-337.59 353.67,-338.41 348.72,-336.29 352.5,-335 352.5,-335 352.5,-335 348.72,-336.29 351.33,-331.59 344.93,-337.59 344.93,-337.59"/>
<ellipse fill="none" stroke="black" cx="341.9" cy="-338.63" rx="3.2" ry="3.2"/>
</g>
</g>
</svg>
