<?xml version="1.0" encoding="UTF-8" standalone="no"?>
<!DOCTYPE svg PUBLIC "-//W3C//DTD SVG 1.1//EN"
 "http://www.w3.org/Graphics/SVG/1.1/DTD/svg11.dtd">
<!-- Generated by graphviz version 2.43.0 (0)
 -->
<!-- Title: oneDegreeRelationshipsDiagram Pages: 1 -->
<svg width="298pt" height="335pt"
 viewBox="0.00 0.00 298.00 335.00" xmlns="http://www.w3.org/2000/svg" xmlns:xlink="http://www.w3.org/1999/xlink">
<g id="graph0" class="graph" transform="scale(1 1) rotate(0) translate(4 331)">
<title>oneDegreeRelationshipsDiagram</title>
<polygon fill="#ffffff" stroke="transparent" points="-4,4 -4,-331 294,-331 294,4 -4,4"/>
<text text-anchor="middle" x="71.5" y="-7.2" font-family="Helvetica,sans-Serif" font-size="11.00">Generated by SchemaSpy</text>
<!-- lbr_bpartnercategory -->
<g id="node1" class="node">
<title>lbr_bpartnercategory</title>
<g id="a_node1"><a xlink:href="../../tables/lbr_bpartnercategory.html" xlink:title="lbr_bpartnercategory" target="_top">
<polygon fill="#ffffff" stroke="transparent" points="8,-37 8,-323 282,-323 282,-37 8,-37"/>
<polygon fill="#f5f5f5" stroke="transparent" points="10,-299 10,-321 280,-321 280,-299 10,-299"/>
<polygon fill="none" stroke="black" points="10,-299 10,-321 280,-321 280,-299 10,-299"/>
<text text-anchor="start" x="15" y="-308.2" font-family="Helvetica,sans-Serif" font-weight="bold" font-size="11.00">lbr_bpartnercategory</text>
<text text-anchor="start" x="245" y="-307.2" font-family="Helvetica,sans-Serif" font-size="11.00">[table]</text>
<polygon fill="none" stroke="black" points="10,-277 10,-299 197,-299 197,-277 10,-277"/>
<image xlink:href="../../images/primaryKeys.png" width="11px" height="12px" preserveAspectRatio="xMinYMin meet" x="15" y="-294"/>
<text text-anchor="start" x="30" y="-285.2" font-family="Helvetica,sans-Serif" font-size="11.00">lbr_bpartnercategory_id</text>
<polygon fill="none" stroke="black" points="197,-277 197,-299 280,-299 280,-277 197,-277"/>
<text text-anchor="start" x="200" y="-285.2" font-family="Helvetica,sans-Serif" font-size="11.00">numeric[10]</text>
<polygon fill="none" stroke="black" points="10,-255 10,-277 197,-277 197,-255 10,-255"/>
<text text-anchor="start" x="30" y="-263.2" font-family="Helvetica,sans-Serif" font-size="11.00">ad_org_id</text>
<polygon fill="none" stroke="black" points="197,-255 197,-277 280,-277 280,-255 197,-255"/>
<text text-anchor="start" x="200" y="-263.2" font-family="Helvetica,sans-Serif" font-size="11.00">numeric[10]</text>
<polygon fill="none" stroke="black" points="10,-233 10,-255 197,-255 197,-233 10,-233"/>
<text text-anchor="start" x="30" y="-241.2" font-family="Helvetica,sans-Serif" font-size="11.00">ad_client_id</text>
<polygon fill="none" stroke="black" points="197,-233 197,-255 280,-255 280,-233 197,-233"/>
<text text-anchor="start" x="200" y="-241.2" font-family="Helvetica,sans-Serif" font-size="11.00">numeric[10]</text>
<polygon fill="none" stroke="black" points="10,-211 10,-233 197,-233 197,-211 10,-211"/>
<text text-anchor="start" x="30" y="-219.2" font-family="Helvetica,sans-Serif" font-size="11.00">isactive</text>
<polygon fill="none" stroke="black" points="197,-211 197,-233 280,-233 280,-211 197,-211"/>
<text text-anchor="start" x="200" y="-219.2" font-family="Helvetica,sans-Serif" font-size="11.00">bpchar[1]</text>
<polygon fill="none" stroke="black" points="10,-189 10,-211 197,-211 197,-189 10,-189"/>
<text text-anchor="start" x="30" y="-197.2" font-family="Helvetica,sans-Serif" font-size="11.00">created</text>
<polygon fill="none" stroke="black" points="197,-189 197,-211 280,-211 280,-189 197,-189"/>
<text text-anchor="start" x="200" y="-197.2" font-family="Helvetica,sans-Serif" font-size="11.00">timestamp[29,6]</text>
<polygon fill="none" stroke="black" points="10,-167 10,-189 197,-189 197,-167 10,-167"/>
<text text-anchor="start" x="30" y="-175.2" font-family="Helvetica,sans-Serif" font-size="11.00">createdby</text>
<polygon fill="none" stroke="black" points="197,-167 197,-189 280,-189 280,-167 197,-167"/>
<text text-anchor="start" x="200" y="-175.2" font-family="Helvetica,sans-Serif" font-size="11.00">numeric[10]</text>
<polygon fill="none" stroke="black" points="10,-145 10,-167 197,-167 197,-145 10,-145"/>
<text text-anchor="start" x="30" y="-153.2" font-family="Helvetica,sans-Serif" font-size="11.00">updated</text>
<polygon fill="none" stroke="black" points="197,-145 197,-167 280,-167 280,-145 197,-145"/>
<text text-anchor="start" x="200" y="-153.2" font-family="Helvetica,sans-Serif" font-size="11.00">timestamp[29,6]</text>
<polygon fill="none" stroke="black" points="10,-123 10,-145 197,-145 197,-123 10,-123"/>
<text text-anchor="start" x="30" y="-131.2" font-family="Helvetica,sans-Serif" font-size="11.00">updatedby</text>
<polygon fill="none" stroke="black" points="197,-123 197,-145 280,-145 280,-123 197,-123"/>
<text text-anchor="start" x="200" y="-131.2" font-family="Helvetica,sans-Serif" font-size="11.00">numeric[10]</text>
<polygon fill="none" stroke="black" points="10,-101 10,-123 197,-123 197,-101 10,-101"/>
<text text-anchor="start" x="30" y="-109.2" font-family="Helvetica,sans-Serif" font-size="11.00">name</text>
<polygon fill="none" stroke="black" points="197,-101 197,-123 280,-123 280,-101 197,-101"/>
<text text-anchor="start" x="200" y="-109.2" font-family="Helvetica,sans-Serif" font-size="11.00">varchar[60]</text>
<polygon fill="none" stroke="black" points="10,-79 10,-101 197,-101 197,-79 10,-79"/>
<text text-anchor="start" x="30" y="-87.2" font-family="Helvetica,sans-Serif" font-size="11.00">description</text>
<polygon fill="none" stroke="black" points="197,-79 197,-101 280,-101 280,-79 197,-79"/>
<text text-anchor="start" x="200" y="-87.2" font-family="Helvetica,sans-Serif" font-size="11.00">varchar[255]</text>
<polygon fill="#ffffff" stroke="transparent" points="10,-57 10,-79 197,-79 197,-57 10,-57"/>
<polygon fill="none" stroke="black" points="10,-57 10,-79 197,-79 197,-57 10,-57"/>
<text text-anchor="start" x="30" y="-65.2" font-family="Helvetica,sans-Serif" font-size="11.00">lbr_bpartnercategory_uu</text>
<polygon fill="none" stroke="black" points="197,-57 197,-79 280,-79 280,-57 197,-57"/>
<text text-anchor="start" x="200" y="-65.2" font-family="Helvetica,sans-Serif" font-size="11.00">varchar[36]</text>
<polygon fill="#ffffff" stroke="transparent" points="10,-39 10,-57 95,-57 95,-39 10,-39"/>
<polygon fill="none" stroke="black" points="10,-39 10,-57 95,-57 95,-39 10,-39"/>
<text text-anchor="start" x="13" y="-45.2" font-family="Helvetica,sans-Serif" font-size="11.00">&lt; 0</text>
<polygon fill="#ffffff" stroke="transparent" points="95,-39 95,-57 197,-57 197,-39 95,-39"/>
<polygon fill="none" stroke="black" points="95,-39 95,-57 197,-57 197,-39 95,-39"/>
<text text-anchor="start" x="161" y="-45.2" font-family="Helvetica,sans-Serif" font-size="11.00">8 rows</text>
<polygon fill="#ffffff" stroke="transparent" points="197,-39 197,-57 280,-57 280,-39 197,-39"/>
<polygon fill="none" stroke="black" points="197,-39 197,-57 280,-57 280,-39 197,-39"/>
<text text-anchor="start" x="261" y="-45.2" font-family="Helvetica,sans-Serif" font-size="11.00">0 &gt;</text>
<polygon fill="none" stroke="black" stroke-width="2" points="9,-38 9,-322 281,-322 281,-38 9,-38"/>
</a>
</g>
</g>
</g>
</svg>
