<?xml version="1.0" encoding="UTF-8" standalone="no"?>
<!DOCTYPE svg PUBLIC "-//W3C//DTD SVG 1.1//EN"
 "http://www.w3.org/Graphics/SVG/1.1/DTD/svg11.dtd">
<!-- Generated by graphviz version 2.43.0 (0)
 -->
<!-- Title: oneDegreeRelationshipsDiagram Pages: 1 -->
<svg width="933pt" height="1154pt"
 viewBox="0.00 0.00 933.00 1154.00" xmlns="http://www.w3.org/2000/svg" xmlns:xlink="http://www.w3.org/1999/xlink">
<g id="graph0" class="graph" transform="scale(1 1) rotate(0) translate(4 1150)">
<title>oneDegreeRelationshipsDiagram</title>
<polygon fill="#ffffff" stroke="transparent" points="-4,4 -4,-1150 929,-1150 929,4 -4,4"/>
<text text-anchor="middle" x="71.5" y="-7.2" font-family="Helvetica,sans-Serif" font-size="11.00">Generated by SchemaSpy</text>
<!-- c_bp_edi -->
<g id="node1" class="node">
<title>c_bp_edi</title>
<g id="a_node1"><a xlink:href="../../tables/c_bp_edi.html" xlink:title="c_bp_edi" target="_top">
<polygon fill="#ffffff" stroke="transparent" points="275.5,-825 275.5,-993 427.5,-993 427.5,-825 275.5,-825"/>
<polygon fill="#f5f5f5" stroke="transparent" points="275.5,-971 275.5,-993 427.5,-993 427.5,-971 275.5,-971"/>
<polygon fill="none" stroke="black" points="275.5,-971 275.5,-993 427.5,-993 427.5,-971 275.5,-971"/>
<text text-anchor="start" x="280.5" y="-980.2" font-family="Helvetica,sans-Serif" font-weight="bold" font-size="11.00">c_bp_edi</text>
<text text-anchor="start" x="392.5" y="-979.2" font-family="Helvetica,sans-Serif" font-size="11.00">[table]</text>
<polygon fill="none" stroke="black" points="275.5,-949 275.5,-971 427.5,-971 427.5,-949 275.5,-949"/>
<image xlink:href="../../images/primaryKeys.png" width="11px" height="12px" preserveAspectRatio="xMinYMin meet" x="280.5" y="-966"/>
<text text-anchor="start" x="295.5" y="-957.2" font-family="Helvetica,sans-Serif" font-size="11.00">c_bp_edi_id</text>
<polygon fill="none" stroke="black" points="275.5,-927 275.5,-949 427.5,-949 427.5,-927 275.5,-927"/>
<image xlink:href="../../images/foreignKeys.png" width="11px" height="12px" preserveAspectRatio="xMinYMin meet" x="280.5" y="-944"/>
<text text-anchor="start" x="295.5" y="-935.2" font-family="Helvetica,sans-Serif" font-size="11.00">c_bpartner_id</text>
<polygon fill="none" stroke="black" points="275.5,-905 275.5,-927 427.5,-927 427.5,-905 275.5,-905"/>
<image xlink:href="../../images/foreignKeys.png" width="11px" height="12px" preserveAspectRatio="xMinYMin meet" x="280.5" y="-922"/>
<text text-anchor="start" x="295.5" y="-913.2" font-family="Helvetica,sans-Serif" font-size="11.00">m_warehouse_id</text>
<polygon fill="none" stroke="black" points="275.5,-883 275.5,-905 427.5,-905 427.5,-883 275.5,-883"/>
<image xlink:href="../../images/foreignKeys.png" width="11px" height="12px" preserveAspectRatio="xMinYMin meet" x="280.5" y="-900"/>
<text text-anchor="start" x="295.5" y="-891.2" font-family="Helvetica,sans-Serif" font-size="11.00">ad_sequence_id</text>
<polygon fill="#ffffff" stroke="transparent" points="275.5,-861 275.5,-883 427.5,-883 427.5,-861 275.5,-861"/>
<polygon fill="none" stroke="black" points="275.5,-861 275.5,-883 427.5,-883 427.5,-861 275.5,-861"/>
<text text-anchor="start" x="295.5" y="-869.2" font-family="Helvetica,sans-Serif" font-size="11.00">c_bp_edi_uu</text>
<polygon fill="none" stroke="black" points="275.5,-843 275.5,-861 427.5,-861 427.5,-843 275.5,-843"/>
<text text-anchor="start" x="278.5" y="-849.2" font-family="Helvetica,sans-Serif" font-size="11.00">...</text>
<polygon fill="#ffffff" stroke="transparent" points="275.5,-825 275.5,-843 331.5,-843 331.5,-825 275.5,-825"/>
<polygon fill="none" stroke="black" points="275.5,-825 275.5,-843 331.5,-843 331.5,-825 275.5,-825"/>
<text text-anchor="start" x="278.5" y="-831.2" font-family="Helvetica,sans-Serif" font-size="11.00">&lt; 3</text>
<polygon fill="#ffffff" stroke="transparent" points="331.5,-825 331.5,-843 387.5,-843 387.5,-825 331.5,-825"/>
<polygon fill="none" stroke="black" points="331.5,-825 331.5,-843 387.5,-843 387.5,-825 331.5,-825"/>
<text text-anchor="start" x="351.5" y="-831.2" font-family="Helvetica,sans-Serif" font-size="11.00">0 rows</text>
<polygon fill="#ffffff" stroke="transparent" points="387.5,-825 387.5,-843 427.5,-843 427.5,-825 387.5,-825"/>
<polygon fill="none" stroke="black" points="387.5,-825 387.5,-843 427.5,-843 427.5,-825 387.5,-825"/>
<text text-anchor="start" x="408.5" y="-831.2" font-family="Helvetica,sans-Serif" font-size="11.00">1 &gt;</text>
</a>
</g>
</g>
<!-- m_warehouse -->
<g id="node2" class="node">
<title>m_warehouse</title>
<g id="a_node2"><a xlink:href="../../tables/m_warehouse.html" xlink:title="m_warehouse" target="_top">
<polygon fill="#ffffff" stroke="transparent" points="8,-657 8,-891 185,-891 185,-657 8,-657"/>
<polygon fill="#f5f5f5" stroke="transparent" points="8.5,-869 8.5,-891 185.5,-891 185.5,-869 8.5,-869"/>
<polygon fill="none" stroke="black" points="8.5,-869 8.5,-891 185.5,-891 185.5,-869 8.5,-869"/>
<text text-anchor="start" x="13.5" y="-878.2" font-family="Helvetica,sans-Serif" font-weight="bold" font-size="11.00">m_warehouse</text>
<text text-anchor="start" x="150.5" y="-877.2" font-family="Helvetica,sans-Serif" font-size="11.00">[table]</text>
<polygon fill="none" stroke="black" points="8.5,-847 8.5,-869 185.5,-869 185.5,-847 8.5,-847"/>
<image xlink:href="../../images/primaryKeys.png" width="11px" height="12px" preserveAspectRatio="xMinYMin meet" x="13.5" y="-864"/>
<text text-anchor="start" x="28.5" y="-855.2" font-family="Helvetica,sans-Serif" font-size="11.00">m_warehouse_id</text>
<polygon fill="#ffffff" stroke="transparent" points="8.5,-825 8.5,-847 185.5,-847 185.5,-825 8.5,-825"/>
<polygon fill="none" stroke="black" points="8.5,-825 8.5,-847 185.5,-847 185.5,-825 8.5,-825"/>
<image xlink:href="../../images/foreignKeys.png" width="11px" height="12px" preserveAspectRatio="xMinYMin meet" x="13.5" y="-842"/>
<text text-anchor="start" x="28.5" y="-833.2" font-family="Helvetica,sans-Serif" font-size="11.00">ad_client_id</text>
<polygon fill="none" stroke="black" points="8.5,-803 8.5,-825 185.5,-825 185.5,-803 8.5,-803"/>
<image xlink:href="../../images/foreignKeys.png" width="11px" height="12px" preserveAspectRatio="xMinYMin meet" x="13.5" y="-820"/>
<text text-anchor="start" x="28.5" y="-811.2" font-family="Helvetica,sans-Serif" font-size="11.00">ad_org_id</text>
<polygon fill="#ffffff" stroke="transparent" points="8.5,-781 8.5,-803 185.5,-803 185.5,-781 8.5,-781"/>
<polygon fill="none" stroke="black" points="8.5,-781 8.5,-803 185.5,-803 185.5,-781 8.5,-781"/>
<text text-anchor="start" x="28.5" y="-789.2" font-family="Helvetica,sans-Serif" font-size="11.00">name</text>
<polygon fill="none" stroke="black" points="8.5,-759 8.5,-781 185.5,-781 185.5,-759 8.5,-759"/>
<image xlink:href="../../images/foreignKeys.png" width="11px" height="12px" preserveAspectRatio="xMinYMin meet" x="13.5" y="-776"/>
<text text-anchor="start" x="28.5" y="-767.2" font-family="Helvetica,sans-Serif" font-size="11.00">c_location_id</text>
<polygon fill="none" stroke="black" points="8.5,-737 8.5,-759 185.5,-759 185.5,-737 8.5,-737"/>
<image xlink:href="../../images/foreignKeys.png" width="11px" height="12px" preserveAspectRatio="xMinYMin meet" x="13.5" y="-754"/>
<text text-anchor="start" x="28.5" y="-745.2" font-family="Helvetica,sans-Serif" font-size="11.00">m_warehousesource_id</text>
<polygon fill="#ffffff" stroke="transparent" points="8.5,-715 8.5,-737 185.5,-737 185.5,-715 8.5,-715"/>
<polygon fill="none" stroke="black" points="8.5,-715 8.5,-737 185.5,-737 185.5,-715 8.5,-715"/>
<text text-anchor="start" x="28.5" y="-723.2" font-family="Helvetica,sans-Serif" font-size="11.00">m_warehouse_uu</text>
<polygon fill="none" stroke="black" points="8.5,-693 8.5,-715 185.5,-715 185.5,-693 8.5,-693"/>
<image xlink:href="../../images/foreignKeys.png" width="11px" height="12px" preserveAspectRatio="xMinYMin meet" x="13.5" y="-710"/>
<text text-anchor="start" x="28.5" y="-701.2" font-family="Helvetica,sans-Serif" font-size="11.00">m_reservelocator_id</text>
<polygon fill="none" stroke="black" points="8.5,-675 8.5,-693 185.5,-693 185.5,-675 8.5,-675"/>
<text text-anchor="start" x="11.5" y="-681.2" font-family="Helvetica,sans-Serif" font-size="11.00">...</text>
<polygon fill="#ffffff" stroke="transparent" points="8.5,-657 8.5,-675 74.5,-675 74.5,-657 8.5,-657"/>
<polygon fill="none" stroke="black" points="8.5,-657 8.5,-675 74.5,-675 74.5,-657 8.5,-657"/>
<text text-anchor="start" x="11.5" y="-663.2" font-family="Helvetica,sans-Serif" font-size="11.00">&lt; 5</text>
<polygon fill="#ffffff" stroke="transparent" points="74.5,-657 74.5,-675 135.5,-675 135.5,-657 74.5,-657"/>
<polygon fill="none" stroke="black" points="74.5,-657 74.5,-675 135.5,-675 135.5,-657 74.5,-657"/>
<text text-anchor="start" x="99.5" y="-663.2" font-family="Helvetica,sans-Serif" font-size="11.00">8 rows</text>
<polygon fill="#ffffff" stroke="transparent" points="135.5,-657 135.5,-675 185.5,-675 185.5,-657 135.5,-657"/>
<polygon fill="none" stroke="black" points="135.5,-657 135.5,-675 185.5,-675 185.5,-657 135.5,-657"/>
<text text-anchor="start" x="160.5" y="-663.2" font-family="Helvetica,sans-Serif" font-size="11.00">52 &gt;</text>
</a>
</g>
</g>
<!-- c_bp_edi&#45;&gt;m_warehouse -->
<g id="edge1" class="edge">
<title>c_bp_edi:w&#45;&gt;m_warehouse:e</title>
<path fill="none" stroke="black" d="M260.03,-913.8C228.27,-903.2 227.85,-858 186.5,-858"/>
<polygon fill="black" stroke="black" points="266.59,-914.8 273.96,-919.56 270.55,-915.4 274.5,-916 274.5,-916 274.5,-916 270.55,-915.4 275.04,-912.44 266.59,-914.8 266.59,-914.8"/>
<ellipse fill="none" stroke="black" cx="263.43" cy="-914.31" rx="3.2" ry="3.2"/>
</g>
<!-- m_edi -->
<g id="node3" class="node">
<title>m_edi</title>
<g id="a_node3"><a xlink:href="../../tables/m_edi.html" xlink:title="m_edi" target="_top">
<polygon fill="#ffffff" stroke="transparent" points="518,-484 518,-1122 757,-1122 757,-484 518,-484"/>
<polygon fill="#f5f5f5" stroke="transparent" points="520.5,-1098 520.5,-1120 755.5,-1120 755.5,-1098 520.5,-1098"/>
<polygon fill="none" stroke="black" points="520.5,-1098 520.5,-1120 755.5,-1120 755.5,-1098 520.5,-1098"/>
<text text-anchor="start" x="525.5" y="-1107.2" font-family="Helvetica,sans-Serif" font-weight="bold" font-size="11.00">m_edi</text>
<text text-anchor="start" x="720.5" y="-1106.2" font-family="Helvetica,sans-Serif" font-size="11.00">[table]</text>
<polygon fill="none" stroke="black" points="520.5,-1076 520.5,-1098 672.5,-1098 672.5,-1076 520.5,-1076"/>
<image xlink:href="../../images/primaryKeys.png" width="11px" height="12px" preserveAspectRatio="xMinYMin meet" x="525.5" y="-1093"/>
<text text-anchor="start" x="540.5" y="-1084.2" font-family="Helvetica,sans-Serif" font-size="11.00">m_edi_id</text>
<polygon fill="none" stroke="black" points="672.5,-1076 672.5,-1098 755.5,-1098 755.5,-1076 672.5,-1076"/>
<text text-anchor="start" x="675.5" y="-1084.2" font-family="Helvetica,sans-Serif" font-size="11.00">numeric[10]</text>
<polygon fill="none" stroke="black" points="520.5,-1054 520.5,-1076 672.5,-1076 672.5,-1054 520.5,-1054"/>
<text text-anchor="start" x="540.5" y="-1062.2" font-family="Helvetica,sans-Serif" font-size="11.00">ad_client_id</text>
<polygon fill="none" stroke="black" points="672.5,-1054 672.5,-1076 755.5,-1076 755.5,-1054 672.5,-1054"/>
<text text-anchor="start" x="675.5" y="-1062.2" font-family="Helvetica,sans-Serif" font-size="11.00">numeric[10]</text>
<polygon fill="none" stroke="black" points="520.5,-1032 520.5,-1054 672.5,-1054 672.5,-1032 520.5,-1032"/>
<text text-anchor="start" x="540.5" y="-1040.2" font-family="Helvetica,sans-Serif" font-size="11.00">ad_org_id</text>
<polygon fill="none" stroke="black" points="672.5,-1032 672.5,-1054 755.5,-1054 755.5,-1032 672.5,-1032"/>
<text text-anchor="start" x="675.5" y="-1040.2" font-family="Helvetica,sans-Serif" font-size="11.00">numeric[10]</text>
<polygon fill="none" stroke="black" points="520.5,-1010 520.5,-1032 672.5,-1032 672.5,-1010 520.5,-1010"/>
<text text-anchor="start" x="540.5" y="-1018.2" font-family="Helvetica,sans-Serif" font-size="11.00">isactive</text>
<polygon fill="none" stroke="black" points="672.5,-1010 672.5,-1032 755.5,-1032 755.5,-1010 672.5,-1010"/>
<text text-anchor="start" x="675.5" y="-1018.2" font-family="Helvetica,sans-Serif" font-size="11.00">bpchar[1]</text>
<polygon fill="none" stroke="black" points="520.5,-988 520.5,-1010 672.5,-1010 672.5,-988 520.5,-988"/>
<text text-anchor="start" x="540.5" y="-996.2" font-family="Helvetica,sans-Serif" font-size="11.00">created</text>
<polygon fill="none" stroke="black" points="672.5,-988 672.5,-1010 755.5,-1010 755.5,-988 672.5,-988"/>
<text text-anchor="start" x="675.5" y="-996.2" font-family="Helvetica,sans-Serif" font-size="11.00">timestamp[29,6]</text>
<polygon fill="none" stroke="black" points="520.5,-966 520.5,-988 672.5,-988 672.5,-966 520.5,-966"/>
<text text-anchor="start" x="540.5" y="-974.2" font-family="Helvetica,sans-Serif" font-size="11.00">createdby</text>
<polygon fill="none" stroke="black" points="672.5,-966 672.5,-988 755.5,-988 755.5,-966 672.5,-966"/>
<text text-anchor="start" x="675.5" y="-974.2" font-family="Helvetica,sans-Serif" font-size="11.00">numeric[10]</text>
<polygon fill="none" stroke="black" points="520.5,-944 520.5,-966 672.5,-966 672.5,-944 520.5,-944"/>
<text text-anchor="start" x="540.5" y="-952.2" font-family="Helvetica,sans-Serif" font-size="11.00">updated</text>
<polygon fill="none" stroke="black" points="672.5,-944 672.5,-966 755.5,-966 755.5,-944 672.5,-944"/>
<text text-anchor="start" x="675.5" y="-952.2" font-family="Helvetica,sans-Serif" font-size="11.00">timestamp[29,6]</text>
<polygon fill="none" stroke="black" points="520.5,-922 520.5,-944 672.5,-944 672.5,-922 520.5,-922"/>
<text text-anchor="start" x="540.5" y="-930.2" font-family="Helvetica,sans-Serif" font-size="11.00">updatedby</text>
<polygon fill="none" stroke="black" points="672.5,-922 672.5,-944 755.5,-944 755.5,-922 672.5,-922"/>
<text text-anchor="start" x="675.5" y="-930.2" font-family="Helvetica,sans-Serif" font-size="11.00">numeric[10]</text>
<polygon fill="#ffffff" stroke="transparent" points="520.5,-900 520.5,-922 672.5,-922 672.5,-900 520.5,-900"/>
<polygon fill="none" stroke="black" points="520.5,-900 520.5,-922 672.5,-922 672.5,-900 520.5,-900"/>
<image xlink:href="../../images/foreignKeys.png" width="11px" height="12px" preserveAspectRatio="xMinYMin meet" x="525.5" y="-917"/>
<text text-anchor="start" x="540.5" y="-908.2" font-family="Helvetica,sans-Serif" font-size="11.00">c_bp_edi_id</text>
<polygon fill="none" stroke="black" points="672.5,-900 672.5,-922 755.5,-922 755.5,-900 672.5,-900"/>
<text text-anchor="start" x="675.5" y="-908.2" font-family="Helvetica,sans-Serif" font-size="11.00">numeric[10]</text>
<polygon fill="#ffffff" stroke="transparent" points="520.5,-878 520.5,-900 672.5,-900 672.5,-878 520.5,-878"/>
<polygon fill="none" stroke="black" points="520.5,-878 520.5,-900 672.5,-900 672.5,-878 520.5,-878"/>
<text text-anchor="start" x="540.5" y="-886.2" font-family="Helvetica,sans-Serif" font-size="11.00">documentno</text>
<polygon fill="none" stroke="black" points="672.5,-878 672.5,-900 755.5,-900 755.5,-878 672.5,-878"/>
<text text-anchor="start" x="675.5" y="-886.2" font-family="Helvetica,sans-Serif" font-size="11.00">varchar[30]</text>
<polygon fill="#ffffff" stroke="transparent" points="520.5,-856 520.5,-878 672.5,-878 672.5,-856 520.5,-856"/>
<polygon fill="none" stroke="black" points="520.5,-856 520.5,-878 672.5,-878 672.5,-856 520.5,-856"/>
<text text-anchor="start" x="540.5" y="-864.2" font-family="Helvetica,sans-Serif" font-size="11.00">line</text>
<polygon fill="none" stroke="black" points="672.5,-856 672.5,-878 755.5,-878 755.5,-856 672.5,-856"/>
<text text-anchor="start" x="675.5" y="-864.2" font-family="Helvetica,sans-Serif" font-size="11.00">numeric[10]</text>
<polygon fill="none" stroke="black" points="520.5,-834 520.5,-856 672.5,-856 672.5,-834 520.5,-834"/>
<text text-anchor="start" x="540.5" y="-842.2" font-family="Helvetica,sans-Serif" font-size="11.00">trxtype</text>
<polygon fill="none" stroke="black" points="672.5,-834 672.5,-856 755.5,-856 755.5,-834 672.5,-834"/>
<text text-anchor="start" x="675.5" y="-842.2" font-family="Helvetica,sans-Serif" font-size="11.00">bpchar[1]</text>
<polygon fill="none" stroke="black" points="520.5,-812 520.5,-834 672.5,-834 672.5,-812 520.5,-812"/>
<text text-anchor="start" x="540.5" y="-820.2" font-family="Helvetica,sans-Serif" font-size="11.00">edistatus</text>
<polygon fill="none" stroke="black" points="672.5,-812 672.5,-834 755.5,-834 755.5,-812 672.5,-812"/>
<text text-anchor="start" x="675.5" y="-820.2" font-family="Helvetica,sans-Serif" font-size="11.00">bpchar[1]</text>
<polygon fill="none" stroke="black" points="520.5,-790 520.5,-812 672.5,-812 672.5,-790 520.5,-790"/>
<image xlink:href="../../images/foreignKeys.png" width="11px" height="12px" preserveAspectRatio="xMinYMin meet" x="525.5" y="-807"/>
<text text-anchor="start" x="540.5" y="-798.2" font-family="Helvetica,sans-Serif" font-size="11.00">m_warehouse_id</text>
<polygon fill="none" stroke="black" points="672.5,-790 672.5,-812 755.5,-812 755.5,-790 672.5,-790"/>
<text text-anchor="start" x="675.5" y="-798.2" font-family="Helvetica,sans-Serif" font-size="11.00">numeric[10]</text>
<polygon fill="none" stroke="black" points="520.5,-768 520.5,-790 672.5,-790 672.5,-768 520.5,-768"/>
<image xlink:href="../../images/foreignKeys.png" width="11px" height="12px" preserveAspectRatio="xMinYMin meet" x="525.5" y="-785"/>
<text text-anchor="start" x="540.5" y="-776.2" font-family="Helvetica,sans-Serif" font-size="11.00">m_product_id</text>
<polygon fill="none" stroke="black" points="672.5,-768 672.5,-790 755.5,-790 755.5,-768 672.5,-768"/>
<text text-anchor="start" x="675.5" y="-776.2" font-family="Helvetica,sans-Serif" font-size="11.00">numeric[10]</text>
<polygon fill="none" stroke="black" points="520.5,-746 520.5,-768 672.5,-768 672.5,-746 520.5,-746"/>
<text text-anchor="start" x="540.5" y="-754.2" font-family="Helvetica,sans-Serif" font-size="11.00">request_qty</text>
<polygon fill="none" stroke="black" points="672.5,-746 672.5,-768 755.5,-768 755.5,-746 672.5,-746"/>
<text text-anchor="start" x="675.5" y="-754.2" font-family="Helvetica,sans-Serif" font-size="11.00">numeric[0]</text>
<polygon fill="none" stroke="black" points="520.5,-724 520.5,-746 672.5,-746 672.5,-724 520.5,-724"/>
<text text-anchor="start" x="540.5" y="-732.2" font-family="Helvetica,sans-Serif" font-size="11.00">request_shipdate</text>
<polygon fill="none" stroke="black" points="672.5,-724 672.5,-746 755.5,-746 755.5,-724 672.5,-724"/>
<text text-anchor="start" x="675.5" y="-732.2" font-family="Helvetica,sans-Serif" font-size="11.00">timestamp[29,6]</text>
<polygon fill="none" stroke="black" points="520.5,-702 520.5,-724 672.5,-724 672.5,-702 520.5,-702"/>
<text text-anchor="start" x="540.5" y="-710.2" font-family="Helvetica,sans-Serif" font-size="11.00">request_price</text>
<polygon fill="none" stroke="black" points="672.5,-702 672.5,-724 755.5,-724 755.5,-702 672.5,-702"/>
<text text-anchor="start" x="675.5" y="-710.2" font-family="Helvetica,sans-Serif" font-size="11.00">numeric[0]</text>
<polygon fill="none" stroke="black" points="520.5,-680 520.5,-702 672.5,-702 672.5,-680 520.5,-680"/>
<text text-anchor="start" x="540.5" y="-688.2" font-family="Helvetica,sans-Serif" font-size="11.00">trxsent</text>
<polygon fill="none" stroke="black" points="672.5,-680 672.5,-702 755.5,-702 755.5,-680 672.5,-680"/>
<text text-anchor="start" x="675.5" y="-688.2" font-family="Helvetica,sans-Serif" font-size="11.00">timestamp[29,6]</text>
<polygon fill="none" stroke="black" points="520.5,-658 520.5,-680 672.5,-680 672.5,-658 520.5,-658"/>
<text text-anchor="start" x="540.5" y="-666.2" font-family="Helvetica,sans-Serif" font-size="11.00">trxreceived</text>
<polygon fill="none" stroke="black" points="672.5,-658 672.5,-680 755.5,-680 755.5,-658 672.5,-658"/>
<text text-anchor="start" x="675.5" y="-666.2" font-family="Helvetica,sans-Serif" font-size="11.00">timestamp[29,6]</text>
<polygon fill="none" stroke="black" points="520.5,-636 520.5,-658 672.5,-658 672.5,-636 520.5,-636"/>
<text text-anchor="start" x="540.5" y="-644.2" font-family="Helvetica,sans-Serif" font-size="11.00">reply_received</text>
<polygon fill="none" stroke="black" points="672.5,-636 672.5,-658 755.5,-658 755.5,-636 672.5,-636"/>
<text text-anchor="start" x="675.5" y="-644.2" font-family="Helvetica,sans-Serif" font-size="11.00">timestamp[29,6]</text>
<polygon fill="none" stroke="black" points="520.5,-614 520.5,-636 672.5,-636 672.5,-614 520.5,-614"/>
<text text-anchor="start" x="540.5" y="-622.2" font-family="Helvetica,sans-Serif" font-size="11.00">reply_qtyconfirmed</text>
<polygon fill="none" stroke="black" points="672.5,-614 672.5,-636 755.5,-636 755.5,-614 672.5,-614"/>
<text text-anchor="start" x="675.5" y="-622.2" font-family="Helvetica,sans-Serif" font-size="11.00">numeric[0]</text>
<polygon fill="none" stroke="black" points="520.5,-592 520.5,-614 672.5,-614 672.5,-592 520.5,-592"/>
<text text-anchor="start" x="540.5" y="-600.2" font-family="Helvetica,sans-Serif" font-size="11.00">reply_qtyavailable</text>
<polygon fill="none" stroke="black" points="672.5,-592 672.5,-614 755.5,-614 755.5,-592 672.5,-592"/>
<text text-anchor="start" x="675.5" y="-600.2" font-family="Helvetica,sans-Serif" font-size="11.00">numeric[0]</text>
<polygon fill="none" stroke="black" points="520.5,-570 520.5,-592 672.5,-592 672.5,-570 520.5,-570"/>
<text text-anchor="start" x="540.5" y="-578.2" font-family="Helvetica,sans-Serif" font-size="11.00">reply_shipdate</text>
<polygon fill="none" stroke="black" points="672.5,-570 672.5,-592 755.5,-592 755.5,-570 672.5,-570"/>
<text text-anchor="start" x="675.5" y="-578.2" font-family="Helvetica,sans-Serif" font-size="11.00">timestamp[29,6]</text>
<polygon fill="none" stroke="black" points="520.5,-548 520.5,-570 672.5,-570 672.5,-548 520.5,-548"/>
<text text-anchor="start" x="540.5" y="-556.2" font-family="Helvetica,sans-Serif" font-size="11.00">reply_price</text>
<polygon fill="none" stroke="black" points="672.5,-548 672.5,-570 755.5,-570 755.5,-548 672.5,-548"/>
<text text-anchor="start" x="675.5" y="-556.2" font-family="Helvetica,sans-Serif" font-size="11.00">numeric[0]</text>
<polygon fill="none" stroke="black" points="520.5,-526 520.5,-548 672.5,-548 672.5,-526 520.5,-526"/>
<text text-anchor="start" x="540.5" y="-534.2" font-family="Helvetica,sans-Serif" font-size="11.00">reply_remarks</text>
<polygon fill="none" stroke="black" points="672.5,-526 672.5,-548 755.5,-548 755.5,-526 672.5,-526"/>
<text text-anchor="start" x="675.5" y="-534.2" font-family="Helvetica,sans-Serif" font-size="11.00">varchar[2000]</text>
<polygon fill="none" stroke="black" points="520.5,-504 520.5,-526 672.5,-526 672.5,-504 520.5,-504"/>
<text text-anchor="start" x="540.5" y="-512.2" font-family="Helvetica,sans-Serif" font-size="11.00">processed</text>
<polygon fill="none" stroke="black" points="672.5,-504 672.5,-526 755.5,-526 755.5,-504 672.5,-504"/>
<text text-anchor="start" x="675.5" y="-512.2" font-family="Helvetica,sans-Serif" font-size="11.00">bpchar[1]</text>
<polygon fill="#ffffff" stroke="transparent" points="520.5,-486 520.5,-504 587.5,-504 587.5,-486 520.5,-486"/>
<polygon fill="none" stroke="black" points="520.5,-486 520.5,-504 587.5,-504 587.5,-486 520.5,-486"/>
<text text-anchor="start" x="523.5" y="-492.2" font-family="Helvetica,sans-Serif" font-size="11.00">&lt; 3</text>
<polygon fill="#ffffff" stroke="transparent" points="587.5,-486 587.5,-504 672.5,-504 672.5,-486 587.5,-486"/>
<polygon fill="none" stroke="black" points="587.5,-486 587.5,-504 672.5,-504 672.5,-486 587.5,-486"/>
<text text-anchor="start" x="636.5" y="-492.2" font-family="Helvetica,sans-Serif" font-size="11.00">0 rows</text>
<polygon fill="#ffffff" stroke="transparent" points="672.5,-486 672.5,-504 755.5,-504 755.5,-486 672.5,-486"/>
<polygon fill="none" stroke="black" points="672.5,-486 672.5,-504 755.5,-504 755.5,-486 672.5,-486"/>
<text text-anchor="start" x="736.5" y="-492.2" font-family="Helvetica,sans-Serif" font-size="11.00">1 &gt;</text>
<polygon fill="none" stroke="black" stroke-width="2" points="519,-485 519,-1121 756,-1121 756,-485 519,-485"/>
</a>
</g>
</g>
<!-- m_edi&#45;&gt;c_bp_edi -->
<g id="edge2" class="edge">
<title>m_edi:w&#45;&gt;c_bp_edi:e</title>
<path fill="none" stroke="black" d="M505.13,-912.86C473.13,-921.81 469.05,-960 428.5,-960"/>
<polygon fill="black" stroke="black" points="511.57,-912.03 519.96,-914.57 515.53,-911.51 519.5,-911 519.5,-911 519.5,-911 515.53,-911.51 519.04,-907.43 511.57,-912.03 511.57,-912.03"/>
<ellipse fill="none" stroke="black" cx="508.39" cy="-912.44" rx="3.2" ry="3.2"/>
</g>
<!-- m_edi&#45;&gt;m_warehouse -->
<g id="edge4" class="edge">
<title>m_edi:w&#45;&gt;m_warehouse:e</title>
<path fill="none" stroke="black" d="M504.72,-800.83C431.6,-799.32 281.1,-789.21 226,-815 202.5,-826 212.45,-858 186.5,-858"/>
<polygon fill="black" stroke="black" points="511.5,-800.91 519.46,-804.6 515.5,-800.95 519.5,-801 519.5,-801 519.5,-801 515.5,-800.95 519.54,-797.4 511.5,-800.91 511.5,-800.91"/>
<ellipse fill="none" stroke="black" cx="508.3" cy="-800.87" rx="3.2" ry="3.2"/>
</g>
<!-- m_product -->
<g id="node4" class="node">
<title>m_product</title>
<g id="a_node4"><a xlink:href="../../tables/m_product.html" xlink:title="m_product" target="_top">
<polygon fill="#ffffff" stroke="transparent" points="234,-37 234,-777 469,-777 469,-37 234,-37"/>
<polygon fill="#f5f5f5" stroke="transparent" points="234.5,-755 234.5,-777 469.5,-777 469.5,-755 234.5,-755"/>
<polygon fill="none" stroke="black" points="234.5,-755 234.5,-777 469.5,-777 469.5,-755 234.5,-755"/>
<text text-anchor="start" x="239.5" y="-764.2" font-family="Helvetica,sans-Serif" font-weight="bold" font-size="11.00">m_product</text>
<text text-anchor="start" x="434.5" y="-763.2" font-family="Helvetica,sans-Serif" font-size="11.00">[table]</text>
<polygon fill="none" stroke="black" points="234.5,-733 234.5,-755 469.5,-755 469.5,-733 234.5,-733"/>
<image xlink:href="../../images/primaryKeys.png" width="11px" height="12px" preserveAspectRatio="xMinYMin meet" x="239.5" y="-750"/>
<text text-anchor="start" x="254.5" y="-741.2" font-family="Helvetica,sans-Serif" font-size="11.00">m_product_id</text>
<polygon fill="#ffffff" stroke="transparent" points="234.5,-711 234.5,-733 469.5,-733 469.5,-711 234.5,-711"/>
<polygon fill="none" stroke="black" points="234.5,-711 234.5,-733 469.5,-733 469.5,-711 234.5,-711"/>
<image xlink:href="../../images/foreignKeys.png" width="11px" height="12px" preserveAspectRatio="xMinYMin meet" x="239.5" y="-728"/>
<text text-anchor="start" x="254.5" y="-719.2" font-family="Helvetica,sans-Serif" font-size="11.00">ad_client_id</text>
<polygon fill="none" stroke="black" points="234.5,-689 234.5,-711 469.5,-711 469.5,-689 234.5,-689"/>
<image xlink:href="../../images/foreignKeys.png" width="11px" height="12px" preserveAspectRatio="xMinYMin meet" x="239.5" y="-706"/>
<text text-anchor="start" x="254.5" y="-697.2" font-family="Helvetica,sans-Serif" font-size="11.00">ad_org_id</text>
<polygon fill="#ffffff" stroke="transparent" points="234.5,-667 234.5,-689 469.5,-689 469.5,-667 234.5,-667"/>
<polygon fill="none" stroke="black" points="234.5,-667 234.5,-689 469.5,-689 469.5,-667 234.5,-667"/>
<text text-anchor="start" x="254.5" y="-675.2" font-family="Helvetica,sans-Serif" font-size="11.00">value</text>
<polygon fill="#ffffff" stroke="transparent" points="234.5,-645 234.5,-667 469.5,-667 469.5,-645 234.5,-645"/>
<polygon fill="none" stroke="black" points="234.5,-645 234.5,-667 469.5,-667 469.5,-645 234.5,-645"/>
<text text-anchor="start" x="254.5" y="-653.2" font-family="Helvetica,sans-Serif" font-size="11.00">name</text>
<polygon fill="#ffffff" stroke="transparent" points="234.5,-623 234.5,-645 469.5,-645 469.5,-623 234.5,-623"/>
<polygon fill="none" stroke="black" points="234.5,-623 234.5,-645 469.5,-645 469.5,-623 234.5,-623"/>
<text text-anchor="start" x="254.5" y="-631.2" font-family="Helvetica,sans-Serif" font-size="11.00">upc</text>
<polygon fill="none" stroke="black" points="234.5,-601 234.5,-623 469.5,-623 469.5,-601 234.5,-601"/>
<image xlink:href="../../images/foreignKeys.png" width="11px" height="12px" preserveAspectRatio="xMinYMin meet" x="239.5" y="-618"/>
<text text-anchor="start" x="254.5" y="-609.2" font-family="Helvetica,sans-Serif" font-size="11.00">c_uom_id</text>
<polygon fill="none" stroke="black" points="234.5,-579 234.5,-601 469.5,-601 469.5,-579 234.5,-579"/>
<image xlink:href="../../images/foreignKeys.png" width="11px" height="12px" preserveAspectRatio="xMinYMin meet" x="239.5" y="-596"/>
<text text-anchor="start" x="254.5" y="-587.2" font-family="Helvetica,sans-Serif" font-size="11.00">salesrep_id</text>
<polygon fill="none" stroke="black" points="234.5,-557 234.5,-579 469.5,-579 469.5,-557 234.5,-557"/>
<image xlink:href="../../images/foreignKeys.png" width="11px" height="12px" preserveAspectRatio="xMinYMin meet" x="239.5" y="-574"/>
<text text-anchor="start" x="254.5" y="-565.2" font-family="Helvetica,sans-Serif" font-size="11.00">c_revenuerecognition_id</text>
<polygon fill="#ffffff" stroke="transparent" points="234.5,-535 234.5,-557 469.5,-557 469.5,-535 234.5,-535"/>
<polygon fill="none" stroke="black" points="234.5,-535 234.5,-557 469.5,-557 469.5,-535 234.5,-535"/>
<image xlink:href="../../images/foreignKeys.png" width="11px" height="12px" preserveAspectRatio="xMinYMin meet" x="239.5" y="-552"/>
<text text-anchor="start" x="254.5" y="-543.2" font-family="Helvetica,sans-Serif" font-size="11.00">m_product_category_id</text>
<polygon fill="none" stroke="black" points="234.5,-513 234.5,-535 469.5,-535 469.5,-513 234.5,-513"/>
<image xlink:href="../../images/foreignKeys.png" width="11px" height="12px" preserveAspectRatio="xMinYMin meet" x="239.5" y="-530"/>
<text text-anchor="start" x="254.5" y="-521.2" font-family="Helvetica,sans-Serif" font-size="11.00">c_taxcategory_id</text>
<polygon fill="#ffffff" stroke="transparent" points="234.5,-491 234.5,-513 469.5,-513 469.5,-491 234.5,-491"/>
<polygon fill="none" stroke="black" points="234.5,-491 234.5,-513 469.5,-513 469.5,-491 234.5,-491"/>
<image xlink:href="../../images/foreignKeys.png" width="11px" height="12px" preserveAspectRatio="xMinYMin meet" x="239.5" y="-508"/>
<text text-anchor="start" x="254.5" y="-499.2" font-family="Helvetica,sans-Serif" font-size="11.00">s_resource_id</text>
<polygon fill="#ffffff" stroke="transparent" points="234.5,-469 234.5,-491 469.5,-491 469.5,-469 234.5,-469"/>
<polygon fill="none" stroke="black" points="234.5,-469 234.5,-491 469.5,-491 469.5,-469 234.5,-469"/>
<image xlink:href="../../images/foreignKeys.png" width="11px" height="12px" preserveAspectRatio="xMinYMin meet" x="239.5" y="-486"/>
<text text-anchor="start" x="254.5" y="-477.2" font-family="Helvetica,sans-Serif" font-size="11.00">s_expensetype_id</text>
<polygon fill="none" stroke="black" points="234.5,-447 234.5,-469 469.5,-469 469.5,-447 234.5,-447"/>
<image xlink:href="../../images/foreignKeys.png" width="11px" height="12px" preserveAspectRatio="xMinYMin meet" x="239.5" y="-464"/>
<text text-anchor="start" x="254.5" y="-455.2" font-family="Helvetica,sans-Serif" font-size="11.00">r_mailtext_id</text>
<polygon fill="none" stroke="black" points="234.5,-425 234.5,-447 469.5,-447 469.5,-425 234.5,-425"/>
<image xlink:href="../../images/foreignKeys.png" width="11px" height="12px" preserveAspectRatio="xMinYMin meet" x="239.5" y="-442"/>
<text text-anchor="start" x="254.5" y="-433.2" font-family="Helvetica,sans-Serif" font-size="11.00">m_attributeset_id</text>
<polygon fill="none" stroke="black" points="234.5,-403 234.5,-425 469.5,-425 469.5,-403 234.5,-403"/>
<image xlink:href="../../images/foreignKeys.png" width="11px" height="12px" preserveAspectRatio="xMinYMin meet" x="239.5" y="-420"/>
<text text-anchor="start" x="254.5" y="-411.2" font-family="Helvetica,sans-Serif" font-size="11.00">m_attributesetinstance_id</text>
<polygon fill="none" stroke="black" points="234.5,-381 234.5,-403 469.5,-403 469.5,-381 234.5,-381"/>
<image xlink:href="../../images/foreignKeys.png" width="11px" height="12px" preserveAspectRatio="xMinYMin meet" x="239.5" y="-398"/>
<text text-anchor="start" x="254.5" y="-389.2" font-family="Helvetica,sans-Serif" font-size="11.00">m_freightcategory_id</text>
<polygon fill="none" stroke="black" points="234.5,-359 234.5,-381 469.5,-381 469.5,-359 234.5,-359"/>
<image xlink:href="../../images/foreignKeys.png" width="11px" height="12px" preserveAspectRatio="xMinYMin meet" x="239.5" y="-376"/>
<text text-anchor="start" x="254.5" y="-367.2" font-family="Helvetica,sans-Serif" font-size="11.00">m_locator_id</text>
<polygon fill="none" stroke="black" points="234.5,-337 234.5,-359 469.5,-359 469.5,-337 234.5,-337"/>
<image xlink:href="../../images/foreignKeys.png" width="11px" height="12px" preserveAspectRatio="xMinYMin meet" x="239.5" y="-354"/>
<text text-anchor="start" x="254.5" y="-345.2" font-family="Helvetica,sans-Serif" font-size="11.00">c_subscriptiontype_id</text>
<polygon fill="#ffffff" stroke="transparent" points="234.5,-315 234.5,-337 469.5,-337 469.5,-315 234.5,-315"/>
<polygon fill="none" stroke="black" points="234.5,-315 234.5,-337 469.5,-337 469.5,-315 234.5,-315"/>
<text text-anchor="start" x="254.5" y="-323.2" font-family="Helvetica,sans-Serif" font-size="11.00">m_product_uu</text>
<polygon fill="none" stroke="black" points="234.5,-293 234.5,-315 469.5,-315 469.5,-293 234.5,-293"/>
<image xlink:href="../../images/foreignKeys.png" width="11px" height="12px" preserveAspectRatio="xMinYMin meet" x="239.5" y="-310"/>
<text text-anchor="start" x="254.5" y="-301.2" font-family="Helvetica,sans-Serif" font-size="11.00">m_parttype_id</text>
<polygon fill="none" stroke="black" points="234.5,-271 234.5,-293 469.5,-293 469.5,-271 234.5,-271"/>
<image xlink:href="../../images/foreignKeys.png" width="11px" height="12px" preserveAspectRatio="xMinYMin meet" x="239.5" y="-288"/>
<text text-anchor="start" x="254.5" y="-279.2" font-family="Helvetica,sans-Serif" font-size="11.00">lbr_productcategory_id</text>
<polygon fill="none" stroke="black" points="234.5,-249 234.5,-271 469.5,-271 469.5,-249 234.5,-249"/>
<image xlink:href="../../images/foreignKeys.png" width="11px" height="12px" preserveAspectRatio="xMinYMin meet" x="239.5" y="-266"/>
<text text-anchor="start" x="254.5" y="-257.2" font-family="Helvetica,sans-Serif" font-size="11.00">lbr_ncm_id</text>
<polygon fill="none" stroke="black" points="234.5,-227 234.5,-249 469.5,-249 469.5,-227 234.5,-227"/>
<image xlink:href="../../images/foreignKeys.png" width="11px" height="12px" preserveAspectRatio="xMinYMin meet" x="239.5" y="-244"/>
<text text-anchor="start" x="254.5" y="-235.2" font-family="Helvetica,sans-Serif" font-size="11.00">lbr_fiscalgroup_product_id</text>
<polygon fill="none" stroke="black" points="234.5,-205 234.5,-227 469.5,-227 469.5,-205 234.5,-205"/>
<image xlink:href="../../images/foreignKeys.png" width="11px" height="12px" preserveAspectRatio="xMinYMin meet" x="239.5" y="-222"/>
<text text-anchor="start" x="254.5" y="-213.2" font-family="Helvetica,sans-Serif" font-size="11.00">cof_cest_id</text>
<polygon fill="none" stroke="black" points="234.5,-183 234.5,-205 469.5,-205 469.5,-183 234.5,-183"/>
<image xlink:href="../../images/foreignKeys.png" width="11px" height="12px" preserveAspectRatio="xMinYMin meet" x="239.5" y="-200"/>
<text text-anchor="start" x="254.5" y="-191.2" font-family="Helvetica,sans-Serif" font-size="11.00">cof_c_generoitem_sped_id</text>
<polygon fill="none" stroke="black" points="234.5,-161 234.5,-183 469.5,-183 469.5,-161 234.5,-161"/>
<image xlink:href="../../images/foreignKeys.png" width="11px" height="12px" preserveAspectRatio="xMinYMin meet" x="239.5" y="-178"/>
<text text-anchor="start" x="254.5" y="-169.2" font-family="Helvetica,sans-Serif" font-size="11.00">cof_producttype_id</text>
<polygon fill="none" stroke="black" points="234.5,-139 234.5,-161 469.5,-161 469.5,-139 234.5,-139"/>
<image xlink:href="../../images/foreignKeys.png" width="11px" height="12px" preserveAspectRatio="xMinYMin meet" x="239.5" y="-156"/>
<text text-anchor="start" x="254.5" y="-147.2" font-family="Helvetica,sans-Serif" font-size="11.00">cof_productclass_id</text>
<polygon fill="none" stroke="black" points="234.5,-117 234.5,-139 469.5,-139 469.5,-117 234.5,-117"/>
<image xlink:href="../../images/foreignKeys.png" width="11px" height="12px" preserveAspectRatio="xMinYMin meet" x="239.5" y="-134"/>
<text text-anchor="start" x="254.5" y="-125.2" font-family="Helvetica,sans-Serif" font-size="11.00">cof_productgroup_id</text>
<polygon fill="none" stroke="black" points="234.5,-95 234.5,-117 469.5,-117 469.5,-95 234.5,-95"/>
<image xlink:href="../../images/foreignKeys.png" width="11px" height="12px" preserveAspectRatio="xMinYMin meet" x="239.5" y="-112"/>
<text text-anchor="start" x="254.5" y="-103.2" font-family="Helvetica,sans-Serif" font-size="11.00">cof_nbs_id</text>
<polygon fill="none" stroke="black" points="234.5,-73 234.5,-95 469.5,-95 469.5,-73 234.5,-73"/>
<image xlink:href="../../images/foreignKeys.png" width="11px" height="12px" preserveAspectRatio="xMinYMin meet" x="239.5" y="-90"/>
<text text-anchor="start" x="254.5" y="-81.2" font-family="Helvetica,sans-Serif" font-size="11.00">cof_grupofornecedor_id</text>
<polygon fill="none" stroke="black" points="234.5,-55 234.5,-73 469.5,-73 469.5,-55 234.5,-55"/>
<text text-anchor="start" x="237.5" y="-61.2" font-family="Helvetica,sans-Serif" font-size="11.00">...</text>
<polygon fill="#ffffff" stroke="transparent" points="234.5,-37 234.5,-55 331.5,-55 331.5,-37 234.5,-37"/>
<polygon fill="none" stroke="black" points="234.5,-37 234.5,-55 331.5,-55 331.5,-37 234.5,-37"/>
<text text-anchor="start" x="237.5" y="-43.2" font-family="Helvetica,sans-Serif" font-size="11.00">&lt; 22</text>
<polygon fill="#ffffff" stroke="transparent" points="331.5,-37 331.5,-55 400.5,-55 400.5,-37 331.5,-37"/>
<polygon fill="none" stroke="black" points="331.5,-37 331.5,-55 400.5,-55 400.5,-37 331.5,-37"/>
<text text-anchor="start" x="369.5" y="-43.2" font-family="Helvetica,sans-Serif" font-size="11.00">1 row</text>
<polygon fill="#ffffff" stroke="transparent" points="400.5,-37 400.5,-55 469.5,-55 469.5,-37 400.5,-37"/>
<polygon fill="none" stroke="black" points="400.5,-37 400.5,-55 469.5,-55 469.5,-37 400.5,-37"/>
<text text-anchor="start" x="438.5" y="-43.2" font-family="Helvetica,sans-Serif" font-size="11.00">172 &gt;</text>
</a>
</g>
</g>
<!-- m_edi&#45;&gt;m_product -->
<g id="edge3" class="edge">
<title>m_edi:w&#45;&gt;m_product:e</title>
<path fill="none" stroke="black" d="M505.4,-774.42C493.18,-764.94 491.2,-744 470.5,-744"/>
<polygon fill="black" stroke="black" points="511.89,-776.53 518.39,-782.42 515.7,-777.77 519.5,-779 519.5,-779 519.5,-779 515.7,-777.77 520.61,-775.58 511.89,-776.53 511.89,-776.53"/>
<ellipse fill="none" stroke="black" cx="508.85" cy="-775.54" rx="3.2" ry="3.2"/>
</g>
<!-- m_edi_info -->
<g id="node5" class="node">
<title>m_edi_info</title>
<g id="a_node5"><a xlink:href="../../tables/m_edi_info.html" xlink:title="m_edi_info" target="_top">
<polygon fill="#ffffff" stroke="transparent" points="806,-1040 806,-1142 917,-1142 917,-1040 806,-1040"/>
<polygon fill="#f5f5f5" stroke="transparent" points="806.5,-1120 806.5,-1142 917.5,-1142 917.5,-1120 806.5,-1120"/>
<polygon fill="none" stroke="black" points="806.5,-1120 806.5,-1142 917.5,-1142 917.5,-1120 806.5,-1120"/>
<text text-anchor="start" x="811.5" y="-1129.2" font-family="Helvetica,sans-Serif" font-weight="bold" font-size="11.00">m_edi_info</text>
<text text-anchor="start" x="882.5" y="-1128.2" font-family="Helvetica,sans-Serif" font-size="11.00">[table]</text>
<polygon fill="none" stroke="black" points="806.5,-1098 806.5,-1120 917.5,-1120 917.5,-1098 806.5,-1098"/>
<image xlink:href="../../images/primaryKeys.png" width="11px" height="12px" preserveAspectRatio="xMinYMin meet" x="811.5" y="-1115"/>
<text text-anchor="start" x="826.5" y="-1106.2" font-family="Helvetica,sans-Serif" font-size="11.00">m_edi_info_id</text>
<polygon fill="none" stroke="black" points="806.5,-1076 806.5,-1098 917.5,-1098 917.5,-1076 806.5,-1076"/>
<image xlink:href="../../images/foreignKeys.png" width="11px" height="12px" preserveAspectRatio="xMinYMin meet" x="811.5" y="-1093"/>
<text text-anchor="start" x="826.5" y="-1084.2" font-family="Helvetica,sans-Serif" font-size="11.00">m_edi_id</text>
<polygon fill="none" stroke="black" points="806.5,-1058 806.5,-1076 917.5,-1076 917.5,-1058 806.5,-1058"/>
<text text-anchor="start" x="809.5" y="-1064.2" font-family="Helvetica,sans-Serif" font-size="11.00">...</text>
<polygon fill="#ffffff" stroke="transparent" points="806.5,-1040 806.5,-1058 846.5,-1058 846.5,-1040 806.5,-1040"/>
<polygon fill="none" stroke="black" points="806.5,-1040 806.5,-1058 846.5,-1058 846.5,-1040 806.5,-1040"/>
<text text-anchor="start" x="809.5" y="-1046.2" font-family="Helvetica,sans-Serif" font-size="11.00">&lt; 1</text>
<polygon fill="#ffffff" stroke="transparent" points="846.5,-1040 846.5,-1058 894.5,-1058 894.5,-1040 846.5,-1040"/>
<polygon fill="none" stroke="black" points="846.5,-1040 846.5,-1058 894.5,-1058 894.5,-1040 846.5,-1040"/>
<text text-anchor="start" x="858.5" y="-1046.2" font-family="Helvetica,sans-Serif" font-size="11.00">0 rows</text>
<polygon fill="#ffffff" stroke="transparent" points="894.5,-1040 894.5,-1058 917.5,-1058 917.5,-1040 894.5,-1040"/>
<polygon fill="none" stroke="black" points="894.5,-1040 894.5,-1058 917.5,-1058 917.5,-1040 894.5,-1040"/>
<text text-anchor="start" x="907.5" y="-1046.2" font-family="Helvetica,sans-Serif" font-size="11.00"> &#160;</text>
</a>
</g>
</g>
<!-- m_edi_info&#45;&gt;m_edi -->
<g id="edge5" class="edge">
<title>m_edi_info:w&#45;&gt;m_edi:e</title>
<path fill="none" stroke="black" d="M790.99,-1087C779.68,-1087 772.49,-1087 756.5,-1087"/>
<polygon fill="black" stroke="black" points="797.5,-1087 805.5,-1090.6 801.5,-1087 805.5,-1087 805.5,-1087 805.5,-1087 801.5,-1087 805.5,-1083.4 797.5,-1087 797.5,-1087"/>
<ellipse fill="none" stroke="black" cx="794.3" cy="-1087" rx="3.2" ry="3.2"/>
</g>
</g>
</svg>
