<?xml version="1.0" encoding="UTF-8" standalone="no"?>
<!DOCTYPE svg PUBLIC "-//W3C//DTD SVG 1.1//EN"
 "http://www.w3.org/Graphics/SVG/1.1/DTD/svg11.dtd">
<!-- Generated by graphviz version 2.43.0 (0)
 -->
<!-- Title: oneDegreeRelationshipsDiagramImplied Pages: 1 -->
<svg width="610pt" height="1039pt"
 viewBox="0.00 0.00 610.00 1039.00" xmlns="http://www.w3.org/2000/svg" xmlns:xlink="http://www.w3.org/1999/xlink">
<g id="graph0" class="graph" transform="scale(1 1) rotate(0) translate(4 1035)">
<title>oneDegreeRelationshipsDiagramImplied</title>
<polygon fill="#ffffff" stroke="transparent" points="-4,4 -4,-1035 606,-1035 606,4 -4,4"/>
<text text-anchor="middle" x="71.5" y="-7.2" font-family="Helvetica,sans-Serif" font-size="11.00">Generated by SchemaSpy</text>
<!-- m_inout_createfrom_v -->
<g id="node1" class="node">
<title>m_inout_createfrom_v</title>
<g id="a_node1"><a xlink:href="../../tables/m_inout_createfrom_v.html" xlink:title="m_inout_createfrom_v" target="_top">
<polygon fill="#ffffff" stroke="transparent" points="293,-495 293,-1027 594,-1027 594,-495 293,-495"/>
<polygon fill="#f5f5f5" stroke="transparent" points="295.5,-1003 295.5,-1025 592.5,-1025 592.5,-1003 295.5,-1003"/>
<polygon fill="none" stroke="black" points="295.5,-1003 295.5,-1025 592.5,-1025 592.5,-1003 295.5,-1003"/>
<text text-anchor="start" x="300.5" y="-1012.2" font-family="Helvetica,sans-Serif" font-weight="bold" font-size="11.00">m_inout_createfrom_v</text>
<text text-anchor="start" x="559.5" y="-1011.2" font-family="Helvetica,sans-Serif" font-size="11.00">[view]</text>
<polygon fill="none" stroke="black" points="295.5,-981 295.5,-1003 483.5,-1003 483.5,-981 295.5,-981"/>
<text text-anchor="start" x="315.5" y="-989.2" font-family="Helvetica,sans-Serif" font-size="11.00">qty</text>
<polygon fill="none" stroke="black" points="483.5,-981 483.5,-1003 592.5,-1003 592.5,-981 483.5,-981"/>
<text text-anchor="start" x="486.5" y="-989.2" font-family="Helvetica,sans-Serif" font-size="11.00">numeric[0]</text>
<polygon fill="none" stroke="black" points="295.5,-959 295.5,-981 483.5,-981 483.5,-959 295.5,-959"/>
<text text-anchor="start" x="315.5" y="-967.2" font-family="Helvetica,sans-Serif" font-size="11.00">multiplier</text>
<polygon fill="none" stroke="black" points="483.5,-959 483.5,-981 592.5,-981 592.5,-959 483.5,-959"/>
<text text-anchor="start" x="486.5" y="-967.2" font-family="Helvetica,sans-Serif" font-size="11.00">numeric[0]</text>
<polygon fill="none" stroke="black" points="295.5,-937 295.5,-959 483.5,-959 483.5,-937 295.5,-937"/>
<image xlink:href="../../images/foreignKeys.png" width="11px" height="12px" preserveAspectRatio="xMinYMin meet" x="300.5" y="-954"/>
<text text-anchor="start" x="315.5" y="-945.2" font-family="Helvetica,sans-Serif" font-size="11.00">c_uom_id</text>
<polygon fill="none" stroke="black" points="483.5,-937 483.5,-959 592.5,-959 592.5,-937 483.5,-937"/>
<text text-anchor="start" x="486.5" y="-945.2" font-family="Helvetica,sans-Serif" font-size="11.00">numeric[10]</text>
<polygon fill="none" stroke="black" points="295.5,-915 295.5,-937 483.5,-937 483.5,-915 295.5,-915"/>
<text text-anchor="start" x="315.5" y="-923.2" font-family="Helvetica,sans-Serif" font-size="11.00">m_locator_id</text>
<polygon fill="none" stroke="black" points="483.5,-915 483.5,-937 592.5,-937 592.5,-915 483.5,-915"/>
<text text-anchor="start" x="486.5" y="-923.2" font-family="Helvetica,sans-Serif" font-size="11.00">numeric[0]</text>
<polygon fill="none" stroke="black" points="295.5,-893 295.5,-915 483.5,-915 483.5,-893 295.5,-893"/>
<text text-anchor="start" x="315.5" y="-901.2" font-family="Helvetica,sans-Serif" font-size="11.00">m_product_id</text>
<polygon fill="none" stroke="black" points="483.5,-893 483.5,-915 592.5,-915 592.5,-893 483.5,-893"/>
<text text-anchor="start" x="486.5" y="-901.2" font-family="Helvetica,sans-Serif" font-size="11.00">numeric[0]</text>
<polygon fill="none" stroke="black" points="295.5,-871 295.5,-893 483.5,-893 483.5,-871 295.5,-871"/>
<text text-anchor="start" x="315.5" y="-879.2" font-family="Helvetica,sans-Serif" font-size="11.00">c_charge_id</text>
<polygon fill="none" stroke="black" points="483.5,-871 483.5,-893 592.5,-893 592.5,-871 483.5,-871"/>
<text text-anchor="start" x="486.5" y="-879.2" font-family="Helvetica,sans-Serif" font-size="11.00">numeric[0]</text>
<polygon fill="none" stroke="black" points="295.5,-849 295.5,-871 483.5,-871 483.5,-849 295.5,-849"/>
<text text-anchor="start" x="315.5" y="-857.2" font-family="Helvetica,sans-Serif" font-size="11.00">vendorproductno</text>
<polygon fill="none" stroke="black" points="483.5,-849 483.5,-871 592.5,-871 592.5,-849 483.5,-849"/>
<text text-anchor="start" x="486.5" y="-857.2" font-family="Helvetica,sans-Serif" font-size="11.00">varchar[2147483647]</text>
<polygon fill="none" stroke="black" points="295.5,-827 295.5,-849 483.5,-849 483.5,-827 295.5,-827"/>
<text text-anchor="start" x="315.5" y="-835.2" font-family="Helvetica,sans-Serif" font-size="11.00">line</text>
<polygon fill="none" stroke="black" points="483.5,-827 483.5,-849 592.5,-849 592.5,-827 483.5,-827"/>
<text text-anchor="start" x="486.5" y="-835.2" font-family="Helvetica,sans-Serif" font-size="11.00">numeric[10]</text>
<polygon fill="none" stroke="black" points="295.5,-805 295.5,-827 483.5,-827 483.5,-805 295.5,-805"/>
<text text-anchor="start" x="315.5" y="-813.2" font-family="Helvetica,sans-Serif" font-size="11.00">c_orderline_id</text>
<polygon fill="none" stroke="black" points="483.5,-805 483.5,-827 592.5,-827 592.5,-805 483.5,-805"/>
<text text-anchor="start" x="486.5" y="-813.2" font-family="Helvetica,sans-Serif" font-size="11.00">numeric[0]</text>
<polygon fill="none" stroke="black" points="295.5,-783 295.5,-805 483.5,-805 483.5,-783 295.5,-783"/>
<text text-anchor="start" x="315.5" y="-791.2" font-family="Helvetica,sans-Serif" font-size="11.00">c_invoiceline_id</text>
<polygon fill="none" stroke="black" points="483.5,-783 483.5,-805 592.5,-805 592.5,-783 483.5,-783"/>
<text text-anchor="start" x="486.5" y="-791.2" font-family="Helvetica,sans-Serif" font-size="11.00">numeric[0]</text>
<polygon fill="none" stroke="black" points="295.5,-761 295.5,-783 483.5,-783 483.5,-761 295.5,-761"/>
<text text-anchor="start" x="315.5" y="-769.2" font-family="Helvetica,sans-Serif" font-size="11.00">m_rmaline_id</text>
<polygon fill="none" stroke="black" points="483.5,-761 483.5,-783 592.5,-783 592.5,-761 483.5,-761"/>
<text text-anchor="start" x="486.5" y="-769.2" font-family="Helvetica,sans-Serif" font-size="11.00">numeric[0]</text>
<polygon fill="none" stroke="black" points="295.5,-739 295.5,-761 483.5,-761 483.5,-739 295.5,-739"/>
<image xlink:href="../../images/foreignKeys.png" width="11px" height="12px" preserveAspectRatio="xMinYMin meet" x="300.5" y="-756"/>
<text text-anchor="start" x="315.5" y="-747.2" font-family="Helvetica,sans-Serif" font-size="11.00">c_bpartner_id</text>
<polygon fill="none" stroke="black" points="483.5,-739 483.5,-761 592.5,-761 592.5,-739 483.5,-739"/>
<text text-anchor="start" x="486.5" y="-747.2" font-family="Helvetica,sans-Serif" font-size="11.00">numeric[10]</text>
<polygon fill="none" stroke="black" points="295.5,-717 295.5,-739 483.5,-739 483.5,-717 295.5,-717"/>
<text text-anchor="start" x="315.5" y="-725.2" font-family="Helvetica,sans-Serif" font-size="11.00">c_order_id</text>
<polygon fill="none" stroke="black" points="483.5,-717 483.5,-739 592.5,-739 592.5,-717 483.5,-717"/>
<text text-anchor="start" x="486.5" y="-725.2" font-family="Helvetica,sans-Serif" font-size="11.00">numeric[0]</text>
<polygon fill="none" stroke="black" points="295.5,-695 295.5,-717 483.5,-717 483.5,-695 295.5,-695"/>
<text text-anchor="start" x="315.5" y="-703.2" font-family="Helvetica,sans-Serif" font-size="11.00">c_invoice_id</text>
<polygon fill="none" stroke="black" points="483.5,-695 483.5,-717 592.5,-717 592.5,-695 483.5,-695"/>
<text text-anchor="start" x="486.5" y="-703.2" font-family="Helvetica,sans-Serif" font-size="11.00">numeric[0]</text>
<polygon fill="none" stroke="black" points="295.5,-673 295.5,-695 483.5,-695 483.5,-673 295.5,-673"/>
<text text-anchor="start" x="315.5" y="-681.2" font-family="Helvetica,sans-Serif" font-size="11.00">m_rma_id</text>
<polygon fill="none" stroke="black" points="483.5,-673 483.5,-695 592.5,-695 592.5,-673 483.5,-673"/>
<text text-anchor="start" x="486.5" y="-681.2" font-family="Helvetica,sans-Serif" font-size="11.00">numeric[0]</text>
<polygon fill="none" stroke="black" points="295.5,-651 295.5,-673 483.5,-673 483.5,-651 295.5,-651"/>
<text text-anchor="start" x="315.5" y="-659.2" font-family="Helvetica,sans-Serif" font-size="11.00">m_inout_createfrom_v_id</text>
<polygon fill="none" stroke="black" points="483.5,-651 483.5,-673 592.5,-673 592.5,-651 483.5,-651"/>
<text text-anchor="start" x="486.5" y="-659.2" font-family="Helvetica,sans-Serif" font-size="11.00">numeric[10]</text>
<polygon fill="none" stroke="black" points="295.5,-629 295.5,-651 483.5,-651 483.5,-629 295.5,-629"/>
<text text-anchor="start" x="315.5" y="-637.2" font-family="Helvetica,sans-Serif" font-size="11.00">ad_client_id</text>
<polygon fill="none" stroke="black" points="483.5,-629 483.5,-651 592.5,-651 592.5,-629 483.5,-629"/>
<text text-anchor="start" x="486.5" y="-637.2" font-family="Helvetica,sans-Serif" font-size="11.00">numeric[10]</text>
<polygon fill="none" stroke="black" points="295.5,-607 295.5,-629 483.5,-629 483.5,-607 295.5,-607"/>
<text text-anchor="start" x="315.5" y="-615.2" font-family="Helvetica,sans-Serif" font-size="11.00">ad_org_id</text>
<polygon fill="none" stroke="black" points="483.5,-607 483.5,-629 592.5,-629 592.5,-607 483.5,-607"/>
<text text-anchor="start" x="486.5" y="-615.2" font-family="Helvetica,sans-Serif" font-size="11.00">numeric[10]</text>
<polygon fill="none" stroke="black" points="295.5,-585 295.5,-607 483.5,-607 483.5,-585 295.5,-585"/>
<text text-anchor="start" x="315.5" y="-593.2" font-family="Helvetica,sans-Serif" font-size="11.00">isactive</text>
<polygon fill="none" stroke="black" points="483.5,-585 483.5,-607 592.5,-607 592.5,-585 483.5,-585"/>
<text text-anchor="start" x="486.5" y="-593.2" font-family="Helvetica,sans-Serif" font-size="11.00">bpchar[1]</text>
<polygon fill="none" stroke="black" points="295.5,-563 295.5,-585 483.5,-585 483.5,-563 295.5,-563"/>
<text text-anchor="start" x="315.5" y="-571.2" font-family="Helvetica,sans-Serif" font-size="11.00">upc</text>
<polygon fill="none" stroke="black" points="483.5,-563 483.5,-585 592.5,-585 592.5,-563 483.5,-563"/>
<text text-anchor="start" x="486.5" y="-571.2" font-family="Helvetica,sans-Serif" font-size="11.00">varchar[2147483647]</text>
<polygon fill="none" stroke="black" points="295.5,-541 295.5,-563 483.5,-563 483.5,-541 295.5,-541"/>
<text text-anchor="start" x="315.5" y="-549.2" font-family="Helvetica,sans-Serif" font-size="11.00">m_warehouse_id</text>
<polygon fill="none" stroke="black" points="483.5,-541 483.5,-563 592.5,-563 592.5,-541 483.5,-541"/>
<text text-anchor="start" x="486.5" y="-549.2" font-family="Helvetica,sans-Serif" font-size="11.00">numeric[0]</text>
<polygon fill="none" stroke="black" points="295.5,-519 295.5,-541 483.5,-541 483.5,-519 295.5,-519"/>
<text text-anchor="start" x="315.5" y="-527.2" font-family="Helvetica,sans-Serif" font-size="11.00">issotrx</text>
<polygon fill="none" stroke="black" points="483.5,-519 483.5,-541 592.5,-541 592.5,-519 483.5,-519"/>
<text text-anchor="start" x="486.5" y="-527.2" font-family="Helvetica,sans-Serif" font-size="11.00">bpchar[1]</text>
<polygon fill="none" stroke="black" points="295.5,-497 295.5,-519 483.5,-519 483.5,-497 295.5,-497"/>
<text text-anchor="start" x="315.5" y="-505.2" font-family="Helvetica,sans-Serif" font-size="11.00">ad_table_id</text>
<polygon fill="none" stroke="black" points="483.5,-497 483.5,-519 592.5,-519 592.5,-497 483.5,-497"/>
<text text-anchor="start" x="486.5" y="-505.2" font-family="Helvetica,sans-Serif" font-size="11.00">int4[10]</text>
<polygon fill="none" stroke="black" stroke-width="2" points="294,-496 294,-1026 593,-1026 593,-496 294,-496"/>
</a>
</g>
</g>
<!-- c_bpartner -->
<g id="node2" class="node">
<title>c_bpartner</title>
<g id="a_node2"><a xlink:href="../../tables/c_bpartner.html" xlink:title="c_bpartner" target="_top">
<polygon fill="#ffffff" stroke="transparent" points="8,-37 8,-777 244,-777 244,-37 8,-37"/>
<polygon fill="#f5f5f5" stroke="transparent" points="8,-755 8,-777 244,-777 244,-755 8,-755"/>
<polygon fill="none" stroke="black" points="8,-755 8,-777 244,-777 244,-755 8,-755"/>
<text text-anchor="start" x="13" y="-764.2" font-family="Helvetica,sans-Serif" font-weight="bold" font-size="11.00">c_bpartner</text>
<text text-anchor="start" x="209" y="-763.2" font-family="Helvetica,sans-Serif" font-size="11.00">[table]</text>
<polygon fill="none" stroke="black" points="8,-733 8,-755 244,-755 244,-733 8,-733"/>
<image xlink:href="../../images/primaryKeys.png" width="11px" height="12px" preserveAspectRatio="xMinYMin meet" x="13" y="-750"/>
<text text-anchor="start" x="28" y="-741.2" font-family="Helvetica,sans-Serif" font-size="11.00">c_bpartner_id</text>
<polygon fill="#ffffff" stroke="transparent" points="8,-711 8,-733 244,-733 244,-711 8,-711"/>
<polygon fill="none" stroke="black" points="8,-711 8,-733 244,-733 244,-711 8,-711"/>
<image xlink:href="../../images/foreignKeys.png" width="11px" height="12px" preserveAspectRatio="xMinYMin meet" x="13" y="-728"/>
<text text-anchor="start" x="28" y="-719.2" font-family="Helvetica,sans-Serif" font-size="11.00">ad_client_id</text>
<polygon fill="none" stroke="black" points="8,-689 8,-711 244,-711 244,-689 8,-689"/>
<image xlink:href="../../images/foreignKeys.png" width="11px" height="12px" preserveAspectRatio="xMinYMin meet" x="13" y="-706"/>
<text text-anchor="start" x="28" y="-697.2" font-family="Helvetica,sans-Serif" font-size="11.00">ad_org_id</text>
<polygon fill="#ffffff" stroke="transparent" points="8,-667 8,-689 244,-689 244,-667 8,-667"/>
<polygon fill="none" stroke="black" points="8,-667 8,-689 244,-689 244,-667 8,-667"/>
<text text-anchor="start" x="28" y="-675.2" font-family="Helvetica,sans-Serif" font-size="11.00">value</text>
<polygon fill="#ffffff" stroke="transparent" points="8,-645 8,-667 244,-667 244,-645 8,-645"/>
<polygon fill="none" stroke="black" points="8,-645 8,-667 244,-667 244,-645 8,-645"/>
<text text-anchor="start" x="28" y="-653.2" font-family="Helvetica,sans-Serif" font-size="11.00">name</text>
<polygon fill="none" stroke="black" points="8,-623 8,-645 244,-645 244,-623 8,-623"/>
<image xlink:href="../../images/foreignKeys.png" width="11px" height="12px" preserveAspectRatio="xMinYMin meet" x="13" y="-640"/>
<text text-anchor="start" x="28" y="-631.2" font-family="Helvetica,sans-Serif" font-size="11.00">c_bp_group_id</text>
<polygon fill="none" stroke="black" points="8,-601 8,-623 244,-623 244,-601 8,-601"/>
<image xlink:href="../../images/foreignKeys.png" width="11px" height="12px" preserveAspectRatio="xMinYMin meet" x="13" y="-618"/>
<text text-anchor="start" x="28" y="-609.2" font-family="Helvetica,sans-Serif" font-size="11.00">ad_language</text>
<polygon fill="none" stroke="black" points="8,-579 8,-601 244,-601 244,-579 8,-579"/>
<image xlink:href="../../images/foreignKeys.png" width="11px" height="12px" preserveAspectRatio="xMinYMin meet" x="13" y="-596"/>
<text text-anchor="start" x="28" y="-587.2" font-family="Helvetica,sans-Serif" font-size="11.00">c_invoiceschedule_id</text>
<polygon fill="none" stroke="black" points="8,-557 8,-579 244,-579 244,-557 8,-557"/>
<image xlink:href="../../images/foreignKeys.png" width="11px" height="12px" preserveAspectRatio="xMinYMin meet" x="13" y="-574"/>
<text text-anchor="start" x="28" y="-565.2" font-family="Helvetica,sans-Serif" font-size="11.00">c_paymentterm_id</text>
<polygon fill="none" stroke="black" points="8,-535 8,-557 244,-557 244,-535 8,-535"/>
<image xlink:href="../../images/foreignKeys.png" width="11px" height="12px" preserveAspectRatio="xMinYMin meet" x="13" y="-552"/>
<text text-anchor="start" x="28" y="-543.2" font-family="Helvetica,sans-Serif" font-size="11.00">m_pricelist_id</text>
<polygon fill="none" stroke="black" points="8,-513 8,-535 244,-535 244,-513 8,-513"/>
<image xlink:href="../../images/foreignKeys.png" width="11px" height="12px" preserveAspectRatio="xMinYMin meet" x="13" y="-530"/>
<text text-anchor="start" x="28" y="-521.2" font-family="Helvetica,sans-Serif" font-size="11.00">m_discountschema_id</text>
<polygon fill="none" stroke="black" points="8,-491 8,-513 244,-513 244,-491 8,-491"/>
<image xlink:href="../../images/foreignKeys.png" width="11px" height="12px" preserveAspectRatio="xMinYMin meet" x="13" y="-508"/>
<text text-anchor="start" x="28" y="-499.2" font-family="Helvetica,sans-Serif" font-size="11.00">c_dunning_id</text>
<polygon fill="none" stroke="black" points="8,-469 8,-491 244,-491 244,-469 8,-469"/>
<image xlink:href="../../images/foreignKeys.png" width="11px" height="12px" preserveAspectRatio="xMinYMin meet" x="13" y="-486"/>
<text text-anchor="start" x="28" y="-477.2" font-family="Helvetica,sans-Serif" font-size="11.00">po_pricelist_id</text>
<polygon fill="none" stroke="black" points="8,-447 8,-469 244,-469 244,-447 8,-447"/>
<image xlink:href="../../images/foreignKeys.png" width="11px" height="12px" preserveAspectRatio="xMinYMin meet" x="13" y="-464"/>
<text text-anchor="start" x="28" y="-455.2" font-family="Helvetica,sans-Serif" font-size="11.00">po_discountschema_id</text>
<polygon fill="none" stroke="black" points="8,-425 8,-447 244,-447 244,-425 8,-425"/>
<image xlink:href="../../images/foreignKeys.png" width="11px" height="12px" preserveAspectRatio="xMinYMin meet" x="13" y="-442"/>
<text text-anchor="start" x="28" y="-433.2" font-family="Helvetica,sans-Serif" font-size="11.00">po_paymentterm_id</text>
<polygon fill="none" stroke="black" points="8,-403 8,-425 244,-425 244,-403 8,-403"/>
<image xlink:href="../../images/foreignKeys.png" width="11px" height="12px" preserveAspectRatio="xMinYMin meet" x="13" y="-420"/>
<text text-anchor="start" x="28" y="-411.2" font-family="Helvetica,sans-Serif" font-size="11.00">c_greeting_id</text>
<polygon fill="none" stroke="black" points="8,-381 8,-403 244,-403 244,-381 8,-381"/>
<image xlink:href="../../images/foreignKeys.png" width="11px" height="12px" preserveAspectRatio="xMinYMin meet" x="13" y="-398"/>
<text text-anchor="start" x="28" y="-389.2" font-family="Helvetica,sans-Serif" font-size="11.00">salesrep_id</text>
<polygon fill="none" stroke="black" points="8,-359 8,-381 244,-381 244,-359 8,-359"/>
<image xlink:href="../../images/foreignKeys.png" width="11px" height="12px" preserveAspectRatio="xMinYMin meet" x="13" y="-376"/>
<text text-anchor="start" x="28" y="-367.2" font-family="Helvetica,sans-Serif" font-size="11.00">bpartner_parent_id</text>
<polygon fill="none" stroke="black" points="8,-337 8,-359 244,-359 244,-337 8,-337"/>
<image xlink:href="../../images/foreignKeys.png" width="11px" height="12px" preserveAspectRatio="xMinYMin meet" x="13" y="-354"/>
<text text-anchor="start" x="28" y="-345.2" font-family="Helvetica,sans-Serif" font-size="11.00">invoice_printformat_id</text>
<polygon fill="#ffffff" stroke="transparent" points="8,-315 8,-337 244,-337 244,-315 8,-315"/>
<polygon fill="none" stroke="black" points="8,-315 8,-337 244,-337 244,-315 8,-315"/>
<image xlink:href="../../images/foreignKeys.png" width="11px" height="12px" preserveAspectRatio="xMinYMin meet" x="13" y="-332"/>
<text text-anchor="start" x="28" y="-323.2" font-family="Helvetica,sans-Serif" font-size="11.00">ad_orgbp_id</text>
<polygon fill="none" stroke="black" points="8,-293 8,-315 244,-315 244,-293 8,-293"/>
<image xlink:href="../../images/foreignKeys.png" width="11px" height="12px" preserveAspectRatio="xMinYMin meet" x="13" y="-310"/>
<text text-anchor="start" x="28" y="-301.2" font-family="Helvetica,sans-Serif" font-size="11.00">c_taxgroup_id</text>
<polygon fill="none" stroke="black" points="8,-271 8,-293 244,-293 244,-271 8,-271"/>
<image xlink:href="../../images/foreignKeys.png" width="11px" height="12px" preserveAspectRatio="xMinYMin meet" x="13" y="-288"/>
<text text-anchor="start" x="28" y="-279.2" font-family="Helvetica,sans-Serif" font-size="11.00">logo_id</text>
<polygon fill="#ffffff" stroke="transparent" points="8,-249 8,-271 244,-271 244,-249 8,-249"/>
<polygon fill="none" stroke="black" points="8,-249 8,-271 244,-271 244,-249 8,-249"/>
<text text-anchor="start" x="28" y="-257.2" font-family="Helvetica,sans-Serif" font-size="11.00">c_bpartner_uu</text>
<polygon fill="none" stroke="black" points="8,-227 8,-249 244,-249 244,-227 8,-227"/>
<image xlink:href="../../images/foreignKeys.png" width="11px" height="12px" preserveAspectRatio="xMinYMin meet" x="13" y="-244"/>
<text text-anchor="start" x="28" y="-235.2" font-family="Helvetica,sans-Serif" font-size="11.00">default1099box_id</text>
<polygon fill="none" stroke="black" points="8,-205 8,-227 244,-227 244,-205 8,-205"/>
<image xlink:href="../../images/foreignKeys.png" width="11px" height="12px" preserveAspectRatio="xMinYMin meet" x="13" y="-222"/>
<text text-anchor="start" x="28" y="-213.2" font-family="Helvetica,sans-Serif" font-size="11.00">cof_c_custody_id</text>
<polygon fill="none" stroke="black" points="8,-183 8,-205 244,-205 244,-183 8,-183"/>
<image xlink:href="../../images/foreignKeys.png" width="11px" height="12px" preserveAspectRatio="xMinYMin meet" x="13" y="-200"/>
<text text-anchor="start" x="28" y="-191.2" font-family="Helvetica,sans-Serif" font-size="11.00">cof_doctypepurchase_id</text>
<polygon fill="none" stroke="black" points="8,-161 8,-183 244,-183 244,-161 8,-161"/>
<image xlink:href="../../images/foreignKeys.png" width="11px" height="12px" preserveAspectRatio="xMinYMin meet" x="13" y="-178"/>
<text text-anchor="start" x="28" y="-169.2" font-family="Helvetica,sans-Serif" font-size="11.00">cof_doctypesale_id</text>
<polygon fill="none" stroke="black" points="8,-139 8,-161 244,-161 244,-139 8,-139"/>
<image xlink:href="../../images/foreignKeys.png" width="11px" height="12px" preserveAspectRatio="xMinYMin meet" x="13" y="-156"/>
<text text-anchor="start" x="28" y="-147.2" font-family="Helvetica,sans-Serif" font-size="11.00">cof_grupofornecedor_id</text>
<polygon fill="none" stroke="black" points="8,-117 8,-139 244,-139 244,-117 8,-117"/>
<image xlink:href="../../images/foreignKeys.png" width="11px" height="12px" preserveAspectRatio="xMinYMin meet" x="13" y="-134"/>
<text text-anchor="start" x="28" y="-125.2" font-family="Helvetica,sans-Serif" font-size="11.00">cof_vendedorinterno_id</text>
<polygon fill="none" stroke="black" points="8,-95 8,-117 244,-117 244,-95 8,-95"/>
<image xlink:href="../../images/foreignKeys.png" width="11px" height="12px" preserveAspectRatio="xMinYMin meet" x="13" y="-112"/>
<text text-anchor="start" x="28" y="-103.2" font-family="Helvetica,sans-Serif" font-size="11.00">cof_tipoparceiro_id</text>
<polygon fill="none" stroke="black" points="8,-73 8,-95 244,-95 244,-73 8,-73"/>
<image xlink:href="../../images/foreignKeys.png" width="11px" height="12px" preserveAspectRatio="xMinYMin meet" x="13" y="-90"/>
<text text-anchor="start" x="28" y="-81.2" font-family="Helvetica,sans-Serif" font-size="11.00">cof_classeparceiro_id</text>
<polygon fill="none" stroke="black" points="8,-55 8,-73 244,-73 244,-55 8,-55"/>
<text text-anchor="start" x="11" y="-61.2" font-family="Helvetica,sans-Serif" font-size="11.00">...</text>
<polygon fill="#ffffff" stroke="transparent" points="8,-37 8,-55 103,-55 103,-37 8,-37"/>
<polygon fill="none" stroke="black" points="8,-37 8,-55 103,-55 103,-37 8,-37"/>
<text text-anchor="start" x="11" y="-43.2" font-family="Helvetica,sans-Serif" font-size="11.00">&lt; 27</text>
<polygon fill="#ffffff" stroke="transparent" points="103,-37 103,-55 176,-55 176,-37 103,-37"/>
<polygon fill="none" stroke="black" points="103,-37 103,-55 176,-55 176,-37 103,-37"/>
<text text-anchor="start" x="140" y="-43.2" font-family="Helvetica,sans-Serif" font-size="11.00">4 rows</text>
<polygon fill="#ffffff" stroke="transparent" points="176,-37 176,-55 244,-55 244,-37 176,-37"/>
<polygon fill="none" stroke="black" points="176,-37 176,-55 244,-55 244,-37 176,-37"/>
<text text-anchor="start" x="213" y="-43.2" font-family="Helvetica,sans-Serif" font-size="11.00">325 &gt;</text>
</a>
</g>
</g>
<!-- m_inout_createfrom_v&#45;&gt;c_bpartner -->
<g id="edge1" class="edge">
<title>m_inout_createfrom_v:w&#45;&gt;c_bpartner:e</title>
<path fill="none" stroke="black" stroke-dasharray="5,2" d="M279.8,-748.95C268.39,-747.24 261.27,-744 245,-744"/>
<polygon fill="black" stroke="black" points="286.52,-749.43 294.24,-753.59 290.51,-749.72 294.5,-750 294.5,-750 294.5,-750 290.51,-749.72 294.76,-746.41 286.52,-749.43 286.52,-749.43"/>
<ellipse fill="none" stroke="black" cx="283.33" cy="-749.21" rx="3.2" ry="3.2"/>
</g>
<!-- c_uom -->
<g id="node3" class="node">
<title>c_uom</title>
<g id="a_node3"><a xlink:href="../../tables/c_uom.html" xlink:title="c_uom" target="_top">
<polygon fill="#ffffff" stroke="transparent" points="60,-798 60,-988 192,-988 192,-798 60,-798"/>
<polygon fill="#f5f5f5" stroke="transparent" points="60,-966 60,-988 192,-988 192,-966 60,-966"/>
<polygon fill="none" stroke="black" points="60,-966 60,-988 192,-988 192,-966 60,-966"/>
<text text-anchor="start" x="65" y="-975.2" font-family="Helvetica,sans-Serif" font-weight="bold" font-size="11.00">c_uom</text>
<text text-anchor="start" x="157" y="-974.2" font-family="Helvetica,sans-Serif" font-size="11.00">[table]</text>
<polygon fill="none" stroke="black" points="60,-944 60,-966 192,-966 192,-944 60,-944"/>
<image xlink:href="../../images/primaryKeys.png" width="11px" height="12px" preserveAspectRatio="xMinYMin meet" x="65" y="-961"/>
<text text-anchor="start" x="80" y="-952.2" font-family="Helvetica,sans-Serif" font-size="11.00">c_uom_id</text>
<polygon fill="#ffffff" stroke="transparent" points="60,-922 60,-944 192,-944 192,-922 60,-922"/>
<polygon fill="none" stroke="black" points="60,-922 60,-944 192,-944 192,-922 60,-922"/>
<image xlink:href="../../images/foreignKeys.png" width="11px" height="12px" preserveAspectRatio="xMinYMin meet" x="65" y="-939"/>
<text text-anchor="start" x="80" y="-930.2" font-family="Helvetica,sans-Serif" font-size="11.00">ad_client_id</text>
<polygon fill="none" stroke="black" points="60,-900 60,-922 192,-922 192,-900 60,-900"/>
<image xlink:href="../../images/foreignKeys.png" width="11px" height="12px" preserveAspectRatio="xMinYMin meet" x="65" y="-917"/>
<text text-anchor="start" x="80" y="-908.2" font-family="Helvetica,sans-Serif" font-size="11.00">ad_org_id</text>
<polygon fill="#ffffff" stroke="transparent" points="60,-878 60,-900 192,-900 192,-878 60,-878"/>
<polygon fill="none" stroke="black" points="60,-878 60,-900 192,-900 192,-878 60,-878"/>
<text text-anchor="start" x="80" y="-886.2" font-family="Helvetica,sans-Serif" font-size="11.00">x12de355</text>
<polygon fill="#ffffff" stroke="transparent" points="60,-856 60,-878 192,-878 192,-856 60,-856"/>
<polygon fill="none" stroke="black" points="60,-856 60,-878 192,-878 192,-856 60,-856"/>
<text text-anchor="start" x="80" y="-864.2" font-family="Helvetica,sans-Serif" font-size="11.00">name</text>
<polygon fill="#ffffff" stroke="transparent" points="60,-834 60,-856 192,-856 192,-834 60,-834"/>
<polygon fill="none" stroke="black" points="60,-834 60,-856 192,-856 192,-834 60,-834"/>
<text text-anchor="start" x="80" y="-842.2" font-family="Helvetica,sans-Serif" font-size="11.00">c_uom_uu</text>
<polygon fill="none" stroke="black" points="60,-816 60,-834 192,-834 192,-816 60,-816"/>
<text text-anchor="start" x="63" y="-822.2" font-family="Helvetica,sans-Serif" font-size="11.00">...</text>
<polygon fill="#ffffff" stroke="transparent" points="60,-798 60,-816 97,-816 97,-798 60,-798"/>
<polygon fill="none" stroke="black" points="60,-798 60,-816 97,-816 97,-798 60,-798"/>
<text text-anchor="start" x="63" y="-804.2" font-family="Helvetica,sans-Serif" font-size="11.00">&lt; 2</text>
<polygon fill="#ffffff" stroke="transparent" points="97,-798 97,-816 150,-816 150,-798 97,-798"/>
<polygon fill="none" stroke="black" points="97,-798 97,-816 150,-816 150,-798 97,-798"/>
<text text-anchor="start" x="108" y="-804.2" font-family="Helvetica,sans-Serif" font-size="11.00">72 rows</text>
<polygon fill="#ffffff" stroke="transparent" points="150,-798 150,-816 192,-816 192,-798 150,-798"/>
<polygon fill="none" stroke="black" points="150,-798 150,-816 192,-816 192,-798 150,-798"/>
<text text-anchor="start" x="161" y="-804.2" font-family="Helvetica,sans-Serif" font-size="11.00">112 &gt;</text>
</a>
</g>
</g>
<!-- m_inout_createfrom_v&#45;&gt;c_uom -->
<g id="edge2" class="edge">
<title>m_inout_createfrom_v:w&#45;&gt;c_uom:e</title>
<path fill="none" stroke="black" stroke-dasharray="5,2" d="M279.9,-948.27C246.22,-949.54 232.92,-955 193,-955"/>
<polygon fill="black" stroke="black" points="286.5,-948.15 294.57,-951.6 290.5,-948.07 294.5,-948 294.5,-948 294.5,-948 290.5,-948.07 294.43,-944.4 286.5,-948.15 286.5,-948.15"/>
<ellipse fill="none" stroke="black" cx="283.3" cy="-948.2" rx="3.2" ry="3.2"/>
</g>
</g>
</svg>
