<?xml version="1.0" encoding="UTF-8" standalone="no"?>
<!DOCTYPE svg PUBLIC "-//W3C//DTD SVG 1.1//EN"
 "http://www.w3.org/Graphics/SVG/1.1/DTD/svg11.dtd">
<!-- Generated by graphviz version 2.43.0 (0)
 -->
<!-- Title: oneDegreeRelationshipsDiagram Pages: 1 -->
<svg width="508pt" height="533pt"
 viewBox="0.00 0.00 508.00 533.00" xmlns="http://www.w3.org/2000/svg" xmlns:xlink="http://www.w3.org/1999/xlink">
<g id="graph0" class="graph" transform="scale(1 1) rotate(0) translate(4 529)">
<title>oneDegreeRelationshipsDiagram</title>
<polygon fill="#ffffff" stroke="transparent" points="-4,4 -4,-529 504,-529 504,4 -4,4"/>
<text text-anchor="middle" x="71.5" y="-7.2" font-family="Helvetica,sans-Serif" font-size="11.00">Generated by SchemaSpy</text>
<!-- m_lotctlexclude -->
<g id="node1" class="node">
<title>m_lotctlexclude</title>
<g id="a_node1"><a xlink:href="../../tables/m_lotctlexclude.html" xlink:title="m_lotctlexclude" target="_top">
<polygon fill="#ffffff" stroke="transparent" points="255,-213 255,-521 492,-521 492,-213 255,-213"/>
<polygon fill="#f5f5f5" stroke="transparent" points="257.5,-497 257.5,-519 490.5,-519 490.5,-497 257.5,-497"/>
<polygon fill="none" stroke="black" points="257.5,-497 257.5,-519 490.5,-519 490.5,-497 257.5,-497"/>
<text text-anchor="start" x="262.5" y="-506.2" font-family="Helvetica,sans-Serif" font-weight="bold" font-size="11.00">m_lotctlexclude</text>
<text text-anchor="start" x="455.5" y="-505.2" font-family="Helvetica,sans-Serif" font-size="11.00">[table]</text>
<polygon fill="none" stroke="black" points="257.5,-475 257.5,-497 407.5,-497 407.5,-475 257.5,-475"/>
<image xlink:href="../../images/primaryKeys.png" width="11px" height="12px" preserveAspectRatio="xMinYMin meet" x="262.5" y="-492"/>
<text text-anchor="start" x="277.5" y="-483.2" font-family="Helvetica,sans-Serif" font-size="11.00">m_lotctlexclude_id</text>
<polygon fill="none" stroke="black" points="407.5,-475 407.5,-497 490.5,-497 490.5,-475 407.5,-475"/>
<text text-anchor="start" x="410.5" y="-483.2" font-family="Helvetica,sans-Serif" font-size="11.00">numeric[10]</text>
<polygon fill="none" stroke="black" points="257.5,-453 257.5,-475 407.5,-475 407.5,-453 257.5,-453"/>
<text text-anchor="start" x="277.5" y="-461.2" font-family="Helvetica,sans-Serif" font-size="11.00">ad_client_id</text>
<polygon fill="none" stroke="black" points="407.5,-453 407.5,-475 490.5,-475 490.5,-453 407.5,-453"/>
<text text-anchor="start" x="410.5" y="-461.2" font-family="Helvetica,sans-Serif" font-size="11.00">numeric[10]</text>
<polygon fill="none" stroke="black" points="257.5,-431 257.5,-453 407.5,-453 407.5,-431 257.5,-431"/>
<text text-anchor="start" x="277.5" y="-439.2" font-family="Helvetica,sans-Serif" font-size="11.00">ad_org_id</text>
<polygon fill="none" stroke="black" points="407.5,-431 407.5,-453 490.5,-453 490.5,-431 407.5,-431"/>
<text text-anchor="start" x="410.5" y="-439.2" font-family="Helvetica,sans-Serif" font-size="11.00">numeric[10]</text>
<polygon fill="none" stroke="black" points="257.5,-409 257.5,-431 407.5,-431 407.5,-409 257.5,-409"/>
<text text-anchor="start" x="277.5" y="-417.2" font-family="Helvetica,sans-Serif" font-size="11.00">isactive</text>
<polygon fill="none" stroke="black" points="407.5,-409 407.5,-431 490.5,-431 490.5,-409 407.5,-409"/>
<text text-anchor="start" x="410.5" y="-417.2" font-family="Helvetica,sans-Serif" font-size="11.00">bpchar[1]</text>
<polygon fill="none" stroke="black" points="257.5,-387 257.5,-409 407.5,-409 407.5,-387 257.5,-387"/>
<text text-anchor="start" x="277.5" y="-395.2" font-family="Helvetica,sans-Serif" font-size="11.00">created</text>
<polygon fill="none" stroke="black" points="407.5,-387 407.5,-409 490.5,-409 490.5,-387 407.5,-387"/>
<text text-anchor="start" x="410.5" y="-395.2" font-family="Helvetica,sans-Serif" font-size="11.00">timestamp[29,6]</text>
<polygon fill="none" stroke="black" points="257.5,-365 257.5,-387 407.5,-387 407.5,-365 257.5,-365"/>
<text text-anchor="start" x="277.5" y="-373.2" font-family="Helvetica,sans-Serif" font-size="11.00">createdby</text>
<polygon fill="none" stroke="black" points="407.5,-365 407.5,-387 490.5,-387 490.5,-365 407.5,-365"/>
<text text-anchor="start" x="410.5" y="-373.2" font-family="Helvetica,sans-Serif" font-size="11.00">numeric[10]</text>
<polygon fill="none" stroke="black" points="257.5,-343 257.5,-365 407.5,-365 407.5,-343 257.5,-343"/>
<text text-anchor="start" x="277.5" y="-351.2" font-family="Helvetica,sans-Serif" font-size="11.00">updated</text>
<polygon fill="none" stroke="black" points="407.5,-343 407.5,-365 490.5,-365 490.5,-343 407.5,-343"/>
<text text-anchor="start" x="410.5" y="-351.2" font-family="Helvetica,sans-Serif" font-size="11.00">timestamp[29,6]</text>
<polygon fill="none" stroke="black" points="257.5,-321 257.5,-343 407.5,-343 407.5,-321 257.5,-321"/>
<text text-anchor="start" x="277.5" y="-329.2" font-family="Helvetica,sans-Serif" font-size="11.00">updatedby</text>
<polygon fill="none" stroke="black" points="407.5,-321 407.5,-343 490.5,-343 490.5,-321 407.5,-321"/>
<text text-anchor="start" x="410.5" y="-329.2" font-family="Helvetica,sans-Serif" font-size="11.00">numeric[10]</text>
<polygon fill="none" stroke="black" points="257.5,-299 257.5,-321 407.5,-321 407.5,-299 257.5,-299"/>
<image xlink:href="../../images/foreignKeys.png" width="11px" height="12px" preserveAspectRatio="xMinYMin meet" x="262.5" y="-316"/>
<text text-anchor="start" x="277.5" y="-307.2" font-family="Helvetica,sans-Serif" font-size="11.00">m_lotctl_id</text>
<polygon fill="none" stroke="black" points="407.5,-299 407.5,-321 490.5,-321 490.5,-299 407.5,-299"/>
<text text-anchor="start" x="410.5" y="-307.2" font-family="Helvetica,sans-Serif" font-size="11.00">numeric[10]</text>
<polygon fill="none" stroke="black" points="257.5,-277 257.5,-299 407.5,-299 407.5,-277 257.5,-277"/>
<image xlink:href="../../images/foreignKeys.png" width="11px" height="12px" preserveAspectRatio="xMinYMin meet" x="262.5" y="-294"/>
<text text-anchor="start" x="277.5" y="-285.2" font-family="Helvetica,sans-Serif" font-size="11.00">ad_table_id</text>
<polygon fill="none" stroke="black" points="407.5,-277 407.5,-299 490.5,-299 490.5,-277 407.5,-277"/>
<text text-anchor="start" x="410.5" y="-285.2" font-family="Helvetica,sans-Serif" font-size="11.00">numeric[10]</text>
<polygon fill="none" stroke="black" points="257.5,-255 257.5,-277 407.5,-277 407.5,-255 257.5,-255"/>
<text text-anchor="start" x="277.5" y="-263.2" font-family="Helvetica,sans-Serif" font-size="11.00">issotrx</text>
<polygon fill="none" stroke="black" points="407.5,-255 407.5,-277 490.5,-277 490.5,-255 407.5,-255"/>
<text text-anchor="start" x="410.5" y="-263.2" font-family="Helvetica,sans-Serif" font-size="11.00">bpchar[1]</text>
<polygon fill="#ffffff" stroke="transparent" points="257.5,-233 257.5,-255 407.5,-255 407.5,-233 257.5,-233"/>
<polygon fill="none" stroke="black" points="257.5,-233 257.5,-255 407.5,-255 407.5,-233 257.5,-233"/>
<text text-anchor="start" x="277.5" y="-241.2" font-family="Helvetica,sans-Serif" font-size="11.00">m_lotctlexclude_uu</text>
<polygon fill="none" stroke="black" points="407.5,-233 407.5,-255 490.5,-255 490.5,-233 407.5,-233"/>
<text text-anchor="start" x="410.5" y="-241.2" font-family="Helvetica,sans-Serif" font-size="11.00">varchar[36]</text>
<polygon fill="#ffffff" stroke="transparent" points="257.5,-215 257.5,-233 323.5,-233 323.5,-215 257.5,-215"/>
<polygon fill="none" stroke="black" points="257.5,-215 257.5,-233 323.5,-233 323.5,-215 257.5,-215"/>
<text text-anchor="start" x="260.5" y="-221.2" font-family="Helvetica,sans-Serif" font-size="11.00">&lt; 2</text>
<polygon fill="#ffffff" stroke="transparent" points="323.5,-215 323.5,-233 407.5,-233 407.5,-215 323.5,-215"/>
<polygon fill="none" stroke="black" points="323.5,-215 323.5,-233 407.5,-233 407.5,-215 323.5,-215"/>
<text text-anchor="start" x="371.5" y="-221.2" font-family="Helvetica,sans-Serif" font-size="11.00">0 rows</text>
<polygon fill="#ffffff" stroke="transparent" points="407.5,-215 407.5,-233 490.5,-233 490.5,-215 407.5,-215"/>
<polygon fill="none" stroke="black" points="407.5,-215 407.5,-233 490.5,-233 490.5,-215 407.5,-215"/>
<text text-anchor="start" x="471.5" y="-221.2" font-family="Helvetica,sans-Serif" font-size="11.00">0 &gt;</text>
<polygon fill="none" stroke="black" stroke-width="2" points="256,-214 256,-520 491,-520 491,-214 256,-214"/>
</a>
</g>
</g>
<!-- ad_table -->
<g id="node2" class="node">
<title>ad_table</title>
<g id="a_node2"><a xlink:href="../../tables/ad_table.html" xlink:title="ad_table" target="_top">
<polygon fill="#ffffff" stroke="transparent" points="8,-37 8,-271 206,-271 206,-37 8,-37"/>
<polygon fill="#f5f5f5" stroke="transparent" points="8,-249 8,-271 206,-271 206,-249 8,-249"/>
<polygon fill="none" stroke="black" points="8,-249 8,-271 206,-271 206,-249 8,-249"/>
<text text-anchor="start" x="13" y="-258.2" font-family="Helvetica,sans-Serif" font-weight="bold" font-size="11.00">ad_table</text>
<text text-anchor="start" x="171" y="-257.2" font-family="Helvetica,sans-Serif" font-size="11.00">[table]</text>
<polygon fill="none" stroke="black" points="8,-227 8,-249 206,-249 206,-227 8,-227"/>
<image xlink:href="../../images/primaryKeys.png" width="11px" height="12px" preserveAspectRatio="xMinYMin meet" x="13" y="-244"/>
<text text-anchor="start" x="28" y="-235.2" font-family="Helvetica,sans-Serif" font-size="11.00">ad_table_id</text>
<polygon fill="none" stroke="black" points="8,-205 8,-227 206,-227 206,-205 8,-205"/>
<image xlink:href="../../images/foreignKeys.png" width="11px" height="12px" preserveAspectRatio="xMinYMin meet" x="13" y="-222"/>
<text text-anchor="start" x="28" y="-213.2" font-family="Helvetica,sans-Serif" font-size="11.00">ad_client_id</text>
<polygon fill="none" stroke="black" points="8,-183 8,-205 206,-205 206,-183 8,-183"/>
<image xlink:href="../../images/foreignKeys.png" width="11px" height="12px" preserveAspectRatio="xMinYMin meet" x="13" y="-200"/>
<text text-anchor="start" x="28" y="-191.2" font-family="Helvetica,sans-Serif" font-size="11.00">ad_org_id</text>
<polygon fill="none" stroke="black" points="8,-161 8,-183 206,-183 206,-161 8,-161"/>
<image xlink:href="../../images/foreignKeys.png" width="11px" height="12px" preserveAspectRatio="xMinYMin meet" x="13" y="-178"/>
<text text-anchor="start" x="28" y="-169.2" font-family="Helvetica,sans-Serif" font-size="11.00">entitytype</text>
<polygon fill="none" stroke="black" points="8,-139 8,-161 206,-161 206,-139 8,-139"/>
<image xlink:href="../../images/foreignKeys.png" width="11px" height="12px" preserveAspectRatio="xMinYMin meet" x="13" y="-156"/>
<text text-anchor="start" x="28" y="-147.2" font-family="Helvetica,sans-Serif" font-size="11.00">ad_window_id</text>
<polygon fill="none" stroke="black" points="8,-117 8,-139 206,-139 206,-117 8,-117"/>
<image xlink:href="../../images/foreignKeys.png" width="11px" height="12px" preserveAspectRatio="xMinYMin meet" x="13" y="-134"/>
<text text-anchor="start" x="28" y="-125.2" font-family="Helvetica,sans-Serif" font-size="11.00">ad_val_rule_id</text>
<polygon fill="none" stroke="black" points="8,-95 8,-117 206,-117 206,-95 8,-95"/>
<image xlink:href="../../images/foreignKeys.png" width="11px" height="12px" preserveAspectRatio="xMinYMin meet" x="13" y="-112"/>
<text text-anchor="start" x="28" y="-103.2" font-family="Helvetica,sans-Serif" font-size="11.00">po_window_id</text>
<polygon fill="#ffffff" stroke="transparent" points="8,-73 8,-95 206,-95 206,-73 8,-73"/>
<polygon fill="none" stroke="black" points="8,-73 8,-95 206,-95 206,-73 8,-73"/>
<text text-anchor="start" x="28" y="-81.2" font-family="Helvetica,sans-Serif" font-size="11.00">ad_table_uu</text>
<polygon fill="none" stroke="black" points="8,-55 8,-73 206,-73 206,-55 8,-55"/>
<text text-anchor="start" x="11" y="-61.2" font-family="Helvetica,sans-Serif" font-size="11.00">...</text>
<polygon fill="#ffffff" stroke="transparent" points="8,-37 8,-55 74,-55 74,-37 8,-37"/>
<polygon fill="none" stroke="black" points="8,-37 8,-55 74,-55 74,-37 8,-37"/>
<text text-anchor="start" x="11" y="-43.2" font-family="Helvetica,sans-Serif" font-size="11.00">&lt; 6</text>
<polygon fill="#ffffff" stroke="transparent" points="74,-37 74,-55 156,-55 156,-37 74,-37"/>
<polygon fill="none" stroke="black" points="74,-37 74,-55 156,-55 156,-37 74,-37"/>
<text text-anchor="start" x="99" y="-43.2" font-family="Helvetica,sans-Serif" font-size="11.00">1.363 rows</text>
<polygon fill="#ffffff" stroke="transparent" points="156,-37 156,-55 206,-55 206,-37 156,-37"/>
<polygon fill="none" stroke="black" points="156,-37 156,-55 206,-55 206,-37 156,-37"/>
<text text-anchor="start" x="181" y="-43.2" font-family="Helvetica,sans-Serif" font-size="11.00">77 &gt;</text>
</a>
</g>
</g>
<!-- m_lotctlexclude&#45;&gt;ad_table -->
<g id="edge1" class="edge">
<title>m_lotctlexclude:w&#45;&gt;ad_table:e</title>
<path fill="none" stroke="black" d="M242.59,-283.02C228.63,-270.38 232.16,-238 207,-238"/>
<polygon fill="black" stroke="black" points="248.97,-285.31 255.29,-291.39 252.73,-286.65 256.5,-288 256.5,-288 256.5,-288 252.73,-286.65 257.71,-284.61 248.97,-285.31 248.97,-285.31"/>
<ellipse fill="none" stroke="black" cx="245.95" cy="-284.23" rx="3.2" ry="3.2"/>
</g>
<!-- m_lotctl -->
<g id="node3" class="node">
<title>m_lotctl</title>
<g id="a_node3"><a xlink:href="../../tables/m_lotctl.html" xlink:title="m_lotctl" target="_top">
<polygon fill="#ffffff" stroke="transparent" points="54,-292 54,-394 160,-394 160,-292 54,-292"/>
<polygon fill="#f5f5f5" stroke="transparent" points="54,-372 54,-394 160,-394 160,-372 54,-372"/>
<polygon fill="none" stroke="black" points="54,-372 54,-394 160,-394 160,-372 54,-372"/>
<text text-anchor="start" x="59" y="-381.2" font-family="Helvetica,sans-Serif" font-weight="bold" font-size="11.00">m_lotctl</text>
<text text-anchor="start" x="125" y="-380.2" font-family="Helvetica,sans-Serif" font-size="11.00">[table]</text>
<polygon fill="none" stroke="black" points="54,-350 54,-372 160,-372 160,-350 54,-350"/>
<image xlink:href="../../images/primaryKeys.png" width="11px" height="12px" preserveAspectRatio="xMinYMin meet" x="59" y="-367"/>
<text text-anchor="start" x="74" y="-358.2" font-family="Helvetica,sans-Serif" font-size="11.00">m_lotctl_id</text>
<polygon fill="#ffffff" stroke="transparent" points="54,-328 54,-350 160,-350 160,-328 54,-328"/>
<polygon fill="none" stroke="black" points="54,-328 54,-350 160,-350 160,-328 54,-328"/>
<text text-anchor="start" x="74" y="-336.2" font-family="Helvetica,sans-Serif" font-size="11.00">m_lotctl_uu</text>
<polygon fill="none" stroke="black" points="54,-310 54,-328 160,-328 160,-310 54,-310"/>
<text text-anchor="start" x="57" y="-316.2" font-family="Helvetica,sans-Serif" font-size="11.00">...</text>
<polygon fill="#ffffff" stroke="transparent" points="54,-292 54,-310 83,-310 83,-292 54,-292"/>
<polygon fill="none" stroke="black" points="54,-292 54,-310 83,-310 83,-292 54,-292"/>
<text text-anchor="start" x="57" y="-298.2" font-family="Helvetica,sans-Serif" font-size="11.00"> &#160;</text>
<polygon fill="#ffffff" stroke="transparent" points="83,-292 83,-310 130,-310 130,-292 83,-292"/>
<polygon fill="none" stroke="black" points="83,-292 83,-310 130,-310 130,-292 83,-292"/>
<text text-anchor="start" x="94" y="-298.2" font-family="Helvetica,sans-Serif" font-size="11.00">0 rows</text>
<polygon fill="#ffffff" stroke="transparent" points="130,-292 130,-310 160,-310 160,-292 130,-292"/>
<polygon fill="none" stroke="black" points="130,-292 130,-310 160,-310 160,-292 130,-292"/>
<text text-anchor="start" x="141" y="-298.2" font-family="Helvetica,sans-Serif" font-size="11.00">3 &gt;</text>
</a>
</g>
</g>
<!-- m_lotctlexclude&#45;&gt;m_lotctl -->
<g id="edge2" class="edge">
<title>m_lotctlexclude:w&#45;&gt;m_lotctl:e</title>
<path fill="none" stroke="black" d="M241.89,-311.82C207.92,-320.9 203.67,-361 161,-361"/>
<polygon fill="black" stroke="black" points="248.56,-310.99 256.94,-313.57 252.53,-310.49 256.5,-310 256.5,-310 256.5,-310 252.53,-310.49 256.06,-306.43 248.56,-310.99 248.56,-310.99"/>
<ellipse fill="none" stroke="black" cx="245.39" cy="-311.38" rx="3.2" ry="3.2"/>
</g>
</g>
</svg>
