<?xml version="1.0" encoding="UTF-8" standalone="no"?>
<!DOCTYPE svg PUBLIC "-//W3C//DTD SVG 1.1//EN"
 "http://www.w3.org/Graphics/SVG/1.1/DTD/svg11.dtd">
<!-- Generated by graphviz version 2.43.0 (0)
 -->
<!-- Title: oneDegreeRelationshipsDiagram Pages: 1 -->
<svg width="986pt" height="494pt"
 viewBox="0.00 0.00 986.00 494.40" xmlns="http://www.w3.org/2000/svg" xmlns:xlink="http://www.w3.org/1999/xlink">
<g id="graph0" class="graph" transform="scale(1 1) rotate(0) translate(4 490.4)">
<title>oneDegreeRelationshipsDiagram</title>
<polygon fill="#ffffff" stroke="transparent" points="-4,4 -4,-490.4 982,-490.4 982,4 -4,4"/>
<text text-anchor="middle" x="71.5" y="-7.2" font-family="Helvetica,sans-Serif" font-size="11.00">Generated by SchemaSpy</text>
<!-- m_promotiondistribution -->
<g id="node1" class="node">
<title>m_promotiondistribution</title>
<g id="a_node1"><a xlink:href="../../tables/m_promotiondistribution.html" xlink:title="m_promotiondistribution" target="_top">
<polygon fill="#ffffff" stroke="transparent" points="415,-86.4 415,-482.4 714,-482.4 714,-86.4 415,-86.4"/>
<polygon fill="#f5f5f5" stroke="transparent" points="417.5,-458.4 417.5,-480.4 712.5,-480.4 712.5,-458.4 417.5,-458.4"/>
<polygon fill="none" stroke="black" points="417.5,-458.4 417.5,-480.4 712.5,-480.4 712.5,-458.4 417.5,-458.4"/>
<text text-anchor="start" x="422.5" y="-467.6" font-family="Helvetica,sans-Serif" font-weight="bold" font-size="11.00">m_promotiondistribution</text>
<text text-anchor="start" x="677.5" y="-466.6" font-family="Helvetica,sans-Serif" font-size="11.00">[table]</text>
<polygon fill="none" stroke="black" points="417.5,-436.4 417.5,-458.4 629.5,-458.4 629.5,-436.4 417.5,-436.4"/>
<text text-anchor="start" x="437.5" y="-444.6" font-family="Helvetica,sans-Serif" font-size="11.00">ad_client_id</text>
<polygon fill="none" stroke="black" points="629.5,-436.4 629.5,-458.4 712.5,-458.4 712.5,-436.4 629.5,-436.4"/>
<text text-anchor="start" x="632.5" y="-444.6" font-family="Helvetica,sans-Serif" font-size="11.00">numeric[10]</text>
<polygon fill="none" stroke="black" points="417.5,-414.4 417.5,-436.4 629.5,-436.4 629.5,-414.4 417.5,-414.4"/>
<text text-anchor="start" x="437.5" y="-422.6" font-family="Helvetica,sans-Serif" font-size="11.00">ad_org_id</text>
<polygon fill="none" stroke="black" points="629.5,-414.4 629.5,-436.4 712.5,-436.4 712.5,-414.4 629.5,-414.4"/>
<text text-anchor="start" x="632.5" y="-422.6" font-family="Helvetica,sans-Serif" font-size="11.00">numeric[10]</text>
<polygon fill="none" stroke="black" points="417.5,-392.4 417.5,-414.4 629.5,-414.4 629.5,-392.4 417.5,-392.4"/>
<text text-anchor="start" x="437.5" y="-400.6" font-family="Helvetica,sans-Serif" font-size="11.00">created</text>
<polygon fill="none" stroke="black" points="629.5,-392.4 629.5,-414.4 712.5,-414.4 712.5,-392.4 629.5,-392.4"/>
<text text-anchor="start" x="632.5" y="-400.6" font-family="Helvetica,sans-Serif" font-size="11.00">timestamp[29,6]</text>
<polygon fill="none" stroke="black" points="417.5,-370.4 417.5,-392.4 629.5,-392.4 629.5,-370.4 417.5,-370.4"/>
<text text-anchor="start" x="437.5" y="-378.6" font-family="Helvetica,sans-Serif" font-size="11.00">createdby</text>
<polygon fill="none" stroke="black" points="629.5,-370.4 629.5,-392.4 712.5,-392.4 712.5,-370.4 629.5,-370.4"/>
<text text-anchor="start" x="632.5" y="-378.6" font-family="Helvetica,sans-Serif" font-size="11.00">numeric[10]</text>
<polygon fill="none" stroke="black" points="417.5,-348.4 417.5,-370.4 629.5,-370.4 629.5,-348.4 417.5,-348.4"/>
<text text-anchor="start" x="437.5" y="-356.6" font-family="Helvetica,sans-Serif" font-size="11.00">distributionsorting</text>
<polygon fill="none" stroke="black" points="629.5,-348.4 629.5,-370.4 712.5,-370.4 712.5,-348.4 629.5,-348.4"/>
<text text-anchor="start" x="632.5" y="-356.6" font-family="Helvetica,sans-Serif" font-size="11.00">bpchar[1]</text>
<polygon fill="none" stroke="black" points="417.5,-326.4 417.5,-348.4 629.5,-348.4 629.5,-326.4 417.5,-326.4"/>
<text text-anchor="start" x="437.5" y="-334.6" font-family="Helvetica,sans-Serif" font-size="11.00">distributiontype</text>
<polygon fill="none" stroke="black" points="629.5,-326.4 629.5,-348.4 712.5,-348.4 712.5,-326.4 629.5,-326.4"/>
<text text-anchor="start" x="632.5" y="-334.6" font-family="Helvetica,sans-Serif" font-size="11.00">bpchar[1]</text>
<polygon fill="none" stroke="black" points="417.5,-304.4 417.5,-326.4 629.5,-326.4 629.5,-304.4 417.5,-304.4"/>
<text text-anchor="start" x="437.5" y="-312.6" font-family="Helvetica,sans-Serif" font-size="11.00">isactive</text>
<polygon fill="none" stroke="black" points="629.5,-304.4 629.5,-326.4 712.5,-326.4 712.5,-304.4 629.5,-304.4"/>
<text text-anchor="start" x="632.5" y="-312.6" font-family="Helvetica,sans-Serif" font-size="11.00">bpchar[1]</text>
<polygon fill="none" stroke="black" points="417.5,-282.4 417.5,-304.4 629.5,-304.4 629.5,-282.4 417.5,-282.4"/>
<image xlink:href="../../images/primaryKeys.png" width="11px" height="12px" preserveAspectRatio="xMinYMin meet" x="422.5" y="-299.398"/>
<text text-anchor="start" x="437.5" y="-290.6" font-family="Helvetica,sans-Serif" font-size="11.00">m_promotiondistribution_id</text>
<polygon fill="none" stroke="black" points="629.5,-282.4 629.5,-304.4 712.5,-304.4 712.5,-282.4 629.5,-282.4"/>
<text text-anchor="start" x="632.5" y="-290.6" font-family="Helvetica,sans-Serif" font-size="11.00">numeric[10]</text>
<polygon fill="none" stroke="black" points="417.5,-260.4 417.5,-282.4 629.5,-282.4 629.5,-260.4 417.5,-260.4"/>
<image xlink:href="../../images/foreignKeys.png" width="11px" height="12px" preserveAspectRatio="xMinYMin meet" x="422.5" y="-277.398"/>
<text text-anchor="start" x="437.5" y="-268.6" font-family="Helvetica,sans-Serif" font-size="11.00">m_promotionline_id</text>
<polygon fill="none" stroke="black" points="629.5,-260.4 629.5,-282.4 712.5,-282.4 712.5,-260.4 629.5,-260.4"/>
<text text-anchor="start" x="632.5" y="-268.6" font-family="Helvetica,sans-Serif" font-size="11.00">numeric[10]</text>
<polygon fill="none" stroke="black" points="417.5,-238.4 417.5,-260.4 629.5,-260.4 629.5,-238.4 417.5,-238.4"/>
<image xlink:href="../../images/foreignKeys.png" width="11px" height="12px" preserveAspectRatio="xMinYMin meet" x="422.5" y="-255.398"/>
<text text-anchor="start" x="437.5" y="-246.6" font-family="Helvetica,sans-Serif" font-size="11.00">m_promotion_id</text>
<polygon fill="none" stroke="black" points="629.5,-238.4 629.5,-260.4 712.5,-260.4 712.5,-238.4 629.5,-238.4"/>
<text text-anchor="start" x="632.5" y="-246.6" font-family="Helvetica,sans-Serif" font-size="11.00">numeric[10]</text>
<polygon fill="none" stroke="black" points="417.5,-216.4 417.5,-238.4 629.5,-238.4 629.5,-216.4 417.5,-216.4"/>
<text text-anchor="start" x="437.5" y="-224.6" font-family="Helvetica,sans-Serif" font-size="11.00">operation</text>
<polygon fill="none" stroke="black" points="629.5,-216.4 629.5,-238.4 712.5,-238.4 712.5,-216.4 629.5,-216.4"/>
<text text-anchor="start" x="632.5" y="-224.6" font-family="Helvetica,sans-Serif" font-size="11.00">varchar[2]</text>
<polygon fill="none" stroke="black" points="417.5,-194.4 417.5,-216.4 629.5,-216.4 629.5,-194.4 417.5,-194.4"/>
<text text-anchor="start" x="437.5" y="-202.6" font-family="Helvetica,sans-Serif" font-size="11.00">qty</text>
<polygon fill="none" stroke="black" points="629.5,-194.4 629.5,-216.4 712.5,-216.4 712.5,-194.4 629.5,-194.4"/>
<text text-anchor="start" x="632.5" y="-202.6" font-family="Helvetica,sans-Serif" font-size="11.00">numeric[0]</text>
<polygon fill="none" stroke="black" points="417.5,-172.4 417.5,-194.4 629.5,-194.4 629.5,-172.4 417.5,-172.4"/>
<text text-anchor="start" x="437.5" y="-180.6" font-family="Helvetica,sans-Serif" font-size="11.00">seqno</text>
<polygon fill="none" stroke="black" points="629.5,-172.4 629.5,-194.4 712.5,-194.4 712.5,-172.4 629.5,-172.4"/>
<text text-anchor="start" x="632.5" y="-180.6" font-family="Helvetica,sans-Serif" font-size="11.00">numeric[10]</text>
<polygon fill="none" stroke="black" points="417.5,-150.4 417.5,-172.4 629.5,-172.4 629.5,-150.4 417.5,-150.4"/>
<text text-anchor="start" x="437.5" y="-158.6" font-family="Helvetica,sans-Serif" font-size="11.00">updated</text>
<polygon fill="none" stroke="black" points="629.5,-150.4 629.5,-172.4 712.5,-172.4 712.5,-150.4 629.5,-150.4"/>
<text text-anchor="start" x="632.5" y="-158.6" font-family="Helvetica,sans-Serif" font-size="11.00">timestamp[29,6]</text>
<polygon fill="none" stroke="black" points="417.5,-128.4 417.5,-150.4 629.5,-150.4 629.5,-128.4 417.5,-128.4"/>
<text text-anchor="start" x="437.5" y="-136.6" font-family="Helvetica,sans-Serif" font-size="11.00">updatedby</text>
<polygon fill="none" stroke="black" points="629.5,-128.4 629.5,-150.4 712.5,-150.4 712.5,-128.4 629.5,-128.4"/>
<text text-anchor="start" x="632.5" y="-136.6" font-family="Helvetica,sans-Serif" font-size="11.00">numeric[10]</text>
<polygon fill="#ffffff" stroke="transparent" points="417.5,-106.4 417.5,-128.4 629.5,-128.4 629.5,-106.4 417.5,-106.4"/>
<polygon fill="none" stroke="black" points="417.5,-106.4 417.5,-128.4 629.5,-128.4 629.5,-106.4 417.5,-106.4"/>
<text text-anchor="start" x="437.5" y="-114.6" font-family="Helvetica,sans-Serif" font-size="11.00">m_promotiondistribution_uu</text>
<polygon fill="none" stroke="black" points="629.5,-106.4 629.5,-128.4 712.5,-128.4 712.5,-106.4 629.5,-106.4"/>
<text text-anchor="start" x="632.5" y="-114.6" font-family="Helvetica,sans-Serif" font-size="11.00">varchar[36]</text>
<polygon fill="#ffffff" stroke="transparent" points="417.5,-88.4 417.5,-106.4 514.5,-106.4 514.5,-88.4 417.5,-88.4"/>
<polygon fill="none" stroke="black" points="417.5,-88.4 417.5,-106.4 514.5,-106.4 514.5,-88.4 417.5,-88.4"/>
<text text-anchor="start" x="420.5" y="-94.6" font-family="Helvetica,sans-Serif" font-size="11.00">&lt; 2</text>
<polygon fill="#ffffff" stroke="transparent" points="514.5,-88.4 514.5,-106.4 629.5,-106.4 629.5,-88.4 514.5,-88.4"/>
<polygon fill="none" stroke="black" points="514.5,-88.4 514.5,-106.4 629.5,-106.4 629.5,-88.4 514.5,-88.4"/>
<text text-anchor="start" x="593.5" y="-94.6" font-family="Helvetica,sans-Serif" font-size="11.00">0 rows</text>
<polygon fill="#ffffff" stroke="transparent" points="629.5,-88.4 629.5,-106.4 712.5,-106.4 712.5,-88.4 629.5,-88.4"/>
<polygon fill="none" stroke="black" points="629.5,-88.4 629.5,-106.4 712.5,-106.4 712.5,-88.4 629.5,-88.4"/>
<text text-anchor="start" x="693.5" y="-94.6" font-family="Helvetica,sans-Serif" font-size="11.00">2 &gt;</text>
<polygon fill="none" stroke="black" stroke-width="2" points="416,-87.4 416,-481.4 713,-481.4 713,-87.4 416,-87.4"/>
</a>
</g>
</g>
<!-- m_promotion -->
<g id="node2" class="node">
<title>m_promotion</title>
<g id="a_node2"><a xlink:href="../../tables/m_promotion.html" xlink:title="m_promotion" target="_top">
<polygon fill="#ffffff" stroke="transparent" points="8,-65.4 8,-189.4 149,-189.4 149,-65.4 8,-65.4"/>
<polygon fill="#f5f5f5" stroke="transparent" points="8.5,-167.4 8.5,-189.4 149.5,-189.4 149.5,-167.4 8.5,-167.4"/>
<polygon fill="none" stroke="black" points="8.5,-167.4 8.5,-189.4 149.5,-189.4 149.5,-167.4 8.5,-167.4"/>
<text text-anchor="start" x="13.5" y="-176.6" font-family="Helvetica,sans-Serif" font-weight="bold" font-size="11.00">m_promotion</text>
<text text-anchor="start" x="114.5" y="-175.6" font-family="Helvetica,sans-Serif" font-size="11.00">[table]</text>
<polygon fill="none" stroke="black" points="8.5,-145.4 8.5,-167.4 149.5,-167.4 149.5,-145.4 8.5,-145.4"/>
<image xlink:href="../../images/primaryKeys.png" width="11px" height="12px" preserveAspectRatio="xMinYMin meet" x="13.5" y="-162.398"/>
<text text-anchor="start" x="28.5" y="-153.6" font-family="Helvetica,sans-Serif" font-size="11.00">m_promotion_id</text>
<polygon fill="none" stroke="black" points="8.5,-123.4 8.5,-145.4 149.5,-145.4 149.5,-123.4 8.5,-123.4"/>
<image xlink:href="../../images/foreignKeys.png" width="11px" height="12px" preserveAspectRatio="xMinYMin meet" x="13.5" y="-140.398"/>
<text text-anchor="start" x="28.5" y="-131.6" font-family="Helvetica,sans-Serif" font-size="11.00">c_campaign_id</text>
<polygon fill="#ffffff" stroke="transparent" points="8.5,-101.4 8.5,-123.4 149.5,-123.4 149.5,-101.4 8.5,-101.4"/>
<polygon fill="none" stroke="black" points="8.5,-101.4 8.5,-123.4 149.5,-123.4 149.5,-101.4 8.5,-101.4"/>
<text text-anchor="start" x="28.5" y="-109.6" font-family="Helvetica,sans-Serif" font-size="11.00">m_promotion_uu</text>
<polygon fill="none" stroke="black" points="8.5,-83.4 8.5,-101.4 149.5,-101.4 149.5,-83.4 8.5,-83.4"/>
<text text-anchor="start" x="11.5" y="-89.6" font-family="Helvetica,sans-Serif" font-size="11.00">...</text>
<polygon fill="#ffffff" stroke="transparent" points="8.5,-65.4 8.5,-83.4 59.5,-83.4 59.5,-65.4 8.5,-65.4"/>
<polygon fill="none" stroke="black" points="8.5,-65.4 8.5,-83.4 59.5,-83.4 59.5,-65.4 8.5,-65.4"/>
<text text-anchor="start" x="11.5" y="-71.6" font-family="Helvetica,sans-Serif" font-size="11.00">&lt; 1</text>
<polygon fill="#ffffff" stroke="transparent" points="59.5,-65.4 59.5,-83.4 112.5,-83.4 112.5,-65.4 59.5,-65.4"/>
<polygon fill="none" stroke="black" points="59.5,-65.4 59.5,-83.4 112.5,-83.4 112.5,-65.4 59.5,-65.4"/>
<text text-anchor="start" x="76.5" y="-71.6" font-family="Helvetica,sans-Serif" font-size="11.00">0 rows</text>
<polygon fill="#ffffff" stroke="transparent" points="112.5,-65.4 112.5,-83.4 149.5,-83.4 149.5,-65.4 112.5,-65.4"/>
<polygon fill="none" stroke="black" points="112.5,-65.4 112.5,-83.4 149.5,-83.4 149.5,-65.4 112.5,-65.4"/>
<text text-anchor="start" x="130.5" y="-71.6" font-family="Helvetica,sans-Serif" font-size="11.00">5 &gt;</text>
</a>
</g>
</g>
<!-- m_promotiondistribution&#45;&gt;m_promotion -->
<g id="edge1" class="edge">
<title>m_promotiondistribution:w&#45;&gt;m_promotion:e</title>
<path fill="none" stroke="black" d="M402.48,-245.54C384.72,-232.31 402.32,-188.55 374,-170.4 290.2,-116.7 250.03,-156.4 150.5,-156.4"/>
<polygon fill="black" stroke="black" points="408.79,-247.28 415.55,-252.87 412.64,-248.34 416.5,-249.4 416.5,-249.4 416.5,-249.4 412.64,-248.34 417.45,-245.93 408.79,-247.28 408.79,-247.28"/>
<ellipse fill="none" stroke="black" cx="405.7" cy="-246.43" rx="3.2" ry="3.2"/>
</g>
<!-- m_promotionline -->
<g id="node3" class="node">
<title>m_promotionline</title>
<g id="a_node3"><a xlink:href="../../tables/m_promotionline.html" xlink:title="m_promotionline" target="_top">
<polygon fill="#ffffff" stroke="transparent" points="198,-180.4 198,-326.4 366,-326.4 366,-180.4 198,-180.4"/>
<polygon fill="#f5f5f5" stroke="transparent" points="198,-304.4 198,-326.4 366,-326.4 366,-304.4 198,-304.4"/>
<polygon fill="none" stroke="black" points="198,-304.4 198,-326.4 366,-326.4 366,-304.4 198,-304.4"/>
<text text-anchor="start" x="203" y="-313.6" font-family="Helvetica,sans-Serif" font-weight="bold" font-size="11.00">m_promotionline</text>
<text text-anchor="start" x="331" y="-312.6" font-family="Helvetica,sans-Serif" font-size="11.00">[table]</text>
<polygon fill="none" stroke="black" points="198,-282.4 198,-304.4 366,-304.4 366,-282.4 198,-282.4"/>
<image xlink:href="../../images/foreignKeys.png" width="11px" height="12px" preserveAspectRatio="xMinYMin meet" x="203" y="-299.398"/>
<text text-anchor="start" x="218" y="-290.6" font-family="Helvetica,sans-Serif" font-size="11.00">m_promotiongroup_id</text>
<polygon fill="none" stroke="black" points="198,-260.4 198,-282.4 366,-282.4 366,-260.4 198,-260.4"/>
<image xlink:href="../../images/primaryKeys.png" width="11px" height="12px" preserveAspectRatio="xMinYMin meet" x="203" y="-277.398"/>
<text text-anchor="start" x="218" y="-268.6" font-family="Helvetica,sans-Serif" font-size="11.00">m_promotionline_id</text>
<polygon fill="none" stroke="black" points="198,-238.4 198,-260.4 366,-260.4 366,-238.4 198,-238.4"/>
<image xlink:href="../../images/foreignKeys.png" width="11px" height="12px" preserveAspectRatio="xMinYMin meet" x="203" y="-255.398"/>
<text text-anchor="start" x="218" y="-246.6" font-family="Helvetica,sans-Serif" font-size="11.00">m_promotion_id</text>
<polygon fill="#ffffff" stroke="transparent" points="198,-216.4 198,-238.4 366,-238.4 366,-216.4 198,-216.4"/>
<polygon fill="none" stroke="black" points="198,-216.4 198,-238.4 366,-238.4 366,-216.4 198,-216.4"/>
<text text-anchor="start" x="218" y="-224.6" font-family="Helvetica,sans-Serif" font-size="11.00">m_promotionline_uu</text>
<polygon fill="none" stroke="black" points="198,-198.4 198,-216.4 366,-216.4 366,-198.4 198,-198.4"/>
<text text-anchor="start" x="201" y="-204.6" font-family="Helvetica,sans-Serif" font-size="11.00">...</text>
<polygon fill="#ffffff" stroke="transparent" points="198,-180.4 198,-198.4 262,-198.4 262,-180.4 198,-180.4"/>
<polygon fill="none" stroke="black" points="198,-180.4 198,-198.4 262,-198.4 262,-180.4 198,-180.4"/>
<text text-anchor="start" x="201" y="-186.6" font-family="Helvetica,sans-Serif" font-size="11.00">&lt; 2</text>
<polygon fill="#ffffff" stroke="transparent" points="262,-180.4 262,-198.4 322,-198.4 322,-180.4 262,-180.4"/>
<polygon fill="none" stroke="black" points="262,-180.4 262,-198.4 322,-198.4 322,-180.4 262,-180.4"/>
<text text-anchor="start" x="286" y="-186.6" font-family="Helvetica,sans-Serif" font-size="11.00">0 rows</text>
<polygon fill="#ffffff" stroke="transparent" points="322,-180.4 322,-198.4 366,-198.4 366,-180.4 322,-180.4"/>
<polygon fill="none" stroke="black" points="322,-180.4 322,-198.4 366,-198.4 366,-180.4 322,-180.4"/>
<text text-anchor="start" x="347" y="-186.6" font-family="Helvetica,sans-Serif" font-size="11.00">1 &gt;</text>
</a>
</g>
</g>
<!-- m_promotiondistribution&#45;&gt;m_promotionline -->
<g id="edge2" class="edge">
<title>m_promotiondistribution:w&#45;&gt;m_promotionline:e</title>
<path fill="none" stroke="black" d="M401.84,-271.4C390.41,-271.4 383.16,-271.4 367,-271.4"/>
<polygon fill="black" stroke="black" points="408.5,-271.4 416.5,-275 412.5,-271.4 416.5,-271.4 416.5,-271.4 416.5,-271.4 412.5,-271.4 416.5,-267.8 408.5,-271.4 408.5,-271.4"/>
<ellipse fill="none" stroke="black" cx="405.3" cy="-271.4" rx="3.2" ry="3.2"/>
</g>
<!-- m_promotionline&#45;&gt;m_promotion -->
<g id="edge3" class="edge">
<title>m_promotionline:w&#45;&gt;m_promotion:e</title>
<path fill="none" stroke="black" d="M183.03,-244.91C161.36,-226.34 190.57,-156.4 150.5,-156.4"/>
<polygon fill="black" stroke="black" points="189.38,-246.95 195.9,-252.83 193.19,-248.18 197,-249.4 197,-249.4 197,-249.4 193.19,-248.18 198.1,-245.97 189.38,-246.95 189.38,-246.95"/>
<ellipse fill="none" stroke="black" cx="186.34" cy="-245.97" rx="3.2" ry="3.2"/>
</g>
<!-- m_promotionreward -->
<g id="node4" class="node">
<title>m_promotionreward</title>
<g id="a_node4"><a xlink:href="../../tables/m_promotionreward.html" xlink:title="m_promotionreward" target="_top">
<polygon fill="#ffffff" stroke="transparent" points="763,-158.4 763,-348.4 970,-348.4 970,-158.4 763,-158.4"/>
<polygon fill="#f5f5f5" stroke="transparent" points="763.5,-326.4 763.5,-348.4 970.5,-348.4 970.5,-326.4 763.5,-326.4"/>
<polygon fill="none" stroke="black" points="763.5,-326.4 763.5,-348.4 970.5,-348.4 970.5,-326.4 763.5,-326.4"/>
<text text-anchor="start" x="768.5" y="-335.6" font-family="Helvetica,sans-Serif" font-weight="bold" font-size="11.00">m_promotionreward</text>
<text text-anchor="start" x="935.5" y="-334.6" font-family="Helvetica,sans-Serif" font-size="11.00">[table]</text>
<polygon fill="none" stroke="black" points="763.5,-304.4 763.5,-326.4 970.5,-326.4 970.5,-304.4 763.5,-304.4"/>
<image xlink:href="../../images/foreignKeys.png" width="11px" height="12px" preserveAspectRatio="xMinYMin meet" x="768.5" y="-321.398"/>
<text text-anchor="start" x="783.5" y="-312.6" font-family="Helvetica,sans-Serif" font-size="11.00">c_charge_id</text>
<polygon fill="none" stroke="black" points="763.5,-282.4 763.5,-304.4 970.5,-304.4 970.5,-282.4 763.5,-282.4"/>
<image xlink:href="../../images/foreignKeys.png" width="11px" height="12px" preserveAspectRatio="xMinYMin meet" x="768.5" y="-299.398"/>
<text text-anchor="start" x="783.5" y="-290.6" font-family="Helvetica,sans-Serif" font-size="11.00">m_promotiondistribution_id</text>
<polygon fill="none" stroke="black" points="763.5,-260.4 763.5,-282.4 970.5,-282.4 970.5,-260.4 763.5,-260.4"/>
<image xlink:href="../../images/primaryKeys.png" width="11px" height="12px" preserveAspectRatio="xMinYMin meet" x="768.5" y="-277.398"/>
<text text-anchor="start" x="783.5" y="-268.6" font-family="Helvetica,sans-Serif" font-size="11.00">m_promotionreward_id</text>
<polygon fill="none" stroke="black" points="763.5,-238.4 763.5,-260.4 970.5,-260.4 970.5,-238.4 763.5,-238.4"/>
<image xlink:href="../../images/foreignKeys.png" width="11px" height="12px" preserveAspectRatio="xMinYMin meet" x="768.5" y="-255.398"/>
<text text-anchor="start" x="783.5" y="-246.6" font-family="Helvetica,sans-Serif" font-size="11.00">m_promotion_id</text>
<polygon fill="none" stroke="black" points="763.5,-216.4 763.5,-238.4 970.5,-238.4 970.5,-216.4 763.5,-216.4"/>
<image xlink:href="../../images/foreignKeys.png" width="11px" height="12px" preserveAspectRatio="xMinYMin meet" x="768.5" y="-233.398"/>
<text text-anchor="start" x="783.5" y="-224.6" font-family="Helvetica,sans-Serif" font-size="11.00">m_targetdistribution_id</text>
<polygon fill="#ffffff" stroke="transparent" points="763.5,-194.4 763.5,-216.4 970.5,-216.4 970.5,-194.4 763.5,-194.4"/>
<polygon fill="none" stroke="black" points="763.5,-194.4 763.5,-216.4 970.5,-216.4 970.5,-194.4 763.5,-194.4"/>
<text text-anchor="start" x="783.5" y="-202.6" font-family="Helvetica,sans-Serif" font-size="11.00">m_promotionreward_uu</text>
<polygon fill="none" stroke="black" points="763.5,-176.4 763.5,-194.4 970.5,-194.4 970.5,-176.4 763.5,-176.4"/>
<text text-anchor="start" x="766.5" y="-182.6" font-family="Helvetica,sans-Serif" font-size="11.00">...</text>
<polygon fill="#ffffff" stroke="transparent" points="763.5,-158.4 763.5,-176.4 851.5,-176.4 851.5,-158.4 763.5,-158.4"/>
<polygon fill="none" stroke="black" points="763.5,-158.4 763.5,-176.4 851.5,-176.4 851.5,-158.4 763.5,-158.4"/>
<text text-anchor="start" x="766.5" y="-164.6" font-family="Helvetica,sans-Serif" font-size="11.00">&lt; 4</text>
<polygon fill="#ffffff" stroke="transparent" points="851.5,-158.4 851.5,-176.4 923.5,-176.4 923.5,-158.4 851.5,-158.4"/>
<polygon fill="none" stroke="black" points="851.5,-158.4 851.5,-176.4 923.5,-176.4 923.5,-158.4 851.5,-158.4"/>
<text text-anchor="start" x="887.5" y="-164.6" font-family="Helvetica,sans-Serif" font-size="11.00">0 rows</text>
<polygon fill="#ffffff" stroke="transparent" points="923.5,-158.4 923.5,-176.4 970.5,-176.4 970.5,-158.4 923.5,-158.4"/>
<polygon fill="none" stroke="black" points="923.5,-158.4 923.5,-176.4 970.5,-176.4 970.5,-158.4 923.5,-158.4"/>
<text text-anchor="start" x="960.5" y="-164.6" font-family="Helvetica,sans-Serif" font-size="11.00"> &#160;</text>
</a>
</g>
</g>
<!-- m_promotionreward&#45;&gt;m_promotiondistribution -->
<g id="edge5" class="edge">
<title>m_promotionreward:w&#45;&gt;m_promotiondistribution:e</title>
<path fill="none" stroke="black" d="M747.99,-293.4C736.68,-293.4 729.49,-293.4 713.5,-293.4"/>
<polygon fill="black" stroke="black" points="754.5,-293.4 762.5,-297 758.5,-293.4 762.5,-293.4 762.5,-293.4 762.5,-293.4 758.5,-293.4 762.5,-289.8 754.5,-293.4 754.5,-293.4"/>
<ellipse fill="none" stroke="black" cx="751.3" cy="-293.4" rx="3.2" ry="3.2"/>
</g>
<!-- m_promotionreward&#45;&gt;m_promotiondistribution -->
<g id="edge6" class="edge">
<title>m_promotionreward:w&#45;&gt;m_promotiondistribution:e</title>
<path fill="none" stroke="black" d="M748.88,-232.14C732.23,-247.28 744.04,-293.4 713.5,-293.4"/>
<polygon fill="black" stroke="black" points="754.95,-230.03 763.68,-230.8 758.72,-228.71 762.5,-227.4 762.5,-227.4 762.5,-227.4 758.72,-228.71 761.32,-224 754.95,-230.03 754.95,-230.03"/>
<ellipse fill="none" stroke="black" cx="751.92" cy="-231.08" rx="3.2" ry="3.2"/>
</g>
<!-- m_promotionreward&#45;&gt;m_promotion -->
<g id="edge4" class="edge">
<title>m_promotionreward:w&#45;&gt;m_promotion:e</title>
<path fill="none" stroke="black" d="M748.06,-247.53C697.19,-231.88 779.4,-121.92 722,-76.4 612.3,10.59 545.65,-56.98 407,-76.4 307.67,-90.31 284.12,-103.73 190,-138.4 171.9,-145.07 169.79,-156.4 150.5,-156.4"/>
<polygon fill="black" stroke="black" points="754.57,-248.37 762.04,-252.97 758.53,-248.89 762.5,-249.4 762.5,-249.4 762.5,-249.4 758.53,-248.89 762.96,-245.83 754.57,-248.37 754.57,-248.37"/>
<ellipse fill="none" stroke="black" cx="751.39" cy="-247.96" rx="3.2" ry="3.2"/>
</g>
</g>
</svg>
