<?xml version="1.0" encoding="UTF-8" standalone="no"?>
<!DOCTYPE svg PUBLIC "-//W3C//DTD SVG 1.1//EN"
 "http://www.w3.org/Graphics/SVG/1.1/DTD/svg11.dtd">
<!-- Generated by graphviz version 2.43.0 (0)
 -->
<!-- Title: oneDegreeRelationshipsDiagram Pages: 1 -->
<svg width="559pt" height="802pt"
 viewBox="0.00 0.00 559.00 802.00" xmlns="http://www.w3.org/2000/svg" xmlns:xlink="http://www.w3.org/1999/xlink">
<g id="graph0" class="graph" transform="scale(1 1) rotate(0) translate(4 798)">
<title>oneDegreeRelationshipsDiagram</title>
<polygon fill="#ffffff" stroke="transparent" points="-4,4 -4,-798 555,-798 555,4 -4,4"/>
<text text-anchor="middle" x="71.5" y="-7.2" font-family="Helvetica,sans-Serif" font-size="11.00">Generated by SchemaSpy</text>
<!-- m_relatedproduct -->
<g id="node1" class="node">
<title>m_relatedproduct</title>
<g id="a_node1"><a xlink:href="../../tables/m_relatedproduct.html" xlink:title="m_relatedproduct" target="_top">
<polygon fill="#ffffff" stroke="transparent" points="292,-460 292,-790 543,-790 543,-460 292,-460"/>
<polygon fill="#f5f5f5" stroke="transparent" points="294.5,-766 294.5,-788 541.5,-788 541.5,-766 294.5,-766"/>
<polygon fill="none" stroke="black" points="294.5,-766 294.5,-788 541.5,-788 541.5,-766 294.5,-766"/>
<text text-anchor="start" x="299.5" y="-775.2" font-family="Helvetica,sans-Serif" font-weight="bold" font-size="11.00">m_relatedproduct</text>
<text text-anchor="start" x="506.5" y="-774.2" font-family="Helvetica,sans-Serif" font-size="11.00">[table]</text>
<polygon fill="none" stroke="black" points="294.5,-744 294.5,-766 458.5,-766 458.5,-744 294.5,-744"/>
<image xlink:href="../../images/primaryKeys.png" width="11px" height="12px" preserveAspectRatio="xMinYMin meet" x="299.5" y="-761"/>
<text text-anchor="start" x="314.5" y="-752.2" font-family="Helvetica,sans-Serif" font-size="11.00">m_product_id</text>
<polygon fill="none" stroke="black" points="458.5,-744 458.5,-766 541.5,-766 541.5,-744 458.5,-744"/>
<text text-anchor="start" x="461.5" y="-752.2" font-family="Helvetica,sans-Serif" font-size="11.00">numeric[10]</text>
<polygon fill="none" stroke="black" points="294.5,-722 294.5,-744 458.5,-744 458.5,-722 294.5,-722"/>
<image xlink:href="../../images/primaryKeys.png" width="11px" height="12px" preserveAspectRatio="xMinYMin meet" x="299.5" y="-739"/>
<text text-anchor="start" x="314.5" y="-730.2" font-family="Helvetica,sans-Serif" font-size="11.00">relatedproduct_id</text>
<polygon fill="none" stroke="black" points="458.5,-722 458.5,-744 541.5,-744 541.5,-722 458.5,-722"/>
<text text-anchor="start" x="461.5" y="-730.2" font-family="Helvetica,sans-Serif" font-size="11.00">numeric[10]</text>
<polygon fill="none" stroke="black" points="294.5,-700 294.5,-722 458.5,-722 458.5,-700 294.5,-700"/>
<image xlink:href="../../images/primaryKeys.png" width="11px" height="12px" preserveAspectRatio="xMinYMin meet" x="299.5" y="-717"/>
<text text-anchor="start" x="314.5" y="-708.2" font-family="Helvetica,sans-Serif" font-size="11.00">relatedproducttype</text>
<polygon fill="none" stroke="black" points="458.5,-700 458.5,-722 541.5,-722 541.5,-700 458.5,-700"/>
<text text-anchor="start" x="461.5" y="-708.2" font-family="Helvetica,sans-Serif" font-size="11.00">bpchar[1]</text>
<polygon fill="none" stroke="black" points="294.5,-678 294.5,-700 458.5,-700 458.5,-678 294.5,-678"/>
<text text-anchor="start" x="314.5" y="-686.2" font-family="Helvetica,sans-Serif" font-size="11.00">ad_client_id</text>
<polygon fill="none" stroke="black" points="458.5,-678 458.5,-700 541.5,-700 541.5,-678 458.5,-678"/>
<text text-anchor="start" x="461.5" y="-686.2" font-family="Helvetica,sans-Serif" font-size="11.00">numeric[10]</text>
<polygon fill="none" stroke="black" points="294.5,-656 294.5,-678 458.5,-678 458.5,-656 294.5,-656"/>
<text text-anchor="start" x="314.5" y="-664.2" font-family="Helvetica,sans-Serif" font-size="11.00">ad_org_id</text>
<polygon fill="none" stroke="black" points="458.5,-656 458.5,-678 541.5,-678 541.5,-656 458.5,-656"/>
<text text-anchor="start" x="461.5" y="-664.2" font-family="Helvetica,sans-Serif" font-size="11.00">numeric[10]</text>
<polygon fill="none" stroke="black" points="294.5,-634 294.5,-656 458.5,-656 458.5,-634 294.5,-634"/>
<text text-anchor="start" x="314.5" y="-642.2" font-family="Helvetica,sans-Serif" font-size="11.00">isactive</text>
<polygon fill="none" stroke="black" points="458.5,-634 458.5,-656 541.5,-656 541.5,-634 458.5,-634"/>
<text text-anchor="start" x="461.5" y="-642.2" font-family="Helvetica,sans-Serif" font-size="11.00">bpchar[1]</text>
<polygon fill="none" stroke="black" points="294.5,-612 294.5,-634 458.5,-634 458.5,-612 294.5,-612"/>
<text text-anchor="start" x="314.5" y="-620.2" font-family="Helvetica,sans-Serif" font-size="11.00">created</text>
<polygon fill="none" stroke="black" points="458.5,-612 458.5,-634 541.5,-634 541.5,-612 458.5,-612"/>
<text text-anchor="start" x="461.5" y="-620.2" font-family="Helvetica,sans-Serif" font-size="11.00">timestamp[29,6]</text>
<polygon fill="none" stroke="black" points="294.5,-590 294.5,-612 458.5,-612 458.5,-590 294.5,-590"/>
<text text-anchor="start" x="314.5" y="-598.2" font-family="Helvetica,sans-Serif" font-size="11.00">createdby</text>
<polygon fill="none" stroke="black" points="458.5,-590 458.5,-612 541.5,-612 541.5,-590 458.5,-590"/>
<text text-anchor="start" x="461.5" y="-598.2" font-family="Helvetica,sans-Serif" font-size="11.00">numeric[10]</text>
<polygon fill="none" stroke="black" points="294.5,-568 294.5,-590 458.5,-590 458.5,-568 294.5,-568"/>
<text text-anchor="start" x="314.5" y="-576.2" font-family="Helvetica,sans-Serif" font-size="11.00">updated</text>
<polygon fill="none" stroke="black" points="458.5,-568 458.5,-590 541.5,-590 541.5,-568 458.5,-568"/>
<text text-anchor="start" x="461.5" y="-576.2" font-family="Helvetica,sans-Serif" font-size="11.00">timestamp[29,6]</text>
<polygon fill="none" stroke="black" points="294.5,-546 294.5,-568 458.5,-568 458.5,-546 294.5,-546"/>
<text text-anchor="start" x="314.5" y="-554.2" font-family="Helvetica,sans-Serif" font-size="11.00">updatedby</text>
<polygon fill="none" stroke="black" points="458.5,-546 458.5,-568 541.5,-568 541.5,-546 458.5,-546"/>
<text text-anchor="start" x="461.5" y="-554.2" font-family="Helvetica,sans-Serif" font-size="11.00">numeric[10]</text>
<polygon fill="none" stroke="black" points="294.5,-524 294.5,-546 458.5,-546 458.5,-524 294.5,-524"/>
<text text-anchor="start" x="314.5" y="-532.2" font-family="Helvetica,sans-Serif" font-size="11.00">name</text>
<polygon fill="none" stroke="black" points="458.5,-524 458.5,-546 541.5,-546 541.5,-524 458.5,-524"/>
<text text-anchor="start" x="461.5" y="-532.2" font-family="Helvetica,sans-Serif" font-size="11.00">varchar[60]</text>
<polygon fill="none" stroke="black" points="294.5,-502 294.5,-524 458.5,-524 458.5,-502 294.5,-502"/>
<text text-anchor="start" x="314.5" y="-510.2" font-family="Helvetica,sans-Serif" font-size="11.00">description</text>
<polygon fill="none" stroke="black" points="458.5,-502 458.5,-524 541.5,-524 541.5,-502 458.5,-502"/>
<text text-anchor="start" x="461.5" y="-510.2" font-family="Helvetica,sans-Serif" font-size="11.00">varchar[255]</text>
<polygon fill="#ffffff" stroke="transparent" points="294.5,-480 294.5,-502 458.5,-502 458.5,-480 294.5,-480"/>
<polygon fill="none" stroke="black" points="294.5,-480 294.5,-502 458.5,-502 458.5,-480 294.5,-480"/>
<text text-anchor="start" x="314.5" y="-488.2" font-family="Helvetica,sans-Serif" font-size="11.00">m_relatedproduct_uu</text>
<polygon fill="none" stroke="black" points="458.5,-480 458.5,-502 541.5,-502 541.5,-480 458.5,-480"/>
<text text-anchor="start" x="461.5" y="-488.2" font-family="Helvetica,sans-Serif" font-size="11.00">varchar[36]</text>
<polygon fill="#ffffff" stroke="transparent" points="294.5,-462 294.5,-480 367.5,-480 367.5,-462 294.5,-462"/>
<polygon fill="none" stroke="black" points="294.5,-462 294.5,-480 367.5,-480 367.5,-462 294.5,-462"/>
<text text-anchor="start" x="297.5" y="-468.2" font-family="Helvetica,sans-Serif" font-size="11.00">&lt; 2</text>
<polygon fill="#ffffff" stroke="transparent" points="367.5,-462 367.5,-480 458.5,-480 458.5,-462 367.5,-462"/>
<polygon fill="none" stroke="black" points="367.5,-462 367.5,-480 458.5,-480 458.5,-462 367.5,-462"/>
<text text-anchor="start" x="422.5" y="-468.2" font-family="Helvetica,sans-Serif" font-size="11.00">0 rows</text>
<polygon fill="#ffffff" stroke="transparent" points="458.5,-462 458.5,-480 541.5,-480 541.5,-462 458.5,-462"/>
<polygon fill="none" stroke="black" points="458.5,-462 458.5,-480 541.5,-480 541.5,-462 458.5,-462"/>
<text text-anchor="start" x="522.5" y="-468.2" font-family="Helvetica,sans-Serif" font-size="11.00">0 &gt;</text>
<polygon fill="none" stroke="black" stroke-width="2" points="293,-461 293,-789 542,-789 542,-461 293,-461"/>
</a>
</g>
</g>
<!-- m_product -->
<g id="node2" class="node">
<title>m_product</title>
<g id="a_node2"><a xlink:href="../../tables/m_product.html" xlink:title="m_product" target="_top">
<polygon fill="#ffffff" stroke="transparent" points="8,-37 8,-777 243,-777 243,-37 8,-37"/>
<polygon fill="#f5f5f5" stroke="transparent" points="8.5,-755 8.5,-777 243.5,-777 243.5,-755 8.5,-755"/>
<polygon fill="none" stroke="black" points="8.5,-755 8.5,-777 243.5,-777 243.5,-755 8.5,-755"/>
<text text-anchor="start" x="13.5" y="-764.2" font-family="Helvetica,sans-Serif" font-weight="bold" font-size="11.00">m_product</text>
<text text-anchor="start" x="208.5" y="-763.2" font-family="Helvetica,sans-Serif" font-size="11.00">[table]</text>
<polygon fill="none" stroke="black" points="8.5,-733 8.5,-755 243.5,-755 243.5,-733 8.5,-733"/>
<image xlink:href="../../images/primaryKeys.png" width="11px" height="12px" preserveAspectRatio="xMinYMin meet" x="13.5" y="-750"/>
<text text-anchor="start" x="28.5" y="-741.2" font-family="Helvetica,sans-Serif" font-size="11.00">m_product_id</text>
<polygon fill="#ffffff" stroke="transparent" points="8.5,-711 8.5,-733 243.5,-733 243.5,-711 8.5,-711"/>
<polygon fill="none" stroke="black" points="8.5,-711 8.5,-733 243.5,-733 243.5,-711 8.5,-711"/>
<image xlink:href="../../images/foreignKeys.png" width="11px" height="12px" preserveAspectRatio="xMinYMin meet" x="13.5" y="-728"/>
<text text-anchor="start" x="28.5" y="-719.2" font-family="Helvetica,sans-Serif" font-size="11.00">ad_client_id</text>
<polygon fill="none" stroke="black" points="8.5,-689 8.5,-711 243.5,-711 243.5,-689 8.5,-689"/>
<image xlink:href="../../images/foreignKeys.png" width="11px" height="12px" preserveAspectRatio="xMinYMin meet" x="13.5" y="-706"/>
<text text-anchor="start" x="28.5" y="-697.2" font-family="Helvetica,sans-Serif" font-size="11.00">ad_org_id</text>
<polygon fill="#ffffff" stroke="transparent" points="8.5,-667 8.5,-689 243.5,-689 243.5,-667 8.5,-667"/>
<polygon fill="none" stroke="black" points="8.5,-667 8.5,-689 243.5,-689 243.5,-667 8.5,-667"/>
<text text-anchor="start" x="28.5" y="-675.2" font-family="Helvetica,sans-Serif" font-size="11.00">value</text>
<polygon fill="#ffffff" stroke="transparent" points="8.5,-645 8.5,-667 243.5,-667 243.5,-645 8.5,-645"/>
<polygon fill="none" stroke="black" points="8.5,-645 8.5,-667 243.5,-667 243.5,-645 8.5,-645"/>
<text text-anchor="start" x="28.5" y="-653.2" font-family="Helvetica,sans-Serif" font-size="11.00">name</text>
<polygon fill="#ffffff" stroke="transparent" points="8.5,-623 8.5,-645 243.5,-645 243.5,-623 8.5,-623"/>
<polygon fill="none" stroke="black" points="8.5,-623 8.5,-645 243.5,-645 243.5,-623 8.5,-623"/>
<text text-anchor="start" x="28.5" y="-631.2" font-family="Helvetica,sans-Serif" font-size="11.00">upc</text>
<polygon fill="none" stroke="black" points="8.5,-601 8.5,-623 243.5,-623 243.5,-601 8.5,-601"/>
<image xlink:href="../../images/foreignKeys.png" width="11px" height="12px" preserveAspectRatio="xMinYMin meet" x="13.5" y="-618"/>
<text text-anchor="start" x="28.5" y="-609.2" font-family="Helvetica,sans-Serif" font-size="11.00">c_uom_id</text>
<polygon fill="none" stroke="black" points="8.5,-579 8.5,-601 243.5,-601 243.5,-579 8.5,-579"/>
<image xlink:href="../../images/foreignKeys.png" width="11px" height="12px" preserveAspectRatio="xMinYMin meet" x="13.5" y="-596"/>
<text text-anchor="start" x="28.5" y="-587.2" font-family="Helvetica,sans-Serif" font-size="11.00">salesrep_id</text>
<polygon fill="none" stroke="black" points="8.5,-557 8.5,-579 243.5,-579 243.5,-557 8.5,-557"/>
<image xlink:href="../../images/foreignKeys.png" width="11px" height="12px" preserveAspectRatio="xMinYMin meet" x="13.5" y="-574"/>
<text text-anchor="start" x="28.5" y="-565.2" font-family="Helvetica,sans-Serif" font-size="11.00">c_revenuerecognition_id</text>
<polygon fill="#ffffff" stroke="transparent" points="8.5,-535 8.5,-557 243.5,-557 243.5,-535 8.5,-535"/>
<polygon fill="none" stroke="black" points="8.5,-535 8.5,-557 243.5,-557 243.5,-535 8.5,-535"/>
<image xlink:href="../../images/foreignKeys.png" width="11px" height="12px" preserveAspectRatio="xMinYMin meet" x="13.5" y="-552"/>
<text text-anchor="start" x="28.5" y="-543.2" font-family="Helvetica,sans-Serif" font-size="11.00">m_product_category_id</text>
<polygon fill="none" stroke="black" points="8.5,-513 8.5,-535 243.5,-535 243.5,-513 8.5,-513"/>
<image xlink:href="../../images/foreignKeys.png" width="11px" height="12px" preserveAspectRatio="xMinYMin meet" x="13.5" y="-530"/>
<text text-anchor="start" x="28.5" y="-521.2" font-family="Helvetica,sans-Serif" font-size="11.00">c_taxcategory_id</text>
<polygon fill="#ffffff" stroke="transparent" points="8.5,-491 8.5,-513 243.5,-513 243.5,-491 8.5,-491"/>
<polygon fill="none" stroke="black" points="8.5,-491 8.5,-513 243.5,-513 243.5,-491 8.5,-491"/>
<image xlink:href="../../images/foreignKeys.png" width="11px" height="12px" preserveAspectRatio="xMinYMin meet" x="13.5" y="-508"/>
<text text-anchor="start" x="28.5" y="-499.2" font-family="Helvetica,sans-Serif" font-size="11.00">s_resource_id</text>
<polygon fill="#ffffff" stroke="transparent" points="8.5,-469 8.5,-491 243.5,-491 243.5,-469 8.5,-469"/>
<polygon fill="none" stroke="black" points="8.5,-469 8.5,-491 243.5,-491 243.5,-469 8.5,-469"/>
<image xlink:href="../../images/foreignKeys.png" width="11px" height="12px" preserveAspectRatio="xMinYMin meet" x="13.5" y="-486"/>
<text text-anchor="start" x="28.5" y="-477.2" font-family="Helvetica,sans-Serif" font-size="11.00">s_expensetype_id</text>
<polygon fill="none" stroke="black" points="8.5,-447 8.5,-469 243.5,-469 243.5,-447 8.5,-447"/>
<image xlink:href="../../images/foreignKeys.png" width="11px" height="12px" preserveAspectRatio="xMinYMin meet" x="13.5" y="-464"/>
<text text-anchor="start" x="28.5" y="-455.2" font-family="Helvetica,sans-Serif" font-size="11.00">r_mailtext_id</text>
<polygon fill="none" stroke="black" points="8.5,-425 8.5,-447 243.5,-447 243.5,-425 8.5,-425"/>
<image xlink:href="../../images/foreignKeys.png" width="11px" height="12px" preserveAspectRatio="xMinYMin meet" x="13.5" y="-442"/>
<text text-anchor="start" x="28.5" y="-433.2" font-family="Helvetica,sans-Serif" font-size="11.00">m_attributeset_id</text>
<polygon fill="none" stroke="black" points="8.5,-403 8.5,-425 243.5,-425 243.5,-403 8.5,-403"/>
<image xlink:href="../../images/foreignKeys.png" width="11px" height="12px" preserveAspectRatio="xMinYMin meet" x="13.5" y="-420"/>
<text text-anchor="start" x="28.5" y="-411.2" font-family="Helvetica,sans-Serif" font-size="11.00">m_attributesetinstance_id</text>
<polygon fill="none" stroke="black" points="8.5,-381 8.5,-403 243.5,-403 243.5,-381 8.5,-381"/>
<image xlink:href="../../images/foreignKeys.png" width="11px" height="12px" preserveAspectRatio="xMinYMin meet" x="13.5" y="-398"/>
<text text-anchor="start" x="28.5" y="-389.2" font-family="Helvetica,sans-Serif" font-size="11.00">m_freightcategory_id</text>
<polygon fill="none" stroke="black" points="8.5,-359 8.5,-381 243.5,-381 243.5,-359 8.5,-359"/>
<image xlink:href="../../images/foreignKeys.png" width="11px" height="12px" preserveAspectRatio="xMinYMin meet" x="13.5" y="-376"/>
<text text-anchor="start" x="28.5" y="-367.2" font-family="Helvetica,sans-Serif" font-size="11.00">m_locator_id</text>
<polygon fill="none" stroke="black" points="8.5,-337 8.5,-359 243.5,-359 243.5,-337 8.5,-337"/>
<image xlink:href="../../images/foreignKeys.png" width="11px" height="12px" preserveAspectRatio="xMinYMin meet" x="13.5" y="-354"/>
<text text-anchor="start" x="28.5" y="-345.2" font-family="Helvetica,sans-Serif" font-size="11.00">c_subscriptiontype_id</text>
<polygon fill="#ffffff" stroke="transparent" points="8.5,-315 8.5,-337 243.5,-337 243.5,-315 8.5,-315"/>
<polygon fill="none" stroke="black" points="8.5,-315 8.5,-337 243.5,-337 243.5,-315 8.5,-315"/>
<text text-anchor="start" x="28.5" y="-323.2" font-family="Helvetica,sans-Serif" font-size="11.00">m_product_uu</text>
<polygon fill="none" stroke="black" points="8.5,-293 8.5,-315 243.5,-315 243.5,-293 8.5,-293"/>
<image xlink:href="../../images/foreignKeys.png" width="11px" height="12px" preserveAspectRatio="xMinYMin meet" x="13.5" y="-310"/>
<text text-anchor="start" x="28.5" y="-301.2" font-family="Helvetica,sans-Serif" font-size="11.00">m_parttype_id</text>
<polygon fill="none" stroke="black" points="8.5,-271 8.5,-293 243.5,-293 243.5,-271 8.5,-271"/>
<image xlink:href="../../images/foreignKeys.png" width="11px" height="12px" preserveAspectRatio="xMinYMin meet" x="13.5" y="-288"/>
<text text-anchor="start" x="28.5" y="-279.2" font-family="Helvetica,sans-Serif" font-size="11.00">lbr_productcategory_id</text>
<polygon fill="none" stroke="black" points="8.5,-249 8.5,-271 243.5,-271 243.5,-249 8.5,-249"/>
<image xlink:href="../../images/foreignKeys.png" width="11px" height="12px" preserveAspectRatio="xMinYMin meet" x="13.5" y="-266"/>
<text text-anchor="start" x="28.5" y="-257.2" font-family="Helvetica,sans-Serif" font-size="11.00">lbr_ncm_id</text>
<polygon fill="none" stroke="black" points="8.5,-227 8.5,-249 243.5,-249 243.5,-227 8.5,-227"/>
<image xlink:href="../../images/foreignKeys.png" width="11px" height="12px" preserveAspectRatio="xMinYMin meet" x="13.5" y="-244"/>
<text text-anchor="start" x="28.5" y="-235.2" font-family="Helvetica,sans-Serif" font-size="11.00">lbr_fiscalgroup_product_id</text>
<polygon fill="none" stroke="black" points="8.5,-205 8.5,-227 243.5,-227 243.5,-205 8.5,-205"/>
<image xlink:href="../../images/foreignKeys.png" width="11px" height="12px" preserveAspectRatio="xMinYMin meet" x="13.5" y="-222"/>
<text text-anchor="start" x="28.5" y="-213.2" font-family="Helvetica,sans-Serif" font-size="11.00">cof_cest_id</text>
<polygon fill="none" stroke="black" points="8.5,-183 8.5,-205 243.5,-205 243.5,-183 8.5,-183"/>
<image xlink:href="../../images/foreignKeys.png" width="11px" height="12px" preserveAspectRatio="xMinYMin meet" x="13.5" y="-200"/>
<text text-anchor="start" x="28.5" y="-191.2" font-family="Helvetica,sans-Serif" font-size="11.00">cof_c_generoitem_sped_id</text>
<polygon fill="none" stroke="black" points="8.5,-161 8.5,-183 243.5,-183 243.5,-161 8.5,-161"/>
<image xlink:href="../../images/foreignKeys.png" width="11px" height="12px" preserveAspectRatio="xMinYMin meet" x="13.5" y="-178"/>
<text text-anchor="start" x="28.5" y="-169.2" font-family="Helvetica,sans-Serif" font-size="11.00">cof_producttype_id</text>
<polygon fill="none" stroke="black" points="8.5,-139 8.5,-161 243.5,-161 243.5,-139 8.5,-139"/>
<image xlink:href="../../images/foreignKeys.png" width="11px" height="12px" preserveAspectRatio="xMinYMin meet" x="13.5" y="-156"/>
<text text-anchor="start" x="28.5" y="-147.2" font-family="Helvetica,sans-Serif" font-size="11.00">cof_productclass_id</text>
<polygon fill="none" stroke="black" points="8.5,-117 8.5,-139 243.5,-139 243.5,-117 8.5,-117"/>
<image xlink:href="../../images/foreignKeys.png" width="11px" height="12px" preserveAspectRatio="xMinYMin meet" x="13.5" y="-134"/>
<text text-anchor="start" x="28.5" y="-125.2" font-family="Helvetica,sans-Serif" font-size="11.00">cof_productgroup_id</text>
<polygon fill="none" stroke="black" points="8.5,-95 8.5,-117 243.5,-117 243.5,-95 8.5,-95"/>
<image xlink:href="../../images/foreignKeys.png" width="11px" height="12px" preserveAspectRatio="xMinYMin meet" x="13.5" y="-112"/>
<text text-anchor="start" x="28.5" y="-103.2" font-family="Helvetica,sans-Serif" font-size="11.00">cof_nbs_id</text>
<polygon fill="none" stroke="black" points="8.5,-73 8.5,-95 243.5,-95 243.5,-73 8.5,-73"/>
<image xlink:href="../../images/foreignKeys.png" width="11px" height="12px" preserveAspectRatio="xMinYMin meet" x="13.5" y="-90"/>
<text text-anchor="start" x="28.5" y="-81.2" font-family="Helvetica,sans-Serif" font-size="11.00">cof_grupofornecedor_id</text>
<polygon fill="none" stroke="black" points="8.5,-55 8.5,-73 243.5,-73 243.5,-55 8.5,-55"/>
<text text-anchor="start" x="11.5" y="-61.2" font-family="Helvetica,sans-Serif" font-size="11.00">...</text>
<polygon fill="#ffffff" stroke="transparent" points="8.5,-37 8.5,-55 105.5,-55 105.5,-37 8.5,-37"/>
<polygon fill="none" stroke="black" points="8.5,-37 8.5,-55 105.5,-55 105.5,-37 8.5,-37"/>
<text text-anchor="start" x="11.5" y="-43.2" font-family="Helvetica,sans-Serif" font-size="11.00">&lt; 22</text>
<polygon fill="#ffffff" stroke="transparent" points="105.5,-37 105.5,-55 174.5,-55 174.5,-37 105.5,-37"/>
<polygon fill="none" stroke="black" points="105.5,-37 105.5,-55 174.5,-55 174.5,-37 105.5,-37"/>
<text text-anchor="start" x="143.5" y="-43.2" font-family="Helvetica,sans-Serif" font-size="11.00">1 row</text>
<polygon fill="#ffffff" stroke="transparent" points="174.5,-37 174.5,-55 243.5,-55 243.5,-37 174.5,-37"/>
<polygon fill="none" stroke="black" points="174.5,-37 174.5,-55 243.5,-55 243.5,-37 174.5,-37"/>
<text text-anchor="start" x="212.5" y="-43.2" font-family="Helvetica,sans-Serif" font-size="11.00">172 &gt;</text>
</a>
</g>
</g>
<!-- m_relatedproduct&#45;&gt;m_product -->
<g id="edge1" class="edge">
<title>m_relatedproduct:w&#45;&gt;m_product:e</title>
<path fill="none" stroke="black" d="M279.2,-753.18C267.74,-750.06 261.07,-744 244.5,-744"/>
<polygon fill="black" stroke="black" points="285.56,-753.99 293.05,-758.57 289.53,-754.5 293.5,-755 293.5,-755 293.5,-755 289.53,-754.5 293.95,-751.43 285.56,-753.99 285.56,-753.99"/>
<ellipse fill="none" stroke="black" cx="282.39" cy="-753.59" rx="3.2" ry="3.2"/>
</g>
<!-- m_relatedproduct&#45;&gt;m_product -->
<g id="edge2" class="edge">
<title>m_relatedproduct:w&#45;&gt;m_product:e</title>
<path fill="none" stroke="black" d="M279.2,-734.82C267.74,-737.94 261.07,-744 244.5,-744"/>
<polygon fill="black" stroke="black" points="285.56,-734.01 293.95,-736.57 289.53,-733.5 293.5,-733 293.5,-733 293.5,-733 289.53,-733.5 293.05,-729.43 285.56,-734.01 285.56,-734.01"/>
<ellipse fill="none" stroke="black" cx="282.39" cy="-734.41" rx="3.2" ry="3.2"/>
</g>
</g>
</svg>
