<?xml version="1.0" encoding="UTF-8" standalone="no"?>
<!DOCTYPE svg PUBLIC "-//W3C//DTD SVG 1.1//EN"
 "http://www.w3.org/Graphics/SVG/1.1/DTD/svg11.dtd">
<!-- Generated by graphviz version 2.43.0 (0)
 -->
<!-- Title: oneDegreeRelationshipsDiagram Pages: 1 -->
<svg width="836pt" height="755pt"
 viewBox="0.00 0.00 836.00 755.00" xmlns="http://www.w3.org/2000/svg" xmlns:xlink="http://www.w3.org/1999/xlink">
<g id="graph0" class="graph" transform="scale(1 1) rotate(0) translate(4 751)">
<title>oneDegreeRelationshipsDiagram</title>
<polygon fill="#ffffff" stroke="transparent" points="-4,4 -4,-751 832,-751 832,4 -4,4"/>
<text text-anchor="middle" x="71.5" y="-7.2" font-family="Helvetica,sans-Serif" font-size="11.00">Generated by SchemaSpy</text>
<!-- m_shipper -->
<g id="node1" class="node">
<title>m_shipper</title>
<g id="a_node1"><a xlink:href="../../tables/m_shipper.html" xlink:title="m_shipper" target="_top">
<polygon fill="#ffffff" stroke="transparent" points="621,-538 621,-706 803,-706 803,-538 621,-538"/>
<polygon fill="#f5f5f5" stroke="transparent" points="621,-684 621,-706 803,-706 803,-684 621,-684"/>
<polygon fill="none" stroke="black" points="621,-684 621,-706 803,-706 803,-684 621,-684"/>
<text text-anchor="start" x="626" y="-693.2" font-family="Helvetica,sans-Serif" font-weight="bold" font-size="11.00">m_shipper</text>
<text text-anchor="start" x="768" y="-692.2" font-family="Helvetica,sans-Serif" font-size="11.00">[table]</text>
<polygon fill="none" stroke="black" points="621,-662 621,-684 803,-684 803,-662 621,-662"/>
<image xlink:href="../../images/primaryKeys.png" width="11px" height="12px" preserveAspectRatio="xMinYMin meet" x="626" y="-679"/>
<text text-anchor="start" x="641" y="-670.2" font-family="Helvetica,sans-Serif" font-size="11.00">m_shipper_id</text>
<polygon fill="none" stroke="black" points="621,-640 621,-662 803,-662 803,-640 621,-640"/>
<image xlink:href="../../images/foreignKeys.png" width="11px" height="12px" preserveAspectRatio="xMinYMin meet" x="626" y="-657"/>
<text text-anchor="start" x="641" y="-648.2" font-family="Helvetica,sans-Serif" font-size="11.00">c_bpartner_id</text>
<polygon fill="#ffffff" stroke="transparent" points="621,-618 621,-640 803,-640 803,-618 621,-618"/>
<polygon fill="none" stroke="black" points="621,-618 621,-640 803,-640 803,-618 621,-618"/>
<text text-anchor="start" x="641" y="-626.2" font-family="Helvetica,sans-Serif" font-size="11.00">m_shipper_uu</text>
<polygon fill="none" stroke="black" points="621,-596 621,-618 803,-618 803,-596 621,-596"/>
<image xlink:href="../../images/foreignKeys.png" width="11px" height="12px" preserveAspectRatio="xMinYMin meet" x="626" y="-613"/>
<text text-anchor="start" x="641" y="-604.2" font-family="Helvetica,sans-Serif" font-size="11.00">m_shippingprocessor_id</text>
<polygon fill="none" stroke="black" points="621,-574 621,-596 803,-596 803,-574 621,-574"/>
<image xlink:href="../../images/foreignKeys.png" width="11px" height="12px" preserveAspectRatio="xMinYMin meet" x="626" y="-591"/>
<text text-anchor="start" x="641" y="-582.2" font-family="Helvetica,sans-Serif" font-size="11.00">m_shippercfg_id</text>
<polygon fill="none" stroke="black" points="621,-556 621,-574 803,-574 803,-556 621,-556"/>
<text text-anchor="start" x="624" y="-562.2" font-family="Helvetica,sans-Serif" font-size="11.00">...</text>
<polygon fill="#ffffff" stroke="transparent" points="621,-538 621,-556 689,-556 689,-538 621,-538"/>
<polygon fill="none" stroke="black" points="621,-538 621,-556 689,-556 689,-538 621,-538"/>
<text text-anchor="start" x="624" y="-544.2" font-family="Helvetica,sans-Serif" font-size="11.00">&lt; 3</text>
<polygon fill="#ffffff" stroke="transparent" points="689,-538 689,-556 751,-556 751,-538 689,-538"/>
<polygon fill="none" stroke="black" points="689,-538 689,-556 751,-556 751,-538 689,-538"/>
<text text-anchor="start" x="715" y="-544.2" font-family="Helvetica,sans-Serif" font-size="11.00">0 rows</text>
<polygon fill="#ffffff" stroke="transparent" points="751,-538 751,-556 803,-556 803,-538 751,-538"/>
<polygon fill="none" stroke="black" points="751,-538 751,-556 803,-556 803,-538 751,-538"/>
<text text-anchor="start" x="778" y="-544.2" font-family="Helvetica,sans-Serif" font-size="11.00">16 &gt;</text>
</a>
</g>
</g>
<!-- m_shippercfg -->
<g id="node2" class="node">
<title>m_shippercfg</title>
<g id="a_node2"><a xlink:href="../../tables/m_shippercfg.html" xlink:title="m_shippercfg" target="_top">
<polygon fill="#ffffff" stroke="transparent" points="265,-281 265,-743 555,-743 555,-281 265,-281"/>
<polygon fill="#f5f5f5" stroke="transparent" points="267,-719 267,-741 553,-741 553,-719 267,-719"/>
<polygon fill="none" stroke="black" points="267,-719 267,-741 553,-741 553,-719 267,-719"/>
<text text-anchor="start" x="272" y="-728.2" font-family="Helvetica,sans-Serif" font-weight="bold" font-size="11.00">m_shippercfg</text>
<text text-anchor="start" x="518" y="-727.2" font-family="Helvetica,sans-Serif" font-size="11.00">[table]</text>
<polygon fill="#ffffff" stroke="transparent" points="267,-697 267,-719 470,-719 470,-697 267,-697"/>
<polygon fill="none" stroke="black" points="267,-697 267,-719 470,-719 470,-697 267,-697"/>
<text text-anchor="start" x="287" y="-705.2" font-family="Helvetica,sans-Serif" font-size="11.00">ad_client_id</text>
<polygon fill="none" stroke="black" points="470,-697 470,-719 553,-719 553,-697 470,-697"/>
<text text-anchor="start" x="473" y="-705.2" font-family="Helvetica,sans-Serif" font-size="11.00">numeric[10]</text>
<polygon fill="#ffffff" stroke="transparent" points="267,-675 267,-697 470,-697 470,-675 267,-675"/>
<polygon fill="none" stroke="black" points="267,-675 267,-697 470,-697 470,-675 267,-675"/>
<text text-anchor="start" x="287" y="-683.2" font-family="Helvetica,sans-Serif" font-size="11.00">ad_org_id</text>
<polygon fill="none" stroke="black" points="470,-675 470,-697 553,-697 553,-675 470,-675"/>
<text text-anchor="start" x="473" y="-683.2" font-family="Helvetica,sans-Serif" font-size="11.00">numeric[10]</text>
<polygon fill="none" stroke="black" points="267,-653 267,-675 470,-675 470,-653 267,-653"/>
<text text-anchor="start" x="287" y="-661.2" font-family="Helvetica,sans-Serif" font-size="11.00">created</text>
<polygon fill="none" stroke="black" points="470,-653 470,-675 553,-675 553,-653 470,-653"/>
<text text-anchor="start" x="473" y="-661.2" font-family="Helvetica,sans-Serif" font-size="11.00">timestamp[29,6]</text>
<polygon fill="none" stroke="black" points="267,-631 267,-653 470,-653 470,-631 267,-631"/>
<text text-anchor="start" x="287" y="-639.2" font-family="Helvetica,sans-Serif" font-size="11.00">createdby</text>
<polygon fill="none" stroke="black" points="470,-631 470,-653 553,-653 553,-631 470,-631"/>
<text text-anchor="start" x="473" y="-639.2" font-family="Helvetica,sans-Serif" font-size="11.00">numeric[10]</text>
<polygon fill="none" stroke="black" points="267,-609 267,-631 470,-631 470,-609 267,-609"/>
<text text-anchor="start" x="287" y="-617.2" font-family="Helvetica,sans-Serif" font-size="11.00">description</text>
<polygon fill="none" stroke="black" points="470,-609 470,-631 553,-631 553,-609 470,-609"/>
<text text-anchor="start" x="473" y="-617.2" font-family="Helvetica,sans-Serif" font-size="11.00">varchar[255]</text>
<polygon fill="none" stroke="black" points="267,-587 267,-609 470,-609 470,-587 267,-587"/>
<text text-anchor="start" x="287" y="-595.2" font-family="Helvetica,sans-Serif" font-size="11.00">isactive</text>
<polygon fill="none" stroke="black" points="470,-587 470,-609 553,-609 553,-587 470,-587"/>
<text text-anchor="start" x="473" y="-595.2" font-family="Helvetica,sans-Serif" font-size="11.00">bpchar[1]</text>
<polygon fill="none" stroke="black" points="267,-565 267,-587 470,-587 470,-565 267,-565"/>
<text text-anchor="start" x="287" y="-573.2" font-family="Helvetica,sans-Serif" font-size="11.00">isinternational</text>
<polygon fill="none" stroke="black" points="470,-565 470,-587 553,-587 553,-565 470,-565"/>
<text text-anchor="start" x="473" y="-573.2" font-family="Helvetica,sans-Serif" font-size="11.00">bpchar[1]</text>
<polygon fill="none" stroke="black" points="267,-543 267,-565 470,-565 470,-543 267,-543"/>
<text text-anchor="start" x="287" y="-551.2" font-family="Helvetica,sans-Serif" font-size="11.00">isonline</text>
<polygon fill="none" stroke="black" points="470,-543 470,-565 553,-565 553,-543 470,-543"/>
<text text-anchor="start" x="473" y="-551.2" font-family="Helvetica,sans-Serif" font-size="11.00">bpchar[1]</text>
<polygon fill="none" stroke="black" points="267,-521 267,-543 470,-543 470,-521 267,-521"/>
<text text-anchor="start" x="287" y="-529.2" font-family="Helvetica,sans-Serif" font-size="11.00">isresidential</text>
<polygon fill="none" stroke="black" points="470,-521 470,-543 553,-543 553,-521 470,-521"/>
<text text-anchor="start" x="473" y="-529.2" font-family="Helvetica,sans-Serif" font-size="11.00">bpchar[1]</text>
<polygon fill="none" stroke="black" points="267,-499 267,-521 470,-521 470,-499 267,-499"/>
<text text-anchor="start" x="287" y="-507.2" font-family="Helvetica,sans-Serif" font-size="11.00">issaturdaydelivery</text>
<polygon fill="none" stroke="black" points="470,-499 470,-521 553,-521 553,-499 470,-499"/>
<text text-anchor="start" x="473" y="-507.2" font-family="Helvetica,sans-Serif" font-size="11.00">bpchar[1]</text>
<polygon fill="#ffffff" stroke="transparent" points="267,-477 267,-499 470,-499 470,-477 267,-477"/>
<polygon fill="none" stroke="black" points="267,-477 267,-499 470,-499 470,-477 267,-477"/>
<text text-anchor="start" x="287" y="-485.2" font-family="Helvetica,sans-Serif" font-size="11.00">name</text>
<polygon fill="none" stroke="black" points="470,-477 470,-499 553,-499 553,-477 470,-477"/>
<text text-anchor="start" x="473" y="-485.2" font-family="Helvetica,sans-Serif" font-size="11.00">varchar[60]</text>
<polygon fill="none" stroke="black" points="267,-455 267,-477 470,-477 470,-455 267,-455"/>
<text text-anchor="start" x="287" y="-463.2" font-family="Helvetica,sans-Serif" font-size="11.00">shippingservicecode</text>
<polygon fill="none" stroke="black" points="470,-455 470,-477 553,-477 553,-455 470,-455"/>
<text text-anchor="start" x="473" y="-463.2" font-family="Helvetica,sans-Serif" font-size="11.00">varchar[40]</text>
<polygon fill="none" stroke="black" points="267,-433 267,-455 470,-455 470,-433 267,-433"/>
<text text-anchor="start" x="287" y="-441.2" font-family="Helvetica,sans-Serif" font-size="11.00">trackingurl</text>
<polygon fill="none" stroke="black" points="470,-433 470,-455 553,-455 553,-433 470,-433"/>
<text text-anchor="start" x="473" y="-441.2" font-family="Helvetica,sans-Serif" font-size="11.00">varchar[120]</text>
<polygon fill="none" stroke="black" points="267,-411 267,-433 470,-433 470,-411 267,-411"/>
<text text-anchor="start" x="287" y="-419.2" font-family="Helvetica,sans-Serif" font-size="11.00">updated</text>
<polygon fill="none" stroke="black" points="470,-411 470,-433 553,-433 553,-411 470,-411"/>
<text text-anchor="start" x="473" y="-419.2" font-family="Helvetica,sans-Serif" font-size="11.00">timestamp[29,6]</text>
<polygon fill="none" stroke="black" points="267,-389 267,-411 470,-411 470,-389 267,-389"/>
<text text-anchor="start" x="287" y="-397.2" font-family="Helvetica,sans-Serif" font-size="11.00">updatedby</text>
<polygon fill="none" stroke="black" points="470,-389 470,-411 553,-411 553,-389 470,-389"/>
<text text-anchor="start" x="473" y="-397.2" font-family="Helvetica,sans-Serif" font-size="11.00">numeric[10]</text>
<polygon fill="none" stroke="black" points="267,-367 267,-389 470,-389 470,-367 267,-367"/>
<image xlink:href="../../images/primaryKeys.png" width="11px" height="12px" preserveAspectRatio="xMinYMin meet" x="272" y="-384"/>
<text text-anchor="start" x="287" y="-375.2" font-family="Helvetica,sans-Serif" font-size="11.00">m_shippercfg_id</text>
<polygon fill="none" stroke="black" points="470,-367 470,-389 553,-389 553,-367 470,-367"/>
<text text-anchor="start" x="473" y="-375.2" font-family="Helvetica,sans-Serif" font-size="11.00">numeric[10]</text>
<polygon fill="#ffffff" stroke="transparent" points="267,-345 267,-367 470,-367 470,-345 267,-345"/>
<polygon fill="none" stroke="black" points="267,-345 267,-367 470,-367 470,-345 267,-345"/>
<text text-anchor="start" x="287" y="-353.2" font-family="Helvetica,sans-Serif" font-size="11.00">m_shippercfg_uu</text>
<polygon fill="none" stroke="black" points="470,-345 470,-367 553,-367 553,-345 470,-345"/>
<text text-anchor="start" x="473" y="-353.2" font-family="Helvetica,sans-Serif" font-size="11.00">varchar[36]</text>
<polygon fill="none" stroke="black" points="267,-323 267,-345 470,-345 470,-323 267,-323"/>
<image xlink:href="../../images/foreignKeys.png" width="11px" height="12px" preserveAspectRatio="xMinYMin meet" x="272" y="-340"/>
<text text-anchor="start" x="287" y="-331.2" font-family="Helvetica,sans-Serif" font-size="11.00">m_shippingprocessorcfg_id</text>
<polygon fill="none" stroke="black" points="470,-323 470,-345 553,-345 553,-323 470,-323"/>
<text text-anchor="start" x="473" y="-331.2" font-family="Helvetica,sans-Serif" font-size="11.00">numeric[10]</text>
<polygon fill="none" stroke="black" points="267,-301 267,-323 470,-323 470,-301 267,-301"/>
<text text-anchor="start" x="287" y="-309.2" font-family="Helvetica,sans-Serif" font-size="11.00">copyfrom</text>
<polygon fill="none" stroke="black" points="470,-301 470,-323 553,-323 553,-301 470,-301"/>
<text text-anchor="start" x="473" y="-309.2" font-family="Helvetica,sans-Serif" font-size="11.00">bpchar[1]</text>
<polygon fill="#ffffff" stroke="transparent" points="267,-283 267,-301 360,-301 360,-283 267,-283"/>
<polygon fill="none" stroke="black" points="267,-283 267,-301 360,-301 360,-283 267,-283"/>
<text text-anchor="start" x="270" y="-289.2" font-family="Helvetica,sans-Serif" font-size="11.00">&lt; 1</text>
<polygon fill="#ffffff" stroke="transparent" points="360,-283 360,-301 470,-301 470,-283 360,-283"/>
<polygon fill="none" stroke="black" points="360,-283 360,-301 470,-301 470,-283 360,-283"/>
<text text-anchor="start" x="434" y="-289.2" font-family="Helvetica,sans-Serif" font-size="11.00">0 rows</text>
<polygon fill="#ffffff" stroke="transparent" points="470,-283 470,-301 553,-301 553,-283 470,-283"/>
<polygon fill="none" stroke="black" points="470,-283 470,-301 553,-301 553,-283 470,-283"/>
<text text-anchor="start" x="534" y="-289.2" font-family="Helvetica,sans-Serif" font-size="11.00">4 &gt;</text>
<polygon fill="none" stroke="black" stroke-width="2" points="266,-282 266,-742 554,-742 554,-282 266,-282"/>
</a>
</g>
</g>
<!-- m_shipper&#45;&gt;m_shippercfg -->
<g id="edge1" class="edge">
<title>m_shipper:w&#45;&gt;m_shippercfg:e</title>
<path fill="none" stroke="black" d="M605.66,-583.08C537.12,-562.21 645.09,-378 554,-378"/>
<polygon fill="black" stroke="black" points="612.07,-583.94 619.52,-588.57 616.04,-584.47 620,-585 620,-585 620,-585 616.04,-584.47 620.48,-581.43 612.07,-583.94 612.07,-583.94"/>
<ellipse fill="none" stroke="black" cx="608.9" cy="-583.52" rx="3.2" ry="3.2"/>
</g>
<!-- m_shippingprocessorcfg -->
<g id="node3" class="node">
<title>m_shippingprocessorcfg</title>
<g id="a_node3"><a xlink:href="../../tables/m_shippingprocessorcfg.html" xlink:title="m_shippingprocessorcfg" target="_top">
<polygon fill="#ffffff" stroke="transparent" points="8,-265 8,-433 216,-433 216,-265 8,-265"/>
<polygon fill="#f5f5f5" stroke="transparent" points="8,-411 8,-433 216,-433 216,-411 8,-411"/>
<polygon fill="none" stroke="black" points="8,-411 8,-433 216,-433 216,-411 8,-411"/>
<text text-anchor="start" x="13" y="-420.2" font-family="Helvetica,sans-Serif" font-weight="bold" font-size="11.00">m_shippingprocessorcfg</text>
<text text-anchor="start" x="181" y="-419.2" font-family="Helvetica,sans-Serif" font-size="11.00">[table]</text>
<polygon fill="#ffffff" stroke="transparent" points="8,-389 8,-411 216,-411 216,-389 8,-389"/>
<polygon fill="none" stroke="black" points="8,-389 8,-411 216,-411 216,-389 8,-389"/>
<text text-anchor="start" x="28" y="-397.2" font-family="Helvetica,sans-Serif" font-size="11.00">ad_client_id</text>
<polygon fill="#ffffff" stroke="transparent" points="8,-367 8,-389 216,-389 216,-367 8,-367"/>
<polygon fill="none" stroke="black" points="8,-367 8,-389 216,-389 216,-367 8,-367"/>
<text text-anchor="start" x="28" y="-375.2" font-family="Helvetica,sans-Serif" font-size="11.00">ad_org_id</text>
<polygon fill="#ffffff" stroke="transparent" points="8,-345 8,-367 216,-367 216,-345 8,-345"/>
<polygon fill="none" stroke="black" points="8,-345 8,-367 216,-367 216,-345 8,-345"/>
<text text-anchor="start" x="28" y="-353.2" font-family="Helvetica,sans-Serif" font-size="11.00">name</text>
<polygon fill="none" stroke="black" points="8,-323 8,-345 216,-345 216,-323 8,-323"/>
<image xlink:href="../../images/primaryKeys.png" width="11px" height="12px" preserveAspectRatio="xMinYMin meet" x="13" y="-340"/>
<text text-anchor="start" x="28" y="-331.2" font-family="Helvetica,sans-Serif" font-size="11.00">m_shippingprocessorcfg_id</text>
<polygon fill="#ffffff" stroke="transparent" points="8,-301 8,-323 216,-323 216,-301 8,-301"/>
<polygon fill="none" stroke="black" points="8,-301 8,-323 216,-323 216,-301 8,-301"/>
<text text-anchor="start" x="28" y="-309.2" font-family="Helvetica,sans-Serif" font-size="11.00">m_shippingprocessorcfg_uu</text>
<polygon fill="none" stroke="black" points="8,-283 8,-301 216,-301 216,-283 8,-283"/>
<text text-anchor="start" x="11" y="-289.2" font-family="Helvetica,sans-Serif" font-size="11.00">...</text>
<polygon fill="#ffffff" stroke="transparent" points="8,-265 8,-283 88,-283 88,-265 8,-265"/>
<polygon fill="none" stroke="black" points="8,-265 8,-283 88,-283 88,-265 8,-265"/>
<text text-anchor="start" x="11" y="-271.2" font-family="Helvetica,sans-Serif" font-size="11.00"> &#160;</text>
<polygon fill="#ffffff" stroke="transparent" points="88,-265 88,-283 160,-283 160,-265 88,-265"/>
<polygon fill="none" stroke="black" points="88,-265 88,-283 160,-283 160,-265 88,-265"/>
<text text-anchor="start" x="124" y="-271.2" font-family="Helvetica,sans-Serif" font-size="11.00">0 rows</text>
<polygon fill="#ffffff" stroke="transparent" points="160,-265 160,-283 216,-283 216,-265 160,-265"/>
<polygon fill="none" stroke="black" points="160,-265 160,-283 216,-283 216,-265 160,-265"/>
<text text-anchor="start" x="197" y="-271.2" font-family="Helvetica,sans-Serif" font-size="11.00">2 &gt;</text>
</a>
</g>
</g>
<!-- m_shippercfg&#45;&gt;m_shippingprocessorcfg -->
<g id="edge2" class="edge">
<title>m_shippercfg:w&#45;&gt;m_shippingprocessorcfg:e</title>
<path fill="none" stroke="black" d="M251.49,-334C240.18,-334 232.99,-334 217,-334"/>
<polygon fill="black" stroke="black" points="258,-334 266,-337.6 262,-334 266,-334 266,-334 266,-334 262,-334 266,-330.4 258,-334 258,-334"/>
<ellipse fill="none" stroke="black" cx="254.8" cy="-334" rx="3.2" ry="3.2"/>
</g>
<!-- m_shipperlabelscfg -->
<g id="node4" class="node">
<title>m_shipperlabelscfg</title>
<g id="a_node4"><a xlink:href="../../tables/m_shipperlabelscfg.html" xlink:title="m_shipperlabelscfg" target="_top">
<polygon fill="#ffffff" stroke="transparent" points="625,-371 625,-517 799,-517 799,-371 625,-371"/>
<polygon fill="#f5f5f5" stroke="transparent" points="625,-495 625,-517 799,-517 799,-495 625,-495"/>
<polygon fill="none" stroke="black" points="625,-495 625,-517 799,-517 799,-495 625,-495"/>
<text text-anchor="start" x="630" y="-504.2" font-family="Helvetica,sans-Serif" font-weight="bold" font-size="11.00">m_shipperlabelscfg</text>
<text text-anchor="start" x="764" y="-503.2" font-family="Helvetica,sans-Serif" font-size="11.00">[table]</text>
<polygon fill="#ffffff" stroke="transparent" points="625,-473 625,-495 799,-495 799,-473 625,-473"/>
<polygon fill="none" stroke="black" points="625,-473 625,-495 799,-495 799,-473 625,-473"/>
<text text-anchor="start" x="645" y="-481.2" font-family="Helvetica,sans-Serif" font-size="11.00">value</text>
<polygon fill="#ffffff" stroke="transparent" points="625,-451 625,-473 799,-473 799,-451 625,-451"/>
<polygon fill="none" stroke="black" points="625,-451 625,-473 799,-473 799,-451 625,-451"/>
<image xlink:href="../../images/foreignKeys.png" width="11px" height="12px" preserveAspectRatio="xMinYMin meet" x="630" y="-468"/>
<text text-anchor="start" x="645" y="-459.2" font-family="Helvetica,sans-Serif" font-size="11.00">m_shippercfg_id</text>
<polygon fill="none" stroke="black" points="625,-429 625,-451 799,-451 799,-429 625,-429"/>
<image xlink:href="../../images/primaryKeys.png" width="11px" height="12px" preserveAspectRatio="xMinYMin meet" x="630" y="-446"/>
<text text-anchor="start" x="645" y="-437.2" font-family="Helvetica,sans-Serif" font-size="11.00">m_shipperlabelscfg_id</text>
<polygon fill="#ffffff" stroke="transparent" points="625,-407 625,-429 799,-429 799,-407 625,-407"/>
<polygon fill="none" stroke="black" points="625,-407 625,-429 799,-429 799,-407 625,-407"/>
<text text-anchor="start" x="645" y="-415.2" font-family="Helvetica,sans-Serif" font-size="11.00">m_shipperlabelscfg_uu</text>
<polygon fill="none" stroke="black" points="625,-389 625,-407 799,-407 799,-389 625,-389"/>
<text text-anchor="start" x="628" y="-395.2" font-family="Helvetica,sans-Serif" font-size="11.00">...</text>
<polygon fill="#ffffff" stroke="transparent" points="625,-371 625,-389 692,-389 692,-371 625,-371"/>
<polygon fill="none" stroke="black" points="625,-371 625,-389 692,-389 692,-371 625,-371"/>
<text text-anchor="start" x="628" y="-377.2" font-family="Helvetica,sans-Serif" font-size="11.00">&lt; 1</text>
<polygon fill="#ffffff" stroke="transparent" points="692,-371 692,-389 754,-389 754,-371 692,-371"/>
<polygon fill="none" stroke="black" points="692,-371 692,-389 754,-389 754,-371 692,-371"/>
<text text-anchor="start" x="718" y="-377.2" font-family="Helvetica,sans-Serif" font-size="11.00">0 rows</text>
<polygon fill="#ffffff" stroke="transparent" points="754,-371 754,-389 799,-389 799,-371 754,-371"/>
<polygon fill="none" stroke="black" points="754,-371 754,-389 799,-389 799,-371 754,-371"/>
<text text-anchor="start" x="780" y="-377.2" font-family="Helvetica,sans-Serif" font-size="11.00">1 &gt;</text>
</a>
</g>
</g>
<!-- m_shipperlabelscfg&#45;&gt;m_shippercfg -->
<g id="edge3" class="edge">
<title>m_shipperlabelscfg:w&#45;&gt;m_shippercfg:e</title>
<path fill="none" stroke="black" d="M609.79,-458.81C580.74,-443.47 596.9,-378 554,-378"/>
<polygon fill="black" stroke="black" points="616.19,-460.25 623.21,-465.51 620.1,-461.12 624,-462 624,-462 624,-462 620.1,-461.12 624.79,-458.49 616.19,-460.25 616.19,-460.25"/>
<ellipse fill="none" stroke="black" cx="613.07" cy="-459.55" rx="3.2" ry="3.2"/>
</g>
<!-- m_shipperpackagingcfg -->
<g id="node5" class="node">
<title>m_shipperpackagingcfg</title>
<g id="a_node5"><a xlink:href="../../tables/m_shipperpackagingcfg.html" xlink:title="m_shipperpackagingcfg" target="_top">
<polygon fill="#ffffff" stroke="transparent" points="610,-204 610,-350 814,-350 814,-204 610,-204"/>
<polygon fill="#f5f5f5" stroke="transparent" points="610,-328 610,-350 814,-350 814,-328 610,-328"/>
<polygon fill="none" stroke="black" points="610,-328 610,-350 814,-350 814,-328 610,-328"/>
<text text-anchor="start" x="615" y="-337.2" font-family="Helvetica,sans-Serif" font-weight="bold" font-size="11.00">m_shipperpackagingcfg</text>
<text text-anchor="start" x="779" y="-336.2" font-family="Helvetica,sans-Serif" font-size="11.00">[table]</text>
<polygon fill="#ffffff" stroke="transparent" points="610,-306 610,-328 814,-328 814,-306 610,-306"/>
<polygon fill="none" stroke="black" points="610,-306 610,-328 814,-328 814,-306 610,-306"/>
<text text-anchor="start" x="630" y="-314.2" font-family="Helvetica,sans-Serif" font-size="11.00">value</text>
<polygon fill="#ffffff" stroke="transparent" points="610,-284 610,-306 814,-306 814,-284 610,-284"/>
<polygon fill="none" stroke="black" points="610,-284 610,-306 814,-306 814,-284 610,-284"/>
<image xlink:href="../../images/foreignKeys.png" width="11px" height="12px" preserveAspectRatio="xMinYMin meet" x="615" y="-301"/>
<text text-anchor="start" x="630" y="-292.2" font-family="Helvetica,sans-Serif" font-size="11.00">m_shippercfg_id</text>
<polygon fill="none" stroke="black" points="610,-262 610,-284 814,-284 814,-262 610,-262"/>
<image xlink:href="../../images/primaryKeys.png" width="11px" height="12px" preserveAspectRatio="xMinYMin meet" x="615" y="-279"/>
<text text-anchor="start" x="630" y="-270.2" font-family="Helvetica,sans-Serif" font-size="11.00">m_shipperpackagingcfg_id</text>
<polygon fill="#ffffff" stroke="transparent" points="610,-240 610,-262 814,-262 814,-240 610,-240"/>
<polygon fill="none" stroke="black" points="610,-240 610,-262 814,-262 814,-240 610,-240"/>
<text text-anchor="start" x="630" y="-248.2" font-family="Helvetica,sans-Serif" font-size="11.00">m_shipperpackagingcfg_uu</text>
<polygon fill="none" stroke="black" points="610,-222 610,-240 814,-240 814,-222 610,-222"/>
<text text-anchor="start" x="613" y="-228.2" font-family="Helvetica,sans-Serif" font-size="11.00">...</text>
<polygon fill="#ffffff" stroke="transparent" points="610,-204 610,-222 692,-222 692,-204 610,-204"/>
<polygon fill="none" stroke="black" points="610,-204 610,-222 692,-222 692,-204 610,-204"/>
<text text-anchor="start" x="613" y="-210.2" font-family="Helvetica,sans-Serif" font-size="11.00">&lt; 1</text>
<polygon fill="#ffffff" stroke="transparent" points="692,-204 692,-222 761,-222 761,-204 692,-204"/>
<polygon fill="none" stroke="black" points="692,-204 692,-222 761,-222 761,-204 692,-204"/>
<text text-anchor="start" x="725" y="-210.2" font-family="Helvetica,sans-Serif" font-size="11.00">0 rows</text>
<polygon fill="#ffffff" stroke="transparent" points="761,-204 761,-222 814,-222 814,-204 761,-204"/>
<polygon fill="none" stroke="black" points="761,-204 761,-222 814,-222 814,-204 761,-204"/>
<text text-anchor="start" x="795" y="-210.2" font-family="Helvetica,sans-Serif" font-size="11.00">1 &gt;</text>
</a>
</g>
</g>
<!-- m_shipperpackagingcfg&#45;&gt;m_shippercfg -->
<g id="edge4" class="edge">
<title>m_shipperpackagingcfg:w&#45;&gt;m_shippercfg:e</title>
<path fill="none" stroke="black" d="M595.12,-299C572.28,-315.58 592.38,-378 554,-378"/>
<polygon fill="black" stroke="black" points="601.31,-297.22 610,-298.46 605.16,-296.11 609,-295 609,-295 609,-295 605.16,-296.11 608,-291.54 601.31,-297.22 601.31,-297.22"/>
<ellipse fill="none" stroke="black" cx="598.24" cy="-298.1" rx="3.2" ry="3.2"/>
</g>
<!-- m_shipperpickuptypescfg -->
<g id="node6" class="node">
<title>m_shipperpickuptypescfg</title>
<g id="a_node6"><a xlink:href="../../tables/m_shipperpickuptypescfg.html" xlink:title="m_shipperpickuptypescfg" target="_top">
<polygon fill="#ffffff" stroke="transparent" points="604,-37 604,-183 820,-183 820,-37 604,-37"/>
<polygon fill="#f5f5f5" stroke="transparent" points="604,-161 604,-183 820,-183 820,-161 604,-161"/>
<polygon fill="none" stroke="black" points="604,-161 604,-183 820,-183 820,-161 604,-161"/>
<text text-anchor="start" x="609" y="-170.2" font-family="Helvetica,sans-Serif" font-weight="bold" font-size="11.00">m_shipperpickuptypescfg</text>
<text text-anchor="start" x="785" y="-169.2" font-family="Helvetica,sans-Serif" font-size="11.00">[table]</text>
<polygon fill="#ffffff" stroke="transparent" points="604,-139 604,-161 820,-161 820,-139 604,-139"/>
<polygon fill="none" stroke="black" points="604,-139 604,-161 820,-161 820,-139 604,-139"/>
<text text-anchor="start" x="624" y="-147.2" font-family="Helvetica,sans-Serif" font-size="11.00">value</text>
<polygon fill="#ffffff" stroke="transparent" points="604,-117 604,-139 820,-139 820,-117 604,-117"/>
<polygon fill="none" stroke="black" points="604,-117 604,-139 820,-139 820,-117 604,-117"/>
<image xlink:href="../../images/foreignKeys.png" width="11px" height="12px" preserveAspectRatio="xMinYMin meet" x="609" y="-134"/>
<text text-anchor="start" x="624" y="-125.2" font-family="Helvetica,sans-Serif" font-size="11.00">m_shippercfg_id</text>
<polygon fill="none" stroke="black" points="604,-95 604,-117 820,-117 820,-95 604,-95"/>
<image xlink:href="../../images/primaryKeys.png" width="11px" height="12px" preserveAspectRatio="xMinYMin meet" x="609" y="-112"/>
<text text-anchor="start" x="624" y="-103.2" font-family="Helvetica,sans-Serif" font-size="11.00">m_shipperpickuptypescfg_id</text>
<polygon fill="#ffffff" stroke="transparent" points="604,-73 604,-95 820,-95 820,-73 604,-73"/>
<polygon fill="none" stroke="black" points="604,-73 604,-95 820,-95 820,-73 604,-73"/>
<text text-anchor="start" x="624" y="-81.2" font-family="Helvetica,sans-Serif" font-size="11.00">m_shipperpickuptypescfg_uu</text>
<polygon fill="none" stroke="black" points="604,-55 604,-73 820,-73 820,-55 604,-55"/>
<text text-anchor="start" x="607" y="-61.2" font-family="Helvetica,sans-Serif" font-size="11.00">...</text>
<polygon fill="#ffffff" stroke="transparent" points="604,-37 604,-55 692,-55 692,-37 604,-37"/>
<polygon fill="none" stroke="black" points="604,-37 604,-55 692,-55 692,-37 604,-37"/>
<text text-anchor="start" x="607" y="-43.2" font-family="Helvetica,sans-Serif" font-size="11.00">&lt; 1</text>
<polygon fill="#ffffff" stroke="transparent" points="692,-37 692,-55 764,-55 764,-37 692,-37"/>
<polygon fill="none" stroke="black" points="692,-37 692,-55 764,-55 764,-37 692,-37"/>
<text text-anchor="start" x="728" y="-43.2" font-family="Helvetica,sans-Serif" font-size="11.00">0 rows</text>
<polygon fill="#ffffff" stroke="transparent" points="764,-37 764,-55 820,-55 820,-37 764,-37"/>
<polygon fill="none" stroke="black" points="764,-37 764,-55 820,-55 820,-37 764,-37"/>
<text text-anchor="start" x="801" y="-43.2" font-family="Helvetica,sans-Serif" font-size="11.00">1 &gt;</text>
</a>
</g>
</g>
<!-- m_shipperpickuptypescfg&#45;&gt;m_shippercfg -->
<g id="edge5" class="edge">
<title>m_shipperpickuptypescfg:w&#45;&gt;m_shippercfg:e</title>
<path fill="none" stroke="black" d="M588.68,-129.66C506.09,-151.35 661.81,-378 554,-378"/>
<polygon fill="black" stroke="black" points="595.05,-128.92 603.42,-131.58 599.03,-128.46 603,-128 603,-128 603,-128 599.03,-128.46 602.58,-124.42 595.05,-128.92 595.05,-128.92"/>
<ellipse fill="none" stroke="black" cx="591.87" cy="-129.29" rx="3.2" ry="3.2"/>
</g>
</g>
</svg>
