<?xml version="1.0" encoding="UTF-8" standalone="no"?>
<!DOCTYPE svg PUBLIC "-//W3C//DTD SVG 1.1//EN"
 "http://www.w3.org/Graphics/SVG/1.1/DTD/svg11.dtd">
<!-- Generated by graphviz version 2.43.0 (0)
 -->
<!-- Title: oneDegreeRelationshipsDiagram Pages: 1 -->
<svg width="732pt" height="646pt"
 viewBox="0.00 0.00 732.00 646.00" xmlns="http://www.w3.org/2000/svg" xmlns:xlink="http://www.w3.org/1999/xlink">
<g id="graph0" class="graph" transform="scale(1 1) rotate(0) translate(4 642)">
<title>oneDegreeRelationshipsDiagram</title>
<polygon fill="#ffffff" stroke="transparent" points="-4,4 -4,-642 728,-642 728,4 -4,4"/>
<text text-anchor="middle" x="71.5" y="-7.2" font-family="Helvetica,sans-Serif" font-size="11.00">Generated by SchemaSpy</text>
<!-- pa_hierarchy -->
<g id="node1" class="node">
<title>pa_hierarchy</title>
<g id="a_node1"><a xlink:href="../../tables/pa_hierarchy.html" xlink:title="pa_hierarchy" target="_top">
<polygon fill="#ffffff" stroke="transparent" points="259,-64 259,-548 520,-548 520,-64 259,-64"/>
<polygon fill="#f5f5f5" stroke="transparent" points="261.5,-524 261.5,-546 518.5,-546 518.5,-524 261.5,-524"/>
<polygon fill="none" stroke="black" points="261.5,-524 261.5,-546 518.5,-546 518.5,-524 261.5,-524"/>
<text text-anchor="start" x="266.5" y="-533.2" font-family="Helvetica,sans-Serif" font-weight="bold" font-size="11.00">pa_hierarchy</text>
<text text-anchor="start" x="483.5" y="-532.2" font-family="Helvetica,sans-Serif" font-size="11.00">[table]</text>
<polygon fill="none" stroke="black" points="261.5,-502 261.5,-524 435.5,-524 435.5,-502 261.5,-502"/>
<image xlink:href="../../images/primaryKeys.png" width="11px" height="12px" preserveAspectRatio="xMinYMin meet" x="266.5" y="-519"/>
<text text-anchor="start" x="281.5" y="-510.2" font-family="Helvetica,sans-Serif" font-size="11.00">pa_hierarchy_id</text>
<polygon fill="none" stroke="black" points="435.5,-502 435.5,-524 518.5,-524 518.5,-502 435.5,-502"/>
<text text-anchor="start" x="438.5" y="-510.2" font-family="Helvetica,sans-Serif" font-size="11.00">numeric[10]</text>
<polygon fill="none" stroke="black" points="261.5,-480 261.5,-502 435.5,-502 435.5,-480 261.5,-480"/>
<text text-anchor="start" x="281.5" y="-488.2" font-family="Helvetica,sans-Serif" font-size="11.00">ad_client_id</text>
<polygon fill="none" stroke="black" points="435.5,-480 435.5,-502 518.5,-502 518.5,-480 435.5,-480"/>
<text text-anchor="start" x="438.5" y="-488.2" font-family="Helvetica,sans-Serif" font-size="11.00">numeric[10]</text>
<polygon fill="none" stroke="black" points="261.5,-458 261.5,-480 435.5,-480 435.5,-458 261.5,-458"/>
<text text-anchor="start" x="281.5" y="-466.2" font-family="Helvetica,sans-Serif" font-size="11.00">ad_org_id</text>
<polygon fill="none" stroke="black" points="435.5,-458 435.5,-480 518.5,-480 518.5,-458 435.5,-458"/>
<text text-anchor="start" x="438.5" y="-466.2" font-family="Helvetica,sans-Serif" font-size="11.00">numeric[10]</text>
<polygon fill="none" stroke="black" points="261.5,-436 261.5,-458 435.5,-458 435.5,-436 261.5,-436"/>
<text text-anchor="start" x="281.5" y="-444.2" font-family="Helvetica,sans-Serif" font-size="11.00">isactive</text>
<polygon fill="none" stroke="black" points="435.5,-436 435.5,-458 518.5,-458 518.5,-436 435.5,-436"/>
<text text-anchor="start" x="438.5" y="-444.2" font-family="Helvetica,sans-Serif" font-size="11.00">bpchar[1]</text>
<polygon fill="none" stroke="black" points="261.5,-414 261.5,-436 435.5,-436 435.5,-414 261.5,-414"/>
<text text-anchor="start" x="281.5" y="-422.2" font-family="Helvetica,sans-Serif" font-size="11.00">created</text>
<polygon fill="none" stroke="black" points="435.5,-414 435.5,-436 518.5,-436 518.5,-414 435.5,-414"/>
<text text-anchor="start" x="438.5" y="-422.2" font-family="Helvetica,sans-Serif" font-size="11.00">timestamp[29,6]</text>
<polygon fill="none" stroke="black" points="261.5,-392 261.5,-414 435.5,-414 435.5,-392 261.5,-392"/>
<text text-anchor="start" x="281.5" y="-400.2" font-family="Helvetica,sans-Serif" font-size="11.00">createdby</text>
<polygon fill="none" stroke="black" points="435.5,-392 435.5,-414 518.5,-414 518.5,-392 435.5,-392"/>
<text text-anchor="start" x="438.5" y="-400.2" font-family="Helvetica,sans-Serif" font-size="11.00">numeric[10]</text>
<polygon fill="none" stroke="black" points="261.5,-370 261.5,-392 435.5,-392 435.5,-370 261.5,-370"/>
<text text-anchor="start" x="281.5" y="-378.2" font-family="Helvetica,sans-Serif" font-size="11.00">updated</text>
<polygon fill="none" stroke="black" points="435.5,-370 435.5,-392 518.5,-392 518.5,-370 435.5,-370"/>
<text text-anchor="start" x="438.5" y="-378.2" font-family="Helvetica,sans-Serif" font-size="11.00">timestamp[29,6]</text>
<polygon fill="none" stroke="black" points="261.5,-348 261.5,-370 435.5,-370 435.5,-348 261.5,-348"/>
<text text-anchor="start" x="281.5" y="-356.2" font-family="Helvetica,sans-Serif" font-size="11.00">updatedby</text>
<polygon fill="none" stroke="black" points="435.5,-348 435.5,-370 518.5,-370 518.5,-348 435.5,-348"/>
<text text-anchor="start" x="438.5" y="-356.2" font-family="Helvetica,sans-Serif" font-size="11.00">numeric[10]</text>
<polygon fill="none" stroke="black" points="261.5,-326 261.5,-348 435.5,-348 435.5,-326 261.5,-326"/>
<text text-anchor="start" x="281.5" y="-334.2" font-family="Helvetica,sans-Serif" font-size="11.00">name</text>
<polygon fill="none" stroke="black" points="435.5,-326 435.5,-348 518.5,-348 518.5,-326 435.5,-326"/>
<text text-anchor="start" x="438.5" y="-334.2" font-family="Helvetica,sans-Serif" font-size="11.00">varchar[60]</text>
<polygon fill="none" stroke="black" points="261.5,-304 261.5,-326 435.5,-326 435.5,-304 261.5,-304"/>
<text text-anchor="start" x="281.5" y="-312.2" font-family="Helvetica,sans-Serif" font-size="11.00">description</text>
<polygon fill="none" stroke="black" points="435.5,-304 435.5,-326 518.5,-326 518.5,-304 435.5,-304"/>
<text text-anchor="start" x="438.5" y="-312.2" font-family="Helvetica,sans-Serif" font-size="11.00">varchar[255]</text>
<polygon fill="none" stroke="black" points="261.5,-282 261.5,-304 435.5,-304 435.5,-282 261.5,-282"/>
<text text-anchor="start" x="281.5" y="-290.2" font-family="Helvetica,sans-Serif" font-size="11.00">help</text>
<polygon fill="none" stroke="black" points="435.5,-282 435.5,-304 518.5,-304 518.5,-282 435.5,-282"/>
<text text-anchor="start" x="438.5" y="-290.2" font-family="Helvetica,sans-Serif" font-size="11.00">varchar[2000]</text>
<polygon fill="none" stroke="black" points="261.5,-260 261.5,-282 435.5,-282 435.5,-260 261.5,-260"/>
<image xlink:href="../../images/foreignKeys.png" width="11px" height="12px" preserveAspectRatio="xMinYMin meet" x="266.5" y="-277"/>
<text text-anchor="start" x="281.5" y="-268.2" font-family="Helvetica,sans-Serif" font-size="11.00">ad_tree_org_id</text>
<polygon fill="none" stroke="black" points="435.5,-260 435.5,-282 518.5,-282 518.5,-260 435.5,-260"/>
<text text-anchor="start" x="438.5" y="-268.2" font-family="Helvetica,sans-Serif" font-size="11.00">numeric[10]</text>
<polygon fill="none" stroke="black" points="261.5,-238 261.5,-260 435.5,-260 435.5,-238 261.5,-238"/>
<image xlink:href="../../images/foreignKeys.png" width="11px" height="12px" preserveAspectRatio="xMinYMin meet" x="266.5" y="-255"/>
<text text-anchor="start" x="281.5" y="-246.2" font-family="Helvetica,sans-Serif" font-size="11.00">ad_tree_bpartner_id</text>
<polygon fill="none" stroke="black" points="435.5,-238 435.5,-260 518.5,-260 518.5,-238 435.5,-238"/>
<text text-anchor="start" x="438.5" y="-246.2" font-family="Helvetica,sans-Serif" font-size="11.00">numeric[10]</text>
<polygon fill="none" stroke="black" points="261.5,-216 261.5,-238 435.5,-238 435.5,-216 261.5,-216"/>
<image xlink:href="../../images/foreignKeys.png" width="11px" height="12px" preserveAspectRatio="xMinYMin meet" x="266.5" y="-233"/>
<text text-anchor="start" x="281.5" y="-224.2" font-family="Helvetica,sans-Serif" font-size="11.00">ad_tree_project_id</text>
<polygon fill="none" stroke="black" points="435.5,-216 435.5,-238 518.5,-238 518.5,-216 435.5,-216"/>
<text text-anchor="start" x="438.5" y="-224.2" font-family="Helvetica,sans-Serif" font-size="11.00">numeric[10]</text>
<polygon fill="none" stroke="black" points="261.5,-194 261.5,-216 435.5,-216 435.5,-194 261.5,-194"/>
<image xlink:href="../../images/foreignKeys.png" width="11px" height="12px" preserveAspectRatio="xMinYMin meet" x="266.5" y="-211"/>
<text text-anchor="start" x="281.5" y="-202.2" font-family="Helvetica,sans-Serif" font-size="11.00">ad_tree_salesregion_id</text>
<polygon fill="none" stroke="black" points="435.5,-194 435.5,-216 518.5,-216 518.5,-194 435.5,-194"/>
<text text-anchor="start" x="438.5" y="-202.2" font-family="Helvetica,sans-Serif" font-size="11.00">numeric[10]</text>
<polygon fill="none" stroke="black" points="261.5,-172 261.5,-194 435.5,-194 435.5,-172 261.5,-172"/>
<image xlink:href="../../images/foreignKeys.png" width="11px" height="12px" preserveAspectRatio="xMinYMin meet" x="266.5" y="-189"/>
<text text-anchor="start" x="281.5" y="-180.2" font-family="Helvetica,sans-Serif" font-size="11.00">ad_tree_product_id</text>
<polygon fill="none" stroke="black" points="435.5,-172 435.5,-194 518.5,-194 518.5,-172 435.5,-172"/>
<text text-anchor="start" x="438.5" y="-180.2" font-family="Helvetica,sans-Serif" font-size="11.00">numeric[10]</text>
<polygon fill="none" stroke="black" points="261.5,-150 261.5,-172 435.5,-172 435.5,-150 261.5,-150"/>
<image xlink:href="../../images/foreignKeys.png" width="11px" height="12px" preserveAspectRatio="xMinYMin meet" x="266.5" y="-167"/>
<text text-anchor="start" x="281.5" y="-158.2" font-family="Helvetica,sans-Serif" font-size="11.00">ad_tree_campaign_id</text>
<polygon fill="none" stroke="black" points="435.5,-150 435.5,-172 518.5,-172 518.5,-150 435.5,-150"/>
<text text-anchor="start" x="438.5" y="-158.2" font-family="Helvetica,sans-Serif" font-size="11.00">numeric[10]</text>
<polygon fill="none" stroke="black" points="261.5,-128 261.5,-150 435.5,-150 435.5,-128 261.5,-128"/>
<image xlink:href="../../images/foreignKeys.png" width="11px" height="12px" preserveAspectRatio="xMinYMin meet" x="266.5" y="-145"/>
<text text-anchor="start" x="281.5" y="-136.2" font-family="Helvetica,sans-Serif" font-size="11.00">ad_tree_activity_id</text>
<polygon fill="none" stroke="black" points="435.5,-128 435.5,-150 518.5,-150 518.5,-128 435.5,-128"/>
<text text-anchor="start" x="438.5" y="-136.2" font-family="Helvetica,sans-Serif" font-size="11.00">numeric[10]</text>
<polygon fill="none" stroke="black" points="261.5,-106 261.5,-128 435.5,-128 435.5,-106 261.5,-106"/>
<image xlink:href="../../images/foreignKeys.png" width="11px" height="12px" preserveAspectRatio="xMinYMin meet" x="266.5" y="-123"/>
<text text-anchor="start" x="281.5" y="-114.2" font-family="Helvetica,sans-Serif" font-size="11.00">ad_tree_account_id</text>
<polygon fill="none" stroke="black" points="435.5,-106 435.5,-128 518.5,-128 518.5,-106 435.5,-106"/>
<text text-anchor="start" x="438.5" y="-114.2" font-family="Helvetica,sans-Serif" font-size="11.00">numeric[10]</text>
<polygon fill="#ffffff" stroke="transparent" points="261.5,-84 261.5,-106 435.5,-106 435.5,-84 261.5,-84"/>
<polygon fill="none" stroke="black" points="261.5,-84 261.5,-106 435.5,-106 435.5,-84 261.5,-84"/>
<text text-anchor="start" x="281.5" y="-92.2" font-family="Helvetica,sans-Serif" font-size="11.00">pa_hierarchy_uu</text>
<polygon fill="none" stroke="black" points="435.5,-84 435.5,-106 518.5,-106 518.5,-84 435.5,-84"/>
<text text-anchor="start" x="438.5" y="-92.2" font-family="Helvetica,sans-Serif" font-size="11.00">varchar[36]</text>
<polygon fill="#ffffff" stroke="transparent" points="261.5,-66 261.5,-84 342.5,-84 342.5,-66 261.5,-66"/>
<polygon fill="none" stroke="black" points="261.5,-66 261.5,-84 342.5,-84 342.5,-66 261.5,-66"/>
<text text-anchor="start" x="264.5" y="-72.2" font-family="Helvetica,sans-Serif" font-size="11.00">&lt; 8</text>
<polygon fill="#ffffff" stroke="transparent" points="342.5,-66 342.5,-84 435.5,-84 435.5,-66 342.5,-66"/>
<polygon fill="none" stroke="black" points="342.5,-66 342.5,-84 435.5,-84 435.5,-66 342.5,-66"/>
<text text-anchor="start" x="404.5" y="-72.2" font-family="Helvetica,sans-Serif" font-size="11.00">1 row</text>
<polygon fill="#ffffff" stroke="transparent" points="435.5,-66 435.5,-84 518.5,-84 518.5,-66 435.5,-66"/>
<polygon fill="none" stroke="black" points="435.5,-66 435.5,-84 518.5,-84 518.5,-66 435.5,-66"/>
<text text-anchor="start" x="499.5" y="-72.2" font-family="Helvetica,sans-Serif" font-size="11.00">1 &gt;</text>
<polygon fill="none" stroke="black" stroke-width="2" points="260,-65 260,-547 519,-547 519,-65 260,-65"/>
</a>
</g>
</g>
<!-- ad_tree -->
<g id="node2" class="node">
<title>ad_tree</title>
<g id="a_node2"><a xlink:href="../../tables/ad_tree.html" xlink:title="ad_tree" target="_top">
<polygon fill="#ffffff" stroke="transparent" points="8,-37 8,-227 210,-227 210,-37 8,-37"/>
<polygon fill="#f5f5f5" stroke="transparent" points="8,-205 8,-227 210,-227 210,-205 8,-205"/>
<polygon fill="none" stroke="black" points="8,-205 8,-227 210,-227 210,-205 8,-205"/>
<text text-anchor="start" x="13" y="-214.2" font-family="Helvetica,sans-Serif" font-weight="bold" font-size="11.00">ad_tree</text>
<text text-anchor="start" x="175" y="-213.2" font-family="Helvetica,sans-Serif" font-size="11.00">[table]</text>
<polygon fill="none" stroke="black" points="8,-183 8,-205 210,-205 210,-183 8,-183"/>
<image xlink:href="../../images/primaryKeys.png" width="11px" height="12px" preserveAspectRatio="xMinYMin meet" x="13" y="-200"/>
<text text-anchor="start" x="28" y="-191.2" font-family="Helvetica,sans-Serif" font-size="11.00">ad_tree_id</text>
<polygon fill="#ffffff" stroke="transparent" points="8,-161 8,-183 210,-183 210,-161 8,-161"/>
<polygon fill="none" stroke="black" points="8,-161 8,-183 210,-183 210,-161 8,-161"/>
<text text-anchor="start" x="28" y="-169.2" font-family="Helvetica,sans-Serif" font-size="11.00">ad_client_id</text>
<polygon fill="#ffffff" stroke="transparent" points="8,-139 8,-161 210,-161 210,-139 8,-139"/>
<polygon fill="none" stroke="black" points="8,-139 8,-161 210,-161 210,-139 8,-139"/>
<text text-anchor="start" x="28" y="-147.2" font-family="Helvetica,sans-Serif" font-size="11.00">name</text>
<polygon fill="#ffffff" stroke="transparent" points="8,-117 8,-139 210,-139 210,-117 8,-117"/>
<polygon fill="none" stroke="black" points="8,-117 8,-139 210,-139 210,-117 8,-117"/>
<text text-anchor="start" x="28" y="-125.2" font-family="Helvetica,sans-Serif" font-size="11.00">ad_tree_uu</text>
<polygon fill="none" stroke="black" points="8,-95 8,-117 210,-117 210,-95 8,-95"/>
<image xlink:href="../../images/foreignKeys.png" width="11px" height="12px" preserveAspectRatio="xMinYMin meet" x="13" y="-112"/>
<text text-anchor="start" x="28" y="-103.2" font-family="Helvetica,sans-Serif" font-size="11.00">ad_table_id</text>
<polygon fill="none" stroke="black" points="8,-73 8,-95 210,-95 210,-73 8,-73"/>
<image xlink:href="../../images/foreignKeys.png" width="11px" height="12px" preserveAspectRatio="xMinYMin meet" x="13" y="-90"/>
<text text-anchor="start" x="28" y="-81.2" font-family="Helvetica,sans-Serif" font-size="11.00">parent_column_id</text>
<polygon fill="none" stroke="black" points="8,-55 8,-73 210,-73 210,-55 8,-55"/>
<text text-anchor="start" x="11" y="-61.2" font-family="Helvetica,sans-Serif" font-size="11.00">...</text>
<polygon fill="#ffffff" stroke="transparent" points="8,-37 8,-55 83,-55 83,-37 8,-37"/>
<polygon fill="none" stroke="black" points="8,-37 8,-55 83,-55 83,-37 8,-37"/>
<text text-anchor="start" x="11" y="-43.2" font-family="Helvetica,sans-Serif" font-size="11.00">&lt; 2</text>
<polygon fill="#ffffff" stroke="transparent" points="83,-37 83,-55 155,-55 155,-37 83,-37"/>
<polygon fill="none" stroke="black" points="83,-37 83,-55 155,-55 155,-37 83,-37"/>
<text text-anchor="start" x="113" y="-43.2" font-family="Helvetica,sans-Serif" font-size="11.00">31 rows</text>
<polygon fill="#ffffff" stroke="transparent" points="155,-37 155,-55 210,-55 210,-37 155,-37"/>
<polygon fill="none" stroke="black" points="155,-37 155,-55 210,-55 210,-37 155,-37"/>
<text text-anchor="start" x="185" y="-43.2" font-family="Helvetica,sans-Serif" font-size="11.00">36 &gt;</text>
</a>
</g>
</g>
<!-- pa_hierarchy&#45;&gt;ad_tree -->
<g id="edge1" class="edge">
<title>pa_hierarchy:w&#45;&gt;ad_tree:e</title>
<path fill="none" stroke="black" d="M246.7,-121.59C227.68,-138.16 245.64,-194 211,-194"/>
<polygon fill="black" stroke="black" points="252.91,-119.52 261.64,-120.42 256.7,-118.26 260.5,-117 260.5,-117 260.5,-117 256.7,-118.26 259.36,-113.58 252.91,-119.52 252.91,-119.52"/>
<ellipse fill="none" stroke="black" cx="249.87" cy="-120.53" rx="3.2" ry="3.2"/>
</g>
<!-- pa_hierarchy&#45;&gt;ad_tree -->
<g id="edge2" class="edge">
<title>pa_hierarchy:w&#45;&gt;ad_tree:e</title>
<path fill="none" stroke="black" d="M246.54,-144.08C231.99,-157.69 237.72,-194 211,-194"/>
<polygon fill="black" stroke="black" points="252.98,-141.73 261.73,-142.38 256.74,-140.37 260.5,-139 260.5,-139 260.5,-139 256.74,-140.37 259.27,-135.62 252.98,-141.73 252.98,-141.73"/>
<ellipse fill="none" stroke="black" cx="249.97" cy="-142.83" rx="3.2" ry="3.2"/>
</g>
<!-- pa_hierarchy&#45;&gt;ad_tree -->
<g id="edge3" class="edge">
<title>pa_hierarchy:w&#45;&gt;ad_tree:e</title>
<path fill="none" stroke="black" d="M246.54,-243.92C231.99,-230.31 237.72,-194 211,-194"/>
<polygon fill="black" stroke="black" points="252.98,-246.27 259.27,-252.38 256.74,-247.63 260.5,-249 260.5,-249 260.5,-249 256.74,-247.63 261.73,-245.62 252.98,-246.27 252.98,-246.27"/>
<ellipse fill="none" stroke="black" cx="249.97" cy="-245.17" rx="3.2" ry="3.2"/>
</g>
<!-- pa_hierarchy&#45;&gt;ad_tree -->
<g id="edge4" class="edge">
<title>pa_hierarchy:w&#45;&gt;ad_tree:e</title>
<path fill="none" stroke="black" d="M246.43,-165.31C234.06,-174.26 231.45,-194 211,-194"/>
<polygon fill="black" stroke="black" points="252.85,-163.34 261.56,-164.44 256.68,-162.17 260.5,-161 260.5,-161 260.5,-161 256.68,-162.17 259.44,-157.56 252.85,-163.34 252.85,-163.34"/>
<ellipse fill="none" stroke="black" cx="249.79" cy="-164.28" rx="3.2" ry="3.2"/>
</g>
<!-- pa_hierarchy&#45;&gt;ad_tree -->
<g id="edge5" class="edge">
<title>pa_hierarchy:w&#45;&gt;ad_tree:e</title>
<path fill="none" stroke="black" d="M246.7,-266.41C227.68,-249.84 245.64,-194 211,-194"/>
<polygon fill="black" stroke="black" points="252.91,-268.48 259.36,-274.42 256.7,-269.74 260.5,-271 260.5,-271 260.5,-271 256.7,-269.74 261.64,-267.58 252.91,-268.48 252.91,-268.48"/>
<ellipse fill="none" stroke="black" cx="249.87" cy="-267.47" rx="3.2" ry="3.2"/>
</g>
<!-- pa_hierarchy&#45;&gt;ad_tree -->
<g id="edge6" class="edge">
<title>pa_hierarchy:w&#45;&gt;ad_tree:e</title>
<path fill="none" stroke="black" d="M246.06,-184.82C234.48,-187.94 227.73,-194 211,-194"/>
<polygon fill="black" stroke="black" points="252.56,-184 260.95,-186.57 256.53,-183.5 260.5,-183 260.5,-183 260.5,-183 256.53,-183.5 260.05,-179.43 252.56,-184 252.56,-184"/>
<ellipse fill="none" stroke="black" cx="249.39" cy="-184.4" rx="3.2" ry="3.2"/>
</g>
<!-- pa_hierarchy&#45;&gt;ad_tree -->
<g id="edge7" class="edge">
<title>pa_hierarchy:w&#45;&gt;ad_tree:e</title>
<path fill="none" stroke="black" d="M246.43,-222.69C234.06,-213.74 231.45,-194 211,-194"/>
<polygon fill="black" stroke="black" points="252.85,-224.66 259.44,-230.44 256.68,-225.83 260.5,-227 260.5,-227 260.5,-227 256.68,-225.83 261.56,-223.56 252.85,-224.66 252.85,-224.66"/>
<ellipse fill="none" stroke="black" cx="249.79" cy="-223.72" rx="3.2" ry="3.2"/>
</g>
<!-- pa_hierarchy&#45;&gt;ad_tree -->
<g id="edge8" class="edge">
<title>pa_hierarchy:w&#45;&gt;ad_tree:e</title>
<path fill="none" stroke="black" d="M246.06,-203.18C234.48,-200.06 227.73,-194 211,-194"/>
<polygon fill="black" stroke="black" points="252.56,-204 260.05,-208.57 256.53,-204.5 260.5,-205 260.5,-205 260.5,-205 256.53,-204.5 260.95,-201.43 252.56,-204 252.56,-204"/>
<ellipse fill="none" stroke="black" cx="249.39" cy="-203.6" rx="3.2" ry="3.2"/>
</g>
<!-- pa_measure -->
<g id="node3" class="node">
<title>pa_measure</title>
<g id="a_node3"><a xlink:href="../../tables/pa_measure.html" xlink:title="pa_measure" target="_top">
<polygon fill="#ffffff" stroke="transparent" points="569,-400 569,-634 716,-634 716,-400 569,-400"/>
<polygon fill="#f5f5f5" stroke="transparent" points="569.5,-612 569.5,-634 716.5,-634 716.5,-612 569.5,-612"/>
<polygon fill="none" stroke="black" points="569.5,-612 569.5,-634 716.5,-634 716.5,-612 569.5,-612"/>
<text text-anchor="start" x="574.5" y="-621.2" font-family="Helvetica,sans-Serif" font-weight="bold" font-size="11.00">pa_measure</text>
<text text-anchor="start" x="681.5" y="-620.2" font-family="Helvetica,sans-Serif" font-size="11.00">[table]</text>
<polygon fill="none" stroke="black" points="569.5,-590 569.5,-612 716.5,-612 716.5,-590 569.5,-590"/>
<image xlink:href="../../images/primaryKeys.png" width="11px" height="12px" preserveAspectRatio="xMinYMin meet" x="574.5" y="-607"/>
<text text-anchor="start" x="589.5" y="-598.2" font-family="Helvetica,sans-Serif" font-size="11.00">pa_measure_id</text>
<polygon fill="none" stroke="black" points="569.5,-568 569.5,-590 716.5,-590 716.5,-568 569.5,-568"/>
<image xlink:href="../../images/foreignKeys.png" width="11px" height="12px" preserveAspectRatio="xMinYMin meet" x="574.5" y="-585"/>
<text text-anchor="start" x="589.5" y="-576.2" font-family="Helvetica,sans-Serif" font-size="11.00">pa_measurecalc_id</text>
<polygon fill="none" stroke="black" points="569.5,-546 569.5,-568 716.5,-568 716.5,-546 569.5,-546"/>
<image xlink:href="../../images/foreignKeys.png" width="11px" height="12px" preserveAspectRatio="xMinYMin meet" x="574.5" y="-563"/>
<text text-anchor="start" x="589.5" y="-554.2" font-family="Helvetica,sans-Serif" font-size="11.00">pa_benchmark_id</text>
<polygon fill="none" stroke="black" points="569.5,-524 569.5,-546 716.5,-546 716.5,-524 569.5,-524"/>
<image xlink:href="../../images/foreignKeys.png" width="11px" height="12px" preserveAspectRatio="xMinYMin meet" x="574.5" y="-541"/>
<text text-anchor="start" x="589.5" y="-532.2" font-family="Helvetica,sans-Serif" font-size="11.00">pa_ratio_id</text>
<polygon fill="none" stroke="black" points="569.5,-502 569.5,-524 716.5,-524 716.5,-502 569.5,-502"/>
<image xlink:href="../../images/foreignKeys.png" width="11px" height="12px" preserveAspectRatio="xMinYMin meet" x="574.5" y="-519"/>
<text text-anchor="start" x="589.5" y="-510.2" font-family="Helvetica,sans-Serif" font-size="11.00">pa_hierarchy_id</text>
<polygon fill="none" stroke="black" points="569.5,-480 569.5,-502 716.5,-502 716.5,-480 569.5,-480"/>
<image xlink:href="../../images/foreignKeys.png" width="11px" height="12px" preserveAspectRatio="xMinYMin meet" x="574.5" y="-497"/>
<text text-anchor="start" x="589.5" y="-488.2" font-family="Helvetica,sans-Serif" font-size="11.00">r_requesttype_id</text>
<polygon fill="none" stroke="black" points="569.5,-458 569.5,-480 716.5,-480 716.5,-458 569.5,-458"/>
<image xlink:href="../../images/foreignKeys.png" width="11px" height="12px" preserveAspectRatio="xMinYMin meet" x="574.5" y="-475"/>
<text text-anchor="start" x="589.5" y="-466.2" font-family="Helvetica,sans-Serif" font-size="11.00">c_projecttype_id</text>
<polygon fill="#ffffff" stroke="transparent" points="569.5,-436 569.5,-458 716.5,-458 716.5,-436 569.5,-436"/>
<polygon fill="none" stroke="black" points="569.5,-436 569.5,-458 716.5,-458 716.5,-436 569.5,-436"/>
<text text-anchor="start" x="589.5" y="-444.2" font-family="Helvetica,sans-Serif" font-size="11.00">pa_measure_uu</text>
<polygon fill="none" stroke="black" points="569.5,-418 569.5,-436 716.5,-436 716.5,-418 569.5,-418"/>
<text text-anchor="start" x="572.5" y="-424.2" font-family="Helvetica,sans-Serif" font-size="11.00">...</text>
<polygon fill="#ffffff" stroke="transparent" points="569.5,-400 569.5,-418 623.5,-418 623.5,-400 569.5,-400"/>
<polygon fill="none" stroke="black" points="569.5,-400 569.5,-418 623.5,-418 623.5,-400 569.5,-400"/>
<text text-anchor="start" x="572.5" y="-406.2" font-family="Helvetica,sans-Serif" font-size="11.00">&lt; 6</text>
<polygon fill="#ffffff" stroke="transparent" points="623.5,-400 623.5,-418 678.5,-418 678.5,-400 623.5,-400"/>
<polygon fill="none" stroke="black" points="623.5,-400 623.5,-418 678.5,-418 678.5,-400 623.5,-400"/>
<text text-anchor="start" x="642.5" y="-406.2" font-family="Helvetica,sans-Serif" font-size="11.00">0 rows</text>
<polygon fill="#ffffff" stroke="transparent" points="678.5,-400 678.5,-418 716.5,-418 716.5,-400 678.5,-400"/>
<polygon fill="none" stroke="black" points="678.5,-400 678.5,-418 716.5,-418 716.5,-400 678.5,-400"/>
<text text-anchor="start" x="697.5" y="-406.2" font-family="Helvetica,sans-Serif" font-size="11.00">2 &gt;</text>
</a>
</g>
</g>
<!-- pa_measure&#45;&gt;pa_hierarchy -->
<g id="edge9" class="edge">
<title>pa_measure:w&#45;&gt;pa_hierarchy:e</title>
<path fill="none" stroke="black" d="M553.99,-513C542.68,-513 535.49,-513 519.5,-513"/>
<polygon fill="black" stroke="black" points="560.5,-513 568.5,-516.6 564.5,-513 568.5,-513 568.5,-513 568.5,-513 564.5,-513 568.5,-509.4 560.5,-513 560.5,-513"/>
<ellipse fill="none" stroke="black" cx="557.3" cy="-513" rx="3.2" ry="3.2"/>
</g>
</g>
</svg>
