<?xml version="1.0" encoding="UTF-8" standalone="no"?>
<!DOCTYPE svg PUBLIC "-//W3C//DTD SVG 1.1//EN"
 "http://www.w3.org/Graphics/SVG/1.1/DTD/svg11.dtd">
<!-- Generated by graphviz version 2.43.0 (0)
 -->
<!-- Title: oneDegreeRelationshipsDiagram Pages: 1 -->
<svg width="508pt" height="588pt"
 viewBox="0.00 0.00 508.00 588.00" xmlns="http://www.w3.org/2000/svg" xmlns:xlink="http://www.w3.org/1999/xlink">
<g id="graph0" class="graph" transform="scale(1 1) rotate(0) translate(4 584)">
<title>oneDegreeRelationshipsDiagram</title>
<polygon fill="#ffffff" stroke="transparent" points="-4,4 -4,-584 504,-584 504,4 -4,4"/>
<text text-anchor="middle" x="71.5" y="-7.2" font-family="Helvetica,sans-Serif" font-size="11.00">Generated by SchemaSpy</text>
<!-- pa_sla_measure -->
<g id="node1" class="node">
<title>pa_sla_measure</title>
<g id="a_node1"><a xlink:href="../../tables/pa_sla_measure.html" xlink:title="pa_sla_measure" target="_top">
<polygon fill="#ffffff" stroke="transparent" points="255,-158 255,-576 492,-576 492,-158 255,-158"/>
<polygon fill="#f5f5f5" stroke="transparent" points="257.5,-552 257.5,-574 490.5,-574 490.5,-552 257.5,-552"/>
<polygon fill="none" stroke="black" points="257.5,-552 257.5,-574 490.5,-574 490.5,-552 257.5,-552"/>
<text text-anchor="start" x="262.5" y="-561.2" font-family="Helvetica,sans-Serif" font-weight="bold" font-size="11.00">pa_sla_measure</text>
<text text-anchor="start" x="455.5" y="-560.2" font-family="Helvetica,sans-Serif" font-size="11.00">[table]</text>
<polygon fill="none" stroke="black" points="257.5,-530 257.5,-552 407.5,-552 407.5,-530 257.5,-530"/>
<image xlink:href="../../images/primaryKeys.png" width="11px" height="12px" preserveAspectRatio="xMinYMin meet" x="262.5" y="-547"/>
<text text-anchor="start" x="277.5" y="-538.2" font-family="Helvetica,sans-Serif" font-size="11.00">pa_sla_measure_id</text>
<polygon fill="none" stroke="black" points="407.5,-530 407.5,-552 490.5,-552 490.5,-530 407.5,-530"/>
<text text-anchor="start" x="410.5" y="-538.2" font-family="Helvetica,sans-Serif" font-size="11.00">numeric[10]</text>
<polygon fill="none" stroke="black" points="257.5,-508 257.5,-530 407.5,-530 407.5,-508 257.5,-508"/>
<text text-anchor="start" x="277.5" y="-516.2" font-family="Helvetica,sans-Serif" font-size="11.00">ad_client_id</text>
<polygon fill="none" stroke="black" points="407.5,-508 407.5,-530 490.5,-530 490.5,-508 407.5,-508"/>
<text text-anchor="start" x="410.5" y="-516.2" font-family="Helvetica,sans-Serif" font-size="11.00">numeric[10]</text>
<polygon fill="none" stroke="black" points="257.5,-486 257.5,-508 407.5,-508 407.5,-486 257.5,-486"/>
<text text-anchor="start" x="277.5" y="-494.2" font-family="Helvetica,sans-Serif" font-size="11.00">ad_org_id</text>
<polygon fill="none" stroke="black" points="407.5,-486 407.5,-508 490.5,-508 490.5,-486 407.5,-486"/>
<text text-anchor="start" x="410.5" y="-494.2" font-family="Helvetica,sans-Serif" font-size="11.00">numeric[10]</text>
<polygon fill="none" stroke="black" points="257.5,-464 257.5,-486 407.5,-486 407.5,-464 257.5,-464"/>
<text text-anchor="start" x="277.5" y="-472.2" font-family="Helvetica,sans-Serif" font-size="11.00">isactive</text>
<polygon fill="none" stroke="black" points="407.5,-464 407.5,-486 490.5,-486 490.5,-464 407.5,-464"/>
<text text-anchor="start" x="410.5" y="-472.2" font-family="Helvetica,sans-Serif" font-size="11.00">bpchar[1]</text>
<polygon fill="none" stroke="black" points="257.5,-442 257.5,-464 407.5,-464 407.5,-442 257.5,-442"/>
<text text-anchor="start" x="277.5" y="-450.2" font-family="Helvetica,sans-Serif" font-size="11.00">created</text>
<polygon fill="none" stroke="black" points="407.5,-442 407.5,-464 490.5,-464 490.5,-442 407.5,-442"/>
<text text-anchor="start" x="410.5" y="-450.2" font-family="Helvetica,sans-Serif" font-size="11.00">timestamp[29,6]</text>
<polygon fill="none" stroke="black" points="257.5,-420 257.5,-442 407.5,-442 407.5,-420 257.5,-420"/>
<text text-anchor="start" x="277.5" y="-428.2" font-family="Helvetica,sans-Serif" font-size="11.00">createdby</text>
<polygon fill="none" stroke="black" points="407.5,-420 407.5,-442 490.5,-442 490.5,-420 407.5,-420"/>
<text text-anchor="start" x="410.5" y="-428.2" font-family="Helvetica,sans-Serif" font-size="11.00">numeric[10]</text>
<polygon fill="none" stroke="black" points="257.5,-398 257.5,-420 407.5,-420 407.5,-398 257.5,-398"/>
<text text-anchor="start" x="277.5" y="-406.2" font-family="Helvetica,sans-Serif" font-size="11.00">updated</text>
<polygon fill="none" stroke="black" points="407.5,-398 407.5,-420 490.5,-420 490.5,-398 407.5,-398"/>
<text text-anchor="start" x="410.5" y="-406.2" font-family="Helvetica,sans-Serif" font-size="11.00">timestamp[29,6]</text>
<polygon fill="none" stroke="black" points="257.5,-376 257.5,-398 407.5,-398 407.5,-376 257.5,-376"/>
<text text-anchor="start" x="277.5" y="-384.2" font-family="Helvetica,sans-Serif" font-size="11.00">updatedby</text>
<polygon fill="none" stroke="black" points="407.5,-376 407.5,-398 490.5,-398 490.5,-376 407.5,-376"/>
<text text-anchor="start" x="410.5" y="-384.2" font-family="Helvetica,sans-Serif" font-size="11.00">numeric[10]</text>
<polygon fill="none" stroke="black" points="257.5,-354 257.5,-376 407.5,-376 407.5,-354 257.5,-354"/>
<image xlink:href="../../images/foreignKeys.png" width="11px" height="12px" preserveAspectRatio="xMinYMin meet" x="262.5" y="-371"/>
<text text-anchor="start" x="277.5" y="-362.2" font-family="Helvetica,sans-Serif" font-size="11.00">pa_sla_goal_id</text>
<polygon fill="none" stroke="black" points="407.5,-354 407.5,-376 490.5,-376 490.5,-354 407.5,-354"/>
<text text-anchor="start" x="410.5" y="-362.2" font-family="Helvetica,sans-Serif" font-size="11.00">numeric[10]</text>
<polygon fill="none" stroke="black" points="257.5,-332 257.5,-354 407.5,-354 407.5,-332 257.5,-332"/>
<text text-anchor="start" x="277.5" y="-340.2" font-family="Helvetica,sans-Serif" font-size="11.00">datetrx</text>
<polygon fill="none" stroke="black" points="407.5,-332 407.5,-354 490.5,-354 490.5,-332 407.5,-332"/>
<text text-anchor="start" x="410.5" y="-340.2" font-family="Helvetica,sans-Serif" font-size="11.00">timestamp[29,6]</text>
<polygon fill="none" stroke="black" points="257.5,-310 257.5,-332 407.5,-332 407.5,-310 257.5,-310"/>
<text text-anchor="start" x="277.5" y="-318.2" font-family="Helvetica,sans-Serif" font-size="11.00">measureactual</text>
<polygon fill="none" stroke="black" points="407.5,-310 407.5,-332 490.5,-332 490.5,-310 407.5,-310"/>
<text text-anchor="start" x="410.5" y="-318.2" font-family="Helvetica,sans-Serif" font-size="11.00">numeric[0]</text>
<polygon fill="none" stroke="black" points="257.5,-288 257.5,-310 407.5,-310 407.5,-288 257.5,-288"/>
<text text-anchor="start" x="277.5" y="-296.2" font-family="Helvetica,sans-Serif" font-size="11.00">description</text>
<polygon fill="none" stroke="black" points="407.5,-288 407.5,-310 490.5,-310 490.5,-288 407.5,-288"/>
<text text-anchor="start" x="410.5" y="-296.2" font-family="Helvetica,sans-Serif" font-size="11.00">varchar[255]</text>
<polygon fill="none" stroke="black" points="257.5,-266 257.5,-288 407.5,-288 407.5,-266 257.5,-266"/>
<image xlink:href="../../images/foreignKeys.png" width="11px" height="12px" preserveAspectRatio="xMinYMin meet" x="262.5" y="-283"/>
<text text-anchor="start" x="277.5" y="-274.2" font-family="Helvetica,sans-Serif" font-size="11.00">ad_table_id</text>
<polygon fill="none" stroke="black" points="407.5,-266 407.5,-288 490.5,-288 490.5,-266 407.5,-266"/>
<text text-anchor="start" x="410.5" y="-274.2" font-family="Helvetica,sans-Serif" font-size="11.00">numeric[10]</text>
<polygon fill="none" stroke="black" points="257.5,-244 257.5,-266 407.5,-266 407.5,-244 257.5,-244"/>
<text text-anchor="start" x="277.5" y="-252.2" font-family="Helvetica,sans-Serif" font-size="11.00">record_id</text>
<polygon fill="none" stroke="black" points="407.5,-244 407.5,-266 490.5,-266 490.5,-244 407.5,-244"/>
<text text-anchor="start" x="410.5" y="-252.2" font-family="Helvetica,sans-Serif" font-size="11.00">numeric[10]</text>
<polygon fill="none" stroke="black" points="257.5,-222 257.5,-244 407.5,-244 407.5,-222 257.5,-222"/>
<text text-anchor="start" x="277.5" y="-230.2" font-family="Helvetica,sans-Serif" font-size="11.00">processed</text>
<polygon fill="none" stroke="black" points="407.5,-222 407.5,-244 490.5,-244 490.5,-222 407.5,-222"/>
<text text-anchor="start" x="410.5" y="-230.2" font-family="Helvetica,sans-Serif" font-size="11.00">bpchar[1]</text>
<polygon fill="none" stroke="black" points="257.5,-200 257.5,-222 407.5,-222 407.5,-200 257.5,-200"/>
<text text-anchor="start" x="277.5" y="-208.2" font-family="Helvetica,sans-Serif" font-size="11.00">processing</text>
<polygon fill="none" stroke="black" points="407.5,-200 407.5,-222 490.5,-222 490.5,-200 407.5,-200"/>
<text text-anchor="start" x="410.5" y="-208.2" font-family="Helvetica,sans-Serif" font-size="11.00">bpchar[1]</text>
<polygon fill="#ffffff" stroke="transparent" points="257.5,-178 257.5,-200 407.5,-200 407.5,-178 257.5,-178"/>
<polygon fill="none" stroke="black" points="257.5,-178 257.5,-200 407.5,-200 407.5,-178 257.5,-178"/>
<text text-anchor="start" x="277.5" y="-186.2" font-family="Helvetica,sans-Serif" font-size="11.00">pa_sla_measure_uu</text>
<polygon fill="none" stroke="black" points="407.5,-178 407.5,-200 490.5,-200 490.5,-178 407.5,-178"/>
<text text-anchor="start" x="410.5" y="-186.2" font-family="Helvetica,sans-Serif" font-size="11.00">varchar[36]</text>
<polygon fill="#ffffff" stroke="transparent" points="257.5,-160 257.5,-178 323.5,-178 323.5,-160 257.5,-160"/>
<polygon fill="none" stroke="black" points="257.5,-160 257.5,-178 323.5,-178 323.5,-160 257.5,-160"/>
<text text-anchor="start" x="260.5" y="-166.2" font-family="Helvetica,sans-Serif" font-size="11.00">&lt; 2</text>
<polygon fill="#ffffff" stroke="transparent" points="323.5,-160 323.5,-178 407.5,-178 407.5,-160 323.5,-160"/>
<polygon fill="none" stroke="black" points="323.5,-160 323.5,-178 407.5,-178 407.5,-160 323.5,-160"/>
<text text-anchor="start" x="371.5" y="-166.2" font-family="Helvetica,sans-Serif" font-size="11.00">0 rows</text>
<polygon fill="#ffffff" stroke="transparent" points="407.5,-160 407.5,-178 490.5,-178 490.5,-160 407.5,-160"/>
<polygon fill="none" stroke="black" points="407.5,-160 407.5,-178 490.5,-178 490.5,-160 407.5,-160"/>
<text text-anchor="start" x="471.5" y="-166.2" font-family="Helvetica,sans-Serif" font-size="11.00">0 &gt;</text>
<polygon fill="none" stroke="black" stroke-width="2" points="256,-159 256,-575 491,-575 491,-159 256,-159"/>
</a>
</g>
</g>
<!-- ad_table -->
<g id="node2" class="node">
<title>ad_table</title>
<g id="a_node2"><a xlink:href="../../tables/ad_table.html" xlink:title="ad_table" target="_top">
<polygon fill="#ffffff" stroke="transparent" points="8,-37 8,-271 206,-271 206,-37 8,-37"/>
<polygon fill="#f5f5f5" stroke="transparent" points="8,-249 8,-271 206,-271 206,-249 8,-249"/>
<polygon fill="none" stroke="black" points="8,-249 8,-271 206,-271 206,-249 8,-249"/>
<text text-anchor="start" x="13" y="-258.2" font-family="Helvetica,sans-Serif" font-weight="bold" font-size="11.00">ad_table</text>
<text text-anchor="start" x="171" y="-257.2" font-family="Helvetica,sans-Serif" font-size="11.00">[table]</text>
<polygon fill="none" stroke="black" points="8,-227 8,-249 206,-249 206,-227 8,-227"/>
<image xlink:href="../../images/primaryKeys.png" width="11px" height="12px" preserveAspectRatio="xMinYMin meet" x="13" y="-244"/>
<text text-anchor="start" x="28" y="-235.2" font-family="Helvetica,sans-Serif" font-size="11.00">ad_table_id</text>
<polygon fill="none" stroke="black" points="8,-205 8,-227 206,-227 206,-205 8,-205"/>
<image xlink:href="../../images/foreignKeys.png" width="11px" height="12px" preserveAspectRatio="xMinYMin meet" x="13" y="-222"/>
<text text-anchor="start" x="28" y="-213.2" font-family="Helvetica,sans-Serif" font-size="11.00">ad_client_id</text>
<polygon fill="none" stroke="black" points="8,-183 8,-205 206,-205 206,-183 8,-183"/>
<image xlink:href="../../images/foreignKeys.png" width="11px" height="12px" preserveAspectRatio="xMinYMin meet" x="13" y="-200"/>
<text text-anchor="start" x="28" y="-191.2" font-family="Helvetica,sans-Serif" font-size="11.00">ad_org_id</text>
<polygon fill="none" stroke="black" points="8,-161 8,-183 206,-183 206,-161 8,-161"/>
<image xlink:href="../../images/foreignKeys.png" width="11px" height="12px" preserveAspectRatio="xMinYMin meet" x="13" y="-178"/>
<text text-anchor="start" x="28" y="-169.2" font-family="Helvetica,sans-Serif" font-size="11.00">entitytype</text>
<polygon fill="none" stroke="black" points="8,-139 8,-161 206,-161 206,-139 8,-139"/>
<image xlink:href="../../images/foreignKeys.png" width="11px" height="12px" preserveAspectRatio="xMinYMin meet" x="13" y="-156"/>
<text text-anchor="start" x="28" y="-147.2" font-family="Helvetica,sans-Serif" font-size="11.00">ad_window_id</text>
<polygon fill="none" stroke="black" points="8,-117 8,-139 206,-139 206,-117 8,-117"/>
<image xlink:href="../../images/foreignKeys.png" width="11px" height="12px" preserveAspectRatio="xMinYMin meet" x="13" y="-134"/>
<text text-anchor="start" x="28" y="-125.2" font-family="Helvetica,sans-Serif" font-size="11.00">ad_val_rule_id</text>
<polygon fill="none" stroke="black" points="8,-95 8,-117 206,-117 206,-95 8,-95"/>
<image xlink:href="../../images/foreignKeys.png" width="11px" height="12px" preserveAspectRatio="xMinYMin meet" x="13" y="-112"/>
<text text-anchor="start" x="28" y="-103.2" font-family="Helvetica,sans-Serif" font-size="11.00">po_window_id</text>
<polygon fill="#ffffff" stroke="transparent" points="8,-73 8,-95 206,-95 206,-73 8,-73"/>
<polygon fill="none" stroke="black" points="8,-73 8,-95 206,-95 206,-73 8,-73"/>
<text text-anchor="start" x="28" y="-81.2" font-family="Helvetica,sans-Serif" font-size="11.00">ad_table_uu</text>
<polygon fill="none" stroke="black" points="8,-55 8,-73 206,-73 206,-55 8,-55"/>
<text text-anchor="start" x="11" y="-61.2" font-family="Helvetica,sans-Serif" font-size="11.00">...</text>
<polygon fill="#ffffff" stroke="transparent" points="8,-37 8,-55 74,-55 74,-37 8,-37"/>
<polygon fill="none" stroke="black" points="8,-37 8,-55 74,-55 74,-37 8,-37"/>
<text text-anchor="start" x="11" y="-43.2" font-family="Helvetica,sans-Serif" font-size="11.00">&lt; 6</text>
<polygon fill="#ffffff" stroke="transparent" points="74,-37 74,-55 156,-55 156,-37 74,-37"/>
<polygon fill="none" stroke="black" points="74,-37 74,-55 156,-55 156,-37 74,-37"/>
<text text-anchor="start" x="99" y="-43.2" font-family="Helvetica,sans-Serif" font-size="11.00">1.363 rows</text>
<polygon fill="#ffffff" stroke="transparent" points="156,-37 156,-55 206,-55 206,-37 156,-37"/>
<polygon fill="none" stroke="black" points="156,-37 156,-55 206,-55 206,-37 156,-37"/>
<text text-anchor="start" x="181" y="-43.2" font-family="Helvetica,sans-Serif" font-size="11.00">77 &gt;</text>
</a>
</g>
</g>
<!-- pa_sla_measure&#45;&gt;ad_table -->
<g id="edge1" class="edge">
<title>pa_sla_measure:w&#45;&gt;ad_table:e</title>
<path fill="none" stroke="black" d="M242.74,-272.53C229.7,-262.28 229.1,-238 207,-238"/>
<polygon fill="black" stroke="black" points="248.89,-274.53 255.39,-280.42 252.7,-275.76 256.5,-277 256.5,-277 256.5,-277 252.7,-275.76 257.61,-273.58 248.89,-274.53 248.89,-274.53"/>
<ellipse fill="none" stroke="black" cx="245.85" cy="-273.54" rx="3.2" ry="3.2"/>
</g>
<!-- pa_sla_goal -->
<g id="node3" class="node">
<title>pa_sla_goal</title>
<g id="a_node3"><a xlink:href="../../tables/pa_sla_goal.html" xlink:title="pa_sla_goal" target="_top">
<polygon fill="#ffffff" stroke="transparent" points="39,-292 39,-438 175,-438 175,-292 39,-292"/>
<polygon fill="#f5f5f5" stroke="transparent" points="39,-416 39,-438 175,-438 175,-416 39,-416"/>
<polygon fill="none" stroke="black" points="39,-416 39,-438 175,-438 175,-416 39,-416"/>
<text text-anchor="start" x="44" y="-425.2" font-family="Helvetica,sans-Serif" font-weight="bold" font-size="11.00">pa_sla_goal</text>
<text text-anchor="start" x="140" y="-424.2" font-family="Helvetica,sans-Serif" font-size="11.00">[table]</text>
<polygon fill="none" stroke="black" points="39,-394 39,-416 175,-416 175,-394 39,-394"/>
<image xlink:href="../../images/primaryKeys.png" width="11px" height="12px" preserveAspectRatio="xMinYMin meet" x="44" y="-411"/>
<text text-anchor="start" x="59" y="-402.2" font-family="Helvetica,sans-Serif" font-size="11.00">pa_sla_goal_id</text>
<polygon fill="none" stroke="black" points="39,-372 39,-394 175,-394 175,-372 39,-372"/>
<image xlink:href="../../images/foreignKeys.png" width="11px" height="12px" preserveAspectRatio="xMinYMin meet" x="44" y="-389"/>
<text text-anchor="start" x="59" y="-380.2" font-family="Helvetica,sans-Serif" font-size="11.00">pa_sla_criteria_id</text>
<polygon fill="none" stroke="black" points="39,-350 39,-372 175,-372 175,-350 39,-350"/>
<image xlink:href="../../images/foreignKeys.png" width="11px" height="12px" preserveAspectRatio="xMinYMin meet" x="44" y="-367"/>
<text text-anchor="start" x="59" y="-358.2" font-family="Helvetica,sans-Serif" font-size="11.00">c_bpartner_id</text>
<polygon fill="#ffffff" stroke="transparent" points="39,-328 39,-350 175,-350 175,-328 39,-328"/>
<polygon fill="none" stroke="black" points="39,-328 39,-350 175,-350 175,-328 39,-328"/>
<text text-anchor="start" x="59" y="-336.2" font-family="Helvetica,sans-Serif" font-size="11.00">pa_sla_goal_uu</text>
<polygon fill="none" stroke="black" points="39,-310 39,-328 175,-328 175,-310 39,-310"/>
<text text-anchor="start" x="42" y="-316.2" font-family="Helvetica,sans-Serif" font-size="11.00">...</text>
<polygon fill="#ffffff" stroke="transparent" points="39,-292 39,-310 87,-310 87,-292 39,-292"/>
<polygon fill="none" stroke="black" points="39,-292 39,-310 87,-310 87,-292 39,-292"/>
<text text-anchor="start" x="42" y="-298.2" font-family="Helvetica,sans-Serif" font-size="11.00">&lt; 2</text>
<polygon fill="#ffffff" stroke="transparent" points="87,-292 87,-310 139,-310 139,-292 87,-292"/>
<polygon fill="none" stroke="black" points="87,-292 87,-310 139,-310 139,-292 87,-292"/>
<text text-anchor="start" x="103" y="-298.2" font-family="Helvetica,sans-Serif" font-size="11.00">0 rows</text>
<polygon fill="#ffffff" stroke="transparent" points="139,-292 139,-310 175,-310 175,-292 139,-292"/>
<polygon fill="none" stroke="black" points="139,-292 139,-310 175,-310 175,-292 139,-292"/>
<text text-anchor="start" x="156" y="-298.2" font-family="Helvetica,sans-Serif" font-size="11.00">1 &gt;</text>
</a>
</g>
</g>
<!-- pa_sla_measure&#45;&gt;pa_sla_goal -->
<g id="edge2" class="edge">
<title>pa_sla_measure:w&#45;&gt;pa_sla_goal:e</title>
<path fill="none" stroke="black" d="M242.12,-367.04C215.65,-375.19 210.49,-405 176,-405"/>
<polygon fill="black" stroke="black" points="248.58,-366.12 257.01,-368.56 252.54,-365.56 256.5,-365 256.5,-365 256.5,-365 252.54,-365.56 255.99,-361.44 248.58,-366.12 248.58,-366.12"/>
<ellipse fill="none" stroke="black" cx="245.41" cy="-366.57" rx="3.2" ry="3.2"/>
</g>
</g>
</svg>
