<?xml version="1.0" encoding="UTF-8" standalone="no"?>
<!DOCTYPE svg PUBLIC "-//W3C//DTD SVG 1.1//EN"
 "http://www.w3.org/Graphics/SVG/1.1/DTD/svg11.dtd">
<!-- Generated by graphviz version 2.43.0 (0)
 -->
<!-- Title: oneDegreeRelationshipsDiagram Pages: 1 -->
<svg width="566pt" height="373pt"
 viewBox="0.00 0.00 566.00 373.00" xmlns="http://www.w3.org/2000/svg" xmlns:xlink="http://www.w3.org/1999/xlink">
<g id="graph0" class="graph" transform="scale(1 1) rotate(0) translate(4 369)">
<title>oneDegreeRelationshipsDiagram</title>
<polygon fill="#ffffff" stroke="transparent" points="-4,4 -4,-369 562,-369 562,4 -4,4"/>
<text text-anchor="middle" x="71.5" y="-7.2" font-family="Helvetica,sans-Serif" font-size="11.00">Generated by SchemaSpy</text>
<!-- r_issueknown -->
<g id="node1" class="node">
<title>r_issueknown</title>
<g id="a_node1"><a xlink:href="../../tables/r_issueknown.html" xlink:title="r_issueknown" target="_top">
<polygon fill="#ffffff" stroke="transparent" points="349,-37 349,-337 550,-337 550,-37 349,-37"/>
<polygon fill="#f5f5f5" stroke="transparent" points="349.5,-315 349.5,-337 550.5,-337 550.5,-315 349.5,-315"/>
<polygon fill="none" stroke="black" points="349.5,-315 349.5,-337 550.5,-337 550.5,-315 349.5,-315"/>
<text text-anchor="start" x="354.5" y="-324.2" font-family="Helvetica,sans-Serif" font-weight="bold" font-size="11.00">r_issueknown</text>
<text text-anchor="start" x="515.5" y="-323.2" font-family="Helvetica,sans-Serif" font-size="11.00">[table]</text>
<polygon fill="none" stroke="black" points="349.5,-293 349.5,-315 550.5,-315 550.5,-293 349.5,-293"/>
<image xlink:href="../../images/primaryKeys.png" width="11px" height="12px" preserveAspectRatio="xMinYMin meet" x="354.5" y="-310"/>
<text text-anchor="start" x="369.5" y="-301.2" font-family="Helvetica,sans-Serif" font-size="11.00">r_issueknown_id</text>
<polygon fill="#ffffff" stroke="transparent" points="349.5,-271 349.5,-293 550.5,-293 550.5,-271 349.5,-271"/>
<polygon fill="none" stroke="black" points="349.5,-271 349.5,-293 550.5,-293 550.5,-271 349.5,-271"/>
<text text-anchor="start" x="369.5" y="-279.2" font-family="Helvetica,sans-Serif" font-size="11.00">issuesummary</text>
<polygon fill="#ffffff" stroke="transparent" points="349.5,-249 349.5,-271 550.5,-271 550.5,-249 349.5,-249"/>
<polygon fill="none" stroke="black" points="349.5,-249 349.5,-271 550.5,-271 550.5,-249 349.5,-249"/>
<text text-anchor="start" x="369.5" y="-257.2" font-family="Helvetica,sans-Serif" font-size="11.00">releaseno</text>
<polygon fill="#ffffff" stroke="transparent" points="349.5,-227 349.5,-249 550.5,-249 550.5,-227 349.5,-227"/>
<polygon fill="none" stroke="black" points="349.5,-227 349.5,-249 550.5,-249 550.5,-227 349.5,-227"/>
<text text-anchor="start" x="369.5" y="-235.2" font-family="Helvetica,sans-Serif" font-size="11.00">sourceclassname</text>
<polygon fill="#ffffff" stroke="transparent" points="349.5,-205 349.5,-227 550.5,-227 550.5,-205 349.5,-205"/>
<polygon fill="none" stroke="black" points="349.5,-205 349.5,-227 550.5,-227 550.5,-205 349.5,-205"/>
<text text-anchor="start" x="369.5" y="-213.2" font-family="Helvetica,sans-Serif" font-size="11.00">sourcemethodname</text>
<polygon fill="#ffffff" stroke="transparent" points="349.5,-183 349.5,-205 550.5,-205 550.5,-183 349.5,-183"/>
<polygon fill="none" stroke="black" points="349.5,-183 349.5,-205 550.5,-205 550.5,-183 349.5,-183"/>
<text text-anchor="start" x="369.5" y="-191.2" font-family="Helvetica,sans-Serif" font-size="11.00">loggername</text>
<polygon fill="#ffffff" stroke="transparent" points="349.5,-161 349.5,-183 550.5,-183 550.5,-161 349.5,-161"/>
<polygon fill="none" stroke="black" points="349.5,-161 349.5,-183 550.5,-183 550.5,-161 349.5,-161"/>
<text text-anchor="start" x="369.5" y="-169.2" font-family="Helvetica,sans-Serif" font-size="11.00">lineno</text>
<polygon fill="none" stroke="black" points="349.5,-139 349.5,-161 550.5,-161 550.5,-139 349.5,-139"/>
<image xlink:href="../../images/foreignKeys.png" width="11px" height="12px" preserveAspectRatio="xMinYMin meet" x="354.5" y="-156"/>
<text text-anchor="start" x="369.5" y="-147.2" font-family="Helvetica,sans-Serif" font-size="11.00">r_issuestatus_id</text>
<polygon fill="none" stroke="black" points="349.5,-117 349.5,-139 550.5,-139 550.5,-117 349.5,-117"/>
<image xlink:href="../../images/foreignKeys.png" width="11px" height="12px" preserveAspectRatio="xMinYMin meet" x="354.5" y="-134"/>
<text text-anchor="start" x="369.5" y="-125.2" font-family="Helvetica,sans-Serif" font-size="11.00">r_request_id</text>
<polygon fill="none" stroke="black" points="349.5,-95 349.5,-117 550.5,-117 550.5,-95 349.5,-95"/>
<image xlink:href="../../images/foreignKeys.png" width="11px" height="12px" preserveAspectRatio="xMinYMin meet" x="354.5" y="-112"/>
<text text-anchor="start" x="369.5" y="-103.2" font-family="Helvetica,sans-Serif" font-size="11.00">r_issuerecommendation_id</text>
<polygon fill="#ffffff" stroke="transparent" points="349.5,-73 349.5,-95 550.5,-95 550.5,-73 349.5,-73"/>
<polygon fill="none" stroke="black" points="349.5,-73 349.5,-95 550.5,-95 550.5,-73 349.5,-73"/>
<text text-anchor="start" x="369.5" y="-81.2" font-family="Helvetica,sans-Serif" font-size="11.00">r_issueknown_uu</text>
<polygon fill="none" stroke="black" points="349.5,-55 349.5,-73 550.5,-73 550.5,-55 349.5,-55"/>
<text text-anchor="start" x="352.5" y="-61.2" font-family="Helvetica,sans-Serif" font-size="11.00">...</text>
<polygon fill="#ffffff" stroke="transparent" points="349.5,-37 349.5,-55 430.5,-55 430.5,-37 349.5,-37"/>
<polygon fill="none" stroke="black" points="349.5,-37 349.5,-55 430.5,-55 430.5,-37 349.5,-37"/>
<text text-anchor="start" x="352.5" y="-43.2" font-family="Helvetica,sans-Serif" font-size="11.00">&lt; 3</text>
<polygon fill="#ffffff" stroke="transparent" points="430.5,-37 430.5,-55 498.5,-55 498.5,-37 430.5,-37"/>
<polygon fill="none" stroke="black" points="430.5,-37 430.5,-55 498.5,-55 498.5,-37 430.5,-37"/>
<text text-anchor="start" x="462.5" y="-43.2" font-family="Helvetica,sans-Serif" font-size="11.00">0 rows</text>
<polygon fill="#ffffff" stroke="transparent" points="498.5,-37 498.5,-55 550.5,-55 550.5,-37 498.5,-37"/>
<polygon fill="none" stroke="black" points="498.5,-37 498.5,-55 550.5,-55 550.5,-37 498.5,-37"/>
<text text-anchor="start" x="531.5" y="-43.2" font-family="Helvetica,sans-Serif" font-size="11.00">1 &gt;</text>
</a>
</g>
</g>
<!-- r_issuerecommendation -->
<g id="node2" class="node">
<title>r_issuerecommendation</title>
<g id="a_node2"><a xlink:href="../../tables/r_issuerecommendation.html" xlink:title="r_issuerecommendation" target="_top">
<polygon fill="#ffffff" stroke="transparent" points="8,-53 8,-361 300,-361 300,-53 8,-53"/>
<polygon fill="#f5f5f5" stroke="transparent" points="10,-337 10,-359 298,-359 298,-337 10,-337"/>
<polygon fill="none" stroke="black" points="10,-337 10,-359 298,-359 298,-337 10,-337"/>
<text text-anchor="start" x="15" y="-346.2" font-family="Helvetica,sans-Serif" font-weight="bold" font-size="11.00">r_issuerecommendation</text>
<text text-anchor="start" x="263" y="-345.2" font-family="Helvetica,sans-Serif" font-size="11.00">[table]</text>
<polygon fill="none" stroke="black" points="10,-315 10,-337 215,-337 215,-315 10,-315"/>
<text text-anchor="start" x="30" y="-323.2" font-family="Helvetica,sans-Serif" font-size="11.00">ad_client_id</text>
<polygon fill="none" stroke="black" points="215,-315 215,-337 298,-337 298,-315 215,-315"/>
<text text-anchor="start" x="218" y="-323.2" font-family="Helvetica,sans-Serif" font-size="11.00">numeric[10]</text>
<polygon fill="none" stroke="black" points="10,-293 10,-315 215,-315 215,-293 10,-293"/>
<text text-anchor="start" x="30" y="-301.2" font-family="Helvetica,sans-Serif" font-size="11.00">ad_org_id</text>
<polygon fill="none" stroke="black" points="215,-293 215,-315 298,-315 298,-293 215,-293"/>
<text text-anchor="start" x="218" y="-301.2" font-family="Helvetica,sans-Serif" font-size="11.00">numeric[10]</text>
<polygon fill="none" stroke="black" points="10,-271 10,-293 215,-293 215,-271 10,-271"/>
<text text-anchor="start" x="30" y="-279.2" font-family="Helvetica,sans-Serif" font-size="11.00">isactive</text>
<polygon fill="none" stroke="black" points="215,-271 215,-293 298,-293 298,-271 215,-271"/>
<text text-anchor="start" x="218" y="-279.2" font-family="Helvetica,sans-Serif" font-size="11.00">bpchar[1]</text>
<polygon fill="none" stroke="black" points="10,-249 10,-271 215,-271 215,-249 10,-249"/>
<text text-anchor="start" x="30" y="-257.2" font-family="Helvetica,sans-Serif" font-size="11.00">created</text>
<polygon fill="none" stroke="black" points="215,-249 215,-271 298,-271 298,-249 215,-249"/>
<text text-anchor="start" x="218" y="-257.2" font-family="Helvetica,sans-Serif" font-size="11.00">timestamp[29,6]</text>
<polygon fill="none" stroke="black" points="10,-227 10,-249 215,-249 215,-227 10,-227"/>
<text text-anchor="start" x="30" y="-235.2" font-family="Helvetica,sans-Serif" font-size="11.00">createdby</text>
<polygon fill="none" stroke="black" points="215,-227 215,-249 298,-249 298,-227 215,-227"/>
<text text-anchor="start" x="218" y="-235.2" font-family="Helvetica,sans-Serif" font-size="11.00">numeric[10]</text>
<polygon fill="none" stroke="black" points="10,-205 10,-227 215,-227 215,-205 10,-205"/>
<text text-anchor="start" x="30" y="-213.2" font-family="Helvetica,sans-Serif" font-size="11.00">updated</text>
<polygon fill="none" stroke="black" points="215,-205 215,-227 298,-227 298,-205 215,-205"/>
<text text-anchor="start" x="218" y="-213.2" font-family="Helvetica,sans-Serif" font-size="11.00">timestamp[29,6]</text>
<polygon fill="none" stroke="black" points="10,-183 10,-205 215,-205 215,-183 10,-183"/>
<text text-anchor="start" x="30" y="-191.2" font-family="Helvetica,sans-Serif" font-size="11.00">updatedby</text>
<polygon fill="none" stroke="black" points="215,-183 215,-205 298,-205 298,-183 215,-183"/>
<text text-anchor="start" x="218" y="-191.2" font-family="Helvetica,sans-Serif" font-size="11.00">numeric[10]</text>
<polygon fill="none" stroke="black" points="10,-161 10,-183 215,-183 215,-161 10,-161"/>
<text text-anchor="start" x="30" y="-169.2" font-family="Helvetica,sans-Serif" font-size="11.00">name</text>
<polygon fill="none" stroke="black" points="215,-161 215,-183 298,-183 298,-161 215,-161"/>
<text text-anchor="start" x="218" y="-169.2" font-family="Helvetica,sans-Serif" font-size="11.00">varchar[60]</text>
<polygon fill="none" stroke="black" points="10,-139 10,-161 215,-161 215,-139 10,-139"/>
<text text-anchor="start" x="30" y="-147.2" font-family="Helvetica,sans-Serif" font-size="11.00">description</text>
<polygon fill="none" stroke="black" points="215,-139 215,-161 298,-161 298,-139 215,-139"/>
<text text-anchor="start" x="218" y="-147.2" font-family="Helvetica,sans-Serif" font-size="11.00">varchar[255]</text>
<polygon fill="none" stroke="black" points="10,-117 10,-139 215,-139 215,-117 10,-117"/>
<text text-anchor="start" x="30" y="-125.2" font-family="Helvetica,sans-Serif" font-size="11.00">help</text>
<polygon fill="none" stroke="black" points="215,-117 215,-139 298,-139 298,-117 215,-117"/>
<text text-anchor="start" x="218" y="-125.2" font-family="Helvetica,sans-Serif" font-size="11.00">varchar[2000]</text>
<polygon fill="none" stroke="black" points="10,-95 10,-117 215,-117 215,-95 10,-95"/>
<image xlink:href="../../images/primaryKeys.png" width="11px" height="12px" preserveAspectRatio="xMinYMin meet" x="15" y="-112"/>
<text text-anchor="start" x="30" y="-103.2" font-family="Helvetica,sans-Serif" font-size="11.00">r_issuerecommendation_id</text>
<polygon fill="none" stroke="black" points="215,-95 215,-117 298,-117 298,-95 215,-95"/>
<text text-anchor="start" x="218" y="-103.2" font-family="Helvetica,sans-Serif" font-size="11.00">numeric[10]</text>
<polygon fill="#ffffff" stroke="transparent" points="10,-73 10,-95 215,-95 215,-73 10,-73"/>
<polygon fill="none" stroke="black" points="10,-73 10,-95 215,-95 215,-73 10,-73"/>
<text text-anchor="start" x="30" y="-81.2" font-family="Helvetica,sans-Serif" font-size="11.00">r_issuerecommendation_uu</text>
<polygon fill="none" stroke="black" points="215,-73 215,-95 298,-95 298,-73 215,-73"/>
<text text-anchor="start" x="218" y="-81.2" font-family="Helvetica,sans-Serif" font-size="11.00">varchar[36]</text>
<polygon fill="#ffffff" stroke="transparent" points="10,-55 10,-73 104,-73 104,-55 10,-55"/>
<polygon fill="none" stroke="black" points="10,-55 10,-73 104,-73 104,-55 10,-55"/>
<text text-anchor="start" x="13" y="-61.2" font-family="Helvetica,sans-Serif" font-size="11.00">&lt; 0</text>
<polygon fill="#ffffff" stroke="transparent" points="104,-55 104,-73 215,-73 215,-55 104,-55"/>
<polygon fill="none" stroke="black" points="104,-55 104,-73 215,-73 215,-55 104,-55"/>
<text text-anchor="start" x="179" y="-61.2" font-family="Helvetica,sans-Serif" font-size="11.00">0 rows</text>
<polygon fill="#ffffff" stroke="transparent" points="215,-55 215,-73 298,-73 298,-55 215,-55"/>
<polygon fill="none" stroke="black" points="215,-55 215,-73 298,-73 298,-55 215,-55"/>
<text text-anchor="start" x="279" y="-61.2" font-family="Helvetica,sans-Serif" font-size="11.00">1 &gt;</text>
<polygon fill="none" stroke="black" stroke-width="2" points="9,-54 9,-360 299,-360 299,-54 9,-54"/>
</a>
</g>
</g>
<!-- r_issueknown&#45;&gt;r_issuerecommendation -->
<g id="edge1" class="edge">
<title>r_issueknown:w&#45;&gt;r_issuerecommendation:e</title>
<path fill="none" stroke="black" d="M333.84,-106C322.41,-106 315.16,-106 299,-106"/>
<polygon fill="black" stroke="black" points="340.5,-106 348.5,-109.6 344.5,-106 348.5,-106 348.5,-106 348.5,-106 344.5,-106 348.5,-102.4 340.5,-106 340.5,-106"/>
<ellipse fill="none" stroke="black" cx="337.3" cy="-106" rx="3.2" ry="3.2"/>
</g>
</g>
</svg>
