<?xml version="1.0" encoding="UTF-8" standalone="no"?>
<!DOCTYPE svg PUBLIC "-//W3C//DTD SVG 1.1//EN"
 "http://www.w3.org/Graphics/SVG/1.1/DTD/svg11.dtd">
<!-- Generated by graphviz version 2.43.0 (0)
 -->
<!-- Title: oneDegreeRelationshipsDiagram Pages: 1 -->
<svg width="713pt" height="1037pt"
 viewBox="0.00 0.00 713.00 1037.00" xmlns="http://www.w3.org/2000/svg" xmlns:xlink="http://www.w3.org/1999/xlink">
<g id="graph0" class="graph" transform="scale(1 1) rotate(0) translate(4 1033)">
<title>oneDegreeRelationshipsDiagram</title>
<polygon fill="#ffffff" stroke="transparent" points="-4,4 -4,-1033 709,-1033 709,4 -4,4"/>
<text text-anchor="middle" x="71.5" y="-7.2" font-family="Helvetica,sans-Serif" font-size="11.00">Generated by SchemaSpy</text>
<!-- ad_issue -->
<g id="node1" class="node">
<title>ad_issue</title>
<g id="a_node1"><a xlink:href="../../tables/ad_issue.html" xlink:title="ad_issue" target="_top">
<polygon fill="#ffffff" stroke="transparent" points="536,-725 536,-1025 697,-1025 697,-725 536,-725"/>
<polygon fill="#f5f5f5" stroke="transparent" points="536.5,-1003 536.5,-1025 697.5,-1025 697.5,-1003 536.5,-1003"/>
<polygon fill="none" stroke="black" points="536.5,-1003 536.5,-1025 697.5,-1025 697.5,-1003 536.5,-1003"/>
<text text-anchor="start" x="541.5" y="-1012.2" font-family="Helvetica,sans-Serif" font-weight="bold" font-size="11.00">ad_issue</text>
<text text-anchor="start" x="662.5" y="-1011.2" font-family="Helvetica,sans-Serif" font-size="11.00">[table]</text>
<polygon fill="none" stroke="black" points="536.5,-981 536.5,-1003 697.5,-1003 697.5,-981 536.5,-981"/>
<image xlink:href="../../images/primaryKeys.png" width="11px" height="12px" preserveAspectRatio="xMinYMin meet" x="541.5" y="-998"/>
<text text-anchor="start" x="556.5" y="-989.2" font-family="Helvetica,sans-Serif" font-size="11.00">ad_issue_id</text>
<polygon fill="none" stroke="black" points="536.5,-959 536.5,-981 697.5,-981 697.5,-959 536.5,-959"/>
<image xlink:href="../../images/foreignKeys.png" width="11px" height="12px" preserveAspectRatio="xMinYMin meet" x="541.5" y="-976"/>
<text text-anchor="start" x="556.5" y="-967.2" font-family="Helvetica,sans-Serif" font-size="11.00">a_asset_id</text>
<polygon fill="none" stroke="black" points="536.5,-937 536.5,-959 697.5,-959 697.5,-937 536.5,-937"/>
<image xlink:href="../../images/foreignKeys.png" width="11px" height="12px" preserveAspectRatio="xMinYMin meet" x="541.5" y="-954"/>
<text text-anchor="start" x="556.5" y="-945.2" font-family="Helvetica,sans-Serif" font-size="11.00">r_request_id</text>
<polygon fill="none" stroke="black" points="536.5,-915 536.5,-937 697.5,-937 697.5,-915 536.5,-915"/>
<image xlink:href="../../images/foreignKeys.png" width="11px" height="12px" preserveAspectRatio="xMinYMin meet" x="541.5" y="-932"/>
<text text-anchor="start" x="556.5" y="-923.2" font-family="Helvetica,sans-Serif" font-size="11.00">r_issueknown_id</text>
<polygon fill="none" stroke="black" points="536.5,-893 536.5,-915 697.5,-915 697.5,-893 536.5,-893"/>
<image xlink:href="../../images/foreignKeys.png" width="11px" height="12px" preserveAspectRatio="xMinYMin meet" x="541.5" y="-910"/>
<text text-anchor="start" x="556.5" y="-901.2" font-family="Helvetica,sans-Serif" font-size="11.00">r_issueproject_id</text>
<polygon fill="none" stroke="black" points="536.5,-871 536.5,-893 697.5,-893 697.5,-871 536.5,-871"/>
<image xlink:href="../../images/foreignKeys.png" width="11px" height="12px" preserveAspectRatio="xMinYMin meet" x="541.5" y="-888"/>
<text text-anchor="start" x="556.5" y="-879.2" font-family="Helvetica,sans-Serif" font-size="11.00">r_issueuser_id</text>
<polygon fill="none" stroke="black" points="536.5,-849 536.5,-871 697.5,-871 697.5,-849 536.5,-849"/>
<image xlink:href="../../images/foreignKeys.png" width="11px" height="12px" preserveAspectRatio="xMinYMin meet" x="541.5" y="-866"/>
<text text-anchor="start" x="556.5" y="-857.2" font-family="Helvetica,sans-Serif" font-size="11.00">r_issuesystem_id</text>
<polygon fill="none" stroke="black" points="536.5,-827 536.5,-849 697.5,-849 697.5,-827 536.5,-827"/>
<image xlink:href="../../images/foreignKeys.png" width="11px" height="12px" preserveAspectRatio="xMinYMin meet" x="541.5" y="-844"/>
<text text-anchor="start" x="556.5" y="-835.2" font-family="Helvetica,sans-Serif" font-size="11.00">ad_window_id</text>
<polygon fill="none" stroke="black" points="536.5,-805 536.5,-827 697.5,-827 697.5,-805 536.5,-805"/>
<image xlink:href="../../images/foreignKeys.png" width="11px" height="12px" preserveAspectRatio="xMinYMin meet" x="541.5" y="-822"/>
<text text-anchor="start" x="556.5" y="-813.2" font-family="Helvetica,sans-Serif" font-size="11.00">ad_process_id</text>
<polygon fill="none" stroke="black" points="536.5,-783 536.5,-805 697.5,-805 697.5,-783 536.5,-783"/>
<image xlink:href="../../images/foreignKeys.png" width="11px" height="12px" preserveAspectRatio="xMinYMin meet" x="541.5" y="-800"/>
<text text-anchor="start" x="556.5" y="-791.2" font-family="Helvetica,sans-Serif" font-size="11.00">ad_form_id</text>
<polygon fill="#ffffff" stroke="transparent" points="536.5,-761 536.5,-783 697.5,-783 697.5,-761 536.5,-761"/>
<polygon fill="none" stroke="black" points="536.5,-761 536.5,-783 697.5,-783 697.5,-761 536.5,-761"/>
<text text-anchor="start" x="556.5" y="-769.2" font-family="Helvetica,sans-Serif" font-size="11.00">ad_issue_uu</text>
<polygon fill="none" stroke="black" points="536.5,-743 536.5,-761 697.5,-761 697.5,-743 536.5,-743"/>
<text text-anchor="start" x="539.5" y="-749.2" font-family="Helvetica,sans-Serif" font-size="11.00">...</text>
<polygon fill="#ffffff" stroke="transparent" points="536.5,-725 536.5,-743 601.5,-743 601.5,-725 536.5,-725"/>
<polygon fill="none" stroke="black" points="536.5,-725 536.5,-743 601.5,-743 601.5,-725 536.5,-725"/>
<text text-anchor="start" x="539.5" y="-731.2" font-family="Helvetica,sans-Serif" font-size="11.00">&lt; 9</text>
<polygon fill="#ffffff" stroke="transparent" points="601.5,-725 601.5,-743 662.5,-743 662.5,-725 601.5,-725"/>
<polygon fill="none" stroke="black" points="601.5,-725 601.5,-743 662.5,-743 662.5,-725 601.5,-725"/>
<text text-anchor="start" x="626.5" y="-731.2" font-family="Helvetica,sans-Serif" font-size="11.00">0 rows</text>
<polygon fill="#ffffff" stroke="transparent" points="662.5,-725 662.5,-743 697.5,-743 697.5,-725 662.5,-725"/>
<polygon fill="none" stroke="black" points="662.5,-725 662.5,-743 697.5,-743 697.5,-725 662.5,-725"/>
<text text-anchor="start" x="687.5" y="-731.2" font-family="Helvetica,sans-Serif" font-size="11.00"> &#160;</text>
</a>
</g>
</g>
<!-- r_issueuser -->
<g id="node2" class="node">
<title>r_issueuser</title>
<g id="a_node2"><a xlink:href="../../tables/r_issueuser.html" xlink:title="r_issueuser" target="_top">
<polygon fill="#ffffff" stroke="transparent" points="280,-471 280,-779 487,-779 487,-471 280,-471"/>
<polygon fill="#f5f5f5" stroke="transparent" points="282.5,-755 282.5,-777 485.5,-777 485.5,-755 282.5,-755"/>
<polygon fill="none" stroke="black" points="282.5,-755 282.5,-777 485.5,-777 485.5,-755 282.5,-755"/>
<text text-anchor="start" x="287.5" y="-764.2" font-family="Helvetica,sans-Serif" font-weight="bold" font-size="11.00">r_issueuser</text>
<text text-anchor="start" x="450.5" y="-763.2" font-family="Helvetica,sans-Serif" font-size="11.00">[table]</text>
<polygon fill="none" stroke="black" points="282.5,-733 282.5,-755 402.5,-755 402.5,-733 282.5,-733"/>
<image xlink:href="../../images/primaryKeys.png" width="11px" height="12px" preserveAspectRatio="xMinYMin meet" x="287.5" y="-750"/>
<text text-anchor="start" x="302.5" y="-741.2" font-family="Helvetica,sans-Serif" font-size="11.00">r_issueuser_id</text>
<polygon fill="none" stroke="black" points="402.5,-733 402.5,-755 485.5,-755 485.5,-733 402.5,-733"/>
<text text-anchor="start" x="405.5" y="-741.2" font-family="Helvetica,sans-Serif" font-size="11.00">numeric[10]</text>
<polygon fill="#ffffff" stroke="transparent" points="282.5,-711 282.5,-733 402.5,-733 402.5,-711 282.5,-711"/>
<polygon fill="none" stroke="black" points="282.5,-711 282.5,-733 402.5,-733 402.5,-711 282.5,-711"/>
<text text-anchor="start" x="302.5" y="-719.2" font-family="Helvetica,sans-Serif" font-size="11.00">ad_client_id</text>
<polygon fill="none" stroke="black" points="402.5,-711 402.5,-733 485.5,-733 485.5,-711 402.5,-711"/>
<text text-anchor="start" x="405.5" y="-719.2" font-family="Helvetica,sans-Serif" font-size="11.00">numeric[10]</text>
<polygon fill="none" stroke="black" points="282.5,-689 282.5,-711 402.5,-711 402.5,-689 282.5,-689"/>
<text text-anchor="start" x="302.5" y="-697.2" font-family="Helvetica,sans-Serif" font-size="11.00">ad_org_id</text>
<polygon fill="none" stroke="black" points="402.5,-689 402.5,-711 485.5,-711 485.5,-689 402.5,-689"/>
<text text-anchor="start" x="405.5" y="-697.2" font-family="Helvetica,sans-Serif" font-size="11.00">numeric[10]</text>
<polygon fill="none" stroke="black" points="282.5,-667 282.5,-689 402.5,-689 402.5,-667 282.5,-667"/>
<text text-anchor="start" x="302.5" y="-675.2" font-family="Helvetica,sans-Serif" font-size="11.00">isactive</text>
<polygon fill="none" stroke="black" points="402.5,-667 402.5,-689 485.5,-689 485.5,-667 402.5,-667"/>
<text text-anchor="start" x="405.5" y="-675.2" font-family="Helvetica,sans-Serif" font-size="11.00">bpchar[1]</text>
<polygon fill="none" stroke="black" points="282.5,-645 282.5,-667 402.5,-667 402.5,-645 282.5,-645"/>
<text text-anchor="start" x="302.5" y="-653.2" font-family="Helvetica,sans-Serif" font-size="11.00">created</text>
<polygon fill="none" stroke="black" points="402.5,-645 402.5,-667 485.5,-667 485.5,-645 402.5,-645"/>
<text text-anchor="start" x="405.5" y="-653.2" font-family="Helvetica,sans-Serif" font-size="11.00">timestamp[29,6]</text>
<polygon fill="none" stroke="black" points="282.5,-623 282.5,-645 402.5,-645 402.5,-623 282.5,-623"/>
<text text-anchor="start" x="302.5" y="-631.2" font-family="Helvetica,sans-Serif" font-size="11.00">createdby</text>
<polygon fill="none" stroke="black" points="402.5,-623 402.5,-645 485.5,-645 485.5,-623 402.5,-623"/>
<text text-anchor="start" x="405.5" y="-631.2" font-family="Helvetica,sans-Serif" font-size="11.00">numeric[10]</text>
<polygon fill="none" stroke="black" points="282.5,-601 282.5,-623 402.5,-623 402.5,-601 282.5,-601"/>
<text text-anchor="start" x="302.5" y="-609.2" font-family="Helvetica,sans-Serif" font-size="11.00">updated</text>
<polygon fill="none" stroke="black" points="402.5,-601 402.5,-623 485.5,-623 485.5,-601 402.5,-601"/>
<text text-anchor="start" x="405.5" y="-609.2" font-family="Helvetica,sans-Serif" font-size="11.00">timestamp[29,6]</text>
<polygon fill="none" stroke="black" points="282.5,-579 282.5,-601 402.5,-601 402.5,-579 282.5,-579"/>
<text text-anchor="start" x="302.5" y="-587.2" font-family="Helvetica,sans-Serif" font-size="11.00">updatedby</text>
<polygon fill="none" stroke="black" points="402.5,-579 402.5,-601 485.5,-601 485.5,-579 402.5,-579"/>
<text text-anchor="start" x="405.5" y="-587.2" font-family="Helvetica,sans-Serif" font-size="11.00">numeric[10]</text>
<polygon fill="#ffffff" stroke="transparent" points="282.5,-557 282.5,-579 402.5,-579 402.5,-557 282.5,-557"/>
<polygon fill="none" stroke="black" points="282.5,-557 282.5,-579 402.5,-579 402.5,-557 282.5,-557"/>
<text text-anchor="start" x="302.5" y="-565.2" font-family="Helvetica,sans-Serif" font-size="11.00">username</text>
<polygon fill="none" stroke="black" points="402.5,-557 402.5,-579 485.5,-579 485.5,-557 402.5,-557"/>
<text text-anchor="start" x="405.5" y="-565.2" font-family="Helvetica,sans-Serif" font-size="11.00">varchar[60]</text>
<polygon fill="none" stroke="black" points="282.5,-535 282.5,-557 402.5,-557 402.5,-535 282.5,-535"/>
<text text-anchor="start" x="302.5" y="-543.2" font-family="Helvetica,sans-Serif" font-size="11.00">description</text>
<polygon fill="none" stroke="black" points="402.5,-535 402.5,-557 485.5,-557 485.5,-535 402.5,-535"/>
<text text-anchor="start" x="405.5" y="-543.2" font-family="Helvetica,sans-Serif" font-size="11.00">varchar[255]</text>
<polygon fill="none" stroke="black" points="282.5,-513 282.5,-535 402.5,-535 402.5,-513 282.5,-513"/>
<image xlink:href="../../images/foreignKeys.png" width="11px" height="12px" preserveAspectRatio="xMinYMin meet" x="287.5" y="-530"/>
<text text-anchor="start" x="302.5" y="-521.2" font-family="Helvetica,sans-Serif" font-size="11.00">ad_user_id</text>
<polygon fill="none" stroke="black" points="402.5,-513 402.5,-535 485.5,-535 485.5,-513 402.5,-513"/>
<text text-anchor="start" x="405.5" y="-521.2" font-family="Helvetica,sans-Serif" font-size="11.00">numeric[10]</text>
<polygon fill="#ffffff" stroke="transparent" points="282.5,-491 282.5,-513 402.5,-513 402.5,-491 282.5,-491"/>
<polygon fill="none" stroke="black" points="282.5,-491 282.5,-513 402.5,-513 402.5,-491 282.5,-491"/>
<text text-anchor="start" x="302.5" y="-499.2" font-family="Helvetica,sans-Serif" font-size="11.00">r_issueuser_uu</text>
<polygon fill="none" stroke="black" points="402.5,-491 402.5,-513 485.5,-513 485.5,-491 402.5,-491"/>
<text text-anchor="start" x="405.5" y="-499.2" font-family="Helvetica,sans-Serif" font-size="11.00">varchar[36]</text>
<polygon fill="#ffffff" stroke="transparent" points="282.5,-473 282.5,-491 333.5,-491 333.5,-473 282.5,-473"/>
<polygon fill="none" stroke="black" points="282.5,-473 282.5,-491 333.5,-491 333.5,-473 282.5,-473"/>
<text text-anchor="start" x="285.5" y="-479.2" font-family="Helvetica,sans-Serif" font-size="11.00">&lt; 1</text>
<polygon fill="#ffffff" stroke="transparent" points="333.5,-473 333.5,-491 402.5,-491 402.5,-473 333.5,-473"/>
<polygon fill="none" stroke="black" points="333.5,-473 333.5,-491 402.5,-491 402.5,-473 333.5,-473"/>
<text text-anchor="start" x="366.5" y="-479.2" font-family="Helvetica,sans-Serif" font-size="11.00">0 rows</text>
<polygon fill="#ffffff" stroke="transparent" points="402.5,-473 402.5,-491 485.5,-491 485.5,-473 402.5,-473"/>
<polygon fill="none" stroke="black" points="402.5,-473 402.5,-491 485.5,-491 485.5,-473 402.5,-473"/>
<text text-anchor="start" x="466.5" y="-479.2" font-family="Helvetica,sans-Serif" font-size="11.00">2 &gt;</text>
<polygon fill="none" stroke="black" stroke-width="2" points="281,-472 281,-778 486,-778 486,-472 281,-472"/>
</a>
</g>
</g>
<!-- ad_issue&#45;&gt;r_issueuser -->
<g id="edge1" class="edge">
<title>ad_issue:w&#45;&gt;r_issueuser:e</title>
<path fill="none" stroke="black" d="M521.29,-878.86C483.82,-858.32 545.74,-744 486.5,-744"/>
<polygon fill="black" stroke="black" points="527.69,-880.27 534.72,-885.52 531.59,-881.14 535.5,-882 535.5,-882 535.5,-882 531.59,-881.14 536.28,-878.48 527.69,-880.27 527.69,-880.27"/>
<ellipse fill="none" stroke="black" cx="524.56" cy="-879.58" rx="3.2" ry="3.2"/>
</g>
<!-- ad_user -->
<g id="node4" class="node">
<title>ad_user</title>
<g id="a_node4"><a xlink:href="../../tables/ad_user.html" xlink:title="ad_user" target="_top">
<polygon fill="#ffffff" stroke="transparent" points="8,-37 8,-557 231,-557 231,-37 8,-37"/>
<polygon fill="#f5f5f5" stroke="transparent" points="8.5,-535 8.5,-557 231.5,-557 231.5,-535 8.5,-535"/>
<polygon fill="none" stroke="black" points="8.5,-535 8.5,-557 231.5,-557 231.5,-535 8.5,-535"/>
<text text-anchor="start" x="13.5" y="-544.2" font-family="Helvetica,sans-Serif" font-weight="bold" font-size="11.00">ad_user</text>
<text text-anchor="start" x="196.5" y="-543.2" font-family="Helvetica,sans-Serif" font-size="11.00">[table]</text>
<polygon fill="none" stroke="black" points="8.5,-513 8.5,-535 231.5,-535 231.5,-513 8.5,-513"/>
<image xlink:href="../../images/primaryKeys.png" width="11px" height="12px" preserveAspectRatio="xMinYMin meet" x="13.5" y="-530"/>
<text text-anchor="start" x="28.5" y="-521.2" font-family="Helvetica,sans-Serif" font-size="11.00">ad_user_id</text>
<polygon fill="none" stroke="black" points="8.5,-491 8.5,-513 231.5,-513 231.5,-491 8.5,-491"/>
<image xlink:href="../../images/foreignKeys.png" width="11px" height="12px" preserveAspectRatio="xMinYMin meet" x="13.5" y="-508"/>
<text text-anchor="start" x="28.5" y="-499.2" font-family="Helvetica,sans-Serif" font-size="11.00">ad_client_id</text>
<polygon fill="none" stroke="black" points="8.5,-469 8.5,-491 231.5,-491 231.5,-469 8.5,-469"/>
<image xlink:href="../../images/foreignKeys.png" width="11px" height="12px" preserveAspectRatio="xMinYMin meet" x="13.5" y="-486"/>
<text text-anchor="start" x="28.5" y="-477.2" font-family="Helvetica,sans-Serif" font-size="11.00">ad_org_id</text>
<polygon fill="#ffffff" stroke="transparent" points="8.5,-447 8.5,-469 231.5,-469 231.5,-447 8.5,-447"/>
<polygon fill="none" stroke="black" points="8.5,-447 8.5,-469 231.5,-469 231.5,-447 8.5,-447"/>
<text text-anchor="start" x="28.5" y="-455.2" font-family="Helvetica,sans-Serif" font-size="11.00">name</text>
<polygon fill="#ffffff" stroke="transparent" points="8.5,-425 8.5,-447 231.5,-447 231.5,-425 8.5,-425"/>
<polygon fill="none" stroke="black" points="8.5,-425 8.5,-447 231.5,-447 231.5,-425 8.5,-425"/>
<text text-anchor="start" x="28.5" y="-433.2" font-family="Helvetica,sans-Serif" font-size="11.00">email</text>
<polygon fill="none" stroke="black" points="8.5,-403 8.5,-425 231.5,-425 231.5,-403 8.5,-403"/>
<image xlink:href="../../images/foreignKeys.png" width="11px" height="12px" preserveAspectRatio="xMinYMin meet" x="13.5" y="-420"/>
<text text-anchor="start" x="28.5" y="-411.2" font-family="Helvetica,sans-Serif" font-size="11.00">supervisor_id</text>
<polygon fill="#ffffff" stroke="transparent" points="8.5,-381 8.5,-403 231.5,-403 231.5,-381 8.5,-381"/>
<polygon fill="none" stroke="black" points="8.5,-381 8.5,-403 231.5,-403 231.5,-381 8.5,-381"/>
<image xlink:href="../../images/foreignKeys.png" width="11px" height="12px" preserveAspectRatio="xMinYMin meet" x="13.5" y="-398"/>
<text text-anchor="start" x="28.5" y="-389.2" font-family="Helvetica,sans-Serif" font-size="11.00">c_bpartner_id</text>
<polygon fill="none" stroke="black" points="8.5,-359 8.5,-381 231.5,-381 231.5,-359 8.5,-359"/>
<image xlink:href="../../images/foreignKeys.png" width="11px" height="12px" preserveAspectRatio="xMinYMin meet" x="13.5" y="-376"/>
<text text-anchor="start" x="28.5" y="-367.2" font-family="Helvetica,sans-Serif" font-size="11.00">c_bpartner_location_id</text>
<polygon fill="none" stroke="black" points="8.5,-337 8.5,-359 231.5,-359 231.5,-337 8.5,-337"/>
<image xlink:href="../../images/foreignKeys.png" width="11px" height="12px" preserveAspectRatio="xMinYMin meet" x="13.5" y="-354"/>
<text text-anchor="start" x="28.5" y="-345.2" font-family="Helvetica,sans-Serif" font-size="11.00">c_greeting_id</text>
<polygon fill="none" stroke="black" points="8.5,-315 8.5,-337 231.5,-337 231.5,-315 8.5,-315"/>
<image xlink:href="../../images/foreignKeys.png" width="11px" height="12px" preserveAspectRatio="xMinYMin meet" x="13.5" y="-332"/>
<text text-anchor="start" x="28.5" y="-323.2" font-family="Helvetica,sans-Serif" font-size="11.00">ad_orgtrx_id</text>
<polygon fill="none" stroke="black" points="8.5,-293 8.5,-315 231.5,-315 231.5,-293 8.5,-293"/>
<image xlink:href="../../images/foreignKeys.png" width="11px" height="12px" preserveAspectRatio="xMinYMin meet" x="13.5" y="-310"/>
<text text-anchor="start" x="28.5" y="-301.2" font-family="Helvetica,sans-Serif" font-size="11.00">c_job_id</text>
<polygon fill="#ffffff" stroke="transparent" points="8.5,-271 8.5,-293 231.5,-293 231.5,-271 8.5,-271"/>
<polygon fill="none" stroke="black" points="8.5,-271 8.5,-293 231.5,-293 231.5,-271 8.5,-271"/>
<text text-anchor="start" x="28.5" y="-279.2" font-family="Helvetica,sans-Serif" font-size="11.00">ad_user_uu</text>
<polygon fill="none" stroke="black" points="8.5,-249 8.5,-271 231.5,-271 231.5,-249 8.5,-249"/>
<image xlink:href="../../images/foreignKeys.png" width="11px" height="12px" preserveAspectRatio="xMinYMin meet" x="13.5" y="-266"/>
<text text-anchor="start" x="28.5" y="-257.2" font-family="Helvetica,sans-Serif" font-size="11.00">c_location_id</text>
<polygon fill="none" stroke="black" points="8.5,-227 8.5,-249 231.5,-249 231.5,-227 8.5,-227"/>
<image xlink:href="../../images/foreignKeys.png" width="11px" height="12px" preserveAspectRatio="xMinYMin meet" x="13.5" y="-244"/>
<text text-anchor="start" x="28.5" y="-235.2" font-family="Helvetica,sans-Serif" font-size="11.00">c_campaign_id</text>
<polygon fill="none" stroke="black" points="8.5,-205 8.5,-227 231.5,-227 231.5,-205 8.5,-205"/>
<image xlink:href="../../images/foreignKeys.png" width="11px" height="12px" preserveAspectRatio="xMinYMin meet" x="13.5" y="-222"/>
<text text-anchor="start" x="28.5" y="-213.2" font-family="Helvetica,sans-Serif" font-size="11.00">salesrep_id</text>
<polygon fill="none" stroke="black" points="8.5,-183 8.5,-205 231.5,-205 231.5,-183 8.5,-183"/>
<image xlink:href="../../images/foreignKeys.png" width="11px" height="12px" preserveAspectRatio="xMinYMin meet" x="13.5" y="-200"/>
<text text-anchor="start" x="28.5" y="-191.2" font-family="Helvetica,sans-Serif" font-size="11.00">bp_location_id</text>
<polygon fill="none" stroke="black" points="8.5,-161 8.5,-183 231.5,-183 231.5,-161 8.5,-161"/>
<image xlink:href="../../images/foreignKeys.png" width="11px" height="12px" preserveAspectRatio="xMinYMin meet" x="13.5" y="-178"/>
<text text-anchor="start" x="28.5" y="-169.2" font-family="Helvetica,sans-Serif" font-size="11.00">r_defaultmailtext_id</text>
<polygon fill="none" stroke="black" points="8.5,-139 8.5,-161 231.5,-161 231.5,-139 8.5,-139"/>
<image xlink:href="../../images/foreignKeys.png" width="11px" height="12px" preserveAspectRatio="xMinYMin meet" x="13.5" y="-156"/>
<text text-anchor="start" x="28.5" y="-147.2" font-family="Helvetica,sans-Serif" font-size="11.00">cof_c_marketsegment_id</text>
<polygon fill="none" stroke="black" points="8.5,-117 8.5,-139 231.5,-139 231.5,-117 8.5,-117"/>
<image xlink:href="../../images/foreignKeys.png" width="11px" height="12px" preserveAspectRatio="xMinYMin meet" x="13.5" y="-134"/>
<text text-anchor="start" x="28.5" y="-125.2" font-family="Helvetica,sans-Serif" font-size="11.00">cof_c_leadexpirationreason_id</text>
<polygon fill="none" stroke="black" points="8.5,-95 8.5,-117 231.5,-117 231.5,-95 8.5,-95"/>
<image xlink:href="../../images/foreignKeys.png" width="11px" height="12px" preserveAspectRatio="xMinYMin meet" x="13.5" y="-112"/>
<text text-anchor="start" x="28.5" y="-103.2" font-family="Helvetica,sans-Serif" font-size="11.00">ad_image_id</text>
<polygon fill="none" stroke="black" points="8.5,-73 8.5,-95 231.5,-95 231.5,-73 8.5,-73"/>
<image xlink:href="../../images/foreignKeys.png" width="11px" height="12px" preserveAspectRatio="xMinYMin meet" x="13.5" y="-90"/>
<text text-anchor="start" x="28.5" y="-81.2" font-family="Helvetica,sans-Serif" font-size="11.00">c_subscription_id</text>
<polygon fill="none" stroke="black" points="8.5,-55 8.5,-73 231.5,-73 231.5,-55 8.5,-55"/>
<text text-anchor="start" x="11.5" y="-61.2" font-family="Helvetica,sans-Serif" font-size="11.00">...</text>
<polygon fill="#ffffff" stroke="transparent" points="8.5,-37 8.5,-55 97.5,-55 97.5,-37 8.5,-37"/>
<polygon fill="none" stroke="black" points="8.5,-37 8.5,-55 97.5,-55 97.5,-37 8.5,-37"/>
<text text-anchor="start" x="11.5" y="-43.2" font-family="Helvetica,sans-Serif" font-size="11.00">&lt; 17</text>
<polygon fill="#ffffff" stroke="transparent" points="97.5,-37 97.5,-55 166.5,-55 166.5,-37 97.5,-37"/>
<polygon fill="none" stroke="black" points="97.5,-37 97.5,-55 166.5,-55 166.5,-37 97.5,-37"/>
<text text-anchor="start" x="130.5" y="-43.2" font-family="Helvetica,sans-Serif" font-size="11.00">8 rows</text>
<polygon fill="#ffffff" stroke="transparent" points="166.5,-37 166.5,-55 231.5,-55 231.5,-37 166.5,-37"/>
<polygon fill="none" stroke="black" points="166.5,-37 166.5,-55 231.5,-55 231.5,-37 166.5,-37"/>
<text text-anchor="start" x="200.5" y="-43.2" font-family="Helvetica,sans-Serif" font-size="11.00">316 &gt;</text>
</a>
</g>
</g>
<!-- r_issueuser&#45;&gt;ad_user -->
<g id="edge3" class="edge">
<title>r_issueuser:w&#45;&gt;ad_user:e</title>
<path fill="none" stroke="black" d="M266.99,-524C255.68,-524 248.49,-524 232.5,-524"/>
<polygon fill="black" stroke="black" points="273.5,-524 281.5,-527.6 277.5,-524 281.5,-524 281.5,-524 281.5,-524 277.5,-524 281.5,-520.4 273.5,-524 273.5,-524"/>
<ellipse fill="none" stroke="black" cx="270.3" cy="-524" rx="3.2" ry="3.2"/>
</g>
<!-- r_issuesource -->
<g id="node3" class="node">
<title>r_issuesource</title>
<g id="a_node3"><a xlink:href="../../tables/r_issuesource.html" xlink:title="r_issuesource" target="_top">
<polygon fill="#ffffff" stroke="transparent" points="549,-558 549,-704 684,-704 684,-558 549,-558"/>
<polygon fill="#f5f5f5" stroke="transparent" points="549.5,-682 549.5,-704 684.5,-704 684.5,-682 549.5,-682"/>
<polygon fill="none" stroke="black" points="549.5,-682 549.5,-704 684.5,-704 684.5,-682 549.5,-682"/>
<text text-anchor="start" x="554.5" y="-691.2" font-family="Helvetica,sans-Serif" font-weight="bold" font-size="11.00">r_issuesource</text>
<text text-anchor="start" x="649.5" y="-690.2" font-family="Helvetica,sans-Serif" font-size="11.00">[table]</text>
<polygon fill="none" stroke="black" points="549.5,-660 549.5,-682 684.5,-682 684.5,-660 549.5,-660"/>
<image xlink:href="../../images/primaryKeys.png" width="11px" height="12px" preserveAspectRatio="xMinYMin meet" x="554.5" y="-677"/>
<text text-anchor="start" x="569.5" y="-668.2" font-family="Helvetica,sans-Serif" font-size="11.00">r_issuesource_id</text>
<polygon fill="#ffffff" stroke="transparent" points="549.5,-638 549.5,-660 684.5,-660 684.5,-638 549.5,-638"/>
<polygon fill="none" stroke="black" points="549.5,-638 549.5,-660 684.5,-660 684.5,-638 549.5,-638"/>
<image xlink:href="../../images/foreignKeys.png" width="11px" height="12px" preserveAspectRatio="xMinYMin meet" x="554.5" y="-655"/>
<text text-anchor="start" x="569.5" y="-646.2" font-family="Helvetica,sans-Serif" font-size="11.00">r_issuesystem_id</text>
<polygon fill="#ffffff" stroke="transparent" points="549.5,-616 549.5,-638 684.5,-638 684.5,-616 549.5,-616"/>
<polygon fill="none" stroke="black" points="549.5,-616 549.5,-638 684.5,-638 684.5,-616 549.5,-616"/>
<image xlink:href="../../images/foreignKeys.png" width="11px" height="12px" preserveAspectRatio="xMinYMin meet" x="554.5" y="-633"/>
<text text-anchor="start" x="569.5" y="-624.2" font-family="Helvetica,sans-Serif" font-size="11.00">r_issueproject_id</text>
<polygon fill="#ffffff" stroke="transparent" points="549.5,-594 549.5,-616 684.5,-616 684.5,-594 549.5,-594"/>
<polygon fill="none" stroke="black" points="549.5,-594 549.5,-616 684.5,-616 684.5,-594 549.5,-594"/>
<image xlink:href="../../images/foreignKeys.png" width="11px" height="12px" preserveAspectRatio="xMinYMin meet" x="554.5" y="-611"/>
<text text-anchor="start" x="569.5" y="-602.2" font-family="Helvetica,sans-Serif" font-size="11.00">r_issueuser_id</text>
<polygon fill="none" stroke="black" points="549.5,-576 549.5,-594 684.5,-594 684.5,-576 549.5,-576"/>
<text text-anchor="start" x="552.5" y="-582.2" font-family="Helvetica,sans-Serif" font-size="11.00">...</text>
<polygon fill="#ffffff" stroke="transparent" points="549.5,-558 549.5,-576 601.5,-576 601.5,-558 549.5,-558"/>
<polygon fill="none" stroke="black" points="549.5,-558 549.5,-576 601.5,-576 601.5,-558 549.5,-558"/>
<text text-anchor="start" x="552.5" y="-564.2" font-family="Helvetica,sans-Serif" font-size="11.00">&lt; 3</text>
<polygon fill="#ffffff" stroke="transparent" points="601.5,-558 601.5,-576 655.5,-576 655.5,-558 601.5,-558"/>
<polygon fill="none" stroke="black" points="601.5,-558 601.5,-576 655.5,-576 655.5,-558 601.5,-558"/>
<text text-anchor="start" x="619.5" y="-564.2" font-family="Helvetica,sans-Serif" font-size="11.00">0 rows</text>
<polygon fill="#ffffff" stroke="transparent" points="655.5,-558 655.5,-576 684.5,-576 684.5,-558 655.5,-558"/>
<polygon fill="none" stroke="black" points="655.5,-558 655.5,-576 684.5,-576 684.5,-558 655.5,-558"/>
<text text-anchor="start" x="674.5" y="-564.2" font-family="Helvetica,sans-Serif" font-size="11.00"> &#160;</text>
</a>
</g>
</g>
<!-- r_issuesource&#45;&gt;r_issueuser -->
<g id="edge2" class="edge">
<title>r_issuesource:w&#45;&gt;r_issueuser:e</title>
<path fill="none" stroke="black" d="M534.27,-607.78C492.17,-627.37 548.46,-744 486.5,-744"/>
<polygon fill="black" stroke="black" points="540.65,-606.53 549.19,-608.53 544.57,-605.77 548.5,-605 548.5,-605 548.5,-605 544.57,-605.77 547.81,-601.47 540.65,-606.53 540.65,-606.53"/>
<ellipse fill="none" stroke="black" cx="537.51" cy="-607.15" rx="3.2" ry="3.2"/>
</g>
</g>
</svg>
