<?xml version="1.0" encoding="UTF-8" standalone="no"?>
<!DOCTYPE svg PUBLIC "-//W3C//DTD SVG 1.1//EN"
 "http://www.w3.org/Graphics/SVG/1.1/DTD/svg11.dtd">
<!-- Generated by graphviz version 2.43.0 (0)
 -->
<!-- Title: oneDegreeRelationshipsDiagram Pages: 1 -->
<svg width="443pt" height="493pt"
 viewBox="0.00 0.00 443.00 493.00" xmlns="http://www.w3.org/2000/svg" xmlns:xlink="http://www.w3.org/1999/xlink">
<g id="graph0" class="graph" transform="scale(1 1) rotate(0) translate(4 489)">
<title>oneDegreeRelationshipsDiagram</title>
<polygon fill="#ffffff" stroke="transparent" points="-4,4 -4,-489 439,-489 439,4 -4,4"/>
<text text-anchor="middle" x="71.5" y="-7.2" font-family="Helvetica,sans-Serif" font-size="11.00">Generated by SchemaSpy</text>
<!-- r_mailtext_trl -->
<g id="node1" class="node">
<title>r_mailtext_trl</title>
<g id="a_node1"><a xlink:href="../../tables/r_mailtext_trl.html" xlink:title="r_mailtext_trl" target="_top">
<polygon fill="#ffffff" stroke="transparent" points="200,-37 200,-433 427,-433 427,-37 200,-37"/>
<polygon fill="#f5f5f5" stroke="transparent" points="202.5,-409 202.5,-431 425.5,-431 425.5,-409 202.5,-409"/>
<polygon fill="none" stroke="black" points="202.5,-409 202.5,-431 425.5,-431 425.5,-409 202.5,-409"/>
<text text-anchor="start" x="207.5" y="-418.2" font-family="Helvetica,sans-Serif" font-weight="bold" font-size="11.00">r_mailtext_trl</text>
<text text-anchor="start" x="390.5" y="-417.2" font-family="Helvetica,sans-Serif" font-size="11.00">[table]</text>
<polygon fill="none" stroke="black" points="202.5,-387 202.5,-409 335.5,-409 335.5,-387 202.5,-387"/>
<image xlink:href="../../images/primaryKeys.png" width="11px" height="12px" preserveAspectRatio="xMinYMin meet" x="207.5" y="-404"/>
<text text-anchor="start" x="222.5" y="-395.2" font-family="Helvetica,sans-Serif" font-size="11.00">r_mailtext_id</text>
<polygon fill="none" stroke="black" points="335.5,-387 335.5,-409 425.5,-409 425.5,-387 335.5,-387"/>
<text text-anchor="start" x="338.5" y="-395.2" font-family="Helvetica,sans-Serif" font-size="11.00">numeric[10]</text>
<polygon fill="none" stroke="black" points="202.5,-365 202.5,-387 335.5,-387 335.5,-365 202.5,-365"/>
<image xlink:href="../../images/primaryKeys.png" width="11px" height="12px" preserveAspectRatio="xMinYMin meet" x="207.5" y="-382"/>
<text text-anchor="start" x="222.5" y="-373.2" font-family="Helvetica,sans-Serif" font-size="11.00">ad_language</text>
<polygon fill="none" stroke="black" points="335.5,-365 335.5,-387 425.5,-387 425.5,-365 335.5,-365"/>
<text text-anchor="start" x="338.5" y="-373.2" font-family="Helvetica,sans-Serif" font-size="11.00">varchar[6]</text>
<polygon fill="none" stroke="black" points="202.5,-343 202.5,-365 335.5,-365 335.5,-343 202.5,-343"/>
<text text-anchor="start" x="222.5" y="-351.2" font-family="Helvetica,sans-Serif" font-size="11.00">ad_client_id</text>
<polygon fill="none" stroke="black" points="335.5,-343 335.5,-365 425.5,-365 425.5,-343 335.5,-343"/>
<text text-anchor="start" x="338.5" y="-351.2" font-family="Helvetica,sans-Serif" font-size="11.00">numeric[10]</text>
<polygon fill="none" stroke="black" points="202.5,-321 202.5,-343 335.5,-343 335.5,-321 202.5,-321"/>
<text text-anchor="start" x="222.5" y="-329.2" font-family="Helvetica,sans-Serif" font-size="11.00">ad_org_id</text>
<polygon fill="none" stroke="black" points="335.5,-321 335.5,-343 425.5,-343 425.5,-321 335.5,-321"/>
<text text-anchor="start" x="338.5" y="-329.2" font-family="Helvetica,sans-Serif" font-size="11.00">numeric[10]</text>
<polygon fill="none" stroke="black" points="202.5,-299 202.5,-321 335.5,-321 335.5,-299 202.5,-299"/>
<text text-anchor="start" x="222.5" y="-307.2" font-family="Helvetica,sans-Serif" font-size="11.00">isactive</text>
<polygon fill="none" stroke="black" points="335.5,-299 335.5,-321 425.5,-321 425.5,-299 335.5,-299"/>
<text text-anchor="start" x="338.5" y="-307.2" font-family="Helvetica,sans-Serif" font-size="11.00">bpchar[1]</text>
<polygon fill="none" stroke="black" points="202.5,-277 202.5,-299 335.5,-299 335.5,-277 202.5,-277"/>
<text text-anchor="start" x="222.5" y="-285.2" font-family="Helvetica,sans-Serif" font-size="11.00">created</text>
<polygon fill="none" stroke="black" points="335.5,-277 335.5,-299 425.5,-299 425.5,-277 335.5,-277"/>
<text text-anchor="start" x="338.5" y="-285.2" font-family="Helvetica,sans-Serif" font-size="11.00">timestamp[29,6]</text>
<polygon fill="none" stroke="black" points="202.5,-255 202.5,-277 335.5,-277 335.5,-255 202.5,-255"/>
<text text-anchor="start" x="222.5" y="-263.2" font-family="Helvetica,sans-Serif" font-size="11.00">createdby</text>
<polygon fill="none" stroke="black" points="335.5,-255 335.5,-277 425.5,-277 425.5,-255 335.5,-255"/>
<text text-anchor="start" x="338.5" y="-263.2" font-family="Helvetica,sans-Serif" font-size="11.00">numeric[10]</text>
<polygon fill="none" stroke="black" points="202.5,-233 202.5,-255 335.5,-255 335.5,-233 202.5,-233"/>
<text text-anchor="start" x="222.5" y="-241.2" font-family="Helvetica,sans-Serif" font-size="11.00">updated</text>
<polygon fill="none" stroke="black" points="335.5,-233 335.5,-255 425.5,-255 425.5,-233 335.5,-233"/>
<text text-anchor="start" x="338.5" y="-241.2" font-family="Helvetica,sans-Serif" font-size="11.00">timestamp[29,6]</text>
<polygon fill="none" stroke="black" points="202.5,-211 202.5,-233 335.5,-233 335.5,-211 202.5,-211"/>
<text text-anchor="start" x="222.5" y="-219.2" font-family="Helvetica,sans-Serif" font-size="11.00">updatedby</text>
<polygon fill="none" stroke="black" points="335.5,-211 335.5,-233 425.5,-233 425.5,-211 335.5,-211"/>
<text text-anchor="start" x="338.5" y="-219.2" font-family="Helvetica,sans-Serif" font-size="11.00">numeric[10]</text>
<polygon fill="none" stroke="black" points="202.5,-189 202.5,-211 335.5,-211 335.5,-189 202.5,-189"/>
<text text-anchor="start" x="222.5" y="-197.2" font-family="Helvetica,sans-Serif" font-size="11.00">istranslated</text>
<polygon fill="none" stroke="black" points="335.5,-189 335.5,-211 425.5,-211 425.5,-189 335.5,-189"/>
<text text-anchor="start" x="338.5" y="-197.2" font-family="Helvetica,sans-Serif" font-size="11.00">bpchar[1]</text>
<polygon fill="none" stroke="black" points="202.5,-167 202.5,-189 335.5,-189 335.5,-167 202.5,-167"/>
<text text-anchor="start" x="222.5" y="-175.2" font-family="Helvetica,sans-Serif" font-size="11.00">name</text>
<polygon fill="none" stroke="black" points="335.5,-167 335.5,-189 425.5,-189 425.5,-167 335.5,-167"/>
<text text-anchor="start" x="338.5" y="-175.2" font-family="Helvetica,sans-Serif" font-size="11.00">varchar[60]</text>
<polygon fill="none" stroke="black" points="202.5,-145 202.5,-167 335.5,-167 335.5,-145 202.5,-145"/>
<text text-anchor="start" x="222.5" y="-153.2" font-family="Helvetica,sans-Serif" font-size="11.00">mailheader</text>
<polygon fill="none" stroke="black" points="335.5,-145 335.5,-167 425.5,-167 425.5,-145 335.5,-145"/>
<text text-anchor="start" x="338.5" y="-153.2" font-family="Helvetica,sans-Serif" font-size="11.00">varchar[2000]</text>
<polygon fill="none" stroke="black" points="202.5,-123 202.5,-145 335.5,-145 335.5,-123 202.5,-123"/>
<text text-anchor="start" x="222.5" y="-131.2" font-family="Helvetica,sans-Serif" font-size="11.00">mailtext</text>
<polygon fill="none" stroke="black" points="335.5,-123 335.5,-145 425.5,-145 425.5,-123 335.5,-123"/>
<text text-anchor="start" x="338.5" y="-131.2" font-family="Helvetica,sans-Serif" font-size="11.00">text[2147483647]</text>
<polygon fill="none" stroke="black" points="202.5,-101 202.5,-123 335.5,-123 335.5,-101 202.5,-101"/>
<text text-anchor="start" x="222.5" y="-109.2" font-family="Helvetica,sans-Serif" font-size="11.00">mailtext2</text>
<polygon fill="none" stroke="black" points="335.5,-101 335.5,-123 425.5,-123 425.5,-101 335.5,-101"/>
<text text-anchor="start" x="338.5" y="-109.2" font-family="Helvetica,sans-Serif" font-size="11.00">varchar[2000]</text>
<polygon fill="none" stroke="black" points="202.5,-79 202.5,-101 335.5,-101 335.5,-79 202.5,-79"/>
<text text-anchor="start" x="222.5" y="-87.2" font-family="Helvetica,sans-Serif" font-size="11.00">mailtext3</text>
<polygon fill="none" stroke="black" points="335.5,-79 335.5,-101 425.5,-101 425.5,-79 335.5,-79"/>
<text text-anchor="start" x="338.5" y="-87.2" font-family="Helvetica,sans-Serif" font-size="11.00">varchar[2000]</text>
<polygon fill="#ffffff" stroke="transparent" points="202.5,-57 202.5,-79 335.5,-79 335.5,-57 202.5,-57"/>
<polygon fill="none" stroke="black" points="202.5,-57 202.5,-79 335.5,-79 335.5,-57 202.5,-57"/>
<text text-anchor="start" x="222.5" y="-65.2" font-family="Helvetica,sans-Serif" font-size="11.00">r_mailtext_trl_uu</text>
<polygon fill="none" stroke="black" points="335.5,-57 335.5,-79 425.5,-79 425.5,-57 335.5,-57"/>
<text text-anchor="start" x="338.5" y="-65.2" font-family="Helvetica,sans-Serif" font-size="11.00">varchar[36]</text>
<polygon fill="#ffffff" stroke="transparent" points="202.5,-39 202.5,-57 260.5,-57 260.5,-39 202.5,-39"/>
<polygon fill="none" stroke="black" points="202.5,-39 202.5,-57 260.5,-57 260.5,-39 202.5,-39"/>
<text text-anchor="start" x="205.5" y="-45.2" font-family="Helvetica,sans-Serif" font-size="11.00">&lt; 2</text>
<polygon fill="#ffffff" stroke="transparent" points="260.5,-39 260.5,-57 335.5,-57 335.5,-39 260.5,-39"/>
<polygon fill="none" stroke="black" points="260.5,-39 260.5,-57 335.5,-57 335.5,-39 260.5,-39"/>
<text text-anchor="start" x="299.5" y="-45.2" font-family="Helvetica,sans-Serif" font-size="11.00">5 rows</text>
<polygon fill="#ffffff" stroke="transparent" points="335.5,-39 335.5,-57 425.5,-57 425.5,-39 335.5,-39"/>
<polygon fill="none" stroke="black" points="335.5,-39 335.5,-57 425.5,-57 425.5,-39 335.5,-39"/>
<text text-anchor="start" x="406.5" y="-45.2" font-family="Helvetica,sans-Serif" font-size="11.00">0 &gt;</text>
<polygon fill="none" stroke="black" stroke-width="2" points="201,-38 201,-432 426,-432 426,-38 201,-38"/>
</a>
</g>
</g>
<!-- ad_language -->
<g id="node2" class="node">
<title>ad_language</title>
<g id="a_node2"><a xlink:href="../../tables/ad_language.html" xlink:title="ad_language" target="_top">
<polygon fill="#ffffff" stroke="transparent" points="8,-168 8,-358 151,-358 151,-168 8,-168"/>
<polygon fill="#f5f5f5" stroke="transparent" points="8.5,-336 8.5,-358 151.5,-358 151.5,-336 8.5,-336"/>
<polygon fill="none" stroke="black" points="8.5,-336 8.5,-358 151.5,-358 151.5,-336 8.5,-336"/>
<text text-anchor="start" x="13.5" y="-345.2" font-family="Helvetica,sans-Serif" font-weight="bold" font-size="11.00">ad_language</text>
<text text-anchor="start" x="116.5" y="-344.2" font-family="Helvetica,sans-Serif" font-size="11.00">[table]</text>
<polygon fill="none" stroke="black" points="8.5,-314 8.5,-336 151.5,-336 151.5,-314 8.5,-314"/>
<image xlink:href="../../images/primaryKeys.png" width="11px" height="12px" preserveAspectRatio="xMinYMin meet" x="13.5" y="-331"/>
<text text-anchor="start" x="28.5" y="-322.2" font-family="Helvetica,sans-Serif" font-size="11.00">ad_language</text>
<polygon fill="none" stroke="black" points="8.5,-292 8.5,-314 151.5,-314 151.5,-292 8.5,-292"/>
<image xlink:href="../../images/foreignKeys.png" width="11px" height="12px" preserveAspectRatio="xMinYMin meet" x="13.5" y="-309"/>
<text text-anchor="start" x="28.5" y="-300.2" font-family="Helvetica,sans-Serif" font-size="11.00">ad_client_id</text>
<polygon fill="none" stroke="black" points="8.5,-270 8.5,-292 151.5,-292 151.5,-270 8.5,-270"/>
<image xlink:href="../../images/foreignKeys.png" width="11px" height="12px" preserveAspectRatio="xMinYMin meet" x="13.5" y="-287"/>
<text text-anchor="start" x="28.5" y="-278.2" font-family="Helvetica,sans-Serif" font-size="11.00">ad_org_id</text>
<polygon fill="#ffffff" stroke="transparent" points="8.5,-248 8.5,-270 151.5,-270 151.5,-248 8.5,-248"/>
<polygon fill="none" stroke="black" points="8.5,-248 8.5,-270 151.5,-270 151.5,-248 8.5,-248"/>
<text text-anchor="start" x="28.5" y="-256.2" font-family="Helvetica,sans-Serif" font-size="11.00">ad_language_id</text>
<polygon fill="#ffffff" stroke="transparent" points="8.5,-226 8.5,-248 151.5,-248 151.5,-226 8.5,-226"/>
<polygon fill="none" stroke="black" points="8.5,-226 8.5,-248 151.5,-248 151.5,-226 8.5,-226"/>
<text text-anchor="start" x="28.5" y="-234.2" font-family="Helvetica,sans-Serif" font-size="11.00">ad_language_uu</text>
<polygon fill="none" stroke="black" points="8.5,-204 8.5,-226 151.5,-226 151.5,-204 8.5,-204"/>
<image xlink:href="../../images/foreignKeys.png" width="11px" height="12px" preserveAspectRatio="xMinYMin meet" x="13.5" y="-221"/>
<text text-anchor="start" x="28.5" y="-212.2" font-family="Helvetica,sans-Serif" font-size="11.00">ad_printpaper_id</text>
<polygon fill="none" stroke="black" points="8.5,-186 8.5,-204 151.5,-204 151.5,-186 8.5,-186"/>
<text text-anchor="start" x="11.5" y="-192.2" font-family="Helvetica,sans-Serif" font-size="11.00">...</text>
<polygon fill="#ffffff" stroke="transparent" points="8.5,-168 8.5,-186 51.5,-186 51.5,-168 8.5,-168"/>
<polygon fill="none" stroke="black" points="8.5,-168 8.5,-186 51.5,-186 51.5,-168 8.5,-168"/>
<text text-anchor="start" x="11.5" y="-174.2" font-family="Helvetica,sans-Serif" font-size="11.00">&lt; 3</text>
<polygon fill="#ffffff" stroke="transparent" points="51.5,-168 51.5,-186 112.5,-186 112.5,-168 51.5,-168"/>
<polygon fill="none" stroke="black" points="51.5,-168 51.5,-186 112.5,-186 112.5,-168 51.5,-168"/>
<text text-anchor="start" x="64.5" y="-174.2" font-family="Helvetica,sans-Serif" font-size="11.00">109 rows</text>
<polygon fill="#ffffff" stroke="transparent" points="112.5,-168 112.5,-186 151.5,-186 151.5,-168 112.5,-168"/>
<polygon fill="none" stroke="black" points="112.5,-168 112.5,-186 151.5,-186 151.5,-168 112.5,-168"/>
<text text-anchor="start" x="126.5" y="-174.2" font-family="Helvetica,sans-Serif" font-size="11.00">86 &gt;</text>
</a>
</g>
</g>
<!-- r_mailtext_trl&#45;&gt;ad_language -->
<g id="edge1" class="edge">
<title>r_mailtext_trl:w&#45;&gt;ad_language:e</title>
<path fill="none" stroke="black" d="M187.59,-370.92C173.76,-358.02 177.79,-325 152.5,-325"/>
<polygon fill="black" stroke="black" points="193.98,-373.26 200.27,-379.38 197.74,-374.63 201.5,-376 201.5,-376 201.5,-376 197.74,-374.63 202.73,-372.62 193.98,-373.26 193.98,-373.26"/>
<ellipse fill="none" stroke="black" cx="190.98" cy="-372.16" rx="3.2" ry="3.2"/>
</g>
<!-- r_mailtext -->
<g id="node3" class="node">
<title>r_mailtext</title>
<g id="a_node3"><a xlink:href="../../tables/r_mailtext.html" xlink:title="r_mailtext" target="_top">
<polygon fill="#ffffff" stroke="transparent" points="23.5,-379 23.5,-481 135.5,-481 135.5,-379 23.5,-379"/>
<polygon fill="#f5f5f5" stroke="transparent" points="23.5,-459 23.5,-481 135.5,-481 135.5,-459 23.5,-459"/>
<polygon fill="none" stroke="black" points="23.5,-459 23.5,-481 135.5,-481 135.5,-459 23.5,-459"/>
<text text-anchor="start" x="28.5" y="-468.2" font-family="Helvetica,sans-Serif" font-weight="bold" font-size="11.00">r_mailtext</text>
<text text-anchor="start" x="100.5" y="-467.2" font-family="Helvetica,sans-Serif" font-size="11.00">[table]</text>
<polygon fill="none" stroke="black" points="23.5,-437 23.5,-459 135.5,-459 135.5,-437 23.5,-437"/>
<image xlink:href="../../images/primaryKeys.png" width="11px" height="12px" preserveAspectRatio="xMinYMin meet" x="28.5" y="-454"/>
<text text-anchor="start" x="43.5" y="-445.2" font-family="Helvetica,sans-Serif" font-size="11.00">r_mailtext_id</text>
<polygon fill="#ffffff" stroke="transparent" points="23.5,-415 23.5,-437 135.5,-437 135.5,-415 23.5,-415"/>
<polygon fill="none" stroke="black" points="23.5,-415 23.5,-437 135.5,-437 135.5,-415 23.5,-415"/>
<text text-anchor="start" x="43.5" y="-423.2" font-family="Helvetica,sans-Serif" font-size="11.00">r_mailtext_uu</text>
<polygon fill="none" stroke="black" points="23.5,-397 23.5,-415 135.5,-415 135.5,-397 23.5,-397"/>
<text text-anchor="start" x="26.5" y="-403.2" font-family="Helvetica,sans-Serif" font-size="11.00">...</text>
<polygon fill="#ffffff" stroke="transparent" points="23.5,-379 23.5,-397 52.5,-397 52.5,-379 23.5,-379"/>
<polygon fill="none" stroke="black" points="23.5,-379 23.5,-397 52.5,-397 52.5,-379 23.5,-379"/>
<text text-anchor="start" x="26.5" y="-385.2" font-family="Helvetica,sans-Serif" font-size="11.00"> &#160;</text>
<polygon fill="#ffffff" stroke="transparent" points="52.5,-379 52.5,-397 99.5,-397 99.5,-379 52.5,-379"/>
<polygon fill="none" stroke="black" points="52.5,-379 52.5,-397 99.5,-397 99.5,-379 52.5,-379"/>
<text text-anchor="start" x="63.5" y="-385.2" font-family="Helvetica,sans-Serif" font-size="11.00">3 rows</text>
<polygon fill="#ffffff" stroke="transparent" points="99.5,-379 99.5,-397 135.5,-397 135.5,-379 99.5,-379"/>
<polygon fill="none" stroke="black" points="99.5,-379 99.5,-397 135.5,-397 135.5,-379 99.5,-379"/>
<text text-anchor="start" x="110.5" y="-385.2" font-family="Helvetica,sans-Serif" font-size="11.00">15 &gt;</text>
</a>
</g>
</g>
<!-- r_mailtext_trl&#45;&gt;r_mailtext -->
<g id="edge2" class="edge">
<title>r_mailtext_trl:w&#45;&gt;r_mailtext:e</title>
<path fill="none" stroke="black" d="M187.32,-401.28C166.44,-412.4 167.25,-448 136.5,-448"/>
<polygon fill="black" stroke="black" points="193.71,-399.8 202.31,-401.51 197.6,-398.9 201.5,-398 201.5,-398 201.5,-398 197.6,-398.9 200.69,-394.49 193.71,-399.8 193.71,-399.8"/>
<ellipse fill="none" stroke="black" cx="190.59" cy="-400.53" rx="3.2" ry="3.2"/>
</g>
</g>
</svg>
