<?xml version="1.0" encoding="UTF-8" standalone="no"?>
<!DOCTYPE svg PUBLIC "-//W3C//DTD SVG 1.1//EN"
 "http://www.w3.org/Graphics/SVG/1.1/DTD/svg11.dtd">
<!-- Generated by graphviz version 2.43.0 (0)
 -->
<!-- Title: oneDegreeRelationshipsDiagram Pages: 1 -->
<svg width="512pt" height="817pt"
 viewBox="0.00 0.00 512.00 817.00" xmlns="http://www.w3.org/2000/svg" xmlns:xlink="http://www.w3.org/1999/xlink">
<g id="graph0" class="graph" transform="scale(1 1) rotate(0) translate(4 813)">
<title>oneDegreeRelationshipsDiagram</title>
<polygon fill="#ffffff" stroke="transparent" points="-4,4 -4,-813 508,-813 508,4 -4,4"/>
<text text-anchor="middle" x="71.5" y="-7.2" font-family="Helvetica,sans-Serif" font-size="11.00">Generated by SchemaSpy</text>
<!-- r_request -->
<g id="node1" class="node">
<title>r_request</title>
<g id="a_node1"><a xlink:href="../../tables/r_request.html" xlink:title="r_request" target="_top">
<polygon fill="#ffffff" stroke="transparent" points="322,-109 322,-805 496,-805 496,-109 322,-109"/>
<polygon fill="#f5f5f5" stroke="transparent" points="322,-783 322,-805 496,-805 496,-783 322,-783"/>
<polygon fill="none" stroke="black" points="322,-783 322,-805 496,-805 496,-783 322,-783"/>
<text text-anchor="start" x="327" y="-792.2" font-family="Helvetica,sans-Serif" font-weight="bold" font-size="11.00">r_request</text>
<text text-anchor="start" x="461" y="-791.2" font-family="Helvetica,sans-Serif" font-size="11.00">[table]</text>
<polygon fill="none" stroke="black" points="322,-761 322,-783 496,-783 496,-761 322,-761"/>
<image xlink:href="../../images/primaryKeys.png" width="11px" height="12px" preserveAspectRatio="xMinYMin meet" x="327" y="-778"/>
<text text-anchor="start" x="342" y="-769.2" font-family="Helvetica,sans-Serif" font-size="11.00">r_request_id</text>
<polygon fill="none" stroke="black" points="322,-739 322,-761 496,-761 496,-739 322,-739"/>
<image xlink:href="../../images/foreignKeys.png" width="11px" height="12px" preserveAspectRatio="xMinYMin meet" x="327" y="-756"/>
<text text-anchor="start" x="342" y="-747.2" font-family="Helvetica,sans-Serif" font-size="11.00">r_requesttype_id</text>
<polygon fill="none" stroke="black" points="322,-717 322,-739 496,-739 496,-717 322,-717"/>
<image xlink:href="../../images/foreignKeys.png" width="11px" height="12px" preserveAspectRatio="xMinYMin meet" x="327" y="-734"/>
<text text-anchor="start" x="342" y="-725.2" font-family="Helvetica,sans-Serif" font-size="11.00">r_group_id</text>
<polygon fill="none" stroke="black" points="322,-695 322,-717 496,-717 496,-695 322,-695"/>
<image xlink:href="../../images/foreignKeys.png" width="11px" height="12px" preserveAspectRatio="xMinYMin meet" x="327" y="-712"/>
<text text-anchor="start" x="342" y="-703.2" font-family="Helvetica,sans-Serif" font-size="11.00">r_category_id</text>
<polygon fill="none" stroke="black" points="322,-673 322,-695 496,-695 496,-673 322,-673"/>
<image xlink:href="../../images/foreignKeys.png" width="11px" height="12px" preserveAspectRatio="xMinYMin meet" x="327" y="-690"/>
<text text-anchor="start" x="342" y="-681.2" font-family="Helvetica,sans-Serif" font-size="11.00">r_status_id</text>
<polygon fill="none" stroke="black" points="322,-651 322,-673 496,-673 496,-651 322,-651"/>
<image xlink:href="../../images/foreignKeys.png" width="11px" height="12px" preserveAspectRatio="xMinYMin meet" x="327" y="-668"/>
<text text-anchor="start" x="342" y="-659.2" font-family="Helvetica,sans-Serif" font-size="11.00">r_resolution_id</text>
<polygon fill="none" stroke="black" points="322,-629 322,-651 496,-651 496,-629 322,-629"/>
<image xlink:href="../../images/foreignKeys.png" width="11px" height="12px" preserveAspectRatio="xMinYMin meet" x="327" y="-646"/>
<text text-anchor="start" x="342" y="-637.2" font-family="Helvetica,sans-Serif" font-size="11.00">r_requestrelated_id</text>
<polygon fill="none" stroke="black" points="322,-607 322,-629 496,-629 496,-607 322,-607"/>
<image xlink:href="../../images/foreignKeys.png" width="11px" height="12px" preserveAspectRatio="xMinYMin meet" x="327" y="-624"/>
<text text-anchor="start" x="342" y="-615.2" font-family="Helvetica,sans-Serif" font-size="11.00">salesrep_id</text>
<polygon fill="none" stroke="black" points="322,-585 322,-607 496,-607 496,-585 322,-585"/>
<image xlink:href="../../images/foreignKeys.png" width="11px" height="12px" preserveAspectRatio="xMinYMin meet" x="327" y="-602"/>
<text text-anchor="start" x="342" y="-593.2" font-family="Helvetica,sans-Serif" font-size="11.00">ad_role_id</text>
<polygon fill="#ffffff" stroke="transparent" points="322,-563 322,-585 496,-585 496,-563 322,-563"/>
<polygon fill="none" stroke="black" points="322,-563 322,-585 496,-585 496,-563 322,-563"/>
<image xlink:href="../../images/foreignKeys.png" width="11px" height="12px" preserveAspectRatio="xMinYMin meet" x="327" y="-580"/>
<text text-anchor="start" x="342" y="-571.2" font-family="Helvetica,sans-Serif" font-size="11.00">c_bpartner_id</text>
<polygon fill="#ffffff" stroke="transparent" points="322,-541 322,-563 496,-563 496,-541 322,-541"/>
<polygon fill="none" stroke="black" points="322,-541 322,-563 496,-563 496,-541 322,-541"/>
<image xlink:href="../../images/foreignKeys.png" width="11px" height="12px" preserveAspectRatio="xMinYMin meet" x="327" y="-558"/>
<text text-anchor="start" x="342" y="-549.2" font-family="Helvetica,sans-Serif" font-size="11.00">ad_user_id</text>
<polygon fill="none" stroke="black" points="322,-519 322,-541 496,-541 496,-519 322,-519"/>
<image xlink:href="../../images/foreignKeys.png" width="11px" height="12px" preserveAspectRatio="xMinYMin meet" x="327" y="-536"/>
<text text-anchor="start" x="342" y="-527.2" font-family="Helvetica,sans-Serif" font-size="11.00">c_campaign_id</text>
<polygon fill="none" stroke="black" points="322,-497 322,-519 496,-519 496,-497 322,-497"/>
<image xlink:href="../../images/foreignKeys.png" width="11px" height="12px" preserveAspectRatio="xMinYMin meet" x="327" y="-514"/>
<text text-anchor="start" x="342" y="-505.2" font-family="Helvetica,sans-Serif" font-size="11.00">c_order_id</text>
<polygon fill="none" stroke="black" points="322,-475 322,-497 496,-497 496,-475 322,-475"/>
<image xlink:href="../../images/foreignKeys.png" width="11px" height="12px" preserveAspectRatio="xMinYMin meet" x="327" y="-492"/>
<text text-anchor="start" x="342" y="-483.2" font-family="Helvetica,sans-Serif" font-size="11.00">c_invoice_id</text>
<polygon fill="none" stroke="black" points="322,-453 322,-475 496,-475 496,-453 322,-453"/>
<image xlink:href="../../images/foreignKeys.png" width="11px" height="12px" preserveAspectRatio="xMinYMin meet" x="327" y="-470"/>
<text text-anchor="start" x="342" y="-461.2" font-family="Helvetica,sans-Serif" font-size="11.00">c_payment_id</text>
<polygon fill="none" stroke="black" points="322,-431 322,-453 496,-453 496,-431 322,-431"/>
<image xlink:href="../../images/foreignKeys.png" width="11px" height="12px" preserveAspectRatio="xMinYMin meet" x="327" y="-448"/>
<text text-anchor="start" x="342" y="-439.2" font-family="Helvetica,sans-Serif" font-size="11.00">m_product_id</text>
<polygon fill="none" stroke="black" points="322,-409 322,-431 496,-431 496,-409 322,-409"/>
<image xlink:href="../../images/foreignKeys.png" width="11px" height="12px" preserveAspectRatio="xMinYMin meet" x="327" y="-426"/>
<text text-anchor="start" x="342" y="-417.2" font-family="Helvetica,sans-Serif" font-size="11.00">c_project_id</text>
<polygon fill="none" stroke="black" points="322,-387 322,-409 496,-409 496,-387 322,-387"/>
<image xlink:href="../../images/foreignKeys.png" width="11px" height="12px" preserveAspectRatio="xMinYMin meet" x="327" y="-404"/>
<text text-anchor="start" x="342" y="-395.2" font-family="Helvetica,sans-Serif" font-size="11.00">a_asset_id</text>
<polygon fill="none" stroke="black" points="322,-365 322,-387 496,-387 496,-365 322,-365"/>
<image xlink:href="../../images/foreignKeys.png" width="11px" height="12px" preserveAspectRatio="xMinYMin meet" x="327" y="-382"/>
<text text-anchor="start" x="342" y="-373.2" font-family="Helvetica,sans-Serif" font-size="11.00">m_inout_id</text>
<polygon fill="none" stroke="black" points="322,-343 322,-365 496,-365 496,-343 322,-343"/>
<image xlink:href="../../images/foreignKeys.png" width="11px" height="12px" preserveAspectRatio="xMinYMin meet" x="327" y="-360"/>
<text text-anchor="start" x="342" y="-351.2" font-family="Helvetica,sans-Serif" font-size="11.00">m_rma_id</text>
<polygon fill="none" stroke="black" points="322,-321 322,-343 496,-343 496,-321 322,-321"/>
<image xlink:href="../../images/foreignKeys.png" width="11px" height="12px" preserveAspectRatio="xMinYMin meet" x="327" y="-338"/>
<text text-anchor="start" x="342" y="-329.2" font-family="Helvetica,sans-Serif" font-size="11.00">ad_table_id</text>
<polygon fill="none" stroke="black" points="322,-299 322,-321 496,-321 496,-299 322,-299"/>
<image xlink:href="../../images/foreignKeys.png" width="11px" height="12px" preserveAspectRatio="xMinYMin meet" x="327" y="-316"/>
<text text-anchor="start" x="342" y="-307.2" font-family="Helvetica,sans-Serif" font-size="11.00">r_mailtext_id</text>
<polygon fill="none" stroke="black" points="322,-277 322,-299 496,-299 496,-277 322,-277"/>
<image xlink:href="../../images/foreignKeys.png" width="11px" height="12px" preserveAspectRatio="xMinYMin meet" x="327" y="-294"/>
<text text-anchor="start" x="342" y="-285.2" font-family="Helvetica,sans-Serif" font-size="11.00">r_standardresponse_id</text>
<polygon fill="none" stroke="black" points="322,-255 322,-277 496,-277 496,-255 322,-255"/>
<image xlink:href="../../images/foreignKeys.png" width="11px" height="12px" preserveAspectRatio="xMinYMin meet" x="327" y="-272"/>
<text text-anchor="start" x="342" y="-263.2" font-family="Helvetica,sans-Serif" font-size="11.00">m_productspent_id</text>
<polygon fill="none" stroke="black" points="322,-233 322,-255 496,-255 496,-233 322,-233"/>
<image xlink:href="../../images/foreignKeys.png" width="11px" height="12px" preserveAspectRatio="xMinYMin meet" x="327" y="-250"/>
<text text-anchor="start" x="342" y="-241.2" font-family="Helvetica,sans-Serif" font-size="11.00">c_activity_id</text>
<polygon fill="none" stroke="black" points="322,-211 322,-233 496,-233 496,-211 322,-211"/>
<image xlink:href="../../images/foreignKeys.png" width="11px" height="12px" preserveAspectRatio="xMinYMin meet" x="327" y="-228"/>
<text text-anchor="start" x="342" y="-219.2" font-family="Helvetica,sans-Serif" font-size="11.00">c_invoicerequest_id</text>
<polygon fill="none" stroke="black" points="322,-189 322,-211 496,-211 496,-189 322,-189"/>
<image xlink:href="../../images/foreignKeys.png" width="11px" height="12px" preserveAspectRatio="xMinYMin meet" x="327" y="-206"/>
<text text-anchor="start" x="342" y="-197.2" font-family="Helvetica,sans-Serif" font-size="11.00">m_changerequest_id</text>
<polygon fill="none" stroke="black" points="322,-167 322,-189 496,-189 496,-167 322,-167"/>
<image xlink:href="../../images/foreignKeys.png" width="11px" height="12px" preserveAspectRatio="xMinYMin meet" x="327" y="-184"/>
<text text-anchor="start" x="342" y="-175.2" font-family="Helvetica,sans-Serif" font-size="11.00">m_fixchangenotice_id</text>
<polygon fill="#ffffff" stroke="transparent" points="322,-145 322,-167 496,-167 496,-145 322,-145"/>
<polygon fill="none" stroke="black" points="322,-145 322,-167 496,-167 496,-145 322,-145"/>
<text text-anchor="start" x="342" y="-153.2" font-family="Helvetica,sans-Serif" font-size="11.00">r_request_uu</text>
<polygon fill="none" stroke="black" points="322,-127 322,-145 496,-145 496,-127 322,-127"/>
<text text-anchor="start" x="325" y="-133.2" font-family="Helvetica,sans-Serif" font-size="11.00">...</text>
<polygon fill="#ffffff" stroke="transparent" points="322,-109 322,-127 392,-127 392,-109 322,-109"/>
<polygon fill="none" stroke="black" points="322,-109 322,-127 392,-127 392,-109 322,-109"/>
<text text-anchor="start" x="325" y="-115.2" font-family="Helvetica,sans-Serif" font-size="11.00">&lt; 27</text>
<polygon fill="#ffffff" stroke="transparent" points="392,-109 392,-127 452,-127 452,-109 392,-109"/>
<polygon fill="none" stroke="black" points="392,-109 392,-127 452,-127 452,-109 392,-109"/>
<text text-anchor="start" x="416" y="-115.2" font-family="Helvetica,sans-Serif" font-size="11.00">0 rows</text>
<polygon fill="#ffffff" stroke="transparent" points="452,-109 452,-127 496,-127 496,-109 452,-109"/>
<polygon fill="none" stroke="black" points="452,-109 452,-127 496,-127 496,-109 452,-109"/>
<text text-anchor="start" x="477" y="-115.2" font-family="Helvetica,sans-Serif" font-size="11.00">6 &gt;</text>
</a>
</g>
</g>
<!-- r_standardresponse -->
<g id="node2" class="node">
<title>r_standardresponse</title>
<g id="a_node2"><a xlink:href="../../tables/r_standardresponse.html" xlink:title="r_standardresponse" target="_top">
<polygon fill="#ffffff" stroke="transparent" points="8,-37 8,-323 273,-323 273,-37 8,-37"/>
<polygon fill="#f5f5f5" stroke="transparent" points="10.5,-299 10.5,-321 271.5,-321 271.5,-299 10.5,-299"/>
<polygon fill="none" stroke="black" points="10.5,-299 10.5,-321 271.5,-321 271.5,-299 10.5,-299"/>
<text text-anchor="start" x="15.5" y="-308.2" font-family="Helvetica,sans-Serif" font-weight="bold" font-size="11.00">r_standardresponse</text>
<text text-anchor="start" x="236.5" y="-307.2" font-family="Helvetica,sans-Serif" font-size="11.00">[table]</text>
<polygon fill="none" stroke="black" points="10.5,-277 10.5,-299 188.5,-299 188.5,-277 10.5,-277"/>
<image xlink:href="../../images/primaryKeys.png" width="11px" height="12px" preserveAspectRatio="xMinYMin meet" x="15.5" y="-294"/>
<text text-anchor="start" x="30.5" y="-285.2" font-family="Helvetica,sans-Serif" font-size="11.00">r_standardresponse_id</text>
<polygon fill="none" stroke="black" points="188.5,-277 188.5,-299 271.5,-299 271.5,-277 188.5,-277"/>
<text text-anchor="start" x="191.5" y="-285.2" font-family="Helvetica,sans-Serif" font-size="11.00">numeric[10]</text>
<polygon fill="none" stroke="black" points="10.5,-255 10.5,-277 188.5,-277 188.5,-255 10.5,-255"/>
<text text-anchor="start" x="30.5" y="-263.2" font-family="Helvetica,sans-Serif" font-size="11.00">ad_client_id</text>
<polygon fill="none" stroke="black" points="188.5,-255 188.5,-277 271.5,-277 271.5,-255 188.5,-255"/>
<text text-anchor="start" x="191.5" y="-263.2" font-family="Helvetica,sans-Serif" font-size="11.00">numeric[10]</text>
<polygon fill="none" stroke="black" points="10.5,-233 10.5,-255 188.5,-255 188.5,-233 10.5,-233"/>
<text text-anchor="start" x="30.5" y="-241.2" font-family="Helvetica,sans-Serif" font-size="11.00">ad_org_id</text>
<polygon fill="none" stroke="black" points="188.5,-233 188.5,-255 271.5,-255 271.5,-233 188.5,-233"/>
<text text-anchor="start" x="191.5" y="-241.2" font-family="Helvetica,sans-Serif" font-size="11.00">numeric[10]</text>
<polygon fill="none" stroke="black" points="10.5,-211 10.5,-233 188.5,-233 188.5,-211 10.5,-211"/>
<text text-anchor="start" x="30.5" y="-219.2" font-family="Helvetica,sans-Serif" font-size="11.00">isactive</text>
<polygon fill="none" stroke="black" points="188.5,-211 188.5,-233 271.5,-233 271.5,-211 188.5,-211"/>
<text text-anchor="start" x="191.5" y="-219.2" font-family="Helvetica,sans-Serif" font-size="11.00">bpchar[1]</text>
<polygon fill="none" stroke="black" points="10.5,-189 10.5,-211 188.5,-211 188.5,-189 10.5,-189"/>
<text text-anchor="start" x="30.5" y="-197.2" font-family="Helvetica,sans-Serif" font-size="11.00">created</text>
<polygon fill="none" stroke="black" points="188.5,-189 188.5,-211 271.5,-211 271.5,-189 188.5,-189"/>
<text text-anchor="start" x="191.5" y="-197.2" font-family="Helvetica,sans-Serif" font-size="11.00">timestamp[29,6]</text>
<polygon fill="none" stroke="black" points="10.5,-167 10.5,-189 188.5,-189 188.5,-167 10.5,-167"/>
<text text-anchor="start" x="30.5" y="-175.2" font-family="Helvetica,sans-Serif" font-size="11.00">createdby</text>
<polygon fill="none" stroke="black" points="188.5,-167 188.5,-189 271.5,-189 271.5,-167 188.5,-167"/>
<text text-anchor="start" x="191.5" y="-175.2" font-family="Helvetica,sans-Serif" font-size="11.00">numeric[10]</text>
<polygon fill="none" stroke="black" points="10.5,-145 10.5,-167 188.5,-167 188.5,-145 10.5,-145"/>
<text text-anchor="start" x="30.5" y="-153.2" font-family="Helvetica,sans-Serif" font-size="11.00">updated</text>
<polygon fill="none" stroke="black" points="188.5,-145 188.5,-167 271.5,-167 271.5,-145 188.5,-145"/>
<text text-anchor="start" x="191.5" y="-153.2" font-family="Helvetica,sans-Serif" font-size="11.00">timestamp[29,6]</text>
<polygon fill="none" stroke="black" points="10.5,-123 10.5,-145 188.5,-145 188.5,-123 10.5,-123"/>
<text text-anchor="start" x="30.5" y="-131.2" font-family="Helvetica,sans-Serif" font-size="11.00">updatedby</text>
<polygon fill="none" stroke="black" points="188.5,-123 188.5,-145 271.5,-145 271.5,-123 188.5,-123"/>
<text text-anchor="start" x="191.5" y="-131.2" font-family="Helvetica,sans-Serif" font-size="11.00">numeric[10]</text>
<polygon fill="none" stroke="black" points="10.5,-101 10.5,-123 188.5,-123 188.5,-101 10.5,-101"/>
<text text-anchor="start" x="30.5" y="-109.2" font-family="Helvetica,sans-Serif" font-size="11.00">name</text>
<polygon fill="none" stroke="black" points="188.5,-101 188.5,-123 271.5,-123 271.5,-101 188.5,-101"/>
<text text-anchor="start" x="191.5" y="-109.2" font-family="Helvetica,sans-Serif" font-size="11.00">varchar[60]</text>
<polygon fill="none" stroke="black" points="10.5,-79 10.5,-101 188.5,-101 188.5,-79 10.5,-79"/>
<text text-anchor="start" x="30.5" y="-87.2" font-family="Helvetica,sans-Serif" font-size="11.00">responsetext</text>
<polygon fill="none" stroke="black" points="188.5,-79 188.5,-101 271.5,-101 271.5,-79 188.5,-79"/>
<text text-anchor="start" x="191.5" y="-87.2" font-family="Helvetica,sans-Serif" font-size="11.00">varchar[2000]</text>
<polygon fill="#ffffff" stroke="transparent" points="10.5,-57 10.5,-79 188.5,-79 188.5,-57 10.5,-57"/>
<polygon fill="none" stroke="black" points="10.5,-57 10.5,-79 188.5,-79 188.5,-57 10.5,-57"/>
<text text-anchor="start" x="30.5" y="-65.2" font-family="Helvetica,sans-Serif" font-size="11.00">r_standardresponse_uu</text>
<polygon fill="none" stroke="black" points="188.5,-57 188.5,-79 271.5,-79 271.5,-57 188.5,-57"/>
<text text-anchor="start" x="191.5" y="-65.2" font-family="Helvetica,sans-Serif" font-size="11.00">varchar[36]</text>
<polygon fill="#ffffff" stroke="transparent" points="10.5,-39 10.5,-57 90.5,-57 90.5,-39 10.5,-39"/>
<polygon fill="none" stroke="black" points="10.5,-39 10.5,-57 90.5,-57 90.5,-39 10.5,-39"/>
<text text-anchor="start" x="13.5" y="-45.2" font-family="Helvetica,sans-Serif" font-size="11.00">&lt; 0</text>
<polygon fill="#ffffff" stroke="transparent" points="90.5,-39 90.5,-57 188.5,-57 188.5,-39 90.5,-39"/>
<polygon fill="none" stroke="black" points="90.5,-39 90.5,-57 188.5,-57 188.5,-39 90.5,-39"/>
<text text-anchor="start" x="152.5" y="-45.2" font-family="Helvetica,sans-Serif" font-size="11.00">2 rows</text>
<polygon fill="#ffffff" stroke="transparent" points="188.5,-39 188.5,-57 271.5,-57 271.5,-39 188.5,-39"/>
<polygon fill="none" stroke="black" points="188.5,-39 188.5,-57 271.5,-57 271.5,-39 188.5,-39"/>
<text text-anchor="start" x="252.5" y="-45.2" font-family="Helvetica,sans-Serif" font-size="11.00">1 &gt;</text>
<polygon fill="none" stroke="black" stroke-width="2" points="9,-38 9,-322 272,-322 272,-38 9,-38"/>
</a>
</g>
</g>
<!-- r_request&#45;&gt;r_standardresponse -->
<g id="edge1" class="edge">
<title>r_request:w&#45;&gt;r_standardresponse:e</title>
<path fill="none" stroke="black" d="M306.28,-288C295.29,-288 288.16,-288 272.5,-288"/>
<polygon fill="black" stroke="black" points="313,-288 321,-291.6 317,-288 321,-288 321,-288 321,-288 317,-288 321,-284.4 313,-288 313,-288"/>
<ellipse fill="none" stroke="black" cx="309.8" cy="-288" rx="3.2" ry="3.2"/>
</g>
</g>
</svg>
