<?xml version="1.0" encoding="UTF-8" standalone="no"?>
<!DOCTYPE svg PUBLIC "-//W3C//DTD SVG 1.1//EN"
 "http://www.w3.org/Graphics/SVG/1.1/DTD/svg11.dtd">
<!-- Generated by graphviz version 2.43.0 (0)
 -->
<!-- Title: oneDegreeRelationshipsDiagram Pages: 1 -->
<svg width="315pt" height="493pt"
 viewBox="0.00 0.00 315.00 493.00" xmlns="http://www.w3.org/2000/svg" xmlns:xlink="http://www.w3.org/1999/xlink">
<g id="graph0" class="graph" transform="scale(1 1) rotate(0) translate(4 489)">
<title>oneDegreeRelationshipsDiagram</title>
<polygon fill="#ffffff" stroke="transparent" points="-4,4 -4,-489 311,-489 311,4 -4,4"/>
<text text-anchor="middle" x="71.5" y="-7.2" font-family="Helvetica,sans-Serif" font-size="11.00">Generated by SchemaSpy</text>
<!-- rv_c_invoice_customervendqtr -->
<g id="node1" class="node">
<title>rv_c_invoice_customervendqtr</title>
<g id="a_node1"><a xlink:href="../../tables/rv_c_invoice_customervendqtr.html" xlink:title="rv_c_invoice_customervendqtr" target="_top">
<polygon fill="#ffffff" stroke="transparent" points="8,-37 8,-481 299,-481 299,-37 8,-37"/>
<polygon fill="#f5f5f5" stroke="transparent" points="10.5,-457 10.5,-479 297.5,-479 297.5,-457 10.5,-457"/>
<polygon fill="none" stroke="black" points="10.5,-457 10.5,-479 297.5,-479 297.5,-457 10.5,-457"/>
<text text-anchor="start" x="15.5" y="-466.2" font-family="Helvetica,sans-Serif" font-weight="bold" font-size="11.00">rv_c_invoice_customervendqtr</text>
<text text-anchor="start" x="264.5" y="-465.2" font-family="Helvetica,sans-Serif" font-size="11.00">[view]</text>
<polygon fill="none" stroke="black" points="10.5,-435 10.5,-457 234.5,-457 234.5,-435 10.5,-435"/>
<text text-anchor="start" x="30.5" y="-443.2" font-family="Helvetica,sans-Serif" font-size="11.00">ad_client_id</text>
<polygon fill="none" stroke="black" points="234.5,-435 234.5,-457 297.5,-457 297.5,-435 234.5,-435"/>
<text text-anchor="start" x="237.5" y="-443.2" font-family="Helvetica,sans-Serif" font-size="11.00">numeric[10]</text>
<polygon fill="none" stroke="black" points="10.5,-413 10.5,-435 234.5,-435 234.5,-413 10.5,-413"/>
<text text-anchor="start" x="30.5" y="-421.2" font-family="Helvetica,sans-Serif" font-size="11.00">ad_org_id</text>
<polygon fill="none" stroke="black" points="234.5,-413 234.5,-435 297.5,-435 297.5,-413 234.5,-413"/>
<text text-anchor="start" x="237.5" y="-421.2" font-family="Helvetica,sans-Serif" font-size="11.00">numeric[10]</text>
<polygon fill="none" stroke="black" points="10.5,-391 10.5,-413 234.5,-413 234.5,-391 10.5,-391"/>
<image xlink:href="../../images/foreignKeys.png" width="11px" height="12px" preserveAspectRatio="xMinYMin meet" x="15.5" y="-408"/>
<text text-anchor="start" x="30.5" y="-399.2" font-family="Helvetica,sans-Serif" font-size="11.00">c_bpartner_id</text>
<polygon fill="none" stroke="black" points="234.5,-391 234.5,-413 297.5,-413 297.5,-391 234.5,-391"/>
<text text-anchor="start" x="237.5" y="-399.2" font-family="Helvetica,sans-Serif" font-size="11.00">numeric[10]</text>
<polygon fill="none" stroke="black" points="10.5,-369 10.5,-391 234.5,-391 234.5,-369 10.5,-369"/>
<text text-anchor="start" x="30.5" y="-377.2" font-family="Helvetica,sans-Serif" font-size="11.00">vendor_id</text>
<polygon fill="none" stroke="black" points="234.5,-369 234.5,-391 297.5,-391 297.5,-369 234.5,-369"/>
<text text-anchor="start" x="237.5" y="-377.2" font-family="Helvetica,sans-Serif" font-size="11.00">numeric[10]</text>
<polygon fill="none" stroke="black" points="10.5,-347 10.5,-369 234.5,-369 234.5,-347 10.5,-347"/>
<text text-anchor="start" x="30.5" y="-355.2" font-family="Helvetica,sans-Serif" font-size="11.00">dateinvoiced</text>
<polygon fill="none" stroke="black" points="234.5,-347 234.5,-369 297.5,-369 297.5,-347 234.5,-347"/>
<text text-anchor="start" x="237.5" y="-355.2" font-family="Helvetica,sans-Serif" font-size="11.00">date[13]</text>
<polygon fill="none" stroke="black" points="10.5,-325 10.5,-347 234.5,-347 234.5,-325 10.5,-325"/>
<text text-anchor="start" x="30.5" y="-333.2" font-family="Helvetica,sans-Serif" font-size="11.00">linenetamt</text>
<polygon fill="none" stroke="black" points="234.5,-325 234.5,-347 297.5,-347 297.5,-325 234.5,-325"/>
<text text-anchor="start" x="237.5" y="-333.2" font-family="Helvetica,sans-Serif" font-size="11.00">numeric[0]</text>
<polygon fill="none" stroke="black" points="10.5,-303 10.5,-325 234.5,-325 234.5,-303 10.5,-303"/>
<text text-anchor="start" x="30.5" y="-311.2" font-family="Helvetica,sans-Serif" font-size="11.00">linelistamt</text>
<polygon fill="none" stroke="black" points="234.5,-303 234.5,-325 297.5,-325 297.5,-303 234.5,-303"/>
<text text-anchor="start" x="237.5" y="-311.2" font-family="Helvetica,sans-Serif" font-size="11.00">numeric[0]</text>
<polygon fill="none" stroke="black" points="10.5,-281 10.5,-303 234.5,-303 234.5,-281 10.5,-281"/>
<text text-anchor="start" x="30.5" y="-289.2" font-family="Helvetica,sans-Serif" font-size="11.00">linelimitamt</text>
<polygon fill="none" stroke="black" points="234.5,-281 234.5,-303 297.5,-303 297.5,-281 234.5,-281"/>
<text text-anchor="start" x="237.5" y="-289.2" font-family="Helvetica,sans-Serif" font-size="11.00">numeric[0]</text>
<polygon fill="none" stroke="black" points="10.5,-259 10.5,-281 234.5,-281 234.5,-259 10.5,-259"/>
<text text-anchor="start" x="30.5" y="-267.2" font-family="Helvetica,sans-Serif" font-size="11.00">linediscountamt</text>
<polygon fill="none" stroke="black" points="234.5,-259 234.5,-281 297.5,-281 297.5,-259 234.5,-259"/>
<text text-anchor="start" x="237.5" y="-267.2" font-family="Helvetica,sans-Serif" font-size="11.00">numeric[0]</text>
<polygon fill="none" stroke="black" points="10.5,-237 10.5,-259 234.5,-259 234.5,-237 10.5,-237"/>
<text text-anchor="start" x="30.5" y="-245.2" font-family="Helvetica,sans-Serif" font-size="11.00">linediscount</text>
<polygon fill="none" stroke="black" points="234.5,-237 234.5,-259 297.5,-259 297.5,-237 234.5,-237"/>
<text text-anchor="start" x="237.5" y="-245.2" font-family="Helvetica,sans-Serif" font-size="11.00">numeric[0]</text>
<polygon fill="none" stroke="black" points="10.5,-215 10.5,-237 234.5,-237 234.5,-215 10.5,-215"/>
<text text-anchor="start" x="30.5" y="-223.2" font-family="Helvetica,sans-Serif" font-size="11.00">lineoverlimitamt</text>
<polygon fill="none" stroke="black" points="234.5,-215 234.5,-237 297.5,-237 297.5,-215 234.5,-215"/>
<text text-anchor="start" x="237.5" y="-223.2" font-family="Helvetica,sans-Serif" font-size="11.00">numeric[0]</text>
<polygon fill="none" stroke="black" points="10.5,-193 10.5,-215 234.5,-215 234.5,-193 10.5,-193"/>
<text text-anchor="start" x="30.5" y="-201.2" font-family="Helvetica,sans-Serif" font-size="11.00">lineoverlimit</text>
<polygon fill="none" stroke="black" points="234.5,-193 234.5,-215 297.5,-215 297.5,-193 234.5,-193"/>
<text text-anchor="start" x="237.5" y="-201.2" font-family="Helvetica,sans-Serif" font-size="11.00">numeric[0]</text>
<polygon fill="none" stroke="black" points="10.5,-171 10.5,-193 234.5,-193 234.5,-171 10.5,-171"/>
<text text-anchor="start" x="30.5" y="-179.2" font-family="Helvetica,sans-Serif" font-size="11.00">qtyinvoiced</text>
<polygon fill="none" stroke="black" points="234.5,-171 234.5,-193 297.5,-193 297.5,-171 234.5,-171"/>
<text text-anchor="start" x="237.5" y="-179.2" font-family="Helvetica,sans-Serif" font-size="11.00">numeric[0]</text>
<polygon fill="none" stroke="black" points="10.5,-149 10.5,-171 234.5,-171 234.5,-149 10.5,-149"/>
<image xlink:href="../../images/foreignKeys.png" width="11px" height="12px" preserveAspectRatio="xMinYMin meet" x="15.5" y="-166"/>
<text text-anchor="start" x="30.5" y="-157.2" font-family="Helvetica,sans-Serif" font-size="11.00">c_doctype_id</text>
<polygon fill="none" stroke="black" points="234.5,-149 234.5,-171 297.5,-171 297.5,-149 234.5,-149"/>
<text text-anchor="start" x="237.5" y="-157.2" font-family="Helvetica,sans-Serif" font-size="11.00">numeric[10]</text>
<polygon fill="none" stroke="black" points="10.5,-127 10.5,-149 234.5,-149 234.5,-127 10.5,-127"/>
<text text-anchor="start" x="30.5" y="-135.2" font-family="Helvetica,sans-Serif" font-size="11.00">docstatus</text>
<polygon fill="none" stroke="black" points="234.5,-127 234.5,-149 297.5,-149 297.5,-127 234.5,-127"/>
<text text-anchor="start" x="237.5" y="-135.2" font-family="Helvetica,sans-Serif" font-size="11.00">bpchar[2]</text>
<polygon fill="none" stroke="black" points="10.5,-105 10.5,-127 234.5,-127 234.5,-105 10.5,-105"/>
<text text-anchor="start" x="30.5" y="-113.2" font-family="Helvetica,sans-Serif" font-size="11.00">user1_id</text>
<polygon fill="none" stroke="black" points="234.5,-105 234.5,-127 297.5,-127 297.5,-105 234.5,-105"/>
<text text-anchor="start" x="237.5" y="-113.2" font-family="Helvetica,sans-Serif" font-size="11.00">numeric[10]</text>
<polygon fill="none" stroke="black" points="10.5,-83 10.5,-105 234.5,-105 234.5,-83 10.5,-83"/>
<text text-anchor="start" x="30.5" y="-91.2" font-family="Helvetica,sans-Serif" font-size="11.00">user2_id</text>
<polygon fill="none" stroke="black" points="234.5,-83 234.5,-105 297.5,-105 297.5,-83 234.5,-83"/>
<text text-anchor="start" x="237.5" y="-91.2" font-family="Helvetica,sans-Serif" font-size="11.00">numeric[10]</text>
<polygon fill="none" stroke="black" points="10.5,-61 10.5,-83 234.5,-83 234.5,-61 10.5,-61"/>
<image xlink:href="../../images/foreignKeys.png" width="11px" height="12px" preserveAspectRatio="xMinYMin meet" x="15.5" y="-78"/>
<text text-anchor="start" x="30.5" y="-69.2" font-family="Helvetica,sans-Serif" font-size="11.00">c_activity_id</text>
<polygon fill="none" stroke="black" points="234.5,-61 234.5,-83 297.5,-83 297.5,-61 234.5,-61"/>
<text text-anchor="start" x="237.5" y="-69.2" font-family="Helvetica,sans-Serif" font-size="11.00">numeric[10]</text>
<polygon fill="none" stroke="black" points="10.5,-39 10.5,-61 234.5,-61 234.5,-39 10.5,-39"/>
<text text-anchor="start" x="30.5" y="-47.2" font-family="Helvetica,sans-Serif" font-size="11.00">producttype</text>
<polygon fill="none" stroke="black" points="234.5,-39 234.5,-61 297.5,-61 297.5,-39 234.5,-39"/>
<text text-anchor="start" x="237.5" y="-47.2" font-family="Helvetica,sans-Serif" font-size="11.00">bpchar[1]</text>
<polygon fill="none" stroke="black" stroke-width="2" points="9,-38 9,-480 298,-480 298,-38 9,-38"/>
</a>
</g>
</g>
</g>
</svg>
