<?xml version="1.0" encoding="UTF-8" standalone="no"?>
<!DOCTYPE svg PUBLIC "-//W3C//DTD SVG 1.1//EN"
 "http://www.w3.org/Graphics/SVG/1.1/DTD/svg11.dtd">
<!-- Generated by graphviz version 2.43.0 (0)
 -->
<!-- Title: oneDegreeRelationshipsDiagram Pages: 1 -->
<svg width="281pt" height="317pt"
 viewBox="0.00 0.00 281.00 317.00" xmlns="http://www.w3.org/2000/svg" xmlns:xlink="http://www.w3.org/1999/xlink">
<g id="graph0" class="graph" transform="scale(1 1) rotate(0) translate(4 313)">
<title>oneDegreeRelationshipsDiagram</title>
<polygon fill="#ffffff" stroke="transparent" points="-4,4 -4,-313 277,-313 277,4 -4,4"/>
<text text-anchor="middle" x="71.5" y="-7.2" font-family="Helvetica,sans-Serif" font-size="11.00">Generated by SchemaSpy</text>
<!-- rv_m_transaction_sum -->
<g id="node1" class="node">
<title>rv_m_transaction_sum</title>
<g id="a_node1"><a xlink:href="../../tables/rv_m_transaction_sum.html" xlink:title="rv_m_transaction_sum" target="_top">
<polygon fill="#ffffff" stroke="transparent" points="8,-37 8,-305 265,-305 265,-37 8,-37"/>
<polygon fill="#f5f5f5" stroke="transparent" points="10.5,-281 10.5,-303 263.5,-303 263.5,-281 10.5,-281"/>
<polygon fill="none" stroke="black" points="10.5,-281 10.5,-303 263.5,-303 263.5,-281 10.5,-281"/>
<text text-anchor="start" x="15.5" y="-290.2" font-family="Helvetica,sans-Serif" font-weight="bold" font-size="11.00">rv_m_transaction_sum</text>
<text text-anchor="start" x="230.5" y="-289.2" font-family="Helvetica,sans-Serif" font-size="11.00">[view]</text>
<polygon fill="none" stroke="black" points="10.5,-259 10.5,-281 180.5,-281 180.5,-259 10.5,-259"/>
<text text-anchor="start" x="30.5" y="-267.2" font-family="Helvetica,sans-Serif" font-size="11.00">ad_client_id</text>
<polygon fill="none" stroke="black" points="180.5,-259 180.5,-281 263.5,-281 263.5,-259 180.5,-259"/>
<text text-anchor="start" x="183.5" y="-267.2" font-family="Helvetica,sans-Serif" font-size="11.00">numeric[10]</text>
<polygon fill="none" stroke="black" points="10.5,-237 10.5,-259 180.5,-259 180.5,-237 10.5,-237"/>
<text text-anchor="start" x="30.5" y="-245.2" font-family="Helvetica,sans-Serif" font-size="11.00">ad_org_id</text>
<polygon fill="none" stroke="black" points="180.5,-237 180.5,-259 263.5,-259 263.5,-237 180.5,-237"/>
<text text-anchor="start" x="183.5" y="-245.2" font-family="Helvetica,sans-Serif" font-size="11.00">numeric[10]</text>
<polygon fill="none" stroke="black" points="10.5,-215 10.5,-237 180.5,-237 180.5,-215 10.5,-215"/>
<text text-anchor="start" x="30.5" y="-223.2" font-family="Helvetica,sans-Serif" font-size="11.00">movementtype</text>
<polygon fill="none" stroke="black" points="180.5,-215 180.5,-237 263.5,-237 263.5,-215 180.5,-215"/>
<text text-anchor="start" x="183.5" y="-223.2" font-family="Helvetica,sans-Serif" font-size="11.00">bpchar[2]</text>
<polygon fill="none" stroke="black" points="10.5,-193 10.5,-215 180.5,-215 180.5,-193 10.5,-193"/>
<image xlink:href="../../images/foreignKeys.png" width="11px" height="12px" preserveAspectRatio="xMinYMin meet" x="15.5" y="-210"/>
<text text-anchor="start" x="30.5" y="-201.2" font-family="Helvetica,sans-Serif" font-size="11.00">m_warehouse_id</text>
<polygon fill="none" stroke="black" points="180.5,-193 180.5,-215 263.5,-215 263.5,-193 180.5,-193"/>
<text text-anchor="start" x="183.5" y="-201.2" font-family="Helvetica,sans-Serif" font-size="11.00">numeric[10]</text>
<polygon fill="none" stroke="black" points="10.5,-171 10.5,-193 180.5,-193 180.5,-171 10.5,-171"/>
<image xlink:href="../../images/foreignKeys.png" width="11px" height="12px" preserveAspectRatio="xMinYMin meet" x="15.5" y="-188"/>
<text text-anchor="start" x="30.5" y="-179.2" font-family="Helvetica,sans-Serif" font-size="11.00">m_locator_id</text>
<polygon fill="none" stroke="black" points="180.5,-171 180.5,-193 263.5,-193 263.5,-171 180.5,-171"/>
<text text-anchor="start" x="183.5" y="-179.2" font-family="Helvetica,sans-Serif" font-size="11.00">numeric[10]</text>
<polygon fill="none" stroke="black" points="10.5,-149 10.5,-171 180.5,-171 180.5,-149 10.5,-149"/>
<image xlink:href="../../images/foreignKeys.png" width="11px" height="12px" preserveAspectRatio="xMinYMin meet" x="15.5" y="-166"/>
<text text-anchor="start" x="30.5" y="-157.2" font-family="Helvetica,sans-Serif" font-size="11.00">m_product_id</text>
<polygon fill="none" stroke="black" points="180.5,-149 180.5,-171 263.5,-171 263.5,-149 180.5,-149"/>
<text text-anchor="start" x="183.5" y="-157.2" font-family="Helvetica,sans-Serif" font-size="11.00">numeric[10]</text>
<polygon fill="none" stroke="black" points="10.5,-127 10.5,-149 180.5,-149 180.5,-127 10.5,-127"/>
<text text-anchor="start" x="30.5" y="-135.2" font-family="Helvetica,sans-Serif" font-size="11.00">movementdate</text>
<polygon fill="none" stroke="black" points="180.5,-127 180.5,-149 263.5,-149 263.5,-127 180.5,-127"/>
<text text-anchor="start" x="183.5" y="-135.2" font-family="Helvetica,sans-Serif" font-size="11.00">timestamp[29,6]</text>
<polygon fill="none" stroke="black" points="10.5,-105 10.5,-127 180.5,-127 180.5,-105 10.5,-105"/>
<text text-anchor="start" x="30.5" y="-113.2" font-family="Helvetica,sans-Serif" font-size="11.00">movementqty</text>
<polygon fill="none" stroke="black" points="180.5,-105 180.5,-127 263.5,-127 263.5,-105 180.5,-105"/>
<text text-anchor="start" x="183.5" y="-113.2" font-family="Helvetica,sans-Serif" font-size="11.00">numeric[0]</text>
<polygon fill="none" stroke="black" points="10.5,-83 10.5,-105 180.5,-105 180.5,-83 10.5,-83"/>
<image xlink:href="../../images/foreignKeys.png" width="11px" height="12px" preserveAspectRatio="xMinYMin meet" x="15.5" y="-100"/>
<text text-anchor="start" x="30.5" y="-91.2" font-family="Helvetica,sans-Serif" font-size="11.00">cof_producttype_id</text>
<polygon fill="none" stroke="black" points="180.5,-83 180.5,-105 263.5,-105 263.5,-83 180.5,-83"/>
<text text-anchor="start" x="183.5" y="-91.2" font-family="Helvetica,sans-Serif" font-size="11.00">numeric[10]</text>
<polygon fill="none" stroke="black" points="10.5,-61 10.5,-83 180.5,-83 180.5,-61 10.5,-61"/>
<image xlink:href="../../images/foreignKeys.png" width="11px" height="12px" preserveAspectRatio="xMinYMin meet" x="15.5" y="-78"/>
<text text-anchor="start" x="30.5" y="-69.2" font-family="Helvetica,sans-Serif" font-size="11.00">cof_productclass_id</text>
<polygon fill="none" stroke="black" points="180.5,-61 180.5,-83 263.5,-83 263.5,-61 180.5,-61"/>
<text text-anchor="start" x="183.5" y="-69.2" font-family="Helvetica,sans-Serif" font-size="11.00">numeric[10]</text>
<polygon fill="none" stroke="black" points="10.5,-39 10.5,-61 180.5,-61 180.5,-39 10.5,-39"/>
<image xlink:href="../../images/foreignKeys.png" width="11px" height="12px" preserveAspectRatio="xMinYMin meet" x="15.5" y="-56"/>
<text text-anchor="start" x="30.5" y="-47.2" font-family="Helvetica,sans-Serif" font-size="11.00">cof_productgroup_id</text>
<polygon fill="none" stroke="black" points="180.5,-39 180.5,-61 263.5,-61 263.5,-39 180.5,-39"/>
<text text-anchor="start" x="183.5" y="-47.2" font-family="Helvetica,sans-Serif" font-size="11.00">numeric[10]</text>
<polygon fill="none" stroke="black" stroke-width="2" points="9,-38 9,-304 264,-304 264,-38 9,-38"/>
</a>
</g>
</g>
</g>
</svg>
