<?xml version="1.0" encoding="UTF-8" standalone="no"?>
<!DOCTYPE svg PUBLIC "-//W3C//DTD SVG 1.1//EN"
 "http://www.w3.org/Graphics/SVG/1.1/DTD/svg11.dtd">
<!-- Generated by graphviz version 2.43.0 (0)
 -->
<!-- Title: oneDegreeRelationshipsDiagram Pages: 1 -->
<svg width="294pt" height="1549pt"
 viewBox="0.00 0.00 294.00 1549.00" xmlns="http://www.w3.org/2000/svg" xmlns:xlink="http://www.w3.org/1999/xlink">
<g id="graph0" class="graph" transform="scale(1 1) rotate(0) translate(4 1545)">
<title>oneDegreeRelationshipsDiagram</title>
<polygon fill="#ffffff" stroke="transparent" points="-4,4 -4,-1545 290,-1545 290,4 -4,4"/>
<text text-anchor="middle" x="71.5" y="-7.2" font-family="Helvetica,sans-Serif" font-size="11.00">Generated by SchemaSpy</text>
<!-- rv_printformatdetail -->
<g id="node1" class="node">
<title>rv_printformatdetail</title>
<g id="a_node1"><a xlink:href="../../tables/rv_printformatdetail.html" xlink:title="rv_printformatdetail" target="_top">
<polygon fill="#ffffff" stroke="transparent" points="8,-37 8,-1537 278,-1537 278,-37 8,-37"/>
<polygon fill="#f5f5f5" stroke="transparent" points="10,-1513 10,-1535 276,-1535 276,-1513 10,-1513"/>
<polygon fill="none" stroke="black" points="10,-1513 10,-1535 276,-1535 276,-1513 10,-1513"/>
<text text-anchor="start" x="15" y="-1522.2" font-family="Helvetica,sans-Serif" font-weight="bold" font-size="11.00">rv_printformatdetail</text>
<text text-anchor="start" x="243" y="-1521.2" font-family="Helvetica,sans-Serif" font-size="11.00">[view]</text>
<polygon fill="none" stroke="black" points="10,-1491 10,-1513 193,-1513 193,-1491 10,-1491"/>
<text text-anchor="start" x="30" y="-1499.2" font-family="Helvetica,sans-Serif" font-size="11.00">ad_client_id</text>
<polygon fill="none" stroke="black" points="193,-1491 193,-1513 276,-1513 276,-1491 193,-1491"/>
<text text-anchor="start" x="196" y="-1499.2" font-family="Helvetica,sans-Serif" font-size="11.00">numeric[10]</text>
<polygon fill="none" stroke="black" points="10,-1469 10,-1491 193,-1491 193,-1469 10,-1469"/>
<text text-anchor="start" x="30" y="-1477.2" font-family="Helvetica,sans-Serif" font-size="11.00">ad_org_id</text>
<polygon fill="none" stroke="black" points="193,-1469 193,-1491 276,-1491 276,-1469 193,-1469"/>
<text text-anchor="start" x="196" y="-1477.2" font-family="Helvetica,sans-Serif" font-size="11.00">numeric[10]</text>
<polygon fill="none" stroke="black" points="10,-1447 10,-1469 193,-1469 193,-1447 10,-1447"/>
<text text-anchor="start" x="30" y="-1455.2" font-family="Helvetica,sans-Serif" font-size="11.00">isactive</text>
<polygon fill="none" stroke="black" points="193,-1447 193,-1469 276,-1469 276,-1447 193,-1447"/>
<text text-anchor="start" x="196" y="-1455.2" font-family="Helvetica,sans-Serif" font-size="11.00">bpchar[1]</text>
<polygon fill="none" stroke="black" points="10,-1425 10,-1447 193,-1447 193,-1425 10,-1425"/>
<text text-anchor="start" x="30" y="-1433.2" font-family="Helvetica,sans-Serif" font-size="11.00">created</text>
<polygon fill="none" stroke="black" points="193,-1425 193,-1447 276,-1447 276,-1425 193,-1425"/>
<text text-anchor="start" x="196" y="-1433.2" font-family="Helvetica,sans-Serif" font-size="11.00">timestamp[29,6]</text>
<polygon fill="none" stroke="black" points="10,-1403 10,-1425 193,-1425 193,-1403 10,-1403"/>
<text text-anchor="start" x="30" y="-1411.2" font-family="Helvetica,sans-Serif" font-size="11.00">createdby</text>
<polygon fill="none" stroke="black" points="193,-1403 193,-1425 276,-1425 276,-1403 193,-1403"/>
<text text-anchor="start" x="196" y="-1411.2" font-family="Helvetica,sans-Serif" font-size="11.00">numeric[10]</text>
<polygon fill="none" stroke="black" points="10,-1381 10,-1403 193,-1403 193,-1381 10,-1381"/>
<text text-anchor="start" x="30" y="-1389.2" font-family="Helvetica,sans-Serif" font-size="11.00">updated</text>
<polygon fill="none" stroke="black" points="193,-1381 193,-1403 276,-1403 276,-1381 193,-1381"/>
<text text-anchor="start" x="196" y="-1389.2" font-family="Helvetica,sans-Serif" font-size="11.00">timestamp[29,6]</text>
<polygon fill="none" stroke="black" points="10,-1359 10,-1381 193,-1381 193,-1359 10,-1359"/>
<text text-anchor="start" x="30" y="-1367.2" font-family="Helvetica,sans-Serif" font-size="11.00">updatedby</text>
<polygon fill="none" stroke="black" points="193,-1359 193,-1381 276,-1381 276,-1359 193,-1359"/>
<text text-anchor="start" x="196" y="-1367.2" font-family="Helvetica,sans-Serif" font-size="11.00">numeric[10]</text>
<polygon fill="none" stroke="black" points="10,-1337 10,-1359 193,-1359 193,-1337 10,-1337"/>
<image xlink:href="../../images/foreignKeys.png" width="11px" height="12px" preserveAspectRatio="xMinYMin meet" x="15" y="-1354"/>
<text text-anchor="start" x="30" y="-1345.2" font-family="Helvetica,sans-Serif" font-size="11.00">ad_printformat_id</text>
<polygon fill="none" stroke="black" points="193,-1337 193,-1359 276,-1359 276,-1337 193,-1337"/>
<text text-anchor="start" x="196" y="-1345.2" font-family="Helvetica,sans-Serif" font-size="11.00">numeric[10]</text>
<polygon fill="none" stroke="black" points="10,-1315 10,-1337 193,-1337 193,-1315 10,-1315"/>
<text text-anchor="start" x="30" y="-1323.2" font-family="Helvetica,sans-Serif" font-size="11.00">name</text>
<polygon fill="none" stroke="black" points="193,-1315 193,-1337 276,-1337 276,-1315 193,-1315"/>
<text text-anchor="start" x="196" y="-1323.2" font-family="Helvetica,sans-Serif" font-size="11.00">varchar[60]</text>
<polygon fill="none" stroke="black" points="10,-1293 10,-1315 193,-1315 193,-1293 10,-1293"/>
<text text-anchor="start" x="30" y="-1301.2" font-family="Helvetica,sans-Serif" font-size="11.00">description</text>
<polygon fill="none" stroke="black" points="193,-1293 193,-1315 276,-1315 276,-1293 193,-1293"/>
<text text-anchor="start" x="196" y="-1301.2" font-family="Helvetica,sans-Serif" font-size="11.00">varchar[255]</text>
<polygon fill="none" stroke="black" points="10,-1271 10,-1293 193,-1293 193,-1271 10,-1271"/>
<text text-anchor="start" x="30" y="-1279.2" font-family="Helvetica,sans-Serif" font-size="11.00">istablebased</text>
<polygon fill="none" stroke="black" points="193,-1271 193,-1293 276,-1293 276,-1271 193,-1271"/>
<text text-anchor="start" x="196" y="-1279.2" font-family="Helvetica,sans-Serif" font-size="11.00">bpchar[1]</text>
<polygon fill="none" stroke="black" points="10,-1249 10,-1271 193,-1271 193,-1249 10,-1249"/>
<text text-anchor="start" x="30" y="-1257.2" font-family="Helvetica,sans-Serif" font-size="11.00">isform</text>
<polygon fill="none" stroke="black" points="193,-1249 193,-1271 276,-1271 276,-1249 193,-1249"/>
<text text-anchor="start" x="196" y="-1257.2" font-family="Helvetica,sans-Serif" font-size="11.00">bpchar[1]</text>
<polygon fill="none" stroke="black" points="10,-1227 10,-1249 193,-1249 193,-1227 10,-1227"/>
<image xlink:href="../../images/foreignKeys.png" width="11px" height="12px" preserveAspectRatio="xMinYMin meet" x="15" y="-1244"/>
<text text-anchor="start" x="30" y="-1235.2" font-family="Helvetica,sans-Serif" font-size="11.00">ad_table_id</text>
<polygon fill="none" stroke="black" points="193,-1227 193,-1249 276,-1249 276,-1227 193,-1227"/>
<text text-anchor="start" x="196" y="-1235.2" font-family="Helvetica,sans-Serif" font-size="11.00">numeric[10]</text>
<polygon fill="none" stroke="black" points="10,-1205 10,-1227 193,-1227 193,-1205 10,-1205"/>
<image xlink:href="../../images/foreignKeys.png" width="11px" height="12px" preserveAspectRatio="xMinYMin meet" x="15" y="-1222"/>
<text text-anchor="start" x="30" y="-1213.2" font-family="Helvetica,sans-Serif" font-size="11.00">ad_reportview_id</text>
<polygon fill="none" stroke="black" points="193,-1205 193,-1227 276,-1227 276,-1205 193,-1205"/>
<text text-anchor="start" x="196" y="-1213.2" font-family="Helvetica,sans-Serif" font-size="11.00">numeric[10]</text>
<polygon fill="none" stroke="black" points="10,-1183 10,-1205 193,-1205 193,-1183 10,-1183"/>
<image xlink:href="../../images/foreignKeys.png" width="11px" height="12px" preserveAspectRatio="xMinYMin meet" x="15" y="-1200"/>
<text text-anchor="start" x="30" y="-1191.2" font-family="Helvetica,sans-Serif" font-size="11.00">ad_printpaper_id</text>
<polygon fill="none" stroke="black" points="193,-1183 193,-1205 276,-1205 276,-1183 193,-1183"/>
<text text-anchor="start" x="196" y="-1191.2" font-family="Helvetica,sans-Serif" font-size="11.00">numeric[10]</text>
<polygon fill="none" stroke="black" points="10,-1161 10,-1183 193,-1183 193,-1161 10,-1161"/>
<image xlink:href="../../images/foreignKeys.png" width="11px" height="12px" preserveAspectRatio="xMinYMin meet" x="15" y="-1178"/>
<text text-anchor="start" x="30" y="-1169.2" font-family="Helvetica,sans-Serif" font-size="11.00">default_ad_printcolor_id</text>
<polygon fill="none" stroke="black" points="193,-1161 193,-1183 276,-1183 276,-1161 193,-1161"/>
<text text-anchor="start" x="196" y="-1169.2" font-family="Helvetica,sans-Serif" font-size="11.00">numeric[10]</text>
<polygon fill="none" stroke="black" points="10,-1139 10,-1161 193,-1161 193,-1139 10,-1139"/>
<image xlink:href="../../images/foreignKeys.png" width="11px" height="12px" preserveAspectRatio="xMinYMin meet" x="15" y="-1156"/>
<text text-anchor="start" x="30" y="-1147.2" font-family="Helvetica,sans-Serif" font-size="11.00">default_ad_printfont_id</text>
<polygon fill="none" stroke="black" points="193,-1139 193,-1161 276,-1161 276,-1139 193,-1139"/>
<text text-anchor="start" x="196" y="-1147.2" font-family="Helvetica,sans-Serif" font-size="11.00">numeric[10]</text>
<polygon fill="none" stroke="black" points="10,-1117 10,-1139 193,-1139 193,-1117 10,-1117"/>
<text text-anchor="start" x="30" y="-1125.2" font-family="Helvetica,sans-Serif" font-size="11.00">isstandardheaderfooter</text>
<polygon fill="none" stroke="black" points="193,-1117 193,-1139 276,-1139 276,-1117 193,-1117"/>
<text text-anchor="start" x="196" y="-1125.2" font-family="Helvetica,sans-Serif" font-size="11.00">bpchar[1]</text>
<polygon fill="none" stroke="black" points="10,-1095 10,-1117 193,-1117 193,-1095 10,-1095"/>
<image xlink:href="../../images/foreignKeys.png" width="11px" height="12px" preserveAspectRatio="xMinYMin meet" x="15" y="-1112"/>
<text text-anchor="start" x="30" y="-1103.2" font-family="Helvetica,sans-Serif" font-size="11.00">ad_printtableformat_id</text>
<polygon fill="none" stroke="black" points="193,-1095 193,-1117 276,-1117 276,-1095 193,-1095"/>
<text text-anchor="start" x="196" y="-1103.2" font-family="Helvetica,sans-Serif" font-size="11.00">numeric[10]</text>
<polygon fill="none" stroke="black" points="10,-1073 10,-1095 193,-1095 193,-1073 10,-1073"/>
<text text-anchor="start" x="30" y="-1081.2" font-family="Helvetica,sans-Serif" font-size="11.00">headermargin</text>
<polygon fill="none" stroke="black" points="193,-1073 193,-1095 276,-1095 276,-1073 193,-1073"/>
<text text-anchor="start" x="196" y="-1081.2" font-family="Helvetica,sans-Serif" font-size="11.00">numeric[10]</text>
<polygon fill="none" stroke="black" points="10,-1051 10,-1073 193,-1073 193,-1051 10,-1051"/>
<text text-anchor="start" x="30" y="-1059.2" font-family="Helvetica,sans-Serif" font-size="11.00">footermargin</text>
<polygon fill="none" stroke="black" points="193,-1051 193,-1073 276,-1073 276,-1051 193,-1051"/>
<text text-anchor="start" x="196" y="-1059.2" font-family="Helvetica,sans-Serif" font-size="11.00">numeric[10]</text>
<polygon fill="none" stroke="black" points="10,-1029 10,-1051 193,-1051 193,-1029 10,-1029"/>
<text text-anchor="start" x="30" y="-1037.2" font-family="Helvetica,sans-Serif" font-size="11.00">printername</text>
<polygon fill="none" stroke="black" points="193,-1029 193,-1051 276,-1051 276,-1029 193,-1029"/>
<text text-anchor="start" x="196" y="-1037.2" font-family="Helvetica,sans-Serif" font-size="11.00">varchar[40]</text>
<polygon fill="none" stroke="black" points="10,-1007 10,-1029 193,-1029 193,-1007 10,-1007"/>
<text text-anchor="start" x="30" y="-1015.2" font-family="Helvetica,sans-Serif" font-size="11.00">isdefault</text>
<polygon fill="none" stroke="black" points="193,-1007 193,-1029 276,-1029 276,-1007 193,-1007"/>
<text text-anchor="start" x="196" y="-1015.2" font-family="Helvetica,sans-Serif" font-size="11.00">bpchar[1]</text>
<polygon fill="none" stroke="black" points="10,-985 10,-1007 193,-1007 193,-985 10,-985"/>
<image xlink:href="../../images/foreignKeys.png" width="11px" height="12px" preserveAspectRatio="xMinYMin meet" x="15" y="-1002"/>
<text text-anchor="start" x="30" y="-993.2" font-family="Helvetica,sans-Serif" font-size="11.00">ad_printformatitem_id</text>
<polygon fill="none" stroke="black" points="193,-985 193,-1007 276,-1007 276,-985 193,-985"/>
<text text-anchor="start" x="196" y="-993.2" font-family="Helvetica,sans-Serif" font-size="11.00">numeric[10]</text>
<polygon fill="none" stroke="black" points="10,-963 10,-985 193,-985 193,-963 10,-963"/>
<text text-anchor="start" x="30" y="-971.2" font-family="Helvetica,sans-Serif" font-size="11.00">itemname</text>
<polygon fill="none" stroke="black" points="193,-963 193,-985 276,-985 276,-963 193,-963"/>
<text text-anchor="start" x="196" y="-971.2" font-family="Helvetica,sans-Serif" font-size="11.00">varchar[60]</text>
<polygon fill="none" stroke="black" points="10,-941 10,-963 193,-963 193,-941 10,-941"/>
<text text-anchor="start" x="30" y="-949.2" font-family="Helvetica,sans-Serif" font-size="11.00">printname</text>
<polygon fill="none" stroke="black" points="193,-941 193,-963 276,-963 276,-941 193,-941"/>
<text text-anchor="start" x="196" y="-949.2" font-family="Helvetica,sans-Serif" font-size="11.00">varchar[2000]</text>
<polygon fill="none" stroke="black" points="10,-919 10,-941 193,-941 193,-919 10,-919"/>
<text text-anchor="start" x="30" y="-927.2" font-family="Helvetica,sans-Serif" font-size="11.00">printnamesuffix</text>
<polygon fill="none" stroke="black" points="193,-919 193,-941 276,-941 276,-919 193,-919"/>
<text text-anchor="start" x="196" y="-927.2" font-family="Helvetica,sans-Serif" font-size="11.00">varchar[60]</text>
<polygon fill="none" stroke="black" points="10,-897 10,-919 193,-919 193,-897 10,-897"/>
<text text-anchor="start" x="30" y="-905.2" font-family="Helvetica,sans-Serif" font-size="11.00">isprinted</text>
<polygon fill="none" stroke="black" points="193,-897 193,-919 276,-919 276,-897 193,-897"/>
<text text-anchor="start" x="196" y="-905.2" font-family="Helvetica,sans-Serif" font-size="11.00">bpchar[1]</text>
<polygon fill="none" stroke="black" points="10,-875 10,-897 193,-897 193,-875 10,-875"/>
<text text-anchor="start" x="30" y="-883.2" font-family="Helvetica,sans-Serif" font-size="11.00">printareatype</text>
<polygon fill="none" stroke="black" points="193,-875 193,-897 276,-897 276,-875 193,-875"/>
<text text-anchor="start" x="196" y="-883.2" font-family="Helvetica,sans-Serif" font-size="11.00">bpchar[1]</text>
<polygon fill="none" stroke="black" points="10,-853 10,-875 193,-875 193,-853 10,-853"/>
<text text-anchor="start" x="30" y="-861.2" font-family="Helvetica,sans-Serif" font-size="11.00">seqno</text>
<polygon fill="none" stroke="black" points="193,-853 193,-875 276,-875 276,-853 193,-853"/>
<text text-anchor="start" x="196" y="-861.2" font-family="Helvetica,sans-Serif" font-size="11.00">numeric[10]</text>
<polygon fill="none" stroke="black" points="10,-831 10,-853 193,-853 193,-831 10,-831"/>
<text text-anchor="start" x="30" y="-839.2" font-family="Helvetica,sans-Serif" font-size="11.00">printformattype</text>
<polygon fill="none" stroke="black" points="193,-831 193,-853 276,-853 276,-831 193,-831"/>
<text text-anchor="start" x="196" y="-839.2" font-family="Helvetica,sans-Serif" font-size="11.00">bpchar[1]</text>
<polygon fill="none" stroke="black" points="10,-809 10,-831 193,-831 193,-809 10,-809"/>
<image xlink:href="../../images/foreignKeys.png" width="11px" height="12px" preserveAspectRatio="xMinYMin meet" x="15" y="-826"/>
<text text-anchor="start" x="30" y="-817.2" font-family="Helvetica,sans-Serif" font-size="11.00">ad_column_id</text>
<polygon fill="none" stroke="black" points="193,-809 193,-831 276,-831 276,-809 193,-809"/>
<text text-anchor="start" x="196" y="-817.2" font-family="Helvetica,sans-Serif" font-size="11.00">numeric[10]</text>
<polygon fill="none" stroke="black" points="10,-787 10,-809 193,-809 193,-787 10,-787"/>
<text text-anchor="start" x="30" y="-795.2" font-family="Helvetica,sans-Serif" font-size="11.00">ad_printformatchild_id</text>
<polygon fill="none" stroke="black" points="193,-787 193,-809 276,-809 276,-787 193,-787"/>
<text text-anchor="start" x="196" y="-795.2" font-family="Helvetica,sans-Serif" font-size="11.00">numeric[10]</text>
<polygon fill="none" stroke="black" points="10,-765 10,-787 193,-787 193,-765 10,-765"/>
<text text-anchor="start" x="30" y="-773.2" font-family="Helvetica,sans-Serif" font-size="11.00">imageisattached</text>
<polygon fill="none" stroke="black" points="193,-765 193,-787 276,-787 276,-765 193,-765"/>
<text text-anchor="start" x="196" y="-773.2" font-family="Helvetica,sans-Serif" font-size="11.00">bpchar[1]</text>
<polygon fill="none" stroke="black" points="10,-743 10,-765 193,-765 193,-743 10,-743"/>
<text text-anchor="start" x="30" y="-751.2" font-family="Helvetica,sans-Serif" font-size="11.00">imageurl</text>
<polygon fill="none" stroke="black" points="193,-743 193,-765 276,-765 276,-743 193,-743"/>
<text text-anchor="start" x="196" y="-751.2" font-family="Helvetica,sans-Serif" font-size="11.00">varchar[120]</text>
<polygon fill="none" stroke="black" points="10,-721 10,-743 193,-743 193,-721 10,-721"/>
<text text-anchor="start" x="30" y="-729.2" font-family="Helvetica,sans-Serif" font-size="11.00">isrelativeposition</text>
<polygon fill="none" stroke="black" points="193,-721 193,-743 276,-743 276,-721 193,-721"/>
<text text-anchor="start" x="196" y="-729.2" font-family="Helvetica,sans-Serif" font-size="11.00">bpchar[1]</text>
<polygon fill="none" stroke="black" points="10,-699 10,-721 193,-721 193,-699 10,-699"/>
<text text-anchor="start" x="30" y="-707.2" font-family="Helvetica,sans-Serif" font-size="11.00">isnextline</text>
<polygon fill="none" stroke="black" points="193,-699 193,-721 276,-721 276,-699 193,-699"/>
<text text-anchor="start" x="196" y="-707.2" font-family="Helvetica,sans-Serif" font-size="11.00">bpchar[1]</text>
<polygon fill="none" stroke="black" points="10,-677 10,-699 193,-699 193,-677 10,-677"/>
<text text-anchor="start" x="30" y="-685.2" font-family="Helvetica,sans-Serif" font-size="11.00">xspace</text>
<polygon fill="none" stroke="black" points="193,-677 193,-699 276,-699 276,-677 193,-677"/>
<text text-anchor="start" x="196" y="-685.2" font-family="Helvetica,sans-Serif" font-size="11.00">numeric[10]</text>
<polygon fill="none" stroke="black" points="10,-655 10,-677 193,-677 193,-655 10,-655"/>
<text text-anchor="start" x="30" y="-663.2" font-family="Helvetica,sans-Serif" font-size="11.00">yspace</text>
<polygon fill="none" stroke="black" points="193,-655 193,-677 276,-677 276,-655 193,-655"/>
<text text-anchor="start" x="196" y="-663.2" font-family="Helvetica,sans-Serif" font-size="11.00">numeric[10]</text>
<polygon fill="none" stroke="black" points="10,-633 10,-655 193,-655 193,-633 10,-633"/>
<text text-anchor="start" x="30" y="-641.2" font-family="Helvetica,sans-Serif" font-size="11.00">xposition</text>
<polygon fill="none" stroke="black" points="193,-633 193,-655 276,-655 276,-633 193,-633"/>
<text text-anchor="start" x="196" y="-641.2" font-family="Helvetica,sans-Serif" font-size="11.00">numeric[10]</text>
<polygon fill="none" stroke="black" points="10,-611 10,-633 193,-633 193,-611 10,-611"/>
<text text-anchor="start" x="30" y="-619.2" font-family="Helvetica,sans-Serif" font-size="11.00">yposition</text>
<polygon fill="none" stroke="black" points="193,-611 193,-633 276,-633 276,-611 193,-611"/>
<text text-anchor="start" x="196" y="-619.2" font-family="Helvetica,sans-Serif" font-size="11.00">numeric[10]</text>
<polygon fill="none" stroke="black" points="10,-589 10,-611 193,-611 193,-589 10,-589"/>
<text text-anchor="start" x="30" y="-597.2" font-family="Helvetica,sans-Serif" font-size="11.00">maxwidth</text>
<polygon fill="none" stroke="black" points="193,-589 193,-611 276,-611 276,-589 193,-589"/>
<text text-anchor="start" x="196" y="-597.2" font-family="Helvetica,sans-Serif" font-size="11.00">numeric[10]</text>
<polygon fill="none" stroke="black" points="10,-567 10,-589 193,-589 193,-567 10,-567"/>
<text text-anchor="start" x="30" y="-575.2" font-family="Helvetica,sans-Serif" font-size="11.00">isheightoneline</text>
<polygon fill="none" stroke="black" points="193,-567 193,-589 276,-589 276,-567 193,-567"/>
<text text-anchor="start" x="196" y="-575.2" font-family="Helvetica,sans-Serif" font-size="11.00">bpchar[1]</text>
<polygon fill="none" stroke="black" points="10,-545 10,-567 193,-567 193,-545 10,-545"/>
<text text-anchor="start" x="30" y="-553.2" font-family="Helvetica,sans-Serif" font-size="11.00">maxheight</text>
<polygon fill="none" stroke="black" points="193,-545 193,-567 276,-567 276,-545 193,-545"/>
<text text-anchor="start" x="196" y="-553.2" font-family="Helvetica,sans-Serif" font-size="11.00">numeric[10]</text>
<polygon fill="none" stroke="black" points="10,-523 10,-545 193,-545 193,-523 10,-523"/>
<text text-anchor="start" x="30" y="-531.2" font-family="Helvetica,sans-Serif" font-size="11.00">isfixedwidth</text>
<polygon fill="none" stroke="black" points="193,-523 193,-545 276,-545 276,-523 193,-523"/>
<text text-anchor="start" x="196" y="-531.2" font-family="Helvetica,sans-Serif" font-size="11.00">bpchar[1]</text>
<polygon fill="none" stroke="black" points="10,-501 10,-523 193,-523 193,-501 10,-501"/>
<text text-anchor="start" x="30" y="-509.2" font-family="Helvetica,sans-Serif" font-size="11.00">issetnlposition</text>
<polygon fill="none" stroke="black" points="193,-501 193,-523 276,-523 276,-501 193,-501"/>
<text text-anchor="start" x="196" y="-509.2" font-family="Helvetica,sans-Serif" font-size="11.00">bpchar[1]</text>
<polygon fill="none" stroke="black" points="10,-479 10,-501 193,-501 193,-479 10,-479"/>
<text text-anchor="start" x="30" y="-487.2" font-family="Helvetica,sans-Serif" font-size="11.00">issuppressnull</text>
<polygon fill="none" stroke="black" points="193,-479 193,-501 276,-501 276,-479 193,-479"/>
<text text-anchor="start" x="196" y="-487.2" font-family="Helvetica,sans-Serif" font-size="11.00">bpchar[1]</text>
<polygon fill="none" stroke="black" points="10,-457 10,-479 193,-479 193,-457 10,-457"/>
<text text-anchor="start" x="30" y="-465.2" font-family="Helvetica,sans-Serif" font-size="11.00">belowcolumn</text>
<polygon fill="none" stroke="black" points="193,-457 193,-479 276,-479 276,-457 193,-457"/>
<text text-anchor="start" x="196" y="-465.2" font-family="Helvetica,sans-Serif" font-size="11.00">numeric[10]</text>
<polygon fill="none" stroke="black" points="10,-435 10,-457 193,-457 193,-435 10,-435"/>
<text text-anchor="start" x="30" y="-443.2" font-family="Helvetica,sans-Serif" font-size="11.00">fieldalignmenttype</text>
<polygon fill="none" stroke="black" points="193,-435 193,-457 276,-457 276,-435 193,-435"/>
<text text-anchor="start" x="196" y="-443.2" font-family="Helvetica,sans-Serif" font-size="11.00">bpchar[1]</text>
<polygon fill="none" stroke="black" points="10,-413 10,-435 193,-435 193,-413 10,-413"/>
<text text-anchor="start" x="30" y="-421.2" font-family="Helvetica,sans-Serif" font-size="11.00">linealignmenttype</text>
<polygon fill="none" stroke="black" points="193,-413 193,-435 276,-435 276,-413 193,-413"/>
<text text-anchor="start" x="196" y="-421.2" font-family="Helvetica,sans-Serif" font-size="11.00">bpchar[1]</text>
<polygon fill="none" stroke="black" points="10,-391 10,-413 193,-413 193,-391 10,-391"/>
<image xlink:href="../../images/foreignKeys.png" width="11px" height="12px" preserveAspectRatio="xMinYMin meet" x="15" y="-408"/>
<text text-anchor="start" x="30" y="-399.2" font-family="Helvetica,sans-Serif" font-size="11.00">ad_printcolor_id</text>
<polygon fill="none" stroke="black" points="193,-391 193,-413 276,-413 276,-391 193,-391"/>
<text text-anchor="start" x="196" y="-399.2" font-family="Helvetica,sans-Serif" font-size="11.00">numeric[10]</text>
<polygon fill="none" stroke="black" points="10,-369 10,-391 193,-391 193,-369 10,-369"/>
<image xlink:href="../../images/foreignKeys.png" width="11px" height="12px" preserveAspectRatio="xMinYMin meet" x="15" y="-386"/>
<text text-anchor="start" x="30" y="-377.2" font-family="Helvetica,sans-Serif" font-size="11.00">ad_printfont_id</text>
<polygon fill="none" stroke="black" points="193,-369 193,-391 276,-391 276,-369 193,-369"/>
<text text-anchor="start" x="196" y="-377.2" font-family="Helvetica,sans-Serif" font-size="11.00">numeric[10]</text>
<polygon fill="none" stroke="black" points="10,-347 10,-369 193,-369 193,-347 10,-347"/>
<text text-anchor="start" x="30" y="-355.2" font-family="Helvetica,sans-Serif" font-size="11.00">isorderby</text>
<polygon fill="none" stroke="black" points="193,-347 193,-369 276,-369 276,-347 193,-347"/>
<text text-anchor="start" x="196" y="-355.2" font-family="Helvetica,sans-Serif" font-size="11.00">bpchar[1]</text>
<polygon fill="none" stroke="black" points="10,-325 10,-347 193,-347 193,-325 10,-325"/>
<text text-anchor="start" x="30" y="-333.2" font-family="Helvetica,sans-Serif" font-size="11.00">sortno</text>
<polygon fill="none" stroke="black" points="193,-325 193,-347 276,-347 276,-325 193,-325"/>
<text text-anchor="start" x="196" y="-333.2" font-family="Helvetica,sans-Serif" font-size="11.00">numeric[10]</text>
<polygon fill="none" stroke="black" points="10,-303 10,-325 193,-325 193,-303 10,-303"/>
<text text-anchor="start" x="30" y="-311.2" font-family="Helvetica,sans-Serif" font-size="11.00">isgroupby</text>
<polygon fill="none" stroke="black" points="193,-303 193,-325 276,-325 276,-303 193,-303"/>
<text text-anchor="start" x="196" y="-311.2" font-family="Helvetica,sans-Serif" font-size="11.00">bpchar[1]</text>
<polygon fill="none" stroke="black" points="10,-281 10,-303 193,-303 193,-281 10,-281"/>
<text text-anchor="start" x="30" y="-289.2" font-family="Helvetica,sans-Serif" font-size="11.00">ispagebreak</text>
<polygon fill="none" stroke="black" points="193,-281 193,-303 276,-303 276,-281 193,-281"/>
<text text-anchor="start" x="196" y="-289.2" font-family="Helvetica,sans-Serif" font-size="11.00">bpchar[1]</text>
<polygon fill="none" stroke="black" points="10,-259 10,-281 193,-281 193,-259 10,-259"/>
<text text-anchor="start" x="30" y="-267.2" font-family="Helvetica,sans-Serif" font-size="11.00">isnextpage</text>
<polygon fill="none" stroke="black" points="193,-259 193,-281 276,-281 276,-259 193,-259"/>
<text text-anchor="start" x="196" y="-267.2" font-family="Helvetica,sans-Serif" font-size="11.00">bpchar[1]</text>
<polygon fill="none" stroke="black" points="10,-237 10,-259 193,-259 193,-237 10,-237"/>
<text text-anchor="start" x="30" y="-245.2" font-family="Helvetica,sans-Serif" font-size="11.00">issummarized</text>
<polygon fill="none" stroke="black" points="193,-237 193,-259 276,-259 276,-237 193,-237"/>
<text text-anchor="start" x="196" y="-245.2" font-family="Helvetica,sans-Serif" font-size="11.00">bpchar[1]</text>
<polygon fill="none" stroke="black" points="10,-215 10,-237 193,-237 193,-215 10,-215"/>
<text text-anchor="start" x="30" y="-223.2" font-family="Helvetica,sans-Serif" font-size="11.00">isaveraged</text>
<polygon fill="none" stroke="black" points="193,-215 193,-237 276,-237 276,-215 193,-215"/>
<text text-anchor="start" x="196" y="-223.2" font-family="Helvetica,sans-Serif" font-size="11.00">bpchar[1]</text>
<polygon fill="none" stroke="black" points="10,-193 10,-215 193,-215 193,-193 10,-193"/>
<text text-anchor="start" x="30" y="-201.2" font-family="Helvetica,sans-Serif" font-size="11.00">iscounted</text>
<polygon fill="none" stroke="black" points="193,-193 193,-215 276,-215 276,-193 193,-193"/>
<text text-anchor="start" x="196" y="-201.2" font-family="Helvetica,sans-Serif" font-size="11.00">bpchar[1]</text>
<polygon fill="none" stroke="black" points="10,-171 10,-193 193,-193 193,-171 10,-171"/>
<text text-anchor="start" x="30" y="-179.2" font-family="Helvetica,sans-Serif" font-size="11.00">ismincalc</text>
<polygon fill="none" stroke="black" points="193,-171 193,-193 276,-193 276,-171 193,-171"/>
<text text-anchor="start" x="196" y="-179.2" font-family="Helvetica,sans-Serif" font-size="11.00">bpchar[1]</text>
<polygon fill="none" stroke="black" points="10,-149 10,-171 193,-171 193,-149 10,-149"/>
<text text-anchor="start" x="30" y="-157.2" font-family="Helvetica,sans-Serif" font-size="11.00">ismaxcalc</text>
<polygon fill="none" stroke="black" points="193,-149 193,-171 276,-171 276,-149 193,-149"/>
<text text-anchor="start" x="196" y="-157.2" font-family="Helvetica,sans-Serif" font-size="11.00">bpchar[1]</text>
<polygon fill="none" stroke="black" points="10,-127 10,-149 193,-149 193,-127 10,-127"/>
<text text-anchor="start" x="30" y="-135.2" font-family="Helvetica,sans-Serif" font-size="11.00">isvariancecalc</text>
<polygon fill="none" stroke="black" points="193,-127 193,-149 276,-149 276,-127 193,-127"/>
<text text-anchor="start" x="196" y="-135.2" font-family="Helvetica,sans-Serif" font-size="11.00">bpchar[1]</text>
<polygon fill="none" stroke="black" points="10,-105 10,-127 193,-127 193,-105 10,-105"/>
<text text-anchor="start" x="30" y="-113.2" font-family="Helvetica,sans-Serif" font-size="11.00">isdeviationcalc</text>
<polygon fill="none" stroke="black" points="193,-105 193,-127 276,-127 276,-105 193,-105"/>
<text text-anchor="start" x="196" y="-113.2" font-family="Helvetica,sans-Serif" font-size="11.00">bpchar[1]</text>
<polygon fill="none" stroke="black" points="10,-83 10,-105 193,-105 193,-83 10,-83"/>
<text text-anchor="start" x="30" y="-91.2" font-family="Helvetica,sans-Serif" font-size="11.00">isrunningtotal</text>
<polygon fill="none" stroke="black" points="193,-83 193,-105 276,-105 276,-83 193,-83"/>
<text text-anchor="start" x="196" y="-91.2" font-family="Helvetica,sans-Serif" font-size="11.00">bpchar[1]</text>
<polygon fill="none" stroke="black" points="10,-61 10,-83 193,-83 193,-61 10,-61"/>
<text text-anchor="start" x="30" y="-69.2" font-family="Helvetica,sans-Serif" font-size="11.00">runningtotallines</text>
<polygon fill="none" stroke="black" points="193,-61 193,-83 276,-83 276,-61 193,-61"/>
<text text-anchor="start" x="196" y="-69.2" font-family="Helvetica,sans-Serif" font-size="11.00">numeric[10]</text>
<polygon fill="none" stroke="black" points="10,-39 10,-61 193,-61 193,-39 10,-39"/>
<image xlink:href="../../images/foreignKeys.png" width="11px" height="12px" preserveAspectRatio="xMinYMin meet" x="15" y="-56"/>
<text text-anchor="start" x="30" y="-47.2" font-family="Helvetica,sans-Serif" font-size="11.00">ad_printgraph_id</text>
<polygon fill="none" stroke="black" points="193,-39 193,-61 276,-61 276,-39 193,-39"/>
<text text-anchor="start" x="196" y="-47.2" font-family="Helvetica,sans-Serif" font-size="11.00">numeric[10]</text>
<polygon fill="none" stroke="black" stroke-width="2" points="9,-38 9,-1536 277,-1536 277,-38 9,-38"/>
</a>
</g>
</g>
</g>
</svg>
