<?xml version="1.0" encoding="UTF-8" standalone="no"?>
<!DOCTYPE svg PUBLIC "-//W3C//DTD SVG 1.1//EN"
 "http://www.w3.org/Graphics/SVG/1.1/DTD/svg11.dtd">
<!-- Generated by graphviz version 2.43.0 (0)
 -->
<!-- Title: oneDegreeRelationshipsDiagram Pages: 1 -->
<svg width="822pt" height="984pt"
 viewBox="0.00 0.00 822.00 984.00" xmlns="http://www.w3.org/2000/svg" xmlns:xlink="http://www.w3.org/1999/xlink">
<g id="graph0" class="graph" transform="scale(1 1) rotate(0) translate(4 980)">
<title>oneDegreeRelationshipsDiagram</title>
<polygon fill="#ffffff" stroke="transparent" points="-4,4 -4,-980 818,-980 818,4 -4,4"/>
<text text-anchor="middle" x="71.5" y="-7.2" font-family="Helvetica,sans-Serif" font-size="11.00">Generated by SchemaSpy</text>
<!-- s_resource -->
<g id="node1" class="node">
<title>s_resource</title>
<g id="a_node1"><a xlink:href="../../tables/s_resource.html" xlink:title="s_resource" target="_top">
<polygon fill="#ffffff" stroke="transparent" points="596,-804 596,-972 806,-972 806,-804 596,-804"/>
<polygon fill="#f5f5f5" stroke="transparent" points="596,-950 596,-972 806,-972 806,-950 596,-950"/>
<polygon fill="none" stroke="black" points="596,-950 596,-972 806,-972 806,-950 596,-950"/>
<text text-anchor="start" x="601" y="-959.2" font-family="Helvetica,sans-Serif" font-weight="bold" font-size="11.00">s_resource</text>
<text text-anchor="start" x="771" y="-958.2" font-family="Helvetica,sans-Serif" font-size="11.00">[table]</text>
<polygon fill="none" stroke="black" points="596,-928 596,-950 806,-950 806,-928 596,-928"/>
<image xlink:href="../../images/primaryKeys.png" width="11px" height="12px" preserveAspectRatio="xMinYMin meet" x="601" y="-945"/>
<text text-anchor="start" x="616" y="-936.2" font-family="Helvetica,sans-Serif" font-size="11.00">s_resource_id</text>
<polygon fill="none" stroke="black" points="596,-906 596,-928 806,-928 806,-906 596,-906"/>
<image xlink:href="../../images/foreignKeys.png" width="11px" height="12px" preserveAspectRatio="xMinYMin meet" x="601" y="-923"/>
<text text-anchor="start" x="616" y="-914.2" font-family="Helvetica,sans-Serif" font-size="11.00">s_resourcetype_id</text>
<polygon fill="none" stroke="black" points="596,-884 596,-906 806,-906 806,-884 596,-884"/>
<image xlink:href="../../images/foreignKeys.png" width="11px" height="12px" preserveAspectRatio="xMinYMin meet" x="601" y="-901"/>
<text text-anchor="start" x="616" y="-892.2" font-family="Helvetica,sans-Serif" font-size="11.00">m_warehouse_id</text>
<polygon fill="none" stroke="black" points="596,-862 596,-884 806,-884 806,-862 596,-862"/>
<image xlink:href="../../images/foreignKeys.png" width="11px" height="12px" preserveAspectRatio="xMinYMin meet" x="601" y="-879"/>
<text text-anchor="start" x="616" y="-870.2" font-family="Helvetica,sans-Serif" font-size="11.00">ad_user_id</text>
<polygon fill="#ffffff" stroke="transparent" points="596,-840 596,-862 806,-862 806,-840 596,-840"/>
<polygon fill="none" stroke="black" points="596,-840 596,-862 806,-862 806,-840 596,-840"/>
<text text-anchor="start" x="616" y="-848.2" font-family="Helvetica,sans-Serif" font-size="11.00">s_resource_uu</text>
<polygon fill="none" stroke="black" points="596,-822 596,-840 806,-840 806,-822 596,-822"/>
<text text-anchor="start" x="599" y="-828.2" font-family="Helvetica,sans-Serif" font-size="11.00">...</text>
<polygon fill="#ffffff" stroke="transparent" points="596,-804 596,-822 678,-822 678,-804 596,-804"/>
<polygon fill="none" stroke="black" points="596,-804 596,-822 678,-822 678,-804 596,-804"/>
<text text-anchor="start" x="599" y="-810.2" font-family="Helvetica,sans-Serif" font-size="11.00">&lt; 3</text>
<polygon fill="#ffffff" stroke="transparent" points="678,-804 678,-822 747,-822 747,-804 678,-804"/>
<polygon fill="none" stroke="black" points="678,-804 678,-822 747,-822 747,-804 678,-804"/>
<text text-anchor="start" x="711" y="-810.2" font-family="Helvetica,sans-Serif" font-size="11.00">0 rows</text>
<polygon fill="#ffffff" stroke="transparent" points="747,-804 747,-822 806,-822 806,-804 747,-804"/>
<polygon fill="none" stroke="black" points="747,-804 747,-822 806,-822 806,-804 747,-804"/>
<text text-anchor="start" x="781" y="-810.2" font-family="Helvetica,sans-Serif" font-size="11.00">15 &gt;</text>
</a>
</g>
</g>
<!-- s_resourcetype -->
<g id="node2" class="node">
<title>s_resourcetype</title>
<g id="a_node2"><a xlink:href="../../tables/s_resourcetype.html" xlink:title="s_resourcetype" target="_top">
<polygon fill="#ffffff" stroke="transparent" points="284,-270 284,-952 547,-952 547,-270 284,-270"/>
<polygon fill="#f5f5f5" stroke="transparent" points="286.5,-928 286.5,-950 545.5,-950 545.5,-928 286.5,-928"/>
<polygon fill="none" stroke="black" points="286.5,-928 286.5,-950 545.5,-950 545.5,-928 286.5,-928"/>
<text text-anchor="start" x="291.5" y="-937.2" font-family="Helvetica,sans-Serif" font-weight="bold" font-size="11.00">s_resourcetype</text>
<text text-anchor="start" x="510.5" y="-936.2" font-family="Helvetica,sans-Serif" font-size="11.00">[table]</text>
<polygon fill="none" stroke="black" points="286.5,-906 286.5,-928 462.5,-928 462.5,-906 286.5,-906"/>
<image xlink:href="../../images/primaryKeys.png" width="11px" height="12px" preserveAspectRatio="xMinYMin meet" x="291.5" y="-923"/>
<text text-anchor="start" x="306.5" y="-914.2" font-family="Helvetica,sans-Serif" font-size="11.00">s_resourcetype_id</text>
<polygon fill="none" stroke="black" points="462.5,-906 462.5,-928 545.5,-928 545.5,-906 462.5,-906"/>
<text text-anchor="start" x="465.5" y="-914.2" font-family="Helvetica,sans-Serif" font-size="11.00">numeric[10]</text>
<polygon fill="none" stroke="black" points="286.5,-884 286.5,-906 462.5,-906 462.5,-884 286.5,-884"/>
<text text-anchor="start" x="306.5" y="-892.2" font-family="Helvetica,sans-Serif" font-size="11.00">ad_client_id</text>
<polygon fill="none" stroke="black" points="462.5,-884 462.5,-906 545.5,-906 545.5,-884 462.5,-884"/>
<text text-anchor="start" x="465.5" y="-892.2" font-family="Helvetica,sans-Serif" font-size="11.00">numeric[10]</text>
<polygon fill="none" stroke="black" points="286.5,-862 286.5,-884 462.5,-884 462.5,-862 286.5,-862"/>
<text text-anchor="start" x="306.5" y="-870.2" font-family="Helvetica,sans-Serif" font-size="11.00">ad_org_id</text>
<polygon fill="none" stroke="black" points="462.5,-862 462.5,-884 545.5,-884 545.5,-862 462.5,-862"/>
<text text-anchor="start" x="465.5" y="-870.2" font-family="Helvetica,sans-Serif" font-size="11.00">numeric[10]</text>
<polygon fill="none" stroke="black" points="286.5,-840 286.5,-862 462.5,-862 462.5,-840 286.5,-840"/>
<text text-anchor="start" x="306.5" y="-848.2" font-family="Helvetica,sans-Serif" font-size="11.00">isactive</text>
<polygon fill="none" stroke="black" points="462.5,-840 462.5,-862 545.5,-862 545.5,-840 462.5,-840"/>
<text text-anchor="start" x="465.5" y="-848.2" font-family="Helvetica,sans-Serif" font-size="11.00">bpchar[1]</text>
<polygon fill="none" stroke="black" points="286.5,-818 286.5,-840 462.5,-840 462.5,-818 286.5,-818"/>
<text text-anchor="start" x="306.5" y="-826.2" font-family="Helvetica,sans-Serif" font-size="11.00">created</text>
<polygon fill="none" stroke="black" points="462.5,-818 462.5,-840 545.5,-840 545.5,-818 462.5,-818"/>
<text text-anchor="start" x="465.5" y="-826.2" font-family="Helvetica,sans-Serif" font-size="11.00">timestamp[29,6]</text>
<polygon fill="none" stroke="black" points="286.5,-796 286.5,-818 462.5,-818 462.5,-796 286.5,-796"/>
<text text-anchor="start" x="306.5" y="-804.2" font-family="Helvetica,sans-Serif" font-size="11.00">createdby</text>
<polygon fill="none" stroke="black" points="462.5,-796 462.5,-818 545.5,-818 545.5,-796 462.5,-796"/>
<text text-anchor="start" x="465.5" y="-804.2" font-family="Helvetica,sans-Serif" font-size="11.00">numeric[10]</text>
<polygon fill="none" stroke="black" points="286.5,-774 286.5,-796 462.5,-796 462.5,-774 286.5,-774"/>
<text text-anchor="start" x="306.5" y="-782.2" font-family="Helvetica,sans-Serif" font-size="11.00">updated</text>
<polygon fill="none" stroke="black" points="462.5,-774 462.5,-796 545.5,-796 545.5,-774 462.5,-774"/>
<text text-anchor="start" x="465.5" y="-782.2" font-family="Helvetica,sans-Serif" font-size="11.00">timestamp[29,6]</text>
<polygon fill="none" stroke="black" points="286.5,-752 286.5,-774 462.5,-774 462.5,-752 286.5,-752"/>
<text text-anchor="start" x="306.5" y="-760.2" font-family="Helvetica,sans-Serif" font-size="11.00">updatedby</text>
<polygon fill="none" stroke="black" points="462.5,-752 462.5,-774 545.5,-774 545.5,-752 462.5,-752"/>
<text text-anchor="start" x="465.5" y="-760.2" font-family="Helvetica,sans-Serif" font-size="11.00">numeric[10]</text>
<polygon fill="none" stroke="black" points="286.5,-730 286.5,-752 462.5,-752 462.5,-730 286.5,-730"/>
<text text-anchor="start" x="306.5" y="-738.2" font-family="Helvetica,sans-Serif" font-size="11.00">value</text>
<polygon fill="none" stroke="black" points="462.5,-730 462.5,-752 545.5,-752 545.5,-730 462.5,-730"/>
<text text-anchor="start" x="465.5" y="-738.2" font-family="Helvetica,sans-Serif" font-size="11.00">varchar[40]</text>
<polygon fill="none" stroke="black" points="286.5,-708 286.5,-730 462.5,-730 462.5,-708 286.5,-708"/>
<text text-anchor="start" x="306.5" y="-716.2" font-family="Helvetica,sans-Serif" font-size="11.00">name</text>
<polygon fill="none" stroke="black" points="462.5,-708 462.5,-730 545.5,-730 545.5,-708 462.5,-708"/>
<text text-anchor="start" x="465.5" y="-716.2" font-family="Helvetica,sans-Serif" font-size="11.00">varchar[60]</text>
<polygon fill="none" stroke="black" points="286.5,-686 286.5,-708 462.5,-708 462.5,-686 286.5,-686"/>
<text text-anchor="start" x="306.5" y="-694.2" font-family="Helvetica,sans-Serif" font-size="11.00">description</text>
<polygon fill="none" stroke="black" points="462.5,-686 462.5,-708 545.5,-708 545.5,-686 462.5,-686"/>
<text text-anchor="start" x="465.5" y="-694.2" font-family="Helvetica,sans-Serif" font-size="11.00">varchar[255]</text>
<polygon fill="none" stroke="black" points="286.5,-664 286.5,-686 462.5,-686 462.5,-664 286.5,-664"/>
<text text-anchor="start" x="306.5" y="-672.2" font-family="Helvetica,sans-Serif" font-size="11.00">issingleassignment</text>
<polygon fill="none" stroke="black" points="462.5,-664 462.5,-686 545.5,-686 545.5,-664 462.5,-664"/>
<text text-anchor="start" x="465.5" y="-672.2" font-family="Helvetica,sans-Serif" font-size="11.00">bpchar[1]</text>
<polygon fill="none" stroke="black" points="286.5,-642 286.5,-664 462.5,-664 462.5,-642 286.5,-642"/>
<image xlink:href="../../images/foreignKeys.png" width="11px" height="12px" preserveAspectRatio="xMinYMin meet" x="291.5" y="-659"/>
<text text-anchor="start" x="306.5" y="-650.2" font-family="Helvetica,sans-Serif" font-size="11.00">c_uom_id</text>
<polygon fill="none" stroke="black" points="462.5,-642 462.5,-664 545.5,-664 545.5,-642 462.5,-642"/>
<text text-anchor="start" x="465.5" y="-650.2" font-family="Helvetica,sans-Serif" font-size="11.00">numeric[10]</text>
<polygon fill="none" stroke="black" points="286.5,-620 286.5,-642 462.5,-642 462.5,-620 286.5,-620"/>
<text text-anchor="start" x="306.5" y="-628.2" font-family="Helvetica,sans-Serif" font-size="11.00">allowuomfractions</text>
<polygon fill="none" stroke="black" points="462.5,-620 462.5,-642 545.5,-642 545.5,-620 462.5,-620"/>
<text text-anchor="start" x="465.5" y="-628.2" font-family="Helvetica,sans-Serif" font-size="11.00">bpchar[1]</text>
<polygon fill="none" stroke="black" points="286.5,-598 286.5,-620 462.5,-620 462.5,-598 286.5,-598"/>
<text text-anchor="start" x="306.5" y="-606.2" font-family="Helvetica,sans-Serif" font-size="11.00">timeslotstart</text>
<polygon fill="none" stroke="black" points="462.5,-598 462.5,-620 545.5,-620 545.5,-598 462.5,-598"/>
<text text-anchor="start" x="465.5" y="-606.2" font-family="Helvetica,sans-Serif" font-size="11.00">timestamp[29,6]</text>
<polygon fill="none" stroke="black" points="286.5,-576 286.5,-598 462.5,-598 462.5,-576 286.5,-576"/>
<text text-anchor="start" x="306.5" y="-584.2" font-family="Helvetica,sans-Serif" font-size="11.00">timeslotend</text>
<polygon fill="none" stroke="black" points="462.5,-576 462.5,-598 545.5,-598 545.5,-576 462.5,-576"/>
<text text-anchor="start" x="465.5" y="-584.2" font-family="Helvetica,sans-Serif" font-size="11.00">timestamp[29,6]</text>
<polygon fill="none" stroke="black" points="286.5,-554 286.5,-576 462.5,-576 462.5,-554 286.5,-554"/>
<text text-anchor="start" x="306.5" y="-562.2" font-family="Helvetica,sans-Serif" font-size="11.00">istimeslot</text>
<polygon fill="none" stroke="black" points="462.5,-554 462.5,-576 545.5,-576 545.5,-554 462.5,-554"/>
<text text-anchor="start" x="465.5" y="-562.2" font-family="Helvetica,sans-Serif" font-size="11.00">bpchar[1]</text>
<polygon fill="none" stroke="black" points="286.5,-532 286.5,-554 462.5,-554 462.5,-532 286.5,-532"/>
<text text-anchor="start" x="306.5" y="-540.2" font-family="Helvetica,sans-Serif" font-size="11.00">isdateslot</text>
<polygon fill="none" stroke="black" points="462.5,-532 462.5,-554 545.5,-554 545.5,-532 462.5,-532"/>
<text text-anchor="start" x="465.5" y="-540.2" font-family="Helvetica,sans-Serif" font-size="11.00">bpchar[1]</text>
<polygon fill="none" stroke="black" points="286.5,-510 286.5,-532 462.5,-532 462.5,-510 286.5,-510"/>
<text text-anchor="start" x="306.5" y="-518.2" font-family="Helvetica,sans-Serif" font-size="11.00">onsunday</text>
<polygon fill="none" stroke="black" points="462.5,-510 462.5,-532 545.5,-532 545.5,-510 462.5,-510"/>
<text text-anchor="start" x="465.5" y="-518.2" font-family="Helvetica,sans-Serif" font-size="11.00">bpchar[1]</text>
<polygon fill="none" stroke="black" points="286.5,-488 286.5,-510 462.5,-510 462.5,-488 286.5,-488"/>
<text text-anchor="start" x="306.5" y="-496.2" font-family="Helvetica,sans-Serif" font-size="11.00">onmonday</text>
<polygon fill="none" stroke="black" points="462.5,-488 462.5,-510 545.5,-510 545.5,-488 462.5,-488"/>
<text text-anchor="start" x="465.5" y="-496.2" font-family="Helvetica,sans-Serif" font-size="11.00">bpchar[1]</text>
<polygon fill="none" stroke="black" points="286.5,-466 286.5,-488 462.5,-488 462.5,-466 286.5,-466"/>
<text text-anchor="start" x="306.5" y="-474.2" font-family="Helvetica,sans-Serif" font-size="11.00">ontuesday</text>
<polygon fill="none" stroke="black" points="462.5,-466 462.5,-488 545.5,-488 545.5,-466 462.5,-466"/>
<text text-anchor="start" x="465.5" y="-474.2" font-family="Helvetica,sans-Serif" font-size="11.00">bpchar[1]</text>
<polygon fill="none" stroke="black" points="286.5,-444 286.5,-466 462.5,-466 462.5,-444 286.5,-444"/>
<text text-anchor="start" x="306.5" y="-452.2" font-family="Helvetica,sans-Serif" font-size="11.00">onwednesday</text>
<polygon fill="none" stroke="black" points="462.5,-444 462.5,-466 545.5,-466 545.5,-444 462.5,-444"/>
<text text-anchor="start" x="465.5" y="-452.2" font-family="Helvetica,sans-Serif" font-size="11.00">bpchar[1]</text>
<polygon fill="none" stroke="black" points="286.5,-422 286.5,-444 462.5,-444 462.5,-422 286.5,-422"/>
<text text-anchor="start" x="306.5" y="-430.2" font-family="Helvetica,sans-Serif" font-size="11.00">onthursday</text>
<polygon fill="none" stroke="black" points="462.5,-422 462.5,-444 545.5,-444 545.5,-422 462.5,-422"/>
<text text-anchor="start" x="465.5" y="-430.2" font-family="Helvetica,sans-Serif" font-size="11.00">bpchar[1]</text>
<polygon fill="none" stroke="black" points="286.5,-400 286.5,-422 462.5,-422 462.5,-400 286.5,-400"/>
<text text-anchor="start" x="306.5" y="-408.2" font-family="Helvetica,sans-Serif" font-size="11.00">onfriday</text>
<polygon fill="none" stroke="black" points="462.5,-400 462.5,-422 545.5,-422 545.5,-400 462.5,-400"/>
<text text-anchor="start" x="465.5" y="-408.2" font-family="Helvetica,sans-Serif" font-size="11.00">bpchar[1]</text>
<polygon fill="none" stroke="black" points="286.5,-378 286.5,-400 462.5,-400 462.5,-378 286.5,-378"/>
<text text-anchor="start" x="306.5" y="-386.2" font-family="Helvetica,sans-Serif" font-size="11.00">onsaturday</text>
<polygon fill="none" stroke="black" points="462.5,-378 462.5,-400 545.5,-400 545.5,-378 462.5,-378"/>
<text text-anchor="start" x="465.5" y="-386.2" font-family="Helvetica,sans-Serif" font-size="11.00">bpchar[1]</text>
<polygon fill="none" stroke="black" points="286.5,-356 286.5,-378 462.5,-378 462.5,-356 286.5,-356"/>
<image xlink:href="../../images/foreignKeys.png" width="11px" height="12px" preserveAspectRatio="xMinYMin meet" x="291.5" y="-373"/>
<text text-anchor="start" x="306.5" y="-364.2" font-family="Helvetica,sans-Serif" font-size="11.00">m_product_category_id</text>
<polygon fill="none" stroke="black" points="462.5,-356 462.5,-378 545.5,-378 545.5,-356 462.5,-356"/>
<text text-anchor="start" x="465.5" y="-364.2" font-family="Helvetica,sans-Serif" font-size="11.00">numeric[10]</text>
<polygon fill="none" stroke="black" points="286.5,-334 286.5,-356 462.5,-356 462.5,-334 286.5,-334"/>
<image xlink:href="../../images/foreignKeys.png" width="11px" height="12px" preserveAspectRatio="xMinYMin meet" x="291.5" y="-351"/>
<text text-anchor="start" x="306.5" y="-342.2" font-family="Helvetica,sans-Serif" font-size="11.00">c_taxcategory_id</text>
<polygon fill="none" stroke="black" points="462.5,-334 462.5,-356 545.5,-356 545.5,-334 462.5,-334"/>
<text text-anchor="start" x="465.5" y="-342.2" font-family="Helvetica,sans-Serif" font-size="11.00">numeric[10]</text>
<polygon fill="none" stroke="black" points="286.5,-312 286.5,-334 462.5,-334 462.5,-312 286.5,-312"/>
<text text-anchor="start" x="306.5" y="-320.2" font-family="Helvetica,sans-Serif" font-size="11.00">chargeableqty</text>
<polygon fill="none" stroke="black" points="462.5,-312 462.5,-334 545.5,-334 545.5,-312 462.5,-312"/>
<text text-anchor="start" x="465.5" y="-320.2" font-family="Helvetica,sans-Serif" font-size="11.00">numeric[0]</text>
<polygon fill="#ffffff" stroke="transparent" points="286.5,-290 286.5,-312 462.5,-312 462.5,-290 286.5,-290"/>
<polygon fill="none" stroke="black" points="286.5,-290 286.5,-312 462.5,-312 462.5,-290 286.5,-290"/>
<text text-anchor="start" x="306.5" y="-298.2" font-family="Helvetica,sans-Serif" font-size="11.00">s_resourcetype_uu</text>
<polygon fill="none" stroke="black" points="462.5,-290 462.5,-312 545.5,-312 545.5,-290 462.5,-290"/>
<text text-anchor="start" x="465.5" y="-298.2" font-family="Helvetica,sans-Serif" font-size="11.00">varchar[36]</text>
<polygon fill="#ffffff" stroke="transparent" points="286.5,-272 286.5,-290 365.5,-290 365.5,-272 286.5,-272"/>
<polygon fill="none" stroke="black" points="286.5,-272 286.5,-290 365.5,-290 365.5,-272 286.5,-272"/>
<text text-anchor="start" x="289.5" y="-278.2" font-family="Helvetica,sans-Serif" font-size="11.00">&lt; 3</text>
<polygon fill="#ffffff" stroke="transparent" points="365.5,-272 365.5,-290 462.5,-290 462.5,-272 365.5,-272"/>
<polygon fill="none" stroke="black" points="365.5,-272 365.5,-290 462.5,-290 462.5,-272 365.5,-272"/>
<text text-anchor="start" x="426.5" y="-278.2" font-family="Helvetica,sans-Serif" font-size="11.00">0 rows</text>
<polygon fill="#ffffff" stroke="transparent" points="462.5,-272 462.5,-290 545.5,-290 545.5,-272 462.5,-272"/>
<polygon fill="none" stroke="black" points="462.5,-272 462.5,-290 545.5,-290 545.5,-272 462.5,-272"/>
<text text-anchor="start" x="526.5" y="-278.2" font-family="Helvetica,sans-Serif" font-size="11.00">1 &gt;</text>
<polygon fill="none" stroke="black" stroke-width="2" points="285,-271 285,-951 546,-951 546,-271 285,-271"/>
</a>
</g>
</g>
<!-- s_resource&#45;&gt;s_resourcetype -->
<g id="edge1" class="edge">
<title>s_resource:w&#45;&gt;s_resourcetype:e</title>
<path fill="none" stroke="black" d="M580.28,-917C569.29,-917 562.16,-917 546.5,-917"/>
<polygon fill="black" stroke="black" points="587,-917 595,-920.6 591,-917 595,-917 595,-917 595,-917 591,-917 595,-913.4 587,-917 587,-917"/>
<ellipse fill="none" stroke="black" cx="583.8" cy="-917" rx="3.2" ry="3.2"/>
</g>
<!-- c_taxcategory -->
<g id="node3" class="node">
<title>c_taxcategory</title>
<g id="a_node3"><a xlink:href="../../tables/c_taxcategory.html" xlink:title="c_taxcategory" target="_top">
<polygon fill="#ffffff" stroke="transparent" points="52.5,-37 52.5,-183 190.5,-183 190.5,-37 52.5,-37"/>
<polygon fill="#f5f5f5" stroke="transparent" points="52.5,-161 52.5,-183 190.5,-183 190.5,-161 52.5,-161"/>
<polygon fill="none" stroke="black" points="52.5,-161 52.5,-183 190.5,-183 190.5,-161 52.5,-161"/>
<text text-anchor="start" x="57.5" y="-170.2" font-family="Helvetica,sans-Serif" font-weight="bold" font-size="11.00">c_taxcategory</text>
<text text-anchor="start" x="155.5" y="-169.2" font-family="Helvetica,sans-Serif" font-size="11.00">[table]</text>
<polygon fill="none" stroke="black" points="52.5,-139 52.5,-161 190.5,-161 190.5,-139 52.5,-139"/>
<image xlink:href="../../images/primaryKeys.png" width="11px" height="12px" preserveAspectRatio="xMinYMin meet" x="57.5" y="-156"/>
<text text-anchor="start" x="72.5" y="-147.2" font-family="Helvetica,sans-Serif" font-size="11.00">c_taxcategory_id</text>
<polygon fill="#ffffff" stroke="transparent" points="52.5,-117 52.5,-139 190.5,-139 190.5,-117 52.5,-117"/>
<polygon fill="none" stroke="black" points="52.5,-117 52.5,-139 190.5,-139 190.5,-117 52.5,-117"/>
<text text-anchor="start" x="72.5" y="-125.2" font-family="Helvetica,sans-Serif" font-size="11.00">ad_client_id</text>
<polygon fill="#ffffff" stroke="transparent" points="52.5,-95 52.5,-117 190.5,-117 190.5,-95 52.5,-95"/>
<polygon fill="none" stroke="black" points="52.5,-95 52.5,-117 190.5,-117 190.5,-95 52.5,-95"/>
<text text-anchor="start" x="72.5" y="-103.2" font-family="Helvetica,sans-Serif" font-size="11.00">name</text>
<polygon fill="#ffffff" stroke="transparent" points="52.5,-73 52.5,-95 190.5,-95 190.5,-73 52.5,-73"/>
<polygon fill="none" stroke="black" points="52.5,-73 52.5,-95 190.5,-95 190.5,-73 52.5,-73"/>
<text text-anchor="start" x="72.5" y="-81.2" font-family="Helvetica,sans-Serif" font-size="11.00">c_taxcategory_uu</text>
<polygon fill="none" stroke="black" points="52.5,-55 52.5,-73 190.5,-73 190.5,-55 52.5,-55"/>
<text text-anchor="start" x="55.5" y="-61.2" font-family="Helvetica,sans-Serif" font-size="11.00">...</text>
<polygon fill="#ffffff" stroke="transparent" points="52.5,-37 52.5,-55 94.5,-55 94.5,-37 52.5,-37"/>
<polygon fill="none" stroke="black" points="52.5,-37 52.5,-55 94.5,-55 94.5,-37 52.5,-37"/>
<text text-anchor="start" x="55.5" y="-43.2" font-family="Helvetica,sans-Serif" font-size="11.00"> &#160;</text>
<polygon fill="#ffffff" stroke="transparent" points="94.5,-37 94.5,-55 153.5,-55 153.5,-37 94.5,-37"/>
<polygon fill="none" stroke="black" points="94.5,-37 94.5,-55 153.5,-55 153.5,-37 94.5,-37"/>
<text text-anchor="start" x="111.5" y="-43.2" font-family="Helvetica,sans-Serif" font-size="11.00">14 rows</text>
<polygon fill="#ffffff" stroke="transparent" points="153.5,-37 153.5,-55 190.5,-55 190.5,-37 153.5,-37"/>
<polygon fill="none" stroke="black" points="153.5,-37 153.5,-55 190.5,-55 190.5,-37 153.5,-37"/>
<text text-anchor="start" x="171.5" y="-43.2" font-family="Helvetica,sans-Serif" font-size="11.00">8 &gt;</text>
</a>
</g>
</g>
<!-- s_resourcetype&#45;&gt;c_taxcategory -->
<g id="edge2" class="edge">
<title>s_resourcetype:w&#45;&gt;c_taxcategory:e</title>
<path fill="none" stroke="black" d="M271.14,-343.27C225.21,-330.31 278.03,-247.19 243,-193 226.81,-167.96 221.32,-150 191.5,-150"/>
<polygon fill="black" stroke="black" points="277.56,-344.05 285.07,-348.57 281.53,-344.52 285.5,-345 285.5,-345 285.5,-345 281.53,-344.52 285.93,-341.43 277.56,-344.05 277.56,-344.05"/>
<ellipse fill="none" stroke="black" cx="274.38" cy="-343.66" rx="3.2" ry="3.2"/>
</g>
<!-- c_uom -->
<g id="node4" class="node">
<title>c_uom</title>
<g id="a_node4"><a xlink:href="../../tables/c_uom.html" xlink:title="c_uom" target="_top">
<polygon fill="#ffffff" stroke="transparent" points="55.5,-496 55.5,-686 187.5,-686 187.5,-496 55.5,-496"/>
<polygon fill="#f5f5f5" stroke="transparent" points="55.5,-664 55.5,-686 187.5,-686 187.5,-664 55.5,-664"/>
<polygon fill="none" stroke="black" points="55.5,-664 55.5,-686 187.5,-686 187.5,-664 55.5,-664"/>
<text text-anchor="start" x="60.5" y="-673.2" font-family="Helvetica,sans-Serif" font-weight="bold" font-size="11.00">c_uom</text>
<text text-anchor="start" x="152.5" y="-672.2" font-family="Helvetica,sans-Serif" font-size="11.00">[table]</text>
<polygon fill="none" stroke="black" points="55.5,-642 55.5,-664 187.5,-664 187.5,-642 55.5,-642"/>
<image xlink:href="../../images/primaryKeys.png" width="11px" height="12px" preserveAspectRatio="xMinYMin meet" x="60.5" y="-659"/>
<text text-anchor="start" x="75.5" y="-650.2" font-family="Helvetica,sans-Serif" font-size="11.00">c_uom_id</text>
<polygon fill="#ffffff" stroke="transparent" points="55.5,-620 55.5,-642 187.5,-642 187.5,-620 55.5,-620"/>
<polygon fill="none" stroke="black" points="55.5,-620 55.5,-642 187.5,-642 187.5,-620 55.5,-620"/>
<image xlink:href="../../images/foreignKeys.png" width="11px" height="12px" preserveAspectRatio="xMinYMin meet" x="60.5" y="-637"/>
<text text-anchor="start" x="75.5" y="-628.2" font-family="Helvetica,sans-Serif" font-size="11.00">ad_client_id</text>
<polygon fill="none" stroke="black" points="55.5,-598 55.5,-620 187.5,-620 187.5,-598 55.5,-598"/>
<image xlink:href="../../images/foreignKeys.png" width="11px" height="12px" preserveAspectRatio="xMinYMin meet" x="60.5" y="-615"/>
<text text-anchor="start" x="75.5" y="-606.2" font-family="Helvetica,sans-Serif" font-size="11.00">ad_org_id</text>
<polygon fill="#ffffff" stroke="transparent" points="55.5,-576 55.5,-598 187.5,-598 187.5,-576 55.5,-576"/>
<polygon fill="none" stroke="black" points="55.5,-576 55.5,-598 187.5,-598 187.5,-576 55.5,-576"/>
<text text-anchor="start" x="75.5" y="-584.2" font-family="Helvetica,sans-Serif" font-size="11.00">x12de355</text>
<polygon fill="#ffffff" stroke="transparent" points="55.5,-554 55.5,-576 187.5,-576 187.5,-554 55.5,-554"/>
<polygon fill="none" stroke="black" points="55.5,-554 55.5,-576 187.5,-576 187.5,-554 55.5,-554"/>
<text text-anchor="start" x="75.5" y="-562.2" font-family="Helvetica,sans-Serif" font-size="11.00">name</text>
<polygon fill="#ffffff" stroke="transparent" points="55.5,-532 55.5,-554 187.5,-554 187.5,-532 55.5,-532"/>
<polygon fill="none" stroke="black" points="55.5,-532 55.5,-554 187.5,-554 187.5,-532 55.5,-532"/>
<text text-anchor="start" x="75.5" y="-540.2" font-family="Helvetica,sans-Serif" font-size="11.00">c_uom_uu</text>
<polygon fill="none" stroke="black" points="55.5,-514 55.5,-532 187.5,-532 187.5,-514 55.5,-514"/>
<text text-anchor="start" x="58.5" y="-520.2" font-family="Helvetica,sans-Serif" font-size="11.00">...</text>
<polygon fill="#ffffff" stroke="transparent" points="55.5,-496 55.5,-514 95.5,-514 95.5,-496 55.5,-496"/>
<polygon fill="none" stroke="black" points="55.5,-496 55.5,-514 95.5,-514 95.5,-496 55.5,-496"/>
<text text-anchor="start" x="58.5" y="-502.2" font-family="Helvetica,sans-Serif" font-size="11.00">&lt; 2</text>
<polygon fill="#ffffff" stroke="transparent" points="95.5,-496 95.5,-514 149.5,-514 149.5,-496 95.5,-496"/>
<polygon fill="none" stroke="black" points="95.5,-496 95.5,-514 149.5,-514 149.5,-496 95.5,-496"/>
<text text-anchor="start" x="107.5" y="-502.2" font-family="Helvetica,sans-Serif" font-size="11.00">72 rows</text>
<polygon fill="#ffffff" stroke="transparent" points="149.5,-496 149.5,-514 187.5,-514 187.5,-496 149.5,-496"/>
<polygon fill="none" stroke="black" points="149.5,-496 149.5,-514 187.5,-514 187.5,-496 149.5,-496"/>
<text text-anchor="start" x="162.5" y="-502.2" font-family="Helvetica,sans-Serif" font-size="11.00">49 &gt;</text>
</a>
</g>
</g>
<!-- s_resourcetype&#45;&gt;c_uom -->
<g id="edge3" class="edge">
<title>s_resourcetype:w&#45;&gt;c_uom:e</title>
<path fill="none" stroke="black" d="M270.72,-653C239.19,-653 226.22,-653 188.5,-653"/>
<polygon fill="black" stroke="black" points="277.5,-653 285.5,-656.6 281.5,-653 285.5,-653 285.5,-653 285.5,-653 281.5,-653 285.5,-649.4 277.5,-653 277.5,-653"/>
<ellipse fill="none" stroke="black" cx="274.3" cy="-653" rx="3.2" ry="3.2"/>
</g>
<!-- m_product_category -->
<g id="node5" class="node">
<title>m_product_category</title>
<g id="a_node5"><a xlink:href="../../tables/m_product_category.html" xlink:title="m_product_category" target="_top">
<polygon fill="#ffffff" stroke="transparent" points="8,-204 8,-438 235,-438 235,-204 8,-204"/>
<polygon fill="#f5f5f5" stroke="transparent" points="8.5,-416 8.5,-438 235.5,-438 235.5,-416 8.5,-416"/>
<polygon fill="none" stroke="black" points="8.5,-416 8.5,-438 235.5,-438 235.5,-416 8.5,-416"/>
<text text-anchor="start" x="13.5" y="-425.2" font-family="Helvetica,sans-Serif" font-weight="bold" font-size="11.00">m_product_category</text>
<text text-anchor="start" x="200.5" y="-424.2" font-family="Helvetica,sans-Serif" font-size="11.00">[table]</text>
<polygon fill="none" stroke="black" points="8.5,-394 8.5,-416 235.5,-416 235.5,-394 8.5,-394"/>
<image xlink:href="../../images/primaryKeys.png" width="11px" height="12px" preserveAspectRatio="xMinYMin meet" x="13.5" y="-411"/>
<text text-anchor="start" x="28.5" y="-402.2" font-family="Helvetica,sans-Serif" font-size="11.00">m_product_category_id</text>
<polygon fill="#ffffff" stroke="transparent" points="8.5,-372 8.5,-394 235.5,-394 235.5,-372 8.5,-372"/>
<polygon fill="none" stroke="black" points="8.5,-372 8.5,-394 235.5,-394 235.5,-372 8.5,-372"/>
<text text-anchor="start" x="28.5" y="-380.2" font-family="Helvetica,sans-Serif" font-size="11.00">ad_client_id</text>
<polygon fill="#ffffff" stroke="transparent" points="8.5,-350 8.5,-372 235.5,-372 235.5,-350 8.5,-350"/>
<polygon fill="none" stroke="black" points="8.5,-350 8.5,-372 235.5,-372 235.5,-350 8.5,-350"/>
<text text-anchor="start" x="28.5" y="-358.2" font-family="Helvetica,sans-Serif" font-size="11.00">value</text>
<polygon fill="none" stroke="black" points="8.5,-328 8.5,-350 235.5,-350 235.5,-328 8.5,-328"/>
<image xlink:href="../../images/foreignKeys.png" width="11px" height="12px" preserveAspectRatio="xMinYMin meet" x="13.5" y="-345"/>
<text text-anchor="start" x="28.5" y="-336.2" font-family="Helvetica,sans-Serif" font-size="11.00">a_asset_group_id</text>
<polygon fill="none" stroke="black" points="8.5,-306 8.5,-328 235.5,-328 235.5,-306 8.5,-306"/>
<image xlink:href="../../images/foreignKeys.png" width="11px" height="12px" preserveAspectRatio="xMinYMin meet" x="13.5" y="-323"/>
<text text-anchor="start" x="28.5" y="-314.2" font-family="Helvetica,sans-Serif" font-size="11.00">ad_printcolor_id</text>
<polygon fill="none" stroke="black" points="8.5,-284 8.5,-306 235.5,-306 235.5,-284 8.5,-284"/>
<image xlink:href="../../images/foreignKeys.png" width="11px" height="12px" preserveAspectRatio="xMinYMin meet" x="13.5" y="-301"/>
<text text-anchor="start" x="28.5" y="-292.2" font-family="Helvetica,sans-Serif" font-size="11.00">m_product_category_parent_id</text>
<polygon fill="#ffffff" stroke="transparent" points="8.5,-262 8.5,-284 235.5,-284 235.5,-262 8.5,-262"/>
<polygon fill="none" stroke="black" points="8.5,-262 8.5,-284 235.5,-284 235.5,-262 8.5,-262"/>
<text text-anchor="start" x="28.5" y="-270.2" font-family="Helvetica,sans-Serif" font-size="11.00">m_product_category_uu</text>
<polygon fill="none" stroke="black" points="8.5,-240 8.5,-262 235.5,-262 235.5,-240 8.5,-240"/>
<image xlink:href="../../images/foreignKeys.png" width="11px" height="12px" preserveAspectRatio="xMinYMin meet" x="13.5" y="-257"/>
<text text-anchor="start" x="28.5" y="-248.2" font-family="Helvetica,sans-Serif" font-size="11.00">m_attributeset_id</text>
<polygon fill="none" stroke="black" points="8.5,-222 8.5,-240 235.5,-240 235.5,-222 8.5,-222"/>
<text text-anchor="start" x="11.5" y="-228.2" font-family="Helvetica,sans-Serif" font-size="11.00">...</text>
<polygon fill="#ffffff" stroke="transparent" points="8.5,-204 8.5,-222 99.5,-222 99.5,-204 8.5,-204"/>
<polygon fill="none" stroke="black" points="8.5,-204 8.5,-222 99.5,-222 99.5,-204 8.5,-204"/>
<text text-anchor="start" x="11.5" y="-210.2" font-family="Helvetica,sans-Serif" font-size="11.00">&lt; 3</text>
<polygon fill="#ffffff" stroke="transparent" points="99.5,-204 99.5,-222 172.5,-222 172.5,-204 99.5,-204"/>
<polygon fill="none" stroke="black" points="99.5,-204 99.5,-222 172.5,-222 172.5,-204 99.5,-204"/>
<text text-anchor="start" x="136.5" y="-210.2" font-family="Helvetica,sans-Serif" font-size="11.00">5 rows</text>
<polygon fill="#ffffff" stroke="transparent" points="172.5,-204 172.5,-222 235.5,-222 235.5,-204 172.5,-204"/>
<polygon fill="none" stroke="black" points="172.5,-204 172.5,-222 235.5,-222 235.5,-204 172.5,-204"/>
<text text-anchor="start" x="210.5" y="-210.2" font-family="Helvetica,sans-Serif" font-size="11.00">24 &gt;</text>
</a>
</g>
</g>
<!-- s_resourcetype&#45;&gt;m_product_category -->
<g id="edge4" class="edge">
<title>s_resourcetype:w&#45;&gt;m_product_category:e</title>
<path fill="none" stroke="black" d="M271.54,-371.66C259.01,-381.81 258.03,-405 236.5,-405"/>
<polygon fill="black" stroke="black" points="277.91,-369.53 286.64,-370.41 281.71,-368.27 285.5,-367 285.5,-367 285.5,-367 281.71,-368.27 284.36,-363.59 277.91,-369.53 277.91,-369.53"/>
<ellipse fill="none" stroke="black" cx="274.88" cy="-370.55" rx="3.2" ry="3.2"/>
</g>
</g>
</svg>
