<?xml version="1.0" encoding="UTF-8" standalone="no"?>
<!DOCTYPE svg PUBLIC "-//W3C//DTD SVG 1.1//EN"
 "http://www.w3.org/Graphics/SVG/1.1/DTD/svg11.dtd">
<!-- Generated by graphviz version 2.43.0 (0)
 -->
<!-- Title: oneDegreeRelationshipsDiagram Pages: 1 -->
<svg width="247pt" height="203pt"
 viewBox="0.00 0.00 247.00 203.00" xmlns="http://www.w3.org/2000/svg" xmlns:xlink="http://www.w3.org/1999/xlink">
<g id="graph0" class="graph" transform="scale(1 1) rotate(0) translate(4 199)">
<title>oneDegreeRelationshipsDiagram</title>
<polygon fill="#ffffff" stroke="transparent" points="-4,4 -4,-199 243,-199 243,4 -4,4"/>
<text text-anchor="middle" x="71.5" y="-7.2" font-family="Helvetica,sans-Serif" font-size="11.00">Generated by SchemaSpy</text>
<!-- t_alter_column -->
<g id="node1" class="node">
<title>t_alter_column</title>
<g id="a_node1"><a xlink:href="../../tables/t_alter_column.html" xlink:title="t_alter_column" target="_top">
<polygon fill="#ffffff" stroke="transparent" points="8,-37 8,-191 231,-191 231,-37 8,-37"/>
<polygon fill="#f5f5f5" stroke="transparent" points="10.5,-167 10.5,-189 229.5,-189 229.5,-167 10.5,-167"/>
<polygon fill="none" stroke="black" points="10.5,-167 10.5,-189 229.5,-189 229.5,-167 10.5,-167"/>
<text text-anchor="start" x="15.5" y="-176.2" font-family="Helvetica,sans-Serif" font-weight="bold" font-size="11.00">t_alter_column</text>
<text text-anchor="start" x="194.5" y="-175.2" font-family="Helvetica,sans-Serif" font-size="11.00">[table]</text>
<polygon fill="none" stroke="black" points="10.5,-145 10.5,-167 129.5,-167 129.5,-145 10.5,-145"/>
<text text-anchor="start" x="30.5" y="-153.2" font-family="Helvetica,sans-Serif" font-size="11.00">tablename</text>
<polygon fill="none" stroke="black" points="129.5,-145 129.5,-167 229.5,-167 229.5,-145 129.5,-145"/>
<text text-anchor="start" x="132.5" y="-153.2" font-family="Helvetica,sans-Serif" font-size="11.00">name[2147483647]</text>
<polygon fill="none" stroke="black" points="10.5,-123 10.5,-145 129.5,-145 129.5,-123 10.5,-123"/>
<text text-anchor="start" x="30.5" y="-131.2" font-family="Helvetica,sans-Serif" font-size="11.00">columnname</text>
<polygon fill="none" stroke="black" points="129.5,-123 129.5,-145 229.5,-145 229.5,-123 129.5,-123"/>
<text text-anchor="start" x="132.5" y="-131.2" font-family="Helvetica,sans-Serif" font-size="11.00">name[2147483647]</text>
<polygon fill="none" stroke="black" points="10.5,-101 10.5,-123 129.5,-123 129.5,-101 10.5,-101"/>
<text text-anchor="start" x="30.5" y="-109.2" font-family="Helvetica,sans-Serif" font-size="11.00">datatype</text>
<polygon fill="none" stroke="black" points="129.5,-101 129.5,-123 229.5,-123 229.5,-101 129.5,-101"/>
<text text-anchor="start" x="132.5" y="-109.2" font-family="Helvetica,sans-Serif" font-size="11.00">name[2147483647]</text>
<polygon fill="none" stroke="black" points="10.5,-79 10.5,-101 129.5,-101 129.5,-79 10.5,-79"/>
<text text-anchor="start" x="30.5" y="-87.2" font-family="Helvetica,sans-Serif" font-size="11.00">nullclause</text>
<polygon fill="none" stroke="black" points="129.5,-79 129.5,-101 229.5,-101 229.5,-79 129.5,-79"/>
<text text-anchor="start" x="132.5" y="-87.2" font-family="Helvetica,sans-Serif" font-size="11.00">varchar[10]</text>
<polygon fill="none" stroke="black" points="10.5,-57 10.5,-79 129.5,-79 129.5,-57 10.5,-57"/>
<text text-anchor="start" x="30.5" y="-65.2" font-family="Helvetica,sans-Serif" font-size="11.00">defaultclause</text>
<polygon fill="none" stroke="black" points="129.5,-57 129.5,-79 229.5,-79 229.5,-57 129.5,-57"/>
<text text-anchor="start" x="132.5" y="-65.2" font-family="Helvetica,sans-Serif" font-size="11.00">varchar[200]</text>
<polygon fill="#ffffff" stroke="transparent" points="10.5,-39 10.5,-57 61.5,-57 61.5,-39 10.5,-39"/>
<polygon fill="none" stroke="black" points="10.5,-39 10.5,-57 61.5,-57 61.5,-39 10.5,-39"/>
<text text-anchor="start" x="13.5" y="-45.2" font-family="Helvetica,sans-Serif" font-size="11.00">&lt; 0</text>
<polygon fill="#ffffff" stroke="transparent" points="61.5,-39 61.5,-57 129.5,-57 129.5,-39 61.5,-39"/>
<polygon fill="none" stroke="black" points="61.5,-39 61.5,-57 129.5,-57 129.5,-39 61.5,-39"/>
<text text-anchor="start" x="93.5" y="-45.2" font-family="Helvetica,sans-Serif" font-size="11.00">0 rows</text>
<polygon fill="#ffffff" stroke="transparent" points="129.5,-39 129.5,-57 229.5,-57 229.5,-39 129.5,-39"/>
<polygon fill="none" stroke="black" points="129.5,-39 129.5,-57 229.5,-57 229.5,-39 129.5,-39"/>
<text text-anchor="start" x="210.5" y="-45.2" font-family="Helvetica,sans-Serif" font-size="11.00">0 &gt;</text>
<polygon fill="none" stroke="black" stroke-width="2" points="9,-38 9,-190 230,-190 230,-38 9,-38"/>
</a>
</g>
</g>
</g>
</svg>
