<?xml version="1.0" encoding="UTF-8" standalone="no"?>
<!DOCTYPE svg PUBLIC "-//W3C//DTD SVG 1.1//EN"
 "http://www.w3.org/Graphics/SVG/1.1/DTD/svg11.dtd">
<!-- Generated by graphviz version 2.43.0 (0)
 -->
<!-- Title: oneDegreeRelationshipsDiagramImplied Pages: 1 -->
<svg width="409pt" height="351pt"
 viewBox="0.00 0.00 409.00 351.00" xmlns="http://www.w3.org/2000/svg" xmlns:xlink="http://www.w3.org/1999/xlink">
<g id="graph0" class="graph" transform="scale(1 1) rotate(0) translate(4 347)">
<title>oneDegreeRelationshipsDiagramImplied</title>
<polygon fill="#ffffff" stroke="transparent" points="-4,4 -4,-347 405,-347 405,4 -4,4"/>
<text text-anchor="middle" x="71.5" y="-7.2" font-family="Helvetica,sans-Serif" font-size="11.00">Generated by SchemaSpy</text>
<!-- t_moveclient -->
<g id="node1" class="node">
<title>t_moveclient</title>
<g id="a_node1"><a xlink:href="../../tables/t_moveclient.html" xlink:title="t_moveclient" target="_top">
<polygon fill="#ffffff" stroke="transparent" points="198,-207 198,-339 393,-339 393,-207 198,-207"/>
<polygon fill="#f5f5f5" stroke="transparent" points="200.5,-315 200.5,-337 391.5,-337 391.5,-315 200.5,-315"/>
<polygon fill="none" stroke="black" points="200.5,-315 200.5,-337 391.5,-337 391.5,-315 200.5,-315"/>
<text text-anchor="start" x="205.5" y="-324.2" font-family="Helvetica,sans-Serif" font-weight="bold" font-size="11.00">t_moveclient</text>
<text text-anchor="start" x="356.5" y="-323.2" font-family="Helvetica,sans-Serif" font-size="11.00">[table]</text>
<polygon fill="#ffffff" stroke="transparent" points="200.5,-293 200.5,-315 328.5,-315 328.5,-293 200.5,-293"/>
<polygon fill="none" stroke="black" points="200.5,-293 200.5,-315 328.5,-315 328.5,-293 200.5,-293"/>
<image xlink:href="../../images/foreignKeys.png" width="11px" height="12px" preserveAspectRatio="xMinYMin meet" x="205.5" y="-310"/>
<text text-anchor="start" x="220.5" y="-301.2" font-family="Helvetica,sans-Serif" font-size="11.00">ad_pinstance_id</text>
<polygon fill="none" stroke="black" points="328.5,-293 328.5,-315 391.5,-315 391.5,-293 328.5,-293"/>
<text text-anchor="start" x="331.5" y="-301.2" font-family="Helvetica,sans-Serif" font-size="11.00">numeric[10]</text>
<polygon fill="#ffffff" stroke="transparent" points="200.5,-271 200.5,-293 328.5,-293 328.5,-271 200.5,-271"/>
<polygon fill="none" stroke="black" points="200.5,-271 200.5,-293 328.5,-293 328.5,-271 200.5,-271"/>
<text text-anchor="start" x="220.5" y="-279.2" font-family="Helvetica,sans-Serif" font-size="11.00">tablename</text>
<polygon fill="none" stroke="black" points="328.5,-271 328.5,-293 391.5,-293 391.5,-271 328.5,-271"/>
<text text-anchor="start" x="331.5" y="-279.2" font-family="Helvetica,sans-Serif" font-size="11.00">varchar[40]</text>
<polygon fill="#ffffff" stroke="transparent" points="200.5,-249 200.5,-271 328.5,-271 328.5,-249 200.5,-249"/>
<polygon fill="none" stroke="black" points="200.5,-249 200.5,-271 328.5,-271 328.5,-249 200.5,-249"/>
<text text-anchor="start" x="220.5" y="-257.2" font-family="Helvetica,sans-Serif" font-size="11.00">source_id</text>
<polygon fill="none" stroke="black" points="328.5,-249 328.5,-271 391.5,-271 391.5,-249 328.5,-249"/>
<text text-anchor="start" x="331.5" y="-257.2" font-family="Helvetica,sans-Serif" font-size="11.00">numeric[10]</text>
<polygon fill="none" stroke="black" points="200.5,-227 200.5,-249 328.5,-249 328.5,-227 200.5,-227"/>
<text text-anchor="start" x="220.5" y="-235.2" font-family="Helvetica,sans-Serif" font-size="11.00">target_id</text>
<polygon fill="none" stroke="black" points="328.5,-227 328.5,-249 391.5,-249 391.5,-227 328.5,-227"/>
<text text-anchor="start" x="331.5" y="-235.2" font-family="Helvetica,sans-Serif" font-size="11.00">numeric[10]</text>
<polygon fill="#ffffff" stroke="transparent" points="200.5,-209 200.5,-227 242.5,-227 242.5,-209 200.5,-209"/>
<polygon fill="none" stroke="black" points="200.5,-209 200.5,-227 242.5,-227 242.5,-209 200.5,-209"/>
<text text-anchor="start" x="203.5" y="-215.2" font-family="Helvetica,sans-Serif" font-size="11.00">&lt; 1</text>
<polygon fill="#ffffff" stroke="transparent" points="242.5,-209 242.5,-227 328.5,-227 328.5,-209 242.5,-209"/>
<polygon fill="none" stroke="black" points="242.5,-209 242.5,-227 328.5,-227 328.5,-209 242.5,-209"/>
<text text-anchor="start" x="265.5" y="-215.2" font-family="Helvetica,sans-Serif" font-size="11.00">71.926 rows</text>
<polygon fill="#ffffff" stroke="transparent" points="328.5,-209 328.5,-227 391.5,-227 391.5,-209 328.5,-209"/>
<polygon fill="none" stroke="black" points="328.5,-209 328.5,-227 391.5,-227 391.5,-209 328.5,-209"/>
<text text-anchor="start" x="372.5" y="-215.2" font-family="Helvetica,sans-Serif" font-size="11.00">0 &gt;</text>
<polygon fill="none" stroke="black" stroke-width="2" points="199,-208 199,-338 392,-338 392,-208 199,-208"/>
</a>
</g>
</g>
<!-- ad_pinstance -->
<g id="node2" class="node">
<title>ad_pinstance</title>
<g id="a_node2"><a xlink:href="../../tables/ad_pinstance.html" xlink:title="ad_pinstance" target="_top">
<polygon fill="#ffffff" stroke="transparent" points="8,-37 8,-337 149,-337 149,-37 8,-37"/>
<polygon fill="#f5f5f5" stroke="transparent" points="8.5,-315 8.5,-337 149.5,-337 149.5,-315 8.5,-315"/>
<polygon fill="none" stroke="black" points="8.5,-315 8.5,-337 149.5,-337 149.5,-315 8.5,-315"/>
<text text-anchor="start" x="13.5" y="-324.2" font-family="Helvetica,sans-Serif" font-weight="bold" font-size="11.00">ad_pinstance</text>
<text text-anchor="start" x="114.5" y="-323.2" font-family="Helvetica,sans-Serif" font-size="11.00">[table]</text>
<polygon fill="none" stroke="black" points="8.5,-293 8.5,-315 149.5,-315 149.5,-293 8.5,-293"/>
<image xlink:href="../../images/primaryKeys.png" width="11px" height="12px" preserveAspectRatio="xMinYMin meet" x="13.5" y="-310"/>
<text text-anchor="start" x="28.5" y="-301.2" font-family="Helvetica,sans-Serif" font-size="11.00">ad_pinstance_id</text>
<polygon fill="#ffffff" stroke="transparent" points="8.5,-271 8.5,-293 149.5,-293 149.5,-271 8.5,-271"/>
<polygon fill="none" stroke="black" points="8.5,-271 8.5,-293 149.5,-293 149.5,-271 8.5,-271"/>
<image xlink:href="../../images/foreignKeys.png" width="11px" height="12px" preserveAspectRatio="xMinYMin meet" x="13.5" y="-288"/>
<text text-anchor="start" x="28.5" y="-279.2" font-family="Helvetica,sans-Serif" font-size="11.00">ad_process_id</text>
<polygon fill="#ffffff" stroke="transparent" points="8.5,-249 8.5,-271 149.5,-271 149.5,-249 8.5,-249"/>
<polygon fill="none" stroke="black" points="8.5,-249 8.5,-271 149.5,-271 149.5,-249 8.5,-249"/>
<text text-anchor="start" x="28.5" y="-257.2" font-family="Helvetica,sans-Serif" font-size="11.00">record_id</text>
<polygon fill="#ffffff" stroke="transparent" points="8.5,-227 8.5,-249 149.5,-249 149.5,-227 8.5,-227"/>
<polygon fill="none" stroke="black" points="8.5,-227 8.5,-249 149.5,-249 149.5,-227 8.5,-227"/>
<image xlink:href="../../images/foreignKeys.png" width="11px" height="12px" preserveAspectRatio="xMinYMin meet" x="13.5" y="-244"/>
<text text-anchor="start" x="28.5" y="-235.2" font-family="Helvetica,sans-Serif" font-size="11.00">ad_user_id</text>
<polygon fill="#ffffff" stroke="transparent" points="8.5,-205 8.5,-227 149.5,-227 149.5,-205 8.5,-205"/>
<polygon fill="none" stroke="black" points="8.5,-205 8.5,-227 149.5,-227 149.5,-205 8.5,-205"/>
<text text-anchor="start" x="28.5" y="-213.2" font-family="Helvetica,sans-Serif" font-size="11.00">ad_client_id</text>
<polygon fill="#ffffff" stroke="transparent" points="8.5,-183 8.5,-205 149.5,-205 149.5,-183 8.5,-183"/>
<polygon fill="none" stroke="black" points="8.5,-183 8.5,-205 149.5,-205 149.5,-183 8.5,-183"/>
<text text-anchor="start" x="28.5" y="-191.2" font-family="Helvetica,sans-Serif" font-size="11.00">isactive</text>
<polygon fill="#ffffff" stroke="transparent" points="8.5,-161 8.5,-183 149.5,-183 149.5,-161 8.5,-161"/>
<polygon fill="none" stroke="black" points="8.5,-161 8.5,-183 149.5,-183 149.5,-161 8.5,-161"/>
<text text-anchor="start" x="28.5" y="-169.2" font-family="Helvetica,sans-Serif" font-size="11.00">ad_pinstance_uu</text>
<polygon fill="#ffffff" stroke="transparent" points="8.5,-139 8.5,-161 149.5,-161 149.5,-139 8.5,-139"/>
<polygon fill="none" stroke="black" points="8.5,-139 8.5,-161 149.5,-161 149.5,-139 8.5,-139"/>
<text text-anchor="start" x="28.5" y="-147.2" font-family="Helvetica,sans-Serif" font-size="11.00">name</text>
<polygon fill="none" stroke="black" points="8.5,-117 8.5,-139 149.5,-139 149.5,-117 8.5,-117"/>
<image xlink:href="../../images/foreignKeys.png" width="11px" height="12px" preserveAspectRatio="xMinYMin meet" x="13.5" y="-134"/>
<text text-anchor="start" x="28.5" y="-125.2" font-family="Helvetica,sans-Serif" font-size="11.00">ad_printformat_id</text>
<polygon fill="none" stroke="black" points="8.5,-95 8.5,-117 149.5,-117 149.5,-95 8.5,-95"/>
<image xlink:href="../../images/foreignKeys.png" width="11px" height="12px" preserveAspectRatio="xMinYMin meet" x="13.5" y="-112"/>
<text text-anchor="start" x="28.5" y="-103.2" font-family="Helvetica,sans-Serif" font-size="11.00">ad_language_id</text>
<polygon fill="none" stroke="black" points="8.5,-73 8.5,-95 149.5,-95 149.5,-73 8.5,-73"/>
<image xlink:href="../../images/foreignKeys.png" width="11px" height="12px" preserveAspectRatio="xMinYMin meet" x="13.5" y="-90"/>
<text text-anchor="start" x="28.5" y="-81.2" font-family="Helvetica,sans-Serif" font-size="11.00">ad_session_id</text>
<polygon fill="none" stroke="black" points="8.5,-55 8.5,-73 149.5,-73 149.5,-55 8.5,-55"/>
<text text-anchor="start" x="11.5" y="-61.2" font-family="Helvetica,sans-Serif" font-size="11.00">...</text>
<polygon fill="#ffffff" stroke="transparent" points="8.5,-37 8.5,-55 50.5,-55 50.5,-37 8.5,-37"/>
<polygon fill="none" stroke="black" points="8.5,-37 8.5,-55 50.5,-55 50.5,-37 8.5,-37"/>
<text text-anchor="start" x="11.5" y="-43.2" font-family="Helvetica,sans-Serif" font-size="11.00">&lt; 5</text>
<polygon fill="#ffffff" stroke="transparent" points="50.5,-37 50.5,-55 111.5,-55 111.5,-37 50.5,-37"/>
<polygon fill="none" stroke="black" points="50.5,-37 50.5,-55 111.5,-55 111.5,-37 50.5,-37"/>
<text text-anchor="start" x="63.5" y="-43.2" font-family="Helvetica,sans-Serif" font-size="11.00">150 rows</text>
<polygon fill="#ffffff" stroke="transparent" points="111.5,-37 111.5,-55 149.5,-55 149.5,-37 111.5,-37"/>
<polygon fill="none" stroke="black" points="111.5,-37 111.5,-55 149.5,-55 149.5,-37 111.5,-37"/>
<text text-anchor="start" x="124.5" y="-43.2" font-family="Helvetica,sans-Serif" font-size="11.00">33 &gt;</text>
</a>
</g>
</g>
<!-- t_moveclient&#45;&gt;ad_pinstance -->
<g id="edge1" class="edge">
<title>t_moveclient:w&#45;&gt;ad_pinstance:e</title>
<path fill="none" stroke="black" stroke-dasharray="5,2" d="M184.99,-304C173.68,-304 166.49,-304 150.5,-304"/>
<polygon fill="black" stroke="black" points="191.5,-304 199.5,-307.6 195.5,-304 199.5,-304 199.5,-304 199.5,-304 195.5,-304 199.5,-300.4 191.5,-304 191.5,-304"/>
<ellipse fill="none" stroke="black" cx="188.3" cy="-304" rx="3.2" ry="3.2"/>
</g>
</g>
</svg>
