<?xml version="1.0" encoding="UTF-8" standalone="no"?>
<!DOCTYPE svg PUBLIC "-//W3C//DTD SVG 1.1//EN"
 "http://www.w3.org/Graphics/SVG/1.1/DTD/svg11.dtd">
<!-- Generated by graphviz version 2.43.0 (0)
 -->
<!-- Title: oneDegreeRelationshipsDiagramImplied Pages: 1 -->
<svg width="452pt" height="1012pt"
 viewBox="0.00 0.00 452.00 1012.00" xmlns="http://www.w3.org/2000/svg" xmlns:xlink="http://www.w3.org/1999/xlink">
<g id="graph0" class="graph" transform="scale(1 1) rotate(0) translate(4 1008)">
<title>oneDegreeRelationshipsDiagramImplied</title>
<polygon fill="#ffffff" stroke="transparent" points="-4,4 -4,-1008 448,-1008 448,4 -4,4"/>
<text text-anchor="middle" x="71.5" y="-7.2" font-family="Helvetica,sans-Serif" font-size="11.00">Generated by SchemaSpy</text>
<!-- ad_field_backup -->
<g id="node1" class="node">
<title>ad_field_backup</title>
<g id="a_node1"><a xlink:href="../../tables/ad_field_backup.html" xlink:title="ad_field_backup" target="_top">
<polygon fill="#ffffff" stroke="transparent" points="255,-854 255,-1000 425,-1000 425,-854 255,-854"/>
<polygon fill="#f5f5f5" stroke="transparent" points="255,-978 255,-1000 425,-1000 425,-978 255,-978"/>
<polygon fill="none" stroke="black" points="255,-978 255,-1000 425,-1000 425,-978 255,-978"/>
<text text-anchor="start" x="260" y="-987.2" font-family="Helvetica,sans-Serif" font-weight="bold" font-size="11.00">ad_field_backup</text>
<text text-anchor="start" x="390" y="-986.2" font-family="Helvetica,sans-Serif" font-size="11.00">[table]</text>
<polygon fill="none" stroke="black" points="255,-956 255,-978 425,-978 425,-956 255,-956"/>
<image xlink:href="../../images/foreignKeys.png" width="11px" height="12px" preserveAspectRatio="xMinYMin meet" x="260" y="-973"/>
<text text-anchor="start" x="275" y="-964.2" font-family="Helvetica,sans-Serif" font-size="11.00">ad_fieldgroup_id</text>
<polygon fill="none" stroke="black" points="255,-934 255,-956 425,-956 425,-934 255,-934"/>
<image xlink:href="../../images/foreignKeys.png" width="11px" height="12px" preserveAspectRatio="xMinYMin meet" x="260" y="-951"/>
<text text-anchor="start" x="275" y="-942.2" font-family="Helvetica,sans-Serif" font-size="11.00">ad_reference_value_id</text>
<polygon fill="none" stroke="black" points="255,-912 255,-934 425,-934 425,-912 255,-912"/>
<image xlink:href="../../images/foreignKeys.png" width="11px" height="12px" preserveAspectRatio="xMinYMin meet" x="260" y="-929"/>
<text text-anchor="start" x="275" y="-920.2" font-family="Helvetica,sans-Serif" font-size="11.00">ad_val_rule_id</text>
<polygon fill="none" stroke="black" points="255,-890 255,-912 425,-912 425,-890 255,-890"/>
<image xlink:href="../../images/foreignKeys.png" width="11px" height="12px" preserveAspectRatio="xMinYMin meet" x="260" y="-907"/>
<text text-anchor="start" x="275" y="-898.2" font-family="Helvetica,sans-Serif" font-size="11.00">ad_field_id</text>
<polygon fill="none" stroke="black" points="255,-872 255,-890 425,-890 425,-872 255,-872"/>
<text text-anchor="start" x="258" y="-878.2" font-family="Helvetica,sans-Serif" font-size="11.00">...</text>
<polygon fill="#ffffff" stroke="transparent" points="255,-854 255,-872 311,-872 311,-854 255,-854"/>
<polygon fill="none" stroke="black" points="255,-854 255,-872 311,-872 311,-854 255,-854"/>
<text text-anchor="start" x="258" y="-860.2" font-family="Helvetica,sans-Serif" font-size="11.00">&lt; 4</text>
<polygon fill="#ffffff" stroke="transparent" points="311,-854 311,-872 394,-872 394,-854 311,-854"/>
<polygon fill="none" stroke="black" points="311,-854 311,-872 394,-872 394,-854 311,-854"/>
<text text-anchor="start" x="331" y="-860.2" font-family="Helvetica,sans-Serif" font-size="11.00">30.308 rows</text>
<polygon fill="#ffffff" stroke="transparent" points="394,-854 394,-872 425,-872 425,-854 394,-854"/>
<polygon fill="none" stroke="black" points="394,-854 394,-872 425,-872 425,-854 394,-854"/>
<text text-anchor="start" x="415" y="-860.2" font-family="Helvetica,sans-Serif" font-size="11.00"> &#160;</text>
</a>
</g>
</g>
<!-- value -->
<g id="node2" class="node">
<title>value</title>
<g id="a_node2"><a xlink:href="../../tables/value.html" xlink:title="value" target="_top">
<polygon fill="#ffffff" stroke="transparent" points="8,-331 8,-551 195,-551 195,-331 8,-331"/>
<polygon fill="#f5f5f5" stroke="transparent" points="10.5,-527 10.5,-549 193.5,-549 193.5,-527 10.5,-527"/>
<polygon fill="none" stroke="black" points="10.5,-527 10.5,-549 193.5,-549 193.5,-527 10.5,-527"/>
<text text-anchor="start" x="15.5" y="-536.2" font-family="Helvetica,sans-Serif" font-weight="bold" font-size="11.00">value</text>
<text text-anchor="start" x="158.5" y="-535.2" font-family="Helvetica,sans-Serif" font-size="11.00">[table]</text>
<polygon fill="none" stroke="black" points="10.5,-505 10.5,-527 110.5,-527 110.5,-505 10.5,-505"/>
<image xlink:href="../../images/primaryKeys.png" width="11px" height="12px" preserveAspectRatio="xMinYMin meet" x="15.5" y="-522"/>
<text text-anchor="start" x="30.5" y="-513.2" font-family="Helvetica,sans-Serif" font-size="11.00">value_id</text>
<polygon fill="none" stroke="black" points="110.5,-505 110.5,-527 193.5,-527 193.5,-505 110.5,-505"/>
<text text-anchor="start" x="113.5" y="-513.2" font-family="Helvetica,sans-Serif" font-size="11.00">numeric[10]</text>
<polygon fill="none" stroke="black" points="10.5,-483 10.5,-505 110.5,-505 110.5,-483 10.5,-483"/>
<text text-anchor="start" x="30.5" y="-491.2" font-family="Helvetica,sans-Serif" font-size="11.00">ad_client_id</text>
<polygon fill="none" stroke="black" points="110.5,-483 110.5,-505 193.5,-505 193.5,-483 110.5,-483"/>
<text text-anchor="start" x="113.5" y="-491.2" font-family="Helvetica,sans-Serif" font-size="11.00">numeric[10]</text>
<polygon fill="none" stroke="black" points="10.5,-461 10.5,-483 110.5,-483 110.5,-461 10.5,-461"/>
<text text-anchor="start" x="30.5" y="-469.2" font-family="Helvetica,sans-Serif" font-size="11.00">ad_org_id</text>
<polygon fill="none" stroke="black" points="110.5,-461 110.5,-483 193.5,-483 193.5,-461 110.5,-461"/>
<text text-anchor="start" x="113.5" y="-469.2" font-family="Helvetica,sans-Serif" font-size="11.00">numeric[10]</text>
<polygon fill="none" stroke="black" points="10.5,-439 10.5,-461 110.5,-461 110.5,-439 10.5,-439"/>
<text text-anchor="start" x="30.5" y="-447.2" font-family="Helvetica,sans-Serif" font-size="11.00">isactive</text>
<polygon fill="none" stroke="black" points="110.5,-439 110.5,-461 193.5,-461 193.5,-439 110.5,-439"/>
<text text-anchor="start" x="113.5" y="-447.2" font-family="Helvetica,sans-Serif" font-size="11.00">bpchar[1]</text>
<polygon fill="none" stroke="black" points="10.5,-417 10.5,-439 110.5,-439 110.5,-417 10.5,-417"/>
<text text-anchor="start" x="30.5" y="-425.2" font-family="Helvetica,sans-Serif" font-size="11.00">created</text>
<polygon fill="none" stroke="black" points="110.5,-417 110.5,-439 193.5,-439 193.5,-417 110.5,-417"/>
<text text-anchor="start" x="113.5" y="-425.2" font-family="Helvetica,sans-Serif" font-size="11.00">timestamp[29,6]</text>
<polygon fill="none" stroke="black" points="10.5,-395 10.5,-417 110.5,-417 110.5,-395 10.5,-395"/>
<text text-anchor="start" x="30.5" y="-403.2" font-family="Helvetica,sans-Serif" font-size="11.00">createdby</text>
<polygon fill="none" stroke="black" points="110.5,-395 110.5,-417 193.5,-417 193.5,-395 110.5,-395"/>
<text text-anchor="start" x="113.5" y="-403.2" font-family="Helvetica,sans-Serif" font-size="11.00">numeric[10]</text>
<polygon fill="none" stroke="black" points="10.5,-373 10.5,-395 110.5,-395 110.5,-373 10.5,-373"/>
<text text-anchor="start" x="30.5" y="-381.2" font-family="Helvetica,sans-Serif" font-size="11.00">updated</text>
<polygon fill="none" stroke="black" points="110.5,-373 110.5,-395 193.5,-395 193.5,-373 110.5,-373"/>
<text text-anchor="start" x="113.5" y="-381.2" font-family="Helvetica,sans-Serif" font-size="11.00">timestamp[29,6]</text>
<polygon fill="none" stroke="black" points="10.5,-351 10.5,-373 110.5,-373 110.5,-351 10.5,-351"/>
<text text-anchor="start" x="30.5" y="-359.2" font-family="Helvetica,sans-Serif" font-size="11.00">updatedby</text>
<polygon fill="none" stroke="black" points="110.5,-351 110.5,-373 193.5,-373 193.5,-351 110.5,-351"/>
<text text-anchor="start" x="113.5" y="-359.2" font-family="Helvetica,sans-Serif" font-size="11.00">numeric[10]</text>
<polygon fill="#ffffff" stroke="transparent" points="10.5,-333 10.5,-351 51.5,-351 51.5,-333 10.5,-333"/>
<polygon fill="none" stroke="black" points="10.5,-333 10.5,-351 51.5,-351 51.5,-333 10.5,-333"/>
<text text-anchor="start" x="13.5" y="-339.2" font-family="Helvetica,sans-Serif" font-size="11.00">&lt; 0</text>
<polygon fill="#ffffff" stroke="transparent" points="51.5,-333 51.5,-351 110.5,-351 110.5,-333 51.5,-333"/>
<polygon fill="none" stroke="black" points="51.5,-333 51.5,-351 110.5,-351 110.5,-333 51.5,-333"/>
<text text-anchor="start" x="74.5" y="-339.2" font-family="Helvetica,sans-Serif" font-size="11.00">0 rows</text>
<polygon fill="#ffffff" stroke="transparent" points="110.5,-333 110.5,-351 193.5,-351 193.5,-333 110.5,-333"/>
<polygon fill="none" stroke="black" points="110.5,-333 110.5,-351 193.5,-351 193.5,-333 110.5,-333"/>
<text text-anchor="start" x="174.5" y="-339.2" font-family="Helvetica,sans-Serif" font-size="11.00">4 &gt;</text>
<polygon fill="none" stroke="black" stroke-width="2" points="9,-332 9,-550 194,-550 194,-332 9,-332"/>
</a>
</g>
</g>
<!-- ad_field_backup&#45;&gt;value -->
<g id="edge1" class="edge">
<title>ad_field_backup:w&#45;&gt;value:e</title>
<path fill="none" stroke="black" stroke-dasharray="5,2" d="M239.77,-941.03C172.08,-897.78 285.29,-516 194.5,-516"/>
<polygon fill="black" stroke="black" points="246.29,-942.85 253.03,-948.47 250.15,-943.92 254,-945 254,-945 254,-945 250.15,-943.92 254.97,-941.53 246.29,-942.85 246.29,-942.85"/>
<ellipse fill="none" stroke="black" cx="243.21" cy="-941.99" rx="3.2" ry="3.2"/>
</g>
<!-- ad_field_v -->
<g id="node3" class="node">
<title>ad_field_v</title>
<g id="a_node3"><a xlink:href="../../tables/ad_field_v.html" xlink:title="ad_field_v" target="_top">
<polygon fill="#ffffff" stroke="transparent" points="247,-529 247,-833 433,-833 433,-529 247,-529"/>
<polygon fill="#f5f5f5" stroke="transparent" points="247,-811 247,-833 433,-833 433,-811 247,-811"/>
<polygon fill="none" stroke="black" points="247,-811 247,-833 433,-833 433,-811 247,-811"/>
<text text-anchor="start" x="252" y="-820.2" font-family="Helvetica,sans-Serif" font-weight="bold" font-size="11.00">ad_field_v</text>
<text text-anchor="start" x="400" y="-819.2" font-family="Helvetica,sans-Serif" font-size="11.00">[view]</text>
<polygon fill="none" stroke="black" points="247,-789 247,-811 433,-811 433,-789 247,-789"/>
<image xlink:href="../../images/foreignKeys.png" width="11px" height="12px" preserveAspectRatio="xMinYMin meet" x="252" y="-806"/>
<text text-anchor="start" x="267" y="-797.2" font-family="Helvetica,sans-Serif" font-size="11.00">ad_window_id</text>
<polygon fill="none" stroke="black" points="247,-767 247,-789 433,-789 433,-767 247,-767"/>
<image xlink:href="../../images/foreignKeys.png" width="11px" height="12px" preserveAspectRatio="xMinYMin meet" x="252" y="-784"/>
<text text-anchor="start" x="267" y="-775.2" font-family="Helvetica,sans-Serif" font-size="11.00">ad_tab_id</text>
<polygon fill="none" stroke="black" points="247,-745 247,-767 433,-767 433,-745 247,-745"/>
<image xlink:href="../../images/foreignKeys.png" width="11px" height="12px" preserveAspectRatio="xMinYMin meet" x="252" y="-762"/>
<text text-anchor="start" x="267" y="-753.2" font-family="Helvetica,sans-Serif" font-size="11.00">ad_field_id</text>
<polygon fill="none" stroke="black" points="247,-723 247,-745 433,-745 433,-723 247,-723"/>
<image xlink:href="../../images/foreignKeys.png" width="11px" height="12px" preserveAspectRatio="xMinYMin meet" x="252" y="-740"/>
<text text-anchor="start" x="267" y="-731.2" font-family="Helvetica,sans-Serif" font-size="11.00">ad_table_id</text>
<polygon fill="none" stroke="black" points="247,-701 247,-723 433,-723 433,-701 247,-701"/>
<image xlink:href="../../images/foreignKeys.png" width="11px" height="12px" preserveAspectRatio="xMinYMin meet" x="252" y="-718"/>
<text text-anchor="start" x="267" y="-709.2" font-family="Helvetica,sans-Serif" font-size="11.00">ad_column_id</text>
<polygon fill="none" stroke="black" points="247,-679 247,-701 433,-701 433,-679 247,-679"/>
<image xlink:href="../../images/foreignKeys.png" width="11px" height="12px" preserveAspectRatio="xMinYMin meet" x="252" y="-696"/>
<text text-anchor="start" x="267" y="-687.2" font-family="Helvetica,sans-Serif" font-size="11.00">ad_reference_value_id</text>
<polygon fill="none" stroke="black" points="247,-657 247,-679 433,-679 433,-657 247,-657"/>
<image xlink:href="../../images/foreignKeys.png" width="11px" height="12px" preserveAspectRatio="xMinYMin meet" x="252" y="-674"/>
<text text-anchor="start" x="267" y="-665.2" font-family="Helvetica,sans-Serif" font-size="11.00">ad_val_rule_id</text>
<polygon fill="none" stroke="black" points="247,-635 247,-657 433,-657 433,-635 247,-635"/>
<image xlink:href="../../images/foreignKeys.png" width="11px" height="12px" preserveAspectRatio="xMinYMin meet" x="252" y="-652"/>
<text text-anchor="start" x="267" y="-643.2" font-family="Helvetica,sans-Serif" font-size="11.00">ad_process_id</text>
<polygon fill="none" stroke="black" points="247,-613 247,-635 433,-635 433,-613 247,-613"/>
<image xlink:href="../../images/foreignKeys.png" width="11px" height="12px" preserveAspectRatio="xMinYMin meet" x="252" y="-630"/>
<text text-anchor="start" x="267" y="-621.2" font-family="Helvetica,sans-Serif" font-size="11.00">ad_chart_id</text>
<polygon fill="none" stroke="black" points="247,-591 247,-613 433,-613 433,-591 247,-591"/>
<image xlink:href="../../images/foreignKeys.png" width="11px" height="12px" preserveAspectRatio="xMinYMin meet" x="252" y="-608"/>
<text text-anchor="start" x="267" y="-599.2" font-family="Helvetica,sans-Serif" font-size="11.00">pa_dashboardcontent_id</text>
<polygon fill="none" stroke="black" points="247,-569 247,-591 433,-591 433,-569 247,-569"/>
<image xlink:href="../../images/foreignKeys.png" width="11px" height="12px" preserveAspectRatio="xMinYMin meet" x="252" y="-586"/>
<text text-anchor="start" x="267" y="-577.2" font-family="Helvetica,sans-Serif" font-size="11.00">entitytype</text>
<polygon fill="none" stroke="black" points="247,-547 247,-569 433,-569 433,-547 247,-547"/>
<image xlink:href="../../images/foreignKeys.png" width="11px" height="12px" preserveAspectRatio="xMinYMin meet" x="252" y="-564"/>
<text text-anchor="start" x="267" y="-555.2" font-family="Helvetica,sans-Serif" font-size="11.00">ad_infowindow_id</text>
<polygon fill="none" stroke="black" points="247,-529 247,-547 433,-547 433,-529 247,-529"/>
<text text-anchor="start" x="250" y="-535.2" font-family="Helvetica,sans-Serif" font-size="11.00">...</text>
</a>
</g>
</g>
<!-- ad_field_v&#45;&gt;value -->
<g id="edge2" class="edge">
<title>ad_field_v:w&#45;&gt;value:e</title>
<path fill="none" stroke="black" stroke-dasharray="5,2" d="M231.68,-687.54C179.85,-666.39 269.48,-516 194.5,-516"/>
<polygon fill="black" stroke="black" points="238.12,-688.65 245.39,-693.55 242.06,-689.32 246,-690 246,-690 246,-690 242.06,-689.32 246.61,-686.45 238.12,-688.65 238.12,-688.65"/>
<ellipse fill="none" stroke="black" cx="234.96" cy="-688.1" rx="3.2" ry="3.2"/>
</g>
<!-- ad_field_vt -->
<g id="node4" class="node">
<title>ad_field_vt</title>
<g id="a_node4"><a xlink:href="../../tables/ad_field_vt.html" xlink:title="ad_field_vt" target="_top">
<polygon fill="#ffffff" stroke="transparent" points="247,-182 247,-508 433,-508 433,-182 247,-182"/>
<polygon fill="#f5f5f5" stroke="transparent" points="247,-486 247,-508 433,-508 433,-486 247,-486"/>
<polygon fill="none" stroke="black" points="247,-486 247,-508 433,-508 433,-486 247,-486"/>
<text text-anchor="start" x="252" y="-495.2" font-family="Helvetica,sans-Serif" font-weight="bold" font-size="11.00">ad_field_vt</text>
<text text-anchor="start" x="400" y="-494.2" font-family="Helvetica,sans-Serif" font-size="11.00">[view]</text>
<polygon fill="none" stroke="black" points="247,-464 247,-486 433,-486 433,-464 247,-464"/>
<image xlink:href="../../images/foreignKeys.png" width="11px" height="12px" preserveAspectRatio="xMinYMin meet" x="252" y="-481"/>
<text text-anchor="start" x="267" y="-472.2" font-family="Helvetica,sans-Serif" font-size="11.00">ad_language</text>
<polygon fill="none" stroke="black" points="247,-442 247,-464 433,-464 433,-442 247,-442"/>
<image xlink:href="../../images/foreignKeys.png" width="11px" height="12px" preserveAspectRatio="xMinYMin meet" x="252" y="-459"/>
<text text-anchor="start" x="267" y="-450.2" font-family="Helvetica,sans-Serif" font-size="11.00">ad_window_id</text>
<polygon fill="none" stroke="black" points="247,-420 247,-442 433,-442 433,-420 247,-420"/>
<image xlink:href="../../images/foreignKeys.png" width="11px" height="12px" preserveAspectRatio="xMinYMin meet" x="252" y="-437"/>
<text text-anchor="start" x="267" y="-428.2" font-family="Helvetica,sans-Serif" font-size="11.00">ad_tab_id</text>
<polygon fill="none" stroke="black" points="247,-398 247,-420 433,-420 433,-398 247,-398"/>
<image xlink:href="../../images/foreignKeys.png" width="11px" height="12px" preserveAspectRatio="xMinYMin meet" x="252" y="-415"/>
<text text-anchor="start" x="267" y="-406.2" font-family="Helvetica,sans-Serif" font-size="11.00">ad_field_id</text>
<polygon fill="none" stroke="black" points="247,-376 247,-398 433,-398 433,-376 247,-376"/>
<image xlink:href="../../images/foreignKeys.png" width="11px" height="12px" preserveAspectRatio="xMinYMin meet" x="252" y="-393"/>
<text text-anchor="start" x="267" y="-384.2" font-family="Helvetica,sans-Serif" font-size="11.00">ad_table_id</text>
<polygon fill="none" stroke="black" points="247,-354 247,-376 433,-376 433,-354 247,-354"/>
<image xlink:href="../../images/foreignKeys.png" width="11px" height="12px" preserveAspectRatio="xMinYMin meet" x="252" y="-371"/>
<text text-anchor="start" x="267" y="-362.2" font-family="Helvetica,sans-Serif" font-size="11.00">ad_column_id</text>
<polygon fill="none" stroke="black" points="247,-332 247,-354 433,-354 433,-332 247,-332"/>
<image xlink:href="../../images/foreignKeys.png" width="11px" height="12px" preserveAspectRatio="xMinYMin meet" x="252" y="-349"/>
<text text-anchor="start" x="267" y="-340.2" font-family="Helvetica,sans-Serif" font-size="11.00">ad_reference_value_id</text>
<polygon fill="none" stroke="black" points="247,-310 247,-332 433,-332 433,-310 247,-310"/>
<image xlink:href="../../images/foreignKeys.png" width="11px" height="12px" preserveAspectRatio="xMinYMin meet" x="252" y="-327"/>
<text text-anchor="start" x="267" y="-318.2" font-family="Helvetica,sans-Serif" font-size="11.00">ad_val_rule_id</text>
<polygon fill="none" stroke="black" points="247,-288 247,-310 433,-310 433,-288 247,-288"/>
<image xlink:href="../../images/foreignKeys.png" width="11px" height="12px" preserveAspectRatio="xMinYMin meet" x="252" y="-305"/>
<text text-anchor="start" x="267" y="-296.2" font-family="Helvetica,sans-Serif" font-size="11.00">ad_process_id</text>
<polygon fill="none" stroke="black" points="247,-266 247,-288 433,-288 433,-266 247,-266"/>
<image xlink:href="../../images/foreignKeys.png" width="11px" height="12px" preserveAspectRatio="xMinYMin meet" x="252" y="-283"/>
<text text-anchor="start" x="267" y="-274.2" font-family="Helvetica,sans-Serif" font-size="11.00">ad_chart_id</text>
<polygon fill="none" stroke="black" points="247,-244 247,-266 433,-266 433,-244 247,-244"/>
<image xlink:href="../../images/foreignKeys.png" width="11px" height="12px" preserveAspectRatio="xMinYMin meet" x="252" y="-261"/>
<text text-anchor="start" x="267" y="-252.2" font-family="Helvetica,sans-Serif" font-size="11.00">pa_dashboardcontent_id</text>
<polygon fill="none" stroke="black" points="247,-222 247,-244 433,-244 433,-222 247,-222"/>
<image xlink:href="../../images/foreignKeys.png" width="11px" height="12px" preserveAspectRatio="xMinYMin meet" x="252" y="-239"/>
<text text-anchor="start" x="267" y="-230.2" font-family="Helvetica,sans-Serif" font-size="11.00">entitytype</text>
<polygon fill="none" stroke="black" points="247,-200 247,-222 433,-222 433,-200 247,-200"/>
<image xlink:href="../../images/foreignKeys.png" width="11px" height="12px" preserveAspectRatio="xMinYMin meet" x="252" y="-217"/>
<text text-anchor="start" x="267" y="-208.2" font-family="Helvetica,sans-Serif" font-size="11.00">ad_infowindow_id</text>
<polygon fill="none" stroke="black" points="247,-182 247,-200 433,-200 433,-182 247,-182"/>
<text text-anchor="start" x="250" y="-188.2" font-family="Helvetica,sans-Serif" font-size="11.00">...</text>
</a>
</g>
</g>
<!-- ad_field_vt&#45;&gt;value -->
<g id="edge3" class="edge">
<title>ad_field_vt:w&#45;&gt;value:e</title>
<path fill="none" stroke="black" stroke-dasharray="5,2" d="M231.75,-345.45C180.16,-366.47 269.08,-516 194.5,-516"/>
<polygon fill="black" stroke="black" points="238.12,-344.35 246.61,-346.55 242.06,-343.68 246,-343 246,-343 246,-343 242.06,-343.68 245.39,-339.45 238.12,-344.35 238.12,-344.35"/>
<ellipse fill="none" stroke="black" cx="234.96" cy="-344.89" rx="3.2" ry="3.2"/>
</g>
<!-- ad_infocolumn_backup -->
<g id="node5" class="node">
<title>ad_infocolumn_backup</title>
<g id="a_node5"><a xlink:href="../../tables/ad_infocolumn_backup.html" xlink:title="ad_infocolumn_backup" target="_top">
<polygon fill="#ffffff" stroke="transparent" points="244,-37 244,-161 436,-161 436,-37 244,-37"/>
<polygon fill="#f5f5f5" stroke="transparent" points="244,-139 244,-161 436,-161 436,-139 244,-139"/>
<polygon fill="none" stroke="black" points="244,-139 244,-161 436,-161 436,-139 244,-139"/>
<text text-anchor="start" x="249" y="-148.2" font-family="Helvetica,sans-Serif" font-weight="bold" font-size="11.00">ad_infocolumn_backup</text>
<text text-anchor="start" x="401" y="-147.2" font-family="Helvetica,sans-Serif" font-size="11.00">[table]</text>
<polygon fill="none" stroke="black" points="244,-117 244,-139 436,-139 436,-117 244,-117"/>
<image xlink:href="../../images/foreignKeys.png" width="11px" height="12px" preserveAspectRatio="xMinYMin meet" x="249" y="-134"/>
<text text-anchor="start" x="274" y="-125.2" font-family="Helvetica,sans-Serif" font-size="11.00">ad_reference_value_id</text>
<polygon fill="none" stroke="black" points="244,-95 244,-117 436,-117 436,-95 244,-95"/>
<image xlink:href="../../images/foreignKeys.png" width="11px" height="12px" preserveAspectRatio="xMinYMin meet" x="249" y="-112"/>
<text text-anchor="start" x="274" y="-103.2" font-family="Helvetica,sans-Serif" font-size="11.00">ad_val_rule_id</text>
<polygon fill="none" stroke="black" points="244,-73 244,-95 436,-95 436,-73 244,-73"/>
<image xlink:href="../../images/foreignKeys.png" width="11px" height="12px" preserveAspectRatio="xMinYMin meet" x="249" y="-90"/>
<text text-anchor="start" x="274" y="-81.2" font-family="Helvetica,sans-Serif" font-size="11.00">ad_infocolumn_id</text>
<polygon fill="none" stroke="black" points="244,-55 244,-73 436,-73 436,-55 244,-55"/>
<text text-anchor="start" x="247" y="-61.2" font-family="Helvetica,sans-Serif" font-size="11.00">...</text>
<polygon fill="#ffffff" stroke="transparent" points="244,-37 244,-55 319,-55 319,-37 244,-37"/>
<polygon fill="none" stroke="black" points="244,-37 244,-55 319,-55 319,-37 244,-37"/>
<text text-anchor="start" x="247" y="-43.2" font-family="Helvetica,sans-Serif" font-size="11.00">&lt; 3</text>
<polygon fill="#ffffff" stroke="transparent" points="319,-37 319,-55 396,-55 396,-37 319,-37"/>
<polygon fill="none" stroke="black" points="319,-37 319,-55 396,-55 396,-37 319,-37"/>
<text text-anchor="start" x="348" y="-43.2" font-family="Helvetica,sans-Serif" font-size="11.00">766 rows</text>
<polygon fill="#ffffff" stroke="transparent" points="396,-37 396,-55 436,-55 436,-37 396,-37"/>
<polygon fill="none" stroke="black" points="396,-37 396,-55 436,-55 436,-37 396,-37"/>
<text text-anchor="start" x="426" y="-43.2" font-family="Helvetica,sans-Serif" font-size="11.00"> &#160;</text>
</a>
</g>
</g>
<!-- ad_infocolumn_backup&#45;&gt;value -->
<g id="edge4" class="edge">
<title>ad_infocolumn_backup:w&#45;&gt;value:e</title>
<path fill="none" stroke="black" stroke-dasharray="5,2" d="M229.09,-132.36C170.94,-174.98 275.96,-516 194.5,-516"/>
<polygon fill="black" stroke="black" points="235.37,-130.39 244.08,-131.44 239.18,-129.2 243,-128 243,-128 243,-128 239.18,-129.2 241.92,-124.56 235.37,-130.39 235.37,-130.39"/>
<ellipse fill="none" stroke="black" cx="232.31" cy="-131.35" rx="3.2" ry="3.2"/>
</g>
</g>
</svg>
