<?xml version="1.0" encoding="UTF-8" standalone="no"?>
<!DOCTYPE svg PUBLIC "-//W3C//DTD SVG 1.1//EN"
 "http://www.w3.org/Graphics/SVG/1.1/DTD/svg11.dtd">
<!-- Generated by graphviz version 2.43.0 (0)
 -->
<!-- Title: oneDegreeRelationshipsDiagram Pages: 1 -->
<svg width="755pt" height="965pt"
 viewBox="0.00 0.00 755.00 965.00" xmlns="http://www.w3.org/2000/svg" xmlns:xlink="http://www.w3.org/1999/xlink">
<g id="graph0" class="graph" transform="scale(1 1) rotate(0) translate(4 961)">
<title>oneDegreeRelationshipsDiagram</title>
<polygon fill="#ffffff" stroke="transparent" points="-4,4 -4,-961 751,-961 751,4 -4,4"/>
<text text-anchor="middle" x="71.5" y="-7.2" font-family="Helvetica,sans-Serif" font-size="11.00">Generated by SchemaSpy</text>
<!-- w_advertisement -->
<g id="node1" class="node">
<title>w_advertisement</title>
<g id="a_node1"><a xlink:href="../../tables/w_advertisement.html" xlink:title="w_advertisement" target="_top">
<polygon fill="#ffffff" stroke="transparent" points="580,-763 580,-953 739,-953 739,-763 580,-763"/>
<polygon fill="#f5f5f5" stroke="transparent" points="580.5,-931 580.5,-953 739.5,-953 739.5,-931 580.5,-931"/>
<polygon fill="none" stroke="black" points="580.5,-931 580.5,-953 739.5,-953 739.5,-931 580.5,-931"/>
<text text-anchor="start" x="585.5" y="-940.2" font-family="Helvetica,sans-Serif" font-weight="bold" font-size="11.00">w_advertisement</text>
<text text-anchor="start" x="704.5" y="-939.2" font-family="Helvetica,sans-Serif" font-size="11.00">[table]</text>
<polygon fill="none" stroke="black" points="580.5,-909 580.5,-931 739.5,-931 739.5,-909 580.5,-909"/>
<image xlink:href="../../images/primaryKeys.png" width="11px" height="12px" preserveAspectRatio="xMinYMin meet" x="585.5" y="-926"/>
<text text-anchor="start" x="600.5" y="-917.2" font-family="Helvetica,sans-Serif" font-size="11.00">w_advertisement_id</text>
<polygon fill="none" stroke="black" points="580.5,-887 580.5,-909 739.5,-909 739.5,-887 580.5,-887"/>
<image xlink:href="../../images/foreignKeys.png" width="11px" height="12px" preserveAspectRatio="xMinYMin meet" x="585.5" y="-904"/>
<text text-anchor="start" x="600.5" y="-895.2" font-family="Helvetica,sans-Serif" font-size="11.00">c_bpartner_id</text>
<polygon fill="none" stroke="black" points="580.5,-865 580.5,-887 739.5,-887 739.5,-865 580.5,-865"/>
<image xlink:href="../../images/foreignKeys.png" width="11px" height="12px" preserveAspectRatio="xMinYMin meet" x="585.5" y="-882"/>
<text text-anchor="start" x="600.5" y="-873.2" font-family="Helvetica,sans-Serif" font-size="11.00">ad_user_id</text>
<polygon fill="none" stroke="black" points="580.5,-843 580.5,-865 739.5,-865 739.5,-843 580.5,-843"/>
<image xlink:href="../../images/foreignKeys.png" width="11px" height="12px" preserveAspectRatio="xMinYMin meet" x="585.5" y="-860"/>
<text text-anchor="start" x="600.5" y="-851.2" font-family="Helvetica,sans-Serif" font-size="11.00">w_clickcount_id</text>
<polygon fill="none" stroke="black" points="580.5,-821 580.5,-843 739.5,-843 739.5,-821 580.5,-821"/>
<image xlink:href="../../images/foreignKeys.png" width="11px" height="12px" preserveAspectRatio="xMinYMin meet" x="585.5" y="-838"/>
<text text-anchor="start" x="600.5" y="-829.2" font-family="Helvetica,sans-Serif" font-size="11.00">w_countercount_id</text>
<polygon fill="#ffffff" stroke="transparent" points="580.5,-799 580.5,-821 739.5,-821 739.5,-799 580.5,-799"/>
<polygon fill="none" stroke="black" points="580.5,-799 580.5,-821 739.5,-821 739.5,-799 580.5,-799"/>
<text text-anchor="start" x="600.5" y="-807.2" font-family="Helvetica,sans-Serif" font-size="11.00">w_advertisement_uu</text>
<polygon fill="none" stroke="black" points="580.5,-781 580.5,-799 739.5,-799 739.5,-781 580.5,-781"/>
<text text-anchor="start" x="583.5" y="-787.2" font-family="Helvetica,sans-Serif" font-size="11.00">...</text>
<polygon fill="#ffffff" stroke="transparent" points="580.5,-763 580.5,-781 644.5,-781 644.5,-763 580.5,-763"/>
<polygon fill="none" stroke="black" points="580.5,-763 580.5,-781 644.5,-781 644.5,-763 580.5,-763"/>
<text text-anchor="start" x="583.5" y="-769.2" font-family="Helvetica,sans-Serif" font-size="11.00">&lt; 4</text>
<polygon fill="#ffffff" stroke="transparent" points="644.5,-763 644.5,-781 704.5,-781 704.5,-763 644.5,-763"/>
<polygon fill="none" stroke="black" points="644.5,-763 644.5,-781 704.5,-781 704.5,-763 644.5,-763"/>
<text text-anchor="start" x="668.5" y="-769.2" font-family="Helvetica,sans-Serif" font-size="11.00">0 rows</text>
<polygon fill="#ffffff" stroke="transparent" points="704.5,-763 704.5,-781 739.5,-781 739.5,-763 704.5,-763"/>
<polygon fill="none" stroke="black" points="704.5,-763 704.5,-781 739.5,-781 739.5,-763 704.5,-763"/>
<text text-anchor="start" x="729.5" y="-769.2" font-family="Helvetica,sans-Serif" font-size="11.00"> &#160;</text>
</a>
</g>
</g>
<!-- c_bpartner -->
<g id="node2" class="node">
<title>c_bpartner</title>
<g id="a_node2"><a xlink:href="../../tables/c_bpartner.html" xlink:title="c_bpartner" target="_top">
<polygon fill="#ffffff" stroke="transparent" points="8,-37 8,-777 244,-777 244,-37 8,-37"/>
<polygon fill="#f5f5f5" stroke="transparent" points="8,-755 8,-777 244,-777 244,-755 8,-755"/>
<polygon fill="none" stroke="black" points="8,-755 8,-777 244,-777 244,-755 8,-755"/>
<text text-anchor="start" x="13" y="-764.2" font-family="Helvetica,sans-Serif" font-weight="bold" font-size="11.00">c_bpartner</text>
<text text-anchor="start" x="209" y="-763.2" font-family="Helvetica,sans-Serif" font-size="11.00">[table]</text>
<polygon fill="none" stroke="black" points="8,-733 8,-755 244,-755 244,-733 8,-733"/>
<image xlink:href="../../images/primaryKeys.png" width="11px" height="12px" preserveAspectRatio="xMinYMin meet" x="13" y="-750"/>
<text text-anchor="start" x="28" y="-741.2" font-family="Helvetica,sans-Serif" font-size="11.00">c_bpartner_id</text>
<polygon fill="#ffffff" stroke="transparent" points="8,-711 8,-733 244,-733 244,-711 8,-711"/>
<polygon fill="none" stroke="black" points="8,-711 8,-733 244,-733 244,-711 8,-711"/>
<image xlink:href="../../images/foreignKeys.png" width="11px" height="12px" preserveAspectRatio="xMinYMin meet" x="13" y="-728"/>
<text text-anchor="start" x="28" y="-719.2" font-family="Helvetica,sans-Serif" font-size="11.00">ad_client_id</text>
<polygon fill="none" stroke="black" points="8,-689 8,-711 244,-711 244,-689 8,-689"/>
<image xlink:href="../../images/foreignKeys.png" width="11px" height="12px" preserveAspectRatio="xMinYMin meet" x="13" y="-706"/>
<text text-anchor="start" x="28" y="-697.2" font-family="Helvetica,sans-Serif" font-size="11.00">ad_org_id</text>
<polygon fill="#ffffff" stroke="transparent" points="8,-667 8,-689 244,-689 244,-667 8,-667"/>
<polygon fill="none" stroke="black" points="8,-667 8,-689 244,-689 244,-667 8,-667"/>
<text text-anchor="start" x="28" y="-675.2" font-family="Helvetica,sans-Serif" font-size="11.00">value</text>
<polygon fill="#ffffff" stroke="transparent" points="8,-645 8,-667 244,-667 244,-645 8,-645"/>
<polygon fill="none" stroke="black" points="8,-645 8,-667 244,-667 244,-645 8,-645"/>
<text text-anchor="start" x="28" y="-653.2" font-family="Helvetica,sans-Serif" font-size="11.00">name</text>
<polygon fill="none" stroke="black" points="8,-623 8,-645 244,-645 244,-623 8,-623"/>
<image xlink:href="../../images/foreignKeys.png" width="11px" height="12px" preserveAspectRatio="xMinYMin meet" x="13" y="-640"/>
<text text-anchor="start" x="28" y="-631.2" font-family="Helvetica,sans-Serif" font-size="11.00">c_bp_group_id</text>
<polygon fill="none" stroke="black" points="8,-601 8,-623 244,-623 244,-601 8,-601"/>
<image xlink:href="../../images/foreignKeys.png" width="11px" height="12px" preserveAspectRatio="xMinYMin meet" x="13" y="-618"/>
<text text-anchor="start" x="28" y="-609.2" font-family="Helvetica,sans-Serif" font-size="11.00">ad_language</text>
<polygon fill="none" stroke="black" points="8,-579 8,-601 244,-601 244,-579 8,-579"/>
<image xlink:href="../../images/foreignKeys.png" width="11px" height="12px" preserveAspectRatio="xMinYMin meet" x="13" y="-596"/>
<text text-anchor="start" x="28" y="-587.2" font-family="Helvetica,sans-Serif" font-size="11.00">c_invoiceschedule_id</text>
<polygon fill="none" stroke="black" points="8,-557 8,-579 244,-579 244,-557 8,-557"/>
<image xlink:href="../../images/foreignKeys.png" width="11px" height="12px" preserveAspectRatio="xMinYMin meet" x="13" y="-574"/>
<text text-anchor="start" x="28" y="-565.2" font-family="Helvetica,sans-Serif" font-size="11.00">c_paymentterm_id</text>
<polygon fill="none" stroke="black" points="8,-535 8,-557 244,-557 244,-535 8,-535"/>
<image xlink:href="../../images/foreignKeys.png" width="11px" height="12px" preserveAspectRatio="xMinYMin meet" x="13" y="-552"/>
<text text-anchor="start" x="28" y="-543.2" font-family="Helvetica,sans-Serif" font-size="11.00">m_pricelist_id</text>
<polygon fill="none" stroke="black" points="8,-513 8,-535 244,-535 244,-513 8,-513"/>
<image xlink:href="../../images/foreignKeys.png" width="11px" height="12px" preserveAspectRatio="xMinYMin meet" x="13" y="-530"/>
<text text-anchor="start" x="28" y="-521.2" font-family="Helvetica,sans-Serif" font-size="11.00">m_discountschema_id</text>
<polygon fill="none" stroke="black" points="8,-491 8,-513 244,-513 244,-491 8,-491"/>
<image xlink:href="../../images/foreignKeys.png" width="11px" height="12px" preserveAspectRatio="xMinYMin meet" x="13" y="-508"/>
<text text-anchor="start" x="28" y="-499.2" font-family="Helvetica,sans-Serif" font-size="11.00">c_dunning_id</text>
<polygon fill="none" stroke="black" points="8,-469 8,-491 244,-491 244,-469 8,-469"/>
<image xlink:href="../../images/foreignKeys.png" width="11px" height="12px" preserveAspectRatio="xMinYMin meet" x="13" y="-486"/>
<text text-anchor="start" x="28" y="-477.2" font-family="Helvetica,sans-Serif" font-size="11.00">po_pricelist_id</text>
<polygon fill="none" stroke="black" points="8,-447 8,-469 244,-469 244,-447 8,-447"/>
<image xlink:href="../../images/foreignKeys.png" width="11px" height="12px" preserveAspectRatio="xMinYMin meet" x="13" y="-464"/>
<text text-anchor="start" x="28" y="-455.2" font-family="Helvetica,sans-Serif" font-size="11.00">po_discountschema_id</text>
<polygon fill="none" stroke="black" points="8,-425 8,-447 244,-447 244,-425 8,-425"/>
<image xlink:href="../../images/foreignKeys.png" width="11px" height="12px" preserveAspectRatio="xMinYMin meet" x="13" y="-442"/>
<text text-anchor="start" x="28" y="-433.2" font-family="Helvetica,sans-Serif" font-size="11.00">po_paymentterm_id</text>
<polygon fill="none" stroke="black" points="8,-403 8,-425 244,-425 244,-403 8,-403"/>
<image xlink:href="../../images/foreignKeys.png" width="11px" height="12px" preserveAspectRatio="xMinYMin meet" x="13" y="-420"/>
<text text-anchor="start" x="28" y="-411.2" font-family="Helvetica,sans-Serif" font-size="11.00">c_greeting_id</text>
<polygon fill="none" stroke="black" points="8,-381 8,-403 244,-403 244,-381 8,-381"/>
<image xlink:href="../../images/foreignKeys.png" width="11px" height="12px" preserveAspectRatio="xMinYMin meet" x="13" y="-398"/>
<text text-anchor="start" x="28" y="-389.2" font-family="Helvetica,sans-Serif" font-size="11.00">salesrep_id</text>
<polygon fill="none" stroke="black" points="8,-359 8,-381 244,-381 244,-359 8,-359"/>
<image xlink:href="../../images/foreignKeys.png" width="11px" height="12px" preserveAspectRatio="xMinYMin meet" x="13" y="-376"/>
<text text-anchor="start" x="28" y="-367.2" font-family="Helvetica,sans-Serif" font-size="11.00">bpartner_parent_id</text>
<polygon fill="none" stroke="black" points="8,-337 8,-359 244,-359 244,-337 8,-337"/>
<image xlink:href="../../images/foreignKeys.png" width="11px" height="12px" preserveAspectRatio="xMinYMin meet" x="13" y="-354"/>
<text text-anchor="start" x="28" y="-345.2" font-family="Helvetica,sans-Serif" font-size="11.00">invoice_printformat_id</text>
<polygon fill="#ffffff" stroke="transparent" points="8,-315 8,-337 244,-337 244,-315 8,-315"/>
<polygon fill="none" stroke="black" points="8,-315 8,-337 244,-337 244,-315 8,-315"/>
<image xlink:href="../../images/foreignKeys.png" width="11px" height="12px" preserveAspectRatio="xMinYMin meet" x="13" y="-332"/>
<text text-anchor="start" x="28" y="-323.2" font-family="Helvetica,sans-Serif" font-size="11.00">ad_orgbp_id</text>
<polygon fill="none" stroke="black" points="8,-293 8,-315 244,-315 244,-293 8,-293"/>
<image xlink:href="../../images/foreignKeys.png" width="11px" height="12px" preserveAspectRatio="xMinYMin meet" x="13" y="-310"/>
<text text-anchor="start" x="28" y="-301.2" font-family="Helvetica,sans-Serif" font-size="11.00">c_taxgroup_id</text>
<polygon fill="none" stroke="black" points="8,-271 8,-293 244,-293 244,-271 8,-271"/>
<image xlink:href="../../images/foreignKeys.png" width="11px" height="12px" preserveAspectRatio="xMinYMin meet" x="13" y="-288"/>
<text text-anchor="start" x="28" y="-279.2" font-family="Helvetica,sans-Serif" font-size="11.00">logo_id</text>
<polygon fill="#ffffff" stroke="transparent" points="8,-249 8,-271 244,-271 244,-249 8,-249"/>
<polygon fill="none" stroke="black" points="8,-249 8,-271 244,-271 244,-249 8,-249"/>
<text text-anchor="start" x="28" y="-257.2" font-family="Helvetica,sans-Serif" font-size="11.00">c_bpartner_uu</text>
<polygon fill="none" stroke="black" points="8,-227 8,-249 244,-249 244,-227 8,-227"/>
<image xlink:href="../../images/foreignKeys.png" width="11px" height="12px" preserveAspectRatio="xMinYMin meet" x="13" y="-244"/>
<text text-anchor="start" x="28" y="-235.2" font-family="Helvetica,sans-Serif" font-size="11.00">default1099box_id</text>
<polygon fill="none" stroke="black" points="8,-205 8,-227 244,-227 244,-205 8,-205"/>
<image xlink:href="../../images/foreignKeys.png" width="11px" height="12px" preserveAspectRatio="xMinYMin meet" x="13" y="-222"/>
<text text-anchor="start" x="28" y="-213.2" font-family="Helvetica,sans-Serif" font-size="11.00">cof_c_custody_id</text>
<polygon fill="none" stroke="black" points="8,-183 8,-205 244,-205 244,-183 8,-183"/>
<image xlink:href="../../images/foreignKeys.png" width="11px" height="12px" preserveAspectRatio="xMinYMin meet" x="13" y="-200"/>
<text text-anchor="start" x="28" y="-191.2" font-family="Helvetica,sans-Serif" font-size="11.00">cof_doctypepurchase_id</text>
<polygon fill="none" stroke="black" points="8,-161 8,-183 244,-183 244,-161 8,-161"/>
<image xlink:href="../../images/foreignKeys.png" width="11px" height="12px" preserveAspectRatio="xMinYMin meet" x="13" y="-178"/>
<text text-anchor="start" x="28" y="-169.2" font-family="Helvetica,sans-Serif" font-size="11.00">cof_doctypesale_id</text>
<polygon fill="none" stroke="black" points="8,-139 8,-161 244,-161 244,-139 8,-139"/>
<image xlink:href="../../images/foreignKeys.png" width="11px" height="12px" preserveAspectRatio="xMinYMin meet" x="13" y="-156"/>
<text text-anchor="start" x="28" y="-147.2" font-family="Helvetica,sans-Serif" font-size="11.00">cof_grupofornecedor_id</text>
<polygon fill="none" stroke="black" points="8,-117 8,-139 244,-139 244,-117 8,-117"/>
<image xlink:href="../../images/foreignKeys.png" width="11px" height="12px" preserveAspectRatio="xMinYMin meet" x="13" y="-134"/>
<text text-anchor="start" x="28" y="-125.2" font-family="Helvetica,sans-Serif" font-size="11.00">cof_vendedorinterno_id</text>
<polygon fill="none" stroke="black" points="8,-95 8,-117 244,-117 244,-95 8,-95"/>
<image xlink:href="../../images/foreignKeys.png" width="11px" height="12px" preserveAspectRatio="xMinYMin meet" x="13" y="-112"/>
<text text-anchor="start" x="28" y="-103.2" font-family="Helvetica,sans-Serif" font-size="11.00">cof_tipoparceiro_id</text>
<polygon fill="none" stroke="black" points="8,-73 8,-95 244,-95 244,-73 8,-73"/>
<image xlink:href="../../images/foreignKeys.png" width="11px" height="12px" preserveAspectRatio="xMinYMin meet" x="13" y="-90"/>
<text text-anchor="start" x="28" y="-81.2" font-family="Helvetica,sans-Serif" font-size="11.00">cof_classeparceiro_id</text>
<polygon fill="none" stroke="black" points="8,-55 8,-73 244,-73 244,-55 8,-55"/>
<text text-anchor="start" x="11" y="-61.2" font-family="Helvetica,sans-Serif" font-size="11.00">...</text>
<polygon fill="#ffffff" stroke="transparent" points="8,-37 8,-55 103,-55 103,-37 8,-37"/>
<polygon fill="none" stroke="black" points="8,-37 8,-55 103,-55 103,-37 8,-37"/>
<text text-anchor="start" x="11" y="-43.2" font-family="Helvetica,sans-Serif" font-size="11.00">&lt; 27</text>
<polygon fill="#ffffff" stroke="transparent" points="103,-37 103,-55 176,-55 176,-37 103,-37"/>
<polygon fill="none" stroke="black" points="103,-37 103,-55 176,-55 176,-37 103,-37"/>
<text text-anchor="start" x="140" y="-43.2" font-family="Helvetica,sans-Serif" font-size="11.00">4 rows</text>
<polygon fill="#ffffff" stroke="transparent" points="176,-37 176,-55 244,-55 244,-37 176,-37"/>
<polygon fill="none" stroke="black" points="176,-37 176,-55 244,-55 244,-37 176,-37"/>
<text text-anchor="start" x="213" y="-43.2" font-family="Helvetica,sans-Serif" font-size="11.00">164 &gt;</text>
</a>
</g>
</g>
<!-- w_advertisement&#45;&gt;c_bpartner -->
<g id="edge1" class="edge">
<title>w_advertisement:w&#45;&gt;c_bpartner:e</title>
<path fill="none" stroke="black" d="M564.81,-898.26C443.62,-902.51 383.58,-956.79 285,-878 236.45,-839.2 307.15,-744 245,-744"/>
<polygon fill="black" stroke="black" points="571.5,-898.14 579.56,-901.6 575.5,-898.07 579.5,-898 579.5,-898 579.5,-898 575.5,-898.07 579.44,-894.4 571.5,-898.14 571.5,-898.14"/>
<ellipse fill="none" stroke="black" cx="568.3" cy="-898.2" rx="3.2" ry="3.2"/>
</g>
<!-- w_countercount -->
<g id="node3" class="node">
<title>w_countercount</title>
<g id="a_node3"><a xlink:href="../../tables/w_countercount.html" xlink:title="w_countercount" target="_top">
<polygon fill="#ffffff" stroke="transparent" points="293,-537 293,-867 531,-867 531,-537 293,-537"/>
<polygon fill="#f5f5f5" stroke="transparent" points="295,-843 295,-865 529,-865 529,-843 295,-843"/>
<polygon fill="none" stroke="black" points="295,-843 295,-865 529,-865 529,-843 295,-843"/>
<text text-anchor="start" x="300" y="-852.2" font-family="Helvetica,sans-Serif" font-weight="bold" font-size="11.00">w_countercount</text>
<text text-anchor="start" x="494" y="-851.2" font-family="Helvetica,sans-Serif" font-size="11.00">[table]</text>
<polygon fill="none" stroke="black" points="295,-821 295,-843 446,-843 446,-821 295,-821"/>
<image xlink:href="../../images/primaryKeys.png" width="11px" height="12px" preserveAspectRatio="xMinYMin meet" x="300" y="-838"/>
<text text-anchor="start" x="315" y="-829.2" font-family="Helvetica,sans-Serif" font-size="11.00">w_countercount_id</text>
<polygon fill="none" stroke="black" points="446,-821 446,-843 529,-843 529,-821 446,-821"/>
<text text-anchor="start" x="449" y="-829.2" font-family="Helvetica,sans-Serif" font-size="11.00">numeric[10]</text>
<polygon fill="#ffffff" stroke="transparent" points="295,-799 295,-821 446,-821 446,-799 295,-799"/>
<polygon fill="none" stroke="black" points="295,-799 295,-821 446,-821 446,-799 295,-799"/>
<text text-anchor="start" x="315" y="-807.2" font-family="Helvetica,sans-Serif" font-size="11.00">ad_client_id</text>
<polygon fill="none" stroke="black" points="446,-799 446,-821 529,-821 529,-799 446,-799"/>
<text text-anchor="start" x="449" y="-807.2" font-family="Helvetica,sans-Serif" font-size="11.00">numeric[10]</text>
<polygon fill="none" stroke="black" points="295,-777 295,-799 446,-799 446,-777 295,-777"/>
<text text-anchor="start" x="315" y="-785.2" font-family="Helvetica,sans-Serif" font-size="11.00">ad_org_id</text>
<polygon fill="none" stroke="black" points="446,-777 446,-799 529,-799 529,-777 446,-777"/>
<text text-anchor="start" x="449" y="-785.2" font-family="Helvetica,sans-Serif" font-size="11.00">numeric[10]</text>
<polygon fill="none" stroke="black" points="295,-755 295,-777 446,-777 446,-755 295,-755"/>
<text text-anchor="start" x="315" y="-763.2" font-family="Helvetica,sans-Serif" font-size="11.00">isactive</text>
<polygon fill="none" stroke="black" points="446,-755 446,-777 529,-777 529,-755 446,-755"/>
<text text-anchor="start" x="449" y="-763.2" font-family="Helvetica,sans-Serif" font-size="11.00">bpchar[1]</text>
<polygon fill="none" stroke="black" points="295,-733 295,-755 446,-755 446,-733 295,-733"/>
<text text-anchor="start" x="315" y="-741.2" font-family="Helvetica,sans-Serif" font-size="11.00">created</text>
<polygon fill="none" stroke="black" points="446,-733 446,-755 529,-755 529,-733 446,-733"/>
<text text-anchor="start" x="449" y="-741.2" font-family="Helvetica,sans-Serif" font-size="11.00">timestamp[29,6]</text>
<polygon fill="none" stroke="black" points="295,-711 295,-733 446,-733 446,-711 295,-711"/>
<text text-anchor="start" x="315" y="-719.2" font-family="Helvetica,sans-Serif" font-size="11.00">createdby</text>
<polygon fill="none" stroke="black" points="446,-711 446,-733 529,-733 529,-711 446,-711"/>
<text text-anchor="start" x="449" y="-719.2" font-family="Helvetica,sans-Serif" font-size="11.00">numeric[10]</text>
<polygon fill="none" stroke="black" points="295,-689 295,-711 446,-711 446,-689 295,-689"/>
<text text-anchor="start" x="315" y="-697.2" font-family="Helvetica,sans-Serif" font-size="11.00">updated</text>
<polygon fill="none" stroke="black" points="446,-689 446,-711 529,-711 529,-689 446,-689"/>
<text text-anchor="start" x="449" y="-697.2" font-family="Helvetica,sans-Serif" font-size="11.00">timestamp[29,6]</text>
<polygon fill="none" stroke="black" points="295,-667 295,-689 446,-689 446,-667 295,-667"/>
<text text-anchor="start" x="315" y="-675.2" font-family="Helvetica,sans-Serif" font-size="11.00">updatedby</text>
<polygon fill="none" stroke="black" points="446,-667 446,-689 529,-689 529,-667 446,-667"/>
<text text-anchor="start" x="449" y="-675.2" font-family="Helvetica,sans-Serif" font-size="11.00">numeric[10]</text>
<polygon fill="none" stroke="black" points="295,-645 295,-667 446,-667 446,-645 295,-645"/>
<text text-anchor="start" x="315" y="-653.2" font-family="Helvetica,sans-Serif" font-size="11.00">name</text>
<polygon fill="none" stroke="black" points="446,-645 446,-667 529,-667 529,-645 446,-645"/>
<text text-anchor="start" x="449" y="-653.2" font-family="Helvetica,sans-Serif" font-size="11.00">varchar[60]</text>
<polygon fill="none" stroke="black" points="295,-623 295,-645 446,-645 446,-623 295,-623"/>
<text text-anchor="start" x="315" y="-631.2" font-family="Helvetica,sans-Serif" font-size="11.00">description</text>
<polygon fill="none" stroke="black" points="446,-623 446,-645 529,-645 529,-623 446,-623"/>
<text text-anchor="start" x="449" y="-631.2" font-family="Helvetica,sans-Serif" font-size="11.00">varchar[255]</text>
<polygon fill="#ffffff" stroke="transparent" points="295,-601 295,-623 446,-623 446,-601 295,-601"/>
<polygon fill="none" stroke="black" points="295,-601 295,-623 446,-623 446,-601 295,-601"/>
<text text-anchor="start" x="315" y="-609.2" font-family="Helvetica,sans-Serif" font-size="11.00">pageurl</text>
<polygon fill="none" stroke="black" points="446,-601 446,-623 529,-623 529,-601 446,-601"/>
<text text-anchor="start" x="449" y="-609.2" font-family="Helvetica,sans-Serif" font-size="11.00">varchar[120]</text>
<polygon fill="none" stroke="black" points="295,-579 295,-601 446,-601 446,-579 295,-579"/>
<image xlink:href="../../images/foreignKeys.png" width="11px" height="12px" preserveAspectRatio="xMinYMin meet" x="300" y="-596"/>
<text text-anchor="start" x="315" y="-587.2" font-family="Helvetica,sans-Serif" font-size="11.00">c_bpartner_id</text>
<polygon fill="none" stroke="black" points="446,-579 446,-601 529,-601 529,-579 446,-579"/>
<text text-anchor="start" x="449" y="-587.2" font-family="Helvetica,sans-Serif" font-size="11.00">numeric[10]</text>
<polygon fill="#ffffff" stroke="transparent" points="295,-557 295,-579 446,-579 446,-557 295,-557"/>
<polygon fill="none" stroke="black" points="295,-557 295,-579 446,-579 446,-557 295,-557"/>
<text text-anchor="start" x="315" y="-565.2" font-family="Helvetica,sans-Serif" font-size="11.00">w_countercount_uu</text>
<polygon fill="none" stroke="black" points="446,-557 446,-579 529,-579 529,-557 446,-557"/>
<text text-anchor="start" x="449" y="-565.2" font-family="Helvetica,sans-Serif" font-size="11.00">varchar[36]</text>
<polygon fill="#ffffff" stroke="transparent" points="295,-539 295,-557 362,-557 362,-539 295,-539"/>
<polygon fill="none" stroke="black" points="295,-539 295,-557 362,-557 362,-539 295,-539"/>
<text text-anchor="start" x="298" y="-545.2" font-family="Helvetica,sans-Serif" font-size="11.00">&lt; 1</text>
<polygon fill="#ffffff" stroke="transparent" points="362,-539 362,-557 446,-557 446,-539 362,-539"/>
<polygon fill="none" stroke="black" points="362,-539 362,-557 446,-557 446,-539 362,-539"/>
<text text-anchor="start" x="410" y="-545.2" font-family="Helvetica,sans-Serif" font-size="11.00">0 rows</text>
<polygon fill="#ffffff" stroke="transparent" points="446,-539 446,-557 529,-557 529,-539 446,-539"/>
<polygon fill="none" stroke="black" points="446,-539 446,-557 529,-557 529,-539 446,-539"/>
<text text-anchor="start" x="510" y="-545.2" font-family="Helvetica,sans-Serif" font-size="11.00">2 &gt;</text>
<polygon fill="none" stroke="black" stroke-width="2" points="294,-538 294,-866 530,-866 530,-538 294,-538"/>
</a>
</g>
</g>
<!-- w_advertisement&#45;&gt;w_countercount -->
<g id="edge2" class="edge">
<title>w_advertisement:w&#45;&gt;w_countercount:e</title>
<path fill="none" stroke="black" d="M564.84,-832C553.41,-832 546.16,-832 530,-832"/>
<polygon fill="black" stroke="black" points="571.5,-832 579.5,-835.6 575.5,-832 579.5,-832 579.5,-832 579.5,-832 575.5,-832 579.5,-828.4 571.5,-832 571.5,-832"/>
<ellipse fill="none" stroke="black" cx="568.3" cy="-832" rx="3.2" ry="3.2"/>
</g>
<!-- w_countercount&#45;&gt;c_bpartner -->
<g id="edge4" class="edge">
<title>w_countercount:w&#45;&gt;c_bpartner:e</title>
<path fill="none" stroke="black" d="M279.78,-592.8C236.27,-613.68 311.07,-744 245,-744"/>
<polygon fill="black" stroke="black" points="286.15,-591.55 294.7,-593.53 290.08,-590.77 294,-590 294,-590 294,-590 290.08,-590.77 293.3,-586.47 286.15,-591.55 286.15,-591.55"/>
<ellipse fill="none" stroke="black" cx="283.01" cy="-592.17" rx="3.2" ry="3.2"/>
</g>
<!-- w_counter -->
<g id="node4" class="node">
<title>w_counter</title>
<g id="a_node4"><a xlink:href="../../tables/w_counter.html" xlink:title="w_counter" target="_top">
<polygon fill="#ffffff" stroke="transparent" points="586,-596 586,-742 733,-742 733,-596 586,-596"/>
<polygon fill="#f5f5f5" stroke="transparent" points="586.5,-720 586.5,-742 733.5,-742 733.5,-720 586.5,-720"/>
<polygon fill="none" stroke="black" points="586.5,-720 586.5,-742 733.5,-742 733.5,-720 586.5,-720"/>
<text text-anchor="start" x="591.5" y="-729.2" font-family="Helvetica,sans-Serif" font-weight="bold" font-size="11.00">w_counter</text>
<text text-anchor="start" x="698.5" y="-728.2" font-family="Helvetica,sans-Serif" font-size="11.00">[table]</text>
<polygon fill="none" stroke="black" points="586.5,-698 586.5,-720 733.5,-720 733.5,-698 586.5,-698"/>
<image xlink:href="../../images/primaryKeys.png" width="11px" height="12px" preserveAspectRatio="xMinYMin meet" x="591.5" y="-715"/>
<text text-anchor="start" x="606.5" y="-706.2" font-family="Helvetica,sans-Serif" font-size="11.00">w_counter_id</text>
<polygon fill="none" stroke="black" points="586.5,-676 586.5,-698 733.5,-698 733.5,-676 586.5,-676"/>
<image xlink:href="../../images/foreignKeys.png" width="11px" height="12px" preserveAspectRatio="xMinYMin meet" x="591.5" y="-693"/>
<text text-anchor="start" x="606.5" y="-684.2" font-family="Helvetica,sans-Serif" font-size="11.00">w_countercount_id</text>
<polygon fill="none" stroke="black" points="586.5,-654 586.5,-676 733.5,-676 733.5,-654 586.5,-654"/>
<image xlink:href="../../images/foreignKeys.png" width="11px" height="12px" preserveAspectRatio="xMinYMin meet" x="591.5" y="-671"/>
<text text-anchor="start" x="606.5" y="-662.2" font-family="Helvetica,sans-Serif" font-size="11.00">ad_user_id</text>
<polygon fill="#ffffff" stroke="transparent" points="586.5,-632 586.5,-654 733.5,-654 733.5,-632 586.5,-632"/>
<polygon fill="none" stroke="black" points="586.5,-632 586.5,-654 733.5,-654 733.5,-632 586.5,-632"/>
<text text-anchor="start" x="606.5" y="-640.2" font-family="Helvetica,sans-Serif" font-size="11.00">w_counter_uu</text>
<polygon fill="none" stroke="black" points="586.5,-614 586.5,-632 733.5,-632 733.5,-614 586.5,-614"/>
<text text-anchor="start" x="589.5" y="-620.2" font-family="Helvetica,sans-Serif" font-size="11.00">...</text>
<polygon fill="#ffffff" stroke="transparent" points="586.5,-596 586.5,-614 644.5,-614 644.5,-596 586.5,-596"/>
<polygon fill="none" stroke="black" points="586.5,-596 586.5,-614 644.5,-614 644.5,-596 586.5,-596"/>
<text text-anchor="start" x="589.5" y="-602.2" font-family="Helvetica,sans-Serif" font-size="11.00">&lt; 2</text>
<polygon fill="#ffffff" stroke="transparent" points="644.5,-596 644.5,-614 701.5,-614 701.5,-596 644.5,-596"/>
<polygon fill="none" stroke="black" points="644.5,-596 644.5,-614 701.5,-614 701.5,-596 644.5,-596"/>
<text text-anchor="start" x="665.5" y="-602.2" font-family="Helvetica,sans-Serif" font-size="11.00">0 rows</text>
<polygon fill="#ffffff" stroke="transparent" points="701.5,-596 701.5,-614 733.5,-614 733.5,-596 701.5,-596"/>
<polygon fill="none" stroke="black" points="701.5,-596 701.5,-614 733.5,-614 733.5,-596 701.5,-596"/>
<text text-anchor="start" x="723.5" y="-602.2" font-family="Helvetica,sans-Serif" font-size="11.00"> &#160;</text>
</a>
</g>
</g>
<!-- w_counter&#45;&gt;w_countercount -->
<g id="edge3" class="edge">
<title>w_counter:w&#45;&gt;w_countercount:e</title>
<path fill="none" stroke="black" d="M571.14,-689.9C529.29,-710.33 593.21,-832 530,-832"/>
<polygon fill="black" stroke="black" points="577.66,-688.58 586.21,-690.53 581.58,-687.79 585.5,-687 585.5,-687 585.5,-687 581.58,-687.79 584.79,-683.47 577.66,-688.58 577.66,-688.58"/>
<ellipse fill="none" stroke="black" cx="574.52" cy="-689.21" rx="3.2" ry="3.2"/>
</g>
</g>
</svg>
